G75*
%MOIN*%
%OFA0B0*%
%FSLAX24Y24*%
%IPPOS*%
%LPD*%
%AMOC8*
5,1,8,0,0,1.08239X$1,22.5*
%
%ADD10C,0.0000*%
%ADD11C,0.0397*%
%ADD12C,0.0317*%
%ADD13C,0.0060*%
D10*
X002392Y002517D02*
X002392Y011017D01*
X008892Y011017D01*
X008892Y002517D01*
X002392Y002517D01*
D11*
X003017Y003079D03*
X003017Y003704D03*
X004954Y004829D03*
X004954Y005454D03*
X005829Y005517D03*
X005829Y005142D03*
X007079Y003454D03*
X007079Y003079D03*
X005954Y007392D03*
X005954Y008079D03*
X004892Y008204D03*
X004892Y008829D03*
X007079Y009892D03*
X007267Y010517D03*
D12*
X006829Y008517D03*
X005329Y007392D03*
X004829Y007704D03*
X004829Y006079D03*
X006267Y004642D03*
X007079Y004642D03*
X007517Y004017D03*
X006392Y006079D03*
X003329Y010204D03*
D13*
X003329Y010017D01*
X004329Y009017D01*
X004329Y008204D01*
X004829Y007704D01*
X004829Y007517D01*
X005017Y007329D01*
X005017Y006267D01*
X004829Y006079D01*
X004642Y005892D01*
X004642Y005329D01*
X003017Y003704D01*
X006267Y004642D02*
X006603Y004642D01*
X007228Y004017D01*
X007517Y004017D01*
X007079Y004642D02*
X007079Y004892D01*
X006642Y005329D01*
X006642Y006267D01*
X005642Y007267D01*
X005642Y007704D01*
X006017Y007704D01*
X006829Y008517D01*
X005642Y007704D02*
X004829Y007704D01*
X005329Y007392D02*
X005329Y007142D01*
X006392Y006079D01*
M02*
