G75*
%MOIN*%
%OFA0B0*%
%FSLAX24Y24*%
%IPPOS*%
%LPD*%
%AMOC8*
5,1,8,0,0,1.08239X$1,22.5*
%
%ADD10C,0.0000*%
%ADD11R,0.0472X0.0472*%
%ADD12C,0.0397*%
%ADD13C,0.0060*%
%ADD14C,0.0317*%
D10*
X002392Y002517D02*
X002392Y011017D01*
X008892Y011017D01*
X008892Y002517D01*
X002392Y002517D01*
D11*
X003041Y003392D03*
X003868Y003392D03*
X003541Y004329D03*
X004368Y004329D03*
X004103Y005142D03*
X004930Y005142D03*
X004541Y006079D03*
X005368Y006079D03*
X005916Y006079D03*
X006166Y005329D03*
X006603Y004642D03*
X007041Y004017D03*
X007430Y004642D03*
X007868Y004017D03*
X007478Y003267D03*
X008305Y003267D03*
X006993Y005329D03*
X006743Y006079D03*
X006055Y006892D03*
X005978Y007704D03*
X005305Y007704D03*
X005228Y006892D03*
X004478Y007704D03*
X004868Y008517D03*
X004041Y008517D03*
X004368Y009392D03*
X003541Y009392D03*
X003805Y010204D03*
X002978Y010204D03*
X006353Y008517D03*
X007180Y008517D03*
X006805Y007704D03*
X006916Y009392D03*
X007291Y010204D03*
X008118Y010204D03*
X007743Y009392D03*
D12*
X007079Y009892D03*
X007267Y010517D03*
X005954Y008079D03*
X005954Y007392D03*
X004892Y008204D03*
X004892Y008829D03*
X004954Y005454D03*
X004954Y004829D03*
X005829Y005142D03*
X005829Y005517D03*
X007079Y003454D03*
X007079Y003079D03*
X003017Y003079D03*
X003017Y003704D03*
D13*
X003017Y003416D01*
X003041Y003392D01*
X003017Y003368D01*
X003017Y003079D01*
X003868Y003392D02*
X003868Y003541D01*
X003517Y003892D01*
X003517Y004305D01*
X003541Y004329D01*
X004079Y004829D02*
X004079Y005118D01*
X004103Y005142D01*
X004079Y004829D02*
X004368Y004541D01*
X004368Y004329D01*
X004954Y004829D02*
X004954Y005118D01*
X004930Y005142D01*
X004954Y005166D01*
X004954Y005454D01*
X004829Y006079D02*
X004541Y006079D01*
X005305Y006142D02*
X005305Y006815D01*
X005228Y006892D01*
X005329Y007392D02*
X005305Y007416D01*
X005305Y007704D01*
X004829Y007704D02*
X004478Y007704D01*
X004892Y008204D02*
X004892Y008493D01*
X004868Y008517D01*
X004892Y008541D01*
X004892Y008829D01*
X004368Y009392D02*
X004041Y009065D01*
X004041Y008517D01*
X003541Y009392D02*
X003541Y009940D01*
X003805Y010204D01*
X003329Y010204D02*
X002978Y010204D01*
X005954Y008079D02*
X005954Y007728D01*
X005978Y007704D01*
X005954Y007680D01*
X005954Y007392D01*
X006055Y006954D02*
X006805Y007704D01*
X006829Y008517D02*
X007180Y008517D01*
X007305Y008954D02*
X006704Y008954D01*
X006517Y008767D01*
X006517Y008517D01*
X006353Y008517D01*
X006916Y009392D02*
X007142Y009392D01*
X007829Y010079D01*
X007993Y010079D01*
X008118Y010204D01*
X007291Y010204D02*
X007079Y009993D01*
X007079Y009892D01*
X007267Y010180D02*
X007291Y010204D01*
X007267Y010228D01*
X007267Y010517D01*
X007743Y009392D02*
X007305Y008954D01*
X006055Y006954D02*
X006055Y006892D01*
X005305Y006142D02*
X005368Y006079D01*
X005916Y006079D02*
X005916Y006055D01*
X006267Y005704D01*
X006618Y005704D01*
X006993Y005329D01*
X006930Y005392D01*
X006743Y006079D02*
X006392Y006079D01*
X005978Y005517D02*
X005829Y005517D01*
X005978Y005517D02*
X006166Y005329D01*
X005978Y005142D01*
X005829Y005142D01*
X006079Y005243D02*
X006166Y005329D01*
X006267Y004642D02*
X006603Y004642D01*
X007079Y004642D02*
X007430Y004642D01*
X007517Y004017D02*
X007868Y004017D01*
X007930Y003642D02*
X007454Y003642D01*
X007079Y004017D01*
X007041Y004017D01*
X007079Y003454D02*
X007291Y003454D01*
X007478Y003267D01*
X007291Y003079D01*
X007079Y003079D01*
X007930Y003642D02*
X008305Y003267D01*
D14*
X007517Y004017D03*
X007079Y004642D03*
X006267Y004642D03*
X006392Y006079D03*
X005329Y007392D03*
X004829Y007704D03*
X004829Y006079D03*
X006829Y008517D03*
X003329Y010204D03*
M02*
