G75*
%MOIN*%
%OFA0B0*%
%FSLAX24Y24*%
%IPPOS*%
%LPD*%
%AMOC8*
5,1,8,0,0,1.08239X$1,22.5*
%
%ADD10C,0.0100*%
%ADD11R,0.0079X0.0079*%
%ADD12C,0.0050*%
D10*
X000150Y000150D02*
X000150Y001896D01*
X036400Y001896D01*
X036400Y000150D01*
X000150Y000150D01*
X000525Y000650D02*
X000525Y001400D01*
X001900Y001400D01*
X002025Y001275D01*
X002025Y000650D01*
X000525Y000650D01*
X002525Y000650D02*
X002525Y001400D01*
X003900Y001400D01*
X004025Y001275D01*
X004025Y000650D01*
X002525Y000650D01*
X004525Y000650D02*
X004525Y001400D01*
X005900Y001400D01*
X006025Y001275D01*
X006025Y000650D01*
X004525Y000650D01*
X006525Y000650D02*
X006525Y001400D01*
X007900Y001400D01*
X008025Y001275D01*
X008025Y000650D01*
X006525Y000650D01*
X008525Y000650D02*
X008525Y001400D01*
X009900Y001400D01*
X010025Y001275D01*
X010025Y000650D01*
X008525Y000650D01*
X010525Y000650D02*
X010525Y001400D01*
X011900Y001400D01*
X012025Y001275D01*
X012025Y000650D01*
X010525Y000650D01*
X012525Y000650D02*
X012525Y001400D01*
X013900Y001400D01*
X014025Y001275D01*
X014025Y000650D01*
X012525Y000650D01*
X014525Y000650D02*
X014525Y001400D01*
X015900Y001400D01*
X016025Y001275D01*
X016025Y000650D01*
X014525Y000650D01*
X016525Y000650D02*
X016525Y001400D01*
X017900Y001400D01*
X018025Y001275D01*
X018025Y000650D01*
X016525Y000650D01*
X018525Y000650D02*
X018525Y001400D01*
X019900Y001400D01*
X020025Y001275D01*
X020025Y000650D01*
X018525Y000650D01*
X020525Y000650D02*
X020525Y001400D01*
X021900Y001400D01*
X022025Y001275D01*
X022025Y000650D01*
X020525Y000650D01*
X022525Y000650D02*
X022525Y001400D01*
X023900Y001400D01*
X024025Y001275D01*
X024025Y000650D01*
X022525Y000650D01*
X024525Y000650D02*
X024525Y001400D01*
X025900Y001400D01*
X026025Y001275D01*
X026025Y000650D01*
X024525Y000650D01*
X026525Y000650D02*
X026525Y001400D01*
X027900Y001400D01*
X028025Y001275D01*
X028025Y000650D01*
X026525Y000650D01*
X028525Y000650D02*
X028525Y001400D01*
X029900Y001400D01*
X030025Y001275D01*
X030025Y000650D01*
X028525Y000650D01*
X030525Y000650D02*
X030525Y001400D01*
X031900Y001400D01*
X032025Y001275D01*
X032025Y000650D01*
X030525Y000650D01*
X032525Y000650D02*
X032525Y001400D01*
X033900Y001400D01*
X034025Y001275D01*
X034025Y000650D01*
X032525Y000650D01*
X034525Y000650D02*
X034525Y001400D01*
X035900Y001400D01*
X036025Y001275D01*
X036025Y000650D01*
X034525Y000650D01*
D11*
X035314Y001025D03*
X033314Y001025D03*
X031314Y001025D03*
X029314Y001025D03*
X027314Y001025D03*
X025314Y001025D03*
X023314Y001025D03*
X021314Y001025D03*
X019314Y001025D03*
X017314Y001025D03*
X015314Y001025D03*
X013314Y001025D03*
X011314Y001025D03*
X009314Y001025D03*
X007314Y001025D03*
X005314Y001025D03*
X003314Y001025D03*
X001314Y001025D03*
D12*
X001275Y001550D02*
X001095Y001550D01*
X001095Y001820D01*
X001275Y001820D01*
X001389Y001820D02*
X001524Y001820D01*
X001569Y001775D01*
X001569Y001595D01*
X001524Y001550D01*
X001389Y001550D01*
X001389Y001820D01*
X001684Y001730D02*
X001774Y001820D01*
X001774Y001550D01*
X001684Y001550D02*
X001864Y001550D01*
X002800Y001550D02*
X002980Y001550D01*
X003095Y001550D02*
X003275Y001550D01*
X003389Y001550D02*
X003524Y001550D01*
X003569Y001595D01*
X003569Y001775D01*
X003524Y001820D01*
X003389Y001820D01*
X003389Y001550D01*
X003095Y001550D02*
X003095Y001820D01*
X003275Y001820D01*
X002800Y001820D02*
X002800Y001550D01*
X003684Y001550D02*
X003864Y001730D01*
X003864Y001775D01*
X003819Y001820D01*
X003729Y001820D01*
X003684Y001775D01*
X004800Y001820D02*
X004800Y001550D01*
X004980Y001550D01*
X005095Y001550D02*
X005275Y001550D01*
X005389Y001550D02*
X005524Y001550D01*
X005569Y001595D01*
X005569Y001775D01*
X005524Y001820D01*
X005389Y001820D01*
X005389Y001550D01*
X005095Y001550D02*
X005095Y001820D01*
X005275Y001820D01*
X005684Y001775D02*
X005729Y001820D01*
X005819Y001820D01*
X005864Y001775D01*
X005864Y001730D01*
X005819Y001685D01*
X005864Y001640D01*
X005864Y001595D01*
X005819Y001550D01*
X005729Y001550D01*
X005684Y001595D01*
X006800Y001550D02*
X006980Y001550D01*
X007095Y001550D02*
X007275Y001550D01*
X007389Y001550D02*
X007524Y001550D01*
X007569Y001595D01*
X007569Y001775D01*
X007524Y001820D01*
X007389Y001820D01*
X007389Y001550D01*
X007095Y001550D02*
X007095Y001820D01*
X007275Y001820D01*
X006800Y001820D02*
X006800Y001550D01*
X007819Y001550D02*
X007819Y001820D01*
X007684Y001685D01*
X007864Y001685D01*
X007185Y001685D02*
X007095Y001685D01*
X005819Y001685D02*
X005774Y001685D01*
X005185Y001685D02*
X005095Y001685D01*
X003185Y001685D02*
X003095Y001685D01*
X001185Y001685D02*
X001095Y001685D01*
X000980Y001550D02*
X000800Y001550D01*
X000800Y001820D01*
X003684Y001550D02*
X003864Y001550D01*
X008800Y001550D02*
X008980Y001550D01*
X009095Y001550D02*
X009275Y001550D01*
X009389Y001550D02*
X009524Y001550D01*
X009569Y001595D01*
X009569Y001775D01*
X009524Y001820D01*
X009389Y001820D01*
X009389Y001550D01*
X009095Y001550D02*
X009095Y001820D01*
X009275Y001820D01*
X009684Y001820D02*
X009684Y001685D01*
X009774Y001730D01*
X009819Y001730D01*
X009864Y001685D01*
X009864Y001595D01*
X009819Y001550D01*
X009729Y001550D01*
X009684Y001595D01*
X008800Y001550D02*
X008800Y001820D01*
X009684Y001820D02*
X009864Y001820D01*
X010800Y001820D02*
X010800Y001550D01*
X010980Y001550D01*
X011095Y001550D02*
X011275Y001550D01*
X011389Y001550D02*
X011524Y001550D01*
X011569Y001595D01*
X011569Y001775D01*
X011524Y001820D01*
X011389Y001820D01*
X011389Y001550D01*
X011095Y001550D02*
X011095Y001820D01*
X011275Y001820D01*
X011684Y001685D02*
X011774Y001775D01*
X011864Y001820D01*
X012800Y001820D02*
X012800Y001550D01*
X012980Y001550D01*
X013095Y001550D02*
X013275Y001550D01*
X013389Y001550D02*
X013524Y001550D01*
X013569Y001595D01*
X013569Y001775D01*
X013524Y001820D01*
X013389Y001820D01*
X013389Y001550D01*
X013095Y001550D02*
X013095Y001820D01*
X013275Y001820D01*
X013684Y001820D02*
X013864Y001820D01*
X013864Y001775D01*
X013684Y001595D01*
X013684Y001550D01*
X014800Y001550D02*
X014980Y001550D01*
X015095Y001550D02*
X015275Y001550D01*
X015389Y001550D02*
X015524Y001550D01*
X015569Y001595D01*
X015569Y001775D01*
X015524Y001820D01*
X015389Y001820D01*
X015389Y001550D01*
X015095Y001550D02*
X015095Y001820D01*
X015275Y001820D01*
X014800Y001820D02*
X014800Y001550D01*
X015684Y001595D02*
X015684Y001640D01*
X015729Y001685D01*
X015819Y001685D01*
X015864Y001640D01*
X015864Y001595D01*
X015819Y001550D01*
X015729Y001550D01*
X015684Y001595D01*
X016800Y001550D02*
X016980Y001550D01*
X017095Y001550D02*
X017275Y001550D01*
X017389Y001550D02*
X017524Y001550D01*
X017569Y001595D01*
X017569Y001775D01*
X017524Y001820D01*
X017389Y001820D01*
X017389Y001550D01*
X017095Y001550D02*
X017095Y001820D01*
X017275Y001820D01*
X017684Y001775D02*
X017729Y001820D01*
X017819Y001820D01*
X017864Y001775D01*
X017864Y001595D01*
X017819Y001550D01*
X017729Y001550D01*
X017684Y001595D01*
X016800Y001550D02*
X016800Y001820D01*
X015864Y001775D02*
X015864Y001730D01*
X015819Y001685D01*
X015729Y001685D02*
X015684Y001730D01*
X015684Y001775D01*
X015729Y001820D01*
X015819Y001820D01*
X015864Y001775D01*
X015185Y001685D02*
X015095Y001685D01*
X013185Y001685D02*
X013095Y001685D01*
X011864Y001640D02*
X011819Y001685D01*
X011684Y001685D01*
X011684Y001595D01*
X011729Y001550D01*
X011819Y001550D01*
X011864Y001595D01*
X011864Y001640D01*
X011185Y001685D02*
X011095Y001685D01*
X009185Y001685D02*
X009095Y001685D01*
X017095Y001685D02*
X017185Y001685D01*
X017684Y001730D02*
X017729Y001685D01*
X017864Y001685D01*
X017684Y001730D02*
X017684Y001775D01*
X018800Y001820D02*
X018800Y001550D01*
X018980Y001550D01*
X019095Y001550D02*
X019275Y001550D01*
X019389Y001550D02*
X019524Y001550D01*
X019569Y001595D01*
X019569Y001775D01*
X019524Y001820D01*
X019389Y001820D01*
X019389Y001550D01*
X019095Y001550D02*
X019095Y001820D01*
X019275Y001820D01*
X019684Y001730D02*
X019774Y001820D01*
X019774Y001550D01*
X019684Y001550D02*
X019864Y001550D01*
X019979Y001595D02*
X020024Y001550D01*
X020114Y001550D01*
X020159Y001595D01*
X020159Y001775D01*
X019979Y001595D01*
X019979Y001775D01*
X020024Y001820D01*
X020114Y001820D01*
X020159Y001775D01*
X020800Y001820D02*
X020800Y001550D01*
X020980Y001550D01*
X021095Y001550D02*
X021275Y001550D01*
X021389Y001550D02*
X021524Y001550D01*
X021569Y001595D01*
X021569Y001775D01*
X021524Y001820D01*
X021389Y001820D01*
X021389Y001550D01*
X021095Y001550D02*
X021095Y001820D01*
X021275Y001820D01*
X021684Y001730D02*
X021774Y001820D01*
X021774Y001550D01*
X021684Y001550D02*
X021864Y001550D01*
X021979Y001550D02*
X022159Y001550D01*
X022069Y001550D02*
X022069Y001820D01*
X021979Y001730D01*
X021185Y001685D02*
X021095Y001685D01*
X019185Y001685D02*
X019095Y001685D01*
X022800Y001550D02*
X022980Y001550D01*
X023095Y001550D02*
X023275Y001550D01*
X023389Y001550D02*
X023524Y001550D01*
X023569Y001595D01*
X023569Y001775D01*
X023524Y001820D01*
X023389Y001820D01*
X023389Y001550D01*
X023095Y001550D02*
X023095Y001820D01*
X023275Y001820D01*
X022800Y001820D02*
X022800Y001550D01*
X023684Y001550D02*
X023864Y001550D01*
X023774Y001550D02*
X023774Y001820D01*
X023684Y001730D01*
X023979Y001550D02*
X024159Y001730D01*
X024159Y001775D01*
X024114Y001820D01*
X024024Y001820D01*
X023979Y001775D01*
X024800Y001820D02*
X024800Y001550D01*
X024980Y001550D01*
X025095Y001550D02*
X025275Y001550D01*
X025389Y001550D02*
X025524Y001550D01*
X025569Y001595D01*
X025569Y001775D01*
X025524Y001820D01*
X025389Y001820D01*
X025389Y001550D01*
X025095Y001550D02*
X025095Y001820D01*
X025275Y001820D01*
X025684Y001730D02*
X025774Y001820D01*
X025774Y001550D01*
X025684Y001550D02*
X025864Y001550D01*
X025979Y001595D02*
X026024Y001550D01*
X026114Y001550D01*
X026159Y001595D01*
X026159Y001640D01*
X026114Y001685D01*
X026069Y001685D01*
X026114Y001685D02*
X026159Y001730D01*
X026159Y001775D01*
X026114Y001820D01*
X026024Y001820D01*
X025979Y001775D01*
X026800Y001820D02*
X026800Y001550D01*
X026980Y001550D01*
X027095Y001550D02*
X027275Y001550D01*
X027389Y001550D02*
X027524Y001550D01*
X027569Y001595D01*
X027569Y001775D01*
X027524Y001820D01*
X027389Y001820D01*
X027389Y001550D01*
X027095Y001550D02*
X027095Y001820D01*
X027275Y001820D01*
X027684Y001730D02*
X027774Y001820D01*
X027774Y001550D01*
X027684Y001550D02*
X027864Y001550D01*
X028114Y001550D02*
X028114Y001820D01*
X027979Y001685D01*
X028159Y001685D01*
X029095Y001685D02*
X029185Y001685D01*
X029684Y001730D02*
X029774Y001820D01*
X029774Y001550D01*
X029684Y001550D02*
X029864Y001550D01*
X029979Y001595D02*
X030024Y001550D01*
X030114Y001550D01*
X030159Y001595D01*
X030159Y001685D01*
X030114Y001730D01*
X030069Y001730D01*
X029979Y001685D01*
X029979Y001820D01*
X030159Y001820D01*
X029569Y001775D02*
X029524Y001820D01*
X029389Y001820D01*
X029389Y001550D01*
X029524Y001550D01*
X029569Y001595D01*
X029569Y001775D01*
X029275Y001820D02*
X029095Y001820D01*
X029095Y001550D01*
X029275Y001550D01*
X028980Y001550D02*
X028800Y001550D01*
X028800Y001820D01*
X030800Y001820D02*
X030800Y001550D01*
X030980Y001550D01*
X031095Y001550D02*
X031275Y001550D01*
X031389Y001550D02*
X031524Y001550D01*
X031569Y001595D01*
X031569Y001775D01*
X031524Y001820D01*
X031389Y001820D01*
X031389Y001550D01*
X031095Y001550D02*
X031095Y001820D01*
X031275Y001820D01*
X031684Y001730D02*
X031774Y001820D01*
X031774Y001550D01*
X031684Y001550D02*
X031864Y001550D01*
X031979Y001595D02*
X032024Y001550D01*
X032114Y001550D01*
X032159Y001595D01*
X032159Y001640D01*
X032114Y001685D01*
X031979Y001685D01*
X031979Y001595D01*
X032800Y001550D02*
X032980Y001550D01*
X033095Y001550D02*
X033275Y001550D01*
X033389Y001550D02*
X033524Y001550D01*
X033569Y001595D01*
X033569Y001775D01*
X033524Y001820D01*
X033389Y001820D01*
X033389Y001550D01*
X033095Y001550D02*
X033095Y001820D01*
X033275Y001820D01*
X033684Y001730D02*
X033774Y001820D01*
X033774Y001550D01*
X033684Y001550D02*
X033864Y001550D01*
X033979Y001550D02*
X033979Y001595D01*
X034159Y001775D01*
X034159Y001820D01*
X033979Y001820D01*
X034800Y001820D02*
X034800Y001550D01*
X034980Y001550D01*
X035095Y001550D02*
X035275Y001550D01*
X035389Y001550D02*
X035524Y001550D01*
X035569Y001595D01*
X035569Y001775D01*
X035524Y001820D01*
X035389Y001820D01*
X035389Y001550D01*
X035095Y001550D02*
X035095Y001820D01*
X035275Y001820D01*
X035684Y001730D02*
X035774Y001820D01*
X035774Y001550D01*
X035684Y001550D02*
X035864Y001550D01*
X035979Y001595D02*
X036024Y001550D01*
X036114Y001550D01*
X036159Y001595D01*
X036159Y001640D01*
X036114Y001685D01*
X036024Y001685D01*
X035979Y001730D01*
X035979Y001775D01*
X036024Y001820D01*
X036114Y001820D01*
X036159Y001775D01*
X036159Y001730D01*
X036114Y001685D01*
X036024Y001685D02*
X035979Y001640D01*
X035979Y001595D01*
X035185Y001685D02*
X035095Y001685D01*
X033185Y001685D02*
X033095Y001685D01*
X032069Y001775D02*
X031979Y001685D01*
X031185Y001685D02*
X031095Y001685D01*
X032069Y001775D02*
X032159Y001820D01*
X032800Y001820D02*
X032800Y001550D01*
X027185Y001685D02*
X027095Y001685D01*
X025185Y001685D02*
X025095Y001685D01*
X023185Y001685D02*
X023095Y001685D01*
X023979Y001550D02*
X024159Y001550D01*
M02*
