G75*
G70*
%OFA0B0*%
%FSLAX25Y25*%
%IPPOS*%
%LPD*%
%AMOC8*
5,1,8,0,0,1.08239X$1,22.5*
%
%ADD10C,0.00500*%
%ADD11C,0.01000*%
%ADD15C,0.00600*%
%ADD18C,0.00300*%
%ADD22C,0.00800*%
X0010000Y0010000D02*
G75*
%LPD*%
D11*
X0010000Y0010000D02*
X0010000Y0027460D01*
X0372500Y0027460D01*
X0372500Y0010000D01*
X0010000Y0010000D01*
D15*
X0025070Y0016390D02*
X0027430Y0016390D01*
X0085070Y0016390D02*
X0087430Y0016390D01*
X0145070Y0016390D02*
X0147430Y0016390D01*
X0205070Y0016390D02*
X0207430Y0016390D01*
X0265070Y0016390D02*
X0267430Y0016390D01*
X0325070Y0016390D02*
X0327430Y0016390D01*
X0327430Y0021110D02*
X0325070Y0021110D01*
X0267430Y0021110D02*
X0265070Y0021110D01*
X0207430Y0021110D02*
X0205070Y0021110D01*
X0147430Y0021110D02*
X0145070Y0021110D01*
X0087430Y0021110D02*
X0085070Y0021110D01*
X0027430Y0021110D02*
X0025070Y0021110D01*
D18*
X0025190Y0022150D02*
X0025190Y0025050D01*
X0026150Y0024080D01*
X0027170Y0023600D02*
X0027650Y0023120D01*
X0029100Y0023120D01*
X0028130Y0023120D02*
X0027170Y0022150D01*
X0026150Y0022150D02*
X0024220Y0022150D01*
X0029100Y0022150D02*
X0029100Y0025050D01*
X0027650Y0025050D01*
X0027170Y0024570D01*
X0027170Y0023600D01*
X0084220Y0024080D02*
X0084220Y0024570D01*
X0084700Y0025050D01*
X0085670Y0025050D01*
X0086150Y0024570D01*
X0087170Y0024570D02*
X0087170Y0023600D01*
X0087650Y0023120D01*
X0089100Y0023120D01*
X0088130Y0023120D02*
X0087170Y0022150D01*
X0086150Y0022150D02*
X0084220Y0024080D01*
X0087170Y0024570D02*
X0087650Y0025050D01*
X0089100Y0025050D01*
X0089100Y0022150D01*
X0086150Y0022150D02*
X0084220Y0022150D01*
X0144220Y0022630D02*
X0144700Y0022150D01*
X0145670Y0022150D01*
X0146150Y0022630D01*
X0144220Y0022630D02*
X0144220Y0023120D01*
X0144700Y0023600D01*
X0145190Y0023600D01*
X0144700Y0023600D02*
X0144220Y0024080D01*
X0144220Y0024570D01*
X0144700Y0025050D01*
X0145670Y0025050D01*
X0146150Y0024570D01*
X0147170Y0024570D02*
X0147170Y0023600D01*
X0147650Y0023120D01*
X0149100Y0023120D01*
X0148130Y0023120D02*
X0147170Y0022150D01*
X0149100Y0022150D02*
X0149100Y0025050D01*
X0147650Y0025050D01*
X0147170Y0024570D01*
X0204220Y0023600D02*
X0206150Y0023600D01*
X0204700Y0025050D01*
X0204700Y0022150D01*
X0207170Y0022150D02*
X0208130Y0023120D01*
X0207650Y0023120D02*
X0209100Y0023120D01*
X0207650Y0023120D02*
X0207170Y0023600D01*
X0207170Y0024570D01*
X0207650Y0025050D01*
X0209100Y0025050D01*
X0209100Y0022150D01*
X0264220Y0022630D02*
X0264700Y0022150D01*
X0265670Y0022150D01*
X0266150Y0022630D01*
X0264220Y0022630D02*
X0264220Y0023600D01*
X0264700Y0024080D01*
X0265190Y0024080D01*
X0266150Y0023600D01*
X0266150Y0025050D01*
X0264220Y0025050D01*
X0267170Y0024570D02*
X0267650Y0025050D01*
X0269100Y0025050D01*
X0269100Y0022150D01*
X0268130Y0023120D02*
X0267170Y0022150D01*
X0267650Y0023120D02*
X0269100Y0023120D01*
X0267650Y0023120D02*
X0267170Y0023600D01*
X0267170Y0024570D01*
X0324220Y0025050D02*
X0325190Y0024570D01*
X0326150Y0023600D01*
X0324700Y0023600D01*
X0324220Y0023120D01*
X0324220Y0022630D01*
X0324700Y0022150D01*
X0325670Y0022150D01*
X0326150Y0022630D01*
X0326150Y0023600D01*
X0327170Y0023600D02*
X0327650Y0023120D01*
X0329100Y0023120D01*
X0328130Y0023120D02*
X0327170Y0022150D01*
X0329100Y0022150D02*
X0329100Y0025050D01*
X0327650Y0025050D01*
X0327170Y0024570D01*
X0327170Y0023600D01*
D10*
X0308950Y0024400D02*
X0308950Y0022600D01*
X0308500Y0022150D01*
X0307600Y0022150D01*
X0307150Y0022600D01*
X0307150Y0024400D01*
X0307600Y0024850D01*
X0308500Y0024850D01*
X0308950Y0024400D01*
X0306010Y0024850D02*
X0306010Y0022600D01*
X0305560Y0022150D01*
X0304660Y0022150D01*
X0304210Y0022600D01*
X0304210Y0024850D01*
X0303060Y0024850D02*
X0301260Y0024850D01*
X0302160Y0024850D02*
X0302160Y0022150D01*
X0300110Y0022600D02*
X0299660Y0022150D01*
X0298760Y0022150D01*
X0298310Y0022600D01*
X0298310Y0023500D01*
X0298760Y0023950D01*
X0299210Y0023950D01*
X0300110Y0023500D01*
X0300110Y0024850D01*
X0298310Y0024850D01*
X0248950Y0024400D02*
X0248950Y0022600D01*
X0248500Y0022150D01*
X0247600Y0022150D01*
X0247150Y0022600D01*
X0247150Y0024400D01*
X0247600Y0024850D01*
X0248500Y0024850D01*
X0248950Y0024400D01*
X0246010Y0024850D02*
X0246010Y0022600D01*
X0245560Y0022150D01*
X0244660Y0022150D01*
X0244210Y0022600D01*
X0244210Y0024850D01*
X0243060Y0024850D02*
X0241260Y0024850D01*
X0242160Y0024850D02*
X0242160Y0022150D01*
X0238760Y0022150D02*
X0238760Y0024850D01*
X0240110Y0023500D01*
X0238310Y0023500D01*
X0188950Y0022600D02*
X0188500Y0022150D01*
X0187600Y0022150D01*
X0187150Y0022600D01*
X0187150Y0024400D01*
X0187600Y0024850D01*
X0188500Y0024850D01*
X0188950Y0024400D01*
X0188950Y0022600D01*
X0186010Y0022600D02*
X0185560Y0022150D01*
X0184660Y0022150D01*
X0184210Y0022600D01*
X0184210Y0024850D01*
X0183060Y0024850D02*
X0181260Y0024850D01*
X0182160Y0024850D02*
X0182160Y0022150D01*
X0180110Y0022600D02*
X0179660Y0022150D01*
X0178760Y0022150D01*
X0178310Y0022600D01*
X0178310Y0023050D01*
X0178760Y0023500D01*
X0179210Y0023500D01*
X0178760Y0023500D02*
X0178310Y0023950D01*
X0178310Y0024400D01*
X0178760Y0024850D01*
X0179660Y0024850D01*
X0180110Y0024400D01*
X0186010Y0024850D02*
X0186010Y0022600D01*
X0128950Y0022600D02*
X0128500Y0022150D01*
X0127600Y0022150D01*
X0127150Y0022600D01*
X0127150Y0024400D01*
X0127600Y0024850D01*
X0128500Y0024850D01*
X0128950Y0024400D01*
X0128950Y0022600D01*
X0126010Y0022600D02*
X0125560Y0022150D01*
X0124660Y0022150D01*
X0124210Y0022600D01*
X0124210Y0024850D01*
X0123060Y0024850D02*
X0121260Y0024850D01*
X0122160Y0024850D02*
X0122160Y0022150D01*
X0120110Y0022150D02*
X0118310Y0023950D01*
X0118310Y0024400D01*
X0118760Y0024850D01*
X0119660Y0024850D01*
X0120110Y0024400D01*
X0126010Y0024850D02*
X0126010Y0022600D01*
X0120110Y0022150D02*
X0118310Y0022150D01*
X0068950Y0022600D02*
X0068500Y0022150D01*
X0067600Y0022150D01*
X0067150Y0022600D01*
X0067150Y0024400D01*
X0067600Y0024850D01*
X0068500Y0024850D01*
X0068950Y0024400D01*
X0068950Y0022600D01*
X0066010Y0022600D02*
X0065560Y0022150D01*
X0064660Y0022150D01*
X0064210Y0022600D01*
X0064210Y0024850D01*
X0063060Y0024850D02*
X0061260Y0024850D01*
X0062160Y0024850D02*
X0062160Y0022150D01*
X0060110Y0022150D02*
X0058310Y0022150D01*
X0059210Y0022150D02*
X0059210Y0024850D01*
X0060110Y0023950D01*
X0066010Y0024850D02*
X0066010Y0022600D01*
X0018950Y0023050D02*
X0018050Y0022150D01*
X0017150Y0023050D01*
X0017150Y0024850D01*
X0016010Y0024850D02*
X0015110Y0024850D01*
X0015560Y0024850D02*
X0015560Y0022150D01*
X0016010Y0022150D02*
X0015110Y0022150D01*
X0014040Y0022150D02*
X0014040Y0024850D01*
X0012240Y0022150D01*
X0012240Y0024850D01*
X0018950Y0024850D02*
X0018950Y0023050D01*
X0358310Y0022600D02*
X0358310Y0023050D01*
X0358760Y0023500D01*
X0360110Y0023500D01*
X0360110Y0022600D01*
X0359660Y0022150D01*
X0358760Y0022150D01*
X0358310Y0022600D01*
X0362160Y0022150D02*
X0362160Y0024850D01*
X0363060Y0024850D02*
X0361260Y0024850D01*
X0359210Y0024400D02*
X0358310Y0024850D01*
X0359210Y0024400D02*
X0360110Y0023500D01*
X0364210Y0022600D02*
X0364210Y0024850D01*
X0366010Y0024850D02*
X0366010Y0022600D01*
X0365560Y0022150D01*
X0364660Y0022150D01*
X0364210Y0022600D01*
X0367150Y0022600D02*
X0367150Y0024400D01*
X0367600Y0024850D01*
X0368500Y0024850D01*
X0368950Y0024400D01*
X0368950Y0022600D01*
X0368500Y0022150D01*
X0367600Y0022150D01*
X0367150Y0022600D01*
D22*
X0010400Y0010400D02*
X0010400Y0027860D01*
X0010400Y0027860D02*
X0372100Y0027860D01*
X0372100Y0010400D01*
X0372100Y0010400D02*
X0010400Y0010400D01*
X0010000Y0034960D02*
G75*
%LPD*%
D11*
X0010000Y0034960D02*
X0010000Y0052420D01*
X0372500Y0052420D01*
X0372500Y0034960D01*
X0010000Y0034960D01*
D15*
X0025070Y0041350D02*
X0027430Y0041350D01*
X0085070Y0041350D02*
X0087430Y0041350D01*
X0145070Y0041350D02*
X0147430Y0041350D01*
X0205070Y0041350D02*
X0207430Y0041350D01*
X0265070Y0041350D02*
X0267430Y0041350D01*
X0325070Y0041350D02*
X0327430Y0041350D01*
X0327430Y0046070D02*
X0325070Y0046070D01*
X0267430Y0046070D02*
X0265070Y0046070D01*
X0207430Y0046070D02*
X0205070Y0046070D01*
X0147430Y0046070D02*
X0145070Y0046070D01*
X0087430Y0046070D02*
X0085070Y0046070D01*
X0027430Y0046070D02*
X0025070Y0046070D01*
D18*
X0025190Y0047110D02*
X0025190Y0050010D01*
X0026150Y0049040D01*
X0027170Y0048560D02*
X0027650Y0048080D01*
X0029100Y0048080D01*
X0028130Y0048080D02*
X0027170Y0047110D01*
X0026150Y0047110D02*
X0024220Y0047110D01*
X0029100Y0047110D02*
X0029100Y0050010D01*
X0027650Y0050010D01*
X0027170Y0049530D01*
X0027170Y0048560D01*
X0084220Y0049040D02*
X0084220Y0049530D01*
X0084700Y0050010D01*
X0085670Y0050010D01*
X0086150Y0049530D01*
X0087170Y0049530D02*
X0087170Y0048560D01*
X0087650Y0048080D01*
X0089100Y0048080D01*
X0088130Y0048080D02*
X0087170Y0047110D01*
X0086150Y0047110D02*
X0084220Y0049040D01*
X0087170Y0049530D02*
X0087650Y0050010D01*
X0089100Y0050010D01*
X0089100Y0047110D01*
X0086150Y0047110D02*
X0084220Y0047110D01*
X0144220Y0047590D02*
X0144700Y0047110D01*
X0145670Y0047110D01*
X0146150Y0047590D01*
X0144220Y0047590D02*
X0144220Y0048080D01*
X0144700Y0048560D01*
X0145190Y0048560D01*
X0144700Y0048560D02*
X0144220Y0049040D01*
X0144220Y0049530D01*
X0144700Y0050010D01*
X0145670Y0050010D01*
X0146150Y0049530D01*
X0147170Y0049530D02*
X0147170Y0048560D01*
X0147650Y0048080D01*
X0149100Y0048080D01*
X0148130Y0048080D02*
X0147170Y0047110D01*
X0149100Y0047110D02*
X0149100Y0050010D01*
X0147650Y0050010D01*
X0147170Y0049530D01*
X0204220Y0048560D02*
X0206150Y0048560D01*
X0204700Y0050010D01*
X0204700Y0047110D01*
X0207170Y0047110D02*
X0208130Y0048080D01*
X0207650Y0048080D02*
X0209100Y0048080D01*
X0207650Y0048080D02*
X0207170Y0048560D01*
X0207170Y0049530D01*
X0207650Y0050010D01*
X0209100Y0050010D01*
X0209100Y0047110D01*
X0264220Y0047590D02*
X0264700Y0047110D01*
X0265670Y0047110D01*
X0266150Y0047590D01*
X0264220Y0047590D02*
X0264220Y0048560D01*
X0264700Y0049040D01*
X0265190Y0049040D01*
X0266150Y0048560D01*
X0266150Y0050010D01*
X0264220Y0050010D01*
X0267170Y0049530D02*
X0267650Y0050010D01*
X0269100Y0050010D01*
X0269100Y0047110D01*
X0268130Y0048080D02*
X0267170Y0047110D01*
X0267650Y0048080D02*
X0269100Y0048080D01*
X0267650Y0048080D02*
X0267170Y0048560D01*
X0267170Y0049530D01*
X0324220Y0050010D02*
X0325190Y0049530D01*
X0326150Y0048560D01*
X0324700Y0048560D01*
X0324220Y0048080D01*
X0324220Y0047590D01*
X0324700Y0047110D01*
X0325670Y0047110D01*
X0326150Y0047590D01*
X0326150Y0048560D01*
X0327170Y0048560D02*
X0327650Y0048080D01*
X0329100Y0048080D01*
X0328130Y0048080D02*
X0327170Y0047110D01*
X0329100Y0047110D02*
X0329100Y0050010D01*
X0327650Y0050010D01*
X0327170Y0049530D01*
X0327170Y0048560D01*
D10*
X0308950Y0049360D02*
X0308950Y0047560D01*
X0308500Y0047110D01*
X0307600Y0047110D01*
X0307150Y0047560D01*
X0307150Y0049360D01*
X0307600Y0049810D01*
X0308500Y0049810D01*
X0308950Y0049360D01*
X0306010Y0049810D02*
X0306010Y0047560D01*
X0305560Y0047110D01*
X0304660Y0047110D01*
X0304210Y0047560D01*
X0304210Y0049810D01*
X0303060Y0049810D02*
X0301260Y0049810D01*
X0302160Y0049810D02*
X0302160Y0047110D01*
X0300110Y0047560D02*
X0299660Y0047110D01*
X0298760Y0047110D01*
X0298310Y0047560D01*
X0298310Y0048460D01*
X0298760Y0048910D01*
X0299210Y0048910D01*
X0300110Y0048460D01*
X0300110Y0049810D01*
X0298310Y0049810D01*
X0248950Y0049360D02*
X0248950Y0047560D01*
X0248500Y0047110D01*
X0247600Y0047110D01*
X0247150Y0047560D01*
X0247150Y0049360D01*
X0247600Y0049810D01*
X0248500Y0049810D01*
X0248950Y0049360D01*
X0246010Y0049810D02*
X0246010Y0047560D01*
X0245560Y0047110D01*
X0244660Y0047110D01*
X0244210Y0047560D01*
X0244210Y0049810D01*
X0243060Y0049810D02*
X0241260Y0049810D01*
X0242160Y0049810D02*
X0242160Y0047110D01*
X0238760Y0047110D02*
X0238760Y0049810D01*
X0240110Y0048460D01*
X0238310Y0048460D01*
X0188950Y0047560D02*
X0188500Y0047110D01*
X0187600Y0047110D01*
X0187150Y0047560D01*
X0187150Y0049360D01*
X0187600Y0049810D01*
X0188500Y0049810D01*
X0188950Y0049360D01*
X0188950Y0047560D01*
X0186010Y0047560D02*
X0185560Y0047110D01*
X0184660Y0047110D01*
X0184210Y0047560D01*
X0184210Y0049810D01*
X0183060Y0049810D02*
X0181260Y0049810D01*
X0182160Y0049810D02*
X0182160Y0047110D01*
X0180110Y0047560D02*
X0179660Y0047110D01*
X0178760Y0047110D01*
X0178310Y0047560D01*
X0178310Y0048010D01*
X0178760Y0048460D01*
X0179210Y0048460D01*
X0178760Y0048460D02*
X0178310Y0048910D01*
X0178310Y0049360D01*
X0178760Y0049810D01*
X0179660Y0049810D01*
X0180110Y0049360D01*
X0186010Y0049810D02*
X0186010Y0047560D01*
X0128950Y0047560D02*
X0128500Y0047110D01*
X0127600Y0047110D01*
X0127150Y0047560D01*
X0127150Y0049360D01*
X0127600Y0049810D01*
X0128500Y0049810D01*
X0128950Y0049360D01*
X0128950Y0047560D01*
X0126010Y0047560D02*
X0125560Y0047110D01*
X0124660Y0047110D01*
X0124210Y0047560D01*
X0124210Y0049810D01*
X0123060Y0049810D02*
X0121260Y0049810D01*
X0122160Y0049810D02*
X0122160Y0047110D01*
X0120110Y0047110D02*
X0118310Y0048910D01*
X0118310Y0049360D01*
X0118760Y0049810D01*
X0119660Y0049810D01*
X0120110Y0049360D01*
X0126010Y0049810D02*
X0126010Y0047560D01*
X0120110Y0047110D02*
X0118310Y0047110D01*
X0068950Y0047560D02*
X0068500Y0047110D01*
X0067600Y0047110D01*
X0067150Y0047560D01*
X0067150Y0049360D01*
X0067600Y0049810D01*
X0068500Y0049810D01*
X0068950Y0049360D01*
X0068950Y0047560D01*
X0066010Y0047560D02*
X0065560Y0047110D01*
X0064660Y0047110D01*
X0064210Y0047560D01*
X0064210Y0049810D01*
X0063060Y0049810D02*
X0061260Y0049810D01*
X0062160Y0049810D02*
X0062160Y0047110D01*
X0060110Y0047110D02*
X0058310Y0047110D01*
X0059210Y0047110D02*
X0059210Y0049810D01*
X0060110Y0048910D01*
X0066010Y0049810D02*
X0066010Y0047560D01*
X0018950Y0048010D02*
X0018050Y0047110D01*
X0017150Y0048010D01*
X0017150Y0049810D01*
X0016010Y0049810D02*
X0015110Y0049810D01*
X0015560Y0049810D02*
X0015560Y0047110D01*
X0016010Y0047110D02*
X0015110Y0047110D01*
X0014040Y0047110D02*
X0014040Y0049810D01*
X0012240Y0047110D01*
X0012240Y0049810D01*
X0018950Y0049810D02*
X0018950Y0048010D01*
X0358310Y0047560D02*
X0358310Y0048010D01*
X0358760Y0048460D01*
X0360110Y0048460D01*
X0360110Y0047560D01*
X0359660Y0047110D01*
X0358760Y0047110D01*
X0358310Y0047560D01*
X0362160Y0047110D02*
X0362160Y0049810D01*
X0363060Y0049810D02*
X0361260Y0049810D01*
X0359210Y0049360D02*
X0358310Y0049810D01*
X0359210Y0049360D02*
X0360110Y0048460D01*
X0364210Y0047560D02*
X0364210Y0049810D01*
X0366010Y0049810D02*
X0366010Y0047560D01*
X0365560Y0047110D01*
X0364660Y0047110D01*
X0364210Y0047560D01*
X0367150Y0047560D02*
X0367150Y0049360D01*
X0367600Y0049810D01*
X0368500Y0049810D01*
X0368950Y0049360D01*
X0368950Y0047560D01*
X0368500Y0047110D01*
X0367600Y0047110D01*
X0367150Y0047560D01*
D22*
X0010400Y0034560D02*
X0010400Y0052820D01*
X0010400Y0052820D02*
X0372100Y0052820D01*
X0372100Y0034560D01*
X0372100Y0034560D02*
X0010400Y0034560D01*
X0010000Y0059920D02*
G75*
%LPD*%
D11*
X0010000Y0059920D02*
X0010000Y0077380D01*
X0372500Y0077380D01*
X0372500Y0059920D01*
X0010000Y0059920D01*
D15*
X0025070Y0066310D02*
X0027430Y0066310D01*
X0085070Y0066310D02*
X0087430Y0066310D01*
X0145070Y0066310D02*
X0147430Y0066310D01*
X0205070Y0066310D02*
X0207430Y0066310D01*
X0265070Y0066310D02*
X0267430Y0066310D01*
X0325070Y0066310D02*
X0327430Y0066310D01*
X0327430Y0071030D02*
X0325070Y0071030D01*
X0267430Y0071030D02*
X0265070Y0071030D01*
X0207430Y0071030D02*
X0205070Y0071030D01*
X0147430Y0071030D02*
X0145070Y0071030D01*
X0087430Y0071030D02*
X0085070Y0071030D01*
X0027430Y0071030D02*
X0025070Y0071030D01*
D18*
X0025190Y0072070D02*
X0025190Y0074970D01*
X0026150Y0074000D01*
X0027170Y0073520D02*
X0027650Y0073040D01*
X0029100Y0073040D01*
X0028130Y0073040D02*
X0027170Y0072070D01*
X0026150Y0072070D02*
X0024220Y0072070D01*
X0029100Y0072070D02*
X0029100Y0074970D01*
X0027650Y0074970D01*
X0027170Y0074490D01*
X0027170Y0073520D01*
X0084220Y0074000D02*
X0084220Y0074490D01*
X0084700Y0074970D01*
X0085670Y0074970D01*
X0086150Y0074490D01*
X0087170Y0074490D02*
X0087170Y0073520D01*
X0087650Y0073040D01*
X0089100Y0073040D01*
X0088130Y0073040D02*
X0087170Y0072070D01*
X0086150Y0072070D02*
X0084220Y0074000D01*
X0087170Y0074490D02*
X0087650Y0074970D01*
X0089100Y0074970D01*
X0089100Y0072070D01*
X0086150Y0072070D02*
X0084220Y0072070D01*
X0144220Y0072550D02*
X0144700Y0072070D01*
X0145670Y0072070D01*
X0146150Y0072550D01*
X0144220Y0072550D02*
X0144220Y0073040D01*
X0144700Y0073520D01*
X0145190Y0073520D01*
X0144700Y0073520D02*
X0144220Y0074000D01*
X0144220Y0074490D01*
X0144700Y0074970D01*
X0145670Y0074970D01*
X0146150Y0074490D01*
X0147170Y0074490D02*
X0147170Y0073520D01*
X0147650Y0073040D01*
X0149100Y0073040D01*
X0148130Y0073040D02*
X0147170Y0072070D01*
X0149100Y0072070D02*
X0149100Y0074970D01*
X0147650Y0074970D01*
X0147170Y0074490D01*
X0204220Y0073520D02*
X0206150Y0073520D01*
X0204700Y0074970D01*
X0204700Y0072070D01*
X0207170Y0072070D02*
X0208130Y0073040D01*
X0207650Y0073040D02*
X0209100Y0073040D01*
X0207650Y0073040D02*
X0207170Y0073520D01*
X0207170Y0074490D01*
X0207650Y0074970D01*
X0209100Y0074970D01*
X0209100Y0072070D01*
X0264220Y0072550D02*
X0264700Y0072070D01*
X0265670Y0072070D01*
X0266150Y0072550D01*
X0264220Y0072550D02*
X0264220Y0073520D01*
X0264700Y0074000D01*
X0265190Y0074000D01*
X0266150Y0073520D01*
X0266150Y0074970D01*
X0264220Y0074970D01*
X0267170Y0074490D02*
X0267650Y0074970D01*
X0269100Y0074970D01*
X0269100Y0072070D01*
X0268130Y0073040D02*
X0267170Y0072070D01*
X0267650Y0073040D02*
X0269100Y0073040D01*
X0267650Y0073040D02*
X0267170Y0073520D01*
X0267170Y0074490D01*
X0324220Y0074970D02*
X0325190Y0074490D01*
X0326150Y0073520D01*
X0324700Y0073520D01*
X0324220Y0073040D01*
X0324220Y0072550D01*
X0324700Y0072070D01*
X0325670Y0072070D01*
X0326150Y0072550D01*
X0326150Y0073520D01*
X0327170Y0073520D02*
X0327650Y0073040D01*
X0329100Y0073040D01*
X0328130Y0073040D02*
X0327170Y0072070D01*
X0329100Y0072070D02*
X0329100Y0074970D01*
X0327650Y0074970D01*
X0327170Y0074490D01*
X0327170Y0073520D01*
D10*
X0308950Y0074320D02*
X0308950Y0072520D01*
X0308500Y0072070D01*
X0307600Y0072070D01*
X0307150Y0072520D01*
X0307150Y0074320D01*
X0307600Y0074770D01*
X0308500Y0074770D01*
X0308950Y0074320D01*
X0306010Y0074770D02*
X0306010Y0072520D01*
X0305560Y0072070D01*
X0304660Y0072070D01*
X0304210Y0072520D01*
X0304210Y0074770D01*
X0303060Y0074770D02*
X0301260Y0074770D01*
X0302160Y0074770D02*
X0302160Y0072070D01*
X0300110Y0072520D02*
X0299660Y0072070D01*
X0298760Y0072070D01*
X0298310Y0072520D01*
X0298310Y0073420D01*
X0298760Y0073870D01*
X0299210Y0073870D01*
X0300110Y0073420D01*
X0300110Y0074770D01*
X0298310Y0074770D01*
X0248950Y0074320D02*
X0248950Y0072520D01*
X0248500Y0072070D01*
X0247600Y0072070D01*
X0247150Y0072520D01*
X0247150Y0074320D01*
X0247600Y0074770D01*
X0248500Y0074770D01*
X0248950Y0074320D01*
X0246010Y0074770D02*
X0246010Y0072520D01*
X0245560Y0072070D01*
X0244660Y0072070D01*
X0244210Y0072520D01*
X0244210Y0074770D01*
X0243060Y0074770D02*
X0241260Y0074770D01*
X0242160Y0074770D02*
X0242160Y0072070D01*
X0238760Y0072070D02*
X0238760Y0074770D01*
X0240110Y0073420D01*
X0238310Y0073420D01*
X0188950Y0072520D02*
X0188500Y0072070D01*
X0187600Y0072070D01*
X0187150Y0072520D01*
X0187150Y0074320D01*
X0187600Y0074770D01*
X0188500Y0074770D01*
X0188950Y0074320D01*
X0188950Y0072520D01*
X0186010Y0072520D02*
X0185560Y0072070D01*
X0184660Y0072070D01*
X0184210Y0072520D01*
X0184210Y0074770D01*
X0183060Y0074770D02*
X0181260Y0074770D01*
X0182160Y0074770D02*
X0182160Y0072070D01*
X0180110Y0072520D02*
X0179660Y0072070D01*
X0178760Y0072070D01*
X0178310Y0072520D01*
X0178310Y0072970D01*
X0178760Y0073420D01*
X0179210Y0073420D01*
X0178760Y0073420D02*
X0178310Y0073870D01*
X0178310Y0074320D01*
X0178760Y0074770D01*
X0179660Y0074770D01*
X0180110Y0074320D01*
X0186010Y0074770D02*
X0186010Y0072520D01*
X0128950Y0072520D02*
X0128500Y0072070D01*
X0127600Y0072070D01*
X0127150Y0072520D01*
X0127150Y0074320D01*
X0127600Y0074770D01*
X0128500Y0074770D01*
X0128950Y0074320D01*
X0128950Y0072520D01*
X0126010Y0072520D02*
X0125560Y0072070D01*
X0124660Y0072070D01*
X0124210Y0072520D01*
X0124210Y0074770D01*
X0123060Y0074770D02*
X0121260Y0074770D01*
X0122160Y0074770D02*
X0122160Y0072070D01*
X0120110Y0072070D02*
X0118310Y0073870D01*
X0118310Y0074320D01*
X0118760Y0074770D01*
X0119660Y0074770D01*
X0120110Y0074320D01*
X0126010Y0074770D02*
X0126010Y0072520D01*
X0120110Y0072070D02*
X0118310Y0072070D01*
X0068950Y0072520D02*
X0068500Y0072070D01*
X0067600Y0072070D01*
X0067150Y0072520D01*
X0067150Y0074320D01*
X0067600Y0074770D01*
X0068500Y0074770D01*
X0068950Y0074320D01*
X0068950Y0072520D01*
X0066010Y0072520D02*
X0065560Y0072070D01*
X0064660Y0072070D01*
X0064210Y0072520D01*
X0064210Y0074770D01*
X0063060Y0074770D02*
X0061260Y0074770D01*
X0062160Y0074770D02*
X0062160Y0072070D01*
X0060110Y0072070D02*
X0058310Y0072070D01*
X0059210Y0072070D02*
X0059210Y0074770D01*
X0060110Y0073870D01*
X0066010Y0074770D02*
X0066010Y0072520D01*
X0018950Y0072970D02*
X0018050Y0072070D01*
X0017150Y0072970D01*
X0017150Y0074770D01*
X0016010Y0074770D02*
X0015110Y0074770D01*
X0015560Y0074770D02*
X0015560Y0072070D01*
X0016010Y0072070D02*
X0015110Y0072070D01*
X0014040Y0072070D02*
X0014040Y0074770D01*
X0012240Y0072070D01*
X0012240Y0074770D01*
X0018950Y0074770D02*
X0018950Y0072970D01*
X0358310Y0072520D02*
X0358310Y0072970D01*
X0358760Y0073420D01*
X0360110Y0073420D01*
X0360110Y0072520D01*
X0359660Y0072070D01*
X0358760Y0072070D01*
X0358310Y0072520D01*
X0362160Y0072070D02*
X0362160Y0074770D01*
X0363060Y0074770D02*
X0361260Y0074770D01*
X0359210Y0074320D02*
X0358310Y0074770D01*
X0359210Y0074320D02*
X0360110Y0073420D01*
X0364210Y0072520D02*
X0364210Y0074770D01*
X0366010Y0074770D02*
X0366010Y0072520D01*
X0365560Y0072070D01*
X0364660Y0072070D01*
X0364210Y0072520D01*
X0367150Y0072520D02*
X0367150Y0074320D01*
X0367600Y0074770D01*
X0368500Y0074770D01*
X0368950Y0074320D01*
X0368950Y0072520D01*
X0368500Y0072070D01*
X0367600Y0072070D01*
X0367150Y0072520D01*
D22*
X0010400Y0059520D02*
X0010400Y0077780D01*
X0010400Y0077780D02*
X0372100Y0077780D01*
X0372100Y0059520D01*
X0372100Y0059520D02*
X0010400Y0059520D01*
X0010000Y0084880D02*
G75*
%LPD*%
D11*
X0010000Y0084880D02*
X0010000Y0102340D01*
X0372500Y0102340D01*
X0372500Y0084880D01*
X0010000Y0084880D01*
D15*
X0025070Y0091270D02*
X0027430Y0091270D01*
X0085070Y0091270D02*
X0087430Y0091270D01*
X0145070Y0091270D02*
X0147430Y0091270D01*
X0205070Y0091270D02*
X0207430Y0091270D01*
X0265070Y0091270D02*
X0267430Y0091270D01*
X0325070Y0091270D02*
X0327430Y0091270D01*
X0327430Y0095990D02*
X0325070Y0095990D01*
X0267430Y0095990D02*
X0265070Y0095990D01*
X0207430Y0095990D02*
X0205070Y0095990D01*
X0147430Y0095990D02*
X0145070Y0095990D01*
X0087430Y0095990D02*
X0085070Y0095990D01*
X0027430Y0095990D02*
X0025070Y0095990D01*
D18*
X0025190Y0097030D02*
X0025190Y0099930D01*
X0026150Y0098960D01*
X0027170Y0098480D02*
X0027650Y0098000D01*
X0029100Y0098000D01*
X0028130Y0098000D02*
X0027170Y0097030D01*
X0026150Y0097030D02*
X0024220Y0097030D01*
X0029100Y0097030D02*
X0029100Y0099930D01*
X0027650Y0099930D01*
X0027170Y0099450D01*
X0027170Y0098480D01*
X0084220Y0098960D02*
X0084220Y0099450D01*
X0084700Y0099930D01*
X0085670Y0099930D01*
X0086150Y0099450D01*
X0087170Y0099450D02*
X0087170Y0098480D01*
X0087650Y0098000D01*
X0089100Y0098000D01*
X0088130Y0098000D02*
X0087170Y0097030D01*
X0086150Y0097030D02*
X0084220Y0098960D01*
X0087170Y0099450D02*
X0087650Y0099930D01*
X0089100Y0099930D01*
X0089100Y0097030D01*
X0086150Y0097030D02*
X0084220Y0097030D01*
X0144220Y0097510D02*
X0144700Y0097030D01*
X0145670Y0097030D01*
X0146150Y0097510D01*
X0144220Y0097510D02*
X0144220Y0098000D01*
X0144700Y0098480D01*
X0145190Y0098480D01*
X0144700Y0098480D02*
X0144220Y0098960D01*
X0144220Y0099450D01*
X0144700Y0099930D01*
X0145670Y0099930D01*
X0146150Y0099450D01*
X0147170Y0099450D02*
X0147170Y0098480D01*
X0147650Y0098000D01*
X0149100Y0098000D01*
X0148130Y0098000D02*
X0147170Y0097030D01*
X0149100Y0097030D02*
X0149100Y0099930D01*
X0147650Y0099930D01*
X0147170Y0099450D01*
X0204220Y0098480D02*
X0206150Y0098480D01*
X0204700Y0099930D01*
X0204700Y0097030D01*
X0207170Y0097030D02*
X0208130Y0098000D01*
X0207650Y0098000D02*
X0209100Y0098000D01*
X0207650Y0098000D02*
X0207170Y0098480D01*
X0207170Y0099450D01*
X0207650Y0099930D01*
X0209100Y0099930D01*
X0209100Y0097030D01*
X0264220Y0097510D02*
X0264700Y0097030D01*
X0265670Y0097030D01*
X0266150Y0097510D01*
X0264220Y0097510D02*
X0264220Y0098480D01*
X0264700Y0098960D01*
X0265190Y0098960D01*
X0266150Y0098480D01*
X0266150Y0099930D01*
X0264220Y0099930D01*
X0267170Y0099450D02*
X0267650Y0099930D01*
X0269100Y0099930D01*
X0269100Y0097030D01*
X0268130Y0098000D02*
X0267170Y0097030D01*
X0267650Y0098000D02*
X0269100Y0098000D01*
X0267650Y0098000D02*
X0267170Y0098480D01*
X0267170Y0099450D01*
X0324220Y0099930D02*
X0325190Y0099450D01*
X0326150Y0098480D01*
X0324700Y0098480D01*
X0324220Y0098000D01*
X0324220Y0097510D01*
X0324700Y0097030D01*
X0325670Y0097030D01*
X0326150Y0097510D01*
X0326150Y0098480D01*
X0327170Y0098480D02*
X0327650Y0098000D01*
X0329100Y0098000D01*
X0328130Y0098000D02*
X0327170Y0097030D01*
X0329100Y0097030D02*
X0329100Y0099930D01*
X0327650Y0099930D01*
X0327170Y0099450D01*
X0327170Y0098480D01*
D10*
X0308950Y0099280D02*
X0308950Y0097480D01*
X0308500Y0097030D01*
X0307600Y0097030D01*
X0307150Y0097480D01*
X0307150Y0099280D01*
X0307600Y0099730D01*
X0308500Y0099730D01*
X0308950Y0099280D01*
X0306010Y0099730D02*
X0306010Y0097480D01*
X0305560Y0097030D01*
X0304660Y0097030D01*
X0304210Y0097480D01*
X0304210Y0099730D01*
X0303060Y0099730D02*
X0301260Y0099730D01*
X0302160Y0099730D02*
X0302160Y0097030D01*
X0300110Y0097480D02*
X0299660Y0097030D01*
X0298760Y0097030D01*
X0298310Y0097480D01*
X0298310Y0098380D01*
X0298760Y0098830D01*
X0299210Y0098830D01*
X0300110Y0098380D01*
X0300110Y0099730D01*
X0298310Y0099730D01*
X0248950Y0099280D02*
X0248950Y0097480D01*
X0248500Y0097030D01*
X0247600Y0097030D01*
X0247150Y0097480D01*
X0247150Y0099280D01*
X0247600Y0099730D01*
X0248500Y0099730D01*
X0248950Y0099280D01*
X0246010Y0099730D02*
X0246010Y0097480D01*
X0245560Y0097030D01*
X0244660Y0097030D01*
X0244210Y0097480D01*
X0244210Y0099730D01*
X0243060Y0099730D02*
X0241260Y0099730D01*
X0242160Y0099730D02*
X0242160Y0097030D01*
X0238760Y0097030D02*
X0238760Y0099730D01*
X0240110Y0098380D01*
X0238310Y0098380D01*
X0188950Y0097480D02*
X0188500Y0097030D01*
X0187600Y0097030D01*
X0187150Y0097480D01*
X0187150Y0099280D01*
X0187600Y0099730D01*
X0188500Y0099730D01*
X0188950Y0099280D01*
X0188950Y0097480D01*
X0186010Y0097480D02*
X0185560Y0097030D01*
X0184660Y0097030D01*
X0184210Y0097480D01*
X0184210Y0099730D01*
X0183060Y0099730D02*
X0181260Y0099730D01*
X0182160Y0099730D02*
X0182160Y0097030D01*
X0180110Y0097480D02*
X0179660Y0097030D01*
X0178760Y0097030D01*
X0178310Y0097480D01*
X0178310Y0097930D01*
X0178760Y0098380D01*
X0179210Y0098380D01*
X0178760Y0098380D02*
X0178310Y0098830D01*
X0178310Y0099280D01*
X0178760Y0099730D01*
X0179660Y0099730D01*
X0180110Y0099280D01*
X0186010Y0099730D02*
X0186010Y0097480D01*
X0128950Y0097480D02*
X0128500Y0097030D01*
X0127600Y0097030D01*
X0127150Y0097480D01*
X0127150Y0099280D01*
X0127600Y0099730D01*
X0128500Y0099730D01*
X0128950Y0099280D01*
X0128950Y0097480D01*
X0126010Y0097480D02*
X0125560Y0097030D01*
X0124660Y0097030D01*
X0124210Y0097480D01*
X0124210Y0099730D01*
X0123060Y0099730D02*
X0121260Y0099730D01*
X0122160Y0099730D02*
X0122160Y0097030D01*
X0120110Y0097030D02*
X0118310Y0098830D01*
X0118310Y0099280D01*
X0118760Y0099730D01*
X0119660Y0099730D01*
X0120110Y0099280D01*
X0126010Y0099730D02*
X0126010Y0097480D01*
X0120110Y0097030D02*
X0118310Y0097030D01*
X0068950Y0097480D02*
X0068500Y0097030D01*
X0067600Y0097030D01*
X0067150Y0097480D01*
X0067150Y0099280D01*
X0067600Y0099730D01*
X0068500Y0099730D01*
X0068950Y0099280D01*
X0068950Y0097480D01*
X0066010Y0097480D02*
X0065560Y0097030D01*
X0064660Y0097030D01*
X0064210Y0097480D01*
X0064210Y0099730D01*
X0063060Y0099730D02*
X0061260Y0099730D01*
X0062160Y0099730D02*
X0062160Y0097030D01*
X0060110Y0097030D02*
X0058310Y0097030D01*
X0059210Y0097030D02*
X0059210Y0099730D01*
X0060110Y0098830D01*
X0066010Y0099730D02*
X0066010Y0097480D01*
X0018950Y0097930D02*
X0018050Y0097030D01*
X0017150Y0097930D01*
X0017150Y0099730D01*
X0016010Y0099730D02*
X0015110Y0099730D01*
X0015560Y0099730D02*
X0015560Y0097030D01*
X0016010Y0097030D02*
X0015110Y0097030D01*
X0014040Y0097030D02*
X0014040Y0099730D01*
X0012240Y0097030D01*
X0012240Y0099730D01*
X0018950Y0099730D02*
X0018950Y0097930D01*
X0358310Y0097480D02*
X0358310Y0097930D01*
X0358760Y0098380D01*
X0360110Y0098380D01*
X0360110Y0097480D01*
X0359660Y0097030D01*
X0358760Y0097030D01*
X0358310Y0097480D01*
X0362160Y0097030D02*
X0362160Y0099730D01*
X0363060Y0099730D02*
X0361260Y0099730D01*
X0359210Y0099280D02*
X0358310Y0099730D01*
X0359210Y0099280D02*
X0360110Y0098380D01*
X0364210Y0097480D02*
X0364210Y0099730D01*
X0366010Y0099730D02*
X0366010Y0097480D01*
X0365560Y0097030D01*
X0364660Y0097030D01*
X0364210Y0097480D01*
X0367150Y0097480D02*
X0367150Y0099280D01*
X0367600Y0099730D01*
X0368500Y0099730D01*
X0368950Y0099280D01*
X0368950Y0097480D01*
X0368500Y0097030D01*
X0367600Y0097030D01*
X0367150Y0097480D01*
D22*
X0010400Y0084480D02*
X0010400Y0102740D01*
X0010400Y0102740D02*
X0372100Y0102740D01*
X0372100Y0084480D01*
X0372100Y0084480D02*
X0010400Y0084480D01*
X0010000Y0109840D02*
G75*
%LPD*%
D11*
X0010000Y0109840D02*
X0010000Y0127300D01*
X0372500Y0127300D01*
X0372500Y0109840D01*
X0010000Y0109840D01*
D15*
X0025070Y0116230D02*
X0027430Y0116230D01*
X0085070Y0116230D02*
X0087430Y0116230D01*
X0145070Y0116230D02*
X0147430Y0116230D01*
X0205070Y0116230D02*
X0207430Y0116230D01*
X0265070Y0116230D02*
X0267430Y0116230D01*
X0325070Y0116230D02*
X0327430Y0116230D01*
X0327430Y0120950D02*
X0325070Y0120950D01*
X0267430Y0120950D02*
X0265070Y0120950D01*
X0207430Y0120950D02*
X0205070Y0120950D01*
X0147430Y0120950D02*
X0145070Y0120950D01*
X0087430Y0120950D02*
X0085070Y0120950D01*
X0027430Y0120950D02*
X0025070Y0120950D01*
D18*
X0025190Y0121990D02*
X0025190Y0124890D01*
X0026150Y0123920D01*
X0027170Y0123440D02*
X0027650Y0122960D01*
X0029100Y0122960D01*
X0028130Y0122960D02*
X0027170Y0121990D01*
X0026150Y0121990D02*
X0024220Y0121990D01*
X0029100Y0121990D02*
X0029100Y0124890D01*
X0027650Y0124890D01*
X0027170Y0124410D01*
X0027170Y0123440D01*
X0084220Y0123920D02*
X0084220Y0124410D01*
X0084700Y0124890D01*
X0085670Y0124890D01*
X0086150Y0124410D01*
X0087170Y0124410D02*
X0087170Y0123440D01*
X0087650Y0122960D01*
X0089100Y0122960D01*
X0088130Y0122960D02*
X0087170Y0121990D01*
X0086150Y0121990D02*
X0084220Y0123920D01*
X0087170Y0124410D02*
X0087650Y0124890D01*
X0089100Y0124890D01*
X0089100Y0121990D01*
X0086150Y0121990D02*
X0084220Y0121990D01*
X0144220Y0122470D02*
X0144700Y0121990D01*
X0145670Y0121990D01*
X0146150Y0122470D01*
X0144220Y0122470D02*
X0144220Y0122960D01*
X0144700Y0123440D01*
X0145190Y0123440D01*
X0144700Y0123440D02*
X0144220Y0123920D01*
X0144220Y0124410D01*
X0144700Y0124890D01*
X0145670Y0124890D01*
X0146150Y0124410D01*
X0147170Y0124410D02*
X0147170Y0123440D01*
X0147650Y0122960D01*
X0149100Y0122960D01*
X0148130Y0122960D02*
X0147170Y0121990D01*
X0149100Y0121990D02*
X0149100Y0124890D01*
X0147650Y0124890D01*
X0147170Y0124410D01*
X0204220Y0123440D02*
X0206150Y0123440D01*
X0204700Y0124890D01*
X0204700Y0121990D01*
X0207170Y0121990D02*
X0208130Y0122960D01*
X0207650Y0122960D02*
X0209100Y0122960D01*
X0207650Y0122960D02*
X0207170Y0123440D01*
X0207170Y0124410D01*
X0207650Y0124890D01*
X0209100Y0124890D01*
X0209100Y0121990D01*
X0264220Y0122470D02*
X0264700Y0121990D01*
X0265670Y0121990D01*
X0266150Y0122470D01*
X0264220Y0122470D02*
X0264220Y0123440D01*
X0264700Y0123920D01*
X0265190Y0123920D01*
X0266150Y0123440D01*
X0266150Y0124890D01*
X0264220Y0124890D01*
X0267170Y0124410D02*
X0267650Y0124890D01*
X0269100Y0124890D01*
X0269100Y0121990D01*
X0268130Y0122960D02*
X0267170Y0121990D01*
X0267650Y0122960D02*
X0269100Y0122960D01*
X0267650Y0122960D02*
X0267170Y0123440D01*
X0267170Y0124410D01*
X0324220Y0124890D02*
X0325190Y0124410D01*
X0326150Y0123440D01*
X0324700Y0123440D01*
X0324220Y0122960D01*
X0324220Y0122470D01*
X0324700Y0121990D01*
X0325670Y0121990D01*
X0326150Y0122470D01*
X0326150Y0123440D01*
X0327170Y0123440D02*
X0327650Y0122960D01*
X0329100Y0122960D01*
X0328130Y0122960D02*
X0327170Y0121990D01*
X0329100Y0121990D02*
X0329100Y0124890D01*
X0327650Y0124890D01*
X0327170Y0124410D01*
X0327170Y0123440D01*
D10*
X0308950Y0124240D02*
X0308950Y0122440D01*
X0308500Y0121990D01*
X0307600Y0121990D01*
X0307150Y0122440D01*
X0307150Y0124240D01*
X0307600Y0124690D01*
X0308500Y0124690D01*
X0308950Y0124240D01*
X0306010Y0124690D02*
X0306010Y0122440D01*
X0305560Y0121990D01*
X0304660Y0121990D01*
X0304210Y0122440D01*
X0304210Y0124690D01*
X0303060Y0124690D02*
X0301260Y0124690D01*
X0302160Y0124690D02*
X0302160Y0121990D01*
X0300110Y0122440D02*
X0299660Y0121990D01*
X0298760Y0121990D01*
X0298310Y0122440D01*
X0298310Y0123340D01*
X0298760Y0123790D01*
X0299210Y0123790D01*
X0300110Y0123340D01*
X0300110Y0124690D01*
X0298310Y0124690D01*
X0248950Y0124240D02*
X0248950Y0122440D01*
X0248500Y0121990D01*
X0247600Y0121990D01*
X0247150Y0122440D01*
X0247150Y0124240D01*
X0247600Y0124690D01*
X0248500Y0124690D01*
X0248950Y0124240D01*
X0246010Y0124690D02*
X0246010Y0122440D01*
X0245560Y0121990D01*
X0244660Y0121990D01*
X0244210Y0122440D01*
X0244210Y0124690D01*
X0243060Y0124690D02*
X0241260Y0124690D01*
X0242160Y0124690D02*
X0242160Y0121990D01*
X0238760Y0121990D02*
X0238760Y0124690D01*
X0240110Y0123340D01*
X0238310Y0123340D01*
X0188950Y0122440D02*
X0188500Y0121990D01*
X0187600Y0121990D01*
X0187150Y0122440D01*
X0187150Y0124240D01*
X0187600Y0124690D01*
X0188500Y0124690D01*
X0188950Y0124240D01*
X0188950Y0122440D01*
X0186010Y0122440D02*
X0185560Y0121990D01*
X0184660Y0121990D01*
X0184210Y0122440D01*
X0184210Y0124690D01*
X0183060Y0124690D02*
X0181260Y0124690D01*
X0182160Y0124690D02*
X0182160Y0121990D01*
X0180110Y0122440D02*
X0179660Y0121990D01*
X0178760Y0121990D01*
X0178310Y0122440D01*
X0178310Y0122890D01*
X0178760Y0123340D01*
X0179210Y0123340D01*
X0178760Y0123340D02*
X0178310Y0123790D01*
X0178310Y0124240D01*
X0178760Y0124690D01*
X0179660Y0124690D01*
X0180110Y0124240D01*
X0186010Y0124690D02*
X0186010Y0122440D01*
X0128950Y0122440D02*
X0128500Y0121990D01*
X0127600Y0121990D01*
X0127150Y0122440D01*
X0127150Y0124240D01*
X0127600Y0124690D01*
X0128500Y0124690D01*
X0128950Y0124240D01*
X0128950Y0122440D01*
X0126010Y0122440D02*
X0125560Y0121990D01*
X0124660Y0121990D01*
X0124210Y0122440D01*
X0124210Y0124690D01*
X0123060Y0124690D02*
X0121260Y0124690D01*
X0122160Y0124690D02*
X0122160Y0121990D01*
X0120110Y0121990D02*
X0118310Y0123790D01*
X0118310Y0124240D01*
X0118760Y0124690D01*
X0119660Y0124690D01*
X0120110Y0124240D01*
X0126010Y0124690D02*
X0126010Y0122440D01*
X0120110Y0121990D02*
X0118310Y0121990D01*
X0068950Y0122440D02*
X0068500Y0121990D01*
X0067600Y0121990D01*
X0067150Y0122440D01*
X0067150Y0124240D01*
X0067600Y0124690D01*
X0068500Y0124690D01*
X0068950Y0124240D01*
X0068950Y0122440D01*
X0066010Y0122440D02*
X0065560Y0121990D01*
X0064660Y0121990D01*
X0064210Y0122440D01*
X0064210Y0124690D01*
X0063060Y0124690D02*
X0061260Y0124690D01*
X0062160Y0124690D02*
X0062160Y0121990D01*
X0060110Y0121990D02*
X0058310Y0121990D01*
X0059210Y0121990D02*
X0059210Y0124690D01*
X0060110Y0123790D01*
X0066010Y0124690D02*
X0066010Y0122440D01*
X0018950Y0122890D02*
X0018050Y0121990D01*
X0017150Y0122890D01*
X0017150Y0124690D01*
X0016010Y0124690D02*
X0015110Y0124690D01*
X0015560Y0124690D02*
X0015560Y0121990D01*
X0016010Y0121990D02*
X0015110Y0121990D01*
X0014040Y0121990D02*
X0014040Y0124690D01*
X0012240Y0121990D01*
X0012240Y0124690D01*
X0018950Y0124690D02*
X0018950Y0122890D01*
X0358310Y0122440D02*
X0358310Y0122890D01*
X0358760Y0123340D01*
X0360110Y0123340D01*
X0360110Y0122440D01*
X0359660Y0121990D01*
X0358760Y0121990D01*
X0358310Y0122440D01*
X0362160Y0121990D02*
X0362160Y0124690D01*
X0363060Y0124690D02*
X0361260Y0124690D01*
X0359210Y0124240D02*
X0358310Y0124690D01*
X0359210Y0124240D02*
X0360110Y0123340D01*
X0364210Y0122440D02*
X0364210Y0124690D01*
X0366010Y0124690D02*
X0366010Y0122440D01*
X0365560Y0121990D01*
X0364660Y0121990D01*
X0364210Y0122440D01*
X0367150Y0122440D02*
X0367150Y0124240D01*
X0367600Y0124690D01*
X0368500Y0124690D01*
X0368950Y0124240D01*
X0368950Y0122440D01*
X0368500Y0121990D01*
X0367600Y0121990D01*
X0367150Y0122440D01*
D22*
X0010400Y0109440D02*
X0010400Y0127700D01*
X0010400Y0127700D02*
X0372100Y0127700D01*
X0372100Y0109440D01*
X0372100Y0109440D02*
X0010400Y0109440D01*
X0010000Y0134800D02*
G75*
%LPD*%
D11*
X0010000Y0134800D02*
X0010000Y0152260D01*
X0372500Y0152260D01*
X0372500Y0134800D01*
X0010000Y0134800D01*
D15*
X0025070Y0141190D02*
X0027430Y0141190D01*
X0085070Y0141190D02*
X0087430Y0141190D01*
X0145070Y0141190D02*
X0147430Y0141190D01*
X0205070Y0141190D02*
X0207430Y0141190D01*
X0265070Y0141190D02*
X0267430Y0141190D01*
X0325070Y0141190D02*
X0327430Y0141190D01*
X0327430Y0145910D02*
X0325070Y0145910D01*
X0267430Y0145910D02*
X0265070Y0145910D01*
X0207430Y0145910D02*
X0205070Y0145910D01*
X0147430Y0145910D02*
X0145070Y0145910D01*
X0087430Y0145910D02*
X0085070Y0145910D01*
X0027430Y0145910D02*
X0025070Y0145910D01*
D18*
X0025190Y0146950D02*
X0025190Y0149850D01*
X0026150Y0148880D01*
X0027170Y0148400D02*
X0027650Y0147920D01*
X0029100Y0147920D01*
X0028130Y0147920D02*
X0027170Y0146950D01*
X0026150Y0146950D02*
X0024220Y0146950D01*
X0029100Y0146950D02*
X0029100Y0149850D01*
X0027650Y0149850D01*
X0027170Y0149370D01*
X0027170Y0148400D01*
X0084220Y0148880D02*
X0084220Y0149370D01*
X0084700Y0149850D01*
X0085670Y0149850D01*
X0086150Y0149370D01*
X0087170Y0149370D02*
X0087170Y0148400D01*
X0087650Y0147920D01*
X0089100Y0147920D01*
X0088130Y0147920D02*
X0087170Y0146950D01*
X0086150Y0146950D02*
X0084220Y0148880D01*
X0087170Y0149370D02*
X0087650Y0149850D01*
X0089100Y0149850D01*
X0089100Y0146950D01*
X0086150Y0146950D02*
X0084220Y0146950D01*
X0144220Y0147430D02*
X0144700Y0146950D01*
X0145670Y0146950D01*
X0146150Y0147430D01*
X0144220Y0147430D02*
X0144220Y0147920D01*
X0144700Y0148400D01*
X0145190Y0148400D01*
X0144700Y0148400D02*
X0144220Y0148880D01*
X0144220Y0149370D01*
X0144700Y0149850D01*
X0145670Y0149850D01*
X0146150Y0149370D01*
X0147170Y0149370D02*
X0147170Y0148400D01*
X0147650Y0147920D01*
X0149100Y0147920D01*
X0148130Y0147920D02*
X0147170Y0146950D01*
X0149100Y0146950D02*
X0149100Y0149850D01*
X0147650Y0149850D01*
X0147170Y0149370D01*
X0204220Y0148400D02*
X0206150Y0148400D01*
X0204700Y0149850D01*
X0204700Y0146950D01*
X0207170Y0146950D02*
X0208130Y0147920D01*
X0207650Y0147920D02*
X0209100Y0147920D01*
X0207650Y0147920D02*
X0207170Y0148400D01*
X0207170Y0149370D01*
X0207650Y0149850D01*
X0209100Y0149850D01*
X0209100Y0146950D01*
X0264220Y0147430D02*
X0264700Y0146950D01*
X0265670Y0146950D01*
X0266150Y0147430D01*
X0264220Y0147430D02*
X0264220Y0148400D01*
X0264700Y0148880D01*
X0265190Y0148880D01*
X0266150Y0148400D01*
X0266150Y0149850D01*
X0264220Y0149850D01*
X0267170Y0149370D02*
X0267650Y0149850D01*
X0269100Y0149850D01*
X0269100Y0146950D01*
X0268130Y0147920D02*
X0267170Y0146950D01*
X0267650Y0147920D02*
X0269100Y0147920D01*
X0267650Y0147920D02*
X0267170Y0148400D01*
X0267170Y0149370D01*
X0324220Y0149850D02*
X0325190Y0149370D01*
X0326150Y0148400D01*
X0324700Y0148400D01*
X0324220Y0147920D01*
X0324220Y0147430D01*
X0324700Y0146950D01*
X0325670Y0146950D01*
X0326150Y0147430D01*
X0326150Y0148400D01*
X0327170Y0148400D02*
X0327650Y0147920D01*
X0329100Y0147920D01*
X0328130Y0147920D02*
X0327170Y0146950D01*
X0329100Y0146950D02*
X0329100Y0149850D01*
X0327650Y0149850D01*
X0327170Y0149370D01*
X0327170Y0148400D01*
D10*
X0308950Y0149200D02*
X0308950Y0147400D01*
X0308500Y0146950D01*
X0307600Y0146950D01*
X0307150Y0147400D01*
X0307150Y0149200D01*
X0307600Y0149650D01*
X0308500Y0149650D01*
X0308950Y0149200D01*
X0306010Y0149650D02*
X0306010Y0147400D01*
X0305560Y0146950D01*
X0304660Y0146950D01*
X0304210Y0147400D01*
X0304210Y0149650D01*
X0303060Y0149650D02*
X0301260Y0149650D01*
X0302160Y0149650D02*
X0302160Y0146950D01*
X0300110Y0147400D02*
X0299660Y0146950D01*
X0298760Y0146950D01*
X0298310Y0147400D01*
X0298310Y0148300D01*
X0298760Y0148750D01*
X0299210Y0148750D01*
X0300110Y0148300D01*
X0300110Y0149650D01*
X0298310Y0149650D01*
X0248950Y0149200D02*
X0248950Y0147400D01*
X0248500Y0146950D01*
X0247600Y0146950D01*
X0247150Y0147400D01*
X0247150Y0149200D01*
X0247600Y0149650D01*
X0248500Y0149650D01*
X0248950Y0149200D01*
X0246010Y0149650D02*
X0246010Y0147400D01*
X0245560Y0146950D01*
X0244660Y0146950D01*
X0244210Y0147400D01*
X0244210Y0149650D01*
X0243060Y0149650D02*
X0241260Y0149650D01*
X0242160Y0149650D02*
X0242160Y0146950D01*
X0238760Y0146950D02*
X0238760Y0149650D01*
X0240110Y0148300D01*
X0238310Y0148300D01*
X0188950Y0147400D02*
X0188500Y0146950D01*
X0187600Y0146950D01*
X0187150Y0147400D01*
X0187150Y0149200D01*
X0187600Y0149650D01*
X0188500Y0149650D01*
X0188950Y0149200D01*
X0188950Y0147400D01*
X0186010Y0147400D02*
X0185560Y0146950D01*
X0184660Y0146950D01*
X0184210Y0147400D01*
X0184210Y0149650D01*
X0183060Y0149650D02*
X0181260Y0149650D01*
X0182160Y0149650D02*
X0182160Y0146950D01*
X0180110Y0147400D02*
X0179660Y0146950D01*
X0178760Y0146950D01*
X0178310Y0147400D01*
X0178310Y0147850D01*
X0178760Y0148300D01*
X0179210Y0148300D01*
X0178760Y0148300D02*
X0178310Y0148750D01*
X0178310Y0149200D01*
X0178760Y0149650D01*
X0179660Y0149650D01*
X0180110Y0149200D01*
X0186010Y0149650D02*
X0186010Y0147400D01*
X0128950Y0147400D02*
X0128500Y0146950D01*
X0127600Y0146950D01*
X0127150Y0147400D01*
X0127150Y0149200D01*
X0127600Y0149650D01*
X0128500Y0149650D01*
X0128950Y0149200D01*
X0128950Y0147400D01*
X0126010Y0147400D02*
X0125560Y0146950D01*
X0124660Y0146950D01*
X0124210Y0147400D01*
X0124210Y0149650D01*
X0123060Y0149650D02*
X0121260Y0149650D01*
X0122160Y0149650D02*
X0122160Y0146950D01*
X0120110Y0146950D02*
X0118310Y0148750D01*
X0118310Y0149200D01*
X0118760Y0149650D01*
X0119660Y0149650D01*
X0120110Y0149200D01*
X0126010Y0149650D02*
X0126010Y0147400D01*
X0120110Y0146950D02*
X0118310Y0146950D01*
X0068950Y0147400D02*
X0068500Y0146950D01*
X0067600Y0146950D01*
X0067150Y0147400D01*
X0067150Y0149200D01*
X0067600Y0149650D01*
X0068500Y0149650D01*
X0068950Y0149200D01*
X0068950Y0147400D01*
X0066010Y0147400D02*
X0065560Y0146950D01*
X0064660Y0146950D01*
X0064210Y0147400D01*
X0064210Y0149650D01*
X0063060Y0149650D02*
X0061260Y0149650D01*
X0062160Y0149650D02*
X0062160Y0146950D01*
X0060110Y0146950D02*
X0058310Y0146950D01*
X0059210Y0146950D02*
X0059210Y0149650D01*
X0060110Y0148750D01*
X0066010Y0149650D02*
X0066010Y0147400D01*
X0018950Y0147850D02*
X0018050Y0146950D01*
X0017150Y0147850D01*
X0017150Y0149650D01*
X0016010Y0149650D02*
X0015110Y0149650D01*
X0015560Y0149650D02*
X0015560Y0146950D01*
X0016010Y0146950D02*
X0015110Y0146950D01*
X0014040Y0146950D02*
X0014040Y0149650D01*
X0012240Y0146950D01*
X0012240Y0149650D01*
X0018950Y0149650D02*
X0018950Y0147850D01*
X0358310Y0147400D02*
X0358310Y0147850D01*
X0358760Y0148300D01*
X0360110Y0148300D01*
X0360110Y0147400D01*
X0359660Y0146950D01*
X0358760Y0146950D01*
X0358310Y0147400D01*
X0362160Y0146950D02*
X0362160Y0149650D01*
X0363060Y0149650D02*
X0361260Y0149650D01*
X0359210Y0149200D02*
X0358310Y0149650D01*
X0359210Y0149200D02*
X0360110Y0148300D01*
X0364210Y0147400D02*
X0364210Y0149650D01*
X0366010Y0149650D02*
X0366010Y0147400D01*
X0365560Y0146950D01*
X0364660Y0146950D01*
X0364210Y0147400D01*
X0367150Y0147400D02*
X0367150Y0149200D01*
X0367600Y0149650D01*
X0368500Y0149650D01*
X0368950Y0149200D01*
X0368950Y0147400D01*
X0368500Y0146950D01*
X0367600Y0146950D01*
X0367150Y0147400D01*
D22*
X0010400Y0134400D02*
X0010400Y0152660D01*
X0010400Y0152660D02*
X0372100Y0152660D01*
X0372100Y0134400D01*
X0372100Y0134400D02*
X0010400Y0134400D01*
X0010000Y0159760D02*
G75*
%LPD*%
D11*
X0010000Y0159760D02*
X0010000Y0177220D01*
X0372500Y0177220D01*
X0372500Y0159760D01*
X0010000Y0159760D01*
D15*
X0025070Y0166150D02*
X0027430Y0166150D01*
X0085070Y0166150D02*
X0087430Y0166150D01*
X0145070Y0166150D02*
X0147430Y0166150D01*
X0205070Y0166150D02*
X0207430Y0166150D01*
X0265070Y0166150D02*
X0267430Y0166150D01*
X0325070Y0166150D02*
X0327430Y0166150D01*
X0327430Y0170870D02*
X0325070Y0170870D01*
X0267430Y0170870D02*
X0265070Y0170870D01*
X0207430Y0170870D02*
X0205070Y0170870D01*
X0147430Y0170870D02*
X0145070Y0170870D01*
X0087430Y0170870D02*
X0085070Y0170870D01*
X0027430Y0170870D02*
X0025070Y0170870D01*
D18*
X0025190Y0171910D02*
X0025190Y0174810D01*
X0026150Y0173840D01*
X0027170Y0173360D02*
X0027650Y0172880D01*
X0029100Y0172880D01*
X0028130Y0172880D02*
X0027170Y0171910D01*
X0026150Y0171910D02*
X0024220Y0171910D01*
X0029100Y0171910D02*
X0029100Y0174810D01*
X0027650Y0174810D01*
X0027170Y0174330D01*
X0027170Y0173360D01*
X0084220Y0173840D02*
X0084220Y0174330D01*
X0084700Y0174810D01*
X0085670Y0174810D01*
X0086150Y0174330D01*
X0087170Y0174330D02*
X0087170Y0173360D01*
X0087650Y0172880D01*
X0089100Y0172880D01*
X0088130Y0172880D02*
X0087170Y0171910D01*
X0086150Y0171910D02*
X0084220Y0173840D01*
X0087170Y0174330D02*
X0087650Y0174810D01*
X0089100Y0174810D01*
X0089100Y0171910D01*
X0086150Y0171910D02*
X0084220Y0171910D01*
X0144220Y0172390D02*
X0144700Y0171910D01*
X0145670Y0171910D01*
X0146150Y0172390D01*
X0144220Y0172390D02*
X0144220Y0172880D01*
X0144700Y0173360D01*
X0145190Y0173360D01*
X0144700Y0173360D02*
X0144220Y0173840D01*
X0144220Y0174330D01*
X0144700Y0174810D01*
X0145670Y0174810D01*
X0146150Y0174330D01*
X0147170Y0174330D02*
X0147170Y0173360D01*
X0147650Y0172880D01*
X0149100Y0172880D01*
X0148130Y0172880D02*
X0147170Y0171910D01*
X0149100Y0171910D02*
X0149100Y0174810D01*
X0147650Y0174810D01*
X0147170Y0174330D01*
X0204220Y0173360D02*
X0206150Y0173360D01*
X0204700Y0174810D01*
X0204700Y0171910D01*
X0207170Y0171910D02*
X0208130Y0172880D01*
X0207650Y0172880D02*
X0209100Y0172880D01*
X0207650Y0172880D02*
X0207170Y0173360D01*
X0207170Y0174330D01*
X0207650Y0174810D01*
X0209100Y0174810D01*
X0209100Y0171910D01*
X0264220Y0172390D02*
X0264700Y0171910D01*
X0265670Y0171910D01*
X0266150Y0172390D01*
X0264220Y0172390D02*
X0264220Y0173360D01*
X0264700Y0173840D01*
X0265190Y0173840D01*
X0266150Y0173360D01*
X0266150Y0174810D01*
X0264220Y0174810D01*
X0267170Y0174330D02*
X0267650Y0174810D01*
X0269100Y0174810D01*
X0269100Y0171910D01*
X0268130Y0172880D02*
X0267170Y0171910D01*
X0267650Y0172880D02*
X0269100Y0172880D01*
X0267650Y0172880D02*
X0267170Y0173360D01*
X0267170Y0174330D01*
X0324220Y0174810D02*
X0325190Y0174330D01*
X0326150Y0173360D01*
X0324700Y0173360D01*
X0324220Y0172880D01*
X0324220Y0172390D01*
X0324700Y0171910D01*
X0325670Y0171910D01*
X0326150Y0172390D01*
X0326150Y0173360D01*
X0327170Y0173360D02*
X0327650Y0172880D01*
X0329100Y0172880D01*
X0328130Y0172880D02*
X0327170Y0171910D01*
X0329100Y0171910D02*
X0329100Y0174810D01*
X0327650Y0174810D01*
X0327170Y0174330D01*
X0327170Y0173360D01*
D10*
X0308950Y0174160D02*
X0308950Y0172360D01*
X0308500Y0171910D01*
X0307600Y0171910D01*
X0307150Y0172360D01*
X0307150Y0174160D01*
X0307600Y0174610D01*
X0308500Y0174610D01*
X0308950Y0174160D01*
X0306010Y0174610D02*
X0306010Y0172360D01*
X0305560Y0171910D01*
X0304660Y0171910D01*
X0304210Y0172360D01*
X0304210Y0174610D01*
X0303060Y0174610D02*
X0301260Y0174610D01*
X0302160Y0174610D02*
X0302160Y0171910D01*
X0300110Y0172360D02*
X0299660Y0171910D01*
X0298760Y0171910D01*
X0298310Y0172360D01*
X0298310Y0173260D01*
X0298760Y0173710D01*
X0299210Y0173710D01*
X0300110Y0173260D01*
X0300110Y0174610D01*
X0298310Y0174610D01*
X0248950Y0174160D02*
X0248950Y0172360D01*
X0248500Y0171910D01*
X0247600Y0171910D01*
X0247150Y0172360D01*
X0247150Y0174160D01*
X0247600Y0174610D01*
X0248500Y0174610D01*
X0248950Y0174160D01*
X0246010Y0174610D02*
X0246010Y0172360D01*
X0245560Y0171910D01*
X0244660Y0171910D01*
X0244210Y0172360D01*
X0244210Y0174610D01*
X0243060Y0174610D02*
X0241260Y0174610D01*
X0242160Y0174610D02*
X0242160Y0171910D01*
X0238760Y0171910D02*
X0238760Y0174610D01*
X0240110Y0173260D01*
X0238310Y0173260D01*
X0188950Y0172360D02*
X0188500Y0171910D01*
X0187600Y0171910D01*
X0187150Y0172360D01*
X0187150Y0174160D01*
X0187600Y0174610D01*
X0188500Y0174610D01*
X0188950Y0174160D01*
X0188950Y0172360D01*
X0186010Y0172360D02*
X0185560Y0171910D01*
X0184660Y0171910D01*
X0184210Y0172360D01*
X0184210Y0174610D01*
X0183060Y0174610D02*
X0181260Y0174610D01*
X0182160Y0174610D02*
X0182160Y0171910D01*
X0180110Y0172360D02*
X0179660Y0171910D01*
X0178760Y0171910D01*
X0178310Y0172360D01*
X0178310Y0172810D01*
X0178760Y0173260D01*
X0179210Y0173260D01*
X0178760Y0173260D02*
X0178310Y0173710D01*
X0178310Y0174160D01*
X0178760Y0174610D01*
X0179660Y0174610D01*
X0180110Y0174160D01*
X0186010Y0174610D02*
X0186010Y0172360D01*
X0128950Y0172360D02*
X0128500Y0171910D01*
X0127600Y0171910D01*
X0127150Y0172360D01*
X0127150Y0174160D01*
X0127600Y0174610D01*
X0128500Y0174610D01*
X0128950Y0174160D01*
X0128950Y0172360D01*
X0126010Y0172360D02*
X0125560Y0171910D01*
X0124660Y0171910D01*
X0124210Y0172360D01*
X0124210Y0174610D01*
X0123060Y0174610D02*
X0121260Y0174610D01*
X0122160Y0174610D02*
X0122160Y0171910D01*
X0120110Y0171910D02*
X0118310Y0173710D01*
X0118310Y0174160D01*
X0118760Y0174610D01*
X0119660Y0174610D01*
X0120110Y0174160D01*
X0126010Y0174610D02*
X0126010Y0172360D01*
X0120110Y0171910D02*
X0118310Y0171910D01*
X0068950Y0172360D02*
X0068500Y0171910D01*
X0067600Y0171910D01*
X0067150Y0172360D01*
X0067150Y0174160D01*
X0067600Y0174610D01*
X0068500Y0174610D01*
X0068950Y0174160D01*
X0068950Y0172360D01*
X0066010Y0172360D02*
X0065560Y0171910D01*
X0064660Y0171910D01*
X0064210Y0172360D01*
X0064210Y0174610D01*
X0063060Y0174610D02*
X0061260Y0174610D01*
X0062160Y0174610D02*
X0062160Y0171910D01*
X0060110Y0171910D02*
X0058310Y0171910D01*
X0059210Y0171910D02*
X0059210Y0174610D01*
X0060110Y0173710D01*
X0066010Y0174610D02*
X0066010Y0172360D01*
X0018950Y0172810D02*
X0018050Y0171910D01*
X0017150Y0172810D01*
X0017150Y0174610D01*
X0016010Y0174610D02*
X0015110Y0174610D01*
X0015560Y0174610D02*
X0015560Y0171910D01*
X0016010Y0171910D02*
X0015110Y0171910D01*
X0014040Y0171910D02*
X0014040Y0174610D01*
X0012240Y0171910D01*
X0012240Y0174610D01*
X0018950Y0174610D02*
X0018950Y0172810D01*
X0358310Y0172360D02*
X0358310Y0172810D01*
X0358760Y0173260D01*
X0360110Y0173260D01*
X0360110Y0172360D01*
X0359660Y0171910D01*
X0358760Y0171910D01*
X0358310Y0172360D01*
X0362160Y0171910D02*
X0362160Y0174610D01*
X0363060Y0174610D02*
X0361260Y0174610D01*
X0359210Y0174160D02*
X0358310Y0174610D01*
X0359210Y0174160D02*
X0360110Y0173260D01*
X0364210Y0172360D02*
X0364210Y0174610D01*
X0366010Y0174610D02*
X0366010Y0172360D01*
X0365560Y0171910D01*
X0364660Y0171910D01*
X0364210Y0172360D01*
X0367150Y0172360D02*
X0367150Y0174160D01*
X0367600Y0174610D01*
X0368500Y0174610D01*
X0368950Y0174160D01*
X0368950Y0172360D01*
X0368500Y0171910D01*
X0367600Y0171910D01*
X0367150Y0172360D01*
D22*
X0010400Y0159360D02*
X0010400Y0177620D01*
X0010400Y0177620D02*
X0372100Y0177620D01*
X0372100Y0159360D01*
X0372100Y0159360D02*
X0010400Y0159360D01*
X0010000Y0184720D02*
G75*
%LPD*%
D11*
X0010000Y0184720D02*
X0010000Y0202180D01*
X0372500Y0202180D01*
X0372500Y0184720D01*
X0010000Y0184720D01*
D15*
X0025070Y0191110D02*
X0027430Y0191110D01*
X0085070Y0191110D02*
X0087430Y0191110D01*
X0145070Y0191110D02*
X0147430Y0191110D01*
X0205070Y0191110D02*
X0207430Y0191110D01*
X0265070Y0191110D02*
X0267430Y0191110D01*
X0325070Y0191110D02*
X0327430Y0191110D01*
X0327430Y0195830D02*
X0325070Y0195830D01*
X0267430Y0195830D02*
X0265070Y0195830D01*
X0207430Y0195830D02*
X0205070Y0195830D01*
X0147430Y0195830D02*
X0145070Y0195830D01*
X0087430Y0195830D02*
X0085070Y0195830D01*
X0027430Y0195830D02*
X0025070Y0195830D01*
D18*
X0025190Y0196870D02*
X0025190Y0199770D01*
X0026150Y0198800D01*
X0027170Y0198320D02*
X0027650Y0197840D01*
X0029100Y0197840D01*
X0028130Y0197840D02*
X0027170Y0196870D01*
X0026150Y0196870D02*
X0024220Y0196870D01*
X0029100Y0196870D02*
X0029100Y0199770D01*
X0027650Y0199770D01*
X0027170Y0199290D01*
X0027170Y0198320D01*
X0084220Y0198800D02*
X0084220Y0199290D01*
X0084700Y0199770D01*
X0085670Y0199770D01*
X0086150Y0199290D01*
X0087170Y0199290D02*
X0087170Y0198320D01*
X0087650Y0197840D01*
X0089100Y0197840D01*
X0088130Y0197840D02*
X0087170Y0196870D01*
X0086150Y0196870D02*
X0084220Y0198800D01*
X0087170Y0199290D02*
X0087650Y0199770D01*
X0089100Y0199770D01*
X0089100Y0196870D01*
X0086150Y0196870D02*
X0084220Y0196870D01*
X0144220Y0197350D02*
X0144700Y0196870D01*
X0145670Y0196870D01*
X0146150Y0197350D01*
X0144220Y0197350D02*
X0144220Y0197840D01*
X0144700Y0198320D01*
X0145190Y0198320D01*
X0144700Y0198320D02*
X0144220Y0198800D01*
X0144220Y0199290D01*
X0144700Y0199770D01*
X0145670Y0199770D01*
X0146150Y0199290D01*
X0147170Y0199290D02*
X0147170Y0198320D01*
X0147650Y0197840D01*
X0149100Y0197840D01*
X0148130Y0197840D02*
X0147170Y0196870D01*
X0149100Y0196870D02*
X0149100Y0199770D01*
X0147650Y0199770D01*
X0147170Y0199290D01*
X0204220Y0198320D02*
X0206150Y0198320D01*
X0204700Y0199770D01*
X0204700Y0196870D01*
X0207170Y0196870D02*
X0208130Y0197840D01*
X0207650Y0197840D02*
X0209100Y0197840D01*
X0207650Y0197840D02*
X0207170Y0198320D01*
X0207170Y0199290D01*
X0207650Y0199770D01*
X0209100Y0199770D01*
X0209100Y0196870D01*
X0264220Y0197350D02*
X0264700Y0196870D01*
X0265670Y0196870D01*
X0266150Y0197350D01*
X0264220Y0197350D02*
X0264220Y0198320D01*
X0264700Y0198800D01*
X0265190Y0198800D01*
X0266150Y0198320D01*
X0266150Y0199770D01*
X0264220Y0199770D01*
X0267170Y0199290D02*
X0267650Y0199770D01*
X0269100Y0199770D01*
X0269100Y0196870D01*
X0268130Y0197840D02*
X0267170Y0196870D01*
X0267650Y0197840D02*
X0269100Y0197840D01*
X0267650Y0197840D02*
X0267170Y0198320D01*
X0267170Y0199290D01*
X0324220Y0199770D02*
X0325190Y0199290D01*
X0326150Y0198320D01*
X0324700Y0198320D01*
X0324220Y0197840D01*
X0324220Y0197350D01*
X0324700Y0196870D01*
X0325670Y0196870D01*
X0326150Y0197350D01*
X0326150Y0198320D01*
X0327170Y0198320D02*
X0327650Y0197840D01*
X0329100Y0197840D01*
X0328130Y0197840D02*
X0327170Y0196870D01*
X0329100Y0196870D02*
X0329100Y0199770D01*
X0327650Y0199770D01*
X0327170Y0199290D01*
X0327170Y0198320D01*
D10*
X0308950Y0199120D02*
X0308950Y0197320D01*
X0308500Y0196870D01*
X0307600Y0196870D01*
X0307150Y0197320D01*
X0307150Y0199120D01*
X0307600Y0199570D01*
X0308500Y0199570D01*
X0308950Y0199120D01*
X0306010Y0199570D02*
X0306010Y0197320D01*
X0305560Y0196870D01*
X0304660Y0196870D01*
X0304210Y0197320D01*
X0304210Y0199570D01*
X0303060Y0199570D02*
X0301260Y0199570D01*
X0302160Y0199570D02*
X0302160Y0196870D01*
X0300110Y0197320D02*
X0299660Y0196870D01*
X0298760Y0196870D01*
X0298310Y0197320D01*
X0298310Y0198220D01*
X0298760Y0198670D01*
X0299210Y0198670D01*
X0300110Y0198220D01*
X0300110Y0199570D01*
X0298310Y0199570D01*
X0248950Y0199120D02*
X0248950Y0197320D01*
X0248500Y0196870D01*
X0247600Y0196870D01*
X0247150Y0197320D01*
X0247150Y0199120D01*
X0247600Y0199570D01*
X0248500Y0199570D01*
X0248950Y0199120D01*
X0246010Y0199570D02*
X0246010Y0197320D01*
X0245560Y0196870D01*
X0244660Y0196870D01*
X0244210Y0197320D01*
X0244210Y0199570D01*
X0243060Y0199570D02*
X0241260Y0199570D01*
X0242160Y0199570D02*
X0242160Y0196870D01*
X0238760Y0196870D02*
X0238760Y0199570D01*
X0240110Y0198220D01*
X0238310Y0198220D01*
X0188950Y0197320D02*
X0188500Y0196870D01*
X0187600Y0196870D01*
X0187150Y0197320D01*
X0187150Y0199120D01*
X0187600Y0199570D01*
X0188500Y0199570D01*
X0188950Y0199120D01*
X0188950Y0197320D01*
X0186010Y0197320D02*
X0185560Y0196870D01*
X0184660Y0196870D01*
X0184210Y0197320D01*
X0184210Y0199570D01*
X0183060Y0199570D02*
X0181260Y0199570D01*
X0182160Y0199570D02*
X0182160Y0196870D01*
X0180110Y0197320D02*
X0179660Y0196870D01*
X0178760Y0196870D01*
X0178310Y0197320D01*
X0178310Y0197770D01*
X0178760Y0198220D01*
X0179210Y0198220D01*
X0178760Y0198220D02*
X0178310Y0198670D01*
X0178310Y0199120D01*
X0178760Y0199570D01*
X0179660Y0199570D01*
X0180110Y0199120D01*
X0186010Y0199570D02*
X0186010Y0197320D01*
X0128950Y0197320D02*
X0128500Y0196870D01*
X0127600Y0196870D01*
X0127150Y0197320D01*
X0127150Y0199120D01*
X0127600Y0199570D01*
X0128500Y0199570D01*
X0128950Y0199120D01*
X0128950Y0197320D01*
X0126010Y0197320D02*
X0125560Y0196870D01*
X0124660Y0196870D01*
X0124210Y0197320D01*
X0124210Y0199570D01*
X0123060Y0199570D02*
X0121260Y0199570D01*
X0122160Y0199570D02*
X0122160Y0196870D01*
X0120110Y0196870D02*
X0118310Y0198670D01*
X0118310Y0199120D01*
X0118760Y0199570D01*
X0119660Y0199570D01*
X0120110Y0199120D01*
X0126010Y0199570D02*
X0126010Y0197320D01*
X0120110Y0196870D02*
X0118310Y0196870D01*
X0068950Y0197320D02*
X0068500Y0196870D01*
X0067600Y0196870D01*
X0067150Y0197320D01*
X0067150Y0199120D01*
X0067600Y0199570D01*
X0068500Y0199570D01*
X0068950Y0199120D01*
X0068950Y0197320D01*
X0066010Y0197320D02*
X0065560Y0196870D01*
X0064660Y0196870D01*
X0064210Y0197320D01*
X0064210Y0199570D01*
X0063060Y0199570D02*
X0061260Y0199570D01*
X0062160Y0199570D02*
X0062160Y0196870D01*
X0060110Y0196870D02*
X0058310Y0196870D01*
X0059210Y0196870D02*
X0059210Y0199570D01*
X0060110Y0198670D01*
X0066010Y0199570D02*
X0066010Y0197320D01*
X0018950Y0197770D02*
X0018050Y0196870D01*
X0017150Y0197770D01*
X0017150Y0199570D01*
X0016010Y0199570D02*
X0015110Y0199570D01*
X0015560Y0199570D02*
X0015560Y0196870D01*
X0016010Y0196870D02*
X0015110Y0196870D01*
X0014040Y0196870D02*
X0014040Y0199570D01*
X0012240Y0196870D01*
X0012240Y0199570D01*
X0018950Y0199570D02*
X0018950Y0197770D01*
X0358310Y0197320D02*
X0358310Y0197770D01*
X0358760Y0198220D01*
X0360110Y0198220D01*
X0360110Y0197320D01*
X0359660Y0196870D01*
X0358760Y0196870D01*
X0358310Y0197320D01*
X0362160Y0196870D02*
X0362160Y0199570D01*
X0363060Y0199570D02*
X0361260Y0199570D01*
X0359210Y0199120D02*
X0358310Y0199570D01*
X0359210Y0199120D02*
X0360110Y0198220D01*
X0364210Y0197320D02*
X0364210Y0199570D01*
X0366010Y0199570D02*
X0366010Y0197320D01*
X0365560Y0196870D01*
X0364660Y0196870D01*
X0364210Y0197320D01*
X0367150Y0197320D02*
X0367150Y0199120D01*
X0367600Y0199570D01*
X0368500Y0199570D01*
X0368950Y0199120D01*
X0368950Y0197320D01*
X0368500Y0196870D01*
X0367600Y0196870D01*
X0367150Y0197320D01*
D22*
X0010400Y0184320D02*
X0010400Y0202580D01*
X0010400Y0202580D02*
X0372100Y0202580D01*
X0372100Y0184320D01*
X0372100Y0184320D02*
X0010400Y0184320D01*
X0010000Y0209680D02*
G75*
%LPD*%
D11*
X0010000Y0209680D02*
X0010000Y0227140D01*
X0372500Y0227140D01*
X0372500Y0209680D01*
X0010000Y0209680D01*
D15*
X0025070Y0216070D02*
X0027430Y0216070D01*
X0085070Y0216070D02*
X0087430Y0216070D01*
X0145070Y0216070D02*
X0147430Y0216070D01*
X0205070Y0216070D02*
X0207430Y0216070D01*
X0265070Y0216070D02*
X0267430Y0216070D01*
X0325070Y0216070D02*
X0327430Y0216070D01*
X0327430Y0220790D02*
X0325070Y0220790D01*
X0267430Y0220790D02*
X0265070Y0220790D01*
X0207430Y0220790D02*
X0205070Y0220790D01*
X0147430Y0220790D02*
X0145070Y0220790D01*
X0087430Y0220790D02*
X0085070Y0220790D01*
X0027430Y0220790D02*
X0025070Y0220790D01*
D18*
X0025190Y0221830D02*
X0025190Y0224730D01*
X0026150Y0223760D01*
X0027170Y0223280D02*
X0027650Y0222800D01*
X0029100Y0222800D01*
X0028130Y0222800D02*
X0027170Y0221830D01*
X0026150Y0221830D02*
X0024220Y0221830D01*
X0029100Y0221830D02*
X0029100Y0224730D01*
X0027650Y0224730D01*
X0027170Y0224250D01*
X0027170Y0223280D01*
X0084220Y0223760D02*
X0084220Y0224250D01*
X0084700Y0224730D01*
X0085670Y0224730D01*
X0086150Y0224250D01*
X0087170Y0224250D02*
X0087170Y0223280D01*
X0087650Y0222800D01*
X0089100Y0222800D01*
X0088130Y0222800D02*
X0087170Y0221830D01*
X0086150Y0221830D02*
X0084220Y0223760D01*
X0087170Y0224250D02*
X0087650Y0224730D01*
X0089100Y0224730D01*
X0089100Y0221830D01*
X0086150Y0221830D02*
X0084220Y0221830D01*
X0144220Y0222310D02*
X0144700Y0221830D01*
X0145670Y0221830D01*
X0146150Y0222310D01*
X0144220Y0222310D02*
X0144220Y0222800D01*
X0144700Y0223280D01*
X0145190Y0223280D01*
X0144700Y0223280D02*
X0144220Y0223760D01*
X0144220Y0224250D01*
X0144700Y0224730D01*
X0145670Y0224730D01*
X0146150Y0224250D01*
X0147170Y0224250D02*
X0147170Y0223280D01*
X0147650Y0222800D01*
X0149100Y0222800D01*
X0148130Y0222800D02*
X0147170Y0221830D01*
X0149100Y0221830D02*
X0149100Y0224730D01*
X0147650Y0224730D01*
X0147170Y0224250D01*
X0204220Y0223280D02*
X0206150Y0223280D01*
X0204700Y0224730D01*
X0204700Y0221830D01*
X0207170Y0221830D02*
X0208130Y0222800D01*
X0207650Y0222800D02*
X0209100Y0222800D01*
X0207650Y0222800D02*
X0207170Y0223280D01*
X0207170Y0224250D01*
X0207650Y0224730D01*
X0209100Y0224730D01*
X0209100Y0221830D01*
X0264220Y0222310D02*
X0264700Y0221830D01*
X0265670Y0221830D01*
X0266150Y0222310D01*
X0264220Y0222310D02*
X0264220Y0223280D01*
X0264700Y0223760D01*
X0265190Y0223760D01*
X0266150Y0223280D01*
X0266150Y0224730D01*
X0264220Y0224730D01*
X0267170Y0224250D02*
X0267650Y0224730D01*
X0269100Y0224730D01*
X0269100Y0221830D01*
X0268130Y0222800D02*
X0267170Y0221830D01*
X0267650Y0222800D02*
X0269100Y0222800D01*
X0267650Y0222800D02*
X0267170Y0223280D01*
X0267170Y0224250D01*
X0324220Y0224730D02*
X0325190Y0224250D01*
X0326150Y0223280D01*
X0324700Y0223280D01*
X0324220Y0222800D01*
X0324220Y0222310D01*
X0324700Y0221830D01*
X0325670Y0221830D01*
X0326150Y0222310D01*
X0326150Y0223280D01*
X0327170Y0223280D02*
X0327650Y0222800D01*
X0329100Y0222800D01*
X0328130Y0222800D02*
X0327170Y0221830D01*
X0329100Y0221830D02*
X0329100Y0224730D01*
X0327650Y0224730D01*
X0327170Y0224250D01*
X0327170Y0223280D01*
D10*
X0308950Y0224080D02*
X0308950Y0222280D01*
X0308500Y0221830D01*
X0307600Y0221830D01*
X0307150Y0222280D01*
X0307150Y0224080D01*
X0307600Y0224530D01*
X0308500Y0224530D01*
X0308950Y0224080D01*
X0306010Y0224530D02*
X0306010Y0222280D01*
X0305560Y0221830D01*
X0304660Y0221830D01*
X0304210Y0222280D01*
X0304210Y0224530D01*
X0303060Y0224530D02*
X0301260Y0224530D01*
X0302160Y0224530D02*
X0302160Y0221830D01*
X0300110Y0222280D02*
X0299660Y0221830D01*
X0298760Y0221830D01*
X0298310Y0222280D01*
X0298310Y0223180D01*
X0298760Y0223630D01*
X0299210Y0223630D01*
X0300110Y0223180D01*
X0300110Y0224530D01*
X0298310Y0224530D01*
X0248950Y0224080D02*
X0248950Y0222280D01*
X0248500Y0221830D01*
X0247600Y0221830D01*
X0247150Y0222280D01*
X0247150Y0224080D01*
X0247600Y0224530D01*
X0248500Y0224530D01*
X0248950Y0224080D01*
X0246010Y0224530D02*
X0246010Y0222280D01*
X0245560Y0221830D01*
X0244660Y0221830D01*
X0244210Y0222280D01*
X0244210Y0224530D01*
X0243060Y0224530D02*
X0241260Y0224530D01*
X0242160Y0224530D02*
X0242160Y0221830D01*
X0238760Y0221830D02*
X0238760Y0224530D01*
X0240110Y0223180D01*
X0238310Y0223180D01*
X0188950Y0222280D02*
X0188500Y0221830D01*
X0187600Y0221830D01*
X0187150Y0222280D01*
X0187150Y0224080D01*
X0187600Y0224530D01*
X0188500Y0224530D01*
X0188950Y0224080D01*
X0188950Y0222280D01*
X0186010Y0222280D02*
X0185560Y0221830D01*
X0184660Y0221830D01*
X0184210Y0222280D01*
X0184210Y0224530D01*
X0183060Y0224530D02*
X0181260Y0224530D01*
X0182160Y0224530D02*
X0182160Y0221830D01*
X0180110Y0222280D02*
X0179660Y0221830D01*
X0178760Y0221830D01*
X0178310Y0222280D01*
X0178310Y0222730D01*
X0178760Y0223180D01*
X0179210Y0223180D01*
X0178760Y0223180D02*
X0178310Y0223630D01*
X0178310Y0224080D01*
X0178760Y0224530D01*
X0179660Y0224530D01*
X0180110Y0224080D01*
X0186010Y0224530D02*
X0186010Y0222280D01*
X0128950Y0222280D02*
X0128500Y0221830D01*
X0127600Y0221830D01*
X0127150Y0222280D01*
X0127150Y0224080D01*
X0127600Y0224530D01*
X0128500Y0224530D01*
X0128950Y0224080D01*
X0128950Y0222280D01*
X0126010Y0222280D02*
X0125560Y0221830D01*
X0124660Y0221830D01*
X0124210Y0222280D01*
X0124210Y0224530D01*
X0123060Y0224530D02*
X0121260Y0224530D01*
X0122160Y0224530D02*
X0122160Y0221830D01*
X0120110Y0221830D02*
X0118310Y0223630D01*
X0118310Y0224080D01*
X0118760Y0224530D01*
X0119660Y0224530D01*
X0120110Y0224080D01*
X0126010Y0224530D02*
X0126010Y0222280D01*
X0120110Y0221830D02*
X0118310Y0221830D01*
X0068950Y0222280D02*
X0068500Y0221830D01*
X0067600Y0221830D01*
X0067150Y0222280D01*
X0067150Y0224080D01*
X0067600Y0224530D01*
X0068500Y0224530D01*
X0068950Y0224080D01*
X0068950Y0222280D01*
X0066010Y0222280D02*
X0065560Y0221830D01*
X0064660Y0221830D01*
X0064210Y0222280D01*
X0064210Y0224530D01*
X0063060Y0224530D02*
X0061260Y0224530D01*
X0062160Y0224530D02*
X0062160Y0221830D01*
X0060110Y0221830D02*
X0058310Y0221830D01*
X0059210Y0221830D02*
X0059210Y0224530D01*
X0060110Y0223630D01*
X0066010Y0224530D02*
X0066010Y0222280D01*
X0018950Y0222730D02*
X0018050Y0221830D01*
X0017150Y0222730D01*
X0017150Y0224530D01*
X0016010Y0224530D02*
X0015110Y0224530D01*
X0015560Y0224530D02*
X0015560Y0221830D01*
X0016010Y0221830D02*
X0015110Y0221830D01*
X0014040Y0221830D02*
X0014040Y0224530D01*
X0012240Y0221830D01*
X0012240Y0224530D01*
X0018950Y0224530D02*
X0018950Y0222730D01*
X0358310Y0222280D02*
X0358310Y0222730D01*
X0358760Y0223180D01*
X0360110Y0223180D01*
X0360110Y0222280D01*
X0359660Y0221830D01*
X0358760Y0221830D01*
X0358310Y0222280D01*
X0362160Y0221830D02*
X0362160Y0224530D01*
X0363060Y0224530D02*
X0361260Y0224530D01*
X0359210Y0224080D02*
X0358310Y0224530D01*
X0359210Y0224080D02*
X0360110Y0223180D01*
X0364210Y0222280D02*
X0364210Y0224530D01*
X0366010Y0224530D02*
X0366010Y0222280D01*
X0365560Y0221830D01*
X0364660Y0221830D01*
X0364210Y0222280D01*
X0367150Y0222280D02*
X0367150Y0224080D01*
X0367600Y0224530D01*
X0368500Y0224530D01*
X0368950Y0224080D01*
X0368950Y0222280D01*
X0368500Y0221830D01*
X0367600Y0221830D01*
X0367150Y0222280D01*
D22*
X0010400Y0209280D02*
X0010400Y0227540D01*
X0010400Y0227540D02*
X0372100Y0227540D01*
X0372100Y0209280D01*
X0372100Y0209280D02*
X0010400Y0209280D01*
X0010000Y0234640D02*
G75*
%LPD*%
D11*
X0010000Y0234640D02*
X0010000Y0252100D01*
X0372500Y0252100D01*
X0372500Y0234640D01*
X0010000Y0234640D01*
D15*
X0025070Y0241030D02*
X0027430Y0241030D01*
X0085070Y0241030D02*
X0087430Y0241030D01*
X0145070Y0241030D02*
X0147430Y0241030D01*
X0205070Y0241030D02*
X0207430Y0241030D01*
X0265070Y0241030D02*
X0267430Y0241030D01*
X0325070Y0241030D02*
X0327430Y0241030D01*
X0327430Y0245750D02*
X0325070Y0245750D01*
X0267430Y0245750D02*
X0265070Y0245750D01*
X0207430Y0245750D02*
X0205070Y0245750D01*
X0147430Y0245750D02*
X0145070Y0245750D01*
X0087430Y0245750D02*
X0085070Y0245750D01*
X0027430Y0245750D02*
X0025070Y0245750D01*
D18*
X0025190Y0246790D02*
X0025190Y0249690D01*
X0026150Y0248720D01*
X0027170Y0248240D02*
X0027650Y0247760D01*
X0029100Y0247760D01*
X0028130Y0247760D02*
X0027170Y0246790D01*
X0026150Y0246790D02*
X0024220Y0246790D01*
X0029100Y0246790D02*
X0029100Y0249690D01*
X0027650Y0249690D01*
X0027170Y0249210D01*
X0027170Y0248240D01*
X0084220Y0248720D02*
X0084220Y0249210D01*
X0084700Y0249690D01*
X0085670Y0249690D01*
X0086150Y0249210D01*
X0087170Y0249210D02*
X0087170Y0248240D01*
X0087650Y0247760D01*
X0089100Y0247760D01*
X0088130Y0247760D02*
X0087170Y0246790D01*
X0086150Y0246790D02*
X0084220Y0248720D01*
X0087170Y0249210D02*
X0087650Y0249690D01*
X0089100Y0249690D01*
X0089100Y0246790D01*
X0086150Y0246790D02*
X0084220Y0246790D01*
X0144220Y0247270D02*
X0144700Y0246790D01*
X0145670Y0246790D01*
X0146150Y0247270D01*
X0144220Y0247270D02*
X0144220Y0247760D01*
X0144700Y0248240D01*
X0145190Y0248240D01*
X0144700Y0248240D02*
X0144220Y0248720D01*
X0144220Y0249210D01*
X0144700Y0249690D01*
X0145670Y0249690D01*
X0146150Y0249210D01*
X0147170Y0249210D02*
X0147170Y0248240D01*
X0147650Y0247760D01*
X0149100Y0247760D01*
X0148130Y0247760D02*
X0147170Y0246790D01*
X0149100Y0246790D02*
X0149100Y0249690D01*
X0147650Y0249690D01*
X0147170Y0249210D01*
X0204220Y0248240D02*
X0206150Y0248240D01*
X0204700Y0249690D01*
X0204700Y0246790D01*
X0207170Y0246790D02*
X0208130Y0247760D01*
X0207650Y0247760D02*
X0209100Y0247760D01*
X0207650Y0247760D02*
X0207170Y0248240D01*
X0207170Y0249210D01*
X0207650Y0249690D01*
X0209100Y0249690D01*
X0209100Y0246790D01*
X0264220Y0247270D02*
X0264700Y0246790D01*
X0265670Y0246790D01*
X0266150Y0247270D01*
X0264220Y0247270D02*
X0264220Y0248240D01*
X0264700Y0248720D01*
X0265190Y0248720D01*
X0266150Y0248240D01*
X0266150Y0249690D01*
X0264220Y0249690D01*
X0267170Y0249210D02*
X0267650Y0249690D01*
X0269100Y0249690D01*
X0269100Y0246790D01*
X0268130Y0247760D02*
X0267170Y0246790D01*
X0267650Y0247760D02*
X0269100Y0247760D01*
X0267650Y0247760D02*
X0267170Y0248240D01*
X0267170Y0249210D01*
X0324220Y0249690D02*
X0325190Y0249210D01*
X0326150Y0248240D01*
X0324700Y0248240D01*
X0324220Y0247760D01*
X0324220Y0247270D01*
X0324700Y0246790D01*
X0325670Y0246790D01*
X0326150Y0247270D01*
X0326150Y0248240D01*
X0327170Y0248240D02*
X0327650Y0247760D01*
X0329100Y0247760D01*
X0328130Y0247760D02*
X0327170Y0246790D01*
X0329100Y0246790D02*
X0329100Y0249690D01*
X0327650Y0249690D01*
X0327170Y0249210D01*
X0327170Y0248240D01*
D10*
X0308950Y0249040D02*
X0308950Y0247240D01*
X0308500Y0246790D01*
X0307600Y0246790D01*
X0307150Y0247240D01*
X0307150Y0249040D01*
X0307600Y0249490D01*
X0308500Y0249490D01*
X0308950Y0249040D01*
X0306010Y0249490D02*
X0306010Y0247240D01*
X0305560Y0246790D01*
X0304660Y0246790D01*
X0304210Y0247240D01*
X0304210Y0249490D01*
X0303060Y0249490D02*
X0301260Y0249490D01*
X0302160Y0249490D02*
X0302160Y0246790D01*
X0300110Y0247240D02*
X0299660Y0246790D01*
X0298760Y0246790D01*
X0298310Y0247240D01*
X0298310Y0248140D01*
X0298760Y0248590D01*
X0299210Y0248590D01*
X0300110Y0248140D01*
X0300110Y0249490D01*
X0298310Y0249490D01*
X0248950Y0249040D02*
X0248950Y0247240D01*
X0248500Y0246790D01*
X0247600Y0246790D01*
X0247150Y0247240D01*
X0247150Y0249040D01*
X0247600Y0249490D01*
X0248500Y0249490D01*
X0248950Y0249040D01*
X0246010Y0249490D02*
X0246010Y0247240D01*
X0245560Y0246790D01*
X0244660Y0246790D01*
X0244210Y0247240D01*
X0244210Y0249490D01*
X0243060Y0249490D02*
X0241260Y0249490D01*
X0242160Y0249490D02*
X0242160Y0246790D01*
X0238760Y0246790D02*
X0238760Y0249490D01*
X0240110Y0248140D01*
X0238310Y0248140D01*
X0188950Y0247240D02*
X0188500Y0246790D01*
X0187600Y0246790D01*
X0187150Y0247240D01*
X0187150Y0249040D01*
X0187600Y0249490D01*
X0188500Y0249490D01*
X0188950Y0249040D01*
X0188950Y0247240D01*
X0186010Y0247240D02*
X0185560Y0246790D01*
X0184660Y0246790D01*
X0184210Y0247240D01*
X0184210Y0249490D01*
X0183060Y0249490D02*
X0181260Y0249490D01*
X0182160Y0249490D02*
X0182160Y0246790D01*
X0180110Y0247240D02*
X0179660Y0246790D01*
X0178760Y0246790D01*
X0178310Y0247240D01*
X0178310Y0247690D01*
X0178760Y0248140D01*
X0179210Y0248140D01*
X0178760Y0248140D02*
X0178310Y0248590D01*
X0178310Y0249040D01*
X0178760Y0249490D01*
X0179660Y0249490D01*
X0180110Y0249040D01*
X0186010Y0249490D02*
X0186010Y0247240D01*
X0128950Y0247240D02*
X0128500Y0246790D01*
X0127600Y0246790D01*
X0127150Y0247240D01*
X0127150Y0249040D01*
X0127600Y0249490D01*
X0128500Y0249490D01*
X0128950Y0249040D01*
X0128950Y0247240D01*
X0126010Y0247240D02*
X0125560Y0246790D01*
X0124660Y0246790D01*
X0124210Y0247240D01*
X0124210Y0249490D01*
X0123060Y0249490D02*
X0121260Y0249490D01*
X0122160Y0249490D02*
X0122160Y0246790D01*
X0120110Y0246790D02*
X0118310Y0248590D01*
X0118310Y0249040D01*
X0118760Y0249490D01*
X0119660Y0249490D01*
X0120110Y0249040D01*
X0126010Y0249490D02*
X0126010Y0247240D01*
X0120110Y0246790D02*
X0118310Y0246790D01*
X0068950Y0247240D02*
X0068500Y0246790D01*
X0067600Y0246790D01*
X0067150Y0247240D01*
X0067150Y0249040D01*
X0067600Y0249490D01*
X0068500Y0249490D01*
X0068950Y0249040D01*
X0068950Y0247240D01*
X0066010Y0247240D02*
X0065560Y0246790D01*
X0064660Y0246790D01*
X0064210Y0247240D01*
X0064210Y0249490D01*
X0063060Y0249490D02*
X0061260Y0249490D01*
X0062160Y0249490D02*
X0062160Y0246790D01*
X0060110Y0246790D02*
X0058310Y0246790D01*
X0059210Y0246790D02*
X0059210Y0249490D01*
X0060110Y0248590D01*
X0066010Y0249490D02*
X0066010Y0247240D01*
X0018950Y0247690D02*
X0018050Y0246790D01*
X0017150Y0247690D01*
X0017150Y0249490D01*
X0016010Y0249490D02*
X0015110Y0249490D01*
X0015560Y0249490D02*
X0015560Y0246790D01*
X0016010Y0246790D02*
X0015110Y0246790D01*
X0014040Y0246790D02*
X0014040Y0249490D01*
X0012240Y0246790D01*
X0012240Y0249490D01*
X0018950Y0249490D02*
X0018950Y0247690D01*
X0358310Y0247240D02*
X0358310Y0247690D01*
X0358760Y0248140D01*
X0360110Y0248140D01*
X0360110Y0247240D01*
X0359660Y0246790D01*
X0358760Y0246790D01*
X0358310Y0247240D01*
X0362160Y0246790D02*
X0362160Y0249490D01*
X0363060Y0249490D02*
X0361260Y0249490D01*
X0359210Y0249040D02*
X0358310Y0249490D01*
X0359210Y0249040D02*
X0360110Y0248140D01*
X0364210Y0247240D02*
X0364210Y0249490D01*
X0366010Y0249490D02*
X0366010Y0247240D01*
X0365560Y0246790D01*
X0364660Y0246790D01*
X0364210Y0247240D01*
X0367150Y0247240D02*
X0367150Y0249040D01*
X0367600Y0249490D01*
X0368500Y0249490D01*
X0368950Y0249040D01*
X0368950Y0247240D01*
X0368500Y0246790D01*
X0367600Y0246790D01*
X0367150Y0247240D01*
D22*
X0010400Y0234240D02*
X0010400Y0252500D01*
X0010400Y0252500D02*
X0372100Y0252500D01*
X0372100Y0234240D01*
X0372100Y0234240D02*
X0010400Y0234240D01*
X0010000Y0259600D02*
G75*
%LPD*%
D11*
X0010000Y0259600D02*
X0010000Y0277060D01*
X0372500Y0277060D01*
X0372500Y0259600D01*
X0010000Y0259600D01*
D15*
X0025070Y0265990D02*
X0027430Y0265990D01*
X0085070Y0265990D02*
X0087430Y0265990D01*
X0145070Y0265990D02*
X0147430Y0265990D01*
X0205070Y0265990D02*
X0207430Y0265990D01*
X0265070Y0265990D02*
X0267430Y0265990D01*
X0325070Y0265990D02*
X0327430Y0265990D01*
X0327430Y0270710D02*
X0325070Y0270710D01*
X0267430Y0270710D02*
X0265070Y0270710D01*
X0207430Y0270710D02*
X0205070Y0270710D01*
X0147430Y0270710D02*
X0145070Y0270710D01*
X0087430Y0270710D02*
X0085070Y0270710D01*
X0027430Y0270710D02*
X0025070Y0270710D01*
D18*
X0025190Y0271750D02*
X0025190Y0274650D01*
X0026150Y0273680D01*
X0027170Y0273200D02*
X0027650Y0272720D01*
X0029100Y0272720D01*
X0028130Y0272720D02*
X0027170Y0271750D01*
X0026150Y0271750D02*
X0024220Y0271750D01*
X0029100Y0271750D02*
X0029100Y0274650D01*
X0027650Y0274650D01*
X0027170Y0274170D01*
X0027170Y0273200D01*
X0084220Y0273680D02*
X0084220Y0274170D01*
X0084700Y0274650D01*
X0085670Y0274650D01*
X0086150Y0274170D01*
X0087170Y0274170D02*
X0087170Y0273200D01*
X0087650Y0272720D01*
X0089100Y0272720D01*
X0088130Y0272720D02*
X0087170Y0271750D01*
X0086150Y0271750D02*
X0084220Y0273680D01*
X0087170Y0274170D02*
X0087650Y0274650D01*
X0089100Y0274650D01*
X0089100Y0271750D01*
X0086150Y0271750D02*
X0084220Y0271750D01*
X0144220Y0272230D02*
X0144700Y0271750D01*
X0145670Y0271750D01*
X0146150Y0272230D01*
X0144220Y0272230D02*
X0144220Y0272720D01*
X0144700Y0273200D01*
X0145190Y0273200D01*
X0144700Y0273200D02*
X0144220Y0273680D01*
X0144220Y0274170D01*
X0144700Y0274650D01*
X0145670Y0274650D01*
X0146150Y0274170D01*
X0147170Y0274170D02*
X0147170Y0273200D01*
X0147650Y0272720D01*
X0149100Y0272720D01*
X0148130Y0272720D02*
X0147170Y0271750D01*
X0149100Y0271750D02*
X0149100Y0274650D01*
X0147650Y0274650D01*
X0147170Y0274170D01*
X0204220Y0273200D02*
X0206150Y0273200D01*
X0204700Y0274650D01*
X0204700Y0271750D01*
X0207170Y0271750D02*
X0208130Y0272720D01*
X0207650Y0272720D02*
X0209100Y0272720D01*
X0207650Y0272720D02*
X0207170Y0273200D01*
X0207170Y0274170D01*
X0207650Y0274650D01*
X0209100Y0274650D01*
X0209100Y0271750D01*
X0264220Y0272230D02*
X0264700Y0271750D01*
X0265670Y0271750D01*
X0266150Y0272230D01*
X0264220Y0272230D02*
X0264220Y0273200D01*
X0264700Y0273680D01*
X0265190Y0273680D01*
X0266150Y0273200D01*
X0266150Y0274650D01*
X0264220Y0274650D01*
X0267170Y0274170D02*
X0267650Y0274650D01*
X0269100Y0274650D01*
X0269100Y0271750D01*
X0268130Y0272720D02*
X0267170Y0271750D01*
X0267650Y0272720D02*
X0269100Y0272720D01*
X0267650Y0272720D02*
X0267170Y0273200D01*
X0267170Y0274170D01*
X0324220Y0274650D02*
X0325190Y0274170D01*
X0326150Y0273200D01*
X0324700Y0273200D01*
X0324220Y0272720D01*
X0324220Y0272230D01*
X0324700Y0271750D01*
X0325670Y0271750D01*
X0326150Y0272230D01*
X0326150Y0273200D01*
X0327170Y0273200D02*
X0327650Y0272720D01*
X0329100Y0272720D01*
X0328130Y0272720D02*
X0327170Y0271750D01*
X0329100Y0271750D02*
X0329100Y0274650D01*
X0327650Y0274650D01*
X0327170Y0274170D01*
X0327170Y0273200D01*
D10*
X0308950Y0274000D02*
X0308950Y0272200D01*
X0308500Y0271750D01*
X0307600Y0271750D01*
X0307150Y0272200D01*
X0307150Y0274000D01*
X0307600Y0274450D01*
X0308500Y0274450D01*
X0308950Y0274000D01*
X0306010Y0274450D02*
X0306010Y0272200D01*
X0305560Y0271750D01*
X0304660Y0271750D01*
X0304210Y0272200D01*
X0304210Y0274450D01*
X0303060Y0274450D02*
X0301260Y0274450D01*
X0302160Y0274450D02*
X0302160Y0271750D01*
X0300110Y0272200D02*
X0299660Y0271750D01*
X0298760Y0271750D01*
X0298310Y0272200D01*
X0298310Y0273100D01*
X0298760Y0273550D01*
X0299210Y0273550D01*
X0300110Y0273100D01*
X0300110Y0274450D01*
X0298310Y0274450D01*
X0248950Y0274000D02*
X0248950Y0272200D01*
X0248500Y0271750D01*
X0247600Y0271750D01*
X0247150Y0272200D01*
X0247150Y0274000D01*
X0247600Y0274450D01*
X0248500Y0274450D01*
X0248950Y0274000D01*
X0246010Y0274450D02*
X0246010Y0272200D01*
X0245560Y0271750D01*
X0244660Y0271750D01*
X0244210Y0272200D01*
X0244210Y0274450D01*
X0243060Y0274450D02*
X0241260Y0274450D01*
X0242160Y0274450D02*
X0242160Y0271750D01*
X0238760Y0271750D02*
X0238760Y0274450D01*
X0240110Y0273100D01*
X0238310Y0273100D01*
X0188950Y0272200D02*
X0188500Y0271750D01*
X0187600Y0271750D01*
X0187150Y0272200D01*
X0187150Y0274000D01*
X0187600Y0274450D01*
X0188500Y0274450D01*
X0188950Y0274000D01*
X0188950Y0272200D01*
X0186010Y0272200D02*
X0185560Y0271750D01*
X0184660Y0271750D01*
X0184210Y0272200D01*
X0184210Y0274450D01*
X0183060Y0274450D02*
X0181260Y0274450D01*
X0182160Y0274450D02*
X0182160Y0271750D01*
X0180110Y0272200D02*
X0179660Y0271750D01*
X0178760Y0271750D01*
X0178310Y0272200D01*
X0178310Y0272650D01*
X0178760Y0273100D01*
X0179210Y0273100D01*
X0178760Y0273100D02*
X0178310Y0273550D01*
X0178310Y0274000D01*
X0178760Y0274450D01*
X0179660Y0274450D01*
X0180110Y0274000D01*
X0186010Y0274450D02*
X0186010Y0272200D01*
X0128950Y0272200D02*
X0128500Y0271750D01*
X0127600Y0271750D01*
X0127150Y0272200D01*
X0127150Y0274000D01*
X0127600Y0274450D01*
X0128500Y0274450D01*
X0128950Y0274000D01*
X0128950Y0272200D01*
X0126010Y0272200D02*
X0125560Y0271750D01*
X0124660Y0271750D01*
X0124210Y0272200D01*
X0124210Y0274450D01*
X0123060Y0274450D02*
X0121260Y0274450D01*
X0122160Y0274450D02*
X0122160Y0271750D01*
X0120110Y0271750D02*
X0118310Y0273550D01*
X0118310Y0274000D01*
X0118760Y0274450D01*
X0119660Y0274450D01*
X0120110Y0274000D01*
X0126010Y0274450D02*
X0126010Y0272200D01*
X0120110Y0271750D02*
X0118310Y0271750D01*
X0068950Y0272200D02*
X0068500Y0271750D01*
X0067600Y0271750D01*
X0067150Y0272200D01*
X0067150Y0274000D01*
X0067600Y0274450D01*
X0068500Y0274450D01*
X0068950Y0274000D01*
X0068950Y0272200D01*
X0066010Y0272200D02*
X0065560Y0271750D01*
X0064660Y0271750D01*
X0064210Y0272200D01*
X0064210Y0274450D01*
X0063060Y0274450D02*
X0061260Y0274450D01*
X0062160Y0274450D02*
X0062160Y0271750D01*
X0060110Y0271750D02*
X0058310Y0271750D01*
X0059210Y0271750D02*
X0059210Y0274450D01*
X0060110Y0273550D01*
X0066010Y0274450D02*
X0066010Y0272200D01*
X0018950Y0272650D02*
X0018050Y0271750D01*
X0017150Y0272650D01*
X0017150Y0274450D01*
X0016010Y0274450D02*
X0015110Y0274450D01*
X0015560Y0274450D02*
X0015560Y0271750D01*
X0016010Y0271750D02*
X0015110Y0271750D01*
X0014040Y0271750D02*
X0014040Y0274450D01*
X0012240Y0271750D01*
X0012240Y0274450D01*
X0018950Y0274450D02*
X0018950Y0272650D01*
X0358310Y0272200D02*
X0358310Y0272650D01*
X0358760Y0273100D01*
X0360110Y0273100D01*
X0360110Y0272200D01*
X0359660Y0271750D01*
X0358760Y0271750D01*
X0358310Y0272200D01*
X0362160Y0271750D02*
X0362160Y0274450D01*
X0363060Y0274450D02*
X0361260Y0274450D01*
X0359210Y0274000D02*
X0358310Y0274450D01*
X0359210Y0274000D02*
X0360110Y0273100D01*
X0364210Y0272200D02*
X0364210Y0274450D01*
X0366010Y0274450D02*
X0366010Y0272200D01*
X0365560Y0271750D01*
X0364660Y0271750D01*
X0364210Y0272200D01*
X0367150Y0272200D02*
X0367150Y0274000D01*
X0367600Y0274450D01*
X0368500Y0274450D01*
X0368950Y0274000D01*
X0368950Y0272200D01*
X0368500Y0271750D01*
X0367600Y0271750D01*
X0367150Y0272200D01*
D22*
X0010400Y0259200D02*
X0010400Y0277460D01*
X0010400Y0277460D02*
X0372100Y0277460D01*
X0372100Y0259200D01*
X0372100Y0259200D02*
X0010400Y0259200D01*
X0010000Y0284560D02*
G75*
%LPD*%
D11*
X0010000Y0284560D02*
X0010000Y0302020D01*
X0372500Y0302020D01*
X0372500Y0284560D01*
X0010000Y0284560D01*
D15*
X0025070Y0290950D02*
X0027430Y0290950D01*
X0085070Y0290950D02*
X0087430Y0290950D01*
X0145070Y0290950D02*
X0147430Y0290950D01*
X0205070Y0290950D02*
X0207430Y0290950D01*
X0265070Y0290950D02*
X0267430Y0290950D01*
X0325070Y0290950D02*
X0327430Y0290950D01*
X0327430Y0295670D02*
X0325070Y0295670D01*
X0267430Y0295670D02*
X0265070Y0295670D01*
X0207430Y0295670D02*
X0205070Y0295670D01*
X0147430Y0295670D02*
X0145070Y0295670D01*
X0087430Y0295670D02*
X0085070Y0295670D01*
X0027430Y0295670D02*
X0025070Y0295670D01*
D18*
X0025190Y0296710D02*
X0025190Y0299610D01*
X0026150Y0298640D01*
X0027170Y0298160D02*
X0027650Y0297680D01*
X0029100Y0297680D01*
X0028130Y0297680D02*
X0027170Y0296710D01*
X0026150Y0296710D02*
X0024220Y0296710D01*
X0029100Y0296710D02*
X0029100Y0299610D01*
X0027650Y0299610D01*
X0027170Y0299130D01*
X0027170Y0298160D01*
X0084220Y0298640D02*
X0084220Y0299130D01*
X0084700Y0299610D01*
X0085670Y0299610D01*
X0086150Y0299130D01*
X0087170Y0299130D02*
X0087170Y0298160D01*
X0087650Y0297680D01*
X0089100Y0297680D01*
X0088130Y0297680D02*
X0087170Y0296710D01*
X0086150Y0296710D02*
X0084220Y0298640D01*
X0087170Y0299130D02*
X0087650Y0299610D01*
X0089100Y0299610D01*
X0089100Y0296710D01*
X0086150Y0296710D02*
X0084220Y0296710D01*
X0144220Y0297190D02*
X0144700Y0296710D01*
X0145670Y0296710D01*
X0146150Y0297190D01*
X0144220Y0297190D02*
X0144220Y0297680D01*
X0144700Y0298160D01*
X0145190Y0298160D01*
X0144700Y0298160D02*
X0144220Y0298640D01*
X0144220Y0299130D01*
X0144700Y0299610D01*
X0145670Y0299610D01*
X0146150Y0299130D01*
X0147170Y0299130D02*
X0147170Y0298160D01*
X0147650Y0297680D01*
X0149100Y0297680D01*
X0148130Y0297680D02*
X0147170Y0296710D01*
X0149100Y0296710D02*
X0149100Y0299610D01*
X0147650Y0299610D01*
X0147170Y0299130D01*
X0204220Y0298160D02*
X0206150Y0298160D01*
X0204700Y0299610D01*
X0204700Y0296710D01*
X0207170Y0296710D02*
X0208130Y0297680D01*
X0207650Y0297680D02*
X0209100Y0297680D01*
X0207650Y0297680D02*
X0207170Y0298160D01*
X0207170Y0299130D01*
X0207650Y0299610D01*
X0209100Y0299610D01*
X0209100Y0296710D01*
X0264220Y0297190D02*
X0264700Y0296710D01*
X0265670Y0296710D01*
X0266150Y0297190D01*
X0264220Y0297190D02*
X0264220Y0298160D01*
X0264700Y0298640D01*
X0265190Y0298640D01*
X0266150Y0298160D01*
X0266150Y0299610D01*
X0264220Y0299610D01*
X0267170Y0299130D02*
X0267650Y0299610D01*
X0269100Y0299610D01*
X0269100Y0296710D01*
X0268130Y0297680D02*
X0267170Y0296710D01*
X0267650Y0297680D02*
X0269100Y0297680D01*
X0267650Y0297680D02*
X0267170Y0298160D01*
X0267170Y0299130D01*
X0324220Y0299610D02*
X0325190Y0299130D01*
X0326150Y0298160D01*
X0324700Y0298160D01*
X0324220Y0297680D01*
X0324220Y0297190D01*
X0324700Y0296710D01*
X0325670Y0296710D01*
X0326150Y0297190D01*
X0326150Y0298160D01*
X0327170Y0298160D02*
X0327650Y0297680D01*
X0329100Y0297680D01*
X0328130Y0297680D02*
X0327170Y0296710D01*
X0329100Y0296710D02*
X0329100Y0299610D01*
X0327650Y0299610D01*
X0327170Y0299130D01*
X0327170Y0298160D01*
D10*
X0308950Y0298960D02*
X0308950Y0297160D01*
X0308500Y0296710D01*
X0307600Y0296710D01*
X0307150Y0297160D01*
X0307150Y0298960D01*
X0307600Y0299410D01*
X0308500Y0299410D01*
X0308950Y0298960D01*
X0306010Y0299410D02*
X0306010Y0297160D01*
X0305560Y0296710D01*
X0304660Y0296710D01*
X0304210Y0297160D01*
X0304210Y0299410D01*
X0303060Y0299410D02*
X0301260Y0299410D01*
X0302160Y0299410D02*
X0302160Y0296710D01*
X0300110Y0297160D02*
X0299660Y0296710D01*
X0298760Y0296710D01*
X0298310Y0297160D01*
X0298310Y0298060D01*
X0298760Y0298510D01*
X0299210Y0298510D01*
X0300110Y0298060D01*
X0300110Y0299410D01*
X0298310Y0299410D01*
X0248950Y0298960D02*
X0248950Y0297160D01*
X0248500Y0296710D01*
X0247600Y0296710D01*
X0247150Y0297160D01*
X0247150Y0298960D01*
X0247600Y0299410D01*
X0248500Y0299410D01*
X0248950Y0298960D01*
X0246010Y0299410D02*
X0246010Y0297160D01*
X0245560Y0296710D01*
X0244660Y0296710D01*
X0244210Y0297160D01*
X0244210Y0299410D01*
X0243060Y0299410D02*
X0241260Y0299410D01*
X0242160Y0299410D02*
X0242160Y0296710D01*
X0238760Y0296710D02*
X0238760Y0299410D01*
X0240110Y0298060D01*
X0238310Y0298060D01*
X0188950Y0297160D02*
X0188500Y0296710D01*
X0187600Y0296710D01*
X0187150Y0297160D01*
X0187150Y0298960D01*
X0187600Y0299410D01*
X0188500Y0299410D01*
X0188950Y0298960D01*
X0188950Y0297160D01*
X0186010Y0297160D02*
X0185560Y0296710D01*
X0184660Y0296710D01*
X0184210Y0297160D01*
X0184210Y0299410D01*
X0183060Y0299410D02*
X0181260Y0299410D01*
X0182160Y0299410D02*
X0182160Y0296710D01*
X0180110Y0297160D02*
X0179660Y0296710D01*
X0178760Y0296710D01*
X0178310Y0297160D01*
X0178310Y0297610D01*
X0178760Y0298060D01*
X0179210Y0298060D01*
X0178760Y0298060D02*
X0178310Y0298510D01*
X0178310Y0298960D01*
X0178760Y0299410D01*
X0179660Y0299410D01*
X0180110Y0298960D01*
X0186010Y0299410D02*
X0186010Y0297160D01*
X0128950Y0297160D02*
X0128500Y0296710D01*
X0127600Y0296710D01*
X0127150Y0297160D01*
X0127150Y0298960D01*
X0127600Y0299410D01*
X0128500Y0299410D01*
X0128950Y0298960D01*
X0128950Y0297160D01*
X0126010Y0297160D02*
X0125560Y0296710D01*
X0124660Y0296710D01*
X0124210Y0297160D01*
X0124210Y0299410D01*
X0123060Y0299410D02*
X0121260Y0299410D01*
X0122160Y0299410D02*
X0122160Y0296710D01*
X0120110Y0296710D02*
X0118310Y0298510D01*
X0118310Y0298960D01*
X0118760Y0299410D01*
X0119660Y0299410D01*
X0120110Y0298960D01*
X0126010Y0299410D02*
X0126010Y0297160D01*
X0120110Y0296710D02*
X0118310Y0296710D01*
X0068950Y0297160D02*
X0068500Y0296710D01*
X0067600Y0296710D01*
X0067150Y0297160D01*
X0067150Y0298960D01*
X0067600Y0299410D01*
X0068500Y0299410D01*
X0068950Y0298960D01*
X0068950Y0297160D01*
X0066010Y0297160D02*
X0065560Y0296710D01*
X0064660Y0296710D01*
X0064210Y0297160D01*
X0064210Y0299410D01*
X0063060Y0299410D02*
X0061260Y0299410D01*
X0062160Y0299410D02*
X0062160Y0296710D01*
X0060110Y0296710D02*
X0058310Y0296710D01*
X0059210Y0296710D02*
X0059210Y0299410D01*
X0060110Y0298510D01*
X0066010Y0299410D02*
X0066010Y0297160D01*
X0018950Y0297610D02*
X0018050Y0296710D01*
X0017150Y0297610D01*
X0017150Y0299410D01*
X0016010Y0299410D02*
X0015110Y0299410D01*
X0015560Y0299410D02*
X0015560Y0296710D01*
X0016010Y0296710D02*
X0015110Y0296710D01*
X0014040Y0296710D02*
X0014040Y0299410D01*
X0012240Y0296710D01*
X0012240Y0299410D01*
X0018950Y0299410D02*
X0018950Y0297610D01*
X0358310Y0297160D02*
X0358310Y0297610D01*
X0358760Y0298060D01*
X0360110Y0298060D01*
X0360110Y0297160D01*
X0359660Y0296710D01*
X0358760Y0296710D01*
X0358310Y0297160D01*
X0362160Y0296710D02*
X0362160Y0299410D01*
X0363060Y0299410D02*
X0361260Y0299410D01*
X0359210Y0298960D02*
X0358310Y0299410D01*
X0359210Y0298960D02*
X0360110Y0298060D01*
X0364210Y0297160D02*
X0364210Y0299410D01*
X0366010Y0299410D02*
X0366010Y0297160D01*
X0365560Y0296710D01*
X0364660Y0296710D01*
X0364210Y0297160D01*
X0367150Y0297160D02*
X0367150Y0298960D01*
X0367600Y0299410D01*
X0368500Y0299410D01*
X0368950Y0298960D01*
X0368950Y0297160D01*
X0368500Y0296710D01*
X0367600Y0296710D01*
X0367150Y0297160D01*
D22*
X0010400Y0284160D02*
X0010400Y0302420D01*
X0010400Y0302420D02*
X0372100Y0302420D01*
X0372100Y0284160D01*
X0372100Y0284160D02*
X0010400Y0284160D01*
X0010000Y0309520D02*
G75*
%LPD*%
D11*
X0010000Y0309520D02*
X0010000Y0326980D01*
X0372500Y0326980D01*
X0372500Y0309520D01*
X0010000Y0309520D01*
D15*
X0025070Y0315910D02*
X0027430Y0315910D01*
X0085070Y0315910D02*
X0087430Y0315910D01*
X0145070Y0315910D02*
X0147430Y0315910D01*
X0205070Y0315910D02*
X0207430Y0315910D01*
X0265070Y0315910D02*
X0267430Y0315910D01*
X0325070Y0315910D02*
X0327430Y0315910D01*
X0327430Y0320630D02*
X0325070Y0320630D01*
X0267430Y0320630D02*
X0265070Y0320630D01*
X0207430Y0320630D02*
X0205070Y0320630D01*
X0147430Y0320630D02*
X0145070Y0320630D01*
X0087430Y0320630D02*
X0085070Y0320630D01*
X0027430Y0320630D02*
X0025070Y0320630D01*
D18*
X0025190Y0321670D02*
X0025190Y0324570D01*
X0026150Y0323600D01*
X0027170Y0323120D02*
X0027650Y0322640D01*
X0029100Y0322640D01*
X0028130Y0322640D02*
X0027170Y0321670D01*
X0026150Y0321670D02*
X0024220Y0321670D01*
X0029100Y0321670D02*
X0029100Y0324570D01*
X0027650Y0324570D01*
X0027170Y0324090D01*
X0027170Y0323120D01*
X0084220Y0323600D02*
X0084220Y0324090D01*
X0084700Y0324570D01*
X0085670Y0324570D01*
X0086150Y0324090D01*
X0087170Y0324090D02*
X0087170Y0323120D01*
X0087650Y0322640D01*
X0089100Y0322640D01*
X0088130Y0322640D02*
X0087170Y0321670D01*
X0086150Y0321670D02*
X0084220Y0323600D01*
X0087170Y0324090D02*
X0087650Y0324570D01*
X0089100Y0324570D01*
X0089100Y0321670D01*
X0086150Y0321670D02*
X0084220Y0321670D01*
X0144220Y0322150D02*
X0144700Y0321670D01*
X0145670Y0321670D01*
X0146150Y0322150D01*
X0144220Y0322150D02*
X0144220Y0322640D01*
X0144700Y0323120D01*
X0145190Y0323120D01*
X0144700Y0323120D02*
X0144220Y0323600D01*
X0144220Y0324090D01*
X0144700Y0324570D01*
X0145670Y0324570D01*
X0146150Y0324090D01*
X0147170Y0324090D02*
X0147170Y0323120D01*
X0147650Y0322640D01*
X0149100Y0322640D01*
X0148130Y0322640D02*
X0147170Y0321670D01*
X0149100Y0321670D02*
X0149100Y0324570D01*
X0147650Y0324570D01*
X0147170Y0324090D01*
X0204220Y0323120D02*
X0206150Y0323120D01*
X0204700Y0324570D01*
X0204700Y0321670D01*
X0207170Y0321670D02*
X0208130Y0322640D01*
X0207650Y0322640D02*
X0209100Y0322640D01*
X0207650Y0322640D02*
X0207170Y0323120D01*
X0207170Y0324090D01*
X0207650Y0324570D01*
X0209100Y0324570D01*
X0209100Y0321670D01*
X0264220Y0322150D02*
X0264700Y0321670D01*
X0265670Y0321670D01*
X0266150Y0322150D01*
X0264220Y0322150D02*
X0264220Y0323120D01*
X0264700Y0323600D01*
X0265190Y0323600D01*
X0266150Y0323120D01*
X0266150Y0324570D01*
X0264220Y0324570D01*
X0267170Y0324090D02*
X0267650Y0324570D01*
X0269100Y0324570D01*
X0269100Y0321670D01*
X0268130Y0322640D02*
X0267170Y0321670D01*
X0267650Y0322640D02*
X0269100Y0322640D01*
X0267650Y0322640D02*
X0267170Y0323120D01*
X0267170Y0324090D01*
X0324220Y0324570D02*
X0325190Y0324090D01*
X0326150Y0323120D01*
X0324700Y0323120D01*
X0324220Y0322640D01*
X0324220Y0322150D01*
X0324700Y0321670D01*
X0325670Y0321670D01*
X0326150Y0322150D01*
X0326150Y0323120D01*
X0327170Y0323120D02*
X0327650Y0322640D01*
X0329100Y0322640D01*
X0328130Y0322640D02*
X0327170Y0321670D01*
X0329100Y0321670D02*
X0329100Y0324570D01*
X0327650Y0324570D01*
X0327170Y0324090D01*
X0327170Y0323120D01*
D10*
X0308950Y0323920D02*
X0308950Y0322120D01*
X0308500Y0321670D01*
X0307600Y0321670D01*
X0307150Y0322120D01*
X0307150Y0323920D01*
X0307600Y0324370D01*
X0308500Y0324370D01*
X0308950Y0323920D01*
X0306010Y0324370D02*
X0306010Y0322120D01*
X0305560Y0321670D01*
X0304660Y0321670D01*
X0304210Y0322120D01*
X0304210Y0324370D01*
X0303060Y0324370D02*
X0301260Y0324370D01*
X0302160Y0324370D02*
X0302160Y0321670D01*
X0300110Y0322120D02*
X0299660Y0321670D01*
X0298760Y0321670D01*
X0298310Y0322120D01*
X0298310Y0323020D01*
X0298760Y0323470D01*
X0299210Y0323470D01*
X0300110Y0323020D01*
X0300110Y0324370D01*
X0298310Y0324370D01*
X0248950Y0323920D02*
X0248950Y0322120D01*
X0248500Y0321670D01*
X0247600Y0321670D01*
X0247150Y0322120D01*
X0247150Y0323920D01*
X0247600Y0324370D01*
X0248500Y0324370D01*
X0248950Y0323920D01*
X0246010Y0324370D02*
X0246010Y0322120D01*
X0245560Y0321670D01*
X0244660Y0321670D01*
X0244210Y0322120D01*
X0244210Y0324370D01*
X0243060Y0324370D02*
X0241260Y0324370D01*
X0242160Y0324370D02*
X0242160Y0321670D01*
X0238760Y0321670D02*
X0238760Y0324370D01*
X0240110Y0323020D01*
X0238310Y0323020D01*
X0188950Y0322120D02*
X0188500Y0321670D01*
X0187600Y0321670D01*
X0187150Y0322120D01*
X0187150Y0323920D01*
X0187600Y0324370D01*
X0188500Y0324370D01*
X0188950Y0323920D01*
X0188950Y0322120D01*
X0186010Y0322120D02*
X0185560Y0321670D01*
X0184660Y0321670D01*
X0184210Y0322120D01*
X0184210Y0324370D01*
X0183060Y0324370D02*
X0181260Y0324370D01*
X0182160Y0324370D02*
X0182160Y0321670D01*
X0180110Y0322120D02*
X0179660Y0321670D01*
X0178760Y0321670D01*
X0178310Y0322120D01*
X0178310Y0322570D01*
X0178760Y0323020D01*
X0179210Y0323020D01*
X0178760Y0323020D02*
X0178310Y0323470D01*
X0178310Y0323920D01*
X0178760Y0324370D01*
X0179660Y0324370D01*
X0180110Y0323920D01*
X0186010Y0324370D02*
X0186010Y0322120D01*
X0128950Y0322120D02*
X0128500Y0321670D01*
X0127600Y0321670D01*
X0127150Y0322120D01*
X0127150Y0323920D01*
X0127600Y0324370D01*
X0128500Y0324370D01*
X0128950Y0323920D01*
X0128950Y0322120D01*
X0126010Y0322120D02*
X0125560Y0321670D01*
X0124660Y0321670D01*
X0124210Y0322120D01*
X0124210Y0324370D01*
X0123060Y0324370D02*
X0121260Y0324370D01*
X0122160Y0324370D02*
X0122160Y0321670D01*
X0120110Y0321670D02*
X0118310Y0323470D01*
X0118310Y0323920D01*
X0118760Y0324370D01*
X0119660Y0324370D01*
X0120110Y0323920D01*
X0126010Y0324370D02*
X0126010Y0322120D01*
X0120110Y0321670D02*
X0118310Y0321670D01*
X0068950Y0322120D02*
X0068500Y0321670D01*
X0067600Y0321670D01*
X0067150Y0322120D01*
X0067150Y0323920D01*
X0067600Y0324370D01*
X0068500Y0324370D01*
X0068950Y0323920D01*
X0068950Y0322120D01*
X0066010Y0322120D02*
X0065560Y0321670D01*
X0064660Y0321670D01*
X0064210Y0322120D01*
X0064210Y0324370D01*
X0063060Y0324370D02*
X0061260Y0324370D01*
X0062160Y0324370D02*
X0062160Y0321670D01*
X0060110Y0321670D02*
X0058310Y0321670D01*
X0059210Y0321670D02*
X0059210Y0324370D01*
X0060110Y0323470D01*
X0066010Y0324370D02*
X0066010Y0322120D01*
X0018950Y0322570D02*
X0018050Y0321670D01*
X0017150Y0322570D01*
X0017150Y0324370D01*
X0016010Y0324370D02*
X0015110Y0324370D01*
X0015560Y0324370D02*
X0015560Y0321670D01*
X0016010Y0321670D02*
X0015110Y0321670D01*
X0014040Y0321670D02*
X0014040Y0324370D01*
X0012240Y0321670D01*
X0012240Y0324370D01*
X0018950Y0324370D02*
X0018950Y0322570D01*
X0358310Y0322120D02*
X0358310Y0322570D01*
X0358760Y0323020D01*
X0360110Y0323020D01*
X0360110Y0322120D01*
X0359660Y0321670D01*
X0358760Y0321670D01*
X0358310Y0322120D01*
X0362160Y0321670D02*
X0362160Y0324370D01*
X0363060Y0324370D02*
X0361260Y0324370D01*
X0359210Y0323920D02*
X0358310Y0324370D01*
X0359210Y0323920D02*
X0360110Y0323020D01*
X0364210Y0322120D02*
X0364210Y0324370D01*
X0366010Y0324370D02*
X0366010Y0322120D01*
X0365560Y0321670D01*
X0364660Y0321670D01*
X0364210Y0322120D01*
X0367150Y0322120D02*
X0367150Y0323920D01*
X0367600Y0324370D01*
X0368500Y0324370D01*
X0368950Y0323920D01*
X0368950Y0322120D01*
X0368500Y0321670D01*
X0367600Y0321670D01*
X0367150Y0322120D01*
D22*
X0010400Y0309120D02*
X0010400Y0327380D01*
X0010400Y0327380D02*
X0372100Y0327380D01*
X0372100Y0309120D01*
X0372100Y0309120D02*
X0010400Y0309120D01*
X0010000Y0334480D02*
G75*
%LPD*%
D11*
X0010000Y0334480D02*
X0010000Y0351940D01*
X0372500Y0351940D01*
X0372500Y0334480D01*
X0010000Y0334480D01*
D15*
X0025070Y0340870D02*
X0027430Y0340870D01*
X0085070Y0340870D02*
X0087430Y0340870D01*
X0145070Y0340870D02*
X0147430Y0340870D01*
X0205070Y0340870D02*
X0207430Y0340870D01*
X0265070Y0340870D02*
X0267430Y0340870D01*
X0325070Y0340870D02*
X0327430Y0340870D01*
X0327430Y0345590D02*
X0325070Y0345590D01*
X0267430Y0345590D02*
X0265070Y0345590D01*
X0207430Y0345590D02*
X0205070Y0345590D01*
X0147430Y0345590D02*
X0145070Y0345590D01*
X0087430Y0345590D02*
X0085070Y0345590D01*
X0027430Y0345590D02*
X0025070Y0345590D01*
D18*
X0025190Y0346630D02*
X0025190Y0349530D01*
X0026150Y0348560D01*
X0027170Y0348080D02*
X0027650Y0347600D01*
X0029100Y0347600D01*
X0028130Y0347600D02*
X0027170Y0346630D01*
X0026150Y0346630D02*
X0024220Y0346630D01*
X0029100Y0346630D02*
X0029100Y0349530D01*
X0027650Y0349530D01*
X0027170Y0349050D01*
X0027170Y0348080D01*
X0084220Y0348560D02*
X0084220Y0349050D01*
X0084700Y0349530D01*
X0085670Y0349530D01*
X0086150Y0349050D01*
X0087170Y0349050D02*
X0087170Y0348080D01*
X0087650Y0347600D01*
X0089100Y0347600D01*
X0088130Y0347600D02*
X0087170Y0346630D01*
X0086150Y0346630D02*
X0084220Y0348560D01*
X0087170Y0349050D02*
X0087650Y0349530D01*
X0089100Y0349530D01*
X0089100Y0346630D01*
X0086150Y0346630D02*
X0084220Y0346630D01*
X0144220Y0347110D02*
X0144700Y0346630D01*
X0145670Y0346630D01*
X0146150Y0347110D01*
X0144220Y0347110D02*
X0144220Y0347600D01*
X0144700Y0348080D01*
X0145190Y0348080D01*
X0144700Y0348080D02*
X0144220Y0348560D01*
X0144220Y0349050D01*
X0144700Y0349530D01*
X0145670Y0349530D01*
X0146150Y0349050D01*
X0147170Y0349050D02*
X0147170Y0348080D01*
X0147650Y0347600D01*
X0149100Y0347600D01*
X0148130Y0347600D02*
X0147170Y0346630D01*
X0149100Y0346630D02*
X0149100Y0349530D01*
X0147650Y0349530D01*
X0147170Y0349050D01*
X0204220Y0348080D02*
X0206150Y0348080D01*
X0204700Y0349530D01*
X0204700Y0346630D01*
X0207170Y0346630D02*
X0208130Y0347600D01*
X0207650Y0347600D02*
X0209100Y0347600D01*
X0207650Y0347600D02*
X0207170Y0348080D01*
X0207170Y0349050D01*
X0207650Y0349530D01*
X0209100Y0349530D01*
X0209100Y0346630D01*
X0264220Y0347110D02*
X0264700Y0346630D01*
X0265670Y0346630D01*
X0266150Y0347110D01*
X0264220Y0347110D02*
X0264220Y0348080D01*
X0264700Y0348560D01*
X0265190Y0348560D01*
X0266150Y0348080D01*
X0266150Y0349530D01*
X0264220Y0349530D01*
X0267170Y0349050D02*
X0267650Y0349530D01*
X0269100Y0349530D01*
X0269100Y0346630D01*
X0268130Y0347600D02*
X0267170Y0346630D01*
X0267650Y0347600D02*
X0269100Y0347600D01*
X0267650Y0347600D02*
X0267170Y0348080D01*
X0267170Y0349050D01*
X0324220Y0349530D02*
X0325190Y0349050D01*
X0326150Y0348080D01*
X0324700Y0348080D01*
X0324220Y0347600D01*
X0324220Y0347110D01*
X0324700Y0346630D01*
X0325670Y0346630D01*
X0326150Y0347110D01*
X0326150Y0348080D01*
X0327170Y0348080D02*
X0327650Y0347600D01*
X0329100Y0347600D01*
X0328130Y0347600D02*
X0327170Y0346630D01*
X0329100Y0346630D02*
X0329100Y0349530D01*
X0327650Y0349530D01*
X0327170Y0349050D01*
X0327170Y0348080D01*
D10*
X0308950Y0348880D02*
X0308950Y0347080D01*
X0308500Y0346630D01*
X0307600Y0346630D01*
X0307150Y0347080D01*
X0307150Y0348880D01*
X0307600Y0349330D01*
X0308500Y0349330D01*
X0308950Y0348880D01*
X0306010Y0349330D02*
X0306010Y0347080D01*
X0305560Y0346630D01*
X0304660Y0346630D01*
X0304210Y0347080D01*
X0304210Y0349330D01*
X0303060Y0349330D02*
X0301260Y0349330D01*
X0302160Y0349330D02*
X0302160Y0346630D01*
X0300110Y0347080D02*
X0299660Y0346630D01*
X0298760Y0346630D01*
X0298310Y0347080D01*
X0298310Y0347980D01*
X0298760Y0348430D01*
X0299210Y0348430D01*
X0300110Y0347980D01*
X0300110Y0349330D01*
X0298310Y0349330D01*
X0248950Y0348880D02*
X0248950Y0347080D01*
X0248500Y0346630D01*
X0247600Y0346630D01*
X0247150Y0347080D01*
X0247150Y0348880D01*
X0247600Y0349330D01*
X0248500Y0349330D01*
X0248950Y0348880D01*
X0246010Y0349330D02*
X0246010Y0347080D01*
X0245560Y0346630D01*
X0244660Y0346630D01*
X0244210Y0347080D01*
X0244210Y0349330D01*
X0243060Y0349330D02*
X0241260Y0349330D01*
X0242160Y0349330D02*
X0242160Y0346630D01*
X0238760Y0346630D02*
X0238760Y0349330D01*
X0240110Y0347980D01*
X0238310Y0347980D01*
X0188950Y0347080D02*
X0188500Y0346630D01*
X0187600Y0346630D01*
X0187150Y0347080D01*
X0187150Y0348880D01*
X0187600Y0349330D01*
X0188500Y0349330D01*
X0188950Y0348880D01*
X0188950Y0347080D01*
X0186010Y0347080D02*
X0185560Y0346630D01*
X0184660Y0346630D01*
X0184210Y0347080D01*
X0184210Y0349330D01*
X0183060Y0349330D02*
X0181260Y0349330D01*
X0182160Y0349330D02*
X0182160Y0346630D01*
X0180110Y0347080D02*
X0179660Y0346630D01*
X0178760Y0346630D01*
X0178310Y0347080D01*
X0178310Y0347530D01*
X0178760Y0347980D01*
X0179210Y0347980D01*
X0178760Y0347980D02*
X0178310Y0348430D01*
X0178310Y0348880D01*
X0178760Y0349330D01*
X0179660Y0349330D01*
X0180110Y0348880D01*
X0186010Y0349330D02*
X0186010Y0347080D01*
X0128950Y0347080D02*
X0128500Y0346630D01*
X0127600Y0346630D01*
X0127150Y0347080D01*
X0127150Y0348880D01*
X0127600Y0349330D01*
X0128500Y0349330D01*
X0128950Y0348880D01*
X0128950Y0347080D01*
X0126010Y0347080D02*
X0125560Y0346630D01*
X0124660Y0346630D01*
X0124210Y0347080D01*
X0124210Y0349330D01*
X0123060Y0349330D02*
X0121260Y0349330D01*
X0122160Y0349330D02*
X0122160Y0346630D01*
X0120110Y0346630D02*
X0118310Y0348430D01*
X0118310Y0348880D01*
X0118760Y0349330D01*
X0119660Y0349330D01*
X0120110Y0348880D01*
X0126010Y0349330D02*
X0126010Y0347080D01*
X0120110Y0346630D02*
X0118310Y0346630D01*
X0068950Y0347080D02*
X0068500Y0346630D01*
X0067600Y0346630D01*
X0067150Y0347080D01*
X0067150Y0348880D01*
X0067600Y0349330D01*
X0068500Y0349330D01*
X0068950Y0348880D01*
X0068950Y0347080D01*
X0066010Y0347080D02*
X0065560Y0346630D01*
X0064660Y0346630D01*
X0064210Y0347080D01*
X0064210Y0349330D01*
X0063060Y0349330D02*
X0061260Y0349330D01*
X0062160Y0349330D02*
X0062160Y0346630D01*
X0060110Y0346630D02*
X0058310Y0346630D01*
X0059210Y0346630D02*
X0059210Y0349330D01*
X0060110Y0348430D01*
X0066010Y0349330D02*
X0066010Y0347080D01*
X0018950Y0347530D02*
X0018050Y0346630D01*
X0017150Y0347530D01*
X0017150Y0349330D01*
X0016010Y0349330D02*
X0015110Y0349330D01*
X0015560Y0349330D02*
X0015560Y0346630D01*
X0016010Y0346630D02*
X0015110Y0346630D01*
X0014040Y0346630D02*
X0014040Y0349330D01*
X0012240Y0346630D01*
X0012240Y0349330D01*
X0018950Y0349330D02*
X0018950Y0347530D01*
X0358310Y0347080D02*
X0358310Y0347530D01*
X0358760Y0347980D01*
X0360110Y0347980D01*
X0360110Y0347080D01*
X0359660Y0346630D01*
X0358760Y0346630D01*
X0358310Y0347080D01*
X0362160Y0346630D02*
X0362160Y0349330D01*
X0363060Y0349330D02*
X0361260Y0349330D01*
X0359210Y0348880D02*
X0358310Y0349330D01*
X0359210Y0348880D02*
X0360110Y0347980D01*
X0364210Y0347080D02*
X0364210Y0349330D01*
X0366010Y0349330D02*
X0366010Y0347080D01*
X0365560Y0346630D01*
X0364660Y0346630D01*
X0364210Y0347080D01*
X0367150Y0347080D02*
X0367150Y0348880D01*
X0367600Y0349330D01*
X0368500Y0349330D01*
X0368950Y0348880D01*
X0368950Y0347080D01*
X0368500Y0346630D01*
X0367600Y0346630D01*
X0367150Y0347080D01*
D22*
X0010400Y0334080D02*
X0010400Y0352340D01*
X0010400Y0352340D02*
X0372100Y0352340D01*
X0372100Y0334080D01*
X0372100Y0334080D02*
X0010400Y0334080D01*
X0010000Y0359440D02*
G75*
%LPD*%
D11*
X0010000Y0359440D02*
X0010000Y0376900D01*
X0372500Y0376900D01*
X0372500Y0359440D01*
X0010000Y0359440D01*
D15*
X0025070Y0365830D02*
X0027430Y0365830D01*
X0085070Y0365830D02*
X0087430Y0365830D01*
X0145070Y0365830D02*
X0147430Y0365830D01*
X0205070Y0365830D02*
X0207430Y0365830D01*
X0265070Y0365830D02*
X0267430Y0365830D01*
X0325070Y0365830D02*
X0327430Y0365830D01*
X0327430Y0370550D02*
X0325070Y0370550D01*
X0267430Y0370550D02*
X0265070Y0370550D01*
X0207430Y0370550D02*
X0205070Y0370550D01*
X0147430Y0370550D02*
X0145070Y0370550D01*
X0087430Y0370550D02*
X0085070Y0370550D01*
X0027430Y0370550D02*
X0025070Y0370550D01*
D18*
X0025190Y0371590D02*
X0025190Y0374490D01*
X0026150Y0373520D01*
X0027170Y0373040D02*
X0027650Y0372560D01*
X0029100Y0372560D01*
X0028130Y0372560D02*
X0027170Y0371590D01*
X0026150Y0371590D02*
X0024220Y0371590D01*
X0029100Y0371590D02*
X0029100Y0374490D01*
X0027650Y0374490D01*
X0027170Y0374010D01*
X0027170Y0373040D01*
X0084220Y0373520D02*
X0084220Y0374010D01*
X0084700Y0374490D01*
X0085670Y0374490D01*
X0086150Y0374010D01*
X0087170Y0374010D02*
X0087170Y0373040D01*
X0087650Y0372560D01*
X0089100Y0372560D01*
X0088130Y0372560D02*
X0087170Y0371590D01*
X0086150Y0371590D02*
X0084220Y0373520D01*
X0087170Y0374010D02*
X0087650Y0374490D01*
X0089100Y0374490D01*
X0089100Y0371590D01*
X0086150Y0371590D02*
X0084220Y0371590D01*
X0144220Y0372070D02*
X0144700Y0371590D01*
X0145670Y0371590D01*
X0146150Y0372070D01*
X0144220Y0372070D02*
X0144220Y0372560D01*
X0144700Y0373040D01*
X0145190Y0373040D01*
X0144700Y0373040D02*
X0144220Y0373520D01*
X0144220Y0374010D01*
X0144700Y0374490D01*
X0145670Y0374490D01*
X0146150Y0374010D01*
X0147170Y0374010D02*
X0147170Y0373040D01*
X0147650Y0372560D01*
X0149100Y0372560D01*
X0148130Y0372560D02*
X0147170Y0371590D01*
X0149100Y0371590D02*
X0149100Y0374490D01*
X0147650Y0374490D01*
X0147170Y0374010D01*
X0204220Y0373040D02*
X0206150Y0373040D01*
X0204700Y0374490D01*
X0204700Y0371590D01*
X0207170Y0371590D02*
X0208130Y0372560D01*
X0207650Y0372560D02*
X0209100Y0372560D01*
X0207650Y0372560D02*
X0207170Y0373040D01*
X0207170Y0374010D01*
X0207650Y0374490D01*
X0209100Y0374490D01*
X0209100Y0371590D01*
X0264220Y0372070D02*
X0264700Y0371590D01*
X0265670Y0371590D01*
X0266150Y0372070D01*
X0264220Y0372070D02*
X0264220Y0373040D01*
X0264700Y0373520D01*
X0265190Y0373520D01*
X0266150Y0373040D01*
X0266150Y0374490D01*
X0264220Y0374490D01*
X0267170Y0374010D02*
X0267650Y0374490D01*
X0269100Y0374490D01*
X0269100Y0371590D01*
X0268130Y0372560D02*
X0267170Y0371590D01*
X0267650Y0372560D02*
X0269100Y0372560D01*
X0267650Y0372560D02*
X0267170Y0373040D01*
X0267170Y0374010D01*
X0324220Y0374490D02*
X0325190Y0374010D01*
X0326150Y0373040D01*
X0324700Y0373040D01*
X0324220Y0372560D01*
X0324220Y0372070D01*
X0324700Y0371590D01*
X0325670Y0371590D01*
X0326150Y0372070D01*
X0326150Y0373040D01*
X0327170Y0373040D02*
X0327650Y0372560D01*
X0329100Y0372560D01*
X0328130Y0372560D02*
X0327170Y0371590D01*
X0329100Y0371590D02*
X0329100Y0374490D01*
X0327650Y0374490D01*
X0327170Y0374010D01*
X0327170Y0373040D01*
D10*
X0308950Y0373840D02*
X0308950Y0372040D01*
X0308500Y0371590D01*
X0307600Y0371590D01*
X0307150Y0372040D01*
X0307150Y0373840D01*
X0307600Y0374290D01*
X0308500Y0374290D01*
X0308950Y0373840D01*
X0306010Y0374290D02*
X0306010Y0372040D01*
X0305560Y0371590D01*
X0304660Y0371590D01*
X0304210Y0372040D01*
X0304210Y0374290D01*
X0303060Y0374290D02*
X0301260Y0374290D01*
X0302160Y0374290D02*
X0302160Y0371590D01*
X0300110Y0372040D02*
X0299660Y0371590D01*
X0298760Y0371590D01*
X0298310Y0372040D01*
X0298310Y0372940D01*
X0298760Y0373390D01*
X0299210Y0373390D01*
X0300110Y0372940D01*
X0300110Y0374290D01*
X0298310Y0374290D01*
X0248950Y0373840D02*
X0248950Y0372040D01*
X0248500Y0371590D01*
X0247600Y0371590D01*
X0247150Y0372040D01*
X0247150Y0373840D01*
X0247600Y0374290D01*
X0248500Y0374290D01*
X0248950Y0373840D01*
X0246010Y0374290D02*
X0246010Y0372040D01*
X0245560Y0371590D01*
X0244660Y0371590D01*
X0244210Y0372040D01*
X0244210Y0374290D01*
X0243060Y0374290D02*
X0241260Y0374290D01*
X0242160Y0374290D02*
X0242160Y0371590D01*
X0238760Y0371590D02*
X0238760Y0374290D01*
X0240110Y0372940D01*
X0238310Y0372940D01*
X0188950Y0372040D02*
X0188500Y0371590D01*
X0187600Y0371590D01*
X0187150Y0372040D01*
X0187150Y0373840D01*
X0187600Y0374290D01*
X0188500Y0374290D01*
X0188950Y0373840D01*
X0188950Y0372040D01*
X0186010Y0372040D02*
X0185560Y0371590D01*
X0184660Y0371590D01*
X0184210Y0372040D01*
X0184210Y0374290D01*
X0183060Y0374290D02*
X0181260Y0374290D01*
X0182160Y0374290D02*
X0182160Y0371590D01*
X0180110Y0372040D02*
X0179660Y0371590D01*
X0178760Y0371590D01*
X0178310Y0372040D01*
X0178310Y0372490D01*
X0178760Y0372940D01*
X0179210Y0372940D01*
X0178760Y0372940D02*
X0178310Y0373390D01*
X0178310Y0373840D01*
X0178760Y0374290D01*
X0179660Y0374290D01*
X0180110Y0373840D01*
X0186010Y0374290D02*
X0186010Y0372040D01*
X0128950Y0372040D02*
X0128500Y0371590D01*
X0127600Y0371590D01*
X0127150Y0372040D01*
X0127150Y0373840D01*
X0127600Y0374290D01*
X0128500Y0374290D01*
X0128950Y0373840D01*
X0128950Y0372040D01*
X0126010Y0372040D02*
X0125560Y0371590D01*
X0124660Y0371590D01*
X0124210Y0372040D01*
X0124210Y0374290D01*
X0123060Y0374290D02*
X0121260Y0374290D01*
X0122160Y0374290D02*
X0122160Y0371590D01*
X0120110Y0371590D02*
X0118310Y0373390D01*
X0118310Y0373840D01*
X0118760Y0374290D01*
X0119660Y0374290D01*
X0120110Y0373840D01*
X0126010Y0374290D02*
X0126010Y0372040D01*
X0120110Y0371590D02*
X0118310Y0371590D01*
X0068950Y0372040D02*
X0068500Y0371590D01*
X0067600Y0371590D01*
X0067150Y0372040D01*
X0067150Y0373840D01*
X0067600Y0374290D01*
X0068500Y0374290D01*
X0068950Y0373840D01*
X0068950Y0372040D01*
X0066010Y0372040D02*
X0065560Y0371590D01*
X0064660Y0371590D01*
X0064210Y0372040D01*
X0064210Y0374290D01*
X0063060Y0374290D02*
X0061260Y0374290D01*
X0062160Y0374290D02*
X0062160Y0371590D01*
X0060110Y0371590D02*
X0058310Y0371590D01*
X0059210Y0371590D02*
X0059210Y0374290D01*
X0060110Y0373390D01*
X0066010Y0374290D02*
X0066010Y0372040D01*
X0018950Y0372490D02*
X0018050Y0371590D01*
X0017150Y0372490D01*
X0017150Y0374290D01*
X0016010Y0374290D02*
X0015110Y0374290D01*
X0015560Y0374290D02*
X0015560Y0371590D01*
X0016010Y0371590D02*
X0015110Y0371590D01*
X0014040Y0371590D02*
X0014040Y0374290D01*
X0012240Y0371590D01*
X0012240Y0374290D01*
X0018950Y0374290D02*
X0018950Y0372490D01*
X0358310Y0372040D02*
X0358310Y0372490D01*
X0358760Y0372940D01*
X0360110Y0372940D01*
X0360110Y0372040D01*
X0359660Y0371590D01*
X0358760Y0371590D01*
X0358310Y0372040D01*
X0362160Y0371590D02*
X0362160Y0374290D01*
X0363060Y0374290D02*
X0361260Y0374290D01*
X0359210Y0373840D02*
X0358310Y0374290D01*
X0359210Y0373840D02*
X0360110Y0372940D01*
X0364210Y0372040D02*
X0364210Y0374290D01*
X0366010Y0374290D02*
X0366010Y0372040D01*
X0365560Y0371590D01*
X0364660Y0371590D01*
X0364210Y0372040D01*
X0367150Y0372040D02*
X0367150Y0373840D01*
X0367600Y0374290D01*
X0368500Y0374290D01*
X0368950Y0373840D01*
X0368950Y0372040D01*
X0368500Y0371590D01*
X0367600Y0371590D01*
X0367150Y0372040D01*
D22*
X0010400Y0359040D02*
X0010400Y0377300D01*
X0010400Y0377300D02*
X0372100Y0377300D01*
X0372100Y0359040D01*
X0372100Y0359040D02*
X0010400Y0359040D01*
X0010000Y0384400D02*
G75*
%LPD*%
D11*
X0010000Y0384400D02*
X0010000Y0401860D01*
X0372500Y0401860D01*
X0372500Y0384400D01*
X0010000Y0384400D01*
D15*
X0025070Y0390790D02*
X0027430Y0390790D01*
X0085070Y0390790D02*
X0087430Y0390790D01*
X0145070Y0390790D02*
X0147430Y0390790D01*
X0205070Y0390790D02*
X0207430Y0390790D01*
X0265070Y0390790D02*
X0267430Y0390790D01*
X0325070Y0390790D02*
X0327430Y0390790D01*
X0327430Y0395510D02*
X0325070Y0395510D01*
X0267430Y0395510D02*
X0265070Y0395510D01*
X0207430Y0395510D02*
X0205070Y0395510D01*
X0147430Y0395510D02*
X0145070Y0395510D01*
X0087430Y0395510D02*
X0085070Y0395510D01*
X0027430Y0395510D02*
X0025070Y0395510D01*
D18*
X0025190Y0396550D02*
X0025190Y0399450D01*
X0026150Y0398480D01*
X0027170Y0398000D02*
X0027650Y0397520D01*
X0029100Y0397520D01*
X0028130Y0397520D02*
X0027170Y0396550D01*
X0026150Y0396550D02*
X0024220Y0396550D01*
X0029100Y0396550D02*
X0029100Y0399450D01*
X0027650Y0399450D01*
X0027170Y0398970D01*
X0027170Y0398000D01*
X0084220Y0398480D02*
X0084220Y0398970D01*
X0084700Y0399450D01*
X0085670Y0399450D01*
X0086150Y0398970D01*
X0087170Y0398970D02*
X0087170Y0398000D01*
X0087650Y0397520D01*
X0089100Y0397520D01*
X0088130Y0397520D02*
X0087170Y0396550D01*
X0086150Y0396550D02*
X0084220Y0398480D01*
X0087170Y0398970D02*
X0087650Y0399450D01*
X0089100Y0399450D01*
X0089100Y0396550D01*
X0086150Y0396550D02*
X0084220Y0396550D01*
X0144220Y0397030D02*
X0144700Y0396550D01*
X0145670Y0396550D01*
X0146150Y0397030D01*
X0144220Y0397030D02*
X0144220Y0397520D01*
X0144700Y0398000D01*
X0145190Y0398000D01*
X0144700Y0398000D02*
X0144220Y0398480D01*
X0144220Y0398970D01*
X0144700Y0399450D01*
X0145670Y0399450D01*
X0146150Y0398970D01*
X0147170Y0398970D02*
X0147170Y0398000D01*
X0147650Y0397520D01*
X0149100Y0397520D01*
X0148130Y0397520D02*
X0147170Y0396550D01*
X0149100Y0396550D02*
X0149100Y0399450D01*
X0147650Y0399450D01*
X0147170Y0398970D01*
X0204220Y0398000D02*
X0206150Y0398000D01*
X0204700Y0399450D01*
X0204700Y0396550D01*
X0207170Y0396550D02*
X0208130Y0397520D01*
X0207650Y0397520D02*
X0209100Y0397520D01*
X0207650Y0397520D02*
X0207170Y0398000D01*
X0207170Y0398970D01*
X0207650Y0399450D01*
X0209100Y0399450D01*
X0209100Y0396550D01*
X0264220Y0397030D02*
X0264700Y0396550D01*
X0265670Y0396550D01*
X0266150Y0397030D01*
X0264220Y0397030D02*
X0264220Y0398000D01*
X0264700Y0398480D01*
X0265190Y0398480D01*
X0266150Y0398000D01*
X0266150Y0399450D01*
X0264220Y0399450D01*
X0267170Y0398970D02*
X0267650Y0399450D01*
X0269100Y0399450D01*
X0269100Y0396550D01*
X0268130Y0397520D02*
X0267170Y0396550D01*
X0267650Y0397520D02*
X0269100Y0397520D01*
X0267650Y0397520D02*
X0267170Y0398000D01*
X0267170Y0398970D01*
X0324220Y0399450D02*
X0325190Y0398970D01*
X0326150Y0398000D01*
X0324700Y0398000D01*
X0324220Y0397520D01*
X0324220Y0397030D01*
X0324700Y0396550D01*
X0325670Y0396550D01*
X0326150Y0397030D01*
X0326150Y0398000D01*
X0327170Y0398000D02*
X0327650Y0397520D01*
X0329100Y0397520D01*
X0328130Y0397520D02*
X0327170Y0396550D01*
X0329100Y0396550D02*
X0329100Y0399450D01*
X0327650Y0399450D01*
X0327170Y0398970D01*
X0327170Y0398000D01*
D10*
X0308950Y0398800D02*
X0308950Y0397000D01*
X0308500Y0396550D01*
X0307600Y0396550D01*
X0307150Y0397000D01*
X0307150Y0398800D01*
X0307600Y0399250D01*
X0308500Y0399250D01*
X0308950Y0398800D01*
X0306010Y0399250D02*
X0306010Y0397000D01*
X0305560Y0396550D01*
X0304660Y0396550D01*
X0304210Y0397000D01*
X0304210Y0399250D01*
X0303060Y0399250D02*
X0301260Y0399250D01*
X0302160Y0399250D02*
X0302160Y0396550D01*
X0300110Y0397000D02*
X0299660Y0396550D01*
X0298760Y0396550D01*
X0298310Y0397000D01*
X0298310Y0397900D01*
X0298760Y0398350D01*
X0299210Y0398350D01*
X0300110Y0397900D01*
X0300110Y0399250D01*
X0298310Y0399250D01*
X0248950Y0398800D02*
X0248950Y0397000D01*
X0248500Y0396550D01*
X0247600Y0396550D01*
X0247150Y0397000D01*
X0247150Y0398800D01*
X0247600Y0399250D01*
X0248500Y0399250D01*
X0248950Y0398800D01*
X0246010Y0399250D02*
X0246010Y0397000D01*
X0245560Y0396550D01*
X0244660Y0396550D01*
X0244210Y0397000D01*
X0244210Y0399250D01*
X0243060Y0399250D02*
X0241260Y0399250D01*
X0242160Y0399250D02*
X0242160Y0396550D01*
X0238760Y0396550D02*
X0238760Y0399250D01*
X0240110Y0397900D01*
X0238310Y0397900D01*
X0188950Y0397000D02*
X0188500Y0396550D01*
X0187600Y0396550D01*
X0187150Y0397000D01*
X0187150Y0398800D01*
X0187600Y0399250D01*
X0188500Y0399250D01*
X0188950Y0398800D01*
X0188950Y0397000D01*
X0186010Y0397000D02*
X0185560Y0396550D01*
X0184660Y0396550D01*
X0184210Y0397000D01*
X0184210Y0399250D01*
X0183060Y0399250D02*
X0181260Y0399250D01*
X0182160Y0399250D02*
X0182160Y0396550D01*
X0180110Y0397000D02*
X0179660Y0396550D01*
X0178760Y0396550D01*
X0178310Y0397000D01*
X0178310Y0397450D01*
X0178760Y0397900D01*
X0179210Y0397900D01*
X0178760Y0397900D02*
X0178310Y0398350D01*
X0178310Y0398800D01*
X0178760Y0399250D01*
X0179660Y0399250D01*
X0180110Y0398800D01*
X0186010Y0399250D02*
X0186010Y0397000D01*
X0128950Y0397000D02*
X0128500Y0396550D01*
X0127600Y0396550D01*
X0127150Y0397000D01*
X0127150Y0398800D01*
X0127600Y0399250D01*
X0128500Y0399250D01*
X0128950Y0398800D01*
X0128950Y0397000D01*
X0126010Y0397000D02*
X0125560Y0396550D01*
X0124660Y0396550D01*
X0124210Y0397000D01*
X0124210Y0399250D01*
X0123060Y0399250D02*
X0121260Y0399250D01*
X0122160Y0399250D02*
X0122160Y0396550D01*
X0120110Y0396550D02*
X0118310Y0398350D01*
X0118310Y0398800D01*
X0118760Y0399250D01*
X0119660Y0399250D01*
X0120110Y0398800D01*
X0126010Y0399250D02*
X0126010Y0397000D01*
X0120110Y0396550D02*
X0118310Y0396550D01*
X0068950Y0397000D02*
X0068500Y0396550D01*
X0067600Y0396550D01*
X0067150Y0397000D01*
X0067150Y0398800D01*
X0067600Y0399250D01*
X0068500Y0399250D01*
X0068950Y0398800D01*
X0068950Y0397000D01*
X0066010Y0397000D02*
X0065560Y0396550D01*
X0064660Y0396550D01*
X0064210Y0397000D01*
X0064210Y0399250D01*
X0063060Y0399250D02*
X0061260Y0399250D01*
X0062160Y0399250D02*
X0062160Y0396550D01*
X0060110Y0396550D02*
X0058310Y0396550D01*
X0059210Y0396550D02*
X0059210Y0399250D01*
X0060110Y0398350D01*
X0066010Y0399250D02*
X0066010Y0397000D01*
X0018950Y0397450D02*
X0018050Y0396550D01*
X0017150Y0397450D01*
X0017150Y0399250D01*
X0016010Y0399250D02*
X0015110Y0399250D01*
X0015560Y0399250D02*
X0015560Y0396550D01*
X0016010Y0396550D02*
X0015110Y0396550D01*
X0014040Y0396550D02*
X0014040Y0399250D01*
X0012240Y0396550D01*
X0012240Y0399250D01*
X0018950Y0399250D02*
X0018950Y0397450D01*
X0358310Y0397000D02*
X0358310Y0397450D01*
X0358760Y0397900D01*
X0360110Y0397900D01*
X0360110Y0397000D01*
X0359660Y0396550D01*
X0358760Y0396550D01*
X0358310Y0397000D01*
X0362160Y0396550D02*
X0362160Y0399250D01*
X0363060Y0399250D02*
X0361260Y0399250D01*
X0359210Y0398800D02*
X0358310Y0399250D01*
X0359210Y0398800D02*
X0360110Y0397900D01*
X0364210Y0397000D02*
X0364210Y0399250D01*
X0366010Y0399250D02*
X0366010Y0397000D01*
X0365560Y0396550D01*
X0364660Y0396550D01*
X0364210Y0397000D01*
X0367150Y0397000D02*
X0367150Y0398800D01*
X0367600Y0399250D01*
X0368500Y0399250D01*
X0368950Y0398800D01*
X0368950Y0397000D01*
X0368500Y0396550D01*
X0367600Y0396550D01*
X0367150Y0397000D01*
D22*
X0010400Y0384000D02*
X0010400Y0401460D01*
X0010400Y0401460D02*
X0372100Y0401460D01*
X0372100Y0401460D02*
X0372100Y0384000D01*
X0372100Y0384000D02*
X0010400Y0384000D01*
M02*
