G75*
%MOIN*%
%OFA0B0*%
%FSLAX24Y24*%
%IPPOS*%
%LPD*%
%AMOC8*
5,1,8,0,0,1.08239X$1,22.5*
%
%ADD10C,0.0100*%
%ADD11R,0.0472X0.0472*%
%ADD12C,0.0317*%
%ADD13C,0.0060*%
D10*
X000150Y000150D02*
X000150Y001896D01*
X036400Y001896D01*
X036400Y000150D01*
X000150Y000150D01*
D11*
X000862Y001025D03*
X001688Y001025D03*
X002862Y001025D03*
X003688Y001025D03*
X004862Y001025D03*
X005688Y001025D03*
X006862Y001025D03*
X007688Y001025D03*
X008862Y001025D03*
X009688Y001025D03*
X010862Y001025D03*
X011688Y001025D03*
X012862Y001025D03*
X013688Y001025D03*
X014862Y001025D03*
X015688Y001025D03*
X016862Y001025D03*
X017688Y001025D03*
X018862Y001025D03*
X019688Y001025D03*
X020862Y001025D03*
X021688Y001025D03*
X022862Y001025D03*
X023688Y001025D03*
X024862Y001025D03*
X025688Y001025D03*
X026862Y001025D03*
X027688Y001025D03*
X028862Y001025D03*
X029688Y001025D03*
X030862Y001025D03*
X031688Y001025D03*
X032862Y001025D03*
X033688Y001025D03*
X034862Y001025D03*
X035688Y001025D03*
D12*
X035775Y000525D03*
X031275Y000525D03*
X029775Y000525D03*
X025275Y000525D03*
X023775Y000525D03*
X019275Y000525D03*
X017775Y000525D03*
X013275Y000525D03*
X011775Y000525D03*
X007275Y000525D03*
X005775Y000525D03*
X001275Y000525D03*
D13*
X001275Y000612D01*
X000862Y001025D01*
X001688Y001025D02*
X002862Y001025D01*
X003688Y001025D02*
X004862Y001025D01*
X005688Y001025D02*
X005775Y000938D01*
X005775Y000525D01*
X006862Y001025D02*
X007275Y000612D01*
X007275Y000525D01*
X011775Y000525D02*
X011775Y000938D01*
X011688Y001025D01*
X010862Y001025D02*
X009688Y001025D01*
X008862Y001025D02*
X007688Y001025D01*
X012862Y001025D02*
X013275Y000612D01*
X013275Y000525D01*
X017775Y000525D02*
X017775Y000938D01*
X017688Y001025D01*
X016862Y001025D02*
X015688Y001025D01*
X014862Y001025D02*
X013688Y001025D01*
X018862Y001025D02*
X019275Y000612D01*
X019275Y000525D01*
X023775Y000525D02*
X023775Y000938D01*
X023688Y001025D01*
X022862Y001025D02*
X021688Y001025D01*
X020862Y001025D02*
X019688Y001025D01*
X024862Y001025D02*
X025025Y000862D01*
X025025Y000775D01*
X025275Y000525D01*
X029775Y000525D02*
X029775Y000938D01*
X029688Y001025D01*
X028862Y001025D02*
X027688Y001025D01*
X026862Y001025D02*
X025688Y001025D01*
X030862Y001025D02*
X031275Y000612D01*
X031275Y000525D01*
X035775Y000525D02*
X035775Y000938D01*
X035688Y001025D01*
X034862Y001025D02*
X033688Y001025D01*
X032862Y001025D02*
X031688Y001025D01*
M02*
