G75*
G70*
%OFA0B0*%
%FSLAX25Y25*%
%IPPOS*%
%LPD*%
%AMOC8*
5,1,8,0,0,1.08239X$1,22.5*
%
%ADD11C,0.01000*%
%ADD17R,0.03150X0.04720*%
X0010000Y0010000D02*
G75*
%LPD*%
D11*
X0010000Y0010000D02*
X0010000Y0027460D01*
X0372500Y0027460D01*
X0372500Y0010000D01*
X0010000Y0010000D01*
D17*
X0022710Y0018750D03*
X0029790Y0018750D03*
X0082710Y0018750D03*
X0089790Y0018750D03*
X0142710Y0018750D03*
X0149790Y0018750D03*
X0202710Y0018750D03*
X0209790Y0018750D03*
X0262710Y0018750D03*
X0269790Y0018750D03*
X0322710Y0018750D03*
X0329790Y0018750D03*
X0010000Y0034960D02*
G75*
%LPD*%
D11*
X0010000Y0034960D02*
X0010000Y0052420D01*
X0372500Y0052420D01*
X0372500Y0034960D01*
X0010000Y0034960D01*
D17*
X0022710Y0043710D03*
X0029790Y0043710D03*
X0082710Y0043710D03*
X0089790Y0043710D03*
X0142710Y0043710D03*
X0149790Y0043710D03*
X0202710Y0043710D03*
X0209790Y0043710D03*
X0262710Y0043710D03*
X0269790Y0043710D03*
X0322710Y0043710D03*
X0329790Y0043710D03*
X0010000Y0059920D02*
G75*
%LPD*%
D11*
X0010000Y0059920D02*
X0010000Y0077380D01*
X0372500Y0077380D01*
X0372500Y0059920D01*
X0010000Y0059920D01*
D17*
X0022710Y0068670D03*
X0029790Y0068670D03*
X0082710Y0068670D03*
X0089790Y0068670D03*
X0142710Y0068670D03*
X0149790Y0068670D03*
X0202710Y0068670D03*
X0209790Y0068670D03*
X0262710Y0068670D03*
X0269790Y0068670D03*
X0322710Y0068670D03*
X0329790Y0068670D03*
X0010000Y0084880D02*
G75*
%LPD*%
D11*
X0010000Y0084880D02*
X0010000Y0102340D01*
X0372500Y0102340D01*
X0372500Y0084880D01*
X0010000Y0084880D01*
D17*
X0022710Y0093630D03*
X0029790Y0093630D03*
X0082710Y0093630D03*
X0089790Y0093630D03*
X0142710Y0093630D03*
X0149790Y0093630D03*
X0202710Y0093630D03*
X0209790Y0093630D03*
X0262710Y0093630D03*
X0269790Y0093630D03*
X0322710Y0093630D03*
X0329790Y0093630D03*
X0010000Y0109840D02*
G75*
%LPD*%
D11*
X0010000Y0109840D02*
X0010000Y0127300D01*
X0372500Y0127300D01*
X0372500Y0109840D01*
X0010000Y0109840D01*
D17*
X0022710Y0118590D03*
X0029790Y0118590D03*
X0082710Y0118590D03*
X0089790Y0118590D03*
X0142710Y0118590D03*
X0149790Y0118590D03*
X0202710Y0118590D03*
X0209790Y0118590D03*
X0262710Y0118590D03*
X0269790Y0118590D03*
X0322710Y0118590D03*
X0329790Y0118590D03*
X0010000Y0134800D02*
G75*
%LPD*%
D11*
X0010000Y0134800D02*
X0010000Y0152260D01*
X0372500Y0152260D01*
X0372500Y0134800D01*
X0010000Y0134800D01*
D17*
X0022710Y0143550D03*
X0029790Y0143550D03*
X0082710Y0143550D03*
X0089790Y0143550D03*
X0142710Y0143550D03*
X0149790Y0143550D03*
X0202710Y0143550D03*
X0209790Y0143550D03*
X0262710Y0143550D03*
X0269790Y0143550D03*
X0322710Y0143550D03*
X0329790Y0143550D03*
X0010000Y0159760D02*
G75*
%LPD*%
D11*
X0010000Y0159760D02*
X0010000Y0177220D01*
X0372500Y0177220D01*
X0372500Y0159760D01*
X0010000Y0159760D01*
D17*
X0022710Y0168510D03*
X0029790Y0168510D03*
X0082710Y0168510D03*
X0089790Y0168510D03*
X0142710Y0168510D03*
X0149790Y0168510D03*
X0202710Y0168510D03*
X0209790Y0168510D03*
X0262710Y0168510D03*
X0269790Y0168510D03*
X0322710Y0168510D03*
X0329790Y0168510D03*
X0010000Y0184720D02*
G75*
%LPD*%
D11*
X0010000Y0184720D02*
X0010000Y0202180D01*
X0372500Y0202180D01*
X0372500Y0184720D01*
X0010000Y0184720D01*
D17*
X0022710Y0193470D03*
X0029790Y0193470D03*
X0082710Y0193470D03*
X0089790Y0193470D03*
X0142710Y0193470D03*
X0149790Y0193470D03*
X0202710Y0193470D03*
X0209790Y0193470D03*
X0262710Y0193470D03*
X0269790Y0193470D03*
X0322710Y0193470D03*
X0329790Y0193470D03*
X0010000Y0209680D02*
G75*
%LPD*%
D11*
X0010000Y0209680D02*
X0010000Y0227140D01*
X0372500Y0227140D01*
X0372500Y0209680D01*
X0010000Y0209680D01*
D17*
X0022710Y0218430D03*
X0029790Y0218430D03*
X0082710Y0218430D03*
X0089790Y0218430D03*
X0142710Y0218430D03*
X0149790Y0218430D03*
X0202710Y0218430D03*
X0209790Y0218430D03*
X0262710Y0218430D03*
X0269790Y0218430D03*
X0322710Y0218430D03*
X0329790Y0218430D03*
X0010000Y0234640D02*
G75*
%LPD*%
D11*
X0010000Y0234640D02*
X0010000Y0252100D01*
X0372500Y0252100D01*
X0372500Y0234640D01*
X0010000Y0234640D01*
D17*
X0022710Y0243390D03*
X0029790Y0243390D03*
X0082710Y0243390D03*
X0089790Y0243390D03*
X0142710Y0243390D03*
X0149790Y0243390D03*
X0202710Y0243390D03*
X0209790Y0243390D03*
X0262710Y0243390D03*
X0269790Y0243390D03*
X0322710Y0243390D03*
X0329790Y0243390D03*
X0010000Y0259600D02*
G75*
%LPD*%
D11*
X0010000Y0259600D02*
X0010000Y0277060D01*
X0372500Y0277060D01*
X0372500Y0259600D01*
X0010000Y0259600D01*
D17*
X0022710Y0268350D03*
X0029790Y0268350D03*
X0082710Y0268350D03*
X0089790Y0268350D03*
X0142710Y0268350D03*
X0149790Y0268350D03*
X0202710Y0268350D03*
X0209790Y0268350D03*
X0262710Y0268350D03*
X0269790Y0268350D03*
X0322710Y0268350D03*
X0329790Y0268350D03*
X0010000Y0284560D02*
G75*
%LPD*%
D11*
X0010000Y0284560D02*
X0010000Y0302020D01*
X0372500Y0302020D01*
X0372500Y0284560D01*
X0010000Y0284560D01*
D17*
X0022710Y0293310D03*
X0029790Y0293310D03*
X0082710Y0293310D03*
X0089790Y0293310D03*
X0142710Y0293310D03*
X0149790Y0293310D03*
X0202710Y0293310D03*
X0209790Y0293310D03*
X0262710Y0293310D03*
X0269790Y0293310D03*
X0322710Y0293310D03*
X0329790Y0293310D03*
X0010000Y0309520D02*
G75*
%LPD*%
D11*
X0010000Y0309520D02*
X0010000Y0326980D01*
X0372500Y0326980D01*
X0372500Y0309520D01*
X0010000Y0309520D01*
D17*
X0022710Y0318270D03*
X0029790Y0318270D03*
X0082710Y0318270D03*
X0089790Y0318270D03*
X0142710Y0318270D03*
X0149790Y0318270D03*
X0202710Y0318270D03*
X0209790Y0318270D03*
X0262710Y0318270D03*
X0269790Y0318270D03*
X0322710Y0318270D03*
X0329790Y0318270D03*
X0010000Y0334480D02*
G75*
%LPD*%
D11*
X0010000Y0334480D02*
X0010000Y0351940D01*
X0372500Y0351940D01*
X0372500Y0334480D01*
X0010000Y0334480D01*
D17*
X0022710Y0343230D03*
X0029790Y0343230D03*
X0082710Y0343230D03*
X0089790Y0343230D03*
X0142710Y0343230D03*
X0149790Y0343230D03*
X0202710Y0343230D03*
X0209790Y0343230D03*
X0262710Y0343230D03*
X0269790Y0343230D03*
X0322710Y0343230D03*
X0329790Y0343230D03*
X0010000Y0359440D02*
G75*
%LPD*%
D11*
X0010000Y0359440D02*
X0010000Y0376900D01*
X0372500Y0376900D01*
X0372500Y0359440D01*
X0010000Y0359440D01*
D17*
X0022710Y0368190D03*
X0029790Y0368190D03*
X0082710Y0368190D03*
X0089790Y0368190D03*
X0142710Y0368190D03*
X0149790Y0368190D03*
X0202710Y0368190D03*
X0209790Y0368190D03*
X0262710Y0368190D03*
X0269790Y0368190D03*
X0322710Y0368190D03*
X0329790Y0368190D03*
X0010000Y0384400D02*
G75*
%LPD*%
D11*
X0010000Y0384400D02*
X0010000Y0401860D01*
X0372500Y0401860D01*
X0372500Y0384400D01*
X0010000Y0384400D01*
D17*
X0022710Y0393150D03*
X0029790Y0393150D03*
X0082710Y0393150D03*
X0089790Y0393150D03*
X0142710Y0393150D03*
X0149790Y0393150D03*
X0202710Y0393150D03*
X0209790Y0393150D03*
X0262710Y0393150D03*
X0269790Y0393150D03*
X0322710Y0393150D03*
X0329790Y0393150D03*
M02*
