G75*
%MOIN*%
%OFA0B0*%
%FSLAX24Y24*%
%IPPOS*%
%LPD*%
%AMOC8*
5,1,8,0,0,1.08239X$1,22.5*
%
%ADD10C,0.0000*%
%ADD11R,0.0512X0.0512*%
%ADD12C,0.0437*%
D10*
X002392Y002517D02*
X002392Y011017D01*
X008892Y011017D01*
X008892Y002517D01*
X002392Y002517D01*
D11*
X005228Y003392D03*
X005228Y004142D03*
X005228Y004892D03*
X005228Y005642D03*
X005228Y006392D03*
X005368Y007142D03*
X005916Y007142D03*
X006055Y006392D03*
X006055Y005642D03*
X006055Y004892D03*
X006055Y004142D03*
X006055Y003392D03*
X006743Y007142D03*
X006478Y007892D03*
X006978Y008642D03*
X007305Y007892D03*
X007805Y008642D03*
X007416Y009392D03*
X007603Y010142D03*
X008243Y009392D03*
X008430Y010142D03*
X004805Y007892D03*
X004305Y008642D03*
X003978Y007892D03*
X003478Y008642D03*
X003868Y009392D03*
X003680Y010142D03*
X003041Y009392D03*
X002853Y010142D03*
X004541Y007142D03*
D12*
X005079Y006892D03*
X005392Y007454D03*
X005892Y007454D03*
X006204Y006892D03*
X004954Y005079D03*
X004954Y004704D03*
X006329Y003579D03*
X006329Y003204D03*
X007142Y009204D03*
X007142Y009579D03*
X004142Y009579D03*
X004142Y009204D03*
M02*
