G75*
%MOIN*%
%OFA0B0*%
%FSLAX24Y24*%
%IPPOS*%
%LPD*%
%AMOC8*
5,1,8,0,0,1.08239X$1,22.5*
%
%ADD10C,0.0000*%
%ADD11R,0.0472X0.0472*%
D10*
X002517Y002517D02*
X002517Y011017D01*
X009017Y011017D01*
X009017Y002517D01*
X002517Y002517D01*
D11*
X003166Y003267D03*
X003993Y003267D03*
X004579Y003791D03*
X003993Y004267D03*
X004579Y004618D03*
X005142Y004791D03*
X005142Y005618D03*
X005767Y005666D03*
X006329Y005618D03*
X006329Y004791D03*
X006892Y004618D03*
X007478Y004267D03*
X006892Y003791D03*
X007478Y003267D03*
X008305Y003267D03*
X008305Y004267D03*
X008305Y005267D03*
X007478Y005267D03*
X007478Y006267D03*
X008305Y006267D03*
X008305Y007267D03*
X007478Y007267D03*
X007478Y008267D03*
X008305Y008267D03*
X008305Y009267D03*
X007478Y009267D03*
X007478Y010267D03*
X008305Y010267D03*
X005767Y006493D03*
X003993Y006267D03*
X003166Y006267D03*
X003166Y007267D03*
X003993Y007267D03*
X003993Y008267D03*
X003166Y008267D03*
X003166Y009267D03*
X003993Y009267D03*
X003993Y010267D03*
X003166Y010267D03*
X003166Y005267D03*
X003993Y005267D03*
X003166Y004267D03*
M02*
