G75*
%MOIN*%
%OFA0B0*%
%FSLAX24Y24*%
%IPPOS*%
%LPD*%
%AMOC8*
5,1,8,0,0,1.08239X$1,22.5*
%
%ADD10C,0.0000*%
%ADD11R,0.0512X0.0512*%
%ADD12C,0.0437*%
D10*
X002517Y002517D02*
X002517Y010992D01*
X008918Y010992D01*
X008918Y002517D01*
X002517Y002517D01*
D11*
X003642Y003353D03*
X003642Y004180D03*
X003642Y004728D03*
X004454Y004805D03*
X005267Y004853D03*
X005267Y005680D03*
X006079Y005680D03*
X006079Y004853D03*
X006892Y004805D03*
X006892Y003978D03*
X007829Y004180D03*
X007829Y004728D03*
X007829Y005555D03*
X007829Y005603D03*
X007829Y006430D03*
X007829Y006478D03*
X007829Y007305D03*
X007829Y007853D03*
X007829Y008680D03*
X007829Y008728D03*
X007829Y009555D03*
X007829Y009603D03*
X007829Y010430D03*
X003642Y010430D03*
X003642Y009603D03*
X003642Y009555D03*
X003642Y008728D03*
X003642Y008680D03*
X003642Y007853D03*
X003642Y007305D03*
X003642Y006478D03*
X003642Y006430D03*
X003642Y005603D03*
X003642Y005555D03*
X004454Y003978D03*
X007829Y003353D03*
D12*
X007454Y003329D03*
X007454Y003704D03*
X007454Y004704D03*
X007454Y005079D03*
X005267Y004517D03*
X005142Y004142D03*
X003267Y004704D03*
X003267Y005079D03*
X003267Y007829D03*
X003267Y008204D03*
X004017Y010079D03*
X004017Y010454D03*
X007454Y008204D03*
X007454Y007829D03*
M02*
