G75*
%MOIN*%
%OFA0B0*%
%FSLAX24Y24*%
%IPPOS*%
%LPD*%
%AMOC8*
5,1,8,0,0,1.08239X$1,22.5*
%
%ADD10C,0.0000*%
%ADD11C,0.0100*%
%ADD12C,0.0040*%
%ADD13C,0.0080*%
D10*
X002517Y002517D02*
X002517Y011017D01*
X009017Y011017D01*
X009017Y002517D01*
X002517Y002517D01*
D11*
X002767Y003567D02*
X002767Y010038D01*
X002769Y010090D01*
X002774Y010142D01*
X002784Y010193D01*
X002797Y010243D01*
X002813Y010293D01*
X002833Y010341D01*
X002856Y010387D01*
X002883Y010432D01*
X002912Y010475D01*
X002945Y010515D01*
X002981Y010553D01*
X003019Y010589D01*
X003059Y010622D01*
X003102Y010651D01*
X003147Y010678D01*
X003193Y010701D01*
X003241Y010721D01*
X003291Y010737D01*
X003341Y010750D01*
X003392Y010760D01*
X003444Y010765D01*
X003496Y010767D01*
X003810Y010767D01*
X003860Y010765D01*
X003911Y010760D01*
X003960Y010751D01*
X004009Y010738D01*
X004057Y010722D01*
X004104Y010703D01*
X004149Y010681D01*
X004192Y010655D01*
X004234Y010626D01*
X004273Y010594D01*
X004310Y010560D01*
X004344Y010523D01*
X004376Y010484D01*
X004405Y010442D01*
X004431Y010399D01*
X004453Y010354D01*
X004472Y010307D01*
X004488Y010259D01*
X004501Y010210D01*
X004510Y010161D01*
X004515Y010110D01*
X004517Y010060D01*
X004517Y006642D01*
X004516Y006642D02*
X004518Y006606D01*
X004524Y006570D01*
X004533Y006536D01*
X004546Y006502D01*
X004563Y006470D01*
X004583Y006440D01*
X004606Y006412D01*
X004632Y006387D01*
X004661Y006365D01*
X004691Y006346D01*
X004724Y006331D01*
X004758Y006319D01*
X004793Y006310D01*
X004829Y006306D01*
X004865Y006305D01*
X004901Y006308D01*
X004936Y006315D01*
X004971Y006326D01*
X005004Y006341D01*
X005035Y006358D01*
X005064Y006380D01*
X005091Y006404D01*
X005634Y006947D01*
X005654Y006965D01*
X005677Y006979D01*
X005701Y006990D01*
X005727Y006998D01*
X005754Y007002D01*
X005780Y007002D01*
X005807Y006998D01*
X005833Y006990D01*
X005857Y006979D01*
X005880Y006965D01*
X005900Y006947D01*
X005899Y006947D02*
X006514Y006332D01*
X006536Y006311D01*
X006561Y006294D01*
X006588Y006280D01*
X006616Y006269D01*
X006646Y006261D01*
X006676Y006257D01*
X006706Y006256D01*
X006736Y006259D01*
X006766Y006266D01*
X006795Y006276D01*
X006822Y006289D01*
X006848Y006305D01*
X006871Y006325D01*
X006892Y006346D01*
X006911Y006371D01*
X006926Y006397D01*
X006938Y006425D01*
X006947Y006454D01*
X006952Y006484D01*
X006954Y006514D01*
X006954Y009926D01*
X006956Y009981D01*
X006961Y010036D01*
X006970Y010090D01*
X006983Y010144D01*
X006999Y010196D01*
X007018Y010248D01*
X007041Y010298D01*
X007067Y010347D01*
X007096Y010393D01*
X007128Y010438D01*
X007163Y010481D01*
X007200Y010521D01*
X007240Y010558D01*
X007283Y010593D01*
X007328Y010625D01*
X007375Y010654D01*
X007423Y010680D01*
X007473Y010703D01*
X007525Y010722D01*
X007577Y010738D01*
X007631Y010751D01*
X007685Y010760D01*
X007740Y010765D01*
X007795Y010767D01*
X007863Y010767D01*
X007918Y010765D01*
X007973Y010760D01*
X008027Y010751D01*
X008081Y010738D01*
X008133Y010722D01*
X008185Y010703D01*
X008235Y010680D01*
X008284Y010654D01*
X008330Y010625D01*
X008375Y010593D01*
X008418Y010558D01*
X008458Y010521D01*
X008495Y010481D01*
X008530Y010438D01*
X008562Y010393D01*
X008591Y010347D01*
X008617Y010298D01*
X008640Y010248D01*
X008659Y010196D01*
X008675Y010144D01*
X008688Y010090D01*
X008697Y010036D01*
X008702Y009981D01*
X008704Y009926D01*
X008704Y003540D01*
X008702Y003485D01*
X008696Y003430D01*
X008686Y003376D01*
X008673Y003322D01*
X008655Y003270D01*
X008634Y003219D01*
X008609Y003170D01*
X008581Y003122D01*
X008550Y003077D01*
X008515Y003034D01*
X008478Y002993D01*
X008437Y002956D01*
X008394Y002921D01*
X008349Y002890D01*
X008301Y002862D01*
X008252Y002837D01*
X008201Y002816D01*
X008149Y002798D01*
X008095Y002785D01*
X008041Y002775D01*
X007986Y002769D01*
X007931Y002767D01*
X007656Y002767D01*
X007311Y002910D02*
X005785Y004436D01*
X005786Y004437D02*
X005776Y004444D01*
X005765Y004450D01*
X005753Y004454D01*
X005741Y004455D01*
X005678Y004428D02*
X004200Y002950D01*
X003758Y002767D02*
X003567Y002767D01*
X003758Y002767D02*
X003807Y002769D01*
X003856Y002775D01*
X003904Y002784D01*
X003951Y002798D01*
X003997Y002815D01*
X004042Y002835D01*
X004085Y002859D01*
X004125Y002886D01*
X004164Y002917D01*
X004200Y002950D01*
X003567Y002767D02*
X003512Y002769D01*
X003458Y002774D01*
X003404Y002784D01*
X003351Y002797D01*
X003299Y002813D01*
X003248Y002833D01*
X003199Y002857D01*
X003151Y002883D01*
X003106Y002913D01*
X003062Y002946D01*
X003021Y002982D01*
X002982Y003021D01*
X002946Y003062D01*
X002913Y003106D01*
X002883Y003151D01*
X002857Y003199D01*
X002833Y003248D01*
X002813Y003299D01*
X002797Y003351D01*
X002784Y003404D01*
X002774Y003458D01*
X002769Y003512D01*
X002767Y003567D01*
X005679Y004428D02*
X005692Y004439D01*
X005707Y004447D01*
X005724Y004452D01*
X005741Y004454D01*
X007311Y002910D02*
X007342Y002881D01*
X007376Y002855D01*
X007412Y002832D01*
X007450Y002813D01*
X007489Y002796D01*
X007530Y002784D01*
X007571Y002774D01*
X007613Y002769D01*
X007656Y002767D01*
D12*
X007142Y002892D02*
X007142Y003642D01*
X008517Y003642D01*
X008642Y003517D01*
X008642Y002892D01*
X007142Y002892D01*
X007142Y003454D02*
X007267Y003579D01*
X007267Y004954D01*
X006517Y004954D01*
X006517Y003454D01*
X007142Y003454D01*
X007142Y003892D02*
X007142Y004642D01*
X008517Y004642D01*
X008642Y004517D01*
X008642Y003892D01*
X007142Y003892D01*
X006579Y004454D02*
X006704Y004579D01*
X006704Y005954D01*
X005954Y005954D01*
X005954Y004454D01*
X006579Y004454D01*
X007142Y004892D02*
X007142Y005642D01*
X008517Y005642D01*
X008642Y005517D01*
X008642Y004892D01*
X007142Y004892D01*
X007142Y005892D02*
X007142Y006642D01*
X008517Y006642D01*
X008642Y006517D01*
X008642Y005892D01*
X007142Y005892D01*
X007142Y006892D02*
X007142Y007642D01*
X008517Y007642D01*
X008642Y007517D01*
X008642Y006892D01*
X007142Y006892D01*
X007142Y007892D02*
X007142Y008642D01*
X008517Y008642D01*
X008642Y008517D01*
X008642Y007892D01*
X007142Y007892D01*
X007142Y008892D02*
X007142Y009642D01*
X008517Y009642D01*
X008642Y009517D01*
X008642Y008892D01*
X007142Y008892D01*
X007142Y009892D02*
X007142Y010642D01*
X008517Y010642D01*
X008642Y010517D01*
X008642Y009892D01*
X007142Y009892D01*
X006142Y006829D02*
X005392Y006829D01*
X005392Y005329D01*
X006017Y005329D01*
X006142Y005454D01*
X006142Y006829D01*
X005517Y005954D02*
X005517Y004579D01*
X005392Y004454D01*
X004767Y004454D01*
X004767Y005954D01*
X005517Y005954D01*
X004954Y004954D02*
X004954Y003579D01*
X004829Y003454D01*
X004204Y003454D01*
X004204Y004954D01*
X004954Y004954D01*
X004329Y004892D02*
X002829Y004892D01*
X002829Y005642D01*
X004204Y005642D01*
X004329Y005517D01*
X004329Y004892D01*
X004204Y004642D02*
X004329Y004517D01*
X004329Y003892D01*
X002829Y003892D01*
X002829Y004642D01*
X004204Y004642D01*
X004204Y003642D02*
X004329Y003517D01*
X004329Y002892D01*
X002829Y002892D01*
X002829Y003642D01*
X004204Y003642D01*
X004329Y005892D02*
X002829Y005892D01*
X002829Y006642D01*
X004204Y006642D01*
X004329Y006517D01*
X004329Y005892D01*
X004329Y006892D02*
X002829Y006892D01*
X002829Y007642D01*
X004204Y007642D01*
X004329Y007517D01*
X004329Y006892D01*
X004329Y007892D02*
X002829Y007892D01*
X002829Y008642D01*
X004204Y008642D01*
X004329Y008517D01*
X004329Y007892D01*
X004329Y008892D02*
X002829Y008892D01*
X002829Y009642D01*
X004204Y009642D01*
X004329Y009517D01*
X004329Y008892D01*
X004329Y009892D02*
X002829Y009892D01*
X002829Y010642D01*
X004204Y010642D01*
X004329Y010517D01*
X004329Y009892D01*
D13*
X004569Y009889D02*
X004569Y010029D01*
X004569Y009959D02*
X004989Y009959D01*
X004989Y009889D02*
X004989Y010029D01*
X004989Y010196D02*
X004569Y010196D01*
X004989Y010477D01*
X004569Y010477D01*
X004569Y009709D02*
X004849Y009709D01*
X004989Y009569D01*
X004849Y009429D01*
X004569Y009429D01*
X004989Y008852D02*
X004989Y008571D01*
X004989Y008711D02*
X004569Y008711D01*
X004709Y008571D01*
X004639Y008391D02*
X004569Y008321D01*
X004569Y008181D01*
X004639Y008111D01*
X004919Y008111D01*
X004989Y008181D01*
X004989Y008321D01*
X004919Y008391D01*
X004639Y008391D01*
X004569Y007931D02*
X004849Y007931D01*
X004989Y007791D01*
X004849Y007650D01*
X004569Y007650D01*
X004459Y006289D02*
X004389Y006289D01*
X004319Y006219D01*
X004319Y006079D01*
X004389Y006009D01*
X004389Y005829D02*
X004319Y005759D01*
X004319Y005618D01*
X004389Y005548D01*
X004669Y005548D01*
X004739Y005618D01*
X004739Y005759D01*
X004669Y005829D01*
X004389Y005829D01*
X004739Y006009D02*
X004459Y006289D01*
X004739Y006289D02*
X004739Y006009D01*
X004599Y005368D02*
X004319Y005368D01*
X004319Y005088D02*
X004599Y005088D01*
X004739Y005228D01*
X004599Y005368D01*
X005234Y003903D02*
X005333Y003903D01*
X005382Y003853D01*
X005382Y003754D01*
X005481Y003754D01*
X005531Y003704D01*
X005531Y003605D01*
X005432Y003506D01*
X005333Y003506D01*
X005205Y003379D02*
X005007Y003577D01*
X004908Y003577D01*
X004809Y003478D01*
X004809Y003379D01*
X005007Y003181D01*
X005106Y003181D01*
X005205Y003280D01*
X005205Y003379D01*
X005135Y003704D02*
X005135Y003803D01*
X005234Y003903D01*
X005382Y003754D02*
X005333Y003704D01*
X005824Y003784D02*
X006022Y003784D01*
X006220Y003982D01*
X006298Y003805D02*
X006100Y003607D01*
X006100Y003508D01*
X006199Y003409D01*
X006298Y003409D01*
X006496Y003607D01*
X006496Y003706D01*
X006397Y003805D01*
X006298Y003805D01*
X006022Y004180D02*
X005824Y003982D01*
X005824Y003784D01*
X006524Y003380D02*
X006723Y003182D01*
X006822Y003380D02*
X006524Y003380D01*
X006524Y003083D02*
X006822Y003380D01*
X006731Y005019D02*
X007012Y005019D01*
X007152Y005159D01*
X007012Y005299D01*
X006731Y005299D01*
X006801Y005480D02*
X007082Y005480D01*
X007152Y005550D01*
X007152Y005690D01*
X007082Y005760D01*
X006801Y005760D01*
X006731Y005690D01*
X006731Y005550D01*
X006801Y005480D01*
X006731Y005940D02*
X006941Y005940D01*
X006871Y006080D01*
X006871Y006150D01*
X006941Y006220D01*
X007082Y006220D01*
X007152Y006150D01*
X007152Y006010D01*
X007082Y005940D01*
X006731Y005940D02*
X006731Y006220D01*
X006824Y006769D02*
X006544Y006769D01*
X006824Y006769D02*
X006964Y006909D01*
X006824Y007049D01*
X006544Y007049D01*
X006614Y007230D02*
X006544Y007300D01*
X006544Y007440D01*
X006614Y007510D01*
X006894Y007510D01*
X006964Y007440D01*
X006964Y007300D01*
X006894Y007230D01*
X006614Y007230D01*
X006754Y007690D02*
X006754Y007900D01*
X006824Y007970D01*
X006894Y007970D01*
X006964Y007900D01*
X006964Y007760D01*
X006894Y007690D01*
X006754Y007690D01*
X006614Y007830D01*
X006544Y007970D01*
X006419Y009269D02*
X006699Y009269D01*
X006839Y009409D01*
X006699Y009549D01*
X006419Y009549D01*
X006489Y009730D02*
X006769Y009730D01*
X006839Y009800D01*
X006839Y009940D01*
X006769Y010010D01*
X006489Y010010D01*
X006419Y009940D01*
X006419Y009800D01*
X006489Y009730D01*
X006419Y010190D02*
X006419Y010470D01*
X006489Y010470D01*
X006769Y010190D01*
X006839Y010190D01*
X004632Y003301D02*
X004830Y003103D01*
X004830Y002905D01*
X004632Y002905D01*
X004434Y003103D01*
M02*
