G75*
%MOIN*%
%OFA0B0*%
%FSLAX24Y24*%
%IPPOS*%
%LPD*%
%AMOC8*
5,1,8,0,0,1.08239X$1,22.5*
%
%ADD10C,0.0000*%
%ADD11R,0.0472X0.0472*%
%ADD12C,0.0397*%
%ADD13C,0.0060*%
D10*
X002767Y002642D02*
X002767Y010867D01*
X008668Y010867D01*
X008668Y002642D01*
X002767Y002642D01*
D11*
X003642Y003353D03*
X004454Y003978D03*
X003642Y004180D03*
X003642Y004728D03*
X004454Y004805D03*
X005267Y004853D03*
X006079Y004853D03*
X006892Y004805D03*
X007829Y004728D03*
X007829Y004180D03*
X006892Y003978D03*
X007829Y003353D03*
X007829Y005555D03*
X007829Y005603D03*
X006079Y005680D03*
X005267Y005680D03*
X003642Y005603D03*
X003642Y005555D03*
X003642Y006430D03*
X003642Y006478D03*
X003642Y007305D03*
X003642Y007853D03*
X003642Y008680D03*
X003642Y008728D03*
X003642Y009555D03*
X003642Y009603D03*
X003642Y010430D03*
X007829Y010430D03*
X007829Y009603D03*
X007829Y009555D03*
X007829Y008728D03*
X007829Y008680D03*
X007829Y007853D03*
X007829Y007305D03*
X007829Y006478D03*
X007829Y006430D03*
D12*
X007454Y007829D03*
X003267Y007829D03*
X004017Y010454D03*
X003267Y004704D03*
X005267Y004517D03*
X007454Y004704D03*
X007454Y003329D03*
D13*
X007805Y003329D01*
X007829Y003353D01*
X007627Y003978D02*
X006892Y003978D01*
X007627Y003978D02*
X007829Y004180D01*
X007805Y004704D02*
X007454Y004704D01*
X007805Y004704D02*
X007829Y004728D01*
X006892Y004805D02*
X006843Y004853D01*
X006079Y004853D01*
X005267Y004853D02*
X005267Y004517D01*
X004892Y004392D02*
X004892Y005305D01*
X005267Y005680D01*
X005618Y006142D02*
X006079Y005680D01*
X006118Y005642D01*
X006267Y005642D01*
X006642Y005267D01*
X007017Y005267D01*
X007267Y005517D01*
X007267Y006892D01*
X007680Y007305D01*
X007829Y007305D01*
X008055Y007305D01*
X008267Y007517D01*
X008267Y010267D01*
X008103Y010430D01*
X007829Y010430D01*
X004017Y010454D02*
X004017Y007392D01*
X003930Y007305D01*
X003642Y007305D01*
X003853Y007305D01*
X004017Y007142D01*
X004017Y005392D01*
X004767Y006142D01*
X005618Y006142D01*
X003642Y006430D02*
X003642Y006478D01*
X003642Y005603D02*
X003642Y005555D01*
X004017Y005392D02*
X004017Y004392D01*
X003805Y004180D01*
X003642Y004180D01*
X004017Y004142D02*
X004142Y004267D01*
X004142Y004329D01*
X004454Y004642D01*
X004454Y004805D01*
X003642Y004728D02*
X003291Y004728D01*
X003267Y004704D01*
X004017Y004142D02*
X004017Y003767D01*
X003642Y003392D01*
X003642Y003353D01*
X004454Y003978D02*
X004478Y003978D01*
X004892Y004392D01*
X003642Y007853D02*
X003291Y007853D01*
X003267Y007829D01*
X003642Y008680D02*
X003642Y008728D01*
X003642Y009555D02*
X003642Y009603D01*
X003642Y010430D02*
X003993Y010430D01*
X004017Y010454D01*
X007454Y007829D02*
X007805Y007829D01*
X007829Y007853D01*
M02*
