G75*
%MOIN*%
%OFA0B0*%
%FSLAX24Y24*%
%IPPOS*%
%LPD*%
%AMOC8*
5,1,8,0,0,1.08239X$1,22.5*
%
%ADD10C,0.0000*%
%ADD11C,0.0397*%
%ADD12C,0.0060*%
%ADD13C,0.0317*%
D10*
X002392Y002517D02*
X002392Y011017D01*
X008892Y011017D01*
X008892Y002517D01*
X002392Y002517D01*
D11*
X002767Y004204D03*
X002767Y004954D03*
X004829Y003642D03*
X005204Y003642D03*
X005079Y006454D03*
X005079Y007079D03*
X004079Y008642D03*
X004079Y008954D03*
X005392Y010704D03*
X006017Y010704D03*
X008329Y009267D03*
X008329Y008642D03*
X008204Y006267D03*
X008204Y005892D03*
X008142Y004079D03*
X008142Y003767D03*
D12*
X007392Y003767D02*
X007392Y004555D01*
X007478Y004642D01*
X007829Y004642D01*
X007829Y005704D01*
X006767Y006767D01*
X004517Y006767D01*
X003892Y007392D01*
X003767Y007392D01*
X003767Y009517D01*
X003892Y009642D01*
X003954Y009642D01*
X004517Y010204D01*
X006704Y010204D01*
X002767Y004954D02*
X004392Y003329D01*
X005704Y003329D01*
X006954Y003329D01*
X007392Y003767D01*
D13*
X007829Y004642D03*
X006767Y006767D03*
X003892Y009642D03*
X003767Y007392D03*
X006704Y010204D03*
X005704Y003329D03*
M02*
