G75*
%MOIN*%
%OFA0B0*%
%FSLAX24Y24*%
%IPPOS*%
%LPD*%
%AMOC8*
5,1,8,0,0,1.08239X$1,22.5*
%
%ADD10C,0.0000*%
%ADD11C,0.0100*%
%ADD12C,0.0040*%
%ADD13C,0.0080*%
D10*
X002392Y002642D02*
X002392Y011142D01*
X008892Y011142D01*
X008892Y002642D01*
X002392Y002642D01*
D11*
X004829Y002767D02*
X006454Y002767D01*
X006454Y009392D01*
X008579Y009392D01*
X008579Y010954D01*
X002704Y010954D01*
X002704Y009392D01*
X004829Y009392D01*
X004829Y002767D01*
D12*
X005017Y002829D02*
X004892Y002954D01*
X004892Y003579D01*
X006392Y003579D01*
X006392Y002829D01*
X005017Y002829D01*
X004954Y003704D02*
X004829Y003829D01*
X004829Y004454D01*
X006329Y004454D01*
X006329Y003704D01*
X004954Y003704D01*
X005017Y004579D02*
X004892Y004704D01*
X004892Y005329D01*
X006392Y005329D01*
X006392Y004579D01*
X005017Y004579D01*
X005017Y005454D02*
X004892Y005579D01*
X004892Y006204D01*
X006392Y006204D01*
X006392Y005454D01*
X005017Y005454D01*
X005017Y006329D02*
X004892Y006454D01*
X004892Y007079D01*
X006392Y007079D01*
X006392Y006329D01*
X005017Y006329D01*
X005017Y007204D02*
X004892Y007329D01*
X004892Y007954D01*
X006392Y007954D01*
X006392Y007204D01*
X005017Y007204D01*
X005017Y008079D02*
X004892Y008204D01*
X004892Y008829D01*
X006392Y008829D01*
X006392Y008079D01*
X005017Y008079D01*
X005017Y008954D02*
X004892Y009079D01*
X004892Y009704D01*
X006392Y009704D01*
X006392Y008954D01*
X005017Y008954D01*
X004829Y009454D02*
X004954Y009579D01*
X004954Y010954D01*
X004204Y010954D01*
X004204Y009579D01*
X004079Y009454D01*
X003454Y009454D01*
X003454Y010954D01*
X003454Y009579D01*
X003329Y009454D01*
X002704Y009454D01*
X002704Y010954D01*
X003454Y010954D01*
X004204Y010954D01*
X004204Y009454D01*
X004829Y009454D01*
X005017Y009829D02*
X004892Y009954D01*
X004892Y010579D01*
X006392Y010579D01*
X006392Y009829D01*
X005017Y009829D01*
X006267Y009454D02*
X006267Y010954D01*
X007017Y010954D01*
X007767Y010954D01*
X008517Y010954D01*
X008517Y009579D01*
X008392Y009454D01*
X007767Y009454D01*
X007767Y010954D01*
X007767Y009579D01*
X007642Y009454D01*
X007017Y009454D01*
X007017Y010954D01*
X007017Y009579D01*
X006892Y009454D01*
X006267Y009454D01*
D13*
X006619Y009227D02*
X006619Y008947D01*
X006759Y008807D01*
X006899Y008947D01*
X006899Y009227D01*
X007080Y009157D02*
X007080Y008877D01*
X007150Y008807D01*
X007290Y008807D01*
X007360Y008877D01*
X007360Y009157D01*
X007290Y009227D01*
X007150Y009227D01*
X007080Y009157D01*
X007540Y009227D02*
X007540Y009017D01*
X007680Y009087D01*
X007750Y009087D01*
X007820Y009017D01*
X007820Y008877D01*
X007750Y008807D01*
X007610Y008807D01*
X007540Y008877D01*
X007540Y009227D02*
X007820Y009227D01*
X006133Y010564D02*
X006063Y010494D01*
X005923Y010494D01*
X005852Y010564D01*
X005993Y010704D02*
X006063Y010704D01*
X006133Y010774D01*
X006133Y010844D01*
X006063Y010915D01*
X005923Y010915D01*
X005852Y010844D01*
X006063Y010704D02*
X006133Y010634D01*
X006133Y010564D01*
X005672Y010564D02*
X005602Y010494D01*
X005462Y010494D01*
X005392Y010564D01*
X005392Y010844D01*
X005462Y010915D01*
X005602Y010915D01*
X005672Y010844D01*
X005672Y010564D01*
X005212Y010634D02*
X005212Y010915D01*
X004932Y010915D02*
X004932Y010634D01*
X005072Y010494D01*
X005212Y010634D01*
X004563Y009227D02*
X004352Y009017D01*
X004633Y009017D01*
X004563Y008807D02*
X004563Y009227D01*
X004172Y009157D02*
X004172Y008877D01*
X004102Y008807D01*
X003962Y008807D01*
X003892Y008877D01*
X003892Y009157D01*
X003962Y009227D01*
X004102Y009227D01*
X004172Y009157D01*
X003712Y009227D02*
X003712Y008947D01*
X003572Y008807D01*
X003432Y008947D01*
X003432Y009227D01*
X004314Y008258D02*
X004244Y008188D01*
X004244Y008048D01*
X004314Y007977D01*
X004314Y007797D02*
X004244Y007727D01*
X004244Y007587D01*
X004314Y007517D01*
X004594Y007517D01*
X004664Y007587D01*
X004664Y007727D01*
X004594Y007797D01*
X004314Y007797D01*
X004664Y007977D02*
X004384Y008258D01*
X004314Y008258D01*
X004664Y008258D02*
X004664Y007977D01*
X004524Y007337D02*
X004244Y007337D01*
X004244Y007057D02*
X004524Y007057D01*
X004664Y007197D01*
X004524Y007337D01*
X004664Y005633D02*
X004664Y005352D01*
X004664Y005493D02*
X004244Y005493D01*
X004384Y005352D01*
X004314Y005172D02*
X004244Y005102D01*
X004244Y004962D01*
X004314Y004892D01*
X004594Y004892D01*
X004664Y004962D01*
X004664Y005102D01*
X004594Y005172D01*
X004314Y005172D01*
X004244Y004712D02*
X004524Y004712D01*
X004664Y004572D01*
X004524Y004432D01*
X004244Y004432D01*
X006569Y003852D02*
X006989Y003852D01*
X006569Y003571D01*
X006989Y003571D01*
X006989Y003404D02*
X006989Y003264D01*
X006989Y003334D02*
X006569Y003334D01*
X006569Y003264D02*
X006569Y003404D01*
X006569Y003084D02*
X006849Y003084D01*
X006989Y002944D01*
X006849Y002804D01*
X006569Y002804D01*
M02*
