G75*
%MOIN*%
%OFA0B0*%
%FSLAX24Y24*%
%IPPOS*%
%LPD*%
%AMOC8*
5,1,8,0,0,1.08239X$1,22.5*
%
%ADD10C,0.0000*%
%ADD11C,0.0100*%
%ADD12C,0.0040*%
%ADD13C,0.0080*%
D10*
X002392Y002517D02*
X002392Y011017D01*
X008892Y011017D01*
X008892Y002517D01*
X002392Y002517D01*
D11*
X002642Y004517D02*
X002642Y010767D01*
X004142Y010767D01*
X004142Y005517D01*
X002641Y004517D02*
X002634Y004437D01*
X002631Y004357D01*
X002632Y004277D01*
X002637Y004198D01*
X002645Y004118D01*
X002658Y004039D01*
X002674Y003961D01*
X002694Y003884D01*
X002718Y003807D01*
X002746Y003732D01*
X002777Y003659D01*
X002812Y003587D01*
X002850Y003517D01*
X002892Y003448D01*
X002936Y003382D01*
X002985Y003319D01*
X003036Y003257D01*
X003090Y003198D01*
X003147Y003142D01*
X003206Y003089D01*
X003268Y003039D01*
X003333Y002991D01*
X003400Y002947D01*
X003468Y002907D01*
X003539Y002870D01*
X003611Y002836D01*
X003685Y002806D01*
X003761Y002779D01*
X003837Y002756D01*
X003915Y002737D01*
X003993Y002722D01*
X004072Y002710D01*
X004152Y002703D01*
X004232Y002699D01*
X004312Y002700D01*
X004392Y002704D01*
X006892Y002704D01*
X006891Y002704D02*
X006971Y002700D01*
X007051Y002699D01*
X007131Y002703D01*
X007211Y002710D01*
X007290Y002722D01*
X007368Y002737D01*
X007446Y002756D01*
X007522Y002779D01*
X007598Y002806D01*
X007672Y002836D01*
X007744Y002870D01*
X007815Y002907D01*
X007883Y002947D01*
X007950Y002991D01*
X008015Y003039D01*
X008077Y003089D01*
X008136Y003142D01*
X008193Y003198D01*
X008247Y003257D01*
X008298Y003319D01*
X008347Y003382D01*
X008391Y003448D01*
X008433Y003517D01*
X008471Y003587D01*
X008506Y003659D01*
X008537Y003732D01*
X008565Y003807D01*
X008589Y003884D01*
X008609Y003961D01*
X008625Y004039D01*
X008638Y004118D01*
X008646Y004198D01*
X008651Y004277D01*
X008652Y004357D01*
X008649Y004437D01*
X008642Y004517D01*
X008642Y010767D01*
X007142Y010767D01*
X007142Y005454D01*
X007130Y005379D01*
X007114Y005305D01*
X007095Y005231D01*
X007072Y005159D01*
X007045Y005087D01*
X007015Y005018D01*
X006982Y004949D01*
X006945Y004883D01*
X006904Y004819D01*
X006861Y004756D01*
X006814Y004696D01*
X006764Y004639D01*
X006712Y004584D01*
X006657Y004531D01*
X006599Y004482D01*
X006539Y004435D01*
X006477Y004392D01*
X006412Y004351D01*
X006346Y004315D01*
X006278Y004281D01*
X006208Y004251D01*
X006137Y004224D01*
X006064Y004201D01*
X005991Y004182D01*
X005916Y004167D01*
X005841Y004155D01*
X005765Y004147D01*
X005690Y004143D01*
X005614Y004142D01*
X005538Y004146D01*
X005462Y004153D01*
X005387Y004164D01*
X005312Y004179D01*
X005238Y004198D01*
X005166Y004220D01*
X005094Y004246D01*
X005024Y004275D01*
X004956Y004308D01*
X004889Y004345D01*
X004824Y004385D01*
X004761Y004427D01*
X004701Y004473D01*
X004643Y004522D01*
X004587Y004574D01*
X004534Y004629D01*
X004484Y004686D01*
X004437Y004746D01*
X004393Y004808D01*
X004352Y004872D01*
X004315Y004938D01*
X004280Y005006D01*
X004249Y005075D01*
X004222Y005146D01*
X004199Y005218D01*
X004179Y005292D01*
X004162Y005366D01*
X004150Y005441D01*
X004141Y005517D01*
D12*
X004142Y005767D02*
X004017Y005892D01*
X002642Y005892D01*
X002642Y005142D01*
X004142Y005142D01*
X004142Y005767D01*
X004142Y005954D02*
X002642Y005954D01*
X002642Y006704D01*
X004017Y006704D01*
X004142Y006579D01*
X004142Y005954D01*
X003979Y005108D02*
X003808Y005154D01*
X002617Y004466D01*
X002992Y003817D01*
X004291Y004567D01*
X003979Y005108D01*
X004175Y004541D02*
X004004Y004495D01*
X003317Y003305D01*
X003966Y002930D01*
X004716Y004229D01*
X004175Y004541D01*
X004579Y004142D02*
X004454Y004017D01*
X004454Y002642D01*
X005204Y002642D01*
X005204Y004142D01*
X004579Y004142D01*
X005267Y004017D02*
X005392Y004142D01*
X006017Y004142D01*
X006017Y002642D01*
X005267Y002642D01*
X005267Y004017D01*
X006079Y004017D02*
X006204Y004142D01*
X006829Y004142D01*
X006829Y002642D01*
X006079Y002642D01*
X006079Y004017D01*
X006629Y004120D02*
X006675Y004291D01*
X007216Y004604D01*
X007966Y003305D01*
X007317Y002930D01*
X006629Y004120D01*
X007117Y004504D02*
X007071Y004675D01*
X007384Y005216D01*
X008683Y004466D01*
X008308Y003817D01*
X007117Y004504D01*
X007267Y005142D02*
X007142Y005267D01*
X007142Y005892D01*
X008642Y005892D01*
X008642Y005142D01*
X007267Y005142D01*
X007267Y005954D02*
X007142Y006079D01*
X007142Y006704D01*
X008642Y006704D01*
X008642Y005954D01*
X007267Y005954D01*
X007267Y006767D02*
X007142Y006892D01*
X007142Y007517D01*
X008642Y007517D01*
X008642Y006767D01*
X007267Y006767D01*
X007267Y007579D02*
X007142Y007704D01*
X007142Y008329D01*
X008642Y008329D01*
X008642Y007579D01*
X007267Y007579D01*
X007267Y008392D02*
X007142Y008517D01*
X007142Y009142D01*
X008642Y009142D01*
X008642Y008392D01*
X007267Y008392D01*
X007267Y009204D02*
X007142Y009329D01*
X007142Y009954D01*
X008642Y009954D01*
X008642Y009204D01*
X007267Y009204D01*
X007267Y010017D02*
X007142Y010142D01*
X007142Y010767D01*
X008642Y010767D01*
X008642Y010017D01*
X007267Y010017D01*
X004142Y010017D02*
X002642Y010017D01*
X002642Y010767D01*
X004017Y010767D01*
X004142Y010642D01*
X004142Y010017D01*
X004017Y009954D02*
X004142Y009829D01*
X004142Y009204D01*
X002642Y009204D01*
X002642Y009954D01*
X004017Y009954D01*
X004017Y009142D02*
X004142Y009017D01*
X004142Y008392D01*
X002642Y008392D01*
X002642Y009142D01*
X004017Y009142D01*
X004017Y008329D02*
X004142Y008204D01*
X004142Y007579D01*
X002642Y007579D01*
X002642Y008329D01*
X004017Y008329D01*
X004017Y007517D02*
X004142Y007392D01*
X004142Y006767D01*
X002642Y006767D01*
X002642Y007517D01*
X004017Y007517D01*
D13*
X004256Y007431D02*
X004537Y007431D01*
X004677Y007291D01*
X004537Y007150D01*
X004256Y007150D01*
X004326Y007611D02*
X004256Y007681D01*
X004256Y007821D01*
X004326Y007891D01*
X004607Y007891D01*
X004677Y007821D01*
X004677Y007681D01*
X004607Y007611D01*
X004326Y007611D01*
X004326Y008071D02*
X004256Y008141D01*
X004256Y008281D01*
X004326Y008352D01*
X004396Y008352D01*
X004677Y008071D01*
X004677Y008352D01*
X004516Y009519D02*
X004235Y009519D01*
X004235Y009799D02*
X004516Y009799D01*
X004656Y009659D01*
X004516Y009519D01*
X004586Y009980D02*
X004305Y009980D01*
X004235Y010050D01*
X004235Y010190D01*
X004305Y010260D01*
X004586Y010260D01*
X004656Y010190D01*
X004656Y010050D01*
X004586Y009980D01*
X004586Y010440D02*
X004656Y010510D01*
X004656Y010650D01*
X004586Y010720D01*
X004516Y010720D01*
X004446Y010650D01*
X004446Y010580D01*
X004446Y010650D02*
X004376Y010720D01*
X004305Y010720D01*
X004235Y010650D01*
X004235Y010510D01*
X004305Y010440D01*
X006681Y009313D02*
X006891Y009102D01*
X006891Y009383D01*
X006681Y009313D02*
X007102Y009313D01*
X007032Y008922D02*
X006751Y008922D01*
X006681Y008852D01*
X006681Y008712D01*
X006751Y008642D01*
X007032Y008642D01*
X007102Y008712D01*
X007102Y008852D01*
X007032Y008922D01*
X006962Y008462D02*
X006681Y008462D01*
X006681Y008182D02*
X006962Y008182D01*
X007102Y008322D01*
X006962Y008462D01*
X007019Y006970D02*
X006879Y006970D01*
X006809Y006900D01*
X006809Y006830D01*
X006879Y006690D01*
X006669Y006690D01*
X006669Y006970D01*
X007019Y006970D02*
X007089Y006900D01*
X007089Y006760D01*
X007019Y006690D01*
X007019Y006510D02*
X006739Y006510D01*
X006669Y006440D01*
X006669Y006300D01*
X006739Y006230D01*
X007019Y006230D01*
X007089Y006300D01*
X007089Y006440D01*
X007019Y006510D01*
X006949Y006049D02*
X006669Y006049D01*
X006669Y005769D02*
X006949Y005769D01*
X007089Y005909D01*
X006949Y006049D01*
X006899Y005426D02*
X006850Y005277D01*
X006850Y005079D01*
X006999Y005227D01*
X007098Y005227D01*
X007147Y005178D01*
X007147Y005079D01*
X007048Y004980D01*
X006949Y004980D01*
X006850Y005079D01*
X006822Y004852D02*
X006623Y005050D01*
X006524Y005050D01*
X006425Y004951D01*
X006425Y004852D01*
X006623Y004654D01*
X006723Y004654D01*
X006822Y004753D01*
X006822Y004852D01*
X006447Y004576D02*
X006447Y004378D01*
X006248Y004378D01*
X006050Y004576D01*
X005908Y004544D02*
X005908Y004615D01*
X005627Y004615D01*
X005447Y004544D02*
X005377Y004615D01*
X005237Y004615D01*
X005167Y004544D01*
X005167Y004264D01*
X005237Y004194D01*
X005377Y004194D01*
X005447Y004264D01*
X005447Y004544D01*
X005627Y004264D02*
X005627Y004194D01*
X005627Y004264D02*
X005908Y004544D01*
X006248Y004774D02*
X006447Y004576D01*
X004987Y004615D02*
X004987Y004334D01*
X004847Y004194D01*
X004707Y004334D01*
X004707Y004615D01*
X004524Y005050D02*
X004664Y005191D01*
X004524Y005331D01*
X004244Y005331D01*
X004314Y005511D02*
X004594Y005511D01*
X004664Y005581D01*
X004664Y005721D01*
X004594Y005791D01*
X004314Y005791D01*
X004244Y005721D01*
X004244Y005581D01*
X004314Y005511D01*
X004244Y005050D02*
X004524Y005050D01*
X004384Y005971D02*
X004244Y006111D01*
X004664Y006111D01*
X004664Y005971D02*
X004664Y006252D01*
X002899Y003667D02*
X002701Y003469D01*
X002701Y003271D01*
X002899Y003271D01*
X003097Y003469D01*
X003224Y003341D02*
X003323Y003242D01*
X003274Y003292D02*
X002977Y002995D01*
X002927Y003044D02*
X003026Y002945D01*
X003144Y002827D02*
X003441Y003124D01*
X003342Y002629D01*
X003640Y002926D01*
M02*
