G75*
%MOIN*%
%OFA0B0*%
%FSLAX24Y24*%
%IPPOS*%
%LPD*%
%AMOC8*
5,1,8,0,0,1.08239X$1,22.5*
%
%ADD10C,0.0000*%
%ADD11R,0.0512X0.0512*%
%ADD12R,0.0512X0.0512*%
%ADD13C,0.0437*%
D10*
X002392Y002517D02*
X002392Y011017D01*
X008892Y011017D01*
X008892Y002517D01*
X002392Y002517D01*
D11*
X004954Y002978D03*
X005642Y002978D03*
X006329Y002978D03*
X006329Y003805D03*
X005642Y003805D03*
X004954Y003805D03*
X003805Y005267D03*
X003805Y006017D03*
X003805Y006767D03*
X003805Y007517D03*
X003805Y008267D03*
X002978Y008267D03*
X002978Y007517D03*
X002978Y006767D03*
X002978Y006017D03*
X002978Y005267D03*
X004954Y009728D03*
X005642Y009728D03*
X006329Y009728D03*
X006329Y010555D03*
X005642Y010555D03*
X004954Y010555D03*
X007478Y008267D03*
X007478Y007517D03*
X007478Y006767D03*
X007478Y006017D03*
X007478Y005267D03*
X008305Y005267D03*
X008305Y006017D03*
X008305Y006767D03*
X008305Y007517D03*
X008305Y008267D03*
D12*
G36*
X007316Y008586D02*
X007060Y009028D01*
X007502Y009284D01*
X007758Y008842D01*
X007316Y008586D01*
G37*
G36*
X007090Y009122D02*
X006648Y009378D01*
X006904Y009820D01*
X007346Y009564D01*
X007090Y009122D01*
G37*
G36*
X008032Y008999D02*
X007776Y009441D01*
X008218Y009697D01*
X008474Y009255D01*
X008032Y008999D01*
G37*
G36*
X007504Y009838D02*
X007062Y010094D01*
X007318Y010536D01*
X007760Y010280D01*
X007504Y009838D01*
G37*
G36*
X004635Y009378D02*
X004193Y009122D01*
X003937Y009564D01*
X004379Y009820D01*
X004635Y009378D01*
G37*
G36*
X004224Y009028D02*
X003968Y008586D01*
X003526Y008842D01*
X003782Y009284D01*
X004224Y009028D01*
G37*
G36*
X003508Y009441D02*
X003252Y008999D01*
X002810Y009255D01*
X003066Y009697D01*
X003508Y009441D01*
G37*
G36*
X004221Y010094D02*
X003779Y009838D01*
X003523Y010280D01*
X003965Y010536D01*
X004221Y010094D01*
G37*
G36*
X003968Y004885D02*
X004224Y004443D01*
X003782Y004187D01*
X003526Y004629D01*
X003968Y004885D01*
G37*
G36*
X003252Y004471D02*
X003508Y004029D01*
X003066Y003773D01*
X002810Y004215D01*
X003252Y004471D01*
G37*
G36*
X004193Y004349D02*
X004635Y004093D01*
X004379Y003651D01*
X003937Y003907D01*
X004193Y004349D01*
G37*
G36*
X003779Y003633D02*
X004221Y003377D01*
X003965Y002935D01*
X003523Y003191D01*
X003779Y003633D01*
G37*
G36*
X006648Y004093D02*
X007090Y004349D01*
X007346Y003907D01*
X006904Y003651D01*
X006648Y004093D01*
G37*
G36*
X007060Y004443D02*
X007316Y004885D01*
X007758Y004629D01*
X007502Y004187D01*
X007060Y004443D01*
G37*
G36*
X007776Y004029D02*
X008032Y004471D01*
X008474Y004215D01*
X008218Y003773D01*
X007776Y004029D01*
G37*
G36*
X007062Y003377D02*
X007504Y003633D01*
X007760Y003191D01*
X007318Y002935D01*
X007062Y003377D01*
G37*
D13*
X007142Y003079D03*
X007704Y003392D03*
X008579Y005829D03*
X008579Y006204D03*
X008579Y008017D03*
X008579Y008579D03*
X007017Y010579D03*
X006642Y010579D03*
X004142Y010392D03*
X003579Y010017D03*
X002704Y007767D03*
X002704Y007267D03*
X002704Y005454D03*
X002704Y004954D03*
X004454Y004329D03*
X004767Y004329D03*
X004642Y002892D03*
X004267Y002892D03*
M02*
