%
M48
M72
T01C0.0197
%
T01
X2704Y7767
X2704Y7267
X3454Y8267
X4142Y10392
X3579Y10017
X4954Y10079
X6642Y10579
X7017Y10579
X7204Y9767
X8579Y8579
X8579Y8017
X7829Y7517
X3454Y6017
X2704Y5454
X2704Y4954
X4267Y2892
X4642Y2892
X4767Y4329
X4454Y4329
X7829Y5267
X8579Y5829
X8579Y6204
X7142Y3079
X7704Y3392
X6329Y3454
M30
