G75*
G70*
%OFA0B0*%
%FSLAX25Y25*%
%IPPOS*%
%LPD*%
%AMOC8*
5,1,8,0,0,1.08239X$1,22.5*
%
%ADD13C,0.06000*%
%ADD18OC8,0.06000*%
%ADD21OC8,0.07100*%
%ADD27C,0.04760*%
%ADD32C,0.07100*%
%ADD33C,0.08300*%
%ADD34C,0.13400*%
%ADD37OC8,0.06800*%
%ADD38C,0.00000*%
%ADD40C,0.06800*%
X0020000Y0020000D02*
G75*
%LPD*%
D38*
X0020000Y0020000D02*
X0020000Y0230000D01*
X0290000Y0230000D01*
X0290000Y0020000D01*
X0020000Y0020000D01*
X0073700Y0220000D02*
X0073720Y0220500D01*
X0073780Y0221000D01*
X0073880Y0221490D01*
X0074020Y0221970D01*
X0074190Y0222440D01*
X0074400Y0222890D01*
X0074650Y0223330D01*
X0074930Y0223740D01*
X0075250Y0224130D01*
X0075590Y0224500D01*
X0075960Y0224840D01*
X0076360Y0225140D01*
X0076780Y0225410D01*
X0077220Y0225650D01*
X0077680Y0225860D01*
X0078150Y0226020D01*
X0078630Y0226150D01*
X0079130Y0226240D01*
X0079620Y0226290D01*
X0080130Y0226300D01*
X0080630Y0226270D01*
X0081120Y0226200D01*
X0081610Y0226090D01*
X0082090Y0225940D01*
X0082550Y0225760D01*
X0083000Y0225540D01*
X0083430Y0225280D01*
X0083840Y0224990D01*
X0084230Y0224670D01*
X0084590Y0224320D01*
X0084910Y0223940D01*
X0085210Y0223540D01*
X0085480Y0223110D01*
X0085710Y0222670D01*
X0085900Y0222210D01*
X0086060Y0221730D01*
X0086180Y0221240D01*
X0086260Y0220750D01*
X0086300Y0220250D01*
X0086300Y0219750D01*
X0086260Y0219250D01*
X0086180Y0218760D01*
X0086060Y0218270D01*
X0085900Y0217790D01*
X0085710Y0217330D01*
X0085480Y0216890D01*
X0085210Y0216460D01*
X0084910Y0216060D01*
X0084590Y0215680D01*
X0084230Y0215330D01*
X0083840Y0215010D01*
X0083430Y0214720D01*
X0083000Y0214460D01*
X0082550Y0214240D01*
X0082090Y0214060D01*
X0081610Y0213910D01*
X0081120Y0213800D01*
X0080630Y0213730D01*
X0080130Y0213700D01*
X0079620Y0213710D01*
X0079130Y0213760D01*
X0078630Y0213850D01*
X0078150Y0213980D01*
X0077680Y0214140D01*
X0077220Y0214350D01*
X0076780Y0214590D01*
X0076360Y0214860D01*
X0075960Y0215160D01*
X0075590Y0215500D01*
X0075250Y0215870D01*
X0074930Y0216260D01*
X0074650Y0216670D01*
X0074400Y0217110D01*
X0074190Y0217560D01*
X0074020Y0218030D01*
X0073880Y0218510D01*
X0073780Y0219000D01*
X0073720Y0219500D01*
X0073700Y0220000D01*
X0273700Y0160000D02*
X0273720Y0160500D01*
X0273780Y0161000D01*
X0273880Y0161490D01*
X0274020Y0161970D01*
X0274190Y0162440D01*
X0274400Y0162890D01*
X0274650Y0163330D01*
X0274930Y0163740D01*
X0275250Y0164130D01*
X0275590Y0164500D01*
X0275960Y0164840D01*
X0276360Y0165140D01*
X0276780Y0165410D01*
X0277220Y0165650D01*
X0277680Y0165860D01*
X0278150Y0166020D01*
X0278630Y0166150D01*
X0279130Y0166240D01*
X0279620Y0166290D01*
X0280130Y0166300D01*
X0280630Y0166270D01*
X0281120Y0166200D01*
X0281610Y0166090D01*
X0282090Y0165940D01*
X0282550Y0165760D01*
X0283000Y0165540D01*
X0283430Y0165280D01*
X0283840Y0164990D01*
X0284230Y0164670D01*
X0284590Y0164320D01*
X0284910Y0163940D01*
X0285210Y0163540D01*
X0285480Y0163110D01*
X0285710Y0162670D01*
X0285900Y0162210D01*
X0286060Y0161730D01*
X0286180Y0161240D01*
X0286260Y0160750D01*
X0286300Y0160250D01*
X0286300Y0159750D01*
X0286260Y0159250D01*
X0286180Y0158760D01*
X0286060Y0158270D01*
X0285900Y0157790D01*
X0285710Y0157330D01*
X0285480Y0156890D01*
X0285210Y0156460D01*
X0284910Y0156060D01*
X0284590Y0155680D01*
X0284230Y0155330D01*
X0283840Y0155010D01*
X0283430Y0154720D01*
X0283000Y0154460D01*
X0282550Y0154240D01*
X0282090Y0154060D01*
X0281610Y0153910D01*
X0281120Y0153800D01*
X0280630Y0153730D01*
X0280130Y0153700D01*
X0279620Y0153710D01*
X0279130Y0153760D01*
X0278630Y0153850D01*
X0278150Y0153980D01*
X0277680Y0154140D01*
X0277220Y0154350D01*
X0276780Y0154590D01*
X0276360Y0154860D01*
X0275960Y0155160D01*
X0275590Y0155500D01*
X0275250Y0155870D01*
X0274930Y0156260D01*
X0274650Y0156670D01*
X0274400Y0157110D01*
X0274190Y0157560D01*
X0274020Y0158030D01*
X0273880Y0158510D01*
X0273780Y0159000D01*
X0273720Y0159500D01*
X0273700Y0160000D01*
X0273700Y0050000D02*
X0273720Y0050500D01*
X0273780Y0051000D01*
X0273880Y0051490D01*
X0274020Y0051970D01*
X0274190Y0052440D01*
X0274400Y0052890D01*
X0274650Y0053330D01*
X0274930Y0053740D01*
X0275250Y0054130D01*
X0275590Y0054500D01*
X0275960Y0054840D01*
X0276360Y0055140D01*
X0276780Y0055410D01*
X0277220Y0055650D01*
X0277680Y0055860D01*
X0278150Y0056020D01*
X0278630Y0056150D01*
X0279130Y0056240D01*
X0279620Y0056290D01*
X0280130Y0056300D01*
X0280630Y0056270D01*
X0281120Y0056200D01*
X0281610Y0056090D01*
X0282090Y0055940D01*
X0282550Y0055760D01*
X0283000Y0055540D01*
X0283430Y0055280D01*
X0283840Y0054990D01*
X0284230Y0054670D01*
X0284590Y0054320D01*
X0284910Y0053940D01*
X0285210Y0053540D01*
X0285480Y0053110D01*
X0285710Y0052670D01*
X0285900Y0052210D01*
X0286060Y0051730D01*
X0286180Y0051240D01*
X0286260Y0050750D01*
X0286300Y0050250D01*
X0286300Y0049750D01*
X0286260Y0049250D01*
X0286180Y0048760D01*
X0286060Y0048270D01*
X0285900Y0047790D01*
X0285710Y0047330D01*
X0285480Y0046890D01*
X0285210Y0046460D01*
X0284910Y0046060D01*
X0284590Y0045680D01*
X0284230Y0045330D01*
X0283840Y0045010D01*
X0283430Y0044720D01*
X0283000Y0044460D01*
X0282550Y0044240D01*
X0282090Y0044060D01*
X0281610Y0043910D01*
X0281120Y0043800D01*
X0280630Y0043730D01*
X0280130Y0043700D01*
X0279620Y0043710D01*
X0279130Y0043760D01*
X0278630Y0043850D01*
X0278150Y0043980D01*
X0277680Y0044140D01*
X0277220Y0044350D01*
X0276780Y0044590D01*
X0276360Y0044860D01*
X0275960Y0045160D01*
X0275590Y0045500D01*
X0275250Y0045870D01*
X0274930Y0046260D01*
X0274650Y0046670D01*
X0274400Y0047110D01*
X0274190Y0047560D01*
X0274020Y0048030D01*
X0273880Y0048510D01*
X0273780Y0049000D01*
X0273720Y0049500D01*
X0273700Y0050000D01*
D34*
X0280000Y0050000D03*
X0280000Y0160000D03*
X0080000Y0220000D03*
D13*
X0114900Y0180000D02*
X0120100Y0180000D01*
X0120100Y0170000D02*
X0114900Y0170000D01*
X0114900Y0160000D02*
X0120100Y0160000D01*
X0120100Y0150000D02*
X0114900Y0150000D01*
X0114900Y0140000D02*
X0120100Y0140000D01*
X0120100Y0130000D02*
X0114900Y0130000D01*
X0114900Y0120000D02*
X0120100Y0120000D01*
X0120100Y0110000D02*
X0114900Y0110000D01*
X0114900Y0100000D02*
X0120100Y0100000D01*
X0120100Y0090000D02*
X0114900Y0090000D01*
X0144900Y0090000D02*
X0150100Y0090000D01*
X0150100Y0100000D02*
X0144900Y0100000D01*
X0144900Y0110000D02*
X0150100Y0110000D01*
X0150100Y0120000D02*
X0144900Y0120000D01*
X0144900Y0130000D02*
X0150100Y0130000D01*
X0150100Y0140000D02*
X0144900Y0140000D01*
X0144900Y0150000D02*
X0150100Y0150000D01*
X0150100Y0160000D02*
X0144900Y0160000D01*
X0144900Y0170000D02*
X0150100Y0170000D01*
X0150100Y0180000D02*
X0144900Y0180000D01*
X0182400Y0180000D02*
X0187600Y0180000D01*
X0187600Y0170000D02*
X0182400Y0170000D01*
X0182400Y0160000D02*
X0187600Y0160000D01*
X0187600Y0150000D02*
X0182400Y0150000D01*
X0182400Y0140000D02*
X0187600Y0140000D01*
X0187600Y0130000D02*
X0182400Y0130000D01*
X0182400Y0120000D02*
X0187600Y0120000D01*
X0187600Y0110000D02*
X0182400Y0110000D01*
X0182400Y0100000D02*
X0187600Y0100000D01*
X0187600Y0090000D02*
X0182400Y0090000D01*
X0212400Y0090000D02*
X0217600Y0090000D01*
X0217600Y0100000D02*
X0212400Y0100000D01*
X0212400Y0110000D02*
X0217600Y0110000D01*
X0217600Y0120000D02*
X0212400Y0120000D01*
X0212400Y0130000D02*
X0217600Y0130000D01*
X0217600Y0140000D02*
X0212400Y0140000D01*
X0212400Y0150000D02*
X0217600Y0150000D01*
X0217600Y0160000D02*
X0212400Y0160000D01*
X0212400Y0170000D02*
X0217600Y0170000D01*
X0217600Y0180000D02*
X0212400Y0180000D01*
D33*
X0268750Y0178110D02*
X0276250Y0178110D01*
X0276250Y0191890D02*
X0268750Y0191890D01*
X0268750Y0141890D02*
X0276250Y0141890D01*
X0276250Y0128110D02*
X0268750Y0128110D01*
X0268750Y0114390D02*
X0276250Y0114390D01*
X0276250Y0100610D02*
X0268750Y0100610D01*
X0268750Y0086890D02*
X0276250Y0086890D01*
X0276250Y0073110D02*
X0268750Y0073110D01*
X0036250Y0075610D02*
X0028750Y0075610D01*
X0028750Y0089390D02*
X0036250Y0089390D01*
X0036250Y0103110D02*
X0028750Y0103110D01*
X0028750Y0116890D02*
X0036250Y0116890D01*
X0036250Y0130610D02*
X0028750Y0130610D01*
X0028750Y0144390D02*
X0036250Y0144390D01*
X0036250Y0158110D02*
X0028750Y0158110D01*
X0028750Y0171890D02*
X0036250Y0171890D01*
D18*
X0175000Y0072500D03*
X0190000Y0052500D03*
X0200000Y0052500D03*
X0175000Y0042500D03*
D21*
X0152500Y0052500D03*
D32*
X0162500Y0052500D03*
D40*
X0160000Y0033000D02*
X0160000Y0027000D01*
X0170000Y0027000D02*
X0170000Y0033000D01*
X0180000Y0033000D02*
X0180000Y0027000D01*
X0190000Y0027000D02*
X0190000Y0033000D01*
X0200000Y0033000D02*
X0200000Y0027000D01*
X0220000Y0027000D02*
X0220000Y0033000D01*
X0230000Y0033000D02*
X0230000Y0027000D01*
X0240000Y0027000D02*
X0240000Y0033000D01*
X0250000Y0033000D02*
X0250000Y0027000D01*
X0260000Y0027000D02*
X0260000Y0033000D01*
X0270000Y0033000D02*
X0270000Y0027000D01*
X0238000Y0085000D02*
X0232000Y0085000D01*
X0232000Y0095000D02*
X0238000Y0095000D01*
X0238000Y0105000D02*
X0232000Y0105000D01*
X0232000Y0115000D02*
X0238000Y0115000D01*
X0238000Y0125000D02*
X0232000Y0125000D01*
X0232000Y0135000D02*
X0238000Y0135000D01*
X0238000Y0145000D02*
X0232000Y0145000D01*
X0232000Y0155000D02*
X0238000Y0155000D01*
X0240000Y0217000D02*
X0240000Y0223000D01*
X0250000Y0223000D02*
X0250000Y0217000D01*
X0260000Y0217000D02*
X0260000Y0223000D01*
X0270000Y0223000D02*
X0270000Y0217000D01*
X0230000Y0217000D02*
X0230000Y0223000D01*
X0220000Y0223000D02*
X0220000Y0217000D01*
X0210000Y0217000D02*
X0210000Y0223000D01*
X0200000Y0223000D02*
X0200000Y0217000D01*
X0184000Y0217000D02*
X0184000Y0223000D01*
X0174000Y0223000D02*
X0174000Y0217000D01*
X0164000Y0217000D02*
X0164000Y0223000D01*
X0154000Y0223000D02*
X0154000Y0217000D01*
X0144000Y0217000D02*
X0144000Y0223000D01*
X0134000Y0223000D02*
X0134000Y0217000D01*
X0124000Y0217000D02*
X0124000Y0223000D01*
X0114000Y0223000D02*
X0114000Y0217000D01*
X0078000Y0155000D02*
X0072000Y0155000D01*
X0072000Y0145000D02*
X0078000Y0145000D01*
X0078000Y0135000D02*
X0072000Y0135000D01*
X0072000Y0125000D02*
X0078000Y0125000D01*
X0078000Y0115000D02*
X0072000Y0115000D01*
X0072000Y0105000D02*
X0078000Y0105000D01*
X0078000Y0095000D02*
X0072000Y0095000D01*
X0072000Y0085000D02*
X0078000Y0085000D01*
X0075000Y0033000D02*
X0075000Y0027000D01*
X0085000Y0027000D02*
X0085000Y0033000D01*
X0095000Y0033000D02*
X0095000Y0027000D01*
X0105000Y0027000D02*
X0105000Y0033000D01*
X0115000Y0033000D02*
X0115000Y0027000D01*
X0125000Y0027000D02*
X0125000Y0033000D01*
X0150000Y0033000D02*
X0150000Y0027000D01*
X0065000Y0027000D02*
X0065000Y0033000D01*
X0055000Y0033000D02*
X0055000Y0027000D01*
D37*
X0055000Y0045000D03*
X0065000Y0045000D03*
X0065000Y0055000D03*
X0055000Y0055000D03*
X0075000Y0055000D03*
X0085000Y0055000D03*
X0095000Y0055000D03*
X0105000Y0055000D03*
X0115000Y0055000D03*
X0125000Y0055000D03*
X0125000Y0045000D03*
X0115000Y0045000D03*
X0105000Y0045000D03*
X0095000Y0045000D03*
X0085000Y0045000D03*
X0075000Y0045000D03*
D27*
X0085000Y0085000D03*
X0085000Y0095000D03*
X0085000Y0105000D03*
X0095000Y0125000D03*
X0100000Y0135000D03*
X0105000Y0165000D03*
X0215000Y0072500D03*
X0020000Y0242500D02*
G75*
%LPD*%
D38*
X0020000Y0242500D02*
X0020000Y0452500D01*
X0290000Y0452500D01*
X0290000Y0242500D01*
X0020000Y0242500D01*
X0273700Y0272500D02*
X0273720Y0273000D01*
X0273780Y0273500D01*
X0273880Y0273990D01*
X0274020Y0274470D01*
X0274190Y0274940D01*
X0274400Y0275390D01*
X0274650Y0275830D01*
X0274930Y0276240D01*
X0275250Y0276630D01*
X0275590Y0277000D01*
X0275960Y0277340D01*
X0276360Y0277640D01*
X0276780Y0277910D01*
X0277220Y0278150D01*
X0277680Y0278360D01*
X0278150Y0278520D01*
X0278630Y0278650D01*
X0279130Y0278740D01*
X0279620Y0278790D01*
X0280130Y0278800D01*
X0280630Y0278770D01*
X0281120Y0278700D01*
X0281610Y0278590D01*
X0282090Y0278440D01*
X0282550Y0278260D01*
X0283000Y0278040D01*
X0283430Y0277780D01*
X0283840Y0277490D01*
X0284230Y0277170D01*
X0284590Y0276820D01*
X0284910Y0276440D01*
X0285210Y0276040D01*
X0285480Y0275610D01*
X0285710Y0275170D01*
X0285900Y0274710D01*
X0286060Y0274230D01*
X0286180Y0273740D01*
X0286260Y0273250D01*
X0286300Y0272750D01*
X0286300Y0272250D01*
X0286260Y0271750D01*
X0286180Y0271260D01*
X0286060Y0270770D01*
X0285900Y0270290D01*
X0285710Y0269830D01*
X0285480Y0269390D01*
X0285210Y0268960D01*
X0284910Y0268560D01*
X0284590Y0268180D01*
X0284230Y0267830D01*
X0283840Y0267510D01*
X0283430Y0267220D01*
X0283000Y0266960D01*
X0282550Y0266740D01*
X0282090Y0266560D01*
X0281610Y0266410D01*
X0281120Y0266300D01*
X0280630Y0266230D01*
X0280130Y0266200D01*
X0279620Y0266210D01*
X0279130Y0266260D01*
X0278630Y0266350D01*
X0278150Y0266480D01*
X0277680Y0266640D01*
X0277220Y0266850D01*
X0276780Y0267090D01*
X0276360Y0267360D01*
X0275960Y0267660D01*
X0275590Y0268000D01*
X0275250Y0268370D01*
X0274930Y0268760D01*
X0274650Y0269170D01*
X0274400Y0269610D01*
X0274190Y0270060D01*
X0274020Y0270530D01*
X0273880Y0271010D01*
X0273780Y0271500D01*
X0273720Y0272000D01*
X0273700Y0272500D01*
X0273700Y0382500D02*
X0273720Y0383000D01*
X0273780Y0383500D01*
X0273880Y0383990D01*
X0274020Y0384470D01*
X0274190Y0384940D01*
X0274400Y0385390D01*
X0274650Y0385830D01*
X0274930Y0386240D01*
X0275250Y0386630D01*
X0275590Y0387000D01*
X0275960Y0387340D01*
X0276360Y0387640D01*
X0276780Y0387910D01*
X0277220Y0388150D01*
X0277680Y0388360D01*
X0278150Y0388520D01*
X0278630Y0388650D01*
X0279130Y0388740D01*
X0279620Y0388790D01*
X0280130Y0388800D01*
X0280630Y0388770D01*
X0281120Y0388700D01*
X0281610Y0388590D01*
X0282090Y0388440D01*
X0282550Y0388260D01*
X0283000Y0388040D01*
X0283430Y0387780D01*
X0283840Y0387490D01*
X0284230Y0387170D01*
X0284590Y0386820D01*
X0284910Y0386440D01*
X0285210Y0386040D01*
X0285480Y0385610D01*
X0285710Y0385170D01*
X0285900Y0384710D01*
X0286060Y0384230D01*
X0286180Y0383740D01*
X0286260Y0383250D01*
X0286300Y0382750D01*
X0286300Y0382250D01*
X0286260Y0381750D01*
X0286180Y0381260D01*
X0286060Y0380770D01*
X0285900Y0380290D01*
X0285710Y0379830D01*
X0285480Y0379390D01*
X0285210Y0378960D01*
X0284910Y0378560D01*
X0284590Y0378180D01*
X0284230Y0377830D01*
X0283840Y0377510D01*
X0283430Y0377220D01*
X0283000Y0376960D01*
X0282550Y0376740D01*
X0282090Y0376560D01*
X0281610Y0376410D01*
X0281120Y0376300D01*
X0280630Y0376230D01*
X0280130Y0376200D01*
X0279620Y0376210D01*
X0279130Y0376260D01*
X0278630Y0376350D01*
X0278150Y0376480D01*
X0277680Y0376640D01*
X0277220Y0376850D01*
X0276780Y0377090D01*
X0276360Y0377360D01*
X0275960Y0377660D01*
X0275590Y0378000D01*
X0275250Y0378370D01*
X0274930Y0378760D01*
X0274650Y0379170D01*
X0274400Y0379610D01*
X0274190Y0380060D01*
X0274020Y0380530D01*
X0273880Y0381010D01*
X0273780Y0381500D01*
X0273720Y0382000D01*
X0273700Y0382500D01*
X0073700Y0442500D02*
X0073720Y0443000D01*
X0073780Y0443500D01*
X0073880Y0443990D01*
X0074020Y0444470D01*
X0074190Y0444940D01*
X0074400Y0445390D01*
X0074650Y0445830D01*
X0074930Y0446240D01*
X0075250Y0446630D01*
X0075590Y0447000D01*
X0075960Y0447340D01*
X0076360Y0447640D01*
X0076780Y0447910D01*
X0077220Y0448150D01*
X0077680Y0448360D01*
X0078150Y0448520D01*
X0078630Y0448650D01*
X0079130Y0448740D01*
X0079620Y0448790D01*
X0080130Y0448800D01*
X0080630Y0448770D01*
X0081120Y0448700D01*
X0081610Y0448590D01*
X0082090Y0448440D01*
X0082550Y0448260D01*
X0083000Y0448040D01*
X0083430Y0447780D01*
X0083840Y0447490D01*
X0084230Y0447170D01*
X0084590Y0446820D01*
X0084910Y0446440D01*
X0085210Y0446040D01*
X0085480Y0445610D01*
X0085710Y0445170D01*
X0085900Y0444710D01*
X0086060Y0444230D01*
X0086180Y0443740D01*
X0086260Y0443250D01*
X0086300Y0442750D01*
X0086300Y0442250D01*
X0086260Y0441750D01*
X0086180Y0441260D01*
X0086060Y0440770D01*
X0085900Y0440290D01*
X0085710Y0439830D01*
X0085480Y0439390D01*
X0085210Y0438960D01*
X0084910Y0438560D01*
X0084590Y0438180D01*
X0084230Y0437830D01*
X0083840Y0437510D01*
X0083430Y0437220D01*
X0083000Y0436960D01*
X0082550Y0436740D01*
X0082090Y0436560D01*
X0081610Y0436410D01*
X0081120Y0436300D01*
X0080630Y0436230D01*
X0080130Y0436200D01*
X0079620Y0436210D01*
X0079130Y0436260D01*
X0078630Y0436350D01*
X0078150Y0436480D01*
X0077680Y0436640D01*
X0077220Y0436850D01*
X0076780Y0437090D01*
X0076360Y0437360D01*
X0075960Y0437660D01*
X0075590Y0438000D01*
X0075250Y0438370D01*
X0074930Y0438760D01*
X0074650Y0439170D01*
X0074400Y0439610D01*
X0074190Y0440060D01*
X0074020Y0440530D01*
X0073880Y0441010D01*
X0073780Y0441500D01*
X0073720Y0442000D01*
X0073700Y0442500D01*
D34*
X0080000Y0442500D03*
X0280000Y0382500D03*
X0280000Y0272500D03*
D33*
X0276250Y0295610D02*
X0268750Y0295610D01*
X0268750Y0309390D02*
X0276250Y0309390D01*
X0276250Y0323110D02*
X0268750Y0323110D01*
X0268750Y0336890D02*
X0276250Y0336890D01*
X0276250Y0350610D02*
X0268750Y0350610D01*
X0268750Y0364390D02*
X0276250Y0364390D01*
X0276250Y0400610D02*
X0268750Y0400610D01*
X0268750Y0414390D02*
X0276250Y0414390D01*
X0036250Y0394390D02*
X0028750Y0394390D01*
X0028750Y0380610D02*
X0036250Y0380610D01*
X0036250Y0366890D02*
X0028750Y0366890D01*
X0028750Y0353110D02*
X0036250Y0353110D01*
X0036250Y0339390D02*
X0028750Y0339390D01*
X0028750Y0325610D02*
X0036250Y0325610D01*
X0036250Y0311890D02*
X0028750Y0311890D01*
X0028750Y0298110D02*
X0036250Y0298110D01*
D13*
X0114900Y0305000D02*
X0120100Y0305000D01*
X0120100Y0315000D02*
X0114900Y0315000D01*
X0114900Y0325000D02*
X0120100Y0325000D01*
X0120100Y0335000D02*
X0114900Y0335000D01*
X0114900Y0345000D02*
X0120100Y0345000D01*
X0120100Y0355000D02*
X0114900Y0355000D01*
X0114900Y0365000D02*
X0120100Y0365000D01*
X0120100Y0375000D02*
X0114900Y0375000D01*
X0114900Y0385000D02*
X0120100Y0385000D01*
X0144900Y0385000D02*
X0150100Y0385000D01*
X0150100Y0375000D02*
X0144900Y0375000D01*
X0144900Y0365000D02*
X0150100Y0365000D01*
X0150100Y0355000D02*
X0144900Y0355000D01*
X0144900Y0345000D02*
X0150100Y0345000D01*
X0150100Y0335000D02*
X0144900Y0335000D01*
X0144900Y0325000D02*
X0150100Y0325000D01*
X0150100Y0315000D02*
X0144900Y0315000D01*
X0144900Y0305000D02*
X0150100Y0305000D01*
X0172400Y0305000D02*
X0177600Y0305000D01*
X0177600Y0315000D02*
X0172400Y0315000D01*
X0172400Y0325000D02*
X0177600Y0325000D01*
X0177600Y0335000D02*
X0172400Y0335000D01*
X0172400Y0345000D02*
X0177600Y0345000D01*
X0177600Y0355000D02*
X0172400Y0355000D01*
X0172400Y0365000D02*
X0177600Y0365000D01*
X0177600Y0375000D02*
X0172400Y0375000D01*
X0172400Y0385000D02*
X0177600Y0385000D01*
X0202400Y0385000D02*
X0207600Y0385000D01*
X0207600Y0375000D02*
X0202400Y0375000D01*
X0202400Y0365000D02*
X0207600Y0365000D01*
X0207600Y0355000D02*
X0202400Y0355000D01*
X0202400Y0345000D02*
X0207600Y0345000D01*
X0207600Y0335000D02*
X0202400Y0335000D01*
X0202400Y0325000D02*
X0207600Y0325000D01*
X0207600Y0315000D02*
X0202400Y0315000D01*
X0202400Y0305000D02*
X0207600Y0305000D01*
D18*
X0175000Y0292500D03*
X0192500Y0277500D03*
X0202500Y0277500D03*
X0175000Y0262500D03*
X0247500Y0295000D03*
X0257500Y0295000D03*
X0257500Y0310000D03*
X0247500Y0310000D03*
X0247500Y0322500D03*
X0257500Y0322500D03*
X0257500Y0337500D03*
X0247500Y0337500D03*
X0247500Y0350000D03*
X0257500Y0350000D03*
X0257500Y0365000D03*
X0247500Y0365000D03*
X0247500Y0400000D03*
X0257500Y0400000D03*
X0257500Y0415000D03*
X0247500Y0415000D03*
X0062500Y0395000D03*
X0052500Y0395000D03*
X0052500Y0380000D03*
X0062500Y0380000D03*
X0062500Y0367500D03*
X0052500Y0367500D03*
X0052500Y0352500D03*
X0062500Y0352500D03*
X0062500Y0340000D03*
X0052500Y0340000D03*
X0052500Y0325000D03*
X0062500Y0325000D03*
X0062500Y0312500D03*
X0052500Y0312500D03*
X0052500Y0297500D03*
X0062500Y0297500D03*
D21*
X0157500Y0282500D03*
D32*
X0157500Y0272500D03*
D40*
X0160000Y0255500D02*
X0160000Y0249500D01*
X0150000Y0249500D02*
X0150000Y0255500D01*
X0170000Y0255500D02*
X0170000Y0249500D01*
X0180000Y0249500D02*
X0180000Y0255500D01*
X0190000Y0255500D02*
X0190000Y0249500D01*
X0200000Y0249500D02*
X0200000Y0255500D01*
X0220000Y0255500D02*
X0220000Y0249500D01*
X0230000Y0249500D02*
X0230000Y0255500D01*
X0240000Y0255500D02*
X0240000Y0249500D01*
X0250000Y0249500D02*
X0250000Y0255500D01*
X0260000Y0255500D02*
X0260000Y0249500D01*
X0270000Y0249500D02*
X0270000Y0255500D01*
X0238000Y0307500D02*
X0232000Y0307500D01*
X0232000Y0317500D02*
X0238000Y0317500D01*
X0238000Y0327500D02*
X0232000Y0327500D01*
X0232000Y0337500D02*
X0238000Y0337500D01*
X0238000Y0347500D02*
X0232000Y0347500D01*
X0232000Y0357500D02*
X0238000Y0357500D01*
X0238000Y0367500D02*
X0232000Y0367500D01*
X0232000Y0377500D02*
X0238000Y0377500D01*
X0240000Y0439500D02*
X0240000Y0445500D01*
X0250000Y0445500D02*
X0250000Y0439500D01*
X0260000Y0439500D02*
X0260000Y0445500D01*
X0270000Y0445500D02*
X0270000Y0439500D01*
X0230000Y0439500D02*
X0230000Y0445500D01*
X0220000Y0445500D02*
X0220000Y0439500D01*
X0210000Y0439500D02*
X0210000Y0445500D01*
X0200000Y0445500D02*
X0200000Y0439500D01*
X0184000Y0439500D02*
X0184000Y0445500D01*
X0174000Y0445500D02*
X0174000Y0439500D01*
X0164000Y0439500D02*
X0164000Y0445500D01*
X0154000Y0445500D02*
X0154000Y0439500D01*
X0144000Y0439500D02*
X0144000Y0445500D01*
X0134000Y0445500D02*
X0134000Y0439500D01*
X0124000Y0439500D02*
X0124000Y0445500D01*
X0114000Y0445500D02*
X0114000Y0439500D01*
X0078000Y0377500D02*
X0072000Y0377500D01*
X0072000Y0367500D02*
X0078000Y0367500D01*
X0078000Y0357500D02*
X0072000Y0357500D01*
X0072000Y0347500D02*
X0078000Y0347500D01*
X0078000Y0337500D02*
X0072000Y0337500D01*
X0072000Y0327500D02*
X0078000Y0327500D01*
X0078000Y0317500D02*
X0072000Y0317500D01*
X0072000Y0307500D02*
X0078000Y0307500D01*
X0102000Y0282500D02*
X0108000Y0282500D01*
X0108000Y0272500D02*
X0102000Y0272500D01*
X0122000Y0272500D02*
X0128000Y0272500D01*
X0128000Y0282500D02*
X0122000Y0282500D01*
X0120000Y0255500D02*
X0120000Y0249500D01*
X0130000Y0249500D02*
X0130000Y0255500D01*
X0110000Y0255500D02*
X0110000Y0249500D01*
X0100000Y0249500D02*
X0100000Y0255500D01*
X0090000Y0255500D02*
X0090000Y0249500D01*
X0080000Y0249500D02*
X0080000Y0255500D01*
X0070000Y0255500D02*
X0070000Y0249500D01*
X0060000Y0249500D02*
X0060000Y0255500D01*
X0302500Y0020000D02*
G75*
%LPD*%
D38*
X0302500Y0020000D02*
X0302500Y0230000D01*
X0572500Y0230000D01*
X0572500Y0020000D01*
X0302500Y0020000D01*
X0356200Y0220000D02*
X0356220Y0220500D01*
X0356280Y0221000D01*
X0356380Y0221490D01*
X0356520Y0221970D01*
X0356690Y0222440D01*
X0356900Y0222890D01*
X0357150Y0223330D01*
X0357430Y0223740D01*
X0357750Y0224130D01*
X0358090Y0224500D01*
X0358460Y0224840D01*
X0358860Y0225140D01*
X0359280Y0225410D01*
X0359720Y0225650D01*
X0360180Y0225860D01*
X0360650Y0226020D01*
X0361130Y0226150D01*
X0361630Y0226240D01*
X0362120Y0226290D01*
X0362630Y0226300D01*
X0363130Y0226270D01*
X0363620Y0226200D01*
X0364110Y0226090D01*
X0364590Y0225940D01*
X0365050Y0225760D01*
X0365500Y0225540D01*
X0365930Y0225280D01*
X0366340Y0224990D01*
X0366730Y0224670D01*
X0367090Y0224320D01*
X0367410Y0223940D01*
X0367710Y0223540D01*
X0367980Y0223110D01*
X0368210Y0222670D01*
X0368400Y0222210D01*
X0368560Y0221730D01*
X0368680Y0221240D01*
X0368760Y0220750D01*
X0368800Y0220250D01*
X0368800Y0219750D01*
X0368760Y0219250D01*
X0368680Y0218760D01*
X0368560Y0218270D01*
X0368400Y0217790D01*
X0368210Y0217330D01*
X0367980Y0216890D01*
X0367710Y0216460D01*
X0367410Y0216060D01*
X0367090Y0215680D01*
X0366730Y0215330D01*
X0366340Y0215010D01*
X0365930Y0214720D01*
X0365500Y0214460D01*
X0365050Y0214240D01*
X0364590Y0214060D01*
X0364110Y0213910D01*
X0363620Y0213800D01*
X0363130Y0213730D01*
X0362630Y0213700D01*
X0362120Y0213710D01*
X0361630Y0213760D01*
X0361130Y0213850D01*
X0360650Y0213980D01*
X0360180Y0214140D01*
X0359720Y0214350D01*
X0359280Y0214590D01*
X0358860Y0214860D01*
X0358460Y0215160D01*
X0358090Y0215500D01*
X0357750Y0215870D01*
X0357430Y0216260D01*
X0357150Y0216670D01*
X0356900Y0217110D01*
X0356690Y0217560D01*
X0356520Y0218030D01*
X0356380Y0218510D01*
X0356280Y0219000D01*
X0356220Y0219500D01*
X0356200Y0220000D01*
X0556200Y0160000D02*
X0556220Y0160500D01*
X0556280Y0161000D01*
X0556380Y0161490D01*
X0556520Y0161970D01*
X0556690Y0162440D01*
X0556900Y0162890D01*
X0557150Y0163330D01*
X0557430Y0163740D01*
X0557750Y0164130D01*
X0558090Y0164500D01*
X0558460Y0164840D01*
X0558860Y0165140D01*
X0559280Y0165410D01*
X0559720Y0165650D01*
X0560180Y0165860D01*
X0560650Y0166020D01*
X0561130Y0166150D01*
X0561630Y0166240D01*
X0562120Y0166290D01*
X0562630Y0166300D01*
X0563130Y0166270D01*
X0563620Y0166200D01*
X0564110Y0166090D01*
X0564590Y0165940D01*
X0565050Y0165760D01*
X0565500Y0165540D01*
X0565930Y0165280D01*
X0566340Y0164990D01*
X0566730Y0164670D01*
X0567090Y0164320D01*
X0567410Y0163940D01*
X0567710Y0163540D01*
X0567980Y0163110D01*
X0568210Y0162670D01*
X0568400Y0162210D01*
X0568560Y0161730D01*
X0568680Y0161240D01*
X0568760Y0160750D01*
X0568800Y0160250D01*
X0568800Y0159750D01*
X0568760Y0159250D01*
X0568680Y0158760D01*
X0568560Y0158270D01*
X0568400Y0157790D01*
X0568210Y0157330D01*
X0567980Y0156890D01*
X0567710Y0156460D01*
X0567410Y0156060D01*
X0567090Y0155680D01*
X0566730Y0155330D01*
X0566340Y0155010D01*
X0565930Y0154720D01*
X0565500Y0154460D01*
X0565050Y0154240D01*
X0564590Y0154060D01*
X0564110Y0153910D01*
X0563620Y0153800D01*
X0563130Y0153730D01*
X0562630Y0153700D01*
X0562120Y0153710D01*
X0561630Y0153760D01*
X0561130Y0153850D01*
X0560650Y0153980D01*
X0560180Y0154140D01*
X0559720Y0154350D01*
X0559280Y0154590D01*
X0558860Y0154860D01*
X0558460Y0155160D01*
X0558090Y0155500D01*
X0557750Y0155870D01*
X0557430Y0156260D01*
X0557150Y0156670D01*
X0556900Y0157110D01*
X0556690Y0157560D01*
X0556520Y0158030D01*
X0556380Y0158510D01*
X0556280Y0159000D01*
X0556220Y0159500D01*
X0556200Y0160000D01*
X0556200Y0050000D02*
X0556220Y0050500D01*
X0556280Y0051000D01*
X0556380Y0051490D01*
X0556520Y0051970D01*
X0556690Y0052440D01*
X0556900Y0052890D01*
X0557150Y0053330D01*
X0557430Y0053740D01*
X0557750Y0054130D01*
X0558090Y0054500D01*
X0558460Y0054840D01*
X0558860Y0055140D01*
X0559280Y0055410D01*
X0559720Y0055650D01*
X0560180Y0055860D01*
X0560650Y0056020D01*
X0561130Y0056150D01*
X0561630Y0056240D01*
X0562120Y0056290D01*
X0562630Y0056300D01*
X0563130Y0056270D01*
X0563620Y0056200D01*
X0564110Y0056090D01*
X0564590Y0055940D01*
X0565050Y0055760D01*
X0565500Y0055540D01*
X0565930Y0055280D01*
X0566340Y0054990D01*
X0566730Y0054670D01*
X0567090Y0054320D01*
X0567410Y0053940D01*
X0567710Y0053540D01*
X0567980Y0053110D01*
X0568210Y0052670D01*
X0568400Y0052210D01*
X0568560Y0051730D01*
X0568680Y0051240D01*
X0568760Y0050750D01*
X0568800Y0050250D01*
X0568800Y0049750D01*
X0568760Y0049250D01*
X0568680Y0048760D01*
X0568560Y0048270D01*
X0568400Y0047790D01*
X0568210Y0047330D01*
X0567980Y0046890D01*
X0567710Y0046460D01*
X0567410Y0046060D01*
X0567090Y0045680D01*
X0566730Y0045330D01*
X0566340Y0045010D01*
X0565930Y0044720D01*
X0565500Y0044460D01*
X0565050Y0044240D01*
X0564590Y0044060D01*
X0564110Y0043910D01*
X0563620Y0043800D01*
X0563130Y0043730D01*
X0562630Y0043700D01*
X0562120Y0043710D01*
X0561630Y0043760D01*
X0561130Y0043850D01*
X0560650Y0043980D01*
X0560180Y0044140D01*
X0559720Y0044350D01*
X0559280Y0044590D01*
X0558860Y0044860D01*
X0558460Y0045160D01*
X0558090Y0045500D01*
X0557750Y0045870D01*
X0557430Y0046260D01*
X0557150Y0046670D01*
X0556900Y0047110D01*
X0556690Y0047560D01*
X0556520Y0048030D01*
X0556380Y0048510D01*
X0556280Y0049000D01*
X0556220Y0049500D01*
X0556200Y0050000D01*
D34*
X0562500Y0050000D03*
X0562500Y0160000D03*
X0362500Y0220000D03*
D13*
X0379900Y0175000D02*
X0385100Y0175000D01*
X0385100Y0165000D02*
X0379900Y0165000D01*
X0379900Y0155000D02*
X0385100Y0155000D01*
X0385100Y0145000D02*
X0379900Y0145000D01*
X0379900Y0135000D02*
X0385100Y0135000D01*
X0385100Y0125000D02*
X0379900Y0125000D01*
X0379900Y0115000D02*
X0385100Y0115000D01*
X0385100Y0105000D02*
X0379900Y0105000D01*
X0379900Y0095000D02*
X0385100Y0095000D01*
X0385100Y0085000D02*
X0379900Y0085000D01*
X0409900Y0085000D02*
X0415100Y0085000D01*
X0415100Y0095000D02*
X0409900Y0095000D01*
X0409900Y0105000D02*
X0415100Y0105000D01*
X0415100Y0115000D02*
X0409900Y0115000D01*
X0409900Y0125000D02*
X0415100Y0125000D01*
X0415100Y0135000D02*
X0409900Y0135000D01*
X0409900Y0145000D02*
X0415100Y0145000D01*
X0415100Y0155000D02*
X0409900Y0155000D01*
X0409900Y0165000D02*
X0415100Y0165000D01*
X0415100Y0175000D02*
X0409900Y0175000D01*
X0452400Y0175000D02*
X0457600Y0175000D01*
X0457600Y0165000D02*
X0452400Y0165000D01*
X0452400Y0155000D02*
X0457600Y0155000D01*
X0457600Y0145000D02*
X0452400Y0145000D01*
X0452400Y0135000D02*
X0457600Y0135000D01*
X0457600Y0125000D02*
X0452400Y0125000D01*
X0452400Y0115000D02*
X0457600Y0115000D01*
X0457600Y0105000D02*
X0452400Y0105000D01*
X0452400Y0095000D02*
X0457600Y0095000D01*
X0457600Y0085000D02*
X0452400Y0085000D01*
X0482400Y0085000D02*
X0487600Y0085000D01*
X0487600Y0095000D02*
X0482400Y0095000D01*
X0482400Y0105000D02*
X0487600Y0105000D01*
X0487600Y0115000D02*
X0482400Y0115000D01*
X0482400Y0125000D02*
X0487600Y0125000D01*
X0487600Y0135000D02*
X0482400Y0135000D01*
X0482400Y0145000D02*
X0487600Y0145000D01*
X0487600Y0155000D02*
X0482400Y0155000D01*
X0482400Y0165000D02*
X0487600Y0165000D01*
X0487600Y0175000D02*
X0482400Y0175000D01*
X0531250Y0145100D02*
X0531250Y0139900D01*
X0541250Y0139900D02*
X0541250Y0145100D01*
X0551250Y0145100D02*
X0551250Y0139900D01*
X0561250Y0139900D02*
X0561250Y0145100D01*
X0561250Y0115100D02*
X0561250Y0109900D01*
X0561250Y0102600D02*
X0561250Y0097400D01*
X0551250Y0097400D02*
X0551250Y0102600D01*
X0551250Y0109900D02*
X0551250Y0115100D01*
X0541250Y0115100D02*
X0541250Y0109900D01*
X0541250Y0102600D02*
X0541250Y0097400D01*
X0531250Y0097400D02*
X0531250Y0102600D01*
X0531250Y0109900D02*
X0531250Y0115100D01*
X0531250Y0072600D02*
X0531250Y0067400D01*
X0541250Y0067400D02*
X0541250Y0072600D01*
X0551250Y0072600D02*
X0551250Y0067400D01*
X0561250Y0067400D02*
X0561250Y0072600D01*
D18*
X0522500Y0050000D03*
X0517500Y0070000D03*
X0517500Y0080000D03*
X0507500Y0080000D03*
X0507500Y0070000D03*
X0507500Y0090000D03*
X0517500Y0090000D03*
X0517500Y0100000D03*
X0507500Y0100000D03*
X0507500Y0112500D03*
X0507500Y0122500D03*
X0517500Y0122500D03*
X0517500Y0112500D03*
X0517500Y0132500D03*
X0507500Y0132500D03*
X0507500Y0142500D03*
X0517500Y0142500D03*
X0492500Y0050000D03*
X0480000Y0050000D03*
X0470000Y0050000D03*
X0348750Y0092500D03*
X0338750Y0092500D03*
X0338750Y0107500D03*
X0348750Y0107500D03*
X0348750Y0120000D03*
X0338750Y0120000D03*
X0338750Y0135000D03*
X0348750Y0135000D03*
X0348750Y0147500D03*
X0338750Y0147500D03*
X0338750Y0162500D03*
X0348750Y0162500D03*
X0348750Y0175000D03*
X0338750Y0175000D03*
X0338750Y0190000D03*
X0348750Y0190000D03*
D21*
X0455000Y0050000D03*
D32*
X0445000Y0050000D03*
D40*
X0442500Y0033000D02*
X0442500Y0027000D01*
X0432500Y0027000D02*
X0432500Y0033000D01*
X0452500Y0033000D02*
X0452500Y0027000D01*
X0462500Y0027000D02*
X0462500Y0033000D01*
X0472500Y0033000D02*
X0472500Y0027000D01*
X0482500Y0027000D02*
X0482500Y0033000D01*
X0502500Y0033000D02*
X0502500Y0027000D01*
X0512500Y0027000D02*
X0512500Y0033000D01*
X0522500Y0033000D02*
X0522500Y0027000D01*
X0532500Y0027000D02*
X0532500Y0033000D01*
X0542500Y0033000D02*
X0542500Y0027000D01*
X0552500Y0027000D02*
X0552500Y0033000D01*
X0412500Y0033000D02*
X0412500Y0027000D01*
X0402500Y0027000D02*
X0402500Y0033000D01*
X0392500Y0033000D02*
X0392500Y0027000D01*
X0382500Y0027000D02*
X0382500Y0033000D01*
X0372500Y0033000D02*
X0372500Y0027000D01*
X0362500Y0027000D02*
X0362500Y0033000D01*
X0352500Y0033000D02*
X0352500Y0027000D01*
X0342500Y0027000D02*
X0342500Y0033000D01*
X0396500Y0217000D02*
X0396500Y0223000D01*
X0406500Y0223000D02*
X0406500Y0217000D01*
X0416500Y0217000D02*
X0416500Y0223000D01*
X0426500Y0223000D02*
X0426500Y0217000D01*
X0436500Y0217000D02*
X0436500Y0223000D01*
X0446500Y0223000D02*
X0446500Y0217000D01*
X0456500Y0217000D02*
X0456500Y0223000D01*
X0466500Y0223000D02*
X0466500Y0217000D01*
X0482500Y0217000D02*
X0482500Y0223000D01*
X0492500Y0223000D02*
X0492500Y0217000D01*
X0502500Y0217000D02*
X0502500Y0223000D01*
X0512500Y0223000D02*
X0512500Y0217000D01*
X0522500Y0217000D02*
X0522500Y0223000D01*
X0532500Y0223000D02*
X0532500Y0217000D01*
X0542500Y0217000D02*
X0542500Y0223000D01*
X0552500Y0223000D02*
X0552500Y0217000D01*
D37*
X0412500Y0055000D03*
X0402500Y0055000D03*
X0402500Y0045000D03*
X0412500Y0045000D03*
X0392500Y0045000D03*
X0392500Y0055000D03*
X0382500Y0055000D03*
X0372500Y0055000D03*
X0372500Y0045000D03*
X0382500Y0045000D03*
X0362500Y0045000D03*
X0362500Y0055000D03*
X0352500Y0055000D03*
X0342500Y0055000D03*
X0342500Y0045000D03*
X0352500Y0045000D03*
D33*
X0318750Y0065610D02*
X0311250Y0065610D01*
X0311250Y0079390D02*
X0318750Y0079390D01*
X0318750Y0093110D02*
X0311250Y0093110D01*
X0311250Y0106890D02*
X0318750Y0106890D01*
X0318750Y0120610D02*
X0311250Y0120610D01*
X0311250Y0134390D02*
X0318750Y0134390D01*
X0318750Y0148110D02*
X0311250Y0148110D01*
X0311250Y0161890D02*
X0318750Y0161890D01*
X0318750Y0175610D02*
X0311250Y0175610D01*
X0311250Y0189390D02*
X0318750Y0189390D01*
D27*
X0355000Y0165000D03*
X0372500Y0170000D03*
X0397500Y0182500D03*
X0372500Y0150000D03*
X0372500Y0140000D03*
X0370000Y0130000D03*
X0360000Y0145000D03*
X0400000Y0147500D03*
X0402500Y0127500D03*
X0402500Y0107500D03*
X0402500Y0087500D03*
X0370000Y0105000D03*
X0360000Y0102500D03*
X0355000Y0087500D03*
X0302500Y0242500D02*
G75*
%LPD*%
D38*
X0302500Y0242500D02*
X0302500Y0452500D01*
X0572500Y0452500D01*
X0572500Y0242500D01*
X0302500Y0242500D01*
X0356200Y0442500D02*
X0356220Y0443000D01*
X0356280Y0443500D01*
X0356380Y0443990D01*
X0356520Y0444470D01*
X0356690Y0444940D01*
X0356900Y0445390D01*
X0357150Y0445830D01*
X0357430Y0446240D01*
X0357750Y0446630D01*
X0358090Y0447000D01*
X0358460Y0447340D01*
X0358860Y0447640D01*
X0359280Y0447910D01*
X0359720Y0448150D01*
X0360180Y0448360D01*
X0360650Y0448520D01*
X0361130Y0448650D01*
X0361630Y0448740D01*
X0362120Y0448790D01*
X0362630Y0448800D01*
X0363130Y0448770D01*
X0363620Y0448700D01*
X0364110Y0448590D01*
X0364590Y0448440D01*
X0365050Y0448260D01*
X0365500Y0448040D01*
X0365930Y0447780D01*
X0366340Y0447490D01*
X0366730Y0447170D01*
X0367090Y0446820D01*
X0367410Y0446440D01*
X0367710Y0446040D01*
X0367980Y0445610D01*
X0368210Y0445170D01*
X0368400Y0444710D01*
X0368560Y0444230D01*
X0368680Y0443740D01*
X0368760Y0443250D01*
X0368800Y0442750D01*
X0368800Y0442250D01*
X0368760Y0441750D01*
X0368680Y0441260D01*
X0368560Y0440770D01*
X0368400Y0440290D01*
X0368210Y0439830D01*
X0367980Y0439390D01*
X0367710Y0438960D01*
X0367410Y0438560D01*
X0367090Y0438180D01*
X0366730Y0437830D01*
X0366340Y0437510D01*
X0365930Y0437220D01*
X0365500Y0436960D01*
X0365050Y0436740D01*
X0364590Y0436560D01*
X0364110Y0436410D01*
X0363620Y0436300D01*
X0363130Y0436230D01*
X0362630Y0436200D01*
X0362120Y0436210D01*
X0361630Y0436260D01*
X0361130Y0436350D01*
X0360650Y0436480D01*
X0360180Y0436640D01*
X0359720Y0436850D01*
X0359280Y0437090D01*
X0358860Y0437360D01*
X0358460Y0437660D01*
X0358090Y0438000D01*
X0357750Y0438370D01*
X0357430Y0438760D01*
X0357150Y0439170D01*
X0356900Y0439610D01*
X0356690Y0440060D01*
X0356520Y0440530D01*
X0356380Y0441010D01*
X0356280Y0441500D01*
X0356220Y0442000D01*
X0356200Y0442500D01*
X0556200Y0382500D02*
X0556220Y0383000D01*
X0556280Y0383500D01*
X0556380Y0383990D01*
X0556520Y0384470D01*
X0556690Y0384940D01*
X0556900Y0385390D01*
X0557150Y0385830D01*
X0557430Y0386240D01*
X0557750Y0386630D01*
X0558090Y0387000D01*
X0558460Y0387340D01*
X0558860Y0387640D01*
X0559280Y0387910D01*
X0559720Y0388150D01*
X0560180Y0388360D01*
X0560650Y0388520D01*
X0561130Y0388650D01*
X0561630Y0388740D01*
X0562120Y0388790D01*
X0562630Y0388800D01*
X0563130Y0388770D01*
X0563620Y0388700D01*
X0564110Y0388590D01*
X0564590Y0388440D01*
X0565050Y0388260D01*
X0565500Y0388040D01*
X0565930Y0387780D01*
X0566340Y0387490D01*
X0566730Y0387170D01*
X0567090Y0386820D01*
X0567410Y0386440D01*
X0567710Y0386040D01*
X0567980Y0385610D01*
X0568210Y0385170D01*
X0568400Y0384710D01*
X0568560Y0384230D01*
X0568680Y0383740D01*
X0568760Y0383250D01*
X0568800Y0382750D01*
X0568800Y0382250D01*
X0568760Y0381750D01*
X0568680Y0381260D01*
X0568560Y0380770D01*
X0568400Y0380290D01*
X0568210Y0379830D01*
X0567980Y0379390D01*
X0567710Y0378960D01*
X0567410Y0378560D01*
X0567090Y0378180D01*
X0566730Y0377830D01*
X0566340Y0377510D01*
X0565930Y0377220D01*
X0565500Y0376960D01*
X0565050Y0376740D01*
X0564590Y0376560D01*
X0564110Y0376410D01*
X0563620Y0376300D01*
X0563130Y0376230D01*
X0562630Y0376200D01*
X0562120Y0376210D01*
X0561630Y0376260D01*
X0561130Y0376350D01*
X0560650Y0376480D01*
X0560180Y0376640D01*
X0559720Y0376850D01*
X0559280Y0377090D01*
X0558860Y0377360D01*
X0558460Y0377660D01*
X0558090Y0378000D01*
X0557750Y0378370D01*
X0557430Y0378760D01*
X0557150Y0379170D01*
X0556900Y0379610D01*
X0556690Y0380060D01*
X0556520Y0380530D01*
X0556380Y0381010D01*
X0556280Y0381500D01*
X0556220Y0382000D01*
X0556200Y0382500D01*
X0556200Y0272500D02*
X0556220Y0273000D01*
X0556280Y0273500D01*
X0556380Y0273990D01*
X0556520Y0274470D01*
X0556690Y0274940D01*
X0556900Y0275390D01*
X0557150Y0275830D01*
X0557430Y0276240D01*
X0557750Y0276630D01*
X0558090Y0277000D01*
X0558460Y0277340D01*
X0558860Y0277640D01*
X0559280Y0277910D01*
X0559720Y0278150D01*
X0560180Y0278360D01*
X0560650Y0278520D01*
X0561130Y0278650D01*
X0561630Y0278740D01*
X0562120Y0278790D01*
X0562630Y0278800D01*
X0563130Y0278770D01*
X0563620Y0278700D01*
X0564110Y0278590D01*
X0564590Y0278440D01*
X0565050Y0278260D01*
X0565500Y0278040D01*
X0565930Y0277780D01*
X0566340Y0277490D01*
X0566730Y0277170D01*
X0567090Y0276820D01*
X0567410Y0276440D01*
X0567710Y0276040D01*
X0567980Y0275610D01*
X0568210Y0275170D01*
X0568400Y0274710D01*
X0568560Y0274230D01*
X0568680Y0273740D01*
X0568760Y0273250D01*
X0568800Y0272750D01*
X0568800Y0272250D01*
X0568760Y0271750D01*
X0568680Y0271260D01*
X0568560Y0270770D01*
X0568400Y0270290D01*
X0568210Y0269830D01*
X0567980Y0269390D01*
X0567710Y0268960D01*
X0567410Y0268560D01*
X0567090Y0268180D01*
X0566730Y0267830D01*
X0566340Y0267510D01*
X0565930Y0267220D01*
X0565500Y0266960D01*
X0565050Y0266740D01*
X0564590Y0266560D01*
X0564110Y0266410D01*
X0563620Y0266300D01*
X0563130Y0266230D01*
X0562630Y0266200D01*
X0562120Y0266210D01*
X0561630Y0266260D01*
X0561130Y0266350D01*
X0560650Y0266480D01*
X0560180Y0266640D01*
X0559720Y0266850D01*
X0559280Y0267090D01*
X0558860Y0267360D01*
X0558460Y0267660D01*
X0558090Y0268000D01*
X0557750Y0268370D01*
X0557430Y0268760D01*
X0557150Y0269170D01*
X0556900Y0269610D01*
X0556690Y0270060D01*
X0556520Y0270530D01*
X0556380Y0271010D01*
X0556280Y0271500D01*
X0556220Y0272000D01*
X0556200Y0272500D01*
D34*
X0562500Y0272500D03*
X0562500Y0382500D03*
X0362500Y0442500D03*
D13*
X0432500Y0380100D02*
X0432500Y0374900D01*
X0442500Y0374900D02*
X0442500Y0380100D01*
X0452500Y0380100D02*
X0452500Y0374900D01*
X0462500Y0374900D02*
X0462500Y0380100D01*
X0472500Y0380100D02*
X0472500Y0374900D01*
X0482500Y0374900D02*
X0482500Y0380100D01*
X0492500Y0380100D02*
X0492500Y0374900D01*
X0502500Y0374900D02*
X0502500Y0380100D01*
X0502500Y0350100D02*
X0502500Y0344900D01*
X0492500Y0344900D02*
X0492500Y0350100D01*
X0482500Y0350100D02*
X0482500Y0344900D01*
X0472500Y0344900D02*
X0472500Y0350100D01*
X0462500Y0350100D02*
X0462500Y0344900D01*
X0452500Y0344900D02*
X0452500Y0350100D01*
X0442500Y0350100D02*
X0442500Y0344900D01*
X0432500Y0344900D02*
X0432500Y0350100D01*
D18*
X0477500Y0285000D03*
X0487500Y0285000D03*
X0482500Y0267500D03*
X0452500Y0267500D03*
D21*
X0462500Y0285000D03*
D32*
X0452500Y0285000D03*
D40*
X0452500Y0255500D02*
X0452500Y0249500D01*
X0462500Y0249500D02*
X0462500Y0255500D01*
X0472500Y0255500D02*
X0472500Y0249500D01*
X0482500Y0249500D02*
X0482500Y0255500D01*
X0502500Y0255500D02*
X0502500Y0249500D01*
X0512500Y0249500D02*
X0512500Y0255500D01*
X0522500Y0255500D02*
X0522500Y0249500D01*
X0532500Y0249500D02*
X0532500Y0255500D01*
X0542500Y0255500D02*
X0542500Y0249500D01*
X0552500Y0249500D02*
X0552500Y0255500D01*
X0442500Y0255500D02*
X0442500Y0249500D01*
X0432500Y0249500D02*
X0432500Y0255500D01*
X0412500Y0255500D02*
X0412500Y0249500D01*
X0402500Y0249500D02*
X0402500Y0255500D01*
X0392500Y0255500D02*
X0392500Y0249500D01*
X0382500Y0249500D02*
X0382500Y0255500D01*
X0372500Y0255500D02*
X0372500Y0249500D01*
X0362500Y0249500D02*
X0362500Y0255500D01*
X0352500Y0255500D02*
X0352500Y0249500D01*
X0342500Y0249500D02*
X0342500Y0255500D01*
X0396500Y0439500D02*
X0396500Y0445500D01*
X0406500Y0445500D02*
X0406500Y0439500D01*
X0416500Y0439500D02*
X0416500Y0445500D01*
X0426500Y0445500D02*
X0426500Y0439500D01*
X0436500Y0439500D02*
X0436500Y0445500D01*
X0446500Y0445500D02*
X0446500Y0439500D01*
X0456500Y0439500D02*
X0456500Y0445500D01*
X0466500Y0445500D02*
X0466500Y0439500D01*
X0482500Y0439500D02*
X0482500Y0445500D01*
X0492500Y0445500D02*
X0492500Y0439500D01*
X0502500Y0439500D02*
X0502500Y0445500D01*
X0512500Y0445500D02*
X0512500Y0439500D01*
X0522500Y0439500D02*
X0522500Y0445500D01*
X0532500Y0445500D02*
X0532500Y0439500D01*
X0542500Y0439500D02*
X0542500Y0445500D01*
X0552500Y0445500D02*
X0552500Y0439500D01*
D27*
X0422500Y0377500D03*
X0422500Y0315000D03*
M02*
