G75*
G70*
%OFA0B0*%
%FSLAX25Y25*%
%IPPOS*%
%LPD*%
%AMOC8*
5,1,8,0,0,1.08239X$1,22.5*
%
%ADD11C,0.01000*%
%ADD15C,0.00800*%
X0012500Y0012500D02*
G75*
%LPD*%
D11*
X0012500Y0012500D02*
X0012500Y0099380D01*
X0057500Y0099380D01*
X0078120Y0073130D02*
X0078120Y0056250D01*
X0054370Y0031880D02*
X0032500Y0031880D01*
X0032500Y0012500D01*
X0012500Y0012500D01*
X0054380Y0031880D02*
X0055440Y0032120D01*
X0056500Y0032410D01*
X0057540Y0032730D01*
X0058570Y0033090D01*
X0059590Y0033490D01*
X0060600Y0033920D01*
X0061590Y0034390D01*
X0062560Y0034890D01*
X0063510Y0035430D01*
X0064440Y0036000D01*
X0065350Y0036600D01*
X0066240Y0037240D01*
X0067110Y0037900D01*
X0067950Y0038600D01*
X0068770Y0039330D01*
X0069560Y0040080D01*
X0070320Y0040860D01*
X0071060Y0041670D01*
X0071760Y0042510D01*
X0072440Y0043370D01*
X0073080Y0044250D01*
X0073690Y0045160D01*
X0074270Y0046090D01*
X0074820Y0047030D01*
X0075330Y0048000D01*
X0075810Y0048980D01*
X0076250Y0049980D01*
X0076660Y0051000D01*
X0077020Y0052030D01*
X0077360Y0053070D01*
X0077650Y0054120D01*
X0077910Y0055180D01*
X0078130Y0056250D01*
X0078120Y0073120D02*
X0078020Y0074190D01*
X0077880Y0075250D01*
X0077700Y0076310D01*
X0077480Y0077360D01*
X0077230Y0078400D01*
X0076940Y0079440D01*
X0076610Y0080460D01*
X0076250Y0081470D01*
X0075850Y0082460D01*
X0075420Y0083440D01*
X0074950Y0084410D01*
X0074450Y0085350D01*
X0073910Y0086280D01*
X0073340Y0087190D01*
X0072740Y0088080D01*
X0072110Y0088950D01*
X0071450Y0089790D01*
X0070750Y0090610D01*
X0070030Y0091400D01*
X0069280Y0092170D01*
X0068510Y0092910D01*
X0067710Y0093620D01*
X0066880Y0094310D01*
X0066030Y0094960D01*
X0065160Y0095580D01*
X0064260Y0096170D01*
X0063350Y0096730D01*
X0062410Y0097260D01*
X0061460Y0097750D01*
X0060490Y0098210D01*
X0059510Y0098630D01*
X0058510Y0099020D01*
X0057490Y0099370D01*
X0033620Y0066880D02*
X0033640Y0067570D01*
X0033700Y0068260D01*
X0033800Y0068940D01*
X0033940Y0069620D01*
X0034110Y0070290D01*
X0034330Y0070950D01*
X0034580Y0071590D01*
X0034870Y0072220D01*
X0035200Y0072830D01*
X0035560Y0073420D01*
X0035950Y0073990D01*
X0036380Y0074530D01*
X0036830Y0075050D01*
X0037320Y0075550D01*
X0037830Y0076010D01*
X0038370Y0076440D01*
X0038940Y0076850D01*
X0039520Y0077210D01*
X0040130Y0077550D01*
X0040750Y0077850D01*
X0041390Y0078110D01*
X0042040Y0078330D01*
X0042710Y0078520D01*
X0043390Y0078670D01*
X0044070Y0078780D01*
X0044760Y0078850D01*
X0045450Y0078880D01*
X0046140Y0078870D01*
X0046830Y0078820D01*
X0047510Y0078730D01*
X0048190Y0078600D01*
X0048860Y0078430D01*
X0049530Y0078230D01*
X0050170Y0077980D01*
X0050800Y0077700D01*
X0051420Y0077390D01*
X0052010Y0077030D01*
X0052590Y0076650D01*
X0053140Y0076230D01*
X0053670Y0075780D01*
X0054170Y0075300D01*
X0054640Y0074800D01*
X0055080Y0074260D01*
X0055490Y0073710D01*
X0055870Y0073130D01*
X0056210Y0072530D01*
X0056520Y0071910D01*
X0056790Y0071270D01*
X0057020Y0070620D01*
X0057220Y0069960D01*
X0057380Y0069280D01*
X0057500Y0068600D01*
X0057580Y0067920D01*
X0057620Y0067230D01*
X0057620Y0066530D01*
X0057580Y0065840D01*
X0057500Y0065160D01*
X0057380Y0064480D01*
X0057220Y0063800D01*
X0057020Y0063140D01*
X0056790Y0062490D01*
X0056520Y0061850D01*
X0056210Y0061230D01*
X0055870Y0060630D01*
X0055490Y0060050D01*
X0055080Y0059500D01*
X0054640Y0058960D01*
X0054170Y0058460D01*
X0053670Y0057980D01*
X0053140Y0057530D01*
X0052590Y0057110D01*
X0052010Y0056730D01*
X0051420Y0056370D01*
X0050800Y0056060D01*
X0050170Y0055780D01*
X0049530Y0055530D01*
X0048860Y0055330D01*
X0048190Y0055160D01*
X0047510Y0055030D01*
X0046830Y0054940D01*
X0046140Y0054890D01*
X0045450Y0054880D01*
X0044760Y0054910D01*
X0044070Y0054980D01*
X0043390Y0055090D01*
X0042710Y0055240D01*
X0042040Y0055430D01*
X0041390Y0055650D01*
X0040750Y0055910D01*
X0040130Y0056210D01*
X0039520Y0056550D01*
X0038940Y0056910D01*
X0038370Y0057320D01*
X0037830Y0057750D01*
X0037320Y0058210D01*
X0036830Y0058710D01*
X0036380Y0059230D01*
X0035950Y0059770D01*
X0035560Y0060340D01*
X0035200Y0060930D01*
X0034870Y0061540D01*
X0034580Y0062170D01*
X0034330Y0062810D01*
X0034110Y0063470D01*
X0033940Y0064140D01*
X0033800Y0064820D01*
X0033700Y0065500D01*
X0033640Y0066190D01*
X0033620Y0066880D01*
D15*
X0030390Y0072280D02*
X0028990Y0072280D01*
X0028290Y0072980D01*
X0026490Y0072980D02*
X0026490Y0075780D01*
X0025790Y0076480D01*
X0024390Y0076480D01*
X0023690Y0075780D01*
X0023690Y0072980D01*
X0024390Y0072280D01*
X0025790Y0072280D01*
X0026490Y0072980D01*
X0028290Y0075780D02*
X0028990Y0076480D01*
X0030390Y0076480D01*
X0031100Y0075780D01*
X0031100Y0075080D01*
X0030390Y0074380D01*
X0031100Y0073680D01*
X0031100Y0072980D01*
X0030390Y0072280D01*
X0030390Y0074380D02*
X0029690Y0074380D01*
X0021890Y0073680D02*
X0021890Y0076480D01*
X0021890Y0073680D02*
X0020490Y0072280D01*
X0019080Y0073680D01*
X0019080Y0076480D01*
X0023590Y0065540D02*
X0022890Y0064840D01*
X0022890Y0063440D01*
X0023590Y0062730D01*
X0023590Y0060930D02*
X0022890Y0060230D01*
X0022890Y0058830D01*
X0023590Y0058130D01*
X0026400Y0058130D01*
X0027100Y0058830D01*
X0027100Y0060230D01*
X0026400Y0060930D01*
X0023590Y0060930D01*
X0027100Y0062730D02*
X0024290Y0065540D01*
X0023590Y0065540D01*
X0027100Y0065540D02*
X0027100Y0062730D01*
X0025700Y0056330D02*
X0022890Y0056330D01*
X0022890Y0053530D02*
X0025700Y0053530D01*
X0027100Y0054930D01*
X0025700Y0056330D01*
X0023350Y0043040D02*
X0023350Y0040230D01*
X0023350Y0041640D02*
X0019140Y0041640D01*
X0020540Y0040230D01*
X0019840Y0038430D02*
X0019140Y0037730D01*
X0019140Y0036330D01*
X0019840Y0035630D01*
X0022650Y0035630D01*
X0023350Y0036330D01*
X0023350Y0037730D01*
X0022650Y0038430D01*
X0019840Y0038430D01*
X0019140Y0033830D02*
X0021950Y0033830D01*
X0023350Y0032430D01*
X0021950Y0031030D01*
X0019140Y0031030D01*
X0020390Y0025250D02*
X0024600Y0025250D01*
X0020390Y0022450D01*
X0024600Y0022450D01*
X0024600Y0020780D02*
X0024600Y0019380D01*
X0024600Y0020080D02*
X0020390Y0020080D01*
X0020390Y0019380D02*
X0020390Y0020780D01*
X0020390Y0017580D02*
X0023200Y0017580D01*
X0024600Y0016180D01*
X0023200Y0014780D01*
X0020390Y0014780D01*
X0034300Y0038530D02*
X0035700Y0039930D01*
X0035700Y0042730D01*
X0037500Y0042030D02*
X0037500Y0039230D01*
X0038200Y0038530D01*
X0039600Y0038530D01*
X0040300Y0039230D01*
X0040300Y0042030D01*
X0039600Y0042730D01*
X0038200Y0042730D01*
X0037500Y0042030D01*
X0034300Y0038530D02*
X0032900Y0039930D01*
X0032900Y0042730D01*
X0042100Y0042030D02*
X0042100Y0041330D01*
X0042810Y0040630D01*
X0044210Y0040630D01*
X0044910Y0039930D01*
X0044910Y0039230D01*
X0044210Y0038530D01*
X0042810Y0038530D01*
X0042100Y0039230D01*
X0042100Y0039930D01*
X0042810Y0040630D01*
X0044210Y0040630D02*
X0044910Y0041330D01*
X0044910Y0042030D01*
X0044210Y0042730D01*
X0042810Y0042730D01*
X0042100Y0042030D01*
X0052900Y0042430D02*
X0054300Y0041030D01*
X0055700Y0042430D01*
X0055700Y0045230D01*
X0057500Y0044530D02*
X0057500Y0041730D01*
X0058200Y0041030D01*
X0059600Y0041030D01*
X0060300Y0041730D01*
X0060300Y0044530D01*
X0059600Y0045230D01*
X0058200Y0045230D01*
X0057500Y0044530D01*
X0062100Y0045230D02*
X0064910Y0045230D01*
X0064910Y0044530D01*
X0062100Y0041730D01*
X0062100Y0041030D01*
X0052900Y0042430D02*
X0052900Y0045230D01*
X0065390Y0054780D02*
X0068200Y0054780D01*
X0069600Y0056180D01*
X0068200Y0057580D01*
X0065390Y0057580D01*
X0066090Y0059380D02*
X0068900Y0059380D01*
X0069600Y0060080D01*
X0069600Y0061480D01*
X0068900Y0062180D01*
X0066090Y0062180D01*
X0065390Y0061480D01*
X0065390Y0060080D01*
X0066090Y0059380D01*
X0067490Y0063980D02*
X0067490Y0066090D01*
X0068200Y0066790D01*
X0068900Y0066790D01*
X0069600Y0066090D01*
X0069600Y0064690D01*
X0068900Y0063980D01*
X0067490Y0063980D01*
X0066090Y0065390D01*
X0065390Y0066790D01*
X0065000Y0078860D02*
X0064010Y0078860D01*
X0063020Y0079850D01*
X0063020Y0080840D01*
X0064010Y0081830D02*
X0065490Y0081340D01*
X0065990Y0080840D01*
X0065990Y0079850D01*
X0065000Y0078860D01*
X0064010Y0081830D02*
X0065490Y0083320D01*
X0067480Y0081340D01*
X0063720Y0084100D02*
X0063720Y0085090D01*
X0062730Y0086080D01*
X0061740Y0086080D01*
X0059760Y0084100D01*
X0059760Y0083110D01*
X0060750Y0082120D01*
X0061740Y0082120D01*
X0063720Y0084100D01*
X0060960Y0087850D02*
X0058980Y0085870D01*
X0057000Y0085870D01*
X0057000Y0087850D01*
X0058980Y0089830D01*
X0046100Y0089380D02*
X0043290Y0089380D01*
X0045390Y0091480D01*
X0045390Y0087280D01*
X0041490Y0087980D02*
X0041490Y0090780D01*
X0040790Y0091480D01*
X0039390Y0091480D01*
X0038690Y0090780D01*
X0038690Y0087980D01*
X0039390Y0087280D01*
X0040790Y0087280D01*
X0041490Y0087980D01*
X0036890Y0088680D02*
X0036890Y0091480D01*
X0036890Y0088680D02*
X0035490Y0087280D01*
X0034080Y0088680D01*
X0034080Y0091480D01*
X0085630Y0012500D02*
G75*
%LPD*%
D11*
X0085670Y0028200D02*
X0085670Y0077570D01*
X0085630Y0078440D01*
X0085640Y0079320D01*
X0085680Y0080190D01*
X0085760Y0081060D01*
X0085870Y0081930D01*
X0086030Y0082790D01*
X0086220Y0083640D01*
X0086450Y0084490D01*
X0086710Y0085320D01*
X0087010Y0086140D01*
X0087350Y0086950D01*
X0087720Y0087740D01*
X0088130Y0088510D01*
X0088570Y0089270D01*
X0089040Y0090000D01*
X0089540Y0090720D01*
X0090080Y0091410D01*
X0090640Y0092080D01*
X0091240Y0092720D01*
X0091860Y0093340D01*
X0092500Y0093930D01*
X0093170Y0094490D01*
X0093870Y0095020D01*
X0094590Y0095520D01*
X0095330Y0095980D01*
X0096080Y0096420D01*
X0096860Y0096820D01*
X0097650Y0097190D01*
X0098460Y0097520D01*
X0099290Y0097820D01*
X0100120Y0098080D01*
X0100970Y0098300D01*
X0101820Y0098490D01*
X0102680Y0098640D01*
X0103550Y0098750D01*
X0104420Y0098820D01*
X0131300Y0098820D01*
X0131290Y0098820D02*
X0132170Y0098830D01*
X0133040Y0098800D01*
X0133910Y0098730D01*
X0134780Y0098620D01*
X0135640Y0098480D01*
X0136490Y0098300D01*
X0137340Y0098080D01*
X0138170Y0097830D01*
X0139000Y0097540D01*
X0139810Y0097210D01*
X0140600Y0096850D01*
X0141380Y0096450D01*
X0142140Y0096020D01*
X0142880Y0095560D01*
X0143600Y0095070D01*
X0144300Y0094540D01*
X0144970Y0093990D01*
X0145620Y0093400D01*
X0146240Y0092790D01*
X0146840Y0092150D01*
X0147410Y0091490D01*
X0147940Y0090800D01*
X0148450Y0090090D01*
X0148930Y0089360D01*
X0149370Y0088610D01*
X0149780Y0087840D01*
X0150160Y0087050D01*
X0150500Y0086250D01*
X0150810Y0085430D01*
X0151080Y0084600D01*
X0151310Y0083760D01*
X0151510Y0082910D01*
X0151670Y0082050D01*
X0151790Y0081190D01*
X0151870Y0080320D01*
X0151920Y0079450D01*
X0151920Y0033200D01*
X0151930Y0033200D02*
X0151970Y0032330D01*
X0151960Y0031460D01*
X0151920Y0030590D01*
X0151840Y0029720D01*
X0151720Y0028860D01*
X0151560Y0028000D01*
X0151370Y0027150D01*
X0151130Y0026310D01*
X0150860Y0025480D01*
X0150550Y0024670D01*
X0150210Y0023870D01*
X0149830Y0023080D01*
X0149410Y0022320D01*
X0148960Y0021570D01*
X0148480Y0020840D01*
X0147970Y0020140D01*
X0147420Y0019460D01*
X0146850Y0018810D01*
X0146240Y0018180D01*
X0145610Y0017580D01*
X0144950Y0017010D01*
X0144270Y0016470D01*
X0143560Y0015950D01*
X0142830Y0015480D01*
X0142090Y0015030D01*
X0141320Y0014620D01*
X0140530Y0014250D01*
X0139730Y0013910D01*
X0138910Y0013600D01*
X0138080Y0013330D01*
X0137240Y0013100D01*
X0136390Y0012910D01*
X0135530Y0012760D01*
X0134670Y0012650D01*
X0133800Y0012570D01*
X0134420Y0012570D02*
X0104420Y0012570D01*
X0103600Y0012520D01*
X0102780Y0012500D01*
X0101960Y0012520D01*
X0101140Y0012590D01*
X0100330Y0012690D01*
X0099520Y0012830D01*
X0098710Y0013010D01*
X0097920Y0013220D01*
X0097140Y0013480D01*
X0096370Y0013770D01*
X0095620Y0014090D01*
X0094880Y0014450D01*
X0094160Y0014850D01*
X0093460Y0015280D01*
X0092780Y0015750D01*
X0092130Y0016240D01*
X0091500Y0016770D01*
X0090890Y0017320D01*
X0090310Y0017910D01*
X0089760Y0018520D01*
X0089240Y0019150D01*
X0088760Y0019810D01*
X0088300Y0020490D01*
X0087870Y0021200D01*
X0087480Y0021920D01*
X0087130Y0022660D01*
X0086810Y0023420D01*
X0086520Y0024190D01*
X0086280Y0024970D01*
X0086070Y0025770D01*
X0085900Y0026570D01*
X0085760Y0027380D01*
X0085670Y0028200D01*
X0106300Y0045700D02*
X0106300Y0066950D01*
X0106410Y0067640D01*
X0106560Y0068310D01*
X0106750Y0068980D01*
X0106970Y0069640D01*
X0107230Y0070280D01*
X0107520Y0070910D01*
X0107850Y0071520D01*
X0108210Y0072110D01*
X0108610Y0072680D01*
X0109030Y0073230D01*
X0109480Y0073750D01*
X0109970Y0074250D01*
X0110480Y0074720D01*
X0111010Y0075160D01*
X0111570Y0075570D01*
X0112150Y0075950D01*
X0112750Y0076300D01*
X0113360Y0076610D01*
X0114000Y0076890D01*
X0114650Y0077140D01*
X0115310Y0077350D01*
X0115980Y0077520D01*
X0116660Y0077650D01*
X0117340Y0077750D01*
X0118040Y0077810D01*
X0118730Y0077830D01*
X0119420Y0077810D01*
X0120110Y0077760D01*
X0120800Y0077660D01*
X0121480Y0077530D01*
X0122150Y0077360D01*
X0122810Y0077160D01*
X0123460Y0076920D01*
X0124100Y0076640D01*
X0124720Y0076330D01*
X0125320Y0075980D01*
X0125900Y0075610D01*
X0126460Y0075200D01*
X0127000Y0074760D01*
X0127510Y0074290D01*
X0127990Y0073800D01*
X0128450Y0073270D01*
X0128880Y0072730D01*
X0129270Y0072160D01*
X0129640Y0071570D01*
X0129970Y0070960D01*
X0130270Y0070340D01*
X0130530Y0069700D01*
X0130760Y0069040D01*
X0130950Y0068370D01*
X0131100Y0067700D01*
X0131220Y0067010D01*
X0131290Y0066330D01*
X0131300Y0066320D02*
X0131300Y0045070D01*
X0131290Y0045070D02*
X0131180Y0044380D01*
X0131030Y0043710D01*
X0130840Y0043040D01*
X0130620Y0042380D01*
X0130360Y0041740D01*
X0130070Y0041110D01*
X0129740Y0040500D01*
X0129380Y0039910D01*
X0128980Y0039340D01*
X0128560Y0038790D01*
X0128110Y0038270D01*
X0127620Y0037770D01*
X0127110Y0037300D01*
X0126580Y0036860D01*
X0126020Y0036450D01*
X0125440Y0036070D01*
X0124840Y0035720D01*
X0124230Y0035410D01*
X0123590Y0035130D01*
X0122940Y0034880D01*
X0122280Y0034670D01*
X0121610Y0034500D01*
X0120930Y0034370D01*
X0120250Y0034270D01*
X0119550Y0034210D01*
X0118860Y0034190D01*
X0118170Y0034210D01*
X0117480Y0034260D01*
X0116790Y0034360D01*
X0116110Y0034490D01*
X0115440Y0034660D01*
X0114780Y0034860D01*
X0114130Y0035100D01*
X0113490Y0035380D01*
X0112870Y0035690D01*
X0112270Y0036040D01*
X0111690Y0036410D01*
X0111130Y0036820D01*
X0110590Y0037260D01*
X0110080Y0037730D01*
X0109600Y0038220D01*
X0109140Y0038750D01*
X0108710Y0039290D01*
X0108320Y0039860D01*
X0107950Y0040450D01*
X0107620Y0041060D01*
X0107320Y0041680D01*
X0107060Y0042320D01*
X0106830Y0042980D01*
X0106640Y0043650D01*
X0106490Y0044320D01*
X0106370Y0045010D01*
X0106300Y0045690D01*
D15*
X0097150Y0045460D02*
X0092940Y0045460D01*
X0094340Y0044050D01*
X0093640Y0042250D02*
X0092940Y0041550D01*
X0092940Y0040150D01*
X0093640Y0039450D01*
X0096450Y0039450D01*
X0097150Y0040150D01*
X0097150Y0041550D01*
X0096450Y0042250D01*
X0093640Y0042250D01*
X0097150Y0044050D02*
X0097150Y0046860D01*
X0095750Y0037650D02*
X0092940Y0037650D01*
X0092940Y0034850D02*
X0095750Y0034850D01*
X0097150Y0036250D01*
X0095750Y0037650D01*
X0101700Y0024050D02*
X0101700Y0021250D01*
X0103100Y0019850D01*
X0104500Y0021250D01*
X0104500Y0024050D01*
X0106300Y0023350D02*
X0106300Y0020550D01*
X0107000Y0019850D01*
X0108400Y0019850D01*
X0109100Y0020550D01*
X0109100Y0023350D01*
X0108400Y0024050D01*
X0107000Y0024050D01*
X0106300Y0023350D01*
X0110900Y0023350D02*
X0110900Y0022650D01*
X0111610Y0021950D01*
X0113010Y0021950D01*
X0113710Y0021250D01*
X0113710Y0020550D01*
X0113010Y0019850D01*
X0111610Y0019850D01*
X0110900Y0020550D01*
X0110900Y0021250D01*
X0111610Y0021950D01*
X0113010Y0021950D02*
X0113710Y0022650D01*
X0113710Y0023350D01*
X0113010Y0024050D01*
X0111610Y0024050D01*
X0110900Y0023350D01*
X0114570Y0027350D02*
X0115970Y0028750D01*
X0115970Y0031550D01*
X0117770Y0031550D02*
X0119170Y0031550D01*
X0118470Y0031550D02*
X0118470Y0027350D01*
X0117770Y0027350D02*
X0119170Y0027350D01*
X0120840Y0027350D02*
X0120840Y0031550D01*
X0123650Y0027350D01*
X0123650Y0031550D01*
X0128090Y0024880D02*
X0129490Y0022460D01*
X0131410Y0021940D01*
X0131920Y0023860D01*
X0130520Y0026280D01*
X0132430Y0026580D02*
X0133830Y0024150D01*
X0134790Y0023900D01*
X0136000Y0024600D01*
X0136260Y0025550D01*
X0134860Y0027980D01*
X0133900Y0028240D01*
X0132690Y0027540D01*
X0132430Y0026580D01*
X0136070Y0029490D02*
X0138490Y0030890D01*
X0138840Y0030280D01*
X0137820Y0026450D01*
X0138170Y0025850D01*
X0140440Y0042350D02*
X0143250Y0042350D01*
X0144650Y0043750D01*
X0143250Y0045150D01*
X0140440Y0045150D01*
X0141140Y0046950D02*
X0143950Y0046950D01*
X0144650Y0047650D01*
X0144650Y0049050D01*
X0143950Y0049750D01*
X0141140Y0049750D01*
X0140440Y0049050D01*
X0140440Y0047650D01*
X0141140Y0046950D01*
X0142540Y0051550D02*
X0142540Y0053660D01*
X0143250Y0054360D01*
X0143950Y0054360D01*
X0144650Y0053660D01*
X0144650Y0052260D01*
X0143950Y0051550D01*
X0142540Y0051550D01*
X0141140Y0052960D01*
X0140440Y0054360D01*
X0140440Y0064850D02*
X0143250Y0064850D01*
X0144650Y0066250D01*
X0143250Y0067650D01*
X0140440Y0067650D01*
X0141140Y0069450D02*
X0140440Y0070150D01*
X0140440Y0071550D01*
X0141140Y0072250D01*
X0143950Y0072250D01*
X0144650Y0071550D01*
X0144650Y0070150D01*
X0143950Y0069450D01*
X0141140Y0069450D01*
X0140440Y0074050D02*
X0142540Y0074050D01*
X0141840Y0075460D01*
X0141840Y0076160D01*
X0142540Y0076860D01*
X0143950Y0076860D01*
X0144650Y0076160D01*
X0144650Y0074760D01*
X0143950Y0074050D01*
X0140440Y0074050D02*
X0140440Y0076860D01*
X0136130Y0086100D02*
X0136130Y0090300D01*
X0134030Y0088200D01*
X0136830Y0088200D01*
X0132230Y0086800D02*
X0132230Y0089600D01*
X0131530Y0090300D01*
X0130130Y0090300D01*
X0129430Y0089600D01*
X0129430Y0086800D01*
X0130130Y0086100D01*
X0131530Y0086100D01*
X0132230Y0086800D01*
X0127620Y0087500D02*
X0127620Y0090300D01*
X0124820Y0090300D02*
X0124820Y0087500D01*
X0126220Y0086100D01*
X0127620Y0087500D01*
X0110240Y0086600D02*
X0109990Y0085650D01*
X0108770Y0084950D01*
X0107820Y0085200D01*
X0106260Y0084300D02*
X0104860Y0086730D01*
X0103900Y0086990D01*
X0102690Y0086290D01*
X0102430Y0085330D01*
X0103830Y0082900D01*
X0104790Y0082650D01*
X0106000Y0083350D01*
X0106260Y0084300D01*
X0106420Y0087630D02*
X0106670Y0088590D01*
X0107890Y0089290D01*
X0108840Y0089030D01*
X0109190Y0088430D01*
X0108940Y0087470D01*
X0109890Y0087210D01*
X0110240Y0086600D01*
X0108940Y0087470D02*
X0108330Y0087120D01*
X0101920Y0082610D02*
X0101410Y0080690D01*
X0099490Y0081210D01*
X0098090Y0083630D01*
X0100520Y0085030D02*
X0101920Y0082610D01*
X0097150Y0069360D02*
X0097150Y0066550D01*
X0094340Y0069360D01*
X0093640Y0069360D01*
X0092940Y0068660D01*
X0092940Y0067260D01*
X0093640Y0066550D01*
X0093640Y0064750D02*
X0092940Y0064050D01*
X0092940Y0062650D01*
X0093640Y0061950D01*
X0096450Y0061950D01*
X0097150Y0062650D01*
X0097150Y0064050D01*
X0096450Y0064750D01*
X0093640Y0064750D01*
X0092940Y0060150D02*
X0095750Y0060150D01*
X0097150Y0058750D01*
X0095750Y0057350D01*
X0092940Y0057350D01*
X0113170Y0031550D02*
X0113170Y0028750D01*
X0114570Y0027350D01*
X0159470Y0012500D02*
G75*
%LPD*%
D11*
X0159480Y0020510D02*
X0159480Y0092090D01*
X0159500Y0092540D01*
X0159550Y0092980D01*
X0159650Y0093420D01*
X0159770Y0093850D01*
X0159940Y0094260D01*
X0160130Y0094660D01*
X0160360Y0095050D01*
X0160620Y0095410D01*
X0160910Y0095750D01*
X0161230Y0096070D01*
X0161570Y0096360D01*
X0161930Y0096620D01*
X0162320Y0096850D01*
X0162720Y0097040D01*
X0163130Y0097210D01*
X0163560Y0097330D01*
X0164000Y0097430D01*
X0164440Y0097480D01*
X0164890Y0097500D01*
X0164890Y0097510D02*
X0174280Y0097510D01*
X0174740Y0097470D01*
X0175190Y0097380D01*
X0175630Y0097270D01*
X0176060Y0097110D01*
X0176470Y0096920D01*
X0176870Y0096700D01*
X0177250Y0096440D01*
X0177600Y0096160D01*
X0177930Y0095840D01*
X0178240Y0095500D01*
X0178510Y0095140D01*
X0178750Y0094750D01*
X0178970Y0094350D01*
X0179140Y0093930D01*
X0179280Y0093490D01*
X0179390Y0093050D01*
X0179460Y0092600D01*
X0179490Y0092140D01*
X0179480Y0091690D01*
X0179480Y0056880D01*
X0179470Y0056880D02*
X0179460Y0056520D01*
X0179480Y0056160D01*
X0179540Y0055810D01*
X0179640Y0055460D01*
X0179770Y0055130D01*
X0179930Y0054810D01*
X0180130Y0054510D01*
X0180360Y0054230D01*
X0180610Y0053970D01*
X0180890Y0053750D01*
X0181190Y0053550D01*
X0181500Y0053380D01*
X0181840Y0053250D01*
X0182180Y0053150D01*
X0182540Y0053090D01*
X0182900Y0053060D01*
X0183260Y0053070D01*
X0183610Y0053120D01*
X0183960Y0053200D01*
X0184300Y0053320D01*
X0184630Y0053480D01*
X0184930Y0053660D01*
X0185220Y0053880D01*
X0190650Y0060560D01*
X0190850Y0060740D01*
X0191080Y0060880D01*
X0191320Y0060990D01*
X0191580Y0061070D01*
X0191850Y0061110D01*
X0192110Y0061110D01*
X0192380Y0061070D01*
X0192640Y0060990D01*
X0192880Y0060880D01*
X0193110Y0060740D01*
X0193310Y0060560D01*
X0193300Y0060560D02*
X0198830Y0053780D01*
X0199060Y0053550D01*
X0199310Y0053350D01*
X0199590Y0053180D01*
X0199880Y0053050D01*
X0200190Y0052940D01*
X0200510Y0052880D01*
X0200830Y0052840D01*
X0201150Y0052850D01*
X0201480Y0052890D01*
X0201790Y0052960D01*
X0202100Y0053070D01*
X0202390Y0053220D01*
X0202660Y0053390D01*
X0202910Y0053600D01*
X0203140Y0053830D01*
X0203340Y0054080D01*
X0203510Y0054360D01*
X0203640Y0054650D01*
X0203750Y0054960D01*
X0203810Y0055280D01*
X0203850Y0055600D01*
X0203850Y0092220D01*
X0203860Y0092220D02*
X0203880Y0092660D01*
X0203930Y0093090D01*
X0204020Y0093520D01*
X0204150Y0093930D01*
X0204300Y0094340D01*
X0204500Y0094730D01*
X0204720Y0095110D01*
X0204970Y0095460D01*
X0205260Y0095800D01*
X0205560Y0096100D01*
X0205900Y0096390D01*
X0206250Y0096640D01*
X0206630Y0096860D01*
X0207020Y0097060D01*
X0207430Y0097210D01*
X0207840Y0097340D01*
X0208270Y0097430D01*
X0208700Y0097480D01*
X0209140Y0097500D01*
X0209140Y0097510D02*
X0218570Y0097510D01*
X0218570Y0097500D02*
X0219030Y0097460D01*
X0219490Y0097370D01*
X0219940Y0097250D01*
X0220370Y0097100D01*
X0220790Y0096900D01*
X0221200Y0096680D01*
X0221580Y0096420D01*
X0221940Y0096130D01*
X0222280Y0095810D01*
X0222590Y0095470D01*
X0222860Y0095100D01*
X0223110Y0094710D01*
X0223330Y0094300D01*
X0223510Y0093870D01*
X0223650Y0093430D01*
X0223760Y0092980D01*
X0223830Y0092520D01*
X0223860Y0092060D01*
X0223850Y0091600D01*
X0223850Y0020240D01*
X0217370Y0012510D02*
X0209000Y0012510D01*
X0202420Y0016440D02*
X0192780Y0027950D01*
X0192790Y0027960D02*
X0192690Y0028030D01*
X0192580Y0028090D01*
X0192460Y0028130D01*
X0192340Y0028140D01*
X0191090Y0027870D02*
X0181930Y0016840D01*
X0174390Y0012510D02*
X0166860Y0012510D01*
X0166310Y0012550D01*
X0165770Y0012630D01*
X0165230Y0012750D01*
X0164700Y0012910D01*
X0164190Y0013100D01*
X0163690Y0013330D01*
X0163210Y0013600D01*
X0162750Y0013900D01*
X0162310Y0014230D01*
X0161900Y0014590D01*
X0161510Y0014980D01*
X0161150Y0015400D01*
X0160820Y0015840D01*
X0160530Y0016300D01*
X0160270Y0016790D01*
X0160040Y0017290D01*
X0159850Y0017800D01*
X0159700Y0018330D01*
X0159590Y0018870D01*
X0159510Y0019410D01*
X0159470Y0019960D01*
X0159480Y0020510D01*
X0174390Y0012500D02*
X0175020Y0012600D01*
X0175640Y0012740D01*
X0176250Y0012910D01*
X0176860Y0013110D01*
X0177450Y0013350D01*
X0178030Y0013620D01*
X0178590Y0013920D01*
X0179130Y0014250D01*
X0179660Y0014610D01*
X0180160Y0015010D01*
X0180640Y0015430D01*
X0181100Y0015870D01*
X0181530Y0016340D01*
X0181930Y0016840D01*
X0191090Y0027870D02*
X0191280Y0027980D01*
X0191480Y0028070D01*
X0191690Y0028130D01*
X0191910Y0028160D01*
X0192130Y0028160D01*
X0192340Y0028130D01*
X0202420Y0016440D02*
X0202790Y0015960D01*
X0203200Y0015510D01*
X0203630Y0015090D01*
X0204080Y0014690D01*
X0204560Y0014320D01*
X0205060Y0013980D01*
X0205580Y0013670D01*
X0206110Y0013390D01*
X0206670Y0013140D01*
X0207230Y0012930D01*
X0207810Y0012750D01*
X0208400Y0012610D01*
X0208990Y0012510D01*
X0217370Y0012510D02*
X0217880Y0012570D01*
X0218380Y0012670D01*
X0218870Y0012800D01*
X0219350Y0012970D01*
X0219820Y0013170D01*
X0220270Y0013410D01*
X0220700Y0013680D01*
X0221120Y0013970D01*
X0221510Y0014300D01*
X0221870Y0014650D01*
X0222210Y0015030D01*
X0222530Y0015430D01*
X0222810Y0015850D01*
X0223060Y0016300D01*
X0223280Y0016750D01*
X0223470Y0017230D01*
X0223620Y0017710D01*
X0223740Y0018210D01*
X0223820Y0018710D01*
X0223870Y0019220D01*
X0223880Y0019730D01*
X0223850Y0020230D01*
D15*
X0214080Y0025560D02*
X0212680Y0026960D01*
X0209870Y0026960D01*
X0210570Y0028760D02*
X0213380Y0028760D01*
X0214080Y0029460D01*
X0214080Y0030860D01*
X0213380Y0031560D01*
X0210570Y0031560D01*
X0209870Y0030860D01*
X0209870Y0029460D01*
X0210570Y0028760D01*
X0214080Y0025560D02*
X0212680Y0024160D01*
X0209870Y0024160D01*
X0209870Y0033360D02*
X0211970Y0033360D01*
X0211270Y0034770D01*
X0211270Y0035470D01*
X0211970Y0036170D01*
X0213380Y0036170D01*
X0214080Y0035470D01*
X0214080Y0034070D01*
X0213380Y0033360D01*
X0209870Y0033360D02*
X0209870Y0036170D01*
X0203140Y0037510D02*
X0200330Y0037510D01*
X0202440Y0039610D01*
X0202440Y0035410D01*
X0198530Y0036110D02*
X0198530Y0038910D01*
X0197830Y0039610D01*
X0196430Y0039610D01*
X0195730Y0038910D01*
X0195730Y0036110D01*
X0196430Y0035410D01*
X0197830Y0035410D01*
X0198530Y0036110D01*
X0193930Y0036810D02*
X0193930Y0039610D01*
X0193930Y0036810D02*
X0192530Y0035410D01*
X0191130Y0036810D01*
X0191130Y0039610D01*
X0183230Y0031310D02*
X0183720Y0030810D01*
X0183720Y0029820D01*
X0182730Y0028830D01*
X0181740Y0028830D01*
X0180470Y0027550D02*
X0178490Y0029540D01*
X0177500Y0029540D01*
X0176510Y0028550D01*
X0176510Y0027550D01*
X0178490Y0025570D01*
X0179480Y0025570D01*
X0180470Y0026560D01*
X0180470Y0027550D01*
X0179760Y0030810D02*
X0179760Y0031800D01*
X0180750Y0032790D01*
X0181740Y0032790D01*
X0182240Y0032300D01*
X0182240Y0031310D01*
X0183230Y0031310D01*
X0182240Y0031310D02*
X0181740Y0030810D01*
X0176720Y0024790D02*
X0174740Y0026780D01*
X0176720Y0024790D02*
X0176720Y0022810D01*
X0174740Y0022810D01*
X0172750Y0024790D01*
X0170180Y0034160D02*
X0167370Y0034160D01*
X0167370Y0036960D02*
X0170180Y0036960D01*
X0171580Y0035560D01*
X0170180Y0034160D01*
X0170880Y0038760D02*
X0168070Y0038760D01*
X0167370Y0039460D01*
X0167370Y0040860D01*
X0168070Y0041560D01*
X0170880Y0041560D01*
X0171580Y0040860D01*
X0171580Y0039460D01*
X0170880Y0038760D01*
X0171580Y0043360D02*
X0168770Y0046170D01*
X0168070Y0046170D01*
X0167370Y0045470D01*
X0167370Y0044070D01*
X0168070Y0043360D01*
X0171580Y0043360D02*
X0171580Y0046170D01*
X0170180Y0064160D02*
X0167370Y0064160D01*
X0167370Y0066960D02*
X0170180Y0066960D01*
X0171580Y0065560D01*
X0170180Y0064160D01*
X0170880Y0068760D02*
X0168070Y0068760D01*
X0167370Y0069460D01*
X0167370Y0070860D01*
X0168070Y0071560D01*
X0170880Y0071560D01*
X0171580Y0070860D01*
X0171580Y0069460D01*
X0170880Y0068760D01*
X0171580Y0073360D02*
X0171580Y0076170D01*
X0171580Y0074770D02*
X0167370Y0074770D01*
X0168770Y0073360D01*
X0168620Y0084160D02*
X0171430Y0084160D01*
X0172830Y0085560D01*
X0171430Y0086960D01*
X0168620Y0086960D01*
X0168620Y0088760D02*
X0168620Y0090160D01*
X0168620Y0089460D02*
X0172830Y0089460D01*
X0172830Y0088760D02*
X0172830Y0090160D01*
X0172830Y0091830D02*
X0168620Y0091830D01*
X0172830Y0094630D01*
X0168620Y0094630D01*
X0209870Y0094920D02*
X0209870Y0092110D01*
X0210570Y0090310D02*
X0209870Y0089610D01*
X0209870Y0088210D01*
X0210570Y0087510D01*
X0213380Y0087510D01*
X0214080Y0088210D01*
X0214080Y0089610D01*
X0213380Y0090310D01*
X0210570Y0090310D01*
X0213380Y0092110D02*
X0214080Y0092110D01*
X0213380Y0092110D02*
X0210570Y0094920D01*
X0209870Y0094920D01*
X0209870Y0085710D02*
X0212680Y0085710D01*
X0214080Y0084310D01*
X0212680Y0082910D01*
X0209870Y0082910D01*
X0209870Y0066170D02*
X0210570Y0064770D01*
X0211970Y0063360D01*
X0211970Y0065470D01*
X0212680Y0066170D01*
X0213380Y0066170D01*
X0214080Y0065470D01*
X0214080Y0064070D01*
X0213380Y0063360D01*
X0211970Y0063360D01*
X0210570Y0061560D02*
X0209870Y0060860D01*
X0209870Y0059460D01*
X0210570Y0058760D01*
X0213380Y0058760D01*
X0214080Y0059460D01*
X0214080Y0060860D01*
X0213380Y0061560D01*
X0210570Y0061560D01*
X0209870Y0056960D02*
X0212680Y0056960D01*
X0214080Y0055560D01*
X0212680Y0054160D01*
X0209870Y0054160D01*
X0231380Y0012500D02*
G75*
%LPD*%
D11*
X0238910Y0012510D02*
X0291030Y0012510D01*
X0291030Y0012500D02*
X0291350Y0012520D01*
X0291670Y0012570D01*
X0291980Y0012660D01*
X0292280Y0012790D01*
X0292560Y0012940D01*
X0292830Y0013130D01*
X0293070Y0013340D01*
X0293280Y0013580D01*
X0293470Y0013850D01*
X0293620Y0014130D01*
X0293750Y0014430D01*
X0293840Y0014740D01*
X0293890Y0015060D01*
X0293910Y0015380D01*
X0293910Y0027760D01*
X0293900Y0027750D02*
X0293850Y0028080D01*
X0293770Y0028410D01*
X0293650Y0028720D01*
X0293500Y0029020D01*
X0293320Y0029300D01*
X0293110Y0029560D01*
X0292880Y0029800D01*
X0292620Y0030020D01*
X0292340Y0030200D01*
X0292040Y0030350D01*
X0291730Y0030480D01*
X0291410Y0030570D01*
X0291080Y0030620D01*
X0290740Y0030640D01*
X0290410Y0030620D01*
X0290410Y0030630D02*
X0257030Y0030630D01*
X0256660Y0030620D01*
X0256280Y0030640D01*
X0255910Y0030700D01*
X0255550Y0030790D01*
X0255190Y0030920D01*
X0254850Y0031080D01*
X0254520Y0031260D01*
X0254220Y0031480D01*
X0253930Y0031730D01*
X0253670Y0032000D01*
X0253430Y0032290D01*
X0253230Y0032600D01*
X0253050Y0032930D01*
X0252900Y0033280D01*
X0252790Y0033640D01*
X0252710Y0034000D01*
X0252660Y0034380D01*
X0252660Y0045630D01*
X0252710Y0045950D01*
X0252800Y0046250D01*
X0252920Y0046540D01*
X0253070Y0046820D01*
X0253250Y0047080D01*
X0253470Y0047320D01*
X0253700Y0047530D01*
X0253960Y0047710D01*
X0254240Y0047870D01*
X0254530Y0047990D01*
X0254840Y0048080D01*
X0255150Y0048130D01*
X0255470Y0048150D01*
X0255780Y0048130D01*
X0270410Y0048130D01*
X0270410Y0048140D02*
X0270720Y0048120D01*
X0271030Y0048140D01*
X0271340Y0048190D01*
X0271630Y0048290D01*
X0271920Y0048410D01*
X0272180Y0048580D01*
X0272430Y0048770D01*
X0272650Y0048990D01*
X0272840Y0049230D01*
X0273000Y0049500D01*
X0273130Y0049780D01*
X0273220Y0050080D01*
X0273280Y0050390D01*
X0273280Y0050380D02*
X0273280Y0058370D01*
X0273270Y0058370D02*
X0273290Y0058700D01*
X0273270Y0059040D01*
X0273210Y0059370D01*
X0273130Y0059690D01*
X0273000Y0060010D01*
X0272850Y0060310D01*
X0272660Y0060590D01*
X0272450Y0060850D01*
X0272210Y0061080D01*
X0271950Y0061290D01*
X0271660Y0061470D01*
X0271360Y0061620D01*
X0271050Y0061740D01*
X0270720Y0061820D01*
X0270390Y0061870D01*
X0270400Y0061880D02*
X0255050Y0061880D01*
X0255050Y0061890D02*
X0254750Y0061940D01*
X0254450Y0062030D01*
X0254170Y0062140D01*
X0253910Y0062290D01*
X0253660Y0062470D01*
X0253430Y0062670D01*
X0253230Y0062900D01*
X0253050Y0063150D01*
X0252910Y0063420D01*
X0252790Y0063700D01*
X0252710Y0063990D01*
X0252660Y0064290D01*
X0252640Y0064600D01*
X0252660Y0064900D01*
X0252660Y0075380D01*
X0252680Y0075770D01*
X0252740Y0076160D01*
X0252830Y0076540D01*
X0252960Y0076910D01*
X0253130Y0077270D01*
X0253330Y0077600D01*
X0253570Y0077920D01*
X0253830Y0078210D01*
X0254120Y0078470D01*
X0254440Y0078710D01*
X0254770Y0078910D01*
X0255130Y0079080D01*
X0255500Y0079210D01*
X0255880Y0079300D01*
X0256270Y0079360D01*
X0256660Y0079380D01*
X0286640Y0079380D01*
X0287180Y0079460D01*
X0287710Y0079590D01*
X0288230Y0079750D01*
X0288740Y0079950D01*
X0289230Y0080180D01*
X0289700Y0080450D01*
X0290160Y0080750D01*
X0290590Y0081090D01*
X0290990Y0081450D01*
X0291370Y0081840D01*
X0291720Y0082260D01*
X0292040Y0082700D01*
X0292330Y0083170D01*
X0292590Y0083650D01*
X0292800Y0084150D01*
X0292990Y0084660D01*
X0293130Y0085190D01*
X0293240Y0085720D01*
X0293310Y0086260D01*
X0293340Y0086810D01*
X0293330Y0087350D01*
X0293280Y0087900D01*
X0293280Y0089500D01*
X0293310Y0090020D01*
X0293300Y0090550D01*
X0293250Y0091080D01*
X0293160Y0091600D01*
X0293040Y0092110D01*
X0292880Y0092620D01*
X0292680Y0093110D01*
X0292450Y0093590D01*
X0292190Y0094040D01*
X0291890Y0094480D01*
X0291560Y0094900D01*
X0291210Y0095290D01*
X0290830Y0095660D01*
X0290420Y0095990D01*
X0289990Y0096300D01*
X0289540Y0096580D01*
X0289070Y0096820D01*
X0288580Y0097030D01*
X0288080Y0097200D01*
X0287570Y0097340D01*
X0287050Y0097440D01*
X0286520Y0097500D01*
X0286520Y0097510D02*
X0237660Y0097510D01*
X0237660Y0097500D02*
X0237140Y0097440D01*
X0236640Y0097330D01*
X0236140Y0097190D01*
X0235660Y0097010D01*
X0235190Y0096800D01*
X0234740Y0096550D01*
X0234300Y0096270D01*
X0233890Y0095960D01*
X0233510Y0095610D01*
X0233150Y0095240D01*
X0232820Y0094850D01*
X0232520Y0094430D01*
X0232250Y0093980D01*
X0232020Y0093520D01*
X0231820Y0093050D01*
X0231660Y0092560D01*
X0231530Y0092060D01*
X0231440Y0091550D01*
X0231390Y0091040D01*
X0231380Y0090520D01*
X0231410Y0090010D01*
X0231410Y0020010D01*
X0231430Y0019470D01*
X0231490Y0018940D01*
X0231580Y0018420D01*
X0231710Y0017900D01*
X0231880Y0017390D01*
X0232090Y0016890D01*
X0232330Y0016420D01*
X0232600Y0015960D01*
X0232910Y0015520D01*
X0233240Y0015100D01*
X0233610Y0014710D01*
X0234000Y0014340D01*
X0234420Y0014010D01*
X0234860Y0013700D01*
X0235320Y0013430D01*
X0235790Y0013190D01*
X0236290Y0012980D01*
X0236800Y0012810D01*
X0237320Y0012680D01*
X0237840Y0012590D01*
X0238370Y0012530D01*
X0238910Y0012510D01*
D15*
X0238210Y0017910D02*
X0236810Y0019310D01*
X0236810Y0022110D01*
X0239610Y0022110D02*
X0239610Y0019310D01*
X0238210Y0017910D01*
X0241410Y0018610D02*
X0241410Y0021410D01*
X0242110Y0022110D01*
X0243510Y0022110D01*
X0244210Y0021410D01*
X0244210Y0018610D01*
X0243510Y0017910D01*
X0242110Y0017910D01*
X0241410Y0018610D01*
X0246010Y0017910D02*
X0248820Y0020710D01*
X0248820Y0021410D01*
X0248120Y0022110D01*
X0246720Y0022110D01*
X0246010Y0021410D01*
X0246010Y0017910D02*
X0248820Y0017910D01*
X0261810Y0019310D02*
X0263210Y0017910D01*
X0264610Y0019310D01*
X0264610Y0022110D01*
X0266410Y0021410D02*
X0266410Y0018610D01*
X0267110Y0017910D01*
X0268510Y0017910D01*
X0269210Y0018610D01*
X0269210Y0021410D01*
X0268510Y0022110D01*
X0267110Y0022110D01*
X0266410Y0021410D01*
X0261810Y0022110D02*
X0261810Y0019310D01*
X0271010Y0020710D02*
X0272420Y0022110D01*
X0272420Y0017910D01*
X0273820Y0017910D02*
X0271010Y0017910D01*
X0280560Y0021810D02*
X0281960Y0020410D01*
X0283360Y0021810D01*
X0283360Y0024610D01*
X0285160Y0024610D02*
X0286560Y0024610D01*
X0285860Y0024610D02*
X0285860Y0020410D01*
X0285160Y0020410D02*
X0286560Y0020410D01*
X0288230Y0020410D02*
X0288230Y0024610D01*
X0291030Y0020410D01*
X0291030Y0024610D01*
X0280560Y0024610D02*
X0280560Y0021810D01*
X0260950Y0052910D02*
X0260950Y0053610D01*
X0263760Y0056410D01*
X0263760Y0057110D01*
X0260950Y0057110D01*
X0259150Y0056410D02*
X0258450Y0057110D01*
X0257050Y0057110D01*
X0256350Y0056410D01*
X0256350Y0053610D01*
X0257050Y0052910D01*
X0258450Y0052910D01*
X0259150Y0053610D01*
X0259150Y0056410D01*
X0254550Y0057110D02*
X0254550Y0054310D01*
X0253150Y0052910D01*
X0251740Y0054310D01*
X0251740Y0057110D01*
X0246010Y0052970D02*
X0246010Y0051570D01*
X0245310Y0050860D01*
X0245310Y0049060D02*
X0242500Y0049060D01*
X0241800Y0048360D01*
X0241800Y0046960D01*
X0242500Y0046260D01*
X0245310Y0046260D01*
X0246010Y0046960D01*
X0246010Y0048360D01*
X0245310Y0049060D01*
X0242500Y0050860D02*
X0241800Y0051570D01*
X0241800Y0052970D01*
X0242500Y0053670D01*
X0243200Y0053670D01*
X0243900Y0052970D01*
X0244610Y0053670D01*
X0245310Y0053670D01*
X0246010Y0052970D01*
X0243900Y0052970D02*
X0243900Y0052270D01*
X0244610Y0044460D02*
X0241800Y0044460D01*
X0241800Y0041660D02*
X0244610Y0041660D01*
X0246010Y0043060D01*
X0244610Y0044460D01*
X0244610Y0071660D02*
X0241800Y0071660D01*
X0241800Y0074460D02*
X0244610Y0074460D01*
X0246010Y0073060D01*
X0244610Y0071660D01*
X0245310Y0076260D02*
X0242500Y0076260D01*
X0241800Y0076960D01*
X0241800Y0078360D01*
X0242500Y0079060D01*
X0245310Y0079060D01*
X0246010Y0078360D01*
X0246010Y0076960D01*
X0245310Y0076260D01*
X0243900Y0080860D02*
X0243900Y0083670D01*
X0241800Y0082970D02*
X0246010Y0082970D01*
X0243900Y0080860D02*
X0241800Y0082970D01*
X0251810Y0086810D02*
X0253210Y0085410D01*
X0254610Y0086810D01*
X0254610Y0089610D01*
X0256410Y0088910D02*
X0256410Y0086110D01*
X0257110Y0085410D01*
X0258510Y0085410D01*
X0259210Y0086110D01*
X0259210Y0088910D01*
X0258510Y0089610D01*
X0257110Y0089610D01*
X0256410Y0088910D01*
X0251810Y0089610D02*
X0251810Y0086810D01*
X0261010Y0087510D02*
X0262420Y0088210D01*
X0263120Y0088210D01*
X0263820Y0087510D01*
X0263820Y0086110D01*
X0263120Y0085410D01*
X0261720Y0085410D01*
X0261010Y0086110D01*
X0261010Y0087510D02*
X0261010Y0089610D01*
X0263820Y0089610D01*
X0278060Y0089610D02*
X0278060Y0086810D01*
X0279460Y0085410D01*
X0280860Y0086810D01*
X0280860Y0089610D01*
X0282660Y0088910D02*
X0282660Y0086110D01*
X0283360Y0085410D01*
X0284760Y0085410D01*
X0285460Y0086110D01*
X0285460Y0088910D01*
X0284760Y0089610D01*
X0283360Y0089610D01*
X0282660Y0088910D01*
X0287260Y0087510D02*
X0287260Y0086110D01*
X0287970Y0085410D01*
X0289370Y0085410D01*
X0290070Y0086110D01*
X0290070Y0086810D01*
X0289370Y0087510D01*
X0287260Y0087510D01*
X0288670Y0088910D01*
X0290070Y0089610D01*
X0301410Y0012500D02*
G75*
%LPD*%
D11*
X0304220Y0012500D02*
X0317470Y0012500D01*
X0317870Y0012550D01*
X0318250Y0012630D01*
X0318630Y0012750D01*
X0318990Y0012900D01*
X0319340Y0013090D01*
X0319670Y0013310D01*
X0319980Y0013550D01*
X0320270Y0013830D01*
X0320530Y0014130D01*
X0320750Y0014450D01*
X0320950Y0014790D01*
X0321120Y0015150D01*
X0321250Y0015520D01*
X0321350Y0015900D01*
X0321410Y0016290D01*
X0321440Y0016690D01*
X0321430Y0017080D01*
X0321430Y0028790D01*
X0321450Y0029250D01*
X0321510Y0029710D01*
X0321600Y0030160D01*
X0321730Y0030610D01*
X0321900Y0031040D01*
X0322100Y0031450D01*
X0322340Y0031850D01*
X0322610Y0032220D01*
X0322910Y0032580D01*
X0323230Y0032900D01*
X0323590Y0033200D01*
X0323960Y0033470D01*
X0324360Y0033710D01*
X0324770Y0033910D01*
X0325200Y0034080D01*
X0325650Y0034210D01*
X0326100Y0034300D01*
X0326560Y0034360D01*
X0327020Y0034380D01*
X0329910Y0034380D01*
X0334350Y0032180D02*
X0347380Y0015150D01*
X0351470Y0012500D02*
X0361640Y0012500D01*
X0362010Y0012520D01*
X0362380Y0012580D01*
X0362730Y0012670D01*
X0363080Y0012810D01*
X0363410Y0012970D01*
X0363720Y0013180D01*
X0364010Y0013410D01*
X0364270Y0013670D01*
X0364500Y0013960D01*
X0364710Y0014270D01*
X0364870Y0014600D01*
X0365010Y0014950D01*
X0365100Y0015300D01*
X0365160Y0015670D01*
X0365180Y0016040D01*
X0365180Y0022800D01*
X0361410Y0032520D02*
X0361360Y0032570D01*
X0361370Y0032570D02*
X0360940Y0033030D01*
X0360530Y0033510D01*
X0360160Y0034020D01*
X0359820Y0034550D01*
X0359510Y0035100D01*
X0359230Y0035670D01*
X0358990Y0036250D01*
X0358780Y0036840D01*
X0358610Y0037450D01*
X0358480Y0038070D01*
X0358390Y0038690D01*
X0358330Y0039320D01*
X0358310Y0039950D01*
X0362050Y0048750D02*
X0362050Y0048750D01*
X0365180Y0056300D02*
X0365180Y0076880D01*
X0362080Y0084350D02*
X0352730Y0093700D01*
X0342040Y0098130D02*
X0318810Y0098130D01*
X0318800Y0098130D02*
X0317990Y0098120D01*
X0317180Y0098080D01*
X0316370Y0098000D01*
X0315570Y0097880D01*
X0314770Y0097720D01*
X0313980Y0097520D01*
X0313200Y0097290D01*
X0312440Y0097020D01*
X0311680Y0096710D01*
X0310950Y0096370D01*
X0310230Y0096000D01*
X0309530Y0095590D01*
X0308840Y0095140D01*
X0308190Y0094670D01*
X0307550Y0094160D01*
X0306940Y0093630D01*
X0306350Y0093060D01*
X0305800Y0092470D01*
X0305270Y0091860D01*
X0304770Y0091210D01*
X0304300Y0090550D01*
X0303870Y0089860D01*
X0303460Y0089160D01*
X0303100Y0088430D01*
X0302760Y0087690D01*
X0302460Y0086940D01*
X0302200Y0086170D01*
X0301980Y0085390D01*
X0301790Y0084600D01*
X0301640Y0083800D01*
X0301530Y0082990D01*
X0301460Y0082180D01*
X0301420Y0081370D01*
X0301430Y0081370D02*
X0301430Y0015920D01*
X0301410Y0015600D01*
X0301430Y0015270D01*
X0301480Y0014950D01*
X0301570Y0014630D01*
X0301690Y0014330D01*
X0301840Y0014040D01*
X0302010Y0013760D01*
X0302220Y0013510D01*
X0302450Y0013280D01*
X0302710Y0013080D01*
X0302980Y0012900D01*
X0303270Y0012750D01*
X0303580Y0012640D01*
X0303900Y0012560D01*
X0304220Y0012510D01*
X0329910Y0034380D02*
X0330380Y0034360D01*
X0330840Y0034300D01*
X0331290Y0034210D01*
X0331740Y0034070D01*
X0332180Y0033900D01*
X0332590Y0033690D01*
X0332990Y0033450D01*
X0333370Y0033180D01*
X0333720Y0032880D01*
X0334050Y0032540D01*
X0334350Y0032190D01*
X0361410Y0032520D02*
X0361890Y0032000D01*
X0362340Y0031440D01*
X0362760Y0030870D01*
X0363150Y0030270D01*
X0363510Y0029650D01*
X0363830Y0029020D01*
X0364130Y0028370D01*
X0364380Y0027700D01*
X0364610Y0027020D01*
X0364790Y0026330D01*
X0364940Y0025640D01*
X0365060Y0024930D01*
X0365130Y0024220D01*
X0365170Y0023510D01*
X0365180Y0022800D01*
X0351480Y0012510D02*
X0351020Y0012580D01*
X0350580Y0012690D01*
X0350140Y0012830D01*
X0349720Y0013020D01*
X0349320Y0013230D01*
X0348930Y0013480D01*
X0348570Y0013760D01*
X0348230Y0014070D01*
X0347920Y0014410D01*
X0347640Y0014770D01*
X0347390Y0015150D01*
X0358300Y0039950D02*
X0358320Y0040600D01*
X0358380Y0041260D01*
X0358470Y0041900D01*
X0358600Y0042550D01*
X0358760Y0043180D01*
X0358950Y0043810D01*
X0359180Y0044420D01*
X0359430Y0045020D01*
X0359720Y0045610D01*
X0360040Y0046180D01*
X0360390Y0046740D01*
X0360760Y0047270D01*
X0361170Y0047790D01*
X0361600Y0048280D01*
X0362050Y0048750D01*
X0362060Y0048750D02*
X0362500Y0049220D01*
X0362910Y0049720D01*
X0363290Y0050240D01*
X0363640Y0050780D01*
X0363960Y0051340D01*
X0364240Y0051920D01*
X0364490Y0052520D01*
X0364700Y0053130D01*
X0364870Y0053750D01*
X0365010Y0054380D01*
X0365100Y0055010D01*
X0365160Y0055660D01*
X0365180Y0056300D01*
X0362060Y0048750D02*
X0362050Y0048740D01*
X0365170Y0076880D02*
X0365150Y0077520D01*
X0365090Y0078150D01*
X0365000Y0078780D01*
X0364860Y0079410D01*
X0364690Y0080020D01*
X0364480Y0080620D01*
X0364240Y0081210D01*
X0363960Y0081790D01*
X0363650Y0082340D01*
X0363300Y0082880D01*
X0362920Y0083390D01*
X0362510Y0083880D01*
X0362080Y0084350D01*
X0352730Y0093700D02*
X0352190Y0094210D01*
X0351630Y0094700D01*
X0351050Y0095150D01*
X0350440Y0095580D01*
X0349810Y0095980D01*
X0349170Y0096340D01*
X0348500Y0096680D01*
X0347830Y0096980D01*
X0347130Y0097250D01*
X0346430Y0097480D01*
X0345710Y0097680D01*
X0344990Y0097840D01*
X0344260Y0097970D01*
X0343520Y0098060D01*
X0342780Y0098110D01*
X0342040Y0098130D01*
X0321930Y0065630D02*
X0321950Y0066320D01*
X0322010Y0067010D01*
X0322110Y0067690D01*
X0322250Y0068370D01*
X0322420Y0069040D01*
X0322640Y0069700D01*
X0322890Y0070340D01*
X0323180Y0070970D01*
X0323510Y0071580D01*
X0323870Y0072170D01*
X0324260Y0072740D01*
X0324690Y0073280D01*
X0325140Y0073800D01*
X0325630Y0074300D01*
X0326140Y0074760D01*
X0326680Y0075190D01*
X0327250Y0075600D01*
X0327830Y0075960D01*
X0328440Y0076300D01*
X0329060Y0076600D01*
X0329700Y0076860D01*
X0330350Y0077080D01*
X0331020Y0077270D01*
X0331700Y0077420D01*
X0332380Y0077530D01*
X0333070Y0077600D01*
X0333760Y0077630D01*
X0334450Y0077620D01*
X0335140Y0077570D01*
X0335820Y0077480D01*
X0336500Y0077350D01*
X0337170Y0077180D01*
X0337840Y0076980D01*
X0338480Y0076730D01*
X0339110Y0076450D01*
X0339730Y0076140D01*
X0340320Y0075780D01*
X0340900Y0075400D01*
X0341450Y0074980D01*
X0341980Y0074530D01*
X0342480Y0074050D01*
X0342950Y0073550D01*
X0343390Y0073010D01*
X0343800Y0072460D01*
X0344180Y0071880D01*
X0344520Y0071280D01*
X0344830Y0070660D01*
X0345100Y0070020D01*
X0345330Y0069370D01*
X0345530Y0068710D01*
X0345690Y0068030D01*
X0345810Y0067350D01*
X0345890Y0066670D01*
X0345930Y0065980D01*
X0345930Y0065280D01*
X0345890Y0064590D01*
X0345810Y0063910D01*
X0345690Y0063230D01*
X0345530Y0062550D01*
X0345330Y0061890D01*
X0345100Y0061240D01*
X0344830Y0060600D01*
X0344520Y0059980D01*
X0344180Y0059380D01*
X0343800Y0058800D01*
X0343390Y0058250D01*
X0342950Y0057710D01*
X0342480Y0057210D01*
X0341980Y0056730D01*
X0341450Y0056280D01*
X0340900Y0055860D01*
X0340320Y0055480D01*
X0339730Y0055120D01*
X0339110Y0054810D01*
X0338480Y0054530D01*
X0337840Y0054280D01*
X0337170Y0054080D01*
X0336500Y0053910D01*
X0335820Y0053780D01*
X0335140Y0053690D01*
X0334450Y0053640D01*
X0333760Y0053630D01*
X0333070Y0053660D01*
X0332380Y0053730D01*
X0331700Y0053840D01*
X0331020Y0053990D01*
X0330350Y0054180D01*
X0329700Y0054400D01*
X0329060Y0054660D01*
X0328440Y0054960D01*
X0327830Y0055300D01*
X0327250Y0055660D01*
X0326680Y0056070D01*
X0326140Y0056500D01*
X0325630Y0056960D01*
X0325140Y0057460D01*
X0324690Y0057980D01*
X0324260Y0058520D01*
X0323870Y0059090D01*
X0323510Y0059680D01*
X0323180Y0060290D01*
X0322890Y0060920D01*
X0322640Y0061560D01*
X0322420Y0062220D01*
X0322250Y0062890D01*
X0322110Y0063570D01*
X0322010Y0064250D01*
X0321950Y0064940D01*
X0321930Y0065630D01*
D15*
X0314780Y0065540D02*
X0314780Y0062730D01*
X0311970Y0065540D01*
X0311270Y0065540D01*
X0310570Y0064840D01*
X0310570Y0063440D01*
X0311270Y0062730D01*
X0311270Y0060930D02*
X0310570Y0060230D01*
X0310570Y0058830D01*
X0311270Y0058130D01*
X0314080Y0058130D01*
X0314780Y0058830D01*
X0314780Y0060230D01*
X0314080Y0060930D01*
X0311270Y0060930D01*
X0310570Y0056330D02*
X0313380Y0056330D01*
X0314780Y0054930D01*
X0313380Y0053530D01*
X0310570Y0053530D01*
X0318080Y0047730D02*
X0318080Y0044930D01*
X0319480Y0043530D01*
X0320880Y0044930D01*
X0320880Y0047730D01*
X0322680Y0047030D02*
X0322680Y0044230D01*
X0323380Y0043530D01*
X0324780Y0043530D01*
X0325480Y0044230D01*
X0325480Y0047030D01*
X0324780Y0047730D01*
X0323380Y0047730D01*
X0322680Y0047030D01*
X0327280Y0047730D02*
X0330090Y0047730D01*
X0330090Y0047030D01*
X0327280Y0044230D01*
X0327280Y0043530D01*
X0312280Y0041790D02*
X0312280Y0038980D01*
X0312280Y0040390D02*
X0308070Y0040390D01*
X0309470Y0038980D01*
X0308770Y0037180D02*
X0308070Y0036480D01*
X0308070Y0035080D01*
X0308770Y0034380D01*
X0311580Y0034380D01*
X0312280Y0035080D01*
X0312280Y0036480D01*
X0311580Y0037180D01*
X0308770Y0037180D01*
X0308070Y0032580D02*
X0310880Y0032580D01*
X0312280Y0031180D01*
X0310880Y0029780D01*
X0308070Y0029780D01*
X0309320Y0025250D02*
X0313530Y0025250D01*
X0309320Y0022450D01*
X0313530Y0022450D01*
X0313530Y0020780D02*
X0313530Y0019380D01*
X0313530Y0020080D02*
X0309320Y0020080D01*
X0309320Y0019380D02*
X0309320Y0020780D01*
X0309320Y0017580D02*
X0312130Y0017580D01*
X0313530Y0016180D01*
X0312130Y0014780D01*
X0309320Y0014780D01*
X0346820Y0021030D02*
X0349630Y0021030D01*
X0351030Y0022430D01*
X0349630Y0023830D01*
X0346820Y0023830D01*
X0347520Y0025630D02*
X0350330Y0025630D01*
X0351030Y0026330D01*
X0351030Y0027730D01*
X0350330Y0028430D01*
X0347520Y0028430D01*
X0346820Y0027730D01*
X0346820Y0026330D01*
X0347520Y0025630D01*
X0347520Y0030230D02*
X0346820Y0030940D01*
X0346820Y0032340D01*
X0347520Y0033040D01*
X0348220Y0033040D01*
X0348920Y0032340D01*
X0348920Y0030940D01*
X0348220Y0030230D01*
X0347520Y0030230D01*
X0348920Y0030940D02*
X0349630Y0030230D01*
X0350330Y0030230D01*
X0351030Y0030940D01*
X0351030Y0032340D01*
X0350330Y0033040D01*
X0349630Y0033040D01*
X0348920Y0032340D01*
X0349630Y0037280D02*
X0346820Y0037280D01*
X0346820Y0040080D02*
X0349630Y0040080D01*
X0351030Y0038680D01*
X0349630Y0037280D01*
X0350330Y0041880D02*
X0347520Y0041880D01*
X0346820Y0042580D01*
X0346820Y0043980D01*
X0347520Y0044680D01*
X0350330Y0044680D01*
X0351030Y0043980D01*
X0351030Y0042580D01*
X0350330Y0041880D01*
X0350330Y0046480D02*
X0348920Y0046480D01*
X0348920Y0048590D01*
X0349630Y0049290D01*
X0350330Y0049290D01*
X0351030Y0048590D01*
X0351030Y0047190D01*
X0350330Y0046480D01*
X0348920Y0046480D02*
X0347520Y0047890D01*
X0346820Y0049290D01*
X0353070Y0059780D02*
X0355880Y0059780D01*
X0357280Y0061180D01*
X0355880Y0062580D01*
X0353070Y0062580D01*
X0353770Y0064380D02*
X0353070Y0065080D01*
X0353070Y0066480D01*
X0353770Y0067180D01*
X0356580Y0067180D01*
X0357280Y0066480D01*
X0357280Y0065080D01*
X0356580Y0064380D01*
X0353770Y0064380D01*
X0353070Y0068980D02*
X0355170Y0068980D01*
X0354470Y0070390D01*
X0354470Y0071090D01*
X0355170Y0071790D01*
X0356580Y0071790D01*
X0357280Y0071090D01*
X0357280Y0069690D01*
X0356580Y0068980D01*
X0353070Y0068980D02*
X0353070Y0071790D01*
X0346890Y0084780D02*
X0346890Y0088980D01*
X0344780Y0086880D01*
X0347590Y0086880D01*
X0342980Y0085480D02*
X0342980Y0088280D01*
X0342280Y0088980D01*
X0340880Y0088980D01*
X0340180Y0088280D01*
X0340180Y0085480D01*
X0340880Y0084780D01*
X0342280Y0084780D01*
X0342980Y0085480D01*
X0338380Y0086180D02*
X0338380Y0088980D01*
X0338380Y0086180D02*
X0336980Y0084780D01*
X0335580Y0086180D01*
X0335580Y0088980D01*
X0326030Y0087730D02*
X0326030Y0086330D01*
X0325330Y0085630D01*
X0322520Y0085630D01*
X0321820Y0086330D01*
X0321820Y0087730D01*
X0322520Y0088430D01*
X0325330Y0088430D01*
X0326030Y0087730D01*
X0325330Y0090230D02*
X0326030Y0090940D01*
X0326030Y0092340D01*
X0325330Y0093040D01*
X0324630Y0093040D01*
X0323920Y0092340D01*
X0323920Y0091640D01*
X0323920Y0092340D02*
X0323220Y0093040D01*
X0322520Y0093040D01*
X0321820Y0092340D01*
X0321820Y0090940D01*
X0322520Y0090230D01*
X0321820Y0083830D02*
X0324630Y0083830D01*
X0326030Y0082430D01*
X0324630Y0081030D01*
X0321820Y0081030D01*
X0012500Y0106880D02*
G75*
%LPD*%
D11*
X0035000Y0106880D02*
X0055000Y0106880D01*
X0055000Y0171880D01*
X0077500Y0171880D01*
X0077500Y0193130D01*
X0012500Y0193130D01*
X0012500Y0171880D01*
X0035000Y0171880D01*
X0035000Y0106880D01*
D15*
X0042890Y0108750D02*
X0045700Y0108750D01*
X0047100Y0110150D01*
X0045700Y0111550D01*
X0042890Y0111550D01*
X0042890Y0113350D02*
X0042890Y0114750D01*
X0042890Y0114050D02*
X0047100Y0114050D01*
X0047100Y0113350D02*
X0047100Y0114750D01*
X0047100Y0116420D02*
X0042890Y0116420D01*
X0047100Y0119230D01*
X0042890Y0119230D01*
X0042890Y0126030D02*
X0045700Y0126030D01*
X0047100Y0127430D01*
X0045700Y0128830D01*
X0042890Y0128830D01*
X0043590Y0130630D02*
X0046400Y0130630D01*
X0047100Y0131330D01*
X0047100Y0132730D01*
X0046400Y0133430D01*
X0043590Y0133430D01*
X0042890Y0132730D01*
X0042890Y0131330D01*
X0043590Y0130630D01*
X0044290Y0135230D02*
X0042890Y0136640D01*
X0047100Y0136640D01*
X0047100Y0138040D02*
X0047100Y0135230D01*
X0045700Y0151030D02*
X0042890Y0151030D01*
X0042890Y0153830D02*
X0045700Y0153830D01*
X0047100Y0152430D01*
X0045700Y0151030D01*
X0046400Y0155630D02*
X0043590Y0155630D01*
X0042890Y0156330D01*
X0042890Y0157730D01*
X0043590Y0158430D01*
X0046400Y0158430D01*
X0047100Y0157730D01*
X0047100Y0156330D01*
X0046400Y0155630D01*
X0047100Y0160230D02*
X0044290Y0163040D01*
X0043590Y0163040D01*
X0042890Y0162340D01*
X0042890Y0160940D01*
X0043590Y0160230D01*
X0047100Y0160230D02*
X0047100Y0163040D01*
X0060400Y0176180D02*
X0061800Y0174780D01*
X0063200Y0176180D01*
X0063200Y0178980D01*
X0065000Y0178280D02*
X0065000Y0175480D01*
X0065700Y0174780D01*
X0067100Y0174780D01*
X0067800Y0175480D01*
X0067800Y0178280D01*
X0067100Y0178980D01*
X0065700Y0178980D01*
X0065000Y0178280D01*
X0069600Y0178980D02*
X0069600Y0176880D01*
X0071010Y0177580D01*
X0071710Y0177580D01*
X0072410Y0176880D01*
X0072410Y0175480D01*
X0071710Y0174780D01*
X0070310Y0174780D01*
X0069600Y0175480D01*
X0069600Y0178980D02*
X0072410Y0178980D01*
X0060400Y0178980D02*
X0060400Y0176180D01*
X0056710Y0186030D02*
X0055310Y0186030D01*
X0054600Y0186730D01*
X0056010Y0188130D02*
X0056710Y0188130D01*
X0057410Y0187430D01*
X0057410Y0186730D01*
X0056710Y0186030D01*
X0056710Y0188130D02*
X0057410Y0188830D01*
X0057410Y0189530D01*
X0056710Y0190230D01*
X0055310Y0190230D01*
X0054600Y0189530D01*
X0052800Y0189530D02*
X0052800Y0186730D01*
X0052100Y0186030D01*
X0050700Y0186030D01*
X0050000Y0186730D01*
X0050000Y0189530D01*
X0050700Y0190230D01*
X0052100Y0190230D01*
X0052800Y0189530D01*
X0048200Y0190230D02*
X0048200Y0187430D01*
X0046800Y0186030D01*
X0045400Y0187430D01*
X0045400Y0190230D01*
X0028660Y0176880D02*
X0025850Y0176880D01*
X0027960Y0178980D01*
X0027960Y0174780D01*
X0024050Y0175480D02*
X0024050Y0178280D01*
X0023350Y0178980D01*
X0021950Y0178980D01*
X0021250Y0178280D01*
X0021250Y0175480D01*
X0021950Y0174780D01*
X0023350Y0174780D01*
X0024050Y0175480D01*
X0019450Y0176180D02*
X0019450Y0178980D01*
X0019450Y0176180D02*
X0018050Y0174780D01*
X0016650Y0176180D01*
X0016650Y0178980D01*
X0085000Y0106880D02*
G75*
%LPD*%
D11*
X0085040Y0122580D02*
X0085040Y0171950D01*
X0085000Y0172820D01*
X0085010Y0173700D01*
X0085050Y0174570D01*
X0085130Y0175440D01*
X0085240Y0176310D01*
X0085400Y0177170D01*
X0085590Y0178020D01*
X0085820Y0178870D01*
X0086080Y0179700D01*
X0086380Y0180520D01*
X0086720Y0181330D01*
X0087090Y0182120D01*
X0087500Y0182890D01*
X0087940Y0183650D01*
X0088410Y0184380D01*
X0088910Y0185100D01*
X0089450Y0185790D01*
X0090010Y0186460D01*
X0090610Y0187100D01*
X0091230Y0187720D01*
X0091870Y0188310D01*
X0092540Y0188870D01*
X0093240Y0189400D01*
X0093960Y0189900D01*
X0094700Y0190360D01*
X0095450Y0190800D01*
X0096230Y0191200D01*
X0097020Y0191570D01*
X0097830Y0191900D01*
X0098660Y0192200D01*
X0099490Y0192460D01*
X0100340Y0192680D01*
X0101190Y0192870D01*
X0102050Y0193020D01*
X0102920Y0193130D01*
X0103790Y0193200D01*
X0130670Y0193200D01*
X0130660Y0193200D02*
X0131540Y0193210D01*
X0132410Y0193180D01*
X0133280Y0193110D01*
X0134150Y0193000D01*
X0135010Y0192860D01*
X0135860Y0192680D01*
X0136710Y0192460D01*
X0137540Y0192210D01*
X0138370Y0191920D01*
X0139180Y0191590D01*
X0139970Y0191230D01*
X0140750Y0190830D01*
X0141510Y0190400D01*
X0142250Y0189940D01*
X0142970Y0189450D01*
X0143670Y0188920D01*
X0144340Y0188370D01*
X0144990Y0187780D01*
X0145610Y0187170D01*
X0146210Y0186530D01*
X0146780Y0185870D01*
X0147310Y0185180D01*
X0147820Y0184470D01*
X0148300Y0183740D01*
X0148740Y0182990D01*
X0149150Y0182220D01*
X0149530Y0181430D01*
X0149870Y0180630D01*
X0150180Y0179810D01*
X0150450Y0178980D01*
X0150680Y0178140D01*
X0150880Y0177290D01*
X0151040Y0176430D01*
X0151160Y0175570D01*
X0151240Y0174700D01*
X0151290Y0173830D01*
X0151290Y0127580D01*
X0151300Y0127580D02*
X0151340Y0126710D01*
X0151330Y0125840D01*
X0151290Y0124970D01*
X0151210Y0124100D01*
X0151090Y0123240D01*
X0150930Y0122380D01*
X0150740Y0121530D01*
X0150500Y0120690D01*
X0150230Y0119860D01*
X0149920Y0119050D01*
X0149580Y0118250D01*
X0149200Y0117460D01*
X0148780Y0116700D01*
X0148330Y0115950D01*
X0147850Y0115220D01*
X0147340Y0114520D01*
X0146790Y0113840D01*
X0146220Y0113190D01*
X0145610Y0112560D01*
X0144980Y0111960D01*
X0144320Y0111390D01*
X0143640Y0110850D01*
X0142930Y0110330D01*
X0142200Y0109860D01*
X0141460Y0109410D01*
X0140690Y0109000D01*
X0139900Y0108630D01*
X0139100Y0108290D01*
X0138280Y0107980D01*
X0137450Y0107710D01*
X0136610Y0107480D01*
X0135760Y0107290D01*
X0134900Y0107140D01*
X0134040Y0107030D01*
X0133170Y0106950D01*
X0133790Y0106950D02*
X0103790Y0106950D01*
X0102970Y0106900D01*
X0102150Y0106880D01*
X0101330Y0106900D01*
X0100510Y0106970D01*
X0099700Y0107070D01*
X0098890Y0107210D01*
X0098080Y0107390D01*
X0097290Y0107600D01*
X0096510Y0107860D01*
X0095740Y0108150D01*
X0094990Y0108470D01*
X0094250Y0108830D01*
X0093530Y0109230D01*
X0092830Y0109660D01*
X0092150Y0110130D01*
X0091500Y0110620D01*
X0090870Y0111150D01*
X0090260Y0111700D01*
X0089680Y0112290D01*
X0089130Y0112900D01*
X0088610Y0113530D01*
X0088130Y0114190D01*
X0087670Y0114870D01*
X0087240Y0115580D01*
X0086850Y0116300D01*
X0086500Y0117040D01*
X0086180Y0117800D01*
X0085890Y0118570D01*
X0085650Y0119350D01*
X0085440Y0120150D01*
X0085270Y0120950D01*
X0085130Y0121760D01*
X0085040Y0122580D01*
X0105670Y0140080D02*
X0105670Y0161330D01*
X0105780Y0162020D01*
X0105930Y0162690D01*
X0106120Y0163360D01*
X0106340Y0164020D01*
X0106600Y0164660D01*
X0106890Y0165290D01*
X0107220Y0165900D01*
X0107580Y0166490D01*
X0107980Y0167060D01*
X0108400Y0167610D01*
X0108850Y0168130D01*
X0109340Y0168630D01*
X0109850Y0169100D01*
X0110380Y0169540D01*
X0110940Y0169950D01*
X0111520Y0170330D01*
X0112120Y0170680D01*
X0112730Y0170990D01*
X0113370Y0171270D01*
X0114020Y0171520D01*
X0114680Y0171730D01*
X0115350Y0171900D01*
X0116030Y0172030D01*
X0116710Y0172130D01*
X0117410Y0172190D01*
X0118100Y0172210D01*
X0118790Y0172190D01*
X0119480Y0172140D01*
X0120170Y0172040D01*
X0120850Y0171910D01*
X0121520Y0171740D01*
X0122180Y0171540D01*
X0122830Y0171300D01*
X0123470Y0171020D01*
X0124090Y0170710D01*
X0124690Y0170360D01*
X0125270Y0169990D01*
X0125830Y0169580D01*
X0126370Y0169140D01*
X0126880Y0168670D01*
X0127360Y0168180D01*
X0127820Y0167650D01*
X0128250Y0167110D01*
X0128640Y0166540D01*
X0129010Y0165950D01*
X0129340Y0165340D01*
X0129640Y0164720D01*
X0129900Y0164080D01*
X0130130Y0163420D01*
X0130320Y0162750D01*
X0130470Y0162080D01*
X0130590Y0161390D01*
X0130660Y0160710D01*
X0130670Y0160700D02*
X0130670Y0139450D01*
X0130660Y0139450D02*
X0130550Y0138760D01*
X0130400Y0138090D01*
X0130210Y0137420D01*
X0129990Y0136760D01*
X0129730Y0136120D01*
X0129440Y0135490D01*
X0129110Y0134880D01*
X0128750Y0134290D01*
X0128350Y0133720D01*
X0127930Y0133170D01*
X0127480Y0132650D01*
X0126990Y0132150D01*
X0126480Y0131680D01*
X0125950Y0131240D01*
X0125390Y0130830D01*
X0124810Y0130450D01*
X0124210Y0130100D01*
X0123600Y0129790D01*
X0122960Y0129510D01*
X0122310Y0129260D01*
X0121650Y0129050D01*
X0120980Y0128880D01*
X0120300Y0128750D01*
X0119620Y0128650D01*
X0118920Y0128590D01*
X0118230Y0128570D01*
X0117540Y0128590D01*
X0116850Y0128640D01*
X0116160Y0128740D01*
X0115480Y0128870D01*
X0114810Y0129040D01*
X0114150Y0129240D01*
X0113500Y0129480D01*
X0112860Y0129760D01*
X0112240Y0130070D01*
X0111640Y0130420D01*
X0111060Y0130790D01*
X0110500Y0131200D01*
X0109960Y0131640D01*
X0109450Y0132110D01*
X0108970Y0132600D01*
X0108510Y0133130D01*
X0108080Y0133670D01*
X0107690Y0134240D01*
X0107320Y0134830D01*
X0106990Y0135440D01*
X0106690Y0136060D01*
X0106430Y0136700D01*
X0106200Y0137360D01*
X0106010Y0138030D01*
X0105860Y0138700D01*
X0105740Y0139390D01*
X0105670Y0140070D01*
D15*
X0096520Y0139840D02*
X0092310Y0139840D01*
X0093710Y0138430D01*
X0093010Y0136630D02*
X0092310Y0135930D01*
X0092310Y0134530D01*
X0093010Y0133830D01*
X0095820Y0133830D01*
X0096520Y0134530D01*
X0096520Y0135930D01*
X0095820Y0136630D01*
X0093010Y0136630D01*
X0096520Y0138430D02*
X0096520Y0141240D01*
X0095120Y0132030D02*
X0092310Y0132030D01*
X0092310Y0129230D02*
X0095120Y0129230D01*
X0096520Y0130630D01*
X0095120Y0132030D01*
X0101070Y0118430D02*
X0101070Y0115630D01*
X0102470Y0114230D01*
X0103870Y0115630D01*
X0103870Y0118430D01*
X0105670Y0117730D02*
X0105670Y0114930D01*
X0106370Y0114230D01*
X0107770Y0114230D01*
X0108470Y0114930D01*
X0108470Y0117730D01*
X0107770Y0118430D01*
X0106370Y0118430D01*
X0105670Y0117730D01*
X0110270Y0117730D02*
X0110270Y0117030D01*
X0110980Y0116330D01*
X0112380Y0116330D01*
X0113080Y0115630D01*
X0113080Y0114930D01*
X0112380Y0114230D01*
X0110980Y0114230D01*
X0110270Y0114930D01*
X0110270Y0115630D01*
X0110980Y0116330D01*
X0112380Y0116330D02*
X0113080Y0117030D01*
X0113080Y0117730D01*
X0112380Y0118430D01*
X0110980Y0118430D01*
X0110270Y0117730D01*
X0113940Y0121730D02*
X0115340Y0123130D01*
X0115340Y0125930D01*
X0117140Y0125930D02*
X0118540Y0125930D01*
X0117840Y0125930D02*
X0117840Y0121730D01*
X0117140Y0121730D02*
X0118540Y0121730D01*
X0120210Y0121730D02*
X0120210Y0125930D01*
X0123020Y0121730D01*
X0123020Y0125930D01*
X0127460Y0119260D02*
X0128860Y0116840D01*
X0130780Y0116320D01*
X0131290Y0118240D01*
X0129890Y0120660D01*
X0131800Y0120960D02*
X0133200Y0118530D01*
X0134160Y0118280D01*
X0135370Y0118980D01*
X0135630Y0119930D01*
X0134230Y0122360D01*
X0133270Y0122620D01*
X0132060Y0121920D01*
X0131800Y0120960D01*
X0135440Y0123870D02*
X0137860Y0125270D01*
X0138210Y0124660D01*
X0137190Y0120830D01*
X0137540Y0120230D01*
X0139810Y0136730D02*
X0142620Y0136730D01*
X0144020Y0138130D01*
X0142620Y0139530D01*
X0139810Y0139530D01*
X0140510Y0141330D02*
X0143320Y0141330D01*
X0144020Y0142030D01*
X0144020Y0143430D01*
X0143320Y0144130D01*
X0140510Y0144130D01*
X0139810Y0143430D01*
X0139810Y0142030D01*
X0140510Y0141330D01*
X0141910Y0145930D02*
X0141910Y0148040D01*
X0142620Y0148740D01*
X0143320Y0148740D01*
X0144020Y0148040D01*
X0144020Y0146640D01*
X0143320Y0145930D01*
X0141910Y0145930D01*
X0140510Y0147340D01*
X0139810Y0148740D01*
X0139810Y0159230D02*
X0142620Y0159230D01*
X0144020Y0160630D01*
X0142620Y0162030D01*
X0139810Y0162030D01*
X0140510Y0163830D02*
X0139810Y0164530D01*
X0139810Y0165930D01*
X0140510Y0166630D01*
X0143320Y0166630D01*
X0144020Y0165930D01*
X0144020Y0164530D01*
X0143320Y0163830D01*
X0140510Y0163830D01*
X0139810Y0168430D02*
X0141910Y0168430D01*
X0141210Y0169840D01*
X0141210Y0170540D01*
X0141910Y0171240D01*
X0143320Y0171240D01*
X0144020Y0170540D01*
X0144020Y0169140D01*
X0143320Y0168430D01*
X0139810Y0168430D02*
X0139810Y0171240D01*
X0135500Y0180480D02*
X0135500Y0184680D01*
X0133400Y0182580D01*
X0136200Y0182580D01*
X0131600Y0181180D02*
X0131600Y0183980D01*
X0130900Y0184680D01*
X0129500Y0184680D01*
X0128800Y0183980D01*
X0128800Y0181180D01*
X0129500Y0180480D01*
X0130900Y0180480D01*
X0131600Y0181180D01*
X0126990Y0181880D02*
X0126990Y0184680D01*
X0124190Y0184680D02*
X0124190Y0181880D01*
X0125590Y0180480D01*
X0126990Y0181880D01*
X0109610Y0180980D02*
X0109360Y0180030D01*
X0108140Y0179330D01*
X0107190Y0179580D01*
X0105630Y0178680D02*
X0104230Y0181110D01*
X0103270Y0181370D01*
X0102060Y0180670D01*
X0101800Y0179710D01*
X0103200Y0177280D01*
X0104160Y0177030D01*
X0105370Y0177730D01*
X0105630Y0178680D01*
X0105790Y0182010D02*
X0106040Y0182970D01*
X0107260Y0183670D01*
X0108210Y0183410D01*
X0108560Y0182810D01*
X0108310Y0181850D01*
X0109260Y0181590D01*
X0109610Y0180980D01*
X0108310Y0181850D02*
X0107700Y0181500D01*
X0101290Y0176990D02*
X0100780Y0175070D01*
X0098860Y0175590D01*
X0097460Y0178010D01*
X0099890Y0179410D02*
X0101290Y0176990D01*
X0096520Y0163740D02*
X0096520Y0160930D01*
X0093710Y0163740D01*
X0093010Y0163740D01*
X0092310Y0163040D01*
X0092310Y0161640D01*
X0093010Y0160930D01*
X0093010Y0159130D02*
X0092310Y0158430D01*
X0092310Y0157030D01*
X0093010Y0156330D01*
X0095820Y0156330D01*
X0096520Y0157030D01*
X0096520Y0158430D01*
X0095820Y0159130D01*
X0093010Y0159130D01*
X0092310Y0154530D02*
X0095120Y0154530D01*
X0096520Y0153130D01*
X0095120Y0151730D01*
X0092310Y0151730D01*
X0112540Y0125930D02*
X0112540Y0123130D01*
X0113940Y0121730D01*
X0158840Y0106880D02*
G75*
%LPD*%
D11*
X0158850Y0114890D02*
X0158850Y0186470D01*
X0158870Y0186920D01*
X0158920Y0187360D01*
X0159020Y0187800D01*
X0159140Y0188230D01*
X0159310Y0188640D01*
X0159500Y0189040D01*
X0159730Y0189430D01*
X0159990Y0189790D01*
X0160280Y0190130D01*
X0160600Y0190450D01*
X0160940Y0190740D01*
X0161300Y0191000D01*
X0161690Y0191230D01*
X0162090Y0191420D01*
X0162500Y0191590D01*
X0162930Y0191710D01*
X0163370Y0191810D01*
X0163810Y0191860D01*
X0164260Y0191880D01*
X0164260Y0191890D02*
X0173650Y0191890D01*
X0174110Y0191850D01*
X0174560Y0191760D01*
X0175000Y0191650D01*
X0175430Y0191490D01*
X0175840Y0191300D01*
X0176240Y0191080D01*
X0176620Y0190820D01*
X0176970Y0190540D01*
X0177300Y0190220D01*
X0177610Y0189880D01*
X0177880Y0189520D01*
X0178120Y0189130D01*
X0178340Y0188730D01*
X0178510Y0188310D01*
X0178650Y0187870D01*
X0178760Y0187430D01*
X0178830Y0186980D01*
X0178860Y0186520D01*
X0178850Y0186070D01*
X0178850Y0151260D01*
X0178840Y0151260D02*
X0178830Y0150900D01*
X0178850Y0150540D01*
X0178910Y0150190D01*
X0179010Y0149840D01*
X0179140Y0149510D01*
X0179300Y0149190D01*
X0179500Y0148890D01*
X0179730Y0148610D01*
X0179980Y0148350D01*
X0180260Y0148130D01*
X0180560Y0147930D01*
X0180870Y0147760D01*
X0181210Y0147630D01*
X0181550Y0147530D01*
X0181910Y0147470D01*
X0182270Y0147440D01*
X0182630Y0147450D01*
X0182980Y0147500D01*
X0183330Y0147580D01*
X0183670Y0147700D01*
X0184000Y0147860D01*
X0184300Y0148040D01*
X0184590Y0148260D01*
X0190020Y0154940D01*
X0190220Y0155120D01*
X0190450Y0155260D01*
X0190690Y0155370D01*
X0190950Y0155450D01*
X0191220Y0155490D01*
X0191480Y0155490D01*
X0191750Y0155450D01*
X0192010Y0155370D01*
X0192250Y0155260D01*
X0192480Y0155120D01*
X0192680Y0154940D01*
X0192670Y0154940D02*
X0198200Y0148160D01*
X0198430Y0147930D01*
X0198680Y0147730D01*
X0198960Y0147560D01*
X0199250Y0147430D01*
X0199560Y0147320D01*
X0199880Y0147260D01*
X0200200Y0147220D01*
X0200520Y0147230D01*
X0200850Y0147270D01*
X0201160Y0147340D01*
X0201470Y0147450D01*
X0201760Y0147600D01*
X0202030Y0147770D01*
X0202280Y0147980D01*
X0202510Y0148210D01*
X0202710Y0148460D01*
X0202880Y0148740D01*
X0203010Y0149030D01*
X0203120Y0149340D01*
X0203180Y0149660D01*
X0203220Y0149980D01*
X0203220Y0186600D01*
X0203230Y0186600D02*
X0203250Y0187040D01*
X0203300Y0187470D01*
X0203390Y0187900D01*
X0203520Y0188310D01*
X0203670Y0188720D01*
X0203870Y0189110D01*
X0204090Y0189490D01*
X0204340Y0189840D01*
X0204630Y0190180D01*
X0204930Y0190480D01*
X0205270Y0190770D01*
X0205620Y0191020D01*
X0206000Y0191240D01*
X0206390Y0191440D01*
X0206800Y0191590D01*
X0207210Y0191720D01*
X0207640Y0191810D01*
X0208070Y0191860D01*
X0208510Y0191880D01*
X0208510Y0191890D02*
X0217940Y0191890D01*
X0217940Y0191880D02*
X0218400Y0191840D01*
X0218860Y0191750D01*
X0219310Y0191630D01*
X0219740Y0191480D01*
X0220160Y0191280D01*
X0220570Y0191060D01*
X0220950Y0190800D01*
X0221310Y0190510D01*
X0221650Y0190190D01*
X0221960Y0189850D01*
X0222230Y0189480D01*
X0222480Y0189090D01*
X0222700Y0188680D01*
X0222880Y0188250D01*
X0223020Y0187810D01*
X0223130Y0187360D01*
X0223200Y0186900D01*
X0223230Y0186440D01*
X0223220Y0185980D01*
X0223220Y0114620D01*
X0216740Y0106890D02*
X0208370Y0106890D01*
X0201790Y0110820D02*
X0192150Y0122330D01*
X0192160Y0122340D02*
X0192060Y0122410D01*
X0191950Y0122470D01*
X0191830Y0122510D01*
X0191710Y0122520D01*
X0190460Y0122250D02*
X0181300Y0111220D01*
X0173760Y0106890D02*
X0166230Y0106890D01*
X0165680Y0106930D01*
X0165140Y0107010D01*
X0164600Y0107130D01*
X0164070Y0107290D01*
X0163560Y0107480D01*
X0163060Y0107710D01*
X0162580Y0107980D01*
X0162120Y0108280D01*
X0161680Y0108610D01*
X0161270Y0108970D01*
X0160880Y0109360D01*
X0160520Y0109780D01*
X0160190Y0110220D01*
X0159900Y0110680D01*
X0159640Y0111170D01*
X0159410Y0111670D01*
X0159220Y0112180D01*
X0159070Y0112710D01*
X0158960Y0113250D01*
X0158880Y0113790D01*
X0158840Y0114340D01*
X0158850Y0114890D01*
X0173760Y0106880D02*
X0174390Y0106980D01*
X0175010Y0107120D01*
X0175620Y0107290D01*
X0176230Y0107490D01*
X0176820Y0107730D01*
X0177400Y0108000D01*
X0177960Y0108300D01*
X0178500Y0108630D01*
X0179030Y0108990D01*
X0179530Y0109390D01*
X0180010Y0109810D01*
X0180470Y0110250D01*
X0180900Y0110720D01*
X0181300Y0111220D01*
X0190460Y0122250D02*
X0190650Y0122360D01*
X0190850Y0122450D01*
X0191060Y0122510D01*
X0191280Y0122540D01*
X0191500Y0122540D01*
X0191710Y0122510D01*
X0201790Y0110820D02*
X0202160Y0110340D01*
X0202570Y0109890D01*
X0203000Y0109470D01*
X0203450Y0109070D01*
X0203930Y0108700D01*
X0204430Y0108360D01*
X0204950Y0108050D01*
X0205480Y0107770D01*
X0206040Y0107520D01*
X0206600Y0107310D01*
X0207180Y0107130D01*
X0207770Y0106990D01*
X0208360Y0106890D01*
X0216740Y0106890D02*
X0217250Y0106950D01*
X0217750Y0107050D01*
X0218240Y0107180D01*
X0218720Y0107350D01*
X0219190Y0107550D01*
X0219640Y0107790D01*
X0220070Y0108060D01*
X0220490Y0108350D01*
X0220880Y0108680D01*
X0221240Y0109030D01*
X0221580Y0109410D01*
X0221900Y0109810D01*
X0222180Y0110230D01*
X0222430Y0110680D01*
X0222650Y0111130D01*
X0222840Y0111610D01*
X0222990Y0112090D01*
X0223110Y0112590D01*
X0223190Y0113090D01*
X0223240Y0113600D01*
X0223250Y0114110D01*
X0223220Y0114610D01*
D15*
X0213450Y0119940D02*
X0212050Y0121340D01*
X0209240Y0121340D01*
X0209940Y0123140D02*
X0212750Y0123140D01*
X0213450Y0123840D01*
X0213450Y0125240D01*
X0212750Y0125940D01*
X0209940Y0125940D01*
X0209240Y0125240D01*
X0209240Y0123840D01*
X0209940Y0123140D01*
X0213450Y0119940D02*
X0212050Y0118540D01*
X0209240Y0118540D01*
X0209240Y0127740D02*
X0211340Y0127740D01*
X0210640Y0129150D01*
X0210640Y0129850D01*
X0211340Y0130550D01*
X0212750Y0130550D01*
X0213450Y0129850D01*
X0213450Y0128450D01*
X0212750Y0127740D01*
X0209240Y0127740D02*
X0209240Y0130550D01*
X0202510Y0131890D02*
X0199700Y0131890D01*
X0201810Y0133990D01*
X0201810Y0129790D01*
X0197900Y0130490D02*
X0197900Y0133290D01*
X0197200Y0133990D01*
X0195800Y0133990D01*
X0195100Y0133290D01*
X0195100Y0130490D01*
X0195800Y0129790D01*
X0197200Y0129790D01*
X0197900Y0130490D01*
X0193300Y0131190D02*
X0193300Y0133990D01*
X0193300Y0131190D02*
X0191900Y0129790D01*
X0190500Y0131190D01*
X0190500Y0133990D01*
X0182600Y0125690D02*
X0183090Y0125190D01*
X0183090Y0124200D01*
X0182100Y0123210D01*
X0181110Y0123210D01*
X0179840Y0121930D02*
X0177860Y0123920D01*
X0176870Y0123920D01*
X0175880Y0122930D01*
X0175880Y0121930D01*
X0177860Y0119950D01*
X0178850Y0119950D01*
X0179840Y0120940D01*
X0179840Y0121930D01*
X0179130Y0125190D02*
X0179130Y0126180D01*
X0180120Y0127170D01*
X0181110Y0127170D01*
X0181610Y0126680D01*
X0181610Y0125690D01*
X0182600Y0125690D01*
X0181610Y0125690D02*
X0181110Y0125190D01*
X0176090Y0119170D02*
X0174110Y0121160D01*
X0176090Y0119170D02*
X0176090Y0117190D01*
X0174110Y0117190D01*
X0172120Y0119170D01*
X0169550Y0128540D02*
X0166740Y0128540D01*
X0166740Y0131340D02*
X0169550Y0131340D01*
X0170950Y0129940D01*
X0169550Y0128540D01*
X0170250Y0133140D02*
X0167440Y0133140D01*
X0166740Y0133840D01*
X0166740Y0135240D01*
X0167440Y0135940D01*
X0170250Y0135940D01*
X0170950Y0135240D01*
X0170950Y0133840D01*
X0170250Y0133140D01*
X0170950Y0137740D02*
X0168140Y0140550D01*
X0167440Y0140550D01*
X0166740Y0139850D01*
X0166740Y0138450D01*
X0167440Y0137740D01*
X0170950Y0137740D02*
X0170950Y0140550D01*
X0169550Y0158540D02*
X0166740Y0158540D01*
X0166740Y0161340D02*
X0169550Y0161340D01*
X0170950Y0159940D01*
X0169550Y0158540D01*
X0170250Y0163140D02*
X0167440Y0163140D01*
X0166740Y0163840D01*
X0166740Y0165240D01*
X0167440Y0165940D01*
X0170250Y0165940D01*
X0170950Y0165240D01*
X0170950Y0163840D01*
X0170250Y0163140D01*
X0170950Y0167740D02*
X0170950Y0170550D01*
X0170950Y0169150D02*
X0166740Y0169150D01*
X0168140Y0167740D01*
X0167990Y0178540D02*
X0170800Y0178540D01*
X0172200Y0179940D01*
X0170800Y0181340D01*
X0167990Y0181340D01*
X0167990Y0183140D02*
X0167990Y0184540D01*
X0167990Y0183840D02*
X0172200Y0183840D01*
X0172200Y0183140D02*
X0172200Y0184540D01*
X0172200Y0186210D02*
X0167990Y0186210D01*
X0172200Y0189010D01*
X0167990Y0189010D01*
X0209240Y0189300D02*
X0209240Y0186490D01*
X0209940Y0184690D02*
X0209240Y0183990D01*
X0209240Y0182590D01*
X0209940Y0181890D01*
X0212750Y0181890D01*
X0213450Y0182590D01*
X0213450Y0183990D01*
X0212750Y0184690D01*
X0209940Y0184690D01*
X0212750Y0186490D02*
X0213450Y0186490D01*
X0212750Y0186490D02*
X0209940Y0189300D01*
X0209240Y0189300D01*
X0209240Y0180090D02*
X0212050Y0180090D01*
X0213450Y0178690D01*
X0212050Y0177290D01*
X0209240Y0177290D01*
X0209240Y0160550D02*
X0209940Y0159150D01*
X0211340Y0157740D01*
X0211340Y0159850D01*
X0212050Y0160550D01*
X0212750Y0160550D01*
X0213450Y0159850D01*
X0213450Y0158450D01*
X0212750Y0157740D01*
X0211340Y0157740D01*
X0209940Y0155940D02*
X0209240Y0155240D01*
X0209240Y0153840D01*
X0209940Y0153140D01*
X0212750Y0153140D01*
X0213450Y0153840D01*
X0213450Y0155240D01*
X0212750Y0155940D01*
X0209940Y0155940D01*
X0209240Y0151340D02*
X0212050Y0151340D01*
X0213450Y0149940D01*
X0212050Y0148540D01*
X0209240Y0148540D01*
X0230750Y0106880D02*
G75*
%LPD*%
D11*
X0238280Y0106890D02*
X0290400Y0106890D01*
X0290400Y0106880D02*
X0290720Y0106900D01*
X0291040Y0106950D01*
X0291350Y0107040D01*
X0291650Y0107170D01*
X0291930Y0107320D01*
X0292200Y0107510D01*
X0292440Y0107720D01*
X0292650Y0107960D01*
X0292840Y0108230D01*
X0292990Y0108510D01*
X0293120Y0108810D01*
X0293210Y0109120D01*
X0293260Y0109440D01*
X0293280Y0109760D01*
X0293280Y0122140D01*
X0293270Y0122130D02*
X0293220Y0122460D01*
X0293140Y0122790D01*
X0293020Y0123100D01*
X0292870Y0123400D01*
X0292690Y0123680D01*
X0292480Y0123940D01*
X0292250Y0124180D01*
X0291990Y0124400D01*
X0291710Y0124580D01*
X0291410Y0124730D01*
X0291100Y0124860D01*
X0290780Y0124950D01*
X0290450Y0125000D01*
X0290110Y0125020D01*
X0289780Y0125000D01*
X0289780Y0125010D02*
X0256400Y0125010D01*
X0256030Y0125000D01*
X0255650Y0125020D01*
X0255280Y0125080D01*
X0254920Y0125170D01*
X0254560Y0125300D01*
X0254220Y0125460D01*
X0253890Y0125640D01*
X0253590Y0125860D01*
X0253300Y0126110D01*
X0253040Y0126380D01*
X0252800Y0126670D01*
X0252600Y0126980D01*
X0252420Y0127310D01*
X0252270Y0127660D01*
X0252160Y0128020D01*
X0252080Y0128380D01*
X0252030Y0128760D01*
X0252030Y0140010D01*
X0252080Y0140330D01*
X0252170Y0140630D01*
X0252290Y0140920D01*
X0252440Y0141200D01*
X0252620Y0141460D01*
X0252840Y0141700D01*
X0253070Y0141910D01*
X0253330Y0142090D01*
X0253610Y0142250D01*
X0253900Y0142370D01*
X0254210Y0142460D01*
X0254520Y0142510D01*
X0254840Y0142530D01*
X0255150Y0142510D01*
X0269780Y0142510D01*
X0269780Y0142520D02*
X0270090Y0142500D01*
X0270400Y0142520D01*
X0270710Y0142570D01*
X0271000Y0142670D01*
X0271290Y0142790D01*
X0271550Y0142960D01*
X0271800Y0143150D01*
X0272020Y0143370D01*
X0272210Y0143610D01*
X0272370Y0143880D01*
X0272500Y0144160D01*
X0272590Y0144460D01*
X0272650Y0144770D01*
X0272650Y0144760D02*
X0272650Y0152750D01*
X0272640Y0152750D02*
X0272660Y0153080D01*
X0272640Y0153420D01*
X0272580Y0153750D01*
X0272500Y0154070D01*
X0272370Y0154390D01*
X0272220Y0154690D01*
X0272030Y0154970D01*
X0271820Y0155230D01*
X0271580Y0155460D01*
X0271320Y0155670D01*
X0271030Y0155850D01*
X0270730Y0156000D01*
X0270420Y0156120D01*
X0270090Y0156200D01*
X0269760Y0156250D01*
X0269770Y0156260D02*
X0254420Y0156260D01*
X0254420Y0156270D02*
X0254120Y0156320D01*
X0253820Y0156410D01*
X0253540Y0156520D01*
X0253280Y0156670D01*
X0253030Y0156850D01*
X0252800Y0157050D01*
X0252600Y0157280D01*
X0252420Y0157530D01*
X0252280Y0157800D01*
X0252160Y0158080D01*
X0252080Y0158370D01*
X0252030Y0158670D01*
X0252010Y0158980D01*
X0252030Y0159280D01*
X0252030Y0169760D01*
X0252050Y0170150D01*
X0252110Y0170540D01*
X0252200Y0170920D01*
X0252330Y0171290D01*
X0252500Y0171650D01*
X0252700Y0171980D01*
X0252940Y0172300D01*
X0253200Y0172590D01*
X0253490Y0172850D01*
X0253810Y0173090D01*
X0254140Y0173290D01*
X0254500Y0173460D01*
X0254870Y0173590D01*
X0255250Y0173680D01*
X0255640Y0173740D01*
X0256030Y0173760D01*
X0286010Y0173760D01*
X0286550Y0173840D01*
X0287080Y0173970D01*
X0287600Y0174130D01*
X0288110Y0174330D01*
X0288600Y0174560D01*
X0289070Y0174830D01*
X0289530Y0175130D01*
X0289960Y0175470D01*
X0290360Y0175830D01*
X0290740Y0176220D01*
X0291090Y0176640D01*
X0291410Y0177080D01*
X0291700Y0177550D01*
X0291960Y0178030D01*
X0292170Y0178530D01*
X0292360Y0179040D01*
X0292500Y0179570D01*
X0292610Y0180100D01*
X0292680Y0180640D01*
X0292710Y0181190D01*
X0292700Y0181730D01*
X0292650Y0182280D01*
X0292650Y0183880D01*
X0292680Y0184400D01*
X0292670Y0184930D01*
X0292620Y0185460D01*
X0292530Y0185980D01*
X0292410Y0186490D01*
X0292250Y0187000D01*
X0292050Y0187490D01*
X0291820Y0187970D01*
X0291560Y0188420D01*
X0291260Y0188860D01*
X0290930Y0189280D01*
X0290580Y0189670D01*
X0290200Y0190040D01*
X0289790Y0190370D01*
X0289360Y0190680D01*
X0288910Y0190960D01*
X0288440Y0191200D01*
X0287950Y0191410D01*
X0287450Y0191580D01*
X0286940Y0191720D01*
X0286420Y0191820D01*
X0285890Y0191880D01*
X0285890Y0191890D02*
X0237030Y0191890D01*
X0237030Y0191880D02*
X0236510Y0191820D01*
X0236010Y0191710D01*
X0235510Y0191570D01*
X0235030Y0191390D01*
X0234560Y0191180D01*
X0234110Y0190930D01*
X0233670Y0190650D01*
X0233260Y0190340D01*
X0232880Y0189990D01*
X0232520Y0189620D01*
X0232190Y0189230D01*
X0231890Y0188810D01*
X0231620Y0188360D01*
X0231390Y0187900D01*
X0231190Y0187430D01*
X0231030Y0186940D01*
X0230900Y0186440D01*
X0230810Y0185930D01*
X0230760Y0185420D01*
X0230750Y0184900D01*
X0230780Y0184390D01*
X0230780Y0114390D01*
X0230800Y0113850D01*
X0230860Y0113320D01*
X0230950Y0112800D01*
X0231080Y0112280D01*
X0231250Y0111770D01*
X0231460Y0111270D01*
X0231700Y0110800D01*
X0231970Y0110340D01*
X0232280Y0109900D01*
X0232610Y0109480D01*
X0232980Y0109090D01*
X0233370Y0108720D01*
X0233790Y0108390D01*
X0234230Y0108080D01*
X0234690Y0107810D01*
X0235160Y0107570D01*
X0235660Y0107360D01*
X0236170Y0107190D01*
X0236690Y0107060D01*
X0237210Y0106970D01*
X0237740Y0106910D01*
X0238280Y0106890D01*
D15*
X0237580Y0112290D02*
X0236180Y0113690D01*
X0236180Y0116490D01*
X0238980Y0116490D02*
X0238980Y0113690D01*
X0237580Y0112290D01*
X0240780Y0112990D02*
X0240780Y0115790D01*
X0241480Y0116490D01*
X0242880Y0116490D01*
X0243580Y0115790D01*
X0243580Y0112990D01*
X0242880Y0112290D01*
X0241480Y0112290D01*
X0240780Y0112990D01*
X0245380Y0112290D02*
X0248190Y0115090D01*
X0248190Y0115790D01*
X0247490Y0116490D01*
X0246090Y0116490D01*
X0245380Y0115790D01*
X0245380Y0112290D02*
X0248190Y0112290D01*
X0261180Y0113690D02*
X0262580Y0112290D01*
X0263980Y0113690D01*
X0263980Y0116490D01*
X0265780Y0115790D02*
X0265780Y0112990D01*
X0266480Y0112290D01*
X0267880Y0112290D01*
X0268580Y0112990D01*
X0268580Y0115790D01*
X0267880Y0116490D01*
X0266480Y0116490D01*
X0265780Y0115790D01*
X0261180Y0116490D02*
X0261180Y0113690D01*
X0270380Y0115090D02*
X0271790Y0116490D01*
X0271790Y0112290D01*
X0273190Y0112290D02*
X0270380Y0112290D01*
X0279930Y0116190D02*
X0281330Y0114790D01*
X0282730Y0116190D01*
X0282730Y0118990D01*
X0284530Y0118990D02*
X0285930Y0118990D01*
X0285230Y0118990D02*
X0285230Y0114790D01*
X0284530Y0114790D02*
X0285930Y0114790D01*
X0287600Y0114790D02*
X0287600Y0118990D01*
X0290400Y0114790D01*
X0290400Y0118990D01*
X0279930Y0118990D02*
X0279930Y0116190D01*
X0260320Y0147290D02*
X0260320Y0147990D01*
X0263130Y0150790D01*
X0263130Y0151490D01*
X0260320Y0151490D01*
X0258520Y0150790D02*
X0257820Y0151490D01*
X0256420Y0151490D01*
X0255720Y0150790D01*
X0255720Y0147990D01*
X0256420Y0147290D01*
X0257820Y0147290D01*
X0258520Y0147990D01*
X0258520Y0150790D01*
X0253920Y0151490D02*
X0253920Y0148690D01*
X0252520Y0147290D01*
X0251110Y0148690D01*
X0251110Y0151490D01*
X0245380Y0147350D02*
X0245380Y0145950D01*
X0244680Y0145240D01*
X0244680Y0143440D02*
X0241870Y0143440D01*
X0241170Y0142740D01*
X0241170Y0141340D01*
X0241870Y0140640D01*
X0244680Y0140640D01*
X0245380Y0141340D01*
X0245380Y0142740D01*
X0244680Y0143440D01*
X0241870Y0145240D02*
X0241170Y0145950D01*
X0241170Y0147350D01*
X0241870Y0148050D01*
X0242570Y0148050D01*
X0243270Y0147350D01*
X0243980Y0148050D01*
X0244680Y0148050D01*
X0245380Y0147350D01*
X0243270Y0147350D02*
X0243270Y0146650D01*
X0243980Y0138840D02*
X0241170Y0138840D01*
X0241170Y0136040D02*
X0243980Y0136040D01*
X0245380Y0137440D01*
X0243980Y0138840D01*
X0243980Y0166040D02*
X0241170Y0166040D01*
X0241170Y0168840D02*
X0243980Y0168840D01*
X0245380Y0167440D01*
X0243980Y0166040D01*
X0244680Y0170640D02*
X0241870Y0170640D01*
X0241170Y0171340D01*
X0241170Y0172740D01*
X0241870Y0173440D01*
X0244680Y0173440D01*
X0245380Y0172740D01*
X0245380Y0171340D01*
X0244680Y0170640D01*
X0243270Y0175240D02*
X0243270Y0178050D01*
X0241170Y0177350D02*
X0245380Y0177350D01*
X0243270Y0175240D02*
X0241170Y0177350D01*
X0251180Y0181190D02*
X0252580Y0179790D01*
X0253980Y0181190D01*
X0253980Y0183990D01*
X0255780Y0183290D02*
X0255780Y0180490D01*
X0256480Y0179790D01*
X0257880Y0179790D01*
X0258580Y0180490D01*
X0258580Y0183290D01*
X0257880Y0183990D01*
X0256480Y0183990D01*
X0255780Y0183290D01*
X0251180Y0183990D02*
X0251180Y0181190D01*
X0260380Y0181890D02*
X0261790Y0182590D01*
X0262490Y0182590D01*
X0263190Y0181890D01*
X0263190Y0180490D01*
X0262490Y0179790D01*
X0261090Y0179790D01*
X0260380Y0180490D01*
X0260380Y0181890D02*
X0260380Y0183990D01*
X0263190Y0183990D01*
X0277430Y0183990D02*
X0277430Y0181190D01*
X0278830Y0179790D01*
X0280230Y0181190D01*
X0280230Y0183990D01*
X0282030Y0183290D02*
X0282030Y0180490D01*
X0282730Y0179790D01*
X0284130Y0179790D01*
X0284830Y0180490D01*
X0284830Y0183290D01*
X0284130Y0183990D01*
X0282730Y0183990D01*
X0282030Y0183290D01*
X0286630Y0181890D02*
X0286630Y0180490D01*
X0287340Y0179790D01*
X0288740Y0179790D01*
X0289440Y0180490D01*
X0289440Y0181190D01*
X0288740Y0181890D01*
X0286630Y0181890D01*
X0288040Y0183290D01*
X0289440Y0183990D01*
X0300780Y0106880D02*
G75*
%LPD*%
D11*
X0303590Y0106880D02*
X0316840Y0106880D01*
X0317240Y0106930D01*
X0317620Y0107010D01*
X0318000Y0107130D01*
X0318360Y0107280D01*
X0318710Y0107470D01*
X0319040Y0107690D01*
X0319350Y0107930D01*
X0319640Y0108210D01*
X0319900Y0108510D01*
X0320120Y0108830D01*
X0320320Y0109170D01*
X0320490Y0109530D01*
X0320620Y0109900D01*
X0320720Y0110280D01*
X0320780Y0110670D01*
X0320810Y0111070D01*
X0320800Y0111460D01*
X0320800Y0123170D01*
X0320820Y0123630D01*
X0320880Y0124090D01*
X0320970Y0124540D01*
X0321100Y0124990D01*
X0321270Y0125420D01*
X0321470Y0125830D01*
X0321710Y0126230D01*
X0321980Y0126600D01*
X0322280Y0126960D01*
X0322600Y0127280D01*
X0322960Y0127580D01*
X0323330Y0127850D01*
X0323730Y0128090D01*
X0324140Y0128290D01*
X0324570Y0128460D01*
X0325020Y0128590D01*
X0325470Y0128680D01*
X0325930Y0128740D01*
X0326390Y0128760D01*
X0329280Y0128760D01*
X0333720Y0126560D02*
X0346750Y0109530D01*
X0350840Y0106880D02*
X0361010Y0106880D01*
X0361380Y0106900D01*
X0361750Y0106960D01*
X0362100Y0107050D01*
X0362450Y0107190D01*
X0362780Y0107350D01*
X0363090Y0107560D01*
X0363380Y0107790D01*
X0363640Y0108050D01*
X0363870Y0108340D01*
X0364080Y0108650D01*
X0364240Y0108980D01*
X0364380Y0109330D01*
X0364470Y0109680D01*
X0364530Y0110050D01*
X0364550Y0110420D01*
X0364550Y0117180D01*
X0360780Y0126900D02*
X0360730Y0126950D01*
X0360740Y0126950D02*
X0360310Y0127410D01*
X0359900Y0127890D01*
X0359530Y0128400D01*
X0359190Y0128930D01*
X0358880Y0129480D01*
X0358600Y0130050D01*
X0358360Y0130630D01*
X0358150Y0131220D01*
X0357980Y0131830D01*
X0357850Y0132450D01*
X0357760Y0133070D01*
X0357700Y0133700D01*
X0357680Y0134330D01*
X0361420Y0143130D02*
X0361420Y0143130D01*
X0364550Y0150680D02*
X0364550Y0171260D01*
X0361450Y0178730D02*
X0352100Y0188080D01*
X0341410Y0192510D02*
X0318180Y0192510D01*
X0318170Y0192510D02*
X0317360Y0192500D01*
X0316550Y0192460D01*
X0315740Y0192380D01*
X0314940Y0192260D01*
X0314140Y0192100D01*
X0313350Y0191900D01*
X0312570Y0191670D01*
X0311810Y0191400D01*
X0311050Y0191090D01*
X0310320Y0190750D01*
X0309600Y0190380D01*
X0308900Y0189970D01*
X0308210Y0189520D01*
X0307560Y0189050D01*
X0306920Y0188540D01*
X0306310Y0188010D01*
X0305720Y0187440D01*
X0305170Y0186850D01*
X0304640Y0186240D01*
X0304140Y0185590D01*
X0303670Y0184930D01*
X0303240Y0184240D01*
X0302830Y0183540D01*
X0302470Y0182810D01*
X0302130Y0182070D01*
X0301830Y0181320D01*
X0301570Y0180550D01*
X0301350Y0179770D01*
X0301160Y0178980D01*
X0301010Y0178180D01*
X0300900Y0177370D01*
X0300830Y0176560D01*
X0300790Y0175750D01*
X0300800Y0175750D02*
X0300800Y0110300D01*
X0300780Y0109980D01*
X0300800Y0109650D01*
X0300850Y0109330D01*
X0300940Y0109010D01*
X0301060Y0108710D01*
X0301210Y0108420D01*
X0301380Y0108140D01*
X0301590Y0107890D01*
X0301820Y0107660D01*
X0302080Y0107460D01*
X0302350Y0107280D01*
X0302640Y0107130D01*
X0302950Y0107020D01*
X0303270Y0106940D01*
X0303590Y0106890D01*
X0329280Y0128760D02*
X0329750Y0128740D01*
X0330210Y0128680D01*
X0330660Y0128590D01*
X0331110Y0128450D01*
X0331550Y0128280D01*
X0331960Y0128070D01*
X0332360Y0127830D01*
X0332740Y0127560D01*
X0333090Y0127260D01*
X0333420Y0126920D01*
X0333720Y0126570D01*
X0360780Y0126900D02*
X0361260Y0126380D01*
X0361710Y0125820D01*
X0362130Y0125250D01*
X0362520Y0124650D01*
X0362880Y0124030D01*
X0363200Y0123400D01*
X0363500Y0122750D01*
X0363750Y0122080D01*
X0363980Y0121400D01*
X0364160Y0120710D01*
X0364310Y0120020D01*
X0364430Y0119310D01*
X0364500Y0118600D01*
X0364540Y0117890D01*
X0364550Y0117180D01*
X0350850Y0106890D02*
X0350390Y0106960D01*
X0349950Y0107070D01*
X0349510Y0107210D01*
X0349090Y0107400D01*
X0348690Y0107610D01*
X0348300Y0107860D01*
X0347940Y0108140D01*
X0347600Y0108450D01*
X0347290Y0108790D01*
X0347010Y0109150D01*
X0346760Y0109530D01*
X0357670Y0134330D02*
X0357690Y0134980D01*
X0357750Y0135640D01*
X0357840Y0136280D01*
X0357970Y0136930D01*
X0358130Y0137560D01*
X0358320Y0138190D01*
X0358550Y0138800D01*
X0358800Y0139400D01*
X0359090Y0139990D01*
X0359410Y0140560D01*
X0359760Y0141120D01*
X0360130Y0141650D01*
X0360540Y0142170D01*
X0360970Y0142660D01*
X0361420Y0143130D01*
X0361430Y0143130D02*
X0361870Y0143600D01*
X0362280Y0144100D01*
X0362660Y0144620D01*
X0363010Y0145160D01*
X0363330Y0145720D01*
X0363610Y0146300D01*
X0363860Y0146900D01*
X0364070Y0147510D01*
X0364240Y0148130D01*
X0364380Y0148760D01*
X0364470Y0149390D01*
X0364530Y0150040D01*
X0364550Y0150680D01*
X0361430Y0143130D02*
X0361420Y0143120D01*
X0364540Y0171260D02*
X0364520Y0171900D01*
X0364460Y0172530D01*
X0364370Y0173160D01*
X0364230Y0173790D01*
X0364060Y0174400D01*
X0363850Y0175000D01*
X0363610Y0175590D01*
X0363330Y0176170D01*
X0363020Y0176720D01*
X0362670Y0177260D01*
X0362290Y0177770D01*
X0361880Y0178260D01*
X0361450Y0178730D01*
X0352100Y0188080D02*
X0351560Y0188590D01*
X0351000Y0189080D01*
X0350420Y0189530D01*
X0349810Y0189960D01*
X0349180Y0190360D01*
X0348540Y0190720D01*
X0347870Y0191060D01*
X0347200Y0191360D01*
X0346500Y0191630D01*
X0345800Y0191860D01*
X0345080Y0192060D01*
X0344360Y0192220D01*
X0343630Y0192350D01*
X0342890Y0192440D01*
X0342150Y0192490D01*
X0341410Y0192510D01*
X0321300Y0160010D02*
X0321320Y0160700D01*
X0321380Y0161390D01*
X0321480Y0162070D01*
X0321620Y0162750D01*
X0321790Y0163420D01*
X0322010Y0164080D01*
X0322260Y0164720D01*
X0322550Y0165350D01*
X0322880Y0165960D01*
X0323240Y0166550D01*
X0323630Y0167120D01*
X0324060Y0167660D01*
X0324510Y0168180D01*
X0325000Y0168680D01*
X0325510Y0169140D01*
X0326050Y0169570D01*
X0326620Y0169980D01*
X0327200Y0170340D01*
X0327810Y0170680D01*
X0328430Y0170980D01*
X0329070Y0171240D01*
X0329720Y0171460D01*
X0330390Y0171650D01*
X0331070Y0171800D01*
X0331750Y0171910D01*
X0332440Y0171980D01*
X0333130Y0172010D01*
X0333820Y0172000D01*
X0334510Y0171950D01*
X0335190Y0171860D01*
X0335870Y0171730D01*
X0336540Y0171560D01*
X0337210Y0171360D01*
X0337850Y0171110D01*
X0338480Y0170830D01*
X0339100Y0170520D01*
X0339690Y0170160D01*
X0340270Y0169780D01*
X0340820Y0169360D01*
X0341350Y0168910D01*
X0341850Y0168430D01*
X0342320Y0167930D01*
X0342760Y0167390D01*
X0343170Y0166840D01*
X0343550Y0166260D01*
X0343890Y0165660D01*
X0344200Y0165040D01*
X0344470Y0164400D01*
X0344700Y0163750D01*
X0344900Y0163090D01*
X0345060Y0162410D01*
X0345180Y0161730D01*
X0345260Y0161050D01*
X0345300Y0160360D01*
X0345300Y0159660D01*
X0345260Y0158970D01*
X0345180Y0158290D01*
X0345060Y0157610D01*
X0344900Y0156930D01*
X0344700Y0156270D01*
X0344470Y0155620D01*
X0344200Y0154980D01*
X0343890Y0154360D01*
X0343550Y0153760D01*
X0343170Y0153180D01*
X0342760Y0152630D01*
X0342320Y0152090D01*
X0341850Y0151590D01*
X0341350Y0151110D01*
X0340820Y0150660D01*
X0340270Y0150240D01*
X0339690Y0149860D01*
X0339100Y0149500D01*
X0338480Y0149190D01*
X0337850Y0148910D01*
X0337210Y0148660D01*
X0336540Y0148460D01*
X0335870Y0148290D01*
X0335190Y0148160D01*
X0334510Y0148070D01*
X0333820Y0148020D01*
X0333130Y0148010D01*
X0332440Y0148040D01*
X0331750Y0148110D01*
X0331070Y0148220D01*
X0330390Y0148370D01*
X0329720Y0148560D01*
X0329070Y0148780D01*
X0328430Y0149040D01*
X0327810Y0149340D01*
X0327200Y0149680D01*
X0326620Y0150040D01*
X0326050Y0150450D01*
X0325510Y0150880D01*
X0325000Y0151340D01*
X0324510Y0151840D01*
X0324060Y0152360D01*
X0323630Y0152900D01*
X0323240Y0153470D01*
X0322880Y0154060D01*
X0322550Y0154670D01*
X0322260Y0155300D01*
X0322010Y0155940D01*
X0321790Y0156600D01*
X0321620Y0157270D01*
X0321480Y0157950D01*
X0321380Y0158630D01*
X0321320Y0159320D01*
X0321300Y0160010D01*
D15*
X0314150Y0159920D02*
X0314150Y0157110D01*
X0311340Y0159920D01*
X0310640Y0159920D01*
X0309940Y0159220D01*
X0309940Y0157820D01*
X0310640Y0157110D01*
X0310640Y0155310D02*
X0309940Y0154610D01*
X0309940Y0153210D01*
X0310640Y0152510D01*
X0313450Y0152510D01*
X0314150Y0153210D01*
X0314150Y0154610D01*
X0313450Y0155310D01*
X0310640Y0155310D01*
X0309940Y0150710D02*
X0312750Y0150710D01*
X0314150Y0149310D01*
X0312750Y0147910D01*
X0309940Y0147910D01*
X0317450Y0142110D02*
X0317450Y0139310D01*
X0318850Y0137910D01*
X0320250Y0139310D01*
X0320250Y0142110D01*
X0322050Y0141410D02*
X0322050Y0138610D01*
X0322750Y0137910D01*
X0324150Y0137910D01*
X0324850Y0138610D01*
X0324850Y0141410D01*
X0324150Y0142110D01*
X0322750Y0142110D01*
X0322050Y0141410D01*
X0326650Y0142110D02*
X0329460Y0142110D01*
X0329460Y0141410D01*
X0326650Y0138610D01*
X0326650Y0137910D01*
X0311650Y0136170D02*
X0311650Y0133360D01*
X0311650Y0134770D02*
X0307440Y0134770D01*
X0308840Y0133360D01*
X0308140Y0131560D02*
X0307440Y0130860D01*
X0307440Y0129460D01*
X0308140Y0128760D01*
X0310950Y0128760D01*
X0311650Y0129460D01*
X0311650Y0130860D01*
X0310950Y0131560D01*
X0308140Y0131560D01*
X0307440Y0126960D02*
X0310250Y0126960D01*
X0311650Y0125560D01*
X0310250Y0124160D01*
X0307440Y0124160D01*
X0308690Y0119630D02*
X0312900Y0119630D01*
X0308690Y0116830D01*
X0312900Y0116830D01*
X0312900Y0115160D02*
X0312900Y0113760D01*
X0312900Y0114460D02*
X0308690Y0114460D01*
X0308690Y0113760D02*
X0308690Y0115160D01*
X0308690Y0111960D02*
X0311500Y0111960D01*
X0312900Y0110560D01*
X0311500Y0109160D01*
X0308690Y0109160D01*
X0346190Y0115410D02*
X0349000Y0115410D01*
X0350400Y0116810D01*
X0349000Y0118210D01*
X0346190Y0118210D01*
X0346890Y0120010D02*
X0349700Y0120010D01*
X0350400Y0120710D01*
X0350400Y0122110D01*
X0349700Y0122810D01*
X0346890Y0122810D01*
X0346190Y0122110D01*
X0346190Y0120710D01*
X0346890Y0120010D01*
X0346890Y0124610D02*
X0346190Y0125320D01*
X0346190Y0126720D01*
X0346890Y0127420D01*
X0347590Y0127420D01*
X0348290Y0126720D01*
X0348290Y0125320D01*
X0347590Y0124610D01*
X0346890Y0124610D01*
X0348290Y0125320D02*
X0349000Y0124610D01*
X0349700Y0124610D01*
X0350400Y0125320D01*
X0350400Y0126720D01*
X0349700Y0127420D01*
X0349000Y0127420D01*
X0348290Y0126720D01*
X0349000Y0131660D02*
X0346190Y0131660D01*
X0346190Y0134460D02*
X0349000Y0134460D01*
X0350400Y0133060D01*
X0349000Y0131660D01*
X0349700Y0136260D02*
X0346890Y0136260D01*
X0346190Y0136960D01*
X0346190Y0138360D01*
X0346890Y0139060D01*
X0349700Y0139060D01*
X0350400Y0138360D01*
X0350400Y0136960D01*
X0349700Y0136260D01*
X0349700Y0140860D02*
X0348290Y0140860D01*
X0348290Y0142970D01*
X0349000Y0143670D01*
X0349700Y0143670D01*
X0350400Y0142970D01*
X0350400Y0141570D01*
X0349700Y0140860D01*
X0348290Y0140860D02*
X0346890Y0142270D01*
X0346190Y0143670D01*
X0352440Y0154160D02*
X0355250Y0154160D01*
X0356650Y0155560D01*
X0355250Y0156960D01*
X0352440Y0156960D01*
X0353140Y0158760D02*
X0352440Y0159460D01*
X0352440Y0160860D01*
X0353140Y0161560D01*
X0355950Y0161560D01*
X0356650Y0160860D01*
X0356650Y0159460D01*
X0355950Y0158760D01*
X0353140Y0158760D01*
X0352440Y0163360D02*
X0354540Y0163360D01*
X0353840Y0164770D01*
X0353840Y0165470D01*
X0354540Y0166170D01*
X0355950Y0166170D01*
X0356650Y0165470D01*
X0356650Y0164070D01*
X0355950Y0163360D01*
X0352440Y0163360D02*
X0352440Y0166170D01*
X0346260Y0179160D02*
X0346260Y0183360D01*
X0344150Y0181260D01*
X0346960Y0181260D01*
X0342350Y0179860D02*
X0342350Y0182660D01*
X0341650Y0183360D01*
X0340250Y0183360D01*
X0339550Y0182660D01*
X0339550Y0179860D01*
X0340250Y0179160D01*
X0341650Y0179160D01*
X0342350Y0179860D01*
X0337750Y0180560D02*
X0337750Y0183360D01*
X0337750Y0180560D02*
X0336350Y0179160D01*
X0334950Y0180560D01*
X0334950Y0183360D01*
X0325400Y0182110D02*
X0325400Y0180710D01*
X0324700Y0180010D01*
X0321890Y0180010D01*
X0321190Y0180710D01*
X0321190Y0182110D01*
X0321890Y0182810D01*
X0324700Y0182810D01*
X0325400Y0182110D01*
X0324700Y0184610D02*
X0325400Y0185320D01*
X0325400Y0186720D01*
X0324700Y0187420D01*
X0324000Y0187420D01*
X0323290Y0186720D01*
X0323290Y0186020D01*
X0323290Y0186720D02*
X0322590Y0187420D01*
X0321890Y0187420D01*
X0321190Y0186720D01*
X0321190Y0185320D01*
X0321890Y0184610D01*
X0321190Y0178210D02*
X0324000Y0178210D01*
X0325400Y0176810D01*
X0324000Y0175410D01*
X0321190Y0175410D01*
X0012500Y0200710D02*
G75*
%LPD*%
D11*
X0012500Y0200710D02*
X0012500Y0287590D01*
X0057500Y0287590D01*
X0078120Y0261340D02*
X0078120Y0244460D01*
X0054370Y0220090D02*
X0032500Y0220090D01*
X0032500Y0200710D01*
X0012500Y0200710D01*
X0054380Y0220090D02*
X0055440Y0220330D01*
X0056500Y0220620D01*
X0057540Y0220940D01*
X0058570Y0221300D01*
X0059590Y0221700D01*
X0060600Y0222130D01*
X0061590Y0222600D01*
X0062560Y0223100D01*
X0063510Y0223640D01*
X0064440Y0224210D01*
X0065350Y0224810D01*
X0066240Y0225450D01*
X0067110Y0226110D01*
X0067950Y0226810D01*
X0068770Y0227540D01*
X0069560Y0228290D01*
X0070320Y0229070D01*
X0071060Y0229880D01*
X0071760Y0230720D01*
X0072440Y0231580D01*
X0073080Y0232460D01*
X0073690Y0233370D01*
X0074270Y0234300D01*
X0074820Y0235240D01*
X0075330Y0236210D01*
X0075810Y0237190D01*
X0076250Y0238190D01*
X0076660Y0239210D01*
X0077020Y0240240D01*
X0077360Y0241280D01*
X0077650Y0242330D01*
X0077910Y0243390D01*
X0078130Y0244460D01*
X0078120Y0261330D02*
X0078020Y0262400D01*
X0077880Y0263460D01*
X0077700Y0264520D01*
X0077480Y0265570D01*
X0077230Y0266610D01*
X0076940Y0267650D01*
X0076610Y0268670D01*
X0076250Y0269680D01*
X0075850Y0270670D01*
X0075420Y0271650D01*
X0074950Y0272620D01*
X0074450Y0273560D01*
X0073910Y0274490D01*
X0073340Y0275400D01*
X0072740Y0276290D01*
X0072110Y0277160D01*
X0071450Y0278000D01*
X0070750Y0278820D01*
X0070030Y0279610D01*
X0069280Y0280380D01*
X0068510Y0281120D01*
X0067710Y0281830D01*
X0066880Y0282520D01*
X0066030Y0283170D01*
X0065160Y0283790D01*
X0064260Y0284380D01*
X0063350Y0284940D01*
X0062410Y0285470D01*
X0061460Y0285960D01*
X0060490Y0286420D01*
X0059510Y0286840D01*
X0058510Y0287230D01*
X0057490Y0287580D01*
X0033620Y0255090D02*
X0033640Y0255780D01*
X0033700Y0256470D01*
X0033800Y0257150D01*
X0033940Y0257830D01*
X0034110Y0258500D01*
X0034330Y0259160D01*
X0034580Y0259800D01*
X0034870Y0260430D01*
X0035200Y0261040D01*
X0035560Y0261630D01*
X0035950Y0262200D01*
X0036380Y0262740D01*
X0036830Y0263260D01*
X0037320Y0263760D01*
X0037830Y0264220D01*
X0038370Y0264650D01*
X0038940Y0265060D01*
X0039520Y0265420D01*
X0040130Y0265760D01*
X0040750Y0266060D01*
X0041390Y0266320D01*
X0042040Y0266540D01*
X0042710Y0266730D01*
X0043390Y0266880D01*
X0044070Y0266990D01*
X0044760Y0267060D01*
X0045450Y0267090D01*
X0046140Y0267080D01*
X0046830Y0267030D01*
X0047510Y0266940D01*
X0048190Y0266810D01*
X0048860Y0266640D01*
X0049530Y0266440D01*
X0050170Y0266190D01*
X0050800Y0265910D01*
X0051420Y0265600D01*
X0052010Y0265240D01*
X0052590Y0264860D01*
X0053140Y0264440D01*
X0053670Y0263990D01*
X0054170Y0263510D01*
X0054640Y0263010D01*
X0055080Y0262470D01*
X0055490Y0261920D01*
X0055870Y0261340D01*
X0056210Y0260740D01*
X0056520Y0260120D01*
X0056790Y0259480D01*
X0057020Y0258830D01*
X0057220Y0258170D01*
X0057380Y0257490D01*
X0057500Y0256810D01*
X0057580Y0256130D01*
X0057620Y0255440D01*
X0057620Y0254740D01*
X0057580Y0254050D01*
X0057500Y0253370D01*
X0057380Y0252690D01*
X0057220Y0252010D01*
X0057020Y0251350D01*
X0056790Y0250700D01*
X0056520Y0250060D01*
X0056210Y0249440D01*
X0055870Y0248840D01*
X0055490Y0248260D01*
X0055080Y0247710D01*
X0054640Y0247170D01*
X0054170Y0246670D01*
X0053670Y0246190D01*
X0053140Y0245740D01*
X0052590Y0245320D01*
X0052010Y0244940D01*
X0051420Y0244580D01*
X0050800Y0244270D01*
X0050170Y0243990D01*
X0049530Y0243740D01*
X0048860Y0243540D01*
X0048190Y0243370D01*
X0047510Y0243240D01*
X0046830Y0243150D01*
X0046140Y0243100D01*
X0045450Y0243090D01*
X0044760Y0243120D01*
X0044070Y0243190D01*
X0043390Y0243300D01*
X0042710Y0243450D01*
X0042040Y0243640D01*
X0041390Y0243860D01*
X0040750Y0244120D01*
X0040130Y0244420D01*
X0039520Y0244760D01*
X0038940Y0245120D01*
X0038370Y0245530D01*
X0037830Y0245960D01*
X0037320Y0246420D01*
X0036830Y0246920D01*
X0036380Y0247440D01*
X0035950Y0247980D01*
X0035560Y0248550D01*
X0035200Y0249140D01*
X0034870Y0249750D01*
X0034580Y0250380D01*
X0034330Y0251020D01*
X0034110Y0251680D01*
X0033940Y0252350D01*
X0033800Y0253030D01*
X0033700Y0253710D01*
X0033640Y0254400D01*
X0033620Y0255090D01*
D15*
X0030390Y0260490D02*
X0028990Y0260490D01*
X0028290Y0261190D01*
X0026490Y0261190D02*
X0026490Y0263990D01*
X0025790Y0264690D01*
X0024390Y0264690D01*
X0023690Y0263990D01*
X0023690Y0261190D01*
X0024390Y0260490D01*
X0025790Y0260490D01*
X0026490Y0261190D01*
X0028290Y0263990D02*
X0028990Y0264690D01*
X0030390Y0264690D01*
X0031100Y0263990D01*
X0031100Y0263290D01*
X0030390Y0262590D01*
X0031100Y0261890D01*
X0031100Y0261190D01*
X0030390Y0260490D01*
X0030390Y0262590D02*
X0029690Y0262590D01*
X0021890Y0261890D02*
X0021890Y0264690D01*
X0021890Y0261890D02*
X0020490Y0260490D01*
X0019080Y0261890D01*
X0019080Y0264690D01*
X0023590Y0253750D02*
X0022890Y0253050D01*
X0022890Y0251650D01*
X0023590Y0250940D01*
X0023590Y0249140D02*
X0022890Y0248440D01*
X0022890Y0247040D01*
X0023590Y0246340D01*
X0026400Y0246340D01*
X0027100Y0247040D01*
X0027100Y0248440D01*
X0026400Y0249140D01*
X0023590Y0249140D01*
X0027100Y0250940D02*
X0024290Y0253750D01*
X0023590Y0253750D01*
X0027100Y0253750D02*
X0027100Y0250940D01*
X0025700Y0244540D02*
X0022890Y0244540D01*
X0022890Y0241740D02*
X0025700Y0241740D01*
X0027100Y0243140D01*
X0025700Y0244540D01*
X0023350Y0231250D02*
X0023350Y0228440D01*
X0023350Y0229850D02*
X0019140Y0229850D01*
X0020540Y0228440D01*
X0019840Y0226640D02*
X0019140Y0225940D01*
X0019140Y0224540D01*
X0019840Y0223840D01*
X0022650Y0223840D01*
X0023350Y0224540D01*
X0023350Y0225940D01*
X0022650Y0226640D01*
X0019840Y0226640D01*
X0019140Y0222040D02*
X0021950Y0222040D01*
X0023350Y0220640D01*
X0021950Y0219240D01*
X0019140Y0219240D01*
X0020390Y0213460D02*
X0024600Y0213460D01*
X0020390Y0210660D01*
X0024600Y0210660D01*
X0024600Y0208990D02*
X0024600Y0207590D01*
X0024600Y0208290D02*
X0020390Y0208290D01*
X0020390Y0207590D02*
X0020390Y0208990D01*
X0020390Y0205790D02*
X0023200Y0205790D01*
X0024600Y0204390D01*
X0023200Y0202990D01*
X0020390Y0202990D01*
X0034300Y0226740D02*
X0035700Y0228140D01*
X0035700Y0230940D01*
X0037500Y0230240D02*
X0037500Y0227440D01*
X0038200Y0226740D01*
X0039600Y0226740D01*
X0040300Y0227440D01*
X0040300Y0230240D01*
X0039600Y0230940D01*
X0038200Y0230940D01*
X0037500Y0230240D01*
X0034300Y0226740D02*
X0032900Y0228140D01*
X0032900Y0230940D01*
X0042100Y0230240D02*
X0042100Y0229540D01*
X0042810Y0228840D01*
X0044210Y0228840D01*
X0044910Y0228140D01*
X0044910Y0227440D01*
X0044210Y0226740D01*
X0042810Y0226740D01*
X0042100Y0227440D01*
X0042100Y0228140D01*
X0042810Y0228840D01*
X0044210Y0228840D02*
X0044910Y0229540D01*
X0044910Y0230240D01*
X0044210Y0230940D01*
X0042810Y0230940D01*
X0042100Y0230240D01*
X0052900Y0230640D02*
X0054300Y0229240D01*
X0055700Y0230640D01*
X0055700Y0233440D01*
X0057500Y0232740D02*
X0057500Y0229940D01*
X0058200Y0229240D01*
X0059600Y0229240D01*
X0060300Y0229940D01*
X0060300Y0232740D01*
X0059600Y0233440D01*
X0058200Y0233440D01*
X0057500Y0232740D01*
X0062100Y0233440D02*
X0064910Y0233440D01*
X0064910Y0232740D01*
X0062100Y0229940D01*
X0062100Y0229240D01*
X0052900Y0230640D02*
X0052900Y0233440D01*
X0065390Y0242990D02*
X0068200Y0242990D01*
X0069600Y0244390D01*
X0068200Y0245790D01*
X0065390Y0245790D01*
X0066090Y0247590D02*
X0068900Y0247590D01*
X0069600Y0248290D01*
X0069600Y0249690D01*
X0068900Y0250390D01*
X0066090Y0250390D01*
X0065390Y0249690D01*
X0065390Y0248290D01*
X0066090Y0247590D01*
X0067490Y0252190D02*
X0067490Y0254300D01*
X0068200Y0255000D01*
X0068900Y0255000D01*
X0069600Y0254300D01*
X0069600Y0252900D01*
X0068900Y0252190D01*
X0067490Y0252190D01*
X0066090Y0253600D01*
X0065390Y0255000D01*
X0065000Y0267070D02*
X0064010Y0267070D01*
X0063020Y0268060D01*
X0063020Y0269050D01*
X0064010Y0270040D02*
X0065490Y0269550D01*
X0065990Y0269050D01*
X0065990Y0268060D01*
X0065000Y0267070D01*
X0064010Y0270040D02*
X0065490Y0271530D01*
X0067480Y0269550D01*
X0063720Y0272310D02*
X0063720Y0273300D01*
X0062730Y0274290D01*
X0061740Y0274290D01*
X0059760Y0272310D01*
X0059760Y0271320D01*
X0060750Y0270330D01*
X0061740Y0270330D01*
X0063720Y0272310D01*
X0060960Y0276060D02*
X0058980Y0274080D01*
X0057000Y0274080D01*
X0057000Y0276060D01*
X0058980Y0278040D01*
X0046100Y0277590D02*
X0043290Y0277590D01*
X0045390Y0279690D01*
X0045390Y0275490D01*
X0041490Y0276190D02*
X0041490Y0278990D01*
X0040790Y0279690D01*
X0039390Y0279690D01*
X0038690Y0278990D01*
X0038690Y0276190D01*
X0039390Y0275490D01*
X0040790Y0275490D01*
X0041490Y0276190D01*
X0036890Y0276890D02*
X0036890Y0279690D01*
X0036890Y0276890D02*
X0035490Y0275490D01*
X0034080Y0276890D01*
X0034080Y0279690D01*
X0085630Y0200710D02*
G75*
%LPD*%
D11*
X0085670Y0216410D02*
X0085670Y0265780D01*
X0085630Y0266650D01*
X0085640Y0267530D01*
X0085680Y0268400D01*
X0085760Y0269270D01*
X0085870Y0270140D01*
X0086030Y0271000D01*
X0086220Y0271850D01*
X0086450Y0272700D01*
X0086710Y0273530D01*
X0087010Y0274350D01*
X0087350Y0275160D01*
X0087720Y0275950D01*
X0088130Y0276720D01*
X0088570Y0277480D01*
X0089040Y0278210D01*
X0089540Y0278930D01*
X0090080Y0279620D01*
X0090640Y0280290D01*
X0091240Y0280930D01*
X0091860Y0281550D01*
X0092500Y0282140D01*
X0093170Y0282700D01*
X0093870Y0283230D01*
X0094590Y0283730D01*
X0095330Y0284190D01*
X0096080Y0284630D01*
X0096860Y0285030D01*
X0097650Y0285400D01*
X0098460Y0285730D01*
X0099290Y0286030D01*
X0100120Y0286290D01*
X0100970Y0286510D01*
X0101820Y0286700D01*
X0102680Y0286850D01*
X0103550Y0286960D01*
X0104420Y0287030D01*
X0131300Y0287030D01*
X0131290Y0287030D02*
X0132170Y0287040D01*
X0133040Y0287010D01*
X0133910Y0286940D01*
X0134780Y0286830D01*
X0135640Y0286690D01*
X0136490Y0286510D01*
X0137340Y0286290D01*
X0138170Y0286040D01*
X0139000Y0285750D01*
X0139810Y0285420D01*
X0140600Y0285060D01*
X0141380Y0284660D01*
X0142140Y0284230D01*
X0142880Y0283770D01*
X0143600Y0283280D01*
X0144300Y0282750D01*
X0144970Y0282200D01*
X0145620Y0281610D01*
X0146240Y0281000D01*
X0146840Y0280360D01*
X0147410Y0279700D01*
X0147940Y0279010D01*
X0148450Y0278300D01*
X0148930Y0277570D01*
X0149370Y0276820D01*
X0149780Y0276050D01*
X0150160Y0275260D01*
X0150500Y0274460D01*
X0150810Y0273640D01*
X0151080Y0272810D01*
X0151310Y0271970D01*
X0151510Y0271120D01*
X0151670Y0270260D01*
X0151790Y0269400D01*
X0151870Y0268530D01*
X0151920Y0267660D01*
X0151920Y0221410D01*
X0151930Y0221410D02*
X0151970Y0220540D01*
X0151960Y0219670D01*
X0151920Y0218800D01*
X0151840Y0217930D01*
X0151720Y0217070D01*
X0151560Y0216210D01*
X0151370Y0215360D01*
X0151130Y0214520D01*
X0150860Y0213690D01*
X0150550Y0212880D01*
X0150210Y0212080D01*
X0149830Y0211290D01*
X0149410Y0210530D01*
X0148960Y0209780D01*
X0148480Y0209050D01*
X0147970Y0208350D01*
X0147420Y0207670D01*
X0146850Y0207020D01*
X0146240Y0206390D01*
X0145610Y0205790D01*
X0144950Y0205220D01*
X0144270Y0204680D01*
X0143560Y0204160D01*
X0142830Y0203690D01*
X0142090Y0203240D01*
X0141320Y0202830D01*
X0140530Y0202460D01*
X0139730Y0202120D01*
X0138910Y0201810D01*
X0138080Y0201540D01*
X0137240Y0201310D01*
X0136390Y0201120D01*
X0135530Y0200970D01*
X0134670Y0200860D01*
X0133800Y0200780D01*
X0134420Y0200780D02*
X0104420Y0200780D01*
X0103600Y0200730D01*
X0102780Y0200710D01*
X0101960Y0200730D01*
X0101140Y0200800D01*
X0100330Y0200900D01*
X0099520Y0201040D01*
X0098710Y0201220D01*
X0097920Y0201430D01*
X0097140Y0201690D01*
X0096370Y0201980D01*
X0095620Y0202300D01*
X0094880Y0202660D01*
X0094160Y0203060D01*
X0093460Y0203490D01*
X0092780Y0203960D01*
X0092130Y0204450D01*
X0091500Y0204980D01*
X0090890Y0205530D01*
X0090310Y0206120D01*
X0089760Y0206730D01*
X0089240Y0207360D01*
X0088760Y0208020D01*
X0088300Y0208700D01*
X0087870Y0209410D01*
X0087480Y0210130D01*
X0087130Y0210870D01*
X0086810Y0211630D01*
X0086520Y0212400D01*
X0086280Y0213180D01*
X0086070Y0213980D01*
X0085900Y0214780D01*
X0085760Y0215590D01*
X0085670Y0216410D01*
X0106300Y0233910D02*
X0106300Y0255160D01*
X0106410Y0255850D01*
X0106560Y0256520D01*
X0106750Y0257190D01*
X0106970Y0257850D01*
X0107230Y0258490D01*
X0107520Y0259120D01*
X0107850Y0259730D01*
X0108210Y0260320D01*
X0108610Y0260890D01*
X0109030Y0261440D01*
X0109480Y0261960D01*
X0109970Y0262460D01*
X0110480Y0262930D01*
X0111010Y0263370D01*
X0111570Y0263780D01*
X0112150Y0264160D01*
X0112750Y0264510D01*
X0113360Y0264820D01*
X0114000Y0265100D01*
X0114650Y0265350D01*
X0115310Y0265560D01*
X0115980Y0265730D01*
X0116660Y0265860D01*
X0117340Y0265960D01*
X0118040Y0266020D01*
X0118730Y0266040D01*
X0119420Y0266020D01*
X0120110Y0265970D01*
X0120800Y0265870D01*
X0121480Y0265740D01*
X0122150Y0265570D01*
X0122810Y0265370D01*
X0123460Y0265130D01*
X0124100Y0264850D01*
X0124720Y0264540D01*
X0125320Y0264190D01*
X0125900Y0263820D01*
X0126460Y0263410D01*
X0127000Y0262970D01*
X0127510Y0262500D01*
X0127990Y0262010D01*
X0128450Y0261480D01*
X0128880Y0260940D01*
X0129270Y0260370D01*
X0129640Y0259780D01*
X0129970Y0259170D01*
X0130270Y0258550D01*
X0130530Y0257910D01*
X0130760Y0257250D01*
X0130950Y0256580D01*
X0131100Y0255910D01*
X0131220Y0255220D01*
X0131290Y0254540D01*
X0131300Y0254530D02*
X0131300Y0233280D01*
X0131290Y0233280D02*
X0131180Y0232590D01*
X0131030Y0231920D01*
X0130840Y0231250D01*
X0130620Y0230590D01*
X0130360Y0229950D01*
X0130070Y0229320D01*
X0129740Y0228710D01*
X0129380Y0228120D01*
X0128980Y0227550D01*
X0128560Y0227000D01*
X0128110Y0226480D01*
X0127620Y0225980D01*
X0127110Y0225510D01*
X0126580Y0225070D01*
X0126020Y0224660D01*
X0125440Y0224280D01*
X0124840Y0223930D01*
X0124230Y0223620D01*
X0123590Y0223340D01*
X0122940Y0223090D01*
X0122280Y0222880D01*
X0121610Y0222710D01*
X0120930Y0222580D01*
X0120250Y0222480D01*
X0119550Y0222420D01*
X0118860Y0222400D01*
X0118170Y0222420D01*
X0117480Y0222470D01*
X0116790Y0222570D01*
X0116110Y0222700D01*
X0115440Y0222870D01*
X0114780Y0223070D01*
X0114130Y0223310D01*
X0113490Y0223590D01*
X0112870Y0223900D01*
X0112270Y0224250D01*
X0111690Y0224620D01*
X0111130Y0225030D01*
X0110590Y0225470D01*
X0110080Y0225940D01*
X0109600Y0226430D01*
X0109140Y0226960D01*
X0108710Y0227500D01*
X0108320Y0228070D01*
X0107950Y0228660D01*
X0107620Y0229270D01*
X0107320Y0229890D01*
X0107060Y0230530D01*
X0106830Y0231190D01*
X0106640Y0231860D01*
X0106490Y0232530D01*
X0106370Y0233220D01*
X0106300Y0233900D01*
D15*
X0097150Y0233670D02*
X0092940Y0233670D01*
X0094340Y0232260D01*
X0093640Y0230460D02*
X0092940Y0229760D01*
X0092940Y0228360D01*
X0093640Y0227660D01*
X0096450Y0227660D01*
X0097150Y0228360D01*
X0097150Y0229760D01*
X0096450Y0230460D01*
X0093640Y0230460D01*
X0097150Y0232260D02*
X0097150Y0235070D01*
X0095750Y0225860D02*
X0092940Y0225860D01*
X0092940Y0223060D02*
X0095750Y0223060D01*
X0097150Y0224460D01*
X0095750Y0225860D01*
X0101700Y0212260D02*
X0101700Y0209460D01*
X0103100Y0208060D01*
X0104500Y0209460D01*
X0104500Y0212260D01*
X0106300Y0211560D02*
X0106300Y0208760D01*
X0107000Y0208060D01*
X0108400Y0208060D01*
X0109100Y0208760D01*
X0109100Y0211560D01*
X0108400Y0212260D01*
X0107000Y0212260D01*
X0106300Y0211560D01*
X0110900Y0211560D02*
X0110900Y0210860D01*
X0111610Y0210160D01*
X0113010Y0210160D01*
X0113710Y0209460D01*
X0113710Y0208760D01*
X0113010Y0208060D01*
X0111610Y0208060D01*
X0110900Y0208760D01*
X0110900Y0209460D01*
X0111610Y0210160D01*
X0113010Y0210160D02*
X0113710Y0210860D01*
X0113710Y0211560D01*
X0113010Y0212260D01*
X0111610Y0212260D01*
X0110900Y0211560D01*
X0114570Y0215560D02*
X0115970Y0216960D01*
X0115970Y0219760D01*
X0117770Y0219760D02*
X0119170Y0219760D01*
X0118470Y0219760D02*
X0118470Y0215560D01*
X0117770Y0215560D02*
X0119170Y0215560D01*
X0120840Y0215560D02*
X0120840Y0219760D01*
X0123650Y0215560D01*
X0123650Y0219760D01*
X0128090Y0213090D02*
X0129490Y0210670D01*
X0131410Y0210150D01*
X0131920Y0212070D01*
X0130520Y0214490D01*
X0132430Y0214790D02*
X0133830Y0212360D01*
X0134790Y0212110D01*
X0136000Y0212810D01*
X0136260Y0213760D01*
X0134860Y0216190D01*
X0133900Y0216450D01*
X0132690Y0215750D01*
X0132430Y0214790D01*
X0136070Y0217700D02*
X0138490Y0219100D01*
X0138840Y0218490D01*
X0137820Y0214660D01*
X0138170Y0214060D01*
X0140440Y0230560D02*
X0143250Y0230560D01*
X0144650Y0231960D01*
X0143250Y0233360D01*
X0140440Y0233360D01*
X0141140Y0235160D02*
X0143950Y0235160D01*
X0144650Y0235860D01*
X0144650Y0237260D01*
X0143950Y0237960D01*
X0141140Y0237960D01*
X0140440Y0237260D01*
X0140440Y0235860D01*
X0141140Y0235160D01*
X0142540Y0239760D02*
X0142540Y0241870D01*
X0143250Y0242570D01*
X0143950Y0242570D01*
X0144650Y0241870D01*
X0144650Y0240470D01*
X0143950Y0239760D01*
X0142540Y0239760D01*
X0141140Y0241170D01*
X0140440Y0242570D01*
X0140440Y0253060D02*
X0143250Y0253060D01*
X0144650Y0254460D01*
X0143250Y0255860D01*
X0140440Y0255860D01*
X0141140Y0257660D02*
X0140440Y0258360D01*
X0140440Y0259760D01*
X0141140Y0260460D01*
X0143950Y0260460D01*
X0144650Y0259760D01*
X0144650Y0258360D01*
X0143950Y0257660D01*
X0141140Y0257660D01*
X0140440Y0262260D02*
X0142540Y0262260D01*
X0141840Y0263670D01*
X0141840Y0264370D01*
X0142540Y0265070D01*
X0143950Y0265070D01*
X0144650Y0264370D01*
X0144650Y0262970D01*
X0143950Y0262260D01*
X0140440Y0262260D02*
X0140440Y0265070D01*
X0136130Y0274310D02*
X0136130Y0278510D01*
X0134030Y0276410D01*
X0136830Y0276410D01*
X0132230Y0275010D02*
X0132230Y0277810D01*
X0131530Y0278510D01*
X0130130Y0278510D01*
X0129430Y0277810D01*
X0129430Y0275010D01*
X0130130Y0274310D01*
X0131530Y0274310D01*
X0132230Y0275010D01*
X0127620Y0275710D02*
X0127620Y0278510D01*
X0124820Y0278510D02*
X0124820Y0275710D01*
X0126220Y0274310D01*
X0127620Y0275710D01*
X0110240Y0274810D02*
X0109990Y0273860D01*
X0108770Y0273160D01*
X0107820Y0273410D01*
X0106260Y0272510D02*
X0104860Y0274940D01*
X0103900Y0275200D01*
X0102690Y0274500D01*
X0102430Y0273540D01*
X0103830Y0271110D01*
X0104790Y0270860D01*
X0106000Y0271560D01*
X0106260Y0272510D01*
X0106420Y0275840D02*
X0106670Y0276800D01*
X0107890Y0277500D01*
X0108840Y0277240D01*
X0109190Y0276640D01*
X0108940Y0275680D01*
X0109890Y0275420D01*
X0110240Y0274810D01*
X0108940Y0275680D02*
X0108330Y0275330D01*
X0101920Y0270820D02*
X0101410Y0268900D01*
X0099490Y0269420D01*
X0098090Y0271840D01*
X0100520Y0273240D02*
X0101920Y0270820D01*
X0097150Y0257570D02*
X0097150Y0254760D01*
X0094340Y0257570D01*
X0093640Y0257570D01*
X0092940Y0256870D01*
X0092940Y0255470D01*
X0093640Y0254760D01*
X0093640Y0252960D02*
X0092940Y0252260D01*
X0092940Y0250860D01*
X0093640Y0250160D01*
X0096450Y0250160D01*
X0097150Y0250860D01*
X0097150Y0252260D01*
X0096450Y0252960D01*
X0093640Y0252960D01*
X0092940Y0248360D02*
X0095750Y0248360D01*
X0097150Y0246960D01*
X0095750Y0245560D01*
X0092940Y0245560D01*
X0113170Y0219760D02*
X0113170Y0216960D01*
X0114570Y0215560D01*
X0159470Y0200710D02*
G75*
%LPD*%
D11*
X0159480Y0208720D02*
X0159480Y0280300D01*
X0159500Y0280750D01*
X0159550Y0281190D01*
X0159650Y0281630D01*
X0159770Y0282060D01*
X0159940Y0282470D01*
X0160130Y0282870D01*
X0160360Y0283260D01*
X0160620Y0283620D01*
X0160910Y0283960D01*
X0161230Y0284280D01*
X0161570Y0284570D01*
X0161930Y0284830D01*
X0162320Y0285060D01*
X0162720Y0285250D01*
X0163130Y0285420D01*
X0163560Y0285540D01*
X0164000Y0285640D01*
X0164440Y0285690D01*
X0164890Y0285710D01*
X0164890Y0285720D02*
X0174280Y0285720D01*
X0174740Y0285680D01*
X0175190Y0285590D01*
X0175630Y0285480D01*
X0176060Y0285320D01*
X0176470Y0285130D01*
X0176870Y0284910D01*
X0177250Y0284650D01*
X0177600Y0284370D01*
X0177930Y0284050D01*
X0178240Y0283710D01*
X0178510Y0283350D01*
X0178750Y0282960D01*
X0178970Y0282560D01*
X0179140Y0282140D01*
X0179280Y0281700D01*
X0179390Y0281260D01*
X0179460Y0280810D01*
X0179490Y0280350D01*
X0179480Y0279900D01*
X0179480Y0245090D01*
X0179470Y0245090D02*
X0179460Y0244730D01*
X0179480Y0244370D01*
X0179540Y0244020D01*
X0179640Y0243670D01*
X0179770Y0243340D01*
X0179930Y0243020D01*
X0180130Y0242720D01*
X0180360Y0242440D01*
X0180610Y0242180D01*
X0180890Y0241960D01*
X0181190Y0241760D01*
X0181500Y0241590D01*
X0181840Y0241460D01*
X0182180Y0241360D01*
X0182540Y0241300D01*
X0182900Y0241270D01*
X0183260Y0241280D01*
X0183610Y0241330D01*
X0183960Y0241410D01*
X0184300Y0241530D01*
X0184630Y0241690D01*
X0184930Y0241870D01*
X0185220Y0242090D01*
X0190650Y0248770D01*
X0190850Y0248950D01*
X0191080Y0249090D01*
X0191320Y0249200D01*
X0191580Y0249280D01*
X0191850Y0249320D01*
X0192110Y0249320D01*
X0192380Y0249280D01*
X0192640Y0249200D01*
X0192880Y0249090D01*
X0193110Y0248950D01*
X0193310Y0248770D01*
X0193300Y0248770D02*
X0198830Y0241990D01*
X0199060Y0241760D01*
X0199310Y0241560D01*
X0199590Y0241390D01*
X0199880Y0241260D01*
X0200190Y0241150D01*
X0200510Y0241090D01*
X0200830Y0241050D01*
X0201150Y0241060D01*
X0201480Y0241100D01*
X0201790Y0241170D01*
X0202100Y0241280D01*
X0202390Y0241430D01*
X0202660Y0241600D01*
X0202910Y0241810D01*
X0203140Y0242040D01*
X0203340Y0242290D01*
X0203510Y0242570D01*
X0203640Y0242860D01*
X0203750Y0243170D01*
X0203810Y0243490D01*
X0203850Y0243810D01*
X0203850Y0280430D01*
X0203860Y0280430D02*
X0203880Y0280870D01*
X0203930Y0281300D01*
X0204020Y0281730D01*
X0204150Y0282140D01*
X0204300Y0282550D01*
X0204500Y0282940D01*
X0204720Y0283320D01*
X0204970Y0283670D01*
X0205260Y0284010D01*
X0205560Y0284310D01*
X0205900Y0284600D01*
X0206250Y0284850D01*
X0206630Y0285070D01*
X0207020Y0285270D01*
X0207430Y0285420D01*
X0207840Y0285550D01*
X0208270Y0285640D01*
X0208700Y0285690D01*
X0209140Y0285710D01*
X0209140Y0285720D02*
X0218570Y0285720D01*
X0218570Y0285710D02*
X0219030Y0285670D01*
X0219490Y0285580D01*
X0219940Y0285460D01*
X0220370Y0285310D01*
X0220790Y0285110D01*
X0221200Y0284890D01*
X0221580Y0284630D01*
X0221940Y0284340D01*
X0222280Y0284020D01*
X0222590Y0283680D01*
X0222860Y0283310D01*
X0223110Y0282920D01*
X0223330Y0282510D01*
X0223510Y0282080D01*
X0223650Y0281640D01*
X0223760Y0281190D01*
X0223830Y0280730D01*
X0223860Y0280270D01*
X0223850Y0279810D01*
X0223850Y0208450D01*
X0217370Y0200720D02*
X0209000Y0200720D01*
X0202420Y0204650D02*
X0192780Y0216160D01*
X0192790Y0216170D02*
X0192690Y0216240D01*
X0192580Y0216300D01*
X0192460Y0216340D01*
X0192340Y0216350D01*
X0191090Y0216080D02*
X0181930Y0205050D01*
X0174390Y0200720D02*
X0166860Y0200720D01*
X0166310Y0200760D01*
X0165770Y0200840D01*
X0165230Y0200960D01*
X0164700Y0201120D01*
X0164190Y0201310D01*
X0163690Y0201540D01*
X0163210Y0201810D01*
X0162750Y0202110D01*
X0162310Y0202440D01*
X0161900Y0202800D01*
X0161510Y0203190D01*
X0161150Y0203610D01*
X0160820Y0204050D01*
X0160530Y0204510D01*
X0160270Y0205000D01*
X0160040Y0205500D01*
X0159850Y0206010D01*
X0159700Y0206540D01*
X0159590Y0207080D01*
X0159510Y0207620D01*
X0159470Y0208170D01*
X0159480Y0208720D01*
X0174390Y0200710D02*
X0175020Y0200810D01*
X0175640Y0200950D01*
X0176250Y0201120D01*
X0176860Y0201320D01*
X0177450Y0201560D01*
X0178030Y0201830D01*
X0178590Y0202130D01*
X0179130Y0202460D01*
X0179660Y0202820D01*
X0180160Y0203220D01*
X0180640Y0203640D01*
X0181100Y0204080D01*
X0181530Y0204550D01*
X0181930Y0205050D01*
X0191090Y0216080D02*
X0191280Y0216190D01*
X0191480Y0216280D01*
X0191690Y0216340D01*
X0191910Y0216370D01*
X0192130Y0216370D01*
X0192340Y0216340D01*
X0202420Y0204650D02*
X0202790Y0204170D01*
X0203200Y0203720D01*
X0203630Y0203300D01*
X0204080Y0202900D01*
X0204560Y0202530D01*
X0205060Y0202190D01*
X0205580Y0201880D01*
X0206110Y0201600D01*
X0206670Y0201350D01*
X0207230Y0201140D01*
X0207810Y0200960D01*
X0208400Y0200820D01*
X0208990Y0200720D01*
X0217370Y0200720D02*
X0217880Y0200780D01*
X0218380Y0200880D01*
X0218870Y0201010D01*
X0219350Y0201180D01*
X0219820Y0201380D01*
X0220270Y0201620D01*
X0220700Y0201890D01*
X0221120Y0202180D01*
X0221510Y0202510D01*
X0221870Y0202860D01*
X0222210Y0203240D01*
X0222530Y0203640D01*
X0222810Y0204060D01*
X0223060Y0204510D01*
X0223280Y0204960D01*
X0223470Y0205440D01*
X0223620Y0205920D01*
X0223740Y0206420D01*
X0223820Y0206920D01*
X0223870Y0207430D01*
X0223880Y0207940D01*
X0223850Y0208440D01*
D15*
X0214080Y0213770D02*
X0212680Y0215170D01*
X0209870Y0215170D01*
X0210570Y0216970D02*
X0213380Y0216970D01*
X0214080Y0217670D01*
X0214080Y0219070D01*
X0213380Y0219770D01*
X0210570Y0219770D01*
X0209870Y0219070D01*
X0209870Y0217670D01*
X0210570Y0216970D01*
X0214080Y0213770D02*
X0212680Y0212370D01*
X0209870Y0212370D01*
X0209870Y0221570D02*
X0211970Y0221570D01*
X0211270Y0222980D01*
X0211270Y0223680D01*
X0211970Y0224380D01*
X0213380Y0224380D01*
X0214080Y0223680D01*
X0214080Y0222280D01*
X0213380Y0221570D01*
X0209870Y0221570D02*
X0209870Y0224380D01*
X0203140Y0225720D02*
X0200330Y0225720D01*
X0202440Y0227820D01*
X0202440Y0223620D01*
X0198530Y0224320D02*
X0198530Y0227120D01*
X0197830Y0227820D01*
X0196430Y0227820D01*
X0195730Y0227120D01*
X0195730Y0224320D01*
X0196430Y0223620D01*
X0197830Y0223620D01*
X0198530Y0224320D01*
X0193930Y0225020D02*
X0193930Y0227820D01*
X0193930Y0225020D02*
X0192530Y0223620D01*
X0191130Y0225020D01*
X0191130Y0227820D01*
X0183230Y0219520D02*
X0183720Y0219020D01*
X0183720Y0218030D01*
X0182730Y0217040D01*
X0181740Y0217040D01*
X0180470Y0215760D02*
X0178490Y0217750D01*
X0177500Y0217750D01*
X0176510Y0216760D01*
X0176510Y0215760D01*
X0178490Y0213780D01*
X0179480Y0213780D01*
X0180470Y0214770D01*
X0180470Y0215760D01*
X0179760Y0219020D02*
X0179760Y0220010D01*
X0180750Y0221000D01*
X0181740Y0221000D01*
X0182240Y0220510D01*
X0182240Y0219520D01*
X0183230Y0219520D01*
X0182240Y0219520D02*
X0181740Y0219020D01*
X0176720Y0213000D02*
X0174740Y0214990D01*
X0176720Y0213000D02*
X0176720Y0211020D01*
X0174740Y0211020D01*
X0172750Y0213000D01*
X0170180Y0222370D02*
X0167370Y0222370D01*
X0167370Y0225170D02*
X0170180Y0225170D01*
X0171580Y0223770D01*
X0170180Y0222370D01*
X0170880Y0226970D02*
X0168070Y0226970D01*
X0167370Y0227670D01*
X0167370Y0229070D01*
X0168070Y0229770D01*
X0170880Y0229770D01*
X0171580Y0229070D01*
X0171580Y0227670D01*
X0170880Y0226970D01*
X0171580Y0231570D02*
X0168770Y0234380D01*
X0168070Y0234380D01*
X0167370Y0233680D01*
X0167370Y0232280D01*
X0168070Y0231570D01*
X0171580Y0231570D02*
X0171580Y0234380D01*
X0170180Y0252370D02*
X0167370Y0252370D01*
X0167370Y0255170D02*
X0170180Y0255170D01*
X0171580Y0253770D01*
X0170180Y0252370D01*
X0170880Y0256970D02*
X0168070Y0256970D01*
X0167370Y0257670D01*
X0167370Y0259070D01*
X0168070Y0259770D01*
X0170880Y0259770D01*
X0171580Y0259070D01*
X0171580Y0257670D01*
X0170880Y0256970D01*
X0171580Y0261570D02*
X0171580Y0264380D01*
X0171580Y0262980D02*
X0167370Y0262980D01*
X0168770Y0261570D01*
X0168620Y0272370D02*
X0171430Y0272370D01*
X0172830Y0273770D01*
X0171430Y0275170D01*
X0168620Y0275170D01*
X0168620Y0276970D02*
X0168620Y0278370D01*
X0168620Y0277670D02*
X0172830Y0277670D01*
X0172830Y0276970D02*
X0172830Y0278370D01*
X0172830Y0280040D02*
X0168620Y0280040D01*
X0172830Y0282840D01*
X0168620Y0282840D01*
X0209870Y0283130D02*
X0209870Y0280320D01*
X0210570Y0278520D02*
X0209870Y0277820D01*
X0209870Y0276420D01*
X0210570Y0275720D01*
X0213380Y0275720D01*
X0214080Y0276420D01*
X0214080Y0277820D01*
X0213380Y0278520D01*
X0210570Y0278520D01*
X0213380Y0280320D02*
X0214080Y0280320D01*
X0213380Y0280320D02*
X0210570Y0283130D01*
X0209870Y0283130D01*
X0209870Y0273920D02*
X0212680Y0273920D01*
X0214080Y0272520D01*
X0212680Y0271120D01*
X0209870Y0271120D01*
X0209870Y0254380D02*
X0210570Y0252980D01*
X0211970Y0251570D01*
X0211970Y0253680D01*
X0212680Y0254380D01*
X0213380Y0254380D01*
X0214080Y0253680D01*
X0214080Y0252280D01*
X0213380Y0251570D01*
X0211970Y0251570D01*
X0210570Y0249770D02*
X0209870Y0249070D01*
X0209870Y0247670D01*
X0210570Y0246970D01*
X0213380Y0246970D01*
X0214080Y0247670D01*
X0214080Y0249070D01*
X0213380Y0249770D01*
X0210570Y0249770D01*
X0209870Y0245170D02*
X0212680Y0245170D01*
X0214080Y0243770D01*
X0212680Y0242370D01*
X0209870Y0242370D01*
X0231380Y0200710D02*
G75*
%LPD*%
D11*
X0238910Y0200720D02*
X0291030Y0200720D01*
X0291030Y0200710D02*
X0291350Y0200730D01*
X0291670Y0200780D01*
X0291980Y0200870D01*
X0292280Y0201000D01*
X0292560Y0201150D01*
X0292830Y0201340D01*
X0293070Y0201550D01*
X0293280Y0201790D01*
X0293470Y0202060D01*
X0293620Y0202340D01*
X0293750Y0202640D01*
X0293840Y0202950D01*
X0293890Y0203270D01*
X0293910Y0203590D01*
X0293910Y0215970D01*
X0293900Y0215960D02*
X0293850Y0216290D01*
X0293770Y0216620D01*
X0293650Y0216930D01*
X0293500Y0217230D01*
X0293320Y0217510D01*
X0293110Y0217770D01*
X0292880Y0218010D01*
X0292620Y0218230D01*
X0292340Y0218410D01*
X0292040Y0218560D01*
X0291730Y0218690D01*
X0291410Y0218780D01*
X0291080Y0218830D01*
X0290740Y0218850D01*
X0290410Y0218830D01*
X0290410Y0218840D02*
X0257030Y0218840D01*
X0256660Y0218830D01*
X0256280Y0218850D01*
X0255910Y0218910D01*
X0255550Y0219000D01*
X0255190Y0219130D01*
X0254850Y0219290D01*
X0254520Y0219470D01*
X0254220Y0219690D01*
X0253930Y0219940D01*
X0253670Y0220210D01*
X0253430Y0220500D01*
X0253230Y0220810D01*
X0253050Y0221140D01*
X0252900Y0221490D01*
X0252790Y0221850D01*
X0252710Y0222210D01*
X0252660Y0222590D01*
X0252660Y0233840D01*
X0252710Y0234160D01*
X0252800Y0234460D01*
X0252920Y0234750D01*
X0253070Y0235030D01*
X0253250Y0235290D01*
X0253470Y0235530D01*
X0253700Y0235740D01*
X0253960Y0235920D01*
X0254240Y0236080D01*
X0254530Y0236200D01*
X0254840Y0236290D01*
X0255150Y0236340D01*
X0255470Y0236360D01*
X0255780Y0236340D01*
X0270410Y0236340D01*
X0270410Y0236350D02*
X0270720Y0236330D01*
X0271030Y0236350D01*
X0271340Y0236400D01*
X0271630Y0236500D01*
X0271920Y0236620D01*
X0272180Y0236790D01*
X0272430Y0236980D01*
X0272650Y0237200D01*
X0272840Y0237440D01*
X0273000Y0237710D01*
X0273130Y0237990D01*
X0273220Y0238290D01*
X0273280Y0238600D01*
X0273280Y0238590D02*
X0273280Y0246580D01*
X0273270Y0246580D02*
X0273290Y0246910D01*
X0273270Y0247250D01*
X0273210Y0247580D01*
X0273130Y0247900D01*
X0273000Y0248220D01*
X0272850Y0248520D01*
X0272660Y0248800D01*
X0272450Y0249060D01*
X0272210Y0249290D01*
X0271950Y0249500D01*
X0271660Y0249680D01*
X0271360Y0249830D01*
X0271050Y0249950D01*
X0270720Y0250030D01*
X0270390Y0250080D01*
X0270400Y0250090D02*
X0255050Y0250090D01*
X0255050Y0250100D02*
X0254750Y0250150D01*
X0254450Y0250240D01*
X0254170Y0250350D01*
X0253910Y0250500D01*
X0253660Y0250680D01*
X0253430Y0250880D01*
X0253230Y0251110D01*
X0253050Y0251360D01*
X0252910Y0251630D01*
X0252790Y0251910D01*
X0252710Y0252200D01*
X0252660Y0252500D01*
X0252640Y0252810D01*
X0252660Y0253110D01*
X0252660Y0263590D01*
X0252680Y0263980D01*
X0252740Y0264370D01*
X0252830Y0264750D01*
X0252960Y0265120D01*
X0253130Y0265480D01*
X0253330Y0265810D01*
X0253570Y0266130D01*
X0253830Y0266420D01*
X0254120Y0266680D01*
X0254440Y0266920D01*
X0254770Y0267120D01*
X0255130Y0267290D01*
X0255500Y0267420D01*
X0255880Y0267510D01*
X0256270Y0267570D01*
X0256660Y0267590D01*
X0286640Y0267590D01*
X0287180Y0267670D01*
X0287710Y0267800D01*
X0288230Y0267960D01*
X0288740Y0268160D01*
X0289230Y0268390D01*
X0289700Y0268660D01*
X0290160Y0268960D01*
X0290590Y0269300D01*
X0290990Y0269660D01*
X0291370Y0270050D01*
X0291720Y0270470D01*
X0292040Y0270910D01*
X0292330Y0271380D01*
X0292590Y0271860D01*
X0292800Y0272360D01*
X0292990Y0272870D01*
X0293130Y0273400D01*
X0293240Y0273930D01*
X0293310Y0274470D01*
X0293340Y0275020D01*
X0293330Y0275560D01*
X0293280Y0276110D01*
X0293280Y0277710D01*
X0293310Y0278230D01*
X0293300Y0278760D01*
X0293250Y0279290D01*
X0293160Y0279810D01*
X0293040Y0280320D01*
X0292880Y0280830D01*
X0292680Y0281320D01*
X0292450Y0281800D01*
X0292190Y0282250D01*
X0291890Y0282690D01*
X0291560Y0283110D01*
X0291210Y0283500D01*
X0290830Y0283870D01*
X0290420Y0284200D01*
X0289990Y0284510D01*
X0289540Y0284790D01*
X0289070Y0285030D01*
X0288580Y0285240D01*
X0288080Y0285410D01*
X0287570Y0285550D01*
X0287050Y0285650D01*
X0286520Y0285710D01*
X0286520Y0285720D02*
X0237660Y0285720D01*
X0237660Y0285710D02*
X0237140Y0285650D01*
X0236640Y0285540D01*
X0236140Y0285400D01*
X0235660Y0285220D01*
X0235190Y0285010D01*
X0234740Y0284760D01*
X0234300Y0284480D01*
X0233890Y0284170D01*
X0233510Y0283820D01*
X0233150Y0283450D01*
X0232820Y0283060D01*
X0232520Y0282640D01*
X0232250Y0282190D01*
X0232020Y0281730D01*
X0231820Y0281260D01*
X0231660Y0280770D01*
X0231530Y0280270D01*
X0231440Y0279760D01*
X0231390Y0279250D01*
X0231380Y0278730D01*
X0231410Y0278220D01*
X0231410Y0208220D01*
X0231430Y0207680D01*
X0231490Y0207150D01*
X0231580Y0206630D01*
X0231710Y0206110D01*
X0231880Y0205600D01*
X0232090Y0205100D01*
X0232330Y0204630D01*
X0232600Y0204170D01*
X0232910Y0203730D01*
X0233240Y0203310D01*
X0233610Y0202920D01*
X0234000Y0202550D01*
X0234420Y0202220D01*
X0234860Y0201910D01*
X0235320Y0201640D01*
X0235790Y0201400D01*
X0236290Y0201190D01*
X0236800Y0201020D01*
X0237320Y0200890D01*
X0237840Y0200800D01*
X0238370Y0200740D01*
X0238910Y0200720D01*
D15*
X0238210Y0206120D02*
X0236810Y0207520D01*
X0236810Y0210320D01*
X0239610Y0210320D02*
X0239610Y0207520D01*
X0238210Y0206120D01*
X0241410Y0206820D02*
X0241410Y0209620D01*
X0242110Y0210320D01*
X0243510Y0210320D01*
X0244210Y0209620D01*
X0244210Y0206820D01*
X0243510Y0206120D01*
X0242110Y0206120D01*
X0241410Y0206820D01*
X0246010Y0206120D02*
X0248820Y0208920D01*
X0248820Y0209620D01*
X0248120Y0210320D01*
X0246720Y0210320D01*
X0246010Y0209620D01*
X0246010Y0206120D02*
X0248820Y0206120D01*
X0261810Y0207520D02*
X0263210Y0206120D01*
X0264610Y0207520D01*
X0264610Y0210320D01*
X0266410Y0209620D02*
X0266410Y0206820D01*
X0267110Y0206120D01*
X0268510Y0206120D01*
X0269210Y0206820D01*
X0269210Y0209620D01*
X0268510Y0210320D01*
X0267110Y0210320D01*
X0266410Y0209620D01*
X0261810Y0210320D02*
X0261810Y0207520D01*
X0271010Y0208920D02*
X0272420Y0210320D01*
X0272420Y0206120D01*
X0273820Y0206120D02*
X0271010Y0206120D01*
X0280560Y0210020D02*
X0281960Y0208620D01*
X0283360Y0210020D01*
X0283360Y0212820D01*
X0285160Y0212820D02*
X0286560Y0212820D01*
X0285860Y0212820D02*
X0285860Y0208620D01*
X0285160Y0208620D02*
X0286560Y0208620D01*
X0288230Y0208620D02*
X0288230Y0212820D01*
X0291030Y0208620D01*
X0291030Y0212820D01*
X0280560Y0212820D02*
X0280560Y0210020D01*
X0260950Y0241120D02*
X0260950Y0241820D01*
X0263760Y0244620D01*
X0263760Y0245320D01*
X0260950Y0245320D01*
X0259150Y0244620D02*
X0258450Y0245320D01*
X0257050Y0245320D01*
X0256350Y0244620D01*
X0256350Y0241820D01*
X0257050Y0241120D01*
X0258450Y0241120D01*
X0259150Y0241820D01*
X0259150Y0244620D01*
X0254550Y0245320D02*
X0254550Y0242520D01*
X0253150Y0241120D01*
X0251740Y0242520D01*
X0251740Y0245320D01*
X0246010Y0241180D02*
X0246010Y0239780D01*
X0245310Y0239070D01*
X0245310Y0237270D02*
X0242500Y0237270D01*
X0241800Y0236570D01*
X0241800Y0235170D01*
X0242500Y0234470D01*
X0245310Y0234470D01*
X0246010Y0235170D01*
X0246010Y0236570D01*
X0245310Y0237270D01*
X0242500Y0239070D02*
X0241800Y0239780D01*
X0241800Y0241180D01*
X0242500Y0241880D01*
X0243200Y0241880D01*
X0243900Y0241180D01*
X0244610Y0241880D01*
X0245310Y0241880D01*
X0246010Y0241180D01*
X0243900Y0241180D02*
X0243900Y0240480D01*
X0244610Y0232670D02*
X0241800Y0232670D01*
X0241800Y0229870D02*
X0244610Y0229870D01*
X0246010Y0231270D01*
X0244610Y0232670D01*
X0244610Y0259870D02*
X0241800Y0259870D01*
X0241800Y0262670D02*
X0244610Y0262670D01*
X0246010Y0261270D01*
X0244610Y0259870D01*
X0245310Y0264470D02*
X0242500Y0264470D01*
X0241800Y0265170D01*
X0241800Y0266570D01*
X0242500Y0267270D01*
X0245310Y0267270D01*
X0246010Y0266570D01*
X0246010Y0265170D01*
X0245310Y0264470D01*
X0243900Y0269070D02*
X0243900Y0271880D01*
X0241800Y0271180D02*
X0246010Y0271180D01*
X0243900Y0269070D02*
X0241800Y0271180D01*
X0251810Y0275020D02*
X0253210Y0273620D01*
X0254610Y0275020D01*
X0254610Y0277820D01*
X0256410Y0277120D02*
X0256410Y0274320D01*
X0257110Y0273620D01*
X0258510Y0273620D01*
X0259210Y0274320D01*
X0259210Y0277120D01*
X0258510Y0277820D01*
X0257110Y0277820D01*
X0256410Y0277120D01*
X0251810Y0277820D02*
X0251810Y0275020D01*
X0261010Y0275720D02*
X0262420Y0276420D01*
X0263120Y0276420D01*
X0263820Y0275720D01*
X0263820Y0274320D01*
X0263120Y0273620D01*
X0261720Y0273620D01*
X0261010Y0274320D01*
X0261010Y0275720D02*
X0261010Y0277820D01*
X0263820Y0277820D01*
X0278060Y0277820D02*
X0278060Y0275020D01*
X0279460Y0273620D01*
X0280860Y0275020D01*
X0280860Y0277820D01*
X0282660Y0277120D02*
X0282660Y0274320D01*
X0283360Y0273620D01*
X0284760Y0273620D01*
X0285460Y0274320D01*
X0285460Y0277120D01*
X0284760Y0277820D01*
X0283360Y0277820D01*
X0282660Y0277120D01*
X0287260Y0275720D02*
X0287260Y0274320D01*
X0287970Y0273620D01*
X0289370Y0273620D01*
X0290070Y0274320D01*
X0290070Y0275020D01*
X0289370Y0275720D01*
X0287260Y0275720D01*
X0288670Y0277120D01*
X0290070Y0277820D01*
X0301410Y0200710D02*
G75*
%LPD*%
D11*
X0304220Y0200710D02*
X0317470Y0200710D01*
X0317870Y0200760D01*
X0318250Y0200840D01*
X0318630Y0200960D01*
X0318990Y0201110D01*
X0319340Y0201300D01*
X0319670Y0201520D01*
X0319980Y0201760D01*
X0320270Y0202040D01*
X0320530Y0202340D01*
X0320750Y0202660D01*
X0320950Y0203000D01*
X0321120Y0203360D01*
X0321250Y0203730D01*
X0321350Y0204110D01*
X0321410Y0204500D01*
X0321440Y0204900D01*
X0321430Y0205290D01*
X0321430Y0217000D01*
X0321450Y0217460D01*
X0321510Y0217920D01*
X0321600Y0218370D01*
X0321730Y0218820D01*
X0321900Y0219250D01*
X0322100Y0219660D01*
X0322340Y0220060D01*
X0322610Y0220430D01*
X0322910Y0220790D01*
X0323230Y0221110D01*
X0323590Y0221410D01*
X0323960Y0221680D01*
X0324360Y0221920D01*
X0324770Y0222120D01*
X0325200Y0222290D01*
X0325650Y0222420D01*
X0326100Y0222510D01*
X0326560Y0222570D01*
X0327020Y0222590D01*
X0329910Y0222590D01*
X0334350Y0220390D02*
X0347380Y0203360D01*
X0351470Y0200710D02*
X0361640Y0200710D01*
X0362010Y0200730D01*
X0362380Y0200790D01*
X0362730Y0200880D01*
X0363080Y0201020D01*
X0363410Y0201180D01*
X0363720Y0201390D01*
X0364010Y0201620D01*
X0364270Y0201880D01*
X0364500Y0202170D01*
X0364710Y0202480D01*
X0364870Y0202810D01*
X0365010Y0203160D01*
X0365100Y0203510D01*
X0365160Y0203880D01*
X0365180Y0204250D01*
X0365180Y0211010D01*
X0361410Y0220730D02*
X0361360Y0220780D01*
X0361370Y0220780D02*
X0360940Y0221240D01*
X0360530Y0221720D01*
X0360160Y0222230D01*
X0359820Y0222760D01*
X0359510Y0223310D01*
X0359230Y0223880D01*
X0358990Y0224460D01*
X0358780Y0225050D01*
X0358610Y0225660D01*
X0358480Y0226280D01*
X0358390Y0226900D01*
X0358330Y0227530D01*
X0358310Y0228160D01*
X0362050Y0236960D02*
X0362050Y0236960D01*
X0365180Y0244510D02*
X0365180Y0265090D01*
X0362080Y0272560D02*
X0352730Y0281910D01*
X0342040Y0286340D02*
X0318810Y0286340D01*
X0318800Y0286340D02*
X0317990Y0286330D01*
X0317180Y0286290D01*
X0316370Y0286210D01*
X0315570Y0286090D01*
X0314770Y0285930D01*
X0313980Y0285730D01*
X0313200Y0285500D01*
X0312440Y0285230D01*
X0311680Y0284920D01*
X0310950Y0284580D01*
X0310230Y0284210D01*
X0309530Y0283800D01*
X0308840Y0283350D01*
X0308190Y0282880D01*
X0307550Y0282370D01*
X0306940Y0281840D01*
X0306350Y0281270D01*
X0305800Y0280680D01*
X0305270Y0280070D01*
X0304770Y0279420D01*
X0304300Y0278760D01*
X0303870Y0278070D01*
X0303460Y0277370D01*
X0303100Y0276640D01*
X0302760Y0275900D01*
X0302460Y0275150D01*
X0302200Y0274380D01*
X0301980Y0273600D01*
X0301790Y0272810D01*
X0301640Y0272010D01*
X0301530Y0271200D01*
X0301460Y0270390D01*
X0301420Y0269580D01*
X0301430Y0269580D02*
X0301430Y0204130D01*
X0301410Y0203810D01*
X0301430Y0203480D01*
X0301480Y0203160D01*
X0301570Y0202840D01*
X0301690Y0202540D01*
X0301840Y0202250D01*
X0302010Y0201970D01*
X0302220Y0201720D01*
X0302450Y0201490D01*
X0302710Y0201290D01*
X0302980Y0201110D01*
X0303270Y0200960D01*
X0303580Y0200850D01*
X0303900Y0200770D01*
X0304220Y0200720D01*
X0329910Y0222590D02*
X0330380Y0222570D01*
X0330840Y0222510D01*
X0331290Y0222420D01*
X0331740Y0222280D01*
X0332180Y0222110D01*
X0332590Y0221900D01*
X0332990Y0221660D01*
X0333370Y0221390D01*
X0333720Y0221090D01*
X0334050Y0220750D01*
X0334350Y0220400D01*
X0361410Y0220730D02*
X0361890Y0220210D01*
X0362340Y0219650D01*
X0362760Y0219080D01*
X0363150Y0218480D01*
X0363510Y0217860D01*
X0363830Y0217230D01*
X0364130Y0216580D01*
X0364380Y0215910D01*
X0364610Y0215230D01*
X0364790Y0214540D01*
X0364940Y0213850D01*
X0365060Y0213140D01*
X0365130Y0212430D01*
X0365170Y0211720D01*
X0365180Y0211010D01*
X0351480Y0200720D02*
X0351020Y0200790D01*
X0350580Y0200900D01*
X0350140Y0201040D01*
X0349720Y0201230D01*
X0349320Y0201440D01*
X0348930Y0201690D01*
X0348570Y0201970D01*
X0348230Y0202280D01*
X0347920Y0202620D01*
X0347640Y0202980D01*
X0347390Y0203360D01*
X0358300Y0228160D02*
X0358320Y0228810D01*
X0358380Y0229470D01*
X0358470Y0230110D01*
X0358600Y0230760D01*
X0358760Y0231390D01*
X0358950Y0232020D01*
X0359180Y0232630D01*
X0359430Y0233230D01*
X0359720Y0233820D01*
X0360040Y0234390D01*
X0360390Y0234950D01*
X0360760Y0235480D01*
X0361170Y0236000D01*
X0361600Y0236490D01*
X0362050Y0236960D01*
X0362060Y0236960D02*
X0362500Y0237430D01*
X0362910Y0237930D01*
X0363290Y0238450D01*
X0363640Y0238990D01*
X0363960Y0239550D01*
X0364240Y0240130D01*
X0364490Y0240730D01*
X0364700Y0241340D01*
X0364870Y0241960D01*
X0365010Y0242590D01*
X0365100Y0243220D01*
X0365160Y0243870D01*
X0365180Y0244510D01*
X0362060Y0236960D02*
X0362050Y0236950D01*
X0365170Y0265090D02*
X0365150Y0265730D01*
X0365090Y0266360D01*
X0365000Y0266990D01*
X0364860Y0267620D01*
X0364690Y0268230D01*
X0364480Y0268830D01*
X0364240Y0269420D01*
X0363960Y0270000D01*
X0363650Y0270550D01*
X0363300Y0271090D01*
X0362920Y0271600D01*
X0362510Y0272090D01*
X0362080Y0272560D01*
X0352730Y0281910D02*
X0352190Y0282420D01*
X0351630Y0282910D01*
X0351050Y0283360D01*
X0350440Y0283790D01*
X0349810Y0284190D01*
X0349170Y0284550D01*
X0348500Y0284890D01*
X0347830Y0285190D01*
X0347130Y0285460D01*
X0346430Y0285690D01*
X0345710Y0285890D01*
X0344990Y0286050D01*
X0344260Y0286180D01*
X0343520Y0286270D01*
X0342780Y0286320D01*
X0342040Y0286340D01*
X0321930Y0253840D02*
X0321950Y0254530D01*
X0322010Y0255220D01*
X0322110Y0255900D01*
X0322250Y0256580D01*
X0322420Y0257250D01*
X0322640Y0257910D01*
X0322890Y0258550D01*
X0323180Y0259180D01*
X0323510Y0259790D01*
X0323870Y0260380D01*
X0324260Y0260950D01*
X0324690Y0261490D01*
X0325140Y0262010D01*
X0325630Y0262510D01*
X0326140Y0262970D01*
X0326680Y0263400D01*
X0327250Y0263810D01*
X0327830Y0264170D01*
X0328440Y0264510D01*
X0329060Y0264810D01*
X0329700Y0265070D01*
X0330350Y0265290D01*
X0331020Y0265480D01*
X0331700Y0265630D01*
X0332380Y0265740D01*
X0333070Y0265810D01*
X0333760Y0265840D01*
X0334450Y0265830D01*
X0335140Y0265780D01*
X0335820Y0265690D01*
X0336500Y0265560D01*
X0337170Y0265390D01*
X0337840Y0265190D01*
X0338480Y0264940D01*
X0339110Y0264660D01*
X0339730Y0264350D01*
X0340320Y0263990D01*
X0340900Y0263610D01*
X0341450Y0263190D01*
X0341980Y0262740D01*
X0342480Y0262260D01*
X0342950Y0261760D01*
X0343390Y0261220D01*
X0343800Y0260670D01*
X0344180Y0260090D01*
X0344520Y0259490D01*
X0344830Y0258870D01*
X0345100Y0258230D01*
X0345330Y0257580D01*
X0345530Y0256920D01*
X0345690Y0256240D01*
X0345810Y0255560D01*
X0345890Y0254880D01*
X0345930Y0254190D01*
X0345930Y0253490D01*
X0345890Y0252800D01*
X0345810Y0252120D01*
X0345690Y0251440D01*
X0345530Y0250760D01*
X0345330Y0250100D01*
X0345100Y0249450D01*
X0344830Y0248810D01*
X0344520Y0248190D01*
X0344180Y0247590D01*
X0343800Y0247010D01*
X0343390Y0246460D01*
X0342950Y0245920D01*
X0342480Y0245420D01*
X0341980Y0244940D01*
X0341450Y0244490D01*
X0340900Y0244070D01*
X0340320Y0243690D01*
X0339730Y0243330D01*
X0339110Y0243020D01*
X0338480Y0242740D01*
X0337840Y0242490D01*
X0337170Y0242290D01*
X0336500Y0242120D01*
X0335820Y0241990D01*
X0335140Y0241900D01*
X0334450Y0241850D01*
X0333760Y0241840D01*
X0333070Y0241870D01*
X0332380Y0241940D01*
X0331700Y0242050D01*
X0331020Y0242200D01*
X0330350Y0242390D01*
X0329700Y0242610D01*
X0329060Y0242870D01*
X0328440Y0243170D01*
X0327830Y0243510D01*
X0327250Y0243870D01*
X0326680Y0244280D01*
X0326140Y0244710D01*
X0325630Y0245170D01*
X0325140Y0245670D01*
X0324690Y0246190D01*
X0324260Y0246730D01*
X0323870Y0247300D01*
X0323510Y0247890D01*
X0323180Y0248500D01*
X0322890Y0249130D01*
X0322640Y0249770D01*
X0322420Y0250430D01*
X0322250Y0251100D01*
X0322110Y0251780D01*
X0322010Y0252460D01*
X0321950Y0253150D01*
X0321930Y0253840D01*
D15*
X0314780Y0253750D02*
X0314780Y0250940D01*
X0311970Y0253750D01*
X0311270Y0253750D01*
X0310570Y0253050D01*
X0310570Y0251650D01*
X0311270Y0250940D01*
X0311270Y0249140D02*
X0310570Y0248440D01*
X0310570Y0247040D01*
X0311270Y0246340D01*
X0314080Y0246340D01*
X0314780Y0247040D01*
X0314780Y0248440D01*
X0314080Y0249140D01*
X0311270Y0249140D01*
X0310570Y0244540D02*
X0313380Y0244540D01*
X0314780Y0243140D01*
X0313380Y0241740D01*
X0310570Y0241740D01*
X0318080Y0235940D02*
X0318080Y0233140D01*
X0319480Y0231740D01*
X0320880Y0233140D01*
X0320880Y0235940D01*
X0322680Y0235240D02*
X0322680Y0232440D01*
X0323380Y0231740D01*
X0324780Y0231740D01*
X0325480Y0232440D01*
X0325480Y0235240D01*
X0324780Y0235940D01*
X0323380Y0235940D01*
X0322680Y0235240D01*
X0327280Y0235940D02*
X0330090Y0235940D01*
X0330090Y0235240D01*
X0327280Y0232440D01*
X0327280Y0231740D01*
X0312280Y0230000D02*
X0312280Y0227190D01*
X0312280Y0228600D02*
X0308070Y0228600D01*
X0309470Y0227190D01*
X0308770Y0225390D02*
X0308070Y0224690D01*
X0308070Y0223290D01*
X0308770Y0222590D01*
X0311580Y0222590D01*
X0312280Y0223290D01*
X0312280Y0224690D01*
X0311580Y0225390D01*
X0308770Y0225390D01*
X0308070Y0220790D02*
X0310880Y0220790D01*
X0312280Y0219390D01*
X0310880Y0217990D01*
X0308070Y0217990D01*
X0309320Y0213460D02*
X0313530Y0213460D01*
X0309320Y0210660D01*
X0313530Y0210660D01*
X0313530Y0208990D02*
X0313530Y0207590D01*
X0313530Y0208290D02*
X0309320Y0208290D01*
X0309320Y0207590D02*
X0309320Y0208990D01*
X0309320Y0205790D02*
X0312130Y0205790D01*
X0313530Y0204390D01*
X0312130Y0202990D01*
X0309320Y0202990D01*
X0346820Y0209240D02*
X0349630Y0209240D01*
X0351030Y0210640D01*
X0349630Y0212040D01*
X0346820Y0212040D01*
X0347520Y0213840D02*
X0350330Y0213840D01*
X0351030Y0214540D01*
X0351030Y0215940D01*
X0350330Y0216640D01*
X0347520Y0216640D01*
X0346820Y0215940D01*
X0346820Y0214540D01*
X0347520Y0213840D01*
X0347520Y0218440D02*
X0346820Y0219150D01*
X0346820Y0220550D01*
X0347520Y0221250D01*
X0348220Y0221250D01*
X0348920Y0220550D01*
X0348920Y0219150D01*
X0348220Y0218440D01*
X0347520Y0218440D01*
X0348920Y0219150D02*
X0349630Y0218440D01*
X0350330Y0218440D01*
X0351030Y0219150D01*
X0351030Y0220550D01*
X0350330Y0221250D01*
X0349630Y0221250D01*
X0348920Y0220550D01*
X0349630Y0225490D02*
X0346820Y0225490D01*
X0346820Y0228290D02*
X0349630Y0228290D01*
X0351030Y0226890D01*
X0349630Y0225490D01*
X0350330Y0230090D02*
X0347520Y0230090D01*
X0346820Y0230790D01*
X0346820Y0232190D01*
X0347520Y0232890D01*
X0350330Y0232890D01*
X0351030Y0232190D01*
X0351030Y0230790D01*
X0350330Y0230090D01*
X0350330Y0234690D02*
X0348920Y0234690D01*
X0348920Y0236800D01*
X0349630Y0237500D01*
X0350330Y0237500D01*
X0351030Y0236800D01*
X0351030Y0235400D01*
X0350330Y0234690D01*
X0348920Y0234690D02*
X0347520Y0236100D01*
X0346820Y0237500D01*
X0353070Y0247990D02*
X0355880Y0247990D01*
X0357280Y0249390D01*
X0355880Y0250790D01*
X0353070Y0250790D01*
X0353770Y0252590D02*
X0353070Y0253290D01*
X0353070Y0254690D01*
X0353770Y0255390D01*
X0356580Y0255390D01*
X0357280Y0254690D01*
X0357280Y0253290D01*
X0356580Y0252590D01*
X0353770Y0252590D01*
X0353070Y0257190D02*
X0355170Y0257190D01*
X0354470Y0258600D01*
X0354470Y0259300D01*
X0355170Y0260000D01*
X0356580Y0260000D01*
X0357280Y0259300D01*
X0357280Y0257900D01*
X0356580Y0257190D01*
X0353070Y0257190D02*
X0353070Y0260000D01*
X0346890Y0272990D02*
X0346890Y0277190D01*
X0344780Y0275090D01*
X0347590Y0275090D01*
X0342980Y0273690D02*
X0342980Y0276490D01*
X0342280Y0277190D01*
X0340880Y0277190D01*
X0340180Y0276490D01*
X0340180Y0273690D01*
X0340880Y0272990D01*
X0342280Y0272990D01*
X0342980Y0273690D01*
X0338380Y0274390D02*
X0338380Y0277190D01*
X0338380Y0274390D02*
X0336980Y0272990D01*
X0335580Y0274390D01*
X0335580Y0277190D01*
X0326030Y0275940D02*
X0326030Y0274540D01*
X0325330Y0273840D01*
X0322520Y0273840D01*
X0321820Y0274540D01*
X0321820Y0275940D01*
X0322520Y0276640D01*
X0325330Y0276640D01*
X0326030Y0275940D01*
X0325330Y0278440D02*
X0326030Y0279150D01*
X0326030Y0280550D01*
X0325330Y0281250D01*
X0324630Y0281250D01*
X0323920Y0280550D01*
X0323920Y0279850D01*
X0323920Y0280550D02*
X0323220Y0281250D01*
X0322520Y0281250D01*
X0321820Y0280550D01*
X0321820Y0279150D01*
X0322520Y0278440D01*
X0321820Y0272040D02*
X0324630Y0272040D01*
X0326030Y0270640D01*
X0324630Y0269240D01*
X0321820Y0269240D01*
X0012500Y0295090D02*
G75*
%LPD*%
D11*
X0035000Y0295090D02*
X0055000Y0295090D01*
X0055000Y0360090D01*
X0077500Y0360090D01*
X0077500Y0381340D01*
X0012500Y0381340D01*
X0012500Y0360090D01*
X0035000Y0360090D01*
X0035000Y0295090D01*
D15*
X0042890Y0296960D02*
X0045700Y0296960D01*
X0047100Y0298360D01*
X0045700Y0299760D01*
X0042890Y0299760D01*
X0042890Y0301560D02*
X0042890Y0302960D01*
X0042890Y0302260D02*
X0047100Y0302260D01*
X0047100Y0301560D02*
X0047100Y0302960D01*
X0047100Y0304630D02*
X0042890Y0304630D01*
X0047100Y0307440D01*
X0042890Y0307440D01*
X0042890Y0314240D02*
X0045700Y0314240D01*
X0047100Y0315640D01*
X0045700Y0317040D01*
X0042890Y0317040D01*
X0043590Y0318840D02*
X0046400Y0318840D01*
X0047100Y0319540D01*
X0047100Y0320940D01*
X0046400Y0321640D01*
X0043590Y0321640D01*
X0042890Y0320940D01*
X0042890Y0319540D01*
X0043590Y0318840D01*
X0044290Y0323440D02*
X0042890Y0324850D01*
X0047100Y0324850D01*
X0047100Y0326250D02*
X0047100Y0323440D01*
X0045700Y0339240D02*
X0042890Y0339240D01*
X0042890Y0342040D02*
X0045700Y0342040D01*
X0047100Y0340640D01*
X0045700Y0339240D01*
X0046400Y0343840D02*
X0043590Y0343840D01*
X0042890Y0344540D01*
X0042890Y0345940D01*
X0043590Y0346640D01*
X0046400Y0346640D01*
X0047100Y0345940D01*
X0047100Y0344540D01*
X0046400Y0343840D01*
X0047100Y0348440D02*
X0044290Y0351250D01*
X0043590Y0351250D01*
X0042890Y0350550D01*
X0042890Y0349150D01*
X0043590Y0348440D01*
X0047100Y0348440D02*
X0047100Y0351250D01*
X0060400Y0364390D02*
X0061800Y0362990D01*
X0063200Y0364390D01*
X0063200Y0367190D01*
X0065000Y0366490D02*
X0065000Y0363690D01*
X0065700Y0362990D01*
X0067100Y0362990D01*
X0067800Y0363690D01*
X0067800Y0366490D01*
X0067100Y0367190D01*
X0065700Y0367190D01*
X0065000Y0366490D01*
X0069600Y0367190D02*
X0069600Y0365090D01*
X0071010Y0365790D01*
X0071710Y0365790D01*
X0072410Y0365090D01*
X0072410Y0363690D01*
X0071710Y0362990D01*
X0070310Y0362990D01*
X0069600Y0363690D01*
X0069600Y0367190D02*
X0072410Y0367190D01*
X0060400Y0367190D02*
X0060400Y0364390D01*
X0056710Y0374240D02*
X0055310Y0374240D01*
X0054600Y0374940D01*
X0056010Y0376340D02*
X0056710Y0376340D01*
X0057410Y0375640D01*
X0057410Y0374940D01*
X0056710Y0374240D01*
X0056710Y0376340D02*
X0057410Y0377040D01*
X0057410Y0377740D01*
X0056710Y0378440D01*
X0055310Y0378440D01*
X0054600Y0377740D01*
X0052800Y0377740D02*
X0052800Y0374940D01*
X0052100Y0374240D01*
X0050700Y0374240D01*
X0050000Y0374940D01*
X0050000Y0377740D01*
X0050700Y0378440D01*
X0052100Y0378440D01*
X0052800Y0377740D01*
X0048200Y0378440D02*
X0048200Y0375640D01*
X0046800Y0374240D01*
X0045400Y0375640D01*
X0045400Y0378440D01*
X0028660Y0365090D02*
X0025850Y0365090D01*
X0027960Y0367190D01*
X0027960Y0362990D01*
X0024050Y0363690D02*
X0024050Y0366490D01*
X0023350Y0367190D01*
X0021950Y0367190D01*
X0021250Y0366490D01*
X0021250Y0363690D01*
X0021950Y0362990D01*
X0023350Y0362990D01*
X0024050Y0363690D01*
X0019450Y0364390D02*
X0019450Y0367190D01*
X0019450Y0364390D02*
X0018050Y0362990D01*
X0016650Y0364390D01*
X0016650Y0367190D01*
X0085000Y0295090D02*
G75*
%LPD*%
D11*
X0085040Y0310790D02*
X0085040Y0360160D01*
X0085000Y0361030D01*
X0085010Y0361910D01*
X0085050Y0362780D01*
X0085130Y0363650D01*
X0085240Y0364520D01*
X0085400Y0365380D01*
X0085590Y0366230D01*
X0085820Y0367080D01*
X0086080Y0367910D01*
X0086380Y0368730D01*
X0086720Y0369540D01*
X0087090Y0370330D01*
X0087500Y0371100D01*
X0087940Y0371860D01*
X0088410Y0372590D01*
X0088910Y0373310D01*
X0089450Y0374000D01*
X0090010Y0374670D01*
X0090610Y0375310D01*
X0091230Y0375930D01*
X0091870Y0376520D01*
X0092540Y0377080D01*
X0093240Y0377610D01*
X0093960Y0378110D01*
X0094700Y0378570D01*
X0095450Y0379010D01*
X0096230Y0379410D01*
X0097020Y0379780D01*
X0097830Y0380110D01*
X0098660Y0380410D01*
X0099490Y0380670D01*
X0100340Y0380890D01*
X0101190Y0381080D01*
X0102050Y0381230D01*
X0102920Y0381340D01*
X0103790Y0381410D01*
X0130670Y0381410D01*
X0130660Y0381410D02*
X0131540Y0381420D01*
X0132410Y0381390D01*
X0133280Y0381320D01*
X0134150Y0381210D01*
X0135010Y0381070D01*
X0135860Y0380890D01*
X0136710Y0380670D01*
X0137540Y0380420D01*
X0138370Y0380130D01*
X0139180Y0379800D01*
X0139970Y0379440D01*
X0140750Y0379040D01*
X0141510Y0378610D01*
X0142250Y0378150D01*
X0142970Y0377660D01*
X0143670Y0377130D01*
X0144340Y0376580D01*
X0144990Y0375990D01*
X0145610Y0375380D01*
X0146210Y0374740D01*
X0146780Y0374080D01*
X0147310Y0373390D01*
X0147820Y0372680D01*
X0148300Y0371950D01*
X0148740Y0371200D01*
X0149150Y0370430D01*
X0149530Y0369640D01*
X0149870Y0368840D01*
X0150180Y0368020D01*
X0150450Y0367190D01*
X0150680Y0366350D01*
X0150880Y0365500D01*
X0151040Y0364640D01*
X0151160Y0363780D01*
X0151240Y0362910D01*
X0151290Y0362040D01*
X0151290Y0315790D01*
X0151300Y0315790D02*
X0151340Y0314920D01*
X0151330Y0314050D01*
X0151290Y0313180D01*
X0151210Y0312310D01*
X0151090Y0311450D01*
X0150930Y0310590D01*
X0150740Y0309740D01*
X0150500Y0308900D01*
X0150230Y0308070D01*
X0149920Y0307260D01*
X0149580Y0306460D01*
X0149200Y0305670D01*
X0148780Y0304910D01*
X0148330Y0304160D01*
X0147850Y0303430D01*
X0147340Y0302730D01*
X0146790Y0302050D01*
X0146220Y0301400D01*
X0145610Y0300770D01*
X0144980Y0300170D01*
X0144320Y0299600D01*
X0143640Y0299060D01*
X0142930Y0298540D01*
X0142200Y0298070D01*
X0141460Y0297620D01*
X0140690Y0297210D01*
X0139900Y0296840D01*
X0139100Y0296500D01*
X0138280Y0296190D01*
X0137450Y0295920D01*
X0136610Y0295690D01*
X0135760Y0295500D01*
X0134900Y0295350D01*
X0134040Y0295240D01*
X0133170Y0295160D01*
X0133790Y0295160D02*
X0103790Y0295160D01*
X0102970Y0295110D01*
X0102150Y0295090D01*
X0101330Y0295110D01*
X0100510Y0295180D01*
X0099700Y0295280D01*
X0098890Y0295420D01*
X0098080Y0295600D01*
X0097290Y0295810D01*
X0096510Y0296070D01*
X0095740Y0296360D01*
X0094990Y0296680D01*
X0094250Y0297040D01*
X0093530Y0297440D01*
X0092830Y0297870D01*
X0092150Y0298340D01*
X0091500Y0298830D01*
X0090870Y0299360D01*
X0090260Y0299910D01*
X0089680Y0300500D01*
X0089130Y0301110D01*
X0088610Y0301740D01*
X0088130Y0302400D01*
X0087670Y0303080D01*
X0087240Y0303790D01*
X0086850Y0304510D01*
X0086500Y0305250D01*
X0086180Y0306010D01*
X0085890Y0306780D01*
X0085650Y0307560D01*
X0085440Y0308360D01*
X0085270Y0309160D01*
X0085130Y0309970D01*
X0085040Y0310790D01*
X0105670Y0328290D02*
X0105670Y0349540D01*
X0105780Y0350230D01*
X0105930Y0350900D01*
X0106120Y0351570D01*
X0106340Y0352230D01*
X0106600Y0352870D01*
X0106890Y0353500D01*
X0107220Y0354110D01*
X0107580Y0354700D01*
X0107980Y0355270D01*
X0108400Y0355820D01*
X0108850Y0356340D01*
X0109340Y0356840D01*
X0109850Y0357310D01*
X0110380Y0357750D01*
X0110940Y0358160D01*
X0111520Y0358540D01*
X0112120Y0358890D01*
X0112730Y0359200D01*
X0113370Y0359480D01*
X0114020Y0359730D01*
X0114680Y0359940D01*
X0115350Y0360110D01*
X0116030Y0360240D01*
X0116710Y0360340D01*
X0117410Y0360400D01*
X0118100Y0360420D01*
X0118790Y0360400D01*
X0119480Y0360350D01*
X0120170Y0360250D01*
X0120850Y0360120D01*
X0121520Y0359950D01*
X0122180Y0359750D01*
X0122830Y0359510D01*
X0123470Y0359230D01*
X0124090Y0358920D01*
X0124690Y0358570D01*
X0125270Y0358200D01*
X0125830Y0357790D01*
X0126370Y0357350D01*
X0126880Y0356880D01*
X0127360Y0356390D01*
X0127820Y0355860D01*
X0128250Y0355320D01*
X0128640Y0354750D01*
X0129010Y0354160D01*
X0129340Y0353550D01*
X0129640Y0352930D01*
X0129900Y0352290D01*
X0130130Y0351630D01*
X0130320Y0350960D01*
X0130470Y0350290D01*
X0130590Y0349600D01*
X0130660Y0348920D01*
X0130670Y0348910D02*
X0130670Y0327660D01*
X0130660Y0327660D02*
X0130550Y0326970D01*
X0130400Y0326300D01*
X0130210Y0325630D01*
X0129990Y0324970D01*
X0129730Y0324330D01*
X0129440Y0323700D01*
X0129110Y0323090D01*
X0128750Y0322500D01*
X0128350Y0321930D01*
X0127930Y0321380D01*
X0127480Y0320860D01*
X0126990Y0320360D01*
X0126480Y0319890D01*
X0125950Y0319450D01*
X0125390Y0319040D01*
X0124810Y0318660D01*
X0124210Y0318310D01*
X0123600Y0318000D01*
X0122960Y0317720D01*
X0122310Y0317470D01*
X0121650Y0317260D01*
X0120980Y0317090D01*
X0120300Y0316960D01*
X0119620Y0316860D01*
X0118920Y0316800D01*
X0118230Y0316780D01*
X0117540Y0316800D01*
X0116850Y0316850D01*
X0116160Y0316950D01*
X0115480Y0317080D01*
X0114810Y0317250D01*
X0114150Y0317450D01*
X0113500Y0317690D01*
X0112860Y0317970D01*
X0112240Y0318280D01*
X0111640Y0318630D01*
X0111060Y0319000D01*
X0110500Y0319410D01*
X0109960Y0319850D01*
X0109450Y0320320D01*
X0108970Y0320810D01*
X0108510Y0321340D01*
X0108080Y0321880D01*
X0107690Y0322450D01*
X0107320Y0323040D01*
X0106990Y0323650D01*
X0106690Y0324270D01*
X0106430Y0324910D01*
X0106200Y0325570D01*
X0106010Y0326240D01*
X0105860Y0326910D01*
X0105740Y0327600D01*
X0105670Y0328280D01*
D15*
X0096520Y0328050D02*
X0092310Y0328050D01*
X0093710Y0326640D01*
X0093010Y0324840D02*
X0092310Y0324140D01*
X0092310Y0322740D01*
X0093010Y0322040D01*
X0095820Y0322040D01*
X0096520Y0322740D01*
X0096520Y0324140D01*
X0095820Y0324840D01*
X0093010Y0324840D01*
X0096520Y0326640D02*
X0096520Y0329450D01*
X0095120Y0320240D02*
X0092310Y0320240D01*
X0092310Y0317440D02*
X0095120Y0317440D01*
X0096520Y0318840D01*
X0095120Y0320240D01*
X0101070Y0306640D02*
X0101070Y0303840D01*
X0102470Y0302440D01*
X0103870Y0303840D01*
X0103870Y0306640D01*
X0105670Y0305940D02*
X0105670Y0303140D01*
X0106370Y0302440D01*
X0107770Y0302440D01*
X0108470Y0303140D01*
X0108470Y0305940D01*
X0107770Y0306640D01*
X0106370Y0306640D01*
X0105670Y0305940D01*
X0110270Y0305940D02*
X0110270Y0305240D01*
X0110980Y0304540D01*
X0112380Y0304540D01*
X0113080Y0303840D01*
X0113080Y0303140D01*
X0112380Y0302440D01*
X0110980Y0302440D01*
X0110270Y0303140D01*
X0110270Y0303840D01*
X0110980Y0304540D01*
X0112380Y0304540D02*
X0113080Y0305240D01*
X0113080Y0305940D01*
X0112380Y0306640D01*
X0110980Y0306640D01*
X0110270Y0305940D01*
X0113940Y0309940D02*
X0115340Y0311340D01*
X0115340Y0314140D01*
X0117140Y0314140D02*
X0118540Y0314140D01*
X0117840Y0314140D02*
X0117840Y0309940D01*
X0117140Y0309940D02*
X0118540Y0309940D01*
X0120210Y0309940D02*
X0120210Y0314140D01*
X0123020Y0309940D01*
X0123020Y0314140D01*
X0127460Y0307470D02*
X0128860Y0305050D01*
X0130780Y0304530D01*
X0131290Y0306450D01*
X0129890Y0308870D01*
X0131800Y0309170D02*
X0133200Y0306740D01*
X0134160Y0306490D01*
X0135370Y0307190D01*
X0135630Y0308140D01*
X0134230Y0310570D01*
X0133270Y0310830D01*
X0132060Y0310130D01*
X0131800Y0309170D01*
X0135440Y0312080D02*
X0137860Y0313480D01*
X0138210Y0312870D01*
X0137190Y0309040D01*
X0137540Y0308440D01*
X0139810Y0324940D02*
X0142620Y0324940D01*
X0144020Y0326340D01*
X0142620Y0327740D01*
X0139810Y0327740D01*
X0140510Y0329540D02*
X0143320Y0329540D01*
X0144020Y0330240D01*
X0144020Y0331640D01*
X0143320Y0332340D01*
X0140510Y0332340D01*
X0139810Y0331640D01*
X0139810Y0330240D01*
X0140510Y0329540D01*
X0141910Y0334140D02*
X0141910Y0336250D01*
X0142620Y0336950D01*
X0143320Y0336950D01*
X0144020Y0336250D01*
X0144020Y0334850D01*
X0143320Y0334140D01*
X0141910Y0334140D01*
X0140510Y0335550D01*
X0139810Y0336950D01*
X0139810Y0347440D02*
X0142620Y0347440D01*
X0144020Y0348840D01*
X0142620Y0350240D01*
X0139810Y0350240D01*
X0140510Y0352040D02*
X0139810Y0352740D01*
X0139810Y0354140D01*
X0140510Y0354840D01*
X0143320Y0354840D01*
X0144020Y0354140D01*
X0144020Y0352740D01*
X0143320Y0352040D01*
X0140510Y0352040D01*
X0139810Y0356640D02*
X0141910Y0356640D01*
X0141210Y0358050D01*
X0141210Y0358750D01*
X0141910Y0359450D01*
X0143320Y0359450D01*
X0144020Y0358750D01*
X0144020Y0357350D01*
X0143320Y0356640D01*
X0139810Y0356640D02*
X0139810Y0359450D01*
X0135500Y0368690D02*
X0135500Y0372890D01*
X0133400Y0370790D01*
X0136200Y0370790D01*
X0131600Y0369390D02*
X0131600Y0372190D01*
X0130900Y0372890D01*
X0129500Y0372890D01*
X0128800Y0372190D01*
X0128800Y0369390D01*
X0129500Y0368690D01*
X0130900Y0368690D01*
X0131600Y0369390D01*
X0126990Y0370090D02*
X0126990Y0372890D01*
X0124190Y0372890D02*
X0124190Y0370090D01*
X0125590Y0368690D01*
X0126990Y0370090D01*
X0109610Y0369190D02*
X0109360Y0368240D01*
X0108140Y0367540D01*
X0107190Y0367790D01*
X0105630Y0366890D02*
X0104230Y0369320D01*
X0103270Y0369580D01*
X0102060Y0368880D01*
X0101800Y0367920D01*
X0103200Y0365490D01*
X0104160Y0365240D01*
X0105370Y0365940D01*
X0105630Y0366890D01*
X0105790Y0370220D02*
X0106040Y0371180D01*
X0107260Y0371880D01*
X0108210Y0371620D01*
X0108560Y0371020D01*
X0108310Y0370060D01*
X0109260Y0369800D01*
X0109610Y0369190D01*
X0108310Y0370060D02*
X0107700Y0369710D01*
X0101290Y0365200D02*
X0100780Y0363280D01*
X0098860Y0363800D01*
X0097460Y0366220D01*
X0099890Y0367620D02*
X0101290Y0365200D01*
X0096520Y0351950D02*
X0096520Y0349140D01*
X0093710Y0351950D01*
X0093010Y0351950D01*
X0092310Y0351250D01*
X0092310Y0349850D01*
X0093010Y0349140D01*
X0093010Y0347340D02*
X0092310Y0346640D01*
X0092310Y0345240D01*
X0093010Y0344540D01*
X0095820Y0344540D01*
X0096520Y0345240D01*
X0096520Y0346640D01*
X0095820Y0347340D01*
X0093010Y0347340D01*
X0092310Y0342740D02*
X0095120Y0342740D01*
X0096520Y0341340D01*
X0095120Y0339940D01*
X0092310Y0339940D01*
X0112540Y0314140D02*
X0112540Y0311340D01*
X0113940Y0309940D01*
X0158840Y0295090D02*
G75*
%LPD*%
D11*
X0158850Y0303100D02*
X0158850Y0374680D01*
X0158870Y0375130D01*
X0158920Y0375570D01*
X0159020Y0376010D01*
X0159140Y0376440D01*
X0159310Y0376850D01*
X0159500Y0377250D01*
X0159730Y0377640D01*
X0159990Y0378000D01*
X0160280Y0378340D01*
X0160600Y0378660D01*
X0160940Y0378950D01*
X0161300Y0379210D01*
X0161690Y0379440D01*
X0162090Y0379630D01*
X0162500Y0379800D01*
X0162930Y0379920D01*
X0163370Y0380020D01*
X0163810Y0380070D01*
X0164260Y0380090D01*
X0164260Y0380100D02*
X0173650Y0380100D01*
X0174110Y0380060D01*
X0174560Y0379970D01*
X0175000Y0379860D01*
X0175430Y0379700D01*
X0175840Y0379510D01*
X0176240Y0379290D01*
X0176620Y0379030D01*
X0176970Y0378750D01*
X0177300Y0378430D01*
X0177610Y0378090D01*
X0177880Y0377730D01*
X0178120Y0377340D01*
X0178340Y0376940D01*
X0178510Y0376520D01*
X0178650Y0376080D01*
X0178760Y0375640D01*
X0178830Y0375190D01*
X0178860Y0374730D01*
X0178850Y0374280D01*
X0178850Y0339470D01*
X0178840Y0339470D02*
X0178830Y0339110D01*
X0178850Y0338750D01*
X0178910Y0338400D01*
X0179010Y0338050D01*
X0179140Y0337720D01*
X0179300Y0337400D01*
X0179500Y0337100D01*
X0179730Y0336820D01*
X0179980Y0336560D01*
X0180260Y0336340D01*
X0180560Y0336140D01*
X0180870Y0335970D01*
X0181210Y0335840D01*
X0181550Y0335740D01*
X0181910Y0335680D01*
X0182270Y0335650D01*
X0182630Y0335660D01*
X0182980Y0335710D01*
X0183330Y0335790D01*
X0183670Y0335910D01*
X0184000Y0336070D01*
X0184300Y0336250D01*
X0184590Y0336470D01*
X0190020Y0343150D01*
X0190220Y0343330D01*
X0190450Y0343470D01*
X0190690Y0343580D01*
X0190950Y0343660D01*
X0191220Y0343700D01*
X0191480Y0343700D01*
X0191750Y0343660D01*
X0192010Y0343580D01*
X0192250Y0343470D01*
X0192480Y0343330D01*
X0192680Y0343150D01*
X0192670Y0343150D02*
X0198200Y0336370D01*
X0198430Y0336140D01*
X0198680Y0335940D01*
X0198960Y0335770D01*
X0199250Y0335640D01*
X0199560Y0335530D01*
X0199880Y0335470D01*
X0200200Y0335430D01*
X0200520Y0335440D01*
X0200850Y0335480D01*
X0201160Y0335550D01*
X0201470Y0335660D01*
X0201760Y0335810D01*
X0202030Y0335980D01*
X0202280Y0336190D01*
X0202510Y0336420D01*
X0202710Y0336670D01*
X0202880Y0336950D01*
X0203010Y0337240D01*
X0203120Y0337550D01*
X0203180Y0337870D01*
X0203220Y0338190D01*
X0203220Y0374810D01*
X0203230Y0374810D02*
X0203250Y0375250D01*
X0203300Y0375680D01*
X0203390Y0376110D01*
X0203520Y0376520D01*
X0203670Y0376930D01*
X0203870Y0377320D01*
X0204090Y0377700D01*
X0204340Y0378050D01*
X0204630Y0378390D01*
X0204930Y0378690D01*
X0205270Y0378980D01*
X0205620Y0379230D01*
X0206000Y0379450D01*
X0206390Y0379650D01*
X0206800Y0379800D01*
X0207210Y0379930D01*
X0207640Y0380020D01*
X0208070Y0380070D01*
X0208510Y0380090D01*
X0208510Y0380100D02*
X0217940Y0380100D01*
X0217940Y0380090D02*
X0218400Y0380050D01*
X0218860Y0379960D01*
X0219310Y0379840D01*
X0219740Y0379690D01*
X0220160Y0379490D01*
X0220570Y0379270D01*
X0220950Y0379010D01*
X0221310Y0378720D01*
X0221650Y0378400D01*
X0221960Y0378060D01*
X0222230Y0377690D01*
X0222480Y0377300D01*
X0222700Y0376890D01*
X0222880Y0376460D01*
X0223020Y0376020D01*
X0223130Y0375570D01*
X0223200Y0375110D01*
X0223230Y0374650D01*
X0223220Y0374190D01*
X0223220Y0302830D01*
X0216740Y0295100D02*
X0208370Y0295100D01*
X0201790Y0299030D02*
X0192150Y0310540D01*
X0192160Y0310550D02*
X0192060Y0310620D01*
X0191950Y0310680D01*
X0191830Y0310720D01*
X0191710Y0310730D01*
X0190460Y0310460D02*
X0181300Y0299430D01*
X0173760Y0295100D02*
X0166230Y0295100D01*
X0165680Y0295140D01*
X0165140Y0295220D01*
X0164600Y0295340D01*
X0164070Y0295500D01*
X0163560Y0295690D01*
X0163060Y0295920D01*
X0162580Y0296190D01*
X0162120Y0296490D01*
X0161680Y0296820D01*
X0161270Y0297180D01*
X0160880Y0297570D01*
X0160520Y0297990D01*
X0160190Y0298430D01*
X0159900Y0298890D01*
X0159640Y0299380D01*
X0159410Y0299880D01*
X0159220Y0300390D01*
X0159070Y0300920D01*
X0158960Y0301460D01*
X0158880Y0302000D01*
X0158840Y0302550D01*
X0158850Y0303100D01*
X0173760Y0295090D02*
X0174390Y0295190D01*
X0175010Y0295330D01*
X0175620Y0295500D01*
X0176230Y0295700D01*
X0176820Y0295940D01*
X0177400Y0296210D01*
X0177960Y0296510D01*
X0178500Y0296840D01*
X0179030Y0297200D01*
X0179530Y0297600D01*
X0180010Y0298020D01*
X0180470Y0298460D01*
X0180900Y0298930D01*
X0181300Y0299430D01*
X0190460Y0310460D02*
X0190650Y0310570D01*
X0190850Y0310660D01*
X0191060Y0310720D01*
X0191280Y0310750D01*
X0191500Y0310750D01*
X0191710Y0310720D01*
X0201790Y0299030D02*
X0202160Y0298550D01*
X0202570Y0298100D01*
X0203000Y0297680D01*
X0203450Y0297280D01*
X0203930Y0296910D01*
X0204430Y0296570D01*
X0204950Y0296260D01*
X0205480Y0295980D01*
X0206040Y0295730D01*
X0206600Y0295520D01*
X0207180Y0295340D01*
X0207770Y0295200D01*
X0208360Y0295100D01*
X0216740Y0295100D02*
X0217250Y0295160D01*
X0217750Y0295260D01*
X0218240Y0295390D01*
X0218720Y0295560D01*
X0219190Y0295760D01*
X0219640Y0296000D01*
X0220070Y0296270D01*
X0220490Y0296560D01*
X0220880Y0296890D01*
X0221240Y0297240D01*
X0221580Y0297620D01*
X0221900Y0298020D01*
X0222180Y0298440D01*
X0222430Y0298890D01*
X0222650Y0299340D01*
X0222840Y0299820D01*
X0222990Y0300300D01*
X0223110Y0300800D01*
X0223190Y0301300D01*
X0223240Y0301810D01*
X0223250Y0302320D01*
X0223220Y0302820D01*
D15*
X0213450Y0308150D02*
X0212050Y0309550D01*
X0209240Y0309550D01*
X0209940Y0311350D02*
X0212750Y0311350D01*
X0213450Y0312050D01*
X0213450Y0313450D01*
X0212750Y0314150D01*
X0209940Y0314150D01*
X0209240Y0313450D01*
X0209240Y0312050D01*
X0209940Y0311350D01*
X0213450Y0308150D02*
X0212050Y0306750D01*
X0209240Y0306750D01*
X0209240Y0315950D02*
X0211340Y0315950D01*
X0210640Y0317360D01*
X0210640Y0318060D01*
X0211340Y0318760D01*
X0212750Y0318760D01*
X0213450Y0318060D01*
X0213450Y0316660D01*
X0212750Y0315950D01*
X0209240Y0315950D02*
X0209240Y0318760D01*
X0202510Y0320100D02*
X0199700Y0320100D01*
X0201810Y0322200D01*
X0201810Y0318000D01*
X0197900Y0318700D02*
X0197900Y0321500D01*
X0197200Y0322200D01*
X0195800Y0322200D01*
X0195100Y0321500D01*
X0195100Y0318700D01*
X0195800Y0318000D01*
X0197200Y0318000D01*
X0197900Y0318700D01*
X0193300Y0319400D02*
X0193300Y0322200D01*
X0193300Y0319400D02*
X0191900Y0318000D01*
X0190500Y0319400D01*
X0190500Y0322200D01*
X0182600Y0313900D02*
X0183090Y0313400D01*
X0183090Y0312410D01*
X0182100Y0311420D01*
X0181110Y0311420D01*
X0179840Y0310140D02*
X0177860Y0312130D01*
X0176870Y0312130D01*
X0175880Y0311140D01*
X0175880Y0310140D01*
X0177860Y0308160D01*
X0178850Y0308160D01*
X0179840Y0309150D01*
X0179840Y0310140D01*
X0179130Y0313400D02*
X0179130Y0314390D01*
X0180120Y0315380D01*
X0181110Y0315380D01*
X0181610Y0314890D01*
X0181610Y0313900D01*
X0182600Y0313900D01*
X0181610Y0313900D02*
X0181110Y0313400D01*
X0176090Y0307380D02*
X0174110Y0309370D01*
X0176090Y0307380D02*
X0176090Y0305400D01*
X0174110Y0305400D01*
X0172120Y0307380D01*
X0169550Y0316750D02*
X0166740Y0316750D01*
X0166740Y0319550D02*
X0169550Y0319550D01*
X0170950Y0318150D01*
X0169550Y0316750D01*
X0170250Y0321350D02*
X0167440Y0321350D01*
X0166740Y0322050D01*
X0166740Y0323450D01*
X0167440Y0324150D01*
X0170250Y0324150D01*
X0170950Y0323450D01*
X0170950Y0322050D01*
X0170250Y0321350D01*
X0170950Y0325950D02*
X0168140Y0328760D01*
X0167440Y0328760D01*
X0166740Y0328060D01*
X0166740Y0326660D01*
X0167440Y0325950D01*
X0170950Y0325950D02*
X0170950Y0328760D01*
X0169550Y0346750D02*
X0166740Y0346750D01*
X0166740Y0349550D02*
X0169550Y0349550D01*
X0170950Y0348150D01*
X0169550Y0346750D01*
X0170250Y0351350D02*
X0167440Y0351350D01*
X0166740Y0352050D01*
X0166740Y0353450D01*
X0167440Y0354150D01*
X0170250Y0354150D01*
X0170950Y0353450D01*
X0170950Y0352050D01*
X0170250Y0351350D01*
X0170950Y0355950D02*
X0170950Y0358760D01*
X0170950Y0357360D02*
X0166740Y0357360D01*
X0168140Y0355950D01*
X0167990Y0366750D02*
X0170800Y0366750D01*
X0172200Y0368150D01*
X0170800Y0369550D01*
X0167990Y0369550D01*
X0167990Y0371350D02*
X0167990Y0372750D01*
X0167990Y0372050D02*
X0172200Y0372050D01*
X0172200Y0371350D02*
X0172200Y0372750D01*
X0172200Y0374420D02*
X0167990Y0374420D01*
X0172200Y0377220D01*
X0167990Y0377220D01*
X0209240Y0377510D02*
X0209240Y0374700D01*
X0209940Y0372900D02*
X0209240Y0372200D01*
X0209240Y0370800D01*
X0209940Y0370100D01*
X0212750Y0370100D01*
X0213450Y0370800D01*
X0213450Y0372200D01*
X0212750Y0372900D01*
X0209940Y0372900D01*
X0212750Y0374700D02*
X0213450Y0374700D01*
X0212750Y0374700D02*
X0209940Y0377510D01*
X0209240Y0377510D01*
X0209240Y0368300D02*
X0212050Y0368300D01*
X0213450Y0366900D01*
X0212050Y0365500D01*
X0209240Y0365500D01*
X0209240Y0348760D02*
X0209940Y0347360D01*
X0211340Y0345950D01*
X0211340Y0348060D01*
X0212050Y0348760D01*
X0212750Y0348760D01*
X0213450Y0348060D01*
X0213450Y0346660D01*
X0212750Y0345950D01*
X0211340Y0345950D01*
X0209940Y0344150D02*
X0209240Y0343450D01*
X0209240Y0342050D01*
X0209940Y0341350D01*
X0212750Y0341350D01*
X0213450Y0342050D01*
X0213450Y0343450D01*
X0212750Y0344150D01*
X0209940Y0344150D01*
X0209240Y0339550D02*
X0212050Y0339550D01*
X0213450Y0338150D01*
X0212050Y0336750D01*
X0209240Y0336750D01*
X0230750Y0295090D02*
G75*
%LPD*%
D11*
X0238280Y0295100D02*
X0290400Y0295100D01*
X0290400Y0295090D02*
X0290720Y0295110D01*
X0291040Y0295160D01*
X0291350Y0295250D01*
X0291650Y0295380D01*
X0291930Y0295530D01*
X0292200Y0295720D01*
X0292440Y0295930D01*
X0292650Y0296170D01*
X0292840Y0296440D01*
X0292990Y0296720D01*
X0293120Y0297020D01*
X0293210Y0297330D01*
X0293260Y0297650D01*
X0293280Y0297970D01*
X0293280Y0310350D01*
X0293270Y0310340D02*
X0293220Y0310670D01*
X0293140Y0311000D01*
X0293020Y0311310D01*
X0292870Y0311610D01*
X0292690Y0311890D01*
X0292480Y0312150D01*
X0292250Y0312390D01*
X0291990Y0312610D01*
X0291710Y0312790D01*
X0291410Y0312940D01*
X0291100Y0313070D01*
X0290780Y0313160D01*
X0290450Y0313210D01*
X0290110Y0313230D01*
X0289780Y0313210D01*
X0289780Y0313220D02*
X0256400Y0313220D01*
X0256030Y0313210D01*
X0255650Y0313230D01*
X0255280Y0313290D01*
X0254920Y0313380D01*
X0254560Y0313510D01*
X0254220Y0313670D01*
X0253890Y0313850D01*
X0253590Y0314070D01*
X0253300Y0314320D01*
X0253040Y0314590D01*
X0252800Y0314880D01*
X0252600Y0315190D01*
X0252420Y0315520D01*
X0252270Y0315870D01*
X0252160Y0316230D01*
X0252080Y0316590D01*
X0252030Y0316970D01*
X0252030Y0328220D01*
X0252080Y0328540D01*
X0252170Y0328840D01*
X0252290Y0329130D01*
X0252440Y0329410D01*
X0252620Y0329670D01*
X0252840Y0329910D01*
X0253070Y0330120D01*
X0253330Y0330300D01*
X0253610Y0330460D01*
X0253900Y0330580D01*
X0254210Y0330670D01*
X0254520Y0330720D01*
X0254840Y0330740D01*
X0255150Y0330720D01*
X0269780Y0330720D01*
X0269780Y0330730D02*
X0270090Y0330710D01*
X0270400Y0330730D01*
X0270710Y0330780D01*
X0271000Y0330880D01*
X0271290Y0331000D01*
X0271550Y0331170D01*
X0271800Y0331360D01*
X0272020Y0331580D01*
X0272210Y0331820D01*
X0272370Y0332090D01*
X0272500Y0332370D01*
X0272590Y0332670D01*
X0272650Y0332980D01*
X0272650Y0332970D02*
X0272650Y0340960D01*
X0272640Y0340960D02*
X0272660Y0341290D01*
X0272640Y0341630D01*
X0272580Y0341960D01*
X0272500Y0342280D01*
X0272370Y0342600D01*
X0272220Y0342900D01*
X0272030Y0343180D01*
X0271820Y0343440D01*
X0271580Y0343670D01*
X0271320Y0343880D01*
X0271030Y0344060D01*
X0270730Y0344210D01*
X0270420Y0344330D01*
X0270090Y0344410D01*
X0269760Y0344460D01*
X0269770Y0344470D02*
X0254420Y0344470D01*
X0254420Y0344480D02*
X0254120Y0344530D01*
X0253820Y0344620D01*
X0253540Y0344730D01*
X0253280Y0344880D01*
X0253030Y0345060D01*
X0252800Y0345260D01*
X0252600Y0345490D01*
X0252420Y0345740D01*
X0252280Y0346010D01*
X0252160Y0346290D01*
X0252080Y0346580D01*
X0252030Y0346880D01*
X0252010Y0347190D01*
X0252030Y0347490D01*
X0252030Y0357970D01*
X0252050Y0358360D01*
X0252110Y0358750D01*
X0252200Y0359130D01*
X0252330Y0359500D01*
X0252500Y0359860D01*
X0252700Y0360190D01*
X0252940Y0360510D01*
X0253200Y0360800D01*
X0253490Y0361060D01*
X0253810Y0361300D01*
X0254140Y0361500D01*
X0254500Y0361670D01*
X0254870Y0361800D01*
X0255250Y0361890D01*
X0255640Y0361950D01*
X0256030Y0361970D01*
X0286010Y0361970D01*
X0286550Y0362050D01*
X0287080Y0362180D01*
X0287600Y0362340D01*
X0288110Y0362540D01*
X0288600Y0362770D01*
X0289070Y0363040D01*
X0289530Y0363340D01*
X0289960Y0363680D01*
X0290360Y0364040D01*
X0290740Y0364430D01*
X0291090Y0364850D01*
X0291410Y0365290D01*
X0291700Y0365760D01*
X0291960Y0366240D01*
X0292170Y0366740D01*
X0292360Y0367250D01*
X0292500Y0367780D01*
X0292610Y0368310D01*
X0292680Y0368850D01*
X0292710Y0369400D01*
X0292700Y0369940D01*
X0292650Y0370490D01*
X0292650Y0372090D01*
X0292680Y0372610D01*
X0292670Y0373140D01*
X0292620Y0373670D01*
X0292530Y0374190D01*
X0292410Y0374700D01*
X0292250Y0375210D01*
X0292050Y0375700D01*
X0291820Y0376180D01*
X0291560Y0376630D01*
X0291260Y0377070D01*
X0290930Y0377490D01*
X0290580Y0377880D01*
X0290200Y0378250D01*
X0289790Y0378580D01*
X0289360Y0378890D01*
X0288910Y0379170D01*
X0288440Y0379410D01*
X0287950Y0379620D01*
X0287450Y0379790D01*
X0286940Y0379930D01*
X0286420Y0380030D01*
X0285890Y0380090D01*
X0285890Y0380100D02*
X0237030Y0380100D01*
X0237030Y0380090D02*
X0236510Y0380030D01*
X0236010Y0379920D01*
X0235510Y0379780D01*
X0235030Y0379600D01*
X0234560Y0379390D01*
X0234110Y0379140D01*
X0233670Y0378860D01*
X0233260Y0378550D01*
X0232880Y0378200D01*
X0232520Y0377830D01*
X0232190Y0377440D01*
X0231890Y0377020D01*
X0231620Y0376570D01*
X0231390Y0376110D01*
X0231190Y0375640D01*
X0231030Y0375150D01*
X0230900Y0374650D01*
X0230810Y0374140D01*
X0230760Y0373630D01*
X0230750Y0373110D01*
X0230780Y0372600D01*
X0230780Y0302600D01*
X0230800Y0302060D01*
X0230860Y0301530D01*
X0230950Y0301010D01*
X0231080Y0300490D01*
X0231250Y0299980D01*
X0231460Y0299480D01*
X0231700Y0299010D01*
X0231970Y0298550D01*
X0232280Y0298110D01*
X0232610Y0297690D01*
X0232980Y0297300D01*
X0233370Y0296930D01*
X0233790Y0296600D01*
X0234230Y0296290D01*
X0234690Y0296020D01*
X0235160Y0295780D01*
X0235660Y0295570D01*
X0236170Y0295400D01*
X0236690Y0295270D01*
X0237210Y0295180D01*
X0237740Y0295120D01*
X0238280Y0295100D01*
D15*
X0237580Y0300500D02*
X0236180Y0301900D01*
X0236180Y0304700D01*
X0238980Y0304700D02*
X0238980Y0301900D01*
X0237580Y0300500D01*
X0240780Y0301200D02*
X0240780Y0304000D01*
X0241480Y0304700D01*
X0242880Y0304700D01*
X0243580Y0304000D01*
X0243580Y0301200D01*
X0242880Y0300500D01*
X0241480Y0300500D01*
X0240780Y0301200D01*
X0245380Y0300500D02*
X0248190Y0303300D01*
X0248190Y0304000D01*
X0247490Y0304700D01*
X0246090Y0304700D01*
X0245380Y0304000D01*
X0245380Y0300500D02*
X0248190Y0300500D01*
X0261180Y0301900D02*
X0262580Y0300500D01*
X0263980Y0301900D01*
X0263980Y0304700D01*
X0265780Y0304000D02*
X0265780Y0301200D01*
X0266480Y0300500D01*
X0267880Y0300500D01*
X0268580Y0301200D01*
X0268580Y0304000D01*
X0267880Y0304700D01*
X0266480Y0304700D01*
X0265780Y0304000D01*
X0261180Y0304700D02*
X0261180Y0301900D01*
X0270380Y0303300D02*
X0271790Y0304700D01*
X0271790Y0300500D01*
X0273190Y0300500D02*
X0270380Y0300500D01*
X0279930Y0304400D02*
X0281330Y0303000D01*
X0282730Y0304400D01*
X0282730Y0307200D01*
X0284530Y0307200D02*
X0285930Y0307200D01*
X0285230Y0307200D02*
X0285230Y0303000D01*
X0284530Y0303000D02*
X0285930Y0303000D01*
X0287600Y0303000D02*
X0287600Y0307200D01*
X0290400Y0303000D01*
X0290400Y0307200D01*
X0279930Y0307200D02*
X0279930Y0304400D01*
X0260320Y0335500D02*
X0260320Y0336200D01*
X0263130Y0339000D01*
X0263130Y0339700D01*
X0260320Y0339700D01*
X0258520Y0339000D02*
X0257820Y0339700D01*
X0256420Y0339700D01*
X0255720Y0339000D01*
X0255720Y0336200D01*
X0256420Y0335500D01*
X0257820Y0335500D01*
X0258520Y0336200D01*
X0258520Y0339000D01*
X0253920Y0339700D02*
X0253920Y0336900D01*
X0252520Y0335500D01*
X0251110Y0336900D01*
X0251110Y0339700D01*
X0245380Y0335560D02*
X0245380Y0334160D01*
X0244680Y0333450D01*
X0244680Y0331650D02*
X0241870Y0331650D01*
X0241170Y0330950D01*
X0241170Y0329550D01*
X0241870Y0328850D01*
X0244680Y0328850D01*
X0245380Y0329550D01*
X0245380Y0330950D01*
X0244680Y0331650D01*
X0241870Y0333450D02*
X0241170Y0334160D01*
X0241170Y0335560D01*
X0241870Y0336260D01*
X0242570Y0336260D01*
X0243270Y0335560D01*
X0243980Y0336260D01*
X0244680Y0336260D01*
X0245380Y0335560D01*
X0243270Y0335560D02*
X0243270Y0334860D01*
X0243980Y0327050D02*
X0241170Y0327050D01*
X0241170Y0324250D02*
X0243980Y0324250D01*
X0245380Y0325650D01*
X0243980Y0327050D01*
X0243980Y0354250D02*
X0241170Y0354250D01*
X0241170Y0357050D02*
X0243980Y0357050D01*
X0245380Y0355650D01*
X0243980Y0354250D01*
X0244680Y0358850D02*
X0241870Y0358850D01*
X0241170Y0359550D01*
X0241170Y0360950D01*
X0241870Y0361650D01*
X0244680Y0361650D01*
X0245380Y0360950D01*
X0245380Y0359550D01*
X0244680Y0358850D01*
X0243270Y0363450D02*
X0243270Y0366260D01*
X0241170Y0365560D02*
X0245380Y0365560D01*
X0243270Y0363450D02*
X0241170Y0365560D01*
X0251180Y0369400D02*
X0252580Y0368000D01*
X0253980Y0369400D01*
X0253980Y0372200D01*
X0255780Y0371500D02*
X0255780Y0368700D01*
X0256480Y0368000D01*
X0257880Y0368000D01*
X0258580Y0368700D01*
X0258580Y0371500D01*
X0257880Y0372200D01*
X0256480Y0372200D01*
X0255780Y0371500D01*
X0251180Y0372200D02*
X0251180Y0369400D01*
X0260380Y0370100D02*
X0261790Y0370800D01*
X0262490Y0370800D01*
X0263190Y0370100D01*
X0263190Y0368700D01*
X0262490Y0368000D01*
X0261090Y0368000D01*
X0260380Y0368700D01*
X0260380Y0370100D02*
X0260380Y0372200D01*
X0263190Y0372200D01*
X0277430Y0372200D02*
X0277430Y0369400D01*
X0278830Y0368000D01*
X0280230Y0369400D01*
X0280230Y0372200D01*
X0282030Y0371500D02*
X0282030Y0368700D01*
X0282730Y0368000D01*
X0284130Y0368000D01*
X0284830Y0368700D01*
X0284830Y0371500D01*
X0284130Y0372200D01*
X0282730Y0372200D01*
X0282030Y0371500D01*
X0286630Y0370100D02*
X0286630Y0368700D01*
X0287340Y0368000D01*
X0288740Y0368000D01*
X0289440Y0368700D01*
X0289440Y0369400D01*
X0288740Y0370100D01*
X0286630Y0370100D01*
X0288040Y0371500D01*
X0289440Y0372200D01*
X0300780Y0295090D02*
G75*
%LPD*%
D11*
X0303590Y0295090D02*
X0316840Y0295090D01*
X0317240Y0295140D01*
X0317620Y0295220D01*
X0318000Y0295340D01*
X0318360Y0295490D01*
X0318710Y0295680D01*
X0319040Y0295900D01*
X0319350Y0296140D01*
X0319640Y0296420D01*
X0319900Y0296720D01*
X0320120Y0297040D01*
X0320320Y0297380D01*
X0320490Y0297740D01*
X0320620Y0298110D01*
X0320720Y0298490D01*
X0320780Y0298880D01*
X0320810Y0299280D01*
X0320800Y0299670D01*
X0320800Y0311380D01*
X0320820Y0311840D01*
X0320880Y0312300D01*
X0320970Y0312750D01*
X0321100Y0313200D01*
X0321270Y0313630D01*
X0321470Y0314040D01*
X0321710Y0314440D01*
X0321980Y0314810D01*
X0322280Y0315170D01*
X0322600Y0315490D01*
X0322960Y0315790D01*
X0323330Y0316060D01*
X0323730Y0316300D01*
X0324140Y0316500D01*
X0324570Y0316670D01*
X0325020Y0316800D01*
X0325470Y0316890D01*
X0325930Y0316950D01*
X0326390Y0316970D01*
X0329280Y0316970D01*
X0333720Y0314770D02*
X0346750Y0297740D01*
X0350840Y0295090D02*
X0361010Y0295090D01*
X0361380Y0295110D01*
X0361750Y0295170D01*
X0362100Y0295260D01*
X0362450Y0295400D01*
X0362780Y0295560D01*
X0363090Y0295770D01*
X0363380Y0296000D01*
X0363640Y0296260D01*
X0363870Y0296550D01*
X0364080Y0296860D01*
X0364240Y0297190D01*
X0364380Y0297540D01*
X0364470Y0297890D01*
X0364530Y0298260D01*
X0364550Y0298630D01*
X0364550Y0305390D01*
X0360780Y0315110D02*
X0360730Y0315160D01*
X0360740Y0315160D02*
X0360310Y0315620D01*
X0359900Y0316100D01*
X0359530Y0316610D01*
X0359190Y0317140D01*
X0358880Y0317690D01*
X0358600Y0318260D01*
X0358360Y0318840D01*
X0358150Y0319430D01*
X0357980Y0320040D01*
X0357850Y0320660D01*
X0357760Y0321280D01*
X0357700Y0321910D01*
X0357680Y0322540D01*
X0361420Y0331340D02*
X0361420Y0331340D01*
X0364550Y0338890D02*
X0364550Y0359470D01*
X0361450Y0366940D02*
X0352100Y0376290D01*
X0341410Y0380720D02*
X0318180Y0380720D01*
X0318170Y0380720D02*
X0317360Y0380710D01*
X0316550Y0380670D01*
X0315740Y0380590D01*
X0314940Y0380470D01*
X0314140Y0380310D01*
X0313350Y0380110D01*
X0312570Y0379880D01*
X0311810Y0379610D01*
X0311050Y0379300D01*
X0310320Y0378960D01*
X0309600Y0378590D01*
X0308900Y0378180D01*
X0308210Y0377730D01*
X0307560Y0377260D01*
X0306920Y0376750D01*
X0306310Y0376220D01*
X0305720Y0375650D01*
X0305170Y0375060D01*
X0304640Y0374450D01*
X0304140Y0373800D01*
X0303670Y0373140D01*
X0303240Y0372450D01*
X0302830Y0371750D01*
X0302470Y0371020D01*
X0302130Y0370280D01*
X0301830Y0369530D01*
X0301570Y0368760D01*
X0301350Y0367980D01*
X0301160Y0367190D01*
X0301010Y0366390D01*
X0300900Y0365580D01*
X0300830Y0364770D01*
X0300790Y0363960D01*
X0300800Y0363960D02*
X0300800Y0298510D01*
X0300780Y0298190D01*
X0300800Y0297860D01*
X0300850Y0297540D01*
X0300940Y0297220D01*
X0301060Y0296920D01*
X0301210Y0296630D01*
X0301380Y0296350D01*
X0301590Y0296100D01*
X0301820Y0295870D01*
X0302080Y0295670D01*
X0302350Y0295490D01*
X0302640Y0295340D01*
X0302950Y0295230D01*
X0303270Y0295150D01*
X0303590Y0295100D01*
X0329280Y0316970D02*
X0329750Y0316950D01*
X0330210Y0316890D01*
X0330660Y0316800D01*
X0331110Y0316660D01*
X0331550Y0316490D01*
X0331960Y0316280D01*
X0332360Y0316040D01*
X0332740Y0315770D01*
X0333090Y0315470D01*
X0333420Y0315130D01*
X0333720Y0314780D01*
X0360780Y0315110D02*
X0361260Y0314590D01*
X0361710Y0314030D01*
X0362130Y0313460D01*
X0362520Y0312860D01*
X0362880Y0312240D01*
X0363200Y0311610D01*
X0363500Y0310960D01*
X0363750Y0310290D01*
X0363980Y0309610D01*
X0364160Y0308920D01*
X0364310Y0308230D01*
X0364430Y0307520D01*
X0364500Y0306810D01*
X0364540Y0306100D01*
X0364550Y0305390D01*
X0350850Y0295100D02*
X0350390Y0295170D01*
X0349950Y0295280D01*
X0349510Y0295420D01*
X0349090Y0295610D01*
X0348690Y0295820D01*
X0348300Y0296070D01*
X0347940Y0296350D01*
X0347600Y0296660D01*
X0347290Y0297000D01*
X0347010Y0297360D01*
X0346760Y0297740D01*
X0357670Y0322540D02*
X0357690Y0323190D01*
X0357750Y0323850D01*
X0357840Y0324490D01*
X0357970Y0325140D01*
X0358130Y0325770D01*
X0358320Y0326400D01*
X0358550Y0327010D01*
X0358800Y0327610D01*
X0359090Y0328200D01*
X0359410Y0328770D01*
X0359760Y0329330D01*
X0360130Y0329860D01*
X0360540Y0330380D01*
X0360970Y0330870D01*
X0361420Y0331340D01*
X0361430Y0331340D02*
X0361870Y0331810D01*
X0362280Y0332310D01*
X0362660Y0332830D01*
X0363010Y0333370D01*
X0363330Y0333930D01*
X0363610Y0334510D01*
X0363860Y0335110D01*
X0364070Y0335720D01*
X0364240Y0336340D01*
X0364380Y0336970D01*
X0364470Y0337600D01*
X0364530Y0338250D01*
X0364550Y0338890D01*
X0361430Y0331340D02*
X0361420Y0331330D01*
X0364540Y0359470D02*
X0364520Y0360110D01*
X0364460Y0360740D01*
X0364370Y0361370D01*
X0364230Y0362000D01*
X0364060Y0362610D01*
X0363850Y0363210D01*
X0363610Y0363800D01*
X0363330Y0364380D01*
X0363020Y0364930D01*
X0362670Y0365470D01*
X0362290Y0365980D01*
X0361880Y0366470D01*
X0361450Y0366940D01*
X0352100Y0376290D02*
X0351560Y0376800D01*
X0351000Y0377290D01*
X0350420Y0377740D01*
X0349810Y0378170D01*
X0349180Y0378570D01*
X0348540Y0378930D01*
X0347870Y0379270D01*
X0347200Y0379570D01*
X0346500Y0379840D01*
X0345800Y0380070D01*
X0345080Y0380270D01*
X0344360Y0380430D01*
X0343630Y0380560D01*
X0342890Y0380650D01*
X0342150Y0380700D01*
X0341410Y0380720D01*
X0321300Y0348220D02*
X0321320Y0348910D01*
X0321380Y0349600D01*
X0321480Y0350280D01*
X0321620Y0350960D01*
X0321790Y0351630D01*
X0322010Y0352290D01*
X0322260Y0352930D01*
X0322550Y0353560D01*
X0322880Y0354170D01*
X0323240Y0354760D01*
X0323630Y0355330D01*
X0324060Y0355870D01*
X0324510Y0356390D01*
X0325000Y0356890D01*
X0325510Y0357350D01*
X0326050Y0357780D01*
X0326620Y0358190D01*
X0327200Y0358550D01*
X0327810Y0358890D01*
X0328430Y0359190D01*
X0329070Y0359450D01*
X0329720Y0359670D01*
X0330390Y0359860D01*
X0331070Y0360010D01*
X0331750Y0360120D01*
X0332440Y0360190D01*
X0333130Y0360220D01*
X0333820Y0360210D01*
X0334510Y0360160D01*
X0335190Y0360070D01*
X0335870Y0359940D01*
X0336540Y0359770D01*
X0337210Y0359570D01*
X0337850Y0359320D01*
X0338480Y0359040D01*
X0339100Y0358730D01*
X0339690Y0358370D01*
X0340270Y0357990D01*
X0340820Y0357570D01*
X0341350Y0357120D01*
X0341850Y0356640D01*
X0342320Y0356140D01*
X0342760Y0355600D01*
X0343170Y0355050D01*
X0343550Y0354470D01*
X0343890Y0353870D01*
X0344200Y0353250D01*
X0344470Y0352610D01*
X0344700Y0351960D01*
X0344900Y0351300D01*
X0345060Y0350620D01*
X0345180Y0349940D01*
X0345260Y0349260D01*
X0345300Y0348570D01*
X0345300Y0347870D01*
X0345260Y0347180D01*
X0345180Y0346500D01*
X0345060Y0345820D01*
X0344900Y0345140D01*
X0344700Y0344480D01*
X0344470Y0343830D01*
X0344200Y0343190D01*
X0343890Y0342570D01*
X0343550Y0341970D01*
X0343170Y0341390D01*
X0342760Y0340840D01*
X0342320Y0340300D01*
X0341850Y0339800D01*
X0341350Y0339320D01*
X0340820Y0338870D01*
X0340270Y0338450D01*
X0339690Y0338070D01*
X0339100Y0337710D01*
X0338480Y0337400D01*
X0337850Y0337120D01*
X0337210Y0336870D01*
X0336540Y0336670D01*
X0335870Y0336500D01*
X0335190Y0336370D01*
X0334510Y0336280D01*
X0333820Y0336230D01*
X0333130Y0336220D01*
X0332440Y0336250D01*
X0331750Y0336320D01*
X0331070Y0336430D01*
X0330390Y0336580D01*
X0329720Y0336770D01*
X0329070Y0336990D01*
X0328430Y0337250D01*
X0327810Y0337550D01*
X0327200Y0337890D01*
X0326620Y0338250D01*
X0326050Y0338660D01*
X0325510Y0339090D01*
X0325000Y0339550D01*
X0324510Y0340050D01*
X0324060Y0340570D01*
X0323630Y0341110D01*
X0323240Y0341680D01*
X0322880Y0342270D01*
X0322550Y0342880D01*
X0322260Y0343510D01*
X0322010Y0344150D01*
X0321790Y0344810D01*
X0321620Y0345480D01*
X0321480Y0346160D01*
X0321380Y0346840D01*
X0321320Y0347530D01*
X0321300Y0348220D01*
D15*
X0314150Y0348130D02*
X0314150Y0345320D01*
X0311340Y0348130D01*
X0310640Y0348130D01*
X0309940Y0347430D01*
X0309940Y0346030D01*
X0310640Y0345320D01*
X0310640Y0343520D02*
X0309940Y0342820D01*
X0309940Y0341420D01*
X0310640Y0340720D01*
X0313450Y0340720D01*
X0314150Y0341420D01*
X0314150Y0342820D01*
X0313450Y0343520D01*
X0310640Y0343520D01*
X0309940Y0338920D02*
X0312750Y0338920D01*
X0314150Y0337520D01*
X0312750Y0336120D01*
X0309940Y0336120D01*
X0317450Y0330320D02*
X0317450Y0327520D01*
X0318850Y0326120D01*
X0320250Y0327520D01*
X0320250Y0330320D01*
X0322050Y0329620D02*
X0322050Y0326820D01*
X0322750Y0326120D01*
X0324150Y0326120D01*
X0324850Y0326820D01*
X0324850Y0329620D01*
X0324150Y0330320D01*
X0322750Y0330320D01*
X0322050Y0329620D01*
X0326650Y0330320D02*
X0329460Y0330320D01*
X0329460Y0329620D01*
X0326650Y0326820D01*
X0326650Y0326120D01*
X0311650Y0324380D02*
X0311650Y0321570D01*
X0311650Y0322980D02*
X0307440Y0322980D01*
X0308840Y0321570D01*
X0308140Y0319770D02*
X0307440Y0319070D01*
X0307440Y0317670D01*
X0308140Y0316970D01*
X0310950Y0316970D01*
X0311650Y0317670D01*
X0311650Y0319070D01*
X0310950Y0319770D01*
X0308140Y0319770D01*
X0307440Y0315170D02*
X0310250Y0315170D01*
X0311650Y0313770D01*
X0310250Y0312370D01*
X0307440Y0312370D01*
X0308690Y0307840D02*
X0312900Y0307840D01*
X0308690Y0305040D01*
X0312900Y0305040D01*
X0312900Y0303370D02*
X0312900Y0301970D01*
X0312900Y0302670D02*
X0308690Y0302670D01*
X0308690Y0301970D02*
X0308690Y0303370D01*
X0308690Y0300170D02*
X0311500Y0300170D01*
X0312900Y0298770D01*
X0311500Y0297370D01*
X0308690Y0297370D01*
X0346190Y0303620D02*
X0349000Y0303620D01*
X0350400Y0305020D01*
X0349000Y0306420D01*
X0346190Y0306420D01*
X0346890Y0308220D02*
X0349700Y0308220D01*
X0350400Y0308920D01*
X0350400Y0310320D01*
X0349700Y0311020D01*
X0346890Y0311020D01*
X0346190Y0310320D01*
X0346190Y0308920D01*
X0346890Y0308220D01*
X0346890Y0312820D02*
X0346190Y0313530D01*
X0346190Y0314930D01*
X0346890Y0315630D01*
X0347590Y0315630D01*
X0348290Y0314930D01*
X0348290Y0313530D01*
X0347590Y0312820D01*
X0346890Y0312820D01*
X0348290Y0313530D02*
X0349000Y0312820D01*
X0349700Y0312820D01*
X0350400Y0313530D01*
X0350400Y0314930D01*
X0349700Y0315630D01*
X0349000Y0315630D01*
X0348290Y0314930D01*
X0349000Y0319870D02*
X0346190Y0319870D01*
X0346190Y0322670D02*
X0349000Y0322670D01*
X0350400Y0321270D01*
X0349000Y0319870D01*
X0349700Y0324470D02*
X0346890Y0324470D01*
X0346190Y0325170D01*
X0346190Y0326570D01*
X0346890Y0327270D01*
X0349700Y0327270D01*
X0350400Y0326570D01*
X0350400Y0325170D01*
X0349700Y0324470D01*
X0349700Y0329070D02*
X0348290Y0329070D01*
X0348290Y0331180D01*
X0349000Y0331880D01*
X0349700Y0331880D01*
X0350400Y0331180D01*
X0350400Y0329780D01*
X0349700Y0329070D01*
X0348290Y0329070D02*
X0346890Y0330480D01*
X0346190Y0331880D01*
X0352440Y0342370D02*
X0355250Y0342370D01*
X0356650Y0343770D01*
X0355250Y0345170D01*
X0352440Y0345170D01*
X0353140Y0346970D02*
X0352440Y0347670D01*
X0352440Y0349070D01*
X0353140Y0349770D01*
X0355950Y0349770D01*
X0356650Y0349070D01*
X0356650Y0347670D01*
X0355950Y0346970D01*
X0353140Y0346970D01*
X0352440Y0351570D02*
X0354540Y0351570D01*
X0353840Y0352980D01*
X0353840Y0353680D01*
X0354540Y0354380D01*
X0355950Y0354380D01*
X0356650Y0353680D01*
X0356650Y0352280D01*
X0355950Y0351570D01*
X0352440Y0351570D02*
X0352440Y0354380D01*
X0346260Y0367370D02*
X0346260Y0371570D01*
X0344150Y0369470D01*
X0346960Y0369470D01*
X0342350Y0368070D02*
X0342350Y0370870D01*
X0341650Y0371570D01*
X0340250Y0371570D01*
X0339550Y0370870D01*
X0339550Y0368070D01*
X0340250Y0367370D01*
X0341650Y0367370D01*
X0342350Y0368070D01*
X0337750Y0368770D02*
X0337750Y0371570D01*
X0337750Y0368770D02*
X0336350Y0367370D01*
X0334950Y0368770D01*
X0334950Y0371570D01*
X0325400Y0370320D02*
X0325400Y0368920D01*
X0324700Y0368220D01*
X0321890Y0368220D01*
X0321190Y0368920D01*
X0321190Y0370320D01*
X0321890Y0371020D01*
X0324700Y0371020D01*
X0325400Y0370320D01*
X0324700Y0372820D02*
X0325400Y0373530D01*
X0325400Y0374930D01*
X0324700Y0375630D01*
X0324000Y0375630D01*
X0323290Y0374930D01*
X0323290Y0374230D01*
X0323290Y0374930D02*
X0322590Y0375630D01*
X0321890Y0375630D01*
X0321190Y0374930D01*
X0321190Y0373530D01*
X0321890Y0372820D01*
X0321190Y0366420D02*
X0324000Y0366420D01*
X0325400Y0365020D01*
X0324000Y0363620D01*
X0321190Y0363620D01*
M02*
