G75*
%MOIN*%
%OFA0B0*%
%FSLAX24Y24*%
%IPPOS*%
%LPD*%
%AMOC8*
5,1,8,0,0,1.08239X$1,22.5*
%
%ADD10C,0.0000*%
%ADD11C,0.0100*%
%ADD12C,0.0040*%
%ADD13C,0.0080*%
D10*
X002267Y002517D02*
X002267Y011017D01*
X008767Y011017D01*
X008767Y002517D01*
X002267Y002517D01*
D11*
X002642Y003027D02*
X002642Y010590D01*
X002641Y010590D02*
X002643Y010615D01*
X002648Y010640D01*
X002657Y010664D01*
X002669Y010686D01*
X002684Y010706D01*
X002702Y010724D01*
X002722Y010739D01*
X002744Y010751D01*
X002768Y010760D01*
X002793Y010765D01*
X002818Y010767D01*
X003965Y010767D01*
X003990Y010765D01*
X004015Y010760D01*
X004039Y010751D01*
X004061Y010739D01*
X004081Y010724D01*
X004099Y010706D01*
X004114Y010686D01*
X004126Y010664D01*
X004135Y010640D01*
X004140Y010615D01*
X004142Y010590D01*
X004142Y007693D01*
X004144Y007672D01*
X004149Y007652D01*
X004158Y007633D01*
X004169Y007615D01*
X004184Y007600D01*
X004200Y007587D01*
X004219Y007578D01*
X004239Y007571D01*
X004260Y007568D01*
X004281Y007569D01*
X004302Y007573D01*
X004321Y007580D01*
X004339Y007591D01*
X004355Y007605D01*
X007590Y010840D01*
X007715Y010892D02*
X008090Y010892D01*
X008115Y010890D01*
X008140Y010885D01*
X008164Y010876D01*
X008186Y010864D01*
X008206Y010849D01*
X008224Y010831D01*
X008239Y010811D01*
X008251Y010789D01*
X008260Y010765D01*
X008265Y010740D01*
X008267Y010715D01*
X008267Y009612D01*
X008155Y009343D02*
X005800Y006988D01*
X005778Y006964D01*
X005758Y006937D01*
X005742Y006909D01*
X005729Y006879D01*
X005719Y006848D01*
X005712Y006816D01*
X005708Y006783D01*
X005708Y006751D01*
X005712Y006718D01*
X005719Y006686D01*
X005729Y006655D01*
X005742Y006625D01*
X005758Y006597D01*
X005778Y006570D01*
X005800Y006546D01*
X008351Y003995D01*
X008392Y003896D02*
X008392Y002805D01*
X008392Y002804D02*
X008383Y002773D01*
X008371Y002742D01*
X008355Y002713D01*
X008337Y002686D01*
X008315Y002661D01*
X008290Y002638D01*
X008264Y002619D01*
X008235Y002603D01*
X008204Y002590D01*
X008173Y002580D01*
X008140Y002574D01*
X008107Y002572D01*
X008074Y002574D01*
X008041Y002579D01*
X007667Y002579D01*
X007215Y002818D02*
X004443Y005591D01*
X004426Y005605D01*
X004408Y005617D01*
X004387Y005625D01*
X004366Y005630D01*
X004344Y005632D01*
X004322Y005630D01*
X004301Y005625D01*
X004280Y005617D01*
X004262Y005605D01*
X004245Y005591D01*
X004231Y005574D01*
X004219Y005556D01*
X004211Y005535D01*
X004206Y005514D01*
X004204Y005492D01*
X004204Y003055D01*
X004202Y003028D01*
X004197Y003001D01*
X004189Y002975D01*
X004178Y002950D01*
X004164Y002927D01*
X004147Y002906D01*
X004128Y002887D01*
X004107Y002870D01*
X004084Y002856D01*
X004059Y002845D01*
X004033Y002837D01*
X004006Y002832D01*
X003979Y002830D01*
X003979Y002829D02*
X002839Y002829D01*
X002813Y002831D01*
X002788Y002836D01*
X002763Y002844D01*
X002740Y002856D01*
X002718Y002870D01*
X002699Y002887D01*
X002682Y002906D01*
X002668Y002928D01*
X002656Y002951D01*
X002648Y002976D01*
X002643Y003001D01*
X002641Y003027D01*
X007215Y002818D02*
X007247Y002782D01*
X007281Y002749D01*
X007317Y002718D01*
X007356Y002690D01*
X007396Y002665D01*
X007438Y002643D01*
X007482Y002623D01*
X007527Y002607D01*
X007573Y002595D01*
X007619Y002585D01*
X007666Y002579D01*
X008392Y003896D02*
X008390Y003918D01*
X008385Y003939D01*
X008377Y003960D01*
X008365Y003978D01*
X008351Y003995D01*
X008155Y009343D02*
X008180Y009371D01*
X008202Y009401D01*
X008221Y009433D01*
X008237Y009467D01*
X008250Y009502D01*
X008259Y009538D01*
X008264Y009575D01*
X008266Y009612D01*
X007715Y010892D02*
X007692Y010890D01*
X007669Y010886D01*
X007647Y010879D01*
X007627Y010868D01*
X007607Y010855D01*
X007590Y010840D01*
D12*
X007642Y010892D02*
X007517Y010767D01*
X007517Y009392D01*
X008267Y009392D01*
X008267Y010892D01*
X007642Y010892D01*
X007517Y010142D02*
X006892Y010142D01*
X006767Y010017D01*
X006767Y008642D01*
X007517Y008642D01*
X007517Y010142D01*
X006829Y009454D02*
X006829Y007954D01*
X006079Y007954D01*
X006079Y009329D01*
X006204Y009454D01*
X006829Y009454D01*
X006079Y008704D02*
X006079Y007204D01*
X005329Y007204D01*
X005329Y008579D01*
X005454Y008704D01*
X006079Y008704D01*
X005392Y008079D02*
X005392Y006579D01*
X004642Y006579D01*
X004642Y007954D01*
X004767Y008079D01*
X005392Y008079D01*
X004704Y007267D02*
X004704Y005767D01*
X003954Y005767D01*
X003954Y007142D01*
X004079Y007267D01*
X004704Y007267D01*
X004892Y006704D02*
X004767Y006579D01*
X004767Y005204D01*
X005517Y005204D01*
X005517Y006704D01*
X004892Y006704D01*
X005517Y006017D02*
X005642Y006142D01*
X006267Y006142D01*
X006267Y004642D01*
X005517Y004642D01*
X005517Y006017D01*
X006142Y005392D02*
X006267Y005517D01*
X006892Y005517D01*
X006892Y004017D01*
X006142Y004017D01*
X006142Y005392D01*
X006892Y004642D02*
X007017Y004767D01*
X007642Y004767D01*
X007642Y003267D01*
X006892Y003267D01*
X006892Y004642D01*
X007642Y003954D02*
X007767Y004079D01*
X008392Y004079D01*
X008392Y002579D01*
X007642Y002579D01*
X007642Y003954D01*
X004142Y003642D02*
X002642Y003642D01*
X002642Y004392D01*
X004017Y004392D01*
X004142Y004267D01*
X004142Y003642D01*
X004017Y003579D02*
X004142Y003454D01*
X004142Y002829D01*
X002642Y002829D01*
X002642Y003579D01*
X004017Y003579D01*
X004142Y004454D02*
X002642Y004454D01*
X002642Y005204D01*
X004017Y005204D01*
X004142Y005079D01*
X004142Y004454D01*
X004079Y005267D02*
X002579Y005267D01*
X002579Y006017D01*
X003954Y006017D01*
X004079Y005892D01*
X004079Y005267D01*
X004079Y006079D02*
X002579Y006079D01*
X002579Y006829D01*
X003954Y006829D01*
X004079Y006704D01*
X004079Y006079D01*
X004079Y006892D02*
X002579Y006892D01*
X002579Y007642D01*
X003954Y007642D01*
X004079Y007517D01*
X004079Y006892D01*
X004142Y007704D02*
X002642Y007704D01*
X002642Y008454D01*
X004017Y008454D01*
X004142Y008329D01*
X004142Y007704D01*
X004142Y008517D02*
X002642Y008517D01*
X002642Y009267D01*
X004017Y009267D01*
X004142Y009142D01*
X004142Y008517D01*
X004142Y009267D02*
X002642Y009267D01*
X002642Y010017D01*
X002642Y010767D01*
X004017Y010767D01*
X004142Y010642D01*
X004142Y010017D01*
X002642Y010017D01*
X004017Y010017D01*
X004142Y009892D01*
X004142Y009267D01*
D13*
X004221Y009278D02*
X004501Y009278D01*
X004641Y009418D01*
X004501Y009558D01*
X004221Y009558D01*
X004291Y009738D02*
X004571Y009738D01*
X004641Y009808D01*
X004641Y009948D01*
X004571Y010018D01*
X004291Y010018D01*
X004221Y009948D01*
X004221Y009808D01*
X004291Y009738D01*
X004291Y010198D02*
X004221Y010268D01*
X004221Y010409D01*
X004291Y010479D01*
X004361Y010479D01*
X004431Y010409D01*
X004501Y010479D01*
X004571Y010479D01*
X004641Y010409D01*
X004641Y010268D01*
X004571Y010198D01*
X004431Y010339D02*
X004431Y010409D01*
X005582Y009457D02*
X005582Y009160D01*
X005780Y009358D01*
X005879Y009160D02*
X005582Y009457D01*
X005355Y009131D02*
X005256Y009131D01*
X005157Y009032D01*
X005157Y008933D01*
X005355Y008735D01*
X005454Y008735D01*
X005553Y008834D01*
X005553Y008933D01*
X005355Y009131D01*
X004980Y008855D02*
X005178Y008657D01*
X005178Y008459D01*
X004980Y008459D01*
X004782Y008657D01*
X004614Y008634D02*
X004614Y008914D01*
X004614Y008634D02*
X004334Y008914D01*
X004264Y008914D01*
X004194Y008844D01*
X004194Y008704D01*
X004264Y008634D01*
X004264Y008454D02*
X004194Y008384D01*
X004194Y008243D01*
X004264Y008173D01*
X004544Y008173D01*
X004614Y008243D01*
X004614Y008384D01*
X004544Y008454D01*
X004264Y008454D01*
X004194Y007993D02*
X004474Y007993D01*
X004614Y007853D01*
X004474Y007713D01*
X004194Y007713D01*
X005922Y006642D02*
X005922Y006443D01*
X006120Y006443D01*
X006319Y006642D01*
X006120Y006840D02*
X005922Y006642D01*
X006198Y006267D02*
X006198Y006167D01*
X006297Y006068D01*
X006396Y006068D01*
X006595Y006267D01*
X006595Y006366D01*
X006496Y006465D01*
X006396Y006465D01*
X006198Y006267D01*
X006524Y005941D02*
X006524Y005842D01*
X006623Y005743D01*
X006722Y005743D01*
X006772Y005792D01*
X006772Y005891D01*
X006623Y006040D01*
X006524Y005941D01*
X006623Y006040D02*
X006821Y006040D01*
X006970Y005991D01*
X007886Y005154D02*
X007688Y004956D01*
X007688Y004758D01*
X007886Y004758D01*
X008084Y004956D01*
X008162Y004779D02*
X007964Y004581D01*
X007964Y004482D01*
X008063Y004383D01*
X008162Y004383D01*
X008360Y004581D01*
X008360Y004680D01*
X008261Y004779D01*
X008162Y004779D01*
X008537Y004503D02*
X008736Y004305D01*
X008686Y004255D01*
X008290Y004255D01*
X008240Y004206D01*
X004664Y004316D02*
X004524Y004456D01*
X004244Y004456D01*
X004314Y004636D02*
X004244Y004706D01*
X004244Y004846D01*
X004314Y004916D01*
X004594Y004916D01*
X004664Y004846D01*
X004664Y004706D01*
X004594Y004636D01*
X004314Y004636D01*
X004384Y005096D02*
X004244Y005236D01*
X004664Y005236D01*
X004664Y005096D02*
X004664Y005377D01*
X004664Y004316D02*
X004524Y004175D01*
X004244Y004175D01*
X004244Y004002D02*
X004664Y004002D01*
X004244Y003721D01*
X004664Y003721D01*
X004664Y003554D02*
X004664Y003414D01*
X004664Y003484D02*
X004244Y003484D01*
X004244Y003414D02*
X004244Y003554D01*
X004244Y003234D02*
X004524Y003234D01*
X004664Y003094D01*
X004524Y002954D01*
X004244Y002954D01*
X006426Y009923D02*
X006625Y009923D01*
X006625Y010121D01*
X006426Y010319D01*
X006603Y010397D02*
X006802Y010199D01*
X006901Y010199D01*
X007000Y010298D01*
X007000Y010397D01*
X006802Y010595D01*
X006702Y010595D01*
X006603Y010496D01*
X006603Y010397D01*
X006228Y010121D02*
X006426Y009923D01*
X007028Y010624D02*
X007078Y010772D01*
X007127Y010822D01*
X007226Y010822D01*
X007325Y010723D01*
X007325Y010624D01*
X007226Y010524D01*
X007127Y010524D01*
X007028Y010624D02*
X006879Y010772D01*
X007078Y010970D01*
M02*
