G75*
%MOIN*%
%OFA0B0*%
%FSLAX24Y24*%
%IPPOS*%
%LPD*%
%AMOC8*
5,1,8,0,0,1.08239X$1,22.5*
%
%ADD10C,0.0000*%
%ADD11R,0.0472X0.0472*%
%ADD12R,0.0472X0.0472*%
%ADD13C,0.0397*%
%ADD14C,0.0060*%
D10*
X002767Y002767D02*
X002767Y010767D01*
X007267Y010767D01*
X008767Y009267D01*
X008767Y006267D01*
X007267Y004767D01*
X004467Y004767D01*
X004467Y002767D01*
X002767Y002767D01*
D11*
X003517Y003103D03*
X003517Y003930D03*
X003517Y003978D03*
X003517Y004805D03*
X003517Y004853D03*
X003517Y005680D03*
X004103Y005829D03*
X004930Y005829D03*
X004978Y005829D03*
X005805Y005829D03*
X005853Y005829D03*
X006680Y005829D03*
X007329Y005728D03*
X007954Y006291D03*
X007329Y006555D03*
X007954Y007118D03*
X007954Y007166D03*
X007954Y007993D03*
X007954Y008541D03*
X007954Y009368D03*
X006930Y010079D03*
X006103Y010079D03*
X005555Y010079D03*
X004728Y010079D03*
X004680Y010079D03*
X003853Y010079D03*
X003517Y010180D03*
X003517Y009353D03*
X003517Y008805D03*
X003517Y007978D03*
X003517Y007930D03*
X003517Y007103D03*
X003517Y007055D03*
X003517Y006228D03*
D12*
G36*
X007413Y009412D02*
X007746Y009745D01*
X008079Y009412D01*
X007746Y009079D01*
X007413Y009412D01*
G37*
G36*
X006829Y009996D02*
X007162Y010329D01*
X007495Y009996D01*
X007162Y009663D01*
X006829Y009996D01*
G37*
D13*
X005579Y010454D03*
X003142Y008829D03*
X008392Y008517D03*
X004079Y006204D03*
X003142Y005704D03*
X007329Y005392D03*
X003142Y003079D03*
D14*
X003493Y003079D01*
X003517Y003103D01*
X003853Y003103D01*
X004017Y003267D01*
X004017Y005017D01*
X004517Y005517D01*
X004642Y005392D01*
X006517Y005392D01*
X006680Y005555D01*
X006680Y005829D01*
X006767Y005916D01*
X006767Y006767D01*
X007017Y007017D01*
X007267Y007017D01*
X007517Y007267D01*
X007517Y007767D01*
X007743Y007993D01*
X007954Y007993D01*
X007930Y008017D01*
X007767Y008017D01*
X007517Y008267D01*
X007517Y009017D01*
X007017Y009517D01*
X006517Y009517D01*
X006103Y009930D01*
X006103Y010079D01*
X006103Y009853D01*
X005767Y009517D01*
X004017Y009517D01*
X003853Y009353D01*
X003517Y009353D01*
X003517Y008805D02*
X003166Y008805D01*
X003142Y008829D01*
X003517Y007978D02*
X003517Y007930D01*
X003517Y007103D02*
X003517Y007055D01*
X003892Y006642D02*
X003517Y006267D01*
X003517Y006228D01*
X004079Y006204D02*
X004103Y006180D01*
X004103Y005829D01*
X003517Y005680D02*
X003493Y005704D01*
X003142Y005704D01*
X004517Y005517D02*
X004517Y006392D01*
X004267Y006642D01*
X003892Y006642D01*
X004930Y005829D02*
X004978Y005829D01*
X005805Y005829D02*
X005853Y005829D01*
X007329Y005728D02*
X007329Y005392D01*
X007954Y006291D02*
X007690Y006555D01*
X007329Y006555D01*
X003517Y004853D02*
X003517Y004805D01*
X007954Y008541D02*
X008368Y008541D01*
X008392Y008517D01*
X007954Y009368D02*
X007910Y009412D01*
X007746Y009412D01*
X007162Y009996D02*
X007079Y010079D01*
X006930Y010079D01*
X005555Y010079D02*
X005555Y010430D01*
X005579Y010454D01*
X003853Y010079D02*
X003752Y010180D01*
X003517Y010180D01*
X004680Y010079D02*
X004728Y010079D01*
M02*
