G75*
%MOIN*%
%OFA0B0*%
%FSLAX24Y24*%
%IPPOS*%
%LPD*%
%AMOC8*
5,1,8,0,0,1.08239X$1,22.5*
%
%ADD10C,0.0000*%
%ADD11C,0.0100*%
%ADD12C,0.0040*%
%ADD13C,0.0080*%
D10*
X002517Y002517D02*
X002517Y011017D01*
X009017Y011017D01*
X009017Y002517D01*
X002517Y002517D01*
D11*
X002767Y002767D02*
X002767Y010767D01*
X007017Y010767D01*
X008767Y008517D02*
X008767Y006767D01*
X007267Y005017D02*
X004517Y005017D01*
X004517Y002767D01*
X002767Y002767D01*
X007267Y005017D02*
X007353Y005043D01*
X007439Y005073D01*
X007522Y005107D01*
X007605Y005144D01*
X007686Y005185D01*
X007764Y005230D01*
X007841Y005278D01*
X007916Y005329D01*
X007988Y005383D01*
X008058Y005441D01*
X008125Y005501D01*
X008190Y005565D01*
X008252Y005631D01*
X008311Y005699D01*
X008367Y005771D01*
X008419Y005844D01*
X008469Y005920D01*
X008515Y005998D01*
X008558Y006078D01*
X008597Y006159D01*
X008632Y006242D01*
X008664Y006327D01*
X008692Y006413D01*
X008717Y006500D01*
X008737Y006588D01*
X008754Y006677D01*
X008767Y006767D01*
X008766Y008516D02*
X008757Y008617D01*
X008744Y008717D01*
X008726Y008816D01*
X008705Y008914D01*
X008681Y009012D01*
X008652Y009108D01*
X008619Y009204D01*
X008583Y009298D01*
X008544Y009390D01*
X008500Y009481D01*
X008453Y009570D01*
X008403Y009657D01*
X008349Y009743D01*
X008292Y009826D01*
X008232Y009906D01*
X008168Y009984D01*
X008102Y010060D01*
X008033Y010133D01*
X007961Y010204D01*
X007886Y010271D01*
X007808Y010335D01*
X007729Y010397D01*
X007646Y010455D01*
X007562Y010510D01*
X007475Y010561D01*
X007387Y010609D01*
X007297Y010654D01*
X007205Y010695D01*
X007111Y010732D01*
X007016Y010766D01*
X004517Y007767D02*
X004519Y007837D01*
X004525Y007907D01*
X004535Y007976D01*
X004548Y008045D01*
X004566Y008113D01*
X004587Y008180D01*
X004612Y008245D01*
X004641Y008309D01*
X004673Y008372D01*
X004709Y008432D01*
X004748Y008490D01*
X004790Y008546D01*
X004835Y008600D01*
X004883Y008651D01*
X004934Y008699D01*
X004988Y008744D01*
X005044Y008786D01*
X005102Y008825D01*
X005162Y008861D01*
X005225Y008893D01*
X005289Y008922D01*
X005354Y008947D01*
X005421Y008968D01*
X005489Y008986D01*
X005558Y008999D01*
X005627Y009009D01*
X005697Y009015D01*
X005767Y009017D01*
X005837Y009015D01*
X005907Y009009D01*
X005976Y008999D01*
X006045Y008986D01*
X006113Y008968D01*
X006180Y008947D01*
X006245Y008922D01*
X006309Y008893D01*
X006372Y008861D01*
X006432Y008825D01*
X006490Y008786D01*
X006546Y008744D01*
X006600Y008699D01*
X006651Y008651D01*
X006699Y008600D01*
X006744Y008546D01*
X006786Y008490D01*
X006825Y008432D01*
X006861Y008372D01*
X006893Y008309D01*
X006922Y008245D01*
X006947Y008180D01*
X006968Y008113D01*
X006986Y008045D01*
X006999Y007976D01*
X007009Y007907D01*
X007015Y007837D01*
X007017Y007767D01*
X007015Y007697D01*
X007009Y007627D01*
X006999Y007558D01*
X006986Y007489D01*
X006968Y007421D01*
X006947Y007354D01*
X006922Y007289D01*
X006893Y007225D01*
X006861Y007162D01*
X006825Y007102D01*
X006786Y007044D01*
X006744Y006988D01*
X006699Y006934D01*
X006651Y006883D01*
X006600Y006835D01*
X006546Y006790D01*
X006490Y006748D01*
X006432Y006709D01*
X006372Y006673D01*
X006309Y006641D01*
X006245Y006612D01*
X006180Y006587D01*
X006113Y006566D01*
X006045Y006548D01*
X005976Y006535D01*
X005907Y006525D01*
X005837Y006519D01*
X005767Y006517D01*
X005697Y006519D01*
X005627Y006525D01*
X005558Y006535D01*
X005489Y006548D01*
X005421Y006566D01*
X005354Y006587D01*
X005289Y006612D01*
X005225Y006641D01*
X005162Y006673D01*
X005102Y006709D01*
X005044Y006748D01*
X004988Y006790D01*
X004934Y006835D01*
X004883Y006883D01*
X004835Y006934D01*
X004790Y006988D01*
X004748Y007044D01*
X004709Y007102D01*
X004673Y007162D01*
X004641Y007225D01*
X004612Y007289D01*
X004587Y007354D01*
X004566Y007421D01*
X004548Y007489D01*
X004535Y007558D01*
X004525Y007627D01*
X004519Y007697D01*
X004517Y007767D01*
D12*
X003892Y007642D02*
X003142Y007642D01*
X003142Y009017D01*
X003142Y010392D01*
X003267Y010517D01*
X003892Y010517D01*
X003892Y009017D01*
X003142Y009017D01*
X003267Y009142D01*
X003892Y009142D01*
X003892Y007642D01*
X003892Y007392D02*
X003892Y005892D01*
X003142Y005892D01*
X003142Y007267D01*
X003267Y007392D01*
X003892Y007392D01*
X003892Y006767D02*
X003142Y006767D01*
X003142Y008142D01*
X003267Y008267D01*
X003892Y008267D01*
X003892Y006767D01*
X003767Y006204D02*
X005267Y006204D01*
X005267Y005454D01*
X003892Y005454D01*
X003767Y005579D01*
X003767Y006204D01*
X003892Y006017D02*
X003892Y004517D01*
X003142Y004517D01*
X003142Y005892D01*
X003267Y006017D01*
X003892Y006017D01*
X004642Y006204D02*
X004642Y005579D01*
X004767Y005454D01*
X006142Y005454D01*
X006142Y006204D01*
X004642Y006204D01*
X005517Y006204D02*
X005517Y005579D01*
X005642Y005454D01*
X007017Y005454D01*
X007017Y006204D01*
X005517Y006204D01*
X006954Y006892D02*
X006954Y005392D01*
X007579Y005392D01*
X007704Y005517D01*
X007704Y006892D01*
X006954Y006892D01*
X007579Y006829D02*
X007579Y008329D01*
X008329Y008329D01*
X008329Y006954D01*
X008204Y006829D01*
X007579Y006829D01*
X007579Y007454D02*
X008329Y007454D01*
X008329Y006079D01*
X008204Y005954D01*
X007579Y005954D01*
X007579Y007454D01*
X007579Y008204D02*
X007579Y009704D01*
X008329Y009704D01*
X008329Y008329D01*
X008204Y008204D01*
X007579Y008204D01*
X007719Y008909D02*
X006659Y009969D01*
X007189Y010500D01*
X008161Y009527D01*
X008161Y009351D01*
X007719Y008909D01*
X007267Y009704D02*
X005767Y009704D01*
X005767Y010454D01*
X007142Y010454D01*
X007267Y010329D01*
X007267Y009704D01*
X005892Y009704D02*
X004392Y009704D01*
X004392Y010454D01*
X005767Y010454D01*
X005892Y010329D01*
X005892Y009704D01*
X005017Y009704D02*
X003517Y009704D01*
X003517Y010454D01*
X004892Y010454D01*
X005017Y010329D01*
X005017Y009704D01*
X003892Y005142D02*
X003267Y005142D01*
X003142Y005017D01*
X003142Y003642D01*
X003892Y003642D01*
X003892Y005142D01*
X003892Y004267D02*
X003267Y004267D01*
X003142Y004142D01*
X003142Y002767D01*
X003892Y002767D01*
X003892Y004267D01*
D13*
X003177Y004272D02*
X002756Y004272D01*
X002756Y004202D02*
X002756Y004342D01*
X002756Y004509D02*
X003177Y004789D01*
X002756Y004789D01*
X002756Y004509D02*
X003177Y004509D01*
X003177Y004342D02*
X003177Y004202D01*
X003037Y004022D02*
X002756Y004022D01*
X003037Y004022D02*
X003177Y003882D01*
X003037Y003741D01*
X002756Y003741D01*
X002756Y006025D02*
X003037Y006025D01*
X003177Y006166D01*
X003037Y006306D01*
X002756Y006306D01*
X002826Y006486D02*
X003107Y006486D01*
X003177Y006556D01*
X003177Y006696D01*
X003107Y006766D01*
X002826Y006766D01*
X002756Y006696D01*
X002756Y006556D01*
X002826Y006486D01*
X002896Y006946D02*
X002756Y007086D01*
X003177Y007086D01*
X003177Y006946D02*
X003177Y007227D01*
X003919Y007190D02*
X003919Y007050D01*
X003989Y006980D01*
X004269Y006980D01*
X004339Y007050D01*
X004339Y007190D01*
X004269Y007260D01*
X003989Y007260D01*
X003919Y007190D01*
X004129Y007440D02*
X004129Y007650D01*
X004199Y007720D01*
X004269Y007720D01*
X004339Y007650D01*
X004339Y007510D01*
X004269Y007440D01*
X004129Y007440D01*
X003989Y007580D01*
X003919Y007720D01*
X003919Y006799D02*
X004199Y006799D01*
X004339Y006659D01*
X004199Y006519D01*
X003919Y006519D01*
X005650Y005465D02*
X005650Y005184D01*
X005791Y005044D01*
X005931Y005184D01*
X005931Y005465D01*
X006111Y005394D02*
X006111Y005114D01*
X006181Y005044D01*
X006321Y005044D01*
X006391Y005114D01*
X006391Y005394D01*
X006321Y005465D01*
X006181Y005465D01*
X006111Y005394D01*
X006571Y005465D02*
X006571Y005254D01*
X006711Y005324D01*
X006781Y005324D01*
X006852Y005254D01*
X006852Y005114D01*
X006781Y005044D01*
X006641Y005044D01*
X006571Y005114D01*
X006571Y005465D02*
X006852Y005465D01*
X007106Y008082D02*
X007387Y008082D01*
X007527Y008222D01*
X007387Y008362D01*
X007106Y008362D01*
X007176Y008542D02*
X007457Y008542D01*
X007527Y008612D01*
X007527Y008752D01*
X007457Y008822D01*
X007176Y008822D01*
X007106Y008752D01*
X007106Y008612D01*
X007176Y008542D01*
X007316Y009002D02*
X007316Y009283D01*
X007106Y009213D02*
X007316Y009002D01*
X007106Y009213D02*
X007527Y009213D01*
X005914Y009364D02*
X005844Y009294D01*
X005704Y009294D01*
X005634Y009364D01*
X005454Y009364D02*
X005454Y009644D01*
X005384Y009715D01*
X005243Y009715D01*
X005173Y009644D01*
X005173Y009364D01*
X005243Y009294D01*
X005384Y009294D01*
X005454Y009364D01*
X005634Y009644D02*
X005704Y009715D01*
X005844Y009715D01*
X005914Y009644D01*
X005914Y009574D01*
X005844Y009504D01*
X005914Y009434D01*
X005914Y009364D01*
X005844Y009504D02*
X005774Y009504D01*
X004993Y009434D02*
X004993Y009715D01*
X004713Y009715D02*
X004713Y009434D01*
X004853Y009294D01*
X004993Y009434D01*
X003177Y009353D02*
X003037Y009493D01*
X002756Y009493D01*
X002826Y009673D02*
X003107Y009673D01*
X003177Y009743D01*
X003177Y009884D01*
X003107Y009954D01*
X002826Y009954D01*
X002756Y009884D01*
X002756Y009743D01*
X002826Y009673D01*
X002826Y010134D02*
X002756Y010204D01*
X002756Y010344D01*
X002826Y010414D01*
X002896Y010414D01*
X003177Y010134D01*
X003177Y010414D01*
X003177Y009353D02*
X003037Y009213D01*
X002756Y009213D01*
M02*
