%
M48
M72
T01C0.0236
T02C0.0320
T03C0.0394
T04C0.0400
T05C0.0433
T06C0.1300
%
T01
X8259Y5661
X11009Y4661
X11509Y5661
X18259Y5161
X12009Y10661
X8759Y10661
X8759Y12661
X8259Y13161
X11509Y14161
X12009Y13661
X10009Y18411
X11009Y18911
X22049Y14661
X22759Y13961
X22759Y15361
T02
X22509Y12661
X21509Y12661
X13009Y11661
X13009Y10661
X13009Y9661
X13009Y8661
X13009Y7661
X13009Y6661
X13009Y5661
X13009Y4661
X10009Y4661
X10009Y5661
X10009Y6661
X10009Y7661
X10009Y8661
X10009Y9661
X10009Y10661
X10009Y11661
X20259Y4911
X21259Y4911
X22259Y4911
X23259Y4911
X24259Y4911
X25259Y4911
X26259Y4911
X27259Y4911
X27259Y3411
X26259Y3411
X25259Y3411
X24259Y3411
X23259Y3411
X22259Y3411
X21259Y3411
X20259Y3411
X18759Y3661
X17759Y3661
X10009Y2911
X9009Y2911
T03
X28384Y12972
X28384Y14350
T04
X28009Y10411
X28009Y9411
X28009Y8411
X28009Y7411
X27759Y1161
X26759Y1161
X25759Y1161
X24759Y1161
X23759Y1161
X22759Y1161
X20759Y1161
X19759Y1161
X18759Y1161
X17759Y1161
X16759Y1161
X15759Y1161
X15259Y16661
X15259Y17661
X13509Y17661
X13509Y16661
X17009Y16661
X17009Y17661
X18759Y17661
X18759Y16661
X18259Y20161
X19259Y20161
X20759Y20161
X21759Y20161
X22759Y20161
X23759Y20161
X24759Y20161
X25759Y20161
X26759Y20161
X27759Y20161
X17259Y20161
X16259Y20161
X15259Y20161
X14259Y20161
X13259Y20161
X12259Y20161
T05
X18259Y10661
X18259Y9411
X18259Y8161
X18259Y6911
X21259Y6911
X22759Y6911
X22759Y8161
X21259Y8161
X21259Y9411
X22759Y9411
X22759Y10661
X21259Y10661
X25759Y10661
X25759Y9411
X25759Y8161
X25759Y6911
T06
X28759Y3161
X8759Y20161
M30
