G75*
%MOIN*%
%OFA0B0*%
%FSLAX24Y24*%
%IPPOS*%
%LPD*%
%AMOC8*
5,1,8,0,0,1.08239X$1,22.5*
%
%ADD10C,0.0000*%
%ADD11R,0.0512X0.0512*%
%ADD12C,0.0437*%
D10*
X002517Y002517D02*
X002517Y011017D01*
X008892Y011017D01*
X008892Y002517D01*
X002517Y002517D01*
D11*
X003642Y002978D03*
X003642Y003805D03*
X003642Y003853D03*
X003642Y004680D03*
X003642Y004728D03*
X003642Y005555D03*
X003642Y006103D03*
X003642Y006930D03*
X003642Y006978D03*
X003642Y007805D03*
X003642Y007853D03*
X003642Y008680D03*
X003642Y009228D03*
X003642Y010055D03*
X004103Y010017D03*
X004930Y010017D03*
X005103Y010017D03*
X005930Y010017D03*
X006478Y010017D03*
X007305Y010017D03*
X007228Y009267D03*
X007478Y008517D03*
X008055Y009267D03*
X008305Y008517D03*
X008305Y007767D03*
X008055Y007017D03*
X007430Y006392D03*
X007228Y007017D03*
X007478Y007767D03*
X006603Y006392D03*
X006055Y006329D03*
X005555Y005579D03*
X005353Y005017D03*
X004728Y005579D03*
X005228Y006329D03*
X006180Y005017D03*
X006228Y004392D03*
X007055Y004392D03*
X006978Y003767D03*
X007603Y003142D03*
X007805Y003767D03*
X008430Y003142D03*
D12*
X008454Y003517D03*
X008454Y003892D03*
X006517Y005017D03*
X006517Y005392D03*
X007767Y006204D03*
X007767Y006517D03*
X008517Y008267D03*
X008517Y008829D03*
X005954Y010392D03*
X005579Y010392D03*
X003267Y008704D03*
X003267Y008329D03*
X003267Y005579D03*
X003267Y005204D03*
X003267Y003267D03*
X003267Y002892D03*
M02*
