G75*
%MOIN*%
%OFA0B0*%
%FSLAX24Y24*%
%IPPOS*%
%LPD*%
%AMOC8*
5,1,8,0,0,1.08239X$1,22.5*
%
%ADD10C,0.0000*%
%ADD11R,0.0472X0.0472*%
%ADD12C,0.0397*%
%ADD13C,0.0060*%
D10*
X002767Y002517D02*
X002767Y010742D01*
X009043Y010742D01*
X009043Y002517D01*
X002767Y002517D01*
D11*
X003642Y002978D03*
X003642Y003805D03*
X003642Y003853D03*
X006228Y004392D03*
X007055Y004392D03*
X006180Y005017D03*
X005353Y005017D03*
X003642Y004728D03*
X003642Y004680D03*
X006978Y003767D03*
X007805Y003767D03*
X007603Y003142D03*
X008430Y003142D03*
X005555Y005579D03*
X004728Y005579D03*
X003642Y005555D03*
X003642Y006103D03*
X005228Y006329D03*
X006055Y006329D03*
X006603Y006392D03*
X007430Y006392D03*
X007228Y007017D03*
X008055Y007017D03*
X008305Y007767D03*
X007478Y007767D03*
X007478Y008517D03*
X008305Y008517D03*
X008055Y009267D03*
X007228Y009267D03*
X007305Y010017D03*
X006478Y010017D03*
X005930Y010017D03*
X005103Y010017D03*
X004930Y010017D03*
X004103Y010017D03*
X003642Y010055D03*
X003642Y009228D03*
X003642Y008680D03*
X003642Y007853D03*
X003642Y007805D03*
X003642Y006978D03*
X003642Y006930D03*
D12*
X007767Y006392D03*
X003267Y005579D03*
X006517Y005017D03*
X008454Y003517D03*
X003267Y002892D03*
X008642Y008517D03*
X003267Y008704D03*
X005954Y010392D03*
D13*
X005930Y010392D01*
X005930Y010017D01*
X006267Y009642D02*
X006478Y009853D01*
X006478Y010017D01*
X007305Y010017D02*
X007305Y009343D01*
X007228Y009267D01*
X007517Y008892D02*
X007892Y009267D01*
X008055Y009267D01*
X007517Y008892D02*
X007517Y008555D01*
X007478Y008517D01*
X007017Y008767D02*
X007017Y008228D01*
X007478Y007767D01*
X007478Y007603D01*
X007103Y007603D01*
X006767Y007267D01*
X006767Y007142D01*
X006392Y006767D01*
X005603Y006767D01*
X005228Y006392D01*
X005228Y006329D01*
X004579Y006329D01*
X004267Y006017D01*
X004267Y004767D01*
X004642Y004392D01*
X006228Y004392D01*
X007055Y004392D02*
X007142Y004430D01*
X007142Y004142D01*
X006978Y003978D01*
X006978Y003767D01*
X007603Y003353D02*
X007767Y003517D01*
X007767Y003853D01*
X007805Y003767D01*
X008454Y003517D02*
X008454Y003291D01*
X008430Y003142D01*
X007603Y003142D02*
X007603Y003353D01*
X004017Y003142D02*
X003853Y002978D01*
X003642Y002978D01*
X003642Y002892D01*
X003267Y002892D01*
X004017Y003142D02*
X004017Y005791D01*
X003704Y006103D01*
X003642Y006103D01*
X003853Y006103D01*
X004017Y006267D01*
X004017Y009142D01*
X003892Y009267D01*
X004267Y009642D01*
X006267Y009642D01*
X006642Y009642D01*
X006767Y009517D01*
X006767Y009017D01*
X007017Y008767D01*
X008305Y008517D02*
X008642Y008517D01*
X008305Y007767D02*
X008142Y007767D01*
X007478Y007103D01*
X007228Y007017D01*
X008055Y007017D02*
X008142Y006930D01*
X008142Y006142D01*
X008017Y006017D01*
X006892Y006017D01*
X006728Y006180D01*
X006603Y006392D01*
X006055Y006329D02*
X005680Y005954D01*
X005267Y005954D01*
X004954Y005642D01*
X004728Y005579D01*
X005353Y005440D02*
X005555Y005579D01*
X005353Y005440D02*
X005353Y005017D01*
X006180Y005017D02*
X006517Y005017D01*
X003642Y005555D02*
X003642Y005579D01*
X003267Y005579D01*
X007430Y006392D02*
X007767Y006392D01*
X003642Y008680D02*
X003642Y008704D01*
X003267Y008704D01*
X003642Y009228D02*
X003680Y009267D01*
X003892Y009267D01*
X004103Y010017D02*
X003680Y010017D01*
X003642Y010055D01*
M02*
