G75*
%MOIN*%
%OFA0B0*%
%FSLAX24Y24*%
%IPPOS*%
%LPD*%
%AMOC8*
5,1,8,0,0,1.08239X$1,22.5*
%
%ADD10C,0.0000*%
%ADD11C,0.0100*%
%ADD12C,0.0040*%
%ADD13C,0.0080*%
D10*
X002517Y002517D02*
X002517Y011017D01*
X008892Y011017D01*
X008892Y002517D01*
X002517Y002517D01*
D11*
X002767Y002642D02*
X004517Y002642D01*
X004517Y004454D01*
X005704Y004454D01*
X007329Y002829D01*
X007373Y002789D01*
X007420Y002753D01*
X007469Y002720D01*
X007520Y002690D01*
X007573Y002663D01*
X007628Y002640D01*
X007684Y002620D01*
X007741Y002604D01*
X007799Y002592D01*
X007858Y002584D01*
X007917Y002580D01*
X007976Y002579D01*
X008035Y002583D01*
X008094Y002590D01*
X008152Y002601D01*
X008210Y002616D01*
X008266Y002634D01*
X008321Y002657D01*
X008374Y002682D01*
X008426Y002712D01*
X008476Y002744D01*
X008523Y002780D01*
X008568Y002819D01*
X008610Y002860D01*
X008650Y002904D01*
X008686Y002951D01*
X008719Y003000D01*
X008749Y003051D01*
X008776Y003104D01*
X008799Y003159D01*
X008819Y003215D01*
X008835Y003272D01*
X008847Y003330D01*
X008855Y003389D01*
X008859Y003448D01*
X008860Y003507D01*
X008856Y003566D01*
X008849Y003625D01*
X008838Y003683D01*
X008823Y003741D01*
X008805Y003797D01*
X008782Y003852D01*
X008757Y003905D01*
X008727Y003957D01*
X008695Y004007D01*
X008659Y004054D01*
X008620Y004099D01*
X008579Y004141D01*
X008579Y004142D02*
X007454Y005267D01*
X008454Y006267D01*
X008704Y006767D02*
X008704Y008829D01*
X008392Y009704D02*
X007767Y010392D01*
X006892Y010767D02*
X002767Y010767D01*
X002767Y002642D01*
X004171Y008204D02*
X004173Y008277D01*
X004179Y008350D01*
X004189Y008422D01*
X004202Y008493D01*
X004220Y008564D01*
X004241Y008634D01*
X004267Y008702D01*
X004295Y008769D01*
X004328Y008834D01*
X004364Y008898D01*
X004403Y008959D01*
X004445Y009019D01*
X004491Y009075D01*
X004540Y009130D01*
X004591Y009181D01*
X004646Y009230D01*
X004702Y009276D01*
X004762Y009318D01*
X004823Y009357D01*
X004887Y009393D01*
X004952Y009426D01*
X005019Y009454D01*
X005087Y009480D01*
X005157Y009501D01*
X005228Y009519D01*
X005299Y009532D01*
X005371Y009542D01*
X005444Y009548D01*
X005517Y009550D01*
X005590Y009548D01*
X005663Y009542D01*
X005735Y009532D01*
X005806Y009519D01*
X005877Y009501D01*
X005947Y009480D01*
X006015Y009454D01*
X006082Y009426D01*
X006147Y009393D01*
X006211Y009357D01*
X006272Y009318D01*
X006332Y009276D01*
X006388Y009230D01*
X006443Y009181D01*
X006494Y009130D01*
X006543Y009075D01*
X006589Y009019D01*
X006631Y008959D01*
X006670Y008898D01*
X006706Y008834D01*
X006739Y008769D01*
X006767Y008702D01*
X006793Y008634D01*
X006814Y008564D01*
X006832Y008493D01*
X006845Y008422D01*
X006855Y008350D01*
X006861Y008277D01*
X006863Y008204D01*
X006861Y008131D01*
X006855Y008058D01*
X006845Y007986D01*
X006832Y007915D01*
X006814Y007844D01*
X006793Y007774D01*
X006767Y007706D01*
X006739Y007639D01*
X006706Y007574D01*
X006670Y007510D01*
X006631Y007449D01*
X006589Y007389D01*
X006543Y007333D01*
X006494Y007278D01*
X006443Y007227D01*
X006388Y007178D01*
X006332Y007132D01*
X006272Y007090D01*
X006211Y007051D01*
X006147Y007015D01*
X006082Y006982D01*
X006015Y006954D01*
X005947Y006928D01*
X005877Y006907D01*
X005806Y006889D01*
X005735Y006876D01*
X005663Y006866D01*
X005590Y006860D01*
X005517Y006858D01*
X005444Y006860D01*
X005371Y006866D01*
X005299Y006876D01*
X005228Y006889D01*
X005157Y006907D01*
X005087Y006928D01*
X005019Y006954D01*
X004952Y006982D01*
X004887Y007015D01*
X004823Y007051D01*
X004762Y007090D01*
X004702Y007132D01*
X004646Y007178D01*
X004591Y007227D01*
X004540Y007278D01*
X004491Y007333D01*
X004445Y007389D01*
X004403Y007449D01*
X004364Y007510D01*
X004328Y007574D01*
X004295Y007639D01*
X004267Y007706D01*
X004241Y007774D01*
X004220Y007844D01*
X004202Y007915D01*
X004189Y007986D01*
X004179Y008058D01*
X004173Y008131D01*
X004171Y008204D01*
X006891Y010767D02*
X006957Y010768D01*
X007023Y010765D01*
X007088Y010758D01*
X007153Y010748D01*
X007217Y010733D01*
X007280Y010715D01*
X007342Y010692D01*
X007402Y010667D01*
X007461Y010637D01*
X007517Y010604D01*
X007572Y010568D01*
X007625Y010528D01*
X007675Y010486D01*
X007722Y010440D01*
X007766Y010392D01*
X008392Y009704D02*
X008436Y009658D01*
X008478Y009609D01*
X008517Y009558D01*
X008552Y009504D01*
X008584Y009449D01*
X008613Y009392D01*
X008638Y009333D01*
X008659Y009272D01*
X008677Y009211D01*
X008691Y009148D01*
X008702Y009085D01*
X008708Y009021D01*
X008711Y008957D01*
X008710Y008893D01*
X008705Y008829D01*
X008704Y006767D02*
X008702Y006719D01*
X008696Y006671D01*
X008686Y006624D01*
X008673Y006577D01*
X008656Y006532D01*
X008637Y006488D01*
X008613Y006446D01*
X008587Y006406D01*
X008558Y006367D01*
X008526Y006331D01*
X008491Y006298D01*
X008454Y006267D01*
D12*
X008392Y006642D02*
X006892Y006642D01*
X006892Y007392D01*
X008267Y007392D01*
X008392Y007267D01*
X008392Y006642D01*
X007767Y006642D02*
X007767Y006017D01*
X006267Y006017D01*
X006267Y006767D01*
X007642Y006767D01*
X007767Y006642D01*
X007142Y007392D02*
X007142Y008142D01*
X008517Y008142D01*
X008642Y008017D01*
X008642Y007392D01*
X007142Y007392D01*
X007142Y008142D02*
X007142Y008892D01*
X008517Y008892D01*
X008642Y008767D01*
X008642Y008142D01*
X007142Y008142D01*
X006892Y008892D02*
X006892Y009642D01*
X008267Y009642D01*
X008392Y009517D01*
X008392Y008892D01*
X006892Y008892D01*
X006267Y009642D02*
X004767Y009642D01*
X004767Y010392D01*
X006142Y010392D01*
X007517Y010392D01*
X007642Y010267D01*
X007642Y009642D01*
X006142Y009642D01*
X006142Y010392D01*
X006267Y010267D01*
X006267Y009642D01*
X005267Y009642D02*
X003767Y009642D01*
X003767Y010392D01*
X005142Y010392D01*
X005267Y010267D01*
X005267Y009642D01*
X004017Y009017D02*
X004017Y007517D01*
X003267Y007517D01*
X003267Y008892D01*
X003267Y010267D01*
X003392Y010392D01*
X004017Y010392D01*
X004017Y008892D01*
X003267Y008892D01*
X003392Y009017D01*
X004017Y009017D01*
X004017Y008142D02*
X003392Y008142D01*
X003267Y008017D01*
X003267Y006642D01*
X004017Y006642D01*
X004017Y008142D01*
X004017Y007267D02*
X003392Y007267D01*
X003267Y007142D01*
X003267Y005767D01*
X004017Y005767D01*
X004017Y007267D01*
X004892Y006704D02*
X006267Y006704D01*
X006392Y006579D01*
X006392Y005954D01*
X004892Y005954D01*
X004892Y006704D01*
X004392Y005954D02*
X005767Y005954D01*
X005892Y005829D01*
X005892Y005204D01*
X004392Y005204D01*
X004392Y005954D01*
X004017Y005892D02*
X004017Y004392D01*
X003267Y004392D01*
X003267Y005767D01*
X003392Y005892D01*
X004017Y005892D01*
X004017Y005017D02*
X003392Y005017D01*
X003267Y004892D01*
X003267Y003517D01*
X004017Y003517D01*
X004017Y005017D01*
X004017Y004142D02*
X003392Y004142D01*
X003267Y004017D01*
X003267Y002642D01*
X004017Y002642D01*
X004017Y004142D01*
X005017Y004642D02*
X005017Y005392D01*
X006392Y005392D01*
X006517Y005267D01*
X006517Y004642D01*
X005017Y004642D01*
X005892Y004767D02*
X005892Y004017D01*
X007392Y004017D01*
X007392Y004642D01*
X007267Y004767D01*
X005892Y004767D01*
X006642Y004142D02*
X008017Y004142D01*
X008142Y004017D01*
X008142Y003392D01*
X006642Y003392D01*
X006642Y004142D01*
X007267Y003517D02*
X008642Y003517D01*
X008767Y003392D01*
X008767Y002767D01*
X007267Y002767D01*
X007267Y003517D01*
D13*
X007907Y004089D02*
X007956Y004138D01*
X008352Y004138D01*
X008402Y004188D01*
X008204Y004386D01*
X008027Y004464D02*
X008027Y004563D01*
X007928Y004662D01*
X007829Y004662D01*
X007631Y004464D01*
X007631Y004365D01*
X007730Y004266D01*
X007829Y004266D01*
X008027Y004464D01*
X007751Y004839D02*
X007553Y004641D01*
X007355Y004641D01*
X007355Y004839D01*
X007553Y005037D01*
X008069Y005400D02*
X008349Y005400D01*
X008489Y005541D01*
X008349Y005681D01*
X008069Y005681D01*
X008139Y005861D02*
X008419Y005861D01*
X008489Y005931D01*
X008489Y006071D01*
X008419Y006141D01*
X008139Y006141D01*
X008069Y006071D01*
X008069Y005931D01*
X008139Y005861D01*
X008069Y006321D02*
X008279Y006321D01*
X008209Y006461D01*
X008209Y006531D01*
X008279Y006602D01*
X008419Y006602D01*
X008489Y006531D01*
X008489Y006391D01*
X008419Y006321D01*
X008069Y006321D02*
X008069Y006602D01*
X007095Y006052D02*
X006955Y005982D01*
X006815Y005842D01*
X007025Y005842D01*
X007095Y005772D01*
X007095Y005702D01*
X007025Y005632D01*
X006885Y005632D01*
X006815Y005702D01*
X006815Y005842D01*
X006635Y005702D02*
X006635Y005982D01*
X006565Y006052D01*
X006425Y006052D01*
X006355Y005982D01*
X006355Y005702D01*
X006425Y005632D01*
X006565Y005632D01*
X006635Y005702D01*
X006174Y005772D02*
X006174Y006052D01*
X005894Y006052D02*
X005894Y005772D01*
X006034Y005632D01*
X006174Y005772D01*
X003239Y006041D02*
X003099Y006181D01*
X002819Y006181D01*
X002889Y006361D02*
X002819Y006431D01*
X002819Y006571D01*
X002889Y006641D01*
X003169Y006641D01*
X003239Y006571D01*
X003239Y006431D01*
X003169Y006361D01*
X002889Y006361D01*
X002959Y006821D02*
X002819Y006961D01*
X003239Y006961D01*
X003239Y006821D02*
X003239Y007102D01*
X003239Y006041D02*
X003099Y005900D01*
X002819Y005900D01*
X002856Y004629D02*
X003277Y004629D01*
X002856Y004349D01*
X003277Y004349D01*
X003277Y004182D02*
X003277Y004042D01*
X003277Y004112D02*
X002856Y004112D01*
X002856Y004042D02*
X002856Y004182D01*
X002856Y003862D02*
X003137Y003862D01*
X003277Y003722D01*
X003137Y003582D01*
X002856Y003582D01*
X002819Y009025D02*
X003099Y009025D01*
X003239Y009166D01*
X003099Y009306D01*
X002819Y009306D01*
X002889Y009486D02*
X003169Y009486D01*
X003239Y009556D01*
X003239Y009696D01*
X003169Y009766D01*
X002889Y009766D01*
X002819Y009696D01*
X002819Y009556D01*
X002889Y009486D01*
X002889Y009946D02*
X002819Y010016D01*
X002819Y010156D01*
X002889Y010227D01*
X002959Y010227D01*
X003239Y009946D01*
X003239Y010227D01*
X004088Y010434D02*
X004228Y010294D01*
X004368Y010434D01*
X004368Y010715D01*
X004548Y010644D02*
X004548Y010364D01*
X004618Y010294D01*
X004759Y010294D01*
X004829Y010364D01*
X004829Y010644D01*
X004759Y010715D01*
X004618Y010715D01*
X004548Y010644D01*
X005009Y010644D02*
X005079Y010715D01*
X005219Y010715D01*
X005289Y010644D01*
X005289Y010574D01*
X005219Y010504D01*
X005289Y010434D01*
X005289Y010364D01*
X005219Y010294D01*
X005079Y010294D01*
X005009Y010364D01*
X005149Y010504D02*
X005219Y010504D01*
X004088Y010434D02*
X004088Y010715D01*
X007654Y010159D02*
X007654Y009961D01*
X007852Y009961D01*
X008050Y010159D01*
X008128Y009982D02*
X007930Y009784D01*
X007930Y009685D01*
X008029Y009586D01*
X008128Y009586D01*
X008326Y009784D01*
X008326Y009883D01*
X008227Y009982D01*
X008128Y009982D01*
X007852Y010357D02*
X007654Y010159D01*
X008355Y009558D02*
X008553Y009360D01*
X008652Y009558D02*
X008355Y009558D01*
X008652Y009558D02*
X008355Y009260D01*
M02*
