G75*
%MOIN*%
%OFA0B0*%
%FSLAX24Y24*%
%IPPOS*%
%LPD*%
%AMOC8*
5,1,8,0,0,1.08239X$1,22.5*
%
%ADD10C,0.0000*%
%ADD11R,0.0512X0.0512*%
%ADD12R,0.0512X0.0512*%
%ADD13C,0.0437*%
D10*
X002392Y002642D02*
X002392Y011142D01*
X008767Y011142D01*
X008767Y002642D01*
X002392Y002642D01*
D11*
X002978Y003267D03*
X002978Y004079D03*
X002978Y004892D03*
X002978Y005704D03*
X002978Y006517D03*
X002978Y007329D03*
X002978Y008142D03*
X003805Y008142D03*
X003805Y007329D03*
X003805Y006517D03*
X004392Y006055D03*
X003805Y005704D03*
X004392Y005228D03*
X003805Y004892D03*
X003805Y004079D03*
X003805Y003267D03*
X005142Y005228D03*
X005892Y005228D03*
X006478Y004892D03*
X006478Y005642D03*
X005892Y006055D03*
X005142Y006055D03*
X006916Y006329D03*
X007305Y005642D03*
X007305Y004892D03*
X007680Y004079D03*
X006853Y004079D03*
X007416Y003267D03*
X008243Y003267D03*
X007743Y006329D03*
X007416Y007079D03*
X007416Y007892D03*
X008243Y007892D03*
X008243Y007079D03*
X006454Y009728D03*
X006454Y010555D03*
X005579Y010555D03*
X005579Y009728D03*
X004704Y009728D03*
X004055Y009954D03*
X004704Y010555D03*
X003228Y009954D03*
X002978Y009017D03*
X003805Y009017D03*
D12*
G36*
X007037Y008852D02*
X006675Y009214D01*
X007037Y009576D01*
X007399Y009214D01*
X007037Y008852D01*
G37*
G36*
X007258Y008238D02*
X007002Y008680D01*
X007444Y008936D01*
X007700Y008494D01*
X007258Y008238D01*
G37*
G36*
X007974Y008651D02*
X007718Y009093D01*
X008160Y009349D01*
X008416Y008907D01*
X007974Y008651D01*
G37*
G36*
X007621Y009436D02*
X007259Y009798D01*
X007621Y010160D01*
X007983Y009798D01*
X007621Y009436D01*
G37*
D13*
X008267Y008204D03*
X008267Y007579D03*
X007704Y005767D03*
X007704Y005392D03*
X007704Y004392D03*
X007704Y003767D03*
X004704Y006454D03*
X004329Y006454D03*
X004079Y007017D03*
X004079Y007642D03*
X004079Y009642D03*
X004079Y010329D03*
X006142Y010579D03*
X006767Y010579D03*
X003829Y005204D03*
X003829Y004579D03*
X002829Y003579D03*
X002829Y002954D03*
M02*
