G75*
%MOIN*%
%OFA0B0*%
%FSLAX24Y24*%
%IPPOS*%
%LPD*%
%AMOC8*
5,1,8,0,0,1.08239X$1,22.5*
%
%ADD10C,0.0000*%
%ADD11R,0.0472X0.0472*%
%ADD12R,0.0472X0.0472*%
D10*
X002392Y002517D02*
X002392Y011017D01*
X008892Y011017D01*
X008892Y002517D01*
X002392Y002517D01*
D11*
X004954Y002978D03*
X005642Y002978D03*
X006329Y002978D03*
X006329Y003805D03*
X005642Y003805D03*
X004954Y003805D03*
X003805Y005267D03*
X003805Y006017D03*
X003805Y006767D03*
X003805Y007517D03*
X003805Y008267D03*
X002978Y008267D03*
X002978Y007517D03*
X002978Y006767D03*
X002978Y006017D03*
X002978Y005267D03*
X004954Y009728D03*
X005642Y009728D03*
X006329Y009728D03*
X006329Y010555D03*
X005642Y010555D03*
X004954Y010555D03*
X007478Y008267D03*
X007478Y007517D03*
X007478Y006767D03*
X007478Y006017D03*
X007478Y005267D03*
X008305Y005267D03*
X008305Y006017D03*
X008305Y006767D03*
X008305Y007517D03*
X008305Y008267D03*
D12*
G36*
X007323Y008613D02*
X007087Y009021D01*
X007495Y009257D01*
X007731Y008849D01*
X007323Y008613D01*
G37*
G36*
X007083Y009149D02*
X006675Y009385D01*
X006911Y009793D01*
X007319Y009557D01*
X007083Y009149D01*
G37*
G36*
X008039Y009026D02*
X007803Y009434D01*
X008211Y009670D01*
X008447Y009262D01*
X008039Y009026D01*
G37*
G36*
X007497Y009865D02*
X007089Y010101D01*
X007325Y010509D01*
X007733Y010273D01*
X007497Y009865D01*
G37*
G36*
X004608Y009385D02*
X004200Y009149D01*
X003964Y009557D01*
X004372Y009793D01*
X004608Y009385D01*
G37*
G36*
X004197Y009021D02*
X003961Y008613D01*
X003553Y008849D01*
X003789Y009257D01*
X004197Y009021D01*
G37*
G36*
X003481Y009434D02*
X003245Y009026D01*
X002837Y009262D01*
X003073Y009670D01*
X003481Y009434D01*
G37*
G36*
X004194Y010101D02*
X003786Y009865D01*
X003550Y010273D01*
X003958Y010509D01*
X004194Y010101D01*
G37*
G36*
X006184Y006017D02*
X006517Y005684D01*
X006184Y005351D01*
X005851Y005684D01*
X006184Y006017D01*
G37*
G36*
X006757Y005454D02*
X007090Y005121D01*
X006757Y004788D01*
X006424Y005121D01*
X006757Y005454D01*
G37*
G36*
X006962Y004575D02*
X007198Y004983D01*
X007606Y004747D01*
X007370Y004339D01*
X006962Y004575D01*
G37*
G36*
X006550Y004211D02*
X006958Y004447D01*
X007194Y004039D01*
X006786Y003803D01*
X006550Y004211D01*
G37*
G36*
X006173Y004870D02*
X006506Y004537D01*
X006173Y004204D01*
X005840Y004537D01*
X006173Y004870D01*
G37*
G36*
X005599Y005432D02*
X005932Y005099D01*
X005599Y004766D01*
X005266Y005099D01*
X005599Y005432D01*
G37*
G36*
X004200Y004322D02*
X004608Y004086D01*
X004372Y003678D01*
X003964Y003914D01*
X004200Y004322D01*
G37*
G36*
X003961Y004858D02*
X004197Y004450D01*
X003789Y004214D01*
X003553Y004622D01*
X003961Y004858D01*
G37*
G36*
X003245Y004444D02*
X003481Y004036D01*
X003073Y003800D01*
X002837Y004208D01*
X003245Y004444D01*
G37*
G36*
X003786Y003606D02*
X004194Y003370D01*
X003958Y002962D01*
X003550Y003198D01*
X003786Y003606D01*
G37*
G36*
X006964Y003495D02*
X007372Y003731D01*
X007608Y003323D01*
X007200Y003087D01*
X006964Y003495D01*
G37*
G36*
X007849Y003307D02*
X008182Y002974D01*
X007849Y002641D01*
X007516Y002974D01*
X007849Y003307D01*
G37*
G36*
X008434Y003892D02*
X008767Y003559D01*
X008434Y003226D01*
X008101Y003559D01*
X008434Y003892D01*
G37*
G36*
X007678Y004161D02*
X007914Y004569D01*
X008322Y004333D01*
X008086Y003925D01*
X007678Y004161D01*
G37*
M02*
