%
M48
M72
T01C0.0197
%
T01
X3892Y3704
X4267Y3517
X4954Y4142
X5329Y4142
X6579Y4329
X6892Y4517
X7954Y5642
X8142Y6579
X7579Y6579
X6579Y7142
X5767Y7142
X5704Y6642
X5204Y6642
X3517Y7329
X3517Y7767
X3329Y8267
X4017Y9579
X4392Y9829
X4954Y10204
X6142Y10017
X6579Y10017
X7204Y9892
X7704Y9079
X3517Y5517
X3517Y5079
X3329Y6017
X6579Y3329
M30
