G75*
%MOIN*%
%OFA0B0*%
%FSLAX24Y24*%
%IPPOS*%
%LPD*%
%AMOC8*
5,1,8,0,0,1.08239X$1,22.5*
%
%ADD10C,0.0000*%
%ADD11R,0.0472X0.0472*%
%ADD12C,0.0397*%
%ADD13C,0.0060*%
D10*
X002517Y002517D02*
X002517Y011017D01*
X009017Y011017D01*
X009017Y002517D01*
X002517Y002517D01*
D11*
X004204Y003603D03*
X004204Y004430D03*
X003517Y004353D03*
X003517Y005180D03*
X003517Y005228D03*
X003517Y006055D03*
X003517Y006603D03*
X003517Y007430D03*
X003517Y007478D03*
X003517Y008305D03*
X003517Y008353D03*
X003517Y009180D03*
X004142Y009103D03*
X004767Y009478D03*
X004142Y009930D03*
X004767Y010305D03*
X005392Y010305D03*
X006017Y010305D03*
X006642Y010305D03*
X007267Y009930D03*
X006642Y009478D03*
X006017Y009478D03*
X005392Y009478D03*
X007267Y009103D03*
X007892Y009180D03*
X007892Y008353D03*
X007892Y008305D03*
X007892Y007478D03*
X007892Y007430D03*
X007892Y006603D03*
X007892Y006055D03*
X007892Y005228D03*
X007892Y005180D03*
X007892Y004353D03*
X007204Y004430D03*
X007204Y003603D03*
X006454Y003228D03*
X005704Y003228D03*
X004954Y003228D03*
X004954Y004055D03*
X005704Y004055D03*
X006454Y004055D03*
D12*
X007017Y004829D03*
X007392Y004829D03*
X007517Y006579D03*
X007517Y006954D03*
X004954Y004392D03*
X004704Y004642D03*
X003892Y005704D03*
X003892Y006079D03*
X003829Y003579D03*
X003829Y003204D03*
X003517Y009517D03*
X003517Y009892D03*
X005204Y010704D03*
X005579Y010704D03*
X007142Y010267D03*
X007517Y010267D03*
D13*
X007142Y010267D01*
X007142Y009930D01*
X007267Y009930D01*
X007454Y009579D02*
X007267Y009392D01*
X007267Y009103D01*
X007454Y009579D02*
X007579Y009579D01*
X007892Y009892D01*
X007892Y010392D01*
X007642Y010642D01*
X006892Y010642D01*
X006642Y010392D01*
X006642Y010305D01*
X006642Y009767D02*
X006017Y010017D01*
X006017Y010305D01*
X005579Y010704D02*
X005204Y010704D01*
X005204Y010305D01*
X005392Y010305D01*
X005392Y009767D02*
X005392Y009478D01*
X005392Y009767D02*
X004767Y010017D01*
X004767Y010305D01*
X004315Y009930D02*
X004767Y009478D01*
X004315Y009930D02*
X004142Y009930D01*
X003517Y009892D02*
X003517Y009517D01*
X003517Y009180D01*
X004142Y009103D02*
X004180Y009103D01*
X004267Y009017D01*
X005892Y009017D01*
X006017Y009142D01*
X006142Y009017D01*
X006642Y009017D01*
X007204Y008454D01*
X007392Y008642D01*
X007517Y008642D01*
X007892Y009017D01*
X007892Y009180D01*
X007892Y008353D02*
X007892Y008305D01*
X007204Y008454D02*
X007017Y008267D01*
X007017Y006392D01*
X007353Y006055D01*
X007267Y005968D01*
X007267Y005642D01*
X006642Y005017D01*
X006642Y004642D01*
X006829Y004454D01*
X006829Y003267D01*
X006791Y003228D01*
X006454Y003228D01*
X006041Y003642D02*
X006454Y004055D01*
X006041Y003642D02*
X005892Y003642D01*
X005704Y003454D01*
X005704Y003228D01*
X005291Y003642D02*
X005704Y004055D01*
X005291Y003642D02*
X005142Y003642D01*
X004954Y003454D01*
X004954Y003228D01*
X004954Y004055D02*
X004954Y004392D01*
X004704Y004642D01*
X004204Y004430D02*
X004127Y004353D01*
X003517Y004353D01*
X003017Y004017D02*
X003017Y006392D01*
X003142Y006517D01*
X003430Y006517D01*
X003517Y006603D01*
X003978Y006603D01*
X004142Y006767D01*
X004142Y009103D01*
X003517Y008353D02*
X003517Y008305D01*
X003517Y007478D02*
X003517Y007430D01*
X003517Y006055D02*
X003892Y006055D01*
X003892Y006079D01*
X003892Y005704D01*
X003517Y005228D02*
X003517Y005180D01*
X003017Y004017D02*
X003430Y003603D01*
X003829Y003603D01*
X003829Y003579D01*
X003829Y003204D01*
X003829Y003603D02*
X004204Y003603D01*
X007017Y004430D02*
X007017Y004829D01*
X007392Y004829D01*
X007204Y004430D02*
X007017Y004430D01*
X007204Y003666D02*
X007892Y004353D01*
X007892Y005180D02*
X007892Y005228D01*
X007892Y006055D02*
X007353Y006055D01*
X007517Y006579D02*
X007517Y006954D01*
X007517Y006579D02*
X007868Y006579D01*
X007892Y006603D01*
X007892Y007430D02*
X007892Y007478D01*
X006642Y009478D02*
X006642Y009767D01*
X006017Y009478D02*
X006017Y009142D01*
X007204Y003666D02*
X007204Y003603D01*
M02*
