G75*
%MOIN*%
%OFA0B0*%
%FSLAX24Y24*%
%IPPOS*%
%LPD*%
%AMOC8*
5,1,8,0,0,1.08239X$1,22.5*
%
%ADD10C,0.0000*%
%ADD11R,0.0512X0.0512*%
%ADD12C,0.0437*%
D10*
X002767Y002767D02*
X002767Y011367D01*
X008740Y011367D01*
X008740Y002767D01*
X002767Y002767D01*
D11*
X004954Y003228D03*
X005704Y003228D03*
X006454Y003228D03*
X007204Y003603D03*
X006454Y004055D03*
X005704Y004055D03*
X004954Y004055D03*
X004204Y003603D03*
X003517Y004353D03*
X004204Y004430D03*
X003517Y005180D03*
X003517Y005228D03*
X003517Y006055D03*
X003517Y006603D03*
X003517Y007430D03*
X003517Y007478D03*
X003517Y008305D03*
X003517Y008353D03*
X004142Y009103D03*
X003517Y009180D03*
X004767Y009478D03*
X005392Y009478D03*
X006017Y009478D03*
X006642Y009478D03*
X007892Y009180D03*
X007267Y009103D03*
X007892Y008353D03*
X007892Y008305D03*
X007892Y007478D03*
X007892Y007430D03*
X007892Y006603D03*
X007892Y006055D03*
X007892Y005228D03*
X007892Y005180D03*
X007204Y004430D03*
X007892Y004353D03*
X007267Y009930D03*
X006642Y010305D03*
X006017Y010305D03*
X005392Y010305D03*
X004767Y010305D03*
X004142Y009930D03*
D12*
X003517Y009517D03*
X007267Y010267D03*
X005392Y010642D03*
X007517Y006579D03*
X003892Y006079D03*
X007204Y004829D03*
X004954Y004392D03*
X003829Y003579D03*
M02*
