G75*
%MOIN*%
%OFA0B0*%
%FSLAX24Y24*%
%IPPOS*%
%LPD*%
%AMOC8*
5,1,8,0,0,1.08239X$1,22.5*
%
%ADD10C,0.0000*%
%ADD11R,0.0472X0.0472*%
%ADD12R,0.0472X0.0472*%
%ADD13C,0.0397*%
%ADD14C,0.0060*%
%ADD15C,0.0317*%
D10*
X002392Y002517D02*
X002392Y011017D01*
X008892Y011017D01*
X008892Y002517D01*
X002392Y002517D01*
D11*
X004954Y002978D03*
X005642Y002978D03*
X006329Y002978D03*
X006329Y003805D03*
X005642Y003805D03*
X004954Y003805D03*
X003805Y005267D03*
X003805Y006017D03*
X003805Y006767D03*
X003805Y007517D03*
X003805Y008267D03*
X002978Y008267D03*
X002978Y007517D03*
X002978Y006767D03*
X002978Y006017D03*
X002978Y005267D03*
X004954Y009728D03*
X005642Y009728D03*
X006329Y009728D03*
X006329Y010555D03*
X005642Y010555D03*
X004954Y010555D03*
X007478Y008267D03*
X007478Y007517D03*
X007478Y006767D03*
X007478Y006017D03*
X007478Y005267D03*
X008305Y005267D03*
X008305Y006017D03*
X008305Y006767D03*
X008305Y007517D03*
X008305Y008267D03*
D12*
G36*
X007323Y008613D02*
X007087Y009021D01*
X007495Y009257D01*
X007731Y008849D01*
X007323Y008613D01*
G37*
G36*
X007083Y009149D02*
X006675Y009385D01*
X006911Y009793D01*
X007319Y009557D01*
X007083Y009149D01*
G37*
G36*
X008039Y009026D02*
X007803Y009434D01*
X008211Y009670D01*
X008447Y009262D01*
X008039Y009026D01*
G37*
G36*
X007497Y009865D02*
X007089Y010101D01*
X007325Y010509D01*
X007733Y010273D01*
X007497Y009865D01*
G37*
G36*
X004608Y009385D02*
X004200Y009149D01*
X003964Y009557D01*
X004372Y009793D01*
X004608Y009385D01*
G37*
G36*
X004197Y009021D02*
X003961Y008613D01*
X003553Y008849D01*
X003789Y009257D01*
X004197Y009021D01*
G37*
G36*
X003481Y009434D02*
X003245Y009026D01*
X002837Y009262D01*
X003073Y009670D01*
X003481Y009434D01*
G37*
G36*
X004194Y010101D02*
X003786Y009865D01*
X003550Y010273D01*
X003958Y010509D01*
X004194Y010101D01*
G37*
G36*
X003961Y004858D02*
X004197Y004450D01*
X003789Y004214D01*
X003553Y004622D01*
X003961Y004858D01*
G37*
G36*
X004200Y004322D02*
X004608Y004086D01*
X004372Y003678D01*
X003964Y003914D01*
X004200Y004322D01*
G37*
G36*
X003786Y003606D02*
X004194Y003370D01*
X003958Y002962D01*
X003550Y003198D01*
X003786Y003606D01*
G37*
G36*
X003245Y004444D02*
X003481Y004036D01*
X003073Y003800D01*
X002837Y004208D01*
X003245Y004444D01*
G37*
G36*
X006675Y004086D02*
X007083Y004322D01*
X007319Y003914D01*
X006911Y003678D01*
X006675Y004086D01*
G37*
G36*
X007087Y004450D02*
X007323Y004858D01*
X007731Y004622D01*
X007495Y004214D01*
X007087Y004450D01*
G37*
G36*
X007803Y004036D02*
X008039Y004444D01*
X008447Y004208D01*
X008211Y003800D01*
X007803Y004036D01*
G37*
G36*
X007089Y003370D02*
X007497Y003606D01*
X007733Y003198D01*
X007325Y002962D01*
X007089Y003370D01*
G37*
D13*
X007142Y003079D03*
X007704Y003392D03*
X008579Y005829D03*
X008579Y006204D03*
X008579Y008017D03*
X008579Y008579D03*
X007017Y010579D03*
X006642Y010579D03*
X004142Y010392D03*
X003579Y010017D03*
X002704Y007767D03*
X002704Y007267D03*
X002704Y005454D03*
X002704Y004954D03*
X004454Y004329D03*
X004767Y004329D03*
X004642Y002892D03*
X004267Y002892D03*
D14*
X004642Y002892D01*
X004728Y002978D01*
X004954Y002978D01*
X004954Y003666D02*
X005642Y002978D01*
X006329Y002978D02*
X005642Y003666D01*
X005642Y003805D01*
X004954Y003805D02*
X004954Y003666D01*
X004767Y004329D02*
X004454Y004329D01*
X004454Y004168D01*
X004286Y004000D01*
X003875Y004125D02*
X003767Y004017D01*
X003767Y003389D01*
X003872Y003284D01*
X003875Y004125D02*
X003875Y004536D01*
X003159Y004620D02*
X003805Y005267D01*
X003159Y004620D02*
X003159Y004122D01*
X002704Y004954D02*
X002704Y004993D01*
X002978Y005267D01*
X002791Y005454D01*
X002704Y005454D01*
X002978Y006017D02*
X003055Y006017D01*
X003805Y006767D01*
X003055Y006767D02*
X003805Y007517D01*
X003805Y008267D02*
X003454Y008267D01*
X002978Y008267D02*
X003647Y008935D01*
X003875Y008935D01*
X004286Y009471D02*
X003281Y009471D01*
X003159Y009348D01*
X003579Y010017D02*
X003702Y010017D01*
X003872Y010187D01*
X004077Y010392D01*
X004142Y010392D01*
X004954Y010416D02*
X005118Y010416D01*
X005642Y009892D01*
X005642Y009728D01*
X006329Y009728D02*
X005642Y010416D01*
X005642Y010555D01*
X004954Y010555D02*
X004954Y010416D01*
X004954Y010079D02*
X004954Y009728D01*
X006329Y010555D02*
X006353Y010579D01*
X006642Y010579D01*
X007017Y010579D01*
X007411Y010187D02*
X007411Y009997D01*
X007642Y009767D01*
X007642Y009168D01*
X007409Y008935D01*
X006997Y009471D02*
X006997Y009560D01*
X007204Y009767D01*
X008125Y009348D02*
X008142Y009331D01*
X008142Y008892D01*
X007517Y008267D01*
X007478Y008267D01*
X007478Y007517D02*
X007829Y007517D01*
X008305Y007517D02*
X007555Y006767D01*
X007478Y006767D01*
X008228Y006767D02*
X007478Y006017D01*
X007478Y005267D02*
X007829Y005267D01*
X008305Y005267D02*
X007574Y004536D01*
X007409Y004536D01*
X006997Y004000D02*
X008002Y004000D01*
X008125Y004122D01*
X007704Y003392D02*
X007519Y003392D01*
X007411Y003284D01*
X007206Y003079D01*
X007142Y003079D01*
X006329Y003454D02*
X006329Y003805D01*
X008493Y005829D02*
X008305Y006017D01*
X008493Y006204D01*
X008579Y006204D01*
X008579Y005829D02*
X008493Y005829D01*
X008305Y006767D02*
X008228Y006767D01*
X008555Y008017D02*
X008305Y008267D01*
X008579Y008541D01*
X008579Y008579D01*
X008579Y008017D02*
X008555Y008017D01*
X003805Y006017D02*
X003454Y006017D01*
X003055Y006767D02*
X002978Y006767D01*
X002728Y007267D02*
X002704Y007267D01*
X002728Y007267D02*
X002978Y007517D01*
X002728Y007767D01*
X002704Y007767D01*
D15*
X003454Y008267D03*
X004954Y010079D03*
X007204Y009767D03*
X007829Y007517D03*
X007829Y005267D03*
X006329Y003454D03*
X003454Y006017D03*
M02*
