G75*
G70*
%OFA0B0*%
%FSLAX25Y25*%
%IPPOS*%
%LPD*%
%AMOC8*
5,1,8,0,0,1.08239X$1,22.5*
%
%ADD11C,0.01000*%
%ADD12R,0.06310X0.06310*%
%ADD19R,0.03550X0.05120*%
X0010000Y0010000D02*
G75*
%LPD*%
D11*
X0010000Y0010000D02*
X0010000Y0027460D01*
X0372500Y0027460D01*
X0372500Y0010000D01*
X0010000Y0010000D01*
D19*
X0022710Y0018750D03*
X0029790Y0018750D03*
X0082710Y0018750D03*
X0089790Y0018750D03*
X0142710Y0018750D03*
X0149790Y0018750D03*
X0202710Y0018750D03*
X0209790Y0018750D03*
X0262710Y0018750D03*
X0269790Y0018750D03*
X0322710Y0018750D03*
X0329790Y0018750D03*
D12*
X0306250Y0018750D03*
X0246250Y0018750D03*
X0186250Y0018750D03*
X0126250Y0018750D03*
X0066250Y0018750D03*
X0016250Y0018750D03*
X0366250Y0018750D03*
X0010000Y0029960D02*
G75*
%LPD*%
D11*
X0010000Y0029960D02*
X0010000Y0047420D01*
X0372500Y0047420D01*
X0372500Y0029960D01*
X0010000Y0029960D01*
D19*
X0022710Y0038710D03*
X0029790Y0038710D03*
X0082710Y0038710D03*
X0089790Y0038710D03*
X0142710Y0038710D03*
X0149790Y0038710D03*
X0202710Y0038710D03*
X0209790Y0038710D03*
X0262710Y0038710D03*
X0269790Y0038710D03*
X0322710Y0038710D03*
X0329790Y0038710D03*
D12*
X0306250Y0038710D03*
X0246250Y0038710D03*
X0186250Y0038710D03*
X0126250Y0038710D03*
X0066250Y0038710D03*
X0016250Y0038710D03*
X0366250Y0038710D03*
X0010000Y0049920D02*
G75*
%LPD*%
D11*
X0010000Y0049920D02*
X0010000Y0067380D01*
X0372500Y0067380D01*
X0372500Y0049920D01*
X0010000Y0049920D01*
D19*
X0022710Y0058670D03*
X0029790Y0058670D03*
X0082710Y0058670D03*
X0089790Y0058670D03*
X0142710Y0058670D03*
X0149790Y0058670D03*
X0202710Y0058670D03*
X0209790Y0058670D03*
X0262710Y0058670D03*
X0269790Y0058670D03*
X0322710Y0058670D03*
X0329790Y0058670D03*
D12*
X0306250Y0058670D03*
X0246250Y0058670D03*
X0186250Y0058670D03*
X0126250Y0058670D03*
X0066250Y0058670D03*
X0016250Y0058670D03*
X0366250Y0058670D03*
X0010000Y0069880D02*
G75*
%LPD*%
D11*
X0010000Y0069880D02*
X0010000Y0087340D01*
X0372500Y0087340D01*
X0372500Y0069880D01*
X0010000Y0069880D01*
D19*
X0022710Y0078630D03*
X0029790Y0078630D03*
X0082710Y0078630D03*
X0089790Y0078630D03*
X0142710Y0078630D03*
X0149790Y0078630D03*
X0202710Y0078630D03*
X0209790Y0078630D03*
X0262710Y0078630D03*
X0269790Y0078630D03*
X0322710Y0078630D03*
X0329790Y0078630D03*
D12*
X0306250Y0078630D03*
X0246250Y0078630D03*
X0186250Y0078630D03*
X0126250Y0078630D03*
X0066250Y0078630D03*
X0016250Y0078630D03*
X0366250Y0078630D03*
X0010000Y0089840D02*
G75*
%LPD*%
D11*
X0010000Y0089840D02*
X0010000Y0107300D01*
X0372500Y0107300D01*
X0372500Y0089840D01*
X0010000Y0089840D01*
D19*
X0022710Y0098590D03*
X0029790Y0098590D03*
X0082710Y0098590D03*
X0089790Y0098590D03*
X0142710Y0098590D03*
X0149790Y0098590D03*
X0202710Y0098590D03*
X0209790Y0098590D03*
X0262710Y0098590D03*
X0269790Y0098590D03*
X0322710Y0098590D03*
X0329790Y0098590D03*
D12*
X0306250Y0098590D03*
X0246250Y0098590D03*
X0186250Y0098590D03*
X0126250Y0098590D03*
X0066250Y0098590D03*
X0016250Y0098590D03*
X0366250Y0098590D03*
X0010000Y0109800D02*
G75*
%LPD*%
D11*
X0010000Y0109800D02*
X0010000Y0127260D01*
X0372500Y0127260D01*
X0372500Y0109800D01*
X0010000Y0109800D01*
D19*
X0022710Y0118550D03*
X0029790Y0118550D03*
X0082710Y0118550D03*
X0089790Y0118550D03*
X0142710Y0118550D03*
X0149790Y0118550D03*
X0202710Y0118550D03*
X0209790Y0118550D03*
X0262710Y0118550D03*
X0269790Y0118550D03*
X0322710Y0118550D03*
X0329790Y0118550D03*
D12*
X0306250Y0118550D03*
X0246250Y0118550D03*
X0186250Y0118550D03*
X0126250Y0118550D03*
X0066250Y0118550D03*
X0016250Y0118550D03*
X0366250Y0118550D03*
X0010000Y0129760D02*
G75*
%LPD*%
D11*
X0010000Y0129760D02*
X0010000Y0147220D01*
X0372500Y0147220D01*
X0372500Y0129760D01*
X0010000Y0129760D01*
D19*
X0022710Y0138510D03*
X0029790Y0138510D03*
X0082710Y0138510D03*
X0089790Y0138510D03*
X0142710Y0138510D03*
X0149790Y0138510D03*
X0202710Y0138510D03*
X0209790Y0138510D03*
X0262710Y0138510D03*
X0269790Y0138510D03*
X0322710Y0138510D03*
X0329790Y0138510D03*
D12*
X0306250Y0138510D03*
X0246250Y0138510D03*
X0186250Y0138510D03*
X0126250Y0138510D03*
X0066250Y0138510D03*
X0016250Y0138510D03*
X0366250Y0138510D03*
X0010000Y0149720D02*
G75*
%LPD*%
D11*
X0010000Y0149720D02*
X0010000Y0167180D01*
X0372500Y0167180D01*
X0372500Y0149720D01*
X0010000Y0149720D01*
D19*
X0022710Y0158470D03*
X0029790Y0158470D03*
X0082710Y0158470D03*
X0089790Y0158470D03*
X0142710Y0158470D03*
X0149790Y0158470D03*
X0202710Y0158470D03*
X0209790Y0158470D03*
X0262710Y0158470D03*
X0269790Y0158470D03*
X0322710Y0158470D03*
X0329790Y0158470D03*
D12*
X0306250Y0158470D03*
X0246250Y0158470D03*
X0186250Y0158470D03*
X0126250Y0158470D03*
X0066250Y0158470D03*
X0016250Y0158470D03*
X0366250Y0158470D03*
X0010000Y0169680D02*
G75*
%LPD*%
D11*
X0010000Y0169680D02*
X0010000Y0187140D01*
X0372500Y0187140D01*
X0372500Y0169680D01*
X0010000Y0169680D01*
D19*
X0022710Y0178430D03*
X0029790Y0178430D03*
X0082710Y0178430D03*
X0089790Y0178430D03*
X0142710Y0178430D03*
X0149790Y0178430D03*
X0202710Y0178430D03*
X0209790Y0178430D03*
X0262710Y0178430D03*
X0269790Y0178430D03*
X0322710Y0178430D03*
X0329790Y0178430D03*
D12*
X0306250Y0178430D03*
X0246250Y0178430D03*
X0186250Y0178430D03*
X0126250Y0178430D03*
X0066250Y0178430D03*
X0016250Y0178430D03*
X0366250Y0178430D03*
X0010000Y0189640D02*
G75*
%LPD*%
D11*
X0010000Y0189640D02*
X0010000Y0207100D01*
X0372500Y0207100D01*
X0372500Y0189640D01*
X0010000Y0189640D01*
D19*
X0022710Y0198390D03*
X0029790Y0198390D03*
X0082710Y0198390D03*
X0089790Y0198390D03*
X0142710Y0198390D03*
X0149790Y0198390D03*
X0202710Y0198390D03*
X0209790Y0198390D03*
X0262710Y0198390D03*
X0269790Y0198390D03*
X0322710Y0198390D03*
X0329790Y0198390D03*
D12*
X0306250Y0198390D03*
X0246250Y0198390D03*
X0186250Y0198390D03*
X0126250Y0198390D03*
X0066250Y0198390D03*
X0016250Y0198390D03*
X0366250Y0198390D03*
X0010000Y0209600D02*
G75*
%LPD*%
D11*
X0010000Y0209600D02*
X0010000Y0227060D01*
X0372500Y0227060D01*
X0372500Y0209600D01*
X0010000Y0209600D01*
D19*
X0022710Y0218350D03*
X0029790Y0218350D03*
X0082710Y0218350D03*
X0089790Y0218350D03*
X0142710Y0218350D03*
X0149790Y0218350D03*
X0202710Y0218350D03*
X0209790Y0218350D03*
X0262710Y0218350D03*
X0269790Y0218350D03*
X0322710Y0218350D03*
X0329790Y0218350D03*
D12*
X0306250Y0218350D03*
X0246250Y0218350D03*
X0186250Y0218350D03*
X0126250Y0218350D03*
X0066250Y0218350D03*
X0016250Y0218350D03*
X0366250Y0218350D03*
X0010000Y0229560D02*
G75*
%LPD*%
D11*
X0010000Y0229560D02*
X0010000Y0247020D01*
X0372500Y0247020D01*
X0372500Y0229560D01*
X0010000Y0229560D01*
D19*
X0022710Y0238310D03*
X0029790Y0238310D03*
X0082710Y0238310D03*
X0089790Y0238310D03*
X0142710Y0238310D03*
X0149790Y0238310D03*
X0202710Y0238310D03*
X0209790Y0238310D03*
X0262710Y0238310D03*
X0269790Y0238310D03*
X0322710Y0238310D03*
X0329790Y0238310D03*
D12*
X0306250Y0238310D03*
X0246250Y0238310D03*
X0186250Y0238310D03*
X0126250Y0238310D03*
X0066250Y0238310D03*
X0016250Y0238310D03*
X0366250Y0238310D03*
X0010000Y0249520D02*
G75*
%LPD*%
D11*
X0010000Y0249520D02*
X0010000Y0266980D01*
X0372500Y0266980D01*
X0372500Y0249520D01*
X0010000Y0249520D01*
D19*
X0022710Y0258270D03*
X0029790Y0258270D03*
X0082710Y0258270D03*
X0089790Y0258270D03*
X0142710Y0258270D03*
X0149790Y0258270D03*
X0202710Y0258270D03*
X0209790Y0258270D03*
X0262710Y0258270D03*
X0269790Y0258270D03*
X0322710Y0258270D03*
X0329790Y0258270D03*
D12*
X0306250Y0258270D03*
X0246250Y0258270D03*
X0186250Y0258270D03*
X0126250Y0258270D03*
X0066250Y0258270D03*
X0016250Y0258270D03*
X0366250Y0258270D03*
X0010000Y0269480D02*
G75*
%LPD*%
D11*
X0010000Y0269480D02*
X0010000Y0286940D01*
X0372500Y0286940D01*
X0372500Y0269480D01*
X0010000Y0269480D01*
D19*
X0022710Y0278230D03*
X0029790Y0278230D03*
X0082710Y0278230D03*
X0089790Y0278230D03*
X0142710Y0278230D03*
X0149790Y0278230D03*
X0202710Y0278230D03*
X0209790Y0278230D03*
X0262710Y0278230D03*
X0269790Y0278230D03*
X0322710Y0278230D03*
X0329790Y0278230D03*
D12*
X0306250Y0278230D03*
X0246250Y0278230D03*
X0186250Y0278230D03*
X0126250Y0278230D03*
X0066250Y0278230D03*
X0016250Y0278230D03*
X0366250Y0278230D03*
X0010000Y0289440D02*
G75*
%LPD*%
D11*
X0010000Y0289440D02*
X0010000Y0306900D01*
X0372500Y0306900D01*
X0372500Y0289440D01*
X0010000Y0289440D01*
D19*
X0022710Y0298190D03*
X0029790Y0298190D03*
X0082710Y0298190D03*
X0089790Y0298190D03*
X0142710Y0298190D03*
X0149790Y0298190D03*
X0202710Y0298190D03*
X0209790Y0298190D03*
X0262710Y0298190D03*
X0269790Y0298190D03*
X0322710Y0298190D03*
X0329790Y0298190D03*
D12*
X0306250Y0298190D03*
X0246250Y0298190D03*
X0186250Y0298190D03*
X0126250Y0298190D03*
X0066250Y0298190D03*
X0016250Y0298190D03*
X0366250Y0298190D03*
X0010000Y0309400D02*
G75*
%LPD*%
D11*
X0010000Y0309400D02*
X0010000Y0326860D01*
X0372500Y0326860D01*
X0372500Y0309400D01*
X0010000Y0309400D01*
D19*
X0022710Y0318150D03*
X0029790Y0318150D03*
X0082710Y0318150D03*
X0089790Y0318150D03*
X0142710Y0318150D03*
X0149790Y0318150D03*
X0202710Y0318150D03*
X0209790Y0318150D03*
X0262710Y0318150D03*
X0269790Y0318150D03*
X0322710Y0318150D03*
X0329790Y0318150D03*
D12*
X0306250Y0318150D03*
X0246250Y0318150D03*
X0186250Y0318150D03*
X0126250Y0318150D03*
X0066250Y0318150D03*
X0016250Y0318150D03*
X0366250Y0318150D03*
X0010000Y0329360D02*
G75*
%LPD*%
D11*
X0010000Y0329360D02*
X0010000Y0346820D01*
X0372500Y0346820D01*
X0372500Y0329360D01*
X0010000Y0329360D01*
D19*
X0022710Y0338110D03*
X0029790Y0338110D03*
X0082710Y0338110D03*
X0089790Y0338110D03*
X0142710Y0338110D03*
X0149790Y0338110D03*
X0202710Y0338110D03*
X0209790Y0338110D03*
X0262710Y0338110D03*
X0269790Y0338110D03*
X0322710Y0338110D03*
X0329790Y0338110D03*
D12*
X0306250Y0338110D03*
X0246250Y0338110D03*
X0186250Y0338110D03*
X0126250Y0338110D03*
X0066250Y0338110D03*
X0016250Y0338110D03*
X0366250Y0338110D03*
X0010000Y0349320D02*
G75*
%LPD*%
D11*
X0010000Y0349320D02*
X0010000Y0366780D01*
X0372500Y0366780D01*
X0372500Y0349320D01*
X0010000Y0349320D01*
D19*
X0022710Y0358070D03*
X0029790Y0358070D03*
X0082710Y0358070D03*
X0089790Y0358070D03*
X0142710Y0358070D03*
X0149790Y0358070D03*
X0202710Y0358070D03*
X0209790Y0358070D03*
X0262710Y0358070D03*
X0269790Y0358070D03*
X0322710Y0358070D03*
X0329790Y0358070D03*
D12*
X0306250Y0358070D03*
X0246250Y0358070D03*
X0186250Y0358070D03*
X0126250Y0358070D03*
X0066250Y0358070D03*
X0016250Y0358070D03*
X0366250Y0358070D03*
X0010000Y0369280D02*
G75*
%LPD*%
D11*
X0010000Y0369280D02*
X0010000Y0386740D01*
X0372500Y0386740D01*
X0372500Y0369280D01*
X0010000Y0369280D01*
D19*
X0022710Y0378030D03*
X0029790Y0378030D03*
X0082710Y0378030D03*
X0089790Y0378030D03*
X0142710Y0378030D03*
X0149790Y0378030D03*
X0202710Y0378030D03*
X0209790Y0378030D03*
X0262710Y0378030D03*
X0269790Y0378030D03*
X0322710Y0378030D03*
X0329790Y0378030D03*
D12*
X0306250Y0378030D03*
X0246250Y0378030D03*
X0186250Y0378030D03*
X0126250Y0378030D03*
X0066250Y0378030D03*
X0016250Y0378030D03*
X0366250Y0378030D03*
M02*
