G75*
G70*
%OFA0B0*%
%FSLAX25Y25*%
%IPPOS*%
%LPD*%
%AMOC8*
5,1,8,0,0,1.08239X$1,22.5*
%
%ADD11C,0.01000*%
%ADD16R,0.05120X0.05120*%
X0010000Y0010000D02*
G75*
%LPD*%
D11*
X0010000Y0010000D02*
X0010000Y0027460D01*
X0372500Y0027460D01*
X0372500Y0010000D01*
X0010000Y0010000D01*
D16*
X0017120Y0018750D03*
X0025380Y0018750D03*
X0037120Y0018750D03*
X0045380Y0018750D03*
X0057120Y0018750D03*
X0065380Y0018750D03*
X0077120Y0018750D03*
X0085380Y0018750D03*
X0097120Y0018750D03*
X0105380Y0018750D03*
X0117120Y0018750D03*
X0125380Y0018750D03*
X0137120Y0018750D03*
X0145380Y0018750D03*
X0157120Y0018750D03*
X0165380Y0018750D03*
X0177120Y0018750D03*
X0185380Y0018750D03*
X0197120Y0018750D03*
X0205380Y0018750D03*
X0217120Y0018750D03*
X0225380Y0018750D03*
X0237120Y0018750D03*
X0245380Y0018750D03*
X0257120Y0018750D03*
X0265380Y0018750D03*
X0277120Y0018750D03*
X0285380Y0018750D03*
X0297120Y0018750D03*
X0305380Y0018750D03*
X0317120Y0018750D03*
X0325380Y0018750D03*
X0337120Y0018750D03*
X0345380Y0018750D03*
X0357120Y0018750D03*
X0365380Y0018750D03*
X0010000Y0029960D02*
G75*
%LPD*%
D11*
X0010000Y0029960D02*
X0010000Y0047420D01*
X0372500Y0047420D01*
X0372500Y0029960D01*
X0010000Y0029960D01*
D16*
X0017120Y0038710D03*
X0025380Y0038710D03*
X0037120Y0038710D03*
X0045380Y0038710D03*
X0057120Y0038710D03*
X0065380Y0038710D03*
X0077120Y0038710D03*
X0085380Y0038710D03*
X0097120Y0038710D03*
X0105380Y0038710D03*
X0117120Y0038710D03*
X0125380Y0038710D03*
X0137120Y0038710D03*
X0145380Y0038710D03*
X0157120Y0038710D03*
X0165380Y0038710D03*
X0177120Y0038710D03*
X0185380Y0038710D03*
X0197120Y0038710D03*
X0205380Y0038710D03*
X0217120Y0038710D03*
X0225380Y0038710D03*
X0237120Y0038710D03*
X0245380Y0038710D03*
X0257120Y0038710D03*
X0265380Y0038710D03*
X0277120Y0038710D03*
X0285380Y0038710D03*
X0297120Y0038710D03*
X0305380Y0038710D03*
X0317120Y0038710D03*
X0325380Y0038710D03*
X0337120Y0038710D03*
X0345380Y0038710D03*
X0357120Y0038710D03*
X0365380Y0038710D03*
X0010000Y0049920D02*
G75*
%LPD*%
D11*
X0010000Y0049920D02*
X0010000Y0067380D01*
X0372500Y0067380D01*
X0372500Y0049920D01*
X0010000Y0049920D01*
D16*
X0017120Y0058670D03*
X0025380Y0058670D03*
X0037120Y0058670D03*
X0045380Y0058670D03*
X0057120Y0058670D03*
X0065380Y0058670D03*
X0077120Y0058670D03*
X0085380Y0058670D03*
X0097120Y0058670D03*
X0105380Y0058670D03*
X0117120Y0058670D03*
X0125380Y0058670D03*
X0137120Y0058670D03*
X0145380Y0058670D03*
X0157120Y0058670D03*
X0165380Y0058670D03*
X0177120Y0058670D03*
X0185380Y0058670D03*
X0197120Y0058670D03*
X0205380Y0058670D03*
X0217120Y0058670D03*
X0225380Y0058670D03*
X0237120Y0058670D03*
X0245380Y0058670D03*
X0257120Y0058670D03*
X0265380Y0058670D03*
X0277120Y0058670D03*
X0285380Y0058670D03*
X0297120Y0058670D03*
X0305380Y0058670D03*
X0317120Y0058670D03*
X0325380Y0058670D03*
X0337120Y0058670D03*
X0345380Y0058670D03*
X0357120Y0058670D03*
X0365380Y0058670D03*
X0010000Y0069880D02*
G75*
%LPD*%
D11*
X0010000Y0069880D02*
X0010000Y0087340D01*
X0372500Y0087340D01*
X0372500Y0069880D01*
X0010000Y0069880D01*
D16*
X0017120Y0078630D03*
X0025380Y0078630D03*
X0037120Y0078630D03*
X0045380Y0078630D03*
X0057120Y0078630D03*
X0065380Y0078630D03*
X0077120Y0078630D03*
X0085380Y0078630D03*
X0097120Y0078630D03*
X0105380Y0078630D03*
X0117120Y0078630D03*
X0125380Y0078630D03*
X0137120Y0078630D03*
X0145380Y0078630D03*
X0157120Y0078630D03*
X0165380Y0078630D03*
X0177120Y0078630D03*
X0185380Y0078630D03*
X0197120Y0078630D03*
X0205380Y0078630D03*
X0217120Y0078630D03*
X0225380Y0078630D03*
X0237120Y0078630D03*
X0245380Y0078630D03*
X0257120Y0078630D03*
X0265380Y0078630D03*
X0277120Y0078630D03*
X0285380Y0078630D03*
X0297120Y0078630D03*
X0305380Y0078630D03*
X0317120Y0078630D03*
X0325380Y0078630D03*
X0337120Y0078630D03*
X0345380Y0078630D03*
X0357120Y0078630D03*
X0365380Y0078630D03*
X0010000Y0089840D02*
G75*
%LPD*%
D11*
X0010000Y0089840D02*
X0010000Y0107300D01*
X0372500Y0107300D01*
X0372500Y0089840D01*
X0010000Y0089840D01*
D16*
X0017120Y0098590D03*
X0025380Y0098590D03*
X0037120Y0098590D03*
X0045380Y0098590D03*
X0057120Y0098590D03*
X0065380Y0098590D03*
X0077120Y0098590D03*
X0085380Y0098590D03*
X0097120Y0098590D03*
X0105380Y0098590D03*
X0117120Y0098590D03*
X0125380Y0098590D03*
X0137120Y0098590D03*
X0145380Y0098590D03*
X0157120Y0098590D03*
X0165380Y0098590D03*
X0177120Y0098590D03*
X0185380Y0098590D03*
X0197120Y0098590D03*
X0205380Y0098590D03*
X0217120Y0098590D03*
X0225380Y0098590D03*
X0237120Y0098590D03*
X0245380Y0098590D03*
X0257120Y0098590D03*
X0265380Y0098590D03*
X0277120Y0098590D03*
X0285380Y0098590D03*
X0297120Y0098590D03*
X0305380Y0098590D03*
X0317120Y0098590D03*
X0325380Y0098590D03*
X0337120Y0098590D03*
X0345380Y0098590D03*
X0357120Y0098590D03*
X0365380Y0098590D03*
X0010000Y0109800D02*
G75*
%LPD*%
D11*
X0010000Y0109800D02*
X0010000Y0127260D01*
X0372500Y0127260D01*
X0372500Y0109800D01*
X0010000Y0109800D01*
D16*
X0017120Y0118550D03*
X0025380Y0118550D03*
X0037120Y0118550D03*
X0045380Y0118550D03*
X0057120Y0118550D03*
X0065380Y0118550D03*
X0077120Y0118550D03*
X0085380Y0118550D03*
X0097120Y0118550D03*
X0105380Y0118550D03*
X0117120Y0118550D03*
X0125380Y0118550D03*
X0137120Y0118550D03*
X0145380Y0118550D03*
X0157120Y0118550D03*
X0165380Y0118550D03*
X0177120Y0118550D03*
X0185380Y0118550D03*
X0197120Y0118550D03*
X0205380Y0118550D03*
X0217120Y0118550D03*
X0225380Y0118550D03*
X0237120Y0118550D03*
X0245380Y0118550D03*
X0257120Y0118550D03*
X0265380Y0118550D03*
X0277120Y0118550D03*
X0285380Y0118550D03*
X0297120Y0118550D03*
X0305380Y0118550D03*
X0317120Y0118550D03*
X0325380Y0118550D03*
X0337120Y0118550D03*
X0345380Y0118550D03*
X0357120Y0118550D03*
X0365380Y0118550D03*
X0010000Y0129760D02*
G75*
%LPD*%
D11*
X0010000Y0129760D02*
X0010000Y0147220D01*
X0372500Y0147220D01*
X0372500Y0129760D01*
X0010000Y0129760D01*
D16*
X0017120Y0138510D03*
X0025380Y0138510D03*
X0037120Y0138510D03*
X0045380Y0138510D03*
X0057120Y0138510D03*
X0065380Y0138510D03*
X0077120Y0138510D03*
X0085380Y0138510D03*
X0097120Y0138510D03*
X0105380Y0138510D03*
X0117120Y0138510D03*
X0125380Y0138510D03*
X0137120Y0138510D03*
X0145380Y0138510D03*
X0157120Y0138510D03*
X0165380Y0138510D03*
X0177120Y0138510D03*
X0185380Y0138510D03*
X0197120Y0138510D03*
X0205380Y0138510D03*
X0217120Y0138510D03*
X0225380Y0138510D03*
X0237120Y0138510D03*
X0245380Y0138510D03*
X0257120Y0138510D03*
X0265380Y0138510D03*
X0277120Y0138510D03*
X0285380Y0138510D03*
X0297120Y0138510D03*
X0305380Y0138510D03*
X0317120Y0138510D03*
X0325380Y0138510D03*
X0337120Y0138510D03*
X0345380Y0138510D03*
X0357120Y0138510D03*
X0365380Y0138510D03*
X0010000Y0149720D02*
G75*
%LPD*%
D11*
X0010000Y0149720D02*
X0010000Y0167180D01*
X0372500Y0167180D01*
X0372500Y0149720D01*
X0010000Y0149720D01*
D16*
X0017120Y0158470D03*
X0025380Y0158470D03*
X0037120Y0158470D03*
X0045380Y0158470D03*
X0057120Y0158470D03*
X0065380Y0158470D03*
X0077120Y0158470D03*
X0085380Y0158470D03*
X0097120Y0158470D03*
X0105380Y0158470D03*
X0117120Y0158470D03*
X0125380Y0158470D03*
X0137120Y0158470D03*
X0145380Y0158470D03*
X0157120Y0158470D03*
X0165380Y0158470D03*
X0177120Y0158470D03*
X0185380Y0158470D03*
X0197120Y0158470D03*
X0205380Y0158470D03*
X0217120Y0158470D03*
X0225380Y0158470D03*
X0237120Y0158470D03*
X0245380Y0158470D03*
X0257120Y0158470D03*
X0265380Y0158470D03*
X0277120Y0158470D03*
X0285380Y0158470D03*
X0297120Y0158470D03*
X0305380Y0158470D03*
X0317120Y0158470D03*
X0325380Y0158470D03*
X0337120Y0158470D03*
X0345380Y0158470D03*
X0357120Y0158470D03*
X0365380Y0158470D03*
X0010000Y0169680D02*
G75*
%LPD*%
D11*
X0010000Y0169680D02*
X0010000Y0187140D01*
X0372500Y0187140D01*
X0372500Y0169680D01*
X0010000Y0169680D01*
D16*
X0017120Y0178430D03*
X0025380Y0178430D03*
X0037120Y0178430D03*
X0045380Y0178430D03*
X0057120Y0178430D03*
X0065380Y0178430D03*
X0077120Y0178430D03*
X0085380Y0178430D03*
X0097120Y0178430D03*
X0105380Y0178430D03*
X0117120Y0178430D03*
X0125380Y0178430D03*
X0137120Y0178430D03*
X0145380Y0178430D03*
X0157120Y0178430D03*
X0165380Y0178430D03*
X0177120Y0178430D03*
X0185380Y0178430D03*
X0197120Y0178430D03*
X0205380Y0178430D03*
X0217120Y0178430D03*
X0225380Y0178430D03*
X0237120Y0178430D03*
X0245380Y0178430D03*
X0257120Y0178430D03*
X0265380Y0178430D03*
X0277120Y0178430D03*
X0285380Y0178430D03*
X0297120Y0178430D03*
X0305380Y0178430D03*
X0317120Y0178430D03*
X0325380Y0178430D03*
X0337120Y0178430D03*
X0345380Y0178430D03*
X0357120Y0178430D03*
X0365380Y0178430D03*
X0010000Y0189640D02*
G75*
%LPD*%
D11*
X0010000Y0189640D02*
X0010000Y0207100D01*
X0372500Y0207100D01*
X0372500Y0189640D01*
X0010000Y0189640D01*
D16*
X0017120Y0198390D03*
X0025380Y0198390D03*
X0037120Y0198390D03*
X0045380Y0198390D03*
X0057120Y0198390D03*
X0065380Y0198390D03*
X0077120Y0198390D03*
X0085380Y0198390D03*
X0097120Y0198390D03*
X0105380Y0198390D03*
X0117120Y0198390D03*
X0125380Y0198390D03*
X0137120Y0198390D03*
X0145380Y0198390D03*
X0157120Y0198390D03*
X0165380Y0198390D03*
X0177120Y0198390D03*
X0185380Y0198390D03*
X0197120Y0198390D03*
X0205380Y0198390D03*
X0217120Y0198390D03*
X0225380Y0198390D03*
X0237120Y0198390D03*
X0245380Y0198390D03*
X0257120Y0198390D03*
X0265380Y0198390D03*
X0277120Y0198390D03*
X0285380Y0198390D03*
X0297120Y0198390D03*
X0305380Y0198390D03*
X0317120Y0198390D03*
X0325380Y0198390D03*
X0337120Y0198390D03*
X0345380Y0198390D03*
X0357120Y0198390D03*
X0365380Y0198390D03*
X0010000Y0209600D02*
G75*
%LPD*%
D11*
X0010000Y0209600D02*
X0010000Y0227060D01*
X0372500Y0227060D01*
X0372500Y0209600D01*
X0010000Y0209600D01*
D16*
X0017120Y0218350D03*
X0025380Y0218350D03*
X0037120Y0218350D03*
X0045380Y0218350D03*
X0057120Y0218350D03*
X0065380Y0218350D03*
X0077120Y0218350D03*
X0085380Y0218350D03*
X0097120Y0218350D03*
X0105380Y0218350D03*
X0117120Y0218350D03*
X0125380Y0218350D03*
X0137120Y0218350D03*
X0145380Y0218350D03*
X0157120Y0218350D03*
X0165380Y0218350D03*
X0177120Y0218350D03*
X0185380Y0218350D03*
X0197120Y0218350D03*
X0205380Y0218350D03*
X0217120Y0218350D03*
X0225380Y0218350D03*
X0237120Y0218350D03*
X0245380Y0218350D03*
X0257120Y0218350D03*
X0265380Y0218350D03*
X0277120Y0218350D03*
X0285380Y0218350D03*
X0297120Y0218350D03*
X0305380Y0218350D03*
X0317120Y0218350D03*
X0325380Y0218350D03*
X0337120Y0218350D03*
X0345380Y0218350D03*
X0357120Y0218350D03*
X0365380Y0218350D03*
X0010000Y0229560D02*
G75*
%LPD*%
D11*
X0010000Y0229560D02*
X0010000Y0247020D01*
X0372500Y0247020D01*
X0372500Y0229560D01*
X0010000Y0229560D01*
D16*
X0017120Y0238310D03*
X0025380Y0238310D03*
X0037120Y0238310D03*
X0045380Y0238310D03*
X0057120Y0238310D03*
X0065380Y0238310D03*
X0077120Y0238310D03*
X0085380Y0238310D03*
X0097120Y0238310D03*
X0105380Y0238310D03*
X0117120Y0238310D03*
X0125380Y0238310D03*
X0137120Y0238310D03*
X0145380Y0238310D03*
X0157120Y0238310D03*
X0165380Y0238310D03*
X0177120Y0238310D03*
X0185380Y0238310D03*
X0197120Y0238310D03*
X0205380Y0238310D03*
X0217120Y0238310D03*
X0225380Y0238310D03*
X0237120Y0238310D03*
X0245380Y0238310D03*
X0257120Y0238310D03*
X0265380Y0238310D03*
X0277120Y0238310D03*
X0285380Y0238310D03*
X0297120Y0238310D03*
X0305380Y0238310D03*
X0317120Y0238310D03*
X0325380Y0238310D03*
X0337120Y0238310D03*
X0345380Y0238310D03*
X0357120Y0238310D03*
X0365380Y0238310D03*
X0010000Y0249520D02*
G75*
%LPD*%
D11*
X0010000Y0249520D02*
X0010000Y0266980D01*
X0372500Y0266980D01*
X0372500Y0249520D01*
X0010000Y0249520D01*
D16*
X0017120Y0258270D03*
X0025380Y0258270D03*
X0037120Y0258270D03*
X0045380Y0258270D03*
X0057120Y0258270D03*
X0065380Y0258270D03*
X0077120Y0258270D03*
X0085380Y0258270D03*
X0097120Y0258270D03*
X0105380Y0258270D03*
X0117120Y0258270D03*
X0125380Y0258270D03*
X0137120Y0258270D03*
X0145380Y0258270D03*
X0157120Y0258270D03*
X0165380Y0258270D03*
X0177120Y0258270D03*
X0185380Y0258270D03*
X0197120Y0258270D03*
X0205380Y0258270D03*
X0217120Y0258270D03*
X0225380Y0258270D03*
X0237120Y0258270D03*
X0245380Y0258270D03*
X0257120Y0258270D03*
X0265380Y0258270D03*
X0277120Y0258270D03*
X0285380Y0258270D03*
X0297120Y0258270D03*
X0305380Y0258270D03*
X0317120Y0258270D03*
X0325380Y0258270D03*
X0337120Y0258270D03*
X0345380Y0258270D03*
X0357120Y0258270D03*
X0365380Y0258270D03*
X0010000Y0269480D02*
G75*
%LPD*%
D11*
X0010000Y0269480D02*
X0010000Y0286940D01*
X0372500Y0286940D01*
X0372500Y0269480D01*
X0010000Y0269480D01*
D16*
X0017120Y0278230D03*
X0025380Y0278230D03*
X0037120Y0278230D03*
X0045380Y0278230D03*
X0057120Y0278230D03*
X0065380Y0278230D03*
X0077120Y0278230D03*
X0085380Y0278230D03*
X0097120Y0278230D03*
X0105380Y0278230D03*
X0117120Y0278230D03*
X0125380Y0278230D03*
X0137120Y0278230D03*
X0145380Y0278230D03*
X0157120Y0278230D03*
X0165380Y0278230D03*
X0177120Y0278230D03*
X0185380Y0278230D03*
X0197120Y0278230D03*
X0205380Y0278230D03*
X0217120Y0278230D03*
X0225380Y0278230D03*
X0237120Y0278230D03*
X0245380Y0278230D03*
X0257120Y0278230D03*
X0265380Y0278230D03*
X0277120Y0278230D03*
X0285380Y0278230D03*
X0297120Y0278230D03*
X0305380Y0278230D03*
X0317120Y0278230D03*
X0325380Y0278230D03*
X0337120Y0278230D03*
X0345380Y0278230D03*
X0357120Y0278230D03*
X0365380Y0278230D03*
X0010000Y0289440D02*
G75*
%LPD*%
D11*
X0010000Y0289440D02*
X0010000Y0306900D01*
X0372500Y0306900D01*
X0372500Y0289440D01*
X0010000Y0289440D01*
D16*
X0017120Y0298190D03*
X0025380Y0298190D03*
X0037120Y0298190D03*
X0045380Y0298190D03*
X0057120Y0298190D03*
X0065380Y0298190D03*
X0077120Y0298190D03*
X0085380Y0298190D03*
X0097120Y0298190D03*
X0105380Y0298190D03*
X0117120Y0298190D03*
X0125380Y0298190D03*
X0137120Y0298190D03*
X0145380Y0298190D03*
X0157120Y0298190D03*
X0165380Y0298190D03*
X0177120Y0298190D03*
X0185380Y0298190D03*
X0197120Y0298190D03*
X0205380Y0298190D03*
X0217120Y0298190D03*
X0225380Y0298190D03*
X0237120Y0298190D03*
X0245380Y0298190D03*
X0257120Y0298190D03*
X0265380Y0298190D03*
X0277120Y0298190D03*
X0285380Y0298190D03*
X0297120Y0298190D03*
X0305380Y0298190D03*
X0317120Y0298190D03*
X0325380Y0298190D03*
X0337120Y0298190D03*
X0345380Y0298190D03*
X0357120Y0298190D03*
X0365380Y0298190D03*
X0010000Y0309400D02*
G75*
%LPD*%
D11*
X0010000Y0309400D02*
X0010000Y0326860D01*
X0372500Y0326860D01*
X0372500Y0309400D01*
X0010000Y0309400D01*
D16*
X0017120Y0318150D03*
X0025380Y0318150D03*
X0037120Y0318150D03*
X0045380Y0318150D03*
X0057120Y0318150D03*
X0065380Y0318150D03*
X0077120Y0318150D03*
X0085380Y0318150D03*
X0097120Y0318150D03*
X0105380Y0318150D03*
X0117120Y0318150D03*
X0125380Y0318150D03*
X0137120Y0318150D03*
X0145380Y0318150D03*
X0157120Y0318150D03*
X0165380Y0318150D03*
X0177120Y0318150D03*
X0185380Y0318150D03*
X0197120Y0318150D03*
X0205380Y0318150D03*
X0217120Y0318150D03*
X0225380Y0318150D03*
X0237120Y0318150D03*
X0245380Y0318150D03*
X0257120Y0318150D03*
X0265380Y0318150D03*
X0277120Y0318150D03*
X0285380Y0318150D03*
X0297120Y0318150D03*
X0305380Y0318150D03*
X0317120Y0318150D03*
X0325380Y0318150D03*
X0337120Y0318150D03*
X0345380Y0318150D03*
X0357120Y0318150D03*
X0365380Y0318150D03*
X0010000Y0329360D02*
G75*
%LPD*%
D11*
X0010000Y0329360D02*
X0010000Y0346820D01*
X0372500Y0346820D01*
X0372500Y0329360D01*
X0010000Y0329360D01*
D16*
X0017120Y0338110D03*
X0025380Y0338110D03*
X0037120Y0338110D03*
X0045380Y0338110D03*
X0057120Y0338110D03*
X0065380Y0338110D03*
X0077120Y0338110D03*
X0085380Y0338110D03*
X0097120Y0338110D03*
X0105380Y0338110D03*
X0117120Y0338110D03*
X0125380Y0338110D03*
X0137120Y0338110D03*
X0145380Y0338110D03*
X0157120Y0338110D03*
X0165380Y0338110D03*
X0177120Y0338110D03*
X0185380Y0338110D03*
X0197120Y0338110D03*
X0205380Y0338110D03*
X0217120Y0338110D03*
X0225380Y0338110D03*
X0237120Y0338110D03*
X0245380Y0338110D03*
X0257120Y0338110D03*
X0265380Y0338110D03*
X0277120Y0338110D03*
X0285380Y0338110D03*
X0297120Y0338110D03*
X0305380Y0338110D03*
X0317120Y0338110D03*
X0325380Y0338110D03*
X0337120Y0338110D03*
X0345380Y0338110D03*
X0357120Y0338110D03*
X0365380Y0338110D03*
X0010000Y0349320D02*
G75*
%LPD*%
D11*
X0010000Y0349320D02*
X0010000Y0366780D01*
X0372500Y0366780D01*
X0372500Y0349320D01*
X0010000Y0349320D01*
D16*
X0017120Y0358070D03*
X0025380Y0358070D03*
X0037120Y0358070D03*
X0045380Y0358070D03*
X0057120Y0358070D03*
X0065380Y0358070D03*
X0077120Y0358070D03*
X0085380Y0358070D03*
X0097120Y0358070D03*
X0105380Y0358070D03*
X0117120Y0358070D03*
X0125380Y0358070D03*
X0137120Y0358070D03*
X0145380Y0358070D03*
X0157120Y0358070D03*
X0165380Y0358070D03*
X0177120Y0358070D03*
X0185380Y0358070D03*
X0197120Y0358070D03*
X0205380Y0358070D03*
X0217120Y0358070D03*
X0225380Y0358070D03*
X0237120Y0358070D03*
X0245380Y0358070D03*
X0257120Y0358070D03*
X0265380Y0358070D03*
X0277120Y0358070D03*
X0285380Y0358070D03*
X0297120Y0358070D03*
X0305380Y0358070D03*
X0317120Y0358070D03*
X0325380Y0358070D03*
X0337120Y0358070D03*
X0345380Y0358070D03*
X0357120Y0358070D03*
X0365380Y0358070D03*
X0010000Y0369280D02*
G75*
%LPD*%
D11*
X0010000Y0369280D02*
X0010000Y0386740D01*
X0372500Y0386740D01*
X0372500Y0369280D01*
X0010000Y0369280D01*
D16*
X0017120Y0378030D03*
X0025380Y0378030D03*
X0037120Y0378030D03*
X0045380Y0378030D03*
X0057120Y0378030D03*
X0065380Y0378030D03*
X0077120Y0378030D03*
X0085380Y0378030D03*
X0097120Y0378030D03*
X0105380Y0378030D03*
X0117120Y0378030D03*
X0125380Y0378030D03*
X0137120Y0378030D03*
X0145380Y0378030D03*
X0157120Y0378030D03*
X0165380Y0378030D03*
X0177120Y0378030D03*
X0185380Y0378030D03*
X0197120Y0378030D03*
X0205380Y0378030D03*
X0217120Y0378030D03*
X0225380Y0378030D03*
X0237120Y0378030D03*
X0245380Y0378030D03*
X0257120Y0378030D03*
X0265380Y0378030D03*
X0277120Y0378030D03*
X0285380Y0378030D03*
X0297120Y0378030D03*
X0305380Y0378030D03*
X0317120Y0378030D03*
X0325380Y0378030D03*
X0337120Y0378030D03*
X0345380Y0378030D03*
X0357120Y0378030D03*
X0365380Y0378030D03*
M02*
