%
T01C0.019700
X2125Y1375
X6625Y1375
X8125Y1375
X12625Y1375
X14125Y1375
X18625Y1375
X20125Y1375
X24625Y1375
X26125Y1375
X30625Y1375
X32125Y1375
X36625Y1375
X2125Y3371
X6625Y3371
X8125Y3371
X12625Y3371
X14125Y3371
X18625Y3371
X20125Y3371
X24625Y3371
X26125Y3371
X30625Y3371
X32125Y3371
X36625Y3371
X2125Y5367
X6625Y5367
X8125Y5367
X12625Y5367
X14125Y5367
X18625Y5367
X20125Y5367
X24625Y5367
X26125Y5367
X30625Y5367
X32125Y5367
X36625Y5367
X2125Y7363
X6625Y7363
X8125Y7363
X12625Y7363
X14125Y7363
X18625Y7363
X20125Y7363
X24625Y7363
X26125Y7363
X30625Y7363
X32125Y7363
X36625Y7363
X2125Y9359
X6625Y9359
X8125Y9359
X12625Y9359
X14125Y9359
X18625Y9359
X20125Y9359
X24625Y9359
X26125Y9359
X30625Y9359
X32125Y9359
X36625Y9359
X2125Y11355
X6625Y11355
X8125Y11355
X12625Y11355
X14125Y11355
X18625Y11355
X20125Y11355
X24625Y11355
X26125Y11355
X30625Y11355
X32125Y11355
X36625Y11355
X2125Y13351
X6625Y13351
X8125Y13351
X12625Y13351
X14125Y13351
X18625Y13351
X20125Y13351
X24625Y13351
X26125Y13351
X30625Y13351
X32125Y13351
X36625Y13351
X2125Y15347
X6625Y15347
X8125Y15347
X12625Y15347
X14125Y15347
X18625Y15347
X20125Y15347
X24625Y15347
X26125Y15347
X30625Y15347
X32125Y15347
X36625Y15347
X2125Y17343
X6625Y17343
X8125Y17343
X12625Y17343
X14125Y17343
X18625Y17343
X20125Y17343
X24625Y17343
X26125Y17343
X30625Y17343
X32125Y17343
X36625Y17343
X2125Y19339
X6625Y19339
X8125Y19339
X12625Y19339
X14125Y19339
X18625Y19339
X20125Y19339
X24625Y19339
X26125Y19339
X30625Y19339
X32125Y19339
X36625Y19339
X2125Y21335
X6625Y21335
X8125Y21335
X12625Y21335
X14125Y21335
X18625Y21335
X20125Y21335
X24625Y21335
X26125Y21335
X30625Y21335
X32125Y21335
X36625Y21335
X2125Y23331
X6625Y23331
X8125Y23331
X12625Y23331
X14125Y23331
X18625Y23331
X20125Y23331
X24625Y23331
X26125Y23331
X30625Y23331
X32125Y23331
X36625Y23331
X2125Y25327
X6625Y25327
X8125Y25327
X12625Y25327
X14125Y25327
X18625Y25327
X20125Y25327
X24625Y25327
X26125Y25327
X30625Y25327
X32125Y25327
X36625Y25327
X2125Y27323
X6625Y27323
X8125Y27323
X12625Y27323
X14125Y27323
X18625Y27323
X20125Y27323
X24625Y27323
X26125Y27323
X30625Y27323
X32125Y27323
X36625Y27323
X2125Y29319
X6625Y29319
X8125Y29319
X12625Y29319
X14125Y29319
X18625Y29319
X20125Y29319
X24625Y29319
X26125Y29319
X30625Y29319
X32125Y29319
X36625Y29319
X2125Y31315
X6625Y31315
X8125Y31315
X12625Y31315
X14125Y31315
X18625Y31315
X20125Y31315
X24625Y31315
X26125Y31315
X30625Y31315
X32125Y31315
X36625Y31315
X2125Y33311
X6625Y33311
X8125Y33311
X12625Y33311
X14125Y33311
X18625Y33311
X20125Y33311
X24625Y33311
X26125Y33311
X30625Y33311
X32125Y33311
X36625Y33311
X2125Y35307
X6625Y35307
X8125Y35307
X12625Y35307
X14125Y35307
X18625Y35307
X20125Y35307
X24625Y35307
X26125Y35307
X30625Y35307
X32125Y35307
X36625Y35307
X2125Y37303
X6625Y37303
X8125Y37303
X12625Y37303
X14125Y37303
X18625Y37303
X20125Y37303
X24625Y37303
X26125Y37303
X30625Y37303
X32125Y37303
X36625Y37303
M30
