G75*
G70*
%OFA0B0*%
%FSLAX25Y25*%
%IPPOS*%
%LPD*%
%AMOC8*
5,1,8,0,0,1.08239X$1,22.5*
%
%ADD19C,0.00000*%
%ADD20R,0.06000X0.03000*%
%ADD22R,0.03540X0.04330*%
X0010000Y0010000D02*
G75*
%LPD*%
D19*
X0010000Y0010000D02*
X0010000Y0139960D01*
X0079950Y0139960D01*
X0079950Y0010000D01*
X0010000Y0010000D01*
D22*
X0025540Y0058920D03*
X0025540Y0066080D03*
X0025540Y0073920D03*
X0025540Y0081080D03*
X0025540Y0088920D03*
X0025540Y0096080D03*
X0036960Y0092500D03*
X0044290Y0088920D03*
X0044290Y0096080D03*
X0044290Y0081080D03*
X0044290Y0073920D03*
X0044290Y0066080D03*
X0044290Y0058920D03*
X0036960Y0062500D03*
X0036960Y0077500D03*
X0055710Y0077500D03*
X0055710Y0062500D03*
X0055710Y0092500D03*
D20*
X0054750Y0107500D03*
X0054750Y0122500D03*
X0032750Y0122500D03*
X0032750Y0107500D03*
X0031500Y0048750D03*
X0031500Y0033750D03*
X0053500Y0033750D03*
X0053500Y0048750D03*
X0087450Y0010000D02*
G75*
%LPD*%
D19*
X0087450Y0010000D02*
X0087450Y0139960D01*
X0157400Y0139960D01*
X0157400Y0010000D01*
X0087450Y0010000D01*
D22*
X0102990Y0058920D03*
X0102990Y0066080D03*
X0102990Y0073920D03*
X0102990Y0081080D03*
X0102990Y0088920D03*
X0102990Y0096080D03*
X0114410Y0092500D03*
X0121740Y0088920D03*
X0121740Y0096080D03*
X0121740Y0081080D03*
X0121740Y0073920D03*
X0121740Y0066080D03*
X0121740Y0058920D03*
X0114410Y0062500D03*
X0114410Y0077500D03*
X0133160Y0077500D03*
X0133160Y0062500D03*
X0133160Y0092500D03*
D20*
X0132200Y0107500D03*
X0132200Y0122500D03*
X0110200Y0122500D03*
X0110200Y0107500D03*
X0108950Y0048750D03*
X0108950Y0033750D03*
X0130950Y0033750D03*
X0130950Y0048750D03*
M02*
