G75*
%MOIN*%
%OFA0B0*%
%FSLAX24Y24*%
%IPPOS*%
%LPD*%
%AMOC8*
5,1,8,0,0,1.08239X$1,22.5*
%
%ADD10C,0.0000*%
%ADD11C,0.0080*%
%ADD12C,0.0060*%
%ADD13C,0.0059*%
%ADD14C,0.0050*%
D10*
X000125Y000125D02*
X000125Y013121D01*
X007120Y013121D01*
X007120Y000125D01*
X000125Y000125D01*
D11*
X001540Y001665D02*
X001540Y002085D01*
X001820Y002085D01*
X001680Y001875D02*
X001540Y001875D01*
X002000Y001875D02*
X002281Y001875D01*
X002281Y002085D02*
X002281Y001665D01*
X002461Y001665D02*
X002601Y001665D01*
X002531Y001665D02*
X002531Y002085D01*
X002461Y002085D02*
X002601Y002085D01*
X002769Y002250D02*
X003981Y002250D01*
X004375Y002762D02*
X004375Y003738D01*
X003981Y004250D02*
X002769Y004250D01*
X002375Y003750D02*
X002375Y002762D01*
X002000Y002085D02*
X002000Y001665D01*
X002875Y003250D02*
X002877Y003294D01*
X002883Y003338D01*
X002893Y003381D01*
X002906Y003423D01*
X002923Y003464D01*
X002944Y003503D01*
X002968Y003540D01*
X002995Y003575D01*
X003025Y003607D01*
X003058Y003637D01*
X003094Y003663D01*
X003131Y003687D01*
X003171Y003706D01*
X003212Y003723D01*
X003255Y003735D01*
X003298Y003744D01*
X003342Y003749D01*
X003386Y003750D01*
X003430Y003747D01*
X003474Y003740D01*
X003517Y003729D01*
X003559Y003715D01*
X003599Y003697D01*
X003638Y003675D01*
X003674Y003651D01*
X003708Y003623D01*
X003740Y003592D01*
X003769Y003558D01*
X003795Y003522D01*
X003817Y003484D01*
X003836Y003444D01*
X003851Y003402D01*
X003863Y003360D01*
X003871Y003316D01*
X003875Y003272D01*
X003875Y003228D01*
X003871Y003184D01*
X003863Y003140D01*
X003851Y003098D01*
X003836Y003056D01*
X003817Y003016D01*
X003795Y002978D01*
X003769Y002942D01*
X003740Y002908D01*
X003708Y002877D01*
X003674Y002849D01*
X003638Y002825D01*
X003599Y002803D01*
X003559Y002785D01*
X003517Y002771D01*
X003474Y002760D01*
X003430Y002753D01*
X003386Y002750D01*
X003342Y002751D01*
X003298Y002756D01*
X003255Y002765D01*
X003212Y002777D01*
X003171Y002794D01*
X003131Y002813D01*
X003094Y002837D01*
X003058Y002863D01*
X003025Y002893D01*
X002995Y002925D01*
X002968Y002960D01*
X002944Y002997D01*
X002923Y003036D01*
X002906Y003077D01*
X002893Y003119D01*
X002883Y003162D01*
X002877Y003206D01*
X002875Y003250D01*
X004000Y001375D02*
X004000Y001075D01*
X004090Y001075D01*
X004000Y001075D02*
X004000Y000875D01*
X004100Y000875D01*
X004000Y000875D02*
X004000Y000675D01*
X004100Y000675D01*
X004000Y000675D02*
X004000Y000375D01*
X004500Y000875D01*
X004000Y001375D01*
X004498Y000875D02*
X004500Y000915D01*
X004506Y000955D01*
X004516Y000995D01*
X004529Y001033D01*
X004547Y001069D01*
X004567Y001104D01*
X004592Y001136D01*
X004619Y001166D01*
X004649Y001193D01*
X004681Y001218D01*
X004716Y001238D01*
X004752Y001256D01*
X004790Y001269D01*
X004830Y001279D01*
X004870Y001285D01*
X004910Y001287D01*
X004950Y001285D01*
X004990Y001279D01*
X005030Y001269D01*
X005068Y001256D01*
X005104Y001238D01*
X005139Y001218D01*
X005171Y001193D01*
X005201Y001166D01*
X005228Y001136D01*
X005253Y001104D01*
X005273Y001069D01*
X005291Y001033D01*
X005304Y000995D01*
X005314Y000955D01*
X005320Y000915D01*
X005322Y000875D01*
X005320Y000835D01*
X005314Y000795D01*
X005304Y000755D01*
X005291Y000717D01*
X005273Y000681D01*
X005253Y000646D01*
X005228Y000614D01*
X005201Y000584D01*
X005171Y000557D01*
X005139Y000532D01*
X005104Y000512D01*
X005068Y000494D01*
X005030Y000481D01*
X004990Y000471D01*
X004950Y000465D01*
X004910Y000463D01*
X004870Y000465D01*
X004830Y000471D01*
X004790Y000481D01*
X004752Y000494D01*
X004716Y000512D01*
X004681Y000532D01*
X004649Y000557D01*
X004619Y000584D01*
X004592Y000614D01*
X004567Y000646D01*
X004547Y000681D01*
X004529Y000717D01*
X004516Y000755D01*
X004506Y000795D01*
X004500Y000835D01*
X004498Y000875D01*
X004986Y001015D02*
X004988Y001030D01*
X004993Y001045D01*
X005002Y001057D01*
X005014Y001068D01*
X005027Y001075D01*
X005042Y001079D01*
X005058Y001079D01*
X005073Y001075D01*
X005086Y001068D01*
X005098Y001057D01*
X005107Y001045D01*
X005112Y001030D01*
X005114Y001015D01*
X005112Y001000D01*
X005107Y000985D01*
X005098Y000973D01*
X005086Y000962D01*
X005073Y000955D01*
X005058Y000951D01*
X005042Y000951D01*
X005027Y000955D01*
X005014Y000962D01*
X005002Y000973D01*
X004993Y000985D01*
X004988Y001000D01*
X004986Y001015D01*
X004920Y000765D02*
X004929Y000739D01*
X004940Y000715D01*
X004954Y000693D01*
X004972Y000672D01*
X004991Y000654D01*
X005013Y000639D01*
X005037Y000626D01*
X005062Y000617D01*
X005088Y000611D01*
X005114Y000608D01*
X005141Y000609D01*
X005167Y000613D01*
X005193Y000620D01*
X005217Y000631D01*
X005240Y000645D01*
X004106Y009625D02*
X002894Y009625D01*
X002500Y010137D02*
X002500Y011113D01*
X002894Y011625D02*
X004106Y011625D01*
X004500Y011113D02*
X004500Y010125D01*
X003000Y010625D02*
X003002Y010669D01*
X003008Y010713D01*
X003018Y010756D01*
X003031Y010798D01*
X003048Y010839D01*
X003069Y010878D01*
X003093Y010915D01*
X003120Y010950D01*
X003150Y010982D01*
X003183Y011012D01*
X003219Y011038D01*
X003256Y011062D01*
X003296Y011081D01*
X003337Y011098D01*
X003380Y011110D01*
X003423Y011119D01*
X003467Y011124D01*
X003511Y011125D01*
X003555Y011122D01*
X003599Y011115D01*
X003642Y011104D01*
X003684Y011090D01*
X003724Y011072D01*
X003763Y011050D01*
X003799Y011026D01*
X003833Y010998D01*
X003865Y010967D01*
X003894Y010933D01*
X003920Y010897D01*
X003942Y010859D01*
X003961Y010819D01*
X003976Y010777D01*
X003988Y010735D01*
X003996Y010691D01*
X004000Y010647D01*
X004000Y010603D01*
X003996Y010559D01*
X003988Y010515D01*
X003976Y010473D01*
X003961Y010431D01*
X003942Y010391D01*
X003920Y010353D01*
X003894Y010317D01*
X003865Y010283D01*
X003833Y010252D01*
X003799Y010224D01*
X003763Y010200D01*
X003724Y010178D01*
X003684Y010160D01*
X003642Y010146D01*
X003599Y010135D01*
X003555Y010128D01*
X003511Y010125D01*
X003467Y010126D01*
X003423Y010131D01*
X003380Y010140D01*
X003337Y010152D01*
X003296Y010169D01*
X003256Y010188D01*
X003219Y010212D01*
X003183Y010238D01*
X003150Y010268D01*
X003120Y010300D01*
X003093Y010335D01*
X003069Y010372D01*
X003048Y010411D01*
X003031Y010452D01*
X003018Y010494D01*
X003008Y010537D01*
X003002Y010581D01*
X003000Y010625D01*
D12*
X002320Y010564D02*
X002320Y010450D01*
X002263Y010393D01*
X002150Y010450D02*
X002150Y010564D01*
X002207Y010620D01*
X002263Y010620D01*
X002320Y010564D01*
X002150Y010450D02*
X002093Y010393D01*
X002036Y010393D01*
X001980Y010450D01*
X001980Y010564D01*
X002036Y010620D01*
X002093Y010762D02*
X001980Y010875D01*
X002320Y010875D01*
X002320Y010762D02*
X002320Y010989D01*
X002566Y011780D02*
X002566Y012120D01*
X002793Y012120D01*
X002934Y012120D02*
X002991Y012120D01*
X002991Y011780D01*
X002934Y011780D02*
X003048Y011780D01*
X003180Y011837D02*
X003236Y011780D01*
X003406Y011780D01*
X003406Y011950D01*
X003350Y012007D01*
X003236Y012007D01*
X003236Y011893D02*
X003406Y011893D01*
X003548Y011950D02*
X003605Y011893D01*
X003718Y011893D01*
X003775Y011837D01*
X003718Y011780D01*
X003548Y011780D01*
X003548Y011950D02*
X003605Y012007D01*
X003775Y012007D01*
X003916Y011950D02*
X003973Y012007D01*
X004086Y012007D01*
X004143Y011950D01*
X004143Y011780D01*
X004285Y011837D02*
X004285Y011950D01*
X004341Y012007D01*
X004455Y012007D01*
X004511Y011950D01*
X004511Y011893D01*
X004285Y011893D01*
X004285Y011837D02*
X004341Y011780D01*
X004455Y011780D01*
X004653Y011780D02*
X004653Y012007D01*
X004766Y012007D02*
X004653Y011893D01*
X004766Y012007D02*
X004823Y012007D01*
X005030Y012007D02*
X005143Y011780D01*
X005257Y012007D01*
X005398Y012007D02*
X005512Y012120D01*
X005512Y011780D01*
X005625Y011780D02*
X005398Y011780D01*
X005767Y011780D02*
X005823Y011780D01*
X005823Y011837D01*
X005767Y011837D01*
X005767Y011780D01*
X005951Y011837D02*
X006008Y011780D01*
X006121Y011780D01*
X006178Y011837D01*
X006178Y012064D01*
X005951Y011837D01*
X005951Y012064D01*
X006008Y012120D01*
X006121Y012120D01*
X006178Y012064D01*
X005151Y009351D02*
X005094Y009351D01*
X005037Y009294D01*
X005037Y009124D01*
X005151Y009124D01*
X005208Y009181D01*
X005208Y009294D01*
X005151Y009351D01*
X004924Y009238D02*
X005037Y009124D01*
X005037Y008983D02*
X005094Y008926D01*
X005094Y008756D01*
X005094Y008869D02*
X005208Y008983D01*
X005208Y008756D02*
X004867Y008756D01*
X004867Y008926D01*
X004924Y008983D01*
X005037Y008983D01*
X004924Y009238D02*
X004867Y009351D01*
X003916Y011780D02*
X003916Y012120D01*
X003236Y011893D02*
X003180Y011837D01*
X002679Y011950D02*
X002566Y011950D01*
X002056Y011837D02*
X002056Y012064D01*
X001999Y012120D01*
X001829Y012120D01*
X001829Y011780D01*
X001999Y011780D01*
X002056Y011837D01*
X001688Y011780D02*
X001461Y011780D01*
X001461Y012120D01*
X001688Y012120D01*
X001574Y011950D02*
X001461Y011950D01*
X001319Y011780D02*
X001093Y011780D01*
X001093Y012120D01*
X001055Y008726D02*
X001055Y008499D01*
X001225Y008499D01*
X001168Y008613D01*
X001168Y008669D01*
X001225Y008726D01*
X001338Y008726D01*
X001395Y008669D01*
X001395Y008556D01*
X001338Y008499D01*
X001395Y008358D02*
X001282Y008244D01*
X001282Y008301D02*
X001282Y008131D01*
X001282Y008301D02*
X001225Y008358D01*
X001112Y008358D01*
X001055Y008301D01*
X001055Y008131D01*
X001395Y008131D01*
X001338Y007226D02*
X001282Y007226D01*
X001225Y007169D01*
X001225Y007113D01*
X001225Y007169D02*
X001168Y007226D01*
X001112Y007226D01*
X001055Y007169D01*
X001055Y007056D01*
X001112Y006999D01*
X001112Y006858D02*
X001225Y006858D01*
X001282Y006801D01*
X001282Y006631D01*
X001282Y006744D02*
X001395Y006858D01*
X001338Y006999D02*
X001395Y007056D01*
X001395Y007169D01*
X001338Y007226D01*
X001112Y006858D02*
X001055Y006801D01*
X001055Y006631D01*
X001395Y006631D01*
X001395Y005726D02*
X001395Y005499D01*
X001395Y005613D02*
X001055Y005613D01*
X001168Y005499D01*
X001112Y005358D02*
X001225Y005358D01*
X001282Y005301D01*
X001282Y005131D01*
X001282Y005244D02*
X001395Y005358D01*
X001395Y005131D02*
X001055Y005131D01*
X001055Y005301D01*
X001112Y005358D01*
X001861Y003650D02*
X001805Y003593D01*
X001805Y003480D01*
X001861Y003423D01*
X001861Y003282D02*
X001805Y003225D01*
X001805Y003112D01*
X001861Y003055D01*
X001918Y003055D01*
X001975Y003112D01*
X001975Y003225D01*
X002032Y003282D01*
X002088Y003282D01*
X002145Y003225D01*
X002145Y003112D01*
X002088Y003055D01*
X002145Y003423D02*
X001918Y003650D01*
X001861Y003650D01*
X002145Y003650D02*
X002145Y003423D01*
X003143Y001995D02*
X003030Y001882D01*
X003030Y001768D01*
X003143Y001655D01*
X003276Y001712D02*
X003332Y001655D01*
X003502Y001655D01*
X003644Y001655D02*
X003757Y001768D01*
X003757Y001882D01*
X003644Y001995D01*
X003502Y001882D02*
X003332Y001882D01*
X003276Y001825D01*
X003276Y001712D01*
X004155Y001655D02*
X004382Y001882D01*
X004382Y001939D01*
X004325Y001995D01*
X004212Y001995D01*
X004155Y001939D01*
X004155Y001655D02*
X004382Y001655D01*
X004523Y001712D02*
X004750Y001939D01*
X004750Y001712D01*
X004693Y001655D01*
X004580Y001655D01*
X004523Y001712D01*
X004523Y001939D01*
X004580Y001995D01*
X004693Y001995D01*
X004750Y001939D01*
X004892Y001882D02*
X005005Y001995D01*
X005005Y001655D01*
X004892Y001655D02*
X005118Y001655D01*
X005260Y001825D02*
X005487Y001825D01*
X005430Y001655D02*
X005430Y001995D01*
X005260Y001825D01*
X005208Y004381D02*
X004867Y004381D01*
X004867Y004551D01*
X004924Y004608D01*
X005037Y004608D01*
X005094Y004551D01*
X005094Y004381D01*
X005094Y004494D02*
X005208Y004608D01*
X005208Y004749D02*
X004981Y004976D01*
X004924Y004976D01*
X004867Y004919D01*
X004867Y004806D01*
X004924Y004749D01*
X005208Y004749D02*
X005208Y004976D01*
X005208Y005756D02*
X004867Y005756D01*
X004867Y005926D01*
X004924Y005983D01*
X005037Y005983D01*
X005094Y005926D01*
X005094Y005756D01*
X005094Y005869D02*
X005208Y005983D01*
X005037Y006124D02*
X005037Y006351D01*
X004867Y006294D02*
X005037Y006124D01*
X004867Y006294D02*
X005208Y006294D01*
D13*
X002572Y001461D02*
X002428Y001461D01*
X002409Y001271D01*
X002345Y001250D01*
X002285Y001219D01*
X002136Y001340D01*
X002035Y001239D01*
X002156Y001090D01*
X002125Y001030D01*
X002104Y000966D01*
X001914Y000947D01*
X001914Y000803D01*
X002104Y000784D01*
X002125Y000720D01*
X002156Y000660D01*
X002035Y000511D01*
X002136Y000410D01*
X002285Y000531D01*
X002345Y000500D01*
X002429Y000704D01*
X002392Y000726D01*
X002360Y000755D01*
X002336Y000791D01*
X002321Y000832D01*
X002315Y000875D01*
X002321Y000919D01*
X002336Y000960D01*
X002361Y000997D01*
X002394Y001026D01*
X002433Y001047D01*
X002476Y001058D01*
X002520Y001058D01*
X002563Y001048D01*
X002602Y001028D01*
X002636Y001000D01*
X002662Y000964D01*
X002678Y000923D01*
X002684Y000879D01*
X002680Y000835D01*
X002665Y000793D01*
X002641Y000756D01*
X002609Y000726D01*
X002571Y000704D01*
X002655Y000500D01*
X002715Y000531D01*
X002864Y000410D01*
X002965Y000511D01*
X002844Y000660D01*
X002875Y000720D01*
X002896Y000784D01*
X003086Y000803D01*
X003086Y000947D01*
X002896Y000966D01*
X002875Y001030D01*
X002844Y001090D01*
X002965Y001239D01*
X002864Y001340D01*
X002715Y001219D01*
X002655Y001250D01*
X002591Y001271D01*
X002572Y001461D01*
X002573Y001449D02*
X002427Y001449D01*
X002421Y001391D02*
X002579Y001391D01*
X002585Y001334D02*
X002415Y001334D01*
X002409Y001276D02*
X002591Y001276D01*
X002785Y001276D02*
X002928Y001276D01*
X002949Y001219D02*
X002051Y001219D01*
X002072Y001276D02*
X002215Y001276D01*
X002145Y001334D02*
X002130Y001334D01*
X002098Y001161D02*
X002902Y001161D01*
X002855Y001103D02*
X002145Y001103D01*
X002133Y001046D02*
X002431Y001046D01*
X002356Y000988D02*
X002111Y000988D01*
X001914Y000931D02*
X002325Y000931D01*
X002316Y000873D02*
X001914Y000873D01*
X001914Y000816D02*
X002327Y000816D01*
X002358Y000758D02*
X002113Y000758D01*
X002135Y000701D02*
X002428Y000701D01*
X002404Y000643D02*
X002142Y000643D01*
X002095Y000585D02*
X002380Y000585D01*
X002356Y000528D02*
X002290Y000528D01*
X002281Y000528D02*
X002048Y000528D01*
X002076Y000470D02*
X002211Y000470D01*
X002140Y000413D02*
X002133Y000413D01*
X002596Y000643D02*
X002858Y000643D01*
X002865Y000701D02*
X002572Y000701D01*
X002642Y000758D02*
X002887Y000758D01*
X002905Y000585D02*
X002620Y000585D01*
X002644Y000528D02*
X002710Y000528D01*
X002719Y000528D02*
X002952Y000528D01*
X002924Y000470D02*
X002789Y000470D01*
X002860Y000413D02*
X002867Y000413D01*
X002673Y000816D02*
X003086Y000816D01*
X003086Y000873D02*
X002684Y000873D01*
X002675Y000931D02*
X003086Y000931D01*
X002889Y000988D02*
X002644Y000988D01*
X002568Y001046D02*
X002867Y001046D01*
X002855Y001334D02*
X002870Y001334D01*
D14*
X002821Y004765D02*
X001600Y004765D01*
X001600Y004784D01*
X001600Y005257D02*
X001600Y005493D01*
X001600Y005966D02*
X001600Y005985D01*
X002821Y005985D01*
X002821Y005670D01*
X002821Y005080D02*
X002821Y004765D01*
X003475Y004765D02*
X004696Y004765D01*
X004696Y005080D01*
X004696Y005670D02*
X004696Y005985D01*
X003475Y005985D01*
X003475Y005966D01*
X003475Y006265D02*
X004696Y006265D01*
X004696Y006580D01*
X004696Y007170D02*
X004696Y007485D01*
X003475Y007485D01*
X003475Y007466D01*
X003475Y007765D02*
X004696Y007765D01*
X004696Y008080D01*
X004696Y008670D02*
X004696Y008985D01*
X003475Y008985D01*
X003475Y008966D01*
X003475Y008493D02*
X003475Y008257D01*
X003475Y007784D02*
X003475Y007765D01*
X003475Y006993D02*
X003475Y006757D01*
X003475Y006284D02*
X003475Y006265D01*
X003475Y005493D02*
X003475Y005257D01*
X003475Y004784D02*
X003475Y004765D01*
X002821Y006265D02*
X002821Y006580D01*
X002821Y006265D02*
X001600Y006265D01*
X001600Y006284D01*
X001600Y006757D02*
X001600Y006993D01*
X001600Y007466D02*
X001600Y007485D01*
X002821Y007485D01*
X002821Y007170D01*
X002821Y007765D02*
X002821Y008080D01*
X002821Y007765D02*
X001600Y007765D01*
X001600Y007784D01*
X001600Y008257D02*
X001600Y008493D01*
X001600Y008966D02*
X001600Y008985D01*
X002821Y008985D01*
X002821Y008670D01*
M02*
