G75*
G70*
%OFA0B0*%
%FSLAX25Y25*%
%IPPOS*%
%LPD*%
%AMOC8*
5,1,8,0,0,1.08239X$1,22.5*
%
%ADD12C,0.01600*%
%ADD14C,0.07400*%
%ADD15C,0.00800*%
%ADD19C,0.00000*%
%ADD20R,0.06000X0.03000*%
%ADD21OC8,0.03170*%
%ADD22R,0.03540X0.04330*%
X0010000Y0010000D02*
G75*
%LPD*%
D19*
X0010000Y0010000D02*
X0010000Y0139960D01*
X0079950Y0139960D01*
X0079950Y0010000D01*
X0010000Y0010000D01*
D14*
X0015000Y0015000D03*
X0015000Y0025000D03*
X0015000Y0035000D03*
X0015000Y0045000D03*
X0015000Y0055000D03*
X0015000Y0065000D03*
X0015000Y0075000D03*
X0015000Y0085000D03*
X0015000Y0095000D03*
X0015000Y0105000D03*
X0015000Y0115000D03*
X0015000Y0125000D03*
X0020000Y0135000D03*
X0030000Y0135000D03*
X0040000Y0135000D03*
X0050000Y0135000D03*
X0060000Y0135000D03*
X0070000Y0135000D03*
X0075000Y0125000D03*
X0075000Y0115000D03*
X0075000Y0105000D03*
X0075000Y0095000D03*
X0075000Y0085000D03*
X0075000Y0075000D03*
X0075000Y0065000D03*
X0075000Y0055000D03*
X0075000Y0045000D03*
X0075000Y0035000D03*
X0075000Y0025000D03*
X0075000Y0015000D03*
X0063750Y0039380D03*
X0063750Y0049380D03*
X0063750Y0080630D03*
X0063750Y0090630D03*
D22*
X0055710Y0092500D03*
X0044290Y0088920D03*
X0044290Y0096080D03*
X0036960Y0092500D03*
X0044290Y0081080D03*
X0044290Y0073920D03*
X0044290Y0066080D03*
X0044290Y0058920D03*
X0036960Y0062500D03*
X0036960Y0077500D03*
X0025540Y0073920D03*
X0025540Y0081080D03*
X0025540Y0088920D03*
X0025540Y0096080D03*
X0025540Y0066080D03*
X0025540Y0058920D03*
X0055710Y0062500D03*
X0055710Y0077500D03*
D20*
X0053500Y0048750D03*
X0053500Y0033750D03*
X0031500Y0033750D03*
X0031500Y0048750D03*
X0032750Y0107500D03*
X0032750Y0122500D03*
X0054750Y0122500D03*
X0054750Y0107500D03*
D12*
X0032750Y0107500D01*
X0026250Y0107500D01*
X0020000Y0101250D01*
X0024830Y0096080D02*
X0022500Y0093750D01*
X0020000Y0090000D02*
X0015000Y0085000D01*
X0021250Y0077500D02*
X0021250Y0070370D01*
X0025540Y0066080D01*
X0025710Y0066250D02*
X0043750Y0066250D01*
X0041250Y0070000D02*
X0070000Y0070000D01*
X0075000Y0075000D01*
X0073750Y0082500D02*
X0073750Y0083750D01*
X0075000Y0085000D01*
X0073750Y0082500D02*
X0065000Y0073750D01*
X0058750Y0073750D01*
X0055710Y0076790D01*
X0055710Y0077500D01*
X0059380Y0085000D02*
X0063750Y0080630D01*
X0059380Y0085000D02*
X0041250Y0085000D01*
X0036960Y0089290D01*
X0036960Y0092500D01*
X0030710Y0101250D02*
X0025540Y0096080D01*
X0025540Y0088920D02*
X0029830Y0088920D01*
X0030000Y0088750D01*
X0022500Y0084120D02*
X0025540Y0081080D01*
X0044290Y0081080D01*
X0044290Y0073920D02*
X0048580Y0073920D01*
X0048750Y0073750D01*
X0041250Y0070000D02*
X0036960Y0074290D01*
X0036960Y0077500D01*
X0030000Y0073750D02*
X0029830Y0073920D01*
X0025540Y0073920D01*
X0021250Y0077500D02*
X0024830Y0081080D01*
X0015000Y0065000D02*
X0021250Y0058750D01*
X0021250Y0053750D01*
X0026250Y0048750D01*
X0031500Y0048750D01*
X0053500Y0048750D01*
X0058750Y0053750D02*
X0060000Y0055000D01*
X0075000Y0055000D01*
X0072500Y0062500D02*
X0075000Y0065000D01*
X0072500Y0062500D02*
X0055710Y0062500D01*
X0048750Y0058750D02*
X0048580Y0058920D01*
X0044290Y0058920D01*
X0040000Y0053750D02*
X0058750Y0053750D01*
X0053500Y0033750D02*
X0031500Y0033750D01*
X0024380Y0033750D01*
X0040000Y0053750D02*
X0036960Y0056790D01*
X0036960Y0062500D01*
X0030000Y0058750D02*
X0029830Y0058920D01*
X0025540Y0058920D01*
X0044290Y0088920D02*
X0048580Y0088920D01*
X0048750Y0088750D01*
X0044290Y0096080D02*
X0044290Y0100540D01*
X0045000Y0101250D01*
X0030710Y0101250D01*
X0045000Y0101250D02*
X0068750Y0101250D01*
X0075000Y0095000D01*
X0063750Y0090630D02*
X0061880Y0092500D01*
X0055710Y0092500D01*
X0054750Y0122500D02*
X0032750Y0122500D01*
X0026250Y0122500D01*
D21*
X0026250Y0122500D03*
X0030000Y0088750D03*
X0030000Y0073750D03*
X0030000Y0058750D03*
X0024380Y0033750D03*
X0048750Y0058750D03*
X0048750Y0073750D03*
X0048750Y0088750D03*
D15*
X0043750Y0066250D02*
X0043920Y0066080D01*
X0044290Y0066080D01*
X0025710Y0066250D02*
X0025540Y0066080D01*
X0025540Y0081080D02*
X0024830Y0081080D01*
X0022500Y0084120D02*
X0022500Y0093750D01*
X0024830Y0096080D02*
X0025540Y0096080D01*
X0020000Y0101250D02*
X0020000Y0090000D01*
X0087450Y0010000D02*
G75*
%LPD*%
D19*
X0087450Y0010000D02*
X0087450Y0139960D01*
X0157400Y0139960D01*
X0157400Y0010000D01*
X0087450Y0010000D01*
D14*
X0092450Y0015000D03*
X0092450Y0025000D03*
X0092450Y0035000D03*
X0092450Y0045000D03*
X0092450Y0055000D03*
X0092450Y0065000D03*
X0092450Y0075000D03*
X0092450Y0085000D03*
X0092450Y0095000D03*
X0092450Y0105000D03*
X0092450Y0115000D03*
X0092450Y0125000D03*
X0097450Y0135000D03*
X0107450Y0135000D03*
X0117450Y0135000D03*
X0127450Y0135000D03*
X0137450Y0135000D03*
X0147450Y0135000D03*
X0152450Y0125000D03*
X0152450Y0115000D03*
X0152450Y0105000D03*
X0152450Y0095000D03*
X0152450Y0085000D03*
X0152450Y0075000D03*
X0152450Y0065000D03*
X0152450Y0055000D03*
X0152450Y0045000D03*
X0152450Y0035000D03*
X0152450Y0025000D03*
X0152450Y0015000D03*
X0141200Y0039380D03*
X0141200Y0049380D03*
X0141200Y0080630D03*
X0141200Y0090630D03*
D22*
X0133160Y0092500D03*
X0121740Y0088920D03*
X0121740Y0096080D03*
X0114410Y0092500D03*
X0121740Y0081080D03*
X0121740Y0073920D03*
X0121740Y0066080D03*
X0121740Y0058920D03*
X0114410Y0062500D03*
X0114410Y0077500D03*
X0102990Y0073920D03*
X0102990Y0081080D03*
X0102990Y0088920D03*
X0102990Y0096080D03*
X0102990Y0066080D03*
X0102990Y0058920D03*
X0133160Y0062500D03*
X0133160Y0077500D03*
D20*
X0130950Y0048750D03*
X0130950Y0033750D03*
X0108950Y0033750D03*
X0108950Y0048750D03*
X0110200Y0107500D03*
X0110200Y0122500D03*
X0132200Y0122500D03*
X0132200Y0107500D03*
D12*
X0110200Y0107500D01*
X0103700Y0107500D01*
X0097450Y0101250D01*
X0102280Y0096080D02*
X0099950Y0093750D01*
X0097450Y0090000D02*
X0092450Y0085000D01*
X0098700Y0077500D02*
X0098700Y0070370D01*
X0102990Y0066080D01*
X0103160Y0066250D02*
X0121200Y0066250D01*
X0118700Y0070000D02*
X0147450Y0070000D01*
X0152450Y0075000D01*
X0151200Y0082500D02*
X0151200Y0083750D01*
X0152450Y0085000D01*
X0151200Y0082500D02*
X0142450Y0073750D01*
X0136200Y0073750D01*
X0133160Y0076790D01*
X0133160Y0077500D01*
X0136830Y0085000D02*
X0141200Y0080630D01*
X0136830Y0085000D02*
X0118700Y0085000D01*
X0114410Y0089290D01*
X0114410Y0092500D01*
X0108160Y0101250D02*
X0102990Y0096080D01*
X0102990Y0088920D02*
X0107280Y0088920D01*
X0107450Y0088750D01*
X0099950Y0084120D02*
X0102990Y0081080D01*
X0121740Y0081080D01*
X0121740Y0073920D02*
X0126030Y0073920D01*
X0126200Y0073750D01*
X0118700Y0070000D02*
X0114410Y0074290D01*
X0114410Y0077500D01*
X0107450Y0073750D02*
X0107280Y0073920D01*
X0102990Y0073920D01*
X0098700Y0077500D02*
X0102280Y0081080D01*
X0092450Y0065000D02*
X0098700Y0058750D01*
X0098700Y0053750D01*
X0103700Y0048750D01*
X0108950Y0048750D01*
X0130950Y0048750D01*
X0136200Y0053750D02*
X0137450Y0055000D01*
X0152450Y0055000D01*
X0149950Y0062500D02*
X0152450Y0065000D01*
X0149950Y0062500D02*
X0133160Y0062500D01*
X0126200Y0058750D02*
X0126030Y0058920D01*
X0121740Y0058920D01*
X0117450Y0053750D02*
X0136200Y0053750D01*
X0130950Y0033750D02*
X0108950Y0033750D01*
X0101830Y0033750D01*
X0117450Y0053750D02*
X0114410Y0056790D01*
X0114410Y0062500D01*
X0107450Y0058750D02*
X0107280Y0058920D01*
X0102990Y0058920D01*
X0121740Y0088920D02*
X0126030Y0088920D01*
X0126200Y0088750D01*
X0121740Y0096080D02*
X0121740Y0100540D01*
X0122450Y0101250D01*
X0108160Y0101250D01*
X0122450Y0101250D02*
X0146200Y0101250D01*
X0152450Y0095000D01*
X0141200Y0090630D02*
X0139330Y0092500D01*
X0133160Y0092500D01*
X0132200Y0122500D02*
X0110200Y0122500D01*
X0103700Y0122500D01*
D21*
X0103700Y0122500D03*
X0107450Y0088750D03*
X0107450Y0073750D03*
X0107450Y0058750D03*
X0101830Y0033750D03*
X0126200Y0058750D03*
X0126200Y0073750D03*
X0126200Y0088750D03*
D15*
X0121200Y0066250D02*
X0121370Y0066080D01*
X0121740Y0066080D01*
X0103160Y0066250D02*
X0102990Y0066080D01*
X0102990Y0081080D02*
X0102280Y0081080D01*
X0099950Y0084120D02*
X0099950Y0093750D01*
X0102280Y0096080D02*
X0102990Y0096080D01*
X0097450Y0101250D02*
X0097450Y0090000D01*
M02*
