G75*
%MOIN*%
%OFA0B0*%
%FSLAX24Y24*%
%IPPOS*%
%LPD*%
%AMOC8*
5,1,8,0,0,1.08239X$1,22.5*
%
%ADD10C,0.0000*%
%ADD11C,0.0780*%
%ADD12R,0.0394X0.0473*%
%ADD13R,0.0640X0.0340*%
D10*
X000125Y000125D02*
X000125Y013121D01*
X007120Y013121D01*
X007120Y000125D01*
X000125Y000125D01*
D11*
X000625Y000625D03*
X000625Y001625D03*
X000625Y002625D03*
X000625Y003625D03*
X000625Y004625D03*
X000625Y005625D03*
X000625Y006625D03*
X000625Y007625D03*
X000625Y008625D03*
X000625Y009625D03*
X000625Y010625D03*
X000625Y011625D03*
X001125Y012625D03*
X002125Y012625D03*
X003125Y012625D03*
X004125Y012625D03*
X005125Y012625D03*
X006125Y012625D03*
X006625Y011625D03*
X006625Y010625D03*
X006625Y009625D03*
X006625Y008625D03*
X006625Y007625D03*
X006625Y006625D03*
X006625Y005625D03*
X006625Y004625D03*
X006625Y003625D03*
X006625Y002625D03*
X006625Y001625D03*
X006625Y000625D03*
X005500Y003063D03*
X005500Y004063D03*
X005500Y007188D03*
X005500Y008188D03*
D12*
X004696Y008375D03*
X003554Y008017D03*
X003554Y008733D03*
X002821Y008375D03*
X003554Y007233D03*
X003554Y006517D03*
X003554Y005733D03*
X003554Y005017D03*
X002821Y005375D03*
X002821Y006875D03*
X001679Y006517D03*
X001679Y007233D03*
X001679Y008017D03*
X001679Y008733D03*
X001679Y005733D03*
X001679Y005017D03*
X004696Y005375D03*
X004696Y006875D03*
D13*
X004475Y004000D03*
X004475Y002500D03*
X002275Y002500D03*
X002275Y004000D03*
X002400Y009875D03*
X002400Y011375D03*
X004600Y011375D03*
X004600Y009875D03*
M02*
