G75*
%MOIN*%
%OFA0B0*%
%FSLAX24Y24*%
%IPPOS*%
%LPD*%
%AMOC8*
5,1,8,0,0,1.08239X$1,22.5*
%
%ADD10C,0.0000*%
%ADD11C,0.0740*%
%ADD12C,0.0080*%
%ADD13OC8,0.0317*%
D10*
X000125Y000125D02*
X000125Y013121D01*
X007120Y013121D01*
X007120Y000125D01*
X000125Y000125D01*
D11*
X000625Y000625D03*
X000625Y001625D03*
X000625Y002625D03*
X000625Y003625D03*
X000625Y004625D03*
X000625Y005625D03*
X000625Y006625D03*
X000625Y007625D03*
X000625Y008625D03*
X000625Y009625D03*
X000625Y010625D03*
X000625Y011625D03*
X001125Y012625D03*
X002125Y012625D03*
X003125Y012625D03*
X004125Y012625D03*
X005125Y012625D03*
X006125Y012625D03*
X006625Y011625D03*
X006625Y010625D03*
X006625Y009625D03*
X006625Y008625D03*
X006625Y007625D03*
X006625Y006625D03*
X006625Y005625D03*
X006625Y004625D03*
X006625Y003625D03*
X006625Y002625D03*
X006625Y001625D03*
X006625Y000625D03*
X005500Y003063D03*
X005500Y004063D03*
X005500Y007188D03*
X005500Y008188D03*
D12*
X005244Y007688D02*
X005183Y007662D01*
X005025Y007505D01*
X004940Y007299D01*
X004940Y007076D01*
X005025Y006870D01*
X005183Y006713D01*
X005389Y006628D01*
X005611Y006628D01*
X005817Y006713D01*
X005975Y006870D01*
X006060Y007076D01*
X006060Y007299D01*
X005975Y007505D01*
X005817Y007662D01*
X005756Y007688D01*
X005817Y007713D01*
X005975Y007870D01*
X006060Y008076D01*
X006060Y008299D01*
X005975Y008505D01*
X005817Y008662D01*
X005611Y008747D01*
X005389Y008747D01*
X005183Y008662D01*
X005025Y008505D01*
X004940Y008299D01*
X004940Y008076D01*
X005025Y007870D01*
X005183Y007713D01*
X005244Y007688D01*
X005182Y007661D02*
X001185Y007661D01*
X001185Y007736D02*
X001185Y007514D01*
X001100Y007308D01*
X000942Y007150D01*
X000881Y007125D01*
X000942Y007100D01*
X001100Y006942D01*
X001185Y006736D01*
X001185Y006514D01*
X001100Y006308D01*
X000942Y006150D01*
X000881Y006125D01*
X000942Y006100D01*
X001100Y005942D01*
X001185Y005736D01*
X001185Y005514D01*
X001100Y005308D01*
X000942Y005150D01*
X000881Y005125D01*
X000942Y005100D01*
X001100Y004942D01*
X001185Y004736D01*
X001185Y004514D01*
X001100Y004308D01*
X000942Y004150D01*
X000881Y004125D01*
X000942Y004100D01*
X001100Y003942D01*
X001185Y003736D01*
X005035Y003736D01*
X005025Y003745D02*
X005183Y003588D01*
X005244Y003562D01*
X005183Y003537D01*
X005025Y003380D01*
X004940Y003174D01*
X004940Y002951D01*
X001091Y002951D01*
X001100Y002942D02*
X000942Y003100D01*
X000881Y003125D01*
X000942Y003150D01*
X001100Y003308D01*
X001185Y003514D01*
X001185Y003736D01*
X001185Y003658D02*
X005113Y003658D01*
X005204Y003579D02*
X001185Y003579D01*
X001180Y003501D02*
X005146Y003501D01*
X005068Y003422D02*
X001147Y003422D01*
X001115Y003344D02*
X005010Y003344D01*
X004978Y003265D02*
X001057Y003265D01*
X000978Y003187D02*
X004945Y003187D01*
X004940Y003108D02*
X000922Y003108D01*
X001012Y003030D02*
X004940Y003030D01*
X004940Y002951D02*
X005025Y002745D01*
X005183Y002588D01*
X005389Y002503D01*
X005611Y002503D01*
X005817Y002588D01*
X005975Y002745D01*
X006060Y002951D01*
X006159Y002951D01*
X006150Y002942D02*
X006065Y002736D01*
X006065Y002514D01*
X006150Y002308D01*
X006308Y002150D01*
X006369Y002125D01*
X006308Y002100D01*
X006150Y001942D01*
X006065Y001736D01*
X006065Y001514D01*
X006150Y001308D01*
X006308Y001150D01*
X006369Y001125D01*
X006308Y001100D01*
X006150Y000942D01*
X006065Y000736D01*
X006065Y000514D01*
X006071Y000500D01*
X001179Y000500D01*
X001185Y000514D01*
X001185Y000736D01*
X001100Y000942D01*
X000942Y001100D01*
X000881Y001125D01*
X000942Y001150D01*
X001100Y001308D01*
X001185Y001514D01*
X001185Y001736D01*
X001100Y001942D01*
X000942Y002100D01*
X000881Y002125D01*
X000942Y002150D01*
X001100Y002308D01*
X001185Y002514D01*
X001185Y002736D01*
X001100Y002942D01*
X001129Y002873D02*
X004973Y002873D01*
X005005Y002794D02*
X001691Y002794D01*
X001686Y002798D02*
X001572Y002798D01*
X001572Y002509D01*
X001861Y002509D01*
X001861Y002624D01*
X001686Y002798D01*
X001769Y002716D02*
X005055Y002716D01*
X005134Y002637D02*
X001848Y002637D01*
X001861Y002559D02*
X005253Y002559D01*
X005747Y002559D02*
X006065Y002559D01*
X006065Y002637D02*
X005866Y002637D01*
X005945Y002716D02*
X006065Y002716D01*
X006089Y002794D02*
X005995Y002794D01*
X006027Y002873D02*
X006121Y002873D01*
X006150Y002942D02*
X006308Y003100D01*
X006369Y003125D01*
X006308Y003150D01*
X006150Y003308D01*
X006065Y003514D01*
X006065Y003736D01*
X005965Y003736D01*
X005975Y003745D02*
X006060Y003951D01*
X006060Y004174D01*
X005975Y004380D01*
X005817Y004537D01*
X005611Y004622D01*
X005389Y004622D01*
X005183Y004537D01*
X005025Y004380D01*
X004940Y004174D01*
X004940Y003951D01*
X005025Y003745D01*
X004997Y003815D02*
X001153Y003815D01*
X001120Y003893D02*
X004964Y003893D01*
X004940Y003972D02*
X001070Y003972D01*
X000992Y004050D02*
X004940Y004050D01*
X004940Y004129D02*
X000890Y004129D01*
X000999Y004207D02*
X004954Y004207D01*
X004986Y004286D02*
X001077Y004286D01*
X001123Y004364D02*
X005019Y004364D01*
X005088Y004443D02*
X001156Y004443D01*
X001185Y004521D02*
X005167Y004521D01*
X005333Y004600D02*
X001185Y004600D01*
X001185Y004678D02*
X006065Y004678D01*
X006065Y004736D02*
X006065Y004514D01*
X006150Y004308D01*
X006308Y004150D01*
X006369Y004125D01*
X006308Y004100D01*
X006150Y003942D01*
X006065Y003736D01*
X006065Y003658D02*
X005887Y003658D01*
X005817Y003588D02*
X005975Y003745D01*
X006003Y003815D02*
X006097Y003815D01*
X006130Y003893D02*
X006036Y003893D01*
X006060Y003972D02*
X006180Y003972D01*
X006258Y004050D02*
X006060Y004050D01*
X006060Y004129D02*
X006360Y004129D01*
X006251Y004207D02*
X006046Y004207D01*
X006014Y004286D02*
X006173Y004286D01*
X006127Y004364D02*
X005981Y004364D01*
X005912Y004443D02*
X006094Y004443D01*
X006065Y004521D02*
X005833Y004521D01*
X005667Y004600D02*
X006065Y004600D01*
X006065Y004736D02*
X006150Y004942D01*
X006308Y005100D01*
X006369Y005125D01*
X006308Y005150D01*
X006150Y005308D01*
X006065Y005514D01*
X006065Y005736D01*
X006150Y005942D01*
X006308Y006100D01*
X006369Y006125D01*
X006308Y006150D01*
X006150Y006308D01*
X006065Y006514D01*
X006065Y006736D01*
X006150Y006942D01*
X006308Y007100D01*
X006369Y007125D01*
X006308Y007150D01*
X006150Y007308D01*
X006065Y007514D01*
X006065Y007736D01*
X006150Y007942D01*
X006308Y008100D01*
X006369Y008125D01*
X006308Y008150D01*
X006150Y008308D01*
X006065Y008514D01*
X006065Y008736D01*
X006150Y008942D01*
X006308Y009100D01*
X006369Y009125D01*
X006308Y009150D01*
X006150Y009308D01*
X006065Y009514D01*
X006065Y009736D01*
X006150Y009942D01*
X006308Y010100D01*
X006369Y010125D01*
X006308Y010150D01*
X006150Y010308D01*
X006065Y010514D01*
X006065Y010736D01*
X006150Y010942D01*
X006308Y011100D01*
X006369Y011125D01*
X006308Y011150D01*
X006150Y011308D01*
X006065Y011514D01*
X006065Y011736D01*
X006150Y011942D01*
X006299Y012091D01*
X006236Y012065D01*
X006014Y012065D01*
X005808Y012150D01*
X005650Y012308D01*
X005625Y012369D01*
X005600Y012308D01*
X005442Y012150D01*
X005236Y012065D01*
X005014Y012065D01*
X004808Y012150D01*
X004650Y012308D01*
X004625Y012369D01*
X004600Y012308D01*
X004442Y012150D01*
X004236Y012065D01*
X004014Y012065D01*
X003808Y012150D01*
X003650Y012308D01*
X003625Y012369D01*
X003600Y012308D01*
X003442Y012150D01*
X003236Y012065D01*
X003014Y012065D01*
X002808Y012150D01*
X002650Y012308D01*
X002625Y012369D01*
X002600Y012308D01*
X002442Y012150D01*
X002236Y012065D01*
X002014Y012065D01*
X001808Y012150D01*
X001650Y012308D01*
X001625Y012369D01*
X001600Y012308D01*
X001442Y012150D01*
X001236Y012065D01*
X001014Y012065D01*
X000951Y012091D01*
X001100Y011942D01*
X001185Y011736D01*
X001185Y011514D01*
X001100Y011308D01*
X000942Y011150D01*
X000881Y011125D01*
X000942Y011100D01*
X001100Y010942D01*
X001185Y010736D01*
X001185Y010514D01*
X001100Y010308D01*
X000942Y010150D01*
X000881Y010125D01*
X000942Y010100D01*
X001100Y009942D01*
X001185Y009736D01*
X001185Y009514D01*
X001100Y009308D01*
X000942Y009150D01*
X000818Y009099D01*
X000821Y009098D01*
X000892Y009061D01*
X000957Y009014D01*
X001014Y008957D01*
X001061Y008892D01*
X001098Y008821D01*
X001122Y008744D01*
X001135Y008665D01*
X001135Y008665D01*
X000665Y008665D01*
X000665Y008585D01*
X001135Y008585D01*
X001135Y008585D01*
X001122Y008506D01*
X001098Y008429D01*
X001061Y008358D01*
X001014Y008293D01*
X000957Y008236D01*
X000892Y008189D01*
X000821Y008152D01*
X000818Y008151D01*
X000942Y008100D01*
X001100Y007942D01*
X001185Y007736D01*
X001184Y007740D02*
X001963Y007740D01*
X002001Y007702D02*
X002116Y007702D01*
X002116Y007991D01*
X002134Y007991D01*
X002134Y007702D01*
X002249Y007702D01*
X002423Y007876D01*
X002423Y007991D01*
X002134Y007991D01*
X002134Y008009D01*
X002423Y008009D01*
X002423Y008124D01*
X002249Y008298D01*
X002134Y008298D01*
X002134Y008009D01*
X002116Y008009D01*
X002116Y007991D01*
X001827Y007991D01*
X001827Y007876D01*
X002001Y007702D01*
X002116Y007740D02*
X002134Y007740D01*
X002134Y007818D02*
X002116Y007818D01*
X002116Y007897D02*
X002134Y007897D01*
X002134Y007975D02*
X002116Y007975D01*
X002116Y008009D02*
X001827Y008009D01*
X001827Y008124D01*
X002001Y008298D01*
X002116Y008298D01*
X002116Y008009D01*
X002116Y008054D02*
X002134Y008054D01*
X002134Y008132D02*
X002116Y008132D01*
X002116Y008211D02*
X002134Y008211D01*
X002134Y008289D02*
X002116Y008289D01*
X001992Y008289D02*
X001010Y008289D01*
X001066Y008368D02*
X004968Y008368D01*
X004940Y008289D02*
X004133Y008289D01*
X004124Y008298D02*
X004009Y008298D01*
X004009Y008009D01*
X004298Y008009D01*
X004298Y008124D01*
X004124Y008298D01*
X004009Y008289D02*
X003991Y008289D01*
X003991Y008298D02*
X003876Y008298D01*
X003702Y008124D01*
X003702Y008009D01*
X003991Y008009D01*
X003991Y007991D01*
X004009Y007991D01*
X004009Y007702D01*
X004124Y007702D01*
X004298Y007876D01*
X004298Y007991D01*
X004009Y007991D01*
X004009Y008009D01*
X003991Y008009D01*
X003991Y008298D01*
X003991Y008211D02*
X004009Y008211D01*
X004009Y008132D02*
X003991Y008132D01*
X003991Y008054D02*
X004009Y008054D01*
X003991Y007991D02*
X003702Y007991D01*
X003702Y007876D01*
X003876Y007702D01*
X003991Y007702D01*
X003991Y007991D01*
X003991Y007975D02*
X004009Y007975D01*
X004009Y007897D02*
X003991Y007897D01*
X003991Y007818D02*
X004009Y007818D01*
X004009Y007740D02*
X003991Y007740D01*
X003838Y007740D02*
X002287Y007740D01*
X002365Y007818D02*
X003760Y007818D01*
X003702Y007897D02*
X002423Y007897D01*
X002423Y007975D02*
X003702Y007975D01*
X003702Y008054D02*
X002423Y008054D01*
X002415Y008132D02*
X003710Y008132D01*
X003788Y008211D02*
X002337Y008211D01*
X002258Y008289D02*
X003867Y008289D01*
X004212Y008211D02*
X004940Y008211D01*
X004940Y008132D02*
X004290Y008132D01*
X004298Y008054D02*
X004949Y008054D01*
X004982Y007975D02*
X004298Y007975D01*
X004298Y007897D02*
X005014Y007897D01*
X005078Y007818D02*
X004240Y007818D01*
X004162Y007740D02*
X005156Y007740D01*
X005103Y007583D02*
X001185Y007583D01*
X001181Y007504D02*
X005025Y007504D01*
X004992Y007426D02*
X001149Y007426D01*
X001116Y007347D02*
X004960Y007347D01*
X004940Y007269D02*
X001060Y007269D01*
X000982Y007190D02*
X004940Y007190D01*
X004940Y007112D02*
X000914Y007112D01*
X001009Y007033D02*
X004958Y007033D01*
X004990Y006955D02*
X001087Y006955D01*
X001127Y006876D02*
X005023Y006876D01*
X005098Y006798D02*
X004125Y006798D01*
X004124Y006798D02*
X004009Y006798D01*
X004009Y006509D01*
X004298Y006509D01*
X004298Y006624D01*
X004124Y006798D01*
X004203Y006719D02*
X005177Y006719D01*
X005357Y006641D02*
X004282Y006641D01*
X004298Y006562D02*
X006065Y006562D01*
X006065Y006641D02*
X005643Y006641D01*
X005823Y006719D02*
X006065Y006719D01*
X006090Y006798D02*
X005902Y006798D01*
X005977Y006876D02*
X006123Y006876D01*
X006163Y006955D02*
X006010Y006955D01*
X006042Y007033D02*
X006241Y007033D01*
X006336Y007112D02*
X006060Y007112D01*
X006060Y007190D02*
X006268Y007190D01*
X006190Y007269D02*
X006060Y007269D01*
X006040Y007347D02*
X006134Y007347D01*
X006101Y007426D02*
X006008Y007426D01*
X005975Y007504D02*
X006069Y007504D01*
X006065Y007583D02*
X005897Y007583D01*
X005818Y007661D02*
X006065Y007661D01*
X006066Y007740D02*
X005844Y007740D01*
X005922Y007818D02*
X006099Y007818D01*
X006131Y007897D02*
X005986Y007897D01*
X006018Y007975D02*
X006183Y007975D01*
X006262Y008054D02*
X006051Y008054D01*
X006060Y008132D02*
X006352Y008132D01*
X006248Y008211D02*
X006060Y008211D01*
X006060Y008289D02*
X006169Y008289D01*
X006126Y008368D02*
X006032Y008368D01*
X005999Y008446D02*
X006093Y008446D01*
X006065Y008525D02*
X005955Y008525D01*
X005876Y008603D02*
X006065Y008603D01*
X006065Y008682D02*
X005771Y008682D01*
X006075Y008760D02*
X001117Y008760D01*
X001132Y008682D02*
X005229Y008682D01*
X005124Y008603D02*
X000665Y008603D01*
X000922Y008211D02*
X001913Y008211D01*
X001835Y008132D02*
X000864Y008132D01*
X000988Y008054D02*
X001827Y008054D01*
X001827Y007975D02*
X001067Y007975D01*
X001119Y007897D02*
X001827Y007897D01*
X001885Y007818D02*
X001151Y007818D01*
X001103Y008446D02*
X005001Y008446D01*
X005045Y008525D02*
X001125Y008525D01*
X001089Y008839D02*
X006107Y008839D01*
X006140Y008917D02*
X001043Y008917D01*
X000976Y008996D02*
X006204Y008996D01*
X006282Y009074D02*
X000867Y009074D01*
X000944Y009153D02*
X006306Y009153D01*
X006227Y009231D02*
X001023Y009231D01*
X001100Y009310D02*
X006150Y009310D01*
X006117Y009388D02*
X001133Y009388D01*
X001165Y009467D02*
X006085Y009467D01*
X006065Y009545D02*
X001185Y009545D01*
X001185Y009624D02*
X006065Y009624D01*
X006065Y009702D02*
X001185Y009702D01*
X001167Y009781D02*
X006083Y009781D01*
X006116Y009859D02*
X001134Y009859D01*
X001102Y009938D02*
X006148Y009938D01*
X006224Y010016D02*
X001026Y010016D01*
X000947Y010095D02*
X006303Y010095D01*
X006285Y010173D02*
X000965Y010173D01*
X001043Y010252D02*
X006207Y010252D01*
X006141Y010330D02*
X001109Y010330D01*
X001141Y010409D02*
X006109Y010409D01*
X006076Y010487D02*
X001174Y010487D01*
X001185Y010566D02*
X006065Y010566D01*
X006065Y010644D02*
X001185Y010644D01*
X001185Y010723D02*
X006065Y010723D01*
X006092Y010801D02*
X001158Y010801D01*
X001126Y010880D02*
X006124Y010880D01*
X006166Y010958D02*
X001084Y010958D01*
X001005Y011037D02*
X006245Y011037D01*
X006345Y011115D02*
X001912Y011115D01*
X001874Y011077D02*
X002048Y011251D01*
X002048Y011366D01*
X001759Y011366D01*
X001759Y011077D01*
X001874Y011077D01*
X001991Y011194D02*
X006265Y011194D01*
X006186Y011272D02*
X002048Y011272D01*
X002048Y011351D02*
X006133Y011351D01*
X006100Y011429D02*
X002048Y011429D01*
X002048Y011384D02*
X002048Y011499D01*
X001874Y011673D01*
X001759Y011673D01*
X001759Y011384D01*
X002048Y011384D01*
X002039Y011508D02*
X006068Y011508D01*
X006065Y011586D02*
X001961Y011586D01*
X001882Y011665D02*
X006065Y011665D01*
X006068Y011743D02*
X001182Y011743D01*
X001185Y011665D02*
X001618Y011665D01*
X001626Y011673D02*
X001452Y011499D01*
X001452Y011384D01*
X001741Y011384D01*
X001741Y011366D01*
X001759Y011366D01*
X001759Y011384D01*
X001741Y011384D01*
X001741Y011673D01*
X001626Y011673D01*
X001741Y011665D02*
X001759Y011665D01*
X001759Y011586D02*
X001741Y011586D01*
X001741Y011508D02*
X001759Y011508D01*
X001759Y011429D02*
X001741Y011429D01*
X001741Y011366D02*
X001452Y011366D01*
X001452Y011251D01*
X001626Y011077D01*
X001741Y011077D01*
X001741Y011366D01*
X001741Y011351D02*
X001759Y011351D01*
X001759Y011272D02*
X001741Y011272D01*
X001741Y011194D02*
X001759Y011194D01*
X001759Y011115D02*
X001741Y011115D01*
X001588Y011115D02*
X000905Y011115D01*
X000985Y011194D02*
X001509Y011194D01*
X001452Y011272D02*
X001064Y011272D01*
X001117Y011351D02*
X001452Y011351D01*
X001452Y011429D02*
X001150Y011429D01*
X001182Y011508D02*
X001460Y011508D01*
X001539Y011586D02*
X001185Y011586D01*
X001150Y011822D02*
X006100Y011822D01*
X006133Y011900D02*
X001117Y011900D01*
X001063Y011979D02*
X006187Y011979D01*
X006265Y012057D02*
X000985Y012057D01*
X001407Y012136D02*
X001843Y012136D01*
X001744Y012214D02*
X001506Y012214D01*
X001584Y012293D02*
X001666Y012293D01*
X002407Y012136D02*
X002843Y012136D01*
X002744Y012214D02*
X002506Y012214D01*
X002584Y012293D02*
X002666Y012293D01*
X003407Y012136D02*
X003843Y012136D01*
X003744Y012214D02*
X003506Y012214D01*
X003584Y012293D02*
X003666Y012293D01*
X004407Y012136D02*
X004843Y012136D01*
X004744Y012214D02*
X004506Y012214D01*
X004584Y012293D02*
X004666Y012293D01*
X005407Y012136D02*
X005843Y012136D01*
X005744Y012214D02*
X005506Y012214D01*
X005584Y012293D02*
X005666Y012293D01*
X004009Y006798D02*
X003991Y006798D01*
X003876Y006798D01*
X003702Y006624D01*
X003702Y006509D01*
X003991Y006509D01*
X003991Y006491D01*
X004009Y006491D01*
X004009Y006202D01*
X004124Y006202D01*
X004298Y006376D01*
X004298Y006491D01*
X004009Y006491D01*
X004009Y006509D01*
X003991Y006509D01*
X003991Y006798D01*
X003991Y006719D02*
X004009Y006719D01*
X004009Y006641D02*
X003991Y006641D01*
X003991Y006562D02*
X004009Y006562D01*
X003991Y006491D02*
X003702Y006491D01*
X003702Y006376D01*
X003876Y006202D01*
X003991Y006202D01*
X003991Y006491D01*
X003991Y006484D02*
X004009Y006484D01*
X004009Y006405D02*
X003991Y006405D01*
X003991Y006327D02*
X004009Y006327D01*
X004009Y006248D02*
X003991Y006248D01*
X003830Y006248D02*
X002295Y006248D01*
X002249Y006202D02*
X002423Y006376D01*
X002423Y006491D01*
X002134Y006491D01*
X002134Y006202D01*
X002249Y006202D01*
X002374Y006327D02*
X003751Y006327D01*
X003702Y006405D02*
X002423Y006405D01*
X002423Y006484D02*
X003702Y006484D01*
X003702Y006562D02*
X002423Y006562D01*
X002423Y006509D02*
X002423Y006624D01*
X002249Y006798D01*
X002134Y006798D01*
X002134Y006509D01*
X002423Y006509D01*
X002407Y006641D02*
X003718Y006641D01*
X003797Y006719D02*
X002328Y006719D01*
X002250Y006798D02*
X003875Y006798D01*
X004249Y006327D02*
X006142Y006327D01*
X006110Y006405D02*
X004298Y006405D01*
X004298Y006484D02*
X006077Y006484D01*
X006210Y006248D02*
X004170Y006248D01*
X004124Y005298D02*
X004009Y005298D01*
X004009Y005009D01*
X004298Y005009D01*
X004298Y005124D01*
X004124Y005298D01*
X004195Y005228D02*
X006231Y005228D01*
X006152Y005306D02*
X001098Y005306D01*
X001132Y005385D02*
X006118Y005385D01*
X006086Y005463D02*
X001164Y005463D01*
X001185Y005542D02*
X006065Y005542D01*
X006065Y005620D02*
X001185Y005620D01*
X001185Y005699D02*
X006065Y005699D01*
X006082Y005777D02*
X001168Y005777D01*
X001136Y005856D02*
X006114Y005856D01*
X006147Y005934D02*
X001103Y005934D01*
X001029Y006013D02*
X006221Y006013D01*
X006299Y006091D02*
X000951Y006091D01*
X000961Y006170D02*
X006289Y006170D01*
X006311Y005149D02*
X004273Y005149D01*
X004298Y005071D02*
X006279Y005071D01*
X006200Y004992D02*
X004009Y004992D01*
X004009Y004991D02*
X004009Y005009D01*
X003991Y005009D01*
X003991Y004991D01*
X004009Y004991D01*
X004009Y004702D01*
X004124Y004702D01*
X004298Y004876D01*
X004298Y004991D01*
X004009Y004991D01*
X003991Y004991D02*
X003991Y004702D01*
X003876Y004702D01*
X003702Y004876D01*
X003702Y004991D01*
X003991Y004991D01*
X003991Y004992D02*
X002134Y004992D01*
X002134Y004991D02*
X002134Y005009D01*
X002423Y005009D01*
X002423Y005124D01*
X002249Y005298D01*
X002134Y005298D01*
X002134Y005009D01*
X002116Y005009D01*
X002116Y004991D01*
X002134Y004991D01*
X002134Y004702D01*
X002249Y004702D01*
X002423Y004876D01*
X002423Y004991D01*
X002134Y004991D01*
X002116Y004991D02*
X002116Y004702D01*
X002001Y004702D01*
X001827Y004876D01*
X001827Y004991D01*
X002116Y004991D01*
X002116Y004992D02*
X001050Y004992D01*
X001112Y004914D02*
X001827Y004914D01*
X001868Y004835D02*
X001144Y004835D01*
X001177Y004757D02*
X001946Y004757D01*
X002116Y004757D02*
X002134Y004757D01*
X002134Y004835D02*
X002116Y004835D01*
X002116Y004914D02*
X002134Y004914D01*
X002116Y005009D02*
X001827Y005009D01*
X001827Y005124D01*
X002001Y005298D01*
X002116Y005298D01*
X002116Y005009D01*
X002116Y005071D02*
X002134Y005071D01*
X002134Y005149D02*
X002116Y005149D01*
X002116Y005228D02*
X002134Y005228D01*
X002320Y005228D02*
X003805Y005228D01*
X003876Y005298D02*
X003702Y005124D01*
X003702Y005009D01*
X003991Y005009D01*
X003991Y005298D01*
X003876Y005298D01*
X003991Y005228D02*
X004009Y005228D01*
X004009Y005149D02*
X003991Y005149D01*
X003991Y005071D02*
X004009Y005071D01*
X004009Y004914D02*
X003991Y004914D01*
X003991Y004835D02*
X004009Y004835D01*
X004009Y004757D02*
X003991Y004757D01*
X003821Y004757D02*
X002304Y004757D01*
X002382Y004835D02*
X003743Y004835D01*
X003702Y004914D02*
X002423Y004914D01*
X002423Y005071D02*
X003702Y005071D01*
X003727Y005149D02*
X002398Y005149D01*
X001930Y005228D02*
X001019Y005228D01*
X000939Y005149D02*
X001852Y005149D01*
X001827Y005071D02*
X000971Y005071D01*
X001040Y006248D02*
X001955Y006248D01*
X002001Y006202D02*
X002116Y006202D01*
X002116Y006491D01*
X002134Y006491D01*
X002134Y006509D01*
X002116Y006509D01*
X002116Y006491D01*
X001827Y006491D01*
X001827Y006376D01*
X002001Y006202D01*
X002116Y006248D02*
X002134Y006248D01*
X002134Y006327D02*
X002116Y006327D01*
X002116Y006405D02*
X002134Y006405D01*
X002134Y006484D02*
X002116Y006484D01*
X002116Y006509D02*
X001827Y006509D01*
X001827Y006624D01*
X002001Y006798D01*
X002116Y006798D01*
X002116Y006509D01*
X002116Y006562D02*
X002134Y006562D01*
X002134Y006641D02*
X002116Y006641D01*
X002116Y006719D02*
X002134Y006719D01*
X002134Y006798D02*
X002116Y006798D01*
X002000Y006798D02*
X001160Y006798D01*
X001185Y006719D02*
X001922Y006719D01*
X001843Y006641D02*
X001185Y006641D01*
X001185Y006562D02*
X001827Y006562D01*
X001827Y006484D02*
X001173Y006484D01*
X001140Y006405D02*
X001827Y006405D01*
X001876Y006327D02*
X001108Y006327D01*
X001161Y002794D02*
X001434Y002794D01*
X001439Y002798D02*
X001264Y002624D01*
X001264Y002509D01*
X001553Y002509D01*
X001553Y002491D01*
X001264Y002491D01*
X001264Y002376D01*
X001439Y002202D01*
X001553Y002202D01*
X001553Y002491D01*
X001572Y002491D01*
X001572Y002509D01*
X001553Y002509D01*
X001553Y002798D01*
X001439Y002798D01*
X001553Y002794D02*
X001572Y002794D01*
X001572Y002716D02*
X001553Y002716D01*
X001553Y002637D02*
X001572Y002637D01*
X001572Y002559D02*
X001553Y002559D01*
X001572Y002491D02*
X001861Y002491D01*
X001861Y002376D01*
X001686Y002202D01*
X001572Y002202D01*
X001572Y002491D01*
X001572Y002480D02*
X001553Y002480D01*
X001553Y002402D02*
X001572Y002402D01*
X001572Y002323D02*
X001553Y002323D01*
X001553Y002245D02*
X001572Y002245D01*
X001396Y002245D02*
X001036Y002245D01*
X001106Y002323D02*
X001317Y002323D01*
X001264Y002402D02*
X001139Y002402D01*
X001171Y002480D02*
X001264Y002480D01*
X001264Y002559D02*
X001185Y002559D01*
X001185Y002637D02*
X001277Y002637D01*
X001356Y002716D02*
X001185Y002716D01*
X000958Y002166D02*
X006292Y002166D01*
X006296Y002088D02*
X000954Y002088D01*
X001033Y002009D02*
X006217Y002009D01*
X006145Y001931D02*
X001105Y001931D01*
X001137Y001852D02*
X006113Y001852D01*
X006080Y001774D02*
X001170Y001774D01*
X001185Y001695D02*
X006065Y001695D01*
X006065Y001617D02*
X001185Y001617D01*
X001185Y001538D02*
X006065Y001538D01*
X006087Y001460D02*
X001163Y001460D01*
X001130Y001381D02*
X006120Y001381D01*
X006156Y001303D02*
X001094Y001303D01*
X001016Y001224D02*
X006234Y001224D01*
X006319Y001146D02*
X000931Y001146D01*
X000975Y001067D02*
X006275Y001067D01*
X006197Y000989D02*
X001053Y000989D01*
X001113Y000910D02*
X006137Y000910D01*
X006104Y000832D02*
X001146Y000832D01*
X001178Y000753D02*
X006072Y000753D01*
X006065Y000675D02*
X001185Y000675D01*
X001185Y000596D02*
X006065Y000596D01*
X006065Y000518D02*
X001185Y000518D01*
X001729Y002245D02*
X006214Y002245D01*
X006144Y002323D02*
X001808Y002323D01*
X001861Y002402D02*
X006111Y002402D01*
X006079Y002480D02*
X001861Y002480D01*
X004179Y004757D02*
X006073Y004757D01*
X006106Y004835D02*
X004257Y004835D01*
X004298Y004914D02*
X006138Y004914D01*
X006065Y003579D02*
X005796Y003579D01*
X005817Y003588D02*
X005756Y003562D01*
X005817Y003537D01*
X005975Y003380D01*
X006060Y003174D01*
X006060Y002951D01*
X006060Y003030D02*
X006238Y003030D01*
X006328Y003108D02*
X006060Y003108D01*
X006055Y003187D02*
X006272Y003187D01*
X006193Y003265D02*
X006022Y003265D01*
X005990Y003344D02*
X006135Y003344D01*
X006103Y003422D02*
X005932Y003422D01*
X005854Y003501D02*
X006070Y003501D01*
D13*
X004000Y005000D03*
X004000Y006500D03*
X004000Y008000D03*
X002125Y008000D03*
X002125Y006500D03*
X002125Y005000D03*
X001563Y002500D03*
X001750Y011375D03*
M02*
