G75*
%MOIN*%
%OFA0B0*%
%FSLAX24Y24*%
%IPPOS*%
%LPD*%
%AMOC8*
5,1,8,0,0,1.08239X$1,22.5*
%
%ADD10C,0.0000*%
%ADD11C,0.0740*%
%ADD12R,0.0354X0.0433*%
%ADD13R,0.0600X0.0300*%
%ADD14C,0.0160*%
%ADD15OC8,0.0317*%
%ADD16C,0.0080*%
D10*
X000125Y000125D02*
X000125Y013121D01*
X007120Y013121D01*
X007120Y000125D01*
X000125Y000125D01*
D11*
X000625Y000625D03*
X000625Y001625D03*
X000625Y002625D03*
X000625Y003625D03*
X000625Y004625D03*
X000625Y005625D03*
X000625Y006625D03*
X000625Y007625D03*
X000625Y008625D03*
X000625Y009625D03*
X000625Y010625D03*
X000625Y011625D03*
X001125Y012625D03*
X002125Y012625D03*
X003125Y012625D03*
X004125Y012625D03*
X005125Y012625D03*
X006125Y012625D03*
X006625Y011625D03*
X006625Y010625D03*
X006625Y009625D03*
X006625Y008625D03*
X006625Y007625D03*
X006625Y006625D03*
X006625Y005625D03*
X006625Y004625D03*
X006625Y003625D03*
X006625Y002625D03*
X006625Y001625D03*
X006625Y000625D03*
X005500Y003063D03*
X005500Y004063D03*
X005500Y007188D03*
X005500Y008188D03*
D12*
X004696Y008375D03*
X003554Y008017D03*
X003554Y008733D03*
X002821Y008375D03*
X003554Y007233D03*
X003554Y006517D03*
X003554Y005733D03*
X003554Y005017D03*
X002821Y005375D03*
X002821Y006875D03*
X001679Y006517D03*
X001679Y007233D03*
X001679Y008017D03*
X001679Y008733D03*
X001679Y005733D03*
X001679Y005017D03*
X004696Y005375D03*
X004696Y006875D03*
D13*
X004475Y004000D03*
X004475Y002500D03*
X002275Y002500D03*
X002275Y004000D03*
X002400Y009875D03*
X002400Y011375D03*
X004600Y011375D03*
X004600Y009875D03*
D14*
X002400Y009875D01*
X001750Y009875D01*
X001125Y009250D01*
X001608Y008733D02*
X001375Y008500D01*
X001125Y008125D02*
X000625Y007625D01*
X001250Y006875D02*
X001250Y006162D01*
X001679Y005733D01*
X001696Y005750D02*
X003500Y005750D01*
X003250Y006125D02*
X006125Y006125D01*
X006625Y006625D01*
X006500Y007375D02*
X006500Y007500D01*
X006625Y007625D01*
X006500Y007375D02*
X005625Y006500D01*
X005000Y006500D01*
X004696Y006804D01*
X004696Y006875D01*
X005063Y007625D02*
X005500Y007188D01*
X005063Y007625D02*
X003250Y007625D01*
X002821Y008054D01*
X002821Y008375D01*
X002196Y009250D02*
X001679Y008733D01*
X001679Y008017D02*
X002108Y008017D01*
X002125Y008000D01*
X001375Y007537D02*
X001679Y007233D01*
X003554Y007233D01*
X003554Y006517D02*
X003983Y006517D01*
X004000Y006500D01*
X003250Y006125D02*
X002821Y006554D01*
X002821Y006875D01*
X002125Y006500D02*
X002108Y006517D01*
X001679Y006517D01*
X001250Y006875D02*
X001608Y007233D01*
X000625Y005625D02*
X001250Y005000D01*
X001250Y004500D01*
X001750Y004000D01*
X002275Y004000D01*
X004475Y004000D01*
X005000Y004500D02*
X005125Y004625D01*
X006625Y004625D01*
X006375Y005375D02*
X006625Y005625D01*
X006375Y005375D02*
X004696Y005375D01*
X004000Y005000D02*
X003983Y005017D01*
X003554Y005017D01*
X003125Y004500D02*
X005000Y004500D01*
X004475Y002500D02*
X002275Y002500D01*
X001563Y002500D01*
X003125Y004500D02*
X002821Y004804D01*
X002821Y005375D01*
X002125Y005000D02*
X002108Y005017D01*
X001679Y005017D01*
X003554Y008017D02*
X003983Y008017D01*
X004000Y008000D01*
X003554Y008733D02*
X003554Y009179D01*
X003625Y009250D01*
X002196Y009250D01*
X003625Y009250D02*
X006000Y009250D01*
X006625Y008625D01*
X005500Y008188D02*
X005313Y008375D01*
X004696Y008375D01*
X004600Y011375D02*
X002400Y011375D01*
X001750Y011375D01*
D15*
X001750Y011375D03*
X002125Y008000D03*
X002125Y006500D03*
X002125Y005000D03*
X001563Y002500D03*
X004000Y005000D03*
X004000Y006500D03*
X004000Y008000D03*
D16*
X003500Y005750D02*
X003517Y005733D01*
X003554Y005733D01*
X001696Y005750D02*
X001679Y005733D01*
X001679Y007233D02*
X001608Y007233D01*
X001375Y007537D02*
X001375Y008500D01*
X001608Y008733D02*
X001679Y008733D01*
X001125Y009250D02*
X001125Y008125D01*
M02*
