G75*
%MOIN*%
%OFA0B0*%
%FSLAX24Y24*%
%IPPOS*%
%LPD*%
%AMOC8*
5,1,8,0,0,1.08239X$1,22.5*
%
%ADD10C,0.0100*%
%ADD11R,0.0512X0.0512*%
%ADD12C,0.0470*%
D10*
X000150Y000725D02*
X000150Y002221D01*
X036400Y002221D01*
X036400Y000725D01*
X000150Y000725D01*
D11*
X000862Y001475D03*
X001688Y001475D03*
X002862Y001475D03*
X003688Y001475D03*
X004862Y001475D03*
X005688Y001475D03*
X006862Y001475D03*
X007688Y001475D03*
X008862Y001475D03*
X009688Y001475D03*
X010862Y001475D03*
X011688Y001475D03*
X012862Y001475D03*
X013688Y001475D03*
X014862Y001475D03*
X015688Y001475D03*
X016862Y001475D03*
X017688Y001475D03*
X018862Y001475D03*
X019688Y001475D03*
X020862Y001475D03*
X021688Y001475D03*
X022862Y001475D03*
X023688Y001475D03*
X024862Y001475D03*
X025688Y001475D03*
X026862Y001475D03*
X027688Y001475D03*
X028862Y001475D03*
X029688Y001475D03*
X030862Y001475D03*
X031688Y001475D03*
X032862Y001475D03*
X033688Y001475D03*
X034862Y001475D03*
X035688Y001475D03*
D12*
X036025Y001100D03*
X034275Y001100D03*
X030275Y001100D03*
X024275Y001100D03*
X018275Y001100D03*
X012275Y001100D03*
X006275Y001100D03*
X000588Y001100D03*
X000588Y001850D03*
X006275Y001850D03*
X012275Y001850D03*
X018275Y001850D03*
X024275Y001850D03*
X030275Y001850D03*
X034275Y001850D03*
X036025Y001850D03*
M02*
