  0
SECTION
  2
HEADER
  9
$ACADVER
  1
AC1009
  9
$EXTMIN
 10
0.0
 20
0.0
 30
0.0
  9
$EXTMAX
 10
1000.0
 20
1000.0
 30
0.0
  9
$FILLMODE
 70
 0
  9
$SPLFRAME
 70
 1
  0
ENDSEC
  0
SECTION
  2
TABLES
  0
TABLE
  2
LAYER
 70
1
  0
LAYER
  2
0
 70
     0
 62
     7
  6
CONTINUOUS
  0
ENDTAB
  0
ENDSEC
  0
SECTION
  2
ENTITIES
  0
POLYLINE
  8
0
 62
     31
 66
     1
 10
0
 20
0
 30
0.0
 40
0.072
 41
0.072
  0
VERTEX
  8
0
 10
0.18674
 20
0.181424
 30
0.0
 40
0.001
 41
0.001
  0
VERTEX
  8
0
 10
0.18674
 20
3.70003
 30
0.0
 40
0.001
 41
0.001
  0
SEQEND
 8
0
  0
POLYLINE
  8
0
 62
     31
 66
     1
 10
0
 20
0
 30
0.0
 40
0.072
 41
0.072
  0
VERTEX
  8
0
 10
0.18674
 20
3.70003
 30
0.0
 40
0.001
 41
0.001
  0
VERTEX
  8
0
 10
3.81174
 20
3.70003
 30
0.0
 40
0.001
 41
0.001
  0
SEQEND
 8
0
  0
POLYLINE
  8
0
 62
     31
 66
     1
 10
0
 20
0
 30
0.0
 40
0.072
 41
0.072
  0
VERTEX
  8
0
 10
3.81174
 20
3.70003
 30
0.0
 40
0.001
 41
0.001
  0
VERTEX
  8
0
 10
3.81174
 20
0.181424
 30
0.0
 40
0.001
 41
0.001
  0
SEQEND
 8
0
  0
POLYLINE
  8
0
 62
     31
 66
     1
 10
0
 20
0
 30
0.0
 40
0.072
 41
0.072
  0
VERTEX
  8
0
 10
3.81174
 20
0.181424
 30
0.0
 40
0.001
 41
0.001
  0
VERTEX
  8
0
 10
0.18674
 20
0.181424
 30
0.0
 40
0.001
 41
0.001
  0
SEQEND
 8
0
  0
POLYLINE
  8
0
 62
     71
 66
     1
 10
0
 20
0
 30
0.0
 40
0.72
 41
0.72
  0
VERTEX
  8
0
 10
0.18674
 20
0.181424
 30
0.0
 40
0.01
 41
0.01
  0
VERTEX
  8
0
 10
0.18674
 20
0.331054
 30
0.0
 40
0.01
 41
0.01
  0
SEQEND
 8
0
  0
POLYLINE
  8
0
 62
     71
 66
     1
 10
0
 20
0
 30
0.0
 40
0.72
 41
0.72
  0
VERTEX
  8
0
 10
0.18674
 20
0.331054
 30
0.0
 40
0.01
 41
0.01
  0
VERTEX
  8
0
 10
3.81174
 20
0.331054
 30
0.0
 40
0.01
 41
0.01
  0
SEQEND
 8
0
  0
POLYLINE
  8
0
 62
     71
 66
     1
 10
0
 20
0
 30
0.0
 40
0.72
 41
0.72
  0
VERTEX
  8
0
 10
3.81174
 20
0.331054
 30
0.0
 40
0.01
 41
0.01
  0
VERTEX
  8
0
 10
3.81174
 20
0.181424
 30
0.0
 40
0.01
 41
0.01
  0
SEQEND
 8
0
  0
POLYLINE
  8
0
 62
     71
 66
     1
 10
0
 20
0
 30
0.0
 40
0.72
 41
0.72
  0
VERTEX
  8
0
 10
3.81174
 20
0.181424
 30
0.0
 40
0.01
 41
0.01
  0
VERTEX
  8
0
 10
0.18674
 20
0.181424
 30
0.0
 40
0.01
 41
0.01
  0
SEQEND
 8
0
  0
POLYLINE
  8
0
 62
     71
 66
     1
 10
0
 20
0
 30
0.0
 40
0.72
 41
0.72
  0
VERTEX
  8
0
 10
0.18674
 20
0.406033
 30
0.0
 40
0.01
 41
0.01
  0
VERTEX
  8
0
 10
0.18674
 20
0.55561
 30
0.0
 40
0.01
 41
0.01
  0
SEQEND
 8
0
  0
POLYLINE
  8
0
 62
     71
 66
     1
 10
0
 20
0
 30
0.0
 40
0.72
 41
0.72
  0
VERTEX
  8
0
 10
0.18674
 20
0.55561
 30
0.0
 40
0.01
 41
0.01
  0
VERTEX
  8
0
 10
3.81174
 20
0.55561
 30
0.0
 40
0.01
 41
0.01
  0
SEQEND
 8
0
  0
POLYLINE
  8
0
 62
     71
 66
     1
 10
0
 20
0
 30
0.0
 40
0.72
 41
0.72
  0
VERTEX
  8
0
 10
3.81174
 20
0.55561
 30
0.0
 40
0.01
 41
0.01
  0
VERTEX
  8
0
 10
3.81174
 20
0.406033
 30
0.0
 40
0.01
 41
0.01
  0
SEQEND
 8
0
  0
POLYLINE
  8
0
 62
     71
 66
     1
 10
0
 20
0
 30
0.0
 40
0.72
 41
0.72
  0
VERTEX
  8
0
 10
3.81174
 20
0.406033
 30
0.0
 40
0.01
 41
0.01
  0
VERTEX
  8
0
 10
0.18674
 20
0.406033
 30
0.0
 40
0.01
 41
0.01
  0
SEQEND
 8
0
  0
POLYLINE
  8
0
 62
     71
 66
     1
 10
0
 20
0
 30
0.0
 40
0.72
 41
0.72
  0
VERTEX
  8
0
 10
0.18674
 20
0.630643
 30
0.0
 40
0.01
 41
0.01
  0
VERTEX
  8
0
 10
0.18674
 20
0.780219
 30
0.0
 40
0.01
 41
0.01
  0
SEQEND
 8
0
  0
POLYLINE
  8
0
 62
     71
 66
     1
 10
0
 20
0
 30
0.0
 40
0.72
 41
0.72
  0
VERTEX
  8
0
 10
0.18674
 20
0.780219
 30
0.0
 40
0.01
 41
0.01
  0
VERTEX
  8
0
 10
3.81174
 20
0.780219
 30
0.0
 40
0.01
 41
0.01
  0
SEQEND
 8
0
  0
POLYLINE
  8
0
 62
     71
 66
     1
 10
0
 20
0
 30
0.0
 40
0.72
 41
0.72
  0
VERTEX
  8
0
 10
3.81174
 20
0.780219
 30
0.0
 40
0.01
 41
0.01
  0
VERTEX
  8
0
 10
3.81174
 20
0.630643
 30
0.0
 40
0.01
 41
0.01
  0
SEQEND
 8
0
  0
POLYLINE
  8
0
 62
     71
 66
     1
 10
0
 20
0
 30
0.0
 40
0.72
 41
0.72
  0
VERTEX
  8
0
 10
3.81174
 20
0.630643
 30
0.0
 40
0.01
 41
0.01
  0
VERTEX
  8
0
 10
0.18674
 20
0.630643
 30
0.0
 40
0.01
 41
0.01
  0
SEQEND
 8
0
  0
POLYLINE
  8
0
 62
     71
 66
     1
 10
0
 20
0
 30
0.0
 40
0.72
 41
0.72
  0
VERTEX
  8
0
 10
0.18674
 20
0.855251
 30
0.0
 40
0.01
 41
0.01
  0
VERTEX
  8
0
 10
0.18674
 20
1.00483
 30
0.0
 40
0.01
 41
0.01
  0
SEQEND
 8
0
  0
POLYLINE
  8
0
 62
     71
 66
     1
 10
0
 20
0
 30
0.0
 40
0.72
 41
0.72
  0
VERTEX
  8
0
 10
0.18674
 20
1.00483
 30
0.0
 40
0.01
 41
0.01
  0
VERTEX
  8
0
 10
3.81174
 20
1.00483
 30
0.0
 40
0.01
 41
0.01
  0
SEQEND
 8
0
  0
POLYLINE
  8
0
 62
     71
 66
     1
 10
0
 20
0
 30
0.0
 40
0.72
 41
0.72
  0
VERTEX
  8
0
 10
3.81174
 20
1.00483
 30
0.0
 40
0.01
 41
0.01
  0
VERTEX
  8
0
 10
3.81174
 20
0.855251
 30
0.0
 40
0.01
 41
0.01
  0
SEQEND
 8
0
  0
POLYLINE
  8
0
 62
     71
 66
     1
 10
0
 20
0
 30
0.0
 40
0.72
 41
0.72
  0
VERTEX
  8
0
 10
3.81174
 20
0.855251
 30
0.0
 40
0.01
 41
0.01
  0
VERTEX
  8
0
 10
0.18674
 20
0.855251
 30
0.0
 40
0.01
 41
0.01
  0
SEQEND
 8
0
  0
POLYLINE
  8
0
 62
     71
 66
     1
 10
0
 20
0
 30
0.0
 40
0.72
 41
0.72
  0
VERTEX
  8
0
 10
0.18674
 20
1.07981
 30
0.0
 40
0.01
 41
0.01
  0
VERTEX
  8
0
 10
0.18674
 20
1.22944
 30
0.0
 40
0.01
 41
0.01
  0
SEQEND
 8
0
  0
POLYLINE
  8
0
 62
     71
 66
     1
 10
0
 20
0
 30
0.0
 40
0.72
 41
0.72
  0
VERTEX
  8
0
 10
0.18674
 20
1.22944
 30
0.0
 40
0.01
 41
0.01
  0
VERTEX
  8
0
 10
3.81174
 20
1.22944
 30
0.0
 40
0.01
 41
0.01
  0
SEQEND
 8
0
  0
POLYLINE
  8
0
 62
     71
 66
     1
 10
0
 20
0
 30
0.0
 40
0.72
 41
0.72
  0
VERTEX
  8
0
 10
3.81174
 20
1.22944
 30
0.0
 40
0.01
 41
0.01
  0
VERTEX
  8
0
 10
3.81174
 20
1.07981
 30
0.0
 40
0.01
 41
0.01
  0
SEQEND
 8
0
  0
POLYLINE
  8
0
 62
     71
 66
     1
 10
0
 20
0
 30
0.0
 40
0.72
 41
0.72
  0
VERTEX
  8
0
 10
3.81174
 20
1.07981
 30
0.0
 40
0.01
 41
0.01
  0
VERTEX
  8
0
 10
0.18674
 20
1.07981
 30
0.0
 40
0.01
 41
0.01
  0
SEQEND
 8
0
  0
POLYLINE
  8
0
 62
     71
 66
     1
 10
0
 20
0
 30
0.0
 40
0.72
 41
0.72
  0
VERTEX
  8
0
 10
0.18674
 20
1.30442
 30
0.0
 40
0.01
 41
0.01
  0
VERTEX
  8
0
 10
0.18674
 20
1.45404
 30
0.0
 40
0.01
 41
0.01
  0
SEQEND
 8
0
  0
POLYLINE
  8
0
 62
     71
 66
     1
 10
0
 20
0
 30
0.0
 40
0.72
 41
0.72
  0
VERTEX
  8
0
 10
0.18674
 20
1.45404
 30
0.0
 40
0.01
 41
0.01
  0
VERTEX
  8
0
 10
3.81174
 20
1.45404
 30
0.0
 40
0.01
 41
0.01
  0
SEQEND
 8
0
  0
POLYLINE
  8
0
 62
     71
 66
     1
 10
0
 20
0
 30
0.0
 40
0.72
 41
0.72
  0
VERTEX
  8
0
 10
3.81174
 20
1.45404
 30
0.0
 40
0.01
 41
0.01
  0
VERTEX
  8
0
 10
3.81174
 20
1.30442
 30
0.0
 40
0.01
 41
0.01
  0
SEQEND
 8
0
  0
POLYLINE
  8
0
 62
     71
 66
     1
 10
0
 20
0
 30
0.0
 40
0.72
 41
0.72
  0
VERTEX
  8
0
 10
3.81174
 20
1.30442
 30
0.0
 40
0.01
 41
0.01
  0
VERTEX
  8
0
 10
0.18674
 20
1.30442
 30
0.0
 40
0.01
 41
0.01
  0
SEQEND
 8
0
  0
POLYLINE
  8
0
 62
     71
 66
     1
 10
0
 20
0
 30
0.0
 40
0.72
 41
0.72
  0
VERTEX
  8
0
 10
0.18674
 20
1.52903
 30
0.0
 40
0.01
 41
0.01
  0
VERTEX
  8
0
 10
0.18674
 20
1.67865
 30
0.0
 40
0.01
 41
0.01
  0
SEQEND
 8
0
  0
POLYLINE
  8
0
 62
     71
 66
     1
 10
0
 20
0
 30
0.0
 40
0.72
 41
0.72
  0
VERTEX
  8
0
 10
0.18674
 20
1.67865
 30
0.0
 40
0.01
 41
0.01
  0
VERTEX
  8
0
 10
3.81174
 20
1.67865
 30
0.0
 40
0.01
 41
0.01
  0
SEQEND
 8
0
  0
POLYLINE
  8
0
 62
     71
 66
     1
 10
0
 20
0
 30
0.0
 40
0.72
 41
0.72
  0
VERTEX
  8
0
 10
3.81174
 20
1.67865
 30
0.0
 40
0.01
 41
0.01
  0
VERTEX
  8
0
 10
3.81174
 20
1.52903
 30
0.0
 40
0.01
 41
0.01
  0
SEQEND
 8
0
  0
POLYLINE
  8
0
 62
     71
 66
     1
 10
0
 20
0
 30
0.0
 40
0.72
 41
0.72
  0
VERTEX
  8
0
 10
3.81174
 20
1.52903
 30
0.0
 40
0.01
 41
0.01
  0
VERTEX
  8
0
 10
0.18674
 20
1.52903
 30
0.0
 40
0.01
 41
0.01
  0
SEQEND
 8
0
  0
POLYLINE
  8
0
 62
     71
 66
     1
 10
0
 20
0
 30
0.0
 40
0.72
 41
0.72
  0
VERTEX
  8
0
 10
0.18674
 20
1.75364
 30
0.0
 40
0.01
 41
0.01
  0
VERTEX
  8
0
 10
0.18674
 20
1.90321
 30
0.0
 40
0.01
 41
0.01
  0
SEQEND
 8
0
  0
POLYLINE
  8
0
 62
     71
 66
     1
 10
0
 20
0
 30
0.0
 40
0.72
 41
0.72
  0
VERTEX
  8
0
 10
0.18674
 20
1.90321
 30
0.0
 40
0.01
 41
0.01
  0
VERTEX
  8
0
 10
3.81174
 20
1.90321
 30
0.0
 40
0.01
 41
0.01
  0
SEQEND
 8
0
  0
POLYLINE
  8
0
 62
     71
 66
     1
 10
0
 20
0
 30
0.0
 40
0.72
 41
0.72
  0
VERTEX
  8
0
 10
3.81174
 20
1.90321
 30
0.0
 40
0.01
 41
0.01
  0
VERTEX
  8
0
 10
3.81174
 20
1.75364
 30
0.0
 40
0.01
 41
0.01
  0
SEQEND
 8
0
  0
POLYLINE
  8
0
 62
     71
 66
     1
 10
0
 20
0
 30
0.0
 40
0.72
 41
0.72
  0
VERTEX
  8
0
 10
3.81174
 20
1.75364
 30
0.0
 40
0.01
 41
0.01
  0
VERTEX
  8
0
 10
0.18674
 20
1.75364
 30
0.0
 40
0.01
 41
0.01
  0
SEQEND
 8
0
  0
POLYLINE
  8
0
 62
     71
 66
     1
 10
0
 20
0
 30
0.0
 40
0.72
 41
0.72
  0
VERTEX
  8
0
 10
0.18674
 20
1.97825
 30
0.0
 40
0.01
 41
0.01
  0
VERTEX
  8
0
 10
0.18674
 20
2.12782
 30
0.0
 40
0.01
 41
0.01
  0
SEQEND
 8
0
  0
POLYLINE
  8
0
 62
     71
 66
     1
 10
0
 20
0
 30
0.0
 40
0.72
 41
0.72
  0
VERTEX
  8
0
 10
0.18674
 20
2.12782
 30
0.0
 40
0.01
 41
0.01
  0
VERTEX
  8
0
 10
3.81174
 20
2.12782
 30
0.0
 40
0.01
 41
0.01
  0
SEQEND
 8
0
  0
POLYLINE
  8
0
 62
     71
 66
     1
 10
0
 20
0
 30
0.0
 40
0.72
 41
0.72
  0
VERTEX
  8
0
 10
3.81174
 20
2.12782
 30
0.0
 40
0.01
 41
0.01
  0
VERTEX
  8
0
 10
3.81174
 20
1.97825
 30
0.0
 40
0.01
 41
0.01
  0
SEQEND
 8
0
  0
POLYLINE
  8
0
 62
     71
 66
     1
 10
0
 20
0
 30
0.0
 40
0.72
 41
0.72
  0
VERTEX
  8
0
 10
3.81174
 20
1.97825
 30
0.0
 40
0.01
 41
0.01
  0
VERTEX
  8
0
 10
0.18674
 20
1.97825
 30
0.0
 40
0.01
 41
0.01
  0
SEQEND
 8
0
  0
POLYLINE
  8
0
 62
     71
 66
     1
 10
0
 20
0
 30
0.0
 40
0.72
 41
0.72
  0
VERTEX
  8
0
 10
0.18674
 20
2.20285
 30
0.0
 40
0.01
 41
0.01
  0
VERTEX
  8
0
 10
0.18674
 20
2.35243
 30
0.0
 40
0.01
 41
0.01
  0
SEQEND
 8
0
  0
POLYLINE
  8
0
 62
     71
 66
     1
 10
0
 20
0
 30
0.0
 40
0.72
 41
0.72
  0
VERTEX
  8
0
 10
0.18674
 20
2.35243
 30
0.0
 40
0.01
 41
0.01
  0
VERTEX
  8
0
 10
3.81174
 20
2.35243
 30
0.0
 40
0.01
 41
0.01
  0
SEQEND
 8
0
  0
POLYLINE
  8
0
 62
     71
 66
     1
 10
0
 20
0
 30
0.0
 40
0.72
 41
0.72
  0
VERTEX
  8
0
 10
3.81174
 20
2.35243
 30
0.0
 40
0.01
 41
0.01
  0
VERTEX
  8
0
 10
3.81174
 20
2.20285
 30
0.0
 40
0.01
 41
0.01
  0
SEQEND
 8
0
  0
POLYLINE
  8
0
 62
     71
 66
     1
 10
0
 20
0
 30
0.0
 40
0.72
 41
0.72
  0
VERTEX
  8
0
 10
3.81174
 20
2.20285
 30
0.0
 40
0.01
 41
0.01
  0
VERTEX
  8
0
 10
0.18674
 20
2.20285
 30
0.0
 40
0.01
 41
0.01
  0
SEQEND
 8
0
  0
POLYLINE
  8
0
 62
     71
 66
     1
 10
0
 20
0
 30
0.0
 40
0.72
 41
0.72
  0
VERTEX
  8
0
 10
0.18674
 20
2.4274
 30
0.0
 40
0.01
 41
0.01
  0
VERTEX
  8
0
 10
0.18674
 20
2.57704
 30
0.0
 40
0.01
 41
0.01
  0
SEQEND
 8
0
  0
POLYLINE
  8
0
 62
     71
 66
     1
 10
0
 20
0
 30
0.0
 40
0.72
 41
0.72
  0
VERTEX
  8
0
 10
0.18674
 20
2.57704
 30
0.0
 40
0.01
 41
0.01
  0
VERTEX
  8
0
 10
3.81174
 20
2.57704
 30
0.0
 40
0.01
 41
0.01
  0
SEQEND
 8
0
  0
POLYLINE
  8
0
 62
     71
 66
     1
 10
0
 20
0
 30
0.0
 40
0.72
 41
0.72
  0
VERTEX
  8
0
 10
3.81174
 20
2.57704
 30
0.0
 40
0.01
 41
0.01
  0
VERTEX
  8
0
 10
3.81174
 20
2.4274
 30
0.0
 40
0.01
 41
0.01
  0
SEQEND
 8
0
  0
POLYLINE
  8
0
 62
     71
 66
     1
 10
0
 20
0
 30
0.0
 40
0.72
 41
0.72
  0
VERTEX
  8
0
 10
3.81174
 20
2.4274
 30
0.0
 40
0.01
 41
0.01
  0
VERTEX
  8
0
 10
0.18674
 20
2.4274
 30
0.0
 40
0.01
 41
0.01
  0
SEQEND
 8
0
  0
POLYLINE
  8
0
 62
     71
 66
     1
 10
0
 20
0
 30
0.0
 40
0.72
 41
0.72
  0
VERTEX
  8
0
 10
0.18674
 20
2.65201
 30
0.0
 40
0.01
 41
0.01
  0
VERTEX
  8
0
 10
0.18674
 20
2.80165
 30
0.0
 40
0.01
 41
0.01
  0
SEQEND
 8
0
  0
POLYLINE
  8
0
 62
     71
 66
     1
 10
0
 20
0
 30
0.0
 40
0.72
 41
0.72
  0
VERTEX
  8
0
 10
0.18674
 20
2.80165
 30
0.0
 40
0.01
 41
0.01
  0
VERTEX
  8
0
 10
3.81174
 20
2.80165
 30
0.0
 40
0.01
 41
0.01
  0
SEQEND
 8
0
  0
POLYLINE
  8
0
 62
     71
 66
     1
 10
0
 20
0
 30
0.0
 40
0.72
 41
0.72
  0
VERTEX
  8
0
 10
3.81174
 20
2.80165
 30
0.0
 40
0.01
 41
0.01
  0
VERTEX
  8
0
 10
3.81174
 20
2.65201
 30
0.0
 40
0.01
 41
0.01
  0
SEQEND
 8
0
  0
POLYLINE
  8
0
 62
     71
 66
     1
 10
0
 20
0
 30
0.0
 40
0.72
 41
0.72
  0
VERTEX
  8
0
 10
3.81174
 20
2.65201
 30
0.0
 40
0.01
 41
0.01
  0
VERTEX
  8
0
 10
0.18674
 20
2.65201
 30
0.0
 40
0.01
 41
0.01
  0
SEQEND
 8
0
  0
POLYLINE
  8
0
 62
     71
 66
     1
 10
0
 20
0
 30
0.0
 40
0.72
 41
0.72
  0
VERTEX
  8
0
 10
0.18674
 20
2.87663
 30
0.0
 40
0.01
 41
0.01
  0
VERTEX
  8
0
 10
0.18674
 20
3.02621
 30
0.0
 40
0.01
 41
0.01
  0
SEQEND
 8
0
  0
POLYLINE
  8
0
 62
     71
 66
     1
 10
0
 20
0
 30
0.0
 40
0.72
 41
0.72
  0
VERTEX
  8
0
 10
0.18674
 20
3.02621
 30
0.0
 40
0.01
 41
0.01
  0
VERTEX
  8
0
 10
3.81174
 20
3.02621
 30
0.0
 40
0.01
 41
0.01
  0
SEQEND
 8
0
  0
POLYLINE
  8
0
 62
     71
 66
     1
 10
0
 20
0
 30
0.0
 40
0.72
 41
0.72
  0
VERTEX
  8
0
 10
3.81174
 20
3.02621
 30
0.0
 40
0.01
 41
0.01
  0
VERTEX
  8
0
 10
3.81174
 20
2.87663
 30
0.0
 40
0.01
 41
0.01
  0
SEQEND
 8
0
  0
POLYLINE
  8
0
 62
     71
 66
     1
 10
0
 20
0
 30
0.0
 40
0.72
 41
0.72
  0
VERTEX
  8
0
 10
3.81174
 20
2.87663
 30
0.0
 40
0.01
 41
0.01
  0
VERTEX
  8
0
 10
0.18674
 20
2.87663
 30
0.0
 40
0.01
 41
0.01
  0
SEQEND
 8
0
  0
POLYLINE
  8
0
 62
     71
 66
     1
 10
0
 20
0
 30
0.0
 40
0.72
 41
0.72
  0
VERTEX
  8
0
 10
0.18674
 20
3.10124
 30
0.0
 40
0.01
 41
0.01
  0
VERTEX
  8
0
 10
0.18674
 20
3.25082
 30
0.0
 40
0.01
 41
0.01
  0
SEQEND
 8
0
  0
POLYLINE
  8
0
 62
     71
 66
     1
 10
0
 20
0
 30
0.0
 40
0.72
 41
0.72
  0
VERTEX
  8
0
 10
0.18674
 20
3.25082
 30
0.0
 40
0.01
 41
0.01
  0
VERTEX
  8
0
 10
3.81174
 20
3.25082
 30
0.0
 40
0.01
 41
0.01
  0
SEQEND
 8
0
  0
POLYLINE
  8
0
 62
     71
 66
     1
 10
0
 20
0
 30
0.0
 40
0.72
 41
0.72
  0
VERTEX
  8
0
 10
3.81174
 20
3.25082
 30
0.0
 40
0.01
 41
0.01
  0
VERTEX
  8
0
 10
3.81174
 20
3.10124
 30
0.0
 40
0.01
 41
0.01
  0
SEQEND
 8
0
  0
POLYLINE
  8
0
 62
     71
 66
     1
 10
0
 20
0
 30
0.0
 40
0.72
 41
0.72
  0
VERTEX
  8
0
 10
3.81174
 20
3.10124
 30
0.0
 40
0.01
 41
0.01
  0
VERTEX
  8
0
 10
0.18674
 20
3.10124
 30
0.0
 40
0.01
 41
0.01
  0
SEQEND
 8
0
  0
POLYLINE
  8
0
 62
     71
 66
     1
 10
0
 20
0
 30
0.0
 40
0.72
 41
0.72
  0
VERTEX
  8
0
 10
0.18674
 20
3.32585
 30
0.0
 40
0.01
 41
0.01
  0
VERTEX
  8
0
 10
0.18674
 20
3.47542
 30
0.0
 40
0.01
 41
0.01
  0
SEQEND
 8
0
  0
POLYLINE
  8
0
 62
     71
 66
     1
 10
0
 20
0
 30
0.0
 40
0.72
 41
0.72
  0
VERTEX
  8
0
 10
0.18674
 20
3.47542
 30
0.0
 40
0.01
 41
0.01
  0
VERTEX
  8
0
 10
3.81174
 20
3.47542
 30
0.0
 40
0.01
 41
0.01
  0
SEQEND
 8
0
  0
POLYLINE
  8
0
 62
     71
 66
     1
 10
0
 20
0
 30
0.0
 40
0.72
 41
0.72
  0
VERTEX
  8
0
 10
3.81174
 20
3.47542
 30
0.0
 40
0.01
 41
0.01
  0
VERTEX
  8
0
 10
3.81174
 20
3.32585
 30
0.0
 40
0.01
 41
0.01
  0
SEQEND
 8
0
  0
POLYLINE
  8
0
 62
     71
 66
     1
 10
0
 20
0
 30
0.0
 40
0.72
 41
0.72
  0
VERTEX
  8
0
 10
3.81174
 20
3.32585
 30
0.0
 40
0.01
 41
0.01
  0
VERTEX
  8
0
 10
0.18674
 20
3.32585
 30
0.0
 40
0.01
 41
0.01
  0
SEQEND
 8
0
  0
POLYLINE
  8
0
 62
     71
 66
     1
 10
0
 20
0
 30
0.0
 40
0.72
 41
0.72
  0
VERTEX
  8
0
 10
0.18674
 20
3.55046
 30
0.0
 40
0.01
 41
0.01
  0
VERTEX
  8
0
 10
0.18674
 20
3.70003
 30
0.0
 40
0.01
 41
0.01
  0
SEQEND
 8
0
  0
POLYLINE
  8
0
 62
     71
 66
     1
 10
0
 20
0
 30
0.0
 40
0.72
 41
0.72
  0
VERTEX
  8
0
 10
0.18674
 20
3.70003
 30
0.0
 40
0.01
 41
0.01
  0
VERTEX
  8
0
 10
3.81174
 20
3.70003
 30
0.0
 40
0.01
 41
0.01
  0
SEQEND
 8
0
  0
POLYLINE
  8
0
 62
     71
 66
     1
 10
0
 20
0
 30
0.0
 40
0.72
 41
0.72
  0
VERTEX
  8
0
 10
3.81174
 20
3.70003
 30
0.0
 40
0.01
 41
0.01
  0
VERTEX
  8
0
 10
3.81174
 20
3.55046
 30
0.0
 40
0.01
 41
0.01
  0
SEQEND
 8
0
  0
POLYLINE
  8
0
 62
     71
 66
     1
 10
0
 20
0
 30
0.0
 40
0.72
 41
0.72
  0
VERTEX
  8
0
 10
3.81174
 20
3.55046
 30
0.0
 40
0.01
 41
0.01
  0
VERTEX
  8
0
 10
0.18674
 20
3.55046
 30
0.0
 40
0.01
 41
0.01
  0
SEQEND
 8
0
  0
ENDSEC
  0
EOF
