G75*
%MOIN*%
%OFA0B0*%
%FSLAX24Y24*%
%IPPOS*%
%LPD*%
%AMOC8*
5,1,8,0,0,1.08239X$1,22.5*
%
%ADD10C,0.0100*%
%ADD11C,0.0060*%
%ADD12C,0.0050*%
%ADD13C,0.0080*%
D10*
X000150Y000725D02*
X000150Y002221D01*
X036400Y002221D01*
X036400Y000725D01*
X000150Y000725D01*
D11*
X000930Y001181D02*
X001043Y001068D01*
X001270Y001068D01*
X001043Y001294D02*
X000930Y001181D01*
X001043Y001294D02*
X001270Y001294D01*
X001270Y001436D02*
X001270Y001549D01*
X000930Y001549D02*
X000930Y001436D01*
X000930Y001493D02*
X001270Y001493D01*
X001270Y001681D02*
X000930Y001681D01*
X000930Y001908D02*
X001270Y001681D01*
X001270Y001908D02*
X000930Y001908D01*
X005618Y001850D02*
X005618Y001623D01*
X005844Y001623D02*
X005958Y001737D01*
X005618Y001737D01*
X005731Y001482D02*
X005958Y001482D01*
X005731Y001482D02*
X005618Y001368D01*
X005731Y001255D01*
X005958Y001255D01*
X011618Y001306D02*
X011731Y001419D01*
X011958Y001419D01*
X011731Y001193D02*
X011618Y001306D01*
X011731Y001193D02*
X011958Y001193D01*
X011901Y001561D02*
X011958Y001618D01*
X011958Y001731D01*
X011901Y001788D01*
X011844Y001788D01*
X011618Y001561D01*
X011618Y001788D01*
X017618Y001731D02*
X017618Y001618D01*
X017674Y001561D01*
X017901Y001561D02*
X017958Y001618D01*
X017958Y001731D01*
X017901Y001788D01*
X017844Y001788D01*
X017788Y001731D01*
X017731Y001788D01*
X017674Y001788D01*
X017618Y001731D01*
X017788Y001731D02*
X017788Y001674D01*
X017731Y001419D02*
X017958Y001419D01*
X017731Y001419D02*
X017618Y001306D01*
X017731Y001193D01*
X017958Y001193D01*
X023618Y001306D02*
X023731Y001193D01*
X023958Y001193D01*
X023731Y001419D02*
X023618Y001306D01*
X023731Y001419D02*
X023958Y001419D01*
X023788Y001561D02*
X023788Y001788D01*
X023618Y001731D02*
X023958Y001731D01*
X023788Y001561D01*
X029618Y001618D02*
X029674Y001561D01*
X029788Y001561D02*
X029844Y001674D01*
X029844Y001731D01*
X029788Y001788D01*
X029674Y001788D01*
X029618Y001731D01*
X029618Y001618D01*
X029788Y001561D02*
X029958Y001561D01*
X029958Y001788D01*
X033618Y001846D02*
X033958Y001846D01*
X033958Y001619D02*
X033618Y001846D01*
X035368Y001731D02*
X035424Y001788D01*
X035481Y001788D01*
X035538Y001731D01*
X035538Y001561D01*
X035424Y001561D01*
X035368Y001618D01*
X035368Y001731D01*
X035538Y001561D02*
X035651Y001674D01*
X035708Y001788D01*
X033958Y001619D02*
X033618Y001619D01*
X033618Y001487D02*
X033618Y001373D01*
X033958Y001373D02*
X033958Y001487D01*
X033958Y001430D02*
X033618Y001430D01*
X035368Y001306D02*
X035481Y001419D01*
X035708Y001419D01*
X035481Y001193D02*
X035368Y001306D01*
X033958Y001232D02*
X033731Y001232D01*
X033618Y001118D01*
X033731Y001005D01*
X033958Y001005D01*
X035481Y001193D02*
X035708Y001193D01*
X029958Y001193D02*
X029731Y001193D01*
X029618Y001306D01*
X029731Y001419D01*
X029958Y001419D01*
D12*
X023000Y001375D02*
X023000Y001645D01*
X022820Y001645D01*
X022705Y001645D02*
X022705Y001375D01*
X022525Y001375D02*
X022525Y001645D01*
X022411Y001645D02*
X022321Y001645D01*
X022366Y001645D02*
X022366Y001375D01*
X022411Y001375D02*
X022321Y001375D01*
X021920Y001465D02*
X021830Y001375D01*
X021723Y001420D02*
X021678Y001375D01*
X021588Y001375D01*
X021543Y001420D01*
X021723Y001420D02*
X021723Y001600D01*
X021678Y001645D01*
X021588Y001645D01*
X021543Y001600D01*
X021429Y001645D02*
X021338Y001555D01*
X021338Y001465D01*
X021429Y001375D01*
X020937Y001375D02*
X020757Y001555D01*
X020757Y001600D01*
X020802Y001645D01*
X020892Y001645D01*
X020937Y001600D01*
X020643Y001600D02*
X020598Y001645D01*
X020508Y001645D01*
X020463Y001600D01*
X020643Y001420D01*
X020598Y001375D01*
X020508Y001375D01*
X020463Y001420D01*
X020463Y001600D01*
X020348Y001555D02*
X020258Y001645D01*
X020258Y001375D01*
X020348Y001375D02*
X020168Y001375D01*
X019918Y001375D02*
X019918Y001645D01*
X020053Y001510D01*
X019873Y001510D01*
X020643Y001420D02*
X020643Y001600D01*
X021830Y001645D02*
X021920Y001555D01*
X021920Y001465D01*
X022525Y001510D02*
X022705Y001510D01*
X022910Y001510D02*
X023000Y001510D01*
X020937Y001375D02*
X020757Y001375D01*
X017125Y001375D02*
X016945Y001375D01*
X016830Y001375D02*
X016650Y001375D01*
X016536Y001375D02*
X016401Y001375D01*
X016356Y001420D01*
X016356Y001600D01*
X016401Y001645D01*
X016536Y001645D01*
X016536Y001375D01*
X016830Y001375D02*
X016830Y001645D01*
X016650Y001645D01*
X017125Y001645D02*
X017125Y001375D01*
X015946Y001420D02*
X015901Y001375D01*
X015811Y001375D01*
X015766Y001420D01*
X015766Y001465D01*
X015811Y001510D01*
X015901Y001510D01*
X015946Y001555D01*
X015946Y001600D01*
X015901Y001645D01*
X015811Y001645D01*
X015766Y001600D01*
X015652Y001645D02*
X015472Y001645D01*
X015562Y001645D02*
X015562Y001375D01*
X015357Y001375D02*
X015357Y001645D01*
X015222Y001645D01*
X015177Y001600D01*
X015177Y001510D01*
X015222Y001465D01*
X015357Y001465D01*
X015267Y001465D02*
X015177Y001375D01*
X015062Y001375D02*
X014972Y001375D01*
X015017Y001375D02*
X015017Y001645D01*
X015062Y001645D02*
X014972Y001645D01*
X014866Y001645D02*
X014731Y001645D01*
X014686Y001600D01*
X014686Y001510D01*
X014731Y001465D01*
X014866Y001465D01*
X013687Y001420D02*
X013642Y001420D01*
X013642Y001375D01*
X013687Y001375D01*
X013687Y001420D01*
X013802Y001375D02*
X013982Y001375D01*
X013892Y001375D02*
X013892Y001645D01*
X013982Y001555D01*
X014097Y001555D02*
X014187Y001375D01*
X014277Y001555D01*
X013540Y001555D02*
X013450Y001645D01*
X013450Y001375D01*
X013540Y001375D02*
X013360Y001375D01*
X014866Y001375D02*
X014866Y001645D01*
X016740Y001510D02*
X016830Y001510D01*
D13*
X026910Y001245D02*
X026933Y001231D01*
X026957Y001220D01*
X026983Y001213D01*
X027009Y001209D01*
X027036Y001208D01*
X027062Y001211D01*
X027088Y001217D01*
X027113Y001226D01*
X027137Y001239D01*
X027159Y001254D01*
X027178Y001272D01*
X027196Y001293D01*
X027210Y001315D01*
X027221Y001339D01*
X027230Y001365D01*
X026828Y001475D02*
X026830Y001515D01*
X026836Y001555D01*
X026846Y001595D01*
X026859Y001633D01*
X026877Y001669D01*
X026897Y001704D01*
X026922Y001736D01*
X026949Y001766D01*
X026979Y001793D01*
X027011Y001818D01*
X027046Y001838D01*
X027082Y001856D01*
X027120Y001869D01*
X027160Y001879D01*
X027200Y001885D01*
X027240Y001887D01*
X027280Y001885D01*
X027320Y001879D01*
X027360Y001869D01*
X027398Y001856D01*
X027434Y001838D01*
X027469Y001818D01*
X027501Y001793D01*
X027531Y001766D01*
X027558Y001736D01*
X027583Y001704D01*
X027603Y001669D01*
X027621Y001633D01*
X027634Y001595D01*
X027644Y001555D01*
X027650Y001515D01*
X027652Y001475D01*
X027650Y001435D01*
X027644Y001395D01*
X027634Y001355D01*
X027621Y001317D01*
X027603Y001281D01*
X027583Y001246D01*
X027558Y001214D01*
X027531Y001184D01*
X027501Y001157D01*
X027469Y001132D01*
X027434Y001112D01*
X027398Y001094D01*
X027360Y001081D01*
X027320Y001071D01*
X027280Y001065D01*
X027240Y001063D01*
X027200Y001065D01*
X027160Y001071D01*
X027120Y001081D01*
X027082Y001094D01*
X027046Y001112D01*
X027011Y001132D01*
X026979Y001157D01*
X026949Y001184D01*
X026922Y001214D01*
X026897Y001246D01*
X026877Y001281D01*
X026859Y001317D01*
X026846Y001355D01*
X026836Y001395D01*
X026830Y001435D01*
X026828Y001475D01*
X027650Y001475D02*
X028150Y000975D01*
X028150Y001275D01*
X028050Y001275D01*
X028150Y001275D02*
X028150Y001475D01*
X028050Y001475D01*
X028150Y001475D02*
X028150Y001675D01*
X028060Y001675D01*
X028150Y001675D02*
X028150Y001975D01*
X027650Y001475D01*
X027036Y001615D02*
X027038Y001630D01*
X027043Y001645D01*
X027052Y001657D01*
X027064Y001668D01*
X027077Y001675D01*
X027092Y001679D01*
X027108Y001679D01*
X027123Y001675D01*
X027136Y001668D01*
X027148Y001657D01*
X027157Y001645D01*
X027162Y001630D01*
X027164Y001615D01*
X027162Y001600D01*
X027157Y001585D01*
X027148Y001573D01*
X027136Y001562D01*
X027123Y001555D01*
X027108Y001551D01*
X027092Y001551D01*
X027077Y001555D01*
X027064Y001562D01*
X027052Y001573D01*
X027043Y001585D01*
X027038Y001600D01*
X027036Y001615D01*
M02*
