G75*
G70*
%OFA0B0*%
%FSLAX25Y25*%
%IPPOS*%
%LPD*%
%AMOC8*
5,1,8,0,0,1.08239X$1,22.5*
%
%ADD11C,0.01000*%
%ADD12C,0.04700*%
X0010000Y0010000D02*
G75*
%LPD*%
D11*
X0010000Y0010000D02*
X0010000Y0024960D01*
X0372500Y0024960D01*
X0372500Y0010000D01*
X0010000Y0010000D01*
D12*
X0014380Y0013750D03*
X0071250Y0013750D03*
X0131250Y0013750D03*
X0191250Y0013750D03*
X0251250Y0013750D03*
X0311250Y0013750D03*
X0351250Y0013750D03*
X0368750Y0013750D03*
X0368750Y0021250D03*
X0351250Y0021250D03*
X0311250Y0021250D03*
X0251250Y0021250D03*
X0191250Y0021250D03*
X0131250Y0021250D03*
X0071250Y0021250D03*
X0014380Y0021250D03*
X0010000Y0032460D02*
G75*
%LPD*%
D11*
X0010000Y0032460D02*
X0010000Y0047420D01*
X0372500Y0047420D01*
X0372500Y0032460D01*
X0010000Y0032460D01*
D12*
X0014380Y0036210D03*
X0071250Y0036210D03*
X0131250Y0036210D03*
X0191250Y0036210D03*
X0251250Y0036210D03*
X0311250Y0036210D03*
X0351250Y0036210D03*
X0368750Y0036210D03*
X0368750Y0043710D03*
X0351250Y0043710D03*
X0311250Y0043710D03*
X0251250Y0043710D03*
X0191250Y0043710D03*
X0131250Y0043710D03*
X0071250Y0043710D03*
X0014380Y0043710D03*
X0010000Y0054920D02*
G75*
%LPD*%
D11*
X0010000Y0054920D02*
X0010000Y0069880D01*
X0372500Y0069880D01*
X0372500Y0054920D01*
X0010000Y0054920D01*
D12*
X0014380Y0058670D03*
X0071250Y0058670D03*
X0131250Y0058670D03*
X0191250Y0058670D03*
X0251250Y0058670D03*
X0311250Y0058670D03*
X0351250Y0058670D03*
X0368750Y0058670D03*
X0368750Y0066170D03*
X0351250Y0066170D03*
X0311250Y0066170D03*
X0251250Y0066170D03*
X0191250Y0066170D03*
X0131250Y0066170D03*
X0071250Y0066170D03*
X0014380Y0066170D03*
X0010000Y0077380D02*
G75*
%LPD*%
D11*
X0010000Y0077380D02*
X0010000Y0092340D01*
X0372500Y0092340D01*
X0372500Y0077380D01*
X0010000Y0077380D01*
D12*
X0014380Y0081130D03*
X0071250Y0081130D03*
X0131250Y0081130D03*
X0191250Y0081130D03*
X0251250Y0081130D03*
X0311250Y0081130D03*
X0351250Y0081130D03*
X0368750Y0081130D03*
X0368750Y0088630D03*
X0351250Y0088630D03*
X0311250Y0088630D03*
X0251250Y0088630D03*
X0191250Y0088630D03*
X0131250Y0088630D03*
X0071250Y0088630D03*
X0014380Y0088630D03*
X0010000Y0099840D02*
G75*
%LPD*%
D11*
X0010000Y0099840D02*
X0010000Y0114800D01*
X0372500Y0114800D01*
X0372500Y0099840D01*
X0010000Y0099840D01*
D12*
X0014380Y0103590D03*
X0071250Y0103590D03*
X0131250Y0103590D03*
X0191250Y0103590D03*
X0251250Y0103590D03*
X0311250Y0103590D03*
X0351250Y0103590D03*
X0368750Y0103590D03*
X0368750Y0111090D03*
X0351250Y0111090D03*
X0311250Y0111090D03*
X0251250Y0111090D03*
X0191250Y0111090D03*
X0131250Y0111090D03*
X0071250Y0111090D03*
X0014380Y0111090D03*
X0010000Y0122300D02*
G75*
%LPD*%
D11*
X0010000Y0122300D02*
X0010000Y0137260D01*
X0372500Y0137260D01*
X0372500Y0122300D01*
X0010000Y0122300D01*
D12*
X0014380Y0126050D03*
X0071250Y0126050D03*
X0131250Y0126050D03*
X0191250Y0126050D03*
X0251250Y0126050D03*
X0311250Y0126050D03*
X0351250Y0126050D03*
X0368750Y0126050D03*
X0368750Y0133550D03*
X0351250Y0133550D03*
X0311250Y0133550D03*
X0251250Y0133550D03*
X0191250Y0133550D03*
X0131250Y0133550D03*
X0071250Y0133550D03*
X0014380Y0133550D03*
X0010000Y0144760D02*
G75*
%LPD*%
D11*
X0010000Y0144760D02*
X0010000Y0159720D01*
X0372500Y0159720D01*
X0372500Y0144760D01*
X0010000Y0144760D01*
D12*
X0014380Y0148510D03*
X0071250Y0148510D03*
X0131250Y0148510D03*
X0191250Y0148510D03*
X0251250Y0148510D03*
X0311250Y0148510D03*
X0351250Y0148510D03*
X0368750Y0148510D03*
X0368750Y0156010D03*
X0351250Y0156010D03*
X0311250Y0156010D03*
X0251250Y0156010D03*
X0191250Y0156010D03*
X0131250Y0156010D03*
X0071250Y0156010D03*
X0014380Y0156010D03*
X0010000Y0167220D02*
G75*
%LPD*%
D11*
X0010000Y0167220D02*
X0010000Y0182180D01*
X0372500Y0182180D01*
X0372500Y0167220D01*
X0010000Y0167220D01*
D12*
X0014380Y0170970D03*
X0071250Y0170970D03*
X0131250Y0170970D03*
X0191250Y0170970D03*
X0251250Y0170970D03*
X0311250Y0170970D03*
X0351250Y0170970D03*
X0368750Y0170970D03*
X0368750Y0178470D03*
X0351250Y0178470D03*
X0311250Y0178470D03*
X0251250Y0178470D03*
X0191250Y0178470D03*
X0131250Y0178470D03*
X0071250Y0178470D03*
X0014380Y0178470D03*
X0010000Y0189680D02*
G75*
%LPD*%
D11*
X0010000Y0189680D02*
X0010000Y0204640D01*
X0372500Y0204640D01*
X0372500Y0189680D01*
X0010000Y0189680D01*
D12*
X0014380Y0193430D03*
X0071250Y0193430D03*
X0131250Y0193430D03*
X0191250Y0193430D03*
X0251250Y0193430D03*
X0311250Y0193430D03*
X0351250Y0193430D03*
X0368750Y0193430D03*
X0368750Y0200930D03*
X0351250Y0200930D03*
X0311250Y0200930D03*
X0251250Y0200930D03*
X0191250Y0200930D03*
X0131250Y0200930D03*
X0071250Y0200930D03*
X0014380Y0200930D03*
X0010000Y0212140D02*
G75*
%LPD*%
D11*
X0010000Y0212140D02*
X0010000Y0227100D01*
X0372500Y0227100D01*
X0372500Y0212140D01*
X0010000Y0212140D01*
D12*
X0014380Y0215890D03*
X0071250Y0215890D03*
X0131250Y0215890D03*
X0191250Y0215890D03*
X0251250Y0215890D03*
X0311250Y0215890D03*
X0351250Y0215890D03*
X0368750Y0215890D03*
X0368750Y0223390D03*
X0351250Y0223390D03*
X0311250Y0223390D03*
X0251250Y0223390D03*
X0191250Y0223390D03*
X0131250Y0223390D03*
X0071250Y0223390D03*
X0014380Y0223390D03*
X0010000Y0234600D02*
G75*
%LPD*%
D11*
X0010000Y0234600D02*
X0010000Y0249560D01*
X0372500Y0249560D01*
X0372500Y0234600D01*
X0010000Y0234600D01*
D12*
X0014380Y0238350D03*
X0071250Y0238350D03*
X0131250Y0238350D03*
X0191250Y0238350D03*
X0251250Y0238350D03*
X0311250Y0238350D03*
X0351250Y0238350D03*
X0368750Y0238350D03*
X0368750Y0245850D03*
X0351250Y0245850D03*
X0311250Y0245850D03*
X0251250Y0245850D03*
X0191250Y0245850D03*
X0131250Y0245850D03*
X0071250Y0245850D03*
X0014380Y0245850D03*
X0010000Y0257060D02*
G75*
%LPD*%
D11*
X0010000Y0257060D02*
X0010000Y0272020D01*
X0372500Y0272020D01*
X0372500Y0257060D01*
X0010000Y0257060D01*
D12*
X0014380Y0260810D03*
X0071250Y0260810D03*
X0131250Y0260810D03*
X0191250Y0260810D03*
X0251250Y0260810D03*
X0311250Y0260810D03*
X0351250Y0260810D03*
X0368750Y0260810D03*
X0368750Y0268310D03*
X0351250Y0268310D03*
X0311250Y0268310D03*
X0251250Y0268310D03*
X0191250Y0268310D03*
X0131250Y0268310D03*
X0071250Y0268310D03*
X0014380Y0268310D03*
X0010000Y0279520D02*
G75*
%LPD*%
D11*
X0010000Y0279520D02*
X0010000Y0294480D01*
X0372500Y0294480D01*
X0372500Y0279520D01*
X0010000Y0279520D01*
D12*
X0014380Y0283270D03*
X0071250Y0283270D03*
X0131250Y0283270D03*
X0191250Y0283270D03*
X0251250Y0283270D03*
X0311250Y0283270D03*
X0351250Y0283270D03*
X0368750Y0283270D03*
X0368750Y0290770D03*
X0351250Y0290770D03*
X0311250Y0290770D03*
X0251250Y0290770D03*
X0191250Y0290770D03*
X0131250Y0290770D03*
X0071250Y0290770D03*
X0014380Y0290770D03*
X0010000Y0301980D02*
G75*
%LPD*%
D11*
X0010000Y0301980D02*
X0010000Y0316940D01*
X0372500Y0316940D01*
X0372500Y0301980D01*
X0010000Y0301980D01*
D12*
X0014380Y0305730D03*
X0071250Y0305730D03*
X0131250Y0305730D03*
X0191250Y0305730D03*
X0251250Y0305730D03*
X0311250Y0305730D03*
X0351250Y0305730D03*
X0368750Y0305730D03*
X0368750Y0313230D03*
X0351250Y0313230D03*
X0311250Y0313230D03*
X0251250Y0313230D03*
X0191250Y0313230D03*
X0131250Y0313230D03*
X0071250Y0313230D03*
X0014380Y0313230D03*
X0010000Y0324440D02*
G75*
%LPD*%
D11*
X0010000Y0324440D02*
X0010000Y0339400D01*
X0372500Y0339400D01*
X0372500Y0324440D01*
X0010000Y0324440D01*
D12*
X0014380Y0328190D03*
X0071250Y0328190D03*
X0131250Y0328190D03*
X0191250Y0328190D03*
X0251250Y0328190D03*
X0311250Y0328190D03*
X0351250Y0328190D03*
X0368750Y0328190D03*
X0368750Y0335690D03*
X0351250Y0335690D03*
X0311250Y0335690D03*
X0251250Y0335690D03*
X0191250Y0335690D03*
X0131250Y0335690D03*
X0071250Y0335690D03*
X0014380Y0335690D03*
X0010000Y0346900D02*
G75*
%LPD*%
D11*
X0010000Y0346900D02*
X0010000Y0361860D01*
X0372500Y0361860D01*
X0372500Y0346900D01*
X0010000Y0346900D01*
D12*
X0014380Y0350650D03*
X0071250Y0350650D03*
X0131250Y0350650D03*
X0191250Y0350650D03*
X0251250Y0350650D03*
X0311250Y0350650D03*
X0351250Y0350650D03*
X0368750Y0350650D03*
X0368750Y0358150D03*
X0351250Y0358150D03*
X0311250Y0358150D03*
X0251250Y0358150D03*
X0191250Y0358150D03*
X0131250Y0358150D03*
X0071250Y0358150D03*
X0014380Y0358150D03*
M02*
