%
T01C0.021350
X31125Y1375
X35125Y1375
X36875Y1375
X36875Y2125
X35125Y2125
X31125Y2125
X25125Y2125
X19125Y2125
X13125Y2125
X7125Y2125
X1438Y2125
X1438Y1375
X7125Y1375
X13125Y1375
X19125Y1375
X25125Y1375
X8125Y1313
X14125Y1313
X20125Y1313
X26125Y1313
X32125Y1313
X31125Y3621
X35125Y3621
X36875Y3621
X36875Y4371
X35125Y4371
X31125Y4371
X25125Y4371
X19125Y4371
X13125Y4371
X7125Y4371
X1438Y4371
X1438Y3621
X7125Y3621
X13125Y3621
X19125Y3621
X25125Y3621
X8125Y3559
X14125Y3559
X20125Y3559
X26125Y3559
X32125Y3559
X31125Y5867
X35125Y5867
X36875Y5867
X36875Y6617
X35125Y6617
X31125Y6617
X25125Y6617
X19125Y6617
X13125Y6617
X7125Y6617
X1438Y6617
X1438Y5867
X7125Y5867
X13125Y5867
X19125Y5867
X25125Y5867
X8125Y5805
X14125Y5805
X20125Y5805
X26125Y5805
X32125Y5805
X31125Y8113
X35125Y8113
X36875Y8113
X36875Y8863
X35125Y8863
X31125Y8863
X25125Y8863
X19125Y8863
X13125Y8863
X7125Y8863
X1438Y8863
X1438Y8113
X7125Y8113
X13125Y8113
X19125Y8113
X25125Y8113
X8125Y8051
X14125Y8051
X20125Y8051
X26125Y8051
X32125Y8051
X31125Y10359
X35125Y10359
X36875Y10359
X36875Y11109
X35125Y11109
X31125Y11109
X25125Y11109
X19125Y11109
X13125Y11109
X7125Y11109
X1438Y11109
X1438Y10359
X7125Y10359
X13125Y10359
X19125Y10359
X25125Y10359
X8125Y10297
X14125Y10297
X20125Y10297
X26125Y10297
X32125Y10297
X31125Y12605
X35125Y12605
X36875Y12605
X36875Y13355
X35125Y13355
X31125Y13355
X25125Y13355
X19125Y13355
X13125Y13355
X7125Y13355
X1438Y13355
X1438Y12605
X7125Y12605
X13125Y12605
X19125Y12605
X25125Y12605
X8125Y12543
X14125Y12543
X20125Y12543
X26125Y12543
X32125Y12543
X31125Y14851
X35125Y14851
X36875Y14851
X36875Y15601
X35125Y15601
X31125Y15601
X25125Y15601
X19125Y15601
X13125Y15601
X7125Y15601
X1438Y15601
X1438Y14851
X7125Y14851
X13125Y14851
X19125Y14851
X25125Y14851
X8125Y14789
X14125Y14789
X20125Y14789
X26125Y14789
X32125Y14789
X31125Y17097
X35125Y17097
X36875Y17097
X36875Y17847
X35125Y17847
X31125Y17847
X25125Y17847
X19125Y17847
X13125Y17847
X7125Y17847
X1438Y17847
X1438Y17097
X7125Y17097
X13125Y17097
X19125Y17097
X25125Y17097
X8125Y17035
X14125Y17035
X20125Y17035
X26125Y17035
X32125Y17035
X31125Y19343
X35125Y19343
X36875Y19343
X36875Y20093
X35125Y20093
X31125Y20093
X25125Y20093
X19125Y20093
X13125Y20093
X7125Y20093
X1438Y20093
X1438Y19343
X7125Y19343
X13125Y19343
X19125Y19343
X25125Y19343
X8125Y19281
X14125Y19281
X20125Y19281
X26125Y19281
X32125Y19281
X31125Y21589
X35125Y21589
X36875Y21589
X36875Y22339
X35125Y22339
X31125Y22339
X25125Y22339
X19125Y22339
X13125Y22339
X7125Y22339
X1438Y22339
X1438Y21589
X7125Y21589
X13125Y21589
X19125Y21589
X25125Y21589
X8125Y21527
X14125Y21527
X20125Y21527
X26125Y21527
X32125Y21527
X31125Y23835
X35125Y23835
X36875Y23835
X36875Y24585
X35125Y24585
X31125Y24585
X25125Y24585
X19125Y24585
X13125Y24585
X7125Y24585
X1438Y24585
X1438Y23835
X7125Y23835
X13125Y23835
X19125Y23835
X25125Y23835
X8125Y23773
X14125Y23773
X20125Y23773
X26125Y23773
X32125Y23773
X31125Y26081
X35125Y26081
X36875Y26081
X36875Y26831
X35125Y26831
X31125Y26831
X25125Y26831
X19125Y26831
X13125Y26831
X7125Y26831
X1438Y26831
X1438Y26081
X7125Y26081
X13125Y26081
X19125Y26081
X25125Y26081
X8125Y26019
X14125Y26019
X20125Y26019
X26125Y26019
X32125Y26019
X31125Y28327
X35125Y28327
X36875Y28327
X36875Y29077
X35125Y29077
X31125Y29077
X25125Y29077
X19125Y29077
X13125Y29077
X7125Y29077
X1438Y29077
X1438Y28327
X7125Y28327
X13125Y28327
X19125Y28327
X25125Y28327
X8125Y28265
X14125Y28265
X20125Y28265
X26125Y28265
X32125Y28265
X31125Y30573
X35125Y30573
X36875Y30573
X36875Y31323
X35125Y31323
X31125Y31323
X25125Y31323
X19125Y31323
X13125Y31323
X7125Y31323
X1438Y31323
X1438Y30573
X7125Y30573
X13125Y30573
X19125Y30573
X25125Y30573
X8125Y30511
X14125Y30511
X20125Y30511
X26125Y30511
X32125Y30511
X31125Y32819
X35125Y32819
X36875Y32819
X36875Y33569
X35125Y33569
X31125Y33569
X25125Y33569
X19125Y33569
X13125Y33569
X7125Y33569
X1438Y33569
X1438Y32819
X7125Y32819
X13125Y32819
X19125Y32819
X25125Y32819
X8125Y32757
X14125Y32757
X20125Y32757
X26125Y32757
X32125Y32757
X31125Y35065
X35125Y35065
X36875Y35065
X36875Y35815
X35125Y35815
X31125Y35815
X25125Y35815
X19125Y35815
X13125Y35815
X7125Y35815
X1438Y35815
X1438Y35065
X7125Y35065
X13125Y35065
X19125Y35065
X25125Y35065
X8125Y35003
X14125Y35003
X20125Y35003
X26125Y35003
X32125Y35003
M30
