G75*
G70*
%OFA0B0*%
%FSLAX25Y25*%
%IPPOS*%
%LPD*%
%AMOC8*
5,1,8,0,0,1.08239X$1,22.5*
%
%ADD11C,0.01000*%
X0010000Y0010000D02*
G75*
%LPD*%
D11*
X0010000Y0010000D02*
X0010000Y0024960D01*
X0372500Y0024960D01*
X0372500Y0010000D01*
X0010000Y0010000D01*
X0010000Y0032460D02*
G75*
%LPD*%
D11*
X0010000Y0032460D02*
X0010000Y0047420D01*
X0372500Y0047420D01*
X0372500Y0032460D01*
X0010000Y0032460D01*
X0010000Y0054920D02*
G75*
%LPD*%
D11*
X0010000Y0054920D02*
X0010000Y0069880D01*
X0372500Y0069880D01*
X0372500Y0054920D01*
X0010000Y0054920D01*
X0010000Y0077380D02*
G75*
%LPD*%
D11*
X0010000Y0077380D02*
X0010000Y0092340D01*
X0372500Y0092340D01*
X0372500Y0077380D01*
X0010000Y0077380D01*
X0010000Y0099840D02*
G75*
%LPD*%
D11*
X0010000Y0099840D02*
X0010000Y0114800D01*
X0372500Y0114800D01*
X0372500Y0099840D01*
X0010000Y0099840D01*
X0010000Y0122300D02*
G75*
%LPD*%
D11*
X0010000Y0122300D02*
X0010000Y0137260D01*
X0372500Y0137260D01*
X0372500Y0122300D01*
X0010000Y0122300D01*
X0010000Y0144760D02*
G75*
%LPD*%
D11*
X0010000Y0144760D02*
X0010000Y0159720D01*
X0372500Y0159720D01*
X0372500Y0144760D01*
X0010000Y0144760D01*
X0010000Y0167220D02*
G75*
%LPD*%
D11*
X0010000Y0167220D02*
X0010000Y0182180D01*
X0372500Y0182180D01*
X0372500Y0167220D01*
X0010000Y0167220D01*
X0010000Y0189680D02*
G75*
%LPD*%
D11*
X0010000Y0189680D02*
X0010000Y0204640D01*
X0372500Y0204640D01*
X0372500Y0189680D01*
X0010000Y0189680D01*
X0010000Y0212140D02*
G75*
%LPD*%
D11*
X0010000Y0212140D02*
X0010000Y0227100D01*
X0372500Y0227100D01*
X0372500Y0212140D01*
X0010000Y0212140D01*
X0010000Y0234600D02*
G75*
%LPD*%
D11*
X0010000Y0234600D02*
X0010000Y0249560D01*
X0372500Y0249560D01*
X0372500Y0234600D01*
X0010000Y0234600D01*
X0010000Y0257060D02*
G75*
%LPD*%
D11*
X0010000Y0257060D02*
X0010000Y0272020D01*
X0372500Y0272020D01*
X0372500Y0257060D01*
X0010000Y0257060D01*
X0010000Y0279520D02*
G75*
%LPD*%
D11*
X0010000Y0279520D02*
X0010000Y0294480D01*
X0372500Y0294480D01*
X0372500Y0279520D01*
X0010000Y0279520D01*
X0010000Y0301980D02*
G75*
%LPD*%
D11*
X0010000Y0301980D02*
X0010000Y0316940D01*
X0372500Y0316940D01*
X0372500Y0301980D01*
X0010000Y0301980D01*
X0010000Y0324440D02*
G75*
%LPD*%
D11*
X0010000Y0324440D02*
X0010000Y0339400D01*
X0372500Y0339400D01*
X0372500Y0324440D01*
X0010000Y0324440D01*
X0010000Y0346900D02*
G75*
%LPD*%
D11*
X0010000Y0346900D02*
X0010000Y0361860D01*
X0372500Y0361860D01*
X0372500Y0346900D01*
X0010000Y0346900D01*
M02*
