G75*
%MOIN*%
%OFA0B0*%
%FSLAX24Y24*%
%IPPOS*%
%LPD*%
%AMOC8*
5,1,8,0,0,1.08239X$1,22.5*
%
%ADD10C,0.0100*%
%ADD11C,0.0430*%
%ADD12C,0.0317*%
%ADD13C,0.0120*%
D10*
X000150Y000725D02*
X000150Y002221D01*
X036400Y002221D01*
X036400Y000725D01*
X000150Y000725D01*
D11*
X000588Y001100D03*
X006275Y001100D03*
X012275Y001100D03*
X018275Y001100D03*
X024275Y001100D03*
X030275Y001100D03*
X034275Y001100D03*
X036025Y001100D03*
X036025Y001850D03*
X034275Y001850D03*
X030275Y001850D03*
X024275Y001850D03*
X018275Y001850D03*
X012275Y001850D03*
X006275Y001850D03*
X000588Y001850D03*
D12*
X007275Y001038D03*
X013275Y001038D03*
X019275Y001038D03*
X025275Y001038D03*
X031275Y001038D03*
D13*
X031775Y001475D01*
X033963Y001475D01*
X034275Y001788D01*
X034275Y001850D01*
X033963Y001475D02*
X034275Y001100D01*
X031275Y001038D02*
X030775Y001475D01*
X025775Y001475D01*
X025275Y001038D01*
X024775Y001475D01*
X019775Y001475D01*
X019275Y001038D01*
X018775Y001475D01*
X013775Y001475D01*
X013275Y001038D01*
X012775Y001475D01*
X007775Y001475D01*
X007275Y001038D01*
X006775Y001475D01*
X000963Y001475D01*
X000588Y001100D01*
M02*
