G75*
%MOIN*%
%OFA0B0*%
%FSLAX24Y24*%
%IPPOS*%
%LPD*%
%AMOC8*
5,1,8,0,0,1.08239X$1,22.5*
%
%ADD10C,0.0000*%
%ADD11R,0.0472X0.0472*%
%ADD12C,0.0397*%
%ADD13C,0.0060*%
%ADD14C,0.0317*%
D10*
X002392Y002517D02*
X002392Y011017D01*
X008892Y011017D01*
X008892Y002517D01*
X002392Y002517D01*
D11*
X002978Y003204D03*
X003805Y003204D03*
X003805Y004204D03*
X002978Y004204D03*
X002978Y005204D03*
X003805Y005204D03*
X003805Y006204D03*
X002978Y006204D03*
X002978Y007204D03*
X003805Y007204D03*
X003805Y008204D03*
X002978Y008204D03*
X002978Y009204D03*
X003805Y009204D03*
X004392Y009041D03*
X005017Y009118D03*
X004392Y009868D03*
X003805Y010204D03*
X002978Y010204D03*
X005017Y008291D03*
X005642Y008368D03*
X006267Y008291D03*
X006267Y009118D03*
X006892Y009103D03*
X007478Y009204D03*
X006892Y009930D03*
X007478Y010204D03*
X008305Y010204D03*
X008305Y009204D03*
X008305Y008204D03*
X007478Y008204D03*
X007478Y007204D03*
X008305Y007204D03*
X008305Y006204D03*
X007478Y006204D03*
X007478Y005204D03*
X008305Y005204D03*
X008305Y004204D03*
X007478Y004204D03*
X007478Y003204D03*
X008305Y003204D03*
X005642Y007541D03*
D12*
X003767Y007892D03*
X003767Y008517D03*
X004329Y010204D03*
X004704Y010204D03*
X006017Y009454D03*
X006392Y009454D03*
X008267Y009517D03*
X008267Y008892D03*
X008267Y006517D03*
X008267Y005892D03*
X008267Y003517D03*
X008267Y002892D03*
X003767Y004892D03*
X003767Y005517D03*
X003017Y003517D03*
X003017Y002892D03*
D13*
X003017Y003166D01*
X002978Y003204D01*
X003017Y003243D01*
X003017Y003517D01*
X002978Y004031D02*
X003805Y003204D01*
X002978Y004031D02*
X002978Y004204D01*
X002978Y005031D02*
X003805Y004204D01*
X003767Y004892D02*
X003767Y005166D01*
X003805Y005204D01*
X003767Y005243D01*
X003767Y005517D01*
X003805Y006204D02*
X002978Y007031D01*
X002978Y007204D01*
X002978Y008031D02*
X003805Y007204D01*
X003767Y007892D02*
X003767Y008166D01*
X003805Y008204D01*
X003767Y008243D01*
X003767Y008517D01*
X004392Y009041D02*
X004392Y009267D01*
X003805Y009853D01*
X003805Y010204D01*
X004329Y010204D02*
X004329Y009930D01*
X004392Y009868D01*
X004704Y010180D01*
X004704Y010204D01*
X003805Y009204D02*
X002978Y010031D01*
X002978Y010204D01*
X002978Y009204D02*
X003329Y009204D01*
X002978Y008204D02*
X002978Y008031D01*
X002978Y006204D02*
X003329Y006204D01*
X002978Y005204D02*
X002978Y005031D01*
X005642Y007541D02*
X005642Y007892D01*
X005642Y008368D02*
X006190Y008368D01*
X006267Y008291D01*
X006267Y009118D02*
X006392Y009243D01*
X006392Y009454D01*
X006267Y009118D02*
X006017Y009368D01*
X006017Y009454D01*
X006892Y009454D02*
X006892Y009103D01*
X007478Y009204D02*
X007478Y009377D01*
X008305Y010204D01*
X008267Y009517D02*
X008267Y009243D01*
X008305Y009204D01*
X008267Y009166D01*
X008267Y008892D01*
X008305Y008204D02*
X007478Y007377D01*
X007478Y007204D01*
X007478Y006377D02*
X008305Y007204D01*
X008267Y006517D02*
X008267Y006243D01*
X008305Y006204D01*
X008267Y006166D01*
X008267Y005892D01*
X008305Y005204D02*
X007478Y004377D01*
X007478Y004204D01*
X007478Y003377D02*
X008305Y004204D01*
X008267Y003517D02*
X008267Y003243D01*
X008305Y003204D01*
X008267Y003166D01*
X008267Y002892D01*
X007478Y003204D02*
X007478Y003377D01*
X007478Y005204D02*
X007829Y005204D01*
X007478Y006204D02*
X007478Y006377D01*
X007478Y008204D02*
X007829Y008204D01*
X006892Y009930D02*
X007166Y010204D01*
X007478Y010204D01*
X005017Y009118D02*
X005017Y008767D01*
X005017Y008291D02*
X005017Y007954D01*
D14*
X005017Y007954D03*
X005642Y007892D03*
X005017Y008767D03*
X003329Y009204D03*
X003329Y006204D03*
X006892Y009454D03*
X007829Y008204D03*
X007829Y005204D03*
M02*
