%
M48
M72
T01C0.0197
T02C0.0200
%
T01
X3329Y5767
X3642Y8267
X5579Y10204
X7642Y8267
X6892Y6704
X7954Y5767
X8329Y3454
X7829Y3142
X5767Y6704
T02
X2954Y2829
X2954Y3454
X3829Y4579
X3829Y5204
X3704Y7204
X3704Y7829
X4329Y7642
X4704Y7704
X6079Y7642
X6454Y7642
X6517Y8579
X6204Y9017
X5392Y9142
X5079Y9704
X7454Y6954
X7454Y6329
X7454Y4329
X7454Y3704
M30
