G75*
%MOIN*%
%OFA0B0*%
%FSLAX24Y24*%
%IPPOS*%
%LPD*%
%AMOC8*
5,1,8,0,0,1.08239X$1,22.5*
%
%ADD10C,0.0000*%
%ADD11C,0.0397*%
%ADD12C,0.0317*%
%ADD13C,0.0060*%
D10*
X002392Y002517D02*
X002392Y011017D01*
X008892Y011017D01*
X008892Y002517D01*
X002392Y002517D01*
D11*
X002704Y003017D03*
X002704Y003392D03*
X004142Y004517D03*
X004142Y004892D03*
X004267Y006017D03*
X004642Y006017D03*
X003767Y006829D03*
X003767Y007392D03*
X004142Y009329D03*
X004142Y009704D03*
X007142Y009704D03*
X007142Y009329D03*
X007454Y007392D03*
X007454Y006767D03*
X006954Y006017D03*
X006579Y006017D03*
X007142Y004892D03*
X007142Y004517D03*
D12*
X007954Y003954D03*
X007829Y003204D03*
X007954Y006267D03*
X006829Y006829D03*
X006017Y006829D03*
X007954Y008704D03*
X007954Y010329D03*
X004204Y010329D03*
X003329Y010329D03*
X003329Y007892D03*
X003329Y005454D03*
D13*
X003329Y007892D01*
X003767Y007892D01*
X004079Y007579D01*
X004079Y007329D01*
X004579Y006829D01*
X006017Y006829D01*
X006267Y007079D01*
X007892Y007079D01*
X007954Y007017D01*
X007954Y006267D01*
X007954Y003954D01*
X007517Y003517D02*
X007517Y005892D01*
X006829Y006579D01*
X006829Y006829D01*
X006892Y007329D02*
X007329Y007767D01*
X007329Y008829D01*
X007954Y009517D01*
X007954Y010329D01*
X007954Y008704D02*
X007954Y006267D01*
X006892Y007329D02*
X004517Y007329D01*
X003767Y008079D01*
X003767Y010329D01*
X004204Y010329D01*
X003329Y010329D02*
X003329Y007892D01*
X003329Y005454D02*
X003329Y004017D01*
X002704Y003392D01*
X007517Y003517D02*
X007829Y003204D01*
M02*
