G75*
%MOIN*%
%OFA0B0*%
%FSLAX24Y24*%
%IPPOS*%
%LPD*%
%AMOC8*
5,1,8,0,0,1.08239X$1,22.5*
%
%ADD10C,0.0000*%
%ADD11R,0.0472X0.0472*%
%ADD12C,0.0397*%
%ADD13C,0.0060*%
%ADD14C,0.0317*%
D10*
X002392Y002517D02*
X002392Y011017D01*
X008892Y011017D01*
X008892Y002517D01*
X002392Y002517D01*
D11*
X002976Y003196D03*
X002978Y003954D03*
X002978Y004704D03*
X002978Y005454D03*
X002916Y006267D03*
X002916Y007079D03*
X002978Y007892D03*
X002978Y008704D03*
X002978Y009517D03*
X002978Y010329D03*
X003805Y010329D03*
X003805Y009517D03*
X003805Y008704D03*
X003805Y007892D03*
X004392Y007180D03*
X003743Y007079D03*
X003743Y006267D03*
X004392Y006353D03*
X005204Y006353D03*
X006017Y006353D03*
X006838Y006339D03*
X007478Y006267D03*
X007478Y007079D03*
X006838Y007166D03*
X007478Y007892D03*
X007478Y008704D03*
X007478Y009517D03*
X007478Y010329D03*
X008305Y010329D03*
X008305Y009517D03*
X008305Y008704D03*
X008305Y007892D03*
X008305Y007079D03*
X008305Y006267D03*
X008305Y005454D03*
X008305Y004704D03*
X008305Y003954D03*
X008305Y003204D03*
X007478Y003204D03*
X007478Y003954D03*
X007478Y004704D03*
X007478Y005454D03*
X006017Y007180D03*
X005204Y007180D03*
X003805Y005454D03*
X003805Y004704D03*
X003805Y003954D03*
X003803Y003196D03*
D12*
X002704Y003017D03*
X002704Y003392D03*
X004142Y004517D03*
X004142Y004892D03*
X004267Y006017D03*
X004642Y006017D03*
X003767Y006829D03*
X003767Y007392D03*
X004142Y009329D03*
X004142Y009704D03*
X007142Y009704D03*
X007142Y009329D03*
X007454Y007392D03*
X007454Y006767D03*
X006954Y006017D03*
X006579Y006017D03*
X007142Y004892D03*
X007142Y004517D03*
D13*
X007291Y004517D01*
X007478Y004704D01*
X007579Y004805D01*
X007579Y004892D01*
X007142Y004892D01*
X007478Y005454D02*
X007555Y005454D01*
X008305Y004704D01*
X008305Y003954D02*
X007954Y003954D01*
X007555Y003954D02*
X008305Y003204D01*
X007829Y003204D02*
X007478Y003204D01*
X007478Y003954D02*
X007555Y003954D01*
X008305Y005454D02*
X007493Y006267D01*
X007478Y006267D01*
X007954Y006267D02*
X008305Y006267D01*
X008305Y007079D02*
X008204Y007180D01*
X008204Y007329D01*
X007642Y007892D01*
X007478Y007892D01*
X007454Y007392D02*
X007454Y007103D01*
X007478Y007079D01*
X007454Y007055D01*
X007454Y006767D01*
X006838Y007166D02*
X006829Y007157D01*
X006829Y006829D01*
X006838Y006339D02*
X006579Y006080D01*
X006579Y006017D01*
X006954Y006017D02*
X006954Y006222D01*
X006838Y006339D01*
X006017Y006353D02*
X005204Y007166D01*
X005204Y007180D01*
X004392Y007180D02*
X004392Y007166D01*
X005204Y006353D01*
X004642Y006103D02*
X004642Y006017D01*
X004642Y006103D02*
X004392Y006353D01*
X004267Y006228D01*
X004267Y006017D01*
X003743Y006267D02*
X002930Y007079D01*
X002916Y007079D01*
X002916Y006267D02*
X002993Y006267D01*
X003805Y005454D01*
X003329Y005454D02*
X002978Y005454D01*
X002978Y004704D02*
X003055Y004704D01*
X003805Y003954D01*
X003993Y004517D02*
X003805Y004704D01*
X003993Y004892D01*
X004142Y004892D01*
X004142Y004517D02*
X003993Y004517D01*
X003044Y003954D02*
X003803Y003196D01*
X002976Y003196D02*
X002780Y003392D01*
X002704Y003392D01*
X002976Y003196D02*
X002797Y003017D01*
X002704Y003017D01*
X002978Y003954D02*
X003044Y003954D01*
X003767Y006829D02*
X003767Y007055D01*
X003743Y007079D01*
X003767Y007103D01*
X003767Y007392D01*
X003805Y007892D02*
X002993Y008704D01*
X002978Y008704D01*
X002978Y007892D02*
X003329Y007892D01*
X003805Y008704D02*
X002993Y009517D01*
X002978Y009517D01*
X002978Y010329D02*
X003329Y010329D01*
X003805Y010329D02*
X004204Y010329D01*
X004142Y009704D02*
X003993Y009704D01*
X003805Y009517D01*
X003993Y009329D01*
X004142Y009329D01*
X006017Y007180D02*
X006017Y006829D01*
X007478Y008704D02*
X007493Y008704D01*
X008305Y007892D01*
X008305Y008704D02*
X007954Y008704D01*
X007291Y009329D02*
X007478Y009517D01*
X007291Y009704D01*
X007142Y009704D01*
X007142Y009329D02*
X007291Y009329D01*
X007478Y010329D02*
X007493Y010329D01*
X008305Y009517D01*
X008305Y010329D02*
X007954Y010329D01*
D14*
X007954Y010329D03*
X007954Y008704D03*
X006829Y006829D03*
X006017Y006829D03*
X007954Y006267D03*
X007954Y003954D03*
X007829Y003204D03*
X003329Y005454D03*
X003329Y007892D03*
X003329Y010329D03*
X004204Y010329D03*
M02*
