%
M48
M72
T01C0.0197
T02C0.0400
%
T01
X7002Y3910
X8002Y5160
X11752Y4160
X13252Y3910
X13002Y6660
X8752Y9160
X7752Y9160
X8502Y8160
X14752Y13035
X14002Y14035
X13502Y14035
X13002Y14035
X12502Y14035
X12002Y14035
X11502Y14035
X11002Y14035
X10502Y14035
X10502Y14660
X10502Y15285
X11002Y15285
X11502Y15285
X12002Y15285
X12502Y15285
X13002Y15285
X13502Y15285
X14002Y15285
X14002Y14660
X15002Y15910
X14627Y16285
X15752Y15910
X18002Y12660
X19002Y10160
X19002Y9660
X19002Y9160
X18252Y9160
X18252Y8660
X19752Y8160
X19252Y5160
X18252Y3910
X24502Y3910
X27502Y12410
X26002Y13035
X25502Y14035
X25002Y14035
X24502Y14035
X24002Y14035
X23502Y14035
X23002Y14035
X22502Y14035
X22002Y14035
X22002Y14660
X22002Y15285
X22502Y15285
X23002Y15285
X23502Y15285
X24002Y15285
X24502Y15285
X25002Y15285
X25502Y15285
X25502Y14660
X26502Y15660
X27127Y15660
X26002Y16160
X26002Y16785
X25252Y16785
X26002Y19160
X27002Y19410
X21502Y16910
X20752Y16410
X21002Y15660
T02
X18752Y15160
X18752Y14160
X18752Y13160
X18752Y12160
X18752Y11160
X20502Y11160
X21502Y11160
X22502Y11160
X23502Y11160
X24502Y11160
X25502Y11160
X26502Y11160
X27502Y11160
X27752Y9660
X27752Y8660
X27752Y7660
X27752Y6660
X27752Y5660
X27752Y4660
X27752Y3660
X27752Y2660
X27752Y1160
X26752Y1160
X25752Y1160
X24752Y1160
X23752Y1160
X22752Y1160
X20752Y1160
X19752Y1160
X18752Y1160
X17752Y1160
X16752Y1160
X15752Y1160
X16252Y2660
X16252Y3660
X16252Y4660
X16252Y5660
X16252Y6660
X16252Y7660
X16252Y8660
X16252Y9660
X16252Y11160
X15252Y11160
X14252Y11160
X13252Y11160
X12252Y11160
X11252Y11160
X10252Y11160
X9252Y11160
X7502Y11160
X7502Y12160
X7502Y13160
X7502Y14160
X7502Y15160
X7502Y16160
X7502Y17160
X7502Y18160
X9252Y18160
X10252Y18160
X11252Y18160
X12252Y18160
X13252Y18160
X14252Y18160
X15252Y18160
X16252Y18160
X18752Y18160
X18752Y17160
X18752Y16160
X20502Y18160
X21502Y18160
X22502Y18160
X23502Y18160
X24502Y18160
X25502Y18160
X26502Y18160
X27502Y18160
X27752Y20160
X26752Y20160
X25752Y20160
X24752Y20160
X23752Y20160
X22752Y20160
X21752Y20160
X20752Y20160
X19252Y20160
X18252Y20160
X17252Y20160
X16252Y20160
X15252Y20160
X14252Y20160
X13252Y20160
X12252Y20160
X9002Y2910
X8002Y2910
X19502Y2910
X20502Y2910
M30
