G75*
%MOIN*%
%OFA0B0*%
%FSLAX24Y24*%
%IPPOS*%
%LPD*%
%AMOC8*
5,1,8,0,0,1.08239X$1,22.5*
%
%ADD10C,0.0120*%
%ADD11R,0.0840X0.0300*%
%ADD12R,0.0512X0.0276*%
%ADD13C,0.0740*%
%ADD14R,0.0126X0.0402*%
%ADD15R,0.0114X0.0390*%
%ADD16R,0.1535X0.1614*%
%ADD17C,0.0780*%
%ADD18R,0.0473X0.0434*%
%ADD19R,0.0434X0.0473*%
D10*
X006252Y000160D02*
X006252Y021156D01*
X028747Y021156D01*
X028747Y000160D01*
X006252Y000160D01*
D11*
X010272Y003410D03*
X010272Y003910D03*
X010272Y004410D03*
X010272Y004910D03*
X010272Y005410D03*
X010272Y005910D03*
X010272Y006410D03*
X010272Y006910D03*
X010272Y007410D03*
X010272Y007910D03*
X014232Y007910D03*
X014232Y007410D03*
X014232Y006910D03*
X014232Y006410D03*
X014232Y005910D03*
X014232Y005410D03*
X014232Y004910D03*
X014232Y004410D03*
X014232Y003910D03*
X014232Y003410D03*
X021772Y003410D03*
X021772Y003910D03*
X021772Y004410D03*
X021772Y004910D03*
X021772Y005410D03*
X021772Y005910D03*
X021772Y006410D03*
X021772Y006910D03*
X021772Y007410D03*
X021772Y007910D03*
X025732Y007910D03*
X025732Y007410D03*
X025732Y006910D03*
X025732Y006410D03*
X025732Y005910D03*
X025732Y005410D03*
X025732Y004910D03*
X025732Y004410D03*
X025732Y003910D03*
X025732Y003410D03*
D12*
X020355Y004410D03*
X020355Y004910D03*
X020355Y005410D03*
X020355Y005910D03*
X020355Y006410D03*
X020355Y006910D03*
X020355Y007410D03*
X020355Y007910D03*
X018150Y007910D03*
X018150Y007410D03*
X018150Y006910D03*
X018150Y006410D03*
X018150Y005910D03*
X018150Y005410D03*
X018150Y004910D03*
X018150Y004410D03*
X009105Y004410D03*
X009105Y004910D03*
X009105Y005410D03*
X009105Y005910D03*
X009105Y006410D03*
X009105Y006910D03*
X009105Y007410D03*
X009105Y007910D03*
X006900Y007910D03*
X006900Y007410D03*
X006900Y006910D03*
X006900Y006410D03*
X006900Y005910D03*
X006900Y005410D03*
X006900Y004910D03*
X006900Y004410D03*
D13*
X007502Y011160D03*
X007502Y012160D03*
X007502Y013160D03*
X007502Y014160D03*
X007502Y015160D03*
X007502Y016160D03*
X007502Y017160D03*
X007502Y018160D03*
X009252Y018160D03*
X010252Y018160D03*
X011252Y018160D03*
X012252Y018160D03*
X013252Y018160D03*
X014252Y018160D03*
X015252Y018160D03*
X016252Y018160D03*
X018752Y018160D03*
X018752Y017160D03*
X018752Y016160D03*
X018752Y015160D03*
X018752Y014160D03*
X018752Y013160D03*
X018752Y012160D03*
X018752Y011160D03*
X020502Y011160D03*
X021502Y011160D03*
X022502Y011160D03*
X023502Y011160D03*
X024502Y011160D03*
X025502Y011160D03*
X026502Y011160D03*
X027502Y011160D03*
X027752Y009660D03*
X027752Y008660D03*
X027752Y007660D03*
X027752Y006660D03*
X027752Y005660D03*
X027752Y004660D03*
X027752Y003660D03*
X027752Y002660D03*
X016252Y002660D03*
X016252Y003660D03*
X016252Y004660D03*
X016252Y005660D03*
X016252Y006660D03*
X016252Y007660D03*
X016252Y008660D03*
X016252Y009660D03*
X016252Y011160D03*
X015252Y011160D03*
X014252Y011160D03*
X013252Y011160D03*
X012252Y011160D03*
X011252Y011160D03*
X010252Y011160D03*
X009252Y011160D03*
X020502Y018160D03*
X021502Y018160D03*
X022502Y018160D03*
X023502Y018160D03*
X024502Y018160D03*
X025502Y018160D03*
X026502Y018160D03*
X027502Y018160D03*
D14*
X025672Y016215D03*
X025416Y016215D03*
X025160Y016215D03*
X024904Y016215D03*
X024648Y016215D03*
X024392Y016215D03*
X024136Y016215D03*
X023880Y016215D03*
X023624Y016215D03*
X023369Y016215D03*
X023113Y016215D03*
X022857Y016215D03*
X022601Y016215D03*
X022345Y016215D03*
X022089Y016215D03*
X021833Y016215D03*
X021833Y013105D03*
X022089Y013105D03*
X022345Y013105D03*
X022601Y013105D03*
X022857Y013105D03*
X023113Y013105D03*
X023369Y013105D03*
X023624Y013105D03*
X023880Y013105D03*
X024136Y013105D03*
X024392Y013105D03*
X024648Y013105D03*
X024904Y013105D03*
X025160Y013105D03*
X025416Y013105D03*
X025672Y013105D03*
X014172Y013105D03*
X013916Y013105D03*
X013660Y013105D03*
X013404Y013105D03*
X013148Y013105D03*
X012892Y013105D03*
X012636Y013105D03*
X012380Y013105D03*
X012124Y013105D03*
X011869Y013105D03*
X011613Y013105D03*
X011357Y013105D03*
X011101Y013105D03*
X010845Y013105D03*
X010589Y013105D03*
X010333Y013105D03*
X010333Y016215D03*
X010589Y016215D03*
X010845Y016215D03*
X011101Y016215D03*
X011357Y016215D03*
X011613Y016215D03*
X011869Y016215D03*
X012124Y016215D03*
X012380Y016215D03*
X012636Y016215D03*
X012892Y016215D03*
X013148Y016215D03*
X013404Y016215D03*
X013660Y016215D03*
X013916Y016215D03*
X014172Y016215D03*
D15*
X014172Y016215D03*
X013916Y016215D03*
X013660Y016215D03*
X013404Y016215D03*
X013148Y016215D03*
X012892Y016215D03*
X012636Y016215D03*
X012380Y016215D03*
X012124Y016215D03*
X011869Y016215D03*
X011613Y016215D03*
X011357Y016215D03*
X011101Y016215D03*
X010845Y016215D03*
X010589Y016215D03*
X010333Y016215D03*
X010333Y013105D03*
X010589Y013105D03*
X010845Y013105D03*
X011101Y013105D03*
X011357Y013105D03*
X011613Y013105D03*
X011869Y013105D03*
X012124Y013105D03*
X012380Y013105D03*
X012636Y013105D03*
X012892Y013105D03*
X013148Y013105D03*
X013404Y013105D03*
X013660Y013105D03*
X013916Y013105D03*
X014172Y013105D03*
X021833Y013105D03*
X022089Y013105D03*
X022345Y013105D03*
X022601Y013105D03*
X022857Y013105D03*
X023113Y013105D03*
X023369Y013105D03*
X023624Y013105D03*
X023880Y013105D03*
X024136Y013105D03*
X024392Y013105D03*
X024648Y013105D03*
X024904Y013105D03*
X025160Y013105D03*
X025416Y013105D03*
X025672Y013105D03*
X025672Y016215D03*
X025416Y016215D03*
X025160Y016215D03*
X024904Y016215D03*
X024648Y016215D03*
X024392Y016215D03*
X024136Y016215D03*
X023880Y016215D03*
X023624Y016215D03*
X023369Y016215D03*
X023113Y016215D03*
X022857Y016215D03*
X022601Y016215D03*
X022345Y016215D03*
X022089Y016215D03*
X021833Y016215D03*
D16*
X023752Y014660D03*
X012252Y014660D03*
D17*
X012252Y020160D03*
X013252Y020160D03*
X014252Y020160D03*
X015252Y020160D03*
X016252Y020160D03*
X017252Y020160D03*
X018252Y020160D03*
X019252Y020160D03*
X020752Y020160D03*
X021752Y020160D03*
X022752Y020160D03*
X023752Y020160D03*
X024752Y020160D03*
X025752Y020160D03*
X026752Y020160D03*
X027752Y020160D03*
X020502Y002910D03*
X019502Y002910D03*
X019752Y001160D03*
X020752Y001160D03*
X018752Y001160D03*
X017752Y001160D03*
X016752Y001160D03*
X015752Y001160D03*
X009002Y002910D03*
X008002Y002910D03*
X022752Y001160D03*
X023752Y001160D03*
X024752Y001160D03*
X025752Y001160D03*
X026752Y001160D03*
X027752Y001160D03*
D18*
X019587Y008660D03*
X018918Y008660D03*
X008337Y008660D03*
X007668Y008660D03*
D19*
X015002Y014575D03*
X015752Y014575D03*
X015752Y015245D03*
X015002Y015245D03*
X026502Y014995D03*
X027127Y014995D03*
X027127Y014325D03*
X026502Y014325D03*
M02*
