G75*
%MOIN*%
%OFA0B0*%
%FSLAX24Y24*%
%IPPOS*%
%LPD*%
%AMOC8*
5,1,8,0,0,1.08239X$1,22.5*
%
%ADD10C,0.0120*%
%ADD11R,0.0800X0.0260*%
%ADD12R,0.0472X0.0236*%
%ADD13R,0.1535X0.1614*%
%ADD14R,0.0433X0.0394*%
%ADD15R,0.0394X0.0433*%
D10*
X006252Y000160D02*
X006252Y021156D01*
X028747Y021156D01*
X028747Y000160D01*
X006252Y000160D01*
D11*
X010272Y003410D03*
X010272Y003910D03*
X010272Y004410D03*
X010272Y004910D03*
X010272Y005410D03*
X010272Y005910D03*
X010272Y006410D03*
X010272Y006910D03*
X010272Y007410D03*
X010272Y007910D03*
X014232Y007910D03*
X014232Y007410D03*
X014232Y006910D03*
X014232Y006410D03*
X014232Y005910D03*
X014232Y005410D03*
X014232Y004910D03*
X014232Y004410D03*
X014232Y003910D03*
X014232Y003410D03*
X021772Y003410D03*
X021772Y003910D03*
X021772Y004410D03*
X021772Y004910D03*
X021772Y005410D03*
X021772Y005910D03*
X021772Y006410D03*
X021772Y006910D03*
X021772Y007410D03*
X021772Y007910D03*
X025732Y007910D03*
X025732Y007410D03*
X025732Y006910D03*
X025732Y006410D03*
X025732Y005910D03*
X025732Y005410D03*
X025732Y004910D03*
X025732Y004410D03*
X025732Y003910D03*
X025732Y003410D03*
D12*
X020355Y004410D03*
X020355Y004910D03*
X020355Y005410D03*
X020355Y005910D03*
X020355Y006410D03*
X020355Y006910D03*
X020355Y007410D03*
X020355Y007910D03*
X018150Y007910D03*
X018150Y007410D03*
X018150Y006910D03*
X018150Y006410D03*
X018150Y005910D03*
X018150Y005410D03*
X018150Y004910D03*
X018150Y004410D03*
X009105Y004410D03*
X009105Y004910D03*
X009105Y005410D03*
X009105Y005910D03*
X009105Y006410D03*
X009105Y006910D03*
X009105Y007410D03*
X009105Y007910D03*
X006900Y007910D03*
X006900Y007410D03*
X006900Y006910D03*
X006900Y006410D03*
X006900Y005910D03*
X006900Y005410D03*
X006900Y004910D03*
X006900Y004410D03*
D13*
X012252Y014660D03*
X023752Y014660D03*
D14*
X019587Y008660D03*
X018918Y008660D03*
X008337Y008660D03*
X007668Y008660D03*
D15*
X015002Y014575D03*
X015752Y014575D03*
X015752Y015245D03*
X015002Y015245D03*
X026502Y014995D03*
X027127Y014995D03*
X027127Y014325D03*
X026502Y014325D03*
M02*
