G04 This is an RS-274x file exported by *
G04 gerbv version 2.6.0 *
G04 More information is available about gerbv at *
G04 http://gerbv.gpleda.org/ *
G04 --End of header info--*
%MOIN*%
%FSLAX34Y34*%
%IPPOS*%
G04 --Define apertures--*
%ADD10C,0.0120*%
%ADD11R,0.0800X0.0260*%
%ADD12R,0.0472X0.0236*%
%ADD13C,0.0700*%
%ADD14R,0.0118X0.0394*%
%ADD15R,0.4331X0.2047*%
%ADD16C,0.0740*%
%ADD17R,0.0433X0.0394*%
%ADD18R,0.0394X0.0433*%
%ADD19C,0.0060*%
%ADD20C,0.0317*%
%ADD21C,0.0160*%
%AMMACRO22*
5,1,8,0.000000,0.000000,0.034312,22.500000*
%
%ADD22MACRO22*%
%ADD23C,0.0320*%
G04 --Start main section--*
G54D10*
G01X0006252Y0000160D02*
G01X0006252Y0021156D01*
G01X0006252Y0021156D02*
G01X0028747Y0021156D01*
G01X0028747Y0021156D02*
G01X0028747Y0000160D01*
G01X0028747Y0000160D02*
G01X0006252Y0000160D01*
G54D11*
G01X0010272Y0003410D03*
G01X0010272Y0003910D03*
G01X0010272Y0004410D03*
G01X0010272Y0004910D03*
G01X0010272Y0005410D03*
G01X0010272Y0005910D03*
G01X0010272Y0006410D03*
G01X0010272Y0006910D03*
G01X0010272Y0007410D03*
G01X0010272Y0007910D03*
G01X0014232Y0007910D03*
G01X0014232Y0007410D03*
G01X0014232Y0006910D03*
G01X0014232Y0006410D03*
G01X0014232Y0005910D03*
G01X0014232Y0005410D03*
G01X0014232Y0004910D03*
G01X0014232Y0004410D03*
G01X0014232Y0003910D03*
G01X0014232Y0003410D03*
G01X0021772Y0003410D03*
G01X0021772Y0003910D03*
G01X0021772Y0004410D03*
G01X0021772Y0004910D03*
G01X0021772Y0005410D03*
G01X0021772Y0005910D03*
G01X0021772Y0006410D03*
G01X0021772Y0006910D03*
G01X0021772Y0007410D03*
G01X0021772Y0007910D03*
G01X0025732Y0007910D03*
G01X0025732Y0007410D03*
G01X0025732Y0006910D03*
G01X0025732Y0006410D03*
G01X0025732Y0005910D03*
G01X0025732Y0005410D03*
G01X0025732Y0004910D03*
G01X0025732Y0004410D03*
G01X0025732Y0003910D03*
G01X0025732Y0003410D03*
G54D12*
G01X0020355Y0004410D03*
G01X0020355Y0004910D03*
G01X0020355Y0005410D03*
G01X0020355Y0005910D03*
G01X0020355Y0006410D03*
G01X0020355Y0006910D03*
G01X0020355Y0007410D03*
G01X0020355Y0007910D03*
G01X0018150Y0007910D03*
G01X0018150Y0007410D03*
G01X0018150Y0006910D03*
G01X0018150Y0006410D03*
G01X0018150Y0005910D03*
G01X0018150Y0005410D03*
G01X0018150Y0004910D03*
G01X0018150Y0004410D03*
G01X0009105Y0004410D03*
G01X0009105Y0004910D03*
G01X0009105Y0005410D03*
G01X0009105Y0005910D03*
G01X0009105Y0006410D03*
G01X0009105Y0006910D03*
G01X0009105Y0007410D03*
G01X0009105Y0007910D03*
G01X0006900Y0007910D03*
G01X0006900Y0007410D03*
G01X0006900Y0006910D03*
G01X0006900Y0006410D03*
G01X0006900Y0005910D03*
G01X0006900Y0005410D03*
G01X0006900Y0004910D03*
G01X0006900Y0004410D03*
G54D13*
G01X0007502Y0011160D03*
G01X0007502Y0012160D03*
G01X0007502Y0013160D03*
G01X0007502Y0014160D03*
G01X0007502Y0015160D03*
G01X0007502Y0016160D03*
G01X0007502Y0017160D03*
G01X0007502Y0018160D03*
G01X0009252Y0018160D03*
G01X0010252Y0018160D03*
G01X0011252Y0018160D03*
G01X0012252Y0018160D03*
G01X0013252Y0018160D03*
G01X0014252Y0018160D03*
G01X0015252Y0018160D03*
G01X0016252Y0018160D03*
G01X0018752Y0018160D03*
G01X0018752Y0017160D03*
G01X0018752Y0016160D03*
G01X0018752Y0015160D03*
G01X0018752Y0014160D03*
G01X0018752Y0013160D03*
G01X0018752Y0012160D03*
G01X0018752Y0011160D03*
G01X0020502Y0011160D03*
G01X0021502Y0011160D03*
G01X0022502Y0011160D03*
G01X0023502Y0011160D03*
G01X0024502Y0011160D03*
G01X0025502Y0011160D03*
G01X0026502Y0011160D03*
G01X0027502Y0011160D03*
G01X0027752Y0009660D03*
G01X0027752Y0008660D03*
G01X0027752Y0007660D03*
G01X0027752Y0006660D03*
G01X0027752Y0005660D03*
G01X0027752Y0004660D03*
G01X0027752Y0003660D03*
G01X0027752Y0002660D03*
G01X0016252Y0002660D03*
G01X0016252Y0003660D03*
G01X0016252Y0004660D03*
G01X0016252Y0005660D03*
G01X0016252Y0006660D03*
G01X0016252Y0007660D03*
G01X0016252Y0008660D03*
G01X0016252Y0009660D03*
G01X0016252Y0011160D03*
G01X0015252Y0011160D03*
G01X0014252Y0011160D03*
G01X0013252Y0011160D03*
G01X0012252Y0011160D03*
G01X0011252Y0011160D03*
G01X0010252Y0011160D03*
G01X0009252Y0011160D03*
G01X0020502Y0018160D03*
G01X0021502Y0018160D03*
G01X0022502Y0018160D03*
G01X0023502Y0018160D03*
G01X0024502Y0018160D03*
G01X0025502Y0018160D03*
G01X0026502Y0018160D03*
G01X0027502Y0018160D03*
G54D14*
G01X0025672Y0016215D03*
G01X0025416Y0016215D03*
G01X0025160Y0016215D03*
G01X0024904Y0016215D03*
G01X0024648Y0016215D03*
G01X0024392Y0016215D03*
G01X0024136Y0016215D03*
G01X0023880Y0016215D03*
G01X0023624Y0016215D03*
G01X0023369Y0016215D03*
G01X0023113Y0016215D03*
G01X0022857Y0016215D03*
G01X0022601Y0016215D03*
G01X0022345Y0016215D03*
G01X0022089Y0016215D03*
G01X0021833Y0016215D03*
G01X0021833Y0013105D03*
G01X0022089Y0013105D03*
G01X0022345Y0013105D03*
G01X0022601Y0013105D03*
G01X0022857Y0013105D03*
G01X0023113Y0013105D03*
G01X0023369Y0013105D03*
G01X0023624Y0013105D03*
G01X0023880Y0013105D03*
G01X0024136Y0013105D03*
G01X0024392Y0013105D03*
G01X0024648Y0013105D03*
G01X0024904Y0013105D03*
G01X0025160Y0013105D03*
G01X0025416Y0013105D03*
G01X0025672Y0013105D03*
G01X0014172Y0013105D03*
G01X0013916Y0013105D03*
G01X0013660Y0013105D03*
G01X0013404Y0013105D03*
G01X0013148Y0013105D03*
G01X0012892Y0013105D03*
G01X0012636Y0013105D03*
G01X0012380Y0013105D03*
G01X0012124Y0013105D03*
G01X0011869Y0013105D03*
G01X0011613Y0013105D03*
G01X0011357Y0013105D03*
G01X0011101Y0013105D03*
G01X0010845Y0013105D03*
G01X0010589Y0013105D03*
G01X0010333Y0013105D03*
G01X0010333Y0016215D03*
G01X0010589Y0016215D03*
G01X0010845Y0016215D03*
G01X0011101Y0016215D03*
G01X0011357Y0016215D03*
G01X0011613Y0016215D03*
G01X0011869Y0016215D03*
G01X0012124Y0016215D03*
G01X0012380Y0016215D03*
G01X0012636Y0016215D03*
G01X0012892Y0016215D03*
G01X0013148Y0016215D03*
G01X0013404Y0016215D03*
G01X0013660Y0016215D03*
G01X0013916Y0016215D03*
G01X0014172Y0016215D03*
G54D15*
G01X0012252Y0014660D03*
G01X0023752Y0014660D03*
G54D16*
G01X0023752Y0020160D03*
G01X0022752Y0020160D03*
G01X0021752Y0020160D03*
G01X0020752Y0020160D03*
G01X0019252Y0020160D03*
G01X0018252Y0020160D03*
G01X0017252Y0020160D03*
G01X0016252Y0020160D03*
G01X0015252Y0020160D03*
G01X0014252Y0020160D03*
G01X0013252Y0020160D03*
G01X0012252Y0020160D03*
G01X0024752Y0020160D03*
G01X0025752Y0020160D03*
G01X0026752Y0020160D03*
G01X0027752Y0020160D03*
G01X0020502Y0002910D03*
G01X0019502Y0002910D03*
G01X0019752Y0001160D03*
G01X0020752Y0001160D03*
G01X0018752Y0001160D03*
G01X0017752Y0001160D03*
G01X0016752Y0001160D03*
G01X0015752Y0001160D03*
G01X0009002Y0002910D03*
G01X0008002Y0002910D03*
G01X0022752Y0001160D03*
G01X0023752Y0001160D03*
G01X0024752Y0001160D03*
G01X0025752Y0001160D03*
G01X0026752Y0001160D03*
G01X0027752Y0001160D03*
G54D17*
G01X0019587Y0008660D03*
G01X0018918Y0008660D03*
G01X0008337Y0008660D03*
G01X0007668Y0008660D03*
G54D18*
G01X0015002Y0014575D03*
G01X0015752Y0014575D03*
G01X0015752Y0015245D03*
G01X0015002Y0015245D03*
G01X0026502Y0014995D03*
G01X0027127Y0014995D03*
G01X0027127Y0014325D03*
G01X0026502Y0014325D03*
G54D19*
G01X0026502Y0014325D02*
G01X0026502Y0013941D01*
G01X0026365Y0013651D02*
G01X0026244Y0013551D01*
G01X0026025Y0013473D02*
G01X0025716Y0013473D01*
G01X0025443Y0013351D02*
G01X0025431Y0013337D01*
G01X0025431Y0013337D02*
G01X0025422Y0013320D01*
G01X0025422Y0013320D02*
G01X0025417Y0013303D01*
G01X0025417Y0013303D02*
G01X0025415Y0013284D01*
G01X0025416Y0013284D02*
G01X0025416Y0013105D01*
G01X0025160Y0012918D02*
G01X0025162Y0012899D01*
G01X0025162Y0012899D02*
G01X0025167Y0012880D01*
G01X0025167Y0012880D02*
G01X0025177Y0012864D01*
G01X0025177Y0012864D02*
G01X0025189Y0012849D01*
G01X0025189Y0012849D02*
G01X0025444Y0012593D01*
G01X0025214Y0012324D02*
G01X0025246Y0012294D01*
G01X0025246Y0012294D02*
G01X0025280Y0012267D01*
G01X0025280Y0012267D02*
G01X0025317Y0012242D01*
G01X0025317Y0012242D02*
G01X0025355Y0012221D01*
G01X0025355Y0012221D02*
G01X0025395Y0012203D01*
G01X0025395Y0012203D02*
G01X0025436Y0012187D01*
G01X0025436Y0012187D02*
G01X0025479Y0012175D01*
G01X0025479Y0012175D02*
G01X0025522Y0012167D01*
G01X0025522Y0012167D02*
G01X0025565Y0012162D01*
G01X0025565Y0012162D02*
G01X0025609Y0012160D01*
G01X0025609Y0012160D02*
G01X0026243Y0012160D01*
G01X0025886Y0012410D02*
G01X0027502Y0012410D01*
G01X0026685Y0011977D02*
G01X0027502Y0011160D01*
G01X0026502Y0011160D02*
G01X0025886Y0011777D01*
G01X0026243Y0012160D02*
G01X0026292Y0012158D01*
G01X0026292Y0012158D02*
G01X0026341Y0012152D01*
G01X0026341Y0012152D02*
G01X0026389Y0012143D01*
G01X0026389Y0012143D02*
G01X0026436Y0012129D01*
G01X0026436Y0012129D02*
G01X0026482Y0012112D01*
G01X0026482Y0012112D02*
G01X0026527Y0012092D01*
G01X0026527Y0012092D02*
G01X0026570Y0012068D01*
G01X0026570Y0012068D02*
G01X0026610Y0012041D01*
G01X0026610Y0012041D02*
G01X0026649Y0012010D01*
G01X0026649Y0012010D02*
G01X0026685Y0011977D01*
G01X0025564Y0011910D02*
G01X0025525Y0011912D01*
G01X0025525Y0011912D02*
G01X0025486Y0011917D01*
G01X0025486Y0011917D02*
G01X0025447Y0011925D01*
G01X0025447Y0011925D02*
G01X0025410Y0011937D01*
G01X0025410Y0011937D02*
G01X0025373Y0011952D01*
G01X0025373Y0011952D02*
G01X0025338Y0011970D01*
G01X0025338Y0011970D02*
G01X0025305Y0011992D01*
G01X0025305Y0011992D02*
G01X0025274Y0012016D01*
G01X0025274Y0012016D02*
G01X0025245Y0012042D01*
G01X0025245Y0012042D02*
G01X0024425Y0012863D01*
G01X0024392Y0012941D02*
G01X0024392Y0013105D01*
G01X0024392Y0012941D02*
G01X0024393Y0012924D01*
G01X0024393Y0012924D02*
G01X0024397Y0012907D01*
G01X0024397Y0012907D02*
G01X0024404Y0012891D01*
G01X0024404Y0012891D02*
G01X0024413Y0012876D01*
G01X0024413Y0012876D02*
G01X0024425Y0012863D01*
G01X0024171Y0012867D02*
G01X0024159Y0012881D01*
G01X0024159Y0012881D02*
G01X0024150Y0012896D01*
G01X0024150Y0012896D02*
G01X0024143Y0012913D01*
G01X0024143Y0012913D02*
G01X0024138Y0012931D01*
G01X0024138Y0012931D02*
G01X0024137Y0012949D01*
G01X0024136Y0012949D02*
G01X0024136Y0013105D01*
G01X0024170Y0012867D02*
G01X0025502Y0011535D01*
G01X0025502Y0011535D02*
G01X0025502Y0011160D01*
G01X0025502Y0011160D02*
G01X0025502Y0011285D01*
G01X0025886Y0011777D02*
G01X0025856Y0011804D01*
G01X0025856Y0011804D02*
G01X0025825Y0011828D01*
G01X0025825Y0011828D02*
G01X0025792Y0011849D01*
G01X0025792Y0011849D02*
G01X0025756Y0011867D01*
G01X0025756Y0011867D02*
G01X0025720Y0011883D01*
G01X0025720Y0011883D02*
G01X0025682Y0011894D01*
G01X0025682Y0011894D02*
G01X0025643Y0011903D01*
G01X0025643Y0011903D02*
G01X0025604Y0011908D01*
G01X0025604Y0011908D02*
G01X0025564Y0011910D01*
G01X0025214Y0012324D02*
G01X0024679Y0012858D01*
G01X0024648Y0012933D02*
G01X0024648Y0013105D01*
G01X0023880Y0012988D02*
G01X0023882Y0012934D01*
G01X0023882Y0012934D02*
G01X0023888Y0012881D01*
G01X0023888Y0012881D02*
G01X0023897Y0012828D01*
G01X0023897Y0012828D02*
G01X0023911Y0012775D01*
G01X0023911Y0012775D02*
G01X0023928Y0012724D01*
G01X0023928Y0012724D02*
G01X0023948Y0012674D01*
G01X0023948Y0012674D02*
G01X0023972Y0012626D01*
G01X0023972Y0012626D02*
G01X0024000Y0012580D01*
G01X0024000Y0012580D02*
G01X0024031Y0012536D01*
G01X0024031Y0012536D02*
G01X0024064Y0012494D01*
G01X0024064Y0012494D02*
G01X0024101Y0012454D01*
G01X0024101Y0012454D02*
G01X0024265Y0012291D01*
G01X0024502Y0011717D02*
G01X0024502Y0011160D01*
G01X0023624Y0011532D02*
G01X0023502Y0011410D01*
G01X0023502Y0011410D02*
G01X0023502Y0011160D01*
G01X0023624Y0011532D02*
G01X0023624Y0013105D01*
G01X0023369Y0013105D02*
G01X0023369Y0012751D01*
G01X0023298Y0012580D02*
G01X0022655Y0011937D01*
G01X0022609Y0011877D02*
G01X0022519Y0011717D01*
G01X0022502Y0011654D02*
G01X0022502Y0011160D01*
G01X0022502Y0011654D02*
G01X0022504Y0011676D01*
G01X0022504Y0011676D02*
G01X0022509Y0011697D01*
G01X0022509Y0011697D02*
G01X0022518Y0011717D01*
G01X0022608Y0011877D02*
G01X0022621Y0011899D01*
G01X0022621Y0011899D02*
G01X0022637Y0011919D01*
G01X0022637Y0011919D02*
G01X0022654Y0011938D01*
G01X0021993Y0012026D02*
G01X0022826Y0012858D01*
G01X0022857Y0012933D02*
G01X0022857Y0013105D01*
G01X0022856Y0012933D02*
G01X0022855Y0012916D01*
G01X0022855Y0012916D02*
G01X0022851Y0012900D01*
G01X0022851Y0012900D02*
G01X0022844Y0012885D01*
G01X0022844Y0012885D02*
G01X0022836Y0012871D01*
G01X0022836Y0012871D02*
G01X0022825Y0012858D01*
G01X0023079Y0012863D02*
G01X0023091Y0012876D01*
G01X0023091Y0012876D02*
G01X0023100Y0012891D01*
G01X0023100Y0012891D02*
G01X0023107Y0012907D01*
G01X0023107Y0012907D02*
G01X0023111Y0012924D01*
G01X0023111Y0012924D02*
G01X0023112Y0012941D01*
G01X0023113Y0012941D02*
G01X0023113Y0013105D01*
G01X0023080Y0012863D02*
G01X0021627Y0011410D01*
G01X0021627Y0011410D02*
G01X0021627Y0011285D01*
G01X0021627Y0011285D02*
G01X0021502Y0011160D01*
G01X0020993Y0011910D02*
G01X0020962Y0011908D01*
G01X0020962Y0011908D02*
G01X0020931Y0011903D01*
G01X0020931Y0011903D02*
G01X0020901Y0011894D01*
G01X0020901Y0011894D02*
G01X0020872Y0011882D01*
G01X0020872Y0011882D02*
G01X0020844Y0011867D01*
G01X0020844Y0011867D02*
G01X0020818Y0011849D01*
G01X0020818Y0011849D02*
G01X0020795Y0011828D01*
G01X0020795Y0011828D02*
G01X0020502Y0011535D01*
G01X0020502Y0011535D02*
G01X0020502Y0011160D01*
G01X0019964Y0011996D02*
G01X0019996Y0012026D01*
G01X0019996Y0012026D02*
G01X0020030Y0012053D01*
G01X0020030Y0012053D02*
G01X0020067Y0012078D01*
G01X0020067Y0012078D02*
G01X0020105Y0012099D01*
G01X0020105Y0012099D02*
G01X0020145Y0012117D01*
G01X0020145Y0012117D02*
G01X0020186Y0012133D01*
G01X0020186Y0012133D02*
G01X0020229Y0012145D01*
G01X0020229Y0012145D02*
G01X0020272Y0012153D01*
G01X0020272Y0012153D02*
G01X0020315Y0012158D01*
G01X0020315Y0012158D02*
G01X0020359Y0012160D01*
G01X0020359Y0012160D02*
G01X0021646Y0012160D01*
G01X0021714Y0011910D02*
G01X0021753Y0011912D01*
G01X0021753Y0011912D02*
G01X0021791Y0011918D01*
G01X0021791Y0011918D02*
G01X0021829Y0011927D01*
G01X0021829Y0011927D02*
G01X0021865Y0011940D01*
G01X0021865Y0011940D02*
G01X0021900Y0011957D01*
G01X0021900Y0011957D02*
G01X0021933Y0011977D01*
G01X0021933Y0011977D02*
G01X0021965Y0012000D01*
G01X0021965Y0012000D02*
G01X0021993Y0012026D01*
G01X0022041Y0012324D02*
G01X0022535Y0012818D01*
G01X0022601Y0012977D02*
G01X0022601Y0013105D01*
G01X0022345Y0013105D02*
G01X0022345Y0012989D01*
G01X0022535Y0012818D02*
G01X0022555Y0012840D01*
G01X0022555Y0012840D02*
G01X0022571Y0012865D01*
G01X0022571Y0012865D02*
G01X0022584Y0012891D01*
G01X0022584Y0012891D02*
G01X0022593Y0012919D01*
G01X0022593Y0012919D02*
G01X0022599Y0012948D01*
G01X0022599Y0012948D02*
G01X0022601Y0012977D01*
G01X0022266Y0012799D02*
G01X0021959Y0012492D01*
G01X0021762Y0012410D02*
G01X0020222Y0012410D01*
G01X0019964Y0011996D02*
G01X0019884Y0011917D01*
G01X0019847Y0012255D02*
G01X0019878Y0012283D01*
G01X0019878Y0012283D02*
G01X0019910Y0012309D01*
G01X0019910Y0012309D02*
G01X0019945Y0012332D01*
G01X0019945Y0012332D02*
G01X0019981Y0012352D01*
G01X0019981Y0012352D02*
G01X0020019Y0012370D01*
G01X0020019Y0012370D02*
G01X0020058Y0012384D01*
G01X0020058Y0012384D02*
G01X0020098Y0012395D01*
G01X0020098Y0012395D02*
G01X0020139Y0012403D01*
G01X0020139Y0012403D02*
G01X0020180Y0012408D01*
G01X0020180Y0012408D02*
G01X0020222Y0012410D01*
G01X0019695Y0012660D02*
G01X0021762Y0012660D01*
G01X0021762Y0012410D02*
G01X0021793Y0012412D01*
G01X0021793Y0012412D02*
G01X0021824Y0012417D01*
G01X0021824Y0012417D02*
G01X0021854Y0012426D01*
G01X0021854Y0012426D02*
G01X0021883Y0012438D01*
G01X0021883Y0012438D02*
G01X0021911Y0012453D01*
G01X0021911Y0012453D02*
G01X0021937Y0012471D01*
G01X0021937Y0012471D02*
G01X0021960Y0012492D01*
G01X0021959Y0012742D02*
G01X0022061Y0012844D01*
G01X0022089Y0012911D02*
G01X0022089Y0013105D01*
G01X0022345Y0012989D02*
G01X0022343Y0012959D01*
G01X0022343Y0012959D02*
G01X0022338Y0012929D01*
G01X0022338Y0012929D02*
G01X0022330Y0012900D01*
G01X0022330Y0012900D02*
G01X0022318Y0012872D01*
G01X0022318Y0012872D02*
G01X0022304Y0012846D01*
G01X0022304Y0012846D02*
G01X0022286Y0012821D01*
G01X0022286Y0012821D02*
G01X0022266Y0012799D01*
G01X0022061Y0012844D02*
G01X0022073Y0012858D01*
G01X0022073Y0012858D02*
G01X0022082Y0012875D01*
G01X0022082Y0012875D02*
G01X0022087Y0012892D01*
G01X0022087Y0012892D02*
G01X0022089Y0012911D01*
G01X0021833Y0013105D02*
G01X0020605Y0013105D01*
G01X0020097Y0013315D02*
G01X0019252Y0014160D01*
G01X0019252Y0014160D02*
G01X0018752Y0014160D01*
G01X0019137Y0014660D02*
G01X0019168Y0014658D01*
G01X0019168Y0014658D02*
G01X0019199Y0014653D01*
G01X0019199Y0014653D02*
G01X0019229Y0014644D01*
G01X0019229Y0014644D02*
G01X0019258Y0014632D01*
G01X0019258Y0014632D02*
G01X0019286Y0014617D01*
G01X0019286Y0014617D02*
G01X0019312Y0014599D01*
G01X0019312Y0014599D02*
G01X0019335Y0014578D01*
G01X0019334Y0014578D02*
G01X0020231Y0013681D01*
G01X0020097Y0013315D02*
G01X0020135Y0013280D01*
G01X0020135Y0013280D02*
G01X0020175Y0013248D01*
G01X0020175Y0013248D02*
G01X0020217Y0013219D01*
G01X0020217Y0013219D02*
G01X0020261Y0013193D01*
G01X0020261Y0013193D02*
G01X0020307Y0013170D01*
G01X0020307Y0013170D02*
G01X0020354Y0013150D01*
G01X0020354Y0013150D02*
G01X0020403Y0013134D01*
G01X0020403Y0013134D02*
G01X0020452Y0013121D01*
G01X0020452Y0013121D02*
G01X0020503Y0013112D01*
G01X0020503Y0013112D02*
G01X0020554Y0013107D01*
G01X0020554Y0013107D02*
G01X0020605Y0013105D01*
G01X0020735Y0013473D02*
G01X0024858Y0013473D01*
G01X0024998Y0013415D02*
G01X0025160Y0013253D01*
G01X0025160Y0013253D02*
G01X0025160Y0013105D01*
G01X0025160Y0013105D02*
G01X0025160Y0012918D01*
G01X0025459Y0013365D02*
G01X0025485Y0013389D01*
G01X0025485Y0013389D02*
G01X0025514Y0013411D01*
G01X0025514Y0013411D02*
G01X0025544Y0013429D01*
G01X0025544Y0013429D02*
G01X0025577Y0013444D01*
G01X0025577Y0013444D02*
G01X0025610Y0013456D01*
G01X0025610Y0013456D02*
G01X0025645Y0013465D01*
G01X0025645Y0013465D02*
G01X0025680Y0013470D01*
G01X0025680Y0013470D02*
G01X0025716Y0013472D01*
G01X0025458Y0013366D02*
G01X0025443Y0013351D01*
G01X0025444Y0012593D02*
G01X0025480Y0012560D01*
G01X0025480Y0012560D02*
G01X0025519Y0012529D01*
G01X0025519Y0012529D02*
G01X0025559Y0012502D01*
G01X0025559Y0012502D02*
G01X0025602Y0012478D01*
G01X0025602Y0012478D02*
G01X0025647Y0012458D01*
G01X0025647Y0012458D02*
G01X0025693Y0012441D01*
G01X0025693Y0012441D02*
G01X0025740Y0012427D01*
G01X0025740Y0012427D02*
G01X0025788Y0012418D01*
G01X0025788Y0012418D02*
G01X0025837Y0012412D01*
G01X0025837Y0012412D02*
G01X0025886Y0012410D01*
G01X0024679Y0012858D02*
G01X0024668Y0012871D01*
G01X0024668Y0012871D02*
G01X0024660Y0012885D01*
G01X0024660Y0012885D02*
G01X0024653Y0012900D01*
G01X0024653Y0012900D02*
G01X0024649Y0012916D01*
G01X0024649Y0012916D02*
G01X0024648Y0012933D01*
G01X0024858Y0013473D02*
G01X0024884Y0013471D01*
G01X0024884Y0013471D02*
G01X0024909Y0013466D01*
G01X0024909Y0013466D02*
G01X0024934Y0013458D01*
G01X0024934Y0013458D02*
G01X0024957Y0013446D01*
G01X0024957Y0013446D02*
G01X0024979Y0013432D01*
G01X0024979Y0013432D02*
G01X0024998Y0013415D01*
G01X0026025Y0013473D02*
G01X0026059Y0013475D01*
G01X0026059Y0013475D02*
G01X0026092Y0013480D01*
G01X0026092Y0013480D02*
G01X0026125Y0013488D01*
G01X0026125Y0013488D02*
G01X0026157Y0013499D01*
G01X0026157Y0013499D02*
G01X0026188Y0013514D01*
G01X0026188Y0013514D02*
G01X0026217Y0013531D01*
G01X0026217Y0013531D02*
G01X0026244Y0013552D01*
G01X0026366Y0013651D02*
G01X0026393Y0013675D01*
G01X0026393Y0013675D02*
G01X0026418Y0013703D01*
G01X0026418Y0013703D02*
G01X0026440Y0013732D01*
G01X0026440Y0013732D02*
G01X0026459Y0013764D01*
G01X0026459Y0013764D02*
G01X0026474Y0013797D01*
G01X0026474Y0013797D02*
G01X0026487Y0013832D01*
G01X0026487Y0013832D02*
G01X0026496Y0013868D01*
G01X0026496Y0013868D02*
G01X0026501Y0013904D01*
G01X0026501Y0013904D02*
G01X0026503Y0013941D01*
G01X0026502Y0014995D02*
G01X0026502Y0015660D01*
G01X0027127Y0015660D02*
G01X0027127Y0014995D01*
G01X0026002Y0016160D02*
G01X0025947Y0016215D01*
G01X0025947Y0016215D02*
G01X0025672Y0016215D01*
G01X0025416Y0016215D02*
G01X0025416Y0016524D01*
G01X0024868Y0017151D02*
G01X0024910Y0017191D01*
G01X0024910Y0017191D02*
G01X0024955Y0017227D01*
G01X0024955Y0017227D02*
G01X0025002Y0017261D01*
G01X0025002Y0017261D02*
G01X0025051Y0017292D01*
G01X0025051Y0017292D02*
G01X0025102Y0017319D01*
G01X0025102Y0017319D02*
G01X0025155Y0017343D01*
G01X0025155Y0017343D02*
G01X0025209Y0017363D01*
G01X0025209Y0017363D02*
G01X0025264Y0017380D01*
G01X0025264Y0017380D02*
G01X0025321Y0017393D01*
G01X0025321Y0017393D02*
G01X0025378Y0017402D01*
G01X0025378Y0017402D02*
G01X0025435Y0017408D01*
G01X0025435Y0017408D02*
G01X0025493Y0017410D01*
G01X0025493Y0017410D02*
G01X0025993Y0017410D01*
G01X0026436Y0017593D02*
G01X0026456Y0017616D01*
G01X0026456Y0017616D02*
G01X0026472Y0017640D01*
G01X0026472Y0017640D02*
G01X0026486Y0017667D01*
G01X0026486Y0017667D02*
G01X0026495Y0017696D01*
G01X0026495Y0017696D02*
G01X0026501Y0017725D01*
G01X0026501Y0017725D02*
G01X0026503Y0017755D01*
G01X0026502Y0017755D02*
G01X0026502Y0018160D01*
G01X0026709Y0017160D02*
G01X0026759Y0017162D01*
G01X0026759Y0017162D02*
G01X0026810Y0017167D01*
G01X0026810Y0017167D02*
G01X0026859Y0017176D01*
G01X0026859Y0017176D02*
G01X0026908Y0017189D01*
G01X0026908Y0017189D02*
G01X0026956Y0017205D01*
G01X0026956Y0017205D02*
G01X0027003Y0017224D01*
G01X0027003Y0017224D02*
G01X0027048Y0017246D01*
G01X0027048Y0017246D02*
G01X0027091Y0017272D01*
G01X0027091Y0017272D02*
G01X0027133Y0017301D01*
G01X0027133Y0017301D02*
G01X0027172Y0017333D01*
G01X0027172Y0017333D02*
G01X0027209Y0017367D01*
G01X0027209Y0017367D02*
G01X0027295Y0017453D01*
G01X0027502Y0017953D02*
G01X0027502Y0018160D01*
G01X0027502Y0017953D02*
G01X0027500Y0017903D01*
G01X0027500Y0017903D02*
G01X0027495Y0017852D01*
G01X0027495Y0017852D02*
G01X0027486Y0017803D01*
G01X0027486Y0017803D02*
G01X0027473Y0017754D01*
G01X0027473Y0017754D02*
G01X0027457Y0017706D01*
G01X0027457Y0017706D02*
G01X0027438Y0017659D01*
G01X0027438Y0017659D02*
G01X0027416Y0017614D01*
G01X0027416Y0017614D02*
G01X0027390Y0017571D01*
G01X0027390Y0017571D02*
G01X0027361Y0017529D01*
G01X0027361Y0017529D02*
G01X0027329Y0017490D01*
G01X0027329Y0017490D02*
G01X0027295Y0017453D01*
G01X0026709Y0017160D02*
G01X0025359Y0017160D01*
G01X0024964Y0016996D02*
G01X0024760Y0016793D01*
G01X0024540Y0016823D02*
G01X0024868Y0017151D01*
G01X0024387Y0017294D02*
G01X0024036Y0016943D01*
G01X0024366Y0017024D02*
G01X0025502Y0018160D01*
G01X0025993Y0017410D02*
G01X0026042Y0017412D01*
G01X0026042Y0017412D02*
G01X0026091Y0017418D01*
G01X0026091Y0017418D02*
G01X0026139Y0017427D01*
G01X0026139Y0017427D02*
G01X0026186Y0017441D01*
G01X0026186Y0017441D02*
G01X0026232Y0017458D01*
G01X0026232Y0017458D02*
G01X0026277Y0017478D01*
G01X0026277Y0017478D02*
G01X0026320Y0017502D01*
G01X0026320Y0017502D02*
G01X0026360Y0017529D01*
G01X0026360Y0017529D02*
G01X0026399Y0017560D01*
G01X0026399Y0017560D02*
G01X0026435Y0017593D01*
G01X0025960Y0016742D02*
G01X0025937Y0016721D01*
G01X0025937Y0016721D02*
G01X0025911Y0016703D01*
G01X0025911Y0016703D02*
G01X0025883Y0016688D01*
G01X0025883Y0016688D02*
G01X0025854Y0016676D01*
G01X0025854Y0016676D02*
G01X0025824Y0016667D01*
G01X0025824Y0016667D02*
G01X0025793Y0016662D01*
G01X0025793Y0016662D02*
G01X0025762Y0016660D01*
G01X0025762Y0016660D02*
G01X0025576Y0016660D01*
G01X0025451Y0016608D02*
G01X0025439Y0016594D01*
G01X0025439Y0016594D02*
G01X0025429Y0016578D01*
G01X0025429Y0016578D02*
G01X0025422Y0016561D01*
G01X0025422Y0016561D02*
G01X0025417Y0016543D01*
G01X0025417Y0016543D02*
G01X0025416Y0016524D01*
G01X0025359Y0017160D02*
G01X0025315Y0017158D01*
G01X0025315Y0017158D02*
G01X0025272Y0017153D01*
G01X0025272Y0017153D02*
G01X0025229Y0017145D01*
G01X0025229Y0017145D02*
G01X0025186Y0017133D01*
G01X0025186Y0017133D02*
G01X0025145Y0017117D01*
G01X0025145Y0017117D02*
G01X0025105Y0017099D01*
G01X0025105Y0017099D02*
G01X0025067Y0017078D01*
G01X0025067Y0017078D02*
G01X0025030Y0017053D01*
G01X0025030Y0017053D02*
G01X0024996Y0017026D01*
G01X0024996Y0017026D02*
G01X0024964Y0016996D01*
G01X0025252Y0016785D02*
G01X0025160Y0016692D01*
G01X0025160Y0016692D02*
G01X0025160Y0016215D01*
G01X0024904Y0016215D02*
G01X0024904Y0016062D01*
G01X0024904Y0016062D02*
G01X0024690Y0015848D01*
G01X0024690Y0015848D02*
G01X0021387Y0015848D01*
G01X0021050Y0015708D02*
G01X0021002Y0015660D01*
G01X0020848Y0016006D02*
G01X0020269Y0015427D01*
G01X0020216Y0015873D02*
G01X0020752Y0016410D01*
G01X0020618Y0016660D02*
G01X0020587Y0016658D01*
G01X0020587Y0016658D02*
G01X0020556Y0016653D01*
G01X0020556Y0016653D02*
G01X0020526Y0016644D01*
G01X0020526Y0016644D02*
G01X0020497Y0016632D01*
G01X0020497Y0016632D02*
G01X0020469Y0016617D01*
G01X0020469Y0016617D02*
G01X0020443Y0016599D01*
G01X0020443Y0016599D02*
G01X0020420Y0016578D01*
G01X0020420Y0016578D02*
G01X0020153Y0016311D01*
G01X0020089Y0016746D02*
G01X0020121Y0016776D01*
G01X0020121Y0016776D02*
G01X0020155Y0016803D01*
G01X0020155Y0016803D02*
G01X0020192Y0016828D01*
G01X0020192Y0016828D02*
G01X0020230Y0016849D01*
G01X0020230Y0016849D02*
G01X0020270Y0016867D01*
G01X0020270Y0016867D02*
G01X0020311Y0016883D01*
G01X0020311Y0016883D02*
G01X0020354Y0016895D01*
G01X0020354Y0016895D02*
G01X0020397Y0016903D01*
G01X0020397Y0016903D02*
G01X0020440Y0016908D01*
G01X0020440Y0016908D02*
G01X0020484Y0016910D01*
G01X0020484Y0016910D02*
G01X0021502Y0016910D01*
G01X0021589Y0017160D02*
G01X0021628Y0017158D01*
G01X0021628Y0017158D02*
G01X0021666Y0017152D01*
G01X0021666Y0017152D02*
G01X0021704Y0017143D01*
G01X0021704Y0017143D02*
G01X0021740Y0017130D01*
G01X0021740Y0017130D02*
G01X0021775Y0017113D01*
G01X0021775Y0017113D02*
G01X0021808Y0017093D01*
G01X0021808Y0017093D02*
G01X0021840Y0017070D01*
G01X0021840Y0017070D02*
G01X0021868Y0017044D01*
G01X0021868Y0017044D02*
G01X0022244Y0016668D01*
G01X0022089Y0016503D02*
G01X0022089Y0016215D01*
G01X0022345Y0016425D02*
G01X0022343Y0016459D01*
G01X0022343Y0016459D02*
G01X0022338Y0016492D01*
G01X0022338Y0016492D02*
G01X0022330Y0016525D01*
G01X0022330Y0016525D02*
G01X0022319Y0016557D01*
G01X0022319Y0016557D02*
G01X0022304Y0016587D01*
G01X0022304Y0016587D02*
G01X0022287Y0016616D01*
G01X0022287Y0016616D02*
G01X0022267Y0016643D01*
G01X0022267Y0016643D02*
G01X0022244Y0016668D01*
G01X0022498Y0016664D02*
G01X0022521Y0016638D01*
G01X0022521Y0016638D02*
G01X0022541Y0016611D01*
G01X0022541Y0016611D02*
G01X0022559Y0016582D01*
G01X0022559Y0016582D02*
G01X0022573Y0016551D01*
G01X0022573Y0016551D02*
G01X0022585Y0016518D01*
G01X0022585Y0016518D02*
G01X0022593Y0016485D01*
G01X0022593Y0016485D02*
G01X0022598Y0016451D01*
G01X0022598Y0016451D02*
G01X0022600Y0016417D01*
G01X0022601Y0016417D02*
G01X0022601Y0016215D01*
G01X0022857Y0016409D02*
G01X0022855Y0016444D01*
G01X0022855Y0016444D02*
G01X0022850Y0016478D01*
G01X0022850Y0016478D02*
G01X0022842Y0016512D01*
G01X0022842Y0016512D02*
G01X0022830Y0016545D01*
G01X0022830Y0016545D02*
G01X0022815Y0016576D01*
G01X0022815Y0016576D02*
G01X0022797Y0016606D01*
G01X0022797Y0016606D02*
G01X0022776Y0016634D01*
G01X0022776Y0016634D02*
G01X0022753Y0016660D01*
G01X0022753Y0016660D02*
G01X0022106Y0017306D01*
G01X0021981Y0017181D02*
G01X0022498Y0016664D01*
G01X0023368Y0016789D02*
G01X0023366Y0016837D01*
G01X0023366Y0016837D02*
G01X0023360Y0016885D01*
G01X0023360Y0016885D02*
G01X0023351Y0016933D01*
G01X0023351Y0016933D02*
G01X0023338Y0016979D01*
G01X0023338Y0016979D02*
G01X0023321Y0017025D01*
G01X0023321Y0017025D02*
G01X0023301Y0017069D01*
G01X0023301Y0017069D02*
G01X0023277Y0017111D01*
G01X0023277Y0017111D02*
G01X0023250Y0017151D01*
G01X0023250Y0017151D02*
G01X0023220Y0017189D01*
G01X0023220Y0017189D02*
G01X0023188Y0017225D01*
G01X0023188Y0017224D02*
G01X0022502Y0017910D01*
G01X0022502Y0017910D02*
G01X0022502Y0018160D01*
G01X0023543Y0017871D02*
G01X0023564Y0017847D01*
G01X0023564Y0017847D02*
G01X0023582Y0017822D01*
G01X0023582Y0017822D02*
G01X0023597Y0017794D01*
G01X0023597Y0017794D02*
G01X0023609Y0017765D01*
G01X0023609Y0017765D02*
G01X0023618Y0017735D01*
G01X0023618Y0017735D02*
G01X0023623Y0017703D01*
G01X0023623Y0017703D02*
G01X0023625Y0017672D01*
G01X0023624Y0017672D02*
G01X0023624Y0016215D01*
G01X0023369Y0016215D02*
G01X0023369Y0016789D01*
G01X0023044Y0016619D02*
G01X0021502Y0018160D01*
G01X0021054Y0017410D02*
G01X0021002Y0017412D01*
G01X0021002Y0017412D02*
G01X0020950Y0017417D01*
G01X0020950Y0017417D02*
G01X0020899Y0017427D01*
G01X0020899Y0017427D02*
G01X0020849Y0017440D01*
G01X0020849Y0017440D02*
G01X0020799Y0017456D01*
G01X0020799Y0017456D02*
G01X0020751Y0017476D01*
G01X0020751Y0017476D02*
G01X0020705Y0017499D01*
G01X0020705Y0017499D02*
G01X0020660Y0017526D01*
G01X0020660Y0017526D02*
G01X0020617Y0017555D01*
G01X0020617Y0017555D02*
G01X0020577Y0017588D01*
G01X0020577Y0017588D02*
G01X0020539Y0017624D01*
G01X0020502Y0017712D02*
G01X0020502Y0018160D01*
G01X0020063Y0017600D02*
G01X0020107Y0017558D01*
G01X0020107Y0017558D02*
G01X0020153Y0017520D01*
G01X0020153Y0017520D02*
G01X0020201Y0017483D01*
G01X0020201Y0017483D02*
G01X0020251Y0017450D01*
G01X0020251Y0017450D02*
G01X0020303Y0017419D01*
G01X0020303Y0017419D02*
G01X0020357Y0017391D01*
G01X0020357Y0017391D02*
G01X0020412Y0017367D01*
G01X0020412Y0017367D02*
G01X0020468Y0017345D01*
G01X0020468Y0017345D02*
G01X0020525Y0017327D01*
G01X0020525Y0017327D02*
G01X0020584Y0017312D01*
G01X0020584Y0017312D02*
G01X0020643Y0017300D01*
G01X0020643Y0017300D02*
G01X0020703Y0017292D01*
G01X0020703Y0017292D02*
G01X0020763Y0017287D01*
G01X0020763Y0017287D02*
G01X0020823Y0017285D01*
G01X0020823Y0017285D02*
G01X0021731Y0017285D01*
G01X0021856Y0017410D02*
G01X0021054Y0017410D01*
G01X0020539Y0017624D02*
G01X0020526Y0017639D01*
G01X0020526Y0017639D02*
G01X0020516Y0017655D01*
G01X0020516Y0017655D02*
G01X0020508Y0017673D01*
G01X0020508Y0017673D02*
G01X0020504Y0017692D01*
G01X0020504Y0017692D02*
G01X0020502Y0017712D01*
G01X0020062Y0017600D02*
G01X0019798Y0017865D01*
G01X0019085Y0018160D02*
G01X0018752Y0018160D01*
G01X0018379Y0018660D02*
G01X0018320Y0018658D01*
G01X0018320Y0018658D02*
G01X0018260Y0018652D01*
G01X0018260Y0018652D02*
G01X0018202Y0018643D01*
G01X0018202Y0018643D02*
G01X0018144Y0018629D01*
G01X0018144Y0018629D02*
G01X0018087Y0018612D01*
G01X0018087Y0018612D02*
G01X0018031Y0018591D01*
G01X0018031Y0018591D02*
G01X0017977Y0018566D01*
G01X0017977Y0018566D02*
G01X0017925Y0018538D01*
G01X0017925Y0018538D02*
G01X0017874Y0018507D01*
G01X0017874Y0018507D02*
G01X0017826Y0018472D01*
G01X0017826Y0018472D02*
G01X0017780Y0018434D01*
G01X0017780Y0018434D02*
G01X0017736Y0018394D01*
G01X0017736Y0018394D02*
G01X0016750Y0017408D01*
G01X0016252Y0018160D02*
G01X0015662Y0017569D01*
G01X0015252Y0018160D02*
G01X0014618Y0017526D01*
G01X0014339Y0017410D02*
G01X0014054Y0017410D01*
G01X0014011Y0017160D02*
G01X0014673Y0017160D01*
G01X0014054Y0017410D02*
G01X0014002Y0017408D01*
G01X0014002Y0017408D02*
G01X0013950Y0017403D01*
G01X0013950Y0017403D02*
G01X0013899Y0017393D01*
G01X0013899Y0017393D02*
G01X0013849Y0017380D01*
G01X0013849Y0017380D02*
G01X0013799Y0017364D01*
G01X0013799Y0017364D02*
G01X0013751Y0017344D01*
G01X0013751Y0017344D02*
G01X0013705Y0017321D01*
G01X0013705Y0017321D02*
G01X0013660Y0017294D01*
G01X0013660Y0017294D02*
G01X0013617Y0017265D01*
G01X0013617Y0017265D02*
G01X0013577Y0017232D01*
G01X0013577Y0017232D02*
G01X0013539Y0017196D01*
G01X0013539Y0017197D02*
G01X0013005Y0016663D01*
G01X0012512Y0016920D02*
G01X0012485Y0016891D01*
G01X0012485Y0016891D02*
G01X0012461Y0016860D01*
G01X0012461Y0016860D02*
G01X0012440Y0016827D01*
G01X0012440Y0016827D02*
G01X0012422Y0016792D01*
G01X0012422Y0016792D02*
G01X0012407Y0016756D01*
G01X0012407Y0016756D02*
G01X0012395Y0016718D01*
G01X0012395Y0016718D02*
G01X0012387Y0016680D01*
G01X0012387Y0016680D02*
G01X0012382Y0016641D01*
G01X0012382Y0016641D02*
G01X0012380Y0016602D01*
G01X0012380Y0016602D02*
G01X0012380Y0016215D01*
G01X0012124Y0016215D02*
G01X0012124Y0016765D01*
G01X0012124Y0016765D02*
G01X0012125Y0016776D01*
G01X0012125Y0016776D02*
G01X0012130Y0016786D01*
G01X0012130Y0016786D02*
G01X0012136Y0016795D01*
G01X0012252Y0017074D02*
G01X0012252Y0018160D01*
G01X0011253Y0017855D02*
G01X0011255Y0017795D01*
G01X0011255Y0017795D02*
G01X0011260Y0017735D01*
G01X0011260Y0017735D02*
G01X0011268Y0017675D01*
G01X0011268Y0017675D02*
G01X0011280Y0017616D01*
G01X0011280Y0017616D02*
G01X0011295Y0017557D01*
G01X0011295Y0017557D02*
G01X0011313Y0017500D01*
G01X0011313Y0017500D02*
G01X0011335Y0017444D01*
G01X0011335Y0017444D02*
G01X0011359Y0017389D01*
G01X0011359Y0017389D02*
G01X0011387Y0017335D01*
G01X0011387Y0017335D02*
G01X0011418Y0017283D01*
G01X0011418Y0017283D02*
G01X0011451Y0017233D01*
G01X0011451Y0017233D02*
G01X0011488Y0017185D01*
G01X0011488Y0017185D02*
G01X0011526Y0017139D01*
G01X0011526Y0017139D02*
G01X0011568Y0017095D01*
G01X0011567Y0017095D02*
G01X0011612Y0017051D01*
G01X0012136Y0016795D02*
G01X0012162Y0016823D01*
G01X0012162Y0016823D02*
G01X0012185Y0016855D01*
G01X0012185Y0016855D02*
G01X0012205Y0016888D01*
G01X0012205Y0016888D02*
G01X0012222Y0016923D01*
G01X0012222Y0016923D02*
G01X0012235Y0016959D01*
G01X0012235Y0016959D02*
G01X0012244Y0016997D01*
G01X0012244Y0016997D02*
G01X0012250Y0017035D01*
G01X0012250Y0017035D02*
G01X0012252Y0017074D01*
G01X0012512Y0016920D02*
G01X0013252Y0017660D01*
G01X0013252Y0017660D02*
G01X0013252Y0018160D01*
G01X0014252Y0018160D02*
G01X0012717Y0016625D01*
G01X0012636Y0016430D02*
G01X0012636Y0016215D01*
G01X0012892Y0016215D02*
G01X0012892Y0016390D01*
G01X0012636Y0016430D02*
G01X0012638Y0016461D01*
G01X0012638Y0016461D02*
G01X0012643Y0016491D01*
G01X0012643Y0016491D02*
G01X0012651Y0016521D01*
G01X0012651Y0016521D02*
G01X0012663Y0016550D01*
G01X0012663Y0016550D02*
G01X0012678Y0016577D01*
G01X0012678Y0016577D02*
G01X0012696Y0016602D01*
G01X0012696Y0016602D02*
G01X0012717Y0016625D01*
G01X0013148Y0016443D02*
G01X0013148Y0016215D01*
G01X0012893Y0016390D02*
G01X0012895Y0016428D01*
G01X0012895Y0016428D02*
G01X0012900Y0016465D01*
G01X0012900Y0016465D02*
G01X0012910Y0016502D01*
G01X0012910Y0016502D02*
G01X0012922Y0016538D01*
G01X0012922Y0016538D02*
G01X0012939Y0016572D01*
G01X0012939Y0016572D02*
G01X0012958Y0016604D01*
G01X0012958Y0016604D02*
G01X0012981Y0016635D01*
G01X0012981Y0016635D02*
G01X0013006Y0016663D01*
G01X0013228Y0016635D02*
G01X0013569Y0016977D01*
G01X0013649Y0016806D02*
G01X0013470Y0016627D01*
G01X0013404Y0016468D02*
G01X0013404Y0016215D01*
G01X0013148Y0016443D02*
G01X0013150Y0016473D01*
G01X0013150Y0016473D02*
G01X0013155Y0016504D01*
G01X0013155Y0016504D02*
G01X0013163Y0016533D01*
G01X0013163Y0016533D02*
G01X0013175Y0016561D01*
G01X0013175Y0016561D02*
G01X0013190Y0016588D01*
G01X0013190Y0016588D02*
G01X0013207Y0016613D01*
G01X0013207Y0016613D02*
G01X0013228Y0016635D01*
G01X0013470Y0016627D02*
G01X0013450Y0016605D01*
G01X0013450Y0016605D02*
G01X0013434Y0016580D01*
G01X0013434Y0016580D02*
G01X0013421Y0016554D01*
G01X0013421Y0016554D02*
G01X0013412Y0016526D01*
G01X0013412Y0016526D02*
G01X0013406Y0016497D01*
G01X0013406Y0016497D02*
G01X0013404Y0016468D01*
G01X0013660Y0016456D02*
G01X0013660Y0016215D01*
G01X0013916Y0016215D02*
G01X0013916Y0016524D01*
G01X0013899Y0016910D02*
G01X0013864Y0016908D01*
G01X0013864Y0016908D02*
G01X0013830Y0016903D01*
G01X0013830Y0016903D02*
G01X0013796Y0016895D01*
G01X0013796Y0016895D02*
G01X0013764Y0016883D01*
G01X0013764Y0016883D02*
G01X0013732Y0016868D01*
G01X0013732Y0016868D02*
G01X0013702Y0016850D01*
G01X0013702Y0016850D02*
G01X0013674Y0016830D01*
G01X0013674Y0016830D02*
G01X0013649Y0016806D01*
G01X0013774Y0016681D02*
G01X0013738Y0016646D01*
G01X0013738Y0016646D02*
G01X0013718Y0016624D01*
G01X0013718Y0016624D02*
G01X0013700Y0016599D01*
G01X0013700Y0016599D02*
G01X0013686Y0016573D01*
G01X0013686Y0016573D02*
G01X0013674Y0016545D01*
G01X0013674Y0016545D02*
G01X0013666Y0016516D01*
G01X0013666Y0016516D02*
G01X0013661Y0016486D01*
G01X0013661Y0016486D02*
G01X0013659Y0016456D01*
G01X0013569Y0016977D02*
G01X0013605Y0017010D01*
G01X0013605Y0017010D02*
G01X0013644Y0017041D01*
G01X0013644Y0017041D02*
G01X0013684Y0017068D01*
G01X0013684Y0017068D02*
G01X0013727Y0017092D01*
G01X0013727Y0017092D02*
G01X0013772Y0017112D01*
G01X0013772Y0017112D02*
G01X0013818Y0017129D01*
G01X0013818Y0017129D02*
G01X0013865Y0017143D01*
G01X0013865Y0017143D02*
G01X0013913Y0017152D01*
G01X0013913Y0017152D02*
G01X0013962Y0017158D01*
G01X0013962Y0017158D02*
G01X0014011Y0017160D01*
G01X0013899Y0016910D02*
G01X0015548Y0016910D01*
G01X0016347Y0016660D02*
G01X0014076Y0016660D01*
G01X0014024Y0016785D02*
G01X0017816Y0016785D01*
G01X0017816Y0016785D02*
G01X0017839Y0016783D01*
G01X0017839Y0016783D02*
G01X0017861Y0016778D01*
G01X0017861Y0016778D02*
G01X0017883Y0016769D01*
G01X0017883Y0016769D02*
G01X0017902Y0016757D01*
G01X0017902Y0016757D02*
G01X0017920Y0016742D01*
G01X0018118Y0016660D02*
G01X0019880Y0016660D01*
G01X0020153Y0016311D02*
G01X0020123Y0016283D01*
G01X0020123Y0016283D02*
G01X0020092Y0016258D01*
G01X0020092Y0016258D02*
G01X0020058Y0016236D01*
G01X0020058Y0016236D02*
G01X0020023Y0016216D01*
G01X0020023Y0016216D02*
G01X0019986Y0016199D01*
G01X0019986Y0016199D02*
G01X0019948Y0016185D01*
G01X0019948Y0016185D02*
G01X0019909Y0016174D01*
G01X0019909Y0016174D02*
G01X0019870Y0016166D01*
G01X0019870Y0016166D02*
G01X0019829Y0016162D01*
G01X0019829Y0016162D02*
G01X0019789Y0016160D01*
G01X0019789Y0016160D02*
G01X0018752Y0016160D01*
G01X0018761Y0015660D02*
G01X0019700Y0015660D01*
G01X0019625Y0015160D02*
G01X0019685Y0015162D01*
G01X0019685Y0015162D02*
G01X0019744Y0015168D01*
G01X0019744Y0015168D02*
G01X0019803Y0015177D01*
G01X0019803Y0015177D02*
G01X0019861Y0015191D01*
G01X0019861Y0015191D02*
G01X0019918Y0015208D01*
G01X0019918Y0015208D02*
G01X0019973Y0015229D01*
G01X0019973Y0015229D02*
G01X0020027Y0015254D01*
G01X0020027Y0015254D02*
G01X0020080Y0015282D01*
G01X0020080Y0015282D02*
G01X0020131Y0015313D01*
G01X0020131Y0015313D02*
G01X0020179Y0015348D01*
G01X0020179Y0015348D02*
G01X0020225Y0015386D01*
G01X0020225Y0015386D02*
G01X0020268Y0015427D01*
G01X0019625Y0015160D02*
G01X0018752Y0015160D01*
G01X0019137Y0014660D02*
G01X0017439Y0014660D01*
G01X0017120Y0014528D02*
G01X0015304Y0012712D01*
G01X0015179Y0012660D02*
G01X0013929Y0012660D01*
G01X0013841Y0012697D02*
G01X0013689Y0012849D01*
G01X0013660Y0012918D02*
G01X0013660Y0013105D01*
G01X0013660Y0012918D02*
G01X0013662Y0012899D01*
G01X0013662Y0012899D02*
G01X0013667Y0012880D01*
G01X0013667Y0012880D02*
G01X0013677Y0012864D01*
G01X0013677Y0012864D02*
G01X0013689Y0012849D01*
G01X0013434Y0012854D02*
G01X0013421Y0012869D01*
G01X0013421Y0012869D02*
G01X0013412Y0012887D01*
G01X0013412Y0012887D02*
G01X0013406Y0012906D01*
G01X0013406Y0012906D02*
G01X0013404Y0012926D01*
G01X0013404Y0012926D02*
G01X0013404Y0013105D01*
G01X0013404Y0013105D02*
G01X0013404Y0013258D01*
G01X0013148Y0013105D02*
G01X0013148Y0012933D01*
G01X0013179Y0012858D02*
G01X0013591Y0012447D01*
G01X0013679Y0012410D02*
G01X0015387Y0012410D01*
G01X0015584Y0012328D02*
G01X0015937Y0011975D01*
G01X0015778Y0012600D02*
G01X0015799Y0012617D01*
G01X0015799Y0012617D02*
G01X0015821Y0012632D01*
G01X0015821Y0012632D02*
G01X0015845Y0012644D01*
G01X0015845Y0012644D02*
G01X0015871Y0012653D01*
G01X0015871Y0012653D02*
G01X0015897Y0012658D01*
G01X0015897Y0012658D02*
G01X0015924Y0012660D01*
G01X0015924Y0012660D02*
G01X0018002Y0012660D01*
G01X0018752Y0012160D02*
G01X0019618Y0012160D01*
G01X0019618Y0012160D02*
G01X0019650Y0012162D01*
G01X0019650Y0012162D02*
G01X0019681Y0012166D01*
G01X0019681Y0012166D02*
G01X0019712Y0012174D01*
G01X0019712Y0012174D02*
G01X0019742Y0012185D01*
G01X0019742Y0012185D02*
G01X0019770Y0012198D01*
G01X0019770Y0012198D02*
G01X0019797Y0012214D01*
G01X0019797Y0012214D02*
G01X0019823Y0012233D01*
G01X0019823Y0012233D02*
G01X0019846Y0012255D01*
G01X0019884Y0011917D02*
G01X0019858Y0011888D01*
G01X0019858Y0011888D02*
G01X0019834Y0011857D01*
G01X0019834Y0011857D02*
G01X0019812Y0011824D01*
G01X0019812Y0011824D02*
G01X0019794Y0011789D01*
G01X0019794Y0011789D02*
G01X0019779Y0011752D01*
G01X0019779Y0011752D02*
G01X0019767Y0011715D01*
G01X0019767Y0011715D02*
G01X0019759Y0011676D01*
G01X0019759Y0011676D02*
G01X0019754Y0011637D01*
G01X0019754Y0011637D02*
G01X0019752Y0011598D01*
G01X0019752Y0011598D02*
G01X0019750Y0011558D01*
G01X0019750Y0011558D02*
G01X0019745Y0011518D01*
G01X0019745Y0011518D02*
G01X0019735Y0011478D01*
G01X0019735Y0011478D02*
G01X0019722Y0011440D01*
G01X0019722Y0011440D02*
G01X0019706Y0011403D01*
G01X0019706Y0011403D02*
G01X0019686Y0011367D01*
G01X0019686Y0011367D02*
G01X0019664Y0011334D01*
G01X0019664Y0011334D02*
G01X0019638Y0011303D01*
G01X0019638Y0011303D02*
G01X0019609Y0011274D01*
G01X0019609Y0011274D02*
G01X0019578Y0011248D01*
G01X0019578Y0011248D02*
G01X0019545Y0011226D01*
G01X0019545Y0011226D02*
G01X0019509Y0011206D01*
G01X0019509Y0011206D02*
G01X0019472Y0011190D01*
G01X0019472Y0011190D02*
G01X0019434Y0011177D01*
G01X0019434Y0011177D02*
G01X0019394Y0011167D01*
G01X0019394Y0011167D02*
G01X0019354Y0011162D01*
G01X0019354Y0011162D02*
G01X0019314Y0011160D01*
G01X0019314Y0011160D02*
G01X0018752Y0011160D01*
G01X0019021Y0009642D02*
G01X0019058Y0009606D01*
G01X0019058Y0009606D02*
G01X0019098Y0009573D01*
G01X0019098Y0009573D02*
G01X0019141Y0009543D01*
G01X0019141Y0009543D02*
G01X0019184Y0009516D01*
G01X0019184Y0009516D02*
G01X0019230Y0009492D01*
G01X0019230Y0009492D02*
G01X0019277Y0009470D01*
G01X0019277Y0009470D02*
G01X0019326Y0009452D01*
G01X0019326Y0009452D02*
G01X0019375Y0009437D01*
G01X0019375Y0009437D02*
G01X0019426Y0009425D01*
G01X0019426Y0009425D02*
G01X0019477Y0009417D01*
G01X0019477Y0009417D02*
G01X0019528Y0009412D01*
G01X0019528Y0009412D02*
G01X0019580Y0009410D01*
G01X0019580Y0009410D02*
G01X0021129Y0009410D01*
G01X0021129Y0009160D02*
G01X0019002Y0009160D01*
G01X0019021Y0009642D02*
G01X0019002Y0009660D01*
G01X0019207Y0009955D02*
G01X0019002Y0010160D01*
G01X0019920Y0009660D02*
G01X0021171Y0009660D01*
G01X0021737Y0009426D02*
G01X0023143Y0008020D01*
G01X0022743Y0008169D02*
G01X0021766Y0009146D01*
G01X0021766Y0008896D02*
G01X0022601Y0008061D01*
G01X0022304Y0007858D02*
G01X0022420Y0007742D01*
G01X0022752Y0007697D02*
G01X0022750Y0007742D01*
G01X0022750Y0007742D02*
G01X0022744Y0007786D01*
G01X0022744Y0007786D02*
G01X0022734Y0007830D01*
G01X0022734Y0007830D02*
G01X0022721Y0007873D01*
G01X0022721Y0007873D02*
G01X0022704Y0007915D01*
G01X0022704Y0007915D02*
G01X0022683Y0007954D01*
G01X0022683Y0007954D02*
G01X0022659Y0007992D01*
G01X0022659Y0007992D02*
G01X0022632Y0008028D01*
G01X0022632Y0008028D02*
G01X0022601Y0008061D01*
G01X0022179Y0007910D02*
G01X0021772Y0007910D01*
G01X0021459Y0007410D02*
G01X0021415Y0007412D01*
G01X0021415Y0007412D02*
G01X0021372Y0007418D01*
G01X0021372Y0007418D02*
G01X0021330Y0007427D01*
G01X0021330Y0007427D02*
G01X0021288Y0007440D01*
G01X0021288Y0007440D02*
G01X0021248Y0007457D01*
G01X0021248Y0007457D02*
G01X0021209Y0007477D01*
G01X0021209Y0007477D02*
G01X0021172Y0007500D01*
G01X0021172Y0007500D02*
G01X0021138Y0007527D01*
G01X0021138Y0007527D02*
G01X0021105Y0007556D01*
G01X0021084Y0007328D02*
G01X0021170Y0007242D01*
G01X0021084Y0007078D02*
G01X0021170Y0006992D01*
G01X0021368Y0006910D02*
G01X0021772Y0006910D01*
G01X0021466Y0006410D02*
G01X0021426Y0006412D01*
G01X0021426Y0006412D02*
G01X0021385Y0006416D01*
G01X0021385Y0006416D02*
G01X0021346Y0006424D01*
G01X0021346Y0006424D02*
G01X0021307Y0006435D01*
G01X0021307Y0006435D02*
G01X0021269Y0006449D01*
G01X0021269Y0006449D02*
G01X0021232Y0006466D01*
G01X0021232Y0006466D02*
G01X0021197Y0006486D01*
G01X0021197Y0006486D02*
G01X0021163Y0006508D01*
G01X0021163Y0006508D02*
G01X0021132Y0006533D01*
G01X0021132Y0006533D02*
G01X0021102Y0006561D01*
G01X0021101Y0006561D02*
G01X0021084Y0006578D01*
G01X0020887Y0006660D02*
G01X0019966Y0006660D01*
G01X0019939Y0006160D02*
G01X0019900Y0006162D01*
G01X0019900Y0006162D02*
G01X0019861Y0006167D01*
G01X0019861Y0006167D02*
G01X0019822Y0006175D01*
G01X0019822Y0006175D02*
G01X0019785Y0006187D01*
G01X0019785Y0006187D02*
G01X0019748Y0006202D01*
G01X0019748Y0006202D02*
G01X0019713Y0006220D01*
G01X0019713Y0006220D02*
G01X0019680Y0006242D01*
G01X0019680Y0006242D02*
G01X0019649Y0006266D01*
G01X0019649Y0006266D02*
G01X0019620Y0006292D01*
G01X0019634Y0006028D02*
G01X0019663Y0006001D01*
G01X0019663Y0006001D02*
G01X0019695Y0005978D01*
G01X0019695Y0005978D02*
G01X0019729Y0005958D01*
G01X0019729Y0005958D02*
G01X0019765Y0005941D01*
G01X0019765Y0005941D02*
G01X0019802Y0005927D01*
G01X0019802Y0005927D02*
G01X0019840Y0005918D01*
G01X0019840Y0005918D02*
G01X0019879Y0005912D01*
G01X0019879Y0005912D02*
G01X0019919Y0005910D01*
G01X0019919Y0005910D02*
G01X0020355Y0005910D01*
G01X0020355Y0005910D02*
G01X0020839Y0005910D01*
G01X0020887Y0006160D02*
G01X0020918Y0006158D01*
G01X0020918Y0006158D02*
G01X0020949Y0006153D01*
G01X0020949Y0006153D02*
G01X0020979Y0006144D01*
G01X0020979Y0006144D02*
G01X0021008Y0006132D01*
G01X0021008Y0006132D02*
G01X0021036Y0006117D01*
G01X0021036Y0006117D02*
G01X0021062Y0006099D01*
G01X0021062Y0006099D02*
G01X0021085Y0006078D01*
G01X0021084Y0006078D02*
G01X0021137Y0006026D01*
G01X0021118Y0005794D02*
G01X0021137Y0005776D01*
G01X0021416Y0005660D02*
G01X0022137Y0005660D01*
G01X0022334Y0005742D02*
G01X0022887Y0006294D01*
G01X0023136Y0006045D02*
G01X0023162Y0006073D01*
G01X0023162Y0006073D02*
G01X0023185Y0006105D01*
G01X0023185Y0006105D02*
G01X0023205Y0006138D01*
G01X0023205Y0006138D02*
G01X0023222Y0006173D01*
G01X0023222Y0006173D02*
G01X0023235Y0006209D01*
G01X0023235Y0006209D02*
G01X0023244Y0006247D01*
G01X0023244Y0006247D02*
G01X0023250Y0006285D01*
G01X0023250Y0006285D02*
G01X0023252Y0006324D01*
G01X0023252Y0006324D02*
G01X0023252Y0007755D01*
G01X0023002Y0007544D02*
G01X0023002Y0006574D01*
G01X0022752Y0006846D02*
G01X0022752Y0007697D01*
G01X0023252Y0007755D02*
G01X0023250Y0007792D01*
G01X0023250Y0007792D02*
G01X0023245Y0007828D01*
G01X0023245Y0007828D02*
G01X0023236Y0007864D01*
G01X0023236Y0007864D02*
G01X0023223Y0007899D01*
G01X0023223Y0007899D02*
G01X0023208Y0007932D01*
G01X0023208Y0007932D02*
G01X0023189Y0007963D01*
G01X0023189Y0007963D02*
G01X0023167Y0007993D01*
G01X0023167Y0007993D02*
G01X0023142Y0008020D01*
G01X0022304Y0007858D02*
G01X0022287Y0007873D01*
G01X0022287Y0007873D02*
G01X0022267Y0007886D01*
G01X0022267Y0007886D02*
G01X0022247Y0007897D01*
G01X0022247Y0007897D02*
G01X0022225Y0007904D01*
G01X0022225Y0007904D02*
G01X0022202Y0007908D01*
G01X0022202Y0007908D02*
G01X0022179Y0007910D01*
G01X0022408Y0007315D02*
G01X0022377Y0007287D01*
G01X0022377Y0007287D02*
G01X0022345Y0007261D01*
G01X0022345Y0007261D02*
G01X0022310Y0007238D01*
G01X0022310Y0007238D02*
G01X0022274Y0007218D01*
G01X0022274Y0007218D02*
G01X0022236Y0007200D01*
G01X0022236Y0007200D02*
G01X0022197Y0007186D01*
G01X0022197Y0007186D02*
G01X0022157Y0007175D01*
G01X0022157Y0007175D02*
G01X0022116Y0007167D01*
G01X0022116Y0007167D02*
G01X0022075Y0007162D01*
G01X0022075Y0007162D02*
G01X0022033Y0007160D01*
G01X0022033Y0007160D02*
G01X0021368Y0007160D01*
G01X0021368Y0006910D02*
G01X0021337Y0006912D01*
G01X0021337Y0006912D02*
G01X0021306Y0006917D01*
G01X0021306Y0006917D02*
G01X0021276Y0006926D01*
G01X0021276Y0006926D02*
G01X0021247Y0006938D01*
G01X0021247Y0006938D02*
G01X0021219Y0006953D01*
G01X0021219Y0006953D02*
G01X0021193Y0006971D01*
G01X0021193Y0006971D02*
G01X0021170Y0006992D01*
G01X0021085Y0007078D02*
G01X0021062Y0007099D01*
G01X0021062Y0007099D02*
G01X0021036Y0007117D01*
G01X0021036Y0007117D02*
G01X0021008Y0007132D01*
G01X0021008Y0007132D02*
G01X0020979Y0007144D01*
G01X0020979Y0007144D02*
G01X0020949Y0007153D01*
G01X0020949Y0007153D02*
G01X0020918Y0007158D01*
G01X0020918Y0007158D02*
G01X0020887Y0007160D01*
G01X0020887Y0007160D02*
G01X0019842Y0007160D01*
G01X0019700Y0006963D02*
G01X0019717Y0006947D01*
G01X0019717Y0006947D02*
G01X0019737Y0006934D01*
G01X0019737Y0006934D02*
G01X0019758Y0006924D01*
G01X0019758Y0006924D02*
G01X0019780Y0006916D01*
G01X0019780Y0006916D02*
G01X0019804Y0006912D01*
G01X0019804Y0006912D02*
G01X0019827Y0006910D01*
G01X0019827Y0006910D02*
G01X0020355Y0006910D01*
G01X0020887Y0007410D02*
G01X0020918Y0007408D01*
G01X0020918Y0007408D02*
G01X0020949Y0007403D01*
G01X0020949Y0007403D02*
G01X0020979Y0007394D01*
G01X0020979Y0007394D02*
G01X0021008Y0007382D01*
G01X0021008Y0007382D02*
G01X0021036Y0007367D01*
G01X0021036Y0007367D02*
G01X0021062Y0007349D01*
G01X0021062Y0007349D02*
G01X0021085Y0007328D01*
G01X0020887Y0007410D02*
G01X0020355Y0007410D01*
G01X0019990Y0007660D02*
G01X0020856Y0007660D01*
G01X0020355Y0007910D02*
G01X0020189Y0007910D01*
G01X0019870Y0008042D02*
G01X0019752Y0008160D01*
G01X0019584Y0007828D02*
G01X0019617Y0007798D01*
G01X0019617Y0007798D02*
G01X0019653Y0007770D01*
G01X0019653Y0007770D02*
G01X0019690Y0007745D01*
G01X0019690Y0007745D02*
G01X0019729Y0007723D01*
G01X0019729Y0007723D02*
G01X0019770Y0007704D01*
G01X0019770Y0007704D02*
G01X0019813Y0007688D01*
G01X0019813Y0007688D02*
G01X0019856Y0007676D01*
G01X0019856Y0007676D02*
G01X0019900Y0007667D01*
G01X0019900Y0007667D02*
G01X0019945Y0007662D01*
G01X0019945Y0007662D02*
G01X0019990Y0007660D01*
G01X0019842Y0007160D02*
G01X0019814Y0007162D01*
G01X0019814Y0007162D02*
G01X0019786Y0007167D01*
G01X0019786Y0007167D02*
G01X0019759Y0007176D01*
G01X0019759Y0007176D02*
G01X0019734Y0007189D01*
G01X0019734Y0007189D02*
G01X0019711Y0007205D01*
G01X0019711Y0007205D02*
G01X0019689Y0007223D01*
G01X0019602Y0006811D02*
G01X0019632Y0006783D01*
G01X0019632Y0006783D02*
G01X0019663Y0006758D01*
G01X0019663Y0006758D02*
G01X0019697Y0006736D01*
G01X0019697Y0006736D02*
G01X0019732Y0006716D01*
G01X0019732Y0006716D02*
G01X0019769Y0006699D01*
G01X0019769Y0006699D02*
G01X0019807Y0006685D01*
G01X0019807Y0006685D02*
G01X0019846Y0006674D01*
G01X0019846Y0006674D02*
G01X0019885Y0006666D01*
G01X0019885Y0006666D02*
G01X0019926Y0006662D01*
G01X0019926Y0006662D02*
G01X0019966Y0006660D01*
G01X0019916Y0006410D02*
G01X0019877Y0006412D01*
G01X0019877Y0006412D02*
G01X0019839Y0006418D01*
G01X0019839Y0006418D02*
G01X0019801Y0006427D01*
G01X0019801Y0006427D02*
G01X0019765Y0006440D01*
G01X0019765Y0006440D02*
G01X0019730Y0006457D01*
G01X0019730Y0006457D02*
G01X0019697Y0006477D01*
G01X0019697Y0006477D02*
G01X0019665Y0006500D01*
G01X0019665Y0006500D02*
G01X0019637Y0006526D01*
G01X0019601Y0006811D02*
G01X0019576Y0006833D01*
G01X0019576Y0006833D02*
G01X0019550Y0006853D01*
G01X0019550Y0006853D02*
G01X0019521Y0006870D01*
G01X0019521Y0006870D02*
G01X0019491Y0006884D01*
G01X0019491Y0006884D02*
G01X0019460Y0006895D01*
G01X0019460Y0006895D02*
G01X0019428Y0006904D01*
G01X0019428Y0006904D02*
G01X0019395Y0006908D01*
G01X0019395Y0006908D02*
G01X0019362Y0006910D01*
G01X0019362Y0006910D02*
G01X0018150Y0006910D01*
G01X0017859Y0006660D02*
G01X0019313Y0006660D01*
G01X0019688Y0007223D02*
G01X0019652Y0007257D01*
G01X0019652Y0007257D02*
G01X0019612Y0007288D01*
G01X0019612Y0007288D02*
G01X0019571Y0007316D01*
G01X0019571Y0007316D02*
G01X0019527Y0007341D01*
G01X0019527Y0007341D02*
G01X0019482Y0007362D01*
G01X0019482Y0007362D02*
G01X0019435Y0007379D01*
G01X0019435Y0007379D02*
G01X0019387Y0007392D01*
G01X0019387Y0007392D02*
G01X0019338Y0007402D01*
G01X0019338Y0007402D02*
G01X0019288Y0007408D01*
G01X0019288Y0007408D02*
G01X0019238Y0007410D01*
G01X0019238Y0007410D02*
G01X0018150Y0007410D01*
G01X0018150Y0007910D02*
G01X0019387Y0007910D01*
G01X0019387Y0007910D02*
G01X0019418Y0007908D01*
G01X0019418Y0007908D02*
G01X0019449Y0007903D01*
G01X0019449Y0007903D02*
G01X0019479Y0007894D01*
G01X0019479Y0007894D02*
G01X0019508Y0007882D01*
G01X0019508Y0007882D02*
G01X0019536Y0007867D01*
G01X0019536Y0007867D02*
G01X0019562Y0007849D01*
G01X0019562Y0007849D02*
G01X0019585Y0007828D01*
G01X0019870Y0008042D02*
G01X0019899Y0008016D01*
G01X0019899Y0008016D02*
G01X0019930Y0007992D01*
G01X0019930Y0007992D02*
G01X0019963Y0007970D01*
G01X0019963Y0007970D02*
G01X0019998Y0007952D01*
G01X0019998Y0007952D02*
G01X0020035Y0007937D01*
G01X0020035Y0007937D02*
G01X0020072Y0007925D01*
G01X0020072Y0007925D02*
G01X0020111Y0007917D01*
G01X0020111Y0007917D02*
G01X0020150Y0007912D01*
G01X0020150Y0007912D02*
G01X0020189Y0007910D01*
G01X0020856Y0007660D02*
G01X0020891Y0007658D01*
G01X0020891Y0007658D02*
G01X0020925Y0007653D01*
G01X0020925Y0007653D02*
G01X0020959Y0007645D01*
G01X0020959Y0007645D02*
G01X0020991Y0007633D01*
G01X0020991Y0007633D02*
G01X0021023Y0007618D01*
G01X0021023Y0007618D02*
G01X0021053Y0007600D01*
G01X0021053Y0007600D02*
G01X0021081Y0007580D01*
G01X0021081Y0007580D02*
G01X0021106Y0007556D01*
G01X0021170Y0007242D02*
G01X0021193Y0007221D01*
G01X0021193Y0007221D02*
G01X0021219Y0007203D01*
G01X0021219Y0007203D02*
G01X0021247Y0007188D01*
G01X0021247Y0007188D02*
G01X0021276Y0007176D01*
G01X0021276Y0007176D02*
G01X0021306Y0007167D01*
G01X0021306Y0007167D02*
G01X0021337Y0007162D01*
G01X0021337Y0007162D02*
G01X0021368Y0007160D01*
G01X0021459Y0007410D02*
G01X0021772Y0007410D01*
G01X0022743Y0008169D02*
G01X0022783Y0008127D01*
G01X0022783Y0008127D02*
G01X0022819Y0008082D01*
G01X0022819Y0008082D02*
G01X0022853Y0008035D01*
G01X0022853Y0008035D02*
G01X0022884Y0007986D01*
G01X0022884Y0007986D02*
G01X0022911Y0007935D01*
G01X0022911Y0007935D02*
G01X0022935Y0007882D01*
G01X0022935Y0007882D02*
G01X0022955Y0007828D01*
G01X0022955Y0007828D02*
G01X0022972Y0007773D01*
G01X0022972Y0007773D02*
G01X0022985Y0007716D01*
G01X0022985Y0007716D02*
G01X0022994Y0007659D01*
G01X0022994Y0007659D02*
G01X0023000Y0007602D01*
G01X0023000Y0007602D02*
G01X0023002Y0007544D01*
G01X0022503Y0007544D02*
G01X0022501Y0007575D01*
G01X0022501Y0007575D02*
G01X0022496Y0007606D01*
G01X0022496Y0007606D02*
G01X0022487Y0007636D01*
G01X0022487Y0007636D02*
G01X0022475Y0007665D01*
G01X0022475Y0007665D02*
G01X0022460Y0007693D01*
G01X0022460Y0007693D02*
G01X0022442Y0007719D01*
G01X0022442Y0007719D02*
G01X0022421Y0007742D01*
G01X0022502Y0007544D02*
G01X0022500Y0007512D01*
G01X0022500Y0007512D02*
G01X0022496Y0007481D01*
G01X0022496Y0007481D02*
G01X0022488Y0007450D01*
G01X0022488Y0007450D02*
G01X0022477Y0007420D01*
G01X0022477Y0007420D02*
G01X0022464Y0007391D01*
G01X0022464Y0007391D02*
G01X0022447Y0007364D01*
G01X0022447Y0007364D02*
G01X0022428Y0007338D01*
G01X0022428Y0007338D02*
G01X0022407Y0007315D01*
G01X0022752Y0006846D02*
G01X0022750Y0006802D01*
G01X0022750Y0006802D02*
G01X0022744Y0006759D01*
G01X0022744Y0006759D02*
G01X0022735Y0006717D01*
G01X0022735Y0006717D02*
G01X0022722Y0006675D01*
G01X0022722Y0006675D02*
G01X0022705Y0006635D01*
G01X0022705Y0006635D02*
G01X0022685Y0006596D01*
G01X0022685Y0006596D02*
G01X0022662Y0006559D01*
G01X0022662Y0006559D02*
G01X0022635Y0006525D01*
G01X0022635Y0006525D02*
G01X0022606Y0006492D01*
G01X0022606Y0006492D02*
G01X0022347Y0006233D01*
G01X0022170Y0006160D02*
G01X0021416Y0006160D01*
G01X0021137Y0005776D02*
G01X0021165Y0005750D01*
G01X0021165Y0005750D02*
G01X0021197Y0005727D01*
G01X0021197Y0005727D02*
G01X0021230Y0005707D01*
G01X0021230Y0005707D02*
G01X0021265Y0005690D01*
G01X0021265Y0005690D02*
G01X0021301Y0005677D01*
G01X0021301Y0005677D02*
G01X0021339Y0005668D01*
G01X0021339Y0005668D02*
G01X0021377Y0005662D01*
G01X0021377Y0005662D02*
G01X0021416Y0005660D01*
G01X0021118Y0005294D02*
G01X0021148Y0005267D01*
G01X0021148Y0005267D02*
G01X0021179Y0005243D01*
G01X0021179Y0005243D02*
G01X0021213Y0005221D01*
G01X0021213Y0005221D02*
G01X0021248Y0005203D01*
G01X0021248Y0005203D02*
G01X0021285Y0005188D01*
G01X0021285Y0005188D02*
G01X0021323Y0005176D01*
G01X0021323Y0005176D02*
G01X0021362Y0005167D01*
G01X0021362Y0005167D02*
G01X0021402Y0005162D01*
G01X0021402Y0005162D02*
G01X0021442Y0005160D01*
G01X0021442Y0005160D02*
G01X0022179Y0005160D01*
G01X0022304Y0005212D02*
G01X0023137Y0006044D01*
G01X0022886Y0006295D02*
G01X0022912Y0006323D01*
G01X0022912Y0006323D02*
G01X0022935Y0006355D01*
G01X0022935Y0006355D02*
G01X0022955Y0006388D01*
G01X0022955Y0006388D02*
G01X0022972Y0006423D01*
G01X0022972Y0006423D02*
G01X0022985Y0006459D01*
G01X0022985Y0006459D02*
G01X0022994Y0006497D01*
G01X0022994Y0006497D02*
G01X0023000Y0006535D01*
G01X0023000Y0006535D02*
G01X0023002Y0006574D01*
G01X0022347Y0006234D02*
G01X0022326Y0006215D01*
G01X0022326Y0006215D02*
G01X0022304Y0006198D01*
G01X0022304Y0006198D02*
G01X0022279Y0006185D01*
G01X0022279Y0006185D02*
G01X0022253Y0006174D01*
G01X0022253Y0006174D02*
G01X0022226Y0006166D01*
G01X0022226Y0006166D02*
G01X0022198Y0006162D01*
G01X0022198Y0006162D02*
G01X0022170Y0006160D01*
G01X0022335Y0005742D02*
G01X0022312Y0005721D01*
G01X0022312Y0005721D02*
G01X0022286Y0005703D01*
G01X0022286Y0005703D02*
G01X0022258Y0005688D01*
G01X0022258Y0005688D02*
G01X0022229Y0005676D01*
G01X0022229Y0005676D02*
G01X0022199Y0005667D01*
G01X0022199Y0005667D02*
G01X0022168Y0005662D01*
G01X0022168Y0005662D02*
G01X0022137Y0005660D01*
G01X0022304Y0005212D02*
G01X0022287Y0005197D01*
G01X0022287Y0005197D02*
G01X0022267Y0005184D01*
G01X0022267Y0005184D02*
G01X0022247Y0005173D01*
G01X0022247Y0005173D02*
G01X0022225Y0005166D01*
G01X0022225Y0005166D02*
G01X0022202Y0005162D01*
G01X0022202Y0005162D02*
G01X0022179Y0005160D01*
G01X0021772Y0004910D02*
G01X0021442Y0004910D01*
G01X0021118Y0004544D02*
G01X0021148Y0004517D01*
G01X0021148Y0004517D02*
G01X0021179Y0004493D01*
G01X0021179Y0004493D02*
G01X0021213Y0004471D01*
G01X0021213Y0004471D02*
G01X0021248Y0004453D01*
G01X0021248Y0004453D02*
G01X0021285Y0004438D01*
G01X0021285Y0004438D02*
G01X0021323Y0004426D01*
G01X0021323Y0004426D02*
G01X0021362Y0004417D01*
G01X0021362Y0004417D02*
G01X0021402Y0004412D01*
G01X0021402Y0004412D02*
G01X0021442Y0004410D01*
G01X0021442Y0004410D02*
G01X0021772Y0004410D01*
G01X0021118Y0004544D02*
G01X0021090Y0004570D01*
G01X0021090Y0004570D02*
G01X0021058Y0004593D01*
G01X0021058Y0004593D02*
G01X0021025Y0004613D01*
G01X0021025Y0004613D02*
G01X0020990Y0004630D01*
G01X0020990Y0004630D02*
G01X0020954Y0004643D01*
G01X0020954Y0004643D02*
G01X0020916Y0004652D01*
G01X0020916Y0004652D02*
G01X0020878Y0004658D01*
G01X0020878Y0004658D02*
G01X0020839Y0004660D01*
G01X0020839Y0004660D02*
G01X0019209Y0004660D01*
G01X0019666Y0005246D02*
G01X0019634Y0005276D01*
G01X0019634Y0005276D02*
G01X0019600Y0005303D01*
G01X0019600Y0005303D02*
G01X0019563Y0005328D01*
G01X0019563Y0005328D02*
G01X0019525Y0005349D01*
G01X0019525Y0005349D02*
G01X0019485Y0005367D01*
G01X0019485Y0005367D02*
G01X0019444Y0005383D01*
G01X0019444Y0005383D02*
G01X0019401Y0005395D01*
G01X0019401Y0005395D02*
G01X0019358Y0005403D01*
G01X0019358Y0005403D02*
G01X0019315Y0005408D01*
G01X0019315Y0005408D02*
G01X0019271Y0005410D01*
G01X0019271Y0005410D02*
G01X0018150Y0005410D01*
G01X0017970Y0006160D02*
G01X0017925Y0006158D01*
G01X0017925Y0006158D02*
G01X0017880Y0006153D01*
G01X0017880Y0006153D02*
G01X0017835Y0006144D01*
G01X0017835Y0006144D02*
G01X0017791Y0006132D01*
G01X0017791Y0006132D02*
G01X0017749Y0006116D01*
G01X0017749Y0006116D02*
G01X0017708Y0006097D01*
G01X0017708Y0006097D02*
G01X0017668Y0006075D01*
G01X0017668Y0006075D02*
G01X0017630Y0006050D01*
G01X0017630Y0006050D02*
G01X0017595Y0006022D01*
G01X0017595Y0006022D02*
G01X0017561Y0005991D01*
G01X0017562Y0005991D02*
G01X0017326Y0005755D01*
G01X0017327Y0005755D02*
G01X0017308Y0005734D01*
G01X0017308Y0005734D02*
G01X0017292Y0005711D01*
G01X0017292Y0005711D02*
G01X0017278Y0005686D01*
G01X0017278Y0005686D02*
G01X0017267Y0005660D01*
G01X0017267Y0005660D02*
G01X0017259Y0005633D01*
G01X0017259Y0005633D02*
G01X0017255Y0005605D01*
G01X0017255Y0005605D02*
G01X0017253Y0005577D01*
G01X0017253Y0005577D02*
G01X0017251Y0005537D01*
G01X0017251Y0005537D02*
G01X0017245Y0005498D01*
G01X0017245Y0005498D02*
G01X0017236Y0005460D01*
G01X0017236Y0005460D02*
G01X0017222Y0005423D01*
G01X0017222Y0005423D02*
G01X0017205Y0005387D01*
G01X0017205Y0005387D02*
G01X0017185Y0005353D01*
G01X0017185Y0005353D02*
G01X0017162Y0005321D01*
G01X0017162Y0005321D02*
G01X0017135Y0005292D01*
G01X0017502Y0005174D02*
G01X0017500Y0005124D01*
G01X0017500Y0005124D02*
G01X0017494Y0005074D01*
G01X0017494Y0005074D02*
G01X0017484Y0005025D01*
G01X0017484Y0005025D02*
G01X0017471Y0004977D01*
G01X0017471Y0004977D02*
G01X0017454Y0004930D01*
G01X0017454Y0004930D02*
G01X0017433Y0004885D01*
G01X0017433Y0004885D02*
G01X0017408Y0004841D01*
G01X0017408Y0004841D02*
G01X0017380Y0004800D01*
G01X0017380Y0004800D02*
G01X0017349Y0004760D01*
G01X0017349Y0004760D02*
G01X0017315Y0004724D01*
G01X0017316Y0004723D02*
G01X0016884Y0004292D01*
G01X0016566Y0004160D02*
G01X0015899Y0004160D01*
G01X0015649Y0004264D02*
G01X0014834Y0005078D01*
G01X0014835Y0005328D02*
G01X0014812Y0005349D01*
G01X0014812Y0005349D02*
G01X0014786Y0005367D01*
G01X0014786Y0005367D02*
G01X0014758Y0005382D01*
G01X0014758Y0005382D02*
G01X0014729Y0005394D01*
G01X0014729Y0005394D02*
G01X0014699Y0005403D01*
G01X0014699Y0005403D02*
G01X0014668Y0005408D01*
G01X0014668Y0005408D02*
G01X0014637Y0005410D01*
G01X0014637Y0005410D02*
G01X0014232Y0005410D01*
G01X0014637Y0005160D02*
G01X0009919Y0005160D01*
G01X0009916Y0005410D02*
G01X0010272Y0005410D01*
G01X0009959Y0004910D02*
G01X0009915Y0004912D01*
G01X0009915Y0004912D02*
G01X0009872Y0004918D01*
G01X0009872Y0004918D02*
G01X0009830Y0004927D01*
G01X0009830Y0004927D02*
G01X0009788Y0004940D01*
G01X0009788Y0004940D02*
G01X0009748Y0004957D01*
G01X0009748Y0004957D02*
G01X0009709Y0004977D01*
G01X0009709Y0004977D02*
G01X0009672Y0005000D01*
G01X0009672Y0005000D02*
G01X0009638Y0005027D01*
G01X0009638Y0005027D02*
G01X0009605Y0005056D01*
G01X0009356Y0005160D02*
G01X0008618Y0005160D01*
G01X0008420Y0005242D02*
G01X0008326Y0005337D01*
G01X0008149Y0005410D02*
G01X0006900Y0005410D01*
G01X0006900Y0004910D02*
G01X0007362Y0004910D01*
G01X0007362Y0004910D02*
G01X0007395Y0004908D01*
G01X0007395Y0004908D02*
G01X0007428Y0004904D01*
G01X0007428Y0004904D02*
G01X0007460Y0004895D01*
G01X0007460Y0004895D02*
G01X0007491Y0004884D01*
G01X0007491Y0004884D02*
G01X0007521Y0004870D01*
G01X0007521Y0004870D02*
G01X0007550Y0004853D01*
G01X0007550Y0004853D02*
G01X0007576Y0004833D01*
G01X0007576Y0004833D02*
G01X0007601Y0004811D01*
G01X0007966Y0004660D02*
G01X0009316Y0004660D01*
G01X0009606Y0005056D02*
G01X0009581Y0005080D01*
G01X0009581Y0005080D02*
G01X0009553Y0005100D01*
G01X0009553Y0005100D02*
G01X0009523Y0005118D01*
G01X0009523Y0005118D02*
G01X0009491Y0005133D01*
G01X0009491Y0005133D02*
G01X0009459Y0005145D01*
G01X0009459Y0005145D02*
G01X0009425Y0005153D01*
G01X0009425Y0005153D02*
G01X0009391Y0005158D01*
G01X0009391Y0005158D02*
G01X0009356Y0005160D01*
G01X0009637Y0005526D02*
G01X0009607Y0005553D01*
G01X0009607Y0005553D02*
G01X0009576Y0005577D01*
G01X0009576Y0005577D02*
G01X0009542Y0005599D01*
G01X0009542Y0005599D02*
G01X0009507Y0005617D01*
G01X0009507Y0005617D02*
G01X0009470Y0005632D01*
G01X0009470Y0005632D02*
G01X0009432Y0005644D01*
G01X0009432Y0005644D02*
G01X0009393Y0005653D01*
G01X0009393Y0005653D02*
G01X0009353Y0005658D01*
G01X0009353Y0005658D02*
G01X0009313Y0005660D01*
G01X0009313Y0005660D02*
G01X0008669Y0005660D01*
G01X0008420Y0005242D02*
G01X0008443Y0005221D01*
G01X0008443Y0005221D02*
G01X0008469Y0005203D01*
G01X0008469Y0005203D02*
G01X0008497Y0005188D01*
G01X0008497Y0005188D02*
G01X0008526Y0005176D01*
G01X0008526Y0005176D02*
G01X0008556Y0005167D01*
G01X0008556Y0005167D02*
G01X0008587Y0005162D01*
G01X0008587Y0005162D02*
G01X0008618Y0005160D01*
G01X0008326Y0005337D02*
G01X0008305Y0005355D01*
G01X0008305Y0005355D02*
G01X0008282Y0005372D01*
G01X0008282Y0005372D02*
G01X0008257Y0005385D01*
G01X0008257Y0005385D02*
G01X0008232Y0005396D01*
G01X0008232Y0005396D02*
G01X0008205Y0005404D01*
G01X0008205Y0005404D02*
G01X0008177Y0005408D01*
G01X0008177Y0005408D02*
G01X0008149Y0005410D01*
G01X0008385Y0005778D02*
G01X0008356Y0005804D01*
G01X0008356Y0005804D02*
G01X0008325Y0005828D01*
G01X0008325Y0005828D02*
G01X0008292Y0005850D01*
G01X0008292Y0005850D02*
G01X0008257Y0005868D01*
G01X0008257Y0005868D02*
G01X0008220Y0005883D01*
G01X0008220Y0005883D02*
G01X0008183Y0005895D01*
G01X0008183Y0005895D02*
G01X0008144Y0005903D01*
G01X0008144Y0005903D02*
G01X0008105Y0005908D01*
G01X0008105Y0005908D02*
G01X0008066Y0005910D01*
G01X0008066Y0005910D02*
G01X0006900Y0005910D01*
G01X0006900Y0006410D02*
G01X0008033Y0006410D01*
G01X0008066Y0006910D02*
G01X0008105Y0006908D01*
G01X0008105Y0006908D02*
G01X0008144Y0006903D01*
G01X0008144Y0006903D02*
G01X0008183Y0006895D01*
G01X0008183Y0006895D02*
G01X0008220Y0006883D01*
G01X0008220Y0006883D02*
G01X0008257Y0006868D01*
G01X0008257Y0006868D02*
G01X0008292Y0006850D01*
G01X0008292Y0006850D02*
G01X0008325Y0006828D01*
G01X0008325Y0006828D02*
G01X0008356Y0006804D01*
G01X0008356Y0006804D02*
G01X0008385Y0006778D01*
G01X0008669Y0006660D02*
G01X0009313Y0006660D01*
G01X0009637Y0007026D02*
G01X0009607Y0007053D01*
G01X0009607Y0007053D02*
G01X0009576Y0007077D01*
G01X0009576Y0007077D02*
G01X0009542Y0007099D01*
G01X0009542Y0007099D02*
G01X0009507Y0007117D01*
G01X0009507Y0007117D02*
G01X0009470Y0007132D01*
G01X0009470Y0007132D02*
G01X0009432Y0007144D01*
G01X0009432Y0007144D02*
G01X0009393Y0007153D01*
G01X0009393Y0007153D02*
G01X0009353Y0007158D01*
G01X0009353Y0007158D02*
G01X0009313Y0007160D01*
G01X0009313Y0007160D02*
G01X0008666Y0007160D01*
G01X0008384Y0006778D02*
G01X0008413Y0006751D01*
G01X0008413Y0006751D02*
G01X0008445Y0006728D01*
G01X0008445Y0006728D02*
G01X0008479Y0006708D01*
G01X0008479Y0006708D02*
G01X0008515Y0006691D01*
G01X0008515Y0006691D02*
G01X0008552Y0006677D01*
G01X0008552Y0006677D02*
G01X0008590Y0006668D01*
G01X0008590Y0006668D02*
G01X0008629Y0006662D01*
G01X0008629Y0006662D02*
G01X0008669Y0006660D01*
G01X0008408Y0006255D02*
G01X0008431Y0006233D01*
G01X0008431Y0006233D02*
G01X0008457Y0006214D01*
G01X0008457Y0006214D02*
G01X0008484Y0006198D01*
G01X0008484Y0006198D02*
G01X0008512Y0006185D01*
G01X0008512Y0006185D02*
G01X0008542Y0006174D01*
G01X0008542Y0006174D02*
G01X0008573Y0006166D01*
G01X0008573Y0006166D02*
G01X0008604Y0006162D01*
G01X0008604Y0006162D02*
G01X0008636Y0006160D01*
G01X0008636Y0006160D02*
G01X0009356Y0006160D01*
G01X0009637Y0006526D02*
G01X0009607Y0006553D01*
G01X0009607Y0006553D02*
G01X0009576Y0006577D01*
G01X0009576Y0006577D02*
G01X0009542Y0006599D01*
G01X0009542Y0006599D02*
G01X0009507Y0006617D01*
G01X0009507Y0006617D02*
G01X0009470Y0006632D01*
G01X0009470Y0006632D02*
G01X0009432Y0006644D01*
G01X0009432Y0006644D02*
G01X0009393Y0006653D01*
G01X0009393Y0006653D02*
G01X0009353Y0006658D01*
G01X0009353Y0006658D02*
G01X0009313Y0006660D01*
G01X0009356Y0006910D02*
G01X0009391Y0006908D01*
G01X0009391Y0006908D02*
G01X0009425Y0006903D01*
G01X0009425Y0006903D02*
G01X0009459Y0006895D01*
G01X0009459Y0006895D02*
G01X0009491Y0006883D01*
G01X0009491Y0006883D02*
G01X0009523Y0006868D01*
G01X0009523Y0006868D02*
G01X0009553Y0006850D01*
G01X0009553Y0006850D02*
G01X0009581Y0006830D01*
G01X0009581Y0006830D02*
G01X0009606Y0006806D01*
G01X0009606Y0006806D02*
G01X0009637Y0006776D01*
G01X0009637Y0006526D02*
G01X0009665Y0006500D01*
G01X0009665Y0006500D02*
G01X0009697Y0006477D01*
G01X0009697Y0006477D02*
G01X0009730Y0006457D01*
G01X0009730Y0006457D02*
G01X0009765Y0006440D01*
G01X0009765Y0006440D02*
G01X0009801Y0006427D01*
G01X0009801Y0006427D02*
G01X0009839Y0006418D01*
G01X0009839Y0006418D02*
G01X0009877Y0006412D01*
G01X0009877Y0006412D02*
G01X0009916Y0006410D01*
G01X0009916Y0006410D02*
G01X0010272Y0006410D01*
G01X0009916Y0005910D02*
G01X0009877Y0005912D01*
G01X0009877Y0005912D02*
G01X0009839Y0005918D01*
G01X0009839Y0005918D02*
G01X0009801Y0005927D01*
G01X0009801Y0005927D02*
G01X0009765Y0005940D01*
G01X0009765Y0005940D02*
G01X0009730Y0005957D01*
G01X0009730Y0005957D02*
G01X0009697Y0005977D01*
G01X0009697Y0005977D02*
G01X0009665Y0006000D01*
G01X0009665Y0006000D02*
G01X0009637Y0006026D01*
G01X0009637Y0006026D02*
G01X0009606Y0006056D01*
G01X0009606Y0006306D02*
G01X0009581Y0006330D01*
G01X0009581Y0006330D02*
G01X0009553Y0006350D01*
G01X0009553Y0006350D02*
G01X0009523Y0006368D01*
G01X0009523Y0006368D02*
G01X0009491Y0006383D01*
G01X0009491Y0006383D02*
G01X0009459Y0006395D01*
G01X0009459Y0006395D02*
G01X0009425Y0006403D01*
G01X0009425Y0006403D02*
G01X0009391Y0006408D01*
G01X0009391Y0006408D02*
G01X0009356Y0006410D01*
G01X0009356Y0006410D02*
G01X0009105Y0006410D01*
G01X0009105Y0005910D02*
G01X0009316Y0005910D01*
G01X0009356Y0006160D02*
G01X0009391Y0006158D01*
G01X0009391Y0006158D02*
G01X0009425Y0006153D01*
G01X0009425Y0006153D02*
G01X0009459Y0006145D01*
G01X0009459Y0006145D02*
G01X0009491Y0006133D01*
G01X0009491Y0006133D02*
G01X0009523Y0006118D01*
G01X0009523Y0006118D02*
G01X0009553Y0006100D01*
G01X0009553Y0006100D02*
G01X0009581Y0006080D01*
G01X0009581Y0006080D02*
G01X0009606Y0006056D01*
G01X0009634Y0005778D02*
G01X0009663Y0005751D01*
G01X0009663Y0005751D02*
G01X0009695Y0005728D01*
G01X0009695Y0005728D02*
G01X0009729Y0005708D01*
G01X0009729Y0005708D02*
G01X0009765Y0005691D01*
G01X0009765Y0005691D02*
G01X0009802Y0005677D01*
G01X0009802Y0005677D02*
G01X0009840Y0005668D01*
G01X0009840Y0005668D02*
G01X0009879Y0005662D01*
G01X0009879Y0005662D02*
G01X0009919Y0005660D01*
G01X0009919Y0005660D02*
G01X0014731Y0005660D01*
G01X0014929Y0005910D02*
G01X0014952Y0005908D01*
G01X0014952Y0005908D02*
G01X0014975Y0005904D01*
G01X0014975Y0005904D02*
G01X0014997Y0005897D01*
G01X0014997Y0005897D02*
G01X0015017Y0005886D01*
G01X0015017Y0005886D02*
G01X0015037Y0005873D01*
G01X0015037Y0005873D02*
G01X0015054Y0005858D01*
G01X0015054Y0005858D02*
G01X0015101Y0005811D01*
G01X0014929Y0005910D02*
G01X0014232Y0005910D01*
G01X0014232Y0006410D02*
G01X0014664Y0006410D01*
G01X0014606Y0006660D02*
G01X0013002Y0006660D01*
G01X0013262Y0007160D02*
G01X0014539Y0007160D01*
G01X0014606Y0006660D02*
G01X0014641Y0006662D01*
G01X0014641Y0006662D02*
G01X0014675Y0006667D01*
G01X0014675Y0006667D02*
G01X0014709Y0006675D01*
G01X0014709Y0006675D02*
G01X0014741Y0006687D01*
G01X0014741Y0006687D02*
G01X0014773Y0006702D01*
G01X0014773Y0006702D02*
G01X0014803Y0006720D01*
G01X0014803Y0006720D02*
G01X0014831Y0006740D01*
G01X0014831Y0006740D02*
G01X0014856Y0006764D01*
G01X0014856Y0006764D02*
G01X0014986Y0006893D01*
G01X0014939Y0007097D02*
G01X0015339Y0007496D01*
G01X0015734Y0007660D02*
G01X0016252Y0007660D01*
G01X0015984Y0008160D02*
G01X0015940Y0008158D01*
G01X0015940Y0008158D02*
G01X0015897Y0008153D01*
G01X0015897Y0008153D02*
G01X0015854Y0008145D01*
G01X0015854Y0008145D02*
G01X0015811Y0008133D01*
G01X0015811Y0008133D02*
G01X0015770Y0008117D01*
G01X0015770Y0008117D02*
G01X0015730Y0008099D01*
G01X0015730Y0008099D02*
G01X0015692Y0008078D01*
G01X0015692Y0008078D02*
G01X0015655Y0008053D01*
G01X0015655Y0008053D02*
G01X0015621Y0008026D01*
G01X0015621Y0008026D02*
G01X0015589Y0007996D01*
G01X0015589Y0007996D02*
G01X0014903Y0007311D01*
G01X0014502Y0007410D02*
G01X0015597Y0008505D01*
G01X0015972Y0008660D02*
G01X0016252Y0008660D01*
G01X0015984Y0008160D02*
G01X0016649Y0008160D01*
G01X0015972Y0008660D02*
G01X0015930Y0008658D01*
G01X0015930Y0008658D02*
G01X0015889Y0008653D01*
G01X0015889Y0008653D02*
G01X0015848Y0008645D01*
G01X0015848Y0008645D02*
G01X0015808Y0008634D01*
G01X0015808Y0008634D02*
G01X0015769Y0008620D01*
G01X0015769Y0008620D02*
G01X0015731Y0008602D01*
G01X0015731Y0008602D02*
G01X0015695Y0008582D01*
G01X0015695Y0008582D02*
G01X0015660Y0008559D01*
G01X0015660Y0008559D02*
G01X0015628Y0008533D01*
G01X0015628Y0008533D02*
G01X0015597Y0008505D01*
G01X0015920Y0009578D02*
G01X0015943Y0009599D01*
G01X0015943Y0009599D02*
G01X0015969Y0009617D01*
G01X0015969Y0009617D02*
G01X0015997Y0009632D01*
G01X0015997Y0009632D02*
G01X0016026Y0009644D01*
G01X0016026Y0009644D02*
G01X0016056Y0009653D01*
G01X0016056Y0009653D02*
G01X0016087Y0009658D01*
G01X0016087Y0009658D02*
G01X0016118Y0009660D01*
G01X0016118Y0009660D02*
G01X0016252Y0009660D01*
G01X0015920Y0009578D02*
G01X0014232Y0007890D01*
G01X0014232Y0007890D02*
G01X0014232Y0007910D01*
G01X0014539Y0007160D02*
G01X0014579Y0007162D01*
G01X0014579Y0007162D02*
G01X0014620Y0007166D01*
G01X0014620Y0007166D02*
G01X0014659Y0007174D01*
G01X0014659Y0007174D02*
G01X0014698Y0007185D01*
G01X0014698Y0007185D02*
G01X0014736Y0007199D01*
G01X0014736Y0007199D02*
G01X0014773Y0007216D01*
G01X0014773Y0007216D02*
G01X0014808Y0007236D01*
G01X0014808Y0007236D02*
G01X0014842Y0007258D01*
G01X0014842Y0007258D02*
G01X0014873Y0007283D01*
G01X0014873Y0007283D02*
G01X0014903Y0007311D01*
G01X0014502Y0007410D02*
G01X0014232Y0007410D01*
G01X0014488Y0006910D02*
G01X0014538Y0006912D01*
G01X0014538Y0006912D02*
G01X0014588Y0006918D01*
G01X0014588Y0006918D02*
G01X0014637Y0006928D01*
G01X0014637Y0006928D02*
G01X0014685Y0006941D01*
G01X0014685Y0006941D02*
G01X0014732Y0006958D01*
G01X0014732Y0006958D02*
G01X0014777Y0006979D01*
G01X0014777Y0006979D02*
G01X0014821Y0007004D01*
G01X0014821Y0007004D02*
G01X0014862Y0007032D01*
G01X0014862Y0007032D02*
G01X0014902Y0007063D01*
G01X0014902Y0007063D02*
G01X0014938Y0007097D01*
G01X0015028Y0006561D02*
G01X0014998Y0006533D01*
G01X0014998Y0006533D02*
G01X0014967Y0006508D01*
G01X0014967Y0006508D02*
G01X0014933Y0006486D01*
G01X0014933Y0006486D02*
G01X0014898Y0006466D01*
G01X0014898Y0006466D02*
G01X0014861Y0006449D01*
G01X0014861Y0006449D02*
G01X0014823Y0006435D01*
G01X0014823Y0006435D02*
G01X0014784Y0006424D01*
G01X0014784Y0006424D02*
G01X0014745Y0006416D01*
G01X0014745Y0006416D02*
G01X0014704Y0006412D01*
G01X0014704Y0006412D02*
G01X0014664Y0006410D01*
G01X0015028Y0006561D02*
G01X0015045Y0006578D01*
G01X0015243Y0006660D02*
G01X0016252Y0006660D01*
G01X0016800Y0006160D02*
G01X0016852Y0006162D01*
G01X0016852Y0006162D02*
G01X0016903Y0006167D01*
G01X0016903Y0006167D02*
G01X0016954Y0006175D01*
G01X0016954Y0006175D02*
G01X0017005Y0006187D01*
G01X0017005Y0006187D02*
G01X0017054Y0006202D01*
G01X0017054Y0006202D02*
G01X0017103Y0006220D01*
G01X0017103Y0006220D02*
G01X0017150Y0006242D01*
G01X0017150Y0006242D02*
G01X0017196Y0006266D01*
G01X0017196Y0006266D02*
G01X0017239Y0006293D01*
G01X0017239Y0006293D02*
G01X0017282Y0006323D01*
G01X0017282Y0006323D02*
G01X0017322Y0006356D01*
G01X0017322Y0006356D02*
G01X0017359Y0006392D01*
G01X0017359Y0006392D02*
G01X0017464Y0006496D01*
G01X0017464Y0006496D02*
G01X0017496Y0006526D01*
G01X0017496Y0006526D02*
G01X0017530Y0006553D01*
G01X0017530Y0006553D02*
G01X0017567Y0006578D01*
G01X0017567Y0006578D02*
G01X0017605Y0006599D01*
G01X0017605Y0006599D02*
G01X0017645Y0006617D01*
G01X0017645Y0006617D02*
G01X0017686Y0006633D01*
G01X0017686Y0006633D02*
G01X0017729Y0006645D01*
G01X0017729Y0006645D02*
G01X0017772Y0006653D01*
G01X0017772Y0006653D02*
G01X0017815Y0006658D01*
G01X0017815Y0006658D02*
G01X0017859Y0006660D01*
G01X0018150Y0006410D02*
G01X0019335Y0006410D01*
G01X0019700Y0006963D02*
G01X0019665Y0006996D01*
G01X0019665Y0006996D02*
G01X0019627Y0007026D01*
G01X0019627Y0007026D02*
G01X0019588Y0007053D01*
G01X0019588Y0007053D02*
G01X0019547Y0007078D01*
G01X0019547Y0007078D02*
G01X0019504Y0007099D01*
G01X0019504Y0007099D02*
G01X0019459Y0007118D01*
G01X0019459Y0007118D02*
G01X0019414Y0007133D01*
G01X0019414Y0007133D02*
G01X0019367Y0007145D01*
G01X0019367Y0007145D02*
G01X0019320Y0007153D01*
G01X0019320Y0007153D02*
G01X0019272Y0007158D01*
G01X0019272Y0007158D02*
G01X0019224Y0007160D01*
G01X0019224Y0007160D02*
G01X0015629Y0007160D01*
G01X0015339Y0007496D02*
G01X0015371Y0007526D01*
G01X0015371Y0007526D02*
G01X0015405Y0007553D01*
G01X0015405Y0007553D02*
G01X0015442Y0007578D01*
G01X0015442Y0007578D02*
G01X0015480Y0007599D01*
G01X0015480Y0007599D02*
G01X0015520Y0007617D01*
G01X0015520Y0007617D02*
G01X0015561Y0007633D01*
G01X0015561Y0007633D02*
G01X0015604Y0007645D01*
G01X0015604Y0007645D02*
G01X0015647Y0007653D01*
G01X0015647Y0007653D02*
G01X0015690Y0007658D01*
G01X0015690Y0007658D02*
G01X0015734Y0007660D01*
G01X0014488Y0006910D02*
G01X0014232Y0006910D01*
G01X0015045Y0006578D02*
G01X0015068Y0006599D01*
G01X0015068Y0006599D02*
G01X0015094Y0006617D01*
G01X0015094Y0006617D02*
G01X0015122Y0006632D01*
G01X0015122Y0006632D02*
G01X0015151Y0006644D01*
G01X0015151Y0006644D02*
G01X0015181Y0006653D01*
G01X0015181Y0006653D02*
G01X0015212Y0006658D01*
G01X0015212Y0006658D02*
G01X0015243Y0006660D01*
G01X0015102Y0005811D02*
G01X0015132Y0005783D01*
G01X0015132Y0005783D02*
G01X0015163Y0005758D01*
G01X0015163Y0005758D02*
G01X0015197Y0005736D01*
G01X0015197Y0005736D02*
G01X0015232Y0005716D01*
G01X0015232Y0005716D02*
G01X0015269Y0005699D01*
G01X0015269Y0005699D02*
G01X0015307Y0005685D01*
G01X0015307Y0005685D02*
G01X0015346Y0005674D01*
G01X0015346Y0005674D02*
G01X0015385Y0005666D01*
G01X0015385Y0005666D02*
G01X0015426Y0005662D01*
G01X0015426Y0005662D02*
G01X0015466Y0005660D01*
G01X0015466Y0005660D02*
G01X0016252Y0005660D01*
G01X0016816Y0005160D02*
G01X0016855Y0005162D01*
G01X0016855Y0005162D02*
G01X0016894Y0005167D01*
G01X0016894Y0005167D02*
G01X0016933Y0005175D01*
G01X0016933Y0005175D02*
G01X0016970Y0005187D01*
G01X0016970Y0005187D02*
G01X0017007Y0005202D01*
G01X0017007Y0005202D02*
G01X0017042Y0005220D01*
G01X0017042Y0005220D02*
G01X0017075Y0005242D01*
G01X0017075Y0005242D02*
G01X0017106Y0005266D01*
G01X0017106Y0005266D02*
G01X0017135Y0005292D01*
G01X0016816Y0005160D02*
G01X0015609Y0005160D01*
G01X0015319Y0004843D02*
G01X0015355Y0004810D01*
G01X0015355Y0004810D02*
G01X0015394Y0004779D01*
G01X0015394Y0004779D02*
G01X0015434Y0004752D01*
G01X0015434Y0004752D02*
G01X0015477Y0004728D01*
G01X0015477Y0004728D02*
G01X0015522Y0004708D01*
G01X0015522Y0004708D02*
G01X0015568Y0004691D01*
G01X0015568Y0004691D02*
G01X0015615Y0004677D01*
G01X0015615Y0004677D02*
G01X0015663Y0004668D01*
G01X0015663Y0004668D02*
G01X0015712Y0004662D01*
G01X0015712Y0004662D02*
G01X0015761Y0004660D01*
G01X0015761Y0004660D02*
G01X0016252Y0004660D01*
G01X0015664Y0003874D02*
G01X0015702Y0003838D01*
G01X0015702Y0003838D02*
G01X0015742Y0003805D01*
G01X0015742Y0003805D02*
G01X0015785Y0003776D01*
G01X0015785Y0003776D02*
G01X0015830Y0003749D01*
G01X0015830Y0003749D02*
G01X0015876Y0003726D01*
G01X0015876Y0003726D02*
G01X0015924Y0003706D01*
G01X0015924Y0003706D02*
G01X0015974Y0003690D01*
G01X0015974Y0003690D02*
G01X0016024Y0003677D01*
G01X0016024Y0003677D02*
G01X0016075Y0003667D01*
G01X0016075Y0003667D02*
G01X0016127Y0003662D01*
G01X0016127Y0003662D02*
G01X0016179Y0003660D01*
G01X0016179Y0003660D02*
G01X0016252Y0003660D01*
G01X0015664Y0003873D02*
G01X0014627Y0004910D01*
G01X0014627Y0004910D02*
G01X0014232Y0004910D01*
G01X0014637Y0005160D02*
G01X0014668Y0005158D01*
G01X0014668Y0005158D02*
G01X0014699Y0005153D01*
G01X0014699Y0005153D02*
G01X0014729Y0005144D01*
G01X0014729Y0005144D02*
G01X0014758Y0005132D01*
G01X0014758Y0005132D02*
G01X0014786Y0005117D01*
G01X0014786Y0005117D02*
G01X0014812Y0005099D01*
G01X0014812Y0005099D02*
G01X0014835Y0005078D01*
G01X0014834Y0005328D02*
G01X0015319Y0004843D01*
G01X0015214Y0005324D02*
G01X0014981Y0005556D01*
G01X0014981Y0005556D02*
G01X0014956Y0005580D01*
G01X0014956Y0005580D02*
G01X0014928Y0005600D01*
G01X0014928Y0005600D02*
G01X0014898Y0005618D01*
G01X0014898Y0005618D02*
G01X0014866Y0005633D01*
G01X0014866Y0005633D02*
G01X0014834Y0005645D01*
G01X0014834Y0005645D02*
G01X0014800Y0005653D01*
G01X0014800Y0005653D02*
G01X0014766Y0005658D01*
G01X0014766Y0005658D02*
G01X0014731Y0005660D01*
G01X0015214Y0005324D02*
G01X0015246Y0005294D01*
G01X0015246Y0005294D02*
G01X0015280Y0005267D01*
G01X0015280Y0005267D02*
G01X0015317Y0005242D01*
G01X0015317Y0005242D02*
G01X0015355Y0005221D01*
G01X0015355Y0005221D02*
G01X0015395Y0005203D01*
G01X0015395Y0005203D02*
G01X0015436Y0005187D01*
G01X0015436Y0005187D02*
G01X0015479Y0005175D01*
G01X0015479Y0005175D02*
G01X0015522Y0005167D01*
G01X0015522Y0005167D02*
G01X0015565Y0005162D01*
G01X0015565Y0005162D02*
G01X0015609Y0005160D01*
G01X0015649Y0004264D02*
G01X0015674Y0004240D01*
G01X0015674Y0004240D02*
G01X0015702Y0004220D01*
G01X0015702Y0004220D02*
G01X0015732Y0004202D01*
G01X0015732Y0004202D02*
G01X0015764Y0004187D01*
G01X0015764Y0004187D02*
G01X0015796Y0004175D01*
G01X0015796Y0004175D02*
G01X0015830Y0004167D01*
G01X0015830Y0004167D02*
G01X0015864Y0004162D01*
G01X0015864Y0004162D02*
G01X0015899Y0004160D01*
G01X0016566Y0004160D02*
G01X0016605Y0004162D01*
G01X0016605Y0004162D02*
G01X0016644Y0004167D01*
G01X0016644Y0004167D02*
G01X0016683Y0004175D01*
G01X0016683Y0004175D02*
G01X0016720Y0004187D01*
G01X0016720Y0004187D02*
G01X0016757Y0004202D01*
G01X0016757Y0004202D02*
G01X0016792Y0004220D01*
G01X0016792Y0004220D02*
G01X0016825Y0004242D01*
G01X0016825Y0004242D02*
G01X0016856Y0004266D01*
G01X0016856Y0004266D02*
G01X0016885Y0004292D01*
G01X0017502Y0005174D02*
G01X0017502Y0005246D01*
G01X0017503Y0005246D02*
G01X0017505Y0005285D01*
G01X0017505Y0005285D02*
G01X0017511Y0005323D01*
G01X0017511Y0005323D02*
G01X0017520Y0005361D01*
G01X0017520Y0005361D02*
G01X0017533Y0005397D01*
G01X0017533Y0005397D02*
G01X0017550Y0005432D01*
G01X0017550Y0005432D02*
G01X0017570Y0005465D01*
G01X0017570Y0005465D02*
G01X0017593Y0005497D01*
G01X0017593Y0005497D02*
G01X0017619Y0005525D01*
G01X0017942Y0005660D02*
G01X0019271Y0005660D01*
G01X0019316Y0006160D02*
G01X0019355Y0006158D01*
G01X0019355Y0006158D02*
G01X0019394Y0006153D01*
G01X0019394Y0006153D02*
G01X0019433Y0006145D01*
G01X0019433Y0006145D02*
G01X0019470Y0006133D01*
G01X0019470Y0006133D02*
G01X0019507Y0006118D01*
G01X0019507Y0006118D02*
G01X0019542Y0006100D01*
G01X0019542Y0006100D02*
G01X0019575Y0006078D01*
G01X0019575Y0006078D02*
G01X0019606Y0006054D01*
G01X0019606Y0006054D02*
G01X0019635Y0006028D01*
G01X0019665Y0005746D02*
G01X0019690Y0005724D01*
G01X0019690Y0005724D02*
G01X0019717Y0005705D01*
G01X0019717Y0005705D02*
G01X0019746Y0005689D01*
G01X0019746Y0005689D02*
G01X0019777Y0005677D01*
G01X0019777Y0005677D02*
G01X0019808Y0005667D01*
G01X0019808Y0005667D02*
G01X0019841Y0005662D01*
G01X0019841Y0005662D02*
G01X0019874Y0005660D01*
G01X0019874Y0005660D02*
G01X0020839Y0005660D01*
G01X0020839Y0005910D02*
G01X0020878Y0005908D01*
G01X0020878Y0005908D02*
G01X0020916Y0005902D01*
G01X0020916Y0005902D02*
G01X0020954Y0005893D01*
G01X0020954Y0005893D02*
G01X0020990Y0005880D01*
G01X0020990Y0005880D02*
G01X0021025Y0005863D01*
G01X0021025Y0005863D02*
G01X0021058Y0005843D01*
G01X0021058Y0005843D02*
G01X0021090Y0005820D01*
G01X0021090Y0005820D02*
G01X0021118Y0005794D01*
G01X0021416Y0005910D02*
G01X0021772Y0005910D01*
G01X0021442Y0005410D02*
G01X0021402Y0005412D01*
G01X0021402Y0005412D02*
G01X0021362Y0005417D01*
G01X0021362Y0005417D02*
G01X0021323Y0005426D01*
G01X0021323Y0005426D02*
G01X0021285Y0005438D01*
G01X0021285Y0005438D02*
G01X0021248Y0005453D01*
G01X0021248Y0005453D02*
G01X0021213Y0005471D01*
G01X0021213Y0005471D02*
G01X0021179Y0005493D01*
G01X0021179Y0005493D02*
G01X0021148Y0005517D01*
G01X0021148Y0005517D02*
G01X0021118Y0005544D01*
G01X0020839Y0005410D02*
G01X0020355Y0005410D01*
G01X0020355Y0005410D02*
G01X0019874Y0005410D01*
G01X0019874Y0005160D02*
G01X0019841Y0005162D01*
G01X0019841Y0005162D02*
G01X0019808Y0005167D01*
G01X0019808Y0005167D02*
G01X0019777Y0005177D01*
G01X0019777Y0005177D02*
G01X0019746Y0005189D01*
G01X0019746Y0005189D02*
G01X0019717Y0005205D01*
G01X0019717Y0005205D02*
G01X0019690Y0005224D01*
G01X0019690Y0005224D02*
G01X0019665Y0005246D01*
G01X0019689Y0004910D02*
G01X0019650Y0004912D01*
G01X0019650Y0004912D02*
G01X0019611Y0004917D01*
G01X0019611Y0004917D02*
G01X0019572Y0004925D01*
G01X0019572Y0004925D02*
G01X0019535Y0004937D01*
G01X0019535Y0004937D02*
G01X0019498Y0004952D01*
G01X0019498Y0004952D02*
G01X0019463Y0004970D01*
G01X0019463Y0004970D02*
G01X0019430Y0004992D01*
G01X0019430Y0004992D02*
G01X0019399Y0005016D01*
G01X0019399Y0005016D02*
G01X0019370Y0005042D01*
G01X0019370Y0005042D02*
G01X0019252Y0005160D01*
G01X0019209Y0004660D02*
G01X0019165Y0004662D01*
G01X0019165Y0004662D02*
G01X0019122Y0004668D01*
G01X0019122Y0004668D02*
G01X0019080Y0004677D01*
G01X0019080Y0004677D02*
G01X0019038Y0004690D01*
G01X0019038Y0004690D02*
G01X0018998Y0004707D01*
G01X0018998Y0004707D02*
G01X0018959Y0004727D01*
G01X0018959Y0004727D02*
G01X0018922Y0004750D01*
G01X0018922Y0004750D02*
G01X0018888Y0004777D01*
G01X0018888Y0004777D02*
G01X0018855Y0004806D01*
G01X0018606Y0004910D02*
G01X0018150Y0004910D01*
G01X0017942Y0005660D02*
G01X0017902Y0005658D01*
G01X0017902Y0005658D02*
G01X0017862Y0005653D01*
G01X0017862Y0005653D02*
G01X0017823Y0005644D01*
G01X0017823Y0005644D02*
G01X0017785Y0005632D01*
G01X0017785Y0005632D02*
G01X0017748Y0005617D01*
G01X0017748Y0005617D02*
G01X0017713Y0005599D01*
G01X0017713Y0005599D02*
G01X0017679Y0005577D01*
G01X0017679Y0005577D02*
G01X0017648Y0005553D01*
G01X0017648Y0005553D02*
G01X0017618Y0005526D01*
G01X0018150Y0005910D02*
G01X0019271Y0005910D01*
G01X0019335Y0006410D02*
G01X0019375Y0006408D01*
G01X0019375Y0006408D02*
G01X0019414Y0006402D01*
G01X0019414Y0006402D02*
G01X0019452Y0006393D01*
G01X0019452Y0006393D02*
G01X0019489Y0006379D01*
G01X0019489Y0006379D02*
G01X0019525Y0006362D01*
G01X0019525Y0006362D02*
G01X0019559Y0006342D01*
G01X0019559Y0006342D02*
G01X0019591Y0006319D01*
G01X0019591Y0006319D02*
G01X0019620Y0006292D01*
G01X0019916Y0006410D02*
G01X0020355Y0006410D01*
G01X0020355Y0006410D02*
G01X0020887Y0006410D01*
G01X0020887Y0006660D02*
G01X0020918Y0006658D01*
G01X0020918Y0006658D02*
G01X0020949Y0006653D01*
G01X0020949Y0006653D02*
G01X0020979Y0006644D01*
G01X0020979Y0006644D02*
G01X0021008Y0006632D01*
G01X0021008Y0006632D02*
G01X0021036Y0006617D01*
G01X0021036Y0006617D02*
G01X0021062Y0006599D01*
G01X0021062Y0006599D02*
G01X0021085Y0006578D01*
G01X0021084Y0006328D02*
G01X0021137Y0006276D01*
G01X0020887Y0006160D02*
G01X0019939Y0006160D01*
G01X0019665Y0005496D02*
G01X0019690Y0005474D01*
G01X0019690Y0005474D02*
G01X0019717Y0005455D01*
G01X0019717Y0005455D02*
G01X0019746Y0005439D01*
G01X0019746Y0005439D02*
G01X0019777Y0005427D01*
G01X0019777Y0005427D02*
G01X0019808Y0005417D01*
G01X0019808Y0005417D02*
G01X0019841Y0005412D01*
G01X0019841Y0005412D02*
G01X0019874Y0005410D01*
G01X0019874Y0005160D02*
G01X0020839Y0005160D01*
G01X0021118Y0005544D02*
G01X0021090Y0005570D01*
G01X0021090Y0005570D02*
G01X0021058Y0005593D01*
G01X0021058Y0005593D02*
G01X0021025Y0005613D01*
G01X0021025Y0005613D02*
G01X0020990Y0005630D01*
G01X0020990Y0005630D02*
G01X0020954Y0005643D01*
G01X0020954Y0005643D02*
G01X0020916Y0005652D01*
G01X0020916Y0005652D02*
G01X0020878Y0005658D01*
G01X0020878Y0005658D02*
G01X0020839Y0005660D01*
G01X0021085Y0006328D02*
G01X0021062Y0006349D01*
G01X0021062Y0006349D02*
G01X0021036Y0006367D01*
G01X0021036Y0006367D02*
G01X0021008Y0006382D01*
G01X0021008Y0006382D02*
G01X0020979Y0006394D01*
G01X0020979Y0006394D02*
G01X0020949Y0006403D01*
G01X0020949Y0006403D02*
G01X0020918Y0006408D01*
G01X0020918Y0006408D02*
G01X0020887Y0006410D01*
G01X0021137Y0006026D02*
G01X0021165Y0006000D01*
G01X0021165Y0006000D02*
G01X0021197Y0005977D01*
G01X0021197Y0005977D02*
G01X0021230Y0005957D01*
G01X0021230Y0005957D02*
G01X0021265Y0005940D01*
G01X0021265Y0005940D02*
G01X0021301Y0005927D01*
G01X0021301Y0005927D02*
G01X0021339Y0005918D01*
G01X0021339Y0005918D02*
G01X0021377Y0005912D01*
G01X0021377Y0005912D02*
G01X0021416Y0005910D01*
G01X0021466Y0006410D02*
G01X0021772Y0006410D01*
G01X0021416Y0006160D02*
G01X0021377Y0006162D01*
G01X0021377Y0006162D02*
G01X0021339Y0006168D01*
G01X0021339Y0006168D02*
G01X0021301Y0006177D01*
G01X0021301Y0006177D02*
G01X0021265Y0006190D01*
G01X0021265Y0006190D02*
G01X0021230Y0006207D01*
G01X0021230Y0006207D02*
G01X0021197Y0006227D01*
G01X0021197Y0006227D02*
G01X0021165Y0006250D01*
G01X0021165Y0006250D02*
G01X0021137Y0006276D01*
G01X0021442Y0005410D02*
G01X0021772Y0005410D01*
G01X0021442Y0004910D02*
G01X0021402Y0004912D01*
G01X0021402Y0004912D02*
G01X0021362Y0004917D01*
G01X0021362Y0004917D02*
G01X0021323Y0004926D01*
G01X0021323Y0004926D02*
G01X0021285Y0004938D01*
G01X0021285Y0004938D02*
G01X0021248Y0004953D01*
G01X0021248Y0004953D02*
G01X0021213Y0004971D01*
G01X0021213Y0004971D02*
G01X0021179Y0004993D01*
G01X0021179Y0004993D02*
G01X0021148Y0005017D01*
G01X0021148Y0005017D02*
G01X0021118Y0005044D01*
G01X0021118Y0005294D02*
G01X0021090Y0005320D01*
G01X0021090Y0005320D02*
G01X0021058Y0005343D01*
G01X0021058Y0005343D02*
G01X0021025Y0005363D01*
G01X0021025Y0005363D02*
G01X0020990Y0005380D01*
G01X0020990Y0005380D02*
G01X0020954Y0005393D01*
G01X0020954Y0005393D02*
G01X0020916Y0005402D01*
G01X0020916Y0005402D02*
G01X0020878Y0005408D01*
G01X0020878Y0005408D02*
G01X0020839Y0005410D01*
G01X0020355Y0004910D02*
G01X0019689Y0004910D01*
G01X0019666Y0005496D02*
G01X0019634Y0005526D01*
G01X0019634Y0005526D02*
G01X0019600Y0005553D01*
G01X0019600Y0005553D02*
G01X0019563Y0005578D01*
G01X0019563Y0005578D02*
G01X0019525Y0005599D01*
G01X0019525Y0005599D02*
G01X0019485Y0005617D01*
G01X0019485Y0005617D02*
G01X0019444Y0005633D01*
G01X0019444Y0005633D02*
G01X0019401Y0005645D01*
G01X0019401Y0005645D02*
G01X0019358Y0005653D01*
G01X0019358Y0005653D02*
G01X0019315Y0005658D01*
G01X0019315Y0005658D02*
G01X0019271Y0005660D01*
G01X0019271Y0005910D02*
G01X0019315Y0005908D01*
G01X0019315Y0005908D02*
G01X0019358Y0005903D01*
G01X0019358Y0005903D02*
G01X0019401Y0005895D01*
G01X0019401Y0005895D02*
G01X0019444Y0005883D01*
G01X0019444Y0005883D02*
G01X0019485Y0005867D01*
G01X0019485Y0005867D02*
G01X0019525Y0005849D01*
G01X0019525Y0005849D02*
G01X0019563Y0005828D01*
G01X0019563Y0005828D02*
G01X0019600Y0005803D01*
G01X0019600Y0005803D02*
G01X0019634Y0005776D01*
G01X0019634Y0005776D02*
G01X0019666Y0005746D01*
G01X0019316Y0006160D02*
G01X0017970Y0006160D01*
G01X0016800Y0006160D02*
G01X0009959Y0006160D01*
G01X0009916Y0005910D02*
G01X0010272Y0005910D01*
G01X0009916Y0005410D02*
G01X0009877Y0005412D01*
G01X0009877Y0005412D02*
G01X0009839Y0005418D01*
G01X0009839Y0005418D02*
G01X0009801Y0005427D01*
G01X0009801Y0005427D02*
G01X0009765Y0005440D01*
G01X0009765Y0005440D02*
G01X0009730Y0005457D01*
G01X0009730Y0005457D02*
G01X0009697Y0005477D01*
G01X0009697Y0005477D02*
G01X0009665Y0005500D01*
G01X0009665Y0005500D02*
G01X0009637Y0005526D01*
G01X0009634Y0005278D02*
G01X0009663Y0005251D01*
G01X0009663Y0005251D02*
G01X0009695Y0005228D01*
G01X0009695Y0005228D02*
G01X0009729Y0005208D01*
G01X0009729Y0005208D02*
G01X0009765Y0005191D01*
G01X0009765Y0005191D02*
G01X0009802Y0005177D01*
G01X0009802Y0005177D02*
G01X0009840Y0005168D01*
G01X0009840Y0005168D02*
G01X0009879Y0005162D01*
G01X0009879Y0005162D02*
G01X0009919Y0005160D01*
G01X0009959Y0004910D02*
G01X0010272Y0004910D01*
G01X0009990Y0004160D02*
G01X0009945Y0004162D01*
G01X0009945Y0004162D02*
G01X0009900Y0004167D01*
G01X0009900Y0004167D02*
G01X0009856Y0004176D01*
G01X0009856Y0004176D02*
G01X0009813Y0004188D01*
G01X0009813Y0004188D02*
G01X0009770Y0004204D01*
G01X0009770Y0004204D02*
G01X0009729Y0004223D01*
G01X0009729Y0004223D02*
G01X0009690Y0004245D01*
G01X0009690Y0004245D02*
G01X0009653Y0004270D01*
G01X0009653Y0004270D02*
G01X0009617Y0004298D01*
G01X0009617Y0004298D02*
G01X0009584Y0004328D01*
G01X0009387Y0004410D02*
G01X0009105Y0004410D01*
G01X0009316Y0004660D02*
G01X0009355Y0004658D01*
G01X0009355Y0004658D02*
G01X0009394Y0004653D01*
G01X0009394Y0004653D02*
G01X0009433Y0004645D01*
G01X0009433Y0004645D02*
G01X0009470Y0004633D01*
G01X0009470Y0004633D02*
G01X0009507Y0004618D01*
G01X0009507Y0004618D02*
G01X0009542Y0004600D01*
G01X0009542Y0004600D02*
G01X0009575Y0004578D01*
G01X0009575Y0004578D02*
G01X0009606Y0004554D01*
G01X0009606Y0004554D02*
G01X0009635Y0004528D01*
G01X0009919Y0004410D02*
G01X0010272Y0004410D01*
G01X0009990Y0004160D02*
G01X0011752Y0004160D01*
G01X0013252Y0003910D02*
G01X0014232Y0003910D01*
G01X0014232Y0004410D02*
G01X0014502Y0004410D01*
G01X0014502Y0004410D02*
G01X0016252Y0002660D01*
G01X0018150Y0004157D02*
G01X0018150Y0004410D01*
G01X0018150Y0004157D02*
G01X0018152Y0004123D01*
G01X0018152Y0004123D02*
G01X0018157Y0004089D01*
G01X0018157Y0004089D02*
G01X0018165Y0004056D01*
G01X0018165Y0004056D02*
G01X0018177Y0004023D01*
G01X0018177Y0004023D02*
G01X0018191Y0003992D01*
G01X0018191Y0003992D02*
G01X0018209Y0003963D01*
G01X0018209Y0003963D02*
G01X0018229Y0003936D01*
G01X0018229Y0003936D02*
G01X0018252Y0003910D01*
G01X0018606Y0004910D02*
G01X0018641Y0004908D01*
G01X0018641Y0004908D02*
G01X0018675Y0004903D01*
G01X0018675Y0004903D02*
G01X0018709Y0004895D01*
G01X0018709Y0004895D02*
G01X0018741Y0004883D01*
G01X0018741Y0004883D02*
G01X0018773Y0004868D01*
G01X0018773Y0004868D02*
G01X0018803Y0004850D01*
G01X0018803Y0004850D02*
G01X0018831Y0004830D01*
G01X0018831Y0004830D02*
G01X0018856Y0004806D01*
G01X0019637Y0006526D02*
G01X0019607Y0006553D01*
G01X0019607Y0006553D02*
G01X0019576Y0006577D01*
G01X0019576Y0006577D02*
G01X0019542Y0006599D01*
G01X0019542Y0006599D02*
G01X0019507Y0006617D01*
G01X0019507Y0006617D02*
G01X0019470Y0006632D01*
G01X0019470Y0006632D02*
G01X0019432Y0006644D01*
G01X0019432Y0006644D02*
G01X0019393Y0006653D01*
G01X0019393Y0006653D02*
G01X0019353Y0006658D01*
G01X0019353Y0006658D02*
G01X0019313Y0006660D01*
G01X0021129Y0009160D02*
G01X0021188Y0009158D01*
G01X0021188Y0009158D02*
G01X0021247Y0009152D01*
G01X0021247Y0009152D02*
G01X0021305Y0009143D01*
G01X0021305Y0009143D02*
G01X0021362Y0009129D01*
G01X0021362Y0009129D02*
G01X0021419Y0009112D01*
G01X0021419Y0009112D02*
G01X0021474Y0009091D01*
G01X0021474Y0009091D02*
G01X0021528Y0009067D01*
G01X0021528Y0009067D02*
G01X0021580Y0009039D01*
G01X0021580Y0009039D02*
G01X0021630Y0009008D01*
G01X0021630Y0009008D02*
G01X0021677Y0008974D01*
G01X0021677Y0008974D02*
G01X0021723Y0008936D01*
G01X0021723Y0008936D02*
G01X0021766Y0008896D01*
G01X0021737Y0009426D02*
G01X0021698Y0009461D01*
G01X0021698Y0009461D02*
G01X0021658Y0009495D01*
G01X0021658Y0009495D02*
G01X0021615Y0009525D01*
G01X0021615Y0009525D02*
G01X0021571Y0009553D01*
G01X0021571Y0009553D02*
G01X0021525Y0009577D01*
G01X0021525Y0009577D02*
G01X0021477Y0009599D01*
G01X0021477Y0009599D02*
G01X0021428Y0009618D01*
G01X0021428Y0009618D02*
G01X0021378Y0009633D01*
G01X0021378Y0009633D02*
G01X0021327Y0009645D01*
G01X0021327Y0009645D02*
G01X0021275Y0009653D01*
G01X0021275Y0009653D02*
G01X0021223Y0009658D01*
G01X0021223Y0009658D02*
G01X0021171Y0009660D01*
G01X0021129Y0009410D02*
G01X0021188Y0009408D01*
G01X0021188Y0009408D02*
G01X0021247Y0009402D01*
G01X0021247Y0009402D02*
G01X0021305Y0009393D01*
G01X0021305Y0009393D02*
G01X0021362Y0009379D01*
G01X0021362Y0009379D02*
G01X0021419Y0009362D01*
G01X0021419Y0009362D02*
G01X0021474Y0009341D01*
G01X0021474Y0009341D02*
G01X0021528Y0009317D01*
G01X0021528Y0009317D02*
G01X0021580Y0009289D01*
G01X0021580Y0009289D02*
G01X0021630Y0009258D01*
G01X0021630Y0009258D02*
G01X0021677Y0009224D01*
G01X0021677Y0009224D02*
G01X0021723Y0009186D01*
G01X0021723Y0009186D02*
G01X0021766Y0009146D01*
G01X0019920Y0009660D02*
G01X0019859Y0009662D01*
G01X0019859Y0009662D02*
G01X0019798Y0009667D01*
G01X0019798Y0009667D02*
G01X0019738Y0009677D01*
G01X0019738Y0009677D02*
G01X0019679Y0009689D01*
G01X0019679Y0009689D02*
G01X0019620Y0009706D01*
G01X0019620Y0009706D02*
G01X0019563Y0009726D01*
G01X0019563Y0009726D02*
G01X0019506Y0009749D01*
G01X0019506Y0009749D02*
G01X0019452Y0009775D01*
G01X0019452Y0009775D02*
G01X0019399Y0009805D01*
G01X0019399Y0009805D02*
G01X0019347Y0009838D01*
G01X0019347Y0009838D02*
G01X0019298Y0009875D01*
G01X0019298Y0009875D02*
G01X0019252Y0009914D01*
G01X0019252Y0009914D02*
G01X0019207Y0009955D01*
G01X0018252Y0009160D02*
G01X0017679Y0008587D01*
G01X0017680Y0008587D02*
G01X0017628Y0008538D01*
G01X0017628Y0008538D02*
G01X0017574Y0008491D01*
G01X0017574Y0008491D02*
G01X0017518Y0008447D01*
G01X0017518Y0008447D02*
G01X0017459Y0008406D01*
G01X0017459Y0008406D02*
G01X0017399Y0008367D01*
G01X0017399Y0008367D02*
G01X0017336Y0008332D01*
G01X0017336Y0008332D02*
G01X0017272Y0008300D01*
G01X0017272Y0008300D02*
G01X0017207Y0008271D01*
G01X0017207Y0008271D02*
G01X0017140Y0008245D01*
G01X0017140Y0008245D02*
G01X0017072Y0008223D01*
G01X0017072Y0008223D02*
G01X0017003Y0008204D01*
G01X0017003Y0008204D02*
G01X0016933Y0008188D01*
G01X0016933Y0008188D02*
G01X0016863Y0008176D01*
G01X0016863Y0008176D02*
G01X0016792Y0008167D01*
G01X0016792Y0008167D02*
G01X0016721Y0008162D01*
G01X0016721Y0008162D02*
G01X0016649Y0008160D01*
G01X0015629Y0007160D02*
G01X0015569Y0007158D01*
G01X0015569Y0007158D02*
G01X0015510Y0007152D01*
G01X0015510Y0007152D02*
G01X0015451Y0007143D01*
G01X0015451Y0007143D02*
G01X0015393Y0007129D01*
G01X0015393Y0007129D02*
G01X0015336Y0007112D01*
G01X0015336Y0007112D02*
G01X0015281Y0007091D01*
G01X0015281Y0007091D02*
G01X0015227Y0007066D01*
G01X0015227Y0007066D02*
G01X0015174Y0007038D01*
G01X0015174Y0007038D02*
G01X0015123Y0007007D01*
G01X0015123Y0007007D02*
G01X0015075Y0006972D01*
G01X0015075Y0006972D02*
G01X0015029Y0006934D01*
G01X0015029Y0006934D02*
G01X0014986Y0006893D01*
G01X0013262Y0007160D02*
G01X0013193Y0007158D01*
G01X0013193Y0007158D02*
G01X0013124Y0007152D01*
G01X0013124Y0007152D02*
G01X0013056Y0007143D01*
G01X0013056Y0007143D02*
G01X0012988Y0007129D01*
G01X0012988Y0007129D02*
G01X0012921Y0007112D01*
G01X0012921Y0007112D02*
G01X0012855Y0007091D01*
G01X0012855Y0007091D02*
G01X0012791Y0007066D01*
G01X0012791Y0007066D02*
G01X0012728Y0007038D01*
G01X0012728Y0007038D02*
G01X0012667Y0007006D01*
G01X0012667Y0007006D02*
G01X0012607Y0006971D01*
G01X0012607Y0006971D02*
G01X0012550Y0006933D01*
G01X0012550Y0006933D02*
G01X0012494Y0006891D01*
G01X0012494Y0006891D02*
G01X0012442Y0006847D01*
G01X0012442Y0006847D02*
G01X0012392Y0006799D01*
G01X0012055Y0006660D02*
G01X0009916Y0006660D01*
G01X0009605Y0006306D02*
G01X0009638Y0006277D01*
G01X0009638Y0006277D02*
G01X0009672Y0006250D01*
G01X0009672Y0006250D02*
G01X0009709Y0006227D01*
G01X0009709Y0006227D02*
G01X0009748Y0006207D01*
G01X0009748Y0006207D02*
G01X0009788Y0006190D01*
G01X0009788Y0006190D02*
G01X0009830Y0006177D01*
G01X0009830Y0006177D02*
G01X0009872Y0006168D01*
G01X0009872Y0006168D02*
G01X0009915Y0006162D01*
G01X0009915Y0006162D02*
G01X0009959Y0006160D01*
G01X0009916Y0006910D02*
G01X0010272Y0006910D01*
G01X0009916Y0006660D02*
G01X0009877Y0006662D01*
G01X0009877Y0006662D02*
G01X0009839Y0006668D01*
G01X0009839Y0006668D02*
G01X0009801Y0006677D01*
G01X0009801Y0006677D02*
G01X0009765Y0006690D01*
G01X0009765Y0006690D02*
G01X0009730Y0006707D01*
G01X0009730Y0006707D02*
G01X0009697Y0006727D01*
G01X0009697Y0006727D02*
G01X0009665Y0006750D01*
G01X0009665Y0006750D02*
G01X0009637Y0006776D01*
G01X0009356Y0006910D02*
G01X0009105Y0006910D01*
G01X0009316Y0007410D02*
G01X0009355Y0007408D01*
G01X0009355Y0007408D02*
G01X0009394Y0007403D01*
G01X0009394Y0007403D02*
G01X0009433Y0007395D01*
G01X0009433Y0007395D02*
G01X0009470Y0007383D01*
G01X0009470Y0007383D02*
G01X0009507Y0007368D01*
G01X0009507Y0007368D02*
G01X0009542Y0007350D01*
G01X0009542Y0007350D02*
G01X0009575Y0007328D01*
G01X0009575Y0007328D02*
G01X0009606Y0007304D01*
G01X0009606Y0007304D02*
G01X0009635Y0007278D01*
G01X0009634Y0007278D02*
G01X0009649Y0007264D01*
G01X0009670Y0007492D02*
G01X0009606Y0007556D01*
G01X0009356Y0007660D02*
G01X0008669Y0007660D01*
G01X0008387Y0007276D02*
G01X0008415Y0007250D01*
G01X0008415Y0007250D02*
G01X0008447Y0007227D01*
G01X0008447Y0007227D02*
G01X0008480Y0007207D01*
G01X0008480Y0007207D02*
G01X0008515Y0007190D01*
G01X0008515Y0007190D02*
G01X0008551Y0007177D01*
G01X0008551Y0007177D02*
G01X0008589Y0007168D01*
G01X0008589Y0007168D02*
G01X0008627Y0007162D01*
G01X0008627Y0007162D02*
G01X0008666Y0007160D01*
G01X0008387Y0007276D02*
G01X0008384Y0007278D01*
G01X0008066Y0007410D02*
G01X0006900Y0007410D01*
G01X0006900Y0007910D02*
G01X0008066Y0007910D01*
G01X0008066Y0007910D02*
G01X0008105Y0007908D01*
G01X0008105Y0007908D02*
G01X0008144Y0007903D01*
G01X0008144Y0007903D02*
G01X0008183Y0007895D01*
G01X0008183Y0007895D02*
G01X0008220Y0007883D01*
G01X0008220Y0007883D02*
G01X0008257Y0007868D01*
G01X0008257Y0007868D02*
G01X0008292Y0007850D01*
G01X0008292Y0007850D02*
G01X0008325Y0007828D01*
G01X0008325Y0007828D02*
G01X0008356Y0007804D01*
G01X0008356Y0007804D02*
G01X0008385Y0007778D01*
G01X0008384Y0007778D02*
G01X0008413Y0007751D01*
G01X0008413Y0007751D02*
G01X0008445Y0007728D01*
G01X0008445Y0007728D02*
G01X0008479Y0007708D01*
G01X0008479Y0007708D02*
G01X0008515Y0007691D01*
G01X0008515Y0007691D02*
G01X0008552Y0007677D01*
G01X0008552Y0007677D02*
G01X0008590Y0007668D01*
G01X0008590Y0007668D02*
G01X0008629Y0007662D01*
G01X0008629Y0007662D02*
G01X0008669Y0007660D01*
G01X0009105Y0007410D02*
G01X0009316Y0007410D01*
G01X0009356Y0007660D02*
G01X0009391Y0007658D01*
G01X0009391Y0007658D02*
G01X0009425Y0007653D01*
G01X0009425Y0007653D02*
G01X0009459Y0007645D01*
G01X0009459Y0007645D02*
G01X0009491Y0007633D01*
G01X0009491Y0007633D02*
G01X0009523Y0007618D01*
G01X0009523Y0007618D02*
G01X0009553Y0007600D01*
G01X0009553Y0007600D02*
G01X0009581Y0007580D01*
G01X0009581Y0007580D02*
G01X0009606Y0007556D01*
G01X0009670Y0007492D02*
G01X0009693Y0007471D01*
G01X0009693Y0007471D02*
G01X0009719Y0007453D01*
G01X0009719Y0007453D02*
G01X0009747Y0007438D01*
G01X0009747Y0007438D02*
G01X0009776Y0007426D01*
G01X0009776Y0007426D02*
G01X0009806Y0007417D01*
G01X0009806Y0007417D02*
G01X0009837Y0007412D01*
G01X0009837Y0007412D02*
G01X0009868Y0007410D01*
G01X0009868Y0007410D02*
G01X0010272Y0007410D01*
G01X0010886Y0007775D02*
G01X0010912Y0007747D01*
G01X0010912Y0007747D02*
G01X0010935Y0007715D01*
G01X0010935Y0007715D02*
G01X0010955Y0007682D01*
G01X0010955Y0007682D02*
G01X0010972Y0007647D01*
G01X0010972Y0007647D02*
G01X0010985Y0007611D01*
G01X0010985Y0007611D02*
G01X0010994Y0007573D01*
G01X0010994Y0007573D02*
G01X0011000Y0007535D01*
G01X0011000Y0007535D02*
G01X0011002Y0007496D01*
G01X0010941Y0007349D02*
G01X0010856Y0007264D01*
G01X0010941Y0007349D02*
G01X0010959Y0007369D01*
G01X0010959Y0007369D02*
G01X0010974Y0007392D01*
G01X0010974Y0007392D02*
G01X0010986Y0007416D01*
G01X0010986Y0007416D02*
G01X0010995Y0007442D01*
G01X0010995Y0007442D02*
G01X0011000Y0007469D01*
G01X0011000Y0007469D02*
G01X0011002Y0007496D01*
G01X0010887Y0007776D02*
G01X0010804Y0007858D01*
G01X0010679Y0007910D02*
G01X0010272Y0007910D01*
G01X0010679Y0007910D02*
G01X0010702Y0007908D01*
G01X0010702Y0007908D02*
G01X0010725Y0007904D01*
G01X0010725Y0007904D02*
G01X0010747Y0007897D01*
G01X0010747Y0007897D02*
G01X0010767Y0007886D01*
G01X0010767Y0007886D02*
G01X0010787Y0007873D01*
G01X0010787Y0007873D02*
G01X0010804Y0007858D01*
G01X0010856Y0007264D02*
G01X0010831Y0007240D01*
G01X0010831Y0007240D02*
G01X0010803Y0007220D01*
G01X0010803Y0007220D02*
G01X0010773Y0007202D01*
G01X0010773Y0007202D02*
G01X0010741Y0007187D01*
G01X0010741Y0007187D02*
G01X0010709Y0007175D01*
G01X0010709Y0007175D02*
G01X0010675Y0007167D01*
G01X0010675Y0007167D02*
G01X0010641Y0007162D01*
G01X0010641Y0007162D02*
G01X0010606Y0007160D01*
G01X0010606Y0007160D02*
G01X0009899Y0007160D01*
G01X0009916Y0006910D02*
G01X0009877Y0006912D01*
G01X0009877Y0006912D02*
G01X0009839Y0006918D01*
G01X0009839Y0006918D02*
G01X0009801Y0006927D01*
G01X0009801Y0006927D02*
G01X0009765Y0006940D01*
G01X0009765Y0006940D02*
G01X0009730Y0006957D01*
G01X0009730Y0006957D02*
G01X0009697Y0006977D01*
G01X0009697Y0006977D02*
G01X0009665Y0007000D01*
G01X0009665Y0007000D02*
G01X0009637Y0007026D01*
G01X0009649Y0007264D02*
G01X0009674Y0007240D01*
G01X0009674Y0007240D02*
G01X0009702Y0007220D01*
G01X0009702Y0007220D02*
G01X0009732Y0007202D01*
G01X0009732Y0007202D02*
G01X0009764Y0007187D01*
G01X0009764Y0007187D02*
G01X0009796Y0007175D01*
G01X0009796Y0007175D02*
G01X0009830Y0007167D01*
G01X0009830Y0007167D02*
G01X0009864Y0007162D01*
G01X0009864Y0007162D02*
G01X0009899Y0007160D01*
G01X0008669Y0005660D02*
G01X0008629Y0005662D01*
G01X0008629Y0005662D02*
G01X0008590Y0005668D01*
G01X0008590Y0005668D02*
G01X0008552Y0005677D01*
G01X0008552Y0005677D02*
G01X0008515Y0005691D01*
G01X0008515Y0005691D02*
G01X0008479Y0005708D01*
G01X0008479Y0005708D02*
G01X0008445Y0005728D01*
G01X0008445Y0005728D02*
G01X0008413Y0005751D01*
G01X0008413Y0005751D02*
G01X0008384Y0005778D01*
G01X0008408Y0006255D02*
G01X0008377Y0006283D01*
G01X0008377Y0006283D02*
G01X0008345Y0006309D01*
G01X0008345Y0006309D02*
G01X0008310Y0006332D01*
G01X0008310Y0006332D02*
G01X0008274Y0006352D01*
G01X0008274Y0006352D02*
G01X0008236Y0006370D01*
G01X0008236Y0006370D02*
G01X0008197Y0006384D01*
G01X0008197Y0006384D02*
G01X0008157Y0006395D01*
G01X0008157Y0006395D02*
G01X0008116Y0006403D01*
G01X0008116Y0006403D02*
G01X0008075Y0006408D01*
G01X0008075Y0006408D02*
G01X0008033Y0006410D01*
G01X0008066Y0006910D02*
G01X0006900Y0006910D01*
G01X0008066Y0007410D02*
G01X0008105Y0007408D01*
G01X0008105Y0007408D02*
G01X0008144Y0007403D01*
G01X0008144Y0007403D02*
G01X0008183Y0007395D01*
G01X0008183Y0007395D02*
G01X0008220Y0007383D01*
G01X0008220Y0007383D02*
G01X0008257Y0007368D01*
G01X0008257Y0007368D02*
G01X0008292Y0007350D01*
G01X0008292Y0007350D02*
G01X0008325Y0007328D01*
G01X0008325Y0007328D02*
G01X0008356Y0007304D01*
G01X0008356Y0007304D02*
G01X0008385Y0007278D01*
G01X0009316Y0005910D02*
G01X0009355Y0005908D01*
G01X0009355Y0005908D02*
G01X0009394Y0005903D01*
G01X0009394Y0005903D02*
G01X0009433Y0005895D01*
G01X0009433Y0005895D02*
G01X0009470Y0005883D01*
G01X0009470Y0005883D02*
G01X0009507Y0005868D01*
G01X0009507Y0005868D02*
G01X0009542Y0005850D01*
G01X0009542Y0005850D02*
G01X0009575Y0005828D01*
G01X0009575Y0005828D02*
G01X0009606Y0005804D01*
G01X0009606Y0005804D02*
G01X0009635Y0005778D01*
G01X0009316Y0005410D02*
G01X0009105Y0005410D01*
G01X0009316Y0005410D02*
G01X0009355Y0005408D01*
G01X0009355Y0005408D02*
G01X0009394Y0005403D01*
G01X0009394Y0005403D02*
G01X0009433Y0005395D01*
G01X0009433Y0005395D02*
G01X0009470Y0005383D01*
G01X0009470Y0005383D02*
G01X0009507Y0005368D01*
G01X0009507Y0005368D02*
G01X0009542Y0005350D01*
G01X0009542Y0005350D02*
G01X0009575Y0005328D01*
G01X0009575Y0005328D02*
G01X0009606Y0005304D01*
G01X0009606Y0005304D02*
G01X0009635Y0005278D01*
G01X0009634Y0004528D02*
G01X0009660Y0004504D01*
G01X0009660Y0004504D02*
G01X0009688Y0004483D01*
G01X0009688Y0004483D02*
G01X0009718Y0004464D01*
G01X0009718Y0004464D02*
G01X0009749Y0004448D01*
G01X0009749Y0004448D02*
G01X0009781Y0004434D01*
G01X0009781Y0004434D02*
G01X0009815Y0004424D01*
G01X0009815Y0004424D02*
G01X0009849Y0004416D01*
G01X0009849Y0004416D02*
G01X0009884Y0004412D01*
G01X0009884Y0004412D02*
G01X0009919Y0004410D01*
G01X0009585Y0004328D02*
G01X0009562Y0004349D01*
G01X0009562Y0004349D02*
G01X0009536Y0004367D01*
G01X0009536Y0004367D02*
G01X0009508Y0004382D01*
G01X0009508Y0004382D02*
G01X0009479Y0004394D01*
G01X0009479Y0004394D02*
G01X0009449Y0004403D01*
G01X0009449Y0004403D02*
G01X0009418Y0004408D01*
G01X0009418Y0004408D02*
G01X0009387Y0004410D01*
G01X0007966Y0004660D02*
G01X0007926Y0004662D01*
G01X0007926Y0004662D02*
G01X0007885Y0004666D01*
G01X0007885Y0004666D02*
G01X0007846Y0004674D01*
G01X0007846Y0004674D02*
G01X0007807Y0004685D01*
G01X0007807Y0004685D02*
G01X0007769Y0004699D01*
G01X0007769Y0004699D02*
G01X0007732Y0004716D01*
G01X0007732Y0004716D02*
G01X0007697Y0004736D01*
G01X0007697Y0004736D02*
G01X0007663Y0004758D01*
G01X0007663Y0004758D02*
G01X0007632Y0004783D01*
G01X0007632Y0004783D02*
G01X0007602Y0004811D01*
G01X0006900Y0004410D02*
G01X0006900Y0004012D01*
G01X0006900Y0004012D02*
G01X0007002Y0003910D01*
G01X0012055Y0006660D02*
G01X0012096Y0006662D01*
G01X0012096Y0006662D02*
G01X0012138Y0006667D01*
G01X0012138Y0006667D02*
G01X0012178Y0006676D01*
G01X0012178Y0006676D02*
G01X0012218Y0006689D01*
G01X0012218Y0006689D02*
G01X0012256Y0006705D01*
G01X0012256Y0006705D02*
G01X0012293Y0006724D01*
G01X0012293Y0006724D02*
G01X0012328Y0006746D01*
G01X0012328Y0006746D02*
G01X0012361Y0006771D01*
G01X0012361Y0006771D02*
G01X0012392Y0006799D01*
G01X0012252Y0011160D02*
G01X0012252Y0012056D01*
G01X0012179Y0012233D02*
G01X0012162Y0012250D01*
G01X0012124Y0012341D02*
G01X0012124Y0013105D01*
G01X0011869Y0013105D02*
G01X0011869Y0012890D01*
G01X0011788Y0012695D02*
G01X0011334Y0012242D01*
G01X0011252Y0012044D02*
G01X0011252Y0011160D01*
G01X0010518Y0011800D02*
G01X0010478Y0011757D01*
G01X0010478Y0011757D02*
G01X0010440Y0011711D01*
G01X0010440Y0011711D02*
G01X0010406Y0011663D01*
G01X0010406Y0011663D02*
G01X0010374Y0011612D01*
G01X0010374Y0011612D02*
G01X0010346Y0011560D01*
G01X0010346Y0011560D02*
G01X0010322Y0011506D01*
G01X0010322Y0011506D02*
G01X0010301Y0011451D01*
G01X0010301Y0011451D02*
G01X0010284Y0011394D01*
G01X0010284Y0011394D02*
G01X0010270Y0011337D01*
G01X0010270Y0011337D02*
G01X0010261Y0011278D01*
G01X0010261Y0011278D02*
G01X0010255Y0011219D01*
G01X0010255Y0011219D02*
G01X0010253Y0011160D01*
G01X0010518Y0011800D02*
G01X0011580Y0012863D01*
G01X0011788Y0012695D02*
G01X0011809Y0012718D01*
G01X0011809Y0012718D02*
G01X0011827Y0012743D01*
G01X0011827Y0012743D02*
G01X0011842Y0012770D01*
G01X0011842Y0012770D02*
G01X0011854Y0012799D01*
G01X0011854Y0012799D02*
G01X0011862Y0012829D01*
G01X0011862Y0012829D02*
G01X0011867Y0012859D01*
G01X0011867Y0012859D02*
G01X0011869Y0012890D01*
G01X0011613Y0012941D02*
G01X0011613Y0013105D01*
G01X0011612Y0012941D02*
G01X0011611Y0012924D01*
G01X0011611Y0012924D02*
G01X0011607Y0012907D01*
G01X0011607Y0012907D02*
G01X0011600Y0012891D01*
G01X0011600Y0012891D02*
G01X0011591Y0012876D01*
G01X0011591Y0012876D02*
G01X0011579Y0012863D01*
G01X0011357Y0012933D02*
G01X0011357Y0013105D01*
G01X0011356Y0012933D02*
G01X0011355Y0012916D01*
G01X0011355Y0012916D02*
G01X0011351Y0012900D01*
G01X0011351Y0012900D02*
G01X0011344Y0012885D01*
G01X0011344Y0012885D02*
G01X0011336Y0012871D01*
G01X0011336Y0012871D02*
G01X0011325Y0012858D01*
G01X0011326Y0012858D02*
G01X0010789Y0012322D01*
G01X0010701Y0012285D02*
G01X0009929Y0012285D01*
G01X0009841Y0012248D02*
G01X0009252Y0011660D01*
G01X0009252Y0011660D02*
G01X0009252Y0011160D01*
G01X0008143Y0011425D02*
G01X0009091Y0012373D01*
G01X0009179Y0012410D02*
G01X0010554Y0012410D01*
G01X0010679Y0012462D02*
G01X0010752Y0012535D01*
G01X0010752Y0012535D02*
G01X0011071Y0012854D01*
G01X0011101Y0012926D02*
G01X0011101Y0013105D01*
G01X0011101Y0012926D02*
G01X0011099Y0012906D01*
G01X0011099Y0012906D02*
G01X0011093Y0012887D01*
G01X0011093Y0012887D02*
G01X0011084Y0012869D01*
G01X0011084Y0012869D02*
G01X0011071Y0012854D01*
G01X0010845Y0012918D02*
G01X0010845Y0013105D01*
G01X0010845Y0012918D02*
G01X0010843Y0012899D01*
G01X0010843Y0012899D02*
G01X0010838Y0012880D01*
G01X0010838Y0012880D02*
G01X0010828Y0012864D01*
G01X0010828Y0012864D02*
G01X0010816Y0012849D01*
G01X0010816Y0012849D02*
G01X0010554Y0012587D01*
G01X0010679Y0012462D02*
G01X0010662Y0012447D01*
G01X0010662Y0012447D02*
G01X0010642Y0012434D01*
G01X0010642Y0012434D02*
G01X0010622Y0012423D01*
G01X0010622Y0012423D02*
G01X0010600Y0012416D01*
G01X0010600Y0012416D02*
G01X0010577Y0012412D01*
G01X0010577Y0012412D02*
G01X0010554Y0012410D01*
G01X0010701Y0012285D02*
G01X0010721Y0012287D01*
G01X0010721Y0012287D02*
G01X0010740Y0012291D01*
G01X0010740Y0012291D02*
G01X0010758Y0012299D01*
G01X0010758Y0012299D02*
G01X0010774Y0012309D01*
G01X0010774Y0012309D02*
G01X0010789Y0012322D01*
G01X0010429Y0012535D02*
G01X0008701Y0012535D01*
G01X0008666Y0012660D02*
G01X0010304Y0012660D01*
G01X0010429Y0012535D02*
G01X0010452Y0012537D01*
G01X0010452Y0012537D02*
G01X0010475Y0012541D01*
G01X0010475Y0012541D02*
G01X0010497Y0012548D01*
G01X0010497Y0012548D02*
G01X0010517Y0012559D01*
G01X0010517Y0012559D02*
G01X0010537Y0012572D01*
G01X0010537Y0012572D02*
G01X0010554Y0012587D01*
G01X0010429Y0012712D02*
G01X0010561Y0012844D01*
G01X0010589Y0012911D02*
G01X0010589Y0013105D01*
G01X0010589Y0012911D02*
G01X0010587Y0012892D01*
G01X0010587Y0012892D02*
G01X0010582Y0012875D01*
G01X0010582Y0012875D02*
G01X0010573Y0012858D01*
G01X0010573Y0012858D02*
G01X0010561Y0012844D01*
G01X0010429Y0012712D02*
G01X0010412Y0012697D01*
G01X0010412Y0012697D02*
G01X0010392Y0012684D01*
G01X0010392Y0012684D02*
G01X0010372Y0012673D01*
G01X0010372Y0012673D02*
G01X0010350Y0012666D01*
G01X0010350Y0012666D02*
G01X0010327Y0012662D01*
G01X0010327Y0012662D02*
G01X0010304Y0012660D01*
G01X0010333Y0012991D02*
G01X0009146Y0012991D01*
G01X0008763Y0013150D02*
G01X0007929Y0013983D01*
G01X0007929Y0013983D02*
G01X0007894Y0014015D01*
G01X0007894Y0014015D02*
G01X0007857Y0014045D01*
G01X0007857Y0014045D02*
G01X0007818Y0014071D01*
G01X0007818Y0014071D02*
G01X0007776Y0014094D01*
G01X0007776Y0014094D02*
G01X0007733Y0014114D01*
G01X0007733Y0014114D02*
G01X0007689Y0014130D01*
G01X0007689Y0014130D02*
G01X0007643Y0014143D01*
G01X0007643Y0014143D02*
G01X0007596Y0014153D01*
G01X0007596Y0014153D02*
G01X0007549Y0014158D01*
G01X0007549Y0014158D02*
G01X0007502Y0014160D01*
G01X0007502Y0013160D02*
G01X0007514Y0013160D01*
G01X0008348Y0012815D02*
G01X0008387Y0012776D01*
G01X0008576Y0012483D02*
G01X0008334Y0012242D01*
G01X0008137Y0012160D02*
G01X0007502Y0012160D01*
G01X0008142Y0011425D02*
G01X0008099Y0011385D01*
G01X0008099Y0011385D02*
G01X0008053Y0011347D01*
G01X0008053Y0011347D02*
G01X0008005Y0011313D01*
G01X0008005Y0011313D02*
G01X0007954Y0011281D01*
G01X0007954Y0011281D02*
G01X0007902Y0011253D01*
G01X0007902Y0011253D02*
G01X0007848Y0011229D01*
G01X0007848Y0011229D02*
G01X0007793Y0011208D01*
G01X0007793Y0011208D02*
G01X0007736Y0011191D01*
G01X0007736Y0011191D02*
G01X0007679Y0011177D01*
G01X0007679Y0011177D02*
G01X0007620Y0011168D01*
G01X0007620Y0011168D02*
G01X0007561Y0011162D01*
G01X0007561Y0011162D02*
G01X0007502Y0011160D01*
G01X0008348Y0012815D02*
G01X0008300Y0012860D01*
G01X0008300Y0012860D02*
G01X0008249Y0012903D01*
G01X0008249Y0012903D02*
G01X0008196Y0012943D01*
G01X0008196Y0012943D02*
G01X0008141Y0012979D01*
G01X0008141Y0012979D02*
G01X0008084Y0013013D01*
G01X0008084Y0013013D02*
G01X0008026Y0013043D01*
G01X0008026Y0013043D02*
G01X0007965Y0013070D01*
G01X0007965Y0013070D02*
G01X0007903Y0013094D01*
G01X0007903Y0013094D02*
G01X0007840Y0013114D01*
G01X0007840Y0013114D02*
G01X0007776Y0013130D01*
G01X0007776Y0013130D02*
G01X0007711Y0013143D01*
G01X0007711Y0013143D02*
G01X0007646Y0013153D01*
G01X0007646Y0013153D02*
G01X0007580Y0013158D01*
G01X0007580Y0013158D02*
G01X0007514Y0013160D01*
G01X0008137Y0012160D02*
G01X0008168Y0012162D01*
G01X0008168Y0012162D02*
G01X0008199Y0012167D01*
G01X0008199Y0012167D02*
G01X0008229Y0012176D01*
G01X0008229Y0012176D02*
G01X0008258Y0012188D01*
G01X0008258Y0012188D02*
G01X0008286Y0012203D01*
G01X0008286Y0012203D02*
G01X0008312Y0012221D01*
G01X0008312Y0012221D02*
G01X0008335Y0012242D01*
G01X0008576Y0012483D02*
G01X0008593Y0012498D01*
G01X0008593Y0012498D02*
G01X0008613Y0012511D01*
G01X0008613Y0012511D02*
G01X0008633Y0012522D01*
G01X0008633Y0012522D02*
G01X0008655Y0012529D01*
G01X0008655Y0012529D02*
G01X0008678Y0012533D01*
G01X0008678Y0012533D02*
G01X0008701Y0012535D01*
G01X0009091Y0012373D02*
G01X0009106Y0012386D01*
G01X0009106Y0012386D02*
G01X0009122Y0012396D01*
G01X0009122Y0012396D02*
G01X0009140Y0012404D01*
G01X0009140Y0012404D02*
G01X0009159Y0012408D01*
G01X0009159Y0012408D02*
G01X0009179Y0012410D01*
G01X0009841Y0012248D02*
G01X0009856Y0012261D01*
G01X0009856Y0012261D02*
G01X0009872Y0012271D01*
G01X0009872Y0012271D02*
G01X0009890Y0012279D01*
G01X0009890Y0012279D02*
G01X0009909Y0012283D01*
G01X0009909Y0012283D02*
G01X0009929Y0012285D01*
G01X0010333Y0012991D02*
G01X0010333Y0013105D01*
G01X0009146Y0012991D02*
G01X0009103Y0012993D01*
G01X0009103Y0012993D02*
G01X0009061Y0012998D01*
G01X0009061Y0012998D02*
G01X0009019Y0013006D01*
G01X0009019Y0013006D02*
G01X0008979Y0013018D01*
G01X0008979Y0013018D02*
G01X0008939Y0013032D01*
G01X0008939Y0013032D02*
G01X0008900Y0013050D01*
G01X0008900Y0013050D02*
G01X0008863Y0013071D01*
G01X0008863Y0013071D02*
G01X0008827Y0013095D01*
G01X0008827Y0013095D02*
G01X0008794Y0013121D01*
G01X0008794Y0013121D02*
G01X0008763Y0013150D01*
G01X0008666Y0012660D02*
G01X0008627Y0012662D01*
G01X0008627Y0012662D02*
G01X0008589Y0012668D01*
G01X0008589Y0012668D02*
G01X0008551Y0012677D01*
G01X0008551Y0012677D02*
G01X0008515Y0012690D01*
G01X0008515Y0012690D02*
G01X0008480Y0012707D01*
G01X0008480Y0012707D02*
G01X0008447Y0012727D01*
G01X0008447Y0012727D02*
G01X0008415Y0012750D01*
G01X0008415Y0012750D02*
G01X0008387Y0012776D01*
G01X0008826Y0015734D02*
G01X0008891Y0015795D01*
G01X0008891Y0015795D02*
G01X0008957Y0015853D01*
G01X0008957Y0015853D02*
G01X0009026Y0015909D01*
G01X0009026Y0015909D02*
G01X0009098Y0015961D01*
G01X0009098Y0015961D02*
G01X0009172Y0016011D01*
G01X0009172Y0016011D02*
G01X0009247Y0016057D01*
G01X0009247Y0016057D02*
G01X0009325Y0016099D01*
G01X0009325Y0016099D02*
G01X0009405Y0016139D01*
G01X0009405Y0016139D02*
G01X0009486Y0016174D01*
G01X0009486Y0016174D02*
G01X0009569Y0016206D01*
G01X0009569Y0016206D02*
G01X0009653Y0016235D01*
G01X0009653Y0016235D02*
G01X0009738Y0016260D01*
G01X0009738Y0016260D02*
G01X0009824Y0016281D01*
G01X0009824Y0016281D02*
G01X0009911Y0016298D01*
G01X0009911Y0016298D02*
G01X0009999Y0016312D01*
G01X0009999Y0016312D02*
G01X0010087Y0016321D01*
G01X0010087Y0016321D02*
G01X0010175Y0016327D01*
G01X0010175Y0016327D02*
G01X0010264Y0016329D01*
G01X0010264Y0016329D02*
G01X0010333Y0016329D01*
G01X0010333Y0016329D02*
G01X0010333Y0016215D01*
G01X0010845Y0016238D02*
G01X0010843Y0016281D01*
G01X0010843Y0016281D02*
G01X0010838Y0016324D01*
G01X0010838Y0016324D02*
G01X0010828Y0016366D01*
G01X0010828Y0016366D02*
G01X0010815Y0016407D01*
G01X0010815Y0016407D02*
G01X0010799Y0016446D01*
G01X0010799Y0016446D02*
G01X0010779Y0016485D01*
G01X0010779Y0016485D02*
G01X0010756Y0016521D01*
G01X0010756Y0016521D02*
G01X0010730Y0016555D01*
G01X0010730Y0016555D02*
G01X0010701Y0016587D01*
G01X0010700Y0016587D02*
G01X0010509Y0016778D01*
G01X0010591Y0016947D02*
G01X0010944Y0016593D01*
G01X0011611Y0017050D02*
G01X0011651Y0017009D01*
G01X0011651Y0017009D02*
G01X0011687Y0016964D01*
G01X0011687Y0016964D02*
G01X0011720Y0016918D01*
G01X0011720Y0016918D02*
G01X0011751Y0016869D01*
G01X0011751Y0016869D02*
G01X0011778Y0016818D01*
G01X0011778Y0016818D02*
G01X0011801Y0016766D01*
G01X0011801Y0016766D02*
G01X0011822Y0016713D01*
G01X0011822Y0016713D02*
G01X0011838Y0016658D01*
G01X0011838Y0016658D02*
G01X0011851Y0016602D01*
G01X0011851Y0016602D02*
G01X0011861Y0016545D01*
G01X0011861Y0016545D02*
G01X0011866Y0016488D01*
G01X0011866Y0016488D02*
G01X0011868Y0016431D01*
G01X0011869Y0016431D02*
G01X0011869Y0016215D01*
G01X0011613Y0016215D02*
G01X0011613Y0016226D01*
G01X0011204Y0016583D02*
G01X0010584Y0017203D01*
G01X0010191Y0016910D02*
G01X0009567Y0016910D01*
G01X0009531Y0017160D02*
G01X0010075Y0017160D01*
G01X0010084Y0017410D02*
G01X0009781Y0017410D01*
G01X0009567Y0016910D02*
G01X0009513Y0016912D01*
G01X0009513Y0016912D02*
G01X0009459Y0016918D01*
G01X0009459Y0016918D02*
G01X0009405Y0016927D01*
G01X0009405Y0016927D02*
G01X0009353Y0016941D01*
G01X0009353Y0016941D02*
G01X0009301Y0016958D01*
G01X0009301Y0016958D02*
G01X0009251Y0016979D01*
G01X0009251Y0016979D02*
G01X0009203Y0017003D01*
G01X0009203Y0017003D02*
G01X0009156Y0017031D01*
G01X0009156Y0017031D02*
G01X0009112Y0017062D01*
G01X0009112Y0017062D02*
G01X0009069Y0017096D01*
G01X0009069Y0017096D02*
G01X0009030Y0017133D01*
G01X0008964Y0017160D02*
G01X0007502Y0017160D01*
G01X0008783Y0015690D02*
G01X0008722Y0015633D01*
G01X0008722Y0015633D02*
G01X0008659Y0015578D01*
G01X0008659Y0015578D02*
G01X0008593Y0015526D01*
G01X0008593Y0015526D02*
G01X0008525Y0015477D01*
G01X0008525Y0015477D02*
G01X0008455Y0015431D01*
G01X0008455Y0015431D02*
G01X0008383Y0015389D01*
G01X0008383Y0015389D02*
G01X0008309Y0015350D01*
G01X0008309Y0015350D02*
G01X0008234Y0015314D01*
G01X0008234Y0015314D02*
G01X0008156Y0015282D01*
G01X0008156Y0015282D02*
G01X0008078Y0015254D01*
G01X0008078Y0015254D02*
G01X0007998Y0015229D01*
G01X0007998Y0015229D02*
G01X0007917Y0015208D01*
G01X0007917Y0015208D02*
G01X0007835Y0015191D01*
G01X0007835Y0015191D02*
G01X0007752Y0015177D01*
G01X0007752Y0015177D02*
G01X0007669Y0015168D01*
G01X0007669Y0015168D02*
G01X0007586Y0015162D01*
G01X0007586Y0015162D02*
G01X0007502Y0015160D01*
G01X0008783Y0015690D02*
G01X0008826Y0015734D01*
G01X0008421Y0016160D02*
G01X0007502Y0016160D01*
G01X0008783Y0017630D02*
G01X0008722Y0017687D01*
G01X0008722Y0017687D02*
G01X0008659Y0017742D01*
G01X0008659Y0017742D02*
G01X0008593Y0017794D01*
G01X0008593Y0017794D02*
G01X0008525Y0017843D01*
G01X0008525Y0017843D02*
G01X0008455Y0017889D01*
G01X0008455Y0017889D02*
G01X0008383Y0017931D01*
G01X0008383Y0017931D02*
G01X0008309Y0017970D01*
G01X0008309Y0017970D02*
G01X0008234Y0018006D01*
G01X0008234Y0018006D02*
G01X0008156Y0018038D01*
G01X0008156Y0018038D02*
G01X0008078Y0018066D01*
G01X0008078Y0018066D02*
G01X0007998Y0018091D01*
G01X0007998Y0018091D02*
G01X0007917Y0018112D01*
G01X0007917Y0018112D02*
G01X0007835Y0018129D01*
G01X0007835Y0018129D02*
G01X0007752Y0018143D01*
G01X0007752Y0018143D02*
G01X0007669Y0018152D01*
G01X0007669Y0018152D02*
G01X0007586Y0018158D01*
G01X0007586Y0018158D02*
G01X0007502Y0018160D01*
G01X0008783Y0017630D02*
G01X0009055Y0017357D01*
G01X0009252Y0017735D02*
G01X0009252Y0018160D01*
G01X0009055Y0017357D02*
G01X0009090Y0017324D01*
G01X0009090Y0017324D02*
G01X0009128Y0017294D01*
G01X0009128Y0017294D02*
G01X0009167Y0017267D01*
G01X0009167Y0017267D02*
G01X0009208Y0017242D01*
G01X0009208Y0017242D02*
G01X0009251Y0017221D01*
G01X0009251Y0017221D02*
G01X0009296Y0017202D01*
G01X0009296Y0017202D02*
G01X0009341Y0017187D01*
G01X0009341Y0017187D02*
G01X0009388Y0017175D01*
G01X0009388Y0017175D02*
G01X0009435Y0017167D01*
G01X0009435Y0017167D02*
G01X0009483Y0017162D01*
G01X0009483Y0017162D02*
G01X0009531Y0017160D01*
G01X0009030Y0017133D02*
G01X0009016Y0017144D01*
G01X0009016Y0017144D02*
G01X0009000Y0017153D01*
G01X0009000Y0017153D02*
G01X0008982Y0017158D01*
G01X0008982Y0017158D02*
G01X0008964Y0017160D01*
G01X0008987Y0016394D02*
G01X0008948Y0016359D01*
G01X0008948Y0016359D02*
G01X0008908Y0016325D01*
G01X0008908Y0016325D02*
G01X0008865Y0016295D01*
G01X0008865Y0016295D02*
G01X0008821Y0016267D01*
G01X0008821Y0016267D02*
G01X0008775Y0016243D01*
G01X0008775Y0016243D02*
G01X0008727Y0016221D01*
G01X0008727Y0016221D02*
G01X0008678Y0016202D01*
G01X0008678Y0016202D02*
G01X0008628Y0016187D01*
G01X0008628Y0016187D02*
G01X0008577Y0016175D01*
G01X0008577Y0016175D02*
G01X0008525Y0016167D01*
G01X0008525Y0016167D02*
G01X0008473Y0016162D01*
G01X0008473Y0016162D02*
G01X0008421Y0016160D01*
G01X0008987Y0016394D02*
G01X0009045Y0016453D01*
G01X0009545Y0016660D02*
G01X0010191Y0016660D01*
G01X0010584Y0017203D02*
G01X0010547Y0017237D01*
G01X0010547Y0017237D02*
G01X0010508Y0017269D01*
G01X0010508Y0017269D02*
G01X0010466Y0017298D01*
G01X0010466Y0017298D02*
G01X0010423Y0017324D01*
G01X0010423Y0017324D02*
G01X0010378Y0017346D01*
G01X0010378Y0017346D02*
G01X0010331Y0017365D01*
G01X0010331Y0017365D02*
G01X0010283Y0017381D01*
G01X0010283Y0017381D02*
G01X0010234Y0017394D01*
G01X0010234Y0017394D02*
G01X0010185Y0017403D01*
G01X0010185Y0017403D02*
G01X0010134Y0017408D01*
G01X0010134Y0017408D02*
G01X0010084Y0017410D01*
G01X0010429Y0017733D02*
G01X0011384Y0016779D01*
G01X0010845Y0016238D02*
G01X0010845Y0016215D01*
G01X0011356Y0016215D02*
G01X0011354Y0016256D01*
G01X0011354Y0016256D02*
G01X0011350Y0016296D01*
G01X0011350Y0016296D02*
G01X0011342Y0016336D01*
G01X0011342Y0016336D02*
G01X0011331Y0016376D01*
G01X0011331Y0016376D02*
G01X0011316Y0016414D01*
G01X0011316Y0016414D02*
G01X0011299Y0016451D01*
G01X0011299Y0016451D02*
G01X0011279Y0016487D01*
G01X0011279Y0016487D02*
G01X0011257Y0016521D01*
G01X0011257Y0016521D02*
G01X0011231Y0016553D01*
G01X0011231Y0016553D02*
G01X0011204Y0016583D01*
G01X0011383Y0016778D02*
G01X0011418Y0016741D01*
G01X0011418Y0016741D02*
G01X0011451Y0016701D01*
G01X0011451Y0016701D02*
G01X0011480Y0016660D01*
G01X0011480Y0016660D02*
G01X0011507Y0016617D01*
G01X0011507Y0016617D02*
G01X0011531Y0016571D01*
G01X0011531Y0016571D02*
G01X0011553Y0016525D01*
G01X0011553Y0016525D02*
G01X0011571Y0016477D01*
G01X0011571Y0016477D02*
G01X0011585Y0016428D01*
G01X0011585Y0016428D02*
G01X0011597Y0016378D01*
G01X0011597Y0016378D02*
G01X0011605Y0016328D01*
G01X0011605Y0016328D02*
G01X0011610Y0016277D01*
G01X0011610Y0016277D02*
G01X0011612Y0016226D01*
G01X0010589Y0016215D02*
G01X0010589Y0016336D01*
G01X0010944Y0016593D02*
G01X0010973Y0016562D01*
G01X0010973Y0016562D02*
G01X0010999Y0016529D01*
G01X0010999Y0016529D02*
G01X0011022Y0016495D01*
G01X0011022Y0016495D02*
G01X0011043Y0016458D01*
G01X0011043Y0016458D02*
G01X0011060Y0016420D01*
G01X0011060Y0016420D02*
G01X0011075Y0016380D01*
G01X0011075Y0016380D02*
G01X0011086Y0016340D01*
G01X0011086Y0016340D02*
G01X0011094Y0016299D01*
G01X0011094Y0016299D02*
G01X0011099Y0016257D01*
G01X0011099Y0016257D02*
G01X0011101Y0016215D01*
G01X0010589Y0016336D02*
G01X0010587Y0016366D01*
G01X0010587Y0016366D02*
G01X0010582Y0016397D01*
G01X0010582Y0016397D02*
G01X0010574Y0016426D01*
G01X0010574Y0016426D02*
G01X0010562Y0016454D01*
G01X0010562Y0016454D02*
G01X0010547Y0016481D01*
G01X0010547Y0016481D02*
G01X0010530Y0016506D01*
G01X0010530Y0016506D02*
G01X0010509Y0016528D01*
G01X0010510Y0016778D02*
G01X0010481Y0016804D01*
G01X0010481Y0016804D02*
G01X0010450Y0016828D01*
G01X0010450Y0016828D02*
G01X0010417Y0016850D01*
G01X0010417Y0016850D02*
G01X0010382Y0016868D01*
G01X0010382Y0016868D02*
G01X0010345Y0016883D01*
G01X0010345Y0016883D02*
G01X0010308Y0016895D01*
G01X0010308Y0016895D02*
G01X0010269Y0016903D01*
G01X0010269Y0016903D02*
G01X0010230Y0016908D01*
G01X0010230Y0016908D02*
G01X0010191Y0016910D01*
G01X0010075Y0017160D02*
G01X0010127Y0017158D01*
G01X0010127Y0017158D02*
G01X0010179Y0017153D01*
G01X0010179Y0017153D02*
G01X0010230Y0017143D01*
G01X0010230Y0017143D02*
G01X0010280Y0017130D01*
G01X0010280Y0017130D02*
G01X0010330Y0017114D01*
G01X0010330Y0017114D02*
G01X0010378Y0017094D01*
G01X0010378Y0017094D02*
G01X0010424Y0017071D01*
G01X0010424Y0017071D02*
G01X0010469Y0017044D01*
G01X0010469Y0017044D02*
G01X0010512Y0017015D01*
G01X0010512Y0017015D02*
G01X0010552Y0016982D01*
G01X0010552Y0016982D02*
G01X0010590Y0016946D01*
G01X0010510Y0016528D02*
G01X0010481Y0016554D01*
G01X0010481Y0016554D02*
G01X0010450Y0016578D01*
G01X0010450Y0016578D02*
G01X0010417Y0016600D01*
G01X0010417Y0016600D02*
G01X0010382Y0016618D01*
G01X0010382Y0016618D02*
G01X0010345Y0016633D01*
G01X0010345Y0016633D02*
G01X0010308Y0016645D01*
G01X0010308Y0016645D02*
G01X0010269Y0016653D01*
G01X0010269Y0016653D02*
G01X0010230Y0016658D01*
G01X0010230Y0016658D02*
G01X0010191Y0016660D01*
G01X0009545Y0016660D02*
G01X0009495Y0016658D01*
G01X0009495Y0016658D02*
G01X0009444Y0016653D01*
G01X0009444Y0016653D02*
G01X0009395Y0016644D01*
G01X0009395Y0016644D02*
G01X0009346Y0016631D01*
G01X0009346Y0016631D02*
G01X0009298Y0016615D01*
G01X0009298Y0016615D02*
G01X0009251Y0016596D01*
G01X0009251Y0016596D02*
G01X0009206Y0016574D01*
G01X0009206Y0016574D02*
G01X0009163Y0016548D01*
G01X0009163Y0016548D02*
G01X0009121Y0016519D01*
G01X0009121Y0016519D02*
G01X0009082Y0016487D01*
G01X0009082Y0016487D02*
G01X0009045Y0016453D01*
G01X0009306Y0017608D02*
G01X0009290Y0017625D01*
G01X0009290Y0017625D02*
G01X0009277Y0017645D01*
G01X0009277Y0017645D02*
G01X0009267Y0017666D01*
G01X0009267Y0017666D02*
G01X0009259Y0017688D01*
G01X0009259Y0017688D02*
G01X0009255Y0017712D01*
G01X0009255Y0017712D02*
G01X0009253Y0017735D01*
G01X0009305Y0017607D02*
G01X0009340Y0017574D01*
G01X0009340Y0017574D02*
G01X0009378Y0017544D01*
G01X0009378Y0017544D02*
G01X0009417Y0017517D01*
G01X0009417Y0017517D02*
G01X0009458Y0017492D01*
G01X0009458Y0017492D02*
G01X0009501Y0017471D01*
G01X0009501Y0017471D02*
G01X0009546Y0017452D01*
G01X0009546Y0017452D02*
G01X0009591Y0017437D01*
G01X0009591Y0017437D02*
G01X0009638Y0017425D01*
G01X0009638Y0017425D02*
G01X0009685Y0017417D01*
G01X0009685Y0017417D02*
G01X0009733Y0017412D01*
G01X0009733Y0017412D02*
G01X0009781Y0017410D01*
G01X0010429Y0017733D02*
G01X0010397Y0017768D01*
G01X0010397Y0017768D02*
G01X0010367Y0017805D01*
G01X0010367Y0017805D02*
G01X0010341Y0017844D01*
G01X0010341Y0017844D02*
G01X0010318Y0017886D01*
G01X0010318Y0017886D02*
G01X0010298Y0017929D01*
G01X0010298Y0017929D02*
G01X0010282Y0017973D01*
G01X0010282Y0017973D02*
G01X0010269Y0018019D01*
G01X0010269Y0018019D02*
G01X0010259Y0018066D01*
G01X0010259Y0018066D02*
G01X0010254Y0018113D01*
G01X0010254Y0018113D02*
G01X0010252Y0018160D01*
G01X0011252Y0018160D02*
G01X0011252Y0017855D01*
G01X0013951Y0016608D02*
G01X0013939Y0016594D01*
G01X0013939Y0016594D02*
G01X0013929Y0016578D01*
G01X0013929Y0016578D02*
G01X0013922Y0016561D01*
G01X0013922Y0016561D02*
G01X0013917Y0016543D01*
G01X0013917Y0016543D02*
G01X0013916Y0016524D01*
G01X0013774Y0016681D02*
G01X0013799Y0016705D01*
G01X0013799Y0016705D02*
G01X0013827Y0016725D01*
G01X0013827Y0016725D02*
G01X0013857Y0016743D01*
G01X0013857Y0016743D02*
G01X0013889Y0016758D01*
G01X0013889Y0016758D02*
G01X0013921Y0016770D01*
G01X0013921Y0016770D02*
G01X0013955Y0016778D01*
G01X0013955Y0016778D02*
G01X0013989Y0016783D01*
G01X0013989Y0016783D02*
G01X0014024Y0016785D01*
G01X0014076Y0016660D02*
G01X0014053Y0016658D01*
G01X0014053Y0016658D02*
G01X0014030Y0016654D01*
G01X0014030Y0016654D02*
G01X0014008Y0016647D01*
G01X0014008Y0016647D02*
G01X0013988Y0016636D01*
G01X0013988Y0016636D02*
G01X0013968Y0016623D01*
G01X0013968Y0016623D02*
G01X0013951Y0016608D01*
G01X0014172Y0016215D02*
G01X0014557Y0016215D01*
G01X0014557Y0016215D02*
G01X0014627Y0016285D01*
G01X0015002Y0015910D02*
G01X0015002Y0015245D01*
G01X0015752Y0015245D02*
G01X0015752Y0015910D01*
G01X0015002Y0014575D02*
G01X0015002Y0013884D01*
G01X0014918Y0013679D02*
G01X0014794Y0013555D01*
G01X0014595Y0013473D02*
G01X0014147Y0013473D01*
G01X0014007Y0013415D02*
G01X0013970Y0013378D01*
G01X0013916Y0013247D02*
G01X0013916Y0013105D01*
G01X0013916Y0013247D02*
G01X0013918Y0013271D01*
G01X0013918Y0013271D02*
G01X0013922Y0013295D01*
G01X0013922Y0013295D02*
G01X0013930Y0013318D01*
G01X0013930Y0013318D02*
G01X0013941Y0013340D01*
G01X0013941Y0013340D02*
G01X0013954Y0013360D01*
G01X0013954Y0013360D02*
G01X0013970Y0013378D01*
G01X0014007Y0013415D02*
G01X0014026Y0013432D01*
G01X0014026Y0013432D02*
G01X0014048Y0013446D01*
G01X0014048Y0013446D02*
G01X0014071Y0013458D01*
G01X0014071Y0013458D02*
G01X0014096Y0013466D01*
G01X0014096Y0013466D02*
G01X0014121Y0013471D01*
G01X0014121Y0013471D02*
G01X0014147Y0013473D01*
G01X0014595Y0013472D02*
G01X0014626Y0013474D01*
G01X0014626Y0013474D02*
G01X0014658Y0013479D01*
G01X0014658Y0013479D02*
G01X0014688Y0013488D01*
G01X0014688Y0013488D02*
G01X0014717Y0013500D01*
G01X0014717Y0013500D02*
G01X0014745Y0013515D01*
G01X0014745Y0013515D02*
G01X0014770Y0013533D01*
G01X0014770Y0013533D02*
G01X0014794Y0013554D01*
G01X0014918Y0013679D02*
G01X0014940Y0013703D01*
G01X0014940Y0013703D02*
G01X0014959Y0013730D01*
G01X0014959Y0013730D02*
G01X0014974Y0013758D01*
G01X0014974Y0013758D02*
G01X0014987Y0013788D01*
G01X0014987Y0013788D02*
G01X0014996Y0013819D01*
G01X0014996Y0013819D02*
G01X0015001Y0013852D01*
G01X0015001Y0013852D02*
G01X0015003Y0013884D01*
G01X0016347Y0016660D02*
G01X0016437Y0016658D01*
G01X0016437Y0016658D02*
G01X0016528Y0016653D01*
G01X0016528Y0016653D02*
G01X0016618Y0016643D01*
G01X0016618Y0016643D02*
G01X0016707Y0016630D01*
G01X0016707Y0016630D02*
G01X0016796Y0016613D01*
G01X0016796Y0016613D02*
G01X0016884Y0016593D01*
G01X0016884Y0016593D02*
G01X0016971Y0016569D01*
G01X0016971Y0016569D02*
G01X0017057Y0016542D01*
G01X0017057Y0016542D02*
G01X0017142Y0016510D01*
G01X0017142Y0016510D02*
G01X0017226Y0016476D01*
G01X0017226Y0016476D02*
G01X0017308Y0016438D01*
G01X0017308Y0016438D02*
G01X0017388Y0016396D01*
G01X0017388Y0016396D02*
G01X0017466Y0016352D01*
G01X0017466Y0016352D02*
G01X0017543Y0016304D01*
G01X0017543Y0016304D02*
G01X0017618Y0016253D01*
G01X0017618Y0016253D02*
G01X0017690Y0016199D01*
G01X0017690Y0016199D02*
G01X0017760Y0016142D01*
G01X0017760Y0016142D02*
G01X0017828Y0016082D01*
G01X0017828Y0016082D02*
G01X0017893Y0016019D01*
G01X0017893Y0016020D02*
G01X0017943Y0015972D01*
G01X0017943Y0015972D02*
G01X0017995Y0015928D01*
G01X0017995Y0015928D02*
G01X0018050Y0015886D01*
G01X0018050Y0015886D02*
G01X0018108Y0015848D01*
G01X0018108Y0015848D02*
G01X0018167Y0015813D01*
G01X0018167Y0015813D02*
G01X0018228Y0015782D01*
G01X0018228Y0015782D02*
G01X0018291Y0015753D01*
G01X0018291Y0015753D02*
G01X0018355Y0015729D01*
G01X0018355Y0015729D02*
G01X0018421Y0015708D01*
G01X0018421Y0015708D02*
G01X0018488Y0015691D01*
G01X0018488Y0015691D02*
G01X0018555Y0015677D01*
G01X0018555Y0015677D02*
G01X0018624Y0015668D01*
G01X0018624Y0015668D02*
G01X0018692Y0015662D01*
G01X0018692Y0015662D02*
G01X0018761Y0015660D01*
G01X0019700Y0015660D02*
G01X0019752Y0015662D01*
G01X0019752Y0015662D02*
G01X0019804Y0015667D01*
G01X0019804Y0015667D02*
G01X0019855Y0015677D01*
G01X0019855Y0015677D02*
G01X0019905Y0015690D01*
G01X0019905Y0015690D02*
G01X0019955Y0015706D01*
G01X0019955Y0015706D02*
G01X0020003Y0015726D01*
G01X0020003Y0015726D02*
G01X0020049Y0015749D01*
G01X0020049Y0015749D02*
G01X0020094Y0015776D01*
G01X0020094Y0015776D02*
G01X0020137Y0015805D01*
G01X0020137Y0015805D02*
G01X0020177Y0015838D01*
G01X0020177Y0015838D02*
G01X0020215Y0015874D01*
G01X0020618Y0016660D02*
G01X0021951Y0016660D01*
G01X0021951Y0016660D02*
G01X0021971Y0016658D01*
G01X0021971Y0016658D02*
G01X0021990Y0016654D01*
G01X0021990Y0016654D02*
G01X0022008Y0016646D01*
G01X0022008Y0016646D02*
G01X0022024Y0016636D01*
G01X0022024Y0016636D02*
G01X0022039Y0016623D01*
G01X0022039Y0016624D02*
G01X0022054Y0016607D01*
G01X0022054Y0016607D02*
G01X0022066Y0016589D01*
G01X0022066Y0016589D02*
G01X0022076Y0016568D01*
G01X0022076Y0016568D02*
G01X0022083Y0016547D01*
G01X0022083Y0016547D02*
G01X0022088Y0016525D01*
G01X0022088Y0016525D02*
G01X0022089Y0016503D01*
G01X0022345Y0016425D02*
G01X0022345Y0016215D01*
G01X0021833Y0016215D02*
G01X0021353Y0016215D01*
G01X0021353Y0016215D02*
G01X0021302Y0016213D01*
G01X0021302Y0016213D02*
G01X0021251Y0016208D01*
G01X0021251Y0016208D02*
G01X0021201Y0016199D01*
G01X0021201Y0016199D02*
G01X0021152Y0016186D01*
G01X0021152Y0016186D02*
G01X0021103Y0016170D01*
G01X0021103Y0016170D02*
G01X0021056Y0016150D01*
G01X0021056Y0016150D02*
G01X0021011Y0016128D01*
G01X0021011Y0016128D02*
G01X0020967Y0016102D01*
G01X0020967Y0016102D02*
G01X0020925Y0016073D01*
G01X0020925Y0016073D02*
G01X0020885Y0016041D01*
G01X0020885Y0016041D02*
G01X0020848Y0016006D01*
G01X0021050Y0015709D02*
G01X0021081Y0015737D01*
G01X0021081Y0015737D02*
G01X0021114Y0015762D01*
G01X0021114Y0015762D02*
G01X0021149Y0015784D01*
G01X0021149Y0015784D02*
G01X0021186Y0015803D01*
G01X0021186Y0015803D02*
G01X0021224Y0015819D01*
G01X0021224Y0015819D02*
G01X0021264Y0015832D01*
G01X0021264Y0015832D02*
G01X0021304Y0015841D01*
G01X0021304Y0015841D02*
G01X0021346Y0015846D01*
G01X0021346Y0015846D02*
G01X0021387Y0015848D01*
G01X0021981Y0017181D02*
G01X0021956Y0017205D01*
G01X0021956Y0017205D02*
G01X0021928Y0017225D01*
G01X0021928Y0017225D02*
G01X0021898Y0017243D01*
G01X0021898Y0017243D02*
G01X0021866Y0017258D01*
G01X0021866Y0017258D02*
G01X0021834Y0017270D01*
G01X0021834Y0017270D02*
G01X0021800Y0017278D01*
G01X0021800Y0017278D02*
G01X0021766Y0017283D01*
G01X0021766Y0017283D02*
G01X0021731Y0017285D01*
G01X0021589Y0017160D02*
G01X0018752Y0017160D01*
G01X0019085Y0018160D02*
G01X0019146Y0018158D01*
G01X0019146Y0018158D02*
G01X0019207Y0018153D01*
G01X0019207Y0018153D02*
G01X0019267Y0018143D01*
G01X0019267Y0018143D02*
G01X0019326Y0018131D01*
G01X0019326Y0018131D02*
G01X0019385Y0018114D01*
G01X0019385Y0018114D02*
G01X0019442Y0018094D01*
G01X0019442Y0018094D02*
G01X0019499Y0018071D01*
G01X0019499Y0018071D02*
G01X0019553Y0018045D01*
G01X0019553Y0018045D02*
G01X0019606Y0018015D01*
G01X0019606Y0018015D02*
G01X0019658Y0017982D01*
G01X0019658Y0017982D02*
G01X0019707Y0017945D01*
G01X0019707Y0017945D02*
G01X0019753Y0017906D01*
G01X0019753Y0017906D02*
G01X0019798Y0017865D01*
G01X0020089Y0016746D02*
G01X0020064Y0016724D01*
G01X0020064Y0016724D02*
G01X0020037Y0016705D01*
G01X0020037Y0016705D02*
G01X0020008Y0016689D01*
G01X0020008Y0016689D02*
G01X0019977Y0016677D01*
G01X0019977Y0016677D02*
G01X0019946Y0016667D01*
G01X0019946Y0016667D02*
G01X0019913Y0016662D01*
G01X0019913Y0016662D02*
G01X0019880Y0016660D01*
G01X0018118Y0016660D02*
G01X0018087Y0016662D01*
G01X0018087Y0016662D02*
G01X0018056Y0016667D01*
G01X0018056Y0016667D02*
G01X0018026Y0016676D01*
G01X0018026Y0016676D02*
G01X0017997Y0016688D01*
G01X0017997Y0016688D02*
G01X0017969Y0016703D01*
G01X0017969Y0016703D02*
G01X0017943Y0016721D01*
G01X0017943Y0016721D02*
G01X0017920Y0016742D01*
G01X0016750Y0017408D02*
G01X0016693Y0017354D01*
G01X0016693Y0017354D02*
G01X0016634Y0017302D01*
G01X0016634Y0017302D02*
G01X0016572Y0017253D01*
G01X0016572Y0017253D02*
G01X0016509Y0017208D01*
G01X0016509Y0017208D02*
G01X0016443Y0017165D01*
G01X0016443Y0017165D02*
G01X0016375Y0017125D01*
G01X0016375Y0017125D02*
G01X0016306Y0017088D01*
G01X0016306Y0017088D02*
G01X0016235Y0017055D01*
G01X0016235Y0017055D02*
G01X0016162Y0017025D01*
G01X0016162Y0017025D02*
G01X0016088Y0016998D01*
G01X0016088Y0016998D02*
G01X0016013Y0016975D01*
G01X0016013Y0016975D02*
G01X0015937Y0016955D01*
G01X0015937Y0016955D02*
G01X0015860Y0016939D01*
G01X0015860Y0016939D02*
G01X0015783Y0016926D01*
G01X0015783Y0016926D02*
G01X0015705Y0016917D01*
G01X0015705Y0016917D02*
G01X0015627Y0016912D01*
G01X0015627Y0016912D02*
G01X0015548Y0016910D01*
G01X0014618Y0017526D02*
G01X0014590Y0017500D01*
G01X0014590Y0017500D02*
G01X0014558Y0017477D01*
G01X0014558Y0017477D02*
G01X0014525Y0017457D01*
G01X0014525Y0017457D02*
G01X0014490Y0017440D01*
G01X0014490Y0017440D02*
G01X0014454Y0017427D01*
G01X0014454Y0017427D02*
G01X0014416Y0017418D01*
G01X0014416Y0017418D02*
G01X0014378Y0017412D01*
G01X0014378Y0017412D02*
G01X0014339Y0017410D01*
G01X0014673Y0017160D02*
G01X0014746Y0017162D01*
G01X0014746Y0017162D02*
G01X0014819Y0017168D01*
G01X0014819Y0017168D02*
G01X0014892Y0017177D01*
G01X0014892Y0017177D02*
G01X0014964Y0017191D01*
G01X0014964Y0017191D02*
G01X0015035Y0017208D01*
G01X0015035Y0017208D02*
G01X0015105Y0017228D01*
G01X0015105Y0017228D02*
G01X0015174Y0017253D01*
G01X0015174Y0017253D02*
G01X0015242Y0017281D01*
G01X0015242Y0017281D02*
G01X0015308Y0017312D01*
G01X0015308Y0017312D02*
G01X0015372Y0017347D01*
G01X0015372Y0017347D02*
G01X0015434Y0017386D01*
G01X0015434Y0017386D02*
G01X0015495Y0017427D01*
G01X0015495Y0017427D02*
G01X0015553Y0017472D01*
G01X0015553Y0017472D02*
G01X0015608Y0017519D01*
G01X0015608Y0017519D02*
G01X0015662Y0017569D01*
G01X0018379Y0018660D02*
G01X0018438Y0018662D01*
G01X0018438Y0018662D02*
G01X0018497Y0018668D01*
G01X0018497Y0018668D02*
G01X0018555Y0018677D01*
G01X0018555Y0018677D02*
G01X0018612Y0018691D01*
G01X0018612Y0018691D02*
G01X0018669Y0018708D01*
G01X0018669Y0018708D02*
G01X0018724Y0018729D01*
G01X0018724Y0018729D02*
G01X0018778Y0018753D01*
G01X0018778Y0018753D02*
G01X0018830Y0018781D01*
G01X0018830Y0018781D02*
G01X0018880Y0018812D01*
G01X0018880Y0018812D02*
G01X0018927Y0018846D01*
G01X0018927Y0018846D02*
G01X0018973Y0018884D01*
G01X0018973Y0018884D02*
G01X0019016Y0018924D01*
G01X0019016Y0018924D02*
G01X0019765Y0019672D01*
G01X0019765Y0019672D02*
G01X0019801Y0019711D01*
G01X0019801Y0019711D02*
G01X0019835Y0019752D01*
G01X0019835Y0019752D02*
G01X0019866Y0019795D01*
G01X0019866Y0019795D02*
G01X0019894Y0019840D01*
G01X0019894Y0019840D02*
G01X0019919Y0019887D01*
G01X0019919Y0019887D02*
G01X0019941Y0019935D01*
G01X0019941Y0019935D02*
G01X0019960Y0019985D01*
G01X0019960Y0019985D02*
G01X0019975Y0020036D01*
G01X0019975Y0020036D02*
G01X0019987Y0020088D01*
G01X0019987Y0020088D02*
G01X0019996Y0020140D01*
G01X0019996Y0020140D02*
G01X0020001Y0020193D01*
G01X0020001Y0020193D02*
G01X0020003Y0020246D01*
G01X0020118Y0020526D02*
G01X0020120Y0020528D01*
G01X0020439Y0020660D02*
G01X0021886Y0020660D01*
G01X0021752Y0020160D02*
G01X0022132Y0019781D01*
G01X0022511Y0020401D02*
G01X0022469Y0020441D01*
G01X0022469Y0020441D02*
G01X0022424Y0020477D01*
G01X0022424Y0020477D02*
G01X0022377Y0020511D01*
G01X0022377Y0020511D02*
G01X0022328Y0020542D01*
G01X0022328Y0020542D02*
G01X0022277Y0020569D01*
G01X0022277Y0020569D02*
G01X0022224Y0020593D01*
G01X0022224Y0020593D02*
G01X0022170Y0020613D01*
G01X0022170Y0020613D02*
G01X0022115Y0020630D01*
G01X0022115Y0020630D02*
G01X0022058Y0020643D01*
G01X0022058Y0020643D02*
G01X0022001Y0020652D01*
G01X0022001Y0020652D02*
G01X0021944Y0020658D01*
G01X0021944Y0020658D02*
G01X0021886Y0020660D01*
G01X0022511Y0020401D02*
G01X0022752Y0020160D01*
G01X0022725Y0019535D02*
G01X0022670Y0019537D01*
G01X0022670Y0019537D02*
G01X0022615Y0019542D01*
G01X0022615Y0019542D02*
G01X0022561Y0019551D01*
G01X0022561Y0019551D02*
G01X0022508Y0019564D01*
G01X0022508Y0019564D02*
G01X0022455Y0019580D01*
G01X0022455Y0019580D02*
G01X0022404Y0019599D01*
G01X0022404Y0019599D02*
G01X0022354Y0019622D01*
G01X0022354Y0019622D02*
G01X0022306Y0019647D01*
G01X0022306Y0019647D02*
G01X0022259Y0019676D01*
G01X0022259Y0019676D02*
G01X0022214Y0019708D01*
G01X0022214Y0019708D02*
G01X0022172Y0019743D01*
G01X0022172Y0019743D02*
G01X0022132Y0019781D01*
G01X0022147Y0019160D02*
G01X0022090Y0019162D01*
G01X0022090Y0019162D02*
G01X0022032Y0019167D01*
G01X0022032Y0019167D02*
G01X0021975Y0019176D01*
G01X0021975Y0019176D02*
G01X0021919Y0019188D01*
G01X0021919Y0019188D02*
G01X0021864Y0019203D01*
G01X0021864Y0019203D02*
G01X0021809Y0019222D01*
G01X0021809Y0019222D02*
G01X0021756Y0019244D01*
G01X0021756Y0019244D02*
G01X0021705Y0019269D01*
G01X0021705Y0019269D02*
G01X0021654Y0019297D01*
G01X0021654Y0019297D02*
G01X0021606Y0019329D01*
G01X0021606Y0019329D02*
G01X0021560Y0019363D01*
G01X0021560Y0019363D02*
G01X0021516Y0019399D01*
G01X0021516Y0019399D02*
G01X0021474Y0019439D01*
G01X0021474Y0019439D02*
G01X0020752Y0020160D01*
G01X0020439Y0020660D02*
G01X0020400Y0020658D01*
G01X0020400Y0020658D02*
G01X0020361Y0020653D01*
G01X0020361Y0020653D02*
G01X0020322Y0020645D01*
G01X0020322Y0020645D02*
G01X0020285Y0020633D01*
G01X0020285Y0020633D02*
G01X0020248Y0020618D01*
G01X0020248Y0020618D02*
G01X0020213Y0020600D01*
G01X0020213Y0020600D02*
G01X0020180Y0020578D01*
G01X0020180Y0020578D02*
G01X0020149Y0020554D01*
G01X0020149Y0020554D02*
G01X0020120Y0020528D01*
G01X0020119Y0020525D02*
G01X0020093Y0020497D01*
G01X0020093Y0020497D02*
G01X0020070Y0020465D01*
G01X0020070Y0020465D02*
G01X0020050Y0020432D01*
G01X0020050Y0020432D02*
G01X0020033Y0020397D01*
G01X0020033Y0020397D02*
G01X0020020Y0020361D01*
G01X0020020Y0020361D02*
G01X0020011Y0020323D01*
G01X0020011Y0020323D02*
G01X0020005Y0020285D01*
G01X0020005Y0020285D02*
G01X0020003Y0020246D01*
G01X0022147Y0019160D02*
G01X0026002Y0019160D01*
G01X0026877Y0019535D02*
G01X0027002Y0019410D01*
G01X0026877Y0019535D02*
G01X0022725Y0019535D01*
G01X0023502Y0018160D02*
G01X0023502Y0017966D01*
G01X0023502Y0017966D02*
G01X0023504Y0017945D01*
G01X0023504Y0017945D02*
G01X0023509Y0017924D01*
G01X0023509Y0017924D02*
G01X0023517Y0017904D01*
G01X0023517Y0017904D02*
G01X0023528Y0017886D01*
G01X0023528Y0017886D02*
G01X0023542Y0017870D01*
G01X0024502Y0017574D02*
G01X0024500Y0017535D01*
G01X0024500Y0017535D02*
G01X0024494Y0017497D01*
G01X0024494Y0017497D02*
G01X0024485Y0017459D01*
G01X0024485Y0017459D02*
G01X0024472Y0017423D01*
G01X0024472Y0017423D02*
G01X0024455Y0017388D01*
G01X0024455Y0017388D02*
G01X0024435Y0017355D01*
G01X0024435Y0017355D02*
G01X0024412Y0017323D01*
G01X0024412Y0017323D02*
G01X0024386Y0017295D01*
G01X0024502Y0017574D02*
G01X0024502Y0018160D01*
G01X0025959Y0016742D02*
G01X0026002Y0016785D01*
G01X0025576Y0016660D02*
G01X0025553Y0016658D01*
G01X0025553Y0016658D02*
G01X0025530Y0016654D01*
G01X0025530Y0016654D02*
G01X0025508Y0016647D01*
G01X0025508Y0016647D02*
G01X0025488Y0016636D01*
G01X0025488Y0016636D02*
G01X0025468Y0016623D01*
G01X0025468Y0016623D02*
G01X0025451Y0016608D01*
G01X0024760Y0016793D02*
G01X0024735Y0016765D01*
G01X0024735Y0016765D02*
G01X0024713Y0016735D01*
G01X0024713Y0016735D02*
G01X0024693Y0016703D01*
G01X0024693Y0016703D02*
G01X0024677Y0016669D01*
G01X0024677Y0016669D02*
G01X0024664Y0016633D01*
G01X0024664Y0016633D02*
G01X0024655Y0016597D01*
G01X0024655Y0016597D02*
G01X0024650Y0016560D01*
G01X0024650Y0016560D02*
G01X0024648Y0016522D01*
G01X0024648Y0016522D02*
G01X0024648Y0016215D01*
G01X0024392Y0016215D02*
G01X0024392Y0016466D01*
G01X0023881Y0016568D02*
G01X0023883Y0016610D01*
G01X0023883Y0016610D02*
G01X0023888Y0016651D01*
G01X0023888Y0016651D02*
G01X0023896Y0016692D01*
G01X0023896Y0016692D02*
G01X0023907Y0016732D01*
G01X0023907Y0016732D02*
G01X0023921Y0016771D01*
G01X0023921Y0016771D02*
G01X0023939Y0016809D01*
G01X0023939Y0016809D02*
G01X0023959Y0016845D01*
G01X0023959Y0016845D02*
G01X0023982Y0016880D01*
G01X0023982Y0016880D02*
G01X0024008Y0016912D01*
G01X0024008Y0016912D02*
G01X0024036Y0016943D01*
G01X0023880Y0016568D02*
G01X0023880Y0016215D01*
G01X0024136Y0016215D02*
G01X0024136Y0016469D01*
G01X0024392Y0016466D02*
G01X0024394Y0016510D01*
G01X0024394Y0016510D02*
G01X0024400Y0016554D01*
G01X0024400Y0016554D02*
G01X0024409Y0016597D01*
G01X0024409Y0016597D02*
G01X0024422Y0016639D01*
G01X0024422Y0016639D02*
G01X0024439Y0016679D01*
G01X0024439Y0016679D02*
G01X0024460Y0016718D01*
G01X0024460Y0016718D02*
G01X0024483Y0016756D01*
G01X0024483Y0016756D02*
G01X0024510Y0016791D01*
G01X0024510Y0016791D02*
G01X0024540Y0016823D01*
G01X0024366Y0017024D02*
G01X0024331Y0016987D01*
G01X0024331Y0016987D02*
G01X0024298Y0016947D01*
G01X0024298Y0016947D02*
G01X0024268Y0016905D01*
G01X0024268Y0016905D02*
G01X0024241Y0016861D01*
G01X0024241Y0016861D02*
G01X0024217Y0016816D01*
G01X0024217Y0016816D02*
G01X0024196Y0016769D01*
G01X0024196Y0016769D02*
G01X0024178Y0016721D01*
G01X0024178Y0016721D02*
G01X0024163Y0016672D01*
G01X0024163Y0016672D02*
G01X0024151Y0016622D01*
G01X0024151Y0016622D02*
G01X0024143Y0016571D01*
G01X0024143Y0016571D02*
G01X0024138Y0016520D01*
G01X0024138Y0016520D02*
G01X0024136Y0016469D01*
G01X0023113Y0016452D02*
G01X0023113Y0016215D01*
G01X0022857Y0016215D02*
G01X0022857Y0016409D01*
G01X0023113Y0016452D02*
G01X0023112Y0016478D01*
G01X0023112Y0016478D02*
G01X0023107Y0016505D01*
G01X0023107Y0016505D02*
G01X0023100Y0016530D01*
G01X0023100Y0016530D02*
G01X0023090Y0016554D01*
G01X0023090Y0016554D02*
G01X0023077Y0016578D01*
G01X0023077Y0016578D02*
G01X0023062Y0016599D01*
G01X0023062Y0016599D02*
G01X0023044Y0016619D01*
G01X0022106Y0017306D02*
G01X0022081Y0017330D01*
G01X0022081Y0017330D02*
G01X0022053Y0017350D01*
G01X0022053Y0017350D02*
G01X0022023Y0017368D01*
G01X0022023Y0017368D02*
G01X0021991Y0017383D01*
G01X0021991Y0017383D02*
G01X0021959Y0017395D01*
G01X0021959Y0017395D02*
G01X0021925Y0017403D01*
G01X0021925Y0017403D02*
G01X0021891Y0017408D01*
G01X0021891Y0017408D02*
G01X0021856Y0017410D01*
G01X0020231Y0013681D02*
G01X0020268Y0013646D01*
G01X0020268Y0013646D02*
G01X0020308Y0013614D01*
G01X0020308Y0013614D02*
G01X0020350Y0013585D01*
G01X0020350Y0013585D02*
G01X0020393Y0013559D01*
G01X0020393Y0013559D02*
G01X0020439Y0013536D01*
G01X0020439Y0013536D02*
G01X0020486Y0013517D01*
G01X0020486Y0013517D02*
G01X0020534Y0013501D01*
G01X0020534Y0013501D02*
G01X0020583Y0013488D01*
G01X0020583Y0013488D02*
G01X0020634Y0013479D01*
G01X0020634Y0013479D02*
G01X0020684Y0013474D01*
G01X0020684Y0013474D02*
G01X0020735Y0013472D01*
G01X0021762Y0012660D02*
G01X0021793Y0012662D01*
G01X0021793Y0012662D02*
G01X0021824Y0012667D01*
G01X0021824Y0012667D02*
G01X0021854Y0012676D01*
G01X0021854Y0012676D02*
G01X0021883Y0012688D01*
G01X0021883Y0012688D02*
G01X0021911Y0012703D01*
G01X0021911Y0012703D02*
G01X0021937Y0012721D01*
G01X0021937Y0012721D02*
G01X0021960Y0012742D01*
G01X0022041Y0012324D02*
G01X0022009Y0012294D01*
G01X0022009Y0012294D02*
G01X0021975Y0012267D01*
G01X0021975Y0012267D02*
G01X0021938Y0012242D01*
G01X0021938Y0012242D02*
G01X0021900Y0012221D01*
G01X0021900Y0012221D02*
G01X0021860Y0012203D01*
G01X0021860Y0012203D02*
G01X0021819Y0012187D01*
G01X0021819Y0012187D02*
G01X0021776Y0012175D01*
G01X0021776Y0012175D02*
G01X0021733Y0012167D01*
G01X0021733Y0012167D02*
G01X0021690Y0012162D01*
G01X0021690Y0012162D02*
G01X0021646Y0012160D01*
G01X0021714Y0011910D02*
G01X0020993Y0011910D01*
G01X0023297Y0012581D02*
G01X0023315Y0012601D01*
G01X0023315Y0012601D02*
G01X0023331Y0012623D01*
G01X0023331Y0012623D02*
G01X0023344Y0012646D01*
G01X0023344Y0012646D02*
G01X0023354Y0012671D01*
G01X0023354Y0012671D02*
G01X0023362Y0012697D01*
G01X0023362Y0012697D02*
G01X0023366Y0012724D01*
G01X0023366Y0012724D02*
G01X0023368Y0012751D01*
G01X0023880Y0012988D02*
G01X0023880Y0013105D01*
G01X0024264Y0012291D02*
G01X0024300Y0012252D01*
G01X0024300Y0012252D02*
G01X0024334Y0012211D01*
G01X0024334Y0012211D02*
G01X0024365Y0012168D01*
G01X0024365Y0012168D02*
G01X0024393Y0012123D01*
G01X0024393Y0012123D02*
G01X0024418Y0012076D01*
G01X0024418Y0012076D02*
G01X0024440Y0012028D01*
G01X0024440Y0012028D02*
G01X0024459Y0011978D01*
G01X0024459Y0011978D02*
G01X0024474Y0011927D01*
G01X0024474Y0011927D02*
G01X0024486Y0011875D01*
G01X0024486Y0011875D02*
G01X0024495Y0011823D01*
G01X0024495Y0011823D02*
G01X0024500Y0011770D01*
G01X0024500Y0011770D02*
G01X0024502Y0011717D01*
G01X0026966Y0009374D02*
G01X0025895Y0008303D01*
G01X0025896Y0008302D02*
G01X0025866Y0008270D01*
G01X0025866Y0008270D02*
G01X0025839Y0008236D01*
G01X0025839Y0008236D02*
G01X0025815Y0008200D01*
G01X0025815Y0008200D02*
G01X0025793Y0008162D01*
G01X0025793Y0008162D02*
G01X0025775Y0008122D01*
G01X0025775Y0008122D02*
G01X0025760Y0008082D01*
G01X0025760Y0008082D02*
G01X0025748Y0008040D01*
G01X0025748Y0008040D02*
G01X0025740Y0007997D01*
G01X0025740Y0007997D02*
G01X0025735Y0007954D01*
G01X0025735Y0007954D02*
G01X0025733Y0007910D01*
G01X0025974Y0006910D02*
G01X0026022Y0006912D01*
G01X0026022Y0006912D02*
G01X0026070Y0006917D01*
G01X0026070Y0006917D02*
G01X0026117Y0006925D01*
G01X0026117Y0006925D02*
G01X0026164Y0006937D01*
G01X0026164Y0006937D02*
G01X0026209Y0006952D01*
G01X0026209Y0006952D02*
G01X0026254Y0006971D01*
G01X0026254Y0006971D02*
G01X0026297Y0006992D01*
G01X0026297Y0006992D02*
G01X0026338Y0007017D01*
G01X0026338Y0007017D02*
G01X0026377Y0007044D01*
G01X0026377Y0007044D02*
G01X0026415Y0007074D01*
G01X0026415Y0007074D02*
G01X0026450Y0007107D01*
G01X0026450Y0007107D02*
G01X0026561Y0007219D01*
G01X0026637Y0006544D02*
G01X0026607Y0006517D01*
G01X0026607Y0006517D02*
G01X0026576Y0006493D01*
G01X0026576Y0006493D02*
G01X0026542Y0006471D01*
G01X0026542Y0006471D02*
G01X0026507Y0006453D01*
G01X0026507Y0006453D02*
G01X0026470Y0006438D01*
G01X0026470Y0006438D02*
G01X0026432Y0006426D01*
G01X0026432Y0006426D02*
G01X0026393Y0006417D01*
G01X0026393Y0006417D02*
G01X0026353Y0006412D01*
G01X0026353Y0006412D02*
G01X0026313Y0006410D01*
G01X0026313Y0006410D02*
G01X0025732Y0006410D01*
G01X0025732Y0005910D02*
G01X0026316Y0005910D01*
G01X0026316Y0005910D02*
G01X0026355Y0005908D01*
G01X0026355Y0005908D02*
G01X0026394Y0005903D01*
G01X0026394Y0005903D02*
G01X0026433Y0005895D01*
G01X0026433Y0005895D02*
G01X0026470Y0005883D01*
G01X0026470Y0005883D02*
G01X0026507Y0005868D01*
G01X0026507Y0005868D02*
G01X0026542Y0005850D01*
G01X0026542Y0005850D02*
G01X0026575Y0005828D01*
G01X0026575Y0005828D02*
G01X0026606Y0005804D01*
G01X0026606Y0005804D02*
G01X0026635Y0005778D01*
G01X0026919Y0005660D02*
G01X0027752Y0005660D01*
G01X0027679Y0004660D02*
G01X0027617Y0004662D01*
G01X0027617Y0004662D02*
G01X0027555Y0004668D01*
G01X0027555Y0004668D02*
G01X0027493Y0004677D01*
G01X0027493Y0004677D02*
G01X0027432Y0004690D01*
G01X0027432Y0004690D02*
G01X0027372Y0004707D01*
G01X0027372Y0004707D02*
G01X0027313Y0004727D01*
G01X0027313Y0004727D02*
G01X0027256Y0004751D01*
G01X0027256Y0004751D02*
G01X0027200Y0004778D01*
G01X0027200Y0004778D02*
G01X0027146Y0004809D01*
G01X0027146Y0004809D02*
G01X0027093Y0004843D01*
G01X0027093Y0004843D02*
G01X0027043Y0004879D01*
G01X0027043Y0004879D02*
G01X0026995Y0004919D01*
G01X0026995Y0004919D02*
G01X0026950Y0004962D01*
G01X0026950Y0004962D02*
G01X0026769Y0005143D01*
G01X0026408Y0004755D02*
G01X0027326Y0003837D01*
G01X0027325Y0003837D02*
G01X0027360Y0003805D01*
G01X0027360Y0003805D02*
G01X0027397Y0003775D01*
G01X0027397Y0003775D02*
G01X0027436Y0003749D01*
G01X0027436Y0003749D02*
G01X0027478Y0003726D01*
G01X0027478Y0003726D02*
G01X0027521Y0003706D01*
G01X0027521Y0003706D02*
G01X0027565Y0003690D01*
G01X0027565Y0003690D02*
G01X0027611Y0003677D01*
G01X0027611Y0003677D02*
G01X0027658Y0003667D01*
G01X0027658Y0003667D02*
G01X0027705Y0003662D01*
G01X0027705Y0003662D02*
G01X0027752Y0003660D01*
G01X0027752Y0002660D02*
G01X0026002Y0004410D01*
G01X0026002Y0004410D02*
G01X0025732Y0004410D01*
G01X0026033Y0004910D02*
G01X0026075Y0004908D01*
G01X0026075Y0004908D02*
G01X0026116Y0004903D01*
G01X0026116Y0004903D02*
G01X0026157Y0004895D01*
G01X0026157Y0004895D02*
G01X0026197Y0004884D01*
G01X0026197Y0004884D02*
G01X0026236Y0004870D01*
G01X0026236Y0004870D02*
G01X0026274Y0004852D01*
G01X0026274Y0004852D02*
G01X0026310Y0004832D01*
G01X0026310Y0004832D02*
G01X0026345Y0004809D01*
G01X0026345Y0004809D02*
G01X0026377Y0004783D01*
G01X0026377Y0004783D02*
G01X0026408Y0004755D01*
G01X0026768Y0005143D02*
G01X0026725Y0005184D01*
G01X0026725Y0005184D02*
G01X0026679Y0005222D01*
G01X0026679Y0005222D02*
G01X0026631Y0005257D01*
G01X0026631Y0005257D02*
G01X0026580Y0005288D01*
G01X0026580Y0005288D02*
G01X0026527Y0005316D01*
G01X0026527Y0005316D02*
G01X0026473Y0005341D01*
G01X0026473Y0005341D02*
G01X0026418Y0005362D01*
G01X0026418Y0005362D02*
G01X0026361Y0005379D01*
G01X0026361Y0005379D02*
G01X0026303Y0005393D01*
G01X0026303Y0005393D02*
G01X0026244Y0005402D01*
G01X0026244Y0005402D02*
G01X0026185Y0005408D01*
G01X0026185Y0005408D02*
G01X0026125Y0005410D01*
G01X0026125Y0005410D02*
G01X0025732Y0005410D01*
G01X0025732Y0004910D02*
G01X0026033Y0004910D01*
G01X0025732Y0003910D02*
G01X0024502Y0003910D01*
G01X0026634Y0005778D02*
G01X0026663Y0005751D01*
G01X0026663Y0005751D02*
G01X0026695Y0005728D01*
G01X0026695Y0005728D02*
G01X0026729Y0005708D01*
G01X0026729Y0005708D02*
G01X0026765Y0005691D01*
G01X0026765Y0005691D02*
G01X0026802Y0005677D01*
G01X0026802Y0005677D02*
G01X0026840Y0005668D01*
G01X0026840Y0005668D02*
G01X0026879Y0005662D01*
G01X0026879Y0005662D02*
G01X0026919Y0005660D01*
G01X0026637Y0006544D02*
G01X0026665Y0006570D01*
G01X0026665Y0006570D02*
G01X0026697Y0006593D01*
G01X0026697Y0006593D02*
G01X0026730Y0006613D01*
G01X0026730Y0006613D02*
G01X0026765Y0006630D01*
G01X0026765Y0006630D02*
G01X0026801Y0006643D01*
G01X0026801Y0006643D02*
G01X0026839Y0006652D01*
G01X0026839Y0006652D02*
G01X0026877Y0006658D01*
G01X0026877Y0006658D02*
G01X0026916Y0006660D01*
G01X0026916Y0006660D02*
G01X0027752Y0006660D01*
G01X0027626Y0007660D02*
G01X0027552Y0007658D01*
G01X0027552Y0007658D02*
G01X0027478Y0007653D01*
G01X0027478Y0007653D02*
G01X0027405Y0007644D01*
G01X0027405Y0007644D02*
G01X0027332Y0007631D01*
G01X0027332Y0007631D02*
G01X0027260Y0007615D01*
G01X0027260Y0007615D02*
G01X0027189Y0007595D01*
G01X0027189Y0007595D02*
G01X0027119Y0007572D01*
G01X0027119Y0007572D02*
G01X0027050Y0007545D01*
G01X0027050Y0007545D02*
G01X0026983Y0007516D01*
G01X0026983Y0007516D02*
G01X0026917Y0007482D01*
G01X0026917Y0007482D02*
G01X0026852Y0007446D01*
G01X0026852Y0007446D02*
G01X0026790Y0007406D01*
G01X0026790Y0007406D02*
G01X0026729Y0007364D01*
G01X0026729Y0007364D02*
G01X0026671Y0007318D01*
G01X0026671Y0007318D02*
G01X0026615Y0007270D01*
G01X0026615Y0007270D02*
G01X0026562Y0007219D01*
G01X0026002Y0007410D02*
G01X0026993Y0008401D01*
G01X0027618Y0008660D02*
G01X0027752Y0008660D01*
G01X0027657Y0009660D02*
G01X0027598Y0009658D01*
G01X0027598Y0009658D02*
G01X0027539Y0009653D01*
G01X0027539Y0009653D02*
G01X0027481Y0009644D01*
G01X0027481Y0009644D02*
G01X0027423Y0009632D01*
G01X0027423Y0009632D02*
G01X0027367Y0009616D01*
G01X0027367Y0009616D02*
G01X0027311Y0009597D01*
G01X0027311Y0009597D02*
G01X0027256Y0009574D01*
G01X0027256Y0009574D02*
G01X0027203Y0009548D01*
G01X0027203Y0009548D02*
G01X0027152Y0009519D01*
G01X0027152Y0009519D02*
G01X0027103Y0009487D01*
G01X0027103Y0009487D02*
G01X0027055Y0009452D01*
G01X0027055Y0009452D02*
G01X0027010Y0009415D01*
G01X0027010Y0009415D02*
G01X0026967Y0009374D01*
G01X0027657Y0009660D02*
G01X0027752Y0009660D01*
G01X0027618Y0008660D02*
G01X0027560Y0008658D01*
G01X0027560Y0008658D02*
G01X0027503Y0008652D01*
G01X0027503Y0008652D02*
G01X0027446Y0008643D01*
G01X0027446Y0008643D02*
G01X0027389Y0008630D01*
G01X0027389Y0008630D02*
G01X0027334Y0008613D01*
G01X0027334Y0008613D02*
G01X0027280Y0008593D01*
G01X0027280Y0008593D02*
G01X0027227Y0008569D01*
G01X0027227Y0008569D02*
G01X0027176Y0008542D01*
G01X0027176Y0008542D02*
G01X0027127Y0008511D01*
G01X0027127Y0008511D02*
G01X0027080Y0008477D01*
G01X0027080Y0008477D02*
G01X0027035Y0008441D01*
G01X0027035Y0008441D02*
G01X0026993Y0008401D01*
G01X0027626Y0007660D02*
G01X0027752Y0007660D01*
G01X0026002Y0007410D02*
G01X0025732Y0007410D01*
G01X0025732Y0006910D02*
G01X0025974Y0006910D01*
G01X0027679Y0004660D02*
G01X0027752Y0004660D01*
G01X0021118Y0005044D02*
G01X0021090Y0005070D01*
G01X0021090Y0005070D02*
G01X0021058Y0005093D01*
G01X0021058Y0005093D02*
G01X0021025Y0005113D01*
G01X0021025Y0005113D02*
G01X0020990Y0005130D01*
G01X0020990Y0005130D02*
G01X0020954Y0005143D01*
G01X0020954Y0005143D02*
G01X0020916Y0005152D01*
G01X0020916Y0005152D02*
G01X0020878Y0005158D01*
G01X0020878Y0005158D02*
G01X0020839Y0005160D01*
G01X0016252Y0011160D02*
G01X0016252Y0011215D01*
G01X0015252Y0011160D02*
G01X0015252Y0011294D01*
G01X0015937Y0011975D02*
G01X0015979Y0011931D01*
G01X0015979Y0011931D02*
G01X0016017Y0011885D01*
G01X0016017Y0011885D02*
G01X0016054Y0011837D01*
G01X0016054Y0011837D02*
G01X0016087Y0011787D01*
G01X0016087Y0011787D02*
G01X0016118Y0011735D01*
G01X0016118Y0011735D02*
G01X0016146Y0011681D01*
G01X0016146Y0011681D02*
G01X0016170Y0011626D01*
G01X0016170Y0011626D02*
G01X0016192Y0011570D01*
G01X0016192Y0011570D02*
G01X0016210Y0011513D01*
G01X0016210Y0011513D02*
G01X0016225Y0011454D01*
G01X0016225Y0011454D02*
G01X0016237Y0011395D01*
G01X0016237Y0011395D02*
G01X0016245Y0011335D01*
G01X0016245Y0011335D02*
G01X0016250Y0011275D01*
G01X0016250Y0011275D02*
G01X0016252Y0011215D01*
G01X0014993Y0011919D02*
G01X0014709Y0012203D01*
G01X0014512Y0012285D02*
G01X0013429Y0012285D01*
G01X0013341Y0012322D02*
G01X0012925Y0012738D01*
G01X0012892Y0012816D02*
G01X0012892Y0013105D01*
G01X0012636Y0013105D02*
G01X0012636Y0012824D01*
G01X0012670Y0012742D02*
G01X0013170Y0012242D01*
G01X0013368Y0012160D02*
G01X0013701Y0012160D01*
G01X0013789Y0012123D02*
G01X0014039Y0011873D01*
G01X0013789Y0012123D02*
G01X0013774Y0012136D01*
G01X0013774Y0012136D02*
G01X0013758Y0012146D01*
G01X0013758Y0012146D02*
G01X0013740Y0012154D01*
G01X0013740Y0012154D02*
G01X0013721Y0012158D01*
G01X0013721Y0012158D02*
G01X0013701Y0012160D01*
G01X0013429Y0012285D02*
G01X0013409Y0012287D01*
G01X0013409Y0012287D02*
G01X0013390Y0012291D01*
G01X0013390Y0012291D02*
G01X0013372Y0012299D01*
G01X0013372Y0012299D02*
G01X0013356Y0012309D01*
G01X0013356Y0012309D02*
G01X0013341Y0012322D01*
G01X0013368Y0012160D02*
G01X0013337Y0012162D01*
G01X0013337Y0012162D02*
G01X0013306Y0012167D01*
G01X0013306Y0012167D02*
G01X0013276Y0012176D01*
G01X0013276Y0012176D02*
G01X0013247Y0012188D01*
G01X0013247Y0012188D02*
G01X0013219Y0012203D01*
G01X0013219Y0012203D02*
G01X0013193Y0012221D01*
G01X0013193Y0012221D02*
G01X0013170Y0012242D01*
G01X0012940Y0011973D02*
G01X0012416Y0012496D01*
G01X0012380Y0012583D02*
G01X0012380Y0013105D01*
G01X0012637Y0012824D02*
G01X0012638Y0012806D01*
G01X0012638Y0012806D02*
G01X0012643Y0012788D01*
G01X0012643Y0012788D02*
G01X0012650Y0012771D01*
G01X0012650Y0012771D02*
G01X0012659Y0012756D01*
G01X0012659Y0012756D02*
G01X0012671Y0012742D01*
G01X0012380Y0012583D02*
G01X0012382Y0012564D01*
G01X0012382Y0012564D02*
G01X0012386Y0012545D01*
G01X0012386Y0012545D02*
G01X0012393Y0012528D01*
G01X0012393Y0012528D02*
G01X0012403Y0012511D01*
G01X0012403Y0012511D02*
G01X0012416Y0012497D01*
G01X0012124Y0012341D02*
G01X0012126Y0012321D01*
G01X0012126Y0012321D02*
G01X0012130Y0012301D01*
G01X0012130Y0012301D02*
G01X0012138Y0012283D01*
G01X0012138Y0012283D02*
G01X0012148Y0012266D01*
G01X0012148Y0012266D02*
G01X0012161Y0012250D01*
G01X0012179Y0012233D02*
G01X0012197Y0012212D01*
G01X0012197Y0012212D02*
G01X0012214Y0012189D01*
G01X0012214Y0012189D02*
G01X0012227Y0012164D01*
G01X0012227Y0012164D02*
G01X0012238Y0012139D01*
G01X0012238Y0012139D02*
G01X0012246Y0012112D01*
G01X0012246Y0012112D02*
G01X0012250Y0012084D01*
G01X0012250Y0012084D02*
G01X0012252Y0012056D01*
G01X0011334Y0012242D02*
G01X0011313Y0012219D01*
G01X0011313Y0012219D02*
G01X0011295Y0012193D01*
G01X0011295Y0012193D02*
G01X0011280Y0012165D01*
G01X0011280Y0012165D02*
G01X0011268Y0012136D01*
G01X0011268Y0012136D02*
G01X0011259Y0012106D01*
G01X0011259Y0012106D02*
G01X0011254Y0012075D01*
G01X0011254Y0012075D02*
G01X0011252Y0012044D01*
G01X0012939Y0011973D02*
G01X0012983Y0011926D01*
G01X0012983Y0011926D02*
G01X0013025Y0011877D01*
G01X0013025Y0011877D02*
G01X0013063Y0011825D01*
G01X0013063Y0011825D02*
G01X0013098Y0011771D01*
G01X0013098Y0011771D02*
G01X0013130Y0011714D01*
G01X0013130Y0011714D02*
G01X0013158Y0011656D01*
G01X0013158Y0011656D02*
G01X0013183Y0011597D01*
G01X0013183Y0011597D02*
G01X0013204Y0011536D01*
G01X0013204Y0011536D02*
G01X0013221Y0011474D01*
G01X0013221Y0011474D02*
G01X0013235Y0011411D01*
G01X0013235Y0011411D02*
G01X0013244Y0011347D01*
G01X0013244Y0011347D02*
G01X0013250Y0011282D01*
G01X0013250Y0011282D02*
G01X0013252Y0011218D01*
G01X0013252Y0011218D02*
G01X0013252Y0011160D01*
G01X0014252Y0011358D02*
G01X0014250Y0011410D01*
G01X0014250Y0011410D02*
G01X0014245Y0011462D01*
G01X0014245Y0011462D02*
G01X0014235Y0011513D01*
G01X0014235Y0011513D02*
G01X0014222Y0011563D01*
G01X0014222Y0011563D02*
G01X0014206Y0011613D01*
G01X0014206Y0011613D02*
G01X0014186Y0011661D01*
G01X0014186Y0011661D02*
G01X0014163Y0011707D01*
G01X0014163Y0011707D02*
G01X0014136Y0011752D01*
G01X0014136Y0011752D02*
G01X0014107Y0011795D01*
G01X0014107Y0011795D02*
G01X0014074Y0011835D01*
G01X0014074Y0011835D02*
G01X0014038Y0011873D01*
G01X0014512Y0012285D02*
G01X0014543Y0012283D01*
G01X0014543Y0012283D02*
G01X0014574Y0012278D01*
G01X0014574Y0012278D02*
G01X0014604Y0012269D01*
G01X0014604Y0012269D02*
G01X0014633Y0012257D01*
G01X0014633Y0012257D02*
G01X0014661Y0012242D01*
G01X0014661Y0012242D02*
G01X0014687Y0012224D01*
G01X0014687Y0012224D02*
G01X0014710Y0012203D01*
G01X0015387Y0012410D02*
G01X0015418Y0012408D01*
G01X0015418Y0012408D02*
G01X0015449Y0012403D01*
G01X0015449Y0012403D02*
G01X0015479Y0012394D01*
G01X0015479Y0012394D02*
G01X0015508Y0012382D01*
G01X0015508Y0012382D02*
G01X0015536Y0012367D01*
G01X0015536Y0012367D02*
G01X0015562Y0012349D01*
G01X0015562Y0012349D02*
G01X0015585Y0012328D01*
G01X0015622Y0012535D02*
G01X0013804Y0012535D01*
G01X0013716Y0012572D02*
G01X0013434Y0012854D01*
G01X0013179Y0012858D02*
G01X0013168Y0012871D01*
G01X0013168Y0012871D02*
G01X0013160Y0012885D01*
G01X0013160Y0012885D02*
G01X0013153Y0012900D01*
G01X0013153Y0012900D02*
G01X0013149Y0012916D01*
G01X0013149Y0012916D02*
G01X0013148Y0012933D01*
G01X0012892Y0012816D02*
G01X0012893Y0012799D01*
G01X0012893Y0012799D02*
G01X0012897Y0012782D01*
G01X0012897Y0012782D02*
G01X0012904Y0012766D01*
G01X0012904Y0012766D02*
G01X0012913Y0012751D01*
G01X0012913Y0012751D02*
G01X0012925Y0012738D01*
G01X0013591Y0012447D02*
G01X0013606Y0012434D01*
G01X0013606Y0012434D02*
G01X0013622Y0012424D01*
G01X0013622Y0012424D02*
G01X0013640Y0012416D01*
G01X0013640Y0012416D02*
G01X0013659Y0012412D01*
G01X0013659Y0012412D02*
G01X0013679Y0012410D01*
G01X0013716Y0012572D02*
G01X0013731Y0012559D01*
G01X0013731Y0012559D02*
G01X0013747Y0012549D01*
G01X0013747Y0012549D02*
G01X0013765Y0012541D01*
G01X0013765Y0012541D02*
G01X0013784Y0012537D01*
G01X0013784Y0012537D02*
G01X0013804Y0012535D01*
G01X0013841Y0012697D02*
G01X0013856Y0012684D01*
G01X0013856Y0012684D02*
G01X0013872Y0012674D01*
G01X0013872Y0012674D02*
G01X0013890Y0012666D01*
G01X0013890Y0012666D02*
G01X0013909Y0012662D01*
G01X0013909Y0012662D02*
G01X0013929Y0012660D01*
G01X0015179Y0012660D02*
G01X0015202Y0012662D01*
G01X0015202Y0012662D02*
G01X0015225Y0012666D01*
G01X0015225Y0012666D02*
G01X0015247Y0012673D01*
G01X0015247Y0012673D02*
G01X0015267Y0012684D01*
G01X0015267Y0012684D02*
G01X0015287Y0012697D01*
G01X0015287Y0012697D02*
G01X0015304Y0012712D01*
G01X0015622Y0012535D02*
G01X0015651Y0012537D01*
G01X0015651Y0012537D02*
G01X0015679Y0012543D01*
G01X0015679Y0012543D02*
G01X0015707Y0012552D01*
G01X0015707Y0012552D02*
G01X0015733Y0012565D01*
G01X0015733Y0012565D02*
G01X0015757Y0012581D01*
G01X0015757Y0012581D02*
G01X0015778Y0012600D01*
G01X0014993Y0011919D02*
G01X0015033Y0011877D01*
G01X0015033Y0011877D02*
G01X0015069Y0011832D01*
G01X0015069Y0011832D02*
G01X0015103Y0011785D01*
G01X0015103Y0011785D02*
G01X0015134Y0011736D01*
G01X0015134Y0011736D02*
G01X0015161Y0011685D01*
G01X0015161Y0011685D02*
G01X0015185Y0011632D01*
G01X0015185Y0011632D02*
G01X0015205Y0011578D01*
G01X0015205Y0011578D02*
G01X0015222Y0011523D01*
G01X0015222Y0011523D02*
G01X0015235Y0011466D01*
G01X0015235Y0011466D02*
G01X0015244Y0011409D01*
G01X0015244Y0011409D02*
G01X0015250Y0011352D01*
G01X0015250Y0011352D02*
G01X0015252Y0011294D01*
G01X0014252Y0011358D02*
G01X0014252Y0011160D01*
G01X0017120Y0014528D02*
G01X0017149Y0014554D01*
G01X0017149Y0014554D02*
G01X0017180Y0014578D01*
G01X0017180Y0014578D02*
G01X0017213Y0014600D01*
G01X0017213Y0014600D02*
G01X0017248Y0014618D01*
G01X0017248Y0014618D02*
G01X0017285Y0014633D01*
G01X0017285Y0014633D02*
G01X0017322Y0014645D01*
G01X0017322Y0014645D02*
G01X0017361Y0014653D01*
G01X0017361Y0014653D02*
G01X0017400Y0014658D01*
G01X0017400Y0014658D02*
G01X0017439Y0014660D01*
G01X0018752Y0013160D02*
G01X0018940Y0012973D01*
G01X0018940Y0012973D02*
G01X0018987Y0012929D01*
G01X0018987Y0012929D02*
G01X0019036Y0012887D01*
G01X0019036Y0012887D02*
G01X0019088Y0012849D01*
G01X0019088Y0012849D02*
G01X0019142Y0012814D01*
G01X0019142Y0012814D02*
G01X0019199Y0012782D01*
G01X0019199Y0012782D02*
G01X0019257Y0012754D01*
G01X0019257Y0012754D02*
G01X0019316Y0012729D01*
G01X0019316Y0012729D02*
G01X0019377Y0012708D01*
G01X0019377Y0012708D02*
G01X0019439Y0012691D01*
G01X0019439Y0012691D02*
G01X0019502Y0012677D01*
G01X0019502Y0012677D02*
G01X0019566Y0012668D01*
G01X0019566Y0012668D02*
G01X0019631Y0012662D01*
G01X0019631Y0012662D02*
G01X0019695Y0012660D01*
G54D20*
G01X0022002Y0014035D03*
G01X0022502Y0014035D03*
G01X0023002Y0014035D03*
G01X0023502Y0014035D03*
G01X0024002Y0014035D03*
G01X0024502Y0014035D03*
G01X0025002Y0014035D03*
G01X0025502Y0014035D03*
G01X0025502Y0014660D03*
G01X0025502Y0015285D03*
G01X0025002Y0015285D03*
G01X0024502Y0015285D03*
G01X0024002Y0015285D03*
G01X0023502Y0015285D03*
G01X0023002Y0015285D03*
G01X0022502Y0015285D03*
G01X0022002Y0015285D03*
G01X0022002Y0014660D03*
G01X0021002Y0015660D03*
G01X0026002Y0016160D03*
G01X0019752Y0008160D03*
G01X0019252Y0005160D03*
G01X0018252Y0003910D03*
G01X0013252Y0003910D03*
G01X0011752Y0004160D03*
G01X0013002Y0006660D03*
G01X0008502Y0008160D03*
G01X0008002Y0005160D03*
G01X0007002Y0003910D03*
G01X0010502Y0014035D03*
G01X0011002Y0014035D03*
G01X0011502Y0014035D03*
G01X0012002Y0014035D03*
G01X0012502Y0014035D03*
G01X0013002Y0014035D03*
G01X0013502Y0014035D03*
G01X0014002Y0014035D03*
G01X0014002Y0014660D03*
G01X0014002Y0015285D03*
G01X0013502Y0015285D03*
G01X0013002Y0015285D03*
G01X0012502Y0015285D03*
G01X0012002Y0015285D03*
G01X0011502Y0015285D03*
G01X0011002Y0015285D03*
G01X0010502Y0015285D03*
G01X0010502Y0014660D03*
G01X0024502Y0003910D03*
G54D21*
G01X0021772Y0003910D02*
G01X0021304Y0003910D01*
G01X0020789Y0003697D02*
G01X0020781Y0003689D01*
G01X0020789Y0003696D02*
G01X0020827Y0003732D01*
G01X0020827Y0003732D02*
G01X0020867Y0003765D01*
G01X0020867Y0003765D02*
G01X0020910Y0003794D01*
G01X0020910Y0003794D02*
G01X0020955Y0003821D01*
G01X0020955Y0003821D02*
G01X0021001Y0003844D01*
G01X0021001Y0003844D02*
G01X0021049Y0003864D01*
G01X0021049Y0003864D02*
G01X0021099Y0003880D01*
G01X0021099Y0003880D02*
G01X0021149Y0003893D01*
G01X0021149Y0003893D02*
G01X0021200Y0003903D01*
G01X0021200Y0003903D02*
G01X0021252Y0003908D01*
G01X0021252Y0003908D02*
G01X0021304Y0003910D01*
G01X0020781Y0003689D02*
G01X0020741Y0003647D01*
G01X0020741Y0003647D02*
G01X0020705Y0003603D01*
G01X0020705Y0003603D02*
G01X0020671Y0003557D01*
G01X0020671Y0003557D02*
G01X0020639Y0003509D01*
G01X0020639Y0003509D02*
G01X0020611Y0003458D01*
G01X0020611Y0003458D02*
G01X0020586Y0003407D01*
G01X0020586Y0003407D02*
G01X0020564Y0003354D01*
G01X0020564Y0003354D02*
G01X0020545Y0003299D01*
G01X0020545Y0003299D02*
G01X0020530Y0003244D01*
G01X0020530Y0003244D02*
G01X0020518Y0003188D01*
G01X0020518Y0003188D02*
G01X0020509Y0003131D01*
G01X0020509Y0003131D02*
G01X0020504Y0003073D01*
G01X0020504Y0003073D02*
G01X0020502Y0003016D01*
G01X0020502Y0003016D02*
G01X0020502Y0002910D01*
G01X0019752Y0008160D02*
G01X0019676Y0008237D01*
G01X0019587Y0008451D02*
G01X0019587Y0008660D01*
G01X0019587Y0008451D02*
G01X0019589Y0008417D01*
G01X0019589Y0008417D02*
G01X0019595Y0008384D01*
G01X0019595Y0008384D02*
G01X0019604Y0008351D01*
G01X0019604Y0008351D02*
G01X0019617Y0008320D01*
G01X0019617Y0008320D02*
G01X0019633Y0008290D01*
G01X0019633Y0008290D02*
G01X0019653Y0008263D01*
G01X0019653Y0008263D02*
G01X0019675Y0008237D01*
G01X0018918Y0008660D02*
G01X0018252Y0008660D01*
G01X0014877Y0013035D02*
G01X0015637Y0013794D01*
G01X0015752Y0014074D02*
G01X0015752Y0014575D01*
G01X0015752Y0014074D02*
G01X0015750Y0014035D01*
G01X0015750Y0014035D02*
G01X0015744Y0013997D01*
G01X0015744Y0013997D02*
G01X0015735Y0013959D01*
G01X0015735Y0013959D02*
G01X0015722Y0013923D01*
G01X0015722Y0013923D02*
G01X0015705Y0013888D01*
G01X0015705Y0013888D02*
G01X0015685Y0013855D01*
G01X0015685Y0013855D02*
G01X0015662Y0013823D01*
G01X0015662Y0013823D02*
G01X0015636Y0013795D01*
G01X0014877Y0013035D02*
G01X0014752Y0013035D01*
G01X0014752Y0013035D02*
G01X0014697Y0013105D01*
G01X0014697Y0013105D02*
G01X0014172Y0013105D01*
G01X0008752Y0009160D02*
G01X0008752Y0008910D01*
G01X0008752Y0008910D02*
G01X0008337Y0008660D01*
G01X0008337Y0008660D02*
G01X0008337Y0008451D01*
G01X0008426Y0008237D02*
G01X0008502Y0008160D01*
G01X0008502Y0008160D02*
G01X0008679Y0007983D01*
G01X0008856Y0007910D02*
G01X0009105Y0007910D01*
G01X0008856Y0007910D02*
G01X0008828Y0007912D01*
G01X0008828Y0007912D02*
G01X0008800Y0007916D01*
G01X0008800Y0007916D02*
G01X0008773Y0007924D01*
G01X0008773Y0007924D02*
G01X0008748Y0007935D01*
G01X0008748Y0007935D02*
G01X0008723Y0007948D01*
G01X0008723Y0007948D02*
G01X0008700Y0007965D01*
G01X0008700Y0007965D02*
G01X0008679Y0007983D01*
G01X0008425Y0008237D02*
G01X0008403Y0008263D01*
G01X0008403Y0008263D02*
G01X0008383Y0008290D01*
G01X0008383Y0008290D02*
G01X0008367Y0008320D01*
G01X0008367Y0008320D02*
G01X0008354Y0008351D01*
G01X0008354Y0008351D02*
G01X0008345Y0008384D01*
G01X0008345Y0008384D02*
G01X0008339Y0008417D01*
G01X0008339Y0008417D02*
G01X0008337Y0008451D01*
G01X0007668Y0008660D02*
G01X0007668Y0009075D01*
G01X0007668Y0009075D02*
G01X0007752Y0009160D01*
G01X0008066Y0005097D02*
G01X0008102Y0005063D01*
G01X0008102Y0005063D02*
G01X0008142Y0005032D01*
G01X0008142Y0005032D02*
G01X0008183Y0005004D01*
G01X0008183Y0005004D02*
G01X0008227Y0004979D01*
G01X0008227Y0004979D02*
G01X0008272Y0004958D01*
G01X0008272Y0004958D02*
G01X0008319Y0004941D01*
G01X0008319Y0004941D02*
G01X0008367Y0004928D01*
G01X0008367Y0004928D02*
G01X0008416Y0004918D01*
G01X0008416Y0004918D02*
G01X0008466Y0004912D01*
G01X0008466Y0004912D02*
G01X0008516Y0004910D01*
G01X0008516Y0004910D02*
G01X0009105Y0004910D01*
G01X0008066Y0005097D02*
G01X0008002Y0005160D01*
G01X0009516Y0003910D02*
G01X0010272Y0003910D01*
G01X0009516Y0003910D02*
G01X0009466Y0003908D01*
G01X0009466Y0003908D02*
G01X0009416Y0003902D01*
G01X0009416Y0003902D02*
G01X0009367Y0003892D01*
G01X0009367Y0003892D02*
G01X0009319Y0003879D01*
G01X0009319Y0003879D02*
G01X0009272Y0003862D01*
G01X0009272Y0003862D02*
G01X0009227Y0003841D01*
G01X0009227Y0003841D02*
G01X0009183Y0003816D01*
G01X0009183Y0003816D02*
G01X0009142Y0003788D01*
G01X0009142Y0003788D02*
G01X0009102Y0003757D01*
G01X0009102Y0003757D02*
G01X0009066Y0003723D01*
G01X0009002Y0003570D02*
G01X0009002Y0002910D01*
G01X0009003Y0003570D02*
G01X0009005Y0003598D01*
G01X0009005Y0003598D02*
G01X0009010Y0003626D01*
G01X0009010Y0003626D02*
G01X0009019Y0003653D01*
G01X0009019Y0003653D02*
G01X0009032Y0003678D01*
G01X0009032Y0003678D02*
G01X0009048Y0003701D01*
G01X0009048Y0003701D02*
G01X0009066Y0003723D01*
G01X0023752Y0014660D02*
G01X0025502Y0014660D01*
G01X0027128Y0014237D02*
G01X0027126Y0014185D01*
G01X0027126Y0014185D02*
G01X0027121Y0014134D01*
G01X0027121Y0014134D02*
G01X0027113Y0014083D01*
G01X0027113Y0014083D02*
G01X0027101Y0014032D01*
G01X0027101Y0014032D02*
G01X0027086Y0013983D01*
G01X0027086Y0013983D02*
G01X0027068Y0013934D01*
G01X0027068Y0013934D02*
G01X0027046Y0013887D01*
G01X0027046Y0013887D02*
G01X0027022Y0013841D01*
G01X0027022Y0013841D02*
G01X0026995Y0013798D01*
G01X0026995Y0013798D02*
G01X0026965Y0013755D01*
G01X0026965Y0013755D02*
G01X0026932Y0013715D01*
G01X0026932Y0013715D02*
G01X0026896Y0013678D01*
G01X0026896Y0013678D02*
G01X0026486Y0013269D01*
G01X0026090Y0013105D02*
G01X0025932Y0013105D01*
G01X0025932Y0013105D02*
G01X0026002Y0013035D01*
G01X0025932Y0013105D02*
G01X0025672Y0013105D01*
G01X0026090Y0013105D02*
G01X0026134Y0013107D01*
G01X0026134Y0013107D02*
G01X0026177Y0013112D01*
G01X0026177Y0013112D02*
G01X0026220Y0013120D01*
G01X0026220Y0013120D02*
G01X0026263Y0013132D01*
G01X0026263Y0013132D02*
G01X0026304Y0013148D01*
G01X0026304Y0013148D02*
G01X0026344Y0013166D01*
G01X0026344Y0013166D02*
G01X0026382Y0013187D01*
G01X0026382Y0013187D02*
G01X0026419Y0013212D01*
G01X0026419Y0013212D02*
G01X0026453Y0013239D01*
G01X0026453Y0013239D02*
G01X0026485Y0013269D01*
G01X0027127Y0014237D02*
G01X0027127Y0014325D01*
G54D22*
G01X0027127Y0015660D03*
G01X0026502Y0015660D03*
G01X0026002Y0016785D03*
G01X0025252Y0016785D03*
G01X0026002Y0019160D03*
G01X0027002Y0019410D03*
G01X0021502Y0016910D03*
G01X0020752Y0016410D03*
G01X0018002Y0012660D03*
G01X0014752Y0013035D03*
G01X0015002Y0015910D03*
G01X0014627Y0016285D03*
G01X0015752Y0015910D03*
G01X0019002Y0010160D03*
G01X0019002Y0009660D03*
G01X0019002Y0009160D03*
G01X0018252Y0009160D03*
G01X0018252Y0008660D03*
G01X0026002Y0013035D03*
G01X0027502Y0012410D03*
G01X0008752Y0009160D03*
G01X0007752Y0009160D03*
G54D23*
G01X0012252Y0014660D02*
G01X0014002Y0014660D01*
G01X0023752Y0014660D02*
G01X0025502Y0014660D01*
M02*
