G75*
G70*
%OFA0B0*%
%FSLAX25Y25*%
%IPPOS*%
%LPD*%
%AMOC8*
5,1,8,0,0,1.08239X$1,22.5*
%
%ADD10C,0.03970*%
%ADD14C,0.03170*%
%ADD16C,0.00600*%
%ADD17C,0.00000*%
%ADD19R,0.04720X0.04720*%
X0010000Y0010000D02*
G75*
%LPD*%
D17*
X0010000Y0010000D02*
X0010000Y0095000D01*
X0075000Y0095000D01*
X0075000Y0010000D01*
X0010000Y0010000D01*
D19*
X0015860Y0018750D03*
X0024130Y0018750D03*
X0031250Y0022880D03*
X0031250Y0014610D03*
X0041250Y0014610D03*
X0041250Y0022880D03*
X0023510Y0029370D03*
X0015240Y0029370D03*
X0015240Y0040620D03*
X0023510Y0040620D03*
X0024130Y0051870D03*
X0015860Y0051870D03*
X0015860Y0063120D03*
X0024130Y0063120D03*
X0024130Y0074370D03*
X0015860Y0074370D03*
X0015860Y0085620D03*
X0024130Y0085620D03*
X0031250Y0082110D03*
X0031250Y0090380D03*
X0041250Y0090380D03*
X0041250Y0082110D03*
X0060860Y0063750D03*
X0060860Y0055620D03*
X0060860Y0047500D03*
X0060860Y0039370D03*
X0069130Y0039370D03*
X0069130Y0047500D03*
X0069130Y0055620D03*
X0069130Y0063750D03*
D19*
G36*
X0058860Y0068120D02*
X0056870Y0072390D01*
X0061140Y0074380D01*
X0063130Y0070110D01*
X0058860Y0068120D01*
G37*
G36*
X0056450Y0074370D02*
X0053120Y0077700D01*
X0056450Y0081030D01*
X0059780Y0077700D01*
X0056450Y0074370D01*
G37*
G36*
X0051840Y0078740D02*
X0047290Y0079970D01*
X0048520Y0084520D01*
X0053070Y0083290D01*
X0051840Y0078740D01*
G37*
G36*
X0053980Y0086720D02*
X0049430Y0087950D01*
X0050660Y0092500D01*
X0055210Y0091270D01*
X0053980Y0086720D01*
G37*
G36*
X0062290Y0080210D02*
X0058960Y0083540D01*
X0062290Y0086870D01*
X0065620Y0083540D01*
X0062290Y0080210D01*
G37*
G36*
X0066350Y0071610D02*
X0064360Y0075880D01*
X0068630Y0077870D01*
X0070620Y0073600D01*
X0066350Y0071610D01*
G37*
G36*
X0056710Y0031600D02*
X0058700Y0035870D01*
X0062970Y0033880D01*
X0060980Y0029610D01*
X0056710Y0031600D01*
G37*
G36*
X0051870Y0026670D02*
X0055200Y0030000D01*
X0058530Y0026670D01*
X0055200Y0023340D01*
X0051870Y0026670D01*
G37*
G36*
X0046800Y0024180D02*
X0051070Y0026170D01*
X0053060Y0021900D01*
X0048790Y0019910D01*
X0046800Y0024180D01*
G37*
G36*
X0050290Y0016690D02*
X0054560Y0018680D01*
X0056550Y0014410D01*
X0052280Y0012420D01*
X0050290Y0016690D01*
G37*
G36*
X0057710Y0020820D02*
X0061040Y0024150D01*
X0064370Y0020820D01*
X0061040Y0017490D01*
X0057710Y0020820D01*
G37*
G36*
X0064210Y0028110D02*
X0066200Y0032380D01*
X0070470Y0030390D01*
X0068480Y0026120D01*
X0064210Y0028110D01*
G37*
D10*
X0063750Y0022500D03*
X0059370Y0017500D03*
X0034370Y0013750D03*
X0028120Y0013750D03*
X0015000Y0015000D03*
X0015000Y0022500D03*
X0024370Y0037500D03*
X0024370Y0043750D03*
X0024370Y0071250D03*
X0024370Y0077500D03*
X0038120Y0091250D03*
X0044370Y0091250D03*
X0067500Y0078120D03*
X0070620Y0072500D03*
X0069370Y0050620D03*
X0069370Y0044370D03*
D16*
X0069370Y0047260D01*
X0069130Y0047500D01*
X0069370Y0047740D01*
X0069370Y0050620D01*
X0069130Y0055620D02*
X0061010Y0047500D01*
X0060860Y0047500D01*
X0060860Y0055620D02*
X0061010Y0055620D01*
X0069130Y0063750D01*
X0064370Y0063750D02*
X0060860Y0063750D01*
X0060000Y0071250D02*
X0060000Y0071250D01*
X0060000Y0075000D01*
X0062290Y0077290D01*
X0062290Y0083540D01*
X0067500Y0078120D02*
X0067500Y0074750D01*
X0067490Y0074740D01*
X0069740Y0072500D01*
X0070620Y0072500D01*
X0056450Y0077700D02*
X0055000Y0079150D01*
X0055000Y0085000D01*
X0052320Y0087680D01*
X0052320Y0089610D01*
X0048680Y0083120D02*
X0046870Y0083120D01*
X0048680Y0083120D02*
X0050180Y0081630D01*
X0041250Y0082110D02*
X0032980Y0090380D01*
X0031250Y0090380D01*
X0027740Y0085620D02*
X0031250Y0082110D01*
X0027740Y0085620D02*
X0024130Y0085620D01*
X0019370Y0085620D02*
X0015860Y0085620D01*
X0024370Y0077500D02*
X0024370Y0074610D01*
X0024130Y0074370D01*
X0024370Y0074130D01*
X0024370Y0071250D01*
X0024130Y0063120D02*
X0015860Y0071390D01*
X0015860Y0074370D01*
X0015860Y0063120D02*
X0015860Y0060140D01*
X0024130Y0051870D01*
X0019370Y0051870D02*
X0015860Y0051870D01*
X0024370Y0043750D02*
X0024370Y0041490D01*
X0023510Y0040620D01*
X0024370Y0039760D01*
X0024370Y0037500D01*
X0023510Y0029370D02*
X0015240Y0037640D01*
X0015240Y0040620D01*
X0015240Y0029370D02*
X0015240Y0027640D01*
X0024130Y0018750D01*
X0028120Y0013750D02*
X0030380Y0013750D01*
X0031250Y0014610D01*
X0032110Y0013750D01*
X0034370Y0013750D01*
X0041250Y0014610D02*
X0032980Y0022880D01*
X0031250Y0022880D01*
X0041250Y0022880D02*
X0044610Y0022880D01*
X0046250Y0021250D01*
X0046250Y0017500D01*
X0048750Y0015000D01*
X0052870Y0015000D01*
X0053420Y0015550D01*
X0051250Y0020000D02*
X0049930Y0021320D01*
X0049930Y0023040D01*
X0055200Y0026670D02*
X0064760Y0026670D01*
X0067340Y0029250D01*
X0062500Y0032740D02*
X0069130Y0039370D01*
X0064370Y0039370D02*
X0060860Y0039370D01*
X0059840Y0032740D02*
X0062500Y0032740D01*
X0062720Y0022500D02*
X0061040Y0020820D01*
X0059370Y0019150D01*
X0059370Y0017500D01*
X0062720Y0022500D02*
X0063750Y0022500D01*
X0015860Y0022500D02*
X0015860Y0018750D01*
X0015860Y0015000D01*
X0015000Y0015000D01*
X0015000Y0022500D02*
X0015860Y0022500D01*
X0041250Y0090380D02*
X0040380Y0091250D01*
X0038120Y0091250D01*
X0041250Y0090380D02*
X0042110Y0091250D01*
X0044370Y0091250D01*
D14*
X0046870Y0083120D03*
X0064370Y0063750D03*
X0064370Y0039370D03*
X0051250Y0020000D03*
X0019370Y0051870D03*
X0019370Y0085620D03*
X0082500Y0010000D02*
G75*
%LPD*%
D17*
X0082500Y0010000D02*
X0082500Y0095000D01*
X0147500Y0095000D01*
X0147500Y0010000D01*
X0082500Y0010000D01*
D19*
X0108120Y0014610D03*
X0115000Y0014610D03*
X0121870Y0014610D03*
X0121870Y0022880D03*
X0115000Y0022880D03*
X0108120Y0022880D03*
X0096630Y0037500D03*
X0096630Y0045000D03*
X0096630Y0052500D03*
X0096630Y0060000D03*
X0096630Y0067500D03*
X0088360Y0067500D03*
X0088360Y0060000D03*
X0088360Y0052500D03*
X0088360Y0045000D03*
X0088360Y0037500D03*
X0108120Y0082110D03*
X0115000Y0082110D03*
X0121870Y0082110D03*
X0121870Y0090380D03*
X0115000Y0090380D03*
X0108120Y0090380D03*
X0133360Y0067500D03*
X0133360Y0060000D03*
X0133360Y0052500D03*
X0133360Y0045000D03*
X0133360Y0037500D03*
X0141630Y0037500D03*
X0141630Y0045000D03*
X0141630Y0052500D03*
X0141630Y0060000D03*
X0141630Y0067500D03*
D19*
G36*
X0131810Y0070960D02*
X0129450Y0075040D01*
X0133530Y0077400D01*
X0135890Y0073320D01*
X0131810Y0070960D01*
G37*
G36*
X0129410Y0076320D02*
X0125330Y0078680D01*
X0127690Y0082760D01*
X0131770Y0080400D01*
X0129410Y0076320D01*
G37*
G36*
X0138970Y0075090D02*
X0136610Y0079170D01*
X0140690Y0081530D01*
X0143050Y0077450D01*
X0138970Y0075090D01*
G37*
G36*
X0133550Y0083480D02*
X0129470Y0085840D01*
X0131830Y0089920D01*
X0135910Y0087560D01*
X0133550Y0083480D01*
G37*
G36*
X0104660Y0078680D02*
X0100580Y0076320D01*
X0098220Y0080400D01*
X0102300Y0082760D01*
X0104660Y0078680D01*
G37*
G36*
X0100550Y0075040D02*
X0098190Y0070960D01*
X0094110Y0073320D01*
X0096470Y0077400D01*
X0100550Y0075040D01*
G37*
G36*
X0093390Y0079170D02*
X0091030Y0075090D01*
X0086950Y0077450D01*
X0089310Y0081530D01*
X0093390Y0079170D01*
G37*
G36*
X0100520Y0085840D02*
X0096440Y0083480D01*
X0094080Y0087560D01*
X0098160Y0089920D01*
X0100520Y0085840D01*
G37*
G36*
X0098190Y0033410D02*
X0100550Y0029330D01*
X0096470Y0026970D01*
X0094110Y0031050D01*
X0098190Y0033410D01*
G37*
G36*
X0100580Y0028050D02*
X0104660Y0025690D01*
X0102300Y0021610D01*
X0098220Y0023970D01*
X0100580Y0028050D01*
G37*
G36*
X0096440Y0020890D02*
X0100520Y0018530D01*
X0098160Y0014450D01*
X0094080Y0016810D01*
X0096440Y0020890D01*
G37*
G36*
X0091030Y0029270D02*
X0093390Y0025190D01*
X0089310Y0022830D01*
X0086950Y0026910D01*
X0091030Y0029270D01*
G37*
G36*
X0125330Y0025690D02*
X0129410Y0028050D01*
X0131770Y0023970D01*
X0127690Y0021610D01*
X0125330Y0025690D01*
G37*
G36*
X0129450Y0029330D02*
X0131810Y0033410D01*
X0135890Y0031050D01*
X0133530Y0026970D01*
X0129450Y0029330D01*
G37*
G36*
X0136610Y0025190D02*
X0138970Y0029270D01*
X0143050Y0026910D01*
X0140690Y0022830D01*
X0136610Y0025190D01*
G37*
G36*
X0129470Y0018530D02*
X0133550Y0020890D01*
X0135910Y0016810D01*
X0131830Y0014450D01*
X0129470Y0018530D01*
G37*
D10*
X0130000Y0015620D03*
X0135620Y0018750D03*
X0144370Y0043120D03*
X0144370Y0046870D03*
X0144370Y0065000D03*
X0144370Y0070620D03*
X0128750Y0090620D03*
X0125000Y0090620D03*
X0100000Y0088750D03*
X0094370Y0085000D03*
X0085620Y0062500D03*
X0085620Y0057500D03*
X0085620Y0039370D03*
X0085620Y0034370D03*
X0103120Y0028120D03*
X0106250Y0028120D03*
X0105000Y0013750D03*
X0101250Y0013750D03*
D16*
X0105000Y0013750D01*
X0105860Y0014610D01*
X0108120Y0014610D01*
X0108120Y0021490D02*
X0115000Y0014610D01*
X0121870Y0014610D02*
X0115000Y0021490D01*
X0115000Y0022880D01*
X0108120Y0022880D02*
X0108120Y0021490D01*
X0106250Y0028120D02*
X0103120Y0028120D01*
X0103120Y0026510D01*
X0101440Y0024830D01*
X0097330Y0026080D02*
X0096250Y0025000D01*
X0096250Y0018720D01*
X0097300Y0017670D01*
X0097330Y0026080D02*
X0097330Y0030190D01*
X0090170Y0031030D02*
X0096630Y0037500D01*
X0090170Y0031030D02*
X0090170Y0026050D01*
X0085620Y0034370D02*
X0085620Y0034760D01*
X0088360Y0037500D01*
X0086490Y0039370D01*
X0085620Y0039370D01*
X0088360Y0045000D02*
X0089130Y0045000D01*
X0096630Y0052500D01*
X0089130Y0052500D02*
X0096630Y0060000D01*
X0096630Y0067500D02*
X0093120Y0067500D01*
X0088360Y0067500D02*
X0095050Y0074180D01*
X0097330Y0074180D01*
X0101440Y0079540D02*
X0091390Y0079540D01*
X0090170Y0078310D01*
X0094370Y0085000D02*
X0095600Y0085000D01*
X0097300Y0086700D01*
X0099350Y0088750D01*
X0100000Y0088750D01*
X0108120Y0088990D02*
X0109760Y0088990D01*
X0115000Y0083750D01*
X0115000Y0082110D01*
X0121870Y0082110D02*
X0115000Y0088990D01*
X0115000Y0090380D01*
X0108120Y0090380D02*
X0108120Y0088990D01*
X0108120Y0085620D02*
X0108120Y0082110D01*
X0121870Y0090380D02*
X0122110Y0090620D01*
X0125000Y0090620D01*
X0128750Y0090620D01*
X0132690Y0086700D02*
X0132690Y0084800D01*
X0135000Y0082500D01*
X0135000Y0076510D01*
X0132670Y0074180D01*
X0128550Y0079540D02*
X0128550Y0080430D01*
X0130620Y0082500D01*
X0139830Y0078310D02*
X0140000Y0078140D01*
X0140000Y0073750D01*
X0133750Y0067500D01*
X0133360Y0067500D01*
X0133360Y0060000D02*
X0136870Y0060000D01*
X0141630Y0060000D02*
X0134130Y0052500D01*
X0133360Y0052500D01*
X0140860Y0052500D02*
X0133360Y0045000D01*
X0133360Y0037500D02*
X0136870Y0037500D01*
X0141630Y0037500D02*
X0134320Y0030190D01*
X0132670Y0030190D01*
X0128550Y0024830D02*
X0138600Y0024830D01*
X0139830Y0026050D01*
X0135620Y0018750D02*
X0133770Y0018750D01*
X0132690Y0017670D01*
X0130640Y0015620D01*
X0130000Y0015620D01*
X0121870Y0019370D02*
X0121870Y0022880D01*
X0143510Y0043120D02*
X0141630Y0045000D01*
X0143510Y0046870D01*
X0144370Y0046870D01*
X0144370Y0043120D02*
X0143510Y0043120D01*
X0141630Y0052500D02*
X0140860Y0052500D01*
X0144130Y0065000D02*
X0141630Y0067500D01*
X0144370Y0070240D01*
X0144370Y0070620D01*
X0144370Y0065000D02*
X0144130Y0065000D01*
X0096630Y0045000D02*
X0093120Y0045000D01*
X0089130Y0052500D02*
X0088360Y0052500D01*
X0085860Y0057500D02*
X0085620Y0057500D01*
X0085860Y0057500D02*
X0088360Y0060000D01*
X0085860Y0062500D01*
X0085620Y0062500D01*
D14*
X0093120Y0067500D03*
X0108120Y0085620D03*
X0130620Y0082500D03*
X0136870Y0060000D03*
X0136870Y0037500D03*
X0121870Y0019370D03*
X0093120Y0045000D03*
X0155000Y0010000D02*
G75*
%LPD*%
D17*
X0155000Y0010000D02*
X0155000Y0095000D01*
X0220000Y0095000D01*
X0220000Y0010000D01*
X0155000Y0010000D01*
D19*
X0160860Y0018750D03*
X0169130Y0018750D03*
X0176250Y0022880D03*
X0176250Y0014610D03*
X0186250Y0014610D03*
X0186250Y0022880D03*
X0168510Y0029370D03*
X0160240Y0029370D03*
X0160240Y0040620D03*
X0168510Y0040620D03*
X0169130Y0051870D03*
X0160860Y0051870D03*
X0160860Y0063120D03*
X0169130Y0063120D03*
X0169130Y0074370D03*
X0160860Y0074370D03*
X0160860Y0085620D03*
X0169130Y0085620D03*
X0176250Y0082110D03*
X0176250Y0090380D03*
X0186250Y0090380D03*
X0186250Y0082110D03*
X0205860Y0063750D03*
X0205860Y0055620D03*
X0205860Y0047500D03*
X0205860Y0039370D03*
X0214130Y0039370D03*
X0214130Y0047500D03*
X0214130Y0055620D03*
X0214130Y0063750D03*
D19*
G36*
X0203860Y0068120D02*
X0201870Y0072390D01*
X0206140Y0074380D01*
X0208130Y0070110D01*
X0203860Y0068120D01*
G37*
G36*
X0201450Y0074370D02*
X0198120Y0077700D01*
X0201450Y0081030D01*
X0204780Y0077700D01*
X0201450Y0074370D01*
G37*
G36*
X0196840Y0078740D02*
X0192290Y0079970D01*
X0193520Y0084520D01*
X0198070Y0083290D01*
X0196840Y0078740D01*
G37*
G36*
X0198980Y0086720D02*
X0194430Y0087950D01*
X0195660Y0092500D01*
X0200210Y0091270D01*
X0198980Y0086720D01*
G37*
G36*
X0207290Y0080210D02*
X0203960Y0083540D01*
X0207290Y0086870D01*
X0210620Y0083540D01*
X0207290Y0080210D01*
G37*
G36*
X0211350Y0071610D02*
X0209360Y0075880D01*
X0213630Y0077870D01*
X0215620Y0073600D01*
X0211350Y0071610D01*
G37*
G36*
X0201710Y0031600D02*
X0203700Y0035870D01*
X0207970Y0033880D01*
X0205980Y0029610D01*
X0201710Y0031600D01*
G37*
G36*
X0196870Y0026670D02*
X0200200Y0030000D01*
X0203530Y0026670D01*
X0200200Y0023340D01*
X0196870Y0026670D01*
G37*
G36*
X0191800Y0024180D02*
X0196070Y0026170D01*
X0198060Y0021900D01*
X0193790Y0019910D01*
X0191800Y0024180D01*
G37*
G36*
X0195290Y0016690D02*
X0199560Y0018680D01*
X0201550Y0014410D01*
X0197280Y0012420D01*
X0195290Y0016690D01*
G37*
G36*
X0202710Y0020820D02*
X0206040Y0024150D01*
X0209370Y0020820D01*
X0206040Y0017490D01*
X0202710Y0020820D01*
G37*
G36*
X0209210Y0028110D02*
X0211200Y0032380D01*
X0215470Y0030390D01*
X0213480Y0026120D01*
X0209210Y0028110D01*
G37*
D10*
X0208750Y0022500D03*
X0204370Y0017500D03*
X0179370Y0013750D03*
X0173120Y0013750D03*
X0160000Y0015000D03*
X0160000Y0022500D03*
X0169370Y0037500D03*
X0169370Y0043750D03*
X0169370Y0071250D03*
X0169370Y0077500D03*
X0183120Y0091250D03*
X0189370Y0091250D03*
X0212500Y0078120D03*
X0215620Y0072500D03*
X0214370Y0050620D03*
X0214370Y0044370D03*
D16*
X0214370Y0047260D01*
X0214130Y0047500D01*
X0214370Y0047740D01*
X0214370Y0050620D01*
X0214130Y0055620D02*
X0206010Y0047500D01*
X0205860Y0047500D01*
X0205860Y0055620D02*
X0206010Y0055620D01*
X0214130Y0063750D01*
X0209370Y0063750D02*
X0205860Y0063750D01*
X0205000Y0071250D02*
X0205000Y0071250D01*
X0205000Y0075000D01*
X0207290Y0077290D01*
X0207290Y0083540D01*
X0212500Y0078120D02*
X0212500Y0074750D01*
X0212490Y0074740D01*
X0214740Y0072500D01*
X0215620Y0072500D01*
X0201450Y0077700D02*
X0200000Y0079150D01*
X0200000Y0085000D01*
X0197320Y0087680D01*
X0197320Y0089610D01*
X0193680Y0083120D02*
X0191870Y0083120D01*
X0193680Y0083120D02*
X0195180Y0081630D01*
X0186250Y0082110D02*
X0177980Y0090380D01*
X0176250Y0090380D01*
X0172740Y0085620D02*
X0176250Y0082110D01*
X0172740Y0085620D02*
X0169130Y0085620D01*
X0164370Y0085620D02*
X0160860Y0085620D01*
X0169370Y0077500D02*
X0169370Y0074610D01*
X0169130Y0074370D01*
X0169370Y0074130D01*
X0169370Y0071250D01*
X0169130Y0063120D02*
X0160860Y0071390D01*
X0160860Y0074370D01*
X0160860Y0063120D02*
X0160860Y0060140D01*
X0169130Y0051870D01*
X0164370Y0051870D02*
X0160860Y0051870D01*
X0169370Y0043750D02*
X0169370Y0041490D01*
X0168510Y0040620D01*
X0169370Y0039760D01*
X0169370Y0037500D01*
X0168510Y0029370D02*
X0160240Y0037640D01*
X0160240Y0040620D01*
X0160240Y0029370D02*
X0160240Y0027640D01*
X0169130Y0018750D01*
X0173120Y0013750D02*
X0175380Y0013750D01*
X0176250Y0014610D01*
X0177110Y0013750D01*
X0179370Y0013750D01*
X0186250Y0014610D02*
X0177980Y0022880D01*
X0176250Y0022880D01*
X0186250Y0022880D02*
X0189610Y0022880D01*
X0191250Y0021250D01*
X0191250Y0017500D01*
X0193750Y0015000D01*
X0197870Y0015000D01*
X0198420Y0015550D01*
X0196250Y0020000D02*
X0194930Y0021320D01*
X0194930Y0023040D01*
X0200200Y0026670D02*
X0209760Y0026670D01*
X0212340Y0029250D01*
X0207500Y0032740D02*
X0214130Y0039370D01*
X0209370Y0039370D02*
X0205860Y0039370D01*
X0204840Y0032740D02*
X0207500Y0032740D01*
X0207720Y0022500D02*
X0206040Y0020820D01*
X0204370Y0019150D01*
X0204370Y0017500D01*
X0207720Y0022500D02*
X0208750Y0022500D01*
X0160860Y0022500D02*
X0160860Y0018750D01*
X0160860Y0015000D01*
X0160000Y0015000D01*
X0160000Y0022500D02*
X0160860Y0022500D01*
X0186250Y0090380D02*
X0185380Y0091250D01*
X0183120Y0091250D01*
X0186250Y0090380D02*
X0187110Y0091250D01*
X0189370Y0091250D01*
D14*
X0191870Y0083120D03*
X0209370Y0063750D03*
X0209370Y0039370D03*
X0196250Y0020000D03*
X0164370Y0051870D03*
X0164370Y0085620D03*
X0227500Y0010000D02*
G75*
%LPD*%
D17*
X0227500Y0010000D02*
X0227500Y0095000D01*
X0292500Y0095000D01*
X0292500Y0010000D01*
X0227500Y0010000D01*
D19*
X0233360Y0037500D03*
X0233360Y0045000D03*
X0233360Y0052500D03*
X0233360Y0060000D03*
X0233360Y0067500D03*
X0241630Y0067500D03*
X0241630Y0060000D03*
X0241630Y0052500D03*
X0241630Y0045000D03*
X0241630Y0037500D03*
X0254370Y0022880D03*
X0261870Y0022880D03*
X0269370Y0022880D03*
X0269370Y0014610D03*
X0261870Y0014610D03*
X0254370Y0014610D03*
X0278360Y0041250D03*
X0281870Y0047740D03*
X0286630Y0041250D03*
X0274370Y0047870D03*
X0266250Y0048360D03*
X0258120Y0048360D03*
X0258120Y0056630D03*
X0266250Y0056630D03*
X0274370Y0056140D03*
X0281870Y0056010D03*
X0266870Y0082110D03*
X0260000Y0082110D03*
X0253120Y0082110D03*
X0253120Y0090380D03*
X0260000Y0090380D03*
X0266870Y0090380D03*
D19*
G36*
X0276200Y0089920D02*
X0280280Y0087560D01*
X0277920Y0083480D01*
X0273840Y0085840D01*
X0276200Y0089920D01*
G37*
G36*
X0272070Y0082760D02*
X0276150Y0080400D01*
X0273790Y0076320D01*
X0269710Y0078680D01*
X0272070Y0082760D01*
G37*
G36*
X0278530Y0077400D02*
X0280890Y0073320D01*
X0276810Y0070960D01*
X0274450Y0075040D01*
X0278530Y0077400D01*
G37*
G36*
X0285690Y0081530D02*
X0288050Y0077450D01*
X0283970Y0075090D01*
X0281610Y0079170D01*
X0285690Y0081530D01*
G37*
G36*
X0243840Y0080400D02*
X0247920Y0082760D01*
X0250280Y0078680D01*
X0246200Y0076320D01*
X0243840Y0080400D01*
G37*
G36*
X0239110Y0073320D02*
X0241470Y0077400D01*
X0245550Y0075040D01*
X0243190Y0070960D01*
X0239110Y0073320D01*
G37*
G36*
X0231950Y0077450D02*
X0234310Y0081530D01*
X0238390Y0079170D01*
X0236030Y0075090D01*
X0231950Y0077450D01*
G37*
G36*
X0239710Y0087560D02*
X0243790Y0089920D01*
X0246150Y0085840D01*
X0242070Y0083480D01*
X0239710Y0087560D01*
G37*
G36*
X0280300Y0035160D02*
X0279070Y0030610D01*
X0274520Y0031840D01*
X0275750Y0036390D01*
X0280300Y0035160D01*
G37*
G36*
X0288280Y0033020D02*
X0287050Y0028470D01*
X0282500Y0029700D01*
X0283730Y0034250D01*
X0288280Y0033020D01*
G37*
G36*
X0283660Y0020920D02*
X0280330Y0017590D01*
X0277000Y0020920D01*
X0280330Y0024250D01*
X0283660Y0020920D01*
G37*
G36*
X0277820Y0026770D02*
X0274490Y0023440D01*
X0271160Y0026770D01*
X0274490Y0030100D01*
X0277820Y0026770D01*
G37*
G36*
X0247920Y0022230D02*
X0243840Y0024590D01*
X0246200Y0028670D01*
X0250280Y0026310D01*
X0247920Y0022230D01*
G37*
G36*
X0243790Y0015070D02*
X0239710Y0017430D01*
X0242070Y0021510D01*
X0246150Y0019150D01*
X0243790Y0015070D01*
G37*
G36*
X0234310Y0022830D02*
X0231950Y0026910D01*
X0236030Y0029270D01*
X0238390Y0025190D01*
X0234310Y0022830D01*
G37*
G36*
X0241470Y0026970D02*
X0239110Y0031050D01*
X0243190Y0033410D01*
X0245550Y0029330D01*
X0241470Y0026970D01*
G37*
D10*
X0242500Y0021870D03*
X0246250Y0020000D03*
X0253120Y0026250D03*
X0256870Y0026250D03*
X0269370Y0028120D03*
X0272500Y0030000D03*
X0279370Y0050620D03*
X0285000Y0050620D03*
X0260620Y0051250D03*
X0255620Y0051250D03*
X0238750Y0058120D03*
X0238750Y0062500D03*
X0243750Y0080620D03*
X0247500Y0083120D03*
X0265000Y0085000D03*
X0269370Y0085000D03*
X0238750Y0040000D03*
X0238750Y0035620D03*
D16*
X0239760Y0035620D01*
X0241630Y0037500D01*
X0239130Y0040000D01*
X0238750Y0040000D01*
X0236870Y0045000D02*
X0233360Y0045000D01*
X0240860Y0045000D02*
X0233360Y0052500D01*
X0234370Y0057500D02*
X0234370Y0058990D01*
X0233360Y0060000D01*
X0234370Y0057500D02*
X0239370Y0052500D01*
X0241630Y0052500D01*
X0239760Y0058120D02*
X0238750Y0058120D01*
X0239760Y0058120D02*
X0241630Y0060000D01*
X0239130Y0062500D01*
X0238750Y0062500D01*
X0236870Y0067500D02*
X0233360Y0067500D01*
X0235000Y0074370D02*
X0235000Y0078140D01*
X0235170Y0078310D01*
X0235000Y0074370D02*
X0241630Y0067740D01*
X0241630Y0067500D01*
X0242330Y0074180D02*
X0240000Y0076510D01*
X0240000Y0083750D01*
X0242930Y0086680D01*
X0242930Y0086700D01*
X0247500Y0083120D02*
X0247500Y0079970D01*
X0247060Y0079540D01*
X0245980Y0080620D01*
X0243750Y0080620D01*
X0253120Y0082110D02*
X0260000Y0088990D01*
X0260000Y0090380D01*
X0264370Y0088750D02*
X0260000Y0084370D01*
X0260000Y0082110D01*
X0265000Y0083990D02*
X0266870Y0082110D01*
X0269370Y0084610D01*
X0269370Y0085000D01*
X0265240Y0088750D02*
X0266870Y0090380D01*
X0265240Y0088750D02*
X0264370Y0088750D01*
X0265000Y0085000D02*
X0265000Y0083990D01*
X0272930Y0079540D02*
X0283600Y0079540D01*
X0284830Y0078310D01*
X0280620Y0075620D02*
X0279180Y0074180D01*
X0277670Y0074180D01*
X0275620Y0083750D02*
X0277060Y0085190D01*
X0277060Y0086700D01*
X0253120Y0086870D02*
X0253120Y0090380D01*
X0253120Y0083510D02*
X0253120Y0082110D01*
X0258120Y0056630D02*
X0260860Y0056630D01*
X0261250Y0056250D01*
X0260620Y0051250D02*
X0260620Y0050860D01*
X0258120Y0048360D01*
X0255620Y0050860D01*
X0255620Y0051250D01*
X0266250Y0048360D02*
X0266590Y0048360D01*
X0274370Y0056140D01*
X0269370Y0056250D02*
X0268990Y0056630D01*
X0266250Y0056630D01*
X0274370Y0049990D02*
X0279370Y0055000D01*
X0280860Y0055000D01*
X0281870Y0056010D01*
X0279370Y0050620D02*
X0279370Y0050240D01*
X0281870Y0047740D01*
X0284760Y0050620D01*
X0285000Y0050620D01*
X0286630Y0041250D02*
X0283120Y0041250D01*
X0279020Y0041250D02*
X0278360Y0041250D01*
X0285390Y0034220D01*
X0285390Y0031360D01*
X0280330Y0030570D02*
X0277410Y0033500D01*
X0280330Y0030570D02*
X0280330Y0020920D01*
X0274490Y0026770D02*
X0274490Y0028010D01*
X0272500Y0030000D01*
X0271250Y0030000D01*
X0269370Y0028120D01*
X0269370Y0022880D02*
X0269370Y0022110D01*
X0261870Y0014610D01*
X0261870Y0022110D02*
X0254370Y0014610D01*
X0254370Y0022880D02*
X0254370Y0025000D01*
X0253120Y0026250D01*
X0256870Y0026250D01*
X0261870Y0022880D02*
X0261870Y0022110D01*
X0269370Y0018120D02*
X0269370Y0014610D01*
X0246250Y0020000D02*
X0244540Y0018290D01*
X0242930Y0018290D01*
X0242500Y0018720D01*
X0242500Y0021870D01*
X0246610Y0025000D02*
X0247060Y0025450D01*
X0246610Y0025000D02*
X0235000Y0025000D01*
X0234560Y0026050D01*
X0235170Y0026050D01*
X0236250Y0032500D02*
X0240020Y0032500D01*
X0242330Y0030190D01*
X0236250Y0032500D02*
X0233360Y0035380D01*
X0233360Y0037500D01*
X0240860Y0045000D02*
X0241630Y0045000D01*
X0274370Y0047870D02*
X0274370Y0049990D01*
D14*
X0269370Y0056250D03*
X0261250Y0056250D03*
X0280620Y0075620D03*
X0275620Y0083750D03*
X0253120Y0086870D03*
X0236870Y0067500D03*
X0236870Y0045000D03*
X0269370Y0018120D03*
X0283120Y0041250D03*
X0300000Y0010000D02*
G75*
%LPD*%
D17*
X0300000Y0010000D02*
X0300000Y0095000D01*
X0365000Y0095000D01*
X0365000Y0010000D01*
X0300000Y0010000D01*
D19*
X0311250Y0014610D03*
X0311250Y0022880D03*
X0314130Y0030000D03*
X0314130Y0037500D03*
X0314130Y0045000D03*
X0314130Y0052500D03*
X0316490Y0052500D03*
X0314130Y0060000D03*
X0314130Y0067500D03*
X0314130Y0075000D03*
X0310000Y0082110D03*
X0305860Y0075000D03*
X0305860Y0067500D03*
X0305860Y0060000D03*
X0305860Y0052500D03*
X0305860Y0045000D03*
X0305860Y0037500D03*
X0305860Y0030000D03*
X0320000Y0022880D03*
X0320000Y0014610D03*
X0328750Y0014610D03*
X0328750Y0022880D03*
X0337500Y0022880D03*
X0337500Y0014610D03*
X0346250Y0014610D03*
X0346250Y0022880D03*
X0355000Y0022880D03*
X0355000Y0014610D03*
X0334760Y0052500D03*
X0326490Y0052500D03*
X0324760Y0052500D03*
X0327500Y0082110D03*
X0327500Y0090380D03*
X0318750Y0090380D03*
X0318750Y0082110D03*
X0310000Y0090380D03*
X0336250Y0090380D03*
X0336250Y0082110D03*
X0345000Y0082110D03*
X0345000Y0090380D03*
X0353750Y0090380D03*
X0353750Y0082110D03*
D10*
X0356870Y0090620D03*
X0350620Y0090620D03*
X0330620Y0090620D03*
X0325000Y0090620D03*
X0317500Y0076870D03*
X0317500Y0073120D03*
X0335620Y0055620D03*
X0335620Y0049370D03*
X0317500Y0046870D03*
X0317500Y0043120D03*
X0314370Y0023120D03*
X0308120Y0023120D03*
X0334370Y0022500D03*
X0340620Y0022500D03*
X0351870Y0014370D03*
X0358120Y0014370D03*
D16*
X0355240Y0014370D01*
X0355000Y0014610D01*
X0354760Y0014370D01*
X0351870Y0014370D01*
X0346730Y0014610D02*
X0355000Y0022880D01*
X0346250Y0022880D02*
X0337980Y0014610D01*
X0337500Y0014610D01*
X0337880Y0022500D02*
X0337500Y0022880D01*
X0337110Y0022500D01*
X0334370Y0022500D01*
X0337880Y0022500D02*
X0340620Y0022500D01*
X0346250Y0014610D02*
X0346730Y0014610D01*
X0328750Y0014610D02*
X0328750Y0017500D01*
X0328750Y0022880D02*
X0320480Y0014610D01*
X0320000Y0014610D01*
X0311730Y0014610D02*
X0320000Y0022880D01*
X0314370Y0023120D02*
X0311490Y0023120D01*
X0311250Y0022880D01*
X0311010Y0023120D01*
X0308120Y0023120D01*
X0308750Y0030000D02*
X0305860Y0030000D01*
X0305860Y0037500D02*
X0306630Y0037500D01*
X0314130Y0030000D01*
X0314130Y0037500D02*
X0306630Y0045000D01*
X0305860Y0045000D01*
X0305860Y0052500D02*
X0305860Y0060000D01*
X0308750Y0060000D01*
X0314130Y0060000D02*
X0306630Y0067500D01*
X0305860Y0067500D01*
X0305860Y0075000D02*
X0306630Y0075000D01*
X0314130Y0067500D01*
X0316010Y0073120D02*
X0314130Y0075000D01*
X0316010Y0073120D02*
X0317500Y0073120D01*
X0317500Y0076870D01*
X0318750Y0082110D02*
X0310480Y0090380D01*
X0310000Y0090380D01*
X0310000Y0085000D02*
X0310000Y0082110D01*
X0318750Y0090380D02*
X0319230Y0090380D01*
X0327500Y0082110D01*
X0327500Y0090380D02*
X0327740Y0090620D01*
X0330620Y0090620D01*
X0327500Y0090380D02*
X0327260Y0090620D01*
X0325000Y0090620D01*
X0336250Y0090380D02*
X0336730Y0090380D01*
X0345000Y0082110D01*
X0345000Y0090380D02*
X0345480Y0090380D01*
X0353750Y0082110D01*
X0353750Y0090380D02*
X0353990Y0090620D01*
X0356870Y0090620D01*
X0353750Y0090380D02*
X0353510Y0090620D01*
X0350620Y0090620D01*
X0336250Y0085000D02*
X0336250Y0082110D01*
X0335620Y0055620D02*
X0335620Y0049370D01*
X0334760Y0052500D02*
X0335620Y0053360D01*
X0335620Y0055620D01*
X0326490Y0052500D02*
X0324760Y0052500D01*
X0317500Y0046870D02*
X0317500Y0043120D01*
X0316010Y0043120D01*
X0314130Y0045000D01*
X0314130Y0052500D02*
X0316490Y0052500D01*
X0311730Y0014610D02*
X0311250Y0014610D01*
D14*
X0308750Y0030000D03*
X0328750Y0017500D03*
X0308750Y0060000D03*
X0310000Y0085000D03*
X0336250Y0085000D03*
X0010000Y0102500D02*
G75*
%LPD*%
D17*
X0010000Y0102500D02*
X0010000Y0187500D01*
X0075000Y0187500D01*
X0075000Y0102500D01*
X0010000Y0102500D01*
D19*
X0021250Y0107110D03*
X0021250Y0115380D03*
X0024130Y0122500D03*
X0024130Y0130000D03*
X0024130Y0137500D03*
X0024130Y0145000D03*
X0026490Y0145000D03*
X0024130Y0152500D03*
X0024130Y0160000D03*
X0024130Y0167500D03*
X0020000Y0174610D03*
X0015860Y0167500D03*
X0015860Y0160000D03*
X0015860Y0152500D03*
X0015860Y0145000D03*
X0015860Y0137500D03*
X0015860Y0130000D03*
X0015860Y0122500D03*
X0030000Y0115380D03*
X0030000Y0107110D03*
X0038750Y0107110D03*
X0038750Y0115380D03*
X0047500Y0115380D03*
X0047500Y0107110D03*
X0056250Y0107110D03*
X0056250Y0115380D03*
X0065000Y0115380D03*
X0065000Y0107110D03*
X0044760Y0145000D03*
X0036490Y0145000D03*
X0034760Y0145000D03*
X0037500Y0174610D03*
X0037500Y0182880D03*
X0028750Y0182880D03*
X0028750Y0174610D03*
X0020000Y0182880D03*
X0046250Y0182880D03*
X0046250Y0174610D03*
X0055000Y0174610D03*
X0055000Y0182880D03*
X0063750Y0182880D03*
X0063750Y0174610D03*
D10*
X0066870Y0183120D03*
X0060620Y0183120D03*
X0040620Y0183120D03*
X0035000Y0183120D03*
X0027500Y0169370D03*
X0027500Y0165620D03*
X0045620Y0148120D03*
X0045620Y0141870D03*
X0027500Y0139370D03*
X0027500Y0135620D03*
X0024370Y0115620D03*
X0018120Y0115620D03*
X0044370Y0115000D03*
X0050620Y0115000D03*
X0061870Y0106870D03*
X0068120Y0106870D03*
D16*
X0065240Y0106870D01*
X0065000Y0107110D01*
X0064760Y0106870D01*
X0061870Y0106870D01*
X0056730Y0107110D02*
X0065000Y0115380D01*
X0056250Y0115380D02*
X0047980Y0107110D01*
X0047500Y0107110D01*
X0047880Y0115000D02*
X0047500Y0115380D01*
X0047110Y0115000D01*
X0044370Y0115000D01*
X0047880Y0115000D02*
X0050620Y0115000D01*
X0056250Y0107110D02*
X0056730Y0107110D01*
X0038750Y0107110D02*
X0038750Y0110000D01*
X0038750Y0115380D02*
X0030480Y0107110D01*
X0030000Y0107110D01*
X0021730Y0107110D02*
X0030000Y0115380D01*
X0024370Y0115620D02*
X0021490Y0115620D01*
X0021250Y0115380D01*
X0021010Y0115620D01*
X0018120Y0115620D01*
X0018750Y0122500D02*
X0015860Y0122500D01*
X0015860Y0130000D02*
X0016630Y0130000D01*
X0024130Y0122500D01*
X0024130Y0130000D02*
X0016630Y0137500D01*
X0015860Y0137500D01*
X0015860Y0145000D02*
X0015860Y0152500D01*
X0018750Y0152500D01*
X0024130Y0152500D02*
X0016630Y0160000D01*
X0015860Y0160000D01*
X0015860Y0167500D02*
X0016630Y0167500D01*
X0024130Y0160000D01*
X0026010Y0165620D02*
X0024130Y0167500D01*
X0026010Y0165620D02*
X0027500Y0165620D01*
X0027500Y0169370D01*
X0028750Y0174610D02*
X0020480Y0182880D01*
X0020000Y0182880D01*
X0020000Y0177500D02*
X0020000Y0174610D01*
X0028750Y0182880D02*
X0029230Y0182880D01*
X0037500Y0174610D01*
X0037500Y0182880D02*
X0037740Y0183120D01*
X0040620Y0183120D01*
X0037500Y0182880D02*
X0037260Y0183120D01*
X0035000Y0183120D01*
X0046250Y0182880D02*
X0046730Y0182880D01*
X0055000Y0174610D01*
X0055000Y0182880D02*
X0055480Y0182880D01*
X0063750Y0174610D01*
X0063750Y0182880D02*
X0063990Y0183120D01*
X0066870Y0183120D01*
X0063750Y0182880D02*
X0063510Y0183120D01*
X0060620Y0183120D01*
X0046250Y0177500D02*
X0046250Y0174610D01*
X0045620Y0148120D02*
X0045620Y0141870D01*
X0044760Y0145000D02*
X0045620Y0145860D01*
X0045620Y0148120D01*
X0036490Y0145000D02*
X0034760Y0145000D01*
X0027500Y0139370D02*
X0027500Y0135620D01*
X0026010Y0135620D01*
X0024130Y0137500D01*
X0024130Y0145000D02*
X0026490Y0145000D01*
X0021730Y0107110D02*
X0021250Y0107110D01*
D14*
X0018750Y0122500D03*
X0038750Y0110000D03*
X0018750Y0152500D03*
X0020000Y0177500D03*
X0046250Y0177500D03*
X0082500Y0102500D02*
G75*
%LPD*%
D17*
X0082500Y0102500D02*
X0082500Y0187500D01*
X0147500Y0187500D01*
X0147500Y0102500D01*
X0082500Y0102500D01*
D19*
X0088360Y0109370D03*
X0096630Y0109370D03*
X0096630Y0119370D03*
X0088360Y0119370D03*
X0088360Y0129370D03*
X0096630Y0129370D03*
X0096630Y0139370D03*
X0088360Y0139370D03*
X0088360Y0149370D03*
X0096630Y0149370D03*
X0096630Y0159370D03*
X0088360Y0159370D03*
X0088360Y0169370D03*
X0096630Y0169370D03*
X0102500Y0167740D03*
X0108750Y0168510D03*
X0102500Y0176010D03*
X0096630Y0179370D03*
X0088360Y0179370D03*
X0108750Y0160240D03*
X0115000Y0161010D03*
X0121250Y0160240D03*
X0121250Y0168510D03*
X0127500Y0168360D03*
X0133360Y0169370D03*
X0127500Y0176630D03*
X0133360Y0179370D03*
X0141630Y0179370D03*
X0141630Y0169370D03*
X0141630Y0159370D03*
X0133360Y0159370D03*
X0133360Y0149370D03*
X0141630Y0149370D03*
X0141630Y0139370D03*
X0133360Y0139370D03*
X0133360Y0129370D03*
X0141630Y0129370D03*
X0141630Y0119370D03*
X0133360Y0119370D03*
X0133360Y0109370D03*
X0141630Y0109370D03*
X0115000Y0152740D03*
D10*
X0096250Y0156250D03*
X0096250Y0162500D03*
X0101870Y0179370D03*
X0105620Y0179370D03*
X0118750Y0171870D03*
X0122500Y0171870D03*
X0141250Y0172500D03*
X0141250Y0166250D03*
X0141250Y0142500D03*
X0141250Y0136250D03*
X0141250Y0112500D03*
X0141250Y0106250D03*
X0096250Y0126250D03*
X0096250Y0132500D03*
X0088750Y0112500D03*
X0088750Y0106250D03*
D16*
X0088750Y0108990D01*
X0088360Y0109370D01*
X0088750Y0109760D01*
X0088750Y0112500D01*
X0088360Y0117640D02*
X0096630Y0109370D01*
X0088360Y0117640D02*
X0088360Y0119370D01*
X0088360Y0127640D02*
X0096630Y0119370D01*
X0096250Y0126250D02*
X0096250Y0128990D01*
X0096630Y0129370D01*
X0096250Y0129760D01*
X0096250Y0132500D01*
X0096630Y0139370D02*
X0088360Y0147640D01*
X0088360Y0149370D01*
X0088360Y0157640D02*
X0096630Y0149370D01*
X0096250Y0156250D02*
X0096250Y0158990D01*
X0096630Y0159370D01*
X0096250Y0159760D01*
X0096250Y0162500D01*
X0102500Y0167740D02*
X0102500Y0170000D01*
X0096630Y0175860D01*
X0096630Y0179370D01*
X0101870Y0179370D02*
X0101870Y0176630D01*
X0102500Y0176010D01*
X0105620Y0179130D01*
X0105620Y0179370D01*
X0096630Y0169370D02*
X0088360Y0177640D01*
X0088360Y0179370D01*
X0088360Y0169370D02*
X0091870Y0169370D01*
X0088360Y0159370D02*
X0088360Y0157640D01*
X0088360Y0139370D02*
X0091870Y0139370D01*
X0088360Y0129370D02*
X0088360Y0127640D01*
X0115000Y0152740D02*
X0115000Y0156250D01*
X0115000Y0161010D02*
X0120480Y0161010D01*
X0121250Y0160240D01*
X0121250Y0168510D02*
X0122500Y0169760D01*
X0122500Y0171870D01*
X0121250Y0168510D02*
X0118750Y0171010D01*
X0118750Y0171870D01*
X0127500Y0171870D02*
X0127500Y0168360D01*
X0133360Y0169370D02*
X0133360Y0171100D01*
X0141630Y0179370D01*
X0141250Y0172500D02*
X0141250Y0169760D01*
X0141630Y0169370D01*
X0141250Y0168990D01*
X0141250Y0166250D01*
X0141630Y0159370D02*
X0133360Y0151100D01*
X0133360Y0149370D01*
X0133360Y0141100D02*
X0141630Y0149370D01*
X0141250Y0142500D02*
X0141250Y0139760D01*
X0141630Y0139370D01*
X0141250Y0138990D01*
X0141250Y0136250D01*
X0141630Y0129370D02*
X0133360Y0121100D01*
X0133360Y0119370D01*
X0133360Y0111100D02*
X0141630Y0119370D01*
X0141250Y0112500D02*
X0141250Y0109760D01*
X0141630Y0109370D01*
X0141250Y0108990D01*
X0141250Y0106250D01*
X0133360Y0109370D02*
X0133360Y0111100D01*
X0133360Y0129370D02*
X0136870Y0129370D01*
X0133360Y0139370D02*
X0133360Y0141100D01*
X0133360Y0159370D02*
X0136870Y0159370D01*
X0127500Y0176630D02*
X0130240Y0179370D01*
X0133360Y0179370D01*
X0108750Y0168510D02*
X0108750Y0165000D01*
X0108750Y0160240D02*
X0108750Y0156870D01*
D14*
X0108750Y0156870D03*
X0115000Y0156250D03*
X0108750Y0165000D03*
X0091870Y0169370D03*
X0091870Y0139370D03*
X0127500Y0171870D03*
X0136870Y0159370D03*
X0136870Y0129370D03*
X0010000Y0195000D02*
G75*
%LPD*%
D17*
X0010000Y0195000D02*
X0010000Y0280000D01*
X0075000Y0280000D01*
X0075000Y0195000D01*
X0010000Y0195000D01*
D19*
X0015860Y0203750D03*
X0024130Y0203750D03*
X0031250Y0207880D03*
X0031250Y0199610D03*
X0041250Y0199610D03*
X0041250Y0207880D03*
X0023510Y0214370D03*
X0015240Y0214370D03*
X0015240Y0225620D03*
X0023510Y0225620D03*
X0024130Y0236870D03*
X0015860Y0236870D03*
X0015860Y0248120D03*
X0024130Y0248120D03*
X0024130Y0259370D03*
X0015860Y0259370D03*
X0015860Y0270620D03*
X0024130Y0270620D03*
X0031250Y0267110D03*
X0031250Y0275380D03*
X0041250Y0275380D03*
X0041250Y0267110D03*
X0060860Y0248750D03*
X0060860Y0240620D03*
X0060860Y0232500D03*
X0060860Y0224370D03*
X0069130Y0224370D03*
X0069130Y0232500D03*
X0069130Y0240620D03*
X0069130Y0248750D03*
D19*
G36*
X0058860Y0253120D02*
X0056870Y0257390D01*
X0061140Y0259380D01*
X0063130Y0255110D01*
X0058860Y0253120D01*
G37*
G36*
X0056450Y0259370D02*
X0053120Y0262700D01*
X0056450Y0266030D01*
X0059780Y0262700D01*
X0056450Y0259370D01*
G37*
G36*
X0051840Y0263740D02*
X0047290Y0264970D01*
X0048520Y0269520D01*
X0053070Y0268290D01*
X0051840Y0263740D01*
G37*
G36*
X0053980Y0271720D02*
X0049430Y0272950D01*
X0050660Y0277500D01*
X0055210Y0276270D01*
X0053980Y0271720D01*
G37*
G36*
X0062290Y0265210D02*
X0058960Y0268540D01*
X0062290Y0271870D01*
X0065620Y0268540D01*
X0062290Y0265210D01*
G37*
G36*
X0066350Y0256610D02*
X0064360Y0260880D01*
X0068630Y0262870D01*
X0070620Y0258600D01*
X0066350Y0256610D01*
G37*
G36*
X0056710Y0216600D02*
X0058700Y0220870D01*
X0062970Y0218880D01*
X0060980Y0214610D01*
X0056710Y0216600D01*
G37*
G36*
X0051870Y0211670D02*
X0055200Y0215000D01*
X0058530Y0211670D01*
X0055200Y0208340D01*
X0051870Y0211670D01*
G37*
G36*
X0046800Y0209180D02*
X0051070Y0211170D01*
X0053060Y0206900D01*
X0048790Y0204910D01*
X0046800Y0209180D01*
G37*
G36*
X0050290Y0201690D02*
X0054560Y0203680D01*
X0056550Y0199410D01*
X0052280Y0197420D01*
X0050290Y0201690D01*
G37*
G36*
X0057710Y0205820D02*
X0061040Y0209150D01*
X0064370Y0205820D01*
X0061040Y0202490D01*
X0057710Y0205820D01*
G37*
G36*
X0064210Y0213110D02*
X0066200Y0217380D01*
X0070470Y0215390D01*
X0068480Y0211120D01*
X0064210Y0213110D01*
G37*
D10*
X0063750Y0207500D03*
X0059370Y0202500D03*
X0034370Y0198750D03*
X0028120Y0198750D03*
X0015000Y0200000D03*
X0015000Y0207500D03*
X0024370Y0222500D03*
X0024370Y0228750D03*
X0024370Y0256250D03*
X0024370Y0262500D03*
X0038120Y0276250D03*
X0044370Y0276250D03*
X0067500Y0263120D03*
X0070620Y0257500D03*
X0069370Y0235620D03*
X0069370Y0229370D03*
D16*
X0069370Y0232260D01*
X0069130Y0232500D01*
X0069370Y0232740D01*
X0069370Y0235620D01*
X0069130Y0240620D02*
X0061010Y0232500D01*
X0060860Y0232500D01*
X0060860Y0240620D02*
X0061010Y0240620D01*
X0069130Y0248750D01*
X0064370Y0248750D02*
X0060860Y0248750D01*
X0060000Y0256250D02*
X0060000Y0256250D01*
X0060000Y0260000D01*
X0062290Y0262290D01*
X0062290Y0268540D01*
X0067500Y0263120D02*
X0067500Y0259750D01*
X0067490Y0259740D01*
X0069740Y0257500D01*
X0070620Y0257500D01*
X0056450Y0262700D02*
X0055000Y0264150D01*
X0055000Y0270000D01*
X0052320Y0272680D01*
X0052320Y0274610D01*
X0048680Y0268120D02*
X0046870Y0268120D01*
X0048680Y0268120D02*
X0050180Y0266630D01*
X0041250Y0267110D02*
X0032980Y0275380D01*
X0031250Y0275380D01*
X0027740Y0270620D02*
X0031250Y0267110D01*
X0027740Y0270620D02*
X0024130Y0270620D01*
X0019370Y0270620D02*
X0015860Y0270620D01*
X0024370Y0262500D02*
X0024370Y0259610D01*
X0024130Y0259370D01*
X0024370Y0259130D01*
X0024370Y0256250D01*
X0024130Y0248120D02*
X0015860Y0256390D01*
X0015860Y0259370D01*
X0015860Y0248120D02*
X0015860Y0245140D01*
X0024130Y0236870D01*
X0019370Y0236870D02*
X0015860Y0236870D01*
X0024370Y0228750D02*
X0024370Y0226490D01*
X0023510Y0225620D01*
X0024370Y0224760D01*
X0024370Y0222500D01*
X0023510Y0214370D02*
X0015240Y0222640D01*
X0015240Y0225620D01*
X0015240Y0214370D02*
X0015240Y0212640D01*
X0024130Y0203750D01*
X0028120Y0198750D02*
X0030380Y0198750D01*
X0031250Y0199610D01*
X0032110Y0198750D01*
X0034370Y0198750D01*
X0041250Y0199610D02*
X0032980Y0207880D01*
X0031250Y0207880D01*
X0041250Y0207880D02*
X0044610Y0207880D01*
X0046250Y0206250D01*
X0046250Y0202500D01*
X0048750Y0200000D01*
X0052870Y0200000D01*
X0053420Y0200550D01*
X0051250Y0205000D02*
X0049930Y0206320D01*
X0049930Y0208040D01*
X0055200Y0211670D02*
X0064760Y0211670D01*
X0067340Y0214250D01*
X0062500Y0217740D02*
X0069130Y0224370D01*
X0064370Y0224370D02*
X0060860Y0224370D01*
X0059840Y0217740D02*
X0062500Y0217740D01*
X0062720Y0207500D02*
X0061040Y0205820D01*
X0059370Y0204150D01*
X0059370Y0202500D01*
X0062720Y0207500D02*
X0063750Y0207500D01*
X0015860Y0207500D02*
X0015860Y0203750D01*
X0015860Y0200000D01*
X0015000Y0200000D01*
X0015000Y0207500D02*
X0015860Y0207500D01*
X0041250Y0275380D02*
X0040380Y0276250D01*
X0038120Y0276250D01*
X0041250Y0275380D02*
X0042110Y0276250D01*
X0044370Y0276250D01*
D14*
X0046870Y0268120D03*
X0064370Y0248750D03*
X0064370Y0224370D03*
X0051250Y0205000D03*
X0019370Y0236870D03*
X0019370Y0270620D03*
X0082500Y0195000D02*
G75*
%LPD*%
D17*
X0082500Y0195000D02*
X0082500Y0280000D01*
X0147500Y0280000D01*
X0147500Y0195000D01*
X0082500Y0195000D01*
D19*
X0108120Y0199610D03*
X0115000Y0199610D03*
X0121870Y0199610D03*
X0121870Y0207880D03*
X0115000Y0207880D03*
X0108120Y0207880D03*
X0096630Y0222500D03*
X0096630Y0230000D03*
X0096630Y0237500D03*
X0096630Y0245000D03*
X0096630Y0252500D03*
X0088360Y0252500D03*
X0088360Y0245000D03*
X0088360Y0237500D03*
X0088360Y0230000D03*
X0088360Y0222500D03*
X0108120Y0267110D03*
X0115000Y0267110D03*
X0121870Y0267110D03*
X0121870Y0275380D03*
X0115000Y0275380D03*
X0108120Y0275380D03*
X0133360Y0252500D03*
X0133360Y0245000D03*
X0133360Y0237500D03*
X0133360Y0230000D03*
X0133360Y0222500D03*
X0141630Y0222500D03*
X0141630Y0230000D03*
X0141630Y0237500D03*
X0141630Y0245000D03*
X0141630Y0252500D03*
D19*
G36*
X0131810Y0255960D02*
X0129450Y0260040D01*
X0133530Y0262400D01*
X0135890Y0258320D01*
X0131810Y0255960D01*
G37*
G36*
X0129410Y0261320D02*
X0125330Y0263680D01*
X0127690Y0267760D01*
X0131770Y0265400D01*
X0129410Y0261320D01*
G37*
G36*
X0138970Y0260090D02*
X0136610Y0264170D01*
X0140690Y0266530D01*
X0143050Y0262450D01*
X0138970Y0260090D01*
G37*
G36*
X0133550Y0268480D02*
X0129470Y0270840D01*
X0131830Y0274920D01*
X0135910Y0272560D01*
X0133550Y0268480D01*
G37*
G36*
X0104660Y0263680D02*
X0100580Y0261320D01*
X0098220Y0265400D01*
X0102300Y0267760D01*
X0104660Y0263680D01*
G37*
G36*
X0100550Y0260040D02*
X0098190Y0255960D01*
X0094110Y0258320D01*
X0096470Y0262400D01*
X0100550Y0260040D01*
G37*
G36*
X0093390Y0264170D02*
X0091030Y0260090D01*
X0086950Y0262450D01*
X0089310Y0266530D01*
X0093390Y0264170D01*
G37*
G36*
X0100520Y0270840D02*
X0096440Y0268480D01*
X0094080Y0272560D01*
X0098160Y0274920D01*
X0100520Y0270840D01*
G37*
G36*
X0098190Y0218410D02*
X0100550Y0214330D01*
X0096470Y0211970D01*
X0094110Y0216050D01*
X0098190Y0218410D01*
G37*
G36*
X0100580Y0213050D02*
X0104660Y0210690D01*
X0102300Y0206610D01*
X0098220Y0208970D01*
X0100580Y0213050D01*
G37*
G36*
X0096440Y0205890D02*
X0100520Y0203530D01*
X0098160Y0199450D01*
X0094080Y0201810D01*
X0096440Y0205890D01*
G37*
G36*
X0091030Y0214270D02*
X0093390Y0210190D01*
X0089310Y0207830D01*
X0086950Y0211910D01*
X0091030Y0214270D01*
G37*
G36*
X0125330Y0210690D02*
X0129410Y0213050D01*
X0131770Y0208970D01*
X0127690Y0206610D01*
X0125330Y0210690D01*
G37*
G36*
X0129450Y0214330D02*
X0131810Y0218410D01*
X0135890Y0216050D01*
X0133530Y0211970D01*
X0129450Y0214330D01*
G37*
G36*
X0136610Y0210190D02*
X0138970Y0214270D01*
X0143050Y0211910D01*
X0140690Y0207830D01*
X0136610Y0210190D01*
G37*
G36*
X0129470Y0203530D02*
X0133550Y0205890D01*
X0135910Y0201810D01*
X0131830Y0199450D01*
X0129470Y0203530D01*
G37*
D10*
X0130000Y0200620D03*
X0135620Y0203750D03*
X0144370Y0228120D03*
X0144370Y0231870D03*
X0144370Y0250000D03*
X0144370Y0255620D03*
X0128750Y0275620D03*
X0125000Y0275620D03*
X0100000Y0273750D03*
X0094370Y0270000D03*
X0085620Y0247500D03*
X0085620Y0242500D03*
X0085620Y0224370D03*
X0085620Y0219370D03*
X0103120Y0213120D03*
X0106250Y0213120D03*
X0105000Y0198750D03*
X0101250Y0198750D03*
D16*
X0105000Y0198750D01*
X0105860Y0199610D01*
X0108120Y0199610D01*
X0108120Y0206490D02*
X0115000Y0199610D01*
X0121870Y0199610D02*
X0115000Y0206490D01*
X0115000Y0207880D01*
X0108120Y0207880D02*
X0108120Y0206490D01*
X0106250Y0213120D02*
X0103120Y0213120D01*
X0103120Y0211510D01*
X0101440Y0209830D01*
X0097330Y0211080D02*
X0096250Y0210000D01*
X0096250Y0203720D01*
X0097300Y0202670D01*
X0097330Y0211080D02*
X0097330Y0215190D01*
X0090170Y0216030D02*
X0096630Y0222500D01*
X0090170Y0216030D02*
X0090170Y0211050D01*
X0085620Y0219370D02*
X0085620Y0219760D01*
X0088360Y0222500D01*
X0086490Y0224370D01*
X0085620Y0224370D01*
X0088360Y0230000D02*
X0089130Y0230000D01*
X0096630Y0237500D01*
X0089130Y0237500D02*
X0096630Y0245000D01*
X0096630Y0252500D02*
X0093120Y0252500D01*
X0088360Y0252500D02*
X0095050Y0259180D01*
X0097330Y0259180D01*
X0101440Y0264540D02*
X0091390Y0264540D01*
X0090170Y0263310D01*
X0094370Y0270000D02*
X0095600Y0270000D01*
X0097300Y0271700D01*
X0099350Y0273750D01*
X0100000Y0273750D01*
X0108120Y0273990D02*
X0109760Y0273990D01*
X0115000Y0268750D01*
X0115000Y0267110D01*
X0121870Y0267110D02*
X0115000Y0273990D01*
X0115000Y0275380D01*
X0108120Y0275380D02*
X0108120Y0273990D01*
X0108120Y0270620D02*
X0108120Y0267110D01*
X0121870Y0275380D02*
X0122110Y0275620D01*
X0125000Y0275620D01*
X0128750Y0275620D01*
X0132690Y0271700D02*
X0132690Y0269800D01*
X0135000Y0267500D01*
X0135000Y0261510D01*
X0132670Y0259180D01*
X0128550Y0264540D02*
X0128550Y0265430D01*
X0130620Y0267500D01*
X0139830Y0263310D02*
X0140000Y0263140D01*
X0140000Y0258750D01*
X0133750Y0252500D01*
X0133360Y0252500D01*
X0133360Y0245000D02*
X0136870Y0245000D01*
X0141630Y0245000D02*
X0134130Y0237500D01*
X0133360Y0237500D01*
X0140860Y0237500D02*
X0133360Y0230000D01*
X0133360Y0222500D02*
X0136870Y0222500D01*
X0141630Y0222500D02*
X0134320Y0215190D01*
X0132670Y0215190D01*
X0128550Y0209830D02*
X0138600Y0209830D01*
X0139830Y0211050D01*
X0135620Y0203750D02*
X0133770Y0203750D01*
X0132690Y0202670D01*
X0130640Y0200620D01*
X0130000Y0200620D01*
X0121870Y0204370D02*
X0121870Y0207880D01*
X0143510Y0228120D02*
X0141630Y0230000D01*
X0143510Y0231870D01*
X0144370Y0231870D01*
X0144370Y0228120D02*
X0143510Y0228120D01*
X0141630Y0237500D02*
X0140860Y0237500D01*
X0144130Y0250000D02*
X0141630Y0252500D01*
X0144370Y0255240D01*
X0144370Y0255620D01*
X0144370Y0250000D02*
X0144130Y0250000D01*
X0096630Y0230000D02*
X0093120Y0230000D01*
X0089130Y0237500D02*
X0088360Y0237500D01*
X0085860Y0242500D02*
X0085620Y0242500D01*
X0085860Y0242500D02*
X0088360Y0245000D01*
X0085860Y0247500D01*
X0085620Y0247500D01*
D14*
X0093120Y0252500D03*
X0108120Y0270620D03*
X0130620Y0267500D03*
X0136870Y0245000D03*
X0136870Y0222500D03*
X0121870Y0204370D03*
X0093120Y0230000D03*
X0155000Y0195000D02*
G75*
%LPD*%
D17*
X0155000Y0195000D02*
X0155000Y0280000D01*
X0220000Y0280000D01*
X0220000Y0195000D01*
X0155000Y0195000D01*
D19*
X0160860Y0203750D03*
X0169130Y0203750D03*
X0176250Y0207880D03*
X0176250Y0199610D03*
X0186250Y0199610D03*
X0186250Y0207880D03*
X0168510Y0214370D03*
X0160240Y0214370D03*
X0160240Y0225620D03*
X0168510Y0225620D03*
X0169130Y0236870D03*
X0160860Y0236870D03*
X0160860Y0248120D03*
X0169130Y0248120D03*
X0169130Y0259370D03*
X0160860Y0259370D03*
X0160860Y0270620D03*
X0169130Y0270620D03*
X0176250Y0267110D03*
X0176250Y0275380D03*
X0186250Y0275380D03*
X0186250Y0267110D03*
X0205860Y0248750D03*
X0205860Y0240620D03*
X0205860Y0232500D03*
X0205860Y0224370D03*
X0214130Y0224370D03*
X0214130Y0232500D03*
X0214130Y0240620D03*
X0214130Y0248750D03*
D19*
G36*
X0203860Y0253120D02*
X0201870Y0257390D01*
X0206140Y0259380D01*
X0208130Y0255110D01*
X0203860Y0253120D01*
G37*
G36*
X0201450Y0259370D02*
X0198120Y0262700D01*
X0201450Y0266030D01*
X0204780Y0262700D01*
X0201450Y0259370D01*
G37*
G36*
X0196840Y0263740D02*
X0192290Y0264970D01*
X0193520Y0269520D01*
X0198070Y0268290D01*
X0196840Y0263740D01*
G37*
G36*
X0198980Y0271720D02*
X0194430Y0272950D01*
X0195660Y0277500D01*
X0200210Y0276270D01*
X0198980Y0271720D01*
G37*
G36*
X0207290Y0265210D02*
X0203960Y0268540D01*
X0207290Y0271870D01*
X0210620Y0268540D01*
X0207290Y0265210D01*
G37*
G36*
X0211350Y0256610D02*
X0209360Y0260880D01*
X0213630Y0262870D01*
X0215620Y0258600D01*
X0211350Y0256610D01*
G37*
G36*
X0201710Y0216600D02*
X0203700Y0220870D01*
X0207970Y0218880D01*
X0205980Y0214610D01*
X0201710Y0216600D01*
G37*
G36*
X0196870Y0211670D02*
X0200200Y0215000D01*
X0203530Y0211670D01*
X0200200Y0208340D01*
X0196870Y0211670D01*
G37*
G36*
X0191800Y0209180D02*
X0196070Y0211170D01*
X0198060Y0206900D01*
X0193790Y0204910D01*
X0191800Y0209180D01*
G37*
G36*
X0195290Y0201690D02*
X0199560Y0203680D01*
X0201550Y0199410D01*
X0197280Y0197420D01*
X0195290Y0201690D01*
G37*
G36*
X0202710Y0205820D02*
X0206040Y0209150D01*
X0209370Y0205820D01*
X0206040Y0202490D01*
X0202710Y0205820D01*
G37*
G36*
X0209210Y0213110D02*
X0211200Y0217380D01*
X0215470Y0215390D01*
X0213480Y0211120D01*
X0209210Y0213110D01*
G37*
D10*
X0208750Y0207500D03*
X0204370Y0202500D03*
X0179370Y0198750D03*
X0173120Y0198750D03*
X0160000Y0200000D03*
X0160000Y0207500D03*
X0169370Y0222500D03*
X0169370Y0228750D03*
X0169370Y0256250D03*
X0169370Y0262500D03*
X0183120Y0276250D03*
X0189370Y0276250D03*
X0212500Y0263120D03*
X0215620Y0257500D03*
X0214370Y0235620D03*
X0214370Y0229370D03*
D16*
X0214370Y0232260D01*
X0214130Y0232500D01*
X0214370Y0232740D01*
X0214370Y0235620D01*
X0214130Y0240620D02*
X0206010Y0232500D01*
X0205860Y0232500D01*
X0205860Y0240620D02*
X0206010Y0240620D01*
X0214130Y0248750D01*
X0209370Y0248750D02*
X0205860Y0248750D01*
X0205000Y0256250D02*
X0205000Y0256250D01*
X0205000Y0260000D01*
X0207290Y0262290D01*
X0207290Y0268540D01*
X0212500Y0263120D02*
X0212500Y0259750D01*
X0212490Y0259740D01*
X0214740Y0257500D01*
X0215620Y0257500D01*
X0201450Y0262700D02*
X0200000Y0264150D01*
X0200000Y0270000D01*
X0197320Y0272680D01*
X0197320Y0274610D01*
X0193680Y0268120D02*
X0191870Y0268120D01*
X0193680Y0268120D02*
X0195180Y0266630D01*
X0186250Y0267110D02*
X0177980Y0275380D01*
X0176250Y0275380D01*
X0172740Y0270620D02*
X0176250Y0267110D01*
X0172740Y0270620D02*
X0169130Y0270620D01*
X0164370Y0270620D02*
X0160860Y0270620D01*
X0169370Y0262500D02*
X0169370Y0259610D01*
X0169130Y0259370D01*
X0169370Y0259130D01*
X0169370Y0256250D01*
X0169130Y0248120D02*
X0160860Y0256390D01*
X0160860Y0259370D01*
X0160860Y0248120D02*
X0160860Y0245140D01*
X0169130Y0236870D01*
X0164370Y0236870D02*
X0160860Y0236870D01*
X0169370Y0228750D02*
X0169370Y0226490D01*
X0168510Y0225620D01*
X0169370Y0224760D01*
X0169370Y0222500D01*
X0168510Y0214370D02*
X0160240Y0222640D01*
X0160240Y0225620D01*
X0160240Y0214370D02*
X0160240Y0212640D01*
X0169130Y0203750D01*
X0173120Y0198750D02*
X0175380Y0198750D01*
X0176250Y0199610D01*
X0177110Y0198750D01*
X0179370Y0198750D01*
X0186250Y0199610D02*
X0177980Y0207880D01*
X0176250Y0207880D01*
X0186250Y0207880D02*
X0189610Y0207880D01*
X0191250Y0206250D01*
X0191250Y0202500D01*
X0193750Y0200000D01*
X0197870Y0200000D01*
X0198420Y0200550D01*
X0196250Y0205000D02*
X0194930Y0206320D01*
X0194930Y0208040D01*
X0200200Y0211670D02*
X0209760Y0211670D01*
X0212340Y0214250D01*
X0207500Y0217740D02*
X0214130Y0224370D01*
X0209370Y0224370D02*
X0205860Y0224370D01*
X0204840Y0217740D02*
X0207500Y0217740D01*
X0207720Y0207500D02*
X0206040Y0205820D01*
X0204370Y0204150D01*
X0204370Y0202500D01*
X0207720Y0207500D02*
X0208750Y0207500D01*
X0160860Y0207500D02*
X0160860Y0203750D01*
X0160860Y0200000D01*
X0160000Y0200000D01*
X0160000Y0207500D02*
X0160860Y0207500D01*
X0186250Y0275380D02*
X0185380Y0276250D01*
X0183120Y0276250D01*
X0186250Y0275380D02*
X0187110Y0276250D01*
X0189370Y0276250D01*
D14*
X0191870Y0268120D03*
X0209370Y0248750D03*
X0209370Y0224370D03*
X0196250Y0205000D03*
X0164370Y0236870D03*
X0164370Y0270620D03*
X0227500Y0195000D02*
G75*
%LPD*%
D17*
X0227500Y0195000D02*
X0227500Y0280000D01*
X0292500Y0280000D01*
X0292500Y0195000D01*
X0227500Y0195000D01*
D19*
X0233360Y0222500D03*
X0233360Y0230000D03*
X0233360Y0237500D03*
X0233360Y0245000D03*
X0233360Y0252500D03*
X0241630Y0252500D03*
X0241630Y0245000D03*
X0241630Y0237500D03*
X0241630Y0230000D03*
X0241630Y0222500D03*
X0254370Y0207880D03*
X0261870Y0207880D03*
X0269370Y0207880D03*
X0269370Y0199610D03*
X0261870Y0199610D03*
X0254370Y0199610D03*
X0278360Y0226250D03*
X0281870Y0232740D03*
X0286630Y0226250D03*
X0274370Y0232870D03*
X0266250Y0233360D03*
X0258120Y0233360D03*
X0258120Y0241630D03*
X0266250Y0241630D03*
X0274370Y0241140D03*
X0281870Y0241010D03*
X0266870Y0267110D03*
X0260000Y0267110D03*
X0253120Y0267110D03*
X0253120Y0275380D03*
X0260000Y0275380D03*
X0266870Y0275380D03*
D19*
G36*
X0276200Y0274920D02*
X0280280Y0272560D01*
X0277920Y0268480D01*
X0273840Y0270840D01*
X0276200Y0274920D01*
G37*
G36*
X0272070Y0267760D02*
X0276150Y0265400D01*
X0273790Y0261320D01*
X0269710Y0263680D01*
X0272070Y0267760D01*
G37*
G36*
X0278530Y0262400D02*
X0280890Y0258320D01*
X0276810Y0255960D01*
X0274450Y0260040D01*
X0278530Y0262400D01*
G37*
G36*
X0285690Y0266530D02*
X0288050Y0262450D01*
X0283970Y0260090D01*
X0281610Y0264170D01*
X0285690Y0266530D01*
G37*
G36*
X0243840Y0265400D02*
X0247920Y0267760D01*
X0250280Y0263680D01*
X0246200Y0261320D01*
X0243840Y0265400D01*
G37*
G36*
X0239110Y0258320D02*
X0241470Y0262400D01*
X0245550Y0260040D01*
X0243190Y0255960D01*
X0239110Y0258320D01*
G37*
G36*
X0231950Y0262450D02*
X0234310Y0266530D01*
X0238390Y0264170D01*
X0236030Y0260090D01*
X0231950Y0262450D01*
G37*
G36*
X0239710Y0272560D02*
X0243790Y0274920D01*
X0246150Y0270840D01*
X0242070Y0268480D01*
X0239710Y0272560D01*
G37*
G36*
X0280300Y0220160D02*
X0279070Y0215610D01*
X0274520Y0216840D01*
X0275750Y0221390D01*
X0280300Y0220160D01*
G37*
G36*
X0288280Y0218020D02*
X0287050Y0213470D01*
X0282500Y0214700D01*
X0283730Y0219250D01*
X0288280Y0218020D01*
G37*
G36*
X0283660Y0205920D02*
X0280330Y0202590D01*
X0277000Y0205920D01*
X0280330Y0209250D01*
X0283660Y0205920D01*
G37*
G36*
X0277820Y0211770D02*
X0274490Y0208440D01*
X0271160Y0211770D01*
X0274490Y0215100D01*
X0277820Y0211770D01*
G37*
G36*
X0247920Y0207230D02*
X0243840Y0209590D01*
X0246200Y0213670D01*
X0250280Y0211310D01*
X0247920Y0207230D01*
G37*
G36*
X0243790Y0200070D02*
X0239710Y0202430D01*
X0242070Y0206510D01*
X0246150Y0204150D01*
X0243790Y0200070D01*
G37*
G36*
X0234310Y0207830D02*
X0231950Y0211910D01*
X0236030Y0214270D01*
X0238390Y0210190D01*
X0234310Y0207830D01*
G37*
G36*
X0241470Y0211970D02*
X0239110Y0216050D01*
X0243190Y0218410D01*
X0245550Y0214330D01*
X0241470Y0211970D01*
G37*
D10*
X0242500Y0206870D03*
X0246250Y0205000D03*
X0253120Y0211250D03*
X0256870Y0211250D03*
X0269370Y0213120D03*
X0272500Y0215000D03*
X0279370Y0235620D03*
X0285000Y0235620D03*
X0260620Y0236250D03*
X0255620Y0236250D03*
X0238750Y0243120D03*
X0238750Y0247500D03*
X0243750Y0265620D03*
X0247500Y0268120D03*
X0265000Y0270000D03*
X0269370Y0270000D03*
X0238750Y0225000D03*
X0238750Y0220620D03*
D16*
X0239760Y0220620D01*
X0241630Y0222500D01*
X0239130Y0225000D01*
X0238750Y0225000D01*
X0236870Y0230000D02*
X0233360Y0230000D01*
X0240860Y0230000D02*
X0233360Y0237500D01*
X0234370Y0242500D02*
X0234370Y0243990D01*
X0233360Y0245000D01*
X0234370Y0242500D02*
X0239370Y0237500D01*
X0241630Y0237500D01*
X0239760Y0243120D02*
X0238750Y0243120D01*
X0239760Y0243120D02*
X0241630Y0245000D01*
X0239130Y0247500D01*
X0238750Y0247500D01*
X0236870Y0252500D02*
X0233360Y0252500D01*
X0235000Y0259370D02*
X0235000Y0263140D01*
X0235170Y0263310D01*
X0235000Y0259370D02*
X0241630Y0252740D01*
X0241630Y0252500D01*
X0242330Y0259180D02*
X0240000Y0261510D01*
X0240000Y0268750D01*
X0242930Y0271680D01*
X0242930Y0271700D01*
X0247500Y0268120D02*
X0247500Y0264970D01*
X0247060Y0264540D01*
X0245980Y0265620D01*
X0243750Y0265620D01*
X0253120Y0267110D02*
X0260000Y0273990D01*
X0260000Y0275380D01*
X0264370Y0273750D02*
X0260000Y0269370D01*
X0260000Y0267110D01*
X0265000Y0268990D02*
X0266870Y0267110D01*
X0269370Y0269610D01*
X0269370Y0270000D01*
X0265240Y0273750D02*
X0266870Y0275380D01*
X0265240Y0273750D02*
X0264370Y0273750D01*
X0265000Y0270000D02*
X0265000Y0268990D01*
X0272930Y0264540D02*
X0283600Y0264540D01*
X0284830Y0263310D01*
X0280620Y0260620D02*
X0279180Y0259180D01*
X0277670Y0259180D01*
X0275620Y0268750D02*
X0277060Y0270190D01*
X0277060Y0271700D01*
X0253120Y0271870D02*
X0253120Y0275380D01*
X0253120Y0268510D02*
X0253120Y0267110D01*
X0258120Y0241630D02*
X0260860Y0241630D01*
X0261250Y0241250D01*
X0260620Y0236250D02*
X0260620Y0235860D01*
X0258120Y0233360D01*
X0255620Y0235860D01*
X0255620Y0236250D01*
X0266250Y0233360D02*
X0266590Y0233360D01*
X0274370Y0241140D01*
X0269370Y0241250D02*
X0268990Y0241630D01*
X0266250Y0241630D01*
X0274370Y0234990D02*
X0279370Y0240000D01*
X0280860Y0240000D01*
X0281870Y0241010D01*
X0279370Y0235620D02*
X0279370Y0235240D01*
X0281870Y0232740D01*
X0284760Y0235620D01*
X0285000Y0235620D01*
X0286630Y0226250D02*
X0283120Y0226250D01*
X0279020Y0226250D02*
X0278360Y0226250D01*
X0285390Y0219220D01*
X0285390Y0216360D01*
X0280330Y0215570D02*
X0277410Y0218500D01*
X0280330Y0215570D02*
X0280330Y0205920D01*
X0274490Y0211770D02*
X0274490Y0213010D01*
X0272500Y0215000D01*
X0271250Y0215000D01*
X0269370Y0213120D01*
X0269370Y0207880D02*
X0269370Y0207110D01*
X0261870Y0199610D01*
X0261870Y0207110D02*
X0254370Y0199610D01*
X0254370Y0207880D02*
X0254370Y0210000D01*
X0253120Y0211250D01*
X0256870Y0211250D01*
X0261870Y0207880D02*
X0261870Y0207110D01*
X0269370Y0203120D02*
X0269370Y0199610D01*
X0246250Y0205000D02*
X0244540Y0203290D01*
X0242930Y0203290D01*
X0242500Y0203720D01*
X0242500Y0206870D01*
X0246610Y0210000D02*
X0247060Y0210450D01*
X0246610Y0210000D02*
X0235000Y0210000D01*
X0234560Y0211050D01*
X0235170Y0211050D01*
X0236250Y0217500D02*
X0240020Y0217500D01*
X0242330Y0215190D01*
X0236250Y0217500D02*
X0233360Y0220380D01*
X0233360Y0222500D01*
X0240860Y0230000D02*
X0241630Y0230000D01*
X0274370Y0232870D02*
X0274370Y0234990D01*
D14*
X0269370Y0241250D03*
X0261250Y0241250D03*
X0280620Y0260620D03*
X0275620Y0268750D03*
X0253120Y0271870D03*
X0236870Y0252500D03*
X0236870Y0230000D03*
X0269370Y0203120D03*
X0283120Y0226250D03*
X0300000Y0195000D02*
G75*
%LPD*%
D17*
X0300000Y0195000D02*
X0300000Y0280000D01*
X0365000Y0280000D01*
X0365000Y0195000D01*
X0300000Y0195000D01*
D19*
X0311250Y0199610D03*
X0311250Y0207880D03*
X0314130Y0215000D03*
X0314130Y0222500D03*
X0314130Y0230000D03*
X0314130Y0237500D03*
X0316490Y0237500D03*
X0314130Y0245000D03*
X0314130Y0252500D03*
X0314130Y0260000D03*
X0310000Y0267110D03*
X0305860Y0260000D03*
X0305860Y0252500D03*
X0305860Y0245000D03*
X0305860Y0237500D03*
X0305860Y0230000D03*
X0305860Y0222500D03*
X0305860Y0215000D03*
X0320000Y0207880D03*
X0320000Y0199610D03*
X0328750Y0199610D03*
X0328750Y0207880D03*
X0337500Y0207880D03*
X0337500Y0199610D03*
X0346250Y0199610D03*
X0346250Y0207880D03*
X0355000Y0207880D03*
X0355000Y0199610D03*
X0334760Y0237500D03*
X0326490Y0237500D03*
X0324760Y0237500D03*
X0327500Y0267110D03*
X0327500Y0275380D03*
X0318750Y0275380D03*
X0318750Y0267110D03*
X0310000Y0275380D03*
X0336250Y0275380D03*
X0336250Y0267110D03*
X0345000Y0267110D03*
X0345000Y0275380D03*
X0353750Y0275380D03*
X0353750Y0267110D03*
D10*
X0356870Y0275620D03*
X0350620Y0275620D03*
X0330620Y0275620D03*
X0325000Y0275620D03*
X0317500Y0261870D03*
X0317500Y0258120D03*
X0335620Y0240620D03*
X0335620Y0234370D03*
X0317500Y0231870D03*
X0317500Y0228120D03*
X0314370Y0208120D03*
X0308120Y0208120D03*
X0334370Y0207500D03*
X0340620Y0207500D03*
X0351870Y0199370D03*
X0358120Y0199370D03*
D16*
X0355240Y0199370D01*
X0355000Y0199610D01*
X0354760Y0199370D01*
X0351870Y0199370D01*
X0346730Y0199610D02*
X0355000Y0207880D01*
X0346250Y0207880D02*
X0337980Y0199610D01*
X0337500Y0199610D01*
X0337880Y0207500D02*
X0337500Y0207880D01*
X0337110Y0207500D01*
X0334370Y0207500D01*
X0337880Y0207500D02*
X0340620Y0207500D01*
X0346250Y0199610D02*
X0346730Y0199610D01*
X0328750Y0199610D02*
X0328750Y0202500D01*
X0328750Y0207880D02*
X0320480Y0199610D01*
X0320000Y0199610D01*
X0311730Y0199610D02*
X0320000Y0207880D01*
X0314370Y0208120D02*
X0311490Y0208120D01*
X0311250Y0207880D01*
X0311010Y0208120D01*
X0308120Y0208120D01*
X0308750Y0215000D02*
X0305860Y0215000D01*
X0305860Y0222500D02*
X0306630Y0222500D01*
X0314130Y0215000D01*
X0314130Y0222500D02*
X0306630Y0230000D01*
X0305860Y0230000D01*
X0305860Y0237500D02*
X0305860Y0245000D01*
X0308750Y0245000D01*
X0314130Y0245000D02*
X0306630Y0252500D01*
X0305860Y0252500D01*
X0305860Y0260000D02*
X0306630Y0260000D01*
X0314130Y0252500D01*
X0316010Y0258120D02*
X0314130Y0260000D01*
X0316010Y0258120D02*
X0317500Y0258120D01*
X0317500Y0261870D01*
X0318750Y0267110D02*
X0310480Y0275380D01*
X0310000Y0275380D01*
X0310000Y0270000D02*
X0310000Y0267110D01*
X0318750Y0275380D02*
X0319230Y0275380D01*
X0327500Y0267110D01*
X0327500Y0275380D02*
X0327740Y0275620D01*
X0330620Y0275620D01*
X0327500Y0275380D02*
X0327260Y0275620D01*
X0325000Y0275620D01*
X0336250Y0275380D02*
X0336730Y0275380D01*
X0345000Y0267110D01*
X0345000Y0275380D02*
X0345480Y0275380D01*
X0353750Y0267110D01*
X0353750Y0275380D02*
X0353990Y0275620D01*
X0356870Y0275620D01*
X0353750Y0275380D02*
X0353510Y0275620D01*
X0350620Y0275620D01*
X0336250Y0270000D02*
X0336250Y0267110D01*
X0335620Y0240620D02*
X0335620Y0234370D01*
X0334760Y0237500D02*
X0335620Y0238360D01*
X0335620Y0240620D01*
X0326490Y0237500D02*
X0324760Y0237500D01*
X0317500Y0231870D02*
X0317500Y0228120D01*
X0316010Y0228120D01*
X0314130Y0230000D01*
X0314130Y0237500D02*
X0316490Y0237500D01*
X0311730Y0199610D02*
X0311250Y0199610D01*
D14*
X0308750Y0215000D03*
X0328750Y0202500D03*
X0308750Y0245000D03*
X0310000Y0270000D03*
X0336250Y0270000D03*
X0010000Y0287500D02*
G75*
%LPD*%
D17*
X0010000Y0287500D02*
X0010000Y0372500D01*
X0075000Y0372500D01*
X0075000Y0287500D01*
X0010000Y0287500D01*
D19*
X0021250Y0292110D03*
X0021250Y0300380D03*
X0024130Y0307500D03*
X0024130Y0315000D03*
X0024130Y0322500D03*
X0024130Y0330000D03*
X0026490Y0330000D03*
X0024130Y0337500D03*
X0024130Y0345000D03*
X0024130Y0352500D03*
X0020000Y0359610D03*
X0015860Y0352500D03*
X0015860Y0345000D03*
X0015860Y0337500D03*
X0015860Y0330000D03*
X0015860Y0322500D03*
X0015860Y0315000D03*
X0015860Y0307500D03*
X0030000Y0300380D03*
X0030000Y0292110D03*
X0038750Y0292110D03*
X0038750Y0300380D03*
X0047500Y0300380D03*
X0047500Y0292110D03*
X0056250Y0292110D03*
X0056250Y0300380D03*
X0065000Y0300380D03*
X0065000Y0292110D03*
X0044760Y0330000D03*
X0036490Y0330000D03*
X0034760Y0330000D03*
X0037500Y0359610D03*
X0037500Y0367880D03*
X0028750Y0367880D03*
X0028750Y0359610D03*
X0020000Y0367880D03*
X0046250Y0367880D03*
X0046250Y0359610D03*
X0055000Y0359610D03*
X0055000Y0367880D03*
X0063750Y0367880D03*
X0063750Y0359610D03*
D10*
X0066870Y0368120D03*
X0060620Y0368120D03*
X0040620Y0368120D03*
X0035000Y0368120D03*
X0027500Y0354370D03*
X0027500Y0350620D03*
X0045620Y0333120D03*
X0045620Y0326870D03*
X0027500Y0324370D03*
X0027500Y0320620D03*
X0024370Y0300620D03*
X0018120Y0300620D03*
X0044370Y0300000D03*
X0050620Y0300000D03*
X0061870Y0291870D03*
X0068120Y0291870D03*
D16*
X0065240Y0291870D01*
X0065000Y0292110D01*
X0064760Y0291870D01*
X0061870Y0291870D01*
X0056730Y0292110D02*
X0065000Y0300380D01*
X0056250Y0300380D02*
X0047980Y0292110D01*
X0047500Y0292110D01*
X0047880Y0300000D02*
X0047500Y0300380D01*
X0047110Y0300000D01*
X0044370Y0300000D01*
X0047880Y0300000D02*
X0050620Y0300000D01*
X0056250Y0292110D02*
X0056730Y0292110D01*
X0038750Y0292110D02*
X0038750Y0295000D01*
X0038750Y0300380D02*
X0030480Y0292110D01*
X0030000Y0292110D01*
X0021730Y0292110D02*
X0030000Y0300380D01*
X0024370Y0300620D02*
X0021490Y0300620D01*
X0021250Y0300380D01*
X0021010Y0300620D01*
X0018120Y0300620D01*
X0018750Y0307500D02*
X0015860Y0307500D01*
X0015860Y0315000D02*
X0016630Y0315000D01*
X0024130Y0307500D01*
X0024130Y0315000D02*
X0016630Y0322500D01*
X0015860Y0322500D01*
X0015860Y0330000D02*
X0015860Y0337500D01*
X0018750Y0337500D01*
X0024130Y0337500D02*
X0016630Y0345000D01*
X0015860Y0345000D01*
X0015860Y0352500D02*
X0016630Y0352500D01*
X0024130Y0345000D01*
X0026010Y0350620D02*
X0024130Y0352500D01*
X0026010Y0350620D02*
X0027500Y0350620D01*
X0027500Y0354370D01*
X0028750Y0359610D02*
X0020480Y0367880D01*
X0020000Y0367880D01*
X0020000Y0362500D02*
X0020000Y0359610D01*
X0028750Y0367880D02*
X0029230Y0367880D01*
X0037500Y0359610D01*
X0037500Y0367880D02*
X0037740Y0368120D01*
X0040620Y0368120D01*
X0037500Y0367880D02*
X0037260Y0368120D01*
X0035000Y0368120D01*
X0046250Y0367880D02*
X0046730Y0367880D01*
X0055000Y0359610D01*
X0055000Y0367880D02*
X0055480Y0367880D01*
X0063750Y0359610D01*
X0063750Y0367880D02*
X0063990Y0368120D01*
X0066870Y0368120D01*
X0063750Y0367880D02*
X0063510Y0368120D01*
X0060620Y0368120D01*
X0046250Y0362500D02*
X0046250Y0359610D01*
X0045620Y0333120D02*
X0045620Y0326870D01*
X0044760Y0330000D02*
X0045620Y0330860D01*
X0045620Y0333120D01*
X0036490Y0330000D02*
X0034760Y0330000D01*
X0027500Y0324370D02*
X0027500Y0320620D01*
X0026010Y0320620D01*
X0024130Y0322500D01*
X0024130Y0330000D02*
X0026490Y0330000D01*
X0021730Y0292110D02*
X0021250Y0292110D01*
D14*
X0018750Y0307500D03*
X0038750Y0295000D03*
X0018750Y0337500D03*
X0020000Y0362500D03*
X0046250Y0362500D03*
X0082500Y0287500D02*
G75*
%LPD*%
D17*
X0082500Y0287500D02*
X0082500Y0372500D01*
X0147500Y0372500D01*
X0147500Y0287500D01*
X0082500Y0287500D01*
D19*
X0088360Y0294370D03*
X0096630Y0294370D03*
X0096630Y0304370D03*
X0088360Y0304370D03*
X0088360Y0314370D03*
X0096630Y0314370D03*
X0096630Y0324370D03*
X0088360Y0324370D03*
X0088360Y0334370D03*
X0096630Y0334370D03*
X0096630Y0344370D03*
X0088360Y0344370D03*
X0088360Y0354370D03*
X0096630Y0354370D03*
X0102500Y0352740D03*
X0108750Y0353510D03*
X0102500Y0361010D03*
X0096630Y0364370D03*
X0088360Y0364370D03*
X0108750Y0345240D03*
X0115000Y0346010D03*
X0121250Y0345240D03*
X0121250Y0353510D03*
X0127500Y0353360D03*
X0133360Y0354370D03*
X0127500Y0361630D03*
X0133360Y0364370D03*
X0141630Y0364370D03*
X0141630Y0354370D03*
X0141630Y0344370D03*
X0133360Y0344370D03*
X0133360Y0334370D03*
X0141630Y0334370D03*
X0141630Y0324370D03*
X0133360Y0324370D03*
X0133360Y0314370D03*
X0141630Y0314370D03*
X0141630Y0304370D03*
X0133360Y0304370D03*
X0133360Y0294370D03*
X0141630Y0294370D03*
X0115000Y0337740D03*
D10*
X0096250Y0341250D03*
X0096250Y0347500D03*
X0101870Y0364370D03*
X0105620Y0364370D03*
X0118750Y0356870D03*
X0122500Y0356870D03*
X0141250Y0357500D03*
X0141250Y0351250D03*
X0141250Y0327500D03*
X0141250Y0321250D03*
X0141250Y0297500D03*
X0141250Y0291250D03*
X0096250Y0311250D03*
X0096250Y0317500D03*
X0088750Y0297500D03*
X0088750Y0291250D03*
D16*
X0088750Y0293990D01*
X0088360Y0294370D01*
X0088750Y0294760D01*
X0088750Y0297500D01*
X0088360Y0302640D02*
X0096630Y0294370D01*
X0088360Y0302640D02*
X0088360Y0304370D01*
X0088360Y0312640D02*
X0096630Y0304370D01*
X0096250Y0311250D02*
X0096250Y0313990D01*
X0096630Y0314370D01*
X0096250Y0314760D01*
X0096250Y0317500D01*
X0096630Y0324370D02*
X0088360Y0332640D01*
X0088360Y0334370D01*
X0088360Y0342640D02*
X0096630Y0334370D01*
X0096250Y0341250D02*
X0096250Y0343990D01*
X0096630Y0344370D01*
X0096250Y0344760D01*
X0096250Y0347500D01*
X0102500Y0352740D02*
X0102500Y0355000D01*
X0096630Y0360860D01*
X0096630Y0364370D01*
X0101870Y0364370D02*
X0101870Y0361630D01*
X0102500Y0361010D01*
X0105620Y0364130D01*
X0105620Y0364370D01*
X0096630Y0354370D02*
X0088360Y0362640D01*
X0088360Y0364370D01*
X0088360Y0354370D02*
X0091870Y0354370D01*
X0088360Y0344370D02*
X0088360Y0342640D01*
X0088360Y0324370D02*
X0091870Y0324370D01*
X0088360Y0314370D02*
X0088360Y0312640D01*
X0115000Y0337740D02*
X0115000Y0341250D01*
X0115000Y0346010D02*
X0120480Y0346010D01*
X0121250Y0345240D01*
X0121250Y0353510D02*
X0122500Y0354760D01*
X0122500Y0356870D01*
X0121250Y0353510D02*
X0118750Y0356010D01*
X0118750Y0356870D01*
X0127500Y0356870D02*
X0127500Y0353360D01*
X0133360Y0354370D02*
X0133360Y0356100D01*
X0141630Y0364370D01*
X0141250Y0357500D02*
X0141250Y0354760D01*
X0141630Y0354370D01*
X0141250Y0353990D01*
X0141250Y0351250D01*
X0141630Y0344370D02*
X0133360Y0336100D01*
X0133360Y0334370D01*
X0133360Y0326100D02*
X0141630Y0334370D01*
X0141250Y0327500D02*
X0141250Y0324760D01*
X0141630Y0324370D01*
X0141250Y0323990D01*
X0141250Y0321250D01*
X0141630Y0314370D02*
X0133360Y0306100D01*
X0133360Y0304370D01*
X0133360Y0296100D02*
X0141630Y0304370D01*
X0141250Y0297500D02*
X0141250Y0294760D01*
X0141630Y0294370D01*
X0141250Y0293990D01*
X0141250Y0291250D01*
X0133360Y0294370D02*
X0133360Y0296100D01*
X0133360Y0314370D02*
X0136870Y0314370D01*
X0133360Y0324370D02*
X0133360Y0326100D01*
X0133360Y0344370D02*
X0136870Y0344370D01*
X0127500Y0361630D02*
X0130240Y0364370D01*
X0133360Y0364370D01*
X0108750Y0353510D02*
X0108750Y0350000D01*
X0108750Y0345240D02*
X0108750Y0341870D01*
D14*
X0108750Y0341870D03*
X0115000Y0341250D03*
X0108750Y0350000D03*
X0091870Y0354370D03*
X0091870Y0324370D03*
X0127500Y0356870D03*
X0136870Y0344370D03*
X0136870Y0314370D03*
M02*
