%
T01C0.021650
X1500Y1500
X1500Y2250
X2812Y1375
X3437Y1375
X5125Y2000
X5937Y1750
X6375Y2250
X6437Y3937
X6937Y4437
X6937Y5062
X6437Y6375
X7062Y7250
X6750Y7812
X4687Y8312
X4437Y9125
X3812Y9125
X2437Y7750
X2437Y7125
X1937Y8562
X1937Y5187
X2437Y4375
X2437Y3750
X10125Y1375
X10500Y1375
X10625Y2812
X10312Y2812
X9312Y4500
X8562Y3937
X8562Y3437
X8562Y5750
X8562Y6250
X9312Y6750
X9437Y8500
X10000Y8875
X10812Y8562
X12500Y9062
X12875Y9062
X13062Y8250
X14437Y7062
X14437Y6500
X13687Y6000
X14437Y4687
X14437Y4312
X13687Y3750
X13562Y1875
X13000Y1562
X12187Y1937
X16000Y1500
X16000Y2250
X17312Y1375
X17937Y1375
X19625Y2000
X20437Y1750
X20875Y2250
X20937Y3937
X21437Y4437
X21437Y5062
X20937Y6375
X21562Y7250
X21250Y7812
X19187Y8312
X18937Y9125
X18312Y9125
X16937Y7750
X16937Y7125
X16437Y8562
X16437Y5187
X16937Y4375
X16937Y3750
X24250Y2187
X24625Y2000
X25312Y2625
X25687Y2625
X26937Y2812
X27250Y3000
X28312Y4125
X28500Y5062
X27937Y5062
X26937Y5625
X26125Y5625
X26062Y5125
X25562Y5125
X23875Y5812
X23875Y6250
X23687Y6750
X24375Y8062
X24750Y8312
X25312Y8687
X26500Y8500
X26937Y8500
X27562Y8375
X28062Y7562
X23875Y4000
X23875Y3562
X23687Y4500
X26937Y1812
X30812Y2312
X31437Y2312
X30875Y3000
X31750Y4312
X31750Y4687
X30875Y6000
X31750Y7312
X31750Y7687
X31000Y8500
X32500Y9062
X33062Y9062
X33625Y8500
X35062Y9062
X35687Y9062
X33562Y5562
X33562Y4937
X33437Y2250
X34062Y2250
X35187Y1437
X35812Y1437
X32875Y1750
X1812Y11562
X2437Y11562
X1875Y12250
X2750Y13562
X2750Y13937
X1875Y15250
X2750Y16562
X2750Y16937
X2000Y17750
X3500Y18312
X4062Y18312
X4625Y17750
X6062Y18312
X6687Y18312
X4562Y14812
X4562Y14187
X4437Y11500
X5062Y11500
X6187Y10687
X6812Y10687
X3875Y11000
X8875Y10625
X8875Y11250
X9625Y12625
X9625Y13250
X9187Y13937
X9625Y15625
X9625Y16250
X9187Y16937
X10187Y17937
X10562Y17937
X11875Y17187
X12250Y17187
X12750Y17187
X13687Y15937
X14125Y16625
X14125Y17250
X11500Y15625
X10875Y15687
X10875Y16500
X14125Y14250
X14125Y13625
X13687Y12937
X14125Y11250
X14125Y10625
X1500Y20000
X1500Y20750
X2812Y19875
X3437Y19875
X5125Y20500
X5937Y20250
X6375Y20750
X6437Y22437
X6937Y22937
X6937Y23562
X6437Y24875
X7062Y25750
X6750Y26312
X4687Y26812
X4437Y27625
X3812Y27625
X2437Y26250
X2437Y25625
X1937Y27062
X1937Y23687
X2437Y22875
X2437Y22250
X10125Y19875
X10500Y19875
X10625Y21312
X10312Y21312
X9312Y23000
X8562Y22437
X8562Y21937
X8562Y24250
X8562Y24750
X9312Y25250
X9437Y27000
X10000Y27375
X10812Y27062
X12500Y27562
X12875Y27562
X13062Y26750
X14437Y25562
X14437Y25000
X13687Y24500
X14437Y23187
X14437Y22812
X13687Y22250
X13562Y20375
X13000Y20062
X12187Y20437
X16000Y20000
X16000Y20750
X17312Y19875
X17937Y19875
X19625Y20500
X20437Y20250
X20875Y20750
X20937Y22437
X21437Y22937
X21437Y23562
X20937Y24875
X21562Y25750
X21250Y26312
X19187Y26812
X18937Y27625
X18312Y27625
X16937Y26250
X16937Y25625
X16437Y27062
X16437Y23687
X16937Y22875
X16937Y22250
X24250Y20687
X24625Y20500
X25312Y21125
X25687Y21125
X26937Y21312
X27250Y21500
X28312Y22625
X28500Y23562
X27937Y23562
X26937Y24125
X26125Y24125
X26062Y23625
X25562Y23625
X23875Y24312
X23875Y24750
X23687Y25250
X24375Y26562
X24750Y26812
X25312Y27187
X26500Y27000
X26937Y27000
X27562Y26875
X28062Y26062
X23875Y22500
X23875Y22062
X23687Y23000
X26937Y20312
X30812Y20812
X31437Y20812
X30875Y21500
X31750Y22812
X31750Y23187
X30875Y24500
X31750Y25812
X31750Y26187
X31000Y27000
X32500Y27562
X33062Y27562
X33625Y27000
X35062Y27562
X35687Y27562
X33562Y24062
X33562Y23437
X33437Y20750
X34062Y20750
X35187Y19937
X35812Y19937
X32875Y20250
X1812Y30062
X2437Y30062
X1875Y30750
X2750Y32062
X2750Y32437
X1875Y33750
X2750Y35062
X2750Y35437
X2000Y36250
X3500Y36812
X4062Y36812
X4625Y36250
X6062Y36812
X6687Y36812
X4562Y33312
X4562Y32687
X4437Y30000
X5062Y30000
X6187Y29187
X6812Y29187
X3875Y29500
X8875Y29125
X8875Y29750
X9625Y31125
X9625Y31750
X9187Y32437
X9625Y34125
X9625Y34750
X9187Y35437
X10187Y36437
X10562Y36437
X11875Y35687
X12250Y35687
X12750Y35687
X13687Y34437
X14125Y35125
X14125Y35750
X11500Y34125
X10875Y34187
X10875Y35000
X14125Y32750
X14125Y32125
X13687Y31437
X14125Y29750
X14125Y29125
M30
