G75*
G70*
%OFA0B0*%
%FSLAX25Y25*%
%IPPOS*%
%LPD*%
%AMOC8*
5,1,8,0,0,1.08239X$1,22.5*
%
%ADD10C,0.03970*%
%ADD14C,0.03170*%
%ADD16C,0.00600*%
%ADD17C,0.00000*%
X0010000Y0010000D02*
G75*
%LPD*%
D17*
X0010000Y0010000D02*
X0010000Y0095000D01*
X0075000Y0095000D01*
X0075000Y0010000D01*
X0010000Y0010000D01*
D10*
X0015000Y0015000D03*
X0015000Y0022500D03*
X0028120Y0013750D03*
X0034370Y0013750D03*
X0024370Y0037500D03*
X0024370Y0043750D03*
X0024370Y0071250D03*
X0024370Y0077500D03*
X0038120Y0091250D03*
X0044370Y0091250D03*
X0067500Y0078120D03*
X0070620Y0072500D03*
X0069370Y0050620D03*
X0069370Y0044370D03*
X0063750Y0022500D03*
X0059370Y0017500D03*
D14*
X0051250Y0020000D03*
X0064370Y0039370D03*
X0064370Y0063750D03*
X0046870Y0083120D03*
X0019370Y0085620D03*
X0019370Y0051870D03*
D16*
X0019370Y0026870D01*
X0015000Y0022500D01*
X0019370Y0051870D02*
X0019370Y0085620D01*
X0027500Y0085620D01*
X0030000Y0083120D01*
X0046870Y0083120D01*
X0053750Y0083120D01*
X0064370Y0072500D01*
X0064370Y0063750D01*
X0064370Y0039370D01*
X0064370Y0035620D01*
X0051250Y0022500D01*
X0051250Y0020000D01*
X0082500Y0010000D02*
G75*
%LPD*%
D17*
X0082500Y0010000D02*
X0082500Y0095000D01*
X0147500Y0095000D01*
X0147500Y0010000D01*
X0082500Y0010000D01*
D10*
X0101250Y0013750D03*
X0105000Y0013750D03*
X0106250Y0028120D03*
X0103120Y0028120D03*
X0085620Y0034370D03*
X0085620Y0039370D03*
X0085620Y0057500D03*
X0085620Y0062500D03*
X0094370Y0085000D03*
X0100000Y0088750D03*
X0125000Y0090620D03*
X0128750Y0090620D03*
X0144370Y0070620D03*
X0144370Y0065000D03*
X0144370Y0046870D03*
X0144370Y0043120D03*
X0135620Y0018750D03*
X0130000Y0015620D03*
D16*
X0125000Y0019370D02*
X0136870Y0031250D01*
X0136870Y0037500D01*
X0136870Y0060000D01*
X0136870Y0076250D01*
X0130620Y0082500D01*
X0127500Y0085620D01*
X0108120Y0085620D01*
X0106870Y0085620D01*
X0093120Y0071870D01*
X0093120Y0067500D01*
X0093120Y0045000D01*
X0093120Y0035620D01*
X0100620Y0028120D01*
X0103120Y0028120D01*
X0121870Y0019370D02*
X0125000Y0019370D01*
D14*
X0121870Y0019370D03*
X0136870Y0037500D03*
X0136870Y0060000D03*
X0130620Y0082500D03*
X0108120Y0085620D03*
X0093120Y0067500D03*
X0093120Y0045000D03*
X0155000Y0010000D02*
G75*
%LPD*%
D17*
X0155000Y0010000D02*
X0155000Y0095000D01*
X0220000Y0095000D01*
X0220000Y0010000D01*
X0155000Y0010000D01*
D10*
X0160000Y0015000D03*
X0160000Y0022500D03*
X0173120Y0013750D03*
X0179370Y0013750D03*
X0169370Y0037500D03*
X0169370Y0043750D03*
X0169370Y0071250D03*
X0169370Y0077500D03*
X0183120Y0091250D03*
X0189370Y0091250D03*
X0212500Y0078120D03*
X0215620Y0072500D03*
X0214370Y0050620D03*
X0214370Y0044370D03*
X0208750Y0022500D03*
X0204370Y0017500D03*
D14*
X0196250Y0020000D03*
X0209370Y0039370D03*
X0209370Y0063750D03*
X0191870Y0083120D03*
X0164370Y0085620D03*
X0164370Y0051870D03*
D16*
X0164370Y0026870D01*
X0160000Y0022500D01*
X0164370Y0051870D02*
X0164370Y0085620D01*
X0172500Y0085620D01*
X0175000Y0083120D01*
X0191870Y0083120D01*
X0198750Y0083120D01*
X0209370Y0072500D01*
X0209370Y0063750D01*
X0209370Y0039370D01*
X0209370Y0035620D01*
X0196250Y0022500D01*
X0196250Y0020000D01*
X0227500Y0010000D02*
G75*
%LPD*%
D17*
X0227500Y0010000D02*
X0227500Y0095000D01*
X0292500Y0095000D01*
X0292500Y0010000D01*
X0227500Y0010000D01*
D10*
X0242500Y0021870D03*
X0246250Y0020000D03*
X0253120Y0026250D03*
X0256870Y0026250D03*
X0269370Y0028120D03*
X0272500Y0030000D03*
X0279370Y0050620D03*
X0285000Y0050620D03*
X0260620Y0051250D03*
X0255620Y0051250D03*
X0238750Y0058120D03*
X0238750Y0062500D03*
X0243750Y0080620D03*
X0247500Y0083120D03*
X0265000Y0085000D03*
X0269370Y0085000D03*
X0238750Y0040000D03*
X0238750Y0035620D03*
D14*
X0236870Y0045000D03*
X0236870Y0067500D03*
X0253120Y0086870D03*
X0275620Y0083750D03*
X0280620Y0075620D03*
X0269370Y0056250D03*
X0261250Y0056250D03*
X0283120Y0041250D03*
X0269370Y0018120D03*
D16*
X0283120Y0031870D01*
X0283120Y0041250D01*
X0283120Y0042500D01*
X0269370Y0056250D01*
X0270620Y0053120D02*
X0264370Y0053120D01*
X0261250Y0056250D01*
X0270620Y0053120D02*
X0280620Y0043120D01*
X0280620Y0033120D01*
X0270620Y0023120D01*
X0249370Y0023120D01*
X0241870Y0030620D01*
X0241870Y0072500D01*
X0251250Y0081870D01*
X0273120Y0081870D01*
X0279370Y0075620D01*
X0280620Y0075620D01*
X0275620Y0083750D02*
X0271250Y0088120D01*
X0254370Y0088120D01*
X0253120Y0086870D01*
X0245000Y0086870D01*
X0236870Y0078750D01*
X0236870Y0067500D01*
X0235000Y0065620D01*
X0235000Y0046870D01*
X0236870Y0045000D01*
X0235000Y0043120D01*
X0235000Y0029370D01*
X0242500Y0021870D01*
X0246250Y0020000D02*
X0248120Y0018120D01*
X0269370Y0018120D01*
X0300000Y0010000D02*
G75*
%LPD*%
D17*
X0300000Y0010000D02*
X0300000Y0095000D01*
X0365000Y0095000D01*
X0365000Y0010000D01*
X0300000Y0010000D01*
D10*
X0308120Y0023120D03*
X0314370Y0023120D03*
X0317500Y0043120D03*
X0317500Y0046870D03*
X0335620Y0049370D03*
X0335620Y0055620D03*
X0317500Y0073120D03*
X0317500Y0076870D03*
X0325000Y0090620D03*
X0330620Y0090620D03*
X0350620Y0090620D03*
X0356870Y0090620D03*
X0340620Y0022500D03*
X0334370Y0022500D03*
X0351870Y0014370D03*
X0358120Y0014370D03*
D14*
X0328750Y0017500D03*
X0308750Y0030000D03*
X0308750Y0060000D03*
X0310000Y0085000D03*
X0336250Y0085000D03*
D16*
X0310000Y0085000D01*
X0310000Y0061250D01*
X0308750Y0060000D01*
X0308750Y0030000D01*
X0311250Y0027500D01*
X0311250Y0021250D01*
X0315000Y0017500D01*
X0328750Y0017500D01*
X0348750Y0017500D01*
X0351870Y0014370D01*
X0010000Y0102500D02*
G75*
%LPD*%
D17*
X0010000Y0102500D02*
X0010000Y0187500D01*
X0075000Y0187500D01*
X0075000Y0102500D01*
X0010000Y0102500D01*
D10*
X0018120Y0115620D03*
X0024370Y0115620D03*
X0027500Y0135620D03*
X0027500Y0139370D03*
X0045620Y0141870D03*
X0045620Y0148120D03*
X0027500Y0165620D03*
X0027500Y0169370D03*
X0035000Y0183120D03*
X0040620Y0183120D03*
X0060620Y0183120D03*
X0066870Y0183120D03*
X0050620Y0115000D03*
X0044370Y0115000D03*
X0061870Y0106870D03*
X0068120Y0106870D03*
D14*
X0038750Y0110000D03*
X0018750Y0122500D03*
X0018750Y0152500D03*
X0020000Y0177500D03*
X0046250Y0177500D03*
D16*
X0020000Y0177500D01*
X0020000Y0153750D01*
X0018750Y0152500D01*
X0018750Y0122500D01*
X0021250Y0120000D01*
X0021250Y0113750D01*
X0025000Y0110000D01*
X0038750Y0110000D01*
X0058750Y0110000D01*
X0061870Y0106870D01*
X0082500Y0102500D02*
G75*
%LPD*%
D17*
X0082500Y0102500D02*
X0082500Y0187500D01*
X0147500Y0187500D01*
X0147500Y0102500D01*
X0082500Y0102500D01*
D10*
X0088750Y0106250D03*
X0088750Y0112500D03*
X0096250Y0126250D03*
X0096250Y0132500D03*
X0096250Y0156250D03*
X0096250Y0162500D03*
X0101870Y0179370D03*
X0105620Y0179370D03*
X0118750Y0171870D03*
X0122500Y0171870D03*
X0141250Y0172500D03*
X0141250Y0166250D03*
X0141250Y0142500D03*
X0141250Y0136250D03*
X0141250Y0112500D03*
X0141250Y0106250D03*
D14*
X0136870Y0129370D03*
X0115000Y0156250D03*
X0108750Y0156870D03*
X0108750Y0165000D03*
X0091870Y0169370D03*
X0091870Y0139370D03*
X0127500Y0171870D03*
X0136870Y0159370D03*
D16*
X0136870Y0129370D01*
X0116250Y0153750D02*
X0127500Y0165000D01*
X0127500Y0171870D01*
X0136870Y0162500D01*
X0136870Y0159370D01*
X0116250Y0153750D02*
X0111870Y0153750D01*
X0108750Y0156870D01*
X0108750Y0160240D01*
X0099610Y0169370D01*
X0091870Y0169370D01*
X0091870Y0139370D01*
X0091870Y0115620D01*
X0088750Y0112500D01*
X0115000Y0156250D02*
X0115000Y0158750D01*
X0108750Y0165000D01*
X0010000Y0195000D02*
G75*
%LPD*%
D17*
X0010000Y0195000D02*
X0010000Y0280000D01*
X0075000Y0280000D01*
X0075000Y0195000D01*
X0010000Y0195000D01*
D10*
X0015000Y0200000D03*
X0015000Y0207500D03*
X0028120Y0198750D03*
X0034370Y0198750D03*
X0024370Y0222500D03*
X0024370Y0228750D03*
X0024370Y0256250D03*
X0024370Y0262500D03*
X0038120Y0276250D03*
X0044370Y0276250D03*
X0067500Y0263120D03*
X0070620Y0257500D03*
X0069370Y0235620D03*
X0069370Y0229370D03*
X0063750Y0207500D03*
X0059370Y0202500D03*
D14*
X0051250Y0205000D03*
X0064370Y0224370D03*
X0064370Y0248750D03*
X0046870Y0268120D03*
X0019370Y0270620D03*
X0019370Y0236870D03*
D16*
X0019370Y0211870D01*
X0015000Y0207500D01*
X0019370Y0236870D02*
X0019370Y0270620D01*
X0027500Y0270620D01*
X0030000Y0268120D01*
X0046870Y0268120D01*
X0053750Y0268120D01*
X0064370Y0257500D01*
X0064370Y0248750D01*
X0064370Y0224370D01*
X0064370Y0220620D01*
X0051250Y0207500D01*
X0051250Y0205000D01*
X0082500Y0195000D02*
G75*
%LPD*%
D17*
X0082500Y0195000D02*
X0082500Y0280000D01*
X0147500Y0280000D01*
X0147500Y0195000D01*
X0082500Y0195000D01*
D10*
X0101250Y0198750D03*
X0105000Y0198750D03*
X0106250Y0213120D03*
X0103120Y0213120D03*
X0085620Y0219370D03*
X0085620Y0224370D03*
X0085620Y0242500D03*
X0085620Y0247500D03*
X0094370Y0270000D03*
X0100000Y0273750D03*
X0125000Y0275620D03*
X0128750Y0275620D03*
X0144370Y0255620D03*
X0144370Y0250000D03*
X0144370Y0231870D03*
X0144370Y0228120D03*
X0135620Y0203750D03*
X0130000Y0200620D03*
D16*
X0125000Y0204370D02*
X0136870Y0216250D01*
X0136870Y0222500D01*
X0136870Y0245000D01*
X0136870Y0261250D01*
X0130620Y0267500D01*
X0127500Y0270620D01*
X0108120Y0270620D01*
X0106870Y0270620D01*
X0093120Y0256870D01*
X0093120Y0252500D01*
X0093120Y0230000D01*
X0093120Y0220620D01*
X0100620Y0213120D01*
X0103120Y0213120D01*
X0121870Y0204370D02*
X0125000Y0204370D01*
D14*
X0121870Y0204370D03*
X0136870Y0222500D03*
X0136870Y0245000D03*
X0130620Y0267500D03*
X0108120Y0270620D03*
X0093120Y0252500D03*
X0093120Y0230000D03*
X0155000Y0195000D02*
G75*
%LPD*%
D17*
X0155000Y0195000D02*
X0155000Y0280000D01*
X0220000Y0280000D01*
X0220000Y0195000D01*
X0155000Y0195000D01*
D10*
X0160000Y0200000D03*
X0160000Y0207500D03*
X0173120Y0198750D03*
X0179370Y0198750D03*
X0169370Y0222500D03*
X0169370Y0228750D03*
X0169370Y0256250D03*
X0169370Y0262500D03*
X0183120Y0276250D03*
X0189370Y0276250D03*
X0212500Y0263120D03*
X0215620Y0257500D03*
X0214370Y0235620D03*
X0214370Y0229370D03*
X0208750Y0207500D03*
X0204370Y0202500D03*
D14*
X0196250Y0205000D03*
X0209370Y0224370D03*
X0209370Y0248750D03*
X0191870Y0268120D03*
X0164370Y0270620D03*
X0164370Y0236870D03*
D16*
X0164370Y0211870D01*
X0160000Y0207500D01*
X0164370Y0236870D02*
X0164370Y0270620D01*
X0172500Y0270620D01*
X0175000Y0268120D01*
X0191870Y0268120D01*
X0198750Y0268120D01*
X0209370Y0257500D01*
X0209370Y0248750D01*
X0209370Y0224370D01*
X0209370Y0220620D01*
X0196250Y0207500D01*
X0196250Y0205000D01*
X0227500Y0195000D02*
G75*
%LPD*%
D17*
X0227500Y0195000D02*
X0227500Y0280000D01*
X0292500Y0280000D01*
X0292500Y0195000D01*
X0227500Y0195000D01*
D10*
X0242500Y0206870D03*
X0246250Y0205000D03*
X0253120Y0211250D03*
X0256870Y0211250D03*
X0269370Y0213120D03*
X0272500Y0215000D03*
X0279370Y0235620D03*
X0285000Y0235620D03*
X0260620Y0236250D03*
X0255620Y0236250D03*
X0238750Y0243120D03*
X0238750Y0247500D03*
X0243750Y0265620D03*
X0247500Y0268120D03*
X0265000Y0270000D03*
X0269370Y0270000D03*
X0238750Y0225000D03*
X0238750Y0220620D03*
D14*
X0236870Y0230000D03*
X0236870Y0252500D03*
X0253120Y0271870D03*
X0275620Y0268750D03*
X0280620Y0260620D03*
X0269370Y0241250D03*
X0261250Y0241250D03*
X0283120Y0226250D03*
X0269370Y0203120D03*
D16*
X0283120Y0216870D01*
X0283120Y0226250D01*
X0283120Y0227500D01*
X0269370Y0241250D01*
X0270620Y0238120D02*
X0264370Y0238120D01*
X0261250Y0241250D01*
X0270620Y0238120D02*
X0280620Y0228120D01*
X0280620Y0218120D01*
X0270620Y0208120D01*
X0249370Y0208120D01*
X0241870Y0215620D01*
X0241870Y0257500D01*
X0251250Y0266870D01*
X0273120Y0266870D01*
X0279370Y0260620D01*
X0280620Y0260620D01*
X0275620Y0268750D02*
X0271250Y0273120D01*
X0254370Y0273120D01*
X0253120Y0271870D01*
X0245000Y0271870D01*
X0236870Y0263750D01*
X0236870Y0252500D01*
X0235000Y0250620D01*
X0235000Y0231870D01*
X0236870Y0230000D01*
X0235000Y0228120D01*
X0235000Y0214370D01*
X0242500Y0206870D01*
X0246250Y0205000D02*
X0248120Y0203120D01*
X0269370Y0203120D01*
X0300000Y0195000D02*
G75*
%LPD*%
D17*
X0300000Y0195000D02*
X0300000Y0280000D01*
X0365000Y0280000D01*
X0365000Y0195000D01*
X0300000Y0195000D01*
D10*
X0308120Y0208120D03*
X0314370Y0208120D03*
X0317500Y0228120D03*
X0317500Y0231870D03*
X0335620Y0234370D03*
X0335620Y0240620D03*
X0317500Y0258120D03*
X0317500Y0261870D03*
X0325000Y0275620D03*
X0330620Y0275620D03*
X0350620Y0275620D03*
X0356870Y0275620D03*
X0340620Y0207500D03*
X0334370Y0207500D03*
X0351870Y0199370D03*
X0358120Y0199370D03*
D14*
X0328750Y0202500D03*
X0308750Y0215000D03*
X0308750Y0245000D03*
X0310000Y0270000D03*
X0336250Y0270000D03*
D16*
X0310000Y0270000D01*
X0310000Y0246250D01*
X0308750Y0245000D01*
X0308750Y0215000D01*
X0311250Y0212500D01*
X0311250Y0206250D01*
X0315000Y0202500D01*
X0328750Y0202500D01*
X0348750Y0202500D01*
X0351870Y0199370D01*
X0010000Y0287500D02*
G75*
%LPD*%
D17*
X0010000Y0287500D02*
X0010000Y0372500D01*
X0075000Y0372500D01*
X0075000Y0287500D01*
X0010000Y0287500D01*
D10*
X0018120Y0300620D03*
X0024370Y0300620D03*
X0027500Y0320620D03*
X0027500Y0324370D03*
X0045620Y0326870D03*
X0045620Y0333120D03*
X0027500Y0350620D03*
X0027500Y0354370D03*
X0035000Y0368120D03*
X0040620Y0368120D03*
X0060620Y0368120D03*
X0066870Y0368120D03*
X0050620Y0300000D03*
X0044370Y0300000D03*
X0061870Y0291870D03*
X0068120Y0291870D03*
D14*
X0038750Y0295000D03*
X0018750Y0307500D03*
X0018750Y0337500D03*
X0020000Y0362500D03*
X0046250Y0362500D03*
D16*
X0020000Y0362500D01*
X0020000Y0338750D01*
X0018750Y0337500D01*
X0018750Y0307500D01*
X0021250Y0305000D01*
X0021250Y0298750D01*
X0025000Y0295000D01*
X0038750Y0295000D01*
X0058750Y0295000D01*
X0061870Y0291870D01*
X0082500Y0287500D02*
G75*
%LPD*%
D17*
X0082500Y0287500D02*
X0082500Y0372500D01*
X0147500Y0372500D01*
X0147500Y0287500D01*
X0082500Y0287500D01*
D10*
X0088750Y0291250D03*
X0088750Y0297500D03*
X0096250Y0311250D03*
X0096250Y0317500D03*
X0096250Y0341250D03*
X0096250Y0347500D03*
X0101870Y0364370D03*
X0105620Y0364370D03*
X0118750Y0356870D03*
X0122500Y0356870D03*
X0141250Y0357500D03*
X0141250Y0351250D03*
X0141250Y0327500D03*
X0141250Y0321250D03*
X0141250Y0297500D03*
X0141250Y0291250D03*
D14*
X0136870Y0314370D03*
X0115000Y0341250D03*
X0108750Y0341870D03*
X0108750Y0350000D03*
X0091870Y0354370D03*
X0091870Y0324370D03*
X0127500Y0356870D03*
X0136870Y0344370D03*
D16*
X0136870Y0314370D01*
X0116250Y0338750D02*
X0127500Y0350000D01*
X0127500Y0356870D01*
X0136870Y0347500D01*
X0136870Y0344370D01*
X0116250Y0338750D02*
X0111870Y0338750D01*
X0108750Y0341870D01*
X0108750Y0345240D01*
X0099610Y0354370D01*
X0091870Y0354370D01*
X0091870Y0324370D01*
X0091870Y0300620D01*
X0088750Y0297500D01*
X0115000Y0341250D02*
X0115000Y0343750D01*
X0108750Y0350000D01*
M02*
