G75*
G70*
%OFA0B0*%
%FSLAX25Y25*%
%IPPOS*%
%LPD*%
%AMOC8*
5,1,8,0,0,1.08239X$1,22.5*
%
%ADD12C,0.04370*%
%ADD17C,0.00000*%
%ADD20R,0.05120X0.05120*%
X0010000Y0010000D02*
G75*
%LPD*%
D17*
X0010000Y0010000D02*
X0010000Y0095000D01*
X0075000Y0095000D01*
X0075000Y0010000D01*
X0010000Y0010000D01*
D20*
X0015860Y0018750D03*
X0024130Y0018750D03*
X0031250Y0022880D03*
X0031250Y0014610D03*
X0041250Y0014610D03*
X0041250Y0022880D03*
X0023510Y0029370D03*
X0015240Y0029370D03*
X0015240Y0040620D03*
X0023510Y0040620D03*
X0024130Y0051870D03*
X0015860Y0051870D03*
X0015860Y0063120D03*
X0024130Y0063120D03*
X0024130Y0074370D03*
X0015860Y0074370D03*
X0015860Y0085620D03*
X0024130Y0085620D03*
X0031250Y0082110D03*
X0031250Y0090380D03*
X0041250Y0090380D03*
X0041250Y0082110D03*
X0060860Y0063750D03*
X0060860Y0055620D03*
X0060860Y0047500D03*
X0060860Y0039370D03*
X0069130Y0039370D03*
X0069130Y0047500D03*
X0069130Y0055620D03*
X0069130Y0063750D03*
D20*
G36*
X0058770Y0067850D02*
X0056600Y0072480D01*
X0061230Y0074650D01*
X0063400Y0070020D01*
X0058770Y0067850D01*
G37*
G36*
X0056450Y0074080D02*
X0052830Y0077700D01*
X0056450Y0081320D01*
X0060070Y0077700D01*
X0056450Y0074080D01*
G37*
G36*
X0051990Y0078500D02*
X0047050Y0079820D01*
X0048370Y0084760D01*
X0053310Y0083440D01*
X0051990Y0078500D01*
G37*
G36*
X0054130Y0086480D02*
X0049190Y0087800D01*
X0050510Y0092740D01*
X0055450Y0091420D01*
X0054130Y0086480D01*
G37*
G36*
X0062290Y0079920D02*
X0058670Y0083540D01*
X0062290Y0087160D01*
X0065910Y0083540D01*
X0062290Y0079920D01*
G37*
G36*
X0066260Y0071340D02*
X0064090Y0075970D01*
X0068720Y0078140D01*
X0070890Y0073510D01*
X0066260Y0071340D01*
G37*
G36*
X0056440Y0031510D02*
X0058610Y0036140D01*
X0063240Y0033970D01*
X0061070Y0029340D01*
X0056440Y0031510D01*
G37*
G36*
X0051580Y0026670D02*
X0055200Y0030290D01*
X0058820Y0026670D01*
X0055200Y0023050D01*
X0051580Y0026670D01*
G37*
G36*
X0046530Y0024270D02*
X0051160Y0026440D01*
X0053330Y0021810D01*
X0048700Y0019640D01*
X0046530Y0024270D01*
G37*
G36*
X0050020Y0016780D02*
X0054650Y0018950D01*
X0056820Y0014320D01*
X0052190Y0012150D01*
X0050020Y0016780D01*
G37*
G36*
X0057420Y0020820D02*
X0061040Y0024440D01*
X0064660Y0020820D01*
X0061040Y0017200D01*
X0057420Y0020820D01*
G37*
G36*
X0063940Y0028020D02*
X0066110Y0032650D01*
X0070740Y0030480D01*
X0068570Y0025850D01*
X0063940Y0028020D01*
G37*
D12*
X0063750Y0022500D03*
X0059370Y0017500D03*
X0034370Y0013750D03*
X0028120Y0013750D03*
X0015000Y0015000D03*
X0015000Y0022500D03*
X0024370Y0037500D03*
X0024370Y0043750D03*
X0024370Y0071250D03*
X0024370Y0077500D03*
X0038120Y0091250D03*
X0044370Y0091250D03*
X0067500Y0078120D03*
X0070620Y0072500D03*
X0069370Y0050620D03*
X0069370Y0044370D03*
X0082500Y0010000D02*
G75*
%LPD*%
D17*
X0082500Y0010000D02*
X0082500Y0095000D01*
X0147500Y0095000D01*
X0147500Y0010000D01*
X0082500Y0010000D01*
D20*
X0108120Y0014610D03*
X0115000Y0014610D03*
X0121870Y0014610D03*
X0121870Y0022880D03*
X0115000Y0022880D03*
X0108120Y0022880D03*
X0096630Y0037500D03*
X0096630Y0045000D03*
X0096630Y0052500D03*
X0096630Y0060000D03*
X0096630Y0067500D03*
X0088360Y0067500D03*
X0088360Y0060000D03*
X0088360Y0052500D03*
X0088360Y0045000D03*
X0088360Y0037500D03*
X0108120Y0082110D03*
X0115000Y0082110D03*
X0121870Y0082110D03*
X0121870Y0090380D03*
X0115000Y0090380D03*
X0108120Y0090380D03*
X0133360Y0067500D03*
X0133360Y0060000D03*
X0133360Y0052500D03*
X0133360Y0045000D03*
X0133360Y0037500D03*
X0141630Y0037500D03*
X0141630Y0045000D03*
X0141630Y0052500D03*
X0141630Y0060000D03*
X0141630Y0067500D03*
D20*
G36*
X0131740Y0070690D02*
X0129180Y0075110D01*
X0133600Y0077670D01*
X0136160Y0073250D01*
X0131740Y0070690D01*
G37*
G36*
X0129480Y0076050D02*
X0125060Y0078610D01*
X0127620Y0083030D01*
X0132040Y0080470D01*
X0129480Y0076050D01*
G37*
G36*
X0138900Y0074820D02*
X0136340Y0079240D01*
X0140760Y0081800D01*
X0143320Y0077380D01*
X0138900Y0074820D01*
G37*
G36*
X0133620Y0083210D02*
X0129200Y0085770D01*
X0131760Y0090190D01*
X0136180Y0087630D01*
X0133620Y0083210D01*
G37*
G36*
X0104930Y0078610D02*
X0100510Y0076050D01*
X0097950Y0080470D01*
X0102370Y0083030D01*
X0104930Y0078610D01*
G37*
G36*
X0100820Y0075110D02*
X0098260Y0070690D01*
X0093840Y0073250D01*
X0096400Y0077670D01*
X0100820Y0075110D01*
G37*
G36*
X0093660Y0079240D02*
X0091100Y0074820D01*
X0086680Y0077380D01*
X0089240Y0081800D01*
X0093660Y0079240D01*
G37*
G36*
X0100790Y0085770D02*
X0096370Y0083210D01*
X0093810Y0087630D01*
X0098230Y0090190D01*
X0100790Y0085770D01*
G37*
G36*
X0098260Y0033680D02*
X0100820Y0029260D01*
X0096400Y0026700D01*
X0093840Y0031120D01*
X0098260Y0033680D01*
G37*
G36*
X0091100Y0029540D02*
X0093660Y0025120D01*
X0089240Y0022560D01*
X0086680Y0026980D01*
X0091100Y0029540D01*
G37*
G36*
X0100510Y0028320D02*
X0104930Y0025760D01*
X0102370Y0021340D01*
X0097950Y0023900D01*
X0100510Y0028320D01*
G37*
G36*
X0096370Y0021160D02*
X0100790Y0018600D01*
X0098230Y0014180D01*
X0093810Y0016740D01*
X0096370Y0021160D01*
G37*
G36*
X0125060Y0025760D02*
X0129480Y0028320D01*
X0132040Y0023900D01*
X0127620Y0021340D01*
X0125060Y0025760D01*
G37*
G36*
X0129180Y0029260D02*
X0131740Y0033680D01*
X0136160Y0031120D01*
X0133600Y0026700D01*
X0129180Y0029260D01*
G37*
G36*
X0136340Y0025120D02*
X0138900Y0029540D01*
X0143320Y0026980D01*
X0140760Y0022560D01*
X0136340Y0025120D01*
G37*
G36*
X0129200Y0018600D02*
X0133620Y0021160D01*
X0136180Y0016740D01*
X0131760Y0014180D01*
X0129200Y0018600D01*
G37*
D12*
X0130000Y0015620D03*
X0135620Y0018750D03*
X0144370Y0043120D03*
X0144370Y0046870D03*
X0144370Y0065000D03*
X0144370Y0070620D03*
X0128750Y0090620D03*
X0125000Y0090620D03*
X0100000Y0088750D03*
X0094370Y0085000D03*
X0085620Y0062500D03*
X0085620Y0057500D03*
X0085620Y0039370D03*
X0085620Y0034370D03*
X0103120Y0028120D03*
X0106250Y0028120D03*
X0105000Y0013750D03*
X0101250Y0013750D03*
X0155000Y0010000D02*
G75*
%LPD*%
D17*
X0155000Y0010000D02*
X0155000Y0095000D01*
X0220000Y0095000D01*
X0220000Y0010000D01*
X0155000Y0010000D01*
D20*
X0160860Y0018750D03*
X0169130Y0018750D03*
X0176250Y0022880D03*
X0176250Y0014610D03*
X0186250Y0014610D03*
X0186250Y0022880D03*
X0168510Y0029370D03*
X0160240Y0029370D03*
X0160240Y0040620D03*
X0168510Y0040620D03*
X0169130Y0051870D03*
X0160860Y0051870D03*
X0160860Y0063120D03*
X0169130Y0063120D03*
X0169130Y0074370D03*
X0160860Y0074370D03*
X0160860Y0085620D03*
X0169130Y0085620D03*
X0176250Y0082110D03*
X0176250Y0090380D03*
X0186250Y0090380D03*
X0186250Y0082110D03*
X0205860Y0063750D03*
X0205860Y0055620D03*
X0205860Y0047500D03*
X0205860Y0039370D03*
X0214130Y0039370D03*
X0214130Y0047500D03*
X0214130Y0055620D03*
X0214130Y0063750D03*
D20*
G36*
X0203770Y0067850D02*
X0201600Y0072480D01*
X0206230Y0074650D01*
X0208400Y0070020D01*
X0203770Y0067850D01*
G37*
G36*
X0201450Y0074080D02*
X0197830Y0077700D01*
X0201450Y0081320D01*
X0205070Y0077700D01*
X0201450Y0074080D01*
G37*
G36*
X0196990Y0078500D02*
X0192050Y0079820D01*
X0193370Y0084760D01*
X0198310Y0083440D01*
X0196990Y0078500D01*
G37*
G36*
X0199130Y0086480D02*
X0194190Y0087800D01*
X0195510Y0092740D01*
X0200450Y0091420D01*
X0199130Y0086480D01*
G37*
G36*
X0207290Y0079920D02*
X0203670Y0083540D01*
X0207290Y0087160D01*
X0210910Y0083540D01*
X0207290Y0079920D01*
G37*
G36*
X0211260Y0071340D02*
X0209090Y0075970D01*
X0213720Y0078140D01*
X0215890Y0073510D01*
X0211260Y0071340D01*
G37*
G36*
X0201440Y0031510D02*
X0203610Y0036140D01*
X0208240Y0033970D01*
X0206070Y0029340D01*
X0201440Y0031510D01*
G37*
G36*
X0196580Y0026670D02*
X0200200Y0030290D01*
X0203820Y0026670D01*
X0200200Y0023050D01*
X0196580Y0026670D01*
G37*
G36*
X0191530Y0024270D02*
X0196160Y0026440D01*
X0198330Y0021810D01*
X0193700Y0019640D01*
X0191530Y0024270D01*
G37*
G36*
X0195020Y0016780D02*
X0199650Y0018950D01*
X0201820Y0014320D01*
X0197190Y0012150D01*
X0195020Y0016780D01*
G37*
G36*
X0202420Y0020820D02*
X0206040Y0024440D01*
X0209660Y0020820D01*
X0206040Y0017200D01*
X0202420Y0020820D01*
G37*
G36*
X0208940Y0028020D02*
X0211110Y0032650D01*
X0215740Y0030480D01*
X0213570Y0025850D01*
X0208940Y0028020D01*
G37*
D12*
X0208750Y0022500D03*
X0204370Y0017500D03*
X0179370Y0013750D03*
X0173120Y0013750D03*
X0160000Y0015000D03*
X0160000Y0022500D03*
X0169370Y0037500D03*
X0169370Y0043750D03*
X0169370Y0071250D03*
X0169370Y0077500D03*
X0183120Y0091250D03*
X0189370Y0091250D03*
X0212500Y0078120D03*
X0215620Y0072500D03*
X0214370Y0050620D03*
X0214370Y0044370D03*
X0227500Y0010000D02*
G75*
%LPD*%
D17*
X0227500Y0010000D02*
X0227500Y0095000D01*
X0292500Y0095000D01*
X0292500Y0010000D01*
X0227500Y0010000D01*
D20*
X0233360Y0037500D03*
X0233360Y0045000D03*
X0233360Y0052500D03*
X0233360Y0060000D03*
X0233360Y0067500D03*
X0241630Y0067500D03*
X0241630Y0060000D03*
X0241630Y0052500D03*
X0241630Y0045000D03*
X0241630Y0037500D03*
X0254370Y0022880D03*
X0261870Y0022880D03*
X0269370Y0022880D03*
X0269370Y0014610D03*
X0261870Y0014610D03*
X0254370Y0014610D03*
X0278360Y0041250D03*
X0281870Y0047740D03*
X0286630Y0041250D03*
X0274370Y0047870D03*
X0266250Y0048360D03*
X0258120Y0048360D03*
X0258120Y0056630D03*
X0266250Y0056630D03*
X0274370Y0056140D03*
X0281870Y0056010D03*
X0266870Y0082110D03*
X0260000Y0082110D03*
X0253120Y0082110D03*
X0253120Y0090380D03*
X0260000Y0090380D03*
X0266870Y0090380D03*
D20*
G36*
X0276130Y0090190D02*
X0280550Y0087630D01*
X0277990Y0083210D01*
X0273570Y0085770D01*
X0276130Y0090190D01*
G37*
G36*
X0272000Y0083030D02*
X0276420Y0080470D01*
X0273860Y0076050D01*
X0269440Y0078610D01*
X0272000Y0083030D01*
G37*
G36*
X0278600Y0077670D02*
X0281160Y0073250D01*
X0276740Y0070690D01*
X0274180Y0075110D01*
X0278600Y0077670D01*
G37*
G36*
X0285760Y0081800D02*
X0288320Y0077380D01*
X0283900Y0074820D01*
X0281340Y0079240D01*
X0285760Y0081800D01*
G37*
G36*
X0243570Y0080470D02*
X0247990Y0083030D01*
X0250550Y0078610D01*
X0246130Y0076050D01*
X0243570Y0080470D01*
G37*
G36*
X0238840Y0073250D02*
X0241400Y0077670D01*
X0245820Y0075110D01*
X0243260Y0070690D01*
X0238840Y0073250D01*
G37*
G36*
X0231680Y0077380D02*
X0234240Y0081800D01*
X0238660Y0079240D01*
X0236100Y0074820D01*
X0231680Y0077380D01*
G37*
G36*
X0239440Y0087630D02*
X0243860Y0090190D01*
X0246420Y0085770D01*
X0242000Y0083210D01*
X0239440Y0087630D01*
G37*
G36*
X0280540Y0035310D02*
X0279220Y0030370D01*
X0274280Y0031690D01*
X0275600Y0036630D01*
X0280540Y0035310D01*
G37*
G36*
X0288520Y0033170D02*
X0287200Y0028230D01*
X0282260Y0029550D01*
X0283580Y0034490D01*
X0288520Y0033170D01*
G37*
G36*
X0283950Y0020920D02*
X0280330Y0017300D01*
X0276710Y0020920D01*
X0280330Y0024540D01*
X0283950Y0020920D01*
G37*
G36*
X0278110Y0026770D02*
X0274490Y0023150D01*
X0270870Y0026770D01*
X0274490Y0030390D01*
X0278110Y0026770D01*
G37*
G36*
X0247990Y0021960D02*
X0243570Y0024520D01*
X0246130Y0028940D01*
X0250550Y0026380D01*
X0247990Y0021960D01*
G37*
G36*
X0243860Y0014800D02*
X0239440Y0017360D01*
X0242000Y0021780D01*
X0246420Y0019220D01*
X0243860Y0014800D01*
G37*
G36*
X0234240Y0022560D02*
X0231680Y0026980D01*
X0236100Y0029540D01*
X0238660Y0025120D01*
X0234240Y0022560D01*
G37*
G36*
X0241400Y0026700D02*
X0238840Y0031120D01*
X0243260Y0033680D01*
X0245820Y0029260D01*
X0241400Y0026700D01*
G37*
D12*
X0242500Y0021870D03*
X0246250Y0020000D03*
X0253120Y0026250D03*
X0256870Y0026250D03*
X0269370Y0028120D03*
X0272500Y0030000D03*
X0279370Y0050620D03*
X0285000Y0050620D03*
X0260620Y0051250D03*
X0255620Y0051250D03*
X0238750Y0058120D03*
X0238750Y0062500D03*
X0243750Y0080620D03*
X0247500Y0083120D03*
X0265000Y0085000D03*
X0269370Y0085000D03*
X0238750Y0040000D03*
X0238750Y0035620D03*
X0300000Y0010000D02*
G75*
%LPD*%
D17*
X0300000Y0010000D02*
X0300000Y0095000D01*
X0365000Y0095000D01*
X0365000Y0010000D01*
X0300000Y0010000D01*
D20*
X0311250Y0014610D03*
X0311250Y0022880D03*
X0314130Y0030000D03*
X0314130Y0037500D03*
X0314130Y0045000D03*
X0314130Y0052500D03*
X0316490Y0052500D03*
X0314130Y0060000D03*
X0314130Y0067500D03*
X0314130Y0075000D03*
X0310000Y0082110D03*
X0305860Y0075000D03*
X0305860Y0067500D03*
X0305860Y0060000D03*
X0305860Y0052500D03*
X0305860Y0045000D03*
X0305860Y0037500D03*
X0305860Y0030000D03*
X0320000Y0022880D03*
X0320000Y0014610D03*
X0328750Y0014610D03*
X0328750Y0022880D03*
X0337500Y0022880D03*
X0337500Y0014610D03*
X0346250Y0014610D03*
X0346250Y0022880D03*
X0355000Y0022880D03*
X0355000Y0014610D03*
X0334760Y0052500D03*
X0326490Y0052500D03*
X0324760Y0052500D03*
X0327500Y0082110D03*
X0327500Y0090380D03*
X0318750Y0090380D03*
X0318750Y0082110D03*
X0310000Y0090380D03*
X0336250Y0090380D03*
X0336250Y0082110D03*
X0345000Y0082110D03*
X0345000Y0090380D03*
X0353750Y0090380D03*
X0353750Y0082110D03*
D12*
X0356870Y0090620D03*
X0350620Y0090620D03*
X0330620Y0090620D03*
X0325000Y0090620D03*
X0317500Y0076870D03*
X0317500Y0073120D03*
X0335620Y0055620D03*
X0335620Y0049370D03*
X0317500Y0046870D03*
X0317500Y0043120D03*
X0314370Y0023120D03*
X0308120Y0023120D03*
X0334370Y0022500D03*
X0340620Y0022500D03*
X0351870Y0014370D03*
X0358120Y0014370D03*
X0010000Y0102500D02*
G75*
%LPD*%
D17*
X0010000Y0102500D02*
X0010000Y0187500D01*
X0075000Y0187500D01*
X0075000Y0102500D01*
X0010000Y0102500D01*
D20*
X0021250Y0107110D03*
X0021250Y0115380D03*
X0024130Y0122500D03*
X0024130Y0130000D03*
X0024130Y0137500D03*
X0024130Y0145000D03*
X0026490Y0145000D03*
X0024130Y0152500D03*
X0024130Y0160000D03*
X0024130Y0167500D03*
X0020000Y0174610D03*
X0015860Y0167500D03*
X0015860Y0160000D03*
X0015860Y0152500D03*
X0015860Y0145000D03*
X0015860Y0137500D03*
X0015860Y0130000D03*
X0015860Y0122500D03*
X0030000Y0115380D03*
X0030000Y0107110D03*
X0038750Y0107110D03*
X0038750Y0115380D03*
X0047500Y0115380D03*
X0047500Y0107110D03*
X0056250Y0107110D03*
X0056250Y0115380D03*
X0065000Y0115380D03*
X0065000Y0107110D03*
X0044760Y0145000D03*
X0036490Y0145000D03*
X0034760Y0145000D03*
X0037500Y0174610D03*
X0037500Y0182880D03*
X0028750Y0182880D03*
X0028750Y0174610D03*
X0020000Y0182880D03*
X0046250Y0182880D03*
X0046250Y0174610D03*
X0055000Y0174610D03*
X0055000Y0182880D03*
X0063750Y0182880D03*
X0063750Y0174610D03*
D12*
X0066870Y0183120D03*
X0060620Y0183120D03*
X0040620Y0183120D03*
X0035000Y0183120D03*
X0027500Y0169370D03*
X0027500Y0165620D03*
X0045620Y0148120D03*
X0045620Y0141870D03*
X0027500Y0139370D03*
X0027500Y0135620D03*
X0024370Y0115620D03*
X0018120Y0115620D03*
X0044370Y0115000D03*
X0050620Y0115000D03*
X0061870Y0106870D03*
X0068120Y0106870D03*
X0082500Y0102500D02*
G75*
%LPD*%
D17*
X0082500Y0102500D02*
X0082500Y0187500D01*
X0147500Y0187500D01*
X0147500Y0102500D01*
X0082500Y0102500D01*
D20*
X0088360Y0109370D03*
X0096630Y0109370D03*
X0096630Y0119370D03*
X0088360Y0119370D03*
X0088360Y0129370D03*
X0096630Y0129370D03*
X0096630Y0139370D03*
X0088360Y0139370D03*
X0088360Y0149370D03*
X0096630Y0149370D03*
X0096630Y0159370D03*
X0088360Y0159370D03*
X0088360Y0169370D03*
X0096630Y0169370D03*
X0102500Y0167740D03*
X0108750Y0168510D03*
X0102500Y0176010D03*
X0096630Y0179370D03*
X0088360Y0179370D03*
X0108750Y0160240D03*
X0115000Y0161010D03*
X0121250Y0160240D03*
X0121250Y0168510D03*
X0127500Y0168360D03*
X0133360Y0169370D03*
X0127500Y0176630D03*
X0133360Y0179370D03*
X0141630Y0179370D03*
X0141630Y0169370D03*
X0141630Y0159370D03*
X0133360Y0159370D03*
X0133360Y0149370D03*
X0141630Y0149370D03*
X0141630Y0139370D03*
X0133360Y0139370D03*
X0133360Y0129370D03*
X0141630Y0129370D03*
X0141630Y0119370D03*
X0133360Y0119370D03*
X0133360Y0109370D03*
X0141630Y0109370D03*
X0115000Y0152740D03*
D12*
X0096250Y0156250D03*
X0096250Y0162500D03*
X0101870Y0179370D03*
X0105620Y0179370D03*
X0118750Y0171870D03*
X0122500Y0171870D03*
X0141250Y0172500D03*
X0141250Y0166250D03*
X0141250Y0142500D03*
X0141250Y0136250D03*
X0141250Y0112500D03*
X0141250Y0106250D03*
X0096250Y0126250D03*
X0096250Y0132500D03*
X0088750Y0112500D03*
X0088750Y0106250D03*
X0010000Y0195000D02*
G75*
%LPD*%
D17*
X0010000Y0195000D02*
X0010000Y0280000D01*
X0075000Y0280000D01*
X0075000Y0195000D01*
X0010000Y0195000D01*
D20*
X0015860Y0203750D03*
X0024130Y0203750D03*
X0031250Y0207880D03*
X0031250Y0199610D03*
X0041250Y0199610D03*
X0041250Y0207880D03*
X0023510Y0214370D03*
X0015240Y0214370D03*
X0015240Y0225620D03*
X0023510Y0225620D03*
X0024130Y0236870D03*
X0015860Y0236870D03*
X0015860Y0248120D03*
X0024130Y0248120D03*
X0024130Y0259370D03*
X0015860Y0259370D03*
X0015860Y0270620D03*
X0024130Y0270620D03*
X0031250Y0267110D03*
X0031250Y0275380D03*
X0041250Y0275380D03*
X0041250Y0267110D03*
X0060860Y0248750D03*
X0060860Y0240620D03*
X0060860Y0232500D03*
X0060860Y0224370D03*
X0069130Y0224370D03*
X0069130Y0232500D03*
X0069130Y0240620D03*
X0069130Y0248750D03*
D20*
G36*
X0058770Y0252850D02*
X0056600Y0257480D01*
X0061230Y0259650D01*
X0063400Y0255020D01*
X0058770Y0252850D01*
G37*
G36*
X0056450Y0259080D02*
X0052830Y0262700D01*
X0056450Y0266320D01*
X0060070Y0262700D01*
X0056450Y0259080D01*
G37*
G36*
X0051990Y0263500D02*
X0047050Y0264820D01*
X0048370Y0269760D01*
X0053310Y0268440D01*
X0051990Y0263500D01*
G37*
G36*
X0054130Y0271480D02*
X0049190Y0272800D01*
X0050510Y0277740D01*
X0055450Y0276420D01*
X0054130Y0271480D01*
G37*
G36*
X0062290Y0264920D02*
X0058670Y0268540D01*
X0062290Y0272160D01*
X0065910Y0268540D01*
X0062290Y0264920D01*
G37*
G36*
X0066260Y0256340D02*
X0064090Y0260970D01*
X0068720Y0263140D01*
X0070890Y0258510D01*
X0066260Y0256340D01*
G37*
G36*
X0056440Y0216510D02*
X0058610Y0221140D01*
X0063240Y0218970D01*
X0061070Y0214340D01*
X0056440Y0216510D01*
G37*
G36*
X0051580Y0211670D02*
X0055200Y0215290D01*
X0058820Y0211670D01*
X0055200Y0208050D01*
X0051580Y0211670D01*
G37*
G36*
X0046530Y0209270D02*
X0051160Y0211440D01*
X0053330Y0206810D01*
X0048700Y0204640D01*
X0046530Y0209270D01*
G37*
G36*
X0050020Y0201780D02*
X0054650Y0203950D01*
X0056820Y0199320D01*
X0052190Y0197150D01*
X0050020Y0201780D01*
G37*
G36*
X0057420Y0205820D02*
X0061040Y0209440D01*
X0064660Y0205820D01*
X0061040Y0202200D01*
X0057420Y0205820D01*
G37*
G36*
X0063940Y0213020D02*
X0066110Y0217650D01*
X0070740Y0215480D01*
X0068570Y0210850D01*
X0063940Y0213020D01*
G37*
D12*
X0063750Y0207500D03*
X0059370Y0202500D03*
X0034370Y0198750D03*
X0028120Y0198750D03*
X0015000Y0200000D03*
X0015000Y0207500D03*
X0024370Y0222500D03*
X0024370Y0228750D03*
X0024370Y0256250D03*
X0024370Y0262500D03*
X0038120Y0276250D03*
X0044370Y0276250D03*
X0067500Y0263120D03*
X0070620Y0257500D03*
X0069370Y0235620D03*
X0069370Y0229370D03*
X0082500Y0195000D02*
G75*
%LPD*%
D17*
X0082500Y0195000D02*
X0082500Y0280000D01*
X0147500Y0280000D01*
X0147500Y0195000D01*
X0082500Y0195000D01*
D20*
X0108120Y0199610D03*
X0115000Y0199610D03*
X0121870Y0199610D03*
X0121870Y0207880D03*
X0115000Y0207880D03*
X0108120Y0207880D03*
X0096630Y0222500D03*
X0096630Y0230000D03*
X0096630Y0237500D03*
X0096630Y0245000D03*
X0096630Y0252500D03*
X0088360Y0252500D03*
X0088360Y0245000D03*
X0088360Y0237500D03*
X0088360Y0230000D03*
X0088360Y0222500D03*
X0108120Y0267110D03*
X0115000Y0267110D03*
X0121870Y0267110D03*
X0121870Y0275380D03*
X0115000Y0275380D03*
X0108120Y0275380D03*
X0133360Y0252500D03*
X0133360Y0245000D03*
X0133360Y0237500D03*
X0133360Y0230000D03*
X0133360Y0222500D03*
X0141630Y0222500D03*
X0141630Y0230000D03*
X0141630Y0237500D03*
X0141630Y0245000D03*
X0141630Y0252500D03*
D20*
G36*
X0131740Y0255690D02*
X0129180Y0260110D01*
X0133600Y0262670D01*
X0136160Y0258250D01*
X0131740Y0255690D01*
G37*
G36*
X0129480Y0261050D02*
X0125060Y0263610D01*
X0127620Y0268030D01*
X0132040Y0265470D01*
X0129480Y0261050D01*
G37*
G36*
X0138900Y0259820D02*
X0136340Y0264240D01*
X0140760Y0266800D01*
X0143320Y0262380D01*
X0138900Y0259820D01*
G37*
G36*
X0133620Y0268210D02*
X0129200Y0270770D01*
X0131760Y0275190D01*
X0136180Y0272630D01*
X0133620Y0268210D01*
G37*
G36*
X0104930Y0263610D02*
X0100510Y0261050D01*
X0097950Y0265470D01*
X0102370Y0268030D01*
X0104930Y0263610D01*
G37*
G36*
X0100820Y0260110D02*
X0098260Y0255690D01*
X0093840Y0258250D01*
X0096400Y0262670D01*
X0100820Y0260110D01*
G37*
G36*
X0093660Y0264240D02*
X0091100Y0259820D01*
X0086680Y0262380D01*
X0089240Y0266800D01*
X0093660Y0264240D01*
G37*
G36*
X0100790Y0270770D02*
X0096370Y0268210D01*
X0093810Y0272630D01*
X0098230Y0275190D01*
X0100790Y0270770D01*
G37*
G36*
X0098260Y0218680D02*
X0100820Y0214260D01*
X0096400Y0211700D01*
X0093840Y0216120D01*
X0098260Y0218680D01*
G37*
G36*
X0091100Y0214540D02*
X0093660Y0210120D01*
X0089240Y0207560D01*
X0086680Y0211980D01*
X0091100Y0214540D01*
G37*
G36*
X0100510Y0213320D02*
X0104930Y0210760D01*
X0102370Y0206340D01*
X0097950Y0208900D01*
X0100510Y0213320D01*
G37*
G36*
X0096370Y0206160D02*
X0100790Y0203600D01*
X0098230Y0199180D01*
X0093810Y0201740D01*
X0096370Y0206160D01*
G37*
G36*
X0125060Y0210760D02*
X0129480Y0213320D01*
X0132040Y0208900D01*
X0127620Y0206340D01*
X0125060Y0210760D01*
G37*
G36*
X0129180Y0214260D02*
X0131740Y0218680D01*
X0136160Y0216120D01*
X0133600Y0211700D01*
X0129180Y0214260D01*
G37*
G36*
X0136340Y0210120D02*
X0138900Y0214540D01*
X0143320Y0211980D01*
X0140760Y0207560D01*
X0136340Y0210120D01*
G37*
G36*
X0129200Y0203600D02*
X0133620Y0206160D01*
X0136180Y0201740D01*
X0131760Y0199180D01*
X0129200Y0203600D01*
G37*
D12*
X0130000Y0200620D03*
X0135620Y0203750D03*
X0144370Y0228120D03*
X0144370Y0231870D03*
X0144370Y0250000D03*
X0144370Y0255620D03*
X0128750Y0275620D03*
X0125000Y0275620D03*
X0100000Y0273750D03*
X0094370Y0270000D03*
X0085620Y0247500D03*
X0085620Y0242500D03*
X0085620Y0224370D03*
X0085620Y0219370D03*
X0103120Y0213120D03*
X0106250Y0213120D03*
X0105000Y0198750D03*
X0101250Y0198750D03*
X0155000Y0195000D02*
G75*
%LPD*%
D17*
X0155000Y0195000D02*
X0155000Y0280000D01*
X0220000Y0280000D01*
X0220000Y0195000D01*
X0155000Y0195000D01*
D20*
X0160860Y0203750D03*
X0169130Y0203750D03*
X0176250Y0207880D03*
X0176250Y0199610D03*
X0186250Y0199610D03*
X0186250Y0207880D03*
X0168510Y0214370D03*
X0160240Y0214370D03*
X0160240Y0225620D03*
X0168510Y0225620D03*
X0169130Y0236870D03*
X0160860Y0236870D03*
X0160860Y0248120D03*
X0169130Y0248120D03*
X0169130Y0259370D03*
X0160860Y0259370D03*
X0160860Y0270620D03*
X0169130Y0270620D03*
X0176250Y0267110D03*
X0176250Y0275380D03*
X0186250Y0275380D03*
X0186250Y0267110D03*
X0205860Y0248750D03*
X0205860Y0240620D03*
X0205860Y0232500D03*
X0205860Y0224370D03*
X0214130Y0224370D03*
X0214130Y0232500D03*
X0214130Y0240620D03*
X0214130Y0248750D03*
D20*
G36*
X0203770Y0252850D02*
X0201600Y0257480D01*
X0206230Y0259650D01*
X0208400Y0255020D01*
X0203770Y0252850D01*
G37*
G36*
X0201450Y0259080D02*
X0197830Y0262700D01*
X0201450Y0266320D01*
X0205070Y0262700D01*
X0201450Y0259080D01*
G37*
G36*
X0196990Y0263500D02*
X0192050Y0264820D01*
X0193370Y0269760D01*
X0198310Y0268440D01*
X0196990Y0263500D01*
G37*
G36*
X0199130Y0271480D02*
X0194190Y0272800D01*
X0195510Y0277740D01*
X0200450Y0276420D01*
X0199130Y0271480D01*
G37*
G36*
X0207290Y0264920D02*
X0203670Y0268540D01*
X0207290Y0272160D01*
X0210910Y0268540D01*
X0207290Y0264920D01*
G37*
G36*
X0211260Y0256340D02*
X0209090Y0260970D01*
X0213720Y0263140D01*
X0215890Y0258510D01*
X0211260Y0256340D01*
G37*
G36*
X0201440Y0216510D02*
X0203610Y0221140D01*
X0208240Y0218970D01*
X0206070Y0214340D01*
X0201440Y0216510D01*
G37*
G36*
X0196580Y0211670D02*
X0200200Y0215290D01*
X0203820Y0211670D01*
X0200200Y0208050D01*
X0196580Y0211670D01*
G37*
G36*
X0191530Y0209270D02*
X0196160Y0211440D01*
X0198330Y0206810D01*
X0193700Y0204640D01*
X0191530Y0209270D01*
G37*
G36*
X0195020Y0201780D02*
X0199650Y0203950D01*
X0201820Y0199320D01*
X0197190Y0197150D01*
X0195020Y0201780D01*
G37*
G36*
X0202420Y0205820D02*
X0206040Y0209440D01*
X0209660Y0205820D01*
X0206040Y0202200D01*
X0202420Y0205820D01*
G37*
G36*
X0208940Y0213020D02*
X0211110Y0217650D01*
X0215740Y0215480D01*
X0213570Y0210850D01*
X0208940Y0213020D01*
G37*
D12*
X0208750Y0207500D03*
X0204370Y0202500D03*
X0179370Y0198750D03*
X0173120Y0198750D03*
X0160000Y0200000D03*
X0160000Y0207500D03*
X0169370Y0222500D03*
X0169370Y0228750D03*
X0169370Y0256250D03*
X0169370Y0262500D03*
X0183120Y0276250D03*
X0189370Y0276250D03*
X0212500Y0263120D03*
X0215620Y0257500D03*
X0214370Y0235620D03*
X0214370Y0229370D03*
X0227500Y0195000D02*
G75*
%LPD*%
D17*
X0227500Y0195000D02*
X0227500Y0280000D01*
X0292500Y0280000D01*
X0292500Y0195000D01*
X0227500Y0195000D01*
D20*
X0233360Y0222500D03*
X0233360Y0230000D03*
X0233360Y0237500D03*
X0233360Y0245000D03*
X0233360Y0252500D03*
X0241630Y0252500D03*
X0241630Y0245000D03*
X0241630Y0237500D03*
X0241630Y0230000D03*
X0241630Y0222500D03*
X0254370Y0207880D03*
X0261870Y0207880D03*
X0269370Y0207880D03*
X0269370Y0199610D03*
X0261870Y0199610D03*
X0254370Y0199610D03*
X0278360Y0226250D03*
X0281870Y0232740D03*
X0286630Y0226250D03*
X0274370Y0232870D03*
X0266250Y0233360D03*
X0258120Y0233360D03*
X0258120Y0241630D03*
X0266250Y0241630D03*
X0274370Y0241140D03*
X0281870Y0241010D03*
X0266870Y0267110D03*
X0260000Y0267110D03*
X0253120Y0267110D03*
X0253120Y0275380D03*
X0260000Y0275380D03*
X0266870Y0275380D03*
D20*
G36*
X0276130Y0275190D02*
X0280550Y0272630D01*
X0277990Y0268210D01*
X0273570Y0270770D01*
X0276130Y0275190D01*
G37*
G36*
X0272000Y0268030D02*
X0276420Y0265470D01*
X0273860Y0261050D01*
X0269440Y0263610D01*
X0272000Y0268030D01*
G37*
G36*
X0278600Y0262670D02*
X0281160Y0258250D01*
X0276740Y0255690D01*
X0274180Y0260110D01*
X0278600Y0262670D01*
G37*
G36*
X0285760Y0266800D02*
X0288320Y0262380D01*
X0283900Y0259820D01*
X0281340Y0264240D01*
X0285760Y0266800D01*
G37*
G36*
X0243570Y0265470D02*
X0247990Y0268030D01*
X0250550Y0263610D01*
X0246130Y0261050D01*
X0243570Y0265470D01*
G37*
G36*
X0238840Y0258250D02*
X0241400Y0262670D01*
X0245820Y0260110D01*
X0243260Y0255690D01*
X0238840Y0258250D01*
G37*
G36*
X0231680Y0262380D02*
X0234240Y0266800D01*
X0238660Y0264240D01*
X0236100Y0259820D01*
X0231680Y0262380D01*
G37*
G36*
X0239440Y0272630D02*
X0243860Y0275190D01*
X0246420Y0270770D01*
X0242000Y0268210D01*
X0239440Y0272630D01*
G37*
G36*
X0280540Y0220310D02*
X0279220Y0215370D01*
X0274280Y0216690D01*
X0275600Y0221630D01*
X0280540Y0220310D01*
G37*
G36*
X0288520Y0218170D02*
X0287200Y0213230D01*
X0282260Y0214550D01*
X0283580Y0219490D01*
X0288520Y0218170D01*
G37*
G36*
X0283950Y0205920D02*
X0280330Y0202300D01*
X0276710Y0205920D01*
X0280330Y0209540D01*
X0283950Y0205920D01*
G37*
G36*
X0278110Y0211770D02*
X0274490Y0208150D01*
X0270870Y0211770D01*
X0274490Y0215390D01*
X0278110Y0211770D01*
G37*
G36*
X0247990Y0206960D02*
X0243570Y0209520D01*
X0246130Y0213940D01*
X0250550Y0211380D01*
X0247990Y0206960D01*
G37*
G36*
X0243860Y0199800D02*
X0239440Y0202360D01*
X0242000Y0206780D01*
X0246420Y0204220D01*
X0243860Y0199800D01*
G37*
G36*
X0234240Y0207560D02*
X0231680Y0211980D01*
X0236100Y0214540D01*
X0238660Y0210120D01*
X0234240Y0207560D01*
G37*
G36*
X0241400Y0211700D02*
X0238840Y0216120D01*
X0243260Y0218680D01*
X0245820Y0214260D01*
X0241400Y0211700D01*
G37*
D12*
X0242500Y0206870D03*
X0246250Y0205000D03*
X0253120Y0211250D03*
X0256870Y0211250D03*
X0269370Y0213120D03*
X0272500Y0215000D03*
X0279370Y0235620D03*
X0285000Y0235620D03*
X0260620Y0236250D03*
X0255620Y0236250D03*
X0238750Y0243120D03*
X0238750Y0247500D03*
X0243750Y0265620D03*
X0247500Y0268120D03*
X0265000Y0270000D03*
X0269370Y0270000D03*
X0238750Y0225000D03*
X0238750Y0220620D03*
X0300000Y0195000D02*
G75*
%LPD*%
D17*
X0300000Y0195000D02*
X0300000Y0280000D01*
X0365000Y0280000D01*
X0365000Y0195000D01*
X0300000Y0195000D01*
D20*
X0311250Y0199610D03*
X0311250Y0207880D03*
X0314130Y0215000D03*
X0314130Y0222500D03*
X0314130Y0230000D03*
X0314130Y0237500D03*
X0316490Y0237500D03*
X0314130Y0245000D03*
X0314130Y0252500D03*
X0314130Y0260000D03*
X0310000Y0267110D03*
X0305860Y0260000D03*
X0305860Y0252500D03*
X0305860Y0245000D03*
X0305860Y0237500D03*
X0305860Y0230000D03*
X0305860Y0222500D03*
X0305860Y0215000D03*
X0320000Y0207880D03*
X0320000Y0199610D03*
X0328750Y0199610D03*
X0328750Y0207880D03*
X0337500Y0207880D03*
X0337500Y0199610D03*
X0346250Y0199610D03*
X0346250Y0207880D03*
X0355000Y0207880D03*
X0355000Y0199610D03*
X0334760Y0237500D03*
X0326490Y0237500D03*
X0324760Y0237500D03*
X0327500Y0267110D03*
X0327500Y0275380D03*
X0318750Y0275380D03*
X0318750Y0267110D03*
X0310000Y0275380D03*
X0336250Y0275380D03*
X0336250Y0267110D03*
X0345000Y0267110D03*
X0345000Y0275380D03*
X0353750Y0275380D03*
X0353750Y0267110D03*
D12*
X0356870Y0275620D03*
X0350620Y0275620D03*
X0330620Y0275620D03*
X0325000Y0275620D03*
X0317500Y0261870D03*
X0317500Y0258120D03*
X0335620Y0240620D03*
X0335620Y0234370D03*
X0317500Y0231870D03*
X0317500Y0228120D03*
X0314370Y0208120D03*
X0308120Y0208120D03*
X0334370Y0207500D03*
X0340620Y0207500D03*
X0351870Y0199370D03*
X0358120Y0199370D03*
X0010000Y0287500D02*
G75*
%LPD*%
D17*
X0010000Y0287500D02*
X0010000Y0372500D01*
X0075000Y0372500D01*
X0075000Y0287500D01*
X0010000Y0287500D01*
D20*
X0021250Y0292110D03*
X0021250Y0300380D03*
X0024130Y0307500D03*
X0024130Y0315000D03*
X0024130Y0322500D03*
X0024130Y0330000D03*
X0026490Y0330000D03*
X0024130Y0337500D03*
X0024130Y0345000D03*
X0024130Y0352500D03*
X0020000Y0359610D03*
X0015860Y0352500D03*
X0015860Y0345000D03*
X0015860Y0337500D03*
X0015860Y0330000D03*
X0015860Y0322500D03*
X0015860Y0315000D03*
X0015860Y0307500D03*
X0030000Y0300380D03*
X0030000Y0292110D03*
X0038750Y0292110D03*
X0038750Y0300380D03*
X0047500Y0300380D03*
X0047500Y0292110D03*
X0056250Y0292110D03*
X0056250Y0300380D03*
X0065000Y0300380D03*
X0065000Y0292110D03*
X0044760Y0330000D03*
X0036490Y0330000D03*
X0034760Y0330000D03*
X0037500Y0359610D03*
X0037500Y0367880D03*
X0028750Y0367880D03*
X0028750Y0359610D03*
X0020000Y0367880D03*
X0046250Y0367880D03*
X0046250Y0359610D03*
X0055000Y0359610D03*
X0055000Y0367880D03*
X0063750Y0367880D03*
X0063750Y0359610D03*
D12*
X0066870Y0368120D03*
X0060620Y0368120D03*
X0040620Y0368120D03*
X0035000Y0368120D03*
X0027500Y0354370D03*
X0027500Y0350620D03*
X0045620Y0333120D03*
X0045620Y0326870D03*
X0027500Y0324370D03*
X0027500Y0320620D03*
X0024370Y0300620D03*
X0018120Y0300620D03*
X0044370Y0300000D03*
X0050620Y0300000D03*
X0061870Y0291870D03*
X0068120Y0291870D03*
X0082500Y0287500D02*
G75*
%LPD*%
D17*
X0082500Y0287500D02*
X0082500Y0372500D01*
X0147500Y0372500D01*
X0147500Y0287500D01*
X0082500Y0287500D01*
D20*
X0088360Y0294370D03*
X0096630Y0294370D03*
X0096630Y0304370D03*
X0088360Y0304370D03*
X0088360Y0314370D03*
X0096630Y0314370D03*
X0096630Y0324370D03*
X0088360Y0324370D03*
X0088360Y0334370D03*
X0096630Y0334370D03*
X0096630Y0344370D03*
X0088360Y0344370D03*
X0088360Y0354370D03*
X0096630Y0354370D03*
X0102500Y0352740D03*
X0108750Y0353510D03*
X0102500Y0361010D03*
X0096630Y0364370D03*
X0088360Y0364370D03*
X0108750Y0345240D03*
X0115000Y0346010D03*
X0121250Y0345240D03*
X0121250Y0353510D03*
X0127500Y0353360D03*
X0133360Y0354370D03*
X0127500Y0361630D03*
X0133360Y0364370D03*
X0141630Y0364370D03*
X0141630Y0354370D03*
X0141630Y0344370D03*
X0133360Y0344370D03*
X0133360Y0334370D03*
X0141630Y0334370D03*
X0141630Y0324370D03*
X0133360Y0324370D03*
X0133360Y0314370D03*
X0141630Y0314370D03*
X0141630Y0304370D03*
X0133360Y0304370D03*
X0133360Y0294370D03*
X0141630Y0294370D03*
X0115000Y0337740D03*
D12*
X0096250Y0341250D03*
X0096250Y0347500D03*
X0101870Y0364370D03*
X0105620Y0364370D03*
X0118750Y0356870D03*
X0122500Y0356870D03*
X0141250Y0357500D03*
X0141250Y0351250D03*
X0141250Y0327500D03*
X0141250Y0321250D03*
X0141250Y0297500D03*
X0141250Y0291250D03*
X0096250Y0311250D03*
X0096250Y0317500D03*
X0088750Y0297500D03*
X0088750Y0291250D03*
M02*
