G75*
%MOIN*%
%OFA0B0*%
%FSLAX24Y24*%
%IPPOS*%
%LPD*%
%AMOC8*
5,1,8,0,0,1.08239X$1,22.5*
%
%ADD10C,0.0000*%
%ADD11C,0.0100*%
%ADD12C,0.0040*%
%ADD13C,0.0080*%
D10*
X002392Y002517D02*
X002392Y011017D01*
X008892Y011017D01*
X008892Y002517D01*
X002392Y002517D01*
D11*
X002767Y004142D02*
X004075Y002834D01*
X004387Y002704D02*
X006896Y002704D01*
X007209Y002834D02*
X008521Y004146D01*
X008579Y004286D02*
X008579Y005637D01*
X008399Y006072D02*
X007115Y007356D01*
X006877Y007454D02*
X004939Y007454D01*
X004752Y007532D02*
X004173Y008111D01*
X004079Y008336D02*
X004079Y008578D01*
X004212Y008900D02*
X004701Y009388D01*
X004860Y009454D02*
X006344Y009454D01*
X006532Y009377D02*
X007392Y008517D01*
X007428Y008479D01*
X007467Y008444D01*
X007509Y008412D01*
X007552Y008383D01*
X007598Y008358D01*
X007645Y008336D01*
X007694Y008317D01*
X007744Y008302D01*
X007795Y008291D01*
X007847Y008283D01*
X007899Y008279D01*
X007951Y008280D01*
X008004Y008283D01*
X008055Y008291D01*
X008106Y008303D01*
X008156Y008318D01*
X008205Y008337D01*
X008252Y008359D01*
X008298Y008385D01*
X008341Y008414D01*
X008383Y008446D01*
X008422Y008481D01*
X008458Y008519D01*
X008491Y008559D01*
X008521Y008602D01*
X008548Y008646D01*
X008572Y008693D01*
X008592Y008741D01*
X008609Y008791D01*
X008622Y008841D01*
X008631Y008893D01*
X008636Y008945D01*
X008638Y008997D01*
X008636Y009049D01*
X008630Y009101D01*
X008620Y009153D01*
X008606Y009203D01*
X008589Y009253D01*
X008568Y009301D01*
X008544Y009347D01*
X008517Y009391D01*
X008517Y009392D02*
X007245Y010663D01*
X006845Y010829D02*
X004542Y010829D01*
X003965Y010590D02*
X002878Y009628D01*
X002579Y009084D02*
X002579Y007880D01*
X002767Y007392D02*
X004149Y006196D01*
X004517Y006017D02*
X006142Y006017D01*
X006642Y005892D02*
X006892Y005642D01*
X007079Y005072D02*
X007079Y004880D01*
X007080Y004880D02*
X007079Y004831D01*
X007075Y004783D01*
X007068Y004734D01*
X007057Y004687D01*
X007043Y004640D01*
X007025Y004594D01*
X007005Y004550D01*
X006981Y004507D01*
X006954Y004467D01*
X006925Y004428D01*
X006892Y004391D01*
X006392Y004142D02*
X005017Y004142D01*
X004517Y004392D02*
X003892Y005017D01*
X003892Y005016D02*
X003856Y005054D01*
X003817Y005089D01*
X003775Y005121D01*
X003732Y005150D01*
X003686Y005175D01*
X003639Y005197D01*
X003590Y005216D01*
X003540Y005231D01*
X003489Y005242D01*
X003437Y005250D01*
X003385Y005254D01*
X003333Y005253D01*
X003280Y005250D01*
X003229Y005242D01*
X003178Y005230D01*
X003128Y005215D01*
X003079Y005196D01*
X003032Y005174D01*
X002986Y005148D01*
X002943Y005119D01*
X002901Y005087D01*
X002862Y005052D01*
X002826Y005014D01*
X002793Y004974D01*
X002763Y004931D01*
X002736Y004887D01*
X002712Y004840D01*
X002692Y004792D01*
X002675Y004742D01*
X002662Y004692D01*
X002653Y004640D01*
X002648Y004588D01*
X002646Y004536D01*
X002648Y004484D01*
X002654Y004432D01*
X002664Y004380D01*
X002678Y004330D01*
X002695Y004280D01*
X002716Y004232D01*
X002740Y004186D01*
X002767Y004142D01*
X004074Y002833D02*
X004103Y002807D01*
X004133Y002784D01*
X004166Y002763D01*
X004200Y002745D01*
X004236Y002731D01*
X004273Y002719D01*
X004310Y002711D01*
X004348Y002706D01*
X004387Y002704D01*
X005016Y004142D02*
X004964Y004147D01*
X004913Y004157D01*
X004863Y004169D01*
X004813Y004186D01*
X004765Y004206D01*
X004718Y004229D01*
X004674Y004256D01*
X004631Y004285D01*
X004590Y004318D01*
X004552Y004354D01*
X004517Y004392D01*
X007079Y005073D02*
X007081Y005128D01*
X007079Y005184D01*
X007073Y005240D01*
X007064Y005295D01*
X007050Y005349D01*
X007033Y005402D01*
X007011Y005454D01*
X006986Y005504D01*
X006958Y005552D01*
X006926Y005598D01*
X006891Y005642D01*
X006642Y005892D02*
X006602Y005919D01*
X006561Y005943D01*
X006518Y005965D01*
X006473Y005983D01*
X006427Y005998D01*
X006381Y006009D01*
X006333Y006018D01*
X006286Y006023D01*
X006238Y006024D01*
X006190Y006022D01*
X006142Y006017D01*
X006877Y007455D02*
X006910Y007453D01*
X006943Y007449D01*
X006975Y007440D01*
X007006Y007429D01*
X007036Y007415D01*
X007064Y007398D01*
X007091Y007379D01*
X007115Y007356D01*
X008400Y006073D02*
X008432Y006037D01*
X008462Y005999D01*
X008489Y005959D01*
X008513Y005917D01*
X008533Y005873D01*
X008550Y005827D01*
X008563Y005781D01*
X008572Y005733D01*
X008578Y005685D01*
X008580Y005637D01*
X008580Y004286D02*
X008578Y004260D01*
X008573Y004235D01*
X008565Y004210D01*
X008553Y004187D01*
X008539Y004165D01*
X008522Y004146D01*
X007209Y002833D02*
X007180Y002807D01*
X007150Y002784D01*
X007117Y002763D01*
X007083Y002745D01*
X007047Y002731D01*
X007010Y002719D01*
X006973Y002711D01*
X006935Y002706D01*
X006896Y002704D01*
X006392Y004141D02*
X006440Y004144D01*
X006487Y004151D01*
X006535Y004161D01*
X006581Y004174D01*
X006626Y004191D01*
X006670Y004211D01*
X006712Y004234D01*
X006752Y004260D01*
X006791Y004289D01*
X006827Y004321D01*
X006861Y004355D01*
X006892Y004391D01*
X004517Y006017D02*
X004475Y006021D01*
X004434Y006029D01*
X004393Y006040D01*
X004354Y006053D01*
X004315Y006070D01*
X004278Y006090D01*
X004243Y006113D01*
X004210Y006138D01*
X004179Y006166D01*
X004150Y006197D01*
X004752Y007532D02*
X004774Y007512D01*
X004798Y007495D01*
X004824Y007480D01*
X004851Y007469D01*
X004880Y007461D01*
X004909Y007456D01*
X004939Y007454D01*
X004172Y008110D02*
X004151Y008134D01*
X004133Y008159D01*
X004117Y008186D01*
X004103Y008214D01*
X004093Y008243D01*
X004085Y008274D01*
X004081Y008305D01*
X004079Y008336D01*
X004079Y008578D02*
X004081Y008618D01*
X004086Y008657D01*
X004095Y008696D01*
X004106Y008734D01*
X004122Y008770D01*
X004140Y008805D01*
X004161Y008839D01*
X004185Y008870D01*
X004212Y008900D01*
X004701Y009388D02*
X004723Y009408D01*
X004747Y009424D01*
X004774Y009437D01*
X004802Y009446D01*
X004831Y009452D01*
X004860Y009454D01*
X004542Y010829D02*
X004489Y010827D01*
X004436Y010822D01*
X004383Y010813D01*
X004331Y010801D01*
X004280Y010786D01*
X004230Y010767D01*
X004182Y010745D01*
X004134Y010720D01*
X004089Y010692D01*
X004046Y010661D01*
X004005Y010627D01*
X003966Y010590D01*
X002877Y009628D02*
X002837Y009593D01*
X002799Y009556D01*
X002764Y009516D01*
X002731Y009475D01*
X002701Y009431D01*
X002674Y009385D01*
X002650Y009338D01*
X002629Y009289D01*
X002612Y009239D01*
X002597Y009188D01*
X002586Y009136D01*
X002579Y009083D01*
X002579Y007880D02*
X002580Y007831D01*
X002584Y007783D01*
X002591Y007734D01*
X002602Y007687D01*
X002616Y007640D01*
X002634Y007594D01*
X002654Y007550D01*
X002678Y007507D01*
X002705Y007467D01*
X002734Y007428D01*
X002767Y007391D01*
X006344Y009454D02*
X006374Y009452D01*
X006403Y009447D01*
X006432Y009439D01*
X006459Y009428D01*
X006485Y009413D01*
X006509Y009396D01*
X006531Y009376D01*
X007245Y010663D02*
X007213Y010693D01*
X007178Y010721D01*
X007141Y010746D01*
X007102Y010767D01*
X007062Y010786D01*
X007020Y010801D01*
X006977Y010813D01*
X006934Y010822D01*
X006889Y010827D01*
X006845Y010829D01*
D12*
X007392Y010579D02*
X007517Y010454D01*
X007517Y009829D01*
X006017Y009829D01*
X006017Y010579D01*
X007392Y010579D01*
X007954Y010017D02*
X008079Y009892D01*
X008079Y009267D01*
X006579Y009267D01*
X006579Y010017D01*
X007954Y010017D01*
X008517Y009329D02*
X007142Y009329D01*
X007142Y008579D01*
X008642Y008579D01*
X008642Y009204D01*
X008517Y009329D01*
X007443Y007142D02*
X007568Y007017D01*
X007568Y006392D01*
X006068Y006392D01*
X006068Y007142D01*
X007443Y007142D01*
X008105Y006465D02*
X006730Y006465D01*
X006730Y005715D01*
X008230Y005715D01*
X008230Y006340D01*
X008105Y006465D01*
X008517Y005704D02*
X008642Y005579D01*
X008642Y004954D01*
X007142Y004954D01*
X007142Y005704D01*
X008517Y005704D01*
X008517Y005017D02*
X008642Y004892D01*
X008642Y004267D01*
X007142Y004267D01*
X007142Y005017D01*
X008517Y005017D01*
X008017Y004329D02*
X008142Y004204D01*
X008142Y003579D01*
X006642Y003579D01*
X006642Y004329D01*
X008017Y004329D01*
X007392Y003704D02*
X007517Y003579D01*
X007517Y002954D01*
X006017Y002954D01*
X006017Y003704D01*
X007392Y003704D01*
X006079Y004142D02*
X006079Y002642D01*
X005329Y002642D01*
X005329Y004017D01*
X005454Y004142D01*
X006079Y004142D01*
X005392Y003579D02*
X005267Y003704D01*
X003892Y003704D01*
X003892Y002954D01*
X005392Y002954D01*
X005392Y003579D01*
X004642Y003579D02*
X003142Y003579D01*
X003142Y004329D01*
X004517Y004329D01*
X004642Y004204D01*
X004642Y003579D01*
X004017Y004204D02*
X002517Y004204D01*
X002517Y004954D01*
X003892Y004954D01*
X004017Y004829D01*
X004017Y004204D01*
X005329Y006017D02*
X005329Y007392D01*
X005454Y007517D01*
X006079Y007517D01*
X006079Y006017D01*
X005329Y006017D01*
X005373Y006399D02*
X003873Y006399D01*
X003873Y007149D01*
X005248Y007149D01*
X005373Y007024D01*
X005373Y006399D01*
X004568Y007053D02*
X003068Y007053D01*
X003068Y007803D01*
X004443Y007803D01*
X004568Y007678D01*
X004568Y007053D01*
X004079Y007767D02*
X002579Y007767D01*
X002579Y008517D01*
X003954Y008517D01*
X004079Y008392D01*
X004079Y007767D01*
X004079Y008579D02*
X002579Y008579D01*
X002579Y009329D01*
X003954Y009329D01*
X004079Y009204D01*
X004079Y008579D01*
X004704Y009267D02*
X003204Y009267D01*
X003204Y010017D01*
X004579Y010017D01*
X004704Y009892D01*
X004704Y009267D01*
X005329Y009454D02*
X005329Y010829D01*
X005454Y010954D01*
X006079Y010954D01*
X006079Y009454D01*
X005329Y009454D01*
X005392Y009829D02*
X003892Y009829D01*
X003892Y010579D01*
X005267Y010579D01*
X005392Y010454D01*
X005392Y009829D01*
D13*
X005056Y010494D02*
X004916Y010494D01*
X004846Y010564D01*
X004846Y010704D01*
X005056Y010704D01*
X005127Y010634D01*
X005127Y010564D01*
X005056Y010494D01*
X004846Y010704D02*
X004986Y010844D01*
X005127Y010915D01*
X004666Y010844D02*
X004666Y010564D01*
X004596Y010494D01*
X004456Y010494D01*
X004386Y010564D01*
X004386Y010844D01*
X004456Y010915D01*
X004596Y010915D01*
X004666Y010844D01*
X004206Y010915D02*
X004206Y010634D01*
X004066Y010494D01*
X003925Y010634D01*
X003925Y010915D01*
X004425Y008977D02*
X004425Y008697D01*
X004566Y008557D01*
X004706Y008697D01*
X004706Y008977D01*
X004886Y008907D02*
X004886Y008627D01*
X004956Y008557D01*
X005096Y008557D01*
X005166Y008627D01*
X005166Y008907D01*
X005096Y008977D01*
X004956Y008977D01*
X004886Y008907D01*
X005346Y008977D02*
X005346Y008767D01*
X005486Y008837D01*
X005556Y008837D01*
X005627Y008767D01*
X005627Y008627D01*
X005556Y008557D01*
X005416Y008557D01*
X005346Y008627D01*
X005346Y008977D02*
X005627Y008977D01*
X005605Y007896D02*
X005535Y007826D01*
X005535Y007546D01*
X005605Y007476D01*
X005746Y007476D01*
X005816Y007546D01*
X005816Y007826D01*
X005746Y007896D01*
X005605Y007896D01*
X005355Y007896D02*
X005355Y007616D01*
X005215Y007476D01*
X005075Y007616D01*
X005075Y007896D01*
X005996Y007686D02*
X006276Y007686D01*
X006206Y007476D02*
X006206Y007896D01*
X005996Y007686D01*
X007335Y007456D02*
X007335Y007258D01*
X007533Y007258D01*
X007731Y007456D01*
X007533Y007654D02*
X007335Y007456D01*
X007611Y007081D02*
X007611Y006982D01*
X007710Y006883D01*
X007809Y006883D01*
X008007Y007081D01*
X008007Y007180D01*
X007908Y007279D01*
X007809Y007279D01*
X007611Y007081D01*
X007936Y006755D02*
X007936Y006656D01*
X008035Y006557D01*
X008134Y006557D01*
X008184Y006607D01*
X008184Y006706D01*
X008134Y006755D01*
X008184Y006706D02*
X008283Y006706D01*
X008332Y006755D01*
X008332Y006854D01*
X008233Y006954D01*
X008134Y006954D01*
X005861Y004665D02*
X005861Y004244D01*
X005721Y004244D02*
X006002Y004244D01*
X005721Y004524D02*
X005861Y004665D01*
X005541Y004594D02*
X005541Y004314D01*
X005471Y004244D01*
X005331Y004244D01*
X005261Y004314D01*
X005261Y004594D01*
X005331Y004665D01*
X005471Y004665D01*
X005541Y004594D01*
X005081Y004665D02*
X005081Y004384D01*
X004941Y004244D01*
X004800Y004384D01*
X004800Y004665D01*
X004002Y005119D02*
X004002Y005540D01*
X003721Y005540D02*
X003721Y005119D01*
X003554Y005119D02*
X003414Y005119D01*
X003484Y005119D02*
X003484Y005540D01*
X003414Y005540D02*
X003554Y005540D01*
X003721Y005540D02*
X004002Y005119D01*
X003234Y005259D02*
X003234Y005540D01*
X003234Y005259D02*
X003094Y005119D01*
X002954Y005259D01*
X002954Y005540D01*
X007585Y003066D02*
X007783Y002868D01*
X007981Y002868D01*
X007981Y003066D01*
X007783Y003264D01*
X007960Y003342D02*
X007960Y003441D01*
X008059Y003540D01*
X008158Y003540D01*
X008356Y003342D01*
X008356Y003243D01*
X008257Y003144D01*
X008158Y003144D01*
X007960Y003342D01*
X008286Y003668D02*
X008286Y003767D01*
X008385Y003866D01*
X008484Y003866D01*
X008533Y003816D01*
X008533Y003420D01*
X008731Y003618D01*
X008269Y009801D02*
X008319Y009851D01*
X008715Y009851D01*
X008765Y009900D01*
X008566Y010098D01*
X008389Y010176D02*
X008389Y010275D01*
X008290Y010374D01*
X008191Y010374D01*
X007993Y010176D01*
X007993Y010077D01*
X008092Y009978D01*
X008191Y009978D01*
X008389Y010176D01*
X008113Y010551D02*
X007915Y010353D01*
X007717Y010353D01*
X007717Y010551D01*
X007915Y010749D01*
M02*
