G75*
%MOIN*%
%OFA0B0*%
%FSLAX24Y24*%
%IPPOS*%
%LPD*%
%AMOC8*
5,1,8,0,0,1.08239X$1,22.5*
%
%ADD10C,0.0000*%
%ADD11R,0.0472X0.0472*%
%ADD12C,0.0397*%
%ADD13C,0.0060*%
D10*
X002517Y002517D02*
X002517Y010992D01*
X009043Y010992D01*
X009043Y002517D01*
X002517Y002517D01*
D11*
X005291Y003267D03*
X005291Y004017D03*
X005291Y004767D03*
X005291Y005517D03*
X006118Y005517D03*
X006118Y004767D03*
X006118Y004017D03*
X006118Y003267D03*
X006118Y006392D03*
X005291Y006392D03*
X005291Y007267D03*
X006118Y007267D03*
X006118Y008142D03*
X005291Y008142D03*
X005291Y009017D03*
X004704Y009478D03*
X005291Y009892D03*
X004704Y010305D03*
X003954Y010305D03*
X003204Y010305D03*
X003204Y009478D03*
X003954Y009478D03*
X006118Y009892D03*
X006767Y010305D03*
X007517Y010305D03*
X008267Y010305D03*
X008267Y009478D03*
X007517Y009478D03*
X006767Y009478D03*
X006118Y009017D03*
D12*
X005517Y010267D03*
X005204Y010267D03*
X004892Y010642D03*
X004517Y010642D03*
X006579Y010642D03*
X006954Y010642D03*
X004954Y007454D03*
X004954Y007079D03*
X004954Y004954D03*
X004954Y004579D03*
X006517Y003454D03*
X006517Y003079D03*
D13*
X006517Y003454D01*
X006517Y005079D01*
X006118Y005478D01*
X006118Y005517D01*
X006454Y005853D01*
X006454Y007767D01*
X006118Y008103D01*
X006118Y008142D01*
X006079Y008142D01*
X005704Y007767D01*
X005017Y007767D01*
X004892Y007892D01*
X004892Y009017D01*
X004767Y009142D01*
X003541Y009142D01*
X003204Y009478D01*
X003204Y010228D02*
X003954Y009478D01*
X003954Y010228D02*
X004704Y009478D01*
X005204Y009978D02*
X005291Y009892D01*
X005329Y009930D01*
X005204Y009978D02*
X005204Y010267D01*
X005517Y010267D01*
X006118Y009892D02*
X005291Y009065D01*
X005291Y009017D01*
X005291Y008190D02*
X006118Y009017D01*
X006454Y009017D02*
X006454Y008478D01*
X006118Y008142D01*
X005291Y008142D02*
X005291Y008190D01*
X004954Y007454D02*
X004954Y007079D01*
X005103Y007079D01*
X005291Y007267D01*
X005291Y006440D02*
X006118Y007267D01*
X006118Y006392D02*
X005291Y005565D01*
X005291Y005517D01*
X004954Y004954D02*
X004954Y004579D01*
X005103Y004579D01*
X005291Y004767D01*
X005291Y004017D02*
X005368Y004017D01*
X006118Y004767D01*
X006118Y004017D02*
X005368Y003267D01*
X005291Y003267D01*
X006118Y003267D02*
X006305Y003079D01*
X006517Y003079D01*
X005291Y006392D02*
X005291Y006440D01*
X006454Y009017D02*
X006579Y009142D01*
X007892Y009142D01*
X008228Y009478D01*
X008267Y009478D01*
X007517Y009478D02*
X007517Y009555D01*
X008267Y010305D01*
X007517Y010305D02*
X006767Y009555D01*
X006767Y009478D01*
X006767Y010305D02*
X006579Y010493D01*
X006579Y010642D01*
X006954Y010642D01*
X004892Y010642D02*
X004517Y010642D01*
X004517Y010493D01*
X004704Y010305D01*
X003954Y010305D02*
X003954Y010228D01*
X003204Y010228D02*
X003204Y010305D01*
M02*
