G75*
%MOIN*%
%OFA0B0*%
%FSLAX24Y24*%
%IPPOS*%
%LPD*%
%AMOC8*
5,1,8,0,0,1.08239X$1,22.5*
%
%ADD10C,0.0000*%
%ADD11C,0.0100*%
%ADD12C,0.0040*%
%ADD13C,0.0080*%
D10*
X002517Y002517D02*
X002517Y010992D01*
X009043Y010992D01*
X009043Y002517D01*
X002517Y002517D01*
D11*
X004767Y002767D02*
X006642Y002767D01*
X006642Y009017D01*
X008767Y009017D01*
X008767Y010767D01*
X002767Y010767D01*
X002767Y009017D01*
X004767Y009017D01*
X004767Y002767D01*
D12*
X004954Y003017D02*
X005079Y002892D01*
X006454Y002892D01*
X006454Y003642D01*
X004954Y003642D01*
X004954Y003017D01*
X005079Y003642D02*
X004954Y003767D01*
X004954Y004392D01*
X006454Y004392D01*
X006454Y003642D01*
X005079Y003642D01*
X005079Y004392D02*
X004954Y004517D01*
X004954Y005142D01*
X006454Y005142D01*
X005079Y005142D01*
X004954Y005267D01*
X004954Y005892D01*
X006454Y005892D01*
X006454Y005142D01*
X006454Y004392D01*
X005079Y004392D01*
X005079Y006017D02*
X004954Y006142D01*
X004954Y006767D01*
X006454Y006767D01*
X006454Y006017D01*
X005079Y006017D01*
X005079Y006892D02*
X004954Y007017D01*
X004954Y007642D01*
X006454Y007642D01*
X006454Y006892D01*
X005079Y006892D01*
X005079Y007767D02*
X004954Y007892D01*
X004954Y008517D01*
X006454Y008517D01*
X006454Y007767D01*
X005079Y007767D01*
X005079Y008642D02*
X004954Y008767D01*
X004954Y009392D01*
X006454Y009392D01*
X006454Y008642D01*
X005079Y008642D01*
X005079Y009142D02*
X004329Y009142D01*
X003579Y009142D01*
X002829Y009142D01*
X002829Y010517D01*
X002954Y010642D01*
X003579Y010642D01*
X003579Y009142D01*
X003579Y010517D01*
X003704Y010642D01*
X004329Y010642D01*
X004329Y009142D01*
X004329Y010517D01*
X004454Y010642D01*
X005079Y010642D01*
X005079Y009142D01*
X005079Y009517D02*
X004954Y009642D01*
X004954Y010267D01*
X006454Y010267D01*
X006454Y009517D01*
X005079Y009517D01*
X006392Y009142D02*
X006392Y010517D01*
X006517Y010642D01*
X007142Y010642D01*
X007142Y009142D01*
X007142Y010517D01*
X007267Y010642D01*
X007892Y010642D01*
X007892Y009142D01*
X007892Y010517D01*
X008017Y010642D01*
X008642Y010642D01*
X008642Y009142D01*
X007892Y009142D01*
X007142Y009142D01*
X006392Y009142D01*
D13*
X006213Y010507D02*
X006073Y010507D01*
X006002Y010577D01*
X005822Y010577D02*
X005822Y010857D01*
X005752Y010927D01*
X005612Y010927D01*
X005542Y010857D01*
X005542Y010577D01*
X005612Y010507D01*
X005752Y010507D01*
X005822Y010577D01*
X006002Y010857D02*
X006073Y010927D01*
X006213Y010927D01*
X006283Y010857D01*
X006283Y010787D01*
X006213Y010717D01*
X006283Y010647D01*
X006283Y010577D01*
X006213Y010507D01*
X006213Y010717D02*
X006143Y010717D01*
X005362Y010647D02*
X005362Y010927D01*
X005362Y010647D02*
X005222Y010507D01*
X005082Y010647D01*
X005082Y010927D01*
X004195Y010829D02*
X003915Y010829D01*
X004125Y011040D01*
X004125Y010619D01*
X003735Y010689D02*
X003735Y010969D01*
X003665Y011040D01*
X003525Y011040D01*
X003455Y010969D01*
X003455Y010689D01*
X003525Y010619D01*
X003665Y010619D01*
X003735Y010689D01*
X003274Y010759D02*
X003274Y011040D01*
X002994Y011040D02*
X002994Y010759D01*
X003134Y010619D01*
X003274Y010759D01*
X004314Y007695D02*
X004244Y007625D01*
X004244Y007485D01*
X004314Y007415D01*
X004314Y007235D02*
X004244Y007165D01*
X004244Y007025D01*
X004314Y006955D01*
X004594Y006955D01*
X004664Y007025D01*
X004664Y007165D01*
X004594Y007235D01*
X004314Y007235D01*
X004664Y007415D02*
X004384Y007695D01*
X004314Y007695D01*
X004664Y007695D02*
X004664Y007415D01*
X004524Y006774D02*
X004244Y006774D01*
X004244Y006494D02*
X004524Y006494D01*
X004664Y006634D01*
X004524Y006774D01*
X004727Y005195D02*
X004727Y004915D01*
X004727Y005055D02*
X004306Y005055D01*
X004446Y004915D01*
X004376Y004735D02*
X004306Y004665D01*
X004306Y004525D01*
X004376Y004455D01*
X004657Y004455D01*
X004727Y004525D01*
X004727Y004665D01*
X004657Y004735D01*
X004376Y004735D01*
X004306Y004274D02*
X004587Y004274D01*
X004727Y004134D01*
X004587Y003994D01*
X004306Y003994D01*
X006756Y003727D02*
X007177Y003727D01*
X006756Y003446D01*
X007177Y003446D01*
X007177Y003279D02*
X007177Y003139D01*
X007177Y003209D02*
X006756Y003209D01*
X006756Y003139D02*
X006756Y003279D01*
X006756Y002959D02*
X007037Y002959D01*
X007177Y002819D01*
X007037Y002679D01*
X006756Y002679D01*
X007322Y010619D02*
X007462Y010759D01*
X007462Y011040D01*
X007642Y010969D02*
X007642Y010689D01*
X007712Y010619D01*
X007852Y010619D01*
X007922Y010689D01*
X007922Y010969D01*
X007852Y011040D01*
X007712Y011040D01*
X007642Y010969D01*
X008102Y011040D02*
X008102Y010829D01*
X008243Y010899D01*
X008313Y010899D01*
X008383Y010829D01*
X008383Y010689D01*
X008313Y010619D01*
X008173Y010619D01*
X008102Y010689D01*
X008102Y011040D02*
X008383Y011040D01*
X007322Y010619D02*
X007182Y010759D01*
X007182Y011040D01*
M02*
