G75*
%MOIN*%
%OFA0B0*%
%FSLAX24Y24*%
%IPPOS*%
%LPD*%
%AMOC8*
5,1,8,0,0,1.08239X$1,22.5*
%
%ADD10C,0.0000*%
%ADD11R,0.0512X0.0512*%
%ADD12C,0.0437*%
D10*
X002517Y002517D02*
X002517Y010992D01*
X009043Y010992D01*
X009043Y002517D01*
X002517Y002517D01*
D11*
X005291Y003267D03*
X005291Y004017D03*
X005291Y004767D03*
X005291Y005517D03*
X006118Y005517D03*
X006118Y004767D03*
X006118Y004017D03*
X006118Y003267D03*
X006118Y006392D03*
X005291Y006392D03*
X005291Y007267D03*
X006118Y007267D03*
X006118Y008142D03*
X005291Y008142D03*
X005291Y009017D03*
X004704Y009478D03*
X005291Y009892D03*
X004704Y010305D03*
X003954Y010305D03*
X003204Y010305D03*
X003204Y009478D03*
X003954Y009478D03*
X006118Y009892D03*
X006767Y010305D03*
X007517Y010305D03*
X008267Y010305D03*
X008267Y009478D03*
X007517Y009478D03*
X006767Y009478D03*
X006118Y009017D03*
D12*
X005517Y010267D03*
X005204Y010267D03*
X004892Y010642D03*
X004517Y010642D03*
X006579Y010642D03*
X006954Y010642D03*
X004954Y007454D03*
X004954Y007079D03*
X004954Y004954D03*
X004954Y004579D03*
X006517Y003454D03*
X006517Y003079D03*
M02*
