G75*
%MOIN*%
%OFA0B0*%
%FSLAX24Y24*%
%IPPOS*%
%LPD*%
%AMOC8*
5,1,8,0,0,1.08239X$1,22.5*
%
%ADD10C,0.0000*%
%ADD11R,0.0512X0.0512*%
%ADD12C,0.0437*%
D10*
X002392Y002642D02*
X002392Y011142D01*
X008892Y011142D01*
X008892Y002642D01*
X002392Y002642D01*
D11*
X005228Y003204D03*
X006055Y003204D03*
X005993Y004079D03*
X005166Y004079D03*
X005228Y004954D03*
X006055Y004954D03*
X006055Y005829D03*
X005228Y005829D03*
X005228Y006704D03*
X006055Y006704D03*
X006055Y007579D03*
X005228Y007579D03*
X005228Y008454D03*
X006055Y008454D03*
X006055Y009329D03*
X006642Y009791D03*
X006055Y010204D03*
X006642Y010618D03*
X007392Y010618D03*
X008142Y010618D03*
X008142Y009791D03*
X007392Y009791D03*
X005228Y010204D03*
X004579Y009791D03*
X005228Y009329D03*
X004579Y010618D03*
X003829Y010618D03*
X003079Y010618D03*
X003079Y009791D03*
X003829Y009791D03*
D12*
X004329Y009454D03*
X004704Y009454D03*
X005079Y010579D03*
X005392Y010579D03*
X006579Y009454D03*
X006892Y009454D03*
X005142Y007892D03*
X005142Y007267D03*
X005142Y005267D03*
X005142Y004642D03*
X006079Y003517D03*
X006079Y002954D03*
M02*
