G75*
%MOIN*%
%OFA0B0*%
%FSLAX24Y24*%
%IPPOS*%
%LPD*%
%AMOC8*
5,1,8,0,0,1.08239X$1,22.5*
%
%ADD10C,0.0000*%
%ADD11C,0.0100*%
%ADD12C,0.0040*%
%ADD13C,0.0080*%
D10*
X002392Y002517D02*
X002392Y011017D01*
X008892Y011017D01*
X008892Y002517D01*
X002392Y002517D01*
D11*
X002642Y002943D02*
X002642Y010267D01*
X002644Y010316D01*
X002650Y010365D01*
X002659Y010413D01*
X002673Y010460D01*
X002690Y010506D01*
X002710Y010551D01*
X002734Y010594D01*
X002761Y010634D01*
X002792Y010673D01*
X002825Y010709D01*
X002861Y010742D01*
X002900Y010773D01*
X002940Y010800D01*
X002983Y010824D01*
X003028Y010844D01*
X003074Y010861D01*
X003121Y010875D01*
X003169Y010884D01*
X003218Y010890D01*
X003267Y010892D01*
X008465Y010892D01*
X008490Y010890D01*
X008515Y010885D01*
X008539Y010876D01*
X008561Y010864D01*
X008581Y010849D01*
X008599Y010831D01*
X008614Y010811D01*
X008626Y010789D01*
X008635Y010765D01*
X008640Y010740D01*
X008642Y010715D01*
X008642Y009517D01*
X008640Y009497D01*
X008636Y009478D01*
X008628Y009460D01*
X008618Y009444D01*
X008605Y009429D01*
X008590Y009416D01*
X008574Y009406D01*
X008556Y009398D01*
X008537Y009394D01*
X008517Y009392D01*
X004604Y009392D01*
X004604Y009391D02*
X004565Y009389D01*
X004526Y009383D01*
X004488Y009374D01*
X004451Y009361D01*
X004415Y009344D01*
X004382Y009324D01*
X004350Y009300D01*
X004321Y009274D01*
X004295Y009245D01*
X004271Y009213D01*
X004251Y009180D01*
X004234Y009144D01*
X004221Y009107D01*
X004212Y009069D01*
X004206Y009030D01*
X004204Y008991D01*
X004204Y009017D02*
X004204Y007777D01*
X004206Y007751D01*
X004211Y007726D01*
X004219Y007701D01*
X004231Y007678D01*
X004245Y007656D01*
X004262Y007637D01*
X004281Y007620D01*
X004303Y007606D01*
X004326Y007594D01*
X004351Y007586D01*
X004376Y007581D01*
X004402Y007579D01*
X006502Y007579D01*
X006524Y007577D01*
X006545Y007572D01*
X006566Y007564D01*
X006584Y007552D01*
X006601Y007538D01*
X006615Y007521D01*
X006627Y007503D01*
X006635Y007482D01*
X006640Y007461D01*
X006642Y007439D01*
X006642Y006219D01*
X006640Y006197D01*
X006635Y006176D01*
X006627Y006155D01*
X006615Y006137D01*
X006601Y006120D01*
X006584Y006106D01*
X006566Y006094D01*
X006545Y006086D01*
X006524Y006081D01*
X006502Y006079D01*
X005792Y006079D01*
X005767Y006079D01*
X004281Y006079D01*
X004259Y006077D01*
X004238Y006072D01*
X004217Y006064D01*
X004199Y006052D01*
X004182Y006038D01*
X004168Y006021D01*
X004156Y006003D01*
X004148Y005982D01*
X004143Y005961D01*
X004141Y005939D01*
X004142Y005939D02*
X004142Y002943D01*
X004140Y002918D01*
X004135Y002893D01*
X004126Y002869D01*
X004114Y002847D01*
X004099Y002827D01*
X004081Y002809D01*
X004061Y002794D01*
X004039Y002782D01*
X004015Y002773D01*
X003990Y002768D01*
X003965Y002766D01*
X003965Y002767D02*
X002818Y002767D01*
X002818Y002766D02*
X002793Y002768D01*
X002768Y002773D01*
X002744Y002782D01*
X002722Y002794D01*
X002702Y002809D01*
X002684Y002827D01*
X002669Y002847D01*
X002657Y002869D01*
X002648Y002893D01*
X002643Y002918D01*
X002641Y002943D01*
D12*
X002642Y002767D02*
X002642Y003517D01*
X004017Y003517D01*
X004142Y003392D01*
X004142Y002767D01*
X002642Y002767D01*
X002642Y003454D02*
X002642Y004204D01*
X004017Y004204D01*
X004142Y004079D01*
X004142Y003454D01*
X002642Y003454D01*
X002642Y004142D02*
X002642Y004892D01*
X004017Y004892D01*
X004142Y004767D01*
X004142Y004142D01*
X002642Y004142D01*
X002642Y004829D02*
X002642Y005579D01*
X004017Y005579D01*
X004142Y005454D01*
X004142Y004829D01*
X002642Y004829D01*
X002642Y005517D02*
X002642Y006267D01*
X004017Y006267D01*
X004142Y006142D01*
X004142Y005517D01*
X002642Y005517D01*
X002642Y006204D02*
X002642Y006954D01*
X004017Y006954D01*
X004142Y006829D01*
X004142Y006204D01*
X002642Y006204D01*
X002642Y006892D02*
X002642Y007642D01*
X004017Y007642D01*
X004142Y007517D01*
X004142Y006892D01*
X002642Y006892D01*
X002642Y007579D02*
X002642Y008329D01*
X004017Y008329D01*
X004142Y008204D01*
X004142Y007579D01*
X004017Y007454D01*
X004017Y006079D01*
X004767Y006079D01*
X004767Y007579D01*
X004642Y007454D01*
X004642Y006079D01*
X005392Y006079D01*
X005392Y007579D01*
X005267Y007454D01*
X005267Y006079D01*
X006017Y006079D01*
X006017Y007579D01*
X005892Y007454D01*
X005892Y006079D01*
X006642Y006079D01*
X006642Y007579D01*
X006017Y007579D01*
X005392Y007579D01*
X004767Y007579D01*
X004142Y007579D01*
X002642Y007579D01*
X002642Y008267D02*
X002642Y009017D01*
X002642Y009767D01*
X004017Y009767D01*
X004142Y009642D01*
X004142Y009017D01*
X002642Y009017D01*
X004017Y009017D01*
X004142Y008892D01*
X004142Y008267D01*
X002642Y008267D01*
X002642Y009767D02*
X002642Y010517D01*
X004017Y010517D01*
X004142Y010392D01*
X004142Y009767D01*
X002642Y009767D01*
X004142Y009392D02*
X004142Y010892D01*
X004892Y010892D01*
X005642Y010892D01*
X005642Y009517D01*
X005517Y009392D01*
X004892Y009392D01*
X004892Y010892D01*
X004892Y009517D01*
X004767Y009392D01*
X004142Y009392D01*
X005642Y009392D02*
X005642Y010892D01*
X006392Y010892D01*
X006392Y009517D01*
X006267Y009392D01*
X005642Y009392D01*
X006392Y009392D02*
X006392Y010892D01*
X007142Y010892D01*
X007892Y010892D01*
X007892Y009517D01*
X007767Y009392D01*
X007142Y009392D01*
X007142Y010892D01*
X007142Y009517D01*
X007017Y009392D01*
X006392Y009392D01*
X007892Y009392D02*
X007892Y010892D01*
X008642Y010892D01*
X008642Y009517D01*
X008517Y009392D01*
X007892Y009392D01*
D13*
X007252Y009352D02*
X006971Y009352D01*
X006971Y009142D01*
X007111Y009212D01*
X007181Y009212D01*
X007252Y009142D01*
X007252Y009002D01*
X007181Y008932D01*
X007041Y008932D01*
X006971Y009002D01*
X006791Y009002D02*
X006791Y009282D01*
X006721Y009352D01*
X006581Y009352D01*
X006511Y009282D01*
X006511Y009002D01*
X006581Y008932D01*
X006721Y008932D01*
X006791Y009002D01*
X006331Y009072D02*
X006331Y009352D01*
X006331Y009072D02*
X006191Y008932D01*
X006050Y009072D01*
X006050Y009352D01*
X005502Y009142D02*
X005221Y009142D01*
X005431Y009352D01*
X005431Y008932D01*
X005306Y008727D02*
X005166Y008727D01*
X005096Y008657D01*
X004916Y008657D02*
X004846Y008727D01*
X004706Y008727D01*
X004636Y008657D01*
X004636Y008377D01*
X004706Y008307D01*
X004846Y008307D01*
X004916Y008377D01*
X004916Y008657D01*
X004971Y008932D02*
X004831Y008932D01*
X004761Y009002D01*
X004761Y009282D01*
X004831Y009352D01*
X004971Y009352D01*
X005041Y009282D01*
X005041Y009002D01*
X004971Y008932D01*
X005306Y008727D02*
X005377Y008657D01*
X005377Y008587D01*
X005306Y008517D01*
X005377Y008447D01*
X005377Y008377D01*
X005306Y008307D01*
X005166Y008307D01*
X005096Y008377D01*
X005236Y008517D02*
X005306Y008517D01*
X005383Y008227D02*
X005243Y008157D01*
X005102Y008017D01*
X005313Y008017D01*
X005383Y007947D01*
X005383Y007877D01*
X005313Y007807D01*
X005173Y007807D01*
X005102Y007877D01*
X005102Y008017D01*
X004922Y007877D02*
X004922Y008157D01*
X004852Y008227D01*
X004712Y008227D01*
X004642Y008157D01*
X004642Y007877D01*
X004712Y007807D01*
X004852Y007807D01*
X004922Y007877D01*
X004462Y007947D02*
X004462Y008227D01*
X004316Y008307D02*
X004456Y008447D01*
X004456Y008727D01*
X004441Y008932D02*
X004581Y009072D01*
X004581Y009352D01*
X004300Y009352D02*
X004300Y009072D01*
X004441Y008932D01*
X004175Y008727D02*
X004175Y008447D01*
X004316Y008307D01*
X004182Y008227D02*
X004182Y007947D01*
X004322Y007807D01*
X004462Y007947D01*
X005644Y008052D02*
X005644Y007772D01*
X005784Y007632D01*
X005924Y007772D01*
X005924Y008052D01*
X006105Y007982D02*
X006105Y007702D01*
X006175Y007632D01*
X006315Y007632D01*
X006385Y007702D01*
X006385Y007982D01*
X006315Y008052D01*
X006175Y008052D01*
X006105Y007982D01*
X006565Y008052D02*
X006845Y008052D01*
X006845Y007982D01*
X006565Y007702D01*
X006565Y007632D01*
X005313Y006102D02*
X005173Y006102D01*
X005102Y006032D01*
X004922Y006032D02*
X004852Y006102D01*
X004712Y006102D01*
X004642Y006032D01*
X004642Y005752D01*
X004712Y005682D01*
X004852Y005682D01*
X004922Y005752D01*
X004922Y006032D01*
X005102Y005682D02*
X005383Y005962D01*
X005383Y006032D01*
X005313Y006102D01*
X005383Y005682D02*
X005102Y005682D01*
X004602Y005252D02*
X004602Y004971D01*
X004602Y005111D02*
X004181Y005111D01*
X004321Y004971D01*
X004251Y004791D02*
X004181Y004721D01*
X004181Y004581D01*
X004251Y004511D01*
X004532Y004511D01*
X004602Y004581D01*
X004602Y004721D01*
X004532Y004791D01*
X004251Y004791D01*
X004181Y004331D02*
X004462Y004331D01*
X004602Y004191D01*
X004462Y004050D01*
X004181Y004050D01*
X004181Y003752D02*
X004602Y003752D01*
X004181Y003471D01*
X004602Y003471D01*
X004602Y003304D02*
X004602Y003164D01*
X004602Y003234D02*
X004181Y003234D01*
X004181Y003164D02*
X004181Y003304D01*
X004181Y002984D02*
X004462Y002984D01*
X004602Y002844D01*
X004462Y002704D01*
X004181Y002704D01*
X004322Y005682D02*
X004462Y005822D01*
X004462Y006102D01*
X004182Y006102D02*
X004182Y005822D01*
X004322Y005682D01*
M02*
