%
M48
M72
T01C0.0197
T02C0.0236
%
T01
X4267Y2892
X4642Y2892
X4767Y4329
X4454Y4329
X5204Y4954
X5454Y4704
X6329Y3454
X7142Y3079
X7642Y3579
X7829Y5267
X8579Y5829
X8579Y6204
X7829Y7517
X8579Y8017
X8579Y8579
X7204Y9767
X7017Y10579
X6642Y10579
X4954Y10079
X4142Y10392
X3579Y10017
X3454Y8267
X2704Y7767
X2704Y7267
X3454Y6017
X2704Y5454
X2704Y4954
T02
X6517Y4892
X8079Y3204
M30
