%
M48
M72
T01C0.0197
%
T01
X3017Y2892
X3017Y3517
X3767Y4892
X3767Y5517
X3329Y6204
X3767Y7892
X3767Y8517
X4392Y8454
X4704Y8892
X4392Y9267
X3454Y10204
X3329Y9267
X5017Y7704
X5642Y7517
X5017Y6892
X5642Y6704
X6267Y6642
X6579Y6267
X6267Y5829
X6892Y4954
X6892Y4142
X7829Y5204
X8267Y5892
X8267Y6517
X7829Y8204
X8267Y8892
X8267Y9642
X7829Y10204
X8267Y3517
X8267Y2892
M30
