G75*
%MOIN*%
%OFA0B0*%
%FSLAX24Y24*%
%IPPOS*%
%LPD*%
%AMOC8*
5,1,8,0,0,1.08239X$1,22.5*
%
%ADD10C,0.0000*%
%ADD11R,0.0512X0.0512*%
%ADD12C,0.0437*%
D10*
X002392Y002517D02*
X002392Y011017D01*
X008892Y011017D01*
X008892Y002517D01*
X002392Y002517D01*
D11*
X003267Y002978D03*
X004079Y002978D03*
X004892Y002978D03*
X004892Y003805D03*
X004079Y003805D03*
X003805Y004454D03*
X003267Y003805D03*
X002978Y004454D03*
X002978Y005267D03*
X002978Y006079D03*
X002978Y006892D03*
X002978Y007704D03*
X002978Y008517D03*
X002978Y009329D03*
X002978Y010142D03*
X003805Y010142D03*
X003805Y009329D03*
X003805Y008517D03*
X003805Y007704D03*
X003805Y006892D03*
X003805Y006079D03*
X003805Y005267D03*
X005704Y003805D03*
X006517Y003805D03*
X007329Y003805D03*
X007329Y002978D03*
X006517Y002978D03*
X005704Y002978D03*
X008142Y002978D03*
X008142Y003805D03*
D12*
X008454Y002954D03*
X007829Y002954D03*
X006829Y003892D03*
X006204Y003892D03*
X004392Y003829D03*
X003767Y003829D03*
X003829Y004954D03*
X003829Y005579D03*
X003829Y007392D03*
X003829Y008017D03*
X003829Y009829D03*
X003829Y010454D03*
M02*
