G75*
%MOIN*%
%OFA0B0*%
%FSLAX24Y24*%
%IPPOS*%
%LPD*%
%AMOC8*
5,1,8,0,0,1.08239X$1,22.5*
%
%ADD10C,0.0100*%
%ADD11R,0.0315X0.0472*%
%ADD12R,0.0591X0.0591*%
%ADD13C,0.0060*%
%ADD14C,0.0317*%
D10*
X000574Y000150D02*
X000574Y001896D01*
X041074Y001896D01*
X041074Y000150D01*
X000574Y000150D01*
D11*
X001845Y001025D03*
X002553Y001025D03*
X008595Y001025D03*
X009303Y001025D03*
X015345Y001025D03*
X016053Y001025D03*
X022095Y001025D03*
X022803Y001025D03*
X028845Y001025D03*
X029553Y001025D03*
X035595Y001025D03*
X036303Y001025D03*
D12*
X033699Y001025D03*
X040449Y001025D03*
X026949Y001025D03*
X020199Y001025D03*
X013449Y001025D03*
X006699Y001025D03*
X001199Y001025D03*
D13*
X001199Y001275D01*
X001449Y001525D01*
X002053Y001525D01*
X002553Y001025D01*
X002553Y001129D01*
X002949Y001525D01*
X008803Y001525D01*
X009303Y001025D01*
X009303Y001129D01*
X009699Y001525D01*
X015553Y001525D01*
X016053Y001025D01*
X016053Y001129D01*
X016449Y001525D01*
X022303Y001525D01*
X022803Y001025D01*
X022803Y001129D01*
X023199Y001525D01*
X029053Y001525D01*
X029553Y001025D01*
X029553Y001129D01*
X029949Y001525D01*
X035803Y001525D01*
X036303Y001025D01*
X035595Y001025D02*
X035595Y000671D01*
X035449Y000525D01*
X033699Y000525D02*
X033699Y001025D01*
X028845Y001025D02*
X028845Y000671D01*
X028699Y000525D01*
X026949Y000525D02*
X026949Y001025D01*
X022095Y001025D02*
X022095Y000671D01*
X021949Y000525D01*
X020199Y000525D02*
X020199Y001025D01*
X015345Y001025D02*
X015345Y000671D01*
X015199Y000525D01*
X013449Y000525D02*
X013449Y001025D01*
X008595Y001025D02*
X008595Y000671D01*
X008449Y000525D01*
X006699Y000525D02*
X006699Y001025D01*
X001845Y001025D02*
X001845Y000671D01*
X001699Y000525D01*
X040449Y000525D02*
X040449Y001025D01*
D14*
X040449Y000525D03*
X035449Y000525D03*
X033699Y000525D03*
X028699Y000525D03*
X026949Y000525D03*
X021949Y000525D03*
X020199Y000525D03*
X015199Y000525D03*
X013449Y000525D03*
X008449Y000525D03*
X006699Y000525D03*
X001699Y000525D03*
M02*
