G75*
%MOIN*%
%OFA0B0*%
%FSLAX24Y24*%
%IPPOS*%
%LPD*%
%AMOC8*
5,1,8,0,0,1.08239X$1,22.5*
%
%ADD10C,0.0100*%
%ADD11C,0.0060*%
%ADD12C,0.0010*%
%ADD13C,0.0040*%
D10*
X000574Y000150D02*
X000574Y001896D01*
X041074Y001896D01*
X041074Y000150D01*
X000574Y000150D01*
D11*
X002081Y000789D02*
X002317Y000789D01*
X008831Y000789D02*
X009067Y000789D01*
X015581Y000789D02*
X015817Y000789D01*
X022331Y000789D02*
X022567Y000789D01*
X029081Y000789D02*
X029317Y000789D01*
X035831Y000789D02*
X036067Y000789D01*
X036067Y001261D02*
X035831Y001261D01*
X029317Y001261D02*
X029081Y001261D01*
X022567Y001261D02*
X022331Y001261D01*
X015817Y001261D02*
X015581Y001261D01*
X009067Y001261D02*
X008831Y001261D01*
X002317Y001261D02*
X002081Y001261D01*
D12*
X002247Y001355D02*
X002347Y001355D01*
X002394Y001355D02*
X002444Y001405D01*
X002419Y001405D02*
X002494Y001405D01*
X002419Y001405D02*
X002394Y001430D01*
X002394Y001480D01*
X002419Y001505D01*
X002494Y001505D01*
X002494Y001355D01*
X002297Y001355D02*
X002297Y001505D01*
X002347Y001455D01*
X008997Y001455D02*
X009097Y001355D01*
X008997Y001355D01*
X009144Y001355D02*
X009194Y001405D01*
X009169Y001405D02*
X009244Y001405D01*
X009169Y001405D02*
X009144Y001430D01*
X009144Y001480D01*
X009169Y001505D01*
X009244Y001505D01*
X009244Y001355D01*
X008997Y001455D02*
X008997Y001480D01*
X009022Y001505D01*
X009072Y001505D01*
X009097Y001480D01*
X015747Y001480D02*
X015747Y001455D01*
X015772Y001430D01*
X015747Y001405D01*
X015747Y001380D01*
X015772Y001355D01*
X015822Y001355D01*
X015847Y001380D01*
X015894Y001355D02*
X015944Y001405D01*
X015919Y001405D02*
X015994Y001405D01*
X015919Y001405D02*
X015894Y001430D01*
X015894Y001480D01*
X015919Y001505D01*
X015994Y001505D01*
X015994Y001355D01*
X015797Y001430D02*
X015772Y001430D01*
X015747Y001480D02*
X015772Y001505D01*
X015822Y001505D01*
X015847Y001480D01*
X022497Y001430D02*
X022597Y001430D01*
X022522Y001505D01*
X022522Y001355D01*
X022644Y001355D02*
X022694Y001405D01*
X022669Y001405D02*
X022744Y001405D01*
X022669Y001405D02*
X022644Y001430D01*
X022644Y001480D01*
X022669Y001505D01*
X022744Y001505D01*
X022744Y001355D01*
X029247Y001380D02*
X029272Y001355D01*
X029322Y001355D01*
X029347Y001380D01*
X029394Y001355D02*
X029444Y001405D01*
X029419Y001405D02*
X029494Y001405D01*
X029419Y001405D02*
X029394Y001430D01*
X029394Y001480D01*
X029419Y001505D01*
X029494Y001505D01*
X029494Y001355D01*
X029247Y001380D02*
X029247Y001430D01*
X029272Y001455D01*
X029297Y001455D01*
X029347Y001430D01*
X029347Y001505D01*
X029247Y001505D01*
X035997Y001505D02*
X036047Y001480D01*
X036097Y001430D01*
X036022Y001430D01*
X035997Y001405D01*
X035997Y001380D01*
X036022Y001355D01*
X036072Y001355D01*
X036097Y001380D01*
X036097Y001430D01*
X036144Y001430D02*
X036169Y001405D01*
X036244Y001405D01*
X036194Y001405D02*
X036144Y001355D01*
X036244Y001355D02*
X036244Y001505D01*
X036169Y001505D01*
X036144Y001480D01*
X036144Y001430D01*
D13*
X033974Y001437D02*
X033898Y001360D01*
X033744Y001360D01*
X033667Y001437D01*
X033667Y001744D01*
X033744Y001820D01*
X033898Y001820D01*
X033974Y001744D01*
X033974Y001437D01*
X033514Y001437D02*
X033437Y001360D01*
X033284Y001360D01*
X033207Y001437D01*
X033207Y001820D01*
X033054Y001820D02*
X032747Y001820D01*
X032900Y001820D02*
X032900Y001360D01*
X032593Y001437D02*
X032516Y001360D01*
X032363Y001360D01*
X032286Y001437D01*
X032286Y001590D01*
X032363Y001667D01*
X032440Y001667D01*
X032593Y001590D01*
X032593Y001820D01*
X032286Y001820D01*
X033514Y001820D02*
X033514Y001437D01*
X039036Y001437D02*
X039113Y001360D01*
X039266Y001360D01*
X039343Y001437D01*
X039343Y001590D01*
X039113Y001590D01*
X039036Y001513D01*
X039036Y001437D01*
X039957Y001437D02*
X039957Y001820D01*
X039804Y001820D02*
X039497Y001820D01*
X039650Y001820D02*
X039650Y001360D01*
X039957Y001437D02*
X040034Y001360D01*
X040187Y001360D01*
X040264Y001437D01*
X040264Y001820D01*
X040417Y001744D02*
X040494Y001820D01*
X040648Y001820D01*
X040724Y001744D01*
X040724Y001437D01*
X040648Y001360D01*
X040494Y001360D01*
X040417Y001437D01*
X040417Y001744D01*
X039343Y001590D02*
X039190Y001744D01*
X039036Y001820D01*
X027224Y001744D02*
X027224Y001437D01*
X027148Y001360D01*
X026994Y001360D01*
X026917Y001437D01*
X026917Y001744D01*
X026994Y001820D01*
X027148Y001820D01*
X027224Y001744D01*
X026764Y001820D02*
X026764Y001437D01*
X026687Y001360D01*
X026534Y001360D01*
X026457Y001437D01*
X026457Y001820D01*
X026304Y001820D02*
X025997Y001820D01*
X026150Y001820D02*
X026150Y001360D01*
X025613Y001360D02*
X025613Y001820D01*
X025843Y001590D01*
X025536Y001590D01*
X020474Y001437D02*
X020398Y001360D01*
X020244Y001360D01*
X020167Y001437D01*
X020167Y001744D01*
X020244Y001820D01*
X020398Y001820D01*
X020474Y001744D01*
X020474Y001437D01*
X020014Y001437D02*
X019937Y001360D01*
X019784Y001360D01*
X019707Y001437D01*
X019707Y001820D01*
X019554Y001820D02*
X019247Y001820D01*
X019400Y001820D02*
X019400Y001360D01*
X019093Y001437D02*
X019016Y001360D01*
X018863Y001360D01*
X018786Y001437D01*
X018786Y001513D01*
X018863Y001590D01*
X018940Y001590D01*
X018863Y001590D02*
X018786Y001667D01*
X018786Y001744D01*
X018863Y001820D01*
X019016Y001820D01*
X019093Y001744D01*
X020014Y001820D02*
X020014Y001437D01*
X013724Y001437D02*
X013648Y001360D01*
X013494Y001360D01*
X013417Y001437D01*
X013417Y001744D01*
X013494Y001820D01*
X013648Y001820D01*
X013724Y001744D01*
X013724Y001437D01*
X013264Y001437D02*
X013187Y001360D01*
X013034Y001360D01*
X012957Y001437D01*
X012957Y001820D01*
X012804Y001820D02*
X012497Y001820D01*
X012650Y001820D02*
X012650Y001360D01*
X012343Y001360D02*
X012036Y001667D01*
X012036Y001744D01*
X012113Y001820D01*
X012266Y001820D01*
X012343Y001744D01*
X013264Y001820D02*
X013264Y001437D01*
X012343Y001360D02*
X012036Y001360D01*
X006974Y001437D02*
X006898Y001360D01*
X006744Y001360D01*
X006667Y001437D01*
X006667Y001744D01*
X006744Y001820D01*
X006898Y001820D01*
X006974Y001744D01*
X006974Y001437D01*
X006514Y001437D02*
X006437Y001360D01*
X006284Y001360D01*
X006207Y001437D01*
X006207Y001820D01*
X006054Y001820D02*
X005747Y001820D01*
X005900Y001820D02*
X005900Y001360D01*
X005593Y001360D02*
X005286Y001360D01*
X005440Y001360D02*
X005440Y001820D01*
X005593Y001667D01*
X006514Y001820D02*
X006514Y001437D01*
X001474Y001513D02*
X001321Y001360D01*
X001167Y001513D01*
X001167Y001820D01*
X001014Y001820D02*
X000861Y001820D01*
X000937Y001820D02*
X000937Y001360D01*
X000861Y001360D02*
X001014Y001360D01*
X000707Y001360D02*
X000707Y001820D01*
X000400Y001360D01*
X000400Y001820D01*
X001474Y001820D02*
X001474Y001513D01*
M02*
