G75*
%MOIN*%
%OFA0B0*%
%FSLAX24Y24*%
%IPPOS*%
%LPD*%
%AMOC8*
5,1,8,0,0,1.08239X$1,22.5*
%
%ADD10C,0.0100*%
%ADD11C,0.0040*%
D10*
X002392Y002454D02*
X002392Y011142D01*
X006892Y011142D01*
X008954Y008517D02*
X008954Y006829D01*
X006579Y004392D02*
X004392Y004392D01*
X004392Y002454D01*
X002392Y002454D01*
X006580Y004392D02*
X006686Y004416D01*
X006792Y004445D01*
X006896Y004477D01*
X006999Y004513D01*
X007101Y004553D01*
X007202Y004596D01*
X007301Y004643D01*
X007398Y004693D01*
X007493Y004747D01*
X007586Y004804D01*
X007677Y004864D01*
X007766Y004928D01*
X007853Y004994D01*
X007937Y005064D01*
X008019Y005137D01*
X008098Y005212D01*
X008174Y005290D01*
X008248Y005371D01*
X008318Y005455D01*
X008386Y005541D01*
X008450Y005629D01*
X008511Y005720D01*
X008569Y005813D01*
X008624Y005907D01*
X008675Y006004D01*
X008723Y006102D01*
X008767Y006202D01*
X008808Y006304D01*
X008844Y006407D01*
X008878Y006511D01*
X008907Y006616D01*
X008933Y006722D01*
X008955Y006829D01*
X008954Y008516D02*
X008944Y008623D01*
X008930Y008729D01*
X008912Y008835D01*
X008890Y008940D01*
X008865Y009044D01*
X008836Y009148D01*
X008803Y009250D01*
X008767Y009351D01*
X008727Y009450D01*
X008684Y009548D01*
X008637Y009645D01*
X008587Y009739D01*
X008533Y009832D01*
X008476Y009923D01*
X008416Y010012D01*
X008353Y010099D01*
X008287Y010183D01*
X008217Y010265D01*
X008145Y010344D01*
X008070Y010421D01*
X007993Y010495D01*
X007913Y010566D01*
X007830Y010635D01*
X007745Y010700D01*
X007658Y010762D01*
X007568Y010821D01*
X007477Y010877D01*
X007383Y010930D01*
X007288Y010979D01*
X007191Y011025D01*
X007093Y011067D01*
X006993Y011106D01*
X006891Y011141D01*
X004504Y007892D02*
X004506Y007961D01*
X004512Y008030D01*
X004522Y008098D01*
X004536Y008166D01*
X004553Y008233D01*
X004575Y008299D01*
X004600Y008363D01*
X004629Y008426D01*
X004662Y008487D01*
X004698Y008546D01*
X004737Y008603D01*
X004780Y008657D01*
X004825Y008709D01*
X004874Y008759D01*
X004925Y008805D01*
X004979Y008848D01*
X005036Y008889D01*
X005094Y008925D01*
X005155Y008959D01*
X005217Y008989D01*
X005281Y009015D01*
X005346Y009037D01*
X005413Y009056D01*
X005481Y009071D01*
X005549Y009082D01*
X005618Y009089D01*
X005687Y009092D01*
X005756Y009091D01*
X005825Y009086D01*
X005893Y009077D01*
X005961Y009064D01*
X006028Y009047D01*
X006095Y009027D01*
X006159Y009002D01*
X006222Y008974D01*
X006284Y008943D01*
X006343Y008907D01*
X006401Y008869D01*
X006456Y008827D01*
X006509Y008782D01*
X006559Y008734D01*
X006606Y008684D01*
X006650Y008630D01*
X006691Y008575D01*
X006729Y008517D01*
X006763Y008457D01*
X006794Y008395D01*
X006821Y008331D01*
X006844Y008266D01*
X006864Y008200D01*
X006880Y008132D01*
X006892Y008064D01*
X006900Y007996D01*
X006904Y007927D01*
X006904Y007857D01*
X006900Y007788D01*
X006892Y007720D01*
X006880Y007652D01*
X006864Y007584D01*
X006844Y007518D01*
X006821Y007453D01*
X006794Y007389D01*
X006763Y007327D01*
X006729Y007267D01*
X006691Y007209D01*
X006650Y007154D01*
X006606Y007100D01*
X006559Y007050D01*
X006509Y007002D01*
X006456Y006957D01*
X006401Y006915D01*
X006343Y006877D01*
X006284Y006841D01*
X006222Y006810D01*
X006159Y006782D01*
X006095Y006757D01*
X006028Y006737D01*
X005961Y006720D01*
X005893Y006707D01*
X005825Y006698D01*
X005756Y006693D01*
X005687Y006692D01*
X005618Y006695D01*
X005549Y006702D01*
X005481Y006713D01*
X005413Y006728D01*
X005346Y006747D01*
X005281Y006769D01*
X005217Y006795D01*
X005155Y006825D01*
X005094Y006859D01*
X005036Y006895D01*
X004979Y006936D01*
X004925Y006979D01*
X004874Y007025D01*
X004825Y007075D01*
X004780Y007127D01*
X004737Y007181D01*
X004698Y007238D01*
X004662Y007297D01*
X004629Y007358D01*
X004600Y007421D01*
X004575Y007485D01*
X004553Y007551D01*
X004536Y007618D01*
X004522Y007686D01*
X004512Y007754D01*
X004506Y007823D01*
X004504Y007892D01*
D11*
X004142Y007642D02*
X002642Y007642D01*
X002642Y008267D01*
X004079Y008267D01*
X004142Y008204D01*
X004142Y007642D01*
X004079Y007517D02*
X004142Y007454D01*
X004142Y006892D01*
X002642Y006892D01*
X002642Y007517D01*
X004079Y007517D01*
X004079Y006704D02*
X004142Y006642D01*
X004142Y006079D01*
X002642Y006079D01*
X002642Y006704D01*
X004079Y006704D01*
X004079Y006392D02*
X004704Y006392D01*
X004704Y004954D01*
X004642Y004892D01*
X004079Y004892D01*
X004079Y006392D01*
X004079Y005892D02*
X004142Y005829D01*
X004142Y005267D01*
X002642Y005267D01*
X002642Y005892D01*
X004079Y005892D01*
X004704Y006392D02*
X005329Y006392D01*
X005329Y004954D01*
X005267Y004892D01*
X004704Y004892D01*
X004704Y006392D01*
X005329Y006392D02*
X005954Y006392D01*
X005954Y004954D01*
X005892Y004892D01*
X005329Y004892D01*
X005329Y006392D01*
X005956Y006371D02*
X006571Y006480D01*
X006821Y005064D01*
X006770Y004992D01*
X006216Y004894D01*
X005956Y006371D01*
X006456Y006400D02*
X006968Y006759D01*
X007793Y005581D01*
X007778Y005494D01*
X007317Y005171D01*
X006456Y006400D01*
X006961Y006621D02*
X007273Y007162D01*
X008518Y006444D01*
X008541Y006358D01*
X008260Y005871D01*
X006961Y006621D01*
X007142Y007079D02*
X007142Y007704D01*
X008579Y007704D01*
X008642Y007642D01*
X008642Y007079D01*
X007142Y007079D01*
X007142Y007829D02*
X007142Y008454D01*
X008579Y008454D01*
X008642Y008392D01*
X008642Y007829D01*
X007142Y007829D01*
X007313Y008348D02*
X007001Y008889D01*
X008245Y009608D01*
X008331Y009585D01*
X008612Y009098D01*
X007313Y008348D01*
X007195Y008863D02*
X006683Y009221D01*
X007508Y010399D01*
X007595Y010414D01*
X008055Y010092D01*
X007195Y008863D01*
X006806Y009284D02*
X006202Y009446D01*
X006574Y010835D01*
X006650Y010879D01*
X007194Y010733D01*
X006806Y009284D01*
X006204Y009392D02*
X005579Y009392D01*
X005579Y010829D01*
X005642Y010892D01*
X006204Y010892D01*
X006204Y009392D01*
X005454Y009392D02*
X004829Y009392D01*
X004829Y010829D01*
X004892Y010892D01*
X005454Y010892D01*
X005454Y009392D01*
X004704Y009392D02*
X004079Y009392D01*
X004079Y010829D01*
X004142Y010892D01*
X004704Y010892D01*
X004704Y009392D01*
X004142Y009204D02*
X002642Y009204D01*
X002642Y009829D01*
X004079Y009829D01*
X004142Y009767D01*
X004142Y009204D01*
X004079Y009017D02*
X004142Y008954D01*
X004142Y008392D01*
X002642Y008392D01*
X002642Y009017D01*
X004079Y009017D01*
X004142Y009954D02*
X002642Y009954D01*
X002642Y010579D01*
X004079Y010579D01*
X004142Y010517D01*
X004142Y009954D01*
X004079Y005079D02*
X002642Y005079D01*
X002642Y004454D01*
X004142Y004454D01*
X004142Y005017D01*
X004079Y005079D01*
X004079Y004267D02*
X004142Y004204D01*
X004142Y003642D01*
X002642Y003642D01*
X002642Y004267D01*
X004079Y004267D01*
X004079Y003454D02*
X004142Y003392D01*
X004142Y002829D01*
X002642Y002829D01*
X002642Y003454D01*
X004079Y003454D01*
M02*
