%
M48
M72
T01C0.0197
%
T01
X2892Y2829
X2892Y3454
X3829Y4454
X4329Y4892
X4642Y4767
X6267Y4954
X6767Y5079
X5767Y5704
X8454Y7642
X8392Y7079
X7767Y6642
X3329Y10267
X4017Y9204
X4392Y9204
X5767Y10079
X5392Y10704
X4892Y10704
X7454Y10267
X7954Y9892
X7767Y8954
X4142Y7392
X4142Y7017
X3329Y7954
X3329Y5579
X3829Y5079
M30
