G75*
G70*
%OFA0B0*%
%FSLAX24Y24*%
%IPPOS*%
%LPD*%
%AMOC8*
5,1,8,0,0,1.08239X$1,22.5*
%
%ADD10OC8,0.0860*%
%ADD11C,0.0740*%
%ADD12OC8,0.1240*%
D10*
X008681Y008681D03*
X009681Y008681D03*
X011181Y007681D03*
X012181Y007681D03*
X014181Y007681D03*
X015181Y007681D03*
X017181Y007681D03*
X018181Y007681D03*
X019681Y008681D03*
X020681Y008681D03*
X021681Y010681D03*
X022681Y010681D03*
X023681Y012681D03*
X024681Y012681D03*
X021681Y006181D03*
X020681Y006181D03*
X019181Y005181D03*
X018181Y005181D03*
X019681Y002931D03*
X020681Y002931D03*
X022181Y003931D03*
X023181Y003931D03*
X014431Y012681D03*
X013431Y012681D03*
X011931Y013681D03*
X010931Y013681D03*
X010931Y011181D03*
X009931Y011181D03*
X007681Y010681D03*
X006681Y010681D03*
X005681Y012681D03*
X004681Y012681D03*
X012181Y010181D03*
X013181Y010181D03*
X013181Y018181D03*
X014181Y018181D03*
X016181Y018181D03*
X017181Y018181D03*
X015681Y020681D03*
X014681Y020681D03*
X011181Y023681D03*
X010181Y023681D03*
X008181Y023681D03*
X007181Y023681D03*
X008681Y026181D03*
X009681Y026181D03*
X019181Y023681D03*
X020181Y023681D03*
X022181Y023681D03*
X023181Y023681D03*
X021681Y026181D03*
X020681Y026181D03*
D11*
X007181Y020681D03*
X007181Y019181D03*
X007181Y017681D03*
X007181Y016181D03*
X007181Y014681D03*
X004181Y014681D03*
X004181Y016181D03*
X004181Y017681D03*
X004181Y019181D03*
X004181Y020681D03*
X002621Y011742D03*
X004742Y009621D03*
D12*
X002681Y013181D03*
X002681Y014681D03*
X002681Y016181D03*
X002681Y017681D03*
X002681Y019181D03*
X002681Y020681D03*
X003681Y022681D03*
M02*
