G75*
%MOIN*%
%OFA0B0*%
%FSLAX24Y24*%
%IPPOS*%
%LPD*%
%AMOC8*
5,1,8,0,0,1.08239X$1,22.5*
%
%ADD10C,0.0000*%
%ADD11C,0.0100*%
%ADD12C,0.0040*%
%ADD13C,0.0080*%
D10*
X002392Y002517D02*
X002392Y011017D01*
X008892Y011017D01*
X008892Y002517D01*
X002392Y002517D01*
D11*
X002517Y002642D02*
X002517Y004767D01*
X007079Y009392D01*
X002892Y009392D01*
X002892Y010892D01*
X008704Y010892D01*
X008704Y008892D01*
X004079Y004142D01*
X008704Y004142D01*
X008704Y002642D01*
X002517Y002642D01*
D12*
X003142Y002642D02*
X003142Y004017D01*
X003267Y004142D01*
X003892Y004142D01*
X003892Y002642D01*
X003142Y002642D01*
X003892Y002642D02*
X003892Y004017D01*
X004017Y004142D01*
X004642Y004142D01*
X004642Y002642D01*
X004642Y004017D01*
X004767Y004142D01*
X005392Y004142D01*
X005392Y002642D01*
X005392Y004017D01*
X005517Y004142D01*
X006142Y004142D01*
X006142Y002642D01*
X005392Y002642D01*
X004642Y002642D01*
X003892Y002642D01*
X004017Y004017D02*
X002642Y004017D01*
X002517Y004142D01*
X002517Y004767D01*
X004017Y004767D01*
X004017Y004017D01*
X004704Y004704D02*
X003329Y004704D01*
X003204Y004829D01*
X003204Y005454D01*
X004704Y005454D01*
X004704Y004704D01*
X004017Y005392D02*
X003892Y005517D01*
X003892Y006142D01*
X005392Y006142D01*
X005392Y005392D01*
X004017Y005392D01*
X004767Y006142D02*
X004642Y006267D01*
X004642Y006892D01*
X006142Y006892D01*
X006142Y006142D01*
X004767Y006142D01*
X005454Y006829D02*
X005329Y006954D01*
X005329Y007579D01*
X006829Y007579D01*
X006829Y006829D01*
X005454Y006829D01*
X006142Y007517D02*
X006017Y007642D01*
X006017Y008267D01*
X007517Y008267D01*
X007517Y007517D01*
X006142Y007517D01*
X006829Y008204D02*
X006704Y008329D01*
X006704Y008954D01*
X008204Y008954D01*
X008204Y008204D01*
X006829Y008204D01*
X007329Y008892D02*
X007204Y009017D01*
X007204Y009642D01*
X008704Y009642D01*
X008704Y008892D01*
X007329Y008892D01*
X006767Y009392D02*
X006892Y009517D01*
X006892Y010892D01*
X006142Y010892D01*
X006142Y009392D01*
X006767Y009392D01*
X006954Y009704D02*
X006829Y009829D01*
X006829Y010454D01*
X008329Y010454D01*
X008329Y009704D01*
X006954Y009704D01*
X006079Y009517D02*
X005954Y009392D01*
X005329Y009392D01*
X005329Y010892D01*
X006079Y010892D01*
X006079Y009517D01*
X005267Y009517D02*
X005142Y009392D01*
X004517Y009392D01*
X004517Y010892D01*
X005267Y010892D01*
X005267Y009517D01*
X004454Y009517D02*
X004329Y009392D01*
X003704Y009392D01*
X003704Y010892D01*
X004454Y010892D01*
X004454Y009517D01*
X003642Y009517D02*
X003517Y009392D01*
X002892Y009392D01*
X002892Y010892D01*
X003642Y010892D01*
X003642Y009517D01*
X006267Y004142D02*
X006142Y004017D01*
X006142Y002642D01*
X006892Y002642D01*
X006892Y004017D01*
X007017Y004142D01*
X007642Y004142D01*
X007642Y002642D01*
X007642Y004017D01*
X007767Y004142D01*
X008392Y004142D01*
X008392Y002642D01*
X007642Y002642D01*
X006892Y002642D01*
X006892Y004142D01*
X006267Y004142D01*
D13*
X006447Y004307D02*
X006587Y004447D01*
X006587Y004727D01*
X006767Y004657D02*
X006767Y004377D01*
X006837Y004307D01*
X006977Y004307D01*
X007047Y004377D01*
X007047Y004657D01*
X006977Y004727D01*
X006837Y004727D01*
X006767Y004657D01*
X006447Y004307D02*
X006307Y004447D01*
X006307Y004727D01*
X006033Y004544D02*
X005963Y004615D01*
X005823Y004615D01*
X005752Y004544D01*
X005572Y004544D02*
X005502Y004615D01*
X005362Y004615D01*
X005292Y004544D01*
X005292Y004264D01*
X005362Y004194D01*
X005502Y004194D01*
X005572Y004264D01*
X005572Y004544D01*
X005752Y004194D02*
X006033Y004474D01*
X006033Y004544D01*
X006033Y004194D02*
X005752Y004194D01*
X005112Y004334D02*
X005112Y004615D01*
X004832Y004615D02*
X004832Y004334D01*
X004972Y004194D01*
X005112Y004334D01*
X003502Y005889D02*
X003502Y005988D01*
X003452Y006038D01*
X003353Y006038D01*
X003304Y005988D01*
X003353Y006038D02*
X003353Y006137D01*
X003304Y006186D01*
X003205Y006186D01*
X003105Y006087D01*
X003105Y005988D01*
X002978Y005861D02*
X002879Y005861D01*
X002780Y005762D01*
X002780Y005663D01*
X002978Y005464D01*
X003077Y005464D01*
X003176Y005564D01*
X003176Y005663D01*
X002978Y005861D01*
X003304Y005790D02*
X003403Y005790D01*
X003502Y005889D01*
X002801Y005387D02*
X002801Y005188D01*
X002603Y005188D01*
X002405Y005387D01*
X002603Y005585D02*
X002801Y005387D01*
X004598Y007191D02*
X004796Y007191D01*
X004796Y007389D01*
X004598Y007587D01*
X004774Y007665D02*
X004973Y007467D01*
X005072Y007467D01*
X005171Y007566D01*
X005171Y007665D01*
X004973Y007863D01*
X004874Y007863D01*
X004774Y007764D01*
X004774Y007665D01*
X004399Y007389D02*
X004598Y007191D01*
X005199Y007891D02*
X005397Y008089D01*
X005496Y007891D02*
X005199Y008188D01*
X005199Y007891D01*
X005559Y008441D02*
X005757Y008243D01*
X005955Y008243D01*
X005955Y008441D01*
X005757Y008639D01*
X005934Y008717D02*
X005934Y008816D01*
X006033Y008915D01*
X006132Y008915D01*
X006330Y008717D01*
X006330Y008618D01*
X006231Y008519D01*
X006132Y008519D01*
X005934Y008717D01*
X005752Y008939D02*
X005752Y009009D01*
X005681Y009079D01*
X005471Y009079D01*
X005471Y008939D01*
X005541Y008869D01*
X005681Y008869D01*
X005752Y008939D01*
X005611Y009219D02*
X005471Y009079D01*
X005611Y009219D02*
X005752Y009290D01*
X005291Y009219D02*
X005291Y008939D01*
X005221Y008869D01*
X005081Y008869D01*
X005011Y008939D01*
X005011Y009219D01*
X005081Y009290D01*
X005221Y009290D01*
X005291Y009219D01*
X004831Y009290D02*
X004831Y009009D01*
X004691Y008869D01*
X004550Y009009D01*
X004550Y009290D01*
X003896Y009181D02*
X003896Y009111D01*
X003615Y008831D01*
X003615Y008761D01*
X003435Y008831D02*
X003365Y008761D01*
X003225Y008761D01*
X003155Y008831D01*
X003155Y009111D01*
X003225Y009181D01*
X003365Y009181D01*
X003435Y009111D01*
X003435Y008831D01*
X003615Y009181D02*
X003896Y009181D01*
X002975Y009181D02*
X002975Y008901D01*
X002835Y008761D01*
X002695Y008901D01*
X002695Y009181D01*
X006210Y009092D02*
X006359Y008944D01*
X006408Y009092D01*
X006458Y009142D01*
X006557Y009142D01*
X006656Y009043D01*
X006656Y008944D01*
X006557Y008845D01*
X006458Y008845D01*
X006210Y009092D02*
X006408Y009290D01*
X007368Y004727D02*
X007368Y004307D01*
X007508Y004307D02*
X007227Y004307D01*
X007227Y004587D02*
X007368Y004727D01*
X007682Y004665D02*
X007682Y004384D01*
X007822Y004244D01*
X007962Y004384D01*
X007962Y004665D01*
X008142Y004665D02*
X008282Y004665D01*
X008212Y004665D02*
X008212Y004244D01*
X008142Y004244D02*
X008282Y004244D01*
X008449Y004244D02*
X008449Y004665D01*
X008729Y004244D01*
X008729Y004665D01*
M02*
