G75*
%MOIN*%
%OFA0B0*%
%FSLAX24Y24*%
%IPPOS*%
%LPD*%
%AMOC8*
5,1,8,0,0,1.08239X$1,22.5*
%
%ADD10C,0.0000*%
%ADD11R,0.0472X0.0472*%
%ADD12R,0.0472X0.0472*%
D10*
X002392Y002517D02*
X002392Y011017D01*
X008892Y011017D01*
X008892Y002517D01*
X002392Y002517D01*
D11*
X002978Y005267D03*
X002978Y006017D03*
X002978Y006767D03*
X002978Y007517D03*
X002978Y008267D03*
X003805Y008267D03*
X003805Y007517D03*
X003805Y006767D03*
X003805Y006017D03*
X003805Y005267D03*
X005079Y003805D03*
X005829Y003805D03*
X006579Y003805D03*
X006579Y002978D03*
X005829Y002978D03*
X005079Y002978D03*
X007478Y005642D03*
X007829Y006291D03*
X008305Y005642D03*
X007079Y006304D03*
X006267Y006353D03*
X005454Y006353D03*
X005454Y007180D03*
X006267Y007180D03*
X007079Y007131D03*
X007829Y007118D03*
X006329Y009728D03*
X005642Y009728D03*
X004954Y009728D03*
X004954Y010555D03*
X005642Y010555D03*
X006329Y010555D03*
D12*
G36*
X007262Y010509D02*
X007670Y010273D01*
X007434Y009865D01*
X007026Y010101D01*
X007262Y010509D01*
G37*
G36*
X006849Y009793D02*
X007257Y009557D01*
X007021Y009149D01*
X006613Y009385D01*
X006849Y009793D01*
G37*
G36*
X007495Y009257D02*
X007731Y008849D01*
X007323Y008613D01*
X007087Y009021D01*
X007495Y009257D01*
G37*
G36*
X008211Y009670D02*
X008447Y009262D01*
X008039Y009026D01*
X007803Y009434D01*
X008211Y009670D01*
G37*
G36*
X004026Y009557D02*
X004434Y009793D01*
X004670Y009385D01*
X004262Y009149D01*
X004026Y009557D01*
G37*
G36*
X003553Y008849D02*
X003789Y009257D01*
X004197Y009021D01*
X003961Y008613D01*
X003553Y008849D01*
G37*
G36*
X002837Y009262D02*
X003073Y009670D01*
X003481Y009434D01*
X003245Y009026D01*
X002837Y009262D01*
G37*
G36*
X003613Y010273D02*
X004021Y010509D01*
X004257Y010101D01*
X003849Y009865D01*
X003613Y010273D01*
G37*
G36*
X007672Y005033D02*
X007549Y004578D01*
X007094Y004701D01*
X007217Y005156D01*
X007672Y005033D01*
G37*
G36*
X008470Y004819D02*
X008347Y004364D01*
X007892Y004487D01*
X008015Y004942D01*
X008470Y004819D01*
G37*
G36*
X008008Y003609D02*
X007675Y003276D01*
X007342Y003609D01*
X007675Y003942D01*
X008008Y003609D01*
G37*
G36*
X007424Y004194D02*
X007091Y003861D01*
X006758Y004194D01*
X007091Y004527D01*
X007424Y004194D01*
G37*
G36*
X004434Y003740D02*
X004026Y003976D01*
X004262Y004384D01*
X004670Y004148D01*
X004434Y003740D01*
G37*
G36*
X004021Y003024D02*
X003613Y003260D01*
X003849Y003668D01*
X004257Y003432D01*
X004021Y003024D01*
G37*
G36*
X003073Y003800D02*
X002837Y004208D01*
X003245Y004444D01*
X003481Y004036D01*
X003073Y003800D01*
G37*
G36*
X003789Y004214D02*
X003553Y004622D01*
X003961Y004858D01*
X004197Y004450D01*
X003789Y004214D01*
G37*
M02*
