G75*
G70*
%OFA0B0*%
%FSLAX24Y24*%
%IPPOS*%
%LPD*%
%AMOC8*
5,1,8,0,0,1.08239X$1,22.5*
%
%ADD10C,0.0000*%
%ADD11C,0.0030*%
%ADD12C,0.0060*%
%ADD13C,0.0040*%
%ADD14C,0.0050*%
%ADD15C,0.0240*%
%ADD16R,0.0300X0.1500*%
%ADD17R,0.1500X0.0300*%
%ADD18C,0.0080*%
%ADD19C,0.0100*%
%ADD20R,0.0750X0.0600*%
D10*
X000101Y000101D02*
X000101Y032101D01*
X035601Y032101D01*
X035601Y000101D01*
X000101Y000101D01*
X000971Y001601D02*
X001009Y001816D01*
X001118Y002006D01*
X001286Y002147D01*
X001492Y002221D01*
X001710Y002221D01*
X001916Y002147D01*
X002084Y002006D01*
X002193Y001816D01*
X002231Y001601D01*
X002193Y001386D01*
X002084Y001196D01*
X001916Y001055D01*
X001710Y000981D01*
X001492Y000981D01*
X001286Y001055D01*
X001118Y001196D01*
X001009Y001386D01*
X000971Y001601D01*
X000971Y030601D02*
X001009Y030816D01*
X001118Y031006D01*
X001286Y031147D01*
X001492Y031221D01*
X001710Y031221D01*
X001916Y031147D01*
X002084Y031006D01*
X002193Y030816D01*
X002231Y030601D01*
X002193Y030386D01*
X002084Y030196D01*
X001916Y030055D01*
X001710Y029981D01*
X001492Y029981D01*
X001286Y030055D01*
X001118Y030196D01*
X001009Y030386D01*
X000971Y030601D01*
X033471Y030601D02*
X033509Y030816D01*
X033618Y031006D01*
X033786Y031147D01*
X033992Y031221D01*
X034210Y031221D01*
X034416Y031147D01*
X034584Y031006D01*
X034693Y030816D01*
X034731Y030601D01*
X034693Y030386D01*
X034584Y030196D01*
X034416Y030055D01*
X034210Y029981D01*
X033992Y029981D01*
X033786Y030055D01*
X033618Y030196D01*
X033509Y030386D01*
X033471Y030601D01*
X033471Y001601D02*
X033509Y001816D01*
X033618Y002006D01*
X033786Y002147D01*
X033992Y002221D01*
X034210Y002221D01*
X034416Y002147D01*
X034584Y002006D01*
X034693Y001816D01*
X034731Y001601D01*
X034693Y001386D01*
X034584Y001196D01*
X034416Y001055D01*
X034210Y000981D01*
X033992Y000981D01*
X033786Y001055D01*
X033618Y001196D01*
X033509Y001386D01*
X033471Y001601D01*
D11*
X030015Y000586D02*
X029821Y000586D01*
X029918Y000586D02*
X029918Y000876D01*
X029821Y000779D01*
X029720Y000828D02*
X029672Y000876D01*
X029526Y000876D01*
X029526Y000586D01*
X029672Y000586D01*
X029720Y000634D01*
X029720Y000828D01*
X029425Y000876D02*
X029232Y000876D01*
X029232Y000586D01*
X029425Y000586D01*
X029329Y000731D02*
X029232Y000731D01*
X029131Y000586D02*
X028937Y000586D01*
X028937Y000876D01*
X028942Y001146D02*
X028942Y001436D01*
X028796Y001291D01*
X028990Y001291D01*
X029091Y001339D02*
X029188Y001436D01*
X029188Y001146D01*
X029091Y001146D02*
X029285Y001146D01*
X028695Y001146D02*
X028599Y001243D01*
X028647Y001243D02*
X028502Y001243D01*
X028502Y001146D02*
X028502Y001436D01*
X028647Y001436D01*
X028695Y001388D01*
X028695Y001291D01*
X028647Y001243D01*
X028288Y003241D02*
X028102Y003241D01*
X028102Y003611D01*
X028288Y003611D01*
X028349Y003549D01*
X028349Y003302D01*
X028288Y003241D01*
X027981Y003241D02*
X027981Y003611D01*
X027734Y003611D02*
X027734Y003241D01*
X027613Y003302D02*
X027613Y003426D01*
X027489Y003426D01*
X027366Y003549D02*
X027366Y003302D01*
X027427Y003241D01*
X027551Y003241D01*
X027613Y003302D01*
X027613Y003549D02*
X027551Y003611D01*
X027427Y003611D01*
X027366Y003549D01*
X027734Y003611D02*
X027981Y003241D01*
X026306Y004125D02*
X026257Y004076D01*
X026306Y004125D02*
X026306Y004222D01*
X026257Y004270D01*
X026209Y004270D01*
X026161Y004222D01*
X026161Y004125D01*
X026112Y004076D01*
X026064Y004076D01*
X026016Y004125D01*
X026016Y004222D01*
X026064Y004270D01*
X026064Y004371D02*
X026016Y004419D01*
X026016Y004516D01*
X026064Y004565D01*
X026112Y004565D01*
X026306Y004371D01*
X026306Y004565D01*
X024731Y003426D02*
X024484Y003426D01*
X024363Y003364D02*
X024363Y003611D01*
X024363Y003364D02*
X024239Y003241D01*
X024116Y003364D01*
X024116Y003611D01*
X024608Y003549D02*
X024608Y003302D01*
X023099Y003302D02*
X023099Y003549D01*
X023038Y003611D01*
X022852Y003611D01*
X022852Y003241D01*
X023038Y003241D01*
X023099Y003302D01*
X022731Y003241D02*
X022731Y003611D01*
X022484Y003611D02*
X022484Y003241D01*
X022363Y003302D02*
X022363Y003426D01*
X022239Y003426D01*
X022116Y003549D02*
X022116Y003302D01*
X022177Y003241D01*
X022301Y003241D01*
X022363Y003302D01*
X022363Y003549D02*
X022301Y003611D01*
X022177Y003611D01*
X022116Y003549D01*
X022484Y003611D02*
X022731Y003241D01*
X021556Y004125D02*
X021556Y004222D01*
X021507Y004270D01*
X021459Y004270D01*
X021411Y004222D01*
X021411Y004125D01*
X021362Y004076D01*
X021314Y004076D01*
X021266Y004125D01*
X021266Y004222D01*
X021314Y004270D01*
X021362Y004371D02*
X021266Y004468D01*
X021556Y004468D01*
X021556Y004371D02*
X021556Y004565D01*
X021556Y004125D02*
X021507Y004076D01*
X019856Y003426D02*
X019609Y003426D01*
X019488Y003364D02*
X019488Y003611D01*
X019488Y003364D02*
X019364Y003241D01*
X019241Y003364D01*
X019241Y003611D01*
X019733Y003549D02*
X019733Y003302D01*
X020616Y000656D02*
X020809Y000366D01*
X020910Y000366D02*
X021104Y000366D01*
X021007Y000366D02*
X021007Y000656D01*
X020910Y000559D01*
X020809Y000656D02*
X020616Y000366D01*
X021205Y000366D02*
X021399Y000559D01*
X021399Y000608D01*
X021350Y000656D01*
X021253Y000656D01*
X021205Y000608D01*
X021205Y000366D02*
X021399Y000366D01*
X017399Y000366D02*
X017205Y000366D01*
X017302Y000366D02*
X017302Y000656D01*
X017205Y000559D01*
X017104Y000559D02*
X017104Y000608D01*
X017056Y000656D01*
X016959Y000656D01*
X016910Y000608D01*
X016809Y000656D02*
X016616Y000366D01*
X016809Y000366D02*
X016616Y000656D01*
X016910Y000366D02*
X017104Y000559D01*
X017104Y000366D02*
X016910Y000366D01*
X013399Y000414D02*
X013350Y000366D01*
X013253Y000366D01*
X013205Y000414D01*
X013399Y000608D01*
X013399Y000414D01*
X013399Y000608D02*
X013350Y000656D01*
X013253Y000656D01*
X013205Y000608D01*
X013205Y000414D01*
X013104Y000366D02*
X012910Y000366D01*
X013104Y000559D01*
X013104Y000608D01*
X013056Y000656D01*
X012959Y000656D01*
X012910Y000608D01*
X012809Y000656D02*
X012616Y000366D01*
X012809Y000366D02*
X012616Y000656D01*
X008216Y004586D02*
X008216Y004876D01*
X008071Y004731D01*
X008265Y004731D01*
X007970Y004828D02*
X007922Y004876D01*
X007776Y004876D01*
X007776Y004586D01*
X007922Y004586D01*
X007970Y004634D01*
X007970Y004828D01*
X007675Y004876D02*
X007482Y004876D01*
X007482Y004586D01*
X007675Y004586D01*
X007579Y004731D02*
X007482Y004731D01*
X007381Y004586D02*
X007187Y004586D01*
X007187Y004876D01*
X006436Y004629D02*
X006436Y004435D01*
X006242Y004629D01*
X006194Y004629D01*
X006146Y004580D01*
X006146Y004483D01*
X006194Y004435D01*
X006291Y004334D02*
X006291Y004140D01*
X006146Y004286D01*
X006436Y004286D01*
X006436Y004039D02*
X006339Y003943D01*
X006339Y003991D02*
X006339Y003846D01*
X006436Y003846D02*
X006146Y003846D01*
X006146Y003991D01*
X006194Y004039D01*
X006291Y004039D01*
X006339Y003991D01*
X006937Y002126D02*
X006937Y001836D01*
X007131Y001836D01*
X007232Y001836D02*
X007232Y002126D01*
X007425Y002126D01*
X007526Y002126D02*
X007526Y001836D01*
X007672Y001836D01*
X007720Y001884D01*
X007720Y002078D01*
X007672Y002126D01*
X007526Y002126D01*
X007329Y001981D02*
X007232Y001981D01*
X007232Y001836D02*
X007425Y001836D01*
X007821Y001836D02*
X008015Y002029D01*
X008015Y002078D01*
X007966Y002126D01*
X007869Y002126D01*
X007821Y002078D01*
X007821Y001836D02*
X008015Y001836D01*
X006436Y006596D02*
X006146Y006596D01*
X006146Y006741D01*
X006194Y006789D01*
X006291Y006789D01*
X006339Y006741D01*
X006339Y006596D01*
X006339Y006693D02*
X006436Y006789D01*
X006436Y006890D02*
X006242Y007084D01*
X006194Y007084D01*
X006146Y007036D01*
X006146Y006939D01*
X006194Y006890D01*
X006436Y006890D02*
X006436Y007084D01*
X006291Y007185D02*
X006291Y007379D01*
X006436Y007330D02*
X006146Y007330D01*
X006291Y007185D01*
X007187Y007336D02*
X007381Y007336D01*
X007482Y007336D02*
X007675Y007336D01*
X007776Y007336D02*
X007922Y007336D01*
X007970Y007384D01*
X007970Y007578D01*
X007922Y007626D01*
X007776Y007626D01*
X007776Y007336D01*
X007579Y007481D02*
X007482Y007481D01*
X007482Y007626D02*
X007482Y007336D01*
X007482Y007626D02*
X007675Y007626D01*
X008071Y007578D02*
X008119Y007626D01*
X008216Y007626D01*
X008265Y007578D01*
X008265Y007529D01*
X008216Y007481D01*
X008265Y007433D01*
X008265Y007384D01*
X008216Y007336D01*
X008119Y007336D01*
X008071Y007384D01*
X008168Y007481D02*
X008216Y007481D01*
X007187Y007626D02*
X007187Y007336D01*
X006436Y009346D02*
X006146Y009346D01*
X006146Y009491D01*
X006194Y009539D01*
X006291Y009539D01*
X006339Y009491D01*
X006339Y009346D01*
X006339Y009443D02*
X006436Y009539D01*
X006436Y009640D02*
X006242Y009834D01*
X006194Y009834D01*
X006146Y009786D01*
X006146Y009689D01*
X006194Y009640D01*
X006436Y009640D02*
X006436Y009834D01*
X006387Y009935D02*
X006436Y009983D01*
X006436Y010080D01*
X006387Y010129D01*
X006339Y010129D01*
X006291Y010080D01*
X006291Y010032D01*
X006291Y010080D02*
X006242Y010129D01*
X006194Y010129D01*
X006146Y010080D01*
X006146Y009983D01*
X006194Y009935D01*
X013596Y009863D02*
X013741Y009863D01*
X013789Y009911D01*
X013789Y010008D01*
X013741Y010056D01*
X013596Y010056D01*
X013596Y009766D01*
X013693Y009863D02*
X013789Y009766D01*
X013890Y009911D02*
X014084Y009911D01*
X014185Y010008D02*
X014233Y010056D01*
X014330Y010056D01*
X014379Y010008D01*
X014379Y009959D01*
X014330Y009911D01*
X014379Y009863D01*
X014379Y009814D01*
X014330Y009766D01*
X014233Y009766D01*
X014185Y009814D01*
X014282Y009911D02*
X014330Y009911D01*
X014036Y010056D02*
X013890Y009911D01*
X014036Y009766D02*
X014036Y010056D01*
X017596Y010056D02*
X017596Y009766D01*
X017596Y009863D02*
X017741Y009863D01*
X017789Y009911D01*
X017789Y010008D01*
X017741Y010056D01*
X017596Y010056D01*
X017693Y009863D02*
X017789Y009766D01*
X017890Y009911D02*
X018036Y010056D01*
X018036Y009766D01*
X018084Y009911D02*
X017890Y009911D01*
X018185Y009911D02*
X018379Y009911D01*
X018330Y009766D02*
X018330Y010056D01*
X018185Y009911D01*
X021396Y009939D02*
X021396Y010036D01*
X021444Y010084D01*
X021492Y010084D01*
X021541Y010036D01*
X021589Y010084D01*
X021637Y010084D01*
X021686Y010036D01*
X021686Y009939D01*
X021637Y009890D01*
X021686Y009789D02*
X021589Y009693D01*
X021589Y009741D02*
X021589Y009596D01*
X021686Y009596D02*
X021396Y009596D01*
X021396Y009741D01*
X021444Y009789D01*
X021541Y009789D01*
X021589Y009741D01*
X021444Y009890D02*
X021396Y009939D01*
X021541Y009987D02*
X021541Y010036D01*
X021589Y010185D02*
X021541Y010233D01*
X021541Y010330D01*
X021589Y010379D01*
X021637Y010379D01*
X021686Y010330D01*
X021686Y010233D01*
X021637Y010185D01*
X021589Y010185D01*
X021541Y010233D02*
X021492Y010185D01*
X021444Y010185D01*
X021396Y010233D01*
X021396Y010330D01*
X021444Y010379D01*
X021492Y010379D01*
X021541Y010330D01*
X022396Y010379D02*
X022396Y010185D01*
X022444Y010084D02*
X022492Y010084D01*
X022541Y010036D01*
X022589Y010084D01*
X022637Y010084D01*
X022686Y010036D01*
X022686Y009939D01*
X022637Y009890D01*
X022686Y009789D02*
X022589Y009693D01*
X022589Y009741D02*
X022589Y009596D01*
X022686Y009596D02*
X022396Y009596D01*
X022396Y009741D01*
X022444Y009789D01*
X022541Y009789D01*
X022589Y009741D01*
X022444Y009890D02*
X022396Y009939D01*
X022396Y010036D01*
X022444Y010084D01*
X022541Y010036D02*
X022541Y009987D01*
X022637Y010185D02*
X022686Y010185D01*
X022637Y010185D02*
X022444Y010379D01*
X022396Y010379D01*
X023396Y010379D02*
X023444Y010282D01*
X023541Y010185D01*
X023541Y010330D01*
X023589Y010379D01*
X023637Y010379D01*
X023686Y010330D01*
X023686Y010233D01*
X023637Y010185D01*
X023541Y010185D01*
X023589Y010084D02*
X023541Y010036D01*
X023541Y009987D01*
X023541Y010036D02*
X023492Y010084D01*
X023444Y010084D01*
X023396Y010036D01*
X023396Y009939D01*
X023444Y009890D01*
X023444Y009789D02*
X023541Y009789D01*
X023589Y009741D01*
X023589Y009596D01*
X023589Y009693D02*
X023686Y009789D01*
X023637Y009890D02*
X023686Y009939D01*
X023686Y010036D01*
X023637Y010084D01*
X023589Y010084D01*
X023444Y009789D02*
X023396Y009741D01*
X023396Y009596D01*
X023686Y009596D01*
X024396Y009596D02*
X024396Y009741D01*
X024444Y009789D01*
X024541Y009789D01*
X024589Y009741D01*
X024589Y009596D01*
X024589Y009693D02*
X024686Y009789D01*
X024637Y009890D02*
X024686Y009939D01*
X024686Y010036D01*
X024637Y010084D01*
X024589Y010084D01*
X024541Y010036D01*
X024541Y009987D01*
X024541Y010036D02*
X024492Y010084D01*
X024444Y010084D01*
X024396Y010036D01*
X024396Y009939D01*
X024444Y009890D01*
X024396Y009596D02*
X024686Y009596D01*
X024637Y010185D02*
X024686Y010233D01*
X024686Y010330D01*
X024637Y010379D01*
X024541Y010379D01*
X024492Y010330D01*
X024492Y010282D01*
X024541Y010185D01*
X024396Y010185D01*
X024396Y010379D01*
X026146Y010330D02*
X026291Y010185D01*
X026291Y010379D01*
X026436Y010330D02*
X026146Y010330D01*
X026194Y010084D02*
X026242Y010084D01*
X026291Y010036D01*
X026339Y010084D01*
X026387Y010084D01*
X026436Y010036D01*
X026436Y009939D01*
X026387Y009890D01*
X026436Y009789D02*
X026339Y009693D01*
X026339Y009741D02*
X026339Y009596D01*
X026436Y009596D02*
X026146Y009596D01*
X026146Y009741D01*
X026194Y009789D01*
X026291Y009789D01*
X026339Y009741D01*
X026194Y009890D02*
X026146Y009939D01*
X026146Y010036D01*
X026194Y010084D01*
X026291Y010036D02*
X026291Y009987D01*
X027146Y009939D02*
X027146Y010036D01*
X027194Y010084D01*
X027242Y010084D01*
X027291Y010036D01*
X027339Y010084D01*
X027387Y010084D01*
X027436Y010036D01*
X027436Y009939D01*
X027387Y009890D01*
X027436Y009789D02*
X027339Y009693D01*
X027339Y009741D02*
X027339Y009596D01*
X027436Y009596D02*
X027146Y009596D01*
X027146Y009741D01*
X027194Y009789D01*
X027291Y009789D01*
X027339Y009741D01*
X027194Y009890D02*
X027146Y009939D01*
X027291Y009987D02*
X027291Y010036D01*
X027387Y010185D02*
X027436Y010233D01*
X027436Y010330D01*
X027387Y010379D01*
X027339Y010379D01*
X027291Y010330D01*
X027291Y010282D01*
X027291Y010330D02*
X027242Y010379D01*
X027194Y010379D01*
X027146Y010330D01*
X027146Y010233D01*
X027194Y010185D01*
X028146Y010233D02*
X028194Y010185D01*
X028146Y010233D02*
X028146Y010330D01*
X028194Y010379D01*
X028242Y010379D01*
X028436Y010185D01*
X028436Y010379D01*
X028387Y010084D02*
X028436Y010036D01*
X028436Y009939D01*
X028387Y009890D01*
X028436Y009789D02*
X028339Y009693D01*
X028339Y009741D02*
X028339Y009596D01*
X028436Y009596D02*
X028146Y009596D01*
X028146Y009741D01*
X028194Y009789D01*
X028291Y009789D01*
X028339Y009741D01*
X028194Y009890D02*
X028146Y009939D01*
X028146Y010036D01*
X028194Y010084D01*
X028242Y010084D01*
X028291Y010036D01*
X028339Y010084D01*
X028387Y010084D01*
X028291Y010036D02*
X028291Y009987D01*
X029146Y009939D02*
X029146Y010036D01*
X029194Y010084D01*
X029242Y010084D01*
X029291Y010036D01*
X029339Y010084D01*
X029387Y010084D01*
X029436Y010036D01*
X029436Y009939D01*
X029387Y009890D01*
X029436Y009789D02*
X029339Y009693D01*
X029339Y009741D02*
X029339Y009596D01*
X029436Y009596D02*
X029146Y009596D01*
X029146Y009741D01*
X029194Y009789D01*
X029291Y009789D01*
X029339Y009741D01*
X029194Y009890D02*
X029146Y009939D01*
X029291Y009987D02*
X029291Y010036D01*
X029242Y010185D02*
X029146Y010282D01*
X029436Y010282D01*
X029436Y010185D02*
X029436Y010379D01*
X029896Y013596D02*
X029896Y013741D01*
X029944Y013789D01*
X030041Y013789D01*
X030089Y013741D01*
X030089Y013596D01*
X030089Y013693D02*
X030186Y013789D01*
X030137Y013890D02*
X030186Y013939D01*
X030186Y014036D01*
X030137Y014084D01*
X030089Y014084D01*
X030041Y014036D01*
X030041Y013987D01*
X030041Y014036D02*
X029992Y014084D01*
X029944Y014084D01*
X029896Y014036D01*
X029896Y013939D01*
X029944Y013890D01*
X029944Y014185D02*
X029992Y014185D01*
X030041Y014233D01*
X030041Y014379D01*
X030137Y014379D02*
X029944Y014379D01*
X029896Y014330D01*
X029896Y014233D01*
X029944Y014185D01*
X030137Y014185D02*
X030186Y014233D01*
X030186Y014330D01*
X030137Y014379D01*
X030089Y014596D02*
X030089Y014741D01*
X030041Y014789D01*
X029944Y014789D01*
X029896Y014741D01*
X029896Y014596D01*
X030186Y014596D01*
X030089Y014693D02*
X030186Y014789D01*
X030041Y014890D02*
X029896Y015036D01*
X030186Y015036D01*
X030041Y015084D02*
X030041Y014890D01*
X030137Y015185D02*
X029944Y015379D01*
X030137Y015379D01*
X030186Y015330D01*
X030186Y015233D01*
X030137Y015185D01*
X029944Y015185D01*
X029896Y015233D01*
X029896Y015330D01*
X029944Y015379D01*
X029896Y015596D02*
X029896Y015741D01*
X029944Y015789D01*
X030041Y015789D01*
X030089Y015741D01*
X030089Y015596D01*
X030089Y015693D02*
X030186Y015789D01*
X030041Y015890D02*
X030041Y016084D01*
X030041Y016185D02*
X029992Y016282D01*
X029992Y016330D01*
X030041Y016379D01*
X030137Y016379D01*
X030186Y016330D01*
X030186Y016233D01*
X030137Y016185D01*
X030041Y016185D02*
X029896Y016185D01*
X029896Y016379D01*
X029896Y016596D02*
X029896Y016741D01*
X029944Y016789D01*
X030041Y016789D01*
X030089Y016741D01*
X030089Y016596D01*
X030089Y016693D02*
X030186Y016789D01*
X030041Y016890D02*
X030041Y017084D01*
X030041Y017185D02*
X030041Y017330D01*
X030089Y017379D01*
X030137Y017379D01*
X030186Y017330D01*
X030186Y017233D01*
X030137Y017185D01*
X030041Y017185D01*
X029944Y017282D01*
X029896Y017379D01*
X029896Y017596D02*
X029896Y017741D01*
X029944Y017789D01*
X030041Y017789D01*
X030089Y017741D01*
X030089Y017596D01*
X030089Y017693D02*
X030186Y017789D01*
X030041Y017890D02*
X030041Y018084D01*
X030137Y018185D02*
X030186Y018185D01*
X030137Y018185D02*
X029944Y018379D01*
X029896Y018379D01*
X029896Y018185D01*
X029896Y018036D02*
X030041Y017890D01*
X030186Y018036D02*
X029896Y018036D01*
X029896Y018596D02*
X029896Y018741D01*
X029944Y018789D01*
X030041Y018789D01*
X030089Y018741D01*
X030089Y018596D01*
X030089Y018693D02*
X030186Y018789D01*
X030041Y018890D02*
X030041Y019084D01*
X030089Y019185D02*
X030041Y019233D01*
X030041Y019330D01*
X030089Y019379D01*
X030137Y019379D01*
X030186Y019330D01*
X030186Y019233D01*
X030137Y019185D01*
X030089Y019185D01*
X030041Y019233D02*
X029992Y019185D01*
X029944Y019185D01*
X029896Y019233D01*
X029896Y019330D01*
X029944Y019379D01*
X029992Y019379D01*
X030041Y019330D01*
X030089Y019596D02*
X030089Y019741D01*
X030041Y019789D01*
X029944Y019789D01*
X029896Y019741D01*
X029896Y019596D01*
X030186Y019596D01*
X030089Y019693D02*
X030186Y019789D01*
X030041Y019890D02*
X030041Y020084D01*
X029992Y020185D02*
X030041Y020233D01*
X030041Y020379D01*
X030137Y020379D02*
X029944Y020379D01*
X029896Y020330D01*
X029896Y020233D01*
X029944Y020185D01*
X029992Y020185D01*
X030137Y020185D02*
X030186Y020233D01*
X030186Y020330D01*
X030137Y020379D01*
X030089Y020596D02*
X030089Y020741D01*
X030041Y020789D01*
X029944Y020789D01*
X029896Y020741D01*
X029896Y020596D01*
X030186Y020596D01*
X030089Y020693D02*
X030186Y020789D01*
X030137Y020890D02*
X030186Y020939D01*
X030186Y021036D01*
X030137Y021084D01*
X030041Y021084D01*
X029992Y021036D01*
X029992Y020987D01*
X030041Y020890D01*
X029896Y020890D01*
X029896Y021084D01*
X029944Y021185D02*
X029896Y021233D01*
X029896Y021330D01*
X029944Y021379D01*
X030137Y021185D01*
X030186Y021233D01*
X030186Y021330D01*
X030137Y021379D01*
X029944Y021379D01*
X029944Y021185D02*
X030137Y021185D01*
X030186Y020036D02*
X029896Y020036D01*
X030041Y019890D01*
X030186Y019036D02*
X029896Y019036D01*
X030041Y018890D01*
X030186Y018596D02*
X029896Y018596D01*
X029896Y017596D02*
X030186Y017596D01*
X030186Y017036D02*
X029896Y017036D01*
X030041Y016890D01*
X030186Y016596D02*
X029896Y016596D01*
X029896Y016036D02*
X030041Y015890D01*
X030186Y016036D02*
X029896Y016036D01*
X029896Y015596D02*
X030186Y015596D01*
X030186Y013596D02*
X029896Y013596D01*
X033607Y013711D02*
X033800Y013421D01*
X033901Y013421D02*
X034095Y013421D01*
X033998Y013421D02*
X033998Y013711D01*
X033901Y013614D01*
X033800Y013711D02*
X033607Y013421D01*
X034196Y013469D02*
X034244Y013421D01*
X034341Y013421D01*
X034390Y013469D01*
X034390Y013566D01*
X034341Y013614D01*
X034293Y013614D01*
X034196Y013566D01*
X034196Y013711D01*
X034390Y013711D01*
X034341Y017421D02*
X034244Y017421D01*
X034196Y017469D01*
X034095Y017421D02*
X033901Y017421D01*
X033998Y017421D02*
X033998Y017711D01*
X033901Y017614D01*
X033800Y017711D02*
X033607Y017421D01*
X033800Y017421D02*
X033607Y017711D01*
X034196Y017663D02*
X034244Y017711D01*
X034341Y017711D01*
X034390Y017663D01*
X034390Y017614D01*
X034341Y017566D01*
X034390Y017518D01*
X034390Y017469D01*
X034341Y017421D01*
X034341Y017566D02*
X034293Y017566D01*
X034350Y021366D02*
X034350Y021656D01*
X034205Y021511D01*
X034399Y021511D01*
X034104Y021366D02*
X033910Y021366D01*
X034007Y021366D02*
X034007Y021656D01*
X033910Y021559D01*
X033809Y021656D02*
X033616Y021366D01*
X033809Y021366D02*
X033616Y021656D01*
X031035Y023396D02*
X030841Y023396D01*
X031035Y023589D01*
X031035Y023638D01*
X030986Y023686D01*
X030889Y023686D01*
X030841Y023638D01*
X030740Y023638D02*
X030692Y023686D01*
X030595Y023686D01*
X030546Y023638D01*
X030445Y023638D02*
X030445Y023541D01*
X030397Y023493D01*
X030252Y023493D01*
X030349Y023493D02*
X030445Y023396D01*
X030546Y023396D02*
X030740Y023589D01*
X030740Y023638D01*
X030740Y023396D02*
X030546Y023396D01*
X030445Y023638D02*
X030397Y023686D01*
X030252Y023686D01*
X030252Y023396D01*
X029035Y023396D02*
X028841Y023396D01*
X028938Y023396D02*
X028938Y023686D01*
X028841Y023589D01*
X028740Y023589D02*
X028740Y023638D01*
X028692Y023686D01*
X028595Y023686D01*
X028546Y023638D01*
X028445Y023638D02*
X028445Y023541D01*
X028397Y023493D01*
X028252Y023493D01*
X028349Y023493D02*
X028445Y023396D01*
X028546Y023396D02*
X028740Y023589D01*
X028740Y023396D02*
X028546Y023396D01*
X028445Y023638D02*
X028397Y023686D01*
X028252Y023686D01*
X028252Y023396D01*
X027035Y023444D02*
X026986Y023396D01*
X026889Y023396D01*
X026841Y023444D01*
X027035Y023638D01*
X027035Y023444D01*
X027035Y023638D02*
X026986Y023686D01*
X026889Y023686D01*
X026841Y023638D01*
X026841Y023444D01*
X026740Y023396D02*
X026546Y023396D01*
X026740Y023589D01*
X026740Y023638D01*
X026692Y023686D01*
X026595Y023686D01*
X026546Y023638D01*
X026445Y023638D02*
X026445Y023541D01*
X026397Y023493D01*
X026252Y023493D01*
X026349Y023493D02*
X026445Y023396D01*
X026252Y023396D02*
X026252Y023686D01*
X026397Y023686D01*
X026445Y023638D01*
X026087Y024866D02*
X025894Y024866D01*
X025846Y024914D01*
X025846Y025011D01*
X025894Y025059D01*
X026087Y025059D01*
X026136Y025011D01*
X026136Y024914D01*
X026087Y024866D01*
X026039Y024963D02*
X026136Y025059D01*
X026136Y025160D02*
X026136Y025354D01*
X026136Y025257D02*
X025846Y025257D01*
X025942Y025160D01*
X025942Y025455D02*
X025846Y025552D01*
X026136Y025552D01*
X026136Y025455D02*
X026136Y025649D01*
X027846Y025600D02*
X027846Y025503D01*
X027894Y025455D01*
X027846Y025600D02*
X027894Y025649D01*
X027942Y025649D01*
X028136Y025455D01*
X028136Y025649D01*
X028136Y025354D02*
X028136Y025160D01*
X028136Y025257D02*
X027846Y025257D01*
X027942Y025160D01*
X027894Y025059D02*
X027846Y025011D01*
X027846Y024914D01*
X027894Y024866D01*
X028087Y024866D01*
X028136Y024914D01*
X028136Y025011D01*
X028087Y025059D01*
X027894Y025059D01*
X028039Y024963D02*
X028136Y025059D01*
X029846Y025011D02*
X029894Y025059D01*
X030087Y025059D01*
X030136Y025011D01*
X030136Y024914D01*
X030087Y024866D01*
X029894Y024866D01*
X029846Y024914D01*
X029846Y025011D01*
X029942Y025160D02*
X029846Y025257D01*
X030136Y025257D01*
X030136Y025160D02*
X030136Y025354D01*
X030087Y025455D02*
X030136Y025503D01*
X030136Y025600D01*
X030087Y025649D01*
X030039Y025649D01*
X029991Y025600D01*
X029991Y025552D01*
X029991Y025600D02*
X029942Y025649D01*
X029894Y025649D01*
X029846Y025600D01*
X029846Y025503D01*
X029894Y025455D01*
X030136Y025059D02*
X030039Y024963D01*
X031846Y025011D02*
X031894Y025059D01*
X032087Y025059D01*
X032136Y025011D01*
X032136Y024914D01*
X032087Y024866D01*
X031894Y024866D01*
X031846Y024914D01*
X031846Y025011D01*
X031942Y025160D02*
X031846Y025257D01*
X032136Y025257D01*
X032136Y025160D02*
X032136Y025354D01*
X031991Y025455D02*
X031991Y025649D01*
X032136Y025600D02*
X031846Y025600D01*
X031991Y025455D01*
X032136Y025059D02*
X032039Y024963D01*
X030486Y027396D02*
X030389Y027396D01*
X030341Y027444D01*
X030535Y027638D01*
X030535Y027444D01*
X030486Y027396D01*
X030341Y027444D02*
X030341Y027638D01*
X030389Y027686D01*
X030486Y027686D01*
X030535Y027638D01*
X030240Y027638D02*
X030240Y027589D01*
X030192Y027541D01*
X030240Y027493D01*
X030240Y027444D01*
X030192Y027396D01*
X030095Y027396D01*
X030046Y027444D01*
X029945Y027396D02*
X029849Y027493D01*
X029897Y027493D02*
X029752Y027493D01*
X029752Y027396D02*
X029752Y027686D01*
X029897Y027686D01*
X029945Y027638D01*
X029945Y027541D01*
X029897Y027493D01*
X030046Y027638D02*
X030095Y027686D01*
X030192Y027686D01*
X030240Y027638D01*
X030192Y027541D02*
X030143Y027541D01*
X029946Y028671D02*
X029946Y028719D01*
X030140Y028913D01*
X030140Y028961D01*
X029946Y028961D01*
X029845Y028961D02*
X029651Y028961D01*
X029748Y028961D02*
X029748Y028671D01*
X029550Y028719D02*
X029550Y028961D01*
X029357Y028961D02*
X029357Y028719D01*
X029405Y028671D01*
X029502Y028671D01*
X029550Y028719D01*
X029256Y028719D02*
X029256Y028913D01*
X029207Y028961D01*
X029111Y028961D01*
X029062Y028913D01*
X029062Y028719D01*
X029111Y028671D01*
X029207Y028671D01*
X029256Y028719D01*
X029276Y029296D02*
X029470Y029586D01*
X029571Y029586D02*
X029765Y029586D01*
X029765Y029538D01*
X029571Y029344D01*
X029571Y029296D01*
X029470Y029296D02*
X029276Y029586D01*
X028486Y027686D02*
X028389Y027686D01*
X028341Y027638D01*
X028341Y027589D01*
X028389Y027541D01*
X028535Y027541D01*
X028535Y027638D02*
X028486Y027686D01*
X028535Y027638D02*
X028535Y027444D01*
X028486Y027396D01*
X028389Y027396D01*
X028341Y027444D01*
X028240Y027396D02*
X028046Y027396D01*
X028240Y027589D01*
X028240Y027638D01*
X028192Y027686D01*
X028095Y027686D01*
X028046Y027638D01*
X027945Y027638D02*
X027945Y027541D01*
X027897Y027493D01*
X027752Y027493D01*
X027849Y027493D02*
X027945Y027396D01*
X027752Y027396D02*
X027752Y027686D01*
X027897Y027686D01*
X027945Y027638D01*
X026535Y027638D02*
X026535Y027589D01*
X026486Y027541D01*
X026389Y027541D01*
X026341Y027589D01*
X026341Y027638D01*
X026389Y027686D01*
X026486Y027686D01*
X026535Y027638D01*
X026486Y027541D02*
X026535Y027493D01*
X026535Y027444D01*
X026486Y027396D01*
X026389Y027396D01*
X026341Y027444D01*
X026341Y027493D01*
X026389Y027541D01*
X026240Y027589D02*
X026240Y027638D01*
X026192Y027686D01*
X026095Y027686D01*
X026046Y027638D01*
X025945Y027638D02*
X025945Y027541D01*
X025897Y027493D01*
X025752Y027493D01*
X025849Y027493D02*
X025945Y027396D01*
X026046Y027396D02*
X026240Y027589D01*
X026240Y027396D02*
X026046Y027396D01*
X025945Y027638D02*
X025897Y027686D01*
X025752Y027686D01*
X025752Y027396D01*
X024535Y027638D02*
X024341Y027444D01*
X024341Y027396D01*
X024240Y027396D02*
X024046Y027396D01*
X024240Y027589D01*
X024240Y027638D01*
X024192Y027686D01*
X024095Y027686D01*
X024046Y027638D01*
X023945Y027638D02*
X023945Y027541D01*
X023897Y027493D01*
X023752Y027493D01*
X023849Y027493D02*
X023945Y027396D01*
X023752Y027396D02*
X023752Y027686D01*
X023897Y027686D01*
X023945Y027638D01*
X024341Y027686D02*
X024535Y027686D01*
X024535Y027638D01*
X025111Y028671D02*
X025207Y028671D01*
X025256Y028719D01*
X025256Y028913D01*
X025207Y028961D01*
X025111Y028961D01*
X025062Y028913D01*
X025062Y028719D01*
X025111Y028671D01*
X025357Y028719D02*
X025405Y028671D01*
X025502Y028671D01*
X025550Y028719D01*
X025550Y028961D01*
X025651Y028961D02*
X025845Y028961D01*
X025748Y028961D02*
X025748Y028671D01*
X025946Y028719D02*
X025994Y028671D01*
X026091Y028671D01*
X026140Y028719D01*
X026140Y028768D01*
X026091Y028816D01*
X025946Y028816D01*
X025946Y028719D01*
X025946Y028816D02*
X026043Y028913D01*
X026140Y028961D01*
X025765Y029344D02*
X025716Y029296D01*
X025619Y029296D01*
X025571Y029344D01*
X025571Y029441D01*
X025716Y029441D01*
X025765Y029393D01*
X025765Y029344D01*
X025668Y029538D02*
X025765Y029586D01*
X025668Y029538D02*
X025571Y029441D01*
X025470Y029586D02*
X025276Y029296D01*
X025470Y029296D02*
X025276Y029586D01*
X025357Y028961D02*
X025357Y028719D01*
X022535Y027686D02*
X022438Y027638D01*
X022341Y027541D01*
X022486Y027541D01*
X022535Y027493D01*
X022535Y027444D01*
X022486Y027396D01*
X022389Y027396D01*
X022341Y027444D01*
X022341Y027541D01*
X022240Y027589D02*
X022240Y027638D01*
X022192Y027686D01*
X022095Y027686D01*
X022046Y027638D01*
X021945Y027638D02*
X021945Y027541D01*
X021897Y027493D01*
X021752Y027493D01*
X021849Y027493D02*
X021945Y027396D01*
X022046Y027396D02*
X022240Y027589D01*
X022240Y027396D02*
X022046Y027396D01*
X021945Y027638D02*
X021897Y027686D01*
X021752Y027686D01*
X021752Y027396D01*
X020535Y027444D02*
X020486Y027396D01*
X020389Y027396D01*
X020341Y027444D01*
X020341Y027541D02*
X020438Y027589D01*
X020486Y027589D01*
X020535Y027541D01*
X020535Y027444D01*
X020341Y027541D02*
X020341Y027686D01*
X020535Y027686D01*
X020240Y027638D02*
X020192Y027686D01*
X020095Y027686D01*
X020046Y027638D01*
X019945Y027638D02*
X019945Y027541D01*
X019897Y027493D01*
X019752Y027493D01*
X019849Y027493D02*
X019945Y027396D01*
X020046Y027396D02*
X020240Y027589D01*
X020240Y027638D01*
X020240Y027396D02*
X020046Y027396D01*
X019945Y027638D02*
X019897Y027686D01*
X019752Y027686D01*
X019752Y027396D01*
X018535Y027444D02*
X018535Y027493D01*
X018486Y027541D01*
X018341Y027541D01*
X018341Y027444D01*
X018389Y027396D01*
X018486Y027396D01*
X018535Y027444D01*
X018438Y027638D02*
X018341Y027541D01*
X018438Y027638D02*
X018535Y027686D01*
X018143Y027686D02*
X018143Y027396D01*
X018046Y027396D02*
X018240Y027396D01*
X018046Y027589D02*
X018143Y027686D01*
X017945Y027638D02*
X017945Y027541D01*
X017897Y027493D01*
X017752Y027493D01*
X017849Y027493D02*
X017945Y027396D01*
X017752Y027396D02*
X017752Y027686D01*
X017897Y027686D01*
X017945Y027638D01*
X018091Y028671D02*
X018091Y028961D01*
X017946Y028816D01*
X018140Y028816D01*
X017845Y028961D02*
X017651Y028961D01*
X017748Y028961D02*
X017748Y028671D01*
X017550Y028719D02*
X017550Y028961D01*
X017357Y028961D02*
X017357Y028719D01*
X017405Y028671D01*
X017502Y028671D01*
X017550Y028719D01*
X017256Y028719D02*
X017256Y028913D01*
X017207Y028961D01*
X017111Y028961D01*
X017062Y028913D01*
X017062Y028719D01*
X017111Y028671D01*
X017207Y028671D01*
X017256Y028719D01*
X017276Y029296D02*
X017470Y029586D01*
X017571Y029441D02*
X017765Y029441D01*
X017716Y029586D02*
X017571Y029441D01*
X017470Y029296D02*
X017276Y029586D01*
X017716Y029586D02*
X017716Y029296D01*
X016535Y027686D02*
X016341Y027686D01*
X016341Y027541D01*
X016438Y027589D01*
X016486Y027589D01*
X016535Y027541D01*
X016535Y027444D01*
X016486Y027396D01*
X016389Y027396D01*
X016341Y027444D01*
X016240Y027396D02*
X016046Y027396D01*
X016143Y027396D02*
X016143Y027686D01*
X016046Y027589D01*
X015945Y027541D02*
X015897Y027493D01*
X015752Y027493D01*
X015849Y027493D02*
X015945Y027396D01*
X015945Y027541D02*
X015945Y027638D01*
X015897Y027686D01*
X015752Y027686D01*
X015752Y027396D01*
X014535Y027541D02*
X014341Y027541D01*
X014486Y027686D01*
X014486Y027396D01*
X014240Y027396D02*
X014046Y027396D01*
X014143Y027396D02*
X014143Y027686D01*
X014046Y027589D01*
X013945Y027541D02*
X013897Y027493D01*
X013752Y027493D01*
X013849Y027493D02*
X013945Y027396D01*
X013945Y027541D02*
X013945Y027638D01*
X013897Y027686D01*
X013752Y027686D01*
X013752Y027396D01*
X012535Y027444D02*
X012486Y027396D01*
X012389Y027396D01*
X012341Y027444D01*
X012240Y027396D02*
X012046Y027396D01*
X012143Y027396D02*
X012143Y027686D01*
X012046Y027589D01*
X011945Y027541D02*
X011897Y027493D01*
X011752Y027493D01*
X011849Y027493D02*
X011945Y027396D01*
X011945Y027541D02*
X011945Y027638D01*
X011897Y027686D01*
X011752Y027686D01*
X011752Y027396D01*
X012341Y027638D02*
X012389Y027686D01*
X012486Y027686D01*
X012535Y027638D01*
X012535Y027589D01*
X012486Y027541D01*
X012535Y027493D01*
X012535Y027444D01*
X012486Y027541D02*
X012438Y027541D01*
X013111Y028671D02*
X013207Y028671D01*
X013256Y028719D01*
X013256Y028913D01*
X013207Y028961D01*
X013111Y028961D01*
X013062Y028913D01*
X013062Y028719D01*
X013111Y028671D01*
X013357Y028719D02*
X013405Y028671D01*
X013502Y028671D01*
X013550Y028719D01*
X013550Y028961D01*
X013651Y028961D02*
X013845Y028961D01*
X013748Y028961D02*
X013748Y028671D01*
X013946Y028719D02*
X013994Y028671D01*
X014091Y028671D01*
X014140Y028719D01*
X014140Y028768D01*
X014091Y028816D01*
X014043Y028816D01*
X014091Y028816D02*
X014140Y028864D01*
X014140Y028913D01*
X014091Y028961D01*
X013994Y028961D01*
X013946Y028913D01*
X013716Y029296D02*
X013619Y029296D01*
X013571Y029344D01*
X013470Y029296D02*
X013276Y029586D01*
X013470Y029586D02*
X013276Y029296D01*
X013357Y028961D02*
X013357Y028719D01*
X013716Y029296D02*
X013765Y029344D01*
X013765Y029393D01*
X013716Y029441D01*
X013668Y029441D01*
X013716Y029441D02*
X013765Y029489D01*
X013765Y029538D01*
X013716Y029586D01*
X013619Y029586D01*
X013571Y029538D01*
X010535Y027638D02*
X010486Y027686D01*
X010389Y027686D01*
X010341Y027638D01*
X010535Y027638D02*
X010535Y027589D01*
X010341Y027396D01*
X010535Y027396D01*
X010240Y027396D02*
X010046Y027396D01*
X010143Y027396D02*
X010143Y027686D01*
X010046Y027589D01*
X009945Y027541D02*
X009897Y027493D01*
X009752Y027493D01*
X009849Y027493D02*
X009945Y027396D01*
X009945Y027541D02*
X009945Y027638D01*
X009897Y027686D01*
X009752Y027686D01*
X009752Y027396D01*
X008535Y027396D02*
X008341Y027396D01*
X008438Y027396D02*
X008438Y027686D01*
X008341Y027589D01*
X008240Y027396D02*
X008046Y027396D01*
X008143Y027396D02*
X008143Y027686D01*
X008046Y027589D01*
X007945Y027541D02*
X007897Y027493D01*
X007752Y027493D01*
X007849Y027493D02*
X007945Y027396D01*
X007945Y027541D02*
X007945Y027638D01*
X007897Y027686D01*
X007752Y027686D01*
X007752Y027396D01*
X006535Y027444D02*
X006486Y027396D01*
X006389Y027396D01*
X006341Y027444D01*
X006535Y027638D01*
X006535Y027444D01*
X006535Y027638D02*
X006486Y027686D01*
X006389Y027686D01*
X006341Y027638D01*
X006341Y027444D01*
X006240Y027396D02*
X006046Y027396D01*
X006143Y027396D02*
X006143Y027686D01*
X006046Y027589D01*
X005945Y027541D02*
X005897Y027493D01*
X005752Y027493D01*
X005849Y027493D02*
X005945Y027396D01*
X005945Y027541D02*
X005945Y027638D01*
X005897Y027686D01*
X005752Y027686D01*
X005752Y027396D01*
X004535Y027444D02*
X004535Y027638D01*
X004486Y027686D01*
X004389Y027686D01*
X004341Y027638D01*
X004341Y027589D01*
X004389Y027541D01*
X004535Y027541D01*
X004535Y027444D02*
X004486Y027396D01*
X004389Y027396D01*
X004341Y027444D01*
X004240Y027396D02*
X004143Y027493D01*
X004192Y027493D02*
X004046Y027493D01*
X004046Y027396D02*
X004046Y027686D01*
X004192Y027686D01*
X004240Y027638D01*
X004240Y027541D01*
X004192Y027493D01*
X005111Y028671D02*
X005207Y028671D01*
X005256Y028719D01*
X005256Y028913D01*
X005207Y028961D01*
X005111Y028961D01*
X005062Y028913D01*
X005062Y028719D01*
X005111Y028671D01*
X005357Y028719D02*
X005405Y028671D01*
X005502Y028671D01*
X005550Y028719D01*
X005550Y028961D01*
X005651Y028961D02*
X005845Y028961D01*
X005748Y028961D02*
X005748Y028671D01*
X005946Y028671D02*
X006140Y028671D01*
X006043Y028671D02*
X006043Y028961D01*
X005946Y028864D01*
X005765Y029296D02*
X005571Y029296D01*
X005668Y029296D02*
X005668Y029586D01*
X005571Y029489D01*
X005470Y029586D02*
X005276Y029296D01*
X005470Y029296D02*
X005276Y029586D01*
X005357Y028961D02*
X005357Y028719D01*
X009062Y028719D02*
X009111Y028671D01*
X009207Y028671D01*
X009256Y028719D01*
X009256Y028913D01*
X009207Y028961D01*
X009111Y028961D01*
X009062Y028913D01*
X009062Y028719D01*
X009357Y028719D02*
X009405Y028671D01*
X009502Y028671D01*
X009550Y028719D01*
X009550Y028961D01*
X009651Y028961D02*
X009845Y028961D01*
X009748Y028961D02*
X009748Y028671D01*
X009946Y028671D02*
X010140Y028864D01*
X010140Y028913D01*
X010091Y028961D01*
X009994Y028961D01*
X009946Y028913D01*
X009946Y028671D02*
X010140Y028671D01*
X009765Y029296D02*
X009571Y029296D01*
X009765Y029489D01*
X009765Y029538D01*
X009716Y029586D01*
X009619Y029586D01*
X009571Y029538D01*
X009470Y029586D02*
X009276Y029296D01*
X009470Y029296D02*
X009276Y029586D01*
X009357Y028961D02*
X009357Y028719D01*
X009894Y025354D02*
X009942Y025354D01*
X009991Y025306D01*
X010039Y025354D01*
X010087Y025354D01*
X010136Y025306D01*
X010136Y025209D01*
X010087Y025160D01*
X010087Y025059D02*
X009894Y025059D01*
X009846Y025011D01*
X009846Y024914D01*
X009894Y024866D01*
X010087Y024866D01*
X010136Y024914D01*
X010136Y025011D01*
X010087Y025059D01*
X010136Y025059D02*
X010039Y024963D01*
X009894Y025160D02*
X009846Y025209D01*
X009846Y025306D01*
X009894Y025354D01*
X009991Y025306D02*
X009991Y025257D01*
X010546Y023686D02*
X010692Y023686D01*
X010740Y023638D01*
X010740Y023541D01*
X010692Y023493D01*
X010546Y023493D01*
X010546Y023396D02*
X010546Y023686D01*
X010643Y023493D02*
X010740Y023396D01*
X010841Y023541D02*
X011035Y023541D01*
X010986Y023686D02*
X010841Y023541D01*
X010986Y023396D02*
X010986Y023686D01*
X011894Y024866D02*
X011846Y024914D01*
X011846Y025011D01*
X011894Y025059D01*
X012087Y025059D01*
X012136Y025011D01*
X012136Y024914D01*
X012087Y024866D01*
X011894Y024866D01*
X012039Y024963D02*
X012136Y025059D01*
X011991Y025160D02*
X011991Y025354D01*
X012136Y025306D02*
X011846Y025306D01*
X011991Y025160D01*
X012546Y023686D02*
X012692Y023686D01*
X012740Y023638D01*
X012740Y023541D01*
X012692Y023493D01*
X012546Y023493D01*
X012546Y023396D02*
X012546Y023686D01*
X012643Y023493D02*
X012740Y023396D01*
X012841Y023444D02*
X012889Y023396D01*
X012986Y023396D01*
X013035Y023444D01*
X013035Y023541D01*
X012986Y023589D01*
X012938Y023589D01*
X012841Y023541D01*
X012841Y023686D01*
X013035Y023686D01*
X013894Y024866D02*
X013846Y024914D01*
X013846Y025011D01*
X013894Y025059D01*
X014087Y025059D01*
X014136Y025011D01*
X014136Y024914D01*
X014087Y024866D01*
X013894Y024866D01*
X014039Y024963D02*
X014136Y025059D01*
X014087Y025160D02*
X014136Y025209D01*
X014136Y025306D01*
X014087Y025354D01*
X013991Y025354D01*
X013942Y025306D01*
X013942Y025257D01*
X013991Y025160D01*
X013846Y025160D01*
X013846Y025354D01*
X014546Y023686D02*
X014692Y023686D01*
X014740Y023638D01*
X014740Y023541D01*
X014692Y023493D01*
X014546Y023493D01*
X014546Y023396D02*
X014546Y023686D01*
X014643Y023493D02*
X014740Y023396D01*
X014841Y023444D02*
X014889Y023396D01*
X014986Y023396D01*
X015035Y023444D01*
X015035Y023493D01*
X014986Y023541D01*
X014841Y023541D01*
X014841Y023444D01*
X014841Y023541D02*
X014938Y023638D01*
X015035Y023686D01*
X015894Y024866D02*
X015846Y024914D01*
X015846Y025011D01*
X015894Y025059D01*
X016087Y025059D01*
X016136Y025011D01*
X016136Y024914D01*
X016087Y024866D01*
X015894Y024866D01*
X016039Y024963D02*
X016136Y025059D01*
X016087Y025160D02*
X015991Y025160D01*
X015991Y025306D01*
X016039Y025354D01*
X016087Y025354D01*
X016136Y025306D01*
X016136Y025209D01*
X016087Y025160D01*
X015991Y025160D02*
X015894Y025257D01*
X015846Y025354D01*
X016546Y023686D02*
X016692Y023686D01*
X016740Y023638D01*
X016740Y023541D01*
X016692Y023493D01*
X016546Y023493D01*
X016546Y023396D02*
X016546Y023686D01*
X016643Y023493D02*
X016740Y023396D01*
X016841Y023396D02*
X016841Y023444D01*
X017035Y023638D01*
X017035Y023686D01*
X016841Y023686D01*
X017894Y024866D02*
X017846Y024914D01*
X017846Y025011D01*
X017894Y025059D01*
X018087Y025059D01*
X018136Y025011D01*
X018136Y024914D01*
X018087Y024866D01*
X017894Y024866D01*
X018039Y024963D02*
X018136Y025059D01*
X018136Y025160D02*
X018087Y025160D01*
X017894Y025354D01*
X017846Y025354D01*
X017846Y025160D01*
X018546Y023686D02*
X018692Y023686D01*
X018740Y023638D01*
X018740Y023541D01*
X018692Y023493D01*
X018546Y023493D01*
X018546Y023396D02*
X018546Y023686D01*
X018643Y023493D02*
X018740Y023396D01*
X018841Y023444D02*
X018841Y023493D01*
X018889Y023541D01*
X018986Y023541D01*
X019035Y023493D01*
X019035Y023444D01*
X018986Y023396D01*
X018889Y023396D01*
X018841Y023444D01*
X018889Y023541D02*
X018841Y023589D01*
X018841Y023638D01*
X018889Y023686D01*
X018986Y023686D01*
X019035Y023638D01*
X019035Y023589D01*
X018986Y023541D01*
X020252Y023493D02*
X020397Y023493D01*
X020445Y023541D01*
X020445Y023638D01*
X020397Y023686D01*
X020252Y023686D01*
X020252Y023396D01*
X020349Y023493D02*
X020445Y023396D01*
X020546Y023396D02*
X020740Y023396D01*
X020643Y023396D02*
X020643Y023686D01*
X020546Y023589D01*
X020841Y023686D02*
X021035Y023686D01*
X021035Y023638D01*
X020841Y023444D01*
X020841Y023396D01*
X022252Y023396D02*
X022252Y023686D01*
X022397Y023686D01*
X022445Y023638D01*
X022445Y023541D01*
X022397Y023493D01*
X022252Y023493D01*
X022349Y023493D02*
X022445Y023396D01*
X022546Y023396D02*
X022740Y023396D01*
X022643Y023396D02*
X022643Y023686D01*
X022546Y023589D01*
X022841Y023589D02*
X022841Y023638D01*
X022889Y023686D01*
X022986Y023686D01*
X023035Y023638D01*
X023035Y023589D01*
X022986Y023541D01*
X022889Y023541D01*
X022841Y023589D01*
X022889Y023541D02*
X022841Y023493D01*
X022841Y023444D01*
X022889Y023396D01*
X022986Y023396D01*
X023035Y023444D01*
X023035Y023493D01*
X022986Y023541D01*
X024252Y023493D02*
X024397Y023493D01*
X024445Y023541D01*
X024445Y023638D01*
X024397Y023686D01*
X024252Y023686D01*
X024252Y023396D01*
X024349Y023493D02*
X024445Y023396D01*
X024546Y023396D02*
X024740Y023396D01*
X024643Y023396D02*
X024643Y023686D01*
X024546Y023589D01*
X024841Y023589D02*
X024889Y023541D01*
X025035Y023541D01*
X025035Y023638D02*
X024986Y023686D01*
X024889Y023686D01*
X024841Y023638D01*
X024841Y023589D01*
X024841Y023444D02*
X024889Y023396D01*
X024986Y023396D01*
X025035Y023444D01*
X025035Y023638D01*
X024087Y024866D02*
X023894Y024866D01*
X023846Y024914D01*
X023846Y025011D01*
X023894Y025059D01*
X024087Y025059D01*
X024136Y025011D01*
X024136Y024914D01*
X024087Y024866D01*
X024039Y024963D02*
X024136Y025059D01*
X024136Y025160D02*
X024136Y025354D01*
X024136Y025257D02*
X023846Y025257D01*
X023942Y025160D01*
X023894Y025455D02*
X023846Y025503D01*
X023846Y025600D01*
X023894Y025649D01*
X024087Y025455D01*
X024136Y025503D01*
X024136Y025600D01*
X024087Y025649D01*
X023894Y025649D01*
X023894Y025455D02*
X024087Y025455D01*
X022136Y025306D02*
X022087Y025354D01*
X021894Y025354D01*
X021846Y025306D01*
X021846Y025209D01*
X021894Y025160D01*
X021942Y025160D01*
X021991Y025209D01*
X021991Y025354D01*
X022136Y025306D02*
X022136Y025209D01*
X022087Y025160D01*
X022087Y025059D02*
X022136Y025011D01*
X022136Y024914D01*
X022087Y024866D01*
X021894Y024866D01*
X021846Y024914D01*
X021846Y025011D01*
X021894Y025059D01*
X022087Y025059D01*
X022136Y025059D02*
X022039Y024963D01*
X020136Y024914D02*
X020087Y024866D01*
X019894Y024866D01*
X019846Y024914D01*
X019846Y025011D01*
X019894Y025059D01*
X020087Y025059D01*
X020136Y025011D01*
X020136Y024914D01*
X020039Y024963D02*
X020136Y025059D01*
X020087Y025160D02*
X020039Y025160D01*
X019991Y025209D01*
X019991Y025306D01*
X020039Y025354D01*
X020087Y025354D01*
X020136Y025306D01*
X020136Y025209D01*
X020087Y025160D01*
X019991Y025209D02*
X019942Y025160D01*
X019894Y025160D01*
X019846Y025209D01*
X019846Y025306D01*
X019894Y025354D01*
X019942Y025354D01*
X019991Y025306D01*
X021111Y028671D02*
X021062Y028719D01*
X021062Y028913D01*
X021111Y028961D01*
X021207Y028961D01*
X021256Y028913D01*
X021256Y028719D01*
X021207Y028671D01*
X021111Y028671D01*
X021357Y028719D02*
X021405Y028671D01*
X021502Y028671D01*
X021550Y028719D01*
X021550Y028961D01*
X021651Y028961D02*
X021845Y028961D01*
X021748Y028961D02*
X021748Y028671D01*
X021946Y028719D02*
X021994Y028671D01*
X022091Y028671D01*
X022140Y028719D01*
X022140Y028816D01*
X022091Y028864D01*
X022043Y028864D01*
X021946Y028816D01*
X021946Y028961D01*
X022140Y028961D01*
X021765Y029344D02*
X021716Y029296D01*
X021619Y029296D01*
X021571Y029344D01*
X021571Y029441D02*
X021668Y029489D01*
X021716Y029489D01*
X021765Y029441D01*
X021765Y029344D01*
X021571Y029441D02*
X021571Y029586D01*
X021765Y029586D01*
X021470Y029586D02*
X021276Y029296D01*
X021470Y029296D02*
X021276Y029586D01*
X021357Y028961D02*
X021357Y028719D01*
X009035Y023638D02*
X009035Y023589D01*
X008986Y023541D01*
X009035Y023493D01*
X009035Y023444D01*
X008986Y023396D01*
X008889Y023396D01*
X008841Y023444D01*
X008740Y023396D02*
X008643Y023493D01*
X008692Y023493D02*
X008546Y023493D01*
X008546Y023396D02*
X008546Y023686D01*
X008692Y023686D01*
X008740Y023638D01*
X008740Y023541D01*
X008692Y023493D01*
X008841Y023638D02*
X008889Y023686D01*
X008986Y023686D01*
X009035Y023638D01*
X008986Y023541D02*
X008938Y023541D01*
X008087Y024866D02*
X008136Y024914D01*
X008136Y025011D01*
X008087Y025059D01*
X007894Y025059D01*
X007846Y025011D01*
X007846Y024914D01*
X007894Y024866D01*
X008087Y024866D01*
X008039Y024963D02*
X008136Y025059D01*
X008136Y025160D02*
X007942Y025354D01*
X007894Y025354D01*
X007846Y025306D01*
X007846Y025209D01*
X007894Y025160D01*
X008136Y025160D02*
X008136Y025354D01*
X006136Y025354D02*
X006136Y025160D01*
X006136Y025257D02*
X005846Y025257D01*
X005942Y025160D01*
X005894Y025059D02*
X006087Y025059D01*
X006136Y025011D01*
X006136Y024914D01*
X006087Y024866D01*
X005894Y024866D01*
X005846Y024914D01*
X005846Y025011D01*
X005894Y025059D01*
X006039Y024963D02*
X006136Y025059D01*
X006546Y023686D02*
X006692Y023686D01*
X006740Y023638D01*
X006740Y023541D01*
X006692Y023493D01*
X006546Y023493D01*
X006546Y023396D02*
X006546Y023686D01*
X006643Y023493D02*
X006740Y023396D01*
X006841Y023396D02*
X007035Y023589D01*
X007035Y023638D01*
X006986Y023686D01*
X006889Y023686D01*
X006841Y023638D01*
X006841Y023396D02*
X007035Y023396D01*
X005035Y023396D02*
X004841Y023396D01*
X004938Y023396D02*
X004938Y023686D01*
X004841Y023589D01*
X004740Y023541D02*
X004692Y023493D01*
X004546Y023493D01*
X004546Y023396D02*
X004546Y023686D01*
X004692Y023686D01*
X004740Y023638D01*
X004740Y023541D01*
X004643Y023493D02*
X004740Y023396D01*
X003782Y022806D02*
X003782Y022516D01*
X003685Y022516D02*
X003879Y022516D01*
X003685Y022709D02*
X003782Y022806D01*
X003584Y022806D02*
X003390Y022806D01*
X003390Y022661D01*
X003487Y022709D01*
X003536Y022709D01*
X003584Y022661D01*
X003584Y022564D01*
X003536Y022516D01*
X003439Y022516D01*
X003390Y022564D01*
X003289Y022516D02*
X003193Y022613D01*
X003241Y022613D02*
X003096Y022613D01*
X003096Y022516D02*
X003096Y022806D01*
X003241Y022806D01*
X003289Y022758D01*
X003289Y022661D01*
X003241Y022613D01*
X025616Y000656D02*
X025809Y000366D01*
X025910Y000366D02*
X026104Y000366D01*
X026007Y000366D02*
X026007Y000656D01*
X025910Y000559D01*
X025809Y000656D02*
X025616Y000366D01*
X026205Y000366D02*
X026205Y000414D01*
X026399Y000608D01*
X026399Y000656D01*
X026205Y000656D01*
X033607Y009421D02*
X033800Y009711D01*
X033901Y009614D02*
X033998Y009711D01*
X033998Y009421D01*
X033901Y009421D02*
X034095Y009421D01*
X034196Y009469D02*
X034244Y009421D01*
X034341Y009421D01*
X034390Y009469D01*
X034390Y009518D01*
X034341Y009566D01*
X034196Y009566D01*
X034196Y009469D01*
X034196Y009566D02*
X034293Y009663D01*
X034390Y009711D01*
X033800Y009421D02*
X033607Y009711D01*
D12*
X033301Y009651D02*
X033251Y009851D01*
X034951Y009851D01*
X035501Y009851D01*
X035501Y005851D01*
X034951Y005851D01*
X033251Y005851D01*
X033251Y009851D01*
X032551Y009851D01*
X032551Y005851D01*
X032901Y005851D01*
X033251Y005851D01*
X033301Y005651D01*
X032851Y005651D01*
X032901Y005851D01*
X032701Y006861D02*
X032733Y006969D01*
X032818Y007043D01*
X032929Y007059D01*
X033032Y007012D01*
X033093Y006917D01*
X033093Y006805D01*
X033032Y006710D01*
X032929Y006663D01*
X032818Y006679D01*
X032733Y006753D01*
X032701Y006861D01*
X032701Y008841D02*
X032733Y008949D01*
X032818Y009023D01*
X032929Y009039D01*
X033032Y008992D01*
X033093Y008897D01*
X033093Y008785D01*
X033032Y008690D01*
X032929Y008643D01*
X032818Y008659D01*
X032733Y008733D01*
X032701Y008841D01*
X032851Y009651D02*
X033301Y009651D01*
X033251Y009851D02*
X032901Y009851D01*
X032551Y009851D01*
X032551Y013851D01*
X033251Y013851D01*
X034951Y013851D01*
X035501Y013851D01*
X035501Y009851D01*
X034951Y009851D01*
X034951Y005851D01*
X032851Y009651D02*
X032901Y009851D01*
X033251Y009851D02*
X034951Y009851D01*
X034951Y013851D01*
X033251Y013851D01*
X033251Y009851D01*
X032701Y010861D02*
X032733Y010969D01*
X032818Y011043D01*
X032929Y011059D01*
X033032Y011012D01*
X033093Y010917D01*
X033093Y010805D01*
X033032Y010710D01*
X032929Y010663D01*
X032818Y010679D01*
X032733Y010753D01*
X032701Y010861D01*
X032701Y012841D02*
X032733Y012949D01*
X032818Y013023D01*
X032929Y013039D01*
X033032Y012992D01*
X033093Y012897D01*
X033093Y012785D01*
X033032Y012690D01*
X032929Y012643D01*
X032818Y012659D01*
X032733Y012733D01*
X032701Y012841D01*
X032851Y013651D02*
X033301Y013651D01*
X033251Y013851D01*
X033251Y017851D01*
X034951Y017851D01*
X034951Y021851D01*
X035501Y021851D01*
X035501Y017851D01*
X034951Y017851D01*
X035501Y017851D01*
X035501Y013851D01*
X034951Y013851D01*
X034951Y017851D01*
X033251Y017851D01*
X033251Y021851D01*
X034951Y021851D01*
X033251Y021851D02*
X032551Y021851D01*
X032551Y017851D01*
X032901Y017851D01*
X033251Y017851D01*
X033301Y017651D01*
X032851Y017651D01*
X032901Y017851D01*
X032551Y017851D02*
X033251Y017851D01*
X032551Y017851D02*
X032551Y013851D01*
X032901Y013851D01*
X033251Y013851D01*
X032901Y013851D02*
X032851Y013651D01*
X032701Y014861D02*
X032733Y014969D01*
X032818Y015043D01*
X032929Y015059D01*
X033032Y015012D01*
X033093Y014917D01*
X033093Y014805D01*
X033032Y014710D01*
X032929Y014663D01*
X032818Y014679D01*
X032733Y014753D01*
X032701Y014861D01*
X030351Y015101D02*
X030389Y015292D01*
X030497Y015455D01*
X030660Y015563D01*
X030851Y015601D01*
X031042Y015563D01*
X031205Y015455D01*
X031313Y015292D01*
X031351Y015101D01*
X031313Y014910D01*
X031205Y014747D01*
X031042Y014639D01*
X030851Y014601D01*
X030660Y014639D01*
X030497Y014747D01*
X030389Y014910D01*
X030351Y015101D01*
X030351Y014101D02*
X030389Y014292D01*
X030497Y014455D01*
X030660Y014563D01*
X030851Y014601D01*
X031042Y014563D01*
X031205Y014455D01*
X031313Y014292D01*
X031351Y014101D01*
X031313Y013910D01*
X031205Y013747D01*
X031042Y013639D01*
X030851Y013601D01*
X030660Y013639D01*
X030497Y013747D01*
X030389Y013910D01*
X030351Y014101D01*
X030351Y016101D02*
X030389Y016292D01*
X030497Y016455D01*
X030660Y016563D01*
X030851Y016601D01*
X031042Y016563D01*
X031205Y016455D01*
X031313Y016292D01*
X031351Y016101D01*
X031313Y015910D01*
X031205Y015747D01*
X031042Y015639D01*
X030851Y015601D01*
X030660Y015639D01*
X030497Y015747D01*
X030389Y015910D01*
X030351Y016101D01*
X030351Y017101D02*
X030389Y017292D01*
X030497Y017455D01*
X030660Y017563D01*
X030851Y017601D01*
X031042Y017563D01*
X031205Y017455D01*
X031313Y017292D01*
X031351Y017101D01*
X031313Y016910D01*
X031205Y016747D01*
X031042Y016639D01*
X030851Y016601D01*
X030660Y016639D01*
X030497Y016747D01*
X030389Y016910D01*
X030351Y017101D01*
X030351Y018101D02*
X030389Y018292D01*
X030497Y018455D01*
X030660Y018563D01*
X030851Y018601D01*
X031042Y018563D01*
X031205Y018455D01*
X031313Y018292D01*
X031351Y018101D01*
X031313Y017910D01*
X031205Y017747D01*
X031042Y017639D01*
X030851Y017601D01*
X030660Y017639D01*
X030497Y017747D01*
X030389Y017910D01*
X030351Y018101D01*
X030351Y019101D02*
X030389Y019292D01*
X030497Y019455D01*
X030660Y019563D01*
X030851Y019601D01*
X031042Y019563D01*
X031205Y019455D01*
X031313Y019292D01*
X031351Y019101D01*
X031313Y018910D01*
X031205Y018747D01*
X031042Y018639D01*
X030851Y018601D01*
X030660Y018639D01*
X030497Y018747D01*
X030389Y018910D01*
X030351Y019101D01*
X030351Y020101D02*
X030389Y020292D01*
X030497Y020455D01*
X030660Y020563D01*
X030851Y020601D01*
X031042Y020563D01*
X031205Y020455D01*
X031313Y020292D01*
X031351Y020101D01*
X031313Y019910D01*
X031205Y019747D01*
X031042Y019639D01*
X030851Y019601D01*
X030660Y019639D01*
X030497Y019747D01*
X030389Y019910D01*
X030351Y020101D01*
X030351Y021101D02*
X030389Y021292D01*
X030497Y021455D01*
X030660Y021563D01*
X030851Y021601D01*
X031042Y021563D01*
X031205Y021455D01*
X031313Y021292D01*
X031351Y021101D01*
X031313Y020910D01*
X031205Y020747D01*
X031042Y020639D01*
X030851Y020601D01*
X030660Y020639D01*
X030497Y020747D01*
X030389Y020910D01*
X030351Y021101D01*
X028251Y020851D02*
X027751Y020851D01*
X027721Y020698D01*
X027634Y020568D01*
X027504Y020481D01*
X027351Y020451D01*
X027198Y020481D01*
X027068Y020568D01*
X026981Y020698D01*
X026951Y020851D01*
X026451Y020851D01*
X026451Y010851D01*
X028251Y010851D01*
X028251Y020851D01*
X027101Y024101D02*
X027139Y024292D01*
X027247Y024455D01*
X027410Y024563D01*
X027601Y024601D01*
X027792Y024563D01*
X027955Y024455D01*
X028063Y024292D01*
X028101Y024101D01*
X028063Y023910D01*
X027955Y023747D01*
X027792Y023639D01*
X027601Y023601D01*
X027410Y023639D01*
X027247Y023747D01*
X027139Y023910D01*
X027101Y024101D01*
X025101Y024101D02*
X025139Y024292D01*
X025247Y024455D01*
X025410Y024563D01*
X025601Y024601D01*
X025792Y024563D01*
X025955Y024455D01*
X026063Y024292D01*
X026101Y024101D01*
X026063Y023910D01*
X025955Y023747D01*
X025792Y023639D01*
X025601Y023601D01*
X025410Y023639D01*
X025247Y023747D01*
X025139Y023910D01*
X025101Y024101D01*
X023101Y024101D02*
X023139Y024292D01*
X023247Y024455D01*
X023410Y024563D01*
X023601Y024601D01*
X023792Y024563D01*
X023955Y024455D01*
X024063Y024292D01*
X024101Y024101D01*
X024063Y023910D01*
X023955Y023747D01*
X023792Y023639D01*
X023601Y023601D01*
X023410Y023639D01*
X023247Y023747D01*
X023139Y023910D01*
X023101Y024101D01*
X021101Y024101D02*
X021139Y024292D01*
X021247Y024455D01*
X021410Y024563D01*
X021601Y024601D01*
X021792Y024563D01*
X021955Y024455D01*
X022063Y024292D01*
X022101Y024101D01*
X022063Y023910D01*
X021955Y023747D01*
X021792Y023639D01*
X021601Y023601D01*
X021410Y023639D01*
X021247Y023747D01*
X021139Y023910D01*
X021101Y024101D01*
X019101Y024101D02*
X019139Y024292D01*
X019247Y024455D01*
X019410Y024563D01*
X019601Y024601D01*
X019792Y024563D01*
X019955Y024455D01*
X020063Y024292D01*
X020101Y024101D01*
X020063Y023910D01*
X019955Y023747D01*
X019792Y023639D01*
X019601Y023601D01*
X019410Y023639D01*
X019247Y023747D01*
X019139Y023910D01*
X019101Y024101D01*
X017101Y024101D02*
X017139Y024292D01*
X017247Y024455D01*
X017410Y024563D01*
X017601Y024601D01*
X017792Y024563D01*
X017955Y024455D01*
X018063Y024292D01*
X018101Y024101D01*
X018063Y023910D01*
X017955Y023747D01*
X017792Y023639D01*
X017601Y023601D01*
X017410Y023639D01*
X017247Y023747D01*
X017139Y023910D01*
X017101Y024101D01*
X015101Y024101D02*
X015139Y024292D01*
X015247Y024455D01*
X015410Y024563D01*
X015601Y024601D01*
X015792Y024563D01*
X015955Y024455D01*
X016063Y024292D01*
X016101Y024101D01*
X016063Y023910D01*
X015955Y023747D01*
X015792Y023639D01*
X015601Y023601D01*
X015410Y023639D01*
X015247Y023747D01*
X015139Y023910D01*
X015101Y024101D01*
X013101Y024101D02*
X013139Y024292D01*
X013247Y024455D01*
X013410Y024563D01*
X013601Y024601D01*
X013792Y024563D01*
X013955Y024455D01*
X014063Y024292D01*
X014101Y024101D01*
X014063Y023910D01*
X013955Y023747D01*
X013792Y023639D01*
X013601Y023601D01*
X013410Y023639D01*
X013247Y023747D01*
X013139Y023910D01*
X013101Y024101D01*
X011101Y024101D02*
X011139Y024292D01*
X011247Y024455D01*
X011410Y024563D01*
X011601Y024601D01*
X011792Y024563D01*
X011955Y024455D01*
X012063Y024292D01*
X012101Y024101D01*
X012063Y023910D01*
X011955Y023747D01*
X011792Y023639D01*
X011601Y023601D01*
X011410Y023639D01*
X011247Y023747D01*
X011139Y023910D01*
X011101Y024101D01*
X009101Y024101D02*
X009139Y024292D01*
X009247Y024455D01*
X009410Y024563D01*
X009601Y024601D01*
X009792Y024563D01*
X009955Y024455D01*
X010063Y024292D01*
X010101Y024101D01*
X010063Y023910D01*
X009955Y023747D01*
X009792Y023639D01*
X009601Y023601D01*
X009410Y023639D01*
X009247Y023747D01*
X009139Y023910D01*
X009101Y024101D01*
X007101Y024101D02*
X007139Y024292D01*
X007247Y024455D01*
X007410Y024563D01*
X007601Y024601D01*
X007792Y024563D01*
X007955Y024455D01*
X008063Y024292D01*
X008101Y024101D01*
X008063Y023910D01*
X007955Y023747D01*
X007792Y023639D01*
X007601Y023601D01*
X007410Y023639D01*
X007247Y023747D01*
X007139Y023910D01*
X007101Y024101D01*
X005101Y024101D02*
X005139Y024292D01*
X005247Y024455D01*
X005410Y024563D01*
X005601Y024601D01*
X005792Y024563D01*
X005955Y024455D01*
X006063Y024292D01*
X006101Y024101D01*
X006063Y023910D01*
X005955Y023747D01*
X005792Y023639D01*
X005601Y023601D01*
X005410Y023639D01*
X005247Y023747D01*
X005139Y023910D01*
X005101Y024101D01*
X002101Y022101D02*
X002139Y022292D01*
X002247Y022455D01*
X002410Y022563D01*
X002601Y022601D01*
X002792Y022563D01*
X002955Y022455D01*
X003063Y022292D01*
X003101Y022101D01*
X003063Y021910D01*
X002955Y021747D01*
X002792Y021639D01*
X002601Y021601D01*
X002410Y021639D01*
X002247Y021747D01*
X002139Y021910D01*
X002101Y022101D01*
X002476Y020851D02*
X002476Y011851D01*
X004226Y011851D01*
X004226Y020851D01*
X003601Y020851D01*
X003576Y020743D01*
X003507Y020656D01*
X003407Y020607D01*
X003295Y020607D01*
X003195Y020656D01*
X003126Y020743D01*
X003101Y020851D01*
X002476Y020851D01*
X008951Y020851D02*
X009451Y020851D01*
X009481Y020698D01*
X009568Y020568D01*
X009698Y020481D01*
X009851Y020451D01*
X010004Y020481D01*
X010134Y020568D01*
X010221Y020698D01*
X010251Y020851D01*
X010751Y020851D01*
X010751Y010851D01*
X008951Y010851D01*
X008951Y020851D01*
X014701Y020851D02*
X015201Y020851D01*
X015231Y020698D01*
X015318Y020568D01*
X015448Y020481D01*
X015601Y020451D01*
X015754Y020481D01*
X015884Y020568D01*
X015971Y020698D01*
X016001Y020851D01*
X016501Y020851D01*
X016501Y010851D01*
X014701Y010851D01*
X014701Y020851D01*
X020701Y020851D02*
X021201Y020851D01*
X021231Y020698D01*
X021318Y020568D01*
X021448Y020481D01*
X021601Y020451D01*
X021754Y020481D01*
X021884Y020568D01*
X021971Y020698D01*
X022001Y020851D01*
X022501Y020851D01*
X022501Y010851D01*
X020701Y010851D01*
X020701Y020851D01*
X020601Y028101D02*
X020639Y028292D01*
X020747Y028455D01*
X020910Y028563D01*
X021101Y028601D01*
X021292Y028563D01*
X021455Y028455D01*
X021563Y028292D01*
X021601Y028101D01*
X021563Y027910D01*
X021455Y027747D01*
X021292Y027639D01*
X021101Y027601D01*
X020910Y027639D01*
X020747Y027747D01*
X020639Y027910D01*
X020601Y028101D01*
X019601Y029051D02*
X019601Y029751D01*
X019601Y031451D01*
X019601Y032001D01*
X023601Y032001D01*
X023601Y031451D01*
X027601Y031451D01*
X027601Y032001D01*
X031601Y032001D01*
X031601Y031451D01*
X031601Y029751D01*
X027601Y029751D01*
X027601Y031451D01*
X031601Y031451D01*
X031801Y029801D02*
X031601Y029751D01*
X031601Y029401D01*
X031601Y029051D01*
X027601Y029051D01*
X027601Y029751D01*
X027601Y031451D01*
X027601Y032001D01*
X023601Y032001D01*
X023601Y031451D01*
X023601Y029751D01*
X027601Y029751D01*
X027601Y029401D01*
X027601Y029051D01*
X023601Y029051D01*
X023601Y029751D01*
X023601Y031451D01*
X019601Y031451D01*
X019601Y029751D01*
X023601Y029751D01*
X023601Y029401D01*
X023601Y029051D01*
X019601Y029051D01*
X019601Y029401D01*
X019601Y029751D01*
X015601Y029751D01*
X015601Y031451D01*
X015601Y032001D01*
X019601Y032001D01*
X019601Y031451D01*
X015601Y031451D01*
X015601Y029751D01*
X015601Y029051D01*
X019601Y029051D01*
X019601Y029401D02*
X019801Y029351D01*
X019801Y029801D01*
X019601Y029751D01*
X018391Y029401D02*
X018423Y029509D01*
X018508Y029583D01*
X018619Y029599D01*
X018722Y029552D01*
X018783Y029457D01*
X018783Y029345D01*
X018722Y029250D01*
X018619Y029203D01*
X018508Y029219D01*
X018423Y029293D01*
X018391Y029401D01*
X018601Y028101D02*
X018639Y028292D01*
X018747Y028455D01*
X018910Y028563D01*
X019101Y028601D01*
X019292Y028563D01*
X019455Y028455D01*
X019563Y028292D01*
X019601Y028101D01*
X019563Y027910D01*
X019455Y027747D01*
X019292Y027639D01*
X019101Y027601D01*
X018910Y027639D01*
X018747Y027747D01*
X018639Y027910D01*
X018601Y028101D01*
X016601Y028101D02*
X016639Y028292D01*
X016747Y028455D01*
X016910Y028563D01*
X017101Y028601D01*
X017292Y028563D01*
X017455Y028455D01*
X017563Y028292D01*
X017601Y028101D01*
X017563Y027910D01*
X017455Y027747D01*
X017292Y027639D01*
X017101Y027601D01*
X016910Y027639D01*
X016747Y027747D01*
X016639Y027910D01*
X016601Y028101D01*
X015601Y029051D02*
X015601Y029401D01*
X015601Y029751D01*
X011601Y029751D01*
X011601Y031451D01*
X011601Y032001D01*
X015601Y032001D01*
X015601Y031451D01*
X011601Y031451D01*
X011601Y029751D01*
X011601Y029051D01*
X015601Y029051D01*
X015601Y029401D02*
X015801Y029351D01*
X015801Y029801D01*
X015601Y029751D01*
X016411Y029401D02*
X016443Y029509D01*
X016528Y029583D01*
X016639Y029599D01*
X016742Y029552D01*
X016803Y029457D01*
X016803Y029345D01*
X016742Y029250D01*
X016639Y029203D01*
X016528Y029219D01*
X016443Y029293D01*
X016411Y029401D01*
X014601Y028101D02*
X014639Y028292D01*
X014747Y028455D01*
X014910Y028563D01*
X015101Y028601D01*
X015292Y028563D01*
X015455Y028455D01*
X015563Y028292D01*
X015601Y028101D01*
X015563Y027910D01*
X015455Y027747D01*
X015292Y027639D01*
X015101Y027601D01*
X014910Y027639D01*
X014747Y027747D01*
X014639Y027910D01*
X014601Y028101D01*
X014391Y029401D02*
X014423Y029509D01*
X014508Y029583D01*
X014619Y029599D01*
X014722Y029552D01*
X014783Y029457D01*
X014783Y029345D01*
X014722Y029250D01*
X014619Y029203D01*
X014508Y029219D01*
X014423Y029293D01*
X014391Y029401D01*
X012601Y028101D02*
X012639Y028292D01*
X012747Y028455D01*
X012910Y028563D01*
X013101Y028601D01*
X013292Y028563D01*
X013455Y028455D01*
X013563Y028292D01*
X013601Y028101D01*
X013563Y027910D01*
X013455Y027747D01*
X013292Y027639D01*
X013101Y027601D01*
X012910Y027639D01*
X012747Y027747D01*
X012639Y027910D01*
X012601Y028101D01*
X011601Y029051D02*
X011601Y029401D01*
X011601Y029751D01*
X007601Y029751D01*
X007601Y031451D01*
X007601Y032001D01*
X011601Y032001D01*
X011601Y031451D01*
X007601Y031451D01*
X007601Y029751D01*
X007601Y029051D01*
X011601Y029051D01*
X011601Y029401D02*
X011801Y029351D01*
X011801Y029801D01*
X011601Y029751D01*
X012411Y029401D02*
X012443Y029509D01*
X012528Y029583D01*
X012639Y029599D01*
X012742Y029552D01*
X012803Y029457D01*
X012803Y029345D01*
X012742Y029250D01*
X012639Y029203D01*
X012528Y029219D01*
X012443Y029293D01*
X012411Y029401D01*
X010601Y028101D02*
X010639Y028292D01*
X010747Y028455D01*
X010910Y028563D01*
X011101Y028601D01*
X011292Y028563D01*
X011455Y028455D01*
X011563Y028292D01*
X011601Y028101D01*
X011563Y027910D01*
X011455Y027747D01*
X011292Y027639D01*
X011101Y027601D01*
X010910Y027639D01*
X010747Y027747D01*
X010639Y027910D01*
X010601Y028101D01*
X010391Y029401D02*
X010423Y029509D01*
X010508Y029583D01*
X010619Y029599D01*
X010722Y029552D01*
X010783Y029457D01*
X010783Y029345D01*
X010722Y029250D01*
X010619Y029203D01*
X010508Y029219D01*
X010423Y029293D01*
X010391Y029401D01*
X008601Y028101D02*
X008639Y028292D01*
X008747Y028455D01*
X008910Y028563D01*
X009101Y028601D01*
X009292Y028563D01*
X009455Y028455D01*
X009563Y028292D01*
X009601Y028101D01*
X009563Y027910D01*
X009455Y027747D01*
X009292Y027639D01*
X009101Y027601D01*
X008910Y027639D01*
X008747Y027747D01*
X008639Y027910D01*
X008601Y028101D01*
X007601Y029051D02*
X007601Y029401D01*
X007601Y029751D01*
X003601Y029751D01*
X003601Y031451D01*
X003601Y032001D01*
X007601Y032001D01*
X007601Y031451D01*
X003601Y031451D01*
X003601Y029751D02*
X003601Y029051D01*
X007601Y029051D01*
X007601Y029401D02*
X007801Y029351D01*
X007801Y029801D01*
X007601Y029751D01*
X008411Y029401D02*
X008443Y029509D01*
X008528Y029583D01*
X008639Y029599D01*
X008742Y029552D01*
X008803Y029457D01*
X008803Y029345D01*
X008742Y029250D01*
X008639Y029203D01*
X008528Y029219D01*
X008443Y029293D01*
X008411Y029401D01*
X006601Y028101D02*
X006639Y028292D01*
X006747Y028455D01*
X006910Y028563D01*
X007101Y028601D01*
X007292Y028563D01*
X007455Y028455D01*
X007563Y028292D01*
X007601Y028101D01*
X007563Y027910D01*
X007455Y027747D01*
X007292Y027639D01*
X007101Y027601D01*
X006910Y027639D01*
X006747Y027747D01*
X006639Y027910D01*
X006601Y028101D01*
X006391Y029401D02*
X006423Y029509D01*
X006508Y029583D01*
X006619Y029599D01*
X006722Y029552D01*
X006783Y029457D01*
X006783Y029345D01*
X006722Y029250D01*
X006619Y029203D01*
X006508Y029219D01*
X006423Y029293D01*
X006391Y029401D01*
X004601Y028101D02*
X004639Y028292D01*
X004747Y028455D01*
X004910Y028563D01*
X005101Y028601D01*
X005292Y028563D01*
X005455Y028455D01*
X005563Y028292D01*
X005601Y028101D01*
X005563Y027910D01*
X005455Y027747D01*
X005292Y027639D01*
X005101Y027601D01*
X004910Y027639D01*
X004747Y027747D01*
X004639Y027910D01*
X004601Y028101D01*
X004411Y029401D02*
X004443Y029509D01*
X004528Y029583D01*
X004639Y029599D01*
X004742Y029552D01*
X004803Y029457D01*
X004803Y029345D01*
X004742Y029250D01*
X004639Y029203D01*
X004528Y029219D01*
X004443Y029293D01*
X004411Y029401D01*
X020411Y029401D02*
X020443Y029509D01*
X020528Y029583D01*
X020639Y029599D01*
X020742Y029552D01*
X020803Y029457D01*
X020803Y029345D01*
X020742Y029250D01*
X020639Y029203D01*
X020528Y029219D01*
X020443Y029293D01*
X020411Y029401D01*
X022391Y029401D02*
X022423Y029509D01*
X022508Y029583D01*
X022619Y029599D01*
X022722Y029552D01*
X022783Y029457D01*
X022783Y029345D01*
X022722Y029250D01*
X022619Y029203D01*
X022508Y029219D01*
X022423Y029293D01*
X022391Y029401D01*
X023601Y029401D02*
X023801Y029351D01*
X023801Y029801D01*
X023601Y029751D01*
X024411Y029401D02*
X024443Y029509D01*
X024528Y029583D01*
X024639Y029599D01*
X024742Y029552D01*
X024803Y029457D01*
X024803Y029345D01*
X024742Y029250D01*
X024639Y029203D01*
X024528Y029219D01*
X024443Y029293D01*
X024411Y029401D01*
X024601Y028101D02*
X024639Y028292D01*
X024747Y028455D01*
X024910Y028563D01*
X025101Y028601D01*
X025292Y028563D01*
X025455Y028455D01*
X025563Y028292D01*
X025601Y028101D01*
X025563Y027910D01*
X025455Y027747D01*
X025292Y027639D01*
X025101Y027601D01*
X024910Y027639D01*
X024747Y027747D01*
X024639Y027910D01*
X024601Y028101D01*
X022601Y028101D02*
X022639Y028292D01*
X022747Y028455D01*
X022910Y028563D01*
X023101Y028601D01*
X023292Y028563D01*
X023455Y028455D01*
X023563Y028292D01*
X023601Y028101D01*
X023563Y027910D01*
X023455Y027747D01*
X023292Y027639D01*
X023101Y027601D01*
X022910Y027639D01*
X022747Y027747D01*
X022639Y027910D01*
X022601Y028101D01*
X026391Y029401D02*
X026423Y029509D01*
X026508Y029583D01*
X026619Y029599D01*
X026722Y029552D01*
X026783Y029457D01*
X026783Y029345D01*
X026722Y029250D01*
X026619Y029203D01*
X026508Y029219D01*
X026423Y029293D01*
X026391Y029401D01*
X027601Y029401D02*
X027801Y029351D01*
X027801Y029801D01*
X027601Y029751D01*
X028411Y029401D02*
X028443Y029509D01*
X028528Y029583D01*
X028639Y029599D01*
X028742Y029552D01*
X028803Y029457D01*
X028803Y029345D01*
X028742Y029250D01*
X028639Y029203D01*
X028528Y029219D01*
X028443Y029293D01*
X028411Y029401D01*
X028601Y028101D02*
X028639Y028292D01*
X028747Y028455D01*
X028910Y028563D01*
X029101Y028601D01*
X029292Y028563D01*
X029455Y028455D01*
X029563Y028292D01*
X029601Y028101D01*
X029563Y027910D01*
X029455Y027747D01*
X029292Y027639D01*
X029101Y027601D01*
X028910Y027639D01*
X028747Y027747D01*
X028639Y027910D01*
X028601Y028101D01*
X026601Y028101D02*
X026639Y028292D01*
X026747Y028455D01*
X026910Y028563D01*
X027101Y028601D01*
X027292Y028563D01*
X027455Y028455D01*
X027563Y028292D01*
X027601Y028101D01*
X027563Y027910D01*
X027455Y027747D01*
X027292Y027639D01*
X027101Y027601D01*
X026910Y027639D01*
X026747Y027747D01*
X026639Y027910D01*
X026601Y028101D01*
X030391Y029401D02*
X030423Y029509D01*
X030508Y029583D01*
X030619Y029599D01*
X030722Y029552D01*
X030783Y029457D01*
X030783Y029345D01*
X030722Y029250D01*
X030619Y029203D01*
X030508Y029219D01*
X030423Y029293D01*
X030391Y029401D01*
X031601Y029401D02*
X031801Y029351D01*
X031801Y029801D01*
X030601Y028101D02*
X030639Y028292D01*
X030747Y028455D01*
X030910Y028563D01*
X031101Y028601D01*
X031292Y028563D01*
X031455Y028455D01*
X031563Y028292D01*
X031601Y028101D01*
X031563Y027910D01*
X031455Y027747D01*
X031292Y027639D01*
X031101Y027601D01*
X030910Y027639D01*
X030747Y027747D01*
X030639Y027910D01*
X030601Y028101D01*
X031101Y024101D02*
X031139Y024292D01*
X031247Y024455D01*
X031410Y024563D01*
X031601Y024601D01*
X031792Y024563D01*
X031955Y024455D01*
X032063Y024292D01*
X032101Y024101D01*
X032063Y023910D01*
X031955Y023747D01*
X031792Y023639D01*
X031601Y023601D01*
X031410Y023639D01*
X031247Y023747D01*
X031139Y023910D01*
X031101Y024101D01*
X029101Y024101D02*
X029139Y024292D01*
X029247Y024455D01*
X029410Y024563D01*
X029601Y024601D01*
X029792Y024563D01*
X029955Y024455D01*
X030063Y024292D01*
X030101Y024101D01*
X030063Y023910D01*
X029955Y023747D01*
X029792Y023639D01*
X029601Y023601D01*
X029410Y023639D01*
X029247Y023747D01*
X029139Y023910D01*
X029101Y024101D01*
X032701Y020841D02*
X032733Y020949D01*
X032818Y021023D01*
X032929Y021039D01*
X033032Y020992D01*
X033093Y020897D01*
X033093Y020785D01*
X033032Y020690D01*
X032929Y020643D01*
X032818Y020659D01*
X032733Y020733D01*
X032701Y020841D01*
X032701Y018861D02*
X032733Y018969D01*
X032818Y019043D01*
X032929Y019059D01*
X033032Y019012D01*
X033093Y018917D01*
X033093Y018805D01*
X033032Y018710D01*
X032929Y018663D01*
X032818Y018679D01*
X032733Y018753D01*
X032701Y018861D01*
X032701Y016841D02*
X032733Y016949D01*
X032818Y017023D01*
X032929Y017039D01*
X033032Y016992D01*
X033093Y016897D01*
X033093Y016785D01*
X033032Y016690D01*
X032929Y016643D01*
X032818Y016659D01*
X032733Y016733D01*
X032701Y016841D01*
X029351Y009101D02*
X029389Y009292D01*
X029497Y009455D01*
X029660Y009563D01*
X029851Y009601D01*
X030042Y009563D01*
X030205Y009455D01*
X030313Y009292D01*
X030351Y009101D01*
X030313Y008910D01*
X030205Y008747D01*
X030042Y008639D01*
X029851Y008601D01*
X029660Y008639D01*
X029497Y008747D01*
X029389Y008910D01*
X029351Y009101D01*
X028351Y009101D02*
X028389Y009292D01*
X028497Y009455D01*
X028660Y009563D01*
X028851Y009601D01*
X029042Y009563D01*
X029205Y009455D01*
X029313Y009292D01*
X029351Y009101D01*
X029313Y008910D01*
X029205Y008747D01*
X029042Y008639D01*
X028851Y008601D01*
X028660Y008639D01*
X028497Y008747D01*
X028389Y008910D01*
X028351Y009101D01*
X027351Y009101D02*
X027389Y009292D01*
X027497Y009455D01*
X027660Y009563D01*
X027851Y009601D01*
X028042Y009563D01*
X028205Y009455D01*
X028313Y009292D01*
X028351Y009101D01*
X028313Y008910D01*
X028205Y008747D01*
X028042Y008639D01*
X027851Y008601D01*
X027660Y008639D01*
X027497Y008747D01*
X027389Y008910D01*
X027351Y009101D01*
X026351Y009101D02*
X026389Y009292D01*
X026497Y009455D01*
X026660Y009563D01*
X026851Y009601D01*
X027042Y009563D01*
X027205Y009455D01*
X027313Y009292D01*
X027351Y009101D01*
X027313Y008910D01*
X027205Y008747D01*
X027042Y008639D01*
X026851Y008601D01*
X026660Y008639D01*
X026497Y008747D01*
X026389Y008910D01*
X026351Y009101D01*
X026351Y008401D02*
X027601Y008401D01*
X027601Y008151D01*
X029101Y008151D01*
X029101Y008401D01*
X027601Y008401D01*
X027601Y007901D02*
X027601Y007301D01*
X029101Y007301D01*
X029101Y007901D01*
X027601Y007901D01*
X027601Y006901D02*
X027601Y006301D01*
X029101Y006301D01*
X029101Y006901D01*
X027601Y006901D01*
X027601Y005901D02*
X027601Y005301D01*
X029101Y005301D01*
X029101Y005901D01*
X027601Y005901D01*
X027601Y004901D02*
X027601Y004301D01*
X029101Y004301D01*
X029101Y004901D01*
X027601Y004901D01*
X026351Y004101D02*
X026351Y003801D01*
X030351Y003801D01*
X030351Y004101D01*
X029851Y002101D02*
X029888Y002371D01*
X029997Y002621D01*
X030168Y002832D01*
X030391Y002989D01*
X030648Y003080D01*
X030919Y003099D01*
X031186Y003043D01*
X031428Y002918D01*
X031627Y002732D01*
X031768Y002499D01*
X031842Y002237D01*
X031842Y001965D01*
X031768Y001703D01*
X031627Y001470D01*
X031428Y001284D01*
X031186Y001159D01*
X030919Y001103D01*
X030648Y001122D01*
X030391Y001213D01*
X030168Y001370D01*
X029997Y001581D01*
X029888Y001831D01*
X029851Y002101D01*
X028351Y002101D02*
X028389Y002292D01*
X028497Y002455D01*
X028660Y002563D01*
X028851Y002601D01*
X029042Y002563D01*
X029205Y002455D01*
X029313Y002292D01*
X029351Y002101D01*
X029313Y001910D01*
X029205Y001747D01*
X029042Y001639D01*
X028851Y001601D01*
X028660Y001639D01*
X028497Y001747D01*
X028389Y001910D01*
X028351Y002101D01*
X028101Y002451D02*
X028101Y000751D01*
X028101Y000201D01*
X024101Y000201D01*
X024101Y000751D01*
X024101Y002451D01*
X028101Y002451D01*
X028101Y003151D01*
X024101Y003151D01*
X024101Y002801D01*
X024101Y002451D01*
X023901Y002401D01*
X023901Y002851D01*
X024101Y002801D01*
X024911Y002801D02*
X024943Y002909D01*
X025028Y002983D01*
X025139Y002999D01*
X025242Y002952D01*
X025303Y002857D01*
X025303Y002745D01*
X025242Y002650D01*
X025139Y002603D01*
X025028Y002619D01*
X024943Y002693D01*
X024911Y002801D01*
X025601Y003801D02*
X021601Y003801D01*
X021601Y004101D01*
X022851Y004301D02*
X022851Y004901D01*
X024351Y004901D01*
X024351Y004301D01*
X022851Y004301D01*
X022851Y005301D02*
X022851Y005901D01*
X024351Y005901D01*
X024351Y005301D01*
X022851Y005301D01*
X022851Y006301D02*
X022851Y006901D01*
X024351Y006901D01*
X024351Y006301D01*
X022851Y006301D01*
X022851Y007301D02*
X022851Y007901D01*
X024351Y007901D01*
X024351Y007301D01*
X022851Y007301D01*
X022851Y008151D02*
X022851Y008401D01*
X021601Y008401D01*
X021601Y008101D01*
X021601Y009101D02*
X021639Y009292D01*
X021747Y009455D01*
X021910Y009563D01*
X022101Y009601D01*
X022292Y009563D01*
X022455Y009455D01*
X022563Y009292D01*
X022601Y009101D01*
X022563Y008910D01*
X022455Y008747D01*
X022292Y008639D01*
X022101Y008601D01*
X021910Y008639D01*
X021747Y008747D01*
X021639Y008910D01*
X021601Y009101D01*
X022851Y008401D02*
X024351Y008401D01*
X024351Y008151D01*
X022851Y008151D01*
X022601Y009101D02*
X022639Y009292D01*
X022747Y009455D01*
X022910Y009563D01*
X023101Y009601D01*
X023292Y009563D01*
X023455Y009455D01*
X023563Y009292D01*
X023601Y009101D01*
X023563Y008910D01*
X023455Y008747D01*
X023292Y008639D01*
X023101Y008601D01*
X022910Y008639D01*
X022747Y008747D01*
X022639Y008910D01*
X022601Y009101D01*
X023601Y009101D02*
X023639Y009292D01*
X023747Y009455D01*
X023910Y009563D01*
X024101Y009601D01*
X024292Y009563D01*
X024455Y009455D01*
X024563Y009292D01*
X024601Y009101D01*
X024563Y008910D01*
X024455Y008747D01*
X024292Y008639D01*
X024101Y008601D01*
X023910Y008639D01*
X023747Y008747D01*
X023639Y008910D01*
X023601Y009101D01*
X024351Y008401D02*
X025601Y008401D01*
X025601Y008101D01*
X026351Y008101D02*
X026351Y008401D01*
X024601Y009101D02*
X024639Y009292D01*
X024747Y009455D01*
X024910Y009563D01*
X025101Y009601D01*
X025292Y009563D01*
X025455Y009455D01*
X025563Y009292D01*
X025601Y009101D01*
X025563Y008910D01*
X025455Y008747D01*
X025292Y008639D01*
X025101Y008601D01*
X024910Y008639D01*
X024747Y008747D01*
X024639Y008910D01*
X024601Y009101D01*
X029101Y008401D02*
X030351Y008401D01*
X030351Y008101D01*
X025601Y004101D02*
X025601Y003801D01*
X026891Y002801D02*
X026923Y002909D01*
X027008Y002983D01*
X027119Y002999D01*
X027222Y002952D01*
X027283Y002857D01*
X027283Y002745D01*
X027222Y002650D01*
X027119Y002603D01*
X027008Y002619D01*
X026923Y002693D01*
X026891Y002801D01*
X028101Y000751D02*
X024101Y000751D01*
X023101Y000751D02*
X023101Y000201D01*
X019101Y000201D01*
X019101Y000751D01*
X015101Y000751D01*
X015101Y002451D01*
X019101Y002451D01*
X019101Y000751D01*
X019101Y002451D01*
X019101Y003151D01*
X015101Y003151D01*
X015101Y002801D01*
X015101Y002451D01*
X014901Y002401D01*
X014901Y002851D01*
X015101Y002801D01*
X015101Y003151D02*
X015101Y002451D01*
X015101Y000751D01*
X015101Y000201D01*
X019101Y000201D01*
X019101Y000751D01*
X023101Y000751D01*
X023101Y002451D01*
X019101Y002451D01*
X019101Y002801D01*
X019101Y003151D01*
X023101Y003151D01*
X023101Y002451D01*
X021891Y002801D02*
X021923Y002909D01*
X022008Y002983D01*
X022119Y002999D01*
X022222Y002952D01*
X022283Y002857D01*
X022283Y002745D01*
X022222Y002650D01*
X022119Y002603D01*
X022008Y002619D01*
X021923Y002693D01*
X021891Y002801D01*
X019911Y002801D02*
X019943Y002909D01*
X020028Y002983D01*
X020139Y002999D01*
X020242Y002952D01*
X020303Y002857D01*
X020303Y002745D01*
X020242Y002650D01*
X020139Y002603D01*
X020028Y002619D01*
X019943Y002693D01*
X019911Y002801D01*
X019101Y002801D02*
X018901Y002851D01*
X018901Y002401D01*
X019101Y002451D01*
X017891Y002801D02*
X017923Y002909D01*
X018008Y002983D01*
X018119Y002999D01*
X018222Y002952D01*
X018283Y002857D01*
X018283Y002745D01*
X018222Y002650D01*
X018119Y002603D01*
X018008Y002619D01*
X017923Y002693D01*
X017891Y002801D01*
X015911Y002801D02*
X015943Y002909D01*
X016028Y002983D01*
X016139Y002999D01*
X016242Y002952D01*
X016303Y002857D01*
X016303Y002745D01*
X016242Y002650D01*
X016139Y002603D01*
X016028Y002619D01*
X015943Y002693D01*
X015911Y002801D01*
X015101Y003151D02*
X011101Y003151D01*
X011101Y002801D01*
X011101Y002451D01*
X011101Y000751D01*
X015101Y000751D01*
X015101Y000201D01*
X011101Y000201D01*
X011101Y000751D01*
X010901Y002401D02*
X011101Y002451D01*
X015101Y002451D01*
X013891Y002801D02*
X013923Y002909D01*
X014008Y002983D01*
X014119Y002999D01*
X014222Y002952D01*
X014283Y002857D01*
X014283Y002745D01*
X014222Y002650D01*
X014119Y002603D01*
X014008Y002619D01*
X013923Y002693D01*
X013891Y002801D01*
X011911Y002801D02*
X011943Y002909D01*
X012028Y002983D01*
X012139Y002999D01*
X012242Y002952D01*
X012303Y002857D01*
X012303Y002745D01*
X012242Y002650D01*
X012139Y002603D01*
X012028Y002619D01*
X011943Y002693D01*
X011911Y002801D01*
X011101Y002801D02*
X010901Y002851D01*
X010901Y002401D01*
X007851Y003351D02*
X007888Y003621D01*
X007997Y003871D01*
X008168Y004082D01*
X008391Y004239D01*
X008648Y004330D01*
X008919Y004349D01*
X009186Y004293D01*
X009428Y004168D01*
X009627Y003982D01*
X009768Y003749D01*
X009842Y003487D01*
X009842Y003215D01*
X009768Y002953D01*
X009627Y002720D01*
X009428Y002534D01*
X009186Y002409D01*
X008919Y002353D01*
X008648Y002372D01*
X008391Y002463D01*
X008168Y002620D01*
X007997Y002831D01*
X007888Y003081D01*
X007851Y003351D01*
X006351Y003351D02*
X006389Y003542D01*
X006497Y003705D01*
X006660Y003813D01*
X006851Y003851D01*
X007042Y003813D01*
X007205Y003705D01*
X007313Y003542D01*
X007351Y003351D01*
X007313Y003160D01*
X007205Y002997D01*
X007042Y002889D01*
X006851Y002851D01*
X006660Y002889D01*
X006497Y002997D01*
X006389Y003160D01*
X006351Y003351D01*
X004251Y003101D02*
X002451Y003101D01*
X002451Y011101D01*
X002951Y011101D01*
X002981Y010948D01*
X003068Y010818D01*
X003198Y010731D01*
X003351Y010701D01*
X003504Y010731D01*
X003634Y010818D01*
X003721Y010948D01*
X003751Y011101D01*
X004251Y011101D01*
X004251Y003101D01*
X006351Y006101D02*
X006389Y006292D01*
X006497Y006455D01*
X006660Y006563D01*
X006851Y006601D01*
X007042Y006563D01*
X007205Y006455D01*
X007313Y006292D01*
X007351Y006101D01*
X007313Y005910D01*
X007205Y005747D01*
X007042Y005639D01*
X006851Y005601D01*
X006660Y005639D01*
X006497Y005747D01*
X006389Y005910D01*
X006351Y006101D01*
X007851Y006101D02*
X007888Y006371D01*
X007997Y006621D01*
X008168Y006832D01*
X008391Y006989D01*
X008648Y007080D01*
X008919Y007099D01*
X009186Y007043D01*
X009428Y006918D01*
X009627Y006732D01*
X009768Y006499D01*
X009842Y006237D01*
X009842Y005965D01*
X009768Y005703D01*
X009627Y005470D01*
X009428Y005284D01*
X009186Y005159D01*
X008919Y005103D01*
X008648Y005122D01*
X008391Y005213D01*
X008168Y005370D01*
X007997Y005581D01*
X007888Y005831D01*
X007851Y006101D01*
X007851Y008851D02*
X007888Y009121D01*
X007997Y009371D01*
X008168Y009582D01*
X008391Y009739D01*
X008648Y009830D01*
X008919Y009849D01*
X009186Y009793D01*
X009428Y009668D01*
X009627Y009482D01*
X009768Y009249D01*
X009842Y008987D01*
X009842Y008715D01*
X009768Y008453D01*
X009627Y008220D01*
X009428Y008034D01*
X009186Y007909D01*
X008919Y007853D01*
X008648Y007872D01*
X008391Y007963D01*
X008168Y008120D01*
X007997Y008331D01*
X007888Y008581D01*
X007851Y008851D01*
X006351Y008851D02*
X006389Y009042D01*
X006497Y009205D01*
X006660Y009313D01*
X006851Y009351D01*
X007042Y009313D01*
X007205Y009205D01*
X007313Y009042D01*
X007351Y008851D01*
X007313Y008660D01*
X007205Y008497D01*
X007042Y008389D01*
X006851Y008351D01*
X006660Y008389D01*
X006497Y008497D01*
X006389Y008660D01*
X006351Y008851D01*
X011601Y007251D02*
X011601Y005451D01*
X014601Y005451D01*
X014601Y005951D01*
X014448Y005981D01*
X014318Y006068D01*
X014231Y006198D01*
X014201Y006351D01*
X014231Y006504D01*
X014318Y006634D01*
X014448Y006721D01*
X014601Y006751D01*
X014601Y007251D01*
X011601Y007251D01*
X012601Y009351D02*
X012639Y009542D01*
X012747Y009705D01*
X012910Y009813D01*
X013101Y009851D01*
X013292Y009813D01*
X013455Y009705D01*
X013563Y009542D01*
X013601Y009351D01*
X013563Y009160D01*
X013455Y008997D01*
X013292Y008889D01*
X013101Y008851D01*
X012910Y008889D01*
X012747Y008997D01*
X012639Y009160D01*
X012601Y009351D01*
X015601Y007251D02*
X015601Y005451D01*
X018601Y005451D01*
X018601Y005951D01*
X018448Y005981D01*
X018318Y006068D01*
X018231Y006198D01*
X018201Y006351D01*
X018231Y006504D01*
X018318Y006634D01*
X018448Y006721D01*
X018601Y006751D01*
X018601Y007251D01*
X015601Y007251D01*
X016601Y009351D02*
X016639Y009542D01*
X016747Y009705D01*
X016910Y009813D01*
X017101Y009851D01*
X017292Y009813D01*
X017455Y009705D01*
X017563Y009542D01*
X017601Y009351D01*
X017563Y009160D01*
X017455Y008997D01*
X017292Y008889D01*
X017101Y008851D01*
X016910Y008889D01*
X016747Y008997D01*
X016639Y009160D01*
X016601Y009351D01*
D13*
X016598Y003731D02*
X016357Y003731D01*
X016477Y003731D02*
X016477Y003371D01*
X016229Y003431D02*
X016229Y003671D01*
X016169Y003731D01*
X016049Y003731D01*
X015989Y003671D01*
X015989Y003431D01*
X016049Y003371D01*
X016169Y003371D01*
X016229Y003431D01*
X015861Y003371D02*
X015861Y003731D01*
X015741Y003611D01*
X015621Y003731D01*
X015621Y003371D01*
X016726Y003431D02*
X016786Y003371D01*
X016906Y003371D01*
X016966Y003431D01*
X016966Y003671D01*
X016906Y003731D01*
X016786Y003731D01*
X016726Y003671D01*
X016726Y003431D01*
X017094Y003491D02*
X017274Y003491D01*
X017334Y003551D01*
X017334Y003671D01*
X017274Y003731D01*
X017094Y003731D01*
X017094Y003371D01*
X017214Y003491D02*
X017334Y003371D01*
X017831Y003371D02*
X018071Y003611D01*
X018071Y003671D01*
X018011Y003731D01*
X017891Y003731D01*
X017831Y003671D01*
X017831Y003371D02*
X018071Y003371D01*
X020121Y003426D02*
X020361Y003426D01*
X020361Y003486D02*
X020361Y003246D01*
X020489Y003306D02*
X020549Y003246D01*
X020669Y003246D01*
X020729Y003306D01*
X020489Y003306D02*
X020489Y003546D01*
X020549Y003606D01*
X020669Y003606D01*
X020729Y003546D01*
X020361Y003486D02*
X020241Y003606D01*
X020121Y003486D01*
X020121Y003246D01*
X021226Y003246D02*
X021346Y003246D01*
X021286Y003246D02*
X021286Y003606D01*
X021226Y003606D02*
X021346Y003606D01*
X021471Y003606D02*
X021711Y003246D01*
X021711Y003606D01*
X021471Y003606D02*
X021471Y003246D01*
X024996Y003246D02*
X024996Y003606D01*
X025176Y003606D01*
X025236Y003546D01*
X025236Y003426D01*
X025176Y003366D01*
X024996Y003366D01*
X025364Y003306D02*
X025424Y003246D01*
X025544Y003246D01*
X025604Y003306D01*
X025604Y003546D01*
X025544Y003606D01*
X025424Y003606D01*
X025364Y003546D01*
X025364Y003306D01*
X025732Y003246D02*
X025732Y003606D01*
X025973Y003606D02*
X025973Y003246D01*
X025852Y003366D01*
X025732Y003246D01*
X026101Y003246D02*
X026101Y003606D01*
X026341Y003606D01*
X026469Y003606D02*
X026469Y003246D01*
X026469Y003366D02*
X026649Y003366D01*
X026709Y003426D01*
X026709Y003546D01*
X026649Y003606D01*
X026469Y003606D01*
X026589Y003366D02*
X026709Y003246D01*
X026341Y003246D02*
X026101Y003246D01*
X026101Y003426D02*
X026221Y003426D01*
X014071Y003371D02*
X013831Y003371D01*
X013951Y003371D02*
X013951Y003731D01*
X013831Y003611D01*
X013334Y003551D02*
X013274Y003491D01*
X013094Y003491D01*
X013214Y003491D02*
X013334Y003371D01*
X013334Y003551D02*
X013334Y003671D01*
X013274Y003731D01*
X013094Y003731D01*
X013094Y003371D01*
X012966Y003431D02*
X012966Y003671D01*
X012906Y003731D01*
X012786Y003731D01*
X012726Y003671D01*
X012726Y003431D01*
X012786Y003371D01*
X012906Y003371D01*
X012966Y003431D01*
X012598Y003731D02*
X012357Y003731D01*
X012477Y003731D02*
X012477Y003371D01*
X012229Y003431D02*
X012229Y003671D01*
X012169Y003731D01*
X012049Y003731D01*
X011989Y003671D01*
X011989Y003431D01*
X012049Y003371D01*
X012169Y003371D01*
X012229Y003431D01*
X011861Y003371D02*
X011861Y003731D01*
X011741Y003611D01*
X011621Y003731D01*
X011621Y003371D01*
X010495Y021021D02*
X010188Y021021D01*
X010341Y021021D02*
X010341Y021481D01*
X010188Y021328D01*
X010035Y021404D02*
X009958Y021481D01*
X009804Y021481D01*
X009728Y021404D01*
X009728Y021097D01*
X009804Y021021D01*
X009958Y021021D01*
X010035Y021097D01*
X009574Y021021D02*
X009421Y021021D01*
X009497Y021021D02*
X009497Y021481D01*
X009421Y021481D02*
X009574Y021481D01*
X015171Y021481D02*
X015324Y021481D01*
X015247Y021481D02*
X015247Y021021D01*
X015171Y021021D02*
X015324Y021021D01*
X015478Y021097D02*
X015478Y021404D01*
X015554Y021481D01*
X015708Y021481D01*
X015785Y021404D01*
X015938Y021404D02*
X016015Y021481D01*
X016168Y021481D01*
X016245Y021404D01*
X016245Y021328D01*
X015938Y021021D01*
X016245Y021021D01*
X015785Y021097D02*
X015708Y021021D01*
X015554Y021021D01*
X015478Y021097D01*
X021171Y021021D02*
X021324Y021021D01*
X021247Y021021D02*
X021247Y021481D01*
X021171Y021481D02*
X021324Y021481D01*
X021478Y021404D02*
X021478Y021097D01*
X021554Y021021D01*
X021708Y021021D01*
X021785Y021097D01*
X021938Y021097D02*
X022015Y021021D01*
X022168Y021021D01*
X022245Y021097D01*
X022245Y021251D01*
X022168Y021328D01*
X022091Y021328D01*
X021938Y021251D01*
X021938Y021481D01*
X022245Y021481D01*
X021785Y021404D02*
X021708Y021481D01*
X021554Y021481D01*
X021478Y021404D01*
X026921Y021481D02*
X027074Y021481D01*
X026997Y021481D02*
X026997Y021021D01*
X026921Y021021D02*
X027074Y021021D01*
X027228Y021097D02*
X027228Y021404D01*
X027304Y021481D01*
X027458Y021481D01*
X027535Y021404D01*
X027688Y021481D02*
X027995Y021481D01*
X027995Y021404D01*
X027688Y021097D01*
X027688Y021021D01*
X027535Y021097D02*
X027458Y021021D01*
X027304Y021021D01*
X027228Y021097D01*
D14*
X027751Y025276D02*
X027751Y026926D01*
X027151Y026654D02*
X027151Y026548D01*
X027750Y026926D02*
X027663Y027056D01*
X026529Y027051D02*
X026307Y026910D01*
X026127Y026718D01*
X026000Y026488D01*
X025934Y026233D01*
X025934Y025969D01*
X026000Y025714D01*
X026127Y025484D01*
X026307Y025292D01*
X026529Y025151D01*
X027151Y025548D02*
X027151Y025654D01*
X027751Y025276D02*
X027673Y025151D01*
X029151Y025548D02*
X029151Y025654D01*
X029751Y025276D02*
X029673Y025151D01*
X029751Y025276D02*
X029751Y026926D01*
X029151Y026654D02*
X029151Y026548D01*
X029750Y026926D02*
X029663Y027056D01*
X028529Y027051D02*
X028307Y026910D01*
X028127Y026718D01*
X028000Y026488D01*
X027934Y026233D01*
X027934Y025969D01*
X028000Y025714D01*
X028127Y025484D01*
X028307Y025292D01*
X028529Y025151D01*
X030529Y025151D02*
X030307Y025292D01*
X030127Y025484D01*
X030000Y025714D01*
X029934Y025969D01*
X029934Y026233D01*
X030000Y026488D01*
X030127Y026718D01*
X030307Y026910D01*
X030529Y027051D01*
X031151Y026654D02*
X031151Y026548D01*
X031750Y026926D02*
X031663Y027056D01*
X031751Y026926D02*
X031751Y025276D01*
X031673Y025151D01*
X031151Y025548D02*
X031151Y025654D01*
X025751Y025276D02*
X025751Y026926D01*
X025151Y026654D02*
X025151Y026548D01*
X025750Y026926D02*
X025663Y027056D01*
X024529Y027051D02*
X024307Y026910D01*
X024127Y026718D01*
X024000Y026488D01*
X023934Y026233D01*
X023934Y025969D01*
X024000Y025714D01*
X024127Y025484D01*
X024307Y025292D01*
X024529Y025151D01*
X025151Y025548D02*
X025151Y025654D01*
X025751Y025276D02*
X025673Y025151D01*
X023751Y025276D02*
X023751Y026926D01*
X023151Y026654D02*
X023151Y026548D01*
X023750Y026926D02*
X023663Y027056D01*
X022529Y027051D02*
X022307Y026910D01*
X022127Y026718D01*
X022000Y026488D01*
X021934Y026233D01*
X021934Y025969D01*
X022000Y025714D01*
X022127Y025484D01*
X022307Y025292D01*
X022529Y025151D01*
X023151Y025548D02*
X023151Y025654D01*
X023751Y025276D02*
X023673Y025151D01*
X021751Y025276D02*
X021751Y026926D01*
X021151Y026654D02*
X021151Y026548D01*
X021750Y026926D02*
X021663Y027056D01*
X020529Y027051D02*
X020307Y026910D01*
X020127Y026718D01*
X020000Y026488D01*
X019934Y026233D01*
X019934Y025969D01*
X020000Y025714D01*
X020127Y025484D01*
X020307Y025292D01*
X020529Y025151D01*
X021151Y025548D02*
X021151Y025654D01*
X021751Y025276D02*
X021673Y025151D01*
X019751Y025276D02*
X019751Y026926D01*
X019151Y026654D02*
X019151Y026548D01*
X019750Y026926D02*
X019663Y027056D01*
X018529Y027051D02*
X018307Y026910D01*
X018127Y026718D01*
X018000Y026488D01*
X017934Y026233D01*
X017934Y025969D01*
X018000Y025714D01*
X018127Y025484D01*
X018307Y025292D01*
X018529Y025151D01*
X019151Y025548D02*
X019151Y025654D01*
X019751Y025276D02*
X019673Y025151D01*
X017751Y025276D02*
X017751Y026926D01*
X017151Y026654D02*
X017151Y026548D01*
X017750Y026926D02*
X017663Y027056D01*
X016529Y027051D02*
X016307Y026910D01*
X016127Y026718D01*
X016000Y026488D01*
X015934Y026233D01*
X015934Y025969D01*
X016000Y025714D01*
X016127Y025484D01*
X016307Y025292D01*
X016529Y025151D01*
X017151Y025548D02*
X017151Y025654D01*
X017751Y025276D02*
X017673Y025151D01*
X015751Y025276D02*
X015751Y026926D01*
X015151Y026654D02*
X015151Y026548D01*
X015750Y026926D02*
X015663Y027056D01*
X014529Y027051D02*
X014307Y026910D01*
X014127Y026718D01*
X014000Y026488D01*
X013934Y026233D01*
X013934Y025969D01*
X014000Y025714D01*
X014127Y025484D01*
X014307Y025292D01*
X014529Y025151D01*
X015151Y025548D02*
X015151Y025654D01*
X015751Y025276D02*
X015673Y025151D01*
X013751Y025276D02*
X013751Y026926D01*
X013151Y026654D02*
X013151Y026548D01*
X013750Y026926D02*
X013663Y027056D01*
X012529Y027051D02*
X012307Y026910D01*
X012127Y026718D01*
X012000Y026488D01*
X011934Y026233D01*
X011934Y025969D01*
X012000Y025714D01*
X012127Y025484D01*
X012307Y025292D01*
X012529Y025151D01*
X013151Y025548D02*
X013151Y025654D01*
X013751Y025276D02*
X013673Y025151D01*
X011751Y025276D02*
X011751Y026926D01*
X011151Y026654D02*
X011151Y026548D01*
X011750Y026926D02*
X011663Y027056D01*
X010529Y027051D02*
X010307Y026910D01*
X010127Y026718D01*
X010000Y026488D01*
X009934Y026233D01*
X009934Y025969D01*
X010000Y025714D01*
X010127Y025484D01*
X010307Y025292D01*
X010529Y025151D01*
X011151Y025548D02*
X011151Y025654D01*
X011751Y025276D02*
X011673Y025151D01*
X009751Y025276D02*
X009751Y026926D01*
X009151Y026654D02*
X009151Y026548D01*
X009750Y026926D02*
X009663Y027056D01*
X008529Y027051D02*
X008307Y026910D01*
X008127Y026718D01*
X008000Y026488D01*
X007934Y026233D01*
X007934Y025969D01*
X008000Y025714D01*
X008127Y025484D01*
X008307Y025292D01*
X008529Y025151D01*
X009151Y025548D02*
X009151Y025654D01*
X009751Y025276D02*
X009673Y025151D01*
X007751Y025276D02*
X007751Y026926D01*
X007151Y026654D02*
X007151Y026548D01*
X007750Y026926D02*
X007663Y027056D01*
X006529Y027051D02*
X006307Y026910D01*
X006127Y026718D01*
X006000Y026488D01*
X005934Y026233D01*
X005934Y025969D01*
X006000Y025714D01*
X006127Y025484D01*
X006307Y025292D01*
X006529Y025151D01*
X007151Y025548D02*
X007151Y025654D01*
X007751Y025276D02*
X007673Y025151D01*
X005751Y025276D02*
X005751Y026926D01*
X005151Y026654D02*
X005151Y026548D01*
X005750Y026926D02*
X005663Y027056D01*
X004529Y027051D02*
X004307Y026910D01*
X004127Y026718D01*
X004000Y026488D01*
X003934Y026233D01*
X003934Y025969D01*
X004000Y025714D01*
X004127Y025484D01*
X004307Y025292D01*
X004529Y025151D01*
X005151Y025548D02*
X005151Y025654D01*
X005751Y025276D02*
X005673Y025151D01*
X003868Y021496D02*
X003943Y021421D01*
X003943Y021346D01*
X003868Y021271D01*
X003943Y021196D01*
X003943Y021121D01*
X003868Y021046D01*
X003718Y021046D01*
X003643Y021121D01*
X003483Y021121D02*
X003408Y021046D01*
X003258Y021046D01*
X003183Y021121D01*
X003183Y021421D01*
X003258Y021496D01*
X003408Y021496D01*
X003483Y021421D01*
X003643Y021421D02*
X003718Y021496D01*
X003868Y021496D01*
X003868Y021271D02*
X003793Y021271D01*
X003026Y021496D02*
X002876Y021496D01*
X002951Y021496D02*
X002951Y021046D01*
X002876Y021046D02*
X003026Y021046D01*
X003108Y011726D02*
X003033Y011651D01*
X003033Y011351D01*
X003108Y011276D01*
X003258Y011276D01*
X003333Y011351D01*
X003493Y011501D02*
X003793Y011501D01*
X003718Y011276D02*
X003718Y011726D01*
X003493Y011501D01*
X003333Y011651D02*
X003258Y011726D01*
X003108Y011726D01*
X002876Y011726D02*
X002726Y011726D01*
X002801Y011726D02*
X002801Y011276D01*
X002726Y011276D02*
X002876Y011276D01*
X009960Y010002D02*
X010411Y010002D01*
X010411Y009852D02*
X010411Y010152D01*
X010111Y009852D02*
X009960Y010002D01*
X009960Y009232D02*
X010411Y009232D01*
X009960Y008931D01*
X010411Y008931D01*
X010336Y008771D02*
X010411Y008696D01*
X010411Y008546D01*
X010336Y008471D01*
X009960Y008471D01*
X010035Y008311D02*
X009960Y008236D01*
X009960Y008011D01*
X010411Y008011D01*
X010261Y008011D02*
X010261Y008236D01*
X010186Y008311D01*
X010035Y008311D01*
X010261Y008161D02*
X010411Y008311D01*
X010336Y008771D02*
X009960Y008771D01*
X010035Y007402D02*
X009960Y007327D01*
X009960Y007177D01*
X010035Y007102D01*
X010035Y007402D02*
X010111Y007402D01*
X010411Y007102D01*
X010411Y007402D01*
X010411Y006482D02*
X009960Y006482D01*
X009960Y006181D02*
X010411Y006482D01*
X010411Y006181D02*
X009960Y006181D01*
X009960Y006021D02*
X010336Y006021D01*
X010411Y005946D01*
X010411Y005796D01*
X010336Y005721D01*
X009960Y005721D01*
X010035Y005561D02*
X009960Y005486D01*
X009960Y005261D01*
X010411Y005261D01*
X010261Y005261D02*
X010261Y005486D01*
X010186Y005561D01*
X010035Y005561D01*
X010261Y005411D02*
X010411Y005561D01*
X010336Y004738D02*
X010411Y004663D01*
X010411Y004513D01*
X010336Y004438D01*
X010336Y004277D02*
X009960Y004277D01*
X010035Y004438D02*
X009960Y004513D01*
X009960Y004663D01*
X010035Y004738D01*
X010186Y004663D02*
X010261Y004738D01*
X010336Y004738D01*
X010186Y004663D02*
X010186Y004513D01*
X010111Y004438D01*
X010035Y004438D01*
X010336Y004277D02*
X010411Y004202D01*
X010411Y004052D01*
X010336Y003977D01*
X009960Y003977D01*
X009960Y003817D02*
X009960Y003517D01*
X009960Y003667D02*
X010411Y003667D01*
X010411Y003357D02*
X010111Y003357D01*
X009960Y003207D01*
X010111Y003056D01*
X010411Y003056D01*
X010186Y003056D02*
X010186Y003357D01*
X009960Y002896D02*
X009960Y002596D01*
X009960Y002746D02*
X010411Y002746D01*
X010336Y002436D02*
X010411Y002361D01*
X010411Y002211D01*
X010336Y002136D01*
X010186Y002211D02*
X010186Y002361D01*
X010261Y002436D01*
X010336Y002436D01*
X010186Y002211D02*
X010111Y002136D01*
X010035Y002136D01*
X009960Y002211D01*
X009960Y002361D01*
X010035Y002436D01*
X014726Y006976D02*
X014726Y007426D01*
X014801Y007201D02*
X015026Y006976D01*
X015186Y006976D02*
X015486Y006976D01*
X015336Y006976D02*
X015336Y007426D01*
X015186Y007276D01*
X015026Y007426D02*
X014726Y007126D01*
X018726Y007126D02*
X019026Y007426D01*
X019186Y007351D02*
X019261Y007426D01*
X019411Y007426D01*
X019486Y007351D01*
X019486Y007276D01*
X019186Y006976D01*
X019486Y006976D01*
X019026Y006976D02*
X018801Y007201D01*
X018726Y007426D02*
X018726Y006976D01*
X020975Y007045D02*
X020975Y007270D01*
X021050Y007345D01*
X021351Y007345D01*
X021426Y007270D01*
X021426Y007045D01*
X020975Y007045D01*
X021050Y006884D02*
X020975Y006809D01*
X020975Y006659D01*
X021050Y006584D01*
X021351Y006584D01*
X021426Y006659D01*
X021426Y006809D01*
X021351Y006884D01*
X021050Y006884D01*
X020975Y006424D02*
X021426Y006424D01*
X021426Y006124D02*
X020975Y006124D01*
X021126Y006274D01*
X020975Y006424D01*
X020975Y007505D02*
X021426Y007505D01*
X021426Y007805D01*
X021426Y007965D02*
X021126Y008266D01*
X021050Y008266D01*
X020975Y008190D01*
X020975Y008040D01*
X021050Y007965D01*
X020975Y007805D02*
X020975Y007505D01*
X021201Y007505D02*
X021201Y007655D01*
X021426Y007965D02*
X021426Y008266D01*
X025725Y008115D02*
X025876Y007965D01*
X025725Y008115D02*
X026176Y008115D01*
X026176Y007965D02*
X026176Y008266D01*
X026176Y007805D02*
X026176Y007505D01*
X025725Y007505D01*
X025725Y007805D01*
X025951Y007655D02*
X025951Y007505D01*
X026101Y007345D02*
X025800Y007345D01*
X025725Y007270D01*
X025725Y007045D01*
X026176Y007045D01*
X026176Y007270D01*
X026101Y007345D01*
X026101Y006884D02*
X025800Y006884D01*
X025725Y006809D01*
X025725Y006659D01*
X025800Y006584D01*
X026101Y006584D01*
X026176Y006659D01*
X026176Y006809D01*
X026101Y006884D01*
X026176Y006424D02*
X025725Y006424D01*
X025876Y006274D01*
X025725Y006124D01*
X026176Y006124D01*
X031875Y007126D02*
X031875Y007276D01*
X031875Y007201D02*
X032326Y007201D01*
X032326Y007126D02*
X032326Y007276D01*
X032326Y007433D02*
X031875Y007433D01*
X032326Y007733D01*
X031875Y007733D01*
X031950Y007893D02*
X031875Y007968D01*
X031875Y008118D01*
X031950Y008193D01*
X032026Y008193D01*
X032101Y008118D01*
X032176Y008193D01*
X032251Y008193D01*
X032326Y008118D01*
X032326Y007968D01*
X032251Y007893D01*
X032101Y008043D02*
X032101Y008118D01*
X032326Y011376D02*
X032326Y011526D01*
X032326Y011451D02*
X031875Y011451D01*
X031875Y011376D02*
X031875Y011526D01*
X031875Y011683D02*
X032326Y011983D01*
X031875Y011983D01*
X032101Y012143D02*
X032101Y012443D01*
X032326Y012368D02*
X031875Y012368D01*
X032101Y012143D01*
X032326Y011683D02*
X031875Y011683D01*
X032250Y015501D02*
X032250Y015651D01*
X032250Y015576D02*
X032701Y015576D01*
X032701Y015501D02*
X032701Y015651D01*
X032701Y015808D02*
X032250Y015808D01*
X032701Y016108D01*
X032250Y016108D01*
X032325Y016268D02*
X032250Y016343D01*
X032250Y016493D01*
X032325Y016568D01*
X032401Y016568D01*
X032701Y016268D01*
X032701Y016568D01*
X032701Y019376D02*
X032701Y019526D01*
X032701Y019451D02*
X032250Y019451D01*
X032250Y019376D02*
X032250Y019526D01*
X032250Y019683D02*
X032701Y019983D01*
X032250Y019983D01*
X032401Y020143D02*
X032250Y020293D01*
X032701Y020293D01*
X032701Y020143D02*
X032701Y020443D01*
X032701Y019683D02*
X032250Y019683D01*
X032311Y003027D02*
X032386Y002952D01*
X032386Y002727D01*
X032536Y002727D02*
X032085Y002727D01*
X032085Y002952D01*
X032160Y003027D01*
X032311Y003027D01*
X032386Y002877D02*
X032536Y003027D01*
X032536Y002567D02*
X032536Y002267D01*
X032085Y002267D01*
X032085Y002567D01*
X032311Y002417D02*
X032311Y002267D01*
X032536Y002107D02*
X032085Y002107D01*
X032085Y001806D02*
X032536Y001806D01*
X032386Y001957D01*
X032536Y002107D01*
X032461Y001646D02*
X032160Y001646D01*
X032085Y001571D01*
X032085Y001421D01*
X032160Y001346D01*
X032461Y001346D01*
X032536Y001421D01*
X032536Y001571D01*
X032461Y001646D01*
X032311Y001186D02*
X032386Y001111D01*
X032386Y000886D01*
X032536Y000886D02*
X032085Y000886D01*
X032085Y001111D01*
X032160Y001186D01*
X032311Y001186D01*
D15*
X028851Y002501D02*
X028851Y002701D01*
X028851Y009501D02*
X028851Y009701D01*
X029851Y009701D02*
X029851Y009501D01*
X027851Y009501D02*
X027851Y009701D01*
X026851Y009701D02*
X026851Y009501D01*
X025101Y009501D02*
X025101Y009701D01*
X024101Y009701D02*
X024101Y009501D01*
X023101Y009501D02*
X023101Y009701D01*
X022101Y009701D02*
X022101Y009501D01*
X017701Y009351D02*
X017501Y009351D01*
X013701Y009351D02*
X013501Y009351D01*
X006851Y009251D02*
X006851Y009451D01*
X006851Y006701D02*
X006851Y006501D01*
X006851Y003951D02*
X006851Y003751D01*
X003201Y022101D02*
X003001Y022101D01*
X005001Y024101D02*
X005201Y024101D01*
X007001Y024101D02*
X007201Y024101D01*
X009001Y024101D02*
X009201Y024101D01*
X011001Y024101D02*
X011201Y024101D01*
X013001Y024101D02*
X013201Y024101D01*
X015001Y024101D02*
X015201Y024101D01*
X017001Y024101D02*
X017201Y024101D01*
X019001Y024101D02*
X019201Y024101D01*
X021001Y024101D02*
X021201Y024101D01*
X023001Y024101D02*
X023201Y024101D01*
X025001Y024101D02*
X025201Y024101D01*
X027001Y024101D02*
X027201Y024101D01*
X029001Y024101D02*
X029201Y024101D01*
X031001Y024101D02*
X031201Y024101D01*
X031251Y021101D02*
X031451Y021101D01*
X031451Y020101D02*
X031251Y020101D01*
X031251Y019101D02*
X031451Y019101D01*
X031451Y018101D02*
X031251Y018101D01*
X031251Y017101D02*
X031451Y017101D01*
X031451Y016101D02*
X031251Y016101D01*
X031251Y015101D02*
X031451Y015101D01*
X031451Y014101D02*
X031251Y014101D01*
X030701Y028101D02*
X030501Y028101D01*
X028701Y028101D02*
X028501Y028101D01*
X026701Y028101D02*
X026501Y028101D01*
X024701Y028101D02*
X024501Y028101D01*
X022701Y028101D02*
X022501Y028101D01*
X020701Y028101D02*
X020501Y028101D01*
X018701Y028101D02*
X018501Y028101D01*
X016701Y028101D02*
X016501Y028101D01*
X014701Y028101D02*
X014501Y028101D01*
X012701Y028101D02*
X012501Y028101D01*
X010701Y028101D02*
X010501Y028101D01*
X008701Y028101D02*
X008501Y028101D01*
X006701Y028101D02*
X006501Y028101D01*
X004701Y028101D02*
X004501Y028101D01*
D16*
X005601Y030601D03*
X009601Y030601D03*
X013601Y030601D03*
X017601Y030601D03*
X021601Y030601D03*
X025601Y030601D03*
X029601Y030601D03*
X026101Y001601D03*
X021101Y001601D03*
X017101Y001601D03*
X013101Y001601D03*
D17*
X034101Y007851D03*
X034101Y011851D03*
X034101Y015851D03*
X034101Y019851D03*
D18*
X031851Y002851D02*
X031851Y001351D01*
X009851Y002601D02*
X009851Y004101D01*
X009851Y005351D02*
X009851Y006851D01*
X009851Y008101D02*
X009851Y009601D01*
D19*
X009635Y009825D01*
X009369Y009988D01*
X009072Y010081D01*
X008761Y010098D01*
X008456Y010037D01*
X008175Y009902D01*
X007936Y009703D01*
X007754Y009450D01*
X007640Y009160D01*
X007601Y008851D01*
X007640Y008542D01*
X007754Y008252D01*
X007936Y007999D01*
X008175Y007800D01*
X008456Y007665D01*
X008761Y007604D01*
X009072Y007621D01*
X009369Y007714D01*
X009635Y007877D01*
X009851Y008101D01*
X009851Y006851D02*
X009635Y007075D01*
X009369Y007238D01*
X009072Y007331D01*
X008761Y007348D01*
X008456Y007287D01*
X008175Y007152D01*
X007936Y006953D01*
X007754Y006700D01*
X007640Y006410D01*
X007601Y006101D01*
X007640Y005792D01*
X007754Y005502D01*
X007936Y005249D01*
X008175Y005050D01*
X008456Y004915D01*
X008761Y004854D01*
X009072Y004871D01*
X009369Y004964D01*
X009635Y005127D01*
X009851Y005351D01*
X009851Y004101D02*
X009635Y004325D01*
X009369Y004488D01*
X009072Y004581D01*
X008761Y004598D01*
X008456Y004537D01*
X008175Y004402D01*
X007936Y004203D01*
X007754Y003950D01*
X007640Y003660D01*
X007601Y003351D01*
X007640Y003042D01*
X007754Y002752D01*
X007936Y002499D01*
X008175Y002300D01*
X008456Y002165D01*
X008761Y002104D01*
X009072Y002121D01*
X009369Y002214D01*
X009635Y002377D01*
X009851Y002601D01*
X031851Y002851D02*
X031635Y003075D01*
X031369Y003238D01*
X031072Y003331D01*
X030761Y003348D01*
X030456Y003287D01*
X030175Y003152D01*
X029936Y002953D01*
X029754Y002700D01*
X029640Y002410D01*
X029601Y002101D01*
X029640Y001792D01*
X029754Y001502D01*
X029936Y001249D01*
X030175Y001050D01*
X030456Y000915D01*
X030761Y000854D01*
X031072Y000871D01*
X031369Y000964D01*
X031635Y001127D01*
X031851Y001351D01*
D20*
X027976Y004601D03*
X027976Y005601D03*
X027976Y006601D03*
X027976Y007601D03*
X023226Y007601D03*
X023226Y006601D03*
X023226Y005601D03*
X023226Y004601D03*
M02*
