%
M48
M72
T01C0.0236
T02C0.0320
T03C0.0400
T04C0.1260
%
T01
X12151Y7804
X12151Y14054
T02
X13151Y14054
X14151Y14054
X15151Y14054
X16151Y14054
X17151Y14054
X18151Y14054
X19151Y14054
X20151Y14054
X20151Y11054
X19151Y11054
X18151Y11054
X17151Y11054
X16151Y11054
X15151Y11054
X14151Y11054
X13151Y11054
X15151Y4804
X16151Y4804
X17651Y4804
X18651Y4804
X18151Y3054
X15151Y3054
T03
X4151Y1554
X5151Y1554
X6151Y1554
X7151Y1554
X8151Y1554
X9151Y1554
X10151Y1554
X11151Y1554
X13151Y1554
X14151Y1554
X15151Y1554
X16151Y1554
X17151Y1554
X18151Y1554
X20151Y1554
X21151Y1554
X22151Y1554
X23151Y1554
X24151Y1554
X25151Y1554
X25151Y20554
X24151Y20554
X23151Y20554
X22151Y20554
X21151Y20554
X20151Y20554
X19151Y20554
X18151Y20554
X16551Y20554
X15551Y20554
X14551Y20554
X13551Y20554
X12551Y20554
X11551Y20554
X10551Y20554
X9551Y20554
T04
X6151Y20554
X26151Y14554
X26151Y3554
M30
