G75*
G70*
%OFA0B0*%
%FSLAX24Y24*%
%IPPOS*%
%LPD*%
%AMOC8*
5,1,8,0,0,1.08239X$1,22.5*
%
%ADD10C,0.0100*%
%ADD11C,0.0000*%
%ADD12C,0.0090*%
%ADD13C,0.0520*%
%ADD14OC8,0.0520*%
%ADD15OC8,0.0630*%
%ADD16C,0.0630*%
%ADD17C,0.0600*%
%ADD18C,0.0240*%
%ADD19C,0.0396*%
D10*
X000151Y000554D02*
X000151Y021554D01*
X027151Y021554D01*
X027151Y000554D01*
X000151Y000554D01*
X000901Y001304D02*
X000901Y017629D01*
X007547Y017629D01*
X007576Y017659D01*
X007576Y019575D01*
X007547Y019604D01*
X006665Y019604D01*
X006814Y019690D01*
X007015Y019891D01*
X007157Y020137D01*
X007231Y020412D01*
X007231Y020696D01*
X007202Y020804D01*
X009121Y020804D01*
X009121Y020169D01*
X009187Y020011D01*
X009308Y019890D01*
X009466Y019824D01*
X009637Y019824D01*
X009795Y019890D01*
X009916Y020011D01*
X009981Y020169D01*
X009981Y020804D01*
X010121Y020804D01*
X010121Y020169D01*
X010187Y020011D01*
X010308Y019890D01*
X010466Y019824D01*
X010637Y019824D01*
X010795Y019890D01*
X010916Y020011D01*
X010981Y020169D01*
X010981Y020804D01*
X011121Y020804D01*
X011121Y020169D01*
X011187Y020011D01*
X011308Y019890D01*
X011466Y019824D01*
X011637Y019824D01*
X011795Y019890D01*
X011916Y020011D01*
X011981Y020169D01*
X011981Y020804D01*
X012121Y020804D01*
X012121Y020169D01*
X012187Y020011D01*
X012308Y019890D01*
X012466Y019824D01*
X012637Y019824D01*
X012795Y019890D01*
X012916Y020011D01*
X012981Y020169D01*
X012981Y020804D01*
X013121Y020804D01*
X013121Y020169D01*
X013187Y020011D01*
X013308Y019890D01*
X013466Y019824D01*
X013637Y019824D01*
X013795Y019890D01*
X013916Y020011D01*
X013981Y020169D01*
X013981Y020804D01*
X014121Y020804D01*
X014121Y020169D01*
X014187Y020011D01*
X014308Y019890D01*
X014466Y019824D01*
X014637Y019824D01*
X014795Y019890D01*
X014916Y020011D01*
X014981Y020169D01*
X014981Y020804D01*
X015101Y020804D01*
X015101Y020604D01*
X015501Y020604D01*
X015501Y020504D01*
X015601Y020504D01*
X015601Y019804D01*
X015641Y019804D01*
X015806Y019873D01*
X015933Y019999D01*
X016001Y020165D01*
X016001Y020504D01*
X015601Y020504D01*
X015601Y020604D01*
X016001Y020604D01*
X016001Y020804D01*
X016121Y020804D01*
X016121Y020169D01*
X016187Y020011D01*
X016308Y019890D01*
X016466Y019824D01*
X016637Y019824D01*
X016795Y019890D01*
X016916Y020011D01*
X016981Y020169D01*
X016981Y020804D01*
X017721Y020804D01*
X017721Y020169D01*
X017787Y020011D01*
X017908Y019890D01*
X018066Y019824D01*
X018237Y019824D01*
X018395Y019890D01*
X018516Y020011D01*
X018581Y020169D01*
X018581Y020804D01*
X018721Y020804D01*
X018721Y020169D01*
X018787Y020011D01*
X018908Y019890D01*
X019066Y019824D01*
X019237Y019824D01*
X019395Y019890D01*
X019516Y020011D01*
X019581Y020169D01*
X019581Y020804D01*
X019721Y020804D01*
X019721Y020169D01*
X019787Y020011D01*
X019908Y019890D01*
X020066Y019824D01*
X020237Y019824D01*
X020395Y019890D01*
X020516Y020011D01*
X020581Y020169D01*
X020581Y020804D01*
X020721Y020804D01*
X020721Y020169D01*
X020787Y020011D01*
X020908Y019890D01*
X021066Y019824D01*
X021237Y019824D01*
X021395Y019890D01*
X021516Y020011D01*
X021581Y020169D01*
X021581Y020804D01*
X021721Y020804D01*
X021721Y020169D01*
X021787Y020011D01*
X021908Y019890D01*
X022066Y019824D01*
X022237Y019824D01*
X022395Y019890D01*
X022516Y020011D01*
X022581Y020169D01*
X022581Y020804D01*
X022721Y020804D01*
X022721Y020169D01*
X022787Y020011D01*
X022908Y019890D01*
X023066Y019824D01*
X023237Y019824D01*
X023395Y019890D01*
X023516Y020011D01*
X023581Y020169D01*
X023581Y020804D01*
X023721Y020804D01*
X023721Y020169D01*
X023787Y020011D01*
X023908Y019890D01*
X024066Y019824D01*
X024237Y019824D01*
X024395Y019890D01*
X024516Y020011D01*
X024581Y020169D01*
X024581Y020804D01*
X024721Y020804D01*
X024721Y020169D01*
X024787Y020011D01*
X024908Y019890D01*
X025066Y019824D01*
X025237Y019824D01*
X025395Y019890D01*
X025516Y020011D01*
X025581Y020169D01*
X025581Y020804D01*
X026401Y020804D01*
X026401Y015605D01*
X026293Y015634D01*
X026009Y015634D01*
X025734Y015561D01*
X025488Y015418D01*
X025287Y015217D01*
X025145Y014971D01*
X025071Y014696D01*
X025071Y014412D01*
X025145Y014137D01*
X025287Y013891D01*
X025488Y013690D01*
X025734Y013548D01*
X026009Y013474D01*
X026293Y013474D01*
X026401Y013503D01*
X026401Y004605D01*
X026293Y004634D01*
X026009Y004634D01*
X025734Y004561D01*
X025488Y004418D01*
X025287Y004217D01*
X025145Y003971D01*
X025071Y003696D01*
X025071Y003412D01*
X018345Y003412D01*
X018313Y003444D02*
X017990Y003444D01*
X017761Y003216D01*
X017761Y002893D01*
X017990Y002664D01*
X018313Y002664D01*
X018541Y002893D01*
X018541Y003216D01*
X018313Y003444D01*
X018443Y003314D02*
X025098Y003314D01*
X025071Y003412D02*
X025145Y003137D01*
X025287Y002891D01*
X025488Y002690D01*
X025734Y002548D01*
X026009Y002474D01*
X026293Y002474D01*
X026401Y002503D01*
X026401Y001304D01*
X025581Y001304D01*
X025581Y001940D01*
X025516Y002098D01*
X025395Y002219D01*
X025237Y002284D01*
X025066Y002284D01*
X024908Y002219D01*
X024787Y002098D01*
X024721Y001940D01*
X024721Y001304D01*
X024581Y001304D01*
X024581Y001940D01*
X024516Y002098D01*
X024395Y002219D01*
X024237Y002284D01*
X024066Y002284D01*
X023908Y002219D01*
X023787Y002098D01*
X023721Y001940D01*
X023721Y001304D01*
X023581Y001304D01*
X023581Y001940D01*
X023516Y002098D01*
X023395Y002219D01*
X023237Y002284D01*
X023066Y002284D01*
X022908Y002219D01*
X022787Y002098D01*
X022721Y001940D01*
X022721Y001304D01*
X022581Y001304D01*
X022581Y001940D01*
X022516Y002098D01*
X022395Y002219D01*
X022237Y002284D01*
X022066Y002284D01*
X021908Y002219D01*
X021787Y002098D01*
X021721Y001940D01*
X021721Y001304D01*
X021581Y001304D01*
X021581Y001940D01*
X021516Y002098D01*
X021395Y002219D01*
X021237Y002284D01*
X021066Y002284D01*
X020908Y002219D01*
X020787Y002098D01*
X020721Y001940D01*
X020721Y001304D01*
X020581Y001304D01*
X020581Y001940D01*
X020516Y002098D01*
X020395Y002219D01*
X020237Y002284D01*
X020066Y002284D01*
X019908Y002219D01*
X019787Y002098D01*
X019721Y001940D01*
X019721Y001304D01*
X018581Y001304D01*
X018581Y001940D01*
X018516Y002098D01*
X018395Y002219D01*
X018237Y002284D01*
X018066Y002284D01*
X017908Y002219D01*
X017787Y002098D01*
X017721Y001940D01*
X017721Y001304D01*
X017601Y001304D01*
X017601Y001504D01*
X017201Y001504D01*
X017201Y001604D01*
X017601Y001604D01*
X017601Y001944D01*
X017533Y002109D01*
X017406Y002236D01*
X017241Y002304D01*
X017201Y002304D01*
X017201Y001604D01*
X017101Y001604D01*
X017101Y001504D01*
X016701Y001504D01*
X016701Y001304D01*
X016601Y001304D01*
X016601Y001504D01*
X016201Y001504D01*
X016201Y001604D01*
X016601Y001604D01*
X016601Y001944D01*
X016533Y002109D01*
X016406Y002236D01*
X016241Y002304D01*
X016201Y002304D01*
X016201Y001604D01*
X016101Y001604D01*
X016101Y001504D01*
X015701Y001504D01*
X015701Y001304D01*
X015581Y001304D01*
X015581Y001940D01*
X015516Y002098D01*
X015395Y002219D01*
X015237Y002284D01*
X015066Y002284D01*
X014908Y002219D01*
X014787Y002098D01*
X014721Y001940D01*
X014721Y001304D01*
X014581Y001304D01*
X014581Y001940D01*
X014516Y002098D01*
X014395Y002219D01*
X014237Y002284D01*
X014066Y002284D01*
X013908Y002219D01*
X013787Y002098D01*
X013721Y001940D01*
X013721Y001304D01*
X013581Y001304D01*
X013581Y001940D01*
X013516Y002098D01*
X013395Y002219D01*
X013237Y002284D01*
X013066Y002284D01*
X012908Y002219D01*
X012787Y002098D01*
X012721Y001940D01*
X012721Y001304D01*
X011581Y001304D01*
X011581Y001940D01*
X011516Y002098D01*
X011395Y002219D01*
X011237Y002284D01*
X011066Y002284D01*
X010908Y002219D01*
X010787Y002098D01*
X010721Y001940D01*
X010721Y001304D01*
X010581Y001304D01*
X010581Y001940D01*
X010516Y002098D01*
X010395Y002219D01*
X010237Y002284D01*
X010066Y002284D01*
X009908Y002219D01*
X009787Y002098D01*
X009721Y001940D01*
X009721Y001304D01*
X009581Y001304D01*
X009581Y001940D01*
X009516Y002098D01*
X009395Y002219D01*
X009237Y002284D01*
X009066Y002284D01*
X008908Y002219D01*
X008787Y002098D01*
X008721Y001940D01*
X008721Y001304D01*
X008581Y001304D01*
X008581Y001940D01*
X008516Y002098D01*
X008395Y002219D01*
X008237Y002284D01*
X008066Y002284D01*
X007908Y002219D01*
X007787Y002098D01*
X007721Y001940D01*
X007721Y001304D01*
X007581Y001304D01*
X007581Y001940D01*
X007516Y002098D01*
X007395Y002219D01*
X007237Y002284D01*
X007066Y002284D01*
X006908Y002219D01*
X006787Y002098D01*
X006721Y001940D01*
X006721Y001304D01*
X006581Y001304D01*
X006581Y001940D01*
X006516Y002098D01*
X006395Y002219D01*
X006237Y002284D01*
X006066Y002284D01*
X005908Y002219D01*
X005787Y002098D01*
X005721Y001940D01*
X005721Y001304D01*
X005581Y001304D01*
X005581Y001940D01*
X005516Y002098D01*
X005395Y002219D01*
X005237Y002284D01*
X005066Y002284D01*
X004908Y002219D01*
X004787Y002098D01*
X004721Y001940D01*
X004721Y001304D01*
X004581Y001304D01*
X004581Y001940D01*
X004516Y002098D01*
X004395Y002219D01*
X004237Y002284D01*
X004066Y002284D01*
X003908Y002219D01*
X003787Y002098D01*
X003721Y001940D01*
X003721Y001304D01*
X000901Y001304D01*
X000901Y001343D02*
X003721Y001343D01*
X003721Y001441D02*
X000901Y001441D01*
X000901Y001540D02*
X003721Y001540D01*
X003721Y001638D02*
X000901Y001638D01*
X000901Y001737D02*
X003721Y001737D01*
X003721Y001835D02*
X000901Y001835D01*
X000901Y001934D02*
X003721Y001934D01*
X003760Y002032D02*
X000901Y002032D01*
X000901Y002131D02*
X003820Y002131D01*
X003934Y002230D02*
X000901Y002230D01*
X000901Y002328D02*
X026401Y002328D01*
X026401Y002230D02*
X025369Y002230D01*
X025483Y002131D02*
X026401Y002131D01*
X026401Y002032D02*
X025543Y002032D01*
X025581Y001934D02*
X026401Y001934D01*
X026401Y001835D02*
X025581Y001835D01*
X025581Y001737D02*
X026401Y001737D01*
X026401Y001638D02*
X025581Y001638D01*
X025581Y001540D02*
X026401Y001540D01*
X026401Y001441D02*
X025581Y001441D01*
X025581Y001343D02*
X026401Y001343D01*
X026401Y002427D02*
X000901Y002427D01*
X000901Y002525D02*
X025819Y002525D01*
X025603Y002624D02*
X000901Y002624D01*
X000901Y002722D02*
X014932Y002722D01*
X014990Y002664D02*
X015313Y002664D01*
X015541Y002893D01*
X015541Y003216D01*
X015313Y003444D01*
X014990Y003444D01*
X014761Y003216D01*
X014761Y002893D01*
X014990Y002664D01*
X014833Y002821D02*
X000901Y002821D01*
X000901Y002919D02*
X014761Y002919D01*
X014761Y003018D02*
X000901Y003018D01*
X000901Y003116D02*
X014761Y003116D01*
X014761Y003215D02*
X000901Y003215D01*
X000901Y003314D02*
X014859Y003314D01*
X014957Y003412D02*
X000901Y003412D01*
X000901Y003511D02*
X025071Y003511D01*
X025071Y003609D02*
X000901Y003609D01*
X000901Y003708D02*
X025074Y003708D01*
X025101Y003806D02*
X000901Y003806D01*
X000901Y003905D02*
X025127Y003905D01*
X025163Y004003D02*
X000901Y004003D01*
X000901Y004102D02*
X025220Y004102D01*
X025277Y004200D02*
X000901Y004200D01*
X000901Y004299D02*
X025369Y004299D01*
X025467Y004398D02*
X017824Y004398D01*
X017821Y004394D02*
X018061Y004634D01*
X018061Y004774D01*
X017681Y004774D01*
X017681Y004394D01*
X017821Y004394D01*
X017681Y004398D02*
X017621Y004398D01*
X017621Y004394D02*
X017621Y004774D01*
X017681Y004774D01*
X017681Y004834D01*
X018061Y004834D01*
X018061Y004974D01*
X017821Y005214D01*
X017681Y005214D01*
X017681Y004835D01*
X017621Y004835D01*
X017621Y005214D01*
X017481Y005214D01*
X017241Y004974D01*
X017241Y004834D01*
X017621Y004834D01*
X017621Y004774D01*
X017241Y004774D01*
X017241Y004634D01*
X017481Y004394D01*
X017621Y004394D01*
X017621Y004496D02*
X017681Y004496D01*
X017681Y004595D02*
X017621Y004595D01*
X017621Y004693D02*
X017681Y004693D01*
X017681Y004792D02*
X018261Y004792D01*
X018261Y004890D02*
X018061Y004890D01*
X018046Y004989D02*
X018284Y004989D01*
X018261Y004966D02*
X018261Y004643D01*
X018490Y004414D01*
X018813Y004414D01*
X019041Y004643D01*
X019041Y004966D01*
X018813Y005194D01*
X018490Y005194D01*
X018261Y004966D01*
X018383Y005087D02*
X017948Y005087D01*
X017849Y005186D02*
X018481Y005186D01*
X018821Y005186D02*
X026401Y005186D01*
X026401Y005284D02*
X000901Y005284D01*
X000901Y005186D02*
X014910Y005186D01*
X014899Y005182D02*
X014774Y005056D01*
X014706Y004893D01*
X014706Y004716D01*
X014774Y004552D01*
X014899Y004427D01*
X015063Y004359D01*
X015240Y004359D01*
X015403Y004427D01*
X015528Y004552D01*
X015596Y004716D01*
X015596Y004893D01*
X015528Y005056D01*
X015403Y005182D01*
X015240Y005249D01*
X015063Y005249D01*
X014899Y005182D01*
X014805Y005087D02*
X000901Y005087D01*
X000901Y004989D02*
X014746Y004989D01*
X014706Y004890D02*
X000901Y004890D01*
X000901Y004792D02*
X014706Y004792D01*
X014716Y004693D02*
X000901Y004693D01*
X000901Y004595D02*
X014756Y004595D01*
X014830Y004496D02*
X000901Y004496D01*
X000901Y004398D02*
X014970Y004398D01*
X015332Y004398D02*
X015900Y004398D01*
X015959Y004339D02*
X016121Y004339D01*
X016121Y004774D01*
X016181Y004774D01*
X016181Y004339D01*
X016344Y004339D01*
X016616Y004612D01*
X016616Y004774D01*
X016181Y004774D01*
X016181Y004834D01*
X016616Y004834D01*
X016616Y004997D01*
X016344Y005269D01*
X016181Y005269D01*
X016181Y004835D01*
X016121Y004835D01*
X016121Y005269D01*
X015959Y005269D01*
X015686Y004997D01*
X015686Y004834D01*
X016121Y004834D01*
X016121Y004774D01*
X015686Y004774D01*
X015686Y004612D01*
X015959Y004339D01*
X016121Y004398D02*
X016181Y004398D01*
X016181Y004496D02*
X016121Y004496D01*
X016121Y004595D02*
X016181Y004595D01*
X016181Y004693D02*
X016121Y004693D01*
X016121Y004792D02*
X015596Y004792D01*
X015596Y004890D02*
X015686Y004890D01*
X015686Y004989D02*
X015556Y004989D01*
X015497Y005087D02*
X015777Y005087D01*
X015875Y005186D02*
X015393Y005186D01*
X015587Y004693D02*
X015686Y004693D01*
X015703Y004595D02*
X015546Y004595D01*
X015472Y004496D02*
X015802Y004496D01*
X016181Y004792D02*
X017621Y004792D01*
X017621Y004890D02*
X017681Y004890D01*
X017681Y004989D02*
X017621Y004989D01*
X017621Y005087D02*
X017681Y005087D01*
X017681Y005186D02*
X017621Y005186D01*
X017453Y005186D02*
X016427Y005186D01*
X016526Y005087D02*
X017354Y005087D01*
X017256Y004989D02*
X016616Y004989D01*
X016616Y004890D02*
X017241Y004890D01*
X017241Y004693D02*
X016616Y004693D01*
X016599Y004595D02*
X017281Y004595D01*
X017380Y004496D02*
X016500Y004496D01*
X016402Y004398D02*
X017478Y004398D01*
X017923Y004496D02*
X018408Y004496D01*
X018309Y004595D02*
X018021Y004595D01*
X018061Y004693D02*
X018261Y004693D01*
X018894Y004496D02*
X025623Y004496D01*
X025861Y004595D02*
X018993Y004595D01*
X019041Y004693D02*
X026401Y004693D01*
X026401Y004792D02*
X019041Y004792D01*
X019041Y004890D02*
X026401Y004890D01*
X026401Y004989D02*
X019018Y004989D01*
X018920Y005087D02*
X026401Y005087D01*
X026401Y005383D02*
X000901Y005383D01*
X000901Y005481D02*
X026401Y005481D01*
X026401Y005580D02*
X000901Y005580D01*
X000901Y005679D02*
X026401Y005679D01*
X026401Y005777D02*
X000901Y005777D01*
X000901Y005876D02*
X026401Y005876D01*
X026401Y005974D02*
X000901Y005974D01*
X000901Y006073D02*
X026401Y006073D01*
X026401Y006171D02*
X000901Y006171D01*
X000901Y006270D02*
X026401Y006270D01*
X026401Y006368D02*
X000901Y006368D01*
X000901Y006467D02*
X026401Y006467D01*
X026401Y006565D02*
X000901Y006565D01*
X000901Y006664D02*
X026401Y006664D01*
X026401Y006763D02*
X000901Y006763D01*
X000901Y006861D02*
X026401Y006861D01*
X026401Y006960D02*
X000901Y006960D01*
X000901Y007058D02*
X026401Y007058D01*
X026401Y007157D02*
X000901Y007157D01*
X000901Y007255D02*
X026401Y007255D01*
X026401Y007354D02*
X000901Y007354D01*
X000901Y007452D02*
X026401Y007452D01*
X026401Y007551D02*
X012362Y007551D01*
X012337Y007526D02*
X012429Y007618D01*
X012479Y007739D01*
X012479Y007870D01*
X012429Y007990D01*
X012401Y008018D01*
X012401Y013840D01*
X012429Y013868D01*
X012479Y013989D01*
X012479Y014120D01*
X012429Y014240D01*
X012337Y014332D01*
X012216Y014382D01*
X012086Y014382D01*
X011965Y014332D01*
X011873Y014240D01*
X011823Y014120D01*
X011823Y013989D01*
X011873Y013868D01*
X011901Y013840D01*
X011901Y008018D01*
X011873Y007990D01*
X011823Y007870D01*
X011823Y007739D01*
X011873Y007618D01*
X011965Y007526D01*
X012086Y007476D01*
X012216Y007476D01*
X012337Y007526D01*
X012442Y007649D02*
X026401Y007649D01*
X026401Y007748D02*
X012479Y007748D01*
X012479Y007847D02*
X026401Y007847D01*
X026401Y007945D02*
X012448Y007945D01*
X012401Y008044D02*
X026401Y008044D01*
X026401Y008142D02*
X012401Y008142D01*
X012401Y008241D02*
X026401Y008241D01*
X026401Y008339D02*
X012401Y008339D01*
X012401Y008438D02*
X026401Y008438D01*
X026401Y008536D02*
X012401Y008536D01*
X012401Y008635D02*
X026401Y008635D01*
X026401Y008733D02*
X012401Y008733D01*
X012401Y008832D02*
X026401Y008832D01*
X026401Y008931D02*
X012401Y008931D01*
X012401Y009029D02*
X026401Y009029D01*
X026401Y009128D02*
X012401Y009128D01*
X012401Y009226D02*
X026401Y009226D01*
X026401Y009325D02*
X012401Y009325D01*
X012401Y009423D02*
X026401Y009423D01*
X026401Y009522D02*
X012401Y009522D01*
X012401Y009620D02*
X026401Y009620D01*
X026401Y009719D02*
X012401Y009719D01*
X012401Y009817D02*
X026401Y009817D01*
X026401Y009916D02*
X012401Y009916D01*
X012401Y010014D02*
X026401Y010014D01*
X026401Y010113D02*
X012401Y010113D01*
X012401Y010212D02*
X026401Y010212D01*
X026401Y010310D02*
X012401Y010310D01*
X012401Y010409D02*
X013063Y010409D01*
X013074Y010404D02*
X013229Y010404D01*
X013372Y010464D01*
X013482Y010573D01*
X013541Y010717D01*
X013541Y011392D01*
X013482Y011535D01*
X013372Y011645D01*
X013229Y011704D01*
X013074Y011704D01*
X012930Y011645D01*
X012821Y011535D01*
X012761Y011392D01*
X012761Y010717D01*
X012821Y010573D01*
X012930Y010464D01*
X013074Y010404D01*
X013239Y010409D02*
X014063Y010409D01*
X014074Y010404D02*
X014229Y010404D01*
X014372Y010464D01*
X014482Y010573D01*
X014541Y010717D01*
X014541Y011392D01*
X014482Y011535D01*
X014372Y011645D01*
X014229Y011704D01*
X014074Y011704D01*
X013930Y011645D01*
X013821Y011535D01*
X013761Y011392D01*
X013761Y010717D01*
X013821Y010573D01*
X013930Y010464D01*
X014074Y010404D01*
X014239Y010409D02*
X015063Y010409D01*
X015074Y010404D02*
X015229Y010404D01*
X015372Y010464D01*
X015482Y010573D01*
X015541Y010717D01*
X015541Y011392D01*
X015482Y011535D01*
X015372Y011645D01*
X015229Y011704D01*
X015074Y011704D01*
X014930Y011645D01*
X014821Y011535D01*
X014761Y011392D01*
X014761Y010717D01*
X014821Y010573D01*
X014930Y010464D01*
X015074Y010404D01*
X015239Y010409D02*
X016011Y010409D01*
X016070Y010384D02*
X016121Y010384D01*
X016121Y011024D01*
X016181Y011024D01*
X016181Y010384D01*
X016233Y010384D01*
X016383Y010447D01*
X016499Y010562D01*
X016561Y010713D01*
X016561Y011024D01*
X016181Y011024D01*
X016181Y011084D01*
X016561Y011084D01*
X016561Y011396D01*
X016499Y011547D01*
X016383Y011662D01*
X016233Y011724D01*
X016181Y011724D01*
X016181Y011085D01*
X016121Y011085D01*
X016121Y011724D01*
X016070Y011724D01*
X015919Y011662D01*
X015804Y011547D01*
X015741Y011396D01*
X015741Y011084D01*
X016121Y011084D01*
X016121Y011024D01*
X015741Y011024D01*
X015741Y010713D01*
X015804Y010562D01*
X015919Y010447D01*
X016070Y010384D01*
X016121Y010409D02*
X016181Y010409D01*
X016181Y010507D02*
X016121Y010507D01*
X016121Y010606D02*
X016181Y010606D01*
X016181Y010704D02*
X016121Y010704D01*
X016121Y010803D02*
X016181Y010803D01*
X016181Y010901D02*
X016121Y010901D01*
X016121Y011000D02*
X016181Y011000D01*
X016181Y011098D02*
X016121Y011098D01*
X016121Y011197D02*
X016181Y011197D01*
X016181Y011296D02*
X016121Y011296D01*
X016121Y011394D02*
X016181Y011394D01*
X016181Y011493D02*
X016121Y011493D01*
X016121Y011591D02*
X016181Y011591D01*
X016181Y011690D02*
X016121Y011690D01*
X015986Y011690D02*
X015264Y011690D01*
X015426Y011591D02*
X015848Y011591D01*
X015781Y011493D02*
X015499Y011493D01*
X015540Y011394D02*
X015741Y011394D01*
X015741Y011296D02*
X015541Y011296D01*
X015541Y011197D02*
X015741Y011197D01*
X015741Y011098D02*
X015541Y011098D01*
X015541Y011000D02*
X015741Y011000D01*
X015741Y010901D02*
X015541Y010901D01*
X015541Y010803D02*
X015741Y010803D01*
X015745Y010704D02*
X015536Y010704D01*
X015495Y010606D02*
X015785Y010606D01*
X015858Y010507D02*
X015416Y010507D01*
X014887Y010507D02*
X014416Y010507D01*
X014495Y010606D02*
X014807Y010606D01*
X014766Y010704D02*
X014536Y010704D01*
X014541Y010803D02*
X014761Y010803D01*
X014761Y010901D02*
X014541Y010901D01*
X014541Y011000D02*
X014761Y011000D01*
X014761Y011098D02*
X014541Y011098D01*
X014541Y011197D02*
X014761Y011197D01*
X014761Y011296D02*
X014541Y011296D01*
X014540Y011394D02*
X014762Y011394D01*
X014803Y011493D02*
X014499Y011493D01*
X014426Y011591D02*
X014876Y011591D01*
X015038Y011690D02*
X014264Y011690D01*
X014038Y011690D02*
X013264Y011690D01*
X013426Y011591D02*
X013876Y011591D01*
X013803Y011493D02*
X013499Y011493D01*
X013540Y011394D02*
X013762Y011394D01*
X013761Y011296D02*
X013541Y011296D01*
X013541Y011197D02*
X013761Y011197D01*
X013761Y011098D02*
X013541Y011098D01*
X013541Y011000D02*
X013761Y011000D01*
X013761Y010901D02*
X013541Y010901D01*
X013541Y010803D02*
X013761Y010803D01*
X013766Y010704D02*
X013536Y010704D01*
X013495Y010606D02*
X013807Y010606D01*
X013887Y010507D02*
X013416Y010507D01*
X012887Y010507D02*
X012401Y010507D01*
X012401Y010606D02*
X012807Y010606D01*
X012766Y010704D02*
X012401Y010704D01*
X012401Y010803D02*
X012761Y010803D01*
X012761Y010901D02*
X012401Y010901D01*
X012401Y011000D02*
X012761Y011000D01*
X012761Y011098D02*
X012401Y011098D01*
X012401Y011197D02*
X012761Y011197D01*
X012761Y011296D02*
X012401Y011296D01*
X012401Y011394D02*
X012762Y011394D01*
X012803Y011493D02*
X012401Y011493D01*
X012401Y011591D02*
X012876Y011591D01*
X013038Y011690D02*
X012401Y011690D01*
X012401Y011788D02*
X026401Y011788D01*
X026401Y011690D02*
X020316Y011690D01*
X020383Y011662D02*
X020233Y011724D01*
X020181Y011724D01*
X020181Y011085D01*
X020121Y011085D01*
X020121Y011724D01*
X020070Y011724D01*
X019919Y011662D01*
X019804Y011547D01*
X019741Y011396D01*
X019741Y011084D01*
X020121Y011084D01*
X020121Y011024D01*
X020181Y011024D01*
X020181Y010384D01*
X020233Y010384D01*
X020383Y010447D01*
X020499Y010562D01*
X020561Y010713D01*
X020561Y011024D01*
X020181Y011024D01*
X020181Y011084D01*
X020561Y011084D01*
X020561Y011396D01*
X020499Y011547D01*
X020383Y011662D01*
X020454Y011591D02*
X026401Y011591D01*
X026401Y011493D02*
X020521Y011493D01*
X020561Y011394D02*
X026401Y011394D01*
X026401Y011296D02*
X020561Y011296D01*
X020561Y011197D02*
X026401Y011197D01*
X026401Y011098D02*
X020561Y011098D01*
X020561Y011000D02*
X026401Y011000D01*
X026401Y010901D02*
X020561Y010901D01*
X020561Y010803D02*
X026401Y010803D01*
X026401Y010704D02*
X020558Y010704D01*
X020517Y010606D02*
X026401Y010606D01*
X026401Y010507D02*
X020444Y010507D01*
X020291Y010409D02*
X026401Y010409D01*
X026401Y011887D02*
X012401Y011887D01*
X012401Y011985D02*
X026401Y011985D01*
X026401Y012084D02*
X012401Y012084D01*
X012401Y012182D02*
X026401Y012182D01*
X026401Y012281D02*
X012401Y012281D01*
X012401Y012380D02*
X026401Y012380D01*
X026401Y012478D02*
X012401Y012478D01*
X012401Y012577D02*
X026401Y012577D01*
X026401Y012675D02*
X012401Y012675D01*
X012401Y012774D02*
X026401Y012774D01*
X026401Y012872D02*
X012401Y012872D01*
X012401Y012971D02*
X026401Y012971D01*
X026401Y013069D02*
X012401Y013069D01*
X012401Y013168D02*
X026401Y013168D01*
X026401Y013266D02*
X012401Y013266D01*
X012401Y013365D02*
X026401Y013365D01*
X026401Y013464D02*
X020372Y013464D01*
X020482Y013573D01*
X020541Y013717D01*
X020541Y014392D01*
X020482Y014535D01*
X020372Y014645D01*
X020229Y014704D01*
X020074Y014704D01*
X019930Y014645D01*
X019821Y014535D01*
X019761Y014392D01*
X019761Y013717D01*
X019821Y013573D01*
X019930Y013464D01*
X020074Y013404D01*
X020229Y013404D01*
X020372Y013464D01*
X020470Y013562D02*
X025710Y013562D01*
X025539Y013661D02*
X020518Y013661D01*
X020541Y013759D02*
X025419Y013759D01*
X025321Y013858D02*
X020541Y013858D01*
X020541Y013956D02*
X025249Y013956D01*
X025193Y014055D02*
X020541Y014055D01*
X020541Y014153D02*
X025141Y014153D01*
X025114Y014252D02*
X020541Y014252D01*
X020541Y014350D02*
X025088Y014350D01*
X025071Y014449D02*
X020518Y014449D01*
X020470Y014547D02*
X025071Y014547D01*
X025071Y014646D02*
X020369Y014646D01*
X019933Y014646D02*
X019369Y014646D01*
X019372Y014645D02*
X019229Y014704D01*
X019074Y014704D01*
X018930Y014645D01*
X018821Y014535D01*
X018761Y014392D01*
X018761Y013717D01*
X018821Y013573D01*
X018930Y013464D01*
X019074Y013404D01*
X019229Y013404D01*
X019372Y013464D01*
X019482Y013573D01*
X019541Y013717D01*
X019541Y014392D01*
X019482Y014535D01*
X019372Y014645D01*
X019470Y014547D02*
X019833Y014547D01*
X019785Y014449D02*
X019518Y014449D01*
X019541Y014350D02*
X019761Y014350D01*
X019761Y014252D02*
X019541Y014252D01*
X019541Y014153D02*
X019761Y014153D01*
X019761Y014055D02*
X019541Y014055D01*
X019541Y013956D02*
X019761Y013956D01*
X019761Y013858D02*
X019541Y013858D01*
X019541Y013759D02*
X019761Y013759D01*
X019784Y013661D02*
X019518Y013661D01*
X019470Y013562D02*
X019832Y013562D01*
X019931Y013464D02*
X019372Y013464D01*
X018931Y013464D02*
X018372Y013464D01*
X018482Y013573D01*
X018541Y013717D01*
X018541Y014392D01*
X018482Y014535D01*
X018372Y014645D01*
X018229Y014704D01*
X018074Y014704D01*
X017930Y014645D01*
X017821Y014535D01*
X017761Y014392D01*
X017761Y013717D01*
X017821Y013573D01*
X017930Y013464D01*
X018074Y013404D01*
X018229Y013404D01*
X018372Y013464D01*
X018470Y013562D02*
X018832Y013562D01*
X018784Y013661D02*
X018518Y013661D01*
X018541Y013759D02*
X018761Y013759D01*
X018761Y013858D02*
X018541Y013858D01*
X018541Y013956D02*
X018761Y013956D01*
X018761Y014055D02*
X018541Y014055D01*
X018541Y014153D02*
X018761Y014153D01*
X018761Y014252D02*
X018541Y014252D01*
X018541Y014350D02*
X018761Y014350D01*
X018785Y014449D02*
X018518Y014449D01*
X018470Y014547D02*
X018833Y014547D01*
X018933Y014646D02*
X018369Y014646D01*
X017933Y014646D02*
X017369Y014646D01*
X017372Y014645D02*
X017229Y014704D01*
X017074Y014704D01*
X016930Y014645D01*
X016821Y014535D01*
X016761Y014392D01*
X016761Y013717D01*
X016821Y013573D01*
X016930Y013464D01*
X017074Y013404D01*
X017229Y013404D01*
X017372Y013464D01*
X017482Y013573D01*
X017541Y013717D01*
X017541Y014392D01*
X017482Y014535D01*
X017372Y014645D01*
X017470Y014547D02*
X017833Y014547D01*
X017785Y014449D02*
X017518Y014449D01*
X017541Y014350D02*
X017761Y014350D01*
X017761Y014252D02*
X017541Y014252D01*
X017541Y014153D02*
X017761Y014153D01*
X017761Y014055D02*
X017541Y014055D01*
X017541Y013956D02*
X017761Y013956D01*
X017761Y013858D02*
X017541Y013858D01*
X017541Y013759D02*
X017761Y013759D01*
X017784Y013661D02*
X017518Y013661D01*
X017470Y013562D02*
X017832Y013562D01*
X017931Y013464D02*
X017372Y013464D01*
X016931Y013464D02*
X016372Y013464D01*
X016482Y013573D01*
X016541Y013717D01*
X016541Y014392D01*
X016482Y014535D01*
X016372Y014645D01*
X016229Y014704D01*
X016074Y014704D01*
X015930Y014645D01*
X015821Y014535D01*
X015761Y014392D01*
X015761Y013717D01*
X015821Y013573D01*
X015930Y013464D01*
X016074Y013404D01*
X016229Y013404D01*
X016372Y013464D01*
X016470Y013562D02*
X016832Y013562D01*
X016784Y013661D02*
X016518Y013661D01*
X016541Y013759D02*
X016761Y013759D01*
X016761Y013858D02*
X016541Y013858D01*
X016541Y013956D02*
X016761Y013956D01*
X016761Y014055D02*
X016541Y014055D01*
X016541Y014153D02*
X016761Y014153D01*
X016761Y014252D02*
X016541Y014252D01*
X016541Y014350D02*
X016761Y014350D01*
X016785Y014449D02*
X016518Y014449D01*
X016470Y014547D02*
X016833Y014547D01*
X016933Y014646D02*
X016369Y014646D01*
X015933Y014646D02*
X015369Y014646D01*
X015372Y014645D02*
X015229Y014704D01*
X015074Y014704D01*
X014930Y014645D01*
X014821Y014535D01*
X014761Y014392D01*
X014761Y013717D01*
X014821Y013573D01*
X014930Y013464D01*
X015074Y013404D01*
X015229Y013404D01*
X015372Y013464D01*
X015482Y013573D01*
X015541Y013717D01*
X015541Y014392D01*
X015482Y014535D01*
X015372Y014645D01*
X015470Y014547D02*
X015833Y014547D01*
X015785Y014449D02*
X015518Y014449D01*
X015541Y014350D02*
X015761Y014350D01*
X015761Y014252D02*
X015541Y014252D01*
X015541Y014153D02*
X015761Y014153D01*
X015761Y014055D02*
X015541Y014055D01*
X015541Y013956D02*
X015761Y013956D01*
X015761Y013858D02*
X015541Y013858D01*
X015541Y013759D02*
X015761Y013759D01*
X015784Y013661D02*
X015518Y013661D01*
X015470Y013562D02*
X015832Y013562D01*
X015931Y013464D02*
X015372Y013464D01*
X014931Y013464D02*
X014372Y013464D01*
X014482Y013573D01*
X014541Y013717D01*
X014541Y014392D01*
X014482Y014535D01*
X014372Y014645D01*
X014229Y014704D01*
X014074Y014704D01*
X013930Y014645D01*
X013821Y014535D01*
X013761Y014392D01*
X013761Y013717D01*
X013821Y013573D01*
X013930Y013464D01*
X014074Y013404D01*
X014229Y013404D01*
X014372Y013464D01*
X014470Y013562D02*
X014832Y013562D01*
X014784Y013661D02*
X014518Y013661D01*
X014541Y013759D02*
X014761Y013759D01*
X014761Y013858D02*
X014541Y013858D01*
X014541Y013956D02*
X014761Y013956D01*
X014761Y014055D02*
X014541Y014055D01*
X014541Y014153D02*
X014761Y014153D01*
X014761Y014252D02*
X014541Y014252D01*
X014541Y014350D02*
X014761Y014350D01*
X014785Y014449D02*
X014518Y014449D01*
X014470Y014547D02*
X014833Y014547D01*
X014933Y014646D02*
X014369Y014646D01*
X013933Y014646D02*
X013369Y014646D01*
X013372Y014645D02*
X013229Y014704D01*
X013074Y014704D01*
X012930Y014645D01*
X012821Y014535D01*
X012761Y014392D01*
X012761Y013717D01*
X012821Y013573D01*
X012930Y013464D01*
X013074Y013404D01*
X013229Y013404D01*
X013372Y013464D01*
X013482Y013573D01*
X013541Y013717D01*
X013541Y014392D01*
X013482Y014535D01*
X013372Y014645D01*
X013470Y014547D02*
X013833Y014547D01*
X013785Y014449D02*
X013518Y014449D01*
X013541Y014350D02*
X013761Y014350D01*
X013761Y014252D02*
X013541Y014252D01*
X013541Y014153D02*
X013761Y014153D01*
X013761Y014055D02*
X013541Y014055D01*
X013541Y013956D02*
X013761Y013956D01*
X013761Y013858D02*
X013541Y013858D01*
X013541Y013759D02*
X013761Y013759D01*
X013784Y013661D02*
X013518Y013661D01*
X013470Y013562D02*
X013832Y013562D01*
X013931Y013464D02*
X013372Y013464D01*
X012931Y013464D02*
X012401Y013464D01*
X012401Y013562D02*
X012832Y013562D01*
X012784Y013661D02*
X012401Y013661D01*
X012401Y013759D02*
X012761Y013759D01*
X012761Y013858D02*
X012419Y013858D01*
X012466Y013956D02*
X012761Y013956D01*
X012761Y014055D02*
X012479Y014055D01*
X012465Y014153D02*
X012761Y014153D01*
X012761Y014252D02*
X012418Y014252D01*
X012294Y014350D02*
X012761Y014350D01*
X012785Y014449D02*
X000901Y014449D01*
X000901Y014547D02*
X012833Y014547D01*
X012933Y014646D02*
X000901Y014646D01*
X000901Y014745D02*
X025084Y014745D01*
X025111Y014843D02*
X000901Y014843D01*
X000901Y014942D02*
X025137Y014942D01*
X025185Y015040D02*
X000901Y015040D01*
X000901Y015139D02*
X025242Y015139D01*
X025307Y015237D02*
X000901Y015237D01*
X000901Y015336D02*
X025405Y015336D01*
X025516Y015434D02*
X000901Y015434D01*
X000901Y015533D02*
X025686Y015533D01*
X025999Y015631D02*
X000901Y015631D01*
X000901Y015730D02*
X026401Y015730D01*
X026401Y015829D02*
X000901Y015829D01*
X000901Y015927D02*
X026401Y015927D01*
X026401Y016026D02*
X000901Y016026D01*
X000901Y016124D02*
X026401Y016124D01*
X026401Y016223D02*
X000901Y016223D01*
X000901Y016321D02*
X026401Y016321D01*
X026401Y016420D02*
X000901Y016420D01*
X000901Y016518D02*
X026401Y016518D01*
X026401Y016617D02*
X000901Y016617D01*
X000901Y016715D02*
X026401Y016715D01*
X026401Y016814D02*
X000901Y016814D01*
X000901Y016913D02*
X026401Y016913D01*
X026401Y017011D02*
X000901Y017011D01*
X000901Y017110D02*
X026401Y017110D01*
X026401Y017208D02*
X000901Y017208D01*
X000901Y017307D02*
X026401Y017307D01*
X026401Y017405D02*
X000901Y017405D01*
X000901Y017504D02*
X026401Y017504D01*
X026401Y017602D02*
X000901Y017602D01*
X000901Y014350D02*
X012009Y014350D01*
X011885Y014252D02*
X000901Y014252D01*
X000901Y014153D02*
X011837Y014153D01*
X011823Y014055D02*
X000901Y014055D01*
X000901Y013956D02*
X011837Y013956D01*
X011884Y013858D02*
X000901Y013858D01*
X000901Y013759D02*
X011901Y013759D01*
X011901Y013661D02*
X000901Y013661D01*
X000901Y013562D02*
X011901Y013562D01*
X011901Y013464D02*
X000901Y013464D01*
X000901Y013365D02*
X011901Y013365D01*
X011901Y013266D02*
X000901Y013266D01*
X000901Y013168D02*
X011901Y013168D01*
X011901Y013069D02*
X000901Y013069D01*
X000901Y012971D02*
X011901Y012971D01*
X011901Y012872D02*
X000901Y012872D01*
X000901Y012774D02*
X011901Y012774D01*
X011901Y012675D02*
X000901Y012675D01*
X000901Y012577D02*
X011901Y012577D01*
X011901Y012478D02*
X000901Y012478D01*
X000901Y012380D02*
X011901Y012380D01*
X011901Y012281D02*
X000901Y012281D01*
X000901Y012182D02*
X011901Y012182D01*
X011901Y012084D02*
X000901Y012084D01*
X000901Y011985D02*
X011901Y011985D01*
X011901Y011887D02*
X000901Y011887D01*
X000901Y011788D02*
X011901Y011788D01*
X011901Y011690D02*
X000901Y011690D01*
X000901Y011591D02*
X011901Y011591D01*
X011901Y011493D02*
X000901Y011493D01*
X000901Y011394D02*
X011901Y011394D01*
X011901Y011296D02*
X000901Y011296D01*
X000901Y011197D02*
X011901Y011197D01*
X011901Y011098D02*
X000901Y011098D01*
X000901Y011000D02*
X011901Y011000D01*
X011901Y010901D02*
X000901Y010901D01*
X000901Y010803D02*
X011901Y010803D01*
X011901Y010704D02*
X000901Y010704D01*
X000901Y010606D02*
X011901Y010606D01*
X011901Y010507D02*
X000901Y010507D01*
X000901Y010409D02*
X011901Y010409D01*
X011901Y010310D02*
X000901Y010310D01*
X000901Y010212D02*
X011901Y010212D01*
X011901Y010113D02*
X000901Y010113D01*
X000901Y010014D02*
X011901Y010014D01*
X011901Y009916D02*
X000901Y009916D01*
X000901Y009817D02*
X011901Y009817D01*
X011901Y009719D02*
X000901Y009719D01*
X000901Y009620D02*
X011901Y009620D01*
X011901Y009522D02*
X000901Y009522D01*
X000901Y009423D02*
X011901Y009423D01*
X011901Y009325D02*
X000901Y009325D01*
X000901Y009226D02*
X011901Y009226D01*
X011901Y009128D02*
X000901Y009128D01*
X000901Y009029D02*
X011901Y009029D01*
X011901Y008931D02*
X000901Y008931D01*
X000901Y008832D02*
X011901Y008832D01*
X011901Y008733D02*
X000901Y008733D01*
X000901Y008635D02*
X011901Y008635D01*
X011901Y008536D02*
X000901Y008536D01*
X000901Y008438D02*
X011901Y008438D01*
X011901Y008339D02*
X000901Y008339D01*
X000901Y008241D02*
X011901Y008241D01*
X011901Y008142D02*
X000901Y008142D01*
X000901Y008044D02*
X011901Y008044D01*
X011854Y007945D02*
X000901Y007945D01*
X000901Y007847D02*
X011823Y007847D01*
X011823Y007748D02*
X000901Y007748D01*
X000901Y007649D02*
X011860Y007649D01*
X011941Y007551D02*
X000901Y007551D01*
X004369Y002230D02*
X004934Y002230D01*
X004820Y002131D02*
X004483Y002131D01*
X004543Y002032D02*
X004760Y002032D01*
X004721Y001934D02*
X004581Y001934D01*
X004581Y001835D02*
X004721Y001835D01*
X004721Y001737D02*
X004581Y001737D01*
X004581Y001638D02*
X004721Y001638D01*
X004721Y001540D02*
X004581Y001540D01*
X004581Y001441D02*
X004721Y001441D01*
X004721Y001343D02*
X004581Y001343D01*
X005581Y001343D02*
X005721Y001343D01*
X005721Y001441D02*
X005581Y001441D01*
X005581Y001540D02*
X005721Y001540D01*
X005721Y001638D02*
X005581Y001638D01*
X005581Y001737D02*
X005721Y001737D01*
X005721Y001835D02*
X005581Y001835D01*
X005581Y001934D02*
X005721Y001934D01*
X005760Y002032D02*
X005543Y002032D01*
X005483Y002131D02*
X005820Y002131D01*
X005934Y002230D02*
X005369Y002230D01*
X006369Y002230D02*
X006934Y002230D01*
X006820Y002131D02*
X006483Y002131D01*
X006543Y002032D02*
X006760Y002032D01*
X006721Y001934D02*
X006581Y001934D01*
X006581Y001835D02*
X006721Y001835D01*
X006721Y001737D02*
X006581Y001737D01*
X006581Y001638D02*
X006721Y001638D01*
X006721Y001540D02*
X006581Y001540D01*
X006581Y001441D02*
X006721Y001441D01*
X006721Y001343D02*
X006581Y001343D01*
X007581Y001343D02*
X007721Y001343D01*
X007721Y001441D02*
X007581Y001441D01*
X007581Y001540D02*
X007721Y001540D01*
X007721Y001638D02*
X007581Y001638D01*
X007581Y001737D02*
X007721Y001737D01*
X007721Y001835D02*
X007581Y001835D01*
X007581Y001934D02*
X007721Y001934D01*
X007760Y002032D02*
X007543Y002032D01*
X007483Y002131D02*
X007820Y002131D01*
X007934Y002230D02*
X007369Y002230D01*
X008369Y002230D02*
X008934Y002230D01*
X008820Y002131D02*
X008483Y002131D01*
X008543Y002032D02*
X008760Y002032D01*
X008721Y001934D02*
X008581Y001934D01*
X008581Y001835D02*
X008721Y001835D01*
X008721Y001737D02*
X008581Y001737D01*
X008581Y001638D02*
X008721Y001638D01*
X008721Y001540D02*
X008581Y001540D01*
X008581Y001441D02*
X008721Y001441D01*
X008721Y001343D02*
X008581Y001343D01*
X009543Y002032D02*
X009760Y002032D01*
X009721Y001934D02*
X009581Y001934D01*
X009581Y001835D02*
X009721Y001835D01*
X009721Y001737D02*
X009581Y001737D01*
X009581Y001638D02*
X009721Y001638D01*
X009721Y001540D02*
X009581Y001540D01*
X009581Y001441D02*
X009721Y001441D01*
X009721Y001343D02*
X009581Y001343D01*
X009483Y002131D02*
X009820Y002131D01*
X009934Y002230D02*
X009369Y002230D01*
X010369Y002230D02*
X010934Y002230D01*
X010820Y002131D02*
X010483Y002131D01*
X010543Y002032D02*
X010760Y002032D01*
X010721Y001934D02*
X010581Y001934D01*
X010581Y001835D02*
X010721Y001835D01*
X010721Y001737D02*
X010581Y001737D01*
X010581Y001638D02*
X010721Y001638D01*
X010721Y001540D02*
X010581Y001540D01*
X010581Y001441D02*
X010721Y001441D01*
X010721Y001343D02*
X010581Y001343D01*
X011581Y001343D02*
X012721Y001343D01*
X012721Y001441D02*
X011581Y001441D01*
X011581Y001540D02*
X012721Y001540D01*
X012721Y001638D02*
X011581Y001638D01*
X011581Y001737D02*
X012721Y001737D01*
X012721Y001835D02*
X011581Y001835D01*
X011581Y001934D02*
X012721Y001934D01*
X012760Y002032D02*
X011543Y002032D01*
X011483Y002131D02*
X012820Y002131D01*
X012934Y002230D02*
X011369Y002230D01*
X013369Y002230D02*
X013934Y002230D01*
X013820Y002131D02*
X013483Y002131D01*
X013543Y002032D02*
X013760Y002032D01*
X013721Y001934D02*
X013581Y001934D01*
X013581Y001835D02*
X013721Y001835D01*
X013721Y001737D02*
X013581Y001737D01*
X013581Y001638D02*
X013721Y001638D01*
X013721Y001540D02*
X013581Y001540D01*
X013581Y001441D02*
X013721Y001441D01*
X013721Y001343D02*
X013581Y001343D01*
X014581Y001343D02*
X014721Y001343D01*
X014721Y001441D02*
X014581Y001441D01*
X014581Y001540D02*
X014721Y001540D01*
X014721Y001638D02*
X014581Y001638D01*
X014581Y001737D02*
X014721Y001737D01*
X014721Y001835D02*
X014581Y001835D01*
X014581Y001934D02*
X014721Y001934D01*
X014760Y002032D02*
X014543Y002032D01*
X014483Y002131D02*
X014820Y002131D01*
X014934Y002230D02*
X014369Y002230D01*
X015369Y002230D02*
X015890Y002230D01*
X015896Y002236D02*
X015770Y002109D01*
X015701Y001944D01*
X015701Y001604D01*
X016101Y001604D01*
X016101Y002304D01*
X016062Y002304D01*
X015896Y002236D01*
X015791Y002131D02*
X015483Y002131D01*
X015543Y002032D02*
X015738Y002032D01*
X015701Y001934D02*
X015581Y001934D01*
X015581Y001835D02*
X015701Y001835D01*
X015701Y001737D02*
X015581Y001737D01*
X015581Y001638D02*
X015701Y001638D01*
X015581Y001540D02*
X016101Y001540D01*
X016101Y001638D02*
X016201Y001638D01*
X016201Y001540D02*
X017101Y001540D01*
X017101Y001604D02*
X016701Y001604D01*
X016701Y001944D01*
X016770Y002109D01*
X016896Y002236D01*
X017062Y002304D01*
X017101Y002304D01*
X017101Y001604D01*
X017101Y001638D02*
X017201Y001638D01*
X017201Y001540D02*
X017721Y001540D01*
X017721Y001638D02*
X017601Y001638D01*
X017601Y001737D02*
X017721Y001737D01*
X017721Y001835D02*
X017601Y001835D01*
X017601Y001934D02*
X017721Y001934D01*
X017760Y002032D02*
X017564Y002032D01*
X017511Y002131D02*
X017820Y002131D01*
X017934Y002230D02*
X017412Y002230D01*
X017201Y002230D02*
X017101Y002230D01*
X017101Y002131D02*
X017201Y002131D01*
X017201Y002032D02*
X017101Y002032D01*
X017101Y001934D02*
X017201Y001934D01*
X017201Y001835D02*
X017101Y001835D01*
X017101Y001737D02*
X017201Y001737D01*
X017601Y001441D02*
X017721Y001441D01*
X017721Y001343D02*
X017601Y001343D01*
X016701Y001343D02*
X016601Y001343D01*
X016601Y001441D02*
X016701Y001441D01*
X016701Y001638D02*
X016601Y001638D01*
X016601Y001737D02*
X016701Y001737D01*
X016701Y001835D02*
X016601Y001835D01*
X016601Y001934D02*
X016701Y001934D01*
X016738Y002032D02*
X016564Y002032D01*
X016511Y002131D02*
X016791Y002131D01*
X016890Y002230D02*
X016412Y002230D01*
X016201Y002230D02*
X016101Y002230D01*
X016101Y002131D02*
X016201Y002131D01*
X016201Y002032D02*
X016101Y002032D01*
X016101Y001934D02*
X016201Y001934D01*
X016201Y001835D02*
X016101Y001835D01*
X016101Y001737D02*
X016201Y001737D01*
X015701Y001441D02*
X015581Y001441D01*
X015581Y001343D02*
X015701Y001343D01*
X015371Y002722D02*
X017932Y002722D01*
X017833Y002821D02*
X015469Y002821D01*
X015541Y002919D02*
X017761Y002919D01*
X017761Y003018D02*
X015541Y003018D01*
X015541Y003116D02*
X017761Y003116D01*
X017761Y003215D02*
X015541Y003215D01*
X015443Y003314D02*
X017859Y003314D01*
X017957Y003412D02*
X015345Y003412D01*
X016121Y004890D02*
X016181Y004890D01*
X016181Y004989D02*
X016121Y004989D01*
X016121Y005087D02*
X016181Y005087D01*
X016181Y005186D02*
X016121Y005186D01*
X018541Y003215D02*
X025124Y003215D01*
X025157Y003116D02*
X018541Y003116D01*
X018541Y003018D02*
X025214Y003018D01*
X025271Y002919D02*
X018541Y002919D01*
X018469Y002821D02*
X025357Y002821D01*
X025456Y002722D02*
X018371Y002722D01*
X018369Y002230D02*
X019934Y002230D01*
X019820Y002131D02*
X018483Y002131D01*
X018543Y002032D02*
X019760Y002032D01*
X019721Y001934D02*
X018581Y001934D01*
X018581Y001835D02*
X019721Y001835D01*
X019721Y001737D02*
X018581Y001737D01*
X018581Y001638D02*
X019721Y001638D01*
X019721Y001540D02*
X018581Y001540D01*
X018581Y001441D02*
X019721Y001441D01*
X019721Y001343D02*
X018581Y001343D01*
X020369Y002230D02*
X020934Y002230D01*
X020820Y002131D02*
X020483Y002131D01*
X020543Y002032D02*
X020760Y002032D01*
X020721Y001934D02*
X020581Y001934D01*
X020581Y001835D02*
X020721Y001835D01*
X020721Y001737D02*
X020581Y001737D01*
X020581Y001638D02*
X020721Y001638D01*
X020721Y001540D02*
X020581Y001540D01*
X020581Y001441D02*
X020721Y001441D01*
X020721Y001343D02*
X020581Y001343D01*
X021543Y002032D02*
X021760Y002032D01*
X021721Y001934D02*
X021581Y001934D01*
X021581Y001835D02*
X021721Y001835D01*
X021721Y001737D02*
X021581Y001737D01*
X021581Y001638D02*
X021721Y001638D01*
X021721Y001540D02*
X021581Y001540D01*
X021581Y001441D02*
X021721Y001441D01*
X021721Y001343D02*
X021581Y001343D01*
X021483Y002131D02*
X021820Y002131D01*
X021934Y002230D02*
X021369Y002230D01*
X022369Y002230D02*
X022934Y002230D01*
X022820Y002131D02*
X022483Y002131D01*
X022543Y002032D02*
X022760Y002032D01*
X022721Y001934D02*
X022581Y001934D01*
X022581Y001835D02*
X022721Y001835D01*
X022721Y001737D02*
X022581Y001737D01*
X022581Y001638D02*
X022721Y001638D01*
X022721Y001540D02*
X022581Y001540D01*
X022581Y001441D02*
X022721Y001441D01*
X022721Y001343D02*
X022581Y001343D01*
X023581Y001343D02*
X023721Y001343D01*
X023721Y001441D02*
X023581Y001441D01*
X023581Y001540D02*
X023721Y001540D01*
X023721Y001638D02*
X023581Y001638D01*
X023581Y001737D02*
X023721Y001737D01*
X023721Y001835D02*
X023581Y001835D01*
X023581Y001934D02*
X023721Y001934D01*
X023760Y002032D02*
X023543Y002032D01*
X023483Y002131D02*
X023820Y002131D01*
X023934Y002230D02*
X023369Y002230D01*
X024369Y002230D02*
X024934Y002230D01*
X024820Y002131D02*
X024483Y002131D01*
X024543Y002032D02*
X024760Y002032D01*
X024721Y001934D02*
X024581Y001934D01*
X024581Y001835D02*
X024721Y001835D01*
X024721Y001737D02*
X024581Y001737D01*
X024581Y001638D02*
X024721Y001638D01*
X024721Y001540D02*
X024581Y001540D01*
X024581Y001441D02*
X024721Y001441D01*
X024721Y001343D02*
X024581Y001343D01*
X020181Y010409D02*
X020121Y010409D01*
X020121Y010384D02*
X020121Y011024D01*
X019741Y011024D01*
X019741Y010713D01*
X019804Y010562D01*
X019919Y010447D01*
X020070Y010384D01*
X020121Y010384D01*
X020011Y010409D02*
X019239Y010409D01*
X019229Y010404D02*
X019372Y010464D01*
X019482Y010573D01*
X019541Y010717D01*
X019541Y011392D01*
X019482Y011535D01*
X019372Y011645D01*
X019229Y011704D01*
X019074Y011704D01*
X018930Y011645D01*
X018821Y011535D01*
X018761Y011392D01*
X018761Y010717D01*
X018821Y010573D01*
X018930Y010464D01*
X019074Y010404D01*
X019229Y010404D01*
X019063Y010409D02*
X018239Y010409D01*
X018229Y010404D02*
X018372Y010464D01*
X018482Y010573D01*
X018541Y010717D01*
X018541Y011392D01*
X018482Y011535D01*
X018372Y011645D01*
X018229Y011704D01*
X018074Y011704D01*
X017930Y011645D01*
X017821Y011535D01*
X017761Y011392D01*
X017761Y010717D01*
X017821Y010573D01*
X017930Y010464D01*
X018074Y010404D01*
X018229Y010404D01*
X018063Y010409D02*
X017291Y010409D01*
X017233Y010384D02*
X017383Y010447D01*
X017499Y010562D01*
X017561Y010713D01*
X017561Y011024D01*
X017181Y011024D01*
X017181Y010384D01*
X017233Y010384D01*
X017181Y010409D02*
X017121Y010409D01*
X017121Y010384D02*
X017121Y011024D01*
X017181Y011024D01*
X017181Y011084D01*
X017561Y011084D01*
X017561Y011396D01*
X017499Y011547D01*
X017383Y011662D01*
X017233Y011724D01*
X017181Y011724D01*
X017181Y011085D01*
X017121Y011085D01*
X017121Y011724D01*
X017070Y011724D01*
X016919Y011662D01*
X016804Y011547D01*
X016741Y011396D01*
X016741Y011084D01*
X017121Y011084D01*
X017121Y011024D01*
X016741Y011024D01*
X016741Y010713D01*
X016804Y010562D01*
X016919Y010447D01*
X017070Y010384D01*
X017121Y010384D01*
X017011Y010409D02*
X016291Y010409D01*
X016444Y010507D02*
X016858Y010507D01*
X016785Y010606D02*
X016517Y010606D01*
X016558Y010704D02*
X016745Y010704D01*
X016741Y010803D02*
X016561Y010803D01*
X016561Y010901D02*
X016741Y010901D01*
X016741Y011000D02*
X016561Y011000D01*
X016561Y011098D02*
X016741Y011098D01*
X016741Y011197D02*
X016561Y011197D01*
X016561Y011296D02*
X016741Y011296D01*
X016741Y011394D02*
X016561Y011394D01*
X016521Y011493D02*
X016781Y011493D01*
X016848Y011591D02*
X016454Y011591D01*
X016316Y011690D02*
X016986Y011690D01*
X017121Y011690D02*
X017181Y011690D01*
X017181Y011591D02*
X017121Y011591D01*
X017121Y011493D02*
X017181Y011493D01*
X017181Y011394D02*
X017121Y011394D01*
X017121Y011296D02*
X017181Y011296D01*
X017181Y011197D02*
X017121Y011197D01*
X017121Y011098D02*
X017181Y011098D01*
X017181Y011000D02*
X017121Y011000D01*
X017121Y010901D02*
X017181Y010901D01*
X017181Y010803D02*
X017121Y010803D01*
X017121Y010704D02*
X017181Y010704D01*
X017181Y010606D02*
X017121Y010606D01*
X017121Y010507D02*
X017181Y010507D01*
X017444Y010507D02*
X017887Y010507D01*
X017807Y010606D02*
X017517Y010606D01*
X017558Y010704D02*
X017766Y010704D01*
X017761Y010803D02*
X017561Y010803D01*
X017561Y010901D02*
X017761Y010901D01*
X017761Y011000D02*
X017561Y011000D01*
X017561Y011098D02*
X017761Y011098D01*
X017761Y011197D02*
X017561Y011197D01*
X017561Y011296D02*
X017761Y011296D01*
X017762Y011394D02*
X017561Y011394D01*
X017521Y011493D02*
X017803Y011493D01*
X017876Y011591D02*
X017454Y011591D01*
X017316Y011690D02*
X018038Y011690D01*
X018264Y011690D02*
X019038Y011690D01*
X018876Y011591D02*
X018426Y011591D01*
X018499Y011493D02*
X018803Y011493D01*
X018762Y011394D02*
X018540Y011394D01*
X018541Y011296D02*
X018761Y011296D01*
X018761Y011197D02*
X018541Y011197D01*
X018541Y011098D02*
X018761Y011098D01*
X018761Y011000D02*
X018541Y011000D01*
X018541Y010901D02*
X018761Y010901D01*
X018761Y010803D02*
X018541Y010803D01*
X018536Y010704D02*
X018766Y010704D01*
X018807Y010606D02*
X018495Y010606D01*
X018416Y010507D02*
X018887Y010507D01*
X019416Y010507D02*
X019858Y010507D01*
X019785Y010606D02*
X019495Y010606D01*
X019536Y010704D02*
X019745Y010704D01*
X019741Y010803D02*
X019541Y010803D01*
X019541Y010901D02*
X019741Y010901D01*
X019741Y011000D02*
X019541Y011000D01*
X019541Y011098D02*
X019741Y011098D01*
X019741Y011197D02*
X019541Y011197D01*
X019541Y011296D02*
X019741Y011296D01*
X019741Y011394D02*
X019540Y011394D01*
X019499Y011493D02*
X019781Y011493D01*
X019848Y011591D02*
X019426Y011591D01*
X019264Y011690D02*
X019986Y011690D01*
X020121Y011690D02*
X020181Y011690D01*
X020181Y011591D02*
X020121Y011591D01*
X020121Y011493D02*
X020181Y011493D01*
X020181Y011394D02*
X020121Y011394D01*
X020121Y011296D02*
X020181Y011296D01*
X020181Y011197D02*
X020121Y011197D01*
X020121Y011098D02*
X020181Y011098D01*
X020181Y011000D02*
X020121Y011000D01*
X020121Y010901D02*
X020181Y010901D01*
X020181Y010803D02*
X020121Y010803D01*
X020121Y010704D02*
X020181Y010704D01*
X020181Y010606D02*
X020121Y010606D01*
X020121Y010507D02*
X020181Y010507D01*
X026304Y015631D02*
X026401Y015631D01*
X026401Y017701D02*
X007576Y017701D01*
X007576Y017799D02*
X026401Y017799D01*
X026401Y017898D02*
X007576Y017898D01*
X007576Y017996D02*
X026401Y017996D01*
X026401Y018095D02*
X007576Y018095D01*
X007576Y018194D02*
X026401Y018194D01*
X026401Y018292D02*
X007576Y018292D01*
X007576Y018391D02*
X026401Y018391D01*
X026401Y018489D02*
X007576Y018489D01*
X007576Y018588D02*
X026401Y018588D01*
X026401Y018686D02*
X007576Y018686D01*
X007576Y018785D02*
X026401Y018785D01*
X026401Y018883D02*
X007576Y018883D01*
X007576Y018982D02*
X026401Y018982D01*
X026401Y019080D02*
X007576Y019080D01*
X007576Y019179D02*
X026401Y019179D01*
X026401Y019278D02*
X007576Y019278D01*
X007576Y019376D02*
X026401Y019376D01*
X026401Y019475D02*
X007576Y019475D01*
X007576Y019573D02*
X026401Y019573D01*
X026401Y019672D02*
X006782Y019672D01*
X006894Y019770D02*
X026401Y019770D01*
X026401Y019869D02*
X025344Y019869D01*
X025472Y019967D02*
X026401Y019967D01*
X026401Y020066D02*
X025539Y020066D01*
X025579Y020164D02*
X026401Y020164D01*
X026401Y020263D02*
X025581Y020263D01*
X025581Y020362D02*
X026401Y020362D01*
X026401Y020460D02*
X025581Y020460D01*
X025581Y020559D02*
X026401Y020559D01*
X026401Y020657D02*
X025581Y020657D01*
X025581Y020756D02*
X026401Y020756D01*
X024958Y019869D02*
X024344Y019869D01*
X024472Y019967D02*
X024830Y019967D01*
X024764Y020066D02*
X024539Y020066D01*
X024579Y020164D02*
X024723Y020164D01*
X024721Y020263D02*
X024581Y020263D01*
X024581Y020362D02*
X024721Y020362D01*
X024721Y020460D02*
X024581Y020460D01*
X024581Y020559D02*
X024721Y020559D01*
X024721Y020657D02*
X024581Y020657D01*
X024581Y020756D02*
X024721Y020756D01*
X023721Y020756D02*
X023581Y020756D01*
X023581Y020657D02*
X023721Y020657D01*
X023721Y020559D02*
X023581Y020559D01*
X023581Y020460D02*
X023721Y020460D01*
X023721Y020362D02*
X023581Y020362D01*
X023581Y020263D02*
X023721Y020263D01*
X023723Y020164D02*
X023579Y020164D01*
X023539Y020066D02*
X023764Y020066D01*
X023830Y019967D02*
X023472Y019967D01*
X023344Y019869D02*
X023958Y019869D01*
X022958Y019869D02*
X022344Y019869D01*
X022472Y019967D02*
X022830Y019967D01*
X022764Y020066D02*
X022539Y020066D01*
X022579Y020164D02*
X022723Y020164D01*
X022721Y020263D02*
X022581Y020263D01*
X022581Y020362D02*
X022721Y020362D01*
X022721Y020460D02*
X022581Y020460D01*
X022581Y020559D02*
X022721Y020559D01*
X022721Y020657D02*
X022581Y020657D01*
X022581Y020756D02*
X022721Y020756D01*
X021721Y020756D02*
X021581Y020756D01*
X021581Y020657D02*
X021721Y020657D01*
X021721Y020559D02*
X021581Y020559D01*
X021581Y020460D02*
X021721Y020460D01*
X021721Y020362D02*
X021581Y020362D01*
X021581Y020263D02*
X021721Y020263D01*
X021723Y020164D02*
X021579Y020164D01*
X021539Y020066D02*
X021764Y020066D01*
X021830Y019967D02*
X021472Y019967D01*
X021344Y019869D02*
X021958Y019869D01*
X020958Y019869D02*
X020344Y019869D01*
X020472Y019967D02*
X020830Y019967D01*
X020764Y020066D02*
X020539Y020066D01*
X020579Y020164D02*
X020723Y020164D01*
X020721Y020263D02*
X020581Y020263D01*
X020581Y020362D02*
X020721Y020362D01*
X020721Y020460D02*
X020581Y020460D01*
X020581Y020559D02*
X020721Y020559D01*
X020721Y020657D02*
X020581Y020657D01*
X020581Y020756D02*
X020721Y020756D01*
X019721Y020756D02*
X019581Y020756D01*
X019581Y020657D02*
X019721Y020657D01*
X019721Y020559D02*
X019581Y020559D01*
X019581Y020460D02*
X019721Y020460D01*
X019721Y020362D02*
X019581Y020362D01*
X019581Y020263D02*
X019721Y020263D01*
X019723Y020164D02*
X019579Y020164D01*
X019539Y020066D02*
X019764Y020066D01*
X019830Y019967D02*
X019472Y019967D01*
X019344Y019869D02*
X019958Y019869D01*
X018958Y019869D02*
X018344Y019869D01*
X018472Y019967D02*
X018830Y019967D01*
X018764Y020066D02*
X018539Y020066D01*
X018579Y020164D02*
X018723Y020164D01*
X018721Y020263D02*
X018581Y020263D01*
X018581Y020362D02*
X018721Y020362D01*
X018721Y020460D02*
X018581Y020460D01*
X018581Y020559D02*
X018721Y020559D01*
X018721Y020657D02*
X018581Y020657D01*
X018581Y020756D02*
X018721Y020756D01*
X017721Y020756D02*
X016981Y020756D01*
X016981Y020657D02*
X017721Y020657D01*
X017721Y020559D02*
X016981Y020559D01*
X016981Y020460D02*
X017721Y020460D01*
X017721Y020362D02*
X016981Y020362D01*
X016981Y020263D02*
X017721Y020263D01*
X017723Y020164D02*
X016979Y020164D01*
X016939Y020066D02*
X017764Y020066D01*
X017830Y019967D02*
X016872Y019967D01*
X016744Y019869D02*
X017958Y019869D01*
X016358Y019869D02*
X015796Y019869D01*
X015901Y019967D02*
X016230Y019967D01*
X016164Y020066D02*
X015960Y020066D01*
X016001Y020164D02*
X016123Y020164D01*
X016121Y020263D02*
X016001Y020263D01*
X016001Y020362D02*
X016121Y020362D01*
X016121Y020460D02*
X016001Y020460D01*
X016121Y020559D02*
X015601Y020559D01*
X015601Y020460D02*
X015501Y020460D01*
X015501Y020504D02*
X015501Y019804D01*
X015462Y019804D01*
X015296Y019873D01*
X015170Y019999D01*
X015101Y020165D01*
X015101Y020504D01*
X015501Y020504D01*
X015501Y020559D02*
X014981Y020559D01*
X014981Y020657D02*
X015101Y020657D01*
X015101Y020756D02*
X014981Y020756D01*
X014981Y020460D02*
X015101Y020460D01*
X015101Y020362D02*
X014981Y020362D01*
X014981Y020263D02*
X015101Y020263D01*
X015101Y020164D02*
X014979Y020164D01*
X014939Y020066D02*
X015142Y020066D01*
X015202Y019967D02*
X014872Y019967D01*
X014744Y019869D02*
X015306Y019869D01*
X015501Y019869D02*
X015601Y019869D01*
X015601Y019967D02*
X015501Y019967D01*
X015501Y020066D02*
X015601Y020066D01*
X015601Y020164D02*
X015501Y020164D01*
X015501Y020263D02*
X015601Y020263D01*
X015601Y020362D02*
X015501Y020362D01*
X016001Y020657D02*
X016121Y020657D01*
X016121Y020756D02*
X016001Y020756D01*
X014358Y019869D02*
X013744Y019869D01*
X013872Y019967D02*
X014230Y019967D01*
X014164Y020066D02*
X013939Y020066D01*
X013979Y020164D02*
X014123Y020164D01*
X014121Y020263D02*
X013981Y020263D01*
X013981Y020362D02*
X014121Y020362D01*
X014121Y020460D02*
X013981Y020460D01*
X013981Y020559D02*
X014121Y020559D01*
X014121Y020657D02*
X013981Y020657D01*
X013981Y020756D02*
X014121Y020756D01*
X013121Y020756D02*
X012981Y020756D01*
X012981Y020657D02*
X013121Y020657D01*
X013121Y020559D02*
X012981Y020559D01*
X012981Y020460D02*
X013121Y020460D01*
X013121Y020362D02*
X012981Y020362D01*
X012981Y020263D02*
X013121Y020263D01*
X013123Y020164D02*
X012979Y020164D01*
X012939Y020066D02*
X013164Y020066D01*
X013230Y019967D02*
X012872Y019967D01*
X012744Y019869D02*
X013358Y019869D01*
X012358Y019869D02*
X011744Y019869D01*
X011872Y019967D02*
X012230Y019967D01*
X012164Y020066D02*
X011939Y020066D01*
X011979Y020164D02*
X012123Y020164D01*
X012121Y020263D02*
X011981Y020263D01*
X011981Y020362D02*
X012121Y020362D01*
X012121Y020460D02*
X011981Y020460D01*
X011981Y020559D02*
X012121Y020559D01*
X012121Y020657D02*
X011981Y020657D01*
X011981Y020756D02*
X012121Y020756D01*
X011121Y020756D02*
X010981Y020756D01*
X010981Y020657D02*
X011121Y020657D01*
X011121Y020559D02*
X010981Y020559D01*
X010981Y020460D02*
X011121Y020460D01*
X011121Y020362D02*
X010981Y020362D01*
X010981Y020263D02*
X011121Y020263D01*
X011123Y020164D02*
X010979Y020164D01*
X010939Y020066D02*
X011164Y020066D01*
X011230Y019967D02*
X010872Y019967D01*
X010744Y019869D02*
X011358Y019869D01*
X010358Y019869D02*
X009744Y019869D01*
X009872Y019967D02*
X010230Y019967D01*
X010164Y020066D02*
X009939Y020066D01*
X009979Y020164D02*
X010123Y020164D01*
X010121Y020263D02*
X009981Y020263D01*
X009981Y020362D02*
X010121Y020362D01*
X010121Y020460D02*
X009981Y020460D01*
X009981Y020559D02*
X010121Y020559D01*
X010121Y020657D02*
X009981Y020657D01*
X009981Y020756D02*
X010121Y020756D01*
X009121Y020756D02*
X007215Y020756D01*
X007231Y020657D02*
X009121Y020657D01*
X009121Y020559D02*
X007231Y020559D01*
X007231Y020460D02*
X009121Y020460D01*
X009121Y020362D02*
X007217Y020362D01*
X007191Y020263D02*
X009121Y020263D01*
X009123Y020164D02*
X007165Y020164D01*
X007116Y020066D02*
X009164Y020066D01*
X009230Y019967D02*
X007059Y019967D01*
X006993Y019869D02*
X009358Y019869D01*
D11*
X005521Y020554D02*
X005523Y020604D01*
X005529Y020654D01*
X005539Y020703D01*
X005553Y020751D01*
X005570Y020798D01*
X005591Y020843D01*
X005616Y020887D01*
X005644Y020928D01*
X005676Y020967D01*
X005710Y021004D01*
X005747Y021038D01*
X005787Y021068D01*
X005829Y021095D01*
X005873Y021119D01*
X005919Y021140D01*
X005966Y021156D01*
X006014Y021169D01*
X006064Y021178D01*
X006113Y021183D01*
X006164Y021184D01*
X006214Y021181D01*
X006263Y021174D01*
X006312Y021163D01*
X006360Y021148D01*
X006406Y021130D01*
X006451Y021108D01*
X006494Y021082D01*
X006535Y021053D01*
X006574Y021021D01*
X006610Y020986D01*
X006642Y020948D01*
X006672Y020908D01*
X006699Y020865D01*
X006722Y020821D01*
X006741Y020775D01*
X006757Y020727D01*
X006769Y020678D01*
X006777Y020629D01*
X006781Y020579D01*
X006781Y020529D01*
X006777Y020479D01*
X006769Y020430D01*
X006757Y020381D01*
X006741Y020333D01*
X006722Y020287D01*
X006699Y020243D01*
X006672Y020200D01*
X006642Y020160D01*
X006610Y020122D01*
X006574Y020087D01*
X006535Y020055D01*
X006494Y020026D01*
X006451Y020000D01*
X006406Y019978D01*
X006360Y019960D01*
X006312Y019945D01*
X006263Y019934D01*
X006214Y019927D01*
X006164Y019924D01*
X006113Y019925D01*
X006064Y019930D01*
X006014Y019939D01*
X005966Y019952D01*
X005919Y019968D01*
X005873Y019989D01*
X005829Y020013D01*
X005787Y020040D01*
X005747Y020070D01*
X005710Y020104D01*
X005676Y020141D01*
X005644Y020180D01*
X005616Y020221D01*
X005591Y020265D01*
X005570Y020310D01*
X005553Y020357D01*
X005539Y020405D01*
X005529Y020454D01*
X005523Y020504D01*
X005521Y020554D01*
X025521Y014554D02*
X025523Y014604D01*
X025529Y014654D01*
X025539Y014703D01*
X025553Y014751D01*
X025570Y014798D01*
X025591Y014843D01*
X025616Y014887D01*
X025644Y014928D01*
X025676Y014967D01*
X025710Y015004D01*
X025747Y015038D01*
X025787Y015068D01*
X025829Y015095D01*
X025873Y015119D01*
X025919Y015140D01*
X025966Y015156D01*
X026014Y015169D01*
X026064Y015178D01*
X026113Y015183D01*
X026164Y015184D01*
X026214Y015181D01*
X026263Y015174D01*
X026312Y015163D01*
X026360Y015148D01*
X026406Y015130D01*
X026451Y015108D01*
X026494Y015082D01*
X026535Y015053D01*
X026574Y015021D01*
X026610Y014986D01*
X026642Y014948D01*
X026672Y014908D01*
X026699Y014865D01*
X026722Y014821D01*
X026741Y014775D01*
X026757Y014727D01*
X026769Y014678D01*
X026777Y014629D01*
X026781Y014579D01*
X026781Y014529D01*
X026777Y014479D01*
X026769Y014430D01*
X026757Y014381D01*
X026741Y014333D01*
X026722Y014287D01*
X026699Y014243D01*
X026672Y014200D01*
X026642Y014160D01*
X026610Y014122D01*
X026574Y014087D01*
X026535Y014055D01*
X026494Y014026D01*
X026451Y014000D01*
X026406Y013978D01*
X026360Y013960D01*
X026312Y013945D01*
X026263Y013934D01*
X026214Y013927D01*
X026164Y013924D01*
X026113Y013925D01*
X026064Y013930D01*
X026014Y013939D01*
X025966Y013952D01*
X025919Y013968D01*
X025873Y013989D01*
X025829Y014013D01*
X025787Y014040D01*
X025747Y014070D01*
X025710Y014104D01*
X025676Y014141D01*
X025644Y014180D01*
X025616Y014221D01*
X025591Y014265D01*
X025570Y014310D01*
X025553Y014357D01*
X025539Y014405D01*
X025529Y014454D01*
X025523Y014504D01*
X025521Y014554D01*
X025521Y003554D02*
X025523Y003604D01*
X025529Y003654D01*
X025539Y003703D01*
X025553Y003751D01*
X025570Y003798D01*
X025591Y003843D01*
X025616Y003887D01*
X025644Y003928D01*
X025676Y003967D01*
X025710Y004004D01*
X025747Y004038D01*
X025787Y004068D01*
X025829Y004095D01*
X025873Y004119D01*
X025919Y004140D01*
X025966Y004156D01*
X026014Y004169D01*
X026064Y004178D01*
X026113Y004183D01*
X026164Y004184D01*
X026214Y004181D01*
X026263Y004174D01*
X026312Y004163D01*
X026360Y004148D01*
X026406Y004130D01*
X026451Y004108D01*
X026494Y004082D01*
X026535Y004053D01*
X026574Y004021D01*
X026610Y003986D01*
X026642Y003948D01*
X026672Y003908D01*
X026699Y003865D01*
X026722Y003821D01*
X026741Y003775D01*
X026757Y003727D01*
X026769Y003678D01*
X026777Y003629D01*
X026781Y003579D01*
X026781Y003529D01*
X026777Y003479D01*
X026769Y003430D01*
X026757Y003381D01*
X026741Y003333D01*
X026722Y003287D01*
X026699Y003243D01*
X026672Y003200D01*
X026642Y003160D01*
X026610Y003122D01*
X026574Y003087D01*
X026535Y003055D01*
X026494Y003026D01*
X026451Y003000D01*
X026406Y002978D01*
X026360Y002960D01*
X026312Y002945D01*
X026263Y002934D01*
X026214Y002927D01*
X026164Y002924D01*
X026113Y002925D01*
X026064Y002930D01*
X026014Y002939D01*
X025966Y002952D01*
X025919Y002968D01*
X025873Y002989D01*
X025829Y003013D01*
X025787Y003040D01*
X025747Y003070D01*
X025710Y003104D01*
X025676Y003141D01*
X025644Y003180D01*
X025616Y003221D01*
X025591Y003265D01*
X025570Y003310D01*
X025553Y003357D01*
X025539Y003405D01*
X025529Y003454D01*
X025523Y003504D01*
X025521Y003554D01*
D12*
X007051Y018793D02*
X006982Y018724D01*
X006777Y018724D01*
X006777Y019135D01*
X006982Y019135D01*
X007051Y019066D01*
X007051Y018793D01*
X006591Y018724D02*
X006317Y018724D01*
X006317Y019135D01*
X006130Y019135D02*
X005857Y019135D01*
X005857Y018724D01*
X006130Y018724D01*
X005993Y018929D02*
X005857Y018929D01*
X005686Y018724D02*
X005550Y018724D01*
X005618Y018724D02*
X005618Y019135D01*
X005550Y019135D02*
X005686Y019135D01*
X005363Y019135D02*
X005363Y018724D01*
X005363Y018929D02*
X005089Y018929D01*
X004903Y018861D02*
X004903Y018793D01*
X004834Y018724D01*
X004697Y018724D01*
X004629Y018793D01*
X004697Y018929D02*
X004629Y018998D01*
X004629Y019066D01*
X004697Y019135D01*
X004834Y019135D01*
X004903Y019066D01*
X004834Y018929D02*
X004903Y018861D01*
X004834Y018929D02*
X004697Y018929D01*
X005089Y018724D02*
X005089Y019135D01*
X003982Y019066D02*
X003982Y018929D01*
X003913Y018861D01*
X003708Y018861D01*
X003708Y018724D02*
X003708Y019135D01*
X003913Y019135D01*
X003982Y019066D01*
X003845Y018861D02*
X003982Y018724D01*
X003521Y018724D02*
X003248Y018724D01*
X003248Y019135D01*
X003521Y019135D01*
X003385Y018929D02*
X003248Y018929D01*
X003061Y018793D02*
X003061Y019066D01*
X002993Y019135D01*
X002788Y019135D01*
X002788Y018724D01*
X002993Y018724D01*
X003061Y018793D01*
X002601Y018793D02*
X002532Y018724D01*
X002396Y018724D01*
X002327Y018793D01*
X002327Y019066D01*
X002396Y019135D01*
X002532Y019135D01*
X002601Y019066D01*
X002601Y018793D01*
X002302Y018510D02*
X002165Y018510D01*
X002097Y018441D01*
X002097Y018168D01*
X002371Y018441D01*
X002371Y018168D01*
X002302Y018099D01*
X002165Y018099D01*
X002097Y018168D01*
X001935Y018168D02*
X001935Y018099D01*
X001867Y018099D01*
X001867Y018168D01*
X001935Y018168D01*
X001680Y018099D02*
X001407Y018099D01*
X001543Y018099D02*
X001543Y018510D01*
X001407Y018373D01*
X001220Y018373D02*
X001083Y018099D01*
X000946Y018373D01*
X000946Y018724D02*
X001151Y018724D01*
X001220Y018793D01*
X001220Y019066D01*
X001151Y019135D01*
X000946Y019135D01*
X000946Y018724D01*
X001407Y018724D02*
X001407Y019135D01*
X001680Y019135D01*
X001867Y019066D02*
X001867Y018793D01*
X001935Y018724D01*
X002072Y018724D01*
X002140Y018793D01*
X002140Y019066D02*
X002072Y019135D01*
X001935Y019135D01*
X001867Y019066D01*
X001543Y018929D02*
X001407Y018929D01*
X001407Y018724D02*
X001680Y018724D01*
X002302Y018510D02*
X002371Y018441D01*
D13*
X013151Y014314D02*
X013151Y013794D01*
X014151Y013794D02*
X014151Y014314D01*
X015151Y014314D02*
X015151Y013794D01*
X016151Y013794D02*
X016151Y014314D01*
X017151Y014314D02*
X017151Y013794D01*
X018151Y013794D02*
X018151Y014314D01*
X019151Y014314D02*
X019151Y013794D01*
X020151Y013794D02*
X020151Y014314D01*
X020151Y011314D02*
X020151Y010794D01*
X019151Y010794D02*
X019151Y011314D01*
X018151Y011314D02*
X018151Y010794D01*
X017151Y010794D02*
X017151Y011314D01*
X016151Y011314D02*
X016151Y010794D01*
X015151Y010794D02*
X015151Y011314D01*
X014151Y011314D02*
X014151Y010794D01*
X013151Y010794D02*
X013151Y011314D01*
D14*
X017651Y004804D03*
X018651Y004804D03*
X018151Y003054D03*
X015151Y003054D03*
D15*
X016151Y004804D03*
D16*
X015151Y004804D03*
D17*
X015151Y001854D02*
X015151Y001254D01*
X014151Y001254D02*
X014151Y001854D01*
X013151Y001854D02*
X013151Y001254D01*
X011151Y001254D02*
X011151Y001854D01*
X010151Y001854D02*
X010151Y001254D01*
X009151Y001254D02*
X009151Y001854D01*
X008151Y001854D02*
X008151Y001254D01*
X007151Y001254D02*
X007151Y001854D01*
X006151Y001854D02*
X006151Y001254D01*
X005151Y001254D02*
X005151Y001854D01*
X004151Y001854D02*
X004151Y001254D01*
X016151Y001254D02*
X016151Y001854D01*
X017151Y001854D02*
X017151Y001254D01*
X018151Y001254D02*
X018151Y001854D01*
X020151Y001854D02*
X020151Y001254D01*
X021151Y001254D02*
X021151Y001854D01*
X022151Y001854D02*
X022151Y001254D01*
X023151Y001254D02*
X023151Y001854D01*
X024151Y001854D02*
X024151Y001254D01*
X025151Y001254D02*
X025151Y001854D01*
X025151Y020254D02*
X025151Y020854D01*
X024151Y020854D02*
X024151Y020254D01*
X023151Y020254D02*
X023151Y020854D01*
X022151Y020854D02*
X022151Y020254D01*
X021151Y020254D02*
X021151Y020854D01*
X020151Y020854D02*
X020151Y020254D01*
X019151Y020254D02*
X019151Y020854D01*
X018151Y020854D02*
X018151Y020254D01*
X016551Y020254D02*
X016551Y020854D01*
X015551Y020854D02*
X015551Y020254D01*
X014551Y020254D02*
X014551Y020854D01*
X013551Y020854D02*
X013551Y020254D01*
X012551Y020254D02*
X012551Y020854D01*
X011551Y020854D02*
X011551Y020254D01*
X010551Y020254D02*
X010551Y020854D01*
X009551Y020854D02*
X009551Y020254D01*
D18*
X012151Y014054D02*
X012151Y007804D01*
D19*
X012151Y007804D03*
X012151Y014054D03*
M02*
