G75*
G70*
%OFA0B0*%
%FSLAX24Y24*%
%IPPOS*%
%LPD*%
%AMOC8*
5,1,8,0,0,1.08239X$1,22.5*
%
%ADD10C,0.0100*%
%ADD11C,0.0000*%
D10*
X001089Y000554D02*
X001089Y021554D01*
X028089Y021554D01*
X028089Y000554D01*
X001089Y000554D01*
D11*
X026459Y003554D02*
X026461Y003604D01*
X026467Y003654D01*
X026477Y003703D01*
X026491Y003751D01*
X026508Y003798D01*
X026529Y003843D01*
X026554Y003887D01*
X026582Y003928D01*
X026614Y003967D01*
X026648Y004004D01*
X026685Y004038D01*
X026725Y004068D01*
X026767Y004095D01*
X026811Y004119D01*
X026857Y004140D01*
X026904Y004156D01*
X026952Y004169D01*
X027002Y004178D01*
X027051Y004183D01*
X027102Y004184D01*
X027152Y004181D01*
X027201Y004174D01*
X027250Y004163D01*
X027298Y004148D01*
X027344Y004130D01*
X027389Y004108D01*
X027432Y004082D01*
X027473Y004053D01*
X027512Y004021D01*
X027548Y003986D01*
X027580Y003948D01*
X027610Y003908D01*
X027637Y003865D01*
X027660Y003821D01*
X027679Y003775D01*
X027695Y003727D01*
X027707Y003678D01*
X027715Y003629D01*
X027719Y003579D01*
X027719Y003529D01*
X027715Y003479D01*
X027707Y003430D01*
X027695Y003381D01*
X027679Y003333D01*
X027660Y003287D01*
X027637Y003243D01*
X027610Y003200D01*
X027580Y003160D01*
X027548Y003122D01*
X027512Y003087D01*
X027473Y003055D01*
X027432Y003026D01*
X027389Y003000D01*
X027344Y002978D01*
X027298Y002960D01*
X027250Y002945D01*
X027201Y002934D01*
X027152Y002927D01*
X027102Y002924D01*
X027051Y002925D01*
X027002Y002930D01*
X026952Y002939D01*
X026904Y002952D01*
X026857Y002968D01*
X026811Y002989D01*
X026767Y003013D01*
X026725Y003040D01*
X026685Y003070D01*
X026648Y003104D01*
X026614Y003141D01*
X026582Y003180D01*
X026554Y003221D01*
X026529Y003265D01*
X026508Y003310D01*
X026491Y003357D01*
X026477Y003405D01*
X026467Y003454D01*
X026461Y003504D01*
X026459Y003554D01*
X026459Y014554D02*
X026461Y014604D01*
X026467Y014654D01*
X026477Y014703D01*
X026491Y014751D01*
X026508Y014798D01*
X026529Y014843D01*
X026554Y014887D01*
X026582Y014928D01*
X026614Y014967D01*
X026648Y015004D01*
X026685Y015038D01*
X026725Y015068D01*
X026767Y015095D01*
X026811Y015119D01*
X026857Y015140D01*
X026904Y015156D01*
X026952Y015169D01*
X027002Y015178D01*
X027051Y015183D01*
X027102Y015184D01*
X027152Y015181D01*
X027201Y015174D01*
X027250Y015163D01*
X027298Y015148D01*
X027344Y015130D01*
X027389Y015108D01*
X027432Y015082D01*
X027473Y015053D01*
X027512Y015021D01*
X027548Y014986D01*
X027580Y014948D01*
X027610Y014908D01*
X027637Y014865D01*
X027660Y014821D01*
X027679Y014775D01*
X027695Y014727D01*
X027707Y014678D01*
X027715Y014629D01*
X027719Y014579D01*
X027719Y014529D01*
X027715Y014479D01*
X027707Y014430D01*
X027695Y014381D01*
X027679Y014333D01*
X027660Y014287D01*
X027637Y014243D01*
X027610Y014200D01*
X027580Y014160D01*
X027548Y014122D01*
X027512Y014087D01*
X027473Y014055D01*
X027432Y014026D01*
X027389Y014000D01*
X027344Y013978D01*
X027298Y013960D01*
X027250Y013945D01*
X027201Y013934D01*
X027152Y013927D01*
X027102Y013924D01*
X027051Y013925D01*
X027002Y013930D01*
X026952Y013939D01*
X026904Y013952D01*
X026857Y013968D01*
X026811Y013989D01*
X026767Y014013D01*
X026725Y014040D01*
X026685Y014070D01*
X026648Y014104D01*
X026614Y014141D01*
X026582Y014180D01*
X026554Y014221D01*
X026529Y014265D01*
X026508Y014310D01*
X026491Y014357D01*
X026477Y014405D01*
X026467Y014454D01*
X026461Y014504D01*
X026459Y014554D01*
X006459Y020554D02*
X006461Y020604D01*
X006467Y020654D01*
X006477Y020703D01*
X006491Y020751D01*
X006508Y020798D01*
X006529Y020843D01*
X006554Y020887D01*
X006582Y020928D01*
X006614Y020967D01*
X006648Y021004D01*
X006685Y021038D01*
X006725Y021068D01*
X006767Y021095D01*
X006811Y021119D01*
X006857Y021140D01*
X006904Y021156D01*
X006952Y021169D01*
X007002Y021178D01*
X007051Y021183D01*
X007102Y021184D01*
X007152Y021181D01*
X007201Y021174D01*
X007250Y021163D01*
X007298Y021148D01*
X007344Y021130D01*
X007389Y021108D01*
X007432Y021082D01*
X007473Y021053D01*
X007512Y021021D01*
X007548Y020986D01*
X007580Y020948D01*
X007610Y020908D01*
X007637Y020865D01*
X007660Y020821D01*
X007679Y020775D01*
X007695Y020727D01*
X007707Y020678D01*
X007715Y020629D01*
X007719Y020579D01*
X007719Y020529D01*
X007715Y020479D01*
X007707Y020430D01*
X007695Y020381D01*
X007679Y020333D01*
X007660Y020287D01*
X007637Y020243D01*
X007610Y020200D01*
X007580Y020160D01*
X007548Y020122D01*
X007512Y020087D01*
X007473Y020055D01*
X007432Y020026D01*
X007389Y020000D01*
X007344Y019978D01*
X007298Y019960D01*
X007250Y019945D01*
X007201Y019934D01*
X007152Y019927D01*
X007102Y019924D01*
X007051Y019925D01*
X007002Y019930D01*
X006952Y019939D01*
X006904Y019952D01*
X006857Y019968D01*
X006811Y019989D01*
X006767Y020013D01*
X006725Y020040D01*
X006685Y020070D01*
X006648Y020104D01*
X006614Y020141D01*
X006582Y020180D01*
X006554Y020221D01*
X006529Y020265D01*
X006508Y020310D01*
X006491Y020357D01*
X006477Y020405D01*
X006467Y020454D01*
X006461Y020504D01*
X006459Y020554D01*
M02*
