G75*
G70*
%OFA0B0*%
%FSLAX24Y24*%
%IPPOS*%
%LPD*%
%AMOC8*
5,1,8,0,0,1.08239X$1,22.5*
%
%ADD10C,0.0100*%
%ADD11C,0.0000*%
%ADD12C,0.0070*%
%ADD13C,0.0050*%
%ADD14C,0.0160*%
%ADD15C,0.0059*%
%ADD16C,0.0040*%
%ADD17C,0.0060*%
%ADD18C,0.0240*%
%ADD19C,0.0080*%
%ADD20R,0.0200X0.0150*%
D10*
X001089Y000554D02*
X001089Y021554D01*
X028089Y021554D01*
X028089Y000554D01*
X001089Y000554D01*
X017839Y003304D02*
X017882Y003250D01*
X017928Y003198D01*
X017977Y003149D01*
X018029Y003102D01*
X018083Y003059D01*
X018139Y003018D01*
X018198Y002981D01*
X018258Y002947D01*
X018321Y002917D01*
X018384Y002890D01*
X018450Y002866D01*
X018516Y002846D01*
X018584Y002830D01*
X018652Y002818D01*
X018721Y002810D01*
X018790Y002805D01*
X018860Y002804D01*
X018929Y002807D01*
X018998Y002814D01*
X019066Y002825D01*
X019134Y002839D01*
X019201Y002858D01*
X019267Y002880D01*
X019332Y002905D01*
X019395Y002934D01*
X019456Y002967D01*
X019515Y003003D01*
X019572Y003042D01*
X019628Y003084D01*
X019680Y003129D01*
X019730Y003177D01*
X019777Y003228D01*
X019822Y003282D01*
X019863Y003337D01*
X019901Y003395D01*
X019936Y003455D01*
X019968Y003517D01*
X019996Y003580D01*
X020020Y003645D01*
X020041Y003711D01*
X020058Y003779D01*
X020072Y003847D01*
X020081Y003916D01*
X020087Y003985D01*
X020089Y004054D01*
X020087Y004123D01*
X020081Y004192D01*
X020072Y004261D01*
X020058Y004329D01*
X020041Y004397D01*
X020020Y004463D01*
X019996Y004528D01*
X019968Y004591D01*
X019936Y004653D01*
X019901Y004713D01*
X019863Y004771D01*
X019822Y004826D01*
X019777Y004880D01*
X019730Y004931D01*
X019680Y004979D01*
X019628Y005024D01*
X019572Y005066D01*
X019515Y005105D01*
X019456Y005141D01*
X019395Y005174D01*
X019332Y005203D01*
X019267Y005228D01*
X019201Y005250D01*
X019134Y005269D01*
X019066Y005283D01*
X018998Y005294D01*
X018929Y005301D01*
X018860Y005304D01*
X018790Y005303D01*
X018721Y005298D01*
X018652Y005290D01*
X018584Y005278D01*
X018516Y005262D01*
X018450Y005242D01*
X018384Y005218D01*
X018321Y005191D01*
X018258Y005161D01*
X018198Y005127D01*
X018139Y005090D01*
X018083Y005049D01*
X018029Y005006D01*
X017977Y004959D01*
X017928Y004910D01*
X017882Y004858D01*
X017839Y004804D01*
D11*
X026459Y003554D02*
X026461Y003604D01*
X026467Y003654D01*
X026477Y003703D01*
X026491Y003751D01*
X026508Y003798D01*
X026529Y003843D01*
X026554Y003887D01*
X026582Y003928D01*
X026614Y003967D01*
X026648Y004004D01*
X026685Y004038D01*
X026725Y004068D01*
X026767Y004095D01*
X026811Y004119D01*
X026857Y004140D01*
X026904Y004156D01*
X026952Y004169D01*
X027002Y004178D01*
X027051Y004183D01*
X027102Y004184D01*
X027152Y004181D01*
X027201Y004174D01*
X027250Y004163D01*
X027298Y004148D01*
X027344Y004130D01*
X027389Y004108D01*
X027432Y004082D01*
X027473Y004053D01*
X027512Y004021D01*
X027548Y003986D01*
X027580Y003948D01*
X027610Y003908D01*
X027637Y003865D01*
X027660Y003821D01*
X027679Y003775D01*
X027695Y003727D01*
X027707Y003678D01*
X027715Y003629D01*
X027719Y003579D01*
X027719Y003529D01*
X027715Y003479D01*
X027707Y003430D01*
X027695Y003381D01*
X027679Y003333D01*
X027660Y003287D01*
X027637Y003243D01*
X027610Y003200D01*
X027580Y003160D01*
X027548Y003122D01*
X027512Y003087D01*
X027473Y003055D01*
X027432Y003026D01*
X027389Y003000D01*
X027344Y002978D01*
X027298Y002960D01*
X027250Y002945D01*
X027201Y002934D01*
X027152Y002927D01*
X027102Y002924D01*
X027051Y002925D01*
X027002Y002930D01*
X026952Y002939D01*
X026904Y002952D01*
X026857Y002968D01*
X026811Y002989D01*
X026767Y003013D01*
X026725Y003040D01*
X026685Y003070D01*
X026648Y003104D01*
X026614Y003141D01*
X026582Y003180D01*
X026554Y003221D01*
X026529Y003265D01*
X026508Y003310D01*
X026491Y003357D01*
X026477Y003405D01*
X026467Y003454D01*
X026461Y003504D01*
X026459Y003554D01*
X026459Y014554D02*
X026461Y014604D01*
X026467Y014654D01*
X026477Y014703D01*
X026491Y014751D01*
X026508Y014798D01*
X026529Y014843D01*
X026554Y014887D01*
X026582Y014928D01*
X026614Y014967D01*
X026648Y015004D01*
X026685Y015038D01*
X026725Y015068D01*
X026767Y015095D01*
X026811Y015119D01*
X026857Y015140D01*
X026904Y015156D01*
X026952Y015169D01*
X027002Y015178D01*
X027051Y015183D01*
X027102Y015184D01*
X027152Y015181D01*
X027201Y015174D01*
X027250Y015163D01*
X027298Y015148D01*
X027344Y015130D01*
X027389Y015108D01*
X027432Y015082D01*
X027473Y015053D01*
X027512Y015021D01*
X027548Y014986D01*
X027580Y014948D01*
X027610Y014908D01*
X027637Y014865D01*
X027660Y014821D01*
X027679Y014775D01*
X027695Y014727D01*
X027707Y014678D01*
X027715Y014629D01*
X027719Y014579D01*
X027719Y014529D01*
X027715Y014479D01*
X027707Y014430D01*
X027695Y014381D01*
X027679Y014333D01*
X027660Y014287D01*
X027637Y014243D01*
X027610Y014200D01*
X027580Y014160D01*
X027548Y014122D01*
X027512Y014087D01*
X027473Y014055D01*
X027432Y014026D01*
X027389Y014000D01*
X027344Y013978D01*
X027298Y013960D01*
X027250Y013945D01*
X027201Y013934D01*
X027152Y013927D01*
X027102Y013924D01*
X027051Y013925D01*
X027002Y013930D01*
X026952Y013939D01*
X026904Y013952D01*
X026857Y013968D01*
X026811Y013989D01*
X026767Y014013D01*
X026725Y014040D01*
X026685Y014070D01*
X026648Y014104D01*
X026614Y014141D01*
X026582Y014180D01*
X026554Y014221D01*
X026529Y014265D01*
X026508Y014310D01*
X026491Y014357D01*
X026477Y014405D01*
X026467Y014454D01*
X026461Y014504D01*
X026459Y014554D01*
X006459Y020554D02*
X006461Y020604D01*
X006467Y020654D01*
X006477Y020703D01*
X006491Y020751D01*
X006508Y020798D01*
X006529Y020843D01*
X006554Y020887D01*
X006582Y020928D01*
X006614Y020967D01*
X006648Y021004D01*
X006685Y021038D01*
X006725Y021068D01*
X006767Y021095D01*
X006811Y021119D01*
X006857Y021140D01*
X006904Y021156D01*
X006952Y021169D01*
X007002Y021178D01*
X007051Y021183D01*
X007102Y021184D01*
X007152Y021181D01*
X007201Y021174D01*
X007250Y021163D01*
X007298Y021148D01*
X007344Y021130D01*
X007389Y021108D01*
X007432Y021082D01*
X007473Y021053D01*
X007512Y021021D01*
X007548Y020986D01*
X007580Y020948D01*
X007610Y020908D01*
X007637Y020865D01*
X007660Y020821D01*
X007679Y020775D01*
X007695Y020727D01*
X007707Y020678D01*
X007715Y020629D01*
X007719Y020579D01*
X007719Y020529D01*
X007715Y020479D01*
X007707Y020430D01*
X007695Y020381D01*
X007679Y020333D01*
X007660Y020287D01*
X007637Y020243D01*
X007610Y020200D01*
X007580Y020160D01*
X007548Y020122D01*
X007512Y020087D01*
X007473Y020055D01*
X007432Y020026D01*
X007389Y020000D01*
X007344Y019978D01*
X007298Y019960D01*
X007250Y019945D01*
X007201Y019934D01*
X007152Y019927D01*
X007102Y019924D01*
X007051Y019925D01*
X007002Y019930D01*
X006952Y019939D01*
X006904Y019952D01*
X006857Y019968D01*
X006811Y019989D01*
X006767Y020013D01*
X006725Y020040D01*
X006685Y020070D01*
X006648Y020104D01*
X006614Y020141D01*
X006582Y020180D01*
X006554Y020221D01*
X006529Y020265D01*
X006508Y020310D01*
X006491Y020357D01*
X006477Y020405D01*
X006467Y020454D01*
X006461Y020504D01*
X006459Y020554D01*
D12*
X004721Y016934D02*
X004721Y016514D01*
X004721Y016724D02*
X004090Y016724D01*
X004300Y016514D01*
X004616Y016296D02*
X004721Y016296D01*
X004721Y016191D01*
X004616Y016191D01*
X004616Y016296D01*
X004721Y015967D02*
X004721Y015547D01*
X004721Y015757D02*
X004090Y015757D01*
X004300Y015547D01*
X004090Y015323D02*
X004090Y014902D01*
X004090Y015112D02*
X004721Y015112D01*
X004616Y014678D02*
X004090Y014678D01*
X004616Y014678D02*
X004721Y014573D01*
X004721Y014363D01*
X004616Y014258D01*
X004090Y014258D01*
X004195Y014184D02*
X004090Y014079D01*
X004090Y013869D01*
X004195Y013764D01*
X004090Y013718D02*
X004195Y013613D01*
X004616Y013613D01*
X004721Y013718D01*
X004721Y013928D01*
X004616Y014034D01*
X004195Y014034D01*
X004090Y013928D01*
X004090Y013718D01*
X004616Y013546D02*
X004721Y013546D01*
X004721Y013441D01*
X004616Y013441D01*
X004616Y013546D01*
X004721Y013764D02*
X004300Y014184D01*
X004195Y014184D01*
X004721Y014184D02*
X004721Y013764D01*
X004721Y013217D02*
X004721Y012797D01*
X004721Y013007D02*
X004090Y013007D01*
X004300Y012797D01*
X004090Y012573D02*
X004090Y012152D01*
X004090Y012362D02*
X004721Y012362D01*
X004616Y011928D02*
X004090Y011928D01*
X004616Y011928D02*
X004721Y011823D01*
X004721Y011613D01*
X004616Y011508D01*
X004090Y011508D01*
X004195Y011434D02*
X004300Y011434D01*
X004406Y011329D01*
X004511Y011434D01*
X004616Y011434D01*
X004721Y011329D01*
X004721Y011119D01*
X004616Y011014D01*
X004721Y010968D02*
X004616Y010863D01*
X004195Y010863D01*
X004090Y010968D01*
X004090Y011178D01*
X004195Y011284D01*
X004616Y011284D01*
X004721Y011178D01*
X004721Y010968D01*
X004721Y010796D02*
X004616Y010796D01*
X004616Y010691D01*
X004721Y010691D01*
X004721Y010796D01*
X004721Y010467D02*
X004721Y010047D01*
X004721Y010257D02*
X004090Y010257D01*
X004300Y010047D01*
X004090Y009823D02*
X004090Y009402D01*
X004090Y009612D02*
X004721Y009612D01*
X004616Y009178D02*
X004090Y009178D01*
X004616Y009178D02*
X004721Y009073D01*
X004721Y008863D01*
X004616Y008758D01*
X004090Y008758D01*
X004090Y008579D02*
X004406Y008264D01*
X004406Y008684D01*
X004616Y008534D02*
X004195Y008534D01*
X004090Y008428D01*
X004090Y008218D01*
X004195Y008113D01*
X004616Y008113D01*
X004721Y008218D01*
X004721Y008428D01*
X004616Y008534D01*
X004721Y008579D02*
X004090Y008579D01*
X004616Y008046D02*
X004721Y008046D01*
X004721Y007941D01*
X004616Y007941D01*
X004616Y008046D01*
X004721Y007717D02*
X004721Y007297D01*
X004721Y007507D02*
X004090Y007507D01*
X004300Y007297D01*
X004090Y007073D02*
X004090Y006652D01*
X004090Y006862D02*
X004721Y006862D01*
X004616Y006428D02*
X004090Y006428D01*
X004616Y006428D02*
X004721Y006323D01*
X004721Y006113D01*
X004616Y006008D01*
X004090Y006008D01*
X004195Y005784D02*
X004090Y005678D01*
X004090Y005468D01*
X004195Y005363D01*
X004616Y005363D01*
X004721Y005468D01*
X004721Y005678D01*
X004616Y005784D01*
X004195Y005784D01*
X001006Y005872D02*
X000376Y005452D01*
X000376Y005872D02*
X001006Y005452D01*
X000691Y006096D02*
X000691Y006517D01*
X000376Y006412D02*
X000691Y006096D01*
X001006Y006412D02*
X000376Y006412D01*
X000376Y008202D02*
X001006Y008622D01*
X000901Y008846D02*
X001006Y008951D01*
X001006Y009162D01*
X000901Y009267D01*
X000796Y009267D01*
X000691Y009162D01*
X000691Y009056D01*
X000691Y009162D02*
X000586Y009267D01*
X000481Y009267D01*
X000376Y009162D01*
X000376Y008951D01*
X000481Y008846D01*
X000376Y008622D02*
X001006Y008202D01*
X001006Y010952D02*
X000376Y011372D01*
X000481Y011596D02*
X000376Y011701D01*
X000376Y011912D01*
X000481Y012017D01*
X000586Y012017D01*
X001006Y011596D01*
X001006Y012017D01*
X001006Y011372D02*
X000376Y010952D01*
X000376Y013702D02*
X001006Y014122D01*
X001006Y014346D02*
X001006Y014767D01*
X001006Y014556D02*
X000376Y014556D01*
X000586Y014346D01*
X000376Y014122D02*
X001006Y013702D01*
X004090Y011329D02*
X004195Y011434D01*
X004090Y011329D02*
X004090Y011119D01*
X004195Y011014D01*
X004406Y011224D02*
X004406Y011329D01*
X024376Y011122D02*
X025006Y010702D01*
X025006Y011122D02*
X024376Y010702D01*
X024691Y011346D02*
X024691Y011662D01*
X024796Y011767D01*
X024901Y011767D01*
X025006Y011662D01*
X025006Y011451D01*
X024901Y011346D01*
X024691Y011346D01*
X024481Y011556D01*
X024376Y011767D01*
X024376Y009017D02*
X024481Y009017D01*
X024901Y008596D01*
X025006Y008596D01*
X025006Y008372D02*
X024376Y007952D01*
X024376Y008372D02*
X025006Y007952D01*
X024376Y008596D02*
X024376Y009017D01*
X024481Y006267D02*
X024586Y006267D01*
X024691Y006162D01*
X024691Y005951D01*
X024586Y005846D01*
X024481Y005846D01*
X024376Y005951D01*
X024376Y006162D01*
X024481Y006267D01*
X024691Y006162D02*
X024796Y006267D01*
X024901Y006267D01*
X025006Y006162D01*
X025006Y005951D01*
X024901Y005846D01*
X024796Y005846D01*
X024691Y005951D01*
X024376Y005622D02*
X025006Y005202D01*
X025006Y005622D02*
X024376Y005202D01*
X028090Y005218D02*
X028195Y005113D01*
X028616Y005113D01*
X028721Y005218D01*
X028721Y005428D01*
X028616Y005534D01*
X028195Y005534D01*
X028090Y005428D01*
X028090Y005218D01*
X028090Y005758D02*
X028616Y005758D01*
X028721Y005863D01*
X028721Y006073D01*
X028616Y006178D01*
X028090Y006178D01*
X028090Y006402D02*
X028090Y006823D01*
X028090Y006612D02*
X028721Y006612D01*
X028721Y007047D02*
X028300Y007467D01*
X028195Y007467D01*
X028090Y007362D01*
X028090Y007152D01*
X028195Y007047D01*
X028721Y007047D02*
X028721Y007467D01*
X028721Y007691D02*
X028721Y007796D01*
X028616Y007796D01*
X028616Y007691D01*
X028721Y007691D01*
X028616Y007863D02*
X028721Y007968D01*
X028721Y008178D01*
X028616Y008284D01*
X028195Y008284D01*
X028090Y008178D01*
X028090Y007968D01*
X028195Y007863D01*
X028616Y007863D01*
X028406Y008014D02*
X028406Y008434D01*
X028616Y008508D02*
X028721Y008613D01*
X028721Y008823D01*
X028616Y008928D01*
X028090Y008928D01*
X028090Y009152D02*
X028090Y009573D01*
X028090Y009362D02*
X028721Y009362D01*
X028721Y009797D02*
X028300Y010217D01*
X028195Y010217D01*
X028090Y010112D01*
X028090Y009902D01*
X028195Y009797D01*
X028721Y009797D02*
X028721Y010217D01*
X028721Y010441D02*
X028721Y010546D01*
X028616Y010546D01*
X028616Y010441D01*
X028721Y010441D01*
X028616Y010613D02*
X028721Y010718D01*
X028721Y010928D01*
X028616Y011034D01*
X028195Y011034D01*
X028090Y010928D01*
X028090Y010718D01*
X028195Y010613D01*
X028616Y010613D01*
X028616Y010764D02*
X028721Y010869D01*
X028721Y011079D01*
X028616Y011184D01*
X028511Y011184D01*
X028406Y011079D01*
X028406Y010974D01*
X028406Y011079D02*
X028300Y011184D01*
X028195Y011184D01*
X028090Y011079D01*
X028090Y010869D01*
X028195Y010764D01*
X028090Y011258D02*
X028616Y011258D01*
X028721Y011363D01*
X028721Y011573D01*
X028616Y011678D01*
X028090Y011678D01*
X028090Y011902D02*
X028090Y012323D01*
X028090Y012112D02*
X028721Y012112D01*
X028721Y012547D02*
X028300Y012967D01*
X028195Y012967D01*
X028090Y012862D01*
X028090Y012652D01*
X028195Y012547D01*
X028721Y012547D02*
X028721Y012967D01*
X028721Y013191D02*
X028721Y013296D01*
X028616Y013296D01*
X028616Y013191D01*
X028721Y013191D01*
X028721Y013514D02*
X028300Y013934D01*
X028195Y013934D01*
X028090Y013829D01*
X028090Y013619D01*
X028195Y013514D01*
X028721Y013514D02*
X028721Y013934D01*
X028616Y015613D02*
X028195Y015613D01*
X028090Y015718D01*
X028090Y015928D01*
X028195Y016034D01*
X028616Y016034D01*
X028721Y015928D01*
X028721Y015718D01*
X028616Y015613D01*
X028616Y016258D02*
X028090Y016258D01*
X028090Y016678D02*
X028616Y016678D01*
X028721Y016573D01*
X028721Y016363D01*
X028616Y016258D01*
X028090Y016902D02*
X028090Y017323D01*
X028090Y017112D02*
X028721Y017112D01*
X028721Y017547D02*
X028300Y017967D01*
X028195Y017967D01*
X028090Y017862D01*
X028090Y017652D01*
X028195Y017547D01*
X028721Y017547D02*
X028721Y017967D01*
X028721Y018191D02*
X028721Y018296D01*
X028616Y018296D01*
X028616Y018191D01*
X028721Y018191D01*
X028721Y018514D02*
X028721Y018934D01*
X028721Y018724D02*
X028090Y018724D01*
X028300Y018514D01*
X025006Y016662D02*
X025006Y016451D01*
X024901Y016346D01*
X024691Y016346D02*
X024586Y016556D01*
X024586Y016662D01*
X024691Y016767D01*
X024901Y016767D01*
X025006Y016662D01*
X024691Y016346D02*
X024376Y016346D01*
X024376Y016767D01*
X024376Y016122D02*
X025006Y015702D01*
X025006Y016122D02*
X024376Y015702D01*
X028090Y008508D02*
X028616Y008508D01*
X028721Y008329D02*
X028090Y008329D01*
X028406Y008014D01*
D13*
X025789Y008615D02*
X025791Y008662D01*
X025797Y008708D01*
X025807Y008754D01*
X025820Y008798D01*
X025838Y008842D01*
X025859Y008883D01*
X025883Y008923D01*
X025911Y008961D01*
X025942Y008996D01*
X025976Y009028D01*
X026012Y009057D01*
X026051Y009083D01*
X026091Y009106D01*
X026134Y009125D01*
X026178Y009141D01*
X026223Y009153D01*
X026269Y009161D01*
X026316Y009165D01*
X026362Y009165D01*
X026409Y009161D01*
X026455Y009153D01*
X026500Y009141D01*
X026544Y009125D01*
X026587Y009106D01*
X026627Y009083D01*
X026666Y009057D01*
X026702Y009028D01*
X026736Y008996D01*
X026767Y008961D01*
X026795Y008923D01*
X026819Y008883D01*
X026840Y008842D01*
X026858Y008798D01*
X026871Y008754D01*
X026881Y008708D01*
X026887Y008662D01*
X026889Y008615D01*
X026887Y008568D01*
X026881Y008522D01*
X026871Y008476D01*
X026858Y008432D01*
X026840Y008388D01*
X026819Y008347D01*
X026795Y008307D01*
X026767Y008269D01*
X026736Y008234D01*
X026702Y008202D01*
X026666Y008173D01*
X026627Y008147D01*
X026587Y008124D01*
X026544Y008105D01*
X026500Y008089D01*
X026455Y008077D01*
X026409Y008069D01*
X026362Y008065D01*
X026316Y008065D01*
X026269Y008069D01*
X026223Y008077D01*
X026178Y008089D01*
X026134Y008105D01*
X026091Y008124D01*
X026051Y008147D01*
X026012Y008173D01*
X025976Y008202D01*
X025942Y008234D01*
X025911Y008269D01*
X025883Y008307D01*
X025859Y008347D01*
X025838Y008388D01*
X025820Y008432D01*
X025807Y008476D01*
X025797Y008522D01*
X025791Y008568D01*
X025789Y008615D01*
X025564Y008979D02*
X025264Y008979D01*
X025414Y008979D02*
X025414Y009430D01*
X025264Y009280D01*
X025264Y009274D02*
X025564Y009575D01*
X025564Y009274D01*
X025489Y009199D01*
X025339Y009199D01*
X025264Y009274D01*
X025264Y009575D01*
X025339Y009650D01*
X025489Y009650D01*
X025564Y009575D01*
X025104Y009575D02*
X025029Y009650D01*
X024879Y009650D01*
X024804Y009575D01*
X024644Y009575D02*
X024569Y009650D01*
X024419Y009650D01*
X024344Y009575D01*
X024344Y009430D02*
X024569Y009430D01*
X024644Y009355D01*
X024644Y009204D01*
X024569Y009129D01*
X024344Y009129D01*
X024344Y009199D02*
X024644Y009500D01*
X024644Y009575D01*
X024344Y009430D02*
X024344Y008979D01*
X024494Y009129D02*
X024644Y008979D01*
X024804Y008979D02*
X025104Y008979D01*
X024954Y008979D02*
X024954Y009430D01*
X024804Y009280D01*
X024804Y009199D02*
X025104Y009500D01*
X025104Y009575D01*
X025104Y009199D02*
X024804Y009199D01*
X024644Y009199D02*
X024344Y009199D01*
X024344Y008180D02*
X024569Y008180D01*
X024644Y008105D01*
X024644Y007954D01*
X024569Y007879D01*
X024344Y007879D01*
X024494Y007879D02*
X024644Y007729D01*
X024644Y007699D02*
X024344Y007699D01*
X024644Y008000D01*
X024644Y008075D01*
X024569Y008150D01*
X024419Y008150D01*
X024344Y008075D01*
X024344Y008180D02*
X024344Y007729D01*
X024804Y007729D02*
X025104Y007729D01*
X025104Y007699D02*
X024804Y007699D01*
X025104Y008000D01*
X025104Y008075D01*
X025029Y008150D01*
X024879Y008150D01*
X024804Y008075D01*
X024804Y008030D02*
X024954Y008180D01*
X024954Y007729D01*
X025264Y007774D02*
X025264Y008075D01*
X025339Y008150D01*
X025489Y008150D01*
X025564Y008075D01*
X025264Y007774D01*
X025339Y007699D01*
X025489Y007699D01*
X025564Y007774D01*
X025564Y008075D01*
X025564Y008105D02*
X025264Y007804D01*
X025339Y007729D01*
X025489Y007729D01*
X025564Y007804D01*
X025564Y008105D01*
X025489Y008180D01*
X025339Y008180D01*
X025264Y008105D01*
X025264Y007804D01*
X025339Y006900D02*
X025489Y006900D01*
X025564Y006825D01*
X025264Y006524D01*
X025339Y006449D01*
X025489Y006449D01*
X025564Y006524D01*
X025564Y006825D01*
X025339Y006900D02*
X025264Y006825D01*
X025264Y006524D01*
X025104Y006454D02*
X024879Y006454D01*
X024804Y006530D01*
X024804Y006605D01*
X024879Y006680D01*
X025029Y006680D01*
X025104Y006605D01*
X025104Y006304D01*
X025029Y006229D01*
X024879Y006229D01*
X024804Y006304D01*
X024804Y006449D02*
X025104Y006750D01*
X025104Y006825D01*
X025029Y006900D01*
X024879Y006900D01*
X024804Y006825D01*
X024644Y006825D02*
X024569Y006900D01*
X024419Y006900D01*
X024344Y006825D01*
X024344Y006680D02*
X024569Y006680D01*
X024644Y006605D01*
X024644Y006454D01*
X024569Y006379D01*
X024344Y006379D01*
X024344Y006449D02*
X024644Y006750D01*
X024644Y006825D01*
X024344Y006680D02*
X024344Y006229D01*
X024494Y006379D02*
X024644Y006229D01*
X024644Y006449D02*
X024344Y006449D01*
X024804Y006449D02*
X025104Y006449D01*
X025789Y005865D02*
X025791Y005912D01*
X025797Y005958D01*
X025807Y006004D01*
X025820Y006048D01*
X025838Y006092D01*
X025859Y006133D01*
X025883Y006173D01*
X025911Y006211D01*
X025942Y006246D01*
X025976Y006278D01*
X026012Y006307D01*
X026051Y006333D01*
X026091Y006356D01*
X026134Y006375D01*
X026178Y006391D01*
X026223Y006403D01*
X026269Y006411D01*
X026316Y006415D01*
X026362Y006415D01*
X026409Y006411D01*
X026455Y006403D01*
X026500Y006391D01*
X026544Y006375D01*
X026587Y006356D01*
X026627Y006333D01*
X026666Y006307D01*
X026702Y006278D01*
X026736Y006246D01*
X026767Y006211D01*
X026795Y006173D01*
X026819Y006133D01*
X026840Y006092D01*
X026858Y006048D01*
X026871Y006004D01*
X026881Y005958D01*
X026887Y005912D01*
X026889Y005865D01*
X026887Y005818D01*
X026881Y005772D01*
X026871Y005726D01*
X026858Y005682D01*
X026840Y005638D01*
X026819Y005597D01*
X026795Y005557D01*
X026767Y005519D01*
X026736Y005484D01*
X026702Y005452D01*
X026666Y005423D01*
X026627Y005397D01*
X026587Y005374D01*
X026544Y005355D01*
X026500Y005339D01*
X026455Y005327D01*
X026409Y005319D01*
X026362Y005315D01*
X026316Y005315D01*
X026269Y005319D01*
X026223Y005327D01*
X026178Y005339D01*
X026134Y005355D01*
X026091Y005374D01*
X026051Y005397D01*
X026012Y005423D01*
X025976Y005452D01*
X025942Y005484D01*
X025911Y005519D01*
X025883Y005557D01*
X025859Y005597D01*
X025838Y005638D01*
X025820Y005682D01*
X025807Y005726D01*
X025797Y005772D01*
X025791Y005818D01*
X025789Y005865D01*
X025489Y005400D02*
X025564Y005325D01*
X025264Y005024D01*
X025339Y004949D01*
X025489Y004949D01*
X025564Y005024D01*
X025564Y005325D01*
X025489Y005400D02*
X025339Y005400D01*
X025264Y005325D01*
X025264Y005024D01*
X025104Y004949D02*
X024804Y004949D01*
X025104Y005250D01*
X025104Y005325D01*
X025029Y005400D01*
X024879Y005400D01*
X024804Y005325D01*
X024644Y005325D02*
X024644Y005250D01*
X024344Y004949D01*
X024644Y004949D01*
X024644Y005325D02*
X024569Y005400D01*
X024419Y005400D01*
X024344Y005325D01*
X025789Y007243D02*
X025791Y007290D01*
X025797Y007336D01*
X025807Y007382D01*
X025820Y007426D01*
X025838Y007470D01*
X025859Y007511D01*
X025883Y007551D01*
X025911Y007589D01*
X025942Y007624D01*
X025976Y007656D01*
X026012Y007685D01*
X026051Y007711D01*
X026091Y007734D01*
X026134Y007753D01*
X026178Y007769D01*
X026223Y007781D01*
X026269Y007789D01*
X026316Y007793D01*
X026362Y007793D01*
X026409Y007789D01*
X026455Y007781D01*
X026500Y007769D01*
X026544Y007753D01*
X026587Y007734D01*
X026627Y007711D01*
X026666Y007685D01*
X026702Y007656D01*
X026736Y007624D01*
X026767Y007589D01*
X026795Y007551D01*
X026819Y007511D01*
X026840Y007470D01*
X026858Y007426D01*
X026871Y007382D01*
X026881Y007336D01*
X026887Y007290D01*
X026889Y007243D01*
X026887Y007196D01*
X026881Y007150D01*
X026871Y007104D01*
X026858Y007060D01*
X026840Y007016D01*
X026819Y006975D01*
X026795Y006935D01*
X026767Y006897D01*
X026736Y006862D01*
X026702Y006830D01*
X026666Y006801D01*
X026627Y006775D01*
X026587Y006752D01*
X026544Y006733D01*
X026500Y006717D01*
X026455Y006705D01*
X026409Y006697D01*
X026362Y006693D01*
X026316Y006693D01*
X026269Y006697D01*
X026223Y006705D01*
X026178Y006717D01*
X026134Y006733D01*
X026091Y006752D01*
X026051Y006775D01*
X026012Y006801D01*
X025976Y006830D01*
X025942Y006862D01*
X025911Y006897D01*
X025883Y006935D01*
X025859Y006975D01*
X025838Y007016D01*
X025820Y007060D01*
X025807Y007104D01*
X025797Y007150D01*
X025791Y007196D01*
X025789Y007243D01*
X025789Y009993D02*
X025791Y010040D01*
X025797Y010086D01*
X025807Y010132D01*
X025820Y010176D01*
X025838Y010220D01*
X025859Y010261D01*
X025883Y010301D01*
X025911Y010339D01*
X025942Y010374D01*
X025976Y010406D01*
X026012Y010435D01*
X026051Y010461D01*
X026091Y010484D01*
X026134Y010503D01*
X026178Y010519D01*
X026223Y010531D01*
X026269Y010539D01*
X026316Y010543D01*
X026362Y010543D01*
X026409Y010539D01*
X026455Y010531D01*
X026500Y010519D01*
X026544Y010503D01*
X026587Y010484D01*
X026627Y010461D01*
X026666Y010435D01*
X026702Y010406D01*
X026736Y010374D01*
X026767Y010339D01*
X026795Y010301D01*
X026819Y010261D01*
X026840Y010220D01*
X026858Y010176D01*
X026871Y010132D01*
X026881Y010086D01*
X026887Y010040D01*
X026889Y009993D01*
X026887Y009946D01*
X026881Y009900D01*
X026871Y009854D01*
X026858Y009810D01*
X026840Y009766D01*
X026819Y009725D01*
X026795Y009685D01*
X026767Y009647D01*
X026736Y009612D01*
X026702Y009580D01*
X026666Y009551D01*
X026627Y009525D01*
X026587Y009502D01*
X026544Y009483D01*
X026500Y009467D01*
X026455Y009455D01*
X026409Y009447D01*
X026362Y009443D01*
X026316Y009443D01*
X026269Y009447D01*
X026223Y009455D01*
X026178Y009467D01*
X026134Y009483D01*
X026091Y009502D01*
X026051Y009525D01*
X026012Y009551D01*
X025976Y009580D01*
X025942Y009612D01*
X025911Y009647D01*
X025883Y009685D01*
X025859Y009725D01*
X025838Y009766D01*
X025820Y009810D01*
X025807Y009854D01*
X025797Y009900D01*
X025791Y009946D01*
X025789Y009993D01*
X025564Y010479D02*
X025264Y010479D01*
X025564Y010780D01*
X025564Y010855D01*
X025489Y010930D01*
X025339Y010930D01*
X025264Y010855D01*
X025264Y010825D02*
X025339Y010900D01*
X025489Y010900D01*
X025564Y010825D01*
X025264Y010524D01*
X025339Y010449D01*
X025489Y010449D01*
X025564Y010524D01*
X025564Y010825D01*
X025264Y010825D02*
X025264Y010524D01*
X025104Y010479D02*
X024804Y010479D01*
X024804Y010449D02*
X025104Y010750D01*
X025104Y010825D01*
X025029Y010900D01*
X024879Y010900D01*
X024804Y010825D01*
X024804Y010780D02*
X024954Y010930D01*
X024954Y010479D01*
X025104Y010449D02*
X024804Y010449D01*
X024644Y010449D02*
X024344Y010449D01*
X024644Y010750D01*
X024644Y010825D01*
X024569Y010900D01*
X024419Y010900D01*
X024344Y010825D01*
X024344Y010930D02*
X024569Y010930D01*
X024644Y010855D01*
X024644Y010704D01*
X024569Y010629D01*
X024344Y010629D01*
X024494Y010629D02*
X024644Y010479D01*
X024344Y010479D02*
X024344Y010930D01*
X024344Y011729D02*
X024344Y012180D01*
X024569Y012180D01*
X024644Y012105D01*
X024644Y011954D01*
X024569Y011879D01*
X024344Y011879D01*
X024344Y011949D02*
X024644Y012250D01*
X024644Y012325D01*
X024569Y012400D01*
X024419Y012400D01*
X024344Y012325D01*
X024344Y011949D02*
X024644Y011949D01*
X024804Y011949D02*
X025104Y012250D01*
X025104Y012325D01*
X025029Y012400D01*
X024879Y012400D01*
X024804Y012325D01*
X024954Y012180D02*
X024954Y011729D01*
X024804Y011729D02*
X025104Y011729D01*
X025264Y011804D02*
X025339Y011729D01*
X025489Y011729D01*
X025564Y011804D01*
X025564Y011879D01*
X025489Y011954D01*
X025414Y011954D01*
X025339Y011949D02*
X025264Y012024D01*
X025564Y012325D01*
X025564Y012024D01*
X025489Y011949D01*
X025339Y011949D01*
X025264Y012024D02*
X025264Y012325D01*
X025339Y012400D01*
X025489Y012400D01*
X025564Y012325D01*
X025489Y012180D02*
X025564Y012105D01*
X025564Y012030D01*
X025489Y011954D01*
X025489Y012180D02*
X025339Y012180D01*
X025264Y012105D01*
X025104Y011949D02*
X024804Y011949D01*
X024804Y012030D02*
X024954Y012180D01*
X024644Y011729D02*
X024494Y011879D01*
X024644Y013229D02*
X024494Y013379D01*
X024569Y013379D02*
X024344Y013379D01*
X024344Y013229D02*
X024344Y013680D01*
X024569Y013680D01*
X024644Y013605D01*
X024644Y013454D01*
X024569Y013379D01*
X024804Y013229D02*
X025104Y013229D01*
X024954Y013229D02*
X024954Y013680D01*
X024804Y013530D01*
X025264Y013454D02*
X025564Y013454D01*
X025489Y013229D02*
X025489Y013680D01*
X025264Y013454D01*
X025789Y012743D02*
X025791Y012790D01*
X025797Y012836D01*
X025807Y012882D01*
X025820Y012926D01*
X025838Y012970D01*
X025859Y013011D01*
X025883Y013051D01*
X025911Y013089D01*
X025942Y013124D01*
X025976Y013156D01*
X026012Y013185D01*
X026051Y013211D01*
X026091Y013234D01*
X026134Y013253D01*
X026178Y013269D01*
X026223Y013281D01*
X026269Y013289D01*
X026316Y013293D01*
X026362Y013293D01*
X026409Y013289D01*
X026455Y013281D01*
X026500Y013269D01*
X026544Y013253D01*
X026587Y013234D01*
X026627Y013211D01*
X026666Y013185D01*
X026702Y013156D01*
X026736Y013124D01*
X026767Y013089D01*
X026795Y013051D01*
X026819Y013011D01*
X026840Y012970D01*
X026858Y012926D01*
X026871Y012882D01*
X026881Y012836D01*
X026887Y012790D01*
X026889Y012743D01*
X026887Y012696D01*
X026881Y012650D01*
X026871Y012604D01*
X026858Y012560D01*
X026840Y012516D01*
X026819Y012475D01*
X026795Y012435D01*
X026767Y012397D01*
X026736Y012362D01*
X026702Y012330D01*
X026666Y012301D01*
X026627Y012275D01*
X026587Y012252D01*
X026544Y012233D01*
X026500Y012217D01*
X026455Y012205D01*
X026409Y012197D01*
X026362Y012193D01*
X026316Y012193D01*
X026269Y012197D01*
X026223Y012205D01*
X026178Y012217D01*
X026134Y012233D01*
X026091Y012252D01*
X026051Y012275D01*
X026012Y012301D01*
X025976Y012330D01*
X025942Y012362D01*
X025911Y012397D01*
X025883Y012435D01*
X025859Y012475D01*
X025838Y012516D01*
X025820Y012560D01*
X025807Y012604D01*
X025797Y012650D01*
X025791Y012696D01*
X025789Y012743D01*
X025789Y011365D02*
X025791Y011412D01*
X025797Y011458D01*
X025807Y011504D01*
X025820Y011548D01*
X025838Y011592D01*
X025859Y011633D01*
X025883Y011673D01*
X025911Y011711D01*
X025942Y011746D01*
X025976Y011778D01*
X026012Y011807D01*
X026051Y011833D01*
X026091Y011856D01*
X026134Y011875D01*
X026178Y011891D01*
X026223Y011903D01*
X026269Y011911D01*
X026316Y011915D01*
X026362Y011915D01*
X026409Y011911D01*
X026455Y011903D01*
X026500Y011891D01*
X026544Y011875D01*
X026587Y011856D01*
X026627Y011833D01*
X026666Y011807D01*
X026702Y011778D01*
X026736Y011746D01*
X026767Y011711D01*
X026795Y011673D01*
X026819Y011633D01*
X026840Y011592D01*
X026858Y011548D01*
X026871Y011504D01*
X026881Y011458D01*
X026887Y011412D01*
X026889Y011365D01*
X026887Y011318D01*
X026881Y011272D01*
X026871Y011226D01*
X026858Y011182D01*
X026840Y011138D01*
X026819Y011097D01*
X026795Y011057D01*
X026767Y011019D01*
X026736Y010984D01*
X026702Y010952D01*
X026666Y010923D01*
X026627Y010897D01*
X026587Y010874D01*
X026544Y010855D01*
X026500Y010839D01*
X026455Y010827D01*
X026409Y010819D01*
X026362Y010815D01*
X026316Y010815D01*
X026269Y010819D01*
X026223Y010827D01*
X026178Y010839D01*
X026134Y010855D01*
X026091Y010874D01*
X026051Y010897D01*
X026012Y010923D01*
X025976Y010952D01*
X025942Y010984D01*
X025911Y011019D01*
X025883Y011057D01*
X025859Y011097D01*
X025838Y011138D01*
X025820Y011182D01*
X025807Y011226D01*
X025797Y011272D01*
X025791Y011318D01*
X025789Y011365D01*
X023784Y013303D02*
X023708Y013228D01*
X023784Y013303D02*
X023784Y013378D01*
X023708Y013453D01*
X023333Y013453D01*
X023333Y013378D02*
X023333Y013528D01*
X023333Y013689D02*
X023333Y013914D01*
X023408Y013989D01*
X023558Y013989D01*
X023633Y013914D01*
X023633Y013689D01*
X023784Y013689D02*
X023333Y013689D01*
X023483Y014149D02*
X023333Y014299D01*
X023784Y014299D01*
X023784Y014149D02*
X023784Y014449D01*
X024344Y015449D02*
X024644Y015750D01*
X024644Y015825D01*
X024569Y015900D01*
X024419Y015900D01*
X024344Y015825D01*
X024344Y015449D02*
X024644Y015449D01*
X024804Y015449D02*
X025104Y015750D01*
X025104Y015825D01*
X025029Y015900D01*
X024879Y015900D01*
X024804Y015825D01*
X024804Y015449D02*
X025104Y015449D01*
X025264Y015524D02*
X025564Y015825D01*
X025564Y015524D01*
X025489Y015449D01*
X025339Y015449D01*
X025264Y015524D01*
X025264Y015825D01*
X025339Y015900D01*
X025489Y015900D01*
X025564Y015825D01*
X025789Y016365D02*
X025791Y016412D01*
X025797Y016458D01*
X025807Y016504D01*
X025820Y016548D01*
X025838Y016592D01*
X025859Y016633D01*
X025883Y016673D01*
X025911Y016711D01*
X025942Y016746D01*
X025976Y016778D01*
X026012Y016807D01*
X026051Y016833D01*
X026091Y016856D01*
X026134Y016875D01*
X026178Y016891D01*
X026223Y016903D01*
X026269Y016911D01*
X026316Y016915D01*
X026362Y016915D01*
X026409Y016911D01*
X026455Y016903D01*
X026500Y016891D01*
X026544Y016875D01*
X026587Y016856D01*
X026627Y016833D01*
X026666Y016807D01*
X026702Y016778D01*
X026736Y016746D01*
X026767Y016711D01*
X026795Y016673D01*
X026819Y016633D01*
X026840Y016592D01*
X026858Y016548D01*
X026871Y016504D01*
X026881Y016458D01*
X026887Y016412D01*
X026889Y016365D01*
X026887Y016318D01*
X026881Y016272D01*
X026871Y016226D01*
X026858Y016182D01*
X026840Y016138D01*
X026819Y016097D01*
X026795Y016057D01*
X026767Y016019D01*
X026736Y015984D01*
X026702Y015952D01*
X026666Y015923D01*
X026627Y015897D01*
X026587Y015874D01*
X026544Y015855D01*
X026500Y015839D01*
X026455Y015827D01*
X026409Y015819D01*
X026362Y015815D01*
X026316Y015815D01*
X026269Y015819D01*
X026223Y015827D01*
X026178Y015839D01*
X026134Y015855D01*
X026091Y015874D01*
X026051Y015897D01*
X026012Y015923D01*
X025976Y015952D01*
X025942Y015984D01*
X025911Y016019D01*
X025883Y016057D01*
X025859Y016097D01*
X025838Y016138D01*
X025820Y016182D01*
X025807Y016226D01*
X025797Y016272D01*
X025791Y016318D01*
X025789Y016365D01*
X025489Y016729D02*
X025339Y016729D01*
X025264Y016804D01*
X025264Y016954D02*
X025414Y017030D01*
X025489Y017030D01*
X025564Y016954D01*
X025564Y016804D01*
X025489Y016729D01*
X025489Y016949D02*
X025339Y016949D01*
X025264Y017024D01*
X025564Y017325D01*
X025564Y017024D01*
X025489Y016949D01*
X025264Y016954D02*
X025264Y017180D01*
X025564Y017180D01*
X025564Y017325D02*
X025489Y017400D01*
X025339Y017400D01*
X025264Y017325D01*
X025264Y017024D01*
X025104Y016949D02*
X024804Y016949D01*
X025104Y017250D01*
X025104Y017325D01*
X025029Y017400D01*
X024879Y017400D01*
X024804Y017325D01*
X024644Y017325D02*
X024569Y017400D01*
X024419Y017400D01*
X024344Y017325D01*
X024344Y017180D02*
X024569Y017180D01*
X024644Y017105D01*
X024644Y016954D01*
X024569Y016879D01*
X024344Y016879D01*
X024344Y016949D02*
X024644Y017250D01*
X024644Y017325D01*
X024344Y017180D02*
X024344Y016729D01*
X024494Y016879D02*
X024644Y016729D01*
X024804Y016729D02*
X025104Y016729D01*
X024954Y016729D02*
X024954Y017180D01*
X024804Y017030D01*
X024644Y016949D02*
X024344Y016949D01*
X024344Y018229D02*
X024344Y018680D01*
X024569Y018680D01*
X024644Y018605D01*
X024644Y018454D01*
X024569Y018379D01*
X024344Y018379D01*
X024494Y018379D02*
X024644Y018229D01*
X024804Y018229D02*
X025104Y018229D01*
X024954Y018229D02*
X024954Y018680D01*
X024804Y018530D01*
X025264Y018454D02*
X025489Y018454D01*
X025564Y018379D01*
X025564Y018304D01*
X025489Y018229D01*
X025339Y018229D01*
X025264Y018304D01*
X025264Y018454D01*
X025414Y018605D01*
X025564Y018680D01*
X025789Y017743D02*
X025791Y017790D01*
X025797Y017836D01*
X025807Y017882D01*
X025820Y017926D01*
X025838Y017970D01*
X025859Y018011D01*
X025883Y018051D01*
X025911Y018089D01*
X025942Y018124D01*
X025976Y018156D01*
X026012Y018185D01*
X026051Y018211D01*
X026091Y018234D01*
X026134Y018253D01*
X026178Y018269D01*
X026223Y018281D01*
X026269Y018289D01*
X026316Y018293D01*
X026362Y018293D01*
X026409Y018289D01*
X026455Y018281D01*
X026500Y018269D01*
X026544Y018253D01*
X026587Y018234D01*
X026627Y018211D01*
X026666Y018185D01*
X026702Y018156D01*
X026736Y018124D01*
X026767Y018089D01*
X026795Y018051D01*
X026819Y018011D01*
X026840Y017970D01*
X026858Y017926D01*
X026871Y017882D01*
X026881Y017836D01*
X026887Y017790D01*
X026889Y017743D01*
X026887Y017696D01*
X026881Y017650D01*
X026871Y017604D01*
X026858Y017560D01*
X026840Y017516D01*
X026819Y017475D01*
X026795Y017435D01*
X026767Y017397D01*
X026736Y017362D01*
X026702Y017330D01*
X026666Y017301D01*
X026627Y017275D01*
X026587Y017252D01*
X026544Y017233D01*
X026500Y017217D01*
X026455Y017205D01*
X026409Y017197D01*
X026362Y017193D01*
X026316Y017193D01*
X026269Y017197D01*
X026223Y017205D01*
X026178Y017217D01*
X026134Y017233D01*
X026091Y017252D01*
X026051Y017275D01*
X026012Y017301D01*
X025976Y017330D01*
X025942Y017362D01*
X025911Y017397D01*
X025883Y017435D01*
X025859Y017475D01*
X025838Y017516D01*
X025820Y017560D01*
X025807Y017604D01*
X025797Y017650D01*
X025791Y017696D01*
X025789Y017743D01*
X020265Y021374D02*
X020190Y021299D01*
X020040Y021299D01*
X019965Y021374D01*
X019804Y021299D02*
X019504Y021299D01*
X019654Y021299D02*
X019654Y021750D01*
X019504Y021600D01*
X019344Y021675D02*
X019344Y021524D01*
X019269Y021449D01*
X019044Y021449D01*
X019044Y021299D02*
X019044Y021750D01*
X019269Y021750D01*
X019344Y021675D01*
X018884Y021750D02*
X018734Y021750D01*
X018809Y021750D02*
X018809Y021374D01*
X018734Y021299D01*
X018659Y021299D01*
X018584Y021374D01*
X019965Y021675D02*
X020040Y021750D01*
X020190Y021750D01*
X020265Y021675D01*
X020265Y021600D01*
X020190Y021524D01*
X020265Y021449D01*
X020265Y021374D01*
X020190Y021524D02*
X020115Y021524D01*
X017906Y015880D02*
X017981Y015805D01*
X017981Y015730D01*
X017906Y015654D01*
X017756Y015654D01*
X017681Y015730D01*
X017681Y015805D01*
X017756Y015880D01*
X017906Y015880D01*
X017521Y015805D02*
X017446Y015880D01*
X017295Y015880D01*
X017220Y015805D01*
X017220Y015504D01*
X017295Y015429D01*
X017446Y015429D01*
X017521Y015504D01*
X017681Y015504D02*
X017681Y015579D01*
X017756Y015654D01*
X017906Y015654D02*
X017981Y015579D01*
X017981Y015504D01*
X017906Y015429D01*
X017756Y015429D01*
X017681Y015504D01*
X017064Y015429D02*
X016914Y015429D01*
X016989Y015429D02*
X016989Y015880D01*
X016914Y015880D02*
X017064Y015880D01*
X017938Y014419D02*
X017863Y014344D01*
X017863Y014194D01*
X017938Y014119D01*
X017938Y013959D02*
X018088Y013959D01*
X018163Y013884D01*
X018163Y013658D01*
X018314Y013658D02*
X017863Y013658D01*
X017863Y013884D01*
X017938Y013959D01*
X018163Y013809D02*
X018314Y013959D01*
X018314Y014119D02*
X018013Y014419D01*
X017938Y014419D01*
X018314Y014419D02*
X018314Y014119D01*
X018314Y013498D02*
X018314Y013198D01*
X017863Y013198D01*
X017863Y013498D01*
X018088Y013348D02*
X018088Y013198D01*
X018163Y013038D02*
X017863Y013038D01*
X018163Y013038D02*
X018314Y012888D01*
X018163Y012738D01*
X017863Y012738D01*
X017863Y012581D02*
X017863Y012431D01*
X017863Y012506D02*
X018314Y012506D01*
X018314Y012431D02*
X018314Y012581D01*
X018314Y012271D02*
X018163Y012121D01*
X018163Y012196D02*
X018163Y011970D01*
X018314Y011970D02*
X017863Y011970D01*
X017863Y012196D01*
X017938Y012271D01*
X018088Y012271D01*
X018163Y012196D01*
X018238Y011810D02*
X017938Y011810D01*
X017863Y011735D01*
X017863Y011510D01*
X018314Y011510D01*
X018314Y011735D01*
X018238Y011810D01*
X012564Y011735D02*
X012564Y011510D01*
X012113Y011510D01*
X012113Y011735D01*
X012188Y011810D01*
X012488Y011810D01*
X012564Y011735D01*
X012564Y011970D02*
X012113Y011970D01*
X012113Y012196D01*
X012188Y012271D01*
X012338Y012271D01*
X012413Y012196D01*
X012413Y011970D01*
X012413Y012121D02*
X012564Y012271D01*
X012564Y012431D02*
X012564Y012581D01*
X012564Y012506D02*
X012113Y012506D01*
X012113Y012431D02*
X012113Y012581D01*
X012113Y012738D02*
X012413Y012738D01*
X012564Y012888D01*
X012413Y013038D01*
X012113Y013038D01*
X012113Y013198D02*
X012564Y013198D01*
X012564Y013498D01*
X012564Y013658D02*
X012113Y013658D01*
X012113Y013884D01*
X012188Y013959D01*
X012338Y013959D01*
X012413Y013884D01*
X012413Y013658D01*
X012413Y013809D02*
X012564Y013959D01*
X012564Y014119D02*
X012564Y014419D01*
X012564Y014269D02*
X012113Y014269D01*
X012263Y014119D01*
X012113Y013498D02*
X012113Y013198D01*
X012338Y013198D02*
X012338Y013348D01*
X011931Y015429D02*
X011931Y015504D01*
X012231Y015805D01*
X012231Y015880D01*
X011931Y015880D01*
X011771Y015805D02*
X011696Y015880D01*
X011545Y015880D01*
X011470Y015805D01*
X011470Y015504D01*
X011545Y015429D01*
X011696Y015429D01*
X011771Y015504D01*
X011314Y015429D02*
X011164Y015429D01*
X011239Y015429D02*
X011239Y015880D01*
X011164Y015880D02*
X011314Y015880D01*
X007784Y014449D02*
X007784Y014149D01*
X007483Y014449D01*
X007408Y014449D01*
X007333Y014374D01*
X007333Y014224D01*
X007408Y014149D01*
X007408Y013989D02*
X007558Y013989D01*
X007633Y013914D01*
X007633Y013689D01*
X007784Y013689D02*
X007333Y013689D01*
X007333Y013914D01*
X007408Y013989D01*
X007333Y013528D02*
X007333Y013378D01*
X007333Y013453D02*
X007708Y013453D01*
X007784Y013378D01*
X007784Y013303D01*
X007708Y013228D01*
X004723Y013534D02*
X004648Y013459D01*
X004498Y013459D01*
X004423Y013534D01*
X004723Y013835D01*
X004723Y013534D01*
X004723Y013805D02*
X004423Y013504D01*
X004423Y013429D01*
X004423Y013534D02*
X004423Y013835D01*
X004498Y013910D01*
X004648Y013910D01*
X004723Y013835D01*
X004723Y013805D02*
X004723Y013880D01*
X004423Y013880D01*
X004263Y013835D02*
X004188Y013910D01*
X004038Y013910D01*
X003963Y013835D01*
X003963Y013880D02*
X004188Y013880D01*
X004263Y013805D01*
X004263Y013654D01*
X004188Y013579D01*
X003963Y013579D01*
X003963Y013459D02*
X004263Y013760D01*
X004263Y013835D01*
X004113Y013579D02*
X004263Y013429D01*
X004263Y013459D02*
X003963Y013459D01*
X003963Y013429D02*
X003963Y013880D01*
X003803Y013835D02*
X003728Y013910D01*
X003577Y013910D01*
X003502Y013835D01*
X003803Y013835D02*
X003803Y013760D01*
X003502Y013459D01*
X003803Y013459D01*
X003963Y012630D02*
X004188Y012630D01*
X004263Y012555D01*
X004263Y012404D01*
X004188Y012329D01*
X003963Y012329D01*
X003963Y012335D02*
X004038Y012410D01*
X004188Y012410D01*
X004263Y012335D01*
X004263Y012260D01*
X003963Y011959D01*
X004263Y011959D01*
X004423Y012034D02*
X004423Y012335D01*
X004498Y012410D01*
X004648Y012410D01*
X004723Y012335D01*
X004423Y012034D01*
X004498Y011959D01*
X004648Y011959D01*
X004723Y012034D01*
X004723Y012335D01*
X004723Y012329D02*
X004648Y012404D01*
X004423Y012404D01*
X004423Y012254D01*
X004498Y012179D01*
X004648Y012179D01*
X004723Y012254D01*
X004723Y012329D01*
X004573Y012555D02*
X004423Y012404D01*
X004573Y012555D02*
X004723Y012630D01*
X004263Y012179D02*
X004113Y012329D01*
X003963Y012179D02*
X003963Y012630D01*
X003728Y012410D02*
X003577Y012410D01*
X003502Y012335D01*
X003728Y012410D02*
X003803Y012335D01*
X003803Y012260D01*
X003502Y011959D01*
X003803Y011959D01*
X003728Y011160D02*
X003577Y011160D01*
X003502Y011085D01*
X003728Y011160D02*
X003803Y011085D01*
X003803Y011010D01*
X003502Y010709D01*
X003803Y010709D01*
X003963Y010709D02*
X004263Y011010D01*
X004263Y011085D01*
X004188Y011160D01*
X004038Y011160D01*
X003963Y011085D01*
X003963Y011130D02*
X004188Y011130D01*
X004263Y011055D01*
X004263Y010904D01*
X004188Y010829D01*
X003963Y010829D01*
X003963Y010709D02*
X004263Y010709D01*
X004263Y010679D02*
X004113Y010829D01*
X003963Y010679D02*
X003963Y011130D01*
X004423Y011130D02*
X004423Y010904D01*
X004573Y010980D01*
X004648Y010980D01*
X004723Y010904D01*
X004723Y010754D01*
X004648Y010679D01*
X004498Y010679D01*
X004423Y010754D01*
X004423Y010784D02*
X004723Y011085D01*
X004723Y010784D01*
X004648Y010709D01*
X004498Y010709D01*
X004423Y010784D01*
X004423Y011085D01*
X004498Y011160D01*
X004648Y011160D01*
X004723Y011085D01*
X004723Y011130D02*
X004423Y011130D01*
X004648Y009880D02*
X004423Y009654D01*
X004723Y009654D01*
X004723Y009585D02*
X004423Y009284D01*
X004498Y009209D01*
X004648Y009209D01*
X004723Y009284D01*
X004723Y009585D01*
X004648Y009660D01*
X004498Y009660D01*
X004423Y009585D01*
X004423Y009284D01*
X004263Y009209D02*
X003963Y009209D01*
X004263Y009510D01*
X004263Y009585D01*
X004188Y009660D01*
X004038Y009660D01*
X003963Y009585D01*
X003963Y009579D02*
X004188Y009579D01*
X004263Y009654D01*
X004263Y009805D01*
X004188Y009880D01*
X003963Y009880D01*
X003963Y009429D01*
X003803Y009510D02*
X003502Y009209D01*
X003803Y009209D01*
X004113Y009579D02*
X004263Y009429D01*
X004648Y009429D02*
X004648Y009880D01*
X003803Y009585D02*
X003728Y009660D01*
X003577Y009660D01*
X003502Y009585D01*
X003803Y009585D02*
X003803Y009510D01*
X003728Y008410D02*
X003577Y008410D01*
X003502Y008335D01*
X003728Y008410D02*
X003803Y008335D01*
X003803Y008260D01*
X003502Y007959D01*
X003803Y007959D01*
X003963Y007959D02*
X004263Y008260D01*
X004263Y008335D01*
X004188Y008410D01*
X004038Y008410D01*
X003963Y008335D01*
X003963Y008380D02*
X004188Y008380D01*
X004263Y008305D01*
X004263Y008154D01*
X004188Y008079D01*
X003963Y008079D01*
X003963Y007959D02*
X004263Y007959D01*
X004263Y007929D02*
X004113Y008079D01*
X003963Y007929D02*
X003963Y008380D01*
X004423Y008335D02*
X004423Y008034D01*
X004723Y008335D01*
X004723Y008034D01*
X004648Y007959D01*
X004498Y007959D01*
X004423Y008034D01*
X004423Y008004D02*
X004498Y007929D01*
X004648Y007929D01*
X004723Y008004D01*
X004723Y008079D01*
X004648Y008154D01*
X004573Y008154D01*
X004648Y008154D02*
X004723Y008230D01*
X004723Y008305D01*
X004648Y008380D01*
X004498Y008380D01*
X004423Y008305D01*
X004423Y008335D02*
X004498Y008410D01*
X004648Y008410D01*
X004723Y008335D01*
X004648Y007130D02*
X004498Y007130D01*
X004423Y007055D01*
X004263Y007055D02*
X004188Y007130D01*
X003963Y007130D01*
X003963Y006679D01*
X003963Y006829D02*
X004188Y006829D01*
X004263Y006904D01*
X004263Y007055D01*
X004188Y006910D02*
X004038Y006910D01*
X003963Y006835D01*
X004113Y006829D02*
X004263Y006679D01*
X004263Y006760D02*
X004263Y006835D01*
X004188Y006910D01*
X004263Y006760D02*
X003963Y006459D01*
X004263Y006459D01*
X004423Y006534D02*
X004423Y006835D01*
X004498Y006910D01*
X004648Y006910D01*
X004723Y006835D01*
X004423Y006534D01*
X004498Y006459D01*
X004648Y006459D01*
X004723Y006534D01*
X004723Y006835D01*
X004723Y006980D02*
X004723Y007055D01*
X004648Y007130D01*
X004723Y006980D02*
X004423Y006679D01*
X004723Y006679D01*
X003803Y006760D02*
X003803Y006835D01*
X003728Y006910D01*
X003577Y006910D01*
X003502Y006835D01*
X003803Y006760D02*
X003502Y006459D01*
X003803Y006459D01*
X003963Y005630D02*
X004188Y005630D01*
X004263Y005555D01*
X004263Y005404D01*
X004188Y005329D01*
X003963Y005329D01*
X003963Y005179D02*
X003963Y005630D01*
X004113Y005329D02*
X004263Y005179D01*
X004423Y005179D02*
X004723Y005179D01*
X004573Y005179D02*
X004573Y005630D01*
X004423Y005480D01*
X001789Y006115D02*
X001791Y006162D01*
X001797Y006208D01*
X001807Y006254D01*
X001820Y006298D01*
X001838Y006342D01*
X001859Y006383D01*
X001883Y006423D01*
X001911Y006461D01*
X001942Y006496D01*
X001976Y006528D01*
X002012Y006557D01*
X002051Y006583D01*
X002091Y006606D01*
X002134Y006625D01*
X002178Y006641D01*
X002223Y006653D01*
X002269Y006661D01*
X002316Y006665D01*
X002362Y006665D01*
X002409Y006661D01*
X002455Y006653D01*
X002500Y006641D01*
X002544Y006625D01*
X002587Y006606D01*
X002627Y006583D01*
X002666Y006557D01*
X002702Y006528D01*
X002736Y006496D01*
X002767Y006461D01*
X002795Y006423D01*
X002819Y006383D01*
X002840Y006342D01*
X002858Y006298D01*
X002871Y006254D01*
X002881Y006208D01*
X002887Y006162D01*
X002889Y006115D01*
X002887Y006068D01*
X002881Y006022D01*
X002871Y005976D01*
X002858Y005932D01*
X002840Y005888D01*
X002819Y005847D01*
X002795Y005807D01*
X002767Y005769D01*
X002736Y005734D01*
X002702Y005702D01*
X002666Y005673D01*
X002627Y005647D01*
X002587Y005624D01*
X002544Y005605D01*
X002500Y005589D01*
X002455Y005577D01*
X002409Y005569D01*
X002362Y005565D01*
X002316Y005565D01*
X002269Y005569D01*
X002223Y005577D01*
X002178Y005589D01*
X002134Y005605D01*
X002091Y005624D01*
X002051Y005647D01*
X002012Y005673D01*
X001976Y005702D01*
X001942Y005734D01*
X001911Y005769D01*
X001883Y005807D01*
X001859Y005847D01*
X001838Y005888D01*
X001820Y005932D01*
X001807Y005976D01*
X001797Y006022D01*
X001791Y006068D01*
X001789Y006115D01*
X001789Y007493D02*
X001791Y007540D01*
X001797Y007586D01*
X001807Y007632D01*
X001820Y007676D01*
X001838Y007720D01*
X001859Y007761D01*
X001883Y007801D01*
X001911Y007839D01*
X001942Y007874D01*
X001976Y007906D01*
X002012Y007935D01*
X002051Y007961D01*
X002091Y007984D01*
X002134Y008003D01*
X002178Y008019D01*
X002223Y008031D01*
X002269Y008039D01*
X002316Y008043D01*
X002362Y008043D01*
X002409Y008039D01*
X002455Y008031D01*
X002500Y008019D01*
X002544Y008003D01*
X002587Y007984D01*
X002627Y007961D01*
X002666Y007935D01*
X002702Y007906D01*
X002736Y007874D01*
X002767Y007839D01*
X002795Y007801D01*
X002819Y007761D01*
X002840Y007720D01*
X002858Y007676D01*
X002871Y007632D01*
X002881Y007586D01*
X002887Y007540D01*
X002889Y007493D01*
X002887Y007446D01*
X002881Y007400D01*
X002871Y007354D01*
X002858Y007310D01*
X002840Y007266D01*
X002819Y007225D01*
X002795Y007185D01*
X002767Y007147D01*
X002736Y007112D01*
X002702Y007080D01*
X002666Y007051D01*
X002627Y007025D01*
X002587Y007002D01*
X002544Y006983D01*
X002500Y006967D01*
X002455Y006955D01*
X002409Y006947D01*
X002362Y006943D01*
X002316Y006943D01*
X002269Y006947D01*
X002223Y006955D01*
X002178Y006967D01*
X002134Y006983D01*
X002091Y007002D01*
X002051Y007025D01*
X002012Y007051D01*
X001976Y007080D01*
X001942Y007112D01*
X001911Y007147D01*
X001883Y007185D01*
X001859Y007225D01*
X001838Y007266D01*
X001820Y007310D01*
X001807Y007354D01*
X001797Y007400D01*
X001791Y007446D01*
X001789Y007493D01*
X001789Y008865D02*
X001791Y008912D01*
X001797Y008958D01*
X001807Y009004D01*
X001820Y009048D01*
X001838Y009092D01*
X001859Y009133D01*
X001883Y009173D01*
X001911Y009211D01*
X001942Y009246D01*
X001976Y009278D01*
X002012Y009307D01*
X002051Y009333D01*
X002091Y009356D01*
X002134Y009375D01*
X002178Y009391D01*
X002223Y009403D01*
X002269Y009411D01*
X002316Y009415D01*
X002362Y009415D01*
X002409Y009411D01*
X002455Y009403D01*
X002500Y009391D01*
X002544Y009375D01*
X002587Y009356D01*
X002627Y009333D01*
X002666Y009307D01*
X002702Y009278D01*
X002736Y009246D01*
X002767Y009211D01*
X002795Y009173D01*
X002819Y009133D01*
X002840Y009092D01*
X002858Y009048D01*
X002871Y009004D01*
X002881Y008958D01*
X002887Y008912D01*
X002889Y008865D01*
X002887Y008818D01*
X002881Y008772D01*
X002871Y008726D01*
X002858Y008682D01*
X002840Y008638D01*
X002819Y008597D01*
X002795Y008557D01*
X002767Y008519D01*
X002736Y008484D01*
X002702Y008452D01*
X002666Y008423D01*
X002627Y008397D01*
X002587Y008374D01*
X002544Y008355D01*
X002500Y008339D01*
X002455Y008327D01*
X002409Y008319D01*
X002362Y008315D01*
X002316Y008315D01*
X002269Y008319D01*
X002223Y008327D01*
X002178Y008339D01*
X002134Y008355D01*
X002091Y008374D01*
X002051Y008397D01*
X002012Y008423D01*
X001976Y008452D01*
X001942Y008484D01*
X001911Y008519D01*
X001883Y008557D01*
X001859Y008597D01*
X001838Y008638D01*
X001820Y008682D01*
X001807Y008726D01*
X001797Y008772D01*
X001791Y008818D01*
X001789Y008865D01*
X001789Y010243D02*
X001791Y010290D01*
X001797Y010336D01*
X001807Y010382D01*
X001820Y010426D01*
X001838Y010470D01*
X001859Y010511D01*
X001883Y010551D01*
X001911Y010589D01*
X001942Y010624D01*
X001976Y010656D01*
X002012Y010685D01*
X002051Y010711D01*
X002091Y010734D01*
X002134Y010753D01*
X002178Y010769D01*
X002223Y010781D01*
X002269Y010789D01*
X002316Y010793D01*
X002362Y010793D01*
X002409Y010789D01*
X002455Y010781D01*
X002500Y010769D01*
X002544Y010753D01*
X002587Y010734D01*
X002627Y010711D01*
X002666Y010685D01*
X002702Y010656D01*
X002736Y010624D01*
X002767Y010589D01*
X002795Y010551D01*
X002819Y010511D01*
X002840Y010470D01*
X002858Y010426D01*
X002871Y010382D01*
X002881Y010336D01*
X002887Y010290D01*
X002889Y010243D01*
X002887Y010196D01*
X002881Y010150D01*
X002871Y010104D01*
X002858Y010060D01*
X002840Y010016D01*
X002819Y009975D01*
X002795Y009935D01*
X002767Y009897D01*
X002736Y009862D01*
X002702Y009830D01*
X002666Y009801D01*
X002627Y009775D01*
X002587Y009752D01*
X002544Y009733D01*
X002500Y009717D01*
X002455Y009705D01*
X002409Y009697D01*
X002362Y009693D01*
X002316Y009693D01*
X002269Y009697D01*
X002223Y009705D01*
X002178Y009717D01*
X002134Y009733D01*
X002091Y009752D01*
X002051Y009775D01*
X002012Y009801D01*
X001976Y009830D01*
X001942Y009862D01*
X001911Y009897D01*
X001883Y009935D01*
X001859Y009975D01*
X001838Y010016D01*
X001820Y010060D01*
X001807Y010104D01*
X001797Y010150D01*
X001791Y010196D01*
X001789Y010243D01*
X001789Y011615D02*
X001791Y011662D01*
X001797Y011708D01*
X001807Y011754D01*
X001820Y011798D01*
X001838Y011842D01*
X001859Y011883D01*
X001883Y011923D01*
X001911Y011961D01*
X001942Y011996D01*
X001976Y012028D01*
X002012Y012057D01*
X002051Y012083D01*
X002091Y012106D01*
X002134Y012125D01*
X002178Y012141D01*
X002223Y012153D01*
X002269Y012161D01*
X002316Y012165D01*
X002362Y012165D01*
X002409Y012161D01*
X002455Y012153D01*
X002500Y012141D01*
X002544Y012125D01*
X002587Y012106D01*
X002627Y012083D01*
X002666Y012057D01*
X002702Y012028D01*
X002736Y011996D01*
X002767Y011961D01*
X002795Y011923D01*
X002819Y011883D01*
X002840Y011842D01*
X002858Y011798D01*
X002871Y011754D01*
X002881Y011708D01*
X002887Y011662D01*
X002889Y011615D01*
X002887Y011568D01*
X002881Y011522D01*
X002871Y011476D01*
X002858Y011432D01*
X002840Y011388D01*
X002819Y011347D01*
X002795Y011307D01*
X002767Y011269D01*
X002736Y011234D01*
X002702Y011202D01*
X002666Y011173D01*
X002627Y011147D01*
X002587Y011124D01*
X002544Y011105D01*
X002500Y011089D01*
X002455Y011077D01*
X002409Y011069D01*
X002362Y011065D01*
X002316Y011065D01*
X002269Y011069D01*
X002223Y011077D01*
X002178Y011089D01*
X002134Y011105D01*
X002091Y011124D01*
X002051Y011147D01*
X002012Y011173D01*
X001976Y011202D01*
X001942Y011234D01*
X001911Y011269D01*
X001883Y011307D01*
X001859Y011347D01*
X001838Y011388D01*
X001820Y011432D01*
X001807Y011476D01*
X001797Y011522D01*
X001791Y011568D01*
X001789Y011615D01*
X001789Y012993D02*
X001791Y013040D01*
X001797Y013086D01*
X001807Y013132D01*
X001820Y013176D01*
X001838Y013220D01*
X001859Y013261D01*
X001883Y013301D01*
X001911Y013339D01*
X001942Y013374D01*
X001976Y013406D01*
X002012Y013435D01*
X002051Y013461D01*
X002091Y013484D01*
X002134Y013503D01*
X002178Y013519D01*
X002223Y013531D01*
X002269Y013539D01*
X002316Y013543D01*
X002362Y013543D01*
X002409Y013539D01*
X002455Y013531D01*
X002500Y013519D01*
X002544Y013503D01*
X002587Y013484D01*
X002627Y013461D01*
X002666Y013435D01*
X002702Y013406D01*
X002736Y013374D01*
X002767Y013339D01*
X002795Y013301D01*
X002819Y013261D01*
X002840Y013220D01*
X002858Y013176D01*
X002871Y013132D01*
X002881Y013086D01*
X002887Y013040D01*
X002889Y012993D01*
X002887Y012946D01*
X002881Y012900D01*
X002871Y012854D01*
X002858Y012810D01*
X002840Y012766D01*
X002819Y012725D01*
X002795Y012685D01*
X002767Y012647D01*
X002736Y012612D01*
X002702Y012580D01*
X002666Y012551D01*
X002627Y012525D01*
X002587Y012502D01*
X002544Y012483D01*
X002500Y012467D01*
X002455Y012455D01*
X002409Y012447D01*
X002362Y012443D01*
X002316Y012443D01*
X002269Y012447D01*
X002223Y012455D01*
X002178Y012467D01*
X002134Y012483D01*
X002091Y012502D01*
X002051Y012525D01*
X002012Y012551D01*
X001976Y012580D01*
X001942Y012612D01*
X001911Y012647D01*
X001883Y012685D01*
X001859Y012725D01*
X001838Y012766D01*
X001820Y012810D01*
X001807Y012854D01*
X001797Y012900D01*
X001791Y012946D01*
X001789Y012993D01*
X001789Y014365D02*
X001791Y014412D01*
X001797Y014458D01*
X001807Y014504D01*
X001820Y014548D01*
X001838Y014592D01*
X001859Y014633D01*
X001883Y014673D01*
X001911Y014711D01*
X001942Y014746D01*
X001976Y014778D01*
X002012Y014807D01*
X002051Y014833D01*
X002091Y014856D01*
X002134Y014875D01*
X002178Y014891D01*
X002223Y014903D01*
X002269Y014911D01*
X002316Y014915D01*
X002362Y014915D01*
X002409Y014911D01*
X002455Y014903D01*
X002500Y014891D01*
X002544Y014875D01*
X002587Y014856D01*
X002627Y014833D01*
X002666Y014807D01*
X002702Y014778D01*
X002736Y014746D01*
X002767Y014711D01*
X002795Y014673D01*
X002819Y014633D01*
X002840Y014592D01*
X002858Y014548D01*
X002871Y014504D01*
X002881Y014458D01*
X002887Y014412D01*
X002889Y014365D01*
X002887Y014318D01*
X002881Y014272D01*
X002871Y014226D01*
X002858Y014182D01*
X002840Y014138D01*
X002819Y014097D01*
X002795Y014057D01*
X002767Y014019D01*
X002736Y013984D01*
X002702Y013952D01*
X002666Y013923D01*
X002627Y013897D01*
X002587Y013874D01*
X002544Y013855D01*
X002500Y013839D01*
X002455Y013827D01*
X002409Y013819D01*
X002362Y013815D01*
X002316Y013815D01*
X002269Y013819D01*
X002223Y013827D01*
X002178Y013839D01*
X002134Y013855D01*
X002091Y013874D01*
X002051Y013897D01*
X002012Y013923D01*
X001976Y013952D01*
X001942Y013984D01*
X001911Y014019D01*
X001883Y014057D01*
X001859Y014097D01*
X001838Y014138D01*
X001820Y014182D01*
X001807Y014226D01*
X001797Y014272D01*
X001791Y014318D01*
X001789Y014365D01*
X001789Y015743D02*
X001791Y015790D01*
X001797Y015836D01*
X001807Y015882D01*
X001820Y015926D01*
X001838Y015970D01*
X001859Y016011D01*
X001883Y016051D01*
X001911Y016089D01*
X001942Y016124D01*
X001976Y016156D01*
X002012Y016185D01*
X002051Y016211D01*
X002091Y016234D01*
X002134Y016253D01*
X002178Y016269D01*
X002223Y016281D01*
X002269Y016289D01*
X002316Y016293D01*
X002362Y016293D01*
X002409Y016289D01*
X002455Y016281D01*
X002500Y016269D01*
X002544Y016253D01*
X002587Y016234D01*
X002627Y016211D01*
X002666Y016185D01*
X002702Y016156D01*
X002736Y016124D01*
X002767Y016089D01*
X002795Y016051D01*
X002819Y016011D01*
X002840Y015970D01*
X002858Y015926D01*
X002871Y015882D01*
X002881Y015836D01*
X002887Y015790D01*
X002889Y015743D01*
X002887Y015696D01*
X002881Y015650D01*
X002871Y015604D01*
X002858Y015560D01*
X002840Y015516D01*
X002819Y015475D01*
X002795Y015435D01*
X002767Y015397D01*
X002736Y015362D01*
X002702Y015330D01*
X002666Y015301D01*
X002627Y015275D01*
X002587Y015252D01*
X002544Y015233D01*
X002500Y015217D01*
X002455Y015205D01*
X002409Y015197D01*
X002362Y015193D01*
X002316Y015193D01*
X002269Y015197D01*
X002223Y015205D01*
X002178Y015217D01*
X002134Y015233D01*
X002091Y015252D01*
X002051Y015275D01*
X002012Y015301D01*
X001976Y015330D01*
X001942Y015362D01*
X001911Y015397D01*
X001883Y015435D01*
X001859Y015475D01*
X001838Y015516D01*
X001820Y015560D01*
X001807Y015604D01*
X001797Y015650D01*
X001791Y015696D01*
X001789Y015743D01*
X003502Y016209D02*
X003803Y016510D01*
X003803Y016585D01*
X003728Y016660D01*
X003577Y016660D01*
X003502Y016585D01*
X003963Y016585D02*
X004038Y016660D01*
X004188Y016660D01*
X004263Y016585D01*
X004263Y016510D01*
X003963Y016209D01*
X004263Y016209D01*
X004423Y016284D02*
X004723Y016585D01*
X004723Y016284D01*
X004648Y016209D01*
X004498Y016209D01*
X004423Y016284D01*
X004423Y016585D01*
X004498Y016660D01*
X004648Y016660D01*
X004723Y016585D01*
X003803Y016209D02*
X003502Y016209D01*
X003963Y015380D02*
X004188Y015380D01*
X004263Y015305D01*
X004263Y015154D01*
X004188Y015079D01*
X003963Y015079D01*
X003963Y015085D02*
X004038Y015160D01*
X004188Y015160D01*
X004263Y015085D01*
X004263Y015010D01*
X003963Y014709D01*
X004263Y014709D01*
X004423Y014784D02*
X004723Y015085D01*
X004723Y014784D01*
X004648Y014709D01*
X004498Y014709D01*
X004423Y014784D01*
X004423Y015085D01*
X004498Y015160D01*
X004648Y015160D01*
X004723Y015085D01*
X004723Y015079D02*
X004723Y015004D01*
X004648Y014929D01*
X004498Y014929D01*
X004423Y015004D01*
X004423Y015079D01*
X004498Y015154D01*
X004648Y015154D01*
X004723Y015079D01*
X004648Y015154D02*
X004723Y015230D01*
X004723Y015305D01*
X004648Y015380D01*
X004498Y015380D01*
X004423Y015305D01*
X004423Y015230D01*
X004498Y015154D01*
X004263Y014929D02*
X004113Y015079D01*
X003963Y014929D02*
X003963Y015380D01*
X003728Y015160D02*
X003577Y015160D01*
X003502Y015085D01*
X003728Y015160D02*
X003803Y015085D01*
X003803Y015010D01*
X003502Y014709D01*
X003803Y014709D01*
X010059Y021299D02*
X010134Y021299D01*
X010209Y021374D01*
X010209Y021750D01*
X010134Y021750D02*
X010284Y021750D01*
X010444Y021750D02*
X010669Y021750D01*
X010744Y021675D01*
X010744Y021524D01*
X010669Y021449D01*
X010444Y021449D01*
X010444Y021299D02*
X010444Y021750D01*
X010904Y021600D02*
X011054Y021750D01*
X011054Y021299D01*
X010904Y021299D02*
X011204Y021299D01*
X011365Y021374D02*
X011440Y021299D01*
X011590Y021299D01*
X011665Y021374D01*
X011665Y021524D01*
X011590Y021600D01*
X011515Y021600D01*
X011365Y021524D01*
X011365Y021750D01*
X011665Y021750D01*
X010059Y021299D02*
X009984Y021374D01*
X013863Y005790D02*
X013938Y005640D01*
X014088Y005490D01*
X014088Y005715D01*
X014163Y005790D01*
X014238Y005790D01*
X014314Y005715D01*
X014314Y005565D01*
X014238Y005490D01*
X014088Y005490D01*
X013938Y005330D02*
X013863Y005254D01*
X013863Y005104D01*
X013938Y005029D01*
X014238Y005029D01*
X014314Y005104D01*
X014314Y005254D01*
X014238Y005330D01*
X015302Y004740D02*
X015527Y004740D01*
X015602Y004665D01*
X015602Y004514D01*
X015527Y004439D01*
X015302Y004439D01*
X015302Y004289D02*
X015302Y004740D01*
X015762Y004665D02*
X015762Y004364D01*
X015837Y004289D01*
X015987Y004289D01*
X016062Y004364D01*
X016062Y004665D01*
X015987Y004740D01*
X015837Y004740D01*
X015762Y004665D01*
X016222Y004740D02*
X016222Y004289D01*
X016372Y004439D01*
X016523Y004289D01*
X016523Y004740D01*
X016480Y004587D02*
X016707Y004360D01*
X016764Y004417D01*
X016764Y004530D01*
X016707Y004587D01*
X016480Y004587D01*
X016423Y004530D01*
X016423Y004417D01*
X016480Y004360D01*
X016707Y004360D01*
X016683Y004289D02*
X016983Y004289D01*
X017143Y004289D02*
X017143Y004740D01*
X017368Y004740D01*
X017443Y004665D01*
X017443Y004514D01*
X017368Y004439D01*
X017143Y004439D01*
X017123Y004418D02*
X017180Y004361D01*
X017123Y004418D02*
X017123Y004531D01*
X017180Y004588D01*
X017237Y004588D01*
X017464Y004361D01*
X017464Y004588D01*
X017464Y004720D02*
X017407Y004720D01*
X017180Y004947D01*
X017123Y004947D01*
X017123Y004720D01*
X016983Y004740D02*
X016683Y004740D01*
X016683Y004289D01*
X016764Y004228D02*
X016764Y004001D01*
X016537Y004228D01*
X016480Y004228D01*
X016423Y004171D01*
X016423Y004058D01*
X016480Y004001D01*
X016480Y003869D02*
X016423Y003812D01*
X016423Y003699D01*
X016480Y003642D01*
X016382Y003594D02*
X016232Y003594D01*
X016232Y003369D02*
X016533Y003369D01*
X016693Y003369D02*
X016918Y003369D01*
X016993Y003444D01*
X016993Y003745D01*
X016918Y003820D01*
X016693Y003820D01*
X016693Y003369D01*
X016764Y003642D02*
X016537Y003869D01*
X016480Y003869D01*
X016533Y003820D02*
X016232Y003820D01*
X016232Y003369D01*
X016072Y003369D02*
X015772Y003369D01*
X015772Y003820D01*
X016764Y003869D02*
X016764Y003642D01*
X017153Y003594D02*
X017153Y003820D01*
X017453Y003820D01*
X017378Y003670D02*
X017453Y003594D01*
X017453Y003444D01*
X017378Y003369D01*
X017228Y003369D01*
X017153Y003444D01*
X017153Y003594D02*
X017303Y003670D01*
X017378Y003670D01*
X017350Y004002D02*
X017350Y004172D01*
X017293Y004229D01*
X017180Y004229D01*
X017123Y004172D01*
X017123Y004002D01*
X017464Y004002D01*
X017350Y004115D02*
X017464Y004229D01*
X017443Y004289D02*
X017293Y004439D01*
X016833Y004514D02*
X016683Y004514D01*
X015265Y002750D02*
X014965Y002750D01*
X015265Y002750D02*
X015265Y002675D01*
X014965Y002374D01*
X014965Y002299D01*
X014804Y002299D02*
X014504Y002299D01*
X014654Y002299D02*
X014654Y002750D01*
X014504Y002600D01*
X014344Y002675D02*
X014344Y002524D01*
X014269Y002449D01*
X014044Y002449D01*
X014044Y002299D02*
X014044Y002750D01*
X014269Y002750D01*
X014344Y002675D01*
X013884Y002750D02*
X013734Y002750D01*
X013809Y002750D02*
X013809Y002374D01*
X013734Y002299D01*
X013659Y002299D01*
X013584Y002374D01*
X012708Y003728D02*
X012784Y003803D01*
X012784Y003878D01*
X012708Y003953D01*
X012333Y003953D01*
X012333Y003878D02*
X012333Y004028D01*
X012333Y004189D02*
X012333Y004414D01*
X012408Y004489D01*
X012558Y004489D01*
X012633Y004414D01*
X012633Y004189D01*
X012784Y004189D02*
X012333Y004189D01*
X012558Y004649D02*
X012558Y004949D01*
X012333Y004874D02*
X012784Y004874D01*
X012558Y004649D02*
X012333Y004874D01*
X010784Y004874D02*
X010784Y004724D01*
X010708Y004649D01*
X010558Y004799D02*
X010558Y004874D01*
X010633Y004949D01*
X010708Y004949D01*
X010784Y004874D01*
X010558Y004874D02*
X010483Y004949D01*
X010408Y004949D01*
X010333Y004874D01*
X010333Y004724D01*
X010408Y004649D01*
X010408Y004489D02*
X010558Y004489D01*
X010633Y004414D01*
X010633Y004189D01*
X010784Y004189D02*
X010333Y004189D01*
X010333Y004414D01*
X010408Y004489D01*
X010333Y004028D02*
X010333Y003878D01*
X010333Y003953D02*
X010708Y003953D01*
X010784Y003878D01*
X010784Y003803D01*
X010708Y003728D01*
X006265Y002750D02*
X006115Y002675D01*
X005965Y002524D01*
X006190Y002524D01*
X006265Y002449D01*
X006265Y002374D01*
X006190Y002299D01*
X006040Y002299D01*
X005965Y002374D01*
X005965Y002524D01*
X005804Y002299D02*
X005504Y002299D01*
X005654Y002299D02*
X005654Y002750D01*
X005504Y002600D01*
X005344Y002675D02*
X005344Y002524D01*
X005269Y002449D01*
X005044Y002449D01*
X005044Y002299D02*
X005044Y002750D01*
X005269Y002750D01*
X005344Y002675D01*
X004884Y002750D02*
X004734Y002750D01*
X004809Y002750D02*
X004809Y002374D01*
X004734Y002299D01*
X004659Y002299D01*
X004584Y002374D01*
X020584Y002374D02*
X020659Y002299D01*
X020734Y002299D01*
X020809Y002374D01*
X020809Y002750D01*
X020734Y002750D02*
X020884Y002750D01*
X021044Y002750D02*
X021269Y002750D01*
X021344Y002675D01*
X021344Y002524D01*
X021269Y002449D01*
X021044Y002449D01*
X021044Y002299D02*
X021044Y002750D01*
X021504Y002600D02*
X021654Y002750D01*
X021654Y002299D01*
X021504Y002299D02*
X021804Y002299D01*
X021965Y002524D02*
X022265Y002524D01*
X022190Y002299D02*
X022190Y002750D01*
X021965Y002524D01*
D14*
X026634Y005472D02*
X026043Y006259D01*
X026634Y006850D02*
X026043Y007637D01*
X026634Y008222D02*
X026043Y009009D01*
X026634Y009600D02*
X026043Y010387D01*
X026634Y010972D02*
X026043Y011759D01*
X026634Y012350D02*
X026043Y013137D01*
X026634Y015972D02*
X026043Y016759D01*
X026634Y017350D02*
X026043Y018137D01*
X002634Y015350D02*
X002043Y016137D01*
X002043Y014759D02*
X002634Y013972D01*
X002043Y013387D02*
X002634Y012600D01*
X002043Y012009D02*
X002634Y011222D01*
X002043Y010637D02*
X002634Y009850D01*
X002043Y009259D02*
X002634Y008472D01*
X002043Y007887D02*
X002634Y007100D01*
X002043Y006509D02*
X002634Y005722D01*
D15*
X003165Y005426D02*
X003165Y008182D01*
X003677Y008182D01*
X003677Y005426D01*
X003165Y005426D01*
X001551Y005426D01*
X001551Y008182D01*
X003165Y008182D01*
X003165Y008176D02*
X003165Y010932D01*
X003677Y010932D01*
X003677Y008176D01*
X003165Y008176D01*
X001551Y008176D01*
X001551Y010932D01*
X003165Y010932D01*
X003165Y010926D02*
X003165Y013682D01*
X003677Y013682D01*
X003677Y010926D01*
X003165Y010926D01*
X001551Y010926D01*
X001551Y013682D01*
X003165Y013682D01*
X003165Y013676D02*
X003165Y016432D01*
X003677Y016432D01*
X003677Y013676D01*
X003165Y013676D01*
X001551Y013676D01*
X001551Y016432D01*
X003165Y016432D01*
X003677Y016432D02*
X003835Y016432D01*
X003835Y013676D01*
X003677Y013676D01*
X003677Y013682D02*
X003835Y013682D01*
X003835Y010926D01*
X003677Y010926D01*
X003677Y010932D02*
X003835Y010932D01*
X003835Y008176D01*
X003677Y008176D01*
X003677Y008182D02*
X003835Y008182D01*
X003835Y005426D01*
X003677Y005426D01*
X001551Y005426D02*
X001276Y005426D01*
X001276Y008182D01*
X001551Y008182D01*
X001551Y008176D02*
X001276Y008176D01*
X001276Y010932D01*
X001551Y010932D01*
X001551Y010926D02*
X001276Y010926D01*
X001276Y013682D01*
X001551Y013682D01*
X001551Y013676D02*
X001276Y013676D01*
X001276Y016432D01*
X001551Y016432D01*
X025276Y015676D02*
X025551Y015676D01*
X025551Y018432D01*
X027165Y018432D01*
X027677Y018432D01*
X027677Y015676D01*
X027165Y015676D01*
X027165Y018432D01*
X027677Y018432D02*
X027835Y018432D01*
X027835Y015676D01*
X027677Y015676D01*
X027165Y015676D02*
X025551Y015676D01*
X025276Y015676D02*
X025276Y018432D01*
X025551Y018432D01*
X025551Y013432D02*
X025276Y013432D01*
X025276Y010676D01*
X025551Y010676D01*
X025551Y013432D01*
X027165Y013432D01*
X027677Y013432D01*
X027677Y010676D01*
X027165Y010676D01*
X027165Y013432D01*
X027677Y013432D02*
X027835Y013432D01*
X027835Y010676D01*
X027677Y010676D01*
X027677Y010682D02*
X027165Y010682D01*
X027165Y007926D01*
X025551Y007926D01*
X025551Y010682D01*
X027165Y010682D01*
X027165Y010676D02*
X025551Y010676D01*
X025551Y010682D02*
X025276Y010682D01*
X025276Y007926D01*
X025551Y007926D01*
X025551Y007932D02*
X025551Y005176D01*
X025276Y005176D01*
X025276Y007932D01*
X025551Y007932D01*
X027165Y007932D01*
X027677Y007932D01*
X027677Y005176D01*
X027165Y005176D01*
X027165Y007932D01*
X027165Y007926D02*
X027677Y007926D01*
X027677Y010682D01*
X027835Y010682D01*
X027835Y007926D01*
X027677Y007926D01*
X027677Y007932D02*
X027835Y007932D01*
X027835Y005176D01*
X027677Y005176D01*
X027165Y005176D02*
X025551Y005176D01*
D16*
X027298Y005841D02*
X027578Y005841D01*
X027578Y005748D02*
X027578Y005934D01*
X027392Y005748D02*
X027298Y005841D01*
X027345Y007126D02*
X027298Y007172D01*
X027298Y007266D01*
X027345Y007312D01*
X027392Y007312D01*
X027578Y007126D01*
X027578Y007312D01*
X027578Y008498D02*
X027578Y008684D01*
X027578Y008591D02*
X027298Y008591D01*
X027392Y008498D01*
X027345Y009876D02*
X027298Y009922D01*
X027298Y010016D01*
X027345Y010062D01*
X027392Y010062D01*
X027578Y009876D01*
X027578Y010062D01*
X027578Y011248D02*
X027578Y011434D01*
X027578Y011341D02*
X027298Y011341D01*
X027392Y011248D01*
X027345Y012626D02*
X027298Y012672D01*
X027298Y012766D01*
X027345Y012812D01*
X027392Y012812D01*
X027578Y012626D01*
X027578Y012812D01*
X027578Y016248D02*
X027578Y016434D01*
X027578Y016341D02*
X027298Y016341D01*
X027392Y016248D01*
X027345Y017626D02*
X027298Y017672D01*
X027298Y017766D01*
X027345Y017812D01*
X027392Y017812D01*
X027578Y017626D01*
X027578Y017812D01*
X022445Y019324D02*
X022138Y019324D01*
X022291Y019324D02*
X022291Y019785D01*
X022138Y019631D01*
X021984Y019785D02*
X021831Y019785D01*
X021908Y019785D02*
X021908Y019401D01*
X021831Y019324D01*
X021754Y019324D01*
X021678Y019401D01*
X021524Y019248D02*
X021217Y019248D01*
X021064Y019401D02*
X021064Y019708D01*
X020987Y019785D01*
X020757Y019785D01*
X020757Y019324D01*
X020987Y019324D01*
X021064Y019401D01*
X020603Y019324D02*
X020296Y019324D01*
X020296Y019785D01*
X020143Y019785D02*
X019836Y019785D01*
X019836Y019324D01*
X020143Y019324D01*
X019990Y019554D02*
X019836Y019554D01*
X019683Y019324D02*
X019529Y019324D01*
X019606Y019324D02*
X019606Y019785D01*
X019529Y019785D02*
X019683Y019785D01*
X019376Y019785D02*
X019376Y019324D01*
X019376Y019554D02*
X019069Y019554D01*
X018915Y019478D02*
X018915Y019401D01*
X018839Y019324D01*
X018685Y019324D01*
X018609Y019401D01*
X018685Y019554D02*
X018839Y019554D01*
X018915Y019478D01*
X019069Y019324D02*
X019069Y019785D01*
X018915Y019708D02*
X018839Y019785D01*
X018685Y019785D01*
X018609Y019708D01*
X018609Y019631D01*
X018685Y019554D01*
X013845Y019478D02*
X013845Y019401D01*
X013768Y019324D01*
X013615Y019324D01*
X013538Y019401D01*
X013691Y019554D02*
X013768Y019554D01*
X013845Y019478D01*
X013768Y019554D02*
X013845Y019631D01*
X013845Y019708D01*
X013768Y019785D01*
X013615Y019785D01*
X013538Y019708D01*
X013384Y019785D02*
X013231Y019785D01*
X013308Y019785D02*
X013308Y019401D01*
X013231Y019324D01*
X013154Y019324D01*
X013078Y019401D01*
X012924Y019248D02*
X012617Y019248D01*
X012464Y019401D02*
X012464Y019708D01*
X012387Y019785D01*
X012157Y019785D01*
X012157Y019324D01*
X012387Y019324D01*
X012464Y019401D01*
X012003Y019324D02*
X011696Y019324D01*
X011696Y019785D01*
X011543Y019785D02*
X011236Y019785D01*
X011236Y019324D01*
X011543Y019324D01*
X011390Y019554D02*
X011236Y019554D01*
X011083Y019324D02*
X010929Y019324D01*
X011006Y019324D02*
X011006Y019785D01*
X010929Y019785D02*
X011083Y019785D01*
X010776Y019785D02*
X010776Y019324D01*
X010776Y019554D02*
X010469Y019554D01*
X010315Y019478D02*
X010315Y019401D01*
X010239Y019324D01*
X010085Y019324D01*
X010009Y019401D01*
X010085Y019554D02*
X010239Y019554D01*
X010315Y019478D01*
X010469Y019324D02*
X010469Y019785D01*
X010315Y019708D02*
X010239Y019785D01*
X010085Y019785D01*
X010009Y019708D01*
X010009Y019631D01*
X010085Y019554D01*
X003578Y015812D02*
X003578Y015626D01*
X003392Y015812D01*
X003345Y015812D01*
X003298Y015766D01*
X003298Y015672D01*
X003345Y015626D01*
X003578Y014434D02*
X003578Y014248D01*
X003578Y014341D02*
X003298Y014341D01*
X003392Y014248D01*
X003392Y013062D02*
X003345Y013062D01*
X003298Y013016D01*
X003298Y012922D01*
X003345Y012876D01*
X003392Y013062D02*
X003578Y012876D01*
X003578Y013062D01*
X005358Y012963D02*
X005435Y013040D01*
X005742Y013040D01*
X005819Y012963D01*
X005819Y012809D01*
X005742Y012733D01*
X005435Y012733D01*
X005358Y012809D01*
X005358Y012963D01*
X005358Y013193D02*
X005742Y013193D01*
X005819Y013270D01*
X005819Y013423D01*
X005742Y013500D01*
X005358Y013500D01*
X005358Y013654D02*
X005358Y013960D01*
X005358Y013807D02*
X005819Y013807D01*
X005819Y014114D02*
X005819Y014421D01*
X005819Y014267D02*
X005358Y014267D01*
X005512Y014114D01*
X003578Y011684D02*
X003578Y011498D01*
X003578Y011591D02*
X003298Y011591D01*
X003392Y011498D01*
X003392Y010312D02*
X003345Y010312D01*
X003298Y010266D01*
X003298Y010172D01*
X003345Y010126D01*
X003392Y010312D02*
X003578Y010126D01*
X003578Y010312D01*
X003578Y008934D02*
X003578Y008748D01*
X003578Y008841D02*
X003298Y008841D01*
X003392Y008748D01*
X003392Y007562D02*
X003345Y007562D01*
X003298Y007516D01*
X003298Y007422D01*
X003345Y007376D01*
X003392Y007562D02*
X003578Y007376D01*
X003578Y007562D01*
X003578Y006184D02*
X003578Y005998D01*
X003578Y006091D02*
X003298Y006091D01*
X003392Y005998D01*
X004609Y000785D02*
X004762Y000785D01*
X004685Y000785D02*
X004685Y000324D01*
X004609Y000324D02*
X004762Y000324D01*
X004915Y000401D02*
X004992Y000324D01*
X005146Y000324D01*
X005222Y000401D01*
X005222Y000708D01*
X005146Y000785D01*
X004992Y000785D01*
X004915Y000708D01*
X004915Y000401D01*
X005376Y000248D02*
X005683Y000248D01*
X005836Y000401D02*
X005913Y000324D01*
X005990Y000324D01*
X006066Y000401D01*
X006066Y000785D01*
X005990Y000785D02*
X006143Y000785D01*
X006296Y000631D02*
X006450Y000785D01*
X006450Y000324D01*
X006603Y000324D02*
X006296Y000324D01*
X013609Y000324D02*
X013609Y000785D01*
X013839Y000785D01*
X013915Y000708D01*
X013915Y000554D01*
X013839Y000478D01*
X013609Y000478D01*
X014069Y000401D02*
X014146Y000324D01*
X014299Y000324D01*
X014376Y000401D01*
X014376Y000708D01*
X014299Y000785D01*
X014146Y000785D01*
X014069Y000708D01*
X014069Y000401D01*
X014529Y000324D02*
X014683Y000478D01*
X014836Y000324D01*
X014836Y000785D01*
X014990Y000785D02*
X014990Y000324D01*
X015296Y000324D01*
X015450Y000324D02*
X015450Y000785D01*
X015680Y000785D01*
X015757Y000708D01*
X015757Y000554D01*
X015680Y000478D01*
X015450Y000478D01*
X015603Y000478D02*
X015757Y000324D01*
X015296Y000785D02*
X014990Y000785D01*
X014990Y000554D02*
X015143Y000554D01*
X014529Y000324D02*
X014529Y000785D01*
X020609Y000708D02*
X020609Y000631D01*
X020685Y000554D01*
X020839Y000554D01*
X020915Y000478D01*
X020915Y000401D01*
X020839Y000324D01*
X020685Y000324D01*
X020609Y000401D01*
X020609Y000708D02*
X020685Y000785D01*
X020839Y000785D01*
X020915Y000708D01*
X021069Y000785D02*
X021069Y000324D01*
X021069Y000554D02*
X021376Y000554D01*
X021376Y000324D02*
X021376Y000785D01*
X021529Y000785D02*
X021683Y000785D01*
X021606Y000785D02*
X021606Y000324D01*
X021529Y000324D02*
X021683Y000324D01*
X021836Y000324D02*
X022143Y000324D01*
X022296Y000324D02*
X022603Y000324D01*
X022757Y000324D02*
X022987Y000324D01*
X023064Y000401D01*
X023064Y000708D01*
X022987Y000785D01*
X022757Y000785D01*
X022757Y000324D01*
X023217Y000248D02*
X023524Y000248D01*
X023678Y000401D02*
X023754Y000324D01*
X023831Y000324D01*
X023908Y000401D01*
X023908Y000785D01*
X023984Y000785D02*
X023831Y000785D01*
X024138Y000708D02*
X024215Y000785D01*
X024368Y000785D01*
X024445Y000708D01*
X024445Y000631D01*
X024138Y000324D01*
X024445Y000324D01*
X022296Y000324D02*
X022296Y000785D01*
X022143Y000785D02*
X021836Y000785D01*
X021836Y000324D01*
X021836Y000554D02*
X021990Y000554D01*
X021742Y012733D02*
X021435Y012733D01*
X021358Y012809D01*
X021358Y012963D01*
X021435Y013040D01*
X021742Y013040D01*
X021819Y012963D01*
X021819Y012809D01*
X021742Y012733D01*
X021742Y013193D02*
X021358Y013193D01*
X021742Y013193D02*
X021819Y013270D01*
X021819Y013423D01*
X021742Y013500D01*
X021358Y013500D01*
X021358Y013654D02*
X021358Y013960D01*
X021358Y013807D02*
X021819Y013807D01*
X021819Y014114D02*
X021512Y014421D01*
X021435Y014421D01*
X021358Y014344D01*
X021358Y014191D01*
X021435Y014114D01*
X021819Y014114D02*
X021819Y014421D01*
D17*
X022089Y014304D02*
X022089Y013804D01*
X022339Y013554D01*
X022089Y013304D01*
X022089Y012804D01*
X022339Y012554D01*
X022839Y012554D01*
X023089Y012804D01*
X023089Y013304D01*
X022839Y013554D01*
X022339Y013554D01*
X022839Y013554D02*
X023089Y013804D01*
X023089Y014304D01*
X022839Y014554D01*
X022339Y014554D01*
X022089Y014304D01*
X023339Y012804D02*
X023341Y012848D01*
X023347Y012892D01*
X023357Y012935D01*
X023370Y012977D01*
X023387Y013018D01*
X023408Y013057D01*
X023432Y013094D01*
X023459Y013129D01*
X023489Y013161D01*
X023522Y013191D01*
X023558Y013217D01*
X023595Y013241D01*
X023635Y013260D01*
X023676Y013277D01*
X023719Y013289D01*
X023762Y013298D01*
X023806Y013303D01*
X023850Y013304D01*
X023894Y013301D01*
X023938Y013294D01*
X023981Y013283D01*
X024023Y013269D01*
X024063Y013251D01*
X024102Y013229D01*
X024138Y013205D01*
X024172Y013177D01*
X024204Y013146D01*
X024233Y013112D01*
X024259Y013076D01*
X024281Y013038D01*
X024300Y012998D01*
X024315Y012956D01*
X024327Y012914D01*
X024335Y012870D01*
X024339Y012826D01*
X024339Y012782D01*
X024335Y012738D01*
X024327Y012694D01*
X024315Y012652D01*
X024300Y012610D01*
X024281Y012570D01*
X024259Y012532D01*
X024233Y012496D01*
X024204Y012462D01*
X024172Y012431D01*
X024138Y012403D01*
X024102Y012379D01*
X024063Y012357D01*
X024023Y012339D01*
X023981Y012325D01*
X023938Y012314D01*
X023894Y012307D01*
X023850Y012304D01*
X023806Y012305D01*
X023762Y012310D01*
X023719Y012319D01*
X023676Y012331D01*
X023635Y012348D01*
X023595Y012367D01*
X023558Y012391D01*
X023522Y012417D01*
X023489Y012447D01*
X023459Y012479D01*
X023432Y012514D01*
X023408Y012551D01*
X023387Y012590D01*
X023370Y012631D01*
X023357Y012673D01*
X023347Y012716D01*
X023341Y012760D01*
X023339Y012804D01*
X022839Y012554D02*
X023089Y012304D01*
X023089Y011804D01*
X022839Y011554D01*
X023089Y011304D01*
X023089Y010804D01*
X022839Y010554D01*
X023089Y010304D01*
X023089Y009804D01*
X022839Y009554D01*
X022339Y009554D01*
X022089Y009804D01*
X022089Y010304D01*
X022339Y010554D01*
X022089Y010804D01*
X022089Y011304D01*
X022339Y011554D01*
X022089Y011804D01*
X022089Y012304D01*
X022339Y012554D01*
X022339Y011554D02*
X022839Y011554D01*
X023339Y011304D02*
X023341Y011348D01*
X023347Y011392D01*
X023357Y011435D01*
X023370Y011477D01*
X023387Y011518D01*
X023408Y011557D01*
X023432Y011594D01*
X023459Y011629D01*
X023489Y011661D01*
X023522Y011691D01*
X023558Y011717D01*
X023595Y011741D01*
X023635Y011760D01*
X023676Y011777D01*
X023719Y011789D01*
X023762Y011798D01*
X023806Y011803D01*
X023850Y011804D01*
X023894Y011801D01*
X023938Y011794D01*
X023981Y011783D01*
X024023Y011769D01*
X024063Y011751D01*
X024102Y011729D01*
X024138Y011705D01*
X024172Y011677D01*
X024204Y011646D01*
X024233Y011612D01*
X024259Y011576D01*
X024281Y011538D01*
X024300Y011498D01*
X024315Y011456D01*
X024327Y011414D01*
X024335Y011370D01*
X024339Y011326D01*
X024339Y011282D01*
X024335Y011238D01*
X024327Y011194D01*
X024315Y011152D01*
X024300Y011110D01*
X024281Y011070D01*
X024259Y011032D01*
X024233Y010996D01*
X024204Y010962D01*
X024172Y010931D01*
X024138Y010903D01*
X024102Y010879D01*
X024063Y010857D01*
X024023Y010839D01*
X023981Y010825D01*
X023938Y010814D01*
X023894Y010807D01*
X023850Y010804D01*
X023806Y010805D01*
X023762Y010810D01*
X023719Y010819D01*
X023676Y010831D01*
X023635Y010848D01*
X023595Y010867D01*
X023558Y010891D01*
X023522Y010917D01*
X023489Y010947D01*
X023459Y010979D01*
X023432Y011014D01*
X023408Y011051D01*
X023387Y011090D01*
X023370Y011131D01*
X023357Y011173D01*
X023347Y011216D01*
X023341Y011260D01*
X023339Y011304D01*
X022839Y010554D02*
X022339Y010554D01*
X022339Y009554D02*
X022089Y009304D01*
X022089Y008804D01*
X022339Y008554D01*
X022089Y008304D01*
X022089Y007804D01*
X022339Y007554D01*
X022089Y007304D01*
X022089Y006804D01*
X022339Y006554D01*
X022839Y006554D01*
X023089Y006804D01*
X023089Y007304D01*
X022839Y007554D01*
X022339Y007554D01*
X022839Y007554D02*
X023089Y007804D01*
X023089Y008304D01*
X022839Y008554D01*
X022339Y008554D01*
X022839Y008554D02*
X023089Y008804D01*
X023089Y009304D01*
X022839Y009554D01*
X023339Y010054D02*
X023341Y010098D01*
X023347Y010142D01*
X023357Y010185D01*
X023370Y010227D01*
X023387Y010268D01*
X023408Y010307D01*
X023432Y010344D01*
X023459Y010379D01*
X023489Y010411D01*
X023522Y010441D01*
X023558Y010467D01*
X023595Y010491D01*
X023635Y010510D01*
X023676Y010527D01*
X023719Y010539D01*
X023762Y010548D01*
X023806Y010553D01*
X023850Y010554D01*
X023894Y010551D01*
X023938Y010544D01*
X023981Y010533D01*
X024023Y010519D01*
X024063Y010501D01*
X024102Y010479D01*
X024138Y010455D01*
X024172Y010427D01*
X024204Y010396D01*
X024233Y010362D01*
X024259Y010326D01*
X024281Y010288D01*
X024300Y010248D01*
X024315Y010206D01*
X024327Y010164D01*
X024335Y010120D01*
X024339Y010076D01*
X024339Y010032D01*
X024335Y009988D01*
X024327Y009944D01*
X024315Y009902D01*
X024300Y009860D01*
X024281Y009820D01*
X024259Y009782D01*
X024233Y009746D01*
X024204Y009712D01*
X024172Y009681D01*
X024138Y009653D01*
X024102Y009629D01*
X024063Y009607D01*
X024023Y009589D01*
X023981Y009575D01*
X023938Y009564D01*
X023894Y009557D01*
X023850Y009554D01*
X023806Y009555D01*
X023762Y009560D01*
X023719Y009569D01*
X023676Y009581D01*
X023635Y009598D01*
X023595Y009617D01*
X023558Y009641D01*
X023522Y009667D01*
X023489Y009697D01*
X023459Y009729D01*
X023432Y009764D01*
X023408Y009801D01*
X023387Y009840D01*
X023370Y009881D01*
X023357Y009923D01*
X023347Y009966D01*
X023341Y010010D01*
X023339Y010054D01*
X023339Y008554D02*
X023341Y008598D01*
X023347Y008642D01*
X023357Y008685D01*
X023370Y008727D01*
X023387Y008768D01*
X023408Y008807D01*
X023432Y008844D01*
X023459Y008879D01*
X023489Y008911D01*
X023522Y008941D01*
X023558Y008967D01*
X023595Y008991D01*
X023635Y009010D01*
X023676Y009027D01*
X023719Y009039D01*
X023762Y009048D01*
X023806Y009053D01*
X023850Y009054D01*
X023894Y009051D01*
X023938Y009044D01*
X023981Y009033D01*
X024023Y009019D01*
X024063Y009001D01*
X024102Y008979D01*
X024138Y008955D01*
X024172Y008927D01*
X024204Y008896D01*
X024233Y008862D01*
X024259Y008826D01*
X024281Y008788D01*
X024300Y008748D01*
X024315Y008706D01*
X024327Y008664D01*
X024335Y008620D01*
X024339Y008576D01*
X024339Y008532D01*
X024335Y008488D01*
X024327Y008444D01*
X024315Y008402D01*
X024300Y008360D01*
X024281Y008320D01*
X024259Y008282D01*
X024233Y008246D01*
X024204Y008212D01*
X024172Y008181D01*
X024138Y008153D01*
X024102Y008129D01*
X024063Y008107D01*
X024023Y008089D01*
X023981Y008075D01*
X023938Y008064D01*
X023894Y008057D01*
X023850Y008054D01*
X023806Y008055D01*
X023762Y008060D01*
X023719Y008069D01*
X023676Y008081D01*
X023635Y008098D01*
X023595Y008117D01*
X023558Y008141D01*
X023522Y008167D01*
X023489Y008197D01*
X023459Y008229D01*
X023432Y008264D01*
X023408Y008301D01*
X023387Y008340D01*
X023370Y008381D01*
X023357Y008423D01*
X023347Y008466D01*
X023341Y008510D01*
X023339Y008554D01*
X023339Y007304D02*
X023341Y007348D01*
X023347Y007392D01*
X023357Y007435D01*
X023370Y007477D01*
X023387Y007518D01*
X023408Y007557D01*
X023432Y007594D01*
X023459Y007629D01*
X023489Y007661D01*
X023522Y007691D01*
X023558Y007717D01*
X023595Y007741D01*
X023635Y007760D01*
X023676Y007777D01*
X023719Y007789D01*
X023762Y007798D01*
X023806Y007803D01*
X023850Y007804D01*
X023894Y007801D01*
X023938Y007794D01*
X023981Y007783D01*
X024023Y007769D01*
X024063Y007751D01*
X024102Y007729D01*
X024138Y007705D01*
X024172Y007677D01*
X024204Y007646D01*
X024233Y007612D01*
X024259Y007576D01*
X024281Y007538D01*
X024300Y007498D01*
X024315Y007456D01*
X024327Y007414D01*
X024335Y007370D01*
X024339Y007326D01*
X024339Y007282D01*
X024335Y007238D01*
X024327Y007194D01*
X024315Y007152D01*
X024300Y007110D01*
X024281Y007070D01*
X024259Y007032D01*
X024233Y006996D01*
X024204Y006962D01*
X024172Y006931D01*
X024138Y006903D01*
X024102Y006879D01*
X024063Y006857D01*
X024023Y006839D01*
X023981Y006825D01*
X023938Y006814D01*
X023894Y006807D01*
X023850Y006804D01*
X023806Y006805D01*
X023762Y006810D01*
X023719Y006819D01*
X023676Y006831D01*
X023635Y006848D01*
X023595Y006867D01*
X023558Y006891D01*
X023522Y006917D01*
X023489Y006947D01*
X023459Y006979D01*
X023432Y007014D01*
X023408Y007051D01*
X023387Y007090D01*
X023370Y007131D01*
X023357Y007173D01*
X023347Y007216D01*
X023341Y007260D01*
X023339Y007304D01*
X023339Y005804D02*
X023341Y005848D01*
X023347Y005892D01*
X023357Y005935D01*
X023370Y005977D01*
X023387Y006018D01*
X023408Y006057D01*
X023432Y006094D01*
X023459Y006129D01*
X023489Y006161D01*
X023522Y006191D01*
X023558Y006217D01*
X023595Y006241D01*
X023635Y006260D01*
X023676Y006277D01*
X023719Y006289D01*
X023762Y006298D01*
X023806Y006303D01*
X023850Y006304D01*
X023894Y006301D01*
X023938Y006294D01*
X023981Y006283D01*
X024023Y006269D01*
X024063Y006251D01*
X024102Y006229D01*
X024138Y006205D01*
X024172Y006177D01*
X024204Y006146D01*
X024233Y006112D01*
X024259Y006076D01*
X024281Y006038D01*
X024300Y005998D01*
X024315Y005956D01*
X024327Y005914D01*
X024335Y005870D01*
X024339Y005826D01*
X024339Y005782D01*
X024335Y005738D01*
X024327Y005694D01*
X024315Y005652D01*
X024300Y005610D01*
X024281Y005570D01*
X024259Y005532D01*
X024233Y005496D01*
X024204Y005462D01*
X024172Y005431D01*
X024138Y005403D01*
X024102Y005379D01*
X024063Y005357D01*
X024023Y005339D01*
X023981Y005325D01*
X023938Y005314D01*
X023894Y005307D01*
X023850Y005304D01*
X023806Y005305D01*
X023762Y005310D01*
X023719Y005319D01*
X023676Y005331D01*
X023635Y005348D01*
X023595Y005367D01*
X023558Y005391D01*
X023522Y005417D01*
X023489Y005447D01*
X023459Y005479D01*
X023432Y005514D01*
X023408Y005551D01*
X023387Y005590D01*
X023370Y005631D01*
X023357Y005673D01*
X023347Y005716D01*
X023341Y005760D01*
X023339Y005804D01*
X019239Y006304D02*
X016939Y006304D01*
X016939Y015304D01*
X017689Y015304D01*
X017691Y015265D01*
X017697Y015226D01*
X017706Y015188D01*
X017719Y015151D01*
X017736Y015115D01*
X017756Y015082D01*
X017780Y015050D01*
X017806Y015021D01*
X017835Y014995D01*
X017867Y014971D01*
X017900Y014951D01*
X017936Y014934D01*
X017973Y014921D01*
X018011Y014912D01*
X018050Y014906D01*
X018089Y014904D01*
X018128Y014906D01*
X018167Y014912D01*
X018205Y014921D01*
X018242Y014934D01*
X018278Y014951D01*
X018311Y014971D01*
X018343Y014995D01*
X018372Y015021D01*
X018398Y015050D01*
X018422Y015082D01*
X018442Y015115D01*
X018459Y015151D01*
X018472Y015188D01*
X018481Y015226D01*
X018487Y015265D01*
X018489Y015304D01*
X019239Y015304D01*
X019239Y006304D01*
X016989Y004954D02*
X016989Y004804D01*
X016939Y004754D01*
X016939Y003354D01*
X016989Y003304D01*
X016989Y003154D01*
X016987Y003137D01*
X016983Y003120D01*
X016976Y003104D01*
X016966Y003090D01*
X016953Y003077D01*
X016939Y003067D01*
X016923Y003060D01*
X016906Y003056D01*
X016889Y003054D01*
X016289Y003054D01*
X016272Y003056D01*
X016255Y003060D01*
X016239Y003067D01*
X016225Y003077D01*
X016212Y003090D01*
X016202Y003104D01*
X016195Y003120D01*
X016191Y003137D01*
X016189Y003154D01*
X016189Y003304D01*
X016239Y003354D01*
X016239Y004754D01*
X016189Y004804D01*
X016189Y004954D01*
X016191Y004971D01*
X016195Y004988D01*
X016202Y005004D01*
X016212Y005018D01*
X016225Y005031D01*
X016239Y005041D01*
X016255Y005048D01*
X016272Y005052D01*
X016289Y005054D01*
X016889Y005054D01*
X016906Y005052D01*
X016923Y005048D01*
X016939Y005041D01*
X016953Y005031D01*
X016966Y005018D01*
X016976Y005004D01*
X016983Y004988D01*
X016987Y004971D01*
X016989Y004954D01*
X017839Y004054D02*
X017841Y004117D01*
X017847Y004179D01*
X017857Y004241D01*
X017870Y004303D01*
X017888Y004363D01*
X017909Y004422D01*
X017934Y004480D01*
X017963Y004536D01*
X017995Y004590D01*
X018030Y004642D01*
X018068Y004691D01*
X018110Y004739D01*
X018154Y004783D01*
X018202Y004825D01*
X018251Y004863D01*
X018303Y004898D01*
X018357Y004930D01*
X018413Y004959D01*
X018471Y004984D01*
X018530Y005005D01*
X018590Y005023D01*
X018652Y005036D01*
X018714Y005046D01*
X018776Y005052D01*
X018839Y005054D01*
X018902Y005052D01*
X018964Y005046D01*
X019026Y005036D01*
X019088Y005023D01*
X019148Y005005D01*
X019207Y004984D01*
X019265Y004959D01*
X019321Y004930D01*
X019375Y004898D01*
X019427Y004863D01*
X019476Y004825D01*
X019524Y004783D01*
X019568Y004739D01*
X019610Y004691D01*
X019648Y004642D01*
X019683Y004590D01*
X019715Y004536D01*
X019744Y004480D01*
X019769Y004422D01*
X019790Y004363D01*
X019808Y004303D01*
X019821Y004241D01*
X019831Y004179D01*
X019837Y004117D01*
X019839Y004054D01*
X019837Y003991D01*
X019831Y003929D01*
X019821Y003867D01*
X019808Y003805D01*
X019790Y003745D01*
X019769Y003686D01*
X019744Y003628D01*
X019715Y003572D01*
X019683Y003518D01*
X019648Y003466D01*
X019610Y003417D01*
X019568Y003369D01*
X019524Y003325D01*
X019476Y003283D01*
X019427Y003245D01*
X019375Y003210D01*
X019321Y003178D01*
X019265Y003149D01*
X019207Y003124D01*
X019148Y003103D01*
X019088Y003085D01*
X019026Y003072D01*
X018964Y003062D01*
X018902Y003056D01*
X018839Y003054D01*
X018776Y003056D01*
X018714Y003062D01*
X018652Y003072D01*
X018590Y003085D01*
X018530Y003103D01*
X018471Y003124D01*
X018413Y003149D01*
X018357Y003178D01*
X018303Y003210D01*
X018251Y003245D01*
X018202Y003283D01*
X018154Y003325D01*
X018110Y003369D01*
X018068Y003417D01*
X018030Y003466D01*
X017995Y003518D01*
X017963Y003572D01*
X017934Y003628D01*
X017909Y003686D01*
X017888Y003745D01*
X017870Y003805D01*
X017857Y003867D01*
X017847Y003929D01*
X017841Y003991D01*
X017839Y004054D01*
X017839Y002054D02*
X018339Y002054D01*
X018589Y001804D01*
X018839Y002054D01*
X019339Y002054D01*
X019589Y001804D01*
X019589Y001304D01*
X019339Y001054D01*
X018839Y001054D01*
X018589Y001304D01*
X018339Y001054D01*
X017839Y001054D01*
X017589Y001304D01*
X017339Y001054D01*
X016839Y001054D01*
X016589Y001304D01*
X016339Y001054D01*
X015839Y001054D01*
X015589Y001304D01*
X015339Y001054D01*
X014839Y001054D01*
X014589Y001304D01*
X014339Y001054D01*
X013839Y001054D01*
X013589Y001304D01*
X013589Y001804D01*
X013839Y002054D01*
X014339Y002054D01*
X014589Y001804D01*
X014839Y002054D01*
X015339Y002054D01*
X015589Y001804D01*
X015589Y001304D01*
X015589Y001804D02*
X015839Y002054D01*
X016339Y002054D01*
X016589Y001804D01*
X016839Y002054D01*
X017339Y002054D01*
X017589Y001804D01*
X017839Y002054D01*
X017589Y001804D02*
X017589Y001304D01*
X018589Y001304D02*
X018589Y001804D01*
X016589Y001804D02*
X016589Y001304D01*
X014589Y001304D02*
X014589Y001804D01*
X014339Y003404D02*
X014339Y003504D01*
X014239Y003504D01*
X014339Y003504D02*
X014339Y003604D01*
X014339Y003504D02*
X014439Y003504D01*
X013839Y004054D02*
X013841Y004117D01*
X013847Y004179D01*
X013857Y004241D01*
X013870Y004303D01*
X013888Y004363D01*
X013909Y004422D01*
X013934Y004480D01*
X013963Y004536D01*
X013995Y004590D01*
X014030Y004642D01*
X014068Y004691D01*
X014110Y004739D01*
X014154Y004783D01*
X014202Y004825D01*
X014251Y004863D01*
X014303Y004898D01*
X014357Y004930D01*
X014413Y004959D01*
X014471Y004984D01*
X014530Y005005D01*
X014590Y005023D01*
X014652Y005036D01*
X014714Y005046D01*
X014776Y005052D01*
X014839Y005054D01*
X014902Y005052D01*
X014964Y005046D01*
X015026Y005036D01*
X015088Y005023D01*
X015148Y005005D01*
X015207Y004984D01*
X015265Y004959D01*
X015321Y004930D01*
X015375Y004898D01*
X015427Y004863D01*
X015476Y004825D01*
X015524Y004783D01*
X015568Y004739D01*
X015610Y004691D01*
X015648Y004642D01*
X015683Y004590D01*
X015715Y004536D01*
X015744Y004480D01*
X015769Y004422D01*
X015790Y004363D01*
X015808Y004303D01*
X015821Y004241D01*
X015831Y004179D01*
X015837Y004117D01*
X015839Y004054D01*
X015837Y003991D01*
X015831Y003929D01*
X015821Y003867D01*
X015808Y003805D01*
X015790Y003745D01*
X015769Y003686D01*
X015744Y003628D01*
X015715Y003572D01*
X015683Y003518D01*
X015648Y003466D01*
X015610Y003417D01*
X015568Y003369D01*
X015524Y003325D01*
X015476Y003283D01*
X015427Y003245D01*
X015375Y003210D01*
X015321Y003178D01*
X015265Y003149D01*
X015207Y003124D01*
X015148Y003103D01*
X015088Y003085D01*
X015026Y003072D01*
X014964Y003062D01*
X014902Y003056D01*
X014839Y003054D01*
X014776Y003056D01*
X014714Y003062D01*
X014652Y003072D01*
X014590Y003085D01*
X014530Y003103D01*
X014471Y003124D01*
X014413Y003149D01*
X014357Y003178D01*
X014303Y003210D01*
X014251Y003245D01*
X014202Y003283D01*
X014154Y003325D01*
X014110Y003369D01*
X014068Y003417D01*
X014030Y003466D01*
X013995Y003518D01*
X013963Y003572D01*
X013934Y003628D01*
X013909Y003686D01*
X013888Y003745D01*
X013870Y003805D01*
X013857Y003867D01*
X013847Y003929D01*
X013841Y003991D01*
X013839Y004054D01*
X012089Y003804D02*
X012089Y003304D01*
X011839Y003054D01*
X011339Y003054D01*
X011089Y003304D01*
X011089Y003804D01*
X011339Y004054D01*
X011089Y004304D01*
X011089Y004804D01*
X011339Y005054D01*
X011839Y005054D01*
X012089Y004804D01*
X012089Y004304D01*
X011839Y004054D01*
X012089Y003804D01*
X011839Y004054D02*
X011339Y004054D01*
X010089Y003804D02*
X010089Y003304D01*
X009839Y003054D01*
X009339Y003054D01*
X009089Y003304D01*
X009089Y003804D01*
X009339Y004054D01*
X009089Y004304D01*
X009089Y004804D01*
X009339Y005054D01*
X009839Y005054D01*
X010089Y004804D01*
X010089Y004304D01*
X009839Y004054D01*
X010089Y003804D01*
X009839Y004054D02*
X009339Y004054D01*
X009339Y002054D02*
X008839Y002054D01*
X008589Y001804D01*
X008589Y001304D01*
X008839Y001054D01*
X009339Y001054D01*
X009589Y001304D01*
X009589Y001804D01*
X009339Y002054D01*
X009589Y001804D02*
X009839Y002054D01*
X010339Y002054D01*
X010589Y001804D01*
X010839Y002054D01*
X011339Y002054D01*
X011589Y001804D01*
X011839Y002054D01*
X012339Y002054D01*
X012589Y001804D01*
X012589Y001304D01*
X012339Y001054D01*
X011839Y001054D01*
X011589Y001304D01*
X011339Y001054D01*
X010839Y001054D01*
X010589Y001304D01*
X010339Y001054D01*
X009839Y001054D01*
X009589Y001304D01*
X008589Y001304D02*
X008339Y001054D01*
X007839Y001054D01*
X007589Y001304D01*
X007339Y001054D01*
X006839Y001054D01*
X006589Y001304D01*
X006339Y001054D01*
X005839Y001054D01*
X005589Y001304D01*
X005339Y001054D01*
X004839Y001054D01*
X004589Y001304D01*
X004589Y001804D01*
X004839Y002054D01*
X005339Y002054D01*
X005589Y001804D01*
X005839Y002054D01*
X006339Y002054D01*
X006589Y001804D01*
X006589Y001304D01*
X006589Y001804D02*
X006839Y002054D01*
X007339Y002054D01*
X007589Y001804D01*
X007839Y002054D01*
X008339Y002054D01*
X008589Y001804D01*
X007589Y001804D02*
X007589Y001304D01*
X005589Y001304D02*
X005589Y001804D01*
X010589Y001804D02*
X010589Y001304D01*
X011589Y001304D02*
X011589Y001804D01*
X011189Y006304D02*
X013489Y006304D01*
X013489Y015304D01*
X012739Y015304D01*
X012737Y015265D01*
X012731Y015226D01*
X012722Y015188D01*
X012709Y015151D01*
X012692Y015115D01*
X012672Y015082D01*
X012648Y015050D01*
X012622Y015021D01*
X012593Y014995D01*
X012561Y014971D01*
X012528Y014951D01*
X012492Y014934D01*
X012455Y014921D01*
X012417Y014912D01*
X012378Y014906D01*
X012339Y014904D01*
X012300Y014906D01*
X012261Y014912D01*
X012223Y014921D01*
X012186Y014934D01*
X012150Y014951D01*
X012117Y014971D01*
X012085Y014995D01*
X012056Y015021D01*
X012030Y015050D01*
X012006Y015082D01*
X011986Y015115D01*
X011969Y015151D01*
X011956Y015188D01*
X011947Y015226D01*
X011941Y015265D01*
X011939Y015304D01*
X011189Y015304D01*
X011189Y006304D01*
X007089Y006804D02*
X006839Y006554D01*
X006339Y006554D01*
X006089Y006804D01*
X006089Y007304D01*
X006339Y007554D01*
X006089Y007804D01*
X006089Y008304D01*
X006339Y008554D01*
X006089Y008804D01*
X006089Y009304D01*
X006339Y009554D01*
X006089Y009804D01*
X006089Y010304D01*
X006339Y010554D01*
X006089Y010804D01*
X006089Y011304D01*
X006339Y011554D01*
X006089Y011804D01*
X006089Y012304D01*
X006339Y012554D01*
X006089Y012804D01*
X006089Y013304D01*
X006339Y013554D01*
X006089Y013804D01*
X006089Y014304D01*
X006339Y014554D01*
X006839Y014554D01*
X007089Y014304D01*
X007089Y013804D01*
X006839Y013554D01*
X007089Y013304D01*
X007089Y012804D01*
X006839Y012554D01*
X006339Y012554D01*
X006839Y012554D02*
X007089Y012304D01*
X007089Y011804D01*
X006839Y011554D01*
X007089Y011304D01*
X007089Y010804D01*
X006839Y010554D01*
X007089Y010304D01*
X007089Y009804D01*
X006839Y009554D01*
X006339Y009554D01*
X006839Y009554D02*
X007089Y009304D01*
X007089Y008804D01*
X006839Y008554D01*
X007089Y008304D01*
X007089Y007804D01*
X006839Y007554D01*
X007089Y007304D01*
X007089Y006804D01*
X006839Y007554D02*
X006339Y007554D01*
X004839Y007554D02*
X004841Y007598D01*
X004847Y007642D01*
X004857Y007685D01*
X004870Y007727D01*
X004887Y007768D01*
X004908Y007807D01*
X004932Y007844D01*
X004959Y007879D01*
X004989Y007911D01*
X005022Y007941D01*
X005058Y007967D01*
X005095Y007991D01*
X005135Y008010D01*
X005176Y008027D01*
X005219Y008039D01*
X005262Y008048D01*
X005306Y008053D01*
X005350Y008054D01*
X005394Y008051D01*
X005438Y008044D01*
X005481Y008033D01*
X005523Y008019D01*
X005563Y008001D01*
X005602Y007979D01*
X005638Y007955D01*
X005672Y007927D01*
X005704Y007896D01*
X005733Y007862D01*
X005759Y007826D01*
X005781Y007788D01*
X005800Y007748D01*
X005815Y007706D01*
X005827Y007664D01*
X005835Y007620D01*
X005839Y007576D01*
X005839Y007532D01*
X005835Y007488D01*
X005827Y007444D01*
X005815Y007402D01*
X005800Y007360D01*
X005781Y007320D01*
X005759Y007282D01*
X005733Y007246D01*
X005704Y007212D01*
X005672Y007181D01*
X005638Y007153D01*
X005602Y007129D01*
X005563Y007107D01*
X005523Y007089D01*
X005481Y007075D01*
X005438Y007064D01*
X005394Y007057D01*
X005350Y007054D01*
X005306Y007055D01*
X005262Y007060D01*
X005219Y007069D01*
X005176Y007081D01*
X005135Y007098D01*
X005095Y007117D01*
X005058Y007141D01*
X005022Y007167D01*
X004989Y007197D01*
X004959Y007229D01*
X004932Y007264D01*
X004908Y007301D01*
X004887Y007340D01*
X004870Y007381D01*
X004857Y007423D01*
X004847Y007466D01*
X004841Y007510D01*
X004839Y007554D01*
X004839Y008804D02*
X004841Y008848D01*
X004847Y008892D01*
X004857Y008935D01*
X004870Y008977D01*
X004887Y009018D01*
X004908Y009057D01*
X004932Y009094D01*
X004959Y009129D01*
X004989Y009161D01*
X005022Y009191D01*
X005058Y009217D01*
X005095Y009241D01*
X005135Y009260D01*
X005176Y009277D01*
X005219Y009289D01*
X005262Y009298D01*
X005306Y009303D01*
X005350Y009304D01*
X005394Y009301D01*
X005438Y009294D01*
X005481Y009283D01*
X005523Y009269D01*
X005563Y009251D01*
X005602Y009229D01*
X005638Y009205D01*
X005672Y009177D01*
X005704Y009146D01*
X005733Y009112D01*
X005759Y009076D01*
X005781Y009038D01*
X005800Y008998D01*
X005815Y008956D01*
X005827Y008914D01*
X005835Y008870D01*
X005839Y008826D01*
X005839Y008782D01*
X005835Y008738D01*
X005827Y008694D01*
X005815Y008652D01*
X005800Y008610D01*
X005781Y008570D01*
X005759Y008532D01*
X005733Y008496D01*
X005704Y008462D01*
X005672Y008431D01*
X005638Y008403D01*
X005602Y008379D01*
X005563Y008357D01*
X005523Y008339D01*
X005481Y008325D01*
X005438Y008314D01*
X005394Y008307D01*
X005350Y008304D01*
X005306Y008305D01*
X005262Y008310D01*
X005219Y008319D01*
X005176Y008331D01*
X005135Y008348D01*
X005095Y008367D01*
X005058Y008391D01*
X005022Y008417D01*
X004989Y008447D01*
X004959Y008479D01*
X004932Y008514D01*
X004908Y008551D01*
X004887Y008590D01*
X004870Y008631D01*
X004857Y008673D01*
X004847Y008716D01*
X004841Y008760D01*
X004839Y008804D01*
X006339Y008554D02*
X006839Y008554D01*
X004839Y010304D02*
X004841Y010348D01*
X004847Y010392D01*
X004857Y010435D01*
X004870Y010477D01*
X004887Y010518D01*
X004908Y010557D01*
X004932Y010594D01*
X004959Y010629D01*
X004989Y010661D01*
X005022Y010691D01*
X005058Y010717D01*
X005095Y010741D01*
X005135Y010760D01*
X005176Y010777D01*
X005219Y010789D01*
X005262Y010798D01*
X005306Y010803D01*
X005350Y010804D01*
X005394Y010801D01*
X005438Y010794D01*
X005481Y010783D01*
X005523Y010769D01*
X005563Y010751D01*
X005602Y010729D01*
X005638Y010705D01*
X005672Y010677D01*
X005704Y010646D01*
X005733Y010612D01*
X005759Y010576D01*
X005781Y010538D01*
X005800Y010498D01*
X005815Y010456D01*
X005827Y010414D01*
X005835Y010370D01*
X005839Y010326D01*
X005839Y010282D01*
X005835Y010238D01*
X005827Y010194D01*
X005815Y010152D01*
X005800Y010110D01*
X005781Y010070D01*
X005759Y010032D01*
X005733Y009996D01*
X005704Y009962D01*
X005672Y009931D01*
X005638Y009903D01*
X005602Y009879D01*
X005563Y009857D01*
X005523Y009839D01*
X005481Y009825D01*
X005438Y009814D01*
X005394Y009807D01*
X005350Y009804D01*
X005306Y009805D01*
X005262Y009810D01*
X005219Y009819D01*
X005176Y009831D01*
X005135Y009848D01*
X005095Y009867D01*
X005058Y009891D01*
X005022Y009917D01*
X004989Y009947D01*
X004959Y009979D01*
X004932Y010014D01*
X004908Y010051D01*
X004887Y010090D01*
X004870Y010131D01*
X004857Y010173D01*
X004847Y010216D01*
X004841Y010260D01*
X004839Y010304D01*
X006339Y010554D02*
X006839Y010554D01*
X006839Y011554D02*
X006339Y011554D01*
X004839Y011554D02*
X004841Y011598D01*
X004847Y011642D01*
X004857Y011685D01*
X004870Y011727D01*
X004887Y011768D01*
X004908Y011807D01*
X004932Y011844D01*
X004959Y011879D01*
X004989Y011911D01*
X005022Y011941D01*
X005058Y011967D01*
X005095Y011991D01*
X005135Y012010D01*
X005176Y012027D01*
X005219Y012039D01*
X005262Y012048D01*
X005306Y012053D01*
X005350Y012054D01*
X005394Y012051D01*
X005438Y012044D01*
X005481Y012033D01*
X005523Y012019D01*
X005563Y012001D01*
X005602Y011979D01*
X005638Y011955D01*
X005672Y011927D01*
X005704Y011896D01*
X005733Y011862D01*
X005759Y011826D01*
X005781Y011788D01*
X005800Y011748D01*
X005815Y011706D01*
X005827Y011664D01*
X005835Y011620D01*
X005839Y011576D01*
X005839Y011532D01*
X005835Y011488D01*
X005827Y011444D01*
X005815Y011402D01*
X005800Y011360D01*
X005781Y011320D01*
X005759Y011282D01*
X005733Y011246D01*
X005704Y011212D01*
X005672Y011181D01*
X005638Y011153D01*
X005602Y011129D01*
X005563Y011107D01*
X005523Y011089D01*
X005481Y011075D01*
X005438Y011064D01*
X005394Y011057D01*
X005350Y011054D01*
X005306Y011055D01*
X005262Y011060D01*
X005219Y011069D01*
X005176Y011081D01*
X005135Y011098D01*
X005095Y011117D01*
X005058Y011141D01*
X005022Y011167D01*
X004989Y011197D01*
X004959Y011229D01*
X004932Y011264D01*
X004908Y011301D01*
X004887Y011340D01*
X004870Y011381D01*
X004857Y011423D01*
X004847Y011466D01*
X004841Y011510D01*
X004839Y011554D01*
X004839Y013054D02*
X004841Y013098D01*
X004847Y013142D01*
X004857Y013185D01*
X004870Y013227D01*
X004887Y013268D01*
X004908Y013307D01*
X004932Y013344D01*
X004959Y013379D01*
X004989Y013411D01*
X005022Y013441D01*
X005058Y013467D01*
X005095Y013491D01*
X005135Y013510D01*
X005176Y013527D01*
X005219Y013539D01*
X005262Y013548D01*
X005306Y013553D01*
X005350Y013554D01*
X005394Y013551D01*
X005438Y013544D01*
X005481Y013533D01*
X005523Y013519D01*
X005563Y013501D01*
X005602Y013479D01*
X005638Y013455D01*
X005672Y013427D01*
X005704Y013396D01*
X005733Y013362D01*
X005759Y013326D01*
X005781Y013288D01*
X005800Y013248D01*
X005815Y013206D01*
X005827Y013164D01*
X005835Y013120D01*
X005839Y013076D01*
X005839Y013032D01*
X005835Y012988D01*
X005827Y012944D01*
X005815Y012902D01*
X005800Y012860D01*
X005781Y012820D01*
X005759Y012782D01*
X005733Y012746D01*
X005704Y012712D01*
X005672Y012681D01*
X005638Y012653D01*
X005602Y012629D01*
X005563Y012607D01*
X005523Y012589D01*
X005481Y012575D01*
X005438Y012564D01*
X005394Y012557D01*
X005350Y012554D01*
X005306Y012555D01*
X005262Y012560D01*
X005219Y012569D01*
X005176Y012581D01*
X005135Y012598D01*
X005095Y012617D01*
X005058Y012641D01*
X005022Y012667D01*
X004989Y012697D01*
X004959Y012729D01*
X004932Y012764D01*
X004908Y012801D01*
X004887Y012840D01*
X004870Y012881D01*
X004857Y012923D01*
X004847Y012966D01*
X004841Y013010D01*
X004839Y013054D01*
X004839Y014304D02*
X004841Y014348D01*
X004847Y014392D01*
X004857Y014435D01*
X004870Y014477D01*
X004887Y014518D01*
X004908Y014557D01*
X004932Y014594D01*
X004959Y014629D01*
X004989Y014661D01*
X005022Y014691D01*
X005058Y014717D01*
X005095Y014741D01*
X005135Y014760D01*
X005176Y014777D01*
X005219Y014789D01*
X005262Y014798D01*
X005306Y014803D01*
X005350Y014804D01*
X005394Y014801D01*
X005438Y014794D01*
X005481Y014783D01*
X005523Y014769D01*
X005563Y014751D01*
X005602Y014729D01*
X005638Y014705D01*
X005672Y014677D01*
X005704Y014646D01*
X005733Y014612D01*
X005759Y014576D01*
X005781Y014538D01*
X005800Y014498D01*
X005815Y014456D01*
X005827Y014414D01*
X005835Y014370D01*
X005839Y014326D01*
X005839Y014282D01*
X005835Y014238D01*
X005827Y014194D01*
X005815Y014152D01*
X005800Y014110D01*
X005781Y014070D01*
X005759Y014032D01*
X005733Y013996D01*
X005704Y013962D01*
X005672Y013931D01*
X005638Y013903D01*
X005602Y013879D01*
X005563Y013857D01*
X005523Y013839D01*
X005481Y013825D01*
X005438Y013814D01*
X005394Y013807D01*
X005350Y013804D01*
X005306Y013805D01*
X005262Y013810D01*
X005219Y013819D01*
X005176Y013831D01*
X005135Y013848D01*
X005095Y013867D01*
X005058Y013891D01*
X005022Y013917D01*
X004989Y013947D01*
X004959Y013979D01*
X004932Y014014D01*
X004908Y014051D01*
X004887Y014090D01*
X004870Y014131D01*
X004857Y014173D01*
X004847Y014216D01*
X004841Y014260D01*
X004839Y014304D01*
X006339Y013554D02*
X006839Y013554D01*
X004839Y015804D02*
X004841Y015848D01*
X004847Y015892D01*
X004857Y015935D01*
X004870Y015977D01*
X004887Y016018D01*
X004908Y016057D01*
X004932Y016094D01*
X004959Y016129D01*
X004989Y016161D01*
X005022Y016191D01*
X005058Y016217D01*
X005095Y016241D01*
X005135Y016260D01*
X005176Y016277D01*
X005219Y016289D01*
X005262Y016298D01*
X005306Y016303D01*
X005350Y016304D01*
X005394Y016301D01*
X005438Y016294D01*
X005481Y016283D01*
X005523Y016269D01*
X005563Y016251D01*
X005602Y016229D01*
X005638Y016205D01*
X005672Y016177D01*
X005704Y016146D01*
X005733Y016112D01*
X005759Y016076D01*
X005781Y016038D01*
X005800Y015998D01*
X005815Y015956D01*
X005827Y015914D01*
X005835Y015870D01*
X005839Y015826D01*
X005839Y015782D01*
X005835Y015738D01*
X005827Y015694D01*
X005815Y015652D01*
X005800Y015610D01*
X005781Y015570D01*
X005759Y015532D01*
X005733Y015496D01*
X005704Y015462D01*
X005672Y015431D01*
X005638Y015403D01*
X005602Y015379D01*
X005563Y015357D01*
X005523Y015339D01*
X005481Y015325D01*
X005438Y015314D01*
X005394Y015307D01*
X005350Y015304D01*
X005306Y015305D01*
X005262Y015310D01*
X005219Y015319D01*
X005176Y015331D01*
X005135Y015348D01*
X005095Y015367D01*
X005058Y015391D01*
X005022Y015417D01*
X004989Y015447D01*
X004959Y015479D01*
X004932Y015514D01*
X004908Y015551D01*
X004887Y015590D01*
X004870Y015631D01*
X004857Y015673D01*
X004847Y015716D01*
X004841Y015760D01*
X004839Y015804D01*
X009989Y020304D02*
X010239Y020054D01*
X010739Y020054D01*
X010989Y020304D01*
X011239Y020054D01*
X011739Y020054D01*
X011989Y020304D01*
X011989Y020804D01*
X011739Y021054D01*
X011239Y021054D01*
X010989Y020804D01*
X010989Y020304D01*
X010989Y020804D02*
X010739Y021054D01*
X010239Y021054D01*
X009989Y020804D01*
X009989Y020304D01*
X011989Y020304D02*
X012239Y020054D01*
X012739Y020054D01*
X012989Y020304D01*
X013239Y020054D01*
X013739Y020054D01*
X013989Y020304D01*
X014239Y020054D01*
X014739Y020054D01*
X014989Y020304D01*
X014989Y020804D01*
X014739Y021054D01*
X014239Y021054D01*
X013989Y020804D01*
X013989Y020304D01*
X013989Y020804D02*
X013739Y021054D01*
X013239Y021054D01*
X012989Y020804D01*
X012989Y020304D01*
X012989Y020804D02*
X012739Y021054D01*
X012239Y021054D01*
X011989Y020804D01*
X014989Y020804D02*
X015239Y021054D01*
X015739Y021054D01*
X015989Y020804D01*
X016239Y021054D01*
X016739Y021054D01*
X016989Y020804D01*
X017239Y021054D01*
X017739Y021054D01*
X017989Y020804D01*
X017989Y020304D01*
X017739Y020054D01*
X017239Y020054D01*
X016989Y020304D01*
X016739Y020054D01*
X016239Y020054D01*
X015989Y020304D01*
X015739Y020054D01*
X015239Y020054D01*
X014989Y020304D01*
X015989Y020304D02*
X015989Y020804D01*
X016989Y020804D02*
X016989Y020304D01*
X018589Y020304D02*
X018839Y020054D01*
X019339Y020054D01*
X019589Y020304D01*
X019839Y020054D01*
X020339Y020054D01*
X020589Y020304D01*
X020589Y020804D01*
X020339Y021054D01*
X019839Y021054D01*
X019589Y020804D01*
X019589Y020304D01*
X019589Y020804D02*
X019339Y021054D01*
X018839Y021054D01*
X018589Y020804D01*
X018589Y020304D01*
X020589Y020304D02*
X020839Y020054D01*
X021339Y020054D01*
X021589Y020304D01*
X021839Y020054D01*
X022339Y020054D01*
X022589Y020304D01*
X022839Y020054D01*
X023339Y020054D01*
X023589Y020304D01*
X023589Y020804D01*
X023339Y021054D01*
X022839Y021054D01*
X022589Y020804D01*
X022589Y020304D01*
X022589Y020804D02*
X022339Y021054D01*
X021839Y021054D01*
X021589Y020804D01*
X021589Y020304D01*
X021589Y020804D02*
X021339Y021054D01*
X020839Y021054D01*
X020589Y020804D01*
X023589Y020804D02*
X023839Y021054D01*
X024339Y021054D01*
X024589Y020804D01*
X024839Y021054D01*
X025339Y021054D01*
X025589Y020804D01*
X025839Y021054D01*
X026339Y021054D01*
X026589Y020804D01*
X026589Y020304D01*
X026339Y020054D01*
X025839Y020054D01*
X025589Y020304D01*
X025339Y020054D01*
X024839Y020054D01*
X024589Y020304D01*
X024339Y020054D01*
X023839Y020054D01*
X023589Y020304D01*
X024589Y020304D02*
X024589Y020804D01*
X025589Y020804D02*
X025589Y020304D01*
X023339Y017804D02*
X023341Y017848D01*
X023347Y017892D01*
X023357Y017935D01*
X023370Y017977D01*
X023387Y018018D01*
X023408Y018057D01*
X023432Y018094D01*
X023459Y018129D01*
X023489Y018161D01*
X023522Y018191D01*
X023558Y018217D01*
X023595Y018241D01*
X023635Y018260D01*
X023676Y018277D01*
X023719Y018289D01*
X023762Y018298D01*
X023806Y018303D01*
X023850Y018304D01*
X023894Y018301D01*
X023938Y018294D01*
X023981Y018283D01*
X024023Y018269D01*
X024063Y018251D01*
X024102Y018229D01*
X024138Y018205D01*
X024172Y018177D01*
X024204Y018146D01*
X024233Y018112D01*
X024259Y018076D01*
X024281Y018038D01*
X024300Y017998D01*
X024315Y017956D01*
X024327Y017914D01*
X024335Y017870D01*
X024339Y017826D01*
X024339Y017782D01*
X024335Y017738D01*
X024327Y017694D01*
X024315Y017652D01*
X024300Y017610D01*
X024281Y017570D01*
X024259Y017532D01*
X024233Y017496D01*
X024204Y017462D01*
X024172Y017431D01*
X024138Y017403D01*
X024102Y017379D01*
X024063Y017357D01*
X024023Y017339D01*
X023981Y017325D01*
X023938Y017314D01*
X023894Y017307D01*
X023850Y017304D01*
X023806Y017305D01*
X023762Y017310D01*
X023719Y017319D01*
X023676Y017331D01*
X023635Y017348D01*
X023595Y017367D01*
X023558Y017391D01*
X023522Y017417D01*
X023489Y017447D01*
X023459Y017479D01*
X023432Y017514D01*
X023408Y017551D01*
X023387Y017590D01*
X023370Y017631D01*
X023357Y017673D01*
X023347Y017716D01*
X023341Y017760D01*
X023339Y017804D01*
X023339Y016304D02*
X023341Y016348D01*
X023347Y016392D01*
X023357Y016435D01*
X023370Y016477D01*
X023387Y016518D01*
X023408Y016557D01*
X023432Y016594D01*
X023459Y016629D01*
X023489Y016661D01*
X023522Y016691D01*
X023558Y016717D01*
X023595Y016741D01*
X023635Y016760D01*
X023676Y016777D01*
X023719Y016789D01*
X023762Y016798D01*
X023806Y016803D01*
X023850Y016804D01*
X023894Y016801D01*
X023938Y016794D01*
X023981Y016783D01*
X024023Y016769D01*
X024063Y016751D01*
X024102Y016729D01*
X024138Y016705D01*
X024172Y016677D01*
X024204Y016646D01*
X024233Y016612D01*
X024259Y016576D01*
X024281Y016538D01*
X024300Y016498D01*
X024315Y016456D01*
X024327Y016414D01*
X024335Y016370D01*
X024339Y016326D01*
X024339Y016282D01*
X024335Y016238D01*
X024327Y016194D01*
X024315Y016152D01*
X024300Y016110D01*
X024281Y016070D01*
X024259Y016032D01*
X024233Y015996D01*
X024204Y015962D01*
X024172Y015931D01*
X024138Y015903D01*
X024102Y015879D01*
X024063Y015857D01*
X024023Y015839D01*
X023981Y015825D01*
X023938Y015814D01*
X023894Y015807D01*
X023850Y015804D01*
X023806Y015805D01*
X023762Y015810D01*
X023719Y015819D01*
X023676Y015831D01*
X023635Y015848D01*
X023595Y015867D01*
X023558Y015891D01*
X023522Y015917D01*
X023489Y015947D01*
X023459Y015979D01*
X023432Y016014D01*
X023408Y016051D01*
X023387Y016090D01*
X023370Y016131D01*
X023357Y016173D01*
X023347Y016216D01*
X023341Y016260D01*
X023339Y016304D01*
X004839Y006054D02*
X004841Y006098D01*
X004847Y006142D01*
X004857Y006185D01*
X004870Y006227D01*
X004887Y006268D01*
X004908Y006307D01*
X004932Y006344D01*
X004959Y006379D01*
X004989Y006411D01*
X005022Y006441D01*
X005058Y006467D01*
X005095Y006491D01*
X005135Y006510D01*
X005176Y006527D01*
X005219Y006539D01*
X005262Y006548D01*
X005306Y006553D01*
X005350Y006554D01*
X005394Y006551D01*
X005438Y006544D01*
X005481Y006533D01*
X005523Y006519D01*
X005563Y006501D01*
X005602Y006479D01*
X005638Y006455D01*
X005672Y006427D01*
X005704Y006396D01*
X005733Y006362D01*
X005759Y006326D01*
X005781Y006288D01*
X005800Y006248D01*
X005815Y006206D01*
X005827Y006164D01*
X005835Y006120D01*
X005839Y006076D01*
X005839Y006032D01*
X005835Y005988D01*
X005827Y005944D01*
X005815Y005902D01*
X005800Y005860D01*
X005781Y005820D01*
X005759Y005782D01*
X005733Y005746D01*
X005704Y005712D01*
X005672Y005681D01*
X005638Y005653D01*
X005602Y005629D01*
X005563Y005607D01*
X005523Y005589D01*
X005481Y005575D01*
X005438Y005564D01*
X005394Y005557D01*
X005350Y005554D01*
X005306Y005555D01*
X005262Y005560D01*
X005219Y005569D01*
X005176Y005581D01*
X005135Y005598D01*
X005095Y005617D01*
X005058Y005641D01*
X005022Y005667D01*
X004989Y005697D01*
X004959Y005729D01*
X004932Y005764D01*
X004908Y005801D01*
X004887Y005840D01*
X004870Y005881D01*
X004857Y005923D01*
X004847Y005966D01*
X004841Y006010D01*
X004839Y006054D01*
X020589Y001804D02*
X020589Y001304D01*
X020839Y001054D01*
X021339Y001054D01*
X021589Y001304D01*
X021839Y001054D01*
X022339Y001054D01*
X022589Y001304D01*
X022589Y001804D01*
X022339Y002054D01*
X021839Y002054D01*
X021589Y001804D01*
X021589Y001304D01*
X021589Y001804D02*
X021339Y002054D01*
X020839Y002054D01*
X020589Y001804D01*
X022589Y001804D02*
X022839Y002054D01*
X023339Y002054D01*
X023589Y001804D01*
X023839Y002054D01*
X024339Y002054D01*
X024589Y001804D01*
X024839Y002054D01*
X025339Y002054D01*
X025589Y001804D01*
X025839Y002054D01*
X026339Y002054D01*
X026589Y001804D01*
X026589Y001304D01*
X026339Y001054D01*
X025839Y001054D01*
X025589Y001304D01*
X025339Y001054D01*
X024839Y001054D01*
X024589Y001304D01*
X024339Y001054D01*
X023839Y001054D01*
X023589Y001304D01*
X023339Y001054D01*
X022839Y001054D01*
X022589Y001304D01*
X023589Y001304D02*
X023589Y001804D01*
X024589Y001804D02*
X024589Y001304D01*
X025589Y001304D02*
X025589Y001804D01*
D18*
X024439Y005804D02*
X024239Y005804D01*
X024239Y007304D02*
X024439Y007304D01*
X024439Y008554D02*
X024239Y008554D01*
X024239Y010054D02*
X024439Y010054D01*
X024439Y011304D02*
X024239Y011304D01*
X024239Y012804D02*
X024439Y012804D01*
X024439Y016304D02*
X024239Y016304D01*
X024239Y017804D02*
X024439Y017804D01*
X004939Y015804D02*
X004739Y015804D01*
X004739Y014304D02*
X004939Y014304D01*
X004939Y013054D02*
X004739Y013054D01*
X004739Y011554D02*
X004939Y011554D01*
X004939Y010304D02*
X004739Y010304D01*
X004739Y008804D02*
X004939Y008804D01*
X004939Y007554D02*
X004739Y007554D01*
X004739Y006054D02*
X004939Y006054D01*
D19*
X017839Y004804D02*
X017839Y003304D01*
D20*
X016589Y002979D03*
X016589Y005129D03*
M02*
