%
T01C0.023600
X8500Y8500
X8500Y9500
X8500Y10500
X9500Y12500
X10000Y13500
X10500Y16500
X21500Y7250
X7250Y31000
X7750Y32500
X8750Y32750
X8750Y35250
X9000Y36250
X9000Y37250
X7750Y36750
X7250Y38750
X9000Y39250
X11500Y40500
X11750Y37000
X12000Y35000
X12000Y33000
X12000Y31000
X42250Y31500
X42250Y37750
T02C0.032000
X21500Y9000
X21500Y10000
X21500Y11000
X21500Y12000
X21500Y13000
X21500Y14000
X21500Y15000
X21500Y16000
X21500Y17000
X21500Y18000
X18500Y18000
X18500Y17000
X18500Y16000
X18500Y15000
X18500Y14000
X18500Y13000
X18500Y12000
X18500Y11000
X18500Y10000
X18500Y9000
X17500Y7250
X16250Y5250
X15250Y5250
X17500Y4250
X19000Y5250
X20000Y5250
X14750Y9000
X14750Y10000
X14750Y11000
X14750Y12000
X14750Y13000
X14750Y14000
X14750Y15000
X14750Y16000
X14750Y17000
X14750Y18000
X11750Y18000
X11750Y17000
X11750Y16000
X11750Y15000
X11750Y14000
X11750Y13000
X11750Y12000
X11750Y11000
X11750Y10000
X11750Y9000
X33500Y7500
X34500Y7500
X34500Y9000
X33500Y9000
X33500Y10250
X34500Y10250
X34500Y11750
X33500Y11750
X33500Y13000
X34500Y13000
X34500Y14500
X33500Y14500
X33500Y15750
X34500Y15750
X34500Y17250
X33500Y17250
X40000Y16250
X40000Y15250
X40000Y14250
X40000Y13250
X40000Y12250
X40000Y11250
X40000Y10250
X40000Y9250
X40000Y8250
X43000Y8250
X43000Y9250
X43000Y10250
X43000Y11250
X43000Y12250
X43000Y13250
X43000Y14250
X43000Y15250
X43000Y16250
X45750Y16250
X45750Y15250
X45750Y14250
X45750Y13250
X45750Y12250
X45750Y11250
X45750Y10250
X45750Y9250
X45750Y8250
X45750Y7000
X44000Y6000
X44000Y5000
X45750Y4000
X47500Y5500
X48500Y5500
X48750Y8250
X48750Y9250
X48750Y10250
X48750Y11250
X48750Y12250
X48750Y13250
X48750Y14250
X48750Y15250
X48750Y16250
X53000Y17750
X54000Y17750
X54000Y19250
X53000Y19250
X53000Y14250
X54000Y14250
X54000Y12750
X53000Y12750
X53000Y11500
X54000Y11500
X54000Y10000
X53000Y10000
X53000Y8750
X54000Y8750
X54000Y7250
X53000Y7250
X13000Y30750
X13000Y31750
X13000Y32750
X13000Y33750
X13000Y34750
X13000Y35750
X13000Y36750
X13000Y37750
X13000Y38750
X13000Y39750
X10000Y39750
X10000Y38750
X10000Y37750
X10000Y36750
X10000Y35750
X10000Y34750
X10000Y33750
X10000Y32750
X10000Y31750
X10000Y30750
X6625Y31500
X5625Y31500
X5625Y33000
X6625Y33000
X6625Y34250
X5625Y34250
X5625Y35750
X6625Y35750
X6625Y37000
X5625Y37000
X5625Y38500
X6625Y38500
X6625Y39750
X5625Y39750
X5625Y41250
X6625Y41250
X17250Y39750
X17250Y38750
X17250Y37750
X17250Y36750
X17250Y35750
X17250Y34750
X17250Y33750
X17250Y32750
X17250Y31750
X17250Y30750
X20250Y30750
X20250Y31750
X20250Y32750
X20250Y33750
X20250Y34750
X20250Y35750
X20250Y36750
X20250Y37750
X20250Y38750
X20250Y39750
X22500Y36500
X23500Y36500
X23500Y35500
X22500Y35500
X22500Y34500
X22500Y33500
X23500Y33500
X23500Y34500
X24875Y33500
X25875Y33500
X26875Y33500
X27875Y33500
X27875Y32250
X26875Y32250
X25875Y32250
X24875Y32250
X23500Y32250
X22500Y32250
X22500Y31250
X23500Y31250
X23500Y30250
X23500Y29250
X22500Y29250
X22500Y30250
X24875Y29250
X25875Y29250
X26875Y29250
X27875Y29250
X24000Y27250
X21000Y27250
X19750Y27250
X18750Y27250
X17250Y27250
X16250Y27250
X24875Y36500
X25875Y36500
X26875Y36500
X27875Y36500
X43250Y37750
X44250Y37750
X45250Y37750
X46250Y37750
X47250Y37750
X48250Y37750
X49250Y37750
X50250Y37750
X50250Y34750
X49250Y34750
X48250Y34750
X47250Y34750
X46250Y34750
X45250Y34750
X44250Y34750
X43250Y34750
X45250Y28500
X46250Y28500
X47750Y28500
X48750Y28500
X48250Y26750
X45250Y26750
T03C0.040000
X5500Y3000
X6500Y3000
X7500Y3000
X8500Y3000
X9500Y3000
X10500Y3000
X11500Y3000
X12500Y3000
X12500Y4500
X11500Y4500
X10500Y4500
X9500Y4500
X8500Y4500
X7500Y4500
X6500Y4500
X5500Y4500
X5500Y5500
X6500Y5500
X7500Y5500
X8500Y5500
X9500Y5500
X10500Y5500
X11500Y5500
X12500Y5500
X15000Y3000
X16000Y3000
X17000Y3000
X18000Y3000
X19000Y3000
X20000Y3000
X22000Y3000
X23000Y3000
X24000Y3000
X25000Y3000
X26000Y3000
X27000Y3000
X23500Y8500
X23500Y9500
X23500Y10500
X23500Y11500
X23500Y12500
X23500Y13500
X23500Y14500
X23500Y15500
X23000Y22000
X22000Y22000
X21000Y22000
X20000Y22000
X18400Y22000
X17400Y22000
X16400Y22000
X15400Y22000
X14400Y22000
X13400Y22000
X12400Y22000
X11400Y22000
X7500Y15500
X7500Y14500
X7500Y13500
X7500Y12500
X7500Y11500
X7500Y10500
X7500Y9500
X7500Y8500
X24000Y22000
X25000Y22000
X26000Y22000
X27000Y22000
X34250Y3000
X35250Y3000
X36250Y3000
X37250Y3000
X38250Y3000
X39250Y3000
X40250Y3000
X41250Y3000
X43250Y3000
X44250Y3000
X45250Y3000
X46250Y3000
X47250Y3000
X48250Y3000
X50250Y3000
X51250Y3000
X52250Y3000
X53250Y3000
X54250Y3000
X55250Y3000
X51750Y8500
X51750Y9500
X51750Y10500
X51750Y11500
X51750Y12500
X51750Y13500
X51750Y14500
X51750Y15500
X52250Y22000
X53250Y22000
X54250Y22000
X55250Y22000
X51250Y22000
X50250Y22000
X49250Y22000
X48250Y22000
X46650Y22000
X45650Y22000
X44650Y22000
X43650Y22000
X42650Y22000
X41650Y22000
X40650Y22000
X39650Y22000
X35750Y15500
X35750Y14500
X35750Y13500
X35750Y12500
X35750Y11500
X35750Y10500
X35750Y9500
X35750Y8500
X38750Y6000
X38750Y5000
X40750Y5000
X40750Y6000
X6000Y25250
X7000Y25250
X8000Y25250
X9000Y25250
X10000Y25250
X11000Y25250
X12000Y25250
X13000Y25250
X13000Y26750
X12000Y26750
X11000Y26750
X10000Y26750
X9000Y26750
X8000Y26750
X7000Y26750
X6000Y26750
X6000Y27750
X7000Y27750
X8000Y27750
X9000Y27750
X10000Y27750
X11000Y27750
X12000Y27750
X13000Y27750
X15000Y25250
X16000Y25250
X17000Y25250
X18000Y25250
X19000Y25250
X20000Y25250
X22000Y25250
X23000Y25250
X24000Y25250
X25000Y25250
X26000Y25250
X27000Y25250
X27000Y44250
X26000Y44250
X25000Y44250
X24000Y44250
X23000Y44250
X22000Y44250
X21000Y44250
X20000Y44250
X18400Y44250
X17400Y44250
X16400Y44250
X15400Y44250
X14400Y44250
X13400Y44250
X12400Y44250
X11400Y44250
X34250Y25250
X35250Y25250
X36250Y25250
X37250Y25250
X38250Y25250
X39250Y25250
X40250Y25250
X41250Y25250
X43250Y25250
X44250Y25250
X45250Y25250
X46250Y25250
X47250Y25250
X48250Y25250
X50250Y25250
X51250Y25250
X52250Y25250
X53250Y25250
X54250Y25250
X55250Y25250
X55250Y44250
X54250Y44250
X53250Y44250
X52250Y44250
X51250Y44250
X50250Y44250
X49250Y44250
X48250Y44250
X46650Y44250
X45650Y44250
X44650Y44250
X43650Y44250
X42650Y44250
X41650Y44250
X40650Y44250
X39650Y44250
T04C0.050000
X27250Y19189
X27250Y17811
X27250Y14189
X27250Y12811
X27250Y11439
X27250Y10061
X27250Y8689
X27250Y7311
X3250Y7561
X3250Y8939
X3250Y10311
X3250Y11689
X3250Y13061
X3250Y14439
X3250Y15811
X3250Y17189
X31500Y7561
X31500Y8939
X31500Y10311
X31500Y11689
X31500Y13061
X31500Y14439
X31500Y15811
X31500Y17189
X55500Y17811
X55500Y19189
X55500Y14189
X55500Y12811
X55500Y11439
X55500Y10061
X55500Y8689
X55500Y7311
X3250Y41189
X3250Y39811
X3250Y38439
X3250Y37061
X3250Y35689
X3250Y34311
X3250Y32939
X3250Y31561
X3250Y30189
X3250Y28811
T05C0.126000
X8000Y22000
X28000Y16000
X28000Y5000
X56250Y5000
X56250Y16000
X36250Y22000
X8000Y44250
X28000Y38250
X28000Y27250
X36250Y44250
X56250Y38250
X56250Y27250
M30
