G75*
%MOIN*%
%OFA0B0*%
%FSLAX24Y24*%
%IPPOS*%
%LPD*%
%AMOC8*
5,1,8,0,0,1.08239X$1,22.5*
%
%ADD10C,0.0000*%
%ADD11R,0.0512X0.0512*%
%ADD12R,0.0512X0.0512*%
%ADD13C,0.0437*%
D10*
X002392Y002517D02*
X002392Y011017D01*
X008892Y011017D01*
X008892Y002517D01*
X002392Y002517D01*
D11*
X002978Y003392D03*
X003805Y003392D03*
X004517Y003805D03*
X004517Y002978D03*
X005517Y002978D03*
X005517Y003805D03*
X003743Y004454D03*
X002916Y004454D03*
X002916Y005579D03*
X003743Y005579D03*
X003805Y006704D03*
X002978Y006704D03*
X002978Y007829D03*
X003805Y007829D03*
X003805Y008954D03*
X002978Y008954D03*
X002978Y010079D03*
X003805Y010079D03*
X004517Y009728D03*
X004517Y010555D03*
X005517Y010555D03*
X005517Y009728D03*
X007478Y007892D03*
X007478Y007079D03*
X007478Y006267D03*
X007478Y005454D03*
X008305Y005454D03*
X008305Y006267D03*
X008305Y007079D03*
X008305Y007892D03*
D12*
G36*
X007269Y008302D02*
X007052Y008765D01*
X007515Y008982D01*
X007732Y008519D01*
X007269Y008302D01*
G37*
G36*
X007037Y008925D02*
X006675Y009287D01*
X007037Y009649D01*
X007399Y009287D01*
X007037Y008925D01*
G37*
G36*
X006591Y009367D02*
X006097Y009499D01*
X006229Y009993D01*
X006723Y009861D01*
X006591Y009367D01*
G37*
G36*
X006805Y010165D02*
X006311Y010297D01*
X006443Y010791D01*
X006937Y010659D01*
X006805Y010165D01*
G37*
G36*
X007621Y009509D02*
X007259Y009871D01*
X007621Y010233D01*
X007983Y009871D01*
X007621Y009509D01*
G37*
G36*
X008018Y008651D02*
X007801Y009114D01*
X008264Y009331D01*
X008481Y008868D01*
X008018Y008651D01*
G37*
G36*
X007036Y004668D02*
X007253Y005131D01*
X007716Y004914D01*
X007499Y004451D01*
X007036Y004668D01*
G37*
G36*
X006550Y004184D02*
X006912Y004546D01*
X007274Y004184D01*
X006912Y003822D01*
X006550Y004184D01*
G37*
G36*
X006045Y003944D02*
X006508Y004161D01*
X006725Y003698D01*
X006262Y003481D01*
X006045Y003944D01*
G37*
G36*
X006394Y003195D02*
X006857Y003412D01*
X007074Y002949D01*
X006611Y002732D01*
X006394Y003195D01*
G37*
G36*
X007134Y003599D02*
X007496Y003961D01*
X007858Y003599D01*
X007496Y003237D01*
X007134Y003599D01*
G37*
G36*
X007786Y004319D02*
X008003Y004782D01*
X008466Y004565D01*
X008249Y004102D01*
X007786Y004319D01*
G37*
D13*
X007767Y003767D03*
X007329Y003267D03*
X004829Y002892D03*
X004204Y002892D03*
X002892Y003017D03*
X002892Y003767D03*
X003829Y005267D03*
X003829Y005892D03*
X003829Y008642D03*
X003829Y009267D03*
X005204Y010642D03*
X005829Y010642D03*
X008142Y009329D03*
X008454Y008767D03*
X008329Y006579D03*
X008329Y005954D03*
M02*
