%
T01C0.019700
X1500Y1312
X1500Y1937
X2437Y2937
X2937Y3375
X3250Y3250
X2437Y3562
X1937Y4062
X2750Y5500
X2750Y5875
X1937Y6437
X2625Y7687
X3000Y7687
X1937Y8750
X3500Y9187
X4000Y9187
X4375Y8562
X6062Y8750
X6562Y8375
X6375Y7437
X7062Y6125
X7000Y5562
X6375Y5125
X5375Y3562
X4875Y3437
X4375Y4187
X10125Y1375
X10500Y1375
X10625Y2812
X10312Y2812
X9312Y4500
X8562Y3937
X8562Y3437
X8562Y5750
X8562Y6250
X9312Y6750
X9437Y8500
X10000Y8875
X10812Y8562
X12500Y9062
X12875Y9062
X13062Y8250
X14437Y7062
X14437Y6500
X13687Y6000
X14437Y4687
X14437Y4312
X13687Y3750
X13562Y1875
X13000Y1562
X12187Y1937
X16500Y2750
X17000Y3437
X17000Y4062
X18125Y4437
X18750Y4625
X18125Y3625
X17562Y2750
X17875Y2312
X17500Y1937
X17062Y2000
X19000Y2937
X19375Y2937
X21312Y3062
X21312Y2437
X21312Y5437
X21312Y6062
X21312Y8437
X21312Y9062
X17000Y7062
X17000Y6437
X16500Y5750
X16125Y8437
X16125Y9062
X23562Y2312
X24187Y2312
X23625Y3000
X24500Y4312
X24500Y4687
X23625Y6000
X24500Y7312
X24500Y7687
X23750Y8500
X25250Y9062
X25812Y9062
X26375Y8500
X27812Y9062
X28437Y9062
X26312Y5562
X26312Y4937
X26187Y2250
X26812Y2250
X27937Y1437
X28562Y1437
X25625Y1750
X30437Y1312
X30437Y1937
X31437Y2937
X31437Y3562
X30937Y4000
X31937Y4812
X32312Y4812
X31687Y5375
X31687Y6000
X30937Y6500
X31687Y8000
X31687Y8687
X32312Y8437
X33750Y8937
X34375Y8937
X34875Y7812
X35875Y6562
X35875Y5937
X35375Y5437
X35687Y4687
X35312Y4125
X35312Y3750
X34437Y4000
X33500Y3187
X34125Y2437
X35312Y2125
X35562Y1625
X35312Y2750
X3750Y12250
X3750Y12875
X4312Y13437
X3750Y14875
X3750Y15500
X4312Y16062
X5187Y17062
X5500Y17062
X6750Y17875
X4000Y18187
X3687Y18187
X3312Y17062
X2937Y17062
X1687Y17875
X4687Y11125
X4687Y10562
X10125Y10625
X10500Y10625
X10625Y12062
X10312Y12062
X9312Y13750
X8562Y13187
X8562Y12687
X8562Y15000
X8562Y15500
X9312Y16000
X9437Y17750
X10000Y18125
X10812Y17812
X12500Y18312
X12875Y18312
X13062Y17500
X14437Y16312
X14437Y15750
X13687Y15250
X14437Y13937
X14437Y13562
X13687Y13000
X13562Y11125
X13000Y10812
X12187Y11187
X16500Y12000
X17000Y12687
X17000Y13312
X18125Y13687
X18750Y13875
X18125Y12875
X17562Y12000
X17875Y11562
X17500Y11187
X17062Y11250
X19000Y12187
X19375Y12187
X21312Y12312
X21312Y11687
X21312Y14687
X21312Y15312
X21312Y17687
X21312Y18312
X17000Y16312
X17000Y15687
X16500Y15000
X16125Y17687
X16125Y18312
X23562Y11562
X24187Y11562
X23625Y12250
X24500Y13562
X24500Y13937
X23625Y15250
X24500Y16562
X24500Y16937
X23750Y17750
X25250Y18312
X25812Y18312
X26375Y17750
X27812Y18312
X28437Y18312
X26312Y14812
X26312Y14187
X26187Y11500
X26812Y11500
X27937Y10687
X28562Y10687
X25625Y11000
X30437Y10562
X30437Y11187
X31437Y12187
X31437Y12812
X30937Y13250
X31937Y14062
X32312Y14062
X31687Y14625
X31687Y15250
X30937Y15750
X31687Y17250
X31687Y17937
X32312Y17687
X33750Y18187
X34375Y18187
X34875Y17062
X35875Y15812
X35875Y15187
X35375Y14687
X35687Y13937
X35312Y13375
X35312Y13000
X34437Y13250
X33500Y12437
X34125Y11687
X35312Y11375
X35562Y10875
X35312Y12000
X1500Y19812
X1500Y20437
X2437Y21437
X2937Y21875
X3250Y21750
X2437Y22062
X1937Y22562
X2750Y24000
X2750Y24375
X1937Y24937
X2625Y26187
X3000Y26187
X1937Y27250
X3500Y27687
X4000Y27687
X4375Y27062
X6062Y27250
X6562Y26875
X6375Y25937
X7062Y24625
X7000Y24062
X6375Y23625
X5375Y22062
X4875Y21937
X4375Y22687
X10125Y19875
X10500Y19875
X10625Y21312
X10312Y21312
X9312Y23000
X8562Y22437
X8562Y21937
X8562Y24250
X8562Y24750
X9312Y25250
X9437Y27000
X10000Y27375
X10812Y27062
X12500Y27562
X12875Y27562
X13062Y26750
X14437Y25562
X14437Y25000
X13687Y24500
X14437Y23187
X14437Y22812
X13687Y22250
X13562Y20375
X13000Y20062
X12187Y20437
X16500Y21250
X17000Y21937
X17000Y22562
X18125Y22937
X18750Y23125
X18125Y22125
X17562Y21250
X17875Y20812
X17500Y20437
X17062Y20500
X19000Y21437
X19375Y21437
X21312Y21562
X21312Y20937
X21312Y23937
X21312Y24562
X21312Y26937
X21312Y27562
X17000Y25562
X17000Y24937
X16500Y24250
X16125Y26937
X16125Y27562
X23562Y20812
X24187Y20812
X23625Y21500
X24500Y22812
X24500Y23187
X23625Y24500
X24500Y25812
X24500Y26187
X23750Y27000
X25250Y27562
X25812Y27562
X26375Y27000
X27812Y27562
X28437Y27562
X26312Y24062
X26312Y23437
X26187Y20750
X26812Y20750
X27937Y19937
X28562Y19937
X25625Y20250
X30437Y19812
X30437Y20437
X31437Y21437
X31437Y22062
X30937Y22500
X31937Y23312
X32312Y23312
X31687Y23875
X31687Y24500
X30937Y25000
X31687Y26500
X31687Y27187
X32312Y26937
X33750Y27437
X34375Y27437
X34875Y26312
X35875Y25062
X35875Y24437
X35375Y23937
X35687Y23187
X35312Y22625
X35312Y22250
X34437Y22500
X33500Y21687
X34125Y20937
X35312Y20625
X35562Y20125
X35312Y21250
X3750Y30750
X3750Y31375
X4312Y31937
X3750Y33375
X3750Y34000
X4312Y34562
X5187Y35562
X5500Y35562
X6750Y36375
X4000Y36687
X3687Y36687
X3312Y35562
X2937Y35562
X1687Y36375
X4687Y29625
X4687Y29062
X10125Y29125
X10500Y29125
X10625Y30562
X10312Y30562
X9312Y32250
X8562Y31687
X8562Y31187
X8562Y33500
X8562Y34000
X9312Y34500
X9437Y36250
X10000Y36625
X10812Y36312
X12500Y36812
X12875Y36812
X13062Y36000
X14437Y34812
X14437Y34250
X13687Y33750
X14437Y32437
X14437Y32062
X13687Y31500
X13562Y29625
X13000Y29312
X12187Y29687
X16500Y30500
X17000Y31187
X17000Y31812
X18125Y32187
X18750Y32375
X18125Y31375
X17562Y30500
X17875Y30062
X17500Y29687
X17062Y29750
X19000Y30687
X19375Y30687
X21312Y30812
X21312Y30187
X21312Y33187
X21312Y33812
X21312Y36187
X21312Y36812
X17000Y34812
X17000Y34187
X16500Y33500
X16125Y36187
X16125Y36812
X23562Y30062
X24187Y30062
X23625Y30750
X24500Y32062
X24500Y32437
X23625Y33750
X24500Y35062
X24500Y35437
X23750Y36250
X25250Y36812
X25812Y36812
X26375Y36250
X27812Y36812
X28437Y36812
X26312Y33312
X26312Y32687
X26187Y30000
X26812Y30000
X27937Y29187
X28562Y29187
X25625Y29500
X30437Y29062
X30437Y29687
X31437Y30687
X31437Y31312
X30937Y31750
X31937Y32562
X32312Y32562
X31687Y33125
X31687Y33750
X30937Y34250
X31687Y35750
X31687Y36437
X32312Y36187
X33750Y36687
X34375Y36687
X34875Y35562
X35875Y34312
X35875Y33687
X35375Y33187
X35687Y32437
X35312Y31875
X35312Y31500
X34437Y31750
X33500Y30937
X34125Y30187
X35312Y29875
X35562Y29375
X35312Y30500
M30
