G75*
G70*
%OFA0B0*%
%FSLAX25Y25*%
%IPPOS*%
%LPD*%
%AMOC8*
5,1,8,0,0,1.08239X$1,22.5*
%
%ADD10C,0.03970*%
%ADD14C,0.03170*%
%ADD16C,0.00600*%
%ADD17C,0.00000*%
X0010000Y0010000D02*
G75*
%LPD*%
D17*
X0010000Y0010000D02*
X0010000Y0095000D01*
X0075000Y0095000D01*
X0075000Y0010000D01*
X0010000Y0010000D01*
D10*
X0015000Y0013120D03*
X0015000Y0019370D03*
X0024370Y0029370D03*
X0029370Y0033750D03*
X0032500Y0032500D03*
X0024370Y0035620D03*
X0027500Y0055000D03*
X0027500Y0058750D03*
X0026250Y0076870D03*
X0030000Y0076870D03*
X0035000Y0091870D03*
X0040000Y0091870D03*
X0060620Y0087500D03*
X0065620Y0083750D03*
X0070620Y0061250D03*
X0070000Y0055620D03*
X0053750Y0035620D03*
X0048750Y0034370D03*
D14*
X0043750Y0041870D03*
X0063750Y0051250D03*
X0063750Y0074370D03*
X0043750Y0085620D03*
X0019370Y0087500D03*
X0019370Y0064370D03*
X0019370Y0040620D03*
D16*
X0019370Y0064370D01*
X0019370Y0087500D01*
X0020000Y0087500D01*
X0021870Y0085620D01*
X0043750Y0085620D01*
X0052500Y0085620D01*
X0063750Y0074370D01*
X0063750Y0051250D01*
X0054370Y0041870D01*
X0043750Y0041870D01*
X0063120Y0051870D02*
X0063750Y0051250D01*
X0019370Y0040620D02*
X0019370Y0023750D01*
X0015000Y0019370D01*
X0082500Y0010000D02*
G75*
%LPD*%
D17*
X0082500Y0010000D02*
X0082500Y0095000D01*
X0147500Y0095000D01*
X0147500Y0010000D01*
X0082500Y0010000D01*
D10*
X0101250Y0013750D03*
X0105000Y0013750D03*
X0106250Y0028120D03*
X0103120Y0028120D03*
X0085620Y0034370D03*
X0085620Y0039370D03*
X0085620Y0057500D03*
X0085620Y0062500D03*
X0094370Y0085000D03*
X0100000Y0088750D03*
X0125000Y0090620D03*
X0128750Y0090620D03*
X0144370Y0070620D03*
X0144370Y0065000D03*
X0144370Y0046870D03*
X0144370Y0043120D03*
X0135620Y0018750D03*
X0130000Y0015620D03*
D16*
X0125000Y0019370D02*
X0136870Y0031250D01*
X0136870Y0037500D01*
X0136870Y0060000D01*
X0136870Y0076250D01*
X0130620Y0082500D01*
X0127500Y0085620D01*
X0108120Y0085620D01*
X0106870Y0085620D01*
X0093120Y0071870D01*
X0093120Y0067500D01*
X0093120Y0045000D01*
X0093120Y0035620D01*
X0100620Y0028120D01*
X0103120Y0028120D01*
X0121870Y0019370D02*
X0125000Y0019370D01*
D14*
X0121870Y0019370D03*
X0136870Y0037500D03*
X0136870Y0060000D03*
X0130620Y0082500D03*
X0108120Y0085620D03*
X0093120Y0067500D03*
X0093120Y0045000D03*
X0155000Y0010000D02*
G75*
%LPD*%
D17*
X0155000Y0010000D02*
X0155000Y0095000D01*
X0220000Y0095000D01*
X0220000Y0010000D01*
X0155000Y0010000D01*
D10*
X0175000Y0019370D03*
X0178750Y0023120D03*
X0170000Y0034370D03*
X0170000Y0040620D03*
X0190000Y0029370D03*
X0193750Y0029370D03*
X0213120Y0030620D03*
X0213120Y0024370D03*
X0213120Y0054370D03*
X0213120Y0060620D03*
X0213120Y0084370D03*
X0213120Y0090620D03*
X0170000Y0070620D03*
X0170000Y0064370D03*
X0161250Y0084370D03*
X0161250Y0090620D03*
D14*
X0165000Y0057500D03*
X0181250Y0044370D03*
X0187500Y0046250D03*
X0181250Y0036250D03*
X0175620Y0027500D03*
X0170620Y0020000D03*
X0165000Y0027500D03*
D16*
X0167740Y0027500D01*
X0181250Y0041010D01*
X0181250Y0044370D01*
X0187500Y0042500D02*
X0187500Y0046250D01*
X0187500Y0042500D02*
X0181250Y0036250D01*
X0175620Y0027500D02*
X0170620Y0022500D01*
X0170620Y0020000D01*
X0165000Y0027500D02*
X0165000Y0057500D01*
X0165000Y0080620D01*
X0161250Y0084370D01*
X0227500Y0010000D02*
G75*
%LPD*%
D17*
X0227500Y0010000D02*
X0227500Y0095000D01*
X0292500Y0095000D01*
X0292500Y0010000D01*
X0227500Y0010000D01*
D10*
X0235620Y0023120D03*
X0241870Y0023120D03*
X0245000Y0043120D03*
X0245000Y0046870D03*
X0263120Y0049370D03*
X0263120Y0055620D03*
X0245000Y0073120D03*
X0245000Y0076870D03*
X0252500Y0090620D03*
X0258120Y0090620D03*
X0278120Y0090620D03*
X0284370Y0090620D03*
X0268120Y0022500D03*
X0261870Y0022500D03*
X0279370Y0014370D03*
X0285620Y0014370D03*
D14*
X0256250Y0017500D03*
X0236250Y0030000D03*
X0236250Y0060000D03*
X0237500Y0085000D03*
X0263750Y0085000D03*
D16*
X0237500Y0085000D01*
X0237500Y0061250D01*
X0236250Y0060000D01*
X0236250Y0030000D01*
X0238750Y0027500D01*
X0238750Y0021250D01*
X0242500Y0017500D01*
X0256250Y0017500D01*
X0276250Y0017500D01*
X0279370Y0014370D01*
X0300000Y0010000D02*
G75*
%LPD*%
D17*
X0300000Y0010000D02*
X0300000Y0095000D01*
X0363750Y0095000D01*
X0363750Y0010000D01*
X0300000Y0010000D01*
D10*
X0304370Y0013120D03*
X0304370Y0019370D03*
X0314370Y0029370D03*
X0314370Y0035620D03*
X0319370Y0048120D03*
X0323120Y0048120D03*
X0316870Y0053750D03*
X0316870Y0060000D03*
X0316870Y0080000D03*
X0316870Y0086870D03*
X0337500Y0089370D03*
X0343750Y0089370D03*
X0358750Y0065620D03*
X0358750Y0059370D03*
X0353120Y0041250D03*
X0353120Y0037500D03*
X0353120Y0027500D03*
X0353120Y0021250D03*
D16*
X0352740Y0016250D02*
X0344610Y0024370D01*
X0341250Y0024370D01*
X0335000Y0031870D02*
X0335000Y0035620D01*
X0353750Y0054370D01*
X0353750Y0073120D01*
X0348750Y0078120D01*
X0342500Y0084370D01*
X0323120Y0084370D01*
X0321870Y0083120D01*
X0314370Y0083120D01*
X0309370Y0078120D01*
X0309370Y0065000D01*
X0309370Y0040000D01*
X0309370Y0025000D01*
X0304370Y0020000D01*
X0304370Y0019370D01*
X0344370Y0040000D02*
X0351250Y0046870D01*
X0356870Y0046870D01*
X0355620Y0016250D02*
X0352740Y0016250D01*
X0323120Y0080860D02*
X0323120Y0084370D01*
D14*
X0323120Y0084370D03*
X0309370Y0065000D03*
X0309370Y0040000D03*
X0335000Y0031870D03*
X0341250Y0024370D03*
X0344370Y0040000D03*
X0356870Y0046870D03*
X0353750Y0054370D03*
X0348750Y0078120D03*
X0355620Y0016250D03*
X0010000Y0102500D02*
G75*
%LPD*%
D17*
X0010000Y0102500D02*
X0010000Y0187500D01*
X0075000Y0187500D01*
X0075000Y0102500D01*
X0010000Y0102500D01*
D10*
X0037500Y0122500D03*
X0037500Y0128750D03*
X0046870Y0111250D03*
X0046870Y0105620D03*
X0037500Y0148750D03*
X0037500Y0155000D03*
X0033120Y0170620D03*
X0029370Y0170620D03*
X0036870Y0181870D03*
X0040000Y0181870D03*
X0051870Y0170620D03*
X0055000Y0170620D03*
D14*
X0043120Y0160620D03*
X0043120Y0134370D03*
X0067500Y0178750D03*
X0016870Y0178750D03*
D16*
X0033750Y0178750D01*
X0043120Y0169370D01*
X0052500Y0178750D01*
X0067500Y0178750D01*
X0043120Y0169370D02*
X0043120Y0160620D01*
X0043120Y0134370D01*
X0043120Y0115000D01*
X0046870Y0111250D01*
X0082500Y0102500D02*
G75*
%LPD*%
D17*
X0082500Y0102500D02*
X0082500Y0187500D01*
X0147500Y0187500D01*
X0147500Y0102500D01*
X0082500Y0102500D01*
D10*
X0101250Y0106250D03*
X0105000Y0106250D03*
X0106250Y0120620D03*
X0103120Y0120620D03*
X0085620Y0126870D03*
X0085620Y0131870D03*
X0085620Y0150000D03*
X0085620Y0155000D03*
X0094370Y0177500D03*
X0100000Y0181250D03*
X0125000Y0183120D03*
X0128750Y0183120D03*
X0144370Y0163120D03*
X0144370Y0157500D03*
X0144370Y0139370D03*
X0144370Y0135620D03*
X0135620Y0111250D03*
X0130000Y0108120D03*
D16*
X0125000Y0111870D02*
X0136870Y0123750D01*
X0136870Y0130000D01*
X0136870Y0152500D01*
X0136870Y0168750D01*
X0130620Y0175000D01*
X0127500Y0178120D01*
X0108120Y0178120D01*
X0106870Y0178120D01*
X0093120Y0164370D01*
X0093120Y0160000D01*
X0093120Y0137500D01*
X0093120Y0128120D01*
X0100620Y0120620D01*
X0103120Y0120620D01*
X0121870Y0111870D02*
X0125000Y0111870D01*
D14*
X0121870Y0111870D03*
X0136870Y0130000D03*
X0136870Y0152500D03*
X0130620Y0175000D03*
X0108120Y0178120D03*
X0093120Y0160000D03*
X0093120Y0137500D03*
X0155000Y0102500D02*
G75*
%LPD*%
D17*
X0155000Y0102500D02*
X0155000Y0187500D01*
X0220000Y0187500D01*
X0220000Y0102500D01*
X0155000Y0102500D01*
D10*
X0175000Y0111870D03*
X0178750Y0115620D03*
X0170000Y0126870D03*
X0170000Y0133120D03*
X0190000Y0121870D03*
X0193750Y0121870D03*
X0213120Y0123120D03*
X0213120Y0116870D03*
X0213120Y0146870D03*
X0213120Y0153120D03*
X0213120Y0176870D03*
X0213120Y0183120D03*
X0170000Y0163120D03*
X0170000Y0156870D03*
X0161250Y0176870D03*
X0161250Y0183120D03*
D14*
X0165000Y0150000D03*
X0181250Y0136870D03*
X0187500Y0138750D03*
X0181250Y0128750D03*
X0175620Y0120000D03*
X0170620Y0112500D03*
X0165000Y0120000D03*
D16*
X0167740Y0120000D01*
X0181250Y0133510D01*
X0181250Y0136870D01*
X0187500Y0135000D02*
X0187500Y0138750D01*
X0187500Y0135000D02*
X0181250Y0128750D01*
X0175620Y0120000D02*
X0170620Y0115000D01*
X0170620Y0112500D01*
X0165000Y0120000D02*
X0165000Y0150000D01*
X0165000Y0173120D01*
X0161250Y0176870D01*
X0227500Y0102500D02*
G75*
%LPD*%
D17*
X0227500Y0102500D02*
X0227500Y0187500D01*
X0292500Y0187500D01*
X0292500Y0102500D01*
X0227500Y0102500D01*
D10*
X0235620Y0115620D03*
X0241870Y0115620D03*
X0245000Y0135620D03*
X0245000Y0139370D03*
X0263120Y0141870D03*
X0263120Y0148120D03*
X0245000Y0165620D03*
X0245000Y0169370D03*
X0252500Y0183120D03*
X0258120Y0183120D03*
X0278120Y0183120D03*
X0284370Y0183120D03*
X0268120Y0115000D03*
X0261870Y0115000D03*
X0279370Y0106870D03*
X0285620Y0106870D03*
D14*
X0256250Y0110000D03*
X0236250Y0122500D03*
X0236250Y0152500D03*
X0237500Y0177500D03*
X0263750Y0177500D03*
D16*
X0237500Y0177500D01*
X0237500Y0153750D01*
X0236250Y0152500D01*
X0236250Y0122500D01*
X0238750Y0120000D01*
X0238750Y0113750D01*
X0242500Y0110000D01*
X0256250Y0110000D01*
X0276250Y0110000D01*
X0279370Y0106870D01*
X0300000Y0102500D02*
G75*
%LPD*%
D17*
X0300000Y0102500D02*
X0300000Y0187500D01*
X0363750Y0187500D01*
X0363750Y0102500D01*
X0300000Y0102500D01*
D10*
X0304370Y0105620D03*
X0304370Y0111870D03*
X0314370Y0121870D03*
X0314370Y0128120D03*
X0319370Y0140620D03*
X0323120Y0140620D03*
X0316870Y0146250D03*
X0316870Y0152500D03*
X0316870Y0172500D03*
X0316870Y0179370D03*
X0337500Y0181870D03*
X0343750Y0181870D03*
X0358750Y0158120D03*
X0358750Y0151870D03*
X0353120Y0133750D03*
X0353120Y0130000D03*
X0353120Y0120000D03*
X0353120Y0113750D03*
D16*
X0352740Y0108750D02*
X0344610Y0116870D01*
X0341250Y0116870D01*
X0335000Y0124370D02*
X0335000Y0128120D01*
X0353750Y0146870D01*
X0353750Y0165620D01*
X0348750Y0170620D01*
X0342500Y0176870D01*
X0323120Y0176870D01*
X0321870Y0175620D01*
X0314370Y0175620D01*
X0309370Y0170620D01*
X0309370Y0157500D01*
X0309370Y0132500D01*
X0309370Y0117500D01*
X0304370Y0112500D01*
X0304370Y0111870D01*
X0344370Y0132500D02*
X0351250Y0139370D01*
X0356870Y0139370D01*
X0355620Y0108750D02*
X0352740Y0108750D01*
X0323120Y0173360D02*
X0323120Y0176870D01*
D14*
X0323120Y0176870D03*
X0309370Y0157500D03*
X0309370Y0132500D03*
X0335000Y0124370D03*
X0341250Y0116870D03*
X0344370Y0132500D03*
X0356870Y0139370D03*
X0353750Y0146870D03*
X0348750Y0170620D03*
X0355620Y0108750D03*
X0010000Y0195000D02*
G75*
%LPD*%
D17*
X0010000Y0195000D02*
X0010000Y0280000D01*
X0075000Y0280000D01*
X0075000Y0195000D01*
X0010000Y0195000D01*
D10*
X0015000Y0198120D03*
X0015000Y0204370D03*
X0024370Y0214370D03*
X0029370Y0218750D03*
X0032500Y0217500D03*
X0024370Y0220620D03*
X0027500Y0240000D03*
X0027500Y0243750D03*
X0026250Y0261870D03*
X0030000Y0261870D03*
X0035000Y0276870D03*
X0040000Y0276870D03*
X0060620Y0272500D03*
X0065620Y0268750D03*
X0070620Y0246250D03*
X0070000Y0240620D03*
X0053750Y0220620D03*
X0048750Y0219370D03*
D14*
X0043750Y0226870D03*
X0063750Y0236250D03*
X0063750Y0259370D03*
X0043750Y0270620D03*
X0019370Y0272500D03*
X0019370Y0249370D03*
X0019370Y0225620D03*
D16*
X0019370Y0249370D01*
X0019370Y0272500D01*
X0020000Y0272500D01*
X0021870Y0270620D01*
X0043750Y0270620D01*
X0052500Y0270620D01*
X0063750Y0259370D01*
X0063750Y0236250D01*
X0054370Y0226870D01*
X0043750Y0226870D01*
X0063120Y0236870D02*
X0063750Y0236250D01*
X0019370Y0225620D02*
X0019370Y0208750D01*
X0015000Y0204370D01*
X0082500Y0195000D02*
G75*
%LPD*%
D17*
X0082500Y0195000D02*
X0082500Y0280000D01*
X0147500Y0280000D01*
X0147500Y0195000D01*
X0082500Y0195000D01*
D10*
X0101250Y0198750D03*
X0105000Y0198750D03*
X0106250Y0213120D03*
X0103120Y0213120D03*
X0085620Y0219370D03*
X0085620Y0224370D03*
X0085620Y0242500D03*
X0085620Y0247500D03*
X0094370Y0270000D03*
X0100000Y0273750D03*
X0125000Y0275620D03*
X0128750Y0275620D03*
X0144370Y0255620D03*
X0144370Y0250000D03*
X0144370Y0231870D03*
X0144370Y0228120D03*
X0135620Y0203750D03*
X0130000Y0200620D03*
D16*
X0125000Y0204370D02*
X0136870Y0216250D01*
X0136870Y0222500D01*
X0136870Y0245000D01*
X0136870Y0261250D01*
X0130620Y0267500D01*
X0127500Y0270620D01*
X0108120Y0270620D01*
X0106870Y0270620D01*
X0093120Y0256870D01*
X0093120Y0252500D01*
X0093120Y0230000D01*
X0093120Y0220620D01*
X0100620Y0213120D01*
X0103120Y0213120D01*
X0121870Y0204370D02*
X0125000Y0204370D01*
D14*
X0121870Y0204370D03*
X0136870Y0222500D03*
X0136870Y0245000D03*
X0130620Y0267500D03*
X0108120Y0270620D03*
X0093120Y0252500D03*
X0093120Y0230000D03*
X0155000Y0195000D02*
G75*
%LPD*%
D17*
X0155000Y0195000D02*
X0155000Y0280000D01*
X0220000Y0280000D01*
X0220000Y0195000D01*
X0155000Y0195000D01*
D10*
X0175000Y0204370D03*
X0178750Y0208120D03*
X0170000Y0219370D03*
X0170000Y0225620D03*
X0190000Y0214370D03*
X0193750Y0214370D03*
X0213120Y0215620D03*
X0213120Y0209370D03*
X0213120Y0239370D03*
X0213120Y0245620D03*
X0213120Y0269370D03*
X0213120Y0275620D03*
X0170000Y0255620D03*
X0170000Y0249370D03*
X0161250Y0269370D03*
X0161250Y0275620D03*
D14*
X0165000Y0242500D03*
X0181250Y0229370D03*
X0187500Y0231250D03*
X0181250Y0221250D03*
X0175620Y0212500D03*
X0170620Y0205000D03*
X0165000Y0212500D03*
D16*
X0167740Y0212500D01*
X0181250Y0226010D01*
X0181250Y0229370D01*
X0187500Y0227500D02*
X0187500Y0231250D01*
X0187500Y0227500D02*
X0181250Y0221250D01*
X0175620Y0212500D02*
X0170620Y0207500D01*
X0170620Y0205000D01*
X0165000Y0212500D02*
X0165000Y0242500D01*
X0165000Y0265620D01*
X0161250Y0269370D01*
X0227500Y0195000D02*
G75*
%LPD*%
D17*
X0227500Y0195000D02*
X0227500Y0280000D01*
X0292500Y0280000D01*
X0292500Y0195000D01*
X0227500Y0195000D01*
D10*
X0235620Y0208120D03*
X0241870Y0208120D03*
X0245000Y0228120D03*
X0245000Y0231870D03*
X0263120Y0234370D03*
X0263120Y0240620D03*
X0245000Y0258120D03*
X0245000Y0261870D03*
X0252500Y0275620D03*
X0258120Y0275620D03*
X0278120Y0275620D03*
X0284370Y0275620D03*
X0268120Y0207500D03*
X0261870Y0207500D03*
X0279370Y0199370D03*
X0285620Y0199370D03*
D14*
X0256250Y0202500D03*
X0236250Y0215000D03*
X0236250Y0245000D03*
X0237500Y0270000D03*
X0263750Y0270000D03*
D16*
X0237500Y0270000D01*
X0237500Y0246250D01*
X0236250Y0245000D01*
X0236250Y0215000D01*
X0238750Y0212500D01*
X0238750Y0206250D01*
X0242500Y0202500D01*
X0256250Y0202500D01*
X0276250Y0202500D01*
X0279370Y0199370D01*
X0300000Y0195000D02*
G75*
%LPD*%
D17*
X0300000Y0195000D02*
X0300000Y0280000D01*
X0363750Y0280000D01*
X0363750Y0195000D01*
X0300000Y0195000D01*
D10*
X0304370Y0198120D03*
X0304370Y0204370D03*
X0314370Y0214370D03*
X0314370Y0220620D03*
X0319370Y0233120D03*
X0323120Y0233120D03*
X0316870Y0238750D03*
X0316870Y0245000D03*
X0316870Y0265000D03*
X0316870Y0271870D03*
X0337500Y0274370D03*
X0343750Y0274370D03*
X0358750Y0250620D03*
X0358750Y0244370D03*
X0353120Y0226250D03*
X0353120Y0222500D03*
X0353120Y0212500D03*
X0353120Y0206250D03*
D16*
X0352740Y0201250D02*
X0344610Y0209370D01*
X0341250Y0209370D01*
X0335000Y0216870D02*
X0335000Y0220620D01*
X0353750Y0239370D01*
X0353750Y0258120D01*
X0348750Y0263120D01*
X0342500Y0269370D01*
X0323120Y0269370D01*
X0321870Y0268120D01*
X0314370Y0268120D01*
X0309370Y0263120D01*
X0309370Y0250000D01*
X0309370Y0225000D01*
X0309370Y0210000D01*
X0304370Y0205000D01*
X0304370Y0204370D01*
X0344370Y0225000D02*
X0351250Y0231870D01*
X0356870Y0231870D01*
X0355620Y0201250D02*
X0352740Y0201250D01*
X0323120Y0265860D02*
X0323120Y0269370D01*
D14*
X0323120Y0269370D03*
X0309370Y0250000D03*
X0309370Y0225000D03*
X0335000Y0216870D03*
X0341250Y0209370D03*
X0344370Y0225000D03*
X0356870Y0231870D03*
X0353750Y0239370D03*
X0348750Y0263120D03*
X0355620Y0201250D03*
X0010000Y0287500D02*
G75*
%LPD*%
D17*
X0010000Y0287500D02*
X0010000Y0372500D01*
X0075000Y0372500D01*
X0075000Y0287500D01*
X0010000Y0287500D01*
D10*
X0037500Y0307500D03*
X0037500Y0313750D03*
X0046870Y0296250D03*
X0046870Y0290620D03*
X0037500Y0333750D03*
X0037500Y0340000D03*
X0033120Y0355620D03*
X0029370Y0355620D03*
X0036870Y0366870D03*
X0040000Y0366870D03*
X0051870Y0355620D03*
X0055000Y0355620D03*
D14*
X0043120Y0345620D03*
X0043120Y0319370D03*
X0067500Y0363750D03*
X0016870Y0363750D03*
D16*
X0033750Y0363750D01*
X0043120Y0354370D01*
X0052500Y0363750D01*
X0067500Y0363750D01*
X0043120Y0354370D02*
X0043120Y0345620D01*
X0043120Y0319370D01*
X0043120Y0300000D01*
X0046870Y0296250D01*
X0082500Y0287500D02*
G75*
%LPD*%
D17*
X0082500Y0287500D02*
X0082500Y0372500D01*
X0147500Y0372500D01*
X0147500Y0287500D01*
X0082500Y0287500D01*
D10*
X0101250Y0291250D03*
X0105000Y0291250D03*
X0106250Y0305620D03*
X0103120Y0305620D03*
X0085620Y0311870D03*
X0085620Y0316870D03*
X0085620Y0335000D03*
X0085620Y0340000D03*
X0094370Y0362500D03*
X0100000Y0366250D03*
X0125000Y0368120D03*
X0128750Y0368120D03*
X0144370Y0348120D03*
X0144370Y0342500D03*
X0144370Y0324370D03*
X0144370Y0320620D03*
X0135620Y0296250D03*
X0130000Y0293120D03*
D16*
X0125000Y0296870D02*
X0136870Y0308750D01*
X0136870Y0315000D01*
X0136870Y0337500D01*
X0136870Y0353750D01*
X0130620Y0360000D01*
X0127500Y0363120D01*
X0108120Y0363120D01*
X0106870Y0363120D01*
X0093120Y0349370D01*
X0093120Y0345000D01*
X0093120Y0322500D01*
X0093120Y0313120D01*
X0100620Y0305620D01*
X0103120Y0305620D01*
X0121870Y0296870D02*
X0125000Y0296870D01*
D14*
X0121870Y0296870D03*
X0136870Y0315000D03*
X0136870Y0337500D03*
X0130620Y0360000D03*
X0108120Y0363120D03*
X0093120Y0345000D03*
X0093120Y0322500D03*
X0155000Y0287500D02*
G75*
%LPD*%
D17*
X0155000Y0287500D02*
X0155000Y0372500D01*
X0220000Y0372500D01*
X0220000Y0287500D01*
X0155000Y0287500D01*
D10*
X0175000Y0296870D03*
X0178750Y0300620D03*
X0170000Y0311870D03*
X0170000Y0318120D03*
X0190000Y0306870D03*
X0193750Y0306870D03*
X0213120Y0308120D03*
X0213120Y0301870D03*
X0213120Y0331870D03*
X0213120Y0338120D03*
X0213120Y0361870D03*
X0213120Y0368120D03*
X0170000Y0348120D03*
X0170000Y0341870D03*
X0161250Y0361870D03*
X0161250Y0368120D03*
D14*
X0165000Y0335000D03*
X0181250Y0321870D03*
X0187500Y0323750D03*
X0181250Y0313750D03*
X0175620Y0305000D03*
X0170620Y0297500D03*
X0165000Y0305000D03*
D16*
X0167740Y0305000D01*
X0181250Y0318510D01*
X0181250Y0321870D01*
X0187500Y0320000D02*
X0187500Y0323750D01*
X0187500Y0320000D02*
X0181250Y0313750D01*
X0175620Y0305000D02*
X0170620Y0300000D01*
X0170620Y0297500D01*
X0165000Y0305000D02*
X0165000Y0335000D01*
X0165000Y0358120D01*
X0161250Y0361870D01*
X0227500Y0287500D02*
G75*
%LPD*%
D17*
X0227500Y0287500D02*
X0227500Y0372500D01*
X0292500Y0372500D01*
X0292500Y0287500D01*
X0227500Y0287500D01*
D10*
X0235620Y0300620D03*
X0241870Y0300620D03*
X0245000Y0320620D03*
X0245000Y0324370D03*
X0263120Y0326870D03*
X0263120Y0333120D03*
X0245000Y0350620D03*
X0245000Y0354370D03*
X0252500Y0368120D03*
X0258120Y0368120D03*
X0278120Y0368120D03*
X0284370Y0368120D03*
X0268120Y0300000D03*
X0261870Y0300000D03*
X0279370Y0291870D03*
X0285620Y0291870D03*
D14*
X0256250Y0295000D03*
X0236250Y0307500D03*
X0236250Y0337500D03*
X0237500Y0362500D03*
X0263750Y0362500D03*
D16*
X0237500Y0362500D01*
X0237500Y0338750D01*
X0236250Y0337500D01*
X0236250Y0307500D01*
X0238750Y0305000D01*
X0238750Y0298750D01*
X0242500Y0295000D01*
X0256250Y0295000D01*
X0276250Y0295000D01*
X0279370Y0291870D01*
X0300000Y0287500D02*
G75*
%LPD*%
D17*
X0300000Y0287500D02*
X0300000Y0372500D01*
X0363750Y0372500D01*
X0363750Y0287500D01*
X0300000Y0287500D01*
D10*
X0304370Y0290620D03*
X0304370Y0296870D03*
X0314370Y0306870D03*
X0314370Y0313120D03*
X0319370Y0325620D03*
X0323120Y0325620D03*
X0316870Y0331250D03*
X0316870Y0337500D03*
X0316870Y0357500D03*
X0316870Y0364370D03*
X0337500Y0366870D03*
X0343750Y0366870D03*
X0358750Y0343120D03*
X0358750Y0336870D03*
X0353120Y0318750D03*
X0353120Y0315000D03*
X0353120Y0305000D03*
X0353120Y0298750D03*
D16*
X0352740Y0293750D02*
X0344610Y0301870D01*
X0341250Y0301870D01*
X0335000Y0309370D02*
X0335000Y0313120D01*
X0353750Y0331870D01*
X0353750Y0350620D01*
X0348750Y0355620D01*
X0342500Y0361870D01*
X0323120Y0361870D01*
X0321870Y0360620D01*
X0314370Y0360620D01*
X0309370Y0355620D01*
X0309370Y0342500D01*
X0309370Y0317500D01*
X0309370Y0302500D01*
X0304370Y0297500D01*
X0304370Y0296870D01*
X0344370Y0317500D02*
X0351250Y0324370D01*
X0356870Y0324370D01*
X0355620Y0293750D02*
X0352740Y0293750D01*
X0323120Y0358360D02*
X0323120Y0361870D01*
D14*
X0323120Y0361870D03*
X0309370Y0342500D03*
X0309370Y0317500D03*
X0335000Y0309370D03*
X0341250Y0301870D03*
X0344370Y0317500D03*
X0356870Y0324370D03*
X0353750Y0331870D03*
X0348750Y0355620D03*
X0355620Y0293750D03*
M02*
