%
M48
M72
T01C0.0197
%
T01
X3267Y3517
X3267Y3892
X3329Y4392
X4142Y4954
X4142Y5329
X3329Y5892
X4142Y7204
X4142Y7579
X3329Y8079
X4329Y9142
X4704Y9204
X4579Y10204
X5829Y9392
X6204Y9392
X6704Y10204
X7704Y8579
X8329Y8579
X8079Y4767
X7392Y4829
X6892Y4267
X6517Y4267
X6767Y3392
X6142Y3329
X5142Y4329
X4767Y4204
X4329Y4329
X3892Y3517
X7392Y4017
X8079Y3954
M30
