G75*
%MOIN*%
%OFA0B0*%
%FSLAX24Y24*%
%IPPOS*%
%LPD*%
%AMOC8*
5,1,8,0,0,1.08239X$1,22.5*
%
%ADD10C,0.0100*%
%ADD11C,0.0080*%
D10*
X004642Y002517D02*
X006642Y002517D01*
X006642Y009017D01*
X008892Y009017D01*
X008892Y011142D01*
X002392Y011142D01*
X002392Y009017D01*
X004642Y009017D01*
X004642Y002517D01*
D11*
X005431Y002704D02*
X005712Y002704D01*
X005852Y002844D01*
X005712Y002984D01*
X005431Y002984D01*
X005431Y003164D02*
X005431Y003304D01*
X005431Y003234D02*
X005852Y003234D01*
X005852Y003164D02*
X005852Y003304D01*
X005852Y003471D02*
X005431Y003471D01*
X005852Y003752D01*
X005431Y003752D01*
X005431Y004432D02*
X005712Y004432D01*
X005852Y004572D01*
X005712Y004712D01*
X005431Y004712D01*
X005501Y004892D02*
X005782Y004892D01*
X005852Y004962D01*
X005852Y005102D01*
X005782Y005172D01*
X005501Y005172D01*
X005431Y005102D01*
X005431Y004962D01*
X005501Y004892D01*
X005571Y005352D02*
X005431Y005493D01*
X005852Y005493D01*
X005852Y005633D02*
X005852Y005352D01*
X005712Y006932D02*
X005431Y006932D01*
X005431Y007212D02*
X005712Y007212D01*
X005852Y007072D01*
X005712Y006932D01*
X005782Y007392D02*
X005501Y007392D01*
X005431Y007462D01*
X005431Y007602D01*
X005501Y007672D01*
X005782Y007672D01*
X005852Y007602D01*
X005852Y007462D01*
X005782Y007392D01*
X005852Y007852D02*
X005571Y008133D01*
X005501Y008133D01*
X005431Y008063D01*
X005431Y007923D01*
X005501Y007852D01*
X005852Y007852D02*
X005852Y008133D01*
X007182Y009447D02*
X007322Y009307D01*
X007462Y009447D01*
X007462Y009727D01*
X007642Y009657D02*
X007642Y009377D01*
X007712Y009307D01*
X007852Y009307D01*
X007922Y009377D01*
X007922Y009657D01*
X007852Y009727D01*
X007712Y009727D01*
X007642Y009657D01*
X008102Y009727D02*
X008102Y009517D01*
X008243Y009587D01*
X008313Y009587D01*
X008383Y009517D01*
X008383Y009377D01*
X008313Y009307D01*
X008173Y009307D01*
X008102Y009377D01*
X008102Y009727D02*
X008383Y009727D01*
X007182Y009727D02*
X007182Y009447D01*
X006813Y010432D02*
X006673Y010432D01*
X006602Y010502D01*
X006743Y010642D02*
X006813Y010642D01*
X006883Y010572D01*
X006883Y010502D01*
X006813Y010432D01*
X006813Y010642D02*
X006883Y010712D01*
X006883Y010782D01*
X006813Y010852D01*
X006673Y010852D01*
X006602Y010782D01*
X006422Y010782D02*
X006422Y010502D01*
X006352Y010432D01*
X006212Y010432D01*
X006142Y010502D01*
X006142Y010782D01*
X006212Y010852D01*
X006352Y010852D01*
X006422Y010782D01*
X005962Y010852D02*
X005962Y010572D01*
X005822Y010432D01*
X005682Y010572D01*
X005682Y010852D01*
X004008Y009517D02*
X003727Y009517D01*
X003938Y009727D01*
X003938Y009307D01*
X003547Y009377D02*
X003547Y009657D01*
X003477Y009727D01*
X003337Y009727D01*
X003267Y009657D01*
X003267Y009377D01*
X003337Y009307D01*
X003477Y009307D01*
X003547Y009377D01*
X003087Y009447D02*
X003087Y009727D01*
X003087Y009447D02*
X002947Y009307D01*
X002807Y009447D01*
X002807Y009727D01*
M02*
