G75*
%MOIN*%
%OFA0B0*%
%FSLAX24Y24*%
%IPPOS*%
%LPD*%
%AMOC8*
5,1,8,0,0,1.08239X$1,22.5*
%
%ADD10C,0.0100*%
%ADD11C,0.0437*%
D10*
X003142Y002517D02*
X008354Y002517D01*
X008354Y002516D02*
X008386Y002518D01*
X008418Y002523D01*
X008449Y002532D01*
X008479Y002545D01*
X008507Y002560D01*
X008534Y002579D01*
X008558Y002600D01*
X008579Y002624D01*
X008598Y002651D01*
X008613Y002679D01*
X008626Y002709D01*
X008635Y002740D01*
X008640Y002772D01*
X008642Y002804D01*
X008642Y004042D01*
X008641Y004041D02*
X008636Y004074D01*
X008628Y004107D01*
X008616Y004138D01*
X008601Y004168D01*
X008583Y004196D01*
X008562Y004222D01*
X008539Y004246D01*
X008513Y004268D01*
X008485Y004286D01*
X008455Y004301D01*
X008424Y004314D01*
X008392Y004323D01*
X008359Y004328D01*
X008325Y004330D01*
X008292Y004328D01*
X008292Y004329D02*
X004954Y004329D01*
X004917Y004328D01*
X004879Y004330D01*
X004842Y004336D01*
X004806Y004345D01*
X004770Y004358D01*
X004736Y004374D01*
X004703Y004392D01*
X004673Y004414D01*
X004644Y004439D01*
X004618Y004466D01*
X004594Y004495D01*
X004574Y004526D01*
X004556Y004559D01*
X004541Y004594D01*
X004530Y004630D01*
X004522Y004666D01*
X004517Y004704D01*
X004517Y005829D01*
X004522Y005861D01*
X004531Y005891D01*
X004543Y005920D01*
X004558Y005948D01*
X004576Y005974D01*
X004598Y005998D01*
X004621Y006019D01*
X004647Y006037D01*
X004675Y006053D01*
X004704Y006065D01*
X004735Y006074D01*
X004766Y006079D01*
X004798Y006081D01*
X004829Y006079D01*
X006292Y006079D01*
X006292Y006080D02*
X006323Y006078D01*
X006354Y006080D01*
X006385Y006085D01*
X006414Y006095D01*
X006443Y006107D01*
X006469Y006124D01*
X006494Y006143D01*
X006516Y006165D01*
X006535Y006189D01*
X006551Y006216D01*
X006564Y006244D01*
X006573Y006274D01*
X006579Y006305D01*
X006579Y006304D02*
X006579Y007103D01*
X006578Y007103D02*
X006580Y007136D01*
X006578Y007170D01*
X006572Y007203D01*
X006564Y007235D01*
X006551Y007267D01*
X006536Y007297D01*
X006517Y007325D01*
X006496Y007351D01*
X006472Y007374D01*
X006446Y007395D01*
X006417Y007413D01*
X006387Y007428D01*
X006356Y007440D01*
X006323Y007448D01*
X006290Y007453D01*
X006291Y007454D02*
X004756Y007454D01*
X004756Y007455D02*
X004726Y007460D01*
X004696Y007469D01*
X004668Y007480D01*
X004642Y007495D01*
X004617Y007513D01*
X004594Y007533D01*
X004574Y007556D01*
X004556Y007581D01*
X004542Y007608D01*
X004530Y007636D01*
X004522Y007665D01*
X004517Y007695D01*
X004515Y007726D01*
X004517Y007756D01*
X004517Y008804D01*
X004519Y008843D01*
X004525Y008882D01*
X004534Y008920D01*
X004547Y008957D01*
X004564Y008993D01*
X004584Y009026D01*
X004608Y009058D01*
X004634Y009087D01*
X004663Y009113D01*
X004695Y009137D01*
X004728Y009157D01*
X004764Y009174D01*
X004801Y009187D01*
X004839Y009196D01*
X004878Y009202D01*
X004917Y009204D01*
X007915Y009204D01*
X007969Y009212D01*
X008022Y009225D01*
X008074Y009241D01*
X008125Y009261D01*
X008174Y009284D01*
X008221Y009311D01*
X008267Y009341D01*
X008310Y009375D01*
X008350Y009411D01*
X008388Y009450D01*
X008423Y009492D01*
X008455Y009536D01*
X008484Y009583D01*
X008510Y009631D01*
X008531Y009681D01*
X008550Y009732D01*
X008564Y009785D01*
X008575Y009838D01*
X008582Y009892D01*
X008585Y009947D01*
X008584Y010001D01*
X008579Y010056D01*
X008579Y010216D01*
X008582Y010268D01*
X008581Y010321D01*
X008576Y010374D01*
X008567Y010426D01*
X008555Y010477D01*
X008539Y010528D01*
X008519Y010577D01*
X008496Y010625D01*
X008470Y010670D01*
X008440Y010714D01*
X008407Y010756D01*
X008372Y010795D01*
X008334Y010832D01*
X008293Y010865D01*
X008250Y010896D01*
X008205Y010924D01*
X008158Y010948D01*
X008109Y010969D01*
X008059Y010986D01*
X008008Y011000D01*
X007956Y011010D01*
X007903Y011016D01*
X007903Y011017D02*
X003017Y011017D01*
X003017Y011016D02*
X002965Y011010D01*
X002915Y010999D01*
X002865Y010985D01*
X002817Y010967D01*
X002770Y010946D01*
X002725Y010921D01*
X002681Y010893D01*
X002640Y010862D01*
X002602Y010827D01*
X002566Y010790D01*
X002533Y010751D01*
X002503Y010709D01*
X002476Y010664D01*
X002453Y010618D01*
X002433Y010571D01*
X002417Y010522D01*
X002404Y010472D01*
X002395Y010421D01*
X002390Y010370D01*
X002389Y010318D01*
X002392Y010267D01*
X002392Y003267D01*
X002394Y003213D01*
X002400Y003160D01*
X002409Y003108D01*
X002422Y003056D01*
X002439Y003005D01*
X002460Y002955D01*
X002484Y002908D01*
X002511Y002862D01*
X002542Y002818D01*
X002575Y002776D01*
X002612Y002737D01*
X002651Y002700D01*
X002693Y002667D01*
X002737Y002636D01*
X002783Y002609D01*
X002830Y002585D01*
X002880Y002564D01*
X002931Y002547D01*
X002983Y002534D01*
X003035Y002525D01*
X003088Y002519D01*
X003142Y002517D01*
D11*
X003204Y003829D03*
X003829Y003829D03*
X004142Y005829D03*
X004142Y006204D03*
X005954Y006454D03*
X005954Y007079D03*
X004142Y008829D03*
X004142Y009204D03*
X004892Y010579D03*
X005454Y010579D03*
X007454Y010579D03*
X008079Y010579D03*
X006454Y003767D03*
X005829Y003767D03*
X007579Y002954D03*
X008204Y002954D03*
M02*
