  0
SECTION
  2
HEADER
  9
$ACADVER
  1
AC1014
  9
$HANDSEED
  5
FFFF
  9
$MEASUREMENT
 70
     1
  0
ENDSEC
  0
SECTION
  2
TABLES
  0
TABLE
  2
VPORT
  5
8
330
0
100
AcDbSymbolTable
 70
     4
  0
VPORT
  5
2E
330
8
100
AcDbSymbolTableRecord
100
AcDbViewportTableRecord
  2
*ACTIVE
 70
     0
 10
0.0
 20
0.0
 11
1.0
 21
1.0
 12
210.0
 22
148.5
 13
0.0
 23
0.0
 14
10.0
 24
10.0
 15
10.0
 25
10.0
 16
0.0
 26
0.0
 36
1.0
 17
0.0
 27
0.0
 37
0.0
 40
341.0
 41
1.24
 42
50.0
 43
0.0
 44
0.0
 50
0.0
 51
0.0
 71
     0
 72
   100
 73
     1
 74
     3
 75
     0
 76
     0
 77
     0
 78
     0
  0
ENDTAB
  0
TABLE
  2
LTYPE
  5
5
330
0
100
AcDbSymbolTable
 70
     1
  0
LTYPE
  5
14
330
5
100
AcDbSymbolTableRecord
100
AcDbLinetypeTableRecord
  2
BYBLOCK
 70
     0
  3

 72
    65
 73
     0
 40
0.0
  0
LTYPE
  5
15
330
5
100
AcDbSymbolTableRecord
100
AcDbLinetypeTableRecord
  2
BYLAYER
 70
     0
  3

 72
    65
 73
     0
 40
0.0
  0
LTYPE
  5
16
330
5
100
AcDbSymbolTableRecord
100
AcDbLinetypeTableRecord
  2
CONTINUOUS
 70
     0
  3
Solid line
 72
    65
 73
     0
 40
0.0
  0
ENDTAB
  0
TABLE
  2
LAYER
  5
2
100
AcDbSymbolTable
 70
2
  0
LAYER
  5
50
100
AcDbSymbolTableRecord
100
AcDbLayerTableRecord
  2
0
 70
0
  6
CONTINUOUS
  0
LAYER
  5
51
100
AcDbSymbolTableRecord
100
AcDbLayerTableRecord
  2
Letters
 70
0
  6
CONTINUOUS
  0
ENDTAB
  0
TABLE
  2
STYLE
  5
3
330
0
100
AcDbSymbolTable
 70
     1
  0
STYLE
  5
11
330
3
100
AcDbSymbolTableRecord
100
AcDbTextStyleTableRecord
  2
STANDARD
 70
     0
 40
0.0
 41
1.0
 50
0.0
 71
     0
 42
2.5
  3
txt
  4

  0
ENDTAB
  0
TABLE
  2
VIEW
  5
6
330
0
100
AcDbSymbolTable
 70
     0
  0
ENDTAB
  0
TABLE
  2
UCS
  5
7
330
0
100
AcDbSymbolTable
 70
     0
  0
ENDTAB
  0
TABLE
  2
APPID
  5
9
330
0
100
AcDbSymbolTable
 70
     2
  0
APPID
  5
12
330
9
100
AcDbSymbolTableRecord
100
AcDbRegAppTableRecord
  2
ACAD
 70
     0
  0
ENDTAB
  0
TABLE
  2
DIMSTYLE
  5
A
330
0
100
AcDbSymbolTable
 70
     1
  0
DIMSTYLE
105
27
330
A
100
AcDbSymbolTableRecord
100
AcDbDimStyleTableRecord
  2
ISO-25
 70
     0
  3

  4

  5

  6

  7

 40
1.0
 41
2.5
 42
0.625
 43
3.75
 44
1.25
 45
0.0
 46
0.0
 47
0.0
 48
0.0
140
2.5
141
2.5
142
0.0
143
0.03937007874016
144
1.0
145
0.0
146
1.0
147
0.625
 71
     0
 72
     0
 73
     0
 74
     0
 75
     0
 76
     0
 77
     1
 78
     8
170
     0
171
     3
172
     1
173
     0
174
     0
175
     0
176
     0
177
     0
178
     0
270
     2
271
     2
272
     2
273
     2
274
     3
340
11
275
     0
280
     0
281
     0
282
     0
283
     0
284
     8
285
     0
286
     0
287
     3
288
     0
  0
ENDTAB
  0
TABLE
  2
BLOCK_RECORD
  5
1
330
0
100
AcDbSymbolTable
 70
     1
  0
BLOCK_RECORD
  5
1F
330
1
100
AcDbSymbolTableRecord
100
AcDbBlockTableRecord
  2
*MODEL_SPACE
  0
BLOCK_RECORD
  5
1B
330
1
100
AcDbSymbolTableRecord
100
AcDbBlockTableRecord
  2
*PAPER_SPACE
  0
ENDTAB
  0
ENDSEC
  0
SECTION
  2
BLOCKS
  0
BLOCK
  5
20
330
1F
100
AcDbEntity
  8
0
100
AcDbBlockBegin
  2
*MODEL_SPACE
 70
     0
 10
0.0
 20
0.0
 30
0.0
  3
*MODEL_SPACE
  1

  0
ENDBLK
  5
21
330
1F
100
AcDbEntity
  8
0
100
AcDbBlockEnd
  0
BLOCK
  5
1C
330
1B
100
AcDbEntity
 67
     1
  8
0
100
AcDbBlockBegin
  2
*PAPER_SPACE
  1

  0
ENDBLK
  5
1D
330
1B
100
AcDbEntity
 67
     1
  8
0
100
AcDbBlockEnd
  0
ENDSEC
  0
SECTION
  2
ENTITIES
  0
SPLINE
  5
100
100
AcDbEntity
  8
Letters
 62
7
100
AcDbSpline
 70
8
 71
3
 72
8
 73
4
 74
0
 40
0
 40
0
 40
0
 40
0
 40
1
 40
1
 40
1
 40
1
 10
0.004161
 20
10.907745
 30
0.0
 10
0.002784
 20
10.907745
 30
0.0
 10
0.001407
 20
10.907745
 30
0.0
 10
0.000029
 20
10.907745
 30
0.0
  0
SPLINE
  5
101
100
AcDbEntity
  8
Letters
 62
7
100
AcDbSpline
 70
8
 71
3
 72
8
 73
4
 74
0
 40
0
 40
0
 40
0
 40
0
 40
1
 40
1
 40
1
 40
1
 10
0.000029
 20
10.907745
 30
0.0
 10
0.000029
 20
10.904583
 30
0.0
 10
0.000029
 20
10.901421
 30
0.0
 10
0.000029
 20
10.898258
 30
0.0
  0
SPLINE
  5
102
100
AcDbEntity
  8
Letters
 62
7
100
AcDbSpline
 70
8
 71
3
 72
8
 73
4
 74
0
 40
0
 40
0
 40
0
 40
0
 40
1
 40
1
 40
1
 40
1
 10
0.000029
 20
10.898258
 30
0.0
 10
0.000623
 20
10.898258
 30
0.0
 10
0.001464
 20
10.898258
 30
0.0
 10
0.002058
 20
10.898258
 30
0.0
  0
SPLINE
  5
103
100
AcDbEntity
  8
Letters
 62
7
100
AcDbSpline
 70
8
 71
3
 72
8
 73
4
 74
0
 40
0
 40
0
 40
0
 40
0
 40
1
 40
1
 40
1
 40
1
 10
0.002058
 20
10.898258
 30
0.0
 10
0.002058
 20
10.899092
 30
0.0
 10
0.002058
 20
10.899564
 30
0.0
 10
0.002058
 20
10.900398
 30
0.0
  0
SPLINE
  5
104
100
AcDbEntity
  8
Letters
 62
7
100
AcDbSpline
 70
8
 71
3
 72
8
 73
4
 74
0
 40
0
 40
0
 40
0
 40
0
 40
1
 40
1
 40
1
 40
1
 10
0.002058
 20
10.900398
 30
0.0
 10
0.003006
 20
10.900401
 30
0.0
 10
0.003708
 20
10.900391
 30
0.0
 10
0.004656
 20
10.900402
 30
0.0
  0
SPLINE
  5
105
100
AcDbEntity
  8
Letters
 62
7
100
AcDbSpline
 70
8
 71
3
 72
8
 73
4
 74
0
 40
0
 40
0
 40
0
 40
0
 40
1
 40
1
 40
1
 40
1
 10
0.004656
 20
10.900402
 30
0.0
 10
0.005538
 20
10.900535
 30
0.0
 10
0.006367
 20
10.901412
 30
0.0
 10
0.006820
 20
10.902182
 30
0.0
  0
SPLINE
  5
106
100
AcDbEntity
  8
Letters
 62
7
100
AcDbSpline
 70
8
 71
3
 72
8
 73
4
 74
0
 40
0
 40
0
 40
0
 40
0
 40
1
 40
1
 40
1
 40
1
 10
0.006820
 20
10.902182
 30
0.0
 10
0.007000
 20
10.902512
 30
0.0
 10
0.007200
 20
10.902867
 30
0.0
 10
0.007156
 20
10.903255
 30
0.0
  0
SPLINE
  5
107
100
AcDbEntity
  8
Letters
 62
7
100
AcDbSpline
 70
8
 71
3
 72
8
 73
4
 74
0
 40
0
 40
0
 40
0
 40
0
 40
1
 40
1
 40
1
 40
1
 10
0.007156
 20
10.903255
 30
0.0
 10
0.007148
 20
10.903878
 30
0.0
 10
0.007172
 20
10.904503
 30
0.0
 10
0.007144
 20
10.905124
 30
0.0
  0
SPLINE
  5
108
100
AcDbEntity
  8
Letters
 62
7
100
AcDbSpline
 70
8
 71
3
 72
8
 73
4
 74
0
 40
0
 40
0
 40
0
 40
0
 40
1
 40
1
 40
1
 40
1
 10
0.007144
 20
10.905124
 30
0.0
 10
0.006999
 20
10.906252
 30
0.0
 10
0.006196
 20
10.907255
 30
0.0
 10
0.005135
 20
10.907676
 30
0.0
  0
SPLINE
  5
109
100
AcDbEntity
  8
Letters
 62
7
100
AcDbSpline
 70
8
 71
3
 72
8
 73
4
 74
0
 40
0
 40
0
 40
0
 40
0
 40
1
 40
1
 40
1
 40
1
 10
0.005135
 20
10.907676
 30
0.0
 10
0.004813
 20
10.907763
 30
0.0
 10
0.004687
 20
10.907740
 30
0.0
 10
0.004161
 20
10.907745
 30
0.0
  0
SPLINE
  5
10a
100
AcDbEntity
  8
Letters
 62
7
100
AcDbSpline
 70
8
 71
3
 72
8
 73
4
 74
0
 40
0
 40
0
 40
0
 40
0
 40
1
 40
1
 40
1
 40
1
 10
0.002319
 20
10.904188
 30
0.0
 10
0.002277
 20
10.904786
 30
0.0
 10
0.002703
 20
10.905371
 30
0.0
 10
0.003284
 20
10.905516
 30
0.0
  0
SPLINE
  5
10b
100
AcDbEntity
  8
Letters
 62
7
100
AcDbSpline
 70
8
 71
3
 72
8
 73
4
 74
0
 40
0
 40
0
 40
0
 40
0
 40
1
 40
1
 40
1
 40
1
 10
0.003284
 20
10.905516
 30
0.0
 10
0.003841
 20
10.905682
 30
0.0
 10
0.004480
 20
10.905423
 30
0.0
 10
0.004769
 20
10.904920
 30
0.0
  0
SPLINE
  5
10c
100
AcDbEntity
  8
Letters
 62
7
100
AcDbSpline
 70
8
 71
3
 72
8
 73
4
 74
0
 40
0
 40
0
 40
0
 40
0
 40
1
 40
1
 40
1
 40
1
 10
0.004769
 20
10.904920
 30
0.0
 10
0.005111
 20
10.904368
 30
0.0
 10
0.004958
 20
10.903584
 30
0.0
 10
0.004435
 20
10.903200
 30
0.0
  0
SPLINE
  5
10d
100
AcDbEntity
  8
Letters
 62
7
100
AcDbSpline
 70
8
 71
3
 72
8
 73
4
 74
0
 40
0
 40
0
 40
0
 40
0
 40
1
 40
1
 40
1
 40
1
 10
0.004435
 20
10.903200
 30
0.0
 10
0.003929
 20
10.902798
 30
0.0
 10
0.003125
 20
10.902855
 30
0.0
 10
0.002693
 20
10.903340
 30
0.0
  0
SPLINE
  5
10e
100
AcDbEntity
  8
Letters
 62
7
100
AcDbSpline
 70
8
 71
3
 72
8
 73
4
 74
0
 40
0
 40
0
 40
0
 40
0
 40
1
 40
1
 40
1
 40
1
 10
0.002693
 20
10.903340
 30
0.0
 10
0.002470
 20
10.903565
 30
0.0
 10
0.002338
 20
10.903873
 30
0.0
 10
0.002319
 20
10.904188
 30
0.0
  0
LWPOLYLINE
  5
10f
100
AcDbEntity
  8
Letters
 62
7
100
AcDbPolyline
 90
2
 70
1
 10
0.004161
 20
10.907745
 30
0.0
 10
0.004161
 20
10.907745
 30
0.0
  0
LWPOLYLINE
  5
110
100
AcDbEntity
  8
Letters
 62
7
100
AcDbPolyline
 90
2
 70
1
 10
0.002319
 20
10.904188
 30
0.0
 10
0.002319
 20
10.904188
 30
0.0
  0
SPLINE
  5
111
100
AcDbEntity
  8
Letters
 62
7
100
AcDbSpline
 70
8
 71
3
 72
8
 73
4
 74
0
 40
0
 40
0
 40
0
 40
0
 40
1
 40
1
 40
1
 40
1
 10
0.015067
 20
10.909589
 30
0.0
 10
0.015276
 20
10.909965
 30
0.0
 10
0.015288
 20
10.910402
 30
0.0
 10
0.015260
 20
10.910817
 30
0.0
  0
SPLINE
  5
112
100
AcDbEntity
  8
Letters
 62
7
100
AcDbSpline
 70
8
 71
3
 72
8
 73
4
 74
0
 40
0
 40
0
 40
0
 40
0
 40
1
 40
1
 40
1
 40
1
 10
0.015260
 20
10.910817
 30
0.0
 10
0.015258
 20
10.912633
 30
0.0
 10
0.015265
 20
10.914450
 30
0.0
 10
0.015257
 20
10.916266
 30
0.0
  0
SPLINE
  5
113
100
AcDbEntity
  8
Letters
 62
7
100
AcDbSpline
 70
8
 71
3
 72
8
 73
4
 74
0
 40
0
 40
0
 40
0
 40
0
 40
1
 40
1
 40
1
 40
1
 10
0.015257
 20
10.916266
 30
0.0
 10
0.015203
 20
10.916983
 30
0.0
 10
0.014674
 20
10.917633
 30
0.0
 10
0.013970
 20
10.917865
 30
0.0
  0
SPLINE
  5
114
100
AcDbEntity
  8
Letters
 62
7
100
AcDbSpline
 70
8
 71
3
 72
8
 73
4
 74
0
 40
0
 40
0
 40
0
 40
0
 40
1
 40
1
 40
1
 40
1
 10
0.013970
 20
10.917865
 30
0.0
 10
0.013630
 20
10.917962
 30
0.0
 10
0.013272
 20
10.917973
 30
0.0
 10
0.012920
 20
10.917958
 30
0.0
  0
SPLINE
  5
115
100
AcDbEntity
  8
Letters
 62
7
100
AcDbSpline
 70
8
 71
3
 72
8
 73
4
 74
0
 40
0
 40
0
 40
0
 40
0
 40
1
 40
1
 40
1
 40
1
 10
0.012920
 20
10.917958
 30
0.0
 10
0.011898
 20
10.917953
 30
0.0
 10
0.010876
 20
10.917967
 30
0.0
 10
0.009855
 20
10.917952
 30
0.0
  0
SPLINE
  5
116
100
AcDbEntity
  8
Letters
 62
7
100
AcDbSpline
 70
8
 71
3
 72
8
 73
4
 74
0
 40
0
 40
0
 40
0
 40
0
 40
1
 40
1
 40
1
 40
1
 10
0.009855
 20
10.917952
 30
0.0
 10
0.009131
 20
10.917899
 30
0.0
 10
0.008473
 20
10.917438
 30
0.0
 10
0.008174
 20
10.916804
 30
0.0
  0
SPLINE
  5
117
100
AcDbEntity
  8
Letters
 62
7
100
AcDbSpline
 70
8
 71
3
 72
8
 73
4
 74
0
 40
0
 40
0
 40
0
 40
0
 40
1
 40
1
 40
1
 40
1
 10
0.008174
 20
10.916804
 30
0.0
 10
0.008017
 20
10.916471
 30
0.0
 10
0.007987
 20
10.916398
 30
0.0
 10
0.008002
 20
10.915713
 30
0.0
  0
SPLINE
  5
118
100
AcDbEntity
  8
Letters
 62
7
100
AcDbSpline
 70
8
 71
3
 72
8
 73
4
 74
0
 40
0
 40
0
 40
0
 40
0
 40
1
 40
1
 40
1
 40
1
 10
0.008002
 20
10.915713
 30
0.0
 10
0.007999
 20
10.913996
 30
0.0
 10
0.008006
 20
10.912296
 30
0.0
 10
0.007998
 20
10.910596
 30
0.0
  0
SPLINE
  5
119
100
AcDbEntity
  8
Letters
 62
7
100
AcDbSpline
 70
8
 71
3
 72
8
 73
4
 74
0
 40
0
 40
0
 40
0
 40
0
 40
1
 40
1
 40
1
 40
1
 10
0.007998
 20
10.910596
 30
0.0
 10
0.007943
 20
10.909931
 30
0.0
 10
0.008276
 20
10.909255
 30
0.0
 10
0.008843
 20
10.908873
 30
0.0
  0
SPLINE
  5
11a
100
AcDbEntity
  8
Letters
 62
7
100
AcDbSpline
 70
8
 71
3
 72
8
 73
4
 74
0
 40
0
 40
0
 40
0
 40
0
 40
1
 40
1
 40
1
 40
1
 10
0.008843
 20
10.908873
 30
0.0
 10
0.009237
 20
10.908592
 30
0.0
 10
0.009450
 20
10.908545
 30
0.0
 10
0.010227
 20
10.908537
 30
0.0
  0
SPLINE
  5
11b
100
AcDbEntity
  8
Letters
 62
7
100
AcDbSpline
 70
8
 71
3
 72
8
 73
4
 74
0
 40
0
 40
0
 40
0
 40
0
 40
1
 40
1
 40
1
 40
1
 10
0.010227
 20
10.908537
 30
0.0
 10
0.011206
 20
10.908537
 30
0.0
 10
0.012186
 20
10.908537
 30
0.0
 10
0.013165
 20
10.908547
 30
0.0
  0
SPLINE
  5
11c
100
AcDbEntity
  8
Letters
 62
7
100
AcDbSpline
 70
8
 71
3
 72
8
 73
4
 74
0
 40
0
 40
0
 40
0
 40
0
 40
1
 40
1
 40
1
 40
1
 10
0.013165
 20
10.908547
 30
0.0
 10
0.013961
 20
10.908544
 30
0.0
 10
0.014732
 20
10.908908
 30
0.0
 10
0.015067
 20
10.909589
 30
0.0
  0
LWPOLYLINE
  5
11d
100
AcDbEntity
  8
Letters
 62
7
100
AcDbPolyline
 90
9
 70
1
 10
0.002535
 20
10.915668
 30
0.0
 10
0.002532
 20
10.908556
 30
0.0
 10
0.004566
 20
10.908556
 30
0.0
 10
0.004568
 20
10.915665
 30
0.0
 10
0.007017
 20
10.915665
 30
0.0
 10
0.007017
 20
10.917962
 30
0.0
 10
0.000135
 20
10.917962
 30
0.0
 10
0.000141
 20
10.915669
 30
0.0
 10
0.002535
 20
10.915668
 30
0.0
  0
SPLINE
  5
11e
100
AcDbEntity
  8
Letters
 62
7
100
AcDbSpline
 70
8
 71
3
 72
8
 73
4
 74
0
 40
0
 40
0
 40
0
 40
0
 40
1
 40
1
 40
1
 40
1
 10
0.010258
 20
10.911900
 30
0.0
 10
0.010233
 20
10.912101
 30
0.0
 10
0.010254
 20
10.912306
 30
0.0
 10
0.010247
 20
10.912509
 30
0.0
  0
SPLINE
  5
11f
100
AcDbEntity
  8
Letters
 62
7
100
AcDbSpline
 70
8
 71
3
 72
8
 73
4
 74
0
 40
0
 40
0
 40
0
 40
0
 40
1
 40
1
 40
1
 40
1
 10
0.010247
 20
10.912509
 30
0.0
 10
0.010248
 20
10.913188
 30
0.0
 10
0.010244
 20
10.913867
 30
0.0
 10
0.010249
 20
10.914545
 30
0.0
  0
SPLINE
  5
120
100
AcDbEntity
  8
Letters
 62
7
100
AcDbSpline
 70
8
 71
3
 72
8
 73
4
 74
0
 40
0
 40
0
 40
0
 40
0
 40
1
 40
1
 40
1
 40
1
 10
0.010249
 20
10.914545
 30
0.0
 10
0.010296
 20
10.914888
 30
0.0
 10
0.010458
 20
10.915220
 30
0.0
 10
0.010730
 20
10.915439
 30
0.0
  0
SPLINE
  5
121
100
AcDbEntity
  8
Letters
 62
7
100
AcDbSpline
 70
8
 71
3
 72
8
 73
4
 74
0
 40
0
 40
0
 40
0
 40
0
 40
1
 40
1
 40
1
 40
1
 10
0.010730
 20
10.915439
 30
0.0
 10
0.010945
 20
10.915618
 30
0.0
 10
0.011215
 20
10.915735
 30
0.0
 10
0.011496
 20
10.915750
 30
0.0
  0
SPLINE
  5
122
100
AcDbEntity
  8
Letters
 62
7
100
AcDbSpline
 70
8
 71
3
 72
8
 73
4
 74
0
 40
0
 40
0
 40
0
 40
0
 40
1
 40
1
 40
1
 40
1
 10
0.011496
 20
10.915750
 30
0.0
 10
0.011760
 20
10.915771
 30
0.0
 10
0.012032
 20
10.915730
 30
0.0
 10
0.012267
 20
10.915604
 30
0.0
  0
SPLINE
  5
123
100
AcDbEntity
  8
Letters
 62
7
100
AcDbSpline
 70
8
 71
3
 72
8
 73
4
 74
0
 40
0
 40
0
 40
0
 40
0
 40
1
 40
1
 40
1
 40
1
 10
0.012267
 20
10.915604
 30
0.0
 10
0.012581
 20
10.915441
 30
0.0
 10
0.012831
 20
10.915155
 30
0.0
 10
0.012933
 20
10.914814
 30
0.0
  0
SPLINE
  5
124
100
AcDbEntity
  8
Letters
 62
7
100
AcDbSpline
 70
8
 71
3
 72
8
 73
4
 74
0
 40
0
 40
0
 40
0
 40
0
 40
1
 40
1
 40
1
 40
1
 10
0.012933
 20
10.914814
 30
0.0
 10
0.013006
 20
10.914629
 30
0.0
 10
0.013000
 20
10.914430
 30
0.0
 10
0.012997
 20
10.914236
 30
0.0
  0
SPLINE
  5
125
100
AcDbEntity
  8
Letters
 62
7
100
AcDbSpline
 70
8
 71
3
 72
8
 73
4
 74
0
 40
0
 40
0
 40
0
 40
0
 40
1
 40
1
 40
1
 40
1
 10
0.012997
 20
10.914236
 30
0.0
 10
0.012996
 20
10.913477
 30
0.0
 10
0.013000
 20
10.912718
 30
0.0
 10
0.012995
 20
10.911959
 30
0.0
  0
SPLINE
  5
126
100
AcDbEntity
  8
Letters
 62
7
100
AcDbSpline
 70
8
 71
3
 72
8
 73
4
 74
0
 40
0
 40
0
 40
0
 40
0
 40
1
 40
1
 40
1
 40
1
 10
0.012995
 20
10.911959
 30
0.0
 10
0.012949
 20
10.911612
 30
0.0
 10
0.012782
 20
10.911277
 30
0.0
 10
0.012505
 20
10.911058
 30
0.0
  0
SPLINE
  5
127
100
AcDbEntity
  8
Letters
 62
7
100
AcDbSpline
 70
8
 71
3
 72
8
 73
4
 74
0
 40
0
 40
0
 40
0
 40
0
 40
1
 40
1
 40
1
 40
1
 10
0.012505
 20
10.911058
 30
0.0
 10
0.012289
 20
10.910880
 30
0.0
 10
0.012018
 20
10.910767
 30
0.0
 10
0.011737
 20
10.910753
 30
0.0
  0
SPLINE
  5
128
100
AcDbEntity
  8
Letters
 62
7
100
AcDbSpline
 70
8
 71
3
 72
8
 73
4
 74
0
 40
0
 40
0
 40
0
 40
0
 40
1
 40
1
 40
1
 40
1
 10
0.011737
 20
10.910753
 30
0.0
 10
0.011477
 20
10.910735
 30
0.0
 10
0.011209
 20
10.910775
 30
0.0
 10
0.010977
 20
10.910900
 30
0.0
  0
SPLINE
  5
129
100
AcDbEntity
  8
Letters
 62
7
100
AcDbSpline
 70
8
 71
3
 72
8
 73
4
 74
0
 40
0
 40
0
 40
0
 40
0
 40
1
 40
1
 40
1
 40
1
 10
0.010977
 20
10.910900
 30
0.0
 10
0.010669
 20
10.911061
 30
0.0
 10
0.010421
 20
10.911340
 30
0.0
 10
0.010317
 20
10.911674
 30
0.0
  0
SPLINE
  5
12a
100
AcDbEntity
  8
Letters
 62
7
100
AcDbSpline
 70
8
 71
3
 72
8
 73
4
 74
0
 40
0
 40
0
 40
0
 40
0
 40
1
 40
1
 40
1
 40
1
 10
0.010317
 20
10.911674
 30
0.0
 10
0.010291
 20
10.911748
 30
0.0
 10
0.010271
 20
10.911823
 30
0.0
 10
0.010258
 20
10.911900
 30
0.0
  0
LWPOLYLINE
  5
12b
100
AcDbEntity
  8
Letters
 62
7
100
AcDbPolyline
 90
2
 70
1
 10
0.015067
 20
10.909589
 30
0.0
 10
0.015067
 20
10.909589
 30
0.0
  0
SPLINE
  5
12c
100
AcDbEntity
  8
Letters
 62
7
100
AcDbSpline
 70
8
 71
3
 72
8
 73
4
 74
0
 40
0
 40
0
 40
0
 40
0
 40
1
 40
1
 40
1
 40
1
 10
0.020602
 20
10.912695
 30
0.0
 10
0.020813
 20
10.912575
 30
0.0
 10
0.021109
 20
10.912742
 30
0.0
 10
0.021083
 20
10.912983
 30
0.0
  0
SPLINE
  5
12d
100
AcDbEntity
  8
Letters
 62
7
100
AcDbSpline
 70
8
 71
3
 72
8
 73
4
 74
0
 40
0
 40
0
 40
0
 40
0
 40
1
 40
1
 40
1
 40
1
 10
0.021083
 20
10.912983
 30
0.0
 10
0.021086
 20
10.914351
 30
0.0
 10
0.021076
 20
10.915927
 30
0.0
 10
0.021087
 20
10.917295
 30
0.0
  0
SPLINE
  5
12e
100
AcDbEntity
  8
Letters
 62
7
100
AcDbSpline
 70
8
 71
3
 72
8
 73
4
 74
0
 40
0
 40
0
 40
0
 40
0
 40
1
 40
1
 40
1
 40
1
 10
0.021087
 20
10.917295
 30
0.0
 10
0.021136
 20
10.917814
 30
0.0
 10
0.021653
 20
10.918033
 30
0.0
 10
0.022192
 20
10.917984
 30
0.0
  0
SPLINE
  5
12f
100
AcDbEntity
  8
Letters
 62
7
100
AcDbSpline
 70
8
 71
3
 72
8
 73
4
 74
0
 40
0
 40
0
 40
0
 40
0
 40
1
 40
1
 40
1
 40
1
 10
0.022192
 20
10.917984
 30
0.0
 10
0.022767
 20
10.917999
 30
0.0
 10
0.023295
 20
10.917663
 30
0.0
 10
0.023246
 20
10.917111
 30
0.0
  0
SPLINE
  5
130
100
AcDbEntity
  8
Letters
 62
7
100
AcDbSpline
 70
8
 71
3
 72
8
 73
4
 74
0
 40
0
 40
0
 40
0
 40
0
 40
1
 40
1
 40
1
 40
1
 10
0.023246
 20
10.917111
 30
0.0
 10
0.023244
 20
10.914598
 30
0.0
 10
0.023279
 20
10.911912
 30
0.0
 10
0.023274
 20
10.909399
 30
0.0
  0
SPLINE
  5
131
100
AcDbEntity
  8
Letters
 62
7
100
AcDbSpline
 70
8
 71
3
 72
8
 73
4
 74
0
 40
0
 40
0
 40
0
 40
0
 40
1
 40
1
 40
1
 40
1
 10
0.023274
 20
10.909399
 30
0.0
 10
0.023240
 20
10.908998
 30
0.0
 10
0.022909
 20
10.908639
 30
0.0
 10
0.022492
 20
10.908589
 30
0.0
  0
SPLINE
  5
132
100
AcDbEntity
  8
Letters
 62
7
100
AcDbSpline
 70
8
 71
3
 72
8
 73
4
 74
0
 40
0
 40
0
 40
0
 40
0
 40
1
 40
1
 40
1
 40
1
 10
0.022492
 20
10.908589
 30
0.0
 10
0.022261
 20
10.908570
 30
0.0
 10
0.022020
 20
10.908553
 30
0.0
 10
0.021792
 20
10.908606
 30
0.0
  0
SPLINE
  5
133
100
AcDbEntity
  8
Letters
 62
7
100
AcDbSpline
 70
8
 71
3
 72
8
 73
4
 74
0
 40
0
 40
0
 40
0
 40
0
 40
1
 40
1
 40
1
 40
1
 10
0.021792
 20
10.908606
 30
0.0
 10
0.021454
 20
10.908745
 30
0.0
 10
0.021519
 20
10.908668
 30
0.0
 10
0.021211
 20
10.908910
 30
0.0
  0
SPLINE
  5
134
100
AcDbEntity
  8
Letters
 62
7
100
AcDbSpline
 70
8
 71
3
 72
8
 73
4
 74
0
 40
0
 40
0
 40
0
 40
0
 40
1
 40
1
 40
1
 40
1
 10
0.021211
 20
10.908910
 30
0.0
 10
0.020656
 20
10.909359
 30
0.0
 10
0.020248
 20
10.909786
 30
0.0
 10
0.019705
 20
10.910252
 30
0.0
  0
SPLINE
  5
135
100
AcDbEntity
  8
Letters
 62
7
100
AcDbSpline
 70
8
 71
3
 72
8
 73
4
 74
0
 40
0
 40
0
 40
0
 40
0
 40
1
 40
1
 40
1
 40
1
 10
0.019705
 20
10.910252
 30
0.0
 10
0.019688
 20
10.910259
 30
0.0
 10
0.019689
 20
10.910264
 30
0.0
 10
0.019662
 20
10.910264
 30
0.0
  0
SPLINE
  5
136
100
AcDbEntity
  8
Letters
 62
7
100
AcDbSpline
 70
8
 71
3
 72
8
 73
4
 74
0
 40
0
 40
0
 40
0
 40
0
 40
1
 40
1
 40
1
 40
1
 10
0.019662
 20
10.910264
 30
0.0
 10
0.019650
 20
10.910265
 30
0.0
 10
0.019636
 20
10.910262
 30
0.0
 10
0.019631
 20
10.910261
 30
0.0
  0
SPLINE
  5
137
100
AcDbEntity
  8
Letters
 62
7
100
AcDbSpline
 70
8
 71
3
 72
8
 73
4
 74
0
 40
0
 40
0
 40
0
 40
0
 40
1
 40
1
 40
1
 40
1
 10
0.019631
 20
10.910261
 30
0.0
 10
0.019609
 20
10.910258
 30
0.0
 10
0.019593
 20
10.910244
 30
0.0
 10
0.019576
 20
10.910230
 30
0.0
  0
SPLINE
  5
138
100
AcDbEntity
  8
Letters
 62
7
100
AcDbSpline
 70
8
 71
3
 72
8
 73
4
 74
0
 40
0
 40
0
 40
0
 40
0
 40
1
 40
1
 40
1
 40
1
 10
0.019576
 20
10.910230
 30
0.0
 10
0.018958
 20
10.909637
 30
0.0
 10
0.018669
 20
10.909325
 30
0.0
 10
0.018045
 20
10.908739
 30
0.0
  0
SPLINE
  5
139
100
AcDbEntity
  8
Letters
 62
7
100
AcDbSpline
 70
8
 71
3
 72
8
 73
4
 74
0
 40
0
 40
0
 40
0
 40
0
 40
1
 40
1
 40
1
 40
1
 10
0.018045
 20
10.908739
 30
0.0
 10
0.017792
 20
10.908523
 30
0.0
 10
0.017124
 20
10.908568
 30
0.0
 10
0.016812
 20
10.908604
 30
0.0
  0
SPLINE
  5
13a
100
AcDbEntity
  8
Letters
 62
7
100
AcDbSpline
 70
8
 71
3
 72
8
 73
4
 74
0
 40
0
 40
0
 40
0
 40
0
 40
1
 40
1
 40
1
 40
1
 10
0.016812
 20
10.908604
 30
0.0
 10
0.016344
 20
10.908689
 30
0.0
 10
0.015989
 20
10.909141
 30
0.0
 10
0.016034
 20
10.909603
 30
0.0
  0
SPLINE
  5
13b
100
AcDbEntity
  8
Letters
 62
7
100
AcDbSpline
 70
8
 71
3
 72
8
 73
4
 74
0
 40
0
 40
0
 40
0
 40
0
 40
1
 40
1
 40
1
 40
1
 10
0.016034
 20
10.909603
 30
0.0
 10
0.016036
 20
10.912139
 30
0.0
 10
0.016014
 20
10.914615
 30
0.0
 10
0.016020
 20
10.917151
 30
0.0
  0
SPLINE
  5
13c
100
AcDbEntity
  8
Letters
 62
7
100
AcDbSpline
 70
8
 71
3
 72
8
 73
4
 74
0
 40
0
 40
0
 40
0
 40
0
 40
1
 40
1
 40
1
 40
1
 10
0.016020
 20
10.917151
 30
0.0
 10
0.016045
 20
10.917597
 30
0.0
 10
0.016461
 20
10.917986
 30
0.0
 10
0.016928
 20
10.917963
 30
0.0
  0
SPLINE
  5
13d
100
AcDbEntity
  8
Letters
 62
7
100
AcDbSpline
 70
8
 71
3
 72
8
 73
4
 74
0
 40
0
 40
0
 40
0
 40
0
 40
1
 40
1
 40
1
 40
1
 10
0.016928
 20
10.917963
 30
0.0
 10
0.017659
 20
10.918007
 30
0.0
 10
0.018230
 20
10.917883
 30
0.0
 10
0.018177
 20
10.917135
 30
0.0
  0
SPLINE
  5
13e
100
AcDbEntity
  8
Letters
 62
7
100
AcDbSpline
 70
8
 71
3
 72
8
 73
4
 74
0
 40
0
 40
0
 40
0
 40
0
 40
1
 40
1
 40
1
 40
1
 10
0.018177
 20
10.917135
 30
0.0
 10
0.018177
 20
10.915862
 30
0.0
 10
0.018155
 20
10.914349
 30
0.0
 10
0.018154
 20
10.913087
 30
0.0
  0
SPLINE
  5
13f
100
AcDbEntity
  8
Letters
 62
7
100
AcDbSpline
 70
8
 71
3
 72
8
 73
4
 74
0
 40
0
 40
0
 40
0
 40
0
 40
1
 40
1
 40
1
 40
1
 10
0.018154
 20
10.913087
 30
0.0
 10
0.018136
 20
10.912752
 30
0.0
 10
0.018627
 20
10.912571
 30
0.0
 10
0.018864
 20
10.912816
 30
0.0
  0
SPLINE
  5
140
100
AcDbEntity
  8
Letters
 62
7
100
AcDbSpline
 70
8
 71
3
 72
8
 73
4
 74
0
 40
0
 40
0
 40
0
 40
0
 40
1
 40
1
 40
1
 40
1
 10
0.018864
 20
10.912816
 30
0.0
 10
0.019090
 20
10.913035
 30
0.0
 10
0.019332
 20
10.913424
 30
0.0
 10
0.019559
 20
10.913643
 30
0.0
  0
SPLINE
  5
141
100
AcDbEntity
  8
Letters
 62
7
100
AcDbSpline
 70
8
 71
3
 72
8
 73
4
 74
0
 40
0
 40
0
 40
0
 40
0
 40
1
 40
1
 40
1
 40
1
 10
0.019559
 20
10.913643
 30
0.0
 10
0.019650
 20
10.913698
 30
0.0
 10
0.019779
 20
10.913692
 30
0.0
 10
0.019858
 20
10.913623
 30
0.0
  0
SPLINE
  5
142
100
AcDbEntity
  8
Letters
 62
7
100
AcDbSpline
 70
8
 71
3
 72
8
 73
4
 74
0
 40
0
 40
0
 40
0
 40
0
 40
1
 40
1
 40
1
 40
1
 10
0.019858
 20
10.913623
 30
0.0
 10
0.020128
 20
10.913370
 30
0.0
 10
0.020325
 20
10.912945
 30
0.0
 10
0.020602
 20
10.912695
 30
0.0
  0
LWPOLYLINE
  5
143
100
AcDbEntity
  8
Letters
 62
7
100
AcDbPolyline
 90
2
 70
1
 10
0.010258
 20
10.911900
 30
0.0
 10
0.010258
 20
10.911900
 30
0.0
  0
SPLINE
  5
144
100
AcDbEntity
  8
Letters
 62
7
100
AcDbSpline
 70
8
 71
3
 72
8
 73
4
 74
0
 40
0
 40
0
 40
0
 40
0
 40
1
 40
1
 40
1
 40
1
 10
0.025388
 20
10.908485
 30
0.0
 10
0.027195
 20
10.908487
 30
0.0
 10
0.028856
 20
10.908498
 30
0.0
 10
0.030662
 20
10.908503
 30
0.0
  0
SPLINE
  5
145
100
AcDbEntity
  8
Letters
 62
7
100
AcDbSpline
 70
8
 71
3
 72
8
 73
4
 74
0
 40
0
 40
0
 40
0
 40
0
 40
1
 40
1
 40
1
 40
1
 10
0.030662
 20
10.908503
 30
0.0
 10
0.030924
 20
10.908521
 30
0.0
 10
0.031171
 20
10.908694
 30
0.0
 10
0.031239
 20
10.908939
 30
0.0
  0
SPLINE
  5
146
100
AcDbEntity
  8
Letters
 62
7
100
AcDbSpline
 70
8
 71
3
 72
8
 73
4
 74
0
 40
0
 40
0
 40
0
 40
0
 40
1
 40
1
 40
1
 40
1
 10
0.031239
 20
10.908939
 30
0.0
 10
0.031292
 20
10.909143
 30
0.0
 10
0.031253
 20
10.909558
 30
0.0
 10
0.031264
 20
10.909766
 30
0.0
  0
SPLINE
  5
147
100
AcDbEntity
  8
Letters
 62
7
100
AcDbSpline
 70
8
 71
3
 72
8
 73
4
 74
0
 40
0
 40
0
 40
0
 40
0
 40
1
 40
1
 40
1
 40
1
 10
0.031264
 20
10.909766
 30
0.0
 10
0.031278
 20
10.910017
 30
0.0
 10
0.031114
 20
10.910271
 30
0.0
 10
0.030863
 20
10.910356
 30
0.0
  0
SPLINE
  5
148
100
AcDbEntity
  8
Letters
 62
7
100
AcDbSpline
 70
8
 71
3
 72
8
 73
4
 74
0
 40
0
 40
0
 40
0
 40
0
 40
1
 40
1
 40
1
 40
1
 10
0.030863
 20
10.910356
 30
0.0
 10
0.030787
 20
10.910392
 30
0.0
 10
0.030763
 20
10.910408
 30
0.0
 10
0.030608
 20
10.910419
 30
0.0
  0
SPLINE
  5
149
100
AcDbEntity
  8
Letters
 62
7
100
AcDbSpline
 70
8
 71
3
 72
8
 73
4
 74
0
 40
0
 40
0
 40
0
 40
0
 40
1
 40
1
 40
1
 40
1
 10
0.030608
 20
10.910419
 30
0.0
 10
0.029192
 20
10.910442
 30
0.0
 10
0.028224
 20
10.910424
 30
0.0
 10
0.026808
 20
10.910427
 30
0.0
  0
SPLINE
  5
14a
100
AcDbEntity
  8
Letters
 62
7
100
AcDbSpline
 70
8
 71
3
 72
8
 73
4
 74
0
 40
0
 40
0
 40
0
 40
0
 40
1
 40
1
 40
1
 40
1
 10
0.026808
 20
10.910427
 30
0.0
 10
0.026689
 20
10.910426
 30
0.0
 10
0.026589
 20
10.910499
 30
0.0
 10
0.026513
 20
10.910578
 30
0.0
  0
SPLINE
  5
14b
100
AcDbEntity
  8
Letters
 62
7
100
AcDbSpline
 70
8
 71
3
 72
8
 73
4
 74
0
 40
0
 40
0
 40
0
 40
0
 40
1
 40
1
 40
1
 40
1
 10
0.026513
 20
10.910578
 30
0.0
 10
0.026472
 20
10.910638
 30
0.0
 10
0.026446
 20
10.910707
 30
0.0
 10
0.026445
 20
10.910783
 30
0.0
  0
LWPOLYLINE
  5
14c
100
AcDbEntity
  8
Letters
 62
7
100
AcDbPolyline
 90
2
 70
1
 10
0.020602
 20
10.912695
 30
0.0
 10
0.020602
 20
10.912695
 30
0.0
  0
SPLINE
  5
14d
100
AcDbEntity
  8
Letters
 62
7
100
AcDbSpline
 70
8
 71
3
 72
8
 73
4
 74
0
 40
0
 40
0
 40
0
 40
0
 40
1
 40
1
 40
1
 40
1
 10
0.026445
 20
10.912032
 30
0.0
 10
0.026449
 20
10.912137
 30
0.0
 10
0.026497
 20
10.912248
 30
0.0
 10
0.026595
 20
10.912305
 30
0.0
  0
LWPOLYLINE
  5
14e
100
AcDbEntity
  8
Letters
 62
7
100
AcDbPolyline
 90
2
 70
1
 10
0.026445
 20
10.910783
 30
0.0
 10
0.026445
 20
10.912032
 30
0.0
  0
SPLINE
  5
14f
100
AcDbEntity
  8
Letters
 62
7
100
AcDbSpline
 70
8
 71
3
 72
8
 73
4
 74
0
 40
0
 40
0
 40
0
 40
0
 40
1
 40
1
 40
1
 40
1
 10
0.026673
 20
10.912357
 30
0.0
 10
0.026722
 20
10.912374
 30
0.0
 10
0.026774
 20
10.912383
 30
0.0
 10
0.026827
 20
10.912389
 30
0.0
  0
SPLINE
  5
150
100
AcDbEntity
  8
Letters
 62
7
100
AcDbSpline
 70
8
 71
3
 72
8
 73
4
 74
0
 40
0
 40
0
 40
0
 40
0
 40
1
 40
1
 40
1
 40
1
 10
0.026827
 20
10.912389
 30
0.0
 10
0.027362
 20
10.912400
 30
0.0
 10
0.027598
 20
10.912379
 30
0.0
 10
0.028133
 20
10.912404
 30
0.0
  0
SPLINE
  5
151
100
AcDbEntity
  8
Letters
 62
7
100
AcDbSpline
 70
8
 71
3
 72
8
 73
4
 74
0
 40
0
 40
0
 40
0
 40
0
 40
1
 40
1
 40
1
 40
1
 10
0.028133
 20
10.912404
 30
0.0
 10
0.028434
 20
10.912453
 30
0.0
 10
0.028667
 20
10.912711
 30
0.0
 10
0.028663
 20
10.913009
 30
0.0
  0
SPLINE
  5
152
100
AcDbEntity
  8
Letters
 62
7
100
AcDbSpline
 70
8
 71
3
 72
8
 73
4
 74
0
 40
0
 40
0
 40
0
 40
0
 40
1
 40
1
 40
1
 40
1
 10
0.028663
 20
10.913009
 30
0.0
 10
0.028657
 20
10.913321
 30
0.0
 10
0.028731
 20
10.913783
 30
0.0
 10
0.028390
 20
10.913959
 30
0.0
  0
SPLINE
  5
153
100
AcDbEntity
  8
Letters
 62
7
100
AcDbSpline
 70
8
 71
3
 72
8
 73
4
 74
0
 40
0
 40
0
 40
0
 40
0
 40
1
 40
1
 40
1
 40
1
 10
0.028390
 20
10.913959
 30
0.0
 10
0.028196
 20
10.914081
 30
0.0
 10
0.027999
 20
10.914040
 30
0.0
 10
0.027779
 20
10.914045
 30
0.0
  0
SPLINE
  5
154
100
AcDbEntity
  8
Letters
 62
7
100
AcDbSpline
 70
8
 71
3
 72
8
 73
4
 74
0
 40
0
 40
0
 40
0
 40
0
 40
1
 40
1
 40
1
 40
1
 10
0.027779
 20
10.914045
 30
0.0
 10
0.027370
 20
10.914045
 30
0.0
 10
0.027324
 20
10.914038
 30
0.0
 10
0.026915
 20
10.914038
 30
0.0
  0
SPLINE
  5
155
100
AcDbEntity
  8
Letters
 62
7
100
AcDbSpline
 70
8
 71
3
 72
8
 73
4
 74
0
 40
0
 40
0
 40
0
 40
0
 40
1
 40
1
 40
1
 40
1
 10
0.026915
 20
10.914038
 30
0.0
 10
0.026609
 20
10.914024
 30
0.0
 10
0.026540
 20
10.914343
 30
0.0
 10
0.026524
 20
10.914620
 30
0.0
  0
SPLINE
  5
156
100
AcDbEntity
  8
Letters
 62
7
100
AcDbSpline
 70
8
 71
3
 72
8
 73
4
 74
0
 40
0
 40
0
 40
0
 40
0
 40
1
 40
1
 40
1
 40
1
 10
0.026524
 20
10.914620
 30
0.0
 10
0.026543
 20
10.915083
 30
0.0
 10
0.026483
 20
10.915493
 30
0.0
 10
0.026557
 20
10.915950
 30
0.0
  0
SPLINE
  5
157
100
AcDbEntity
  8
Letters
 62
7
100
AcDbSpline
 70
8
 71
3
 72
8
 73
4
 74
0
 40
0
 40
0
 40
0
 40
0
 40
1
 40
1
 40
1
 40
1
 10
0.026557
 20
10.915950
 30
0.0
 10
0.026626
 20
10.916125
 30
0.0
 10
0.026815
 20
10.916175
 30
0.0
 10
0.027012
 20
10.916166
 30
0.0
  0
SPLINE
  5
158
100
AcDbEntity
  8
Letters
 62
7
100
AcDbSpline
 70
8
 71
3
 72
8
 73
4
 74
0
 40
0
 40
0
 40
0
 40
0
 40
1
 40
1
 40
1
 40
1
 10
0.027012
 20
10.916166
 30
0.0
 10
0.028395
 20
10.916166
 30
0.0
 10
0.029156
 20
10.916144
 30
0.0
 10
0.030539
 20
10.916160
 30
0.0
  0
SPLINE
  5
159
100
AcDbEntity
  8
Letters
 62
7
100
AcDbSpline
 70
8
 71
3
 72
8
 73
4
 74
0
 40
0
 40
0
 40
0
 40
0
 40
1
 40
1
 40
1
 40
1
 10
0.030539
 20
10.916160
 30
0.0
 10
0.030977
 20
10.916205
 30
0.0
 10
0.031258
 20
10.916698
 30
0.0
 10
0.031203
 20
10.917106
 30
0.0
  0
SPLINE
  5
15a
100
AcDbEntity
  8
Letters
 62
7
100
AcDbSpline
 70
8
 71
3
 72
8
 73
4
 74
0
 40
0
 40
0
 40
0
 40
0
 40
1
 40
1
 40
1
 40
1
 10
0.031203
 20
10.917106
 30
0.0
 10
0.031245
 20
10.917529
 30
0.0
 10
0.030899
 20
10.917954
 30
0.0
 10
0.030440
 20
10.917973
 30
0.0
  0
SPLINE
  5
15b
100
AcDbEntity
  8
Letters
 62
7
100
AcDbSpline
 70
8
 71
3
 72
8
 73
4
 74
0
 40
0
 40
0
 40
0
 40
0
 40
1
 40
1
 40
1
 40
1
 10
0.030440
 20
10.917973
 30
0.0
 10
0.028512
 20
10.917977
 30
0.0
 10
0.026791
 20
10.917977
 30
0.0
 10
0.024863
 20
10.917973
 30
0.0
  0
SPLINE
  5
15c
100
AcDbEntity
  8
Letters
 62
7
100
AcDbSpline
 70
8
 71
3
 72
8
 73
4
 74
0
 40
0
 40
0
 40
0
 40
0
 40
1
 40
1
 40
1
 40
1
 10
0.024863
 20
10.917973
 30
0.0
 10
0.024439
 20
10.917957
 30
0.0
 10
0.024118
 20
10.917563
 30
0.0
 10
0.024160
 20
10.917171
 30
0.0
  0
SPLINE
  5
15d
100
AcDbEntity
  8
Letters
 62
7
100
AcDbSpline
 70
8
 71
3
 72
8
 73
4
 74
0
 40
0
 40
0
 40
0
 40
0
 40
1
 40
1
 40
1
 40
1
 10
0.024160
 20
10.917171
 30
0.0
 10
0.024160
 20
10.914544
 30
0.0
 10
0.024160
 20
10.911916
 30
0.0
 10
0.024160
 20
10.909287
 30
0.0
  0
SPLINE
  5
15e
100
AcDbEntity
  8
Letters
 62
7
100
AcDbSpline
 70
8
 71
3
 72
8
 73
4
 74
0
 40
0
 40
0
 40
0
 40
0
 40
1
 40
1
 40
1
 40
1
 10
0.024160
 20
10.909287
 30
0.0
 10
0.024136
 20
10.908960
 30
0.0
 10
0.024359
 20
10.908633
 30
0.0
 10
0.024635
 20
10.908540
 30
0.0
  0
SPLINE
  5
15f
100
AcDbEntity
  8
Letters
 62
7
100
AcDbSpline
 70
8
 71
3
 72
8
 73
4
 74
0
 40
0
 40
0
 40
0
 40
0
 40
1
 40
1
 40
1
 40
1
 10
0.024635
 20
10.908540
 30
0.0
 10
0.024910
 20
10.908448
 30
0.0
 10
0.025156
 20
10.908500
 30
0.0
 10
0.025388
 20
10.908485
 30
0.0
  0
LWPOLYLINE
  5
160
100
AcDbEntity
  8
Letters
 62
7
100
AcDbPolyline
 90
2
 70
1
 10
0.026595
 20
10.912305
 30
0.0
 10
0.026673
 20
10.912357
 30
0.0
  0
SPLINE
  5
161
100
AcDbEntity
  8
Letters
 62
7
100
AcDbSpline
 70
8
 71
3
 72
8
 73
4
 74
0
 40
0
 40
0
 40
0
 40
0
 40
1
 40
1
 40
1
 40
1
 10
0.032235
 20
10.909371
 30
0.0
 10
0.032237
 20
10.911879
 30
0.0
 10
0.032219
 20
10.914492
 30
0.0
 10
0.032228
 20
10.916999
 30
0.0
  0
SPLINE
  5
162
100
AcDbEntity
  8
Letters
 62
7
100
AcDbSpline
 70
8
 71
3
 72
8
 73
4
 74
0
 40
0
 40
0
 40
0
 40
0
 40
1
 40
1
 40
1
 40
1
 10
0.032228
 20
10.916999
 30
0.0
 10
0.032269
 20
10.917454
 30
0.0
 10
0.032927
 20
10.917876
 30
0.0
 10
0.033384
 20
10.917845
 30
0.0
  0
SPLINE
  5
163
100
AcDbEntity
  8
Letters
 62
7
100
AcDbSpline
 70
8
 71
3
 72
8
 73
4
 74
0
 40
0
 40
0
 40
0
 40
0
 40
1
 40
1
 40
1
 40
1
 10
0.033384
 20
10.917845
 30
0.0
 10
0.034603
 20
10.917845
 30
0.0
 10
0.035821
 20
10.917845
 30
0.0
 10
0.037038
 20
10.917851
 30
0.0
  0
SPLINE
  5
164
100
AcDbEntity
  8
Letters
 62
7
100
AcDbSpline
 70
8
 71
3
 72
8
 73
4
 74
0
 40
0
 40
0
 40
0
 40
0
 40
1
 40
1
 40
1
 40
1
 10
0.037038
 20
10.917851
 30
0.0
 10
0.037402
 20
10.917872
 30
0.0
 10
0.037781
 20
10.917741
 30
0.0
 10
0.038011
 20
10.917447
 30
0.0
  0
SPLINE
  5
165
100
AcDbEntity
  8
Letters
 62
7
100
AcDbSpline
 70
8
 71
3
 72
8
 73
4
 74
0
 40
0
 40
0
 40
0
 40
0
 40
1
 40
1
 40
1
 40
1
 10
0.038011
 20
10.917447
 30
0.0
 10
0.038259
 20
10.917174
 30
0.0
 10
0.038650
 20
10.916902
 30
0.0
 10
0.038896
 20
10.916627
 30
0.0
  0
SPLINE
  5
166
100
AcDbEntity
  8
Letters
 62
7
100
AcDbSpline
 70
8
 71
3
 72
8
 73
4
 74
0
 40
0
 40
0
 40
0
 40
0
 40
1
 40
1
 40
1
 40
1
 10
0.038896
 20
10.916627
 30
0.0
 10
0.038981
 20
10.916527
 30
0.0
 10
0.039064
 20
10.916422
 30
0.0
 10
0.039110
 20
10.916297
 30
0.0
  0
SPLINE
  5
167
100
AcDbEntity
  8
Letters
 62
7
100
AcDbSpline
 70
8
 71
3
 72
8
 73
4
 74
0
 40
0
 40
0
 40
0
 40
0
 40
1
 40
1
 40
1
 40
1
 10
0.039110
 20
10.916297
 30
0.0
 10
0.039183
 20
10.916121
 30
0.0
 10
0.039217
 20
10.915928
 30
0.0
 10
0.039195
 20
10.915725
 30
0.0
  0
SPLINE
  5
168
100
AcDbEntity
  8
Letters
 62
7
100
AcDbSpline
 70
8
 71
3
 72
8
 73
4
 74
0
 40
0
 40
0
 40
0
 40
0
 40
1
 40
1
 40
1
 40
1
 10
0.039195
 20
10.915725
 30
0.0
 10
0.039193
 20
10.914929
 30
0.0
 10
0.039276
 20
10.913325
 30
0.0
 10
0.039192
 20
10.913233
 30
0.0
  0
SPLINE
  5
169
100
AcDbEntity
  8
Letters
 62
7
100
AcDbSpline
 70
8
 71
3
 72
8
 73
4
 74
0
 40
0
 40
0
 40
0
 40
0
 40
1
 40
1
 40
1
 40
1
 10
0.039192
 20
10.913233
 30
0.0
 10
0.039048
 20
10.912974
 30
0.0
 10
0.038847
 20
10.913058
 30
0.0
 10
0.038700
 20
10.912632
 30
0.0
  0
SPLINE
  5
16a
100
AcDbEntity
  8
Letters
 62
7
100
AcDbSpline
 70
8
 71
3
 72
8
 73
4
 74
0
 40
0
 40
0
 40
0
 40
0
 40
1
 40
1
 40
1
 40
1
 10
0.038700
 20
10.912632
 30
0.0
 10
0.038511
 20
10.912250
 30
0.0
 10
0.038574
 20
10.911740
 30
0.0
 10
0.038404
 20
10.911296
 30
0.0
  0
SPLINE
  5
16b
100
AcDbEntity
  8
Letters
 62
7
100
AcDbSpline
 70
8
 71
3
 72
8
 73
4
 74
0
 40
0
 40
0
 40
0
 40
0
 40
1
 40
1
 40
1
 40
1
 10
0.038404
 20
10.911296
 30
0.0
 10
0.038280
 20
10.911039
 30
0.0
 10
0.038413
 20
10.910700
 30
0.0
 10
0.038546
 20
10.910512
 30
0.0
  0
SPLINE
  5
16c
100
AcDbEntity
  8
Letters
 62
7
100
AcDbSpline
 70
8
 71
3
 72
8
 73
4
 74
0
 40
0
 40
0
 40
0
 40
0
 40
1
 40
1
 40
1
 40
1
 10
0.038546
 20
10.910512
 30
0.0
 10
0.038646
 20
10.910375
 30
0.0
 10
0.038659
 20
10.910286
 30
0.0
 10
0.039014
 20
10.909771
 30
0.0
  0
SPLINE
  5
16d
100
AcDbEntity
  8
Letters
 62
7
100
AcDbSpline
 70
8
 71
3
 72
8
 73
4
 74
0
 40
0
 40
0
 40
0
 40
0
 40
1
 40
1
 40
1
 40
1
 10
0.039014
 20
10.909771
 30
0.0
 10
0.039306
 20
10.909425
 30
0.0
 10
0.039191
 20
10.908837
 30
0.0
 10
0.038788
 20
10.908620
 30
0.0
  0
SPLINE
  5
16e
100
AcDbEntity
  8
Letters
 62
7
100
AcDbSpline
 70
8
 71
3
 72
8
 73
4
 74
0
 40
0
 40
0
 40
0
 40
0
 40
1
 40
1
 40
1
 40
1
 10
0.038788
 20
10.908620
 30
0.0
 10
0.038452
 20
10.908428
 30
0.0
 10
0.037816
 20
10.908539
 30
0.0
 10
0.037511
 20
10.908818
 30
0.0
  0
SPLINE
  5
16f
100
AcDbEntity
  8
Letters
 62
7
100
AcDbSpline
 70
8
 71
3
 72
8
 73
4
 74
0
 40
0
 40
0
 40
0
 40
0
 40
1
 40
1
 40
1
 40
1
 10
0.037511
 20
10.908818
 30
0.0
 10
0.036801
 20
10.909517
 30
0.0
 10
0.036279
 20
10.910157
 30
0.0
 10
0.035567
 20
10.910865
 30
0.0
  0
SPLINE
  5
170
100
AcDbEntity
  8
Letters
 62
7
100
AcDbSpline
 70
8
 71
3
 72
8
 73
4
 74
0
 40
0
 40
0
 40
0
 40
0
 40
1
 40
1
 40
1
 40
1
 10
0.035567
 20
10.910865
 30
0.0
 10
0.035471
 20
10.910967
 30
0.0
 10
0.035323
 20
10.910962
 30
0.0
 10
0.035195
 20
10.910959
 30
0.0
  0
SPLINE
  5
171
100
AcDbEntity
  8
Letters
 62
7
100
AcDbSpline
 70
8
 71
3
 72
8
 73
4
 74
0
 40
0
 40
0
 40
0
 40
0
 40
1
 40
1
 40
1
 40
1
 10
0.035195
 20
10.910959
 30
0.0
 10
0.034967
 20
10.910956
 30
0.0
 10
0.034738
 20
10.910963
 30
0.0
 10
0.034511
 20
10.910955
 30
0.0
  0
SPLINE
  5
172
100
AcDbEntity
  8
Letters
 62
7
100
AcDbSpline
 70
8
 71
3
 72
8
 73
4
 74
0
 40
0
 40
0
 40
0
 40
0
 40
1
 40
1
 40
1
 40
1
 10
0.034511
 20
10.910955
 30
0.0
 10
0.034381
 20
10.910942
 30
0.0
 10
0.034264
 20
10.910861
 30
0.0
 10
0.034203
 20
10.910747
 30
0.0
  0
SPLINE
  5
173
100
AcDbEntity
  8
Letters
 62
7
100
AcDbSpline
 70
8
 71
3
 72
8
 73
4
 74
0
 40
0
 40
0
 40
0
 40
0
 40
1
 40
1
 40
1
 40
1
 10
0.034203
 20
10.910747
 30
0.0
 10
0.034170
 20
10.910688
 30
0.0
 10
0.034160
 20
10.910616
 30
0.0
 10
0.034156
 20
10.910552
 30
0.0
  0
LWPOLYLINE
  5
174
100
AcDbEntity
  8
Letters
 62
7
100
AcDbPolyline
 90
2
 70
1
 10
0.025388
 20
10.908485
 30
0.0
 10
0.025388
 20
10.908485
 30
0.0
  0
SPLINE
  5
175
100
AcDbEntity
  8
Letters
 62
7
100
AcDbSpline
 70
8
 71
3
 72
8
 73
4
 74
0
 40
0
 40
0
 40
0
 40
0
 40
1
 40
1
 40
1
 40
1
 10
0.034162
 20
10.908921
 30
0.0
 10
0.034163
 20
10.908632
 30
0.0
 10
0.034134
 20
10.908540
 30
0.0
 10
0.033843
 20
10.908536
 30
0.0
  0
SPLINE
  5
176
100
AcDbEntity
  8
Letters
 62
7
100
AcDbSpline
 70
8
 71
3
 72
8
 73
4
 74
0
 40
0
 40
0
 40
0
 40
0
 40
1
 40
1
 40
1
 40
1
 10
0.033843
 20
10.908536
 30
0.0
 10
0.033829
 20
10.908536
 30
0.0
 10
0.032945
 20
10.908540
 30
0.0
 10
0.032798
 20
10.908538
 30
0.0
  0
SPLINE
  5
177
100
AcDbEntity
  8
Letters
 62
7
100
AcDbSpline
 70
8
 71
3
 72
8
 73
4
 74
0
 40
0
 40
0
 40
0
 40
0
 40
1
 40
1
 40
1
 40
1
 10
0.032798
 20
10.908538
 30
0.0
 10
0.032301
 20
10.908523
 30
0.0
 10
0.032233
 20
10.908576
 30
0.0
 10
0.032235
 20
10.908957
 30
0.0
  0
LWPOLYLINE
  5
178
100
AcDbEntity
  8
Letters
 62
7
100
AcDbPolyline
 90
2
 70
1
 10
0.034156
 20
10.910552
 30
0.0
 10
0.034162
 20
10.908921
 30
0.0
  0
SPLINE
  5
179
100
AcDbEntity
  8
Letters
 62
7
100
AcDbSpline
 70
8
 71
3
 72
8
 73
4
 74
0
 40
0
 40
0
 40
0
 40
0
 40
1
 40
1
 40
1
 40
1
 10
0.034506
 20
10.914371
 30
0.0
 10
0.034444
 20
10.915160
 30
0.0
 10
0.035204
 20
10.915909
 30
0.0
 10
0.035996
 20
10.915795
 30
0.0
  0
SPLINE
  5
17a
100
AcDbEntity
  8
Letters
 62
7
100
AcDbSpline
 70
8
 71
3
 72
8
 73
4
 74
0
 40
0
 40
0
 40
0
 40
0
 40
1
 40
1
 40
1
 40
1
 10
0.035996
 20
10.915795
 30
0.0
 10
0.036713
 20
10.915722
 30
0.0
 10
0.037294
 20
10.914997
 30
0.0
 10
0.037186
 20
10.914278
 30
0.0
  0
SPLINE
  5
17b
100
AcDbEntity
  8
Letters
 62
7
100
AcDbSpline
 70
8
 71
3
 72
8
 73
4
 74
0
 40
0
 40
0
 40
0
 40
0
 40
1
 40
1
 40
1
 40
1
 10
0.037186
 20
10.914278
 30
0.0
 10
0.037109
 20
10.913629
 30
0.0
 10
0.036504
 20
10.913087
 30
0.0
 10
0.035846
 20
10.913101
 30
0.0
  0
SPLINE
  5
17c
100
AcDbEntity
  8
Letters
 62
7
100
AcDbSpline
 70
8
 71
3
 72
8
 73
4
 74
0
 40
0
 40
0
 40
0
 40
0
 40
1
 40
1
 40
1
 40
1
 10
0.035846
 20
10.913101
 30
0.0
 10
0.035160
 20
10.913095
 30
0.0
 10
0.034531
 20
10.913683
 30
0.0
 10
0.034506
 20
10.914371
 30
0.0
  0
LWPOLYLINE
  5
17d
100
AcDbEntity
  8
Letters
 62
7
100
AcDbPolyline
 90
2
 70
1
 10
0.032235
 20
10.908957
 30
0.0
 10
0.032235
 20
10.909371
 30
0.0
  0
SPLINE
  5
17e
100
AcDbEntity
  8
Letters
 62
7
100
AcDbSpline
 70
8
 71
3
 72
8
 73
4
 74
0
 40
0
 40
0
 40
0
 40
0
 40
1
 40
1
 40
1
 40
1
 10
0.034504
 20
10.904181
 30
0.0
 10
0.034442
 20
10.904969
 30
0.0
 10
0.035202
 20
10.905718
 30
0.0
 10
0.035994
 20
10.905604
 30
0.0
  0
SPLINE
  5
17f
100
AcDbEntity
  8
Letters
 62
7
100
AcDbSpline
 70
8
 71
3
 72
8
 73
4
 74
0
 40
0
 40
0
 40
0
 40
0
 40
1
 40
1
 40
1
 40
1
 10
0.035994
 20
10.905604
 30
0.0
 10
0.036712
 20
10.905531
 30
0.0
 10
0.037292
 20
10.904806
 30
0.0
 10
0.037185
 20
10.904088
 30
0.0
  0
SPLINE
  5
180
100
AcDbEntity
  8
Letters
 62
7
100
AcDbSpline
 70
8
 71
3
 72
8
 73
4
 74
0
 40
0
 40
0
 40
0
 40
0
 40
1
 40
1
 40
1
 40
1
 10
0.037185
 20
10.904088
 30
0.0
 10
0.037108
 20
10.903438
 30
0.0
 10
0.036502
 20
10.902896
 30
0.0
 10
0.035844
 20
10.902911
 30
0.0
  0
SPLINE
  5
181
100
AcDbEntity
  8
Letters
 62
7
100
AcDbSpline
 70
8
 71
3
 72
8
 73
4
 74
0
 40
0
 40
0
 40
0
 40
0
 40
1
 40
1
 40
1
 40
1
 10
0.035844
 20
10.902911
 30
0.0
 10
0.035158
 20
10.902905
 30
0.0
 10
0.034530
 20
10.903493
 30
0.0
 10
0.034504
 20
10.904181
 30
0.0
  0
LWPOLYLINE
  5
182
100
AcDbEntity
  8
Letters
 62
7
100
AcDbPolyline
 90
2
 70
1
 10
0.034506
 20
10.914371
 30
0.0
 10
0.034506
 20
10.914371
 30
0.0
  0
SPLINE
  5
183
100
AcDbEntity
  8
Letters
 62
7
100
AcDbSpline
 70
8
 71
3
 72
8
 73
4
 74
0
 40
0
 40
0
 40
0
 40
0
 40
1
 40
1
 40
1
 40
1
 10
0.032235
 20
10.899125
 30
0.0
 10
0.032237
 20
10.901633
 30
0.0
 10
0.032219
 20
10.904246
 30
0.0
 10
0.032228
 20
10.906753
 30
0.0
  0
SPLINE
  5
184
100
AcDbEntity
  8
Letters
 62
7
100
AcDbSpline
 70
8
 71
3
 72
8
 73
4
 74
0
 40
0
 40
0
 40
0
 40
0
 40
1
 40
1
 40
1
 40
1
 10
0.032228
 20
10.906753
 30
0.0
 10
0.032269
 20
10.907208
 30
0.0
 10
0.032927
 20
10.907629
 30
0.0
 10
0.033384
 20
10.907598
 30
0.0
  0
SPLINE
  5
185
100
AcDbEntity
  8
Letters
 62
7
100
AcDbSpline
 70
8
 71
3
 72
8
 73
4
 74
0
 40
0
 40
0
 40
0
 40
0
 40
1
 40
1
 40
1
 40
1
 10
0.033384
 20
10.907598
 30
0.0
 10
0.034603
 20
10.907598
 30
0.0
 10
0.035821
 20
10.907599
 30
0.0
 10
0.037038
 20
10.907605
 30
0.0
  0
SPLINE
  5
186
100
AcDbEntity
  8
Letters
 62
7
100
AcDbSpline
 70
8
 71
3
 72
8
 73
4
 74
0
 40
0
 40
0
 40
0
 40
0
 40
1
 40
1
 40
1
 40
1
 10
0.037038
 20
10.907605
 30
0.0
 10
0.037402
 20
10.907626
 30
0.0
 10
0.037781
 20
10.907495
 30
0.0
 10
0.038011
 20
10.907201
 30
0.0
  0
SPLINE
  5
187
100
AcDbEntity
  8
Letters
 62
7
100
AcDbSpline
 70
8
 71
3
 72
8
 73
4
 74
0
 40
0
 40
0
 40
0
 40
0
 40
1
 40
1
 40
1
 40
1
 10
0.038011
 20
10.907201
 30
0.0
 10
0.038259
 20
10.906928
 30
0.0
 10
0.038650
 20
10.906656
 30
0.0
 10
0.038896
 20
10.906381
 30
0.0
  0
SPLINE
  5
188
100
AcDbEntity
  8
Letters
 62
7
100
AcDbSpline
 70
8
 71
3
 72
8
 73
4
 74
0
 40
0
 40
0
 40
0
 40
0
 40
1
 40
1
 40
1
 40
1
 10
0.038896
 20
10.906381
 30
0.0
 10
0.038981
 20
10.906281
 30
0.0
 10
0.039064
 20
10.906176
 30
0.0
 10
0.039110
 20
10.906051
 30
0.0
  0
SPLINE
  5
189
100
AcDbEntity
  8
Letters
 62
7
100
AcDbSpline
 70
8
 71
3
 72
8
 73
4
 74
0
 40
0
 40
0
 40
0
 40
0
 40
1
 40
1
 40
1
 40
1
 10
0.039110
 20
10.906051
 30
0.0
 10
0.039183
 20
10.905875
 30
0.0
 10
0.039217
 20
10.905682
 30
0.0
 10
0.039195
 20
10.905478
 30
0.0
  0
SPLINE
  5
18a
100
AcDbEntity
  8
Letters
 62
7
100
AcDbSpline
 70
8
 71
3
 72
8
 73
4
 74
0
 40
0
 40
0
 40
0
 40
0
 40
1
 40
1
 40
1
 40
1
 10
0.039195
 20
10.905478
 30
0.0
 10
0.039193
 20
10.904682
 30
0.0
 10
0.039276
 20
10.903079
 30
0.0
 10
0.039192
 20
10.902987
 30
0.0
  0
SPLINE
  5
18b
100
AcDbEntity
  8
Letters
 62
7
100
AcDbSpline
 70
8
 71
3
 72
8
 73
4
 74
0
 40
0
 40
0
 40
0
 40
0
 40
1
 40
1
 40
1
 40
1
 10
0.039192
 20
10.902987
 30
0.0
 10
0.039048
 20
10.902728
 30
0.0
 10
0.038847
 20
10.902812
 30
0.0
 10
0.038700
 20
10.902386
 30
0.0
  0
SPLINE
  5
18c
100
AcDbEntity
  8
Letters
 62
7
100
AcDbSpline
 70
8
 71
3
 72
8
 73
4
 74
0
 40
0
 40
0
 40
0
 40
0
 40
1
 40
1
 40
1
 40
1
 10
0.038700
 20
10.902386
 30
0.0
 10
0.038511
 20
10.902004
 30
0.0
 10
0.038574
 20
10.901494
 30
0.0
 10
0.038404
 20
10.901050
 30
0.0
  0
SPLINE
  5
18d
100
AcDbEntity
  8
Letters
 62
7
100
AcDbSpline
 70
8
 71
3
 72
8
 73
4
 74
0
 40
0
 40
0
 40
0
 40
0
 40
1
 40
1
 40
1
 40
1
 10
0.038404
 20
10.901050
 30
0.0
 10
0.038280
 20
10.900793
 30
0.0
 10
0.038413
 20
10.900454
 30
0.0
 10
0.038546
 20
10.900266
 30
0.0
  0
SPLINE
  5
18e
100
AcDbEntity
  8
Letters
 62
7
100
AcDbSpline
 70
8
 71
3
 72
8
 73
4
 74
0
 40
0
 40
0
 40
0
 40
0
 40
1
 40
1
 40
1
 40
1
 10
0.038546
 20
10.900266
 30
0.0
 10
0.038646
 20
10.900129
 30
0.0
 10
0.038659
 20
10.900040
 30
0.0
 10
0.039014
 20
10.899525
 30
0.0
  0
SPLINE
  5
18f
100
AcDbEntity
  8
Letters
 62
7
100
AcDbSpline
 70
8
 71
3
 72
8
 73
4
 74
0
 40
0
 40
0
 40
0
 40
0
 40
1
 40
1
 40
1
 40
1
 10
0.039014
 20
10.899525
 30
0.0
 10
0.039306
 20
10.899179
 30
0.0
 10
0.039191
 20
10.898590
 30
0.0
 10
0.038788
 20
10.898374
 30
0.0
  0
SPLINE
  5
190
100
AcDbEntity
  8
Letters
 62
7
100
AcDbSpline
 70
8
 71
3
 72
8
 73
4
 74
0
 40
0
 40
0
 40
0
 40
0
 40
1
 40
1
 40
1
 40
1
 10
0.038788
 20
10.898374
 30
0.0
 10
0.038452
 20
10.898182
 30
0.0
 10
0.037816
 20
10.898293
 30
0.0
 10
0.037511
 20
10.898572
 30
0.0
  0
SPLINE
  5
191
100
AcDbEntity
  8
Letters
 62
7
100
AcDbSpline
 70
8
 71
3
 72
8
 73
4
 74
0
 40
0
 40
0
 40
0
 40
0
 40
1
 40
1
 40
1
 40
1
 10
0.037511
 20
10.898572
 30
0.0
 10
0.036801
 20
10.899271
 30
0.0
 10
0.036279
 20
10.899911
 30
0.0
 10
0.035567
 20
10.900619
 30
0.0
  0
SPLINE
  5
192
100
AcDbEntity
  8
Letters
 62
7
100
AcDbSpline
 70
8
 71
3
 72
8
 73
4
 74
0
 40
0
 40
0
 40
0
 40
0
 40
1
 40
1
 40
1
 40
1
 10
0.035567
 20
10.900619
 30
0.0
 10
0.035471
 20
10.900721
 30
0.0
 10
0.035323
 20
10.900715
 30
0.0
 10
0.035195
 20
10.900712
 30
0.0
  0
SPLINE
  5
193
100
AcDbEntity
  8
Letters
 62
7
100
AcDbSpline
 70
8
 71
3
 72
8
 73
4
 74
0
 40
0
 40
0
 40
0
 40
0
 40
1
 40
1
 40
1
 40
1
 10
0.035195
 20
10.900712
 30
0.0
 10
0.034967
 20
10.900710
 30
0.0
 10
0.034738
 20
10.900717
 30
0.0
 10
0.034511
 20
10.900709
 30
0.0
  0
SPLINE
  5
194
100
AcDbEntity
  8
Letters
 62
7
100
AcDbSpline
 70
8
 71
3
 72
8
 73
4
 74
0
 40
0
 40
0
 40
0
 40
0
 40
1
 40
1
 40
1
 40
1
 10
0.034511
 20
10.900709
 30
0.0
 10
0.034381
 20
10.900695
 30
0.0
 10
0.034264
 20
10.900615
 30
0.0
 10
0.034203
 20
10.900500
 30
0.0
  0
SPLINE
  5
195
100
AcDbEntity
  8
Letters
 62
7
100
AcDbSpline
 70
8
 71
3
 72
8
 73
4
 74
0
 40
0
 40
0
 40
0
 40
0
 40
1
 40
1
 40
1
 40
1
 10
0.034203
 20
10.900500
 30
0.0
 10
0.034170
 20
10.900442
 30
0.0
 10
0.034160
 20
10.900370
 30
0.0
 10
0.034156
 20
10.900305
 30
0.0
  0
LWPOLYLINE
  5
196
100
AcDbEntity
  8
Letters
 62
7
100
AcDbPolyline
 90
2
 70
1
 10
0.034504
 20
10.904181
 30
0.0
 10
0.034504
 20
10.904181
 30
0.0
  0
SPLINE
  5
197
100
AcDbEntity
  8
Letters
 62
7
100
AcDbSpline
 70
8
 71
3
 72
8
 73
4
 74
0
 40
0
 40
0
 40
0
 40
0
 40
1
 40
1
 40
1
 40
1
 10
0.034162
 20
10.898674
 30
0.0
 10
0.034163
 20
10.898385
 30
0.0
 10
0.034134
 20
10.898294
 30
0.0
 10
0.033843
 20
10.898290
 30
0.0
  0
SPLINE
  5
198
100
AcDbEntity
  8
Letters
 62
7
100
AcDbSpline
 70
8
 71
3
 72
8
 73
4
 74
0
 40
0
 40
0
 40
0
 40
0
 40
1
 40
1
 40
1
 40
1
 10
0.033843
 20
10.898290
 30
0.0
 10
0.033829
 20
10.898289
 30
0.0
 10
0.032945
 20
10.898294
 30
0.0
 10
0.032798
 20
10.898292
 30
0.0
  0
SPLINE
  5
199
100
AcDbEntity
  8
Letters
 62
7
100
AcDbSpline
 70
8
 71
3
 72
8
 73
4
 74
0
 40
0
 40
0
 40
0
 40
0
 40
1
 40
1
 40
1
 40
1
 10
0.032798
 20
10.898292
 30
0.0
 10
0.032301
 20
10.898276
 30
0.0
 10
0.032233
 20
10.898330
 30
0.0
 10
0.032235
 20
10.898710
 30
0.0
  0
LWPOLYLINE
  5
19a
100
AcDbEntity
  8
Letters
 62
7
100
AcDbPolyline
 90
2
 70
1
 10
0.034156
 20
10.900305
 30
0.0
 10
0.034162
 20
10.898674
 30
0.0
  0
SPLINE
  5
19b
100
AcDbEntity
  8
Letters
 62
7
100
AcDbSpline
 70
8
 71
3
 72
8
 73
4
 74
0
 40
0
 40
0
 40
0
 40
0
 40
1
 40
1
 40
1
 40
1
 10
0.034504
 20
10.893903
 30
0.0
 10
0.034442
 20
10.894691
 30
0.0
 10
0.035202
 20
10.895440
 30
0.0
 10
0.035994
 20
10.895327
 30
0.0
  0
SPLINE
  5
19c
100
AcDbEntity
  8
Letters
 62
7
100
AcDbSpline
 70
8
 71
3
 72
8
 73
4
 74
0
 40
0
 40
0
 40
0
 40
0
 40
1
 40
1
 40
1
 40
1
 10
0.035994
 20
10.895327
 30
0.0
 10
0.036712
 20
10.895253
 30
0.0
 10
0.037292
 20
10.894528
 30
0.0
 10
0.037185
 20
10.893810
 30
0.0
  0
SPLINE
  5
19d
100
AcDbEntity
  8
Letters
 62
7
100
AcDbSpline
 70
8
 71
3
 72
8
 73
4
 74
0
 40
0
 40
0
 40
0
 40
0
 40
1
 40
1
 40
1
 40
1
 10
0.037185
 20
10.893810
 30
0.0
 10
0.037108
 20
10.893160
 30
0.0
 10
0.036502
 20
10.892619
 30
0.0
 10
0.035844
 20
10.892633
 30
0.0
  0
SPLINE
  5
19e
100
AcDbEntity
  8
Letters
 62
7
100
AcDbSpline
 70
8
 71
3
 72
8
 73
4
 74
0
 40
0
 40
0
 40
0
 40
0
 40
1
 40
1
 40
1
 40
1
 10
0.035844
 20
10.892633
 30
0.0
 10
0.035158
 20
10.892627
 30
0.0
 10
0.034530
 20
10.893215
 30
0.0
 10
0.034504
 20
10.893903
 30
0.0
  0
LWPOLYLINE
  5
19f
100
AcDbEntity
  8
Letters
 62
7
100
AcDbPolyline
 90
2
 70
1
 10
0.032235
 20
10.898710
 30
0.0
 10
0.032235
 20
10.899125
 30
0.0
  0
SPLINE
  5
1a0
100
AcDbEntity
  8
Letters
 62
7
100
AcDbSpline
 70
8
 71
3
 72
8
 73
4
 74
0
 40
0
 40
0
 40
0
 40
0
 40
1
 40
1
 40
1
 40
1
 10
0.032235
 20
10.888847
 30
0.0
 10
0.032237
 20
10.891355
 30
0.0
 10
0.032219
 20
10.893968
 30
0.0
 10
0.032228
 20
10.896475
 30
0.0
  0
SPLINE
  5
1a1
100
AcDbEntity
  8
Letters
 62
7
100
AcDbSpline
 70
8
 71
3
 72
8
 73
4
 74
0
 40
0
 40
0
 40
0
 40
0
 40
1
 40
1
 40
1
 40
1
 10
0.032228
 20
10.896475
 30
0.0
 10
0.032269
 20
10.896930
 30
0.0
 10
0.032927
 20
10.897352
 30
0.0
 10
0.033384
 20
10.897320
 30
0.0
  0
SPLINE
  5
1a2
100
AcDbEntity
  8
Letters
 62
7
100
AcDbSpline
 70
8
 71
3
 72
8
 73
4
 74
0
 40
0
 40
0
 40
0
 40
0
 40
1
 40
1
 40
1
 40
1
 10
0.033384
 20
10.897320
 30
0.0
 10
0.034603
 20
10.897321
 30
0.0
 10
0.035821
 20
10.897321
 30
0.0
 10
0.037038
 20
10.897327
 30
0.0
  0
SPLINE
  5
1a3
100
AcDbEntity
  8
Letters
 62
7
100
AcDbSpline
 70
8
 71
3
 72
8
 73
4
 74
0
 40
0
 40
0
 40
0
 40
0
 40
1
 40
1
 40
1
 40
1
 10
0.037038
 20
10.897327
 30
0.0
 10
0.037402
 20
10.897348
 30
0.0
 10
0.037781
 20
10.897217
 30
0.0
 10
0.038011
 20
10.896923
 30
0.0
  0
SPLINE
  5
1a4
100
AcDbEntity
  8
Letters
 62
7
100
AcDbSpline
 70
8
 71
3
 72
8
 73
4
 74
0
 40
0
 40
0
 40
0
 40
0
 40
1
 40
1
 40
1
 40
1
 10
0.038011
 20
10.896923
 30
0.0
 10
0.038259
 20
10.896650
 30
0.0
 10
0.038650
 20
10.896378
 30
0.0
 10
0.038896
 20
10.896103
 30
0.0
  0
SPLINE
  5
1a5
100
AcDbEntity
  8
Letters
 62
7
100
AcDbSpline
 70
8
 71
3
 72
8
 73
4
 74
0
 40
0
 40
0
 40
0
 40
0
 40
1
 40
1
 40
1
 40
1
 10
0.038896
 20
10.896103
 30
0.0
 10
0.038981
 20
10.896003
 30
0.0
 10
0.039064
 20
10.895898
 30
0.0
 10
0.039110
 20
10.895773
 30
0.0
  0
SPLINE
  5
1a6
100
AcDbEntity
  8
Letters
 62
7
100
AcDbSpline
 70
8
 71
3
 72
8
 73
4
 74
0
 40
0
 40
0
 40
0
 40
0
 40
1
 40
1
 40
1
 40
1
 10
0.039110
 20
10.895773
 30
0.0
 10
0.039183
 20
10.895597
 30
0.0
 10
0.039217
 20
10.895404
 30
0.0
 10
0.039195
 20
10.895201
 30
0.0
  0
SPLINE
  5
1a7
100
AcDbEntity
  8
Letters
 62
7
100
AcDbSpline
 70
8
 71
3
 72
8
 73
4
 74
0
 40
0
 40
0
 40
0
 40
0
 40
1
 40
1
 40
1
 40
1
 10
0.039195
 20
10.895201
 30
0.0
 10
0.039193
 20
10.894405
 30
0.0
 10
0.039276
 20
10.892801
 30
0.0
 10
0.039192
 20
10.892709
 30
0.0
  0
SPLINE
  5
1a8
100
AcDbEntity
  8
Letters
 62
7
100
AcDbSpline
 70
8
 71
3
 72
8
 73
4
 74
0
 40
0
 40
0
 40
0
 40
0
 40
1
 40
1
 40
1
 40
1
 10
0.039192
 20
10.892709
 30
0.0
 10
0.039048
 20
10.892450
 30
0.0
 10
0.038847
 20
10.892534
 30
0.0
 10
0.038700
 20
10.892108
 30
0.0
  0
SPLINE
  5
1a9
100
AcDbEntity
  8
Letters
 62
7
100
AcDbSpline
 70
8
 71
3
 72
8
 73
4
 74
0
 40
0
 40
0
 40
0
 40
0
 40
1
 40
1
 40
1
 40
1
 10
0.038700
 20
10.892108
 30
0.0
 10
0.038511
 20
10.891726
 30
0.0
 10
0.038574
 20
10.891216
 30
0.0
 10
0.038404
 20
10.890772
 30
0.0
  0
SPLINE
  5
1aa
100
AcDbEntity
  8
Letters
 62
7
100
AcDbSpline
 70
8
 71
3
 72
8
 73
4
 74
0
 40
0
 40
0
 40
0
 40
0
 40
1
 40
1
 40
1
 40
1
 10
0.038404
 20
10.890772
 30
0.0
 10
0.038280
 20
10.890515
 30
0.0
 10
0.038413
 20
10.890176
 30
0.0
 10
0.038546
 20
10.889988
 30
0.0
  0
SPLINE
  5
1ab
100
AcDbEntity
  8
Letters
 62
7
100
AcDbSpline
 70
8
 71
3
 72
8
 73
4
 74
0
 40
0
 40
0
 40
0
 40
0
 40
1
 40
1
 40
1
 40
1
 10
0.038546
 20
10.889988
 30
0.0
 10
0.038646
 20
10.889851
 30
0.0
 10
0.038659
 20
10.889762
 30
0.0
 10
0.039014
 20
10.889247
 30
0.0
  0
SPLINE
  5
1ac
100
AcDbEntity
  8
Letters
 62
7
100
AcDbSpline
 70
8
 71
3
 72
8
 73
4
 74
0
 40
0
 40
0
 40
0
 40
0
 40
1
 40
1
 40
1
 40
1
 10
0.039014
 20
10.889247
 30
0.0
 10
0.039306
 20
10.888901
 30
0.0
 10
0.039191
 20
10.888312
 30
0.0
 10
0.038788
 20
10.888096
 30
0.0
  0
SPLINE
  5
1ad
100
AcDbEntity
  8
Letters
 62
7
100
AcDbSpline
 70
8
 71
3
 72
8
 73
4
 74
0
 40
0
 40
0
 40
0
 40
0
 40
1
 40
1
 40
1
 40
1
 10
0.038788
 20
10.888096
 30
0.0
 10
0.038452
 20
10.887904
 30
0.0
 10
0.037816
 20
10.888015
 30
0.0
 10
0.037511
 20
10.888294
 30
0.0
  0
SPLINE
  5
1ae
100
AcDbEntity
  8
Letters
 62
7
100
AcDbSpline
 70
8
 71
3
 72
8
 73
4
 74
0
 40
0
 40
0
 40
0
 40
0
 40
1
 40
1
 40
1
 40
1
 10
0.037511
 20
10.888294
 30
0.0
 10
0.036801
 20
10.888993
 30
0.0
 10
0.036279
 20
10.889633
 30
0.0
 10
0.035567
 20
10.890341
 30
0.0
  0
SPLINE
  5
1af
100
AcDbEntity
  8
Letters
 62
7
100
AcDbSpline
 70
8
 71
3
 72
8
 73
4
 74
0
 40
0
 40
0
 40
0
 40
0
 40
1
 40
1
 40
1
 40
1
 10
0.035567
 20
10.890341
 30
0.0
 10
0.035471
 20
10.890443
 30
0.0
 10
0.035323
 20
10.890438
 30
0.0
 10
0.035195
 20
10.890435
 30
0.0
  0
SPLINE
  5
1b0
100
AcDbEntity
  8
Letters
 62
7
100
AcDbSpline
 70
8
 71
3
 72
8
 73
4
 74
0
 40
0
 40
0
 40
0
 40
0
 40
1
 40
1
 40
1
 40
1
 10
0.035195
 20
10.890435
 30
0.0
 10
0.034967
 20
10.890432
 30
0.0
 10
0.034738
 20
10.890439
 30
0.0
 10
0.034511
 20
10.890431
 30
0.0
  0
SPLINE
  5
1b1
100
AcDbEntity
  8
Letters
 62
7
100
AcDbSpline
 70
8
 71
3
 72
8
 73
4
 74
0
 40
0
 40
0
 40
0
 40
0
 40
1
 40
1
 40
1
 40
1
 10
0.034511
 20
10.890431
 30
0.0
 10
0.034381
 20
10.890418
 30
0.0
 10
0.034264
 20
10.890337
 30
0.0
 10
0.034203
 20
10.890223
 30
0.0
  0
SPLINE
  5
1b2
100
AcDbEntity
  8
Letters
 62
7
100
AcDbSpline
 70
8
 71
3
 72
8
 73
4
 74
0
 40
0
 40
0
 40
0
 40
0
 40
1
 40
1
 40
1
 40
1
 10
0.034203
 20
10.890223
 30
0.0
 10
0.034170
 20
10.890164
 30
0.0
 10
0.034160
 20
10.890092
 30
0.0
 10
0.034156
 20
10.890028
 30
0.0
  0
LWPOLYLINE
  5
1b3
100
AcDbEntity
  8
Letters
 62
7
100
AcDbPolyline
 90
2
 70
1
 10
0.034504
 20
10.893903
 30
0.0
 10
0.034504
 20
10.893903
 30
0.0
  0
SPLINE
  5
1b4
100
AcDbEntity
  8
Letters
 62
7
100
AcDbSpline
 70
8
 71
3
 72
8
 73
4
 74
0
 40
0
 40
0
 40
0
 40
0
 40
1
 40
1
 40
1
 40
1
 10
0.034162
 20
10.888397
 30
0.0
 10
0.034163
 20
10.888108
 30
0.0
 10
0.034134
 20
10.888016
 30
0.0
 10
0.033843
 20
10.888012
 30
0.0
  0
SPLINE
  5
1b5
100
AcDbEntity
  8
Letters
 62
7
100
AcDbSpline
 70
8
 71
3
 72
8
 73
4
 74
0
 40
0
 40
0
 40
0
 40
0
 40
1
 40
1
 40
1
 40
1
 10
0.033843
 20
10.888012
 30
0.0
 10
0.033829
 20
10.888012
 30
0.0
 10
0.032945
 20
10.888016
 30
0.0
 10
0.032798
 20
10.888014
 30
0.0
  0
SPLINE
  5
1b6
100
AcDbEntity
  8
Letters
 62
7
100
AcDbSpline
 70
8
 71
3
 72
8
 73
4
 74
0
 40
0
 40
0
 40
0
 40
0
 40
1
 40
1
 40
1
 40
1
 10
0.032798
 20
10.888014
 30
0.0
 10
0.032301
 20
10.887998
 30
0.0
 10
0.032233
 20
10.888052
 30
0.0
 10
0.032235
 20
10.888433
 30
0.0
  0
LWPOLYLINE
  5
1b7
100
AcDbEntity
  8
Letters
 62
7
100
AcDbPolyline
 90
2
 70
1
 10
0.034156
 20
10.890028
 30
0.0
 10
0.034162
 20
10.888397
 30
0.0
  0
SPLINE
  5
1b8
100
AcDbEntity
  8
Letters
 62
7
100
AcDbSpline
 70
8
 71
3
 72
8
 73
4
 74
0
 40
0
 40
0
 40
0
 40
0
 40
1
 40
1
 40
1
 40
1
 10
0.034504
 20
10.883603
 30
0.0
 10
0.034442
 20
10.884391
 30
0.0
 10
0.035202
 20
10.885140
 30
0.0
 10
0.035994
 20
10.885027
 30
0.0
  0
SPLINE
  5
1b9
100
AcDbEntity
  8
Letters
 62
7
100
AcDbSpline
 70
8
 71
3
 72
8
 73
4
 74
0
 40
0
 40
0
 40
0
 40
0
 40
1
 40
1
 40
1
 40
1
 10
0.035994
 20
10.885027
 30
0.0
 10
0.036712
 20
10.884953
 30
0.0
 10
0.037292
 20
10.884228
 30
0.0
 10
0.037185
 20
10.883510
 30
0.0
  0
SPLINE
  5
1ba
100
AcDbEntity
  8
Letters
 62
7
100
AcDbSpline
 70
8
 71
3
 72
8
 73
4
 74
0
 40
0
 40
0
 40
0
 40
0
 40
1
 40
1
 40
1
 40
1
 10
0.037185
 20
10.883510
 30
0.0
 10
0.037108
 20
10.882860
 30
0.0
 10
0.036502
 20
10.882318
 30
0.0
 10
0.035844
 20
10.882333
 30
0.0
  0
SPLINE
  5
1bb
100
AcDbEntity
  8
Letters
 62
7
100
AcDbSpline
 70
8
 71
3
 72
8
 73
4
 74
0
 40
0
 40
0
 40
0
 40
0
 40
1
 40
1
 40
1
 40
1
 10
0.035844
 20
10.882333
 30
0.0
 10
0.035158
 20
10.882327
 30
0.0
 10
0.034530
 20
10.882915
 30
0.0
 10
0.034504
 20
10.883603
 30
0.0
  0
LWPOLYLINE
  5
1bc
100
AcDbEntity
  8
Letters
 62
7
100
AcDbPolyline
 90
2
 70
1
 10
0.032235
 20
10.888433
 30
0.0
 10
0.032235
 20
10.888847
 30
0.0
  0
SPLINE
  5
1bd
100
AcDbEntity
  8
Letters
 62
7
100
AcDbSpline
 70
8
 71
3
 72
8
 73
4
 74
0
 40
0
 40
0
 40
0
 40
0
 40
1
 40
1
 40
1
 40
1
 10
0.032235
 20
10.878547
 30
0.0
 10
0.032237
 20
10.881055
 30
0.0
 10
0.032219
 20
10.883668
 30
0.0
 10
0.032228
 20
10.886175
 30
0.0
  0
SPLINE
  5
1be
100
AcDbEntity
  8
Letters
 62
7
100
AcDbSpline
 70
8
 71
3
 72
8
 73
4
 74
0
 40
0
 40
0
 40
0
 40
0
 40
1
 40
1
 40
1
 40
1
 10
0.032228
 20
10.886175
 30
0.0
 10
0.032269
 20
10.886630
 30
0.0
 10
0.032927
 20
10.887052
 30
0.0
 10
0.033384
 20
10.887020
 30
0.0
  0
SPLINE
  5
1bf
100
AcDbEntity
  8
Letters
 62
7
100
AcDbSpline
 70
8
 71
3
 72
8
 73
4
 74
0
 40
0
 40
0
 40
0
 40
0
 40
1
 40
1
 40
1
 40
1
 10
0.033384
 20
10.887020
 30
0.0
 10
0.034603
 20
10.887021
 30
0.0
 10
0.035821
 20
10.887021
 30
0.0
 10
0.037038
 20
10.887027
 30
0.0
  0
SPLINE
  5
1c0
100
AcDbEntity
  8
Letters
 62
7
100
AcDbSpline
 70
8
 71
3
 72
8
 73
4
 74
0
 40
0
 40
0
 40
0
 40
0
 40
1
 40
1
 40
1
 40
1
 10
0.037038
 20
10.887027
 30
0.0
 10
0.037402
 20
10.887048
 30
0.0
 10
0.037781
 20
10.886917
 30
0.0
 10
0.038011
 20
10.886623
 30
0.0
  0
SPLINE
  5
1c1
100
AcDbEntity
  8
Letters
 62
7
100
AcDbSpline
 70
8
 71
3
 72
8
 73
4
 74
0
 40
0
 40
0
 40
0
 40
0
 40
1
 40
1
 40
1
 40
1
 10
0.038011
 20
10.886623
 30
0.0
 10
0.038259
 20
10.886350
 30
0.0
 10
0.038650
 20
10.886078
 30
0.0
 10
0.038896
 20
10.885803
 30
0.0
  0
SPLINE
  5
1c2
100
AcDbEntity
  8
Letters
 62
7
100
AcDbSpline
 70
8
 71
3
 72
8
 73
4
 74
0
 40
0
 40
0
 40
0
 40
0
 40
1
 40
1
 40
1
 40
1
 10
0.038896
 20
10.885803
 30
0.0
 10
0.038981
 20
10.885703
 30
0.0
 10
0.039064
 20
10.885598
 30
0.0
 10
0.039110
 20
10.885473
 30
0.0
  0
SPLINE
  5
1c3
100
AcDbEntity
  8
Letters
 62
7
100
AcDbSpline
 70
8
 71
3
 72
8
 73
4
 74
0
 40
0
 40
0
 40
0
 40
0
 40
1
 40
1
 40
1
 40
1
 10
0.039110
 20
10.885473
 30
0.0
 10
0.039183
 20
10.885297
 30
0.0
 10
0.039217
 20
10.885104
 30
0.0
 10
0.039195
 20
10.884901
 30
0.0
  0
SPLINE
  5
1c4
100
AcDbEntity
  8
Letters
 62
7
100
AcDbSpline
 70
8
 71
3
 72
8
 73
4
 74
0
 40
0
 40
0
 40
0
 40
0
 40
1
 40
1
 40
1
 40
1
 10
0.039195
 20
10.884901
 30
0.0
 10
0.039193
 20
10.884105
 30
0.0
 10
0.039276
 20
10.882501
 30
0.0
 10
0.039192
 20
10.882409
 30
0.0
  0
SPLINE
  5
1c5
100
AcDbEntity
  8
Letters
 62
7
100
AcDbSpline
 70
8
 71
3
 72
8
 73
4
 74
0
 40
0
 40
0
 40
0
 40
0
 40
1
 40
1
 40
1
 40
1
 10
0.039192
 20
10.882409
 30
0.0
 10
0.039048
 20
10.882150
 30
0.0
 10
0.038847
 20
10.882234
 30
0.0
 10
0.038700
 20
10.881808
 30
0.0
  0
SPLINE
  5
1c6
100
AcDbEntity
  8
Letters
 62
7
100
AcDbSpline
 70
8
 71
3
 72
8
 73
4
 74
0
 40
0
 40
0
 40
0
 40
0
 40
1
 40
1
 40
1
 40
1
 10
0.038700
 20
10.881808
 30
0.0
 10
0.038511
 20
10.881426
 30
0.0
 10
0.038574
 20
10.880916
 30
0.0
 10
0.038404
 20
10.880472
 30
0.0
  0
SPLINE
  5
1c7
100
AcDbEntity
  8
Letters
 62
7
100
AcDbSpline
 70
8
 71
3
 72
8
 73
4
 74
0
 40
0
 40
0
 40
0
 40
0
 40
1
 40
1
 40
1
 40
1
 10
0.038404
 20
10.880472
 30
0.0
 10
0.038280
 20
10.880215
 30
0.0
 10
0.038413
 20
10.879876
 30
0.0
 10
0.038546
 20
10.879688
 30
0.0
  0
SPLINE
  5
1c8
100
AcDbEntity
  8
Letters
 62
7
100
AcDbSpline
 70
8
 71
3
 72
8
 73
4
 74
0
 40
0
 40
0
 40
0
 40
0
 40
1
 40
1
 40
1
 40
1
 10
0.038546
 20
10.879688
 30
0.0
 10
0.038646
 20
10.879551
 30
0.0
 10
0.038659
 20
10.879462
 30
0.0
 10
0.039014
 20
10.878947
 30
0.0
  0
SPLINE
  5
1c9
100
AcDbEntity
  8
Letters
 62
7
100
AcDbSpline
 70
8
 71
3
 72
8
 73
4
 74
0
 40
0
 40
0
 40
0
 40
0
 40
1
 40
1
 40
1
 40
1
 10
0.039014
 20
10.878947
 30
0.0
 10
0.039306
 20
10.878602
 30
0.0
 10
0.039191
 20
10.878013
 30
0.0
 10
0.038788
 20
10.877796
 30
0.0
  0
SPLINE
  5
1ca
100
AcDbEntity
  8
Letters
 62
7
100
AcDbSpline
 70
8
 71
3
 72
8
 73
4
 74
0
 40
0
 40
0
 40
0
 40
0
 40
1
 40
1
 40
1
 40
1
 10
0.038788
 20
10.877796
 30
0.0
 10
0.038452
 20
10.877604
 30
0.0
 10
0.037816
 20
10.877715
 30
0.0
 10
0.037511
 20
10.877994
 30
0.0
  0
SPLINE
  5
1cb
100
AcDbEntity
  8
Letters
 62
7
100
AcDbSpline
 70
8
 71
3
 72
8
 73
4
 74
0
 40
0
 40
0
 40
0
 40
0
 40
1
 40
1
 40
1
 40
1
 10
0.037511
 20
10.877994
 30
0.0
 10
0.036801
 20
10.878693
 30
0.0
 10
0.036279
 20
10.879333
 30
0.0
 10
0.035567
 20
10.880041
 30
0.0
  0
SPLINE
  5
1cc
100
AcDbEntity
  8
Letters
 62
7
100
AcDbSpline
 70
8
 71
3
 72
8
 73
4
 74
0
 40
0
 40
0
 40
0
 40
0
 40
1
 40
1
 40
1
 40
1
 10
0.035567
 20
10.880041
 30
0.0
 10
0.035471
 20
10.880143
 30
0.0
 10
0.035323
 20
10.880138
 30
0.0
 10
0.035195
 20
10.880135
 30
0.0
  0
SPLINE
  5
1cd
100
AcDbEntity
  8
Letters
 62
7
100
AcDbSpline
 70
8
 71
3
 72
8
 73
4
 74
0
 40
0
 40
0
 40
0
 40
0
 40
1
 40
1
 40
1
 40
1
 10
0.035195
 20
10.880135
 30
0.0
 10
0.034967
 20
10.880132
 30
0.0
 10
0.034738
 20
10.880139
 30
0.0
 10
0.034511
 20
10.880131
 30
0.0
  0
SPLINE
  5
1ce
100
AcDbEntity
  8
Letters
 62
7
100
AcDbSpline
 70
8
 71
3
 72
8
 73
4
 74
0
 40
0
 40
0
 40
0
 40
0
 40
1
 40
1
 40
1
 40
1
 10
0.034511
 20
10.880131
 30
0.0
 10
0.034381
 20
10.880117
 30
0.0
 10
0.034264
 20
10.880037
 30
0.0
 10
0.034203
 20
10.879923
 30
0.0
  0
SPLINE
  5
1cf
100
AcDbEntity
  8
Letters
 62
7
100
AcDbSpline
 70
8
 71
3
 72
8
 73
4
 74
0
 40
0
 40
0
 40
0
 40
0
 40
1
 40
1
 40
1
 40
1
 10
0.034203
 20
10.879923
 30
0.0
 10
0.034170
 20
10.879864
 30
0.0
 10
0.034160
 20
10.879792
 30
0.0
 10
0.034156
 20
10.879728
 30
0.0
  0
LWPOLYLINE
  5
1d0
100
AcDbEntity
  8
Letters
 62
7
100
AcDbPolyline
 90
2
 70
1
 10
0.034504
 20
10.883603
 30
0.0
 10
0.034504
 20
10.883603
 30
0.0
  0
SPLINE
  5
1d1
100
AcDbEntity
  8
Letters
 62
7
100
AcDbSpline
 70
8
 71
3
 72
8
 73
4
 74
0
 40
0
 40
0
 40
0
 40
0
 40
1
 40
1
 40
1
 40
1
 10
0.034162
 20
10.878097
 30
0.0
 10
0.034163
 20
10.877808
 30
0.0
 10
0.034134
 20
10.877717
 30
0.0
 10
0.033843
 20
10.877712
 30
0.0
  0
SPLINE
  5
1d2
100
AcDbEntity
  8
Letters
 62
7
100
AcDbSpline
 70
8
 71
3
 72
8
 73
4
 74
0
 40
0
 40
0
 40
0
 40
0
 40
1
 40
1
 40
1
 40
1
 10
0.033843
 20
10.877712
 30
0.0
 10
0.033829
 20
10.877712
 30
0.0
 10
0.032945
 20
10.877716
 30
0.0
 10
0.032798
 20
10.877714
 30
0.0
  0
SPLINE
  5
1d3
100
AcDbEntity
  8
Letters
 62
7
100
AcDbSpline
 70
8
 71
3
 72
8
 73
4
 74
0
 40
0
 40
0
 40
0
 40
0
 40
1
 40
1
 40
1
 40
1
 10
0.032798
 20
10.877714
 30
0.0
 10
0.032301
 20
10.877698
 30
0.0
 10
0.032233
 20
10.877752
 30
0.0
 10
0.032235
 20
10.878133
 30
0.0
  0
LWPOLYLINE
  5
1d4
100
AcDbEntity
  8
Letters
 62
7
100
AcDbPolyline
 90
2
 70
1
 10
0.034156
 20
10.879728
 30
0.0
 10
0.034162
 20
10.878097
 30
0.0
  0
SPLINE
  5
1d5
100
AcDbEntity
  8
Letters
 62
7
100
AcDbSpline
 70
8
 71
3
 72
8
 73
4
 74
0
 40
0
 40
0
 40
0
 40
0
 40
1
 40
1
 40
1
 40
1
 10
0.025388
 20
10.898224
 30
0.0
 10
0.027195
 20
10.898225
 30
0.0
 10
0.028856
 20
10.898237
 30
0.0
 10
0.030662
 20
10.898242
 30
0.0
  0
SPLINE
  5
1d6
100
AcDbEntity
  8
Letters
 62
7
100
AcDbSpline
 70
8
 71
3
 72
8
 73
4
 74
0
 40
0
 40
0
 40
0
 40
0
 40
1
 40
1
 40
1
 40
1
 10
0.030662
 20
10.898242
 30
0.0
 10
0.030924
 20
10.898260
 30
0.0
 10
0.031171
 20
10.898433
 30
0.0
 10
0.031239
 20
10.898678
 30
0.0
  0
SPLINE
  5
1d7
100
AcDbEntity
  8
Letters
 62
7
100
AcDbSpline
 70
8
 71
3
 72
8
 73
4
 74
0
 40
0
 40
0
 40
0
 40
0
 40
1
 40
1
 40
1
 40
1
 10
0.031239
 20
10.898678
 30
0.0
 10
0.031292
 20
10.898882
 30
0.0
 10
0.031253
 20
10.899297
 30
0.0
 10
0.031264
 20
10.899505
 30
0.0
  0
SPLINE
  5
1d8
100
AcDbEntity
  8
Letters
 62
7
100
AcDbSpline
 70
8
 71
3
 72
8
 73
4
 74
0
 40
0
 40
0
 40
0
 40
0
 40
1
 40
1
 40
1
 40
1
 10
0.031264
 20
10.899505
 30
0.0
 10
0.031278
 20
10.899756
 30
0.0
 10
0.031114
 20
10.900010
 30
0.0
 10
0.030863
 20
10.900095
 30
0.0
  0
SPLINE
  5
1d9
100
AcDbEntity
  8
Letters
 62
7
100
AcDbSpline
 70
8
 71
3
 72
8
 73
4
 74
0
 40
0
 40
0
 40
0
 40
0
 40
1
 40
1
 40
1
 40
1
 10
0.030863
 20
10.900095
 30
0.0
 10
0.030787
 20
10.900131
 30
0.0
 10
0.030763
 20
10.900147
 30
0.0
 10
0.030608
 20
10.900158
 30
0.0
  0
SPLINE
  5
1da
100
AcDbEntity
  8
Letters
 62
7
100
AcDbSpline
 70
8
 71
3
 72
8
 73
4
 74
0
 40
0
 40
0
 40
0
 40
0
 40
1
 40
1
 40
1
 40
1
 10
0.030608
 20
10.900158
 30
0.0
 10
0.029192
 20
10.900181
 30
0.0
 10
0.028224
 20
10.900163
 30
0.0
 10
0.026808
 20
10.900166
 30
0.0
  0
SPLINE
  5
1db
100
AcDbEntity
  8
Letters
 62
7
100
AcDbSpline
 70
8
 71
3
 72
8
 73
4
 74
0
 40
0
 40
0
 40
0
 40
0
 40
1
 40
1
 40
1
 40
1
 10
0.026808
 20
10.900166
 30
0.0
 10
0.026689
 20
10.900165
 30
0.0
 10
0.026589
 20
10.900237
 30
0.0
 10
0.026513
 20
10.900317
 30
0.0
  0
SPLINE
  5
1dc
100
AcDbEntity
  8
Letters
 62
7
100
AcDbSpline
 70
8
 71
3
 72
8
 73
4
 74
0
 40
0
 40
0
 40
0
 40
0
 40
1
 40
1
 40
1
 40
1
 10
0.026513
 20
10.900317
 30
0.0
 10
0.026472
 20
10.900377
 30
0.0
 10
0.026446
 20
10.900446
 30
0.0
 10
0.026445
 20
10.900522
 30
0.0
  0
LWPOLYLINE
  5
1dd
100
AcDbEntity
  8
Letters
 62
7
100
AcDbPolyline
 90
2
 70
1
 10
0.032235
 20
10.878133
 30
0.0
 10
0.032235
 20
10.878547
 30
0.0
  0
SPLINE
  5
1de
100
AcDbEntity
  8
Letters
 62
7
100
AcDbSpline
 70
8
 71
3
 72
8
 73
4
 74
0
 40
0
 40
0
 40
0
 40
0
 40
1
 40
1
 40
1
 40
1
 10
0.026445
 20
10.901771
 30
0.0
 10
0.026449
 20
10.901876
 30
0.0
 10
0.026497
 20
10.901987
 30
0.0
 10
0.026595
 20
10.902043
 30
0.0
  0
LWPOLYLINE
  5
1df
100
AcDbEntity
  8
Letters
 62
7
100
AcDbPolyline
 90
2
 70
1
 10
0.026445
 20
10.900522
 30
0.0
 10
0.026445
 20
10.901771
 30
0.0
  0
SPLINE
  5
1e0
100
AcDbEntity
  8
Letters
 62
7
100
AcDbSpline
 70
8
 71
3
 72
8
 73
4
 74
0
 40
0
 40
0
 40
0
 40
0
 40
1
 40
1
 40
1
 40
1
 10
0.026673
 20
10.902095
 30
0.0
 10
0.026722
 20
10.902113
 30
0.0
 10
0.026774
 20
10.902122
 30
0.0
 10
0.026827
 20
10.902128
 30
0.0
  0
SPLINE
  5
1e1
100
AcDbEntity
  8
Letters
 62
7
100
AcDbSpline
 70
8
 71
3
 72
8
 73
4
 74
0
 40
0
 40
0
 40
0
 40
0
 40
1
 40
1
 40
1
 40
1
 10
0.026827
 20
10.902128
 30
0.0
 10
0.027362
 20
10.902139
 30
0.0
 10
0.027598
 20
10.902118
 30
0.0
 10
0.028133
 20
10.902143
 30
0.0
  0
SPLINE
  5
1e2
100
AcDbEntity
  8
Letters
 62
7
100
AcDbSpline
 70
8
 71
3
 72
8
 73
4
 74
0
 40
0
 40
0
 40
0
 40
0
 40
1
 40
1
 40
1
 40
1
 10
0.028133
 20
10.902143
 30
0.0
 10
0.028434
 20
10.902192
 30
0.0
 10
0.028667
 20
10.902450
 30
0.0
 10
0.028663
 20
10.902747
 30
0.0
  0
SPLINE
  5
1e3
100
AcDbEntity
  8
Letters
 62
7
100
AcDbSpline
 70
8
 71
3
 72
8
 73
4
 74
0
 40
0
 40
0
 40
0
 40
0
 40
1
 40
1
 40
1
 40
1
 10
0.028663
 20
10.902747
 30
0.0
 10
0.028657
 20
10.903060
 30
0.0
 10
0.028731
 20
10.903522
 30
0.0
 10
0.028390
 20
10.903698
 30
0.0
  0
SPLINE
  5
1e4
100
AcDbEntity
  8
Letters
 62
7
100
AcDbSpline
 70
8
 71
3
 72
8
 73
4
 74
0
 40
0
 40
0
 40
0
 40
0
 40
1
 40
1
 40
1
 40
1
 10
0.028390
 20
10.903698
 30
0.0
 10
0.028196
 20
10.903820
 30
0.0
 10
0.027999
 20
10.903779
 30
0.0
 10
0.027779
 20
10.903784
 30
0.0
  0
SPLINE
  5
1e5
100
AcDbEntity
  8
Letters
 62
7
100
AcDbSpline
 70
8
 71
3
 72
8
 73
4
 74
0
 40
0
 40
0
 40
0
 40
0
 40
1
 40
1
 40
1
 40
1
 10
0.027779
 20
10.903784
 30
0.0
 10
0.027370
 20
10.903784
 30
0.0
 10
0.027324
 20
10.903776
 30
0.0
 10
0.026915
 20
10.903777
 30
0.0
  0
SPLINE
  5
1e6
100
AcDbEntity
  8
Letters
 62
7
100
AcDbSpline
 70
8
 71
3
 72
8
 73
4
 74
0
 40
0
 40
0
 40
0
 40
0
 40
1
 40
1
 40
1
 40
1
 10
0.026915
 20
10.903777
 30
0.0
 10
0.026609
 20
10.903763
 30
0.0
 10
0.026540
 20
10.904082
 30
0.0
 10
0.026524
 20
10.904359
 30
0.0
  0
SPLINE
  5
1e7
100
AcDbEntity
  8
Letters
 62
7
100
AcDbSpline
 70
8
 71
3
 72
8
 73
4
 74
0
 40
0
 40
0
 40
0
 40
0
 40
1
 40
1
 40
1
 40
1
 10
0.026524
 20
10.904359
 30
0.0
 10
0.026543
 20
10.904822
 30
0.0
 10
0.026483
 20
10.905232
 30
0.0
 10
0.026557
 20
10.905689
 30
0.0
  0
SPLINE
  5
1e8
100
AcDbEntity
  8
Letters
 62
7
100
AcDbSpline
 70
8
 71
3
 72
8
 73
4
 74
0
 40
0
 40
0
 40
0
 40
0
 40
1
 40
1
 40
1
 40
1
 10
0.026557
 20
10.905689
 30
0.0
 10
0.026626
 20
10.905863
 30
0.0
 10
0.026815
 20
10.905913
 30
0.0
 10
0.027012
 20
10.905905
 30
0.0
  0
SPLINE
  5
1e9
100
AcDbEntity
  8
Letters
 62
7
100
AcDbSpline
 70
8
 71
3
 72
8
 73
4
 74
0
 40
0
 40
0
 40
0
 40
0
 40
1
 40
1
 40
1
 40
1
 10
0.027012
 20
10.905905
 30
0.0
 10
0.028395
 20
10.905904
 30
0.0
 10
0.029156
 20
10.905883
 30
0.0
 10
0.030539
 20
10.905899
 30
0.0
  0
SPLINE
  5
1ea
100
AcDbEntity
  8
Letters
 62
7
100
AcDbSpline
 70
8
 71
3
 72
8
 73
4
 74
0
 40
0
 40
0
 40
0
 40
0
 40
1
 40
1
 40
1
 40
1
 10
0.030539
 20
10.905899
 30
0.0
 10
0.030977
 20
10.905944
 30
0.0
 10
0.031258
 20
10.906437
 30
0.0
 10
0.031203
 20
10.906845
 30
0.0
  0
SPLINE
  5
1eb
100
AcDbEntity
  8
Letters
 62
7
100
AcDbSpline
 70
8
 71
3
 72
8
 73
4
 74
0
 40
0
 40
0
 40
0
 40
0
 40
1
 40
1
 40
1
 40
1
 10
0.031203
 20
10.906845
 30
0.0
 10
0.031245
 20
10.907268
 30
0.0
 10
0.030899
 20
10.907693
 30
0.0
 10
0.030440
 20
10.907711
 30
0.0
  0
SPLINE
  5
1ec
100
AcDbEntity
  8
Letters
 62
7
100
AcDbSpline
 70
8
 71
3
 72
8
 73
4
 74
0
 40
0
 40
0
 40
0
 40
0
 40
1
 40
1
 40
1
 40
1
 10
0.030440
 20
10.907711
 30
0.0
 10
0.028512
 20
10.907715
 30
0.0
 10
0.026791
 20
10.907715
 30
0.0
 10
0.024863
 20
10.907711
 30
0.0
  0
SPLINE
  5
1ed
100
AcDbEntity
  8
Letters
 62
7
100
AcDbSpline
 70
8
 71
3
 72
8
 73
4
 74
0
 40
0
 40
0
 40
0
 40
0
 40
1
 40
1
 40
1
 40
1
 10
0.024863
 20
10.907711
 30
0.0
 10
0.024439
 20
10.907696
 30
0.0
 10
0.024118
 20
10.907302
 30
0.0
 10
0.024160
 20
10.906910
 30
0.0
  0
SPLINE
  5
1ee
100
AcDbEntity
  8
Letters
 62
7
100
AcDbSpline
 70
8
 71
3
 72
8
 73
4
 74
0
 40
0
 40
0
 40
0
 40
0
 40
1
 40
1
 40
1
 40
1
 10
0.024160
 20
10.906910
 30
0.0
 10
0.024160
 20
10.904283
 30
0.0
 10
0.024160
 20
10.901655
 30
0.0
 10
0.024160
 20
10.899026
 30
0.0
  0
SPLINE
  5
1ef
100
AcDbEntity
  8
Letters
 62
7
100
AcDbSpline
 70
8
 71
3
 72
8
 73
4
 74
0
 40
0
 40
0
 40
0
 40
0
 40
1
 40
1
 40
1
 40
1
 10
0.024160
 20
10.899026
 30
0.0
 10
0.024136
 20
10.898699
 30
0.0
 10
0.024359
 20
10.898372
 30
0.0
 10
0.024635
 20
10.898279
 30
0.0
  0
SPLINE
  5
1f0
100
AcDbEntity
  8
Letters
 62
7
100
AcDbSpline
 70
8
 71
3
 72
8
 73
4
 74
0
 40
0
 40
0
 40
0
 40
0
 40
1
 40
1
 40
1
 40
1
 10
0.024635
 20
10.898279
 30
0.0
 10
0.024910
 20
10.898186
 30
0.0
 10
0.025156
 20
10.898238
 30
0.0
 10
0.025388
 20
10.898224
 30
0.0
  0
LWPOLYLINE
  5
1f1
100
AcDbEntity
  8
Letters
 62
7
100
AcDbPolyline
 90
2
 70
1
 10
0.026595
 20
10.902043
 30
0.0
 10
0.026673
 20
10.902095
 30
0.0
  0
SPLINE
  5
1f2
100
AcDbEntity
  8
Letters
 62
7
100
AcDbSpline
 70
8
 71
3
 72
8
 73
4
 74
0
 40
0
 40
0
 40
0
 40
0
 40
1
 40
1
 40
1
 40
1
 10
0.025388
 20
10.887946
 30
0.0
 10
0.027195
 20
10.887948
 30
0.0
 10
0.028856
 20
10.887958
 30
0.0
 10
0.030662
 20
10.887964
 30
0.0
  0
SPLINE
  5
1f3
100
AcDbEntity
  8
Letters
 62
7
100
AcDbSpline
 70
8
 71
3
 72
8
 73
4
 74
0
 40
0
 40
0
 40
0
 40
0
 40
1
 40
1
 40
1
 40
1
 10
0.030662
 20
10.887964
 30
0.0
 10
0.030924
 20
10.887983
 30
0.0
 10
0.031171
 20
10.888155
 30
0.0
 10
0.031239
 20
10.888400
 30
0.0
  0
SPLINE
  5
1f4
100
AcDbEntity
  8
Letters
 62
7
100
AcDbSpline
 70
8
 71
3
 72
8
 73
4
 74
0
 40
0
 40
0
 40
0
 40
0
 40
1
 40
1
 40
1
 40
1
 10
0.031239
 20
10.888400
 30
0.0
 10
0.031292
 20
10.888604
 30
0.0
 10
0.031253
 20
10.889019
 30
0.0
 10
0.031264
 20
10.889227
 30
0.0
  0
SPLINE
  5
1f5
100
AcDbEntity
  8
Letters
 62
7
100
AcDbSpline
 70
8
 71
3
 72
8
 73
4
 74
0
 40
0
 40
0
 40
0
 40
0
 40
1
 40
1
 40
1
 40
1
 10
0.031264
 20
10.889227
 30
0.0
 10
0.031278
 20
10.889478
 30
0.0
 10
0.031114
 20
10.889733
 30
0.0
 10
0.030863
 20
10.889818
 30
0.0
  0
SPLINE
  5
1f6
100
AcDbEntity
  8
Letters
 62
7
100
AcDbSpline
 70
8
 71
3
 72
8
 73
4
 74
0
 40
0
 40
0
 40
0
 40
0
 40
1
 40
1
 40
1
 40
1
 10
0.030863
 20
10.889818
 30
0.0
 10
0.030787
 20
10.889853
 30
0.0
 10
0.030763
 20
10.889870
 30
0.0
 10
0.030608
 20
10.889880
 30
0.0
  0
SPLINE
  5
1f7
100
AcDbEntity
  8
Letters
 62
7
100
AcDbSpline
 70
8
 71
3
 72
8
 73
4
 74
0
 40
0
 40
0
 40
0
 40
0
 40
1
 40
1
 40
1
 40
1
 10
0.030608
 20
10.889880
 30
0.0
 10
0.029192
 20
10.889903
 30
0.0
 10
0.028224
 20
10.889886
 30
0.0
 10
0.026808
 20
10.889888
 30
0.0
  0
SPLINE
  5
1f8
100
AcDbEntity
  8
Letters
 62
7
100
AcDbSpline
 70
8
 71
3
 72
8
 73
4
 74
0
 40
0
 40
0
 40
0
 40
0
 40
1
 40
1
 40
1
 40
1
 10
0.026808
 20
10.889888
 30
0.0
 10
0.026689
 20
10.889888
 30
0.0
 10
0.026589
 20
10.889960
 30
0.0
 10
0.026513
 20
10.890039
 30
0.0
  0
SPLINE
  5
1f9
100
AcDbEntity
  8
Letters
 62
7
100
AcDbSpline
 70
8
 71
3
 72
8
 73
4
 74
0
 40
0
 40
0
 40
0
 40
0
 40
1
 40
1
 40
1
 40
1
 10
0.026513
 20
10.890039
 30
0.0
 10
0.026472
 20
10.890099
 30
0.0
 10
0.026446
 20
10.890168
 30
0.0
 10
0.026445
 20
10.890245
 30
0.0
  0
LWPOLYLINE
  5
1fa
100
AcDbEntity
  8
Letters
 62
7
100
AcDbPolyline
 90
2
 70
1
 10
0.025388
 20
10.898224
 30
0.0
 10
0.025388
 20
10.898224
 30
0.0
  0
SPLINE
  5
1fb
100
AcDbEntity
  8
Letters
 62
7
100
AcDbSpline
 70
8
 71
3
 72
8
 73
4
 74
0
 40
0
 40
0
 40
0
 40
0
 40
1
 40
1
 40
1
 40
1
 10
0.026445
 20
10.891494
 30
0.0
 10
0.026449
 20
10.891599
 30
0.0
 10
0.026497
 20
10.891709
 30
0.0
 10
0.026595
 20
10.891766
 30
0.0
  0
LWPOLYLINE
  5
1fc
100
AcDbEntity
  8
Letters
 62
7
100
AcDbPolyline
 90
2
 70
1
 10
0.026445
 20
10.890245
 30
0.0
 10
0.026445
 20
10.891494
 30
0.0
  0
SPLINE
  5
1fd
100
AcDbEntity
  8
Letters
 62
7
100
AcDbSpline
 70
8
 71
3
 72
8
 73
4
 74
0
 40
0
 40
0
 40
0
 40
0
 40
1
 40
1
 40
1
 40
1
 10
0.026673
 20
10.891818
 30
0.0
 10
0.026722
 20
10.891835
 30
0.0
 10
0.026774
 20
10.891844
 30
0.0
 10
0.026827
 20
10.891850
 30
0.0
  0
SPLINE
  5
1fe
100
AcDbEntity
  8
Letters
 62
7
100
AcDbSpline
 70
8
 71
3
 72
8
 73
4
 74
0
 40
0
 40
0
 40
0
 40
0
 40
1
 40
1
 40
1
 40
1
 10
0.026827
 20
10.891850
 30
0.0
 10
0.027362
 20
10.891862
 30
0.0
 10
0.027598
 20
10.891840
 30
0.0
 10
0.028133
 20
10.891866
 30
0.0
  0
SPLINE
  5
1ff
100
AcDbEntity
  8
Letters
 62
7
100
AcDbSpline
 70
8
 71
3
 72
8
 73
4
 74
0
 40
0
 40
0
 40
0
 40
0
 40
1
 40
1
 40
1
 40
1
 10
0.028133
 20
10.891866
 30
0.0
 10
0.028434
 20
10.891914
 30
0.0
 10
0.028667
 20
10.892173
 30
0.0
 10
0.028663
 20
10.892470
 30
0.0
  0
SPLINE
  5
200
100
AcDbEntity
  8
Letters
 62
7
100
AcDbSpline
 70
8
 71
3
 72
8
 73
4
 74
0
 40
0
 40
0
 40
0
 40
0
 40
1
 40
1
 40
1
 40
1
 10
0.028663
 20
10.892470
 30
0.0
 10
0.028657
 20
10.892782
 30
0.0
 10
0.028731
 20
10.893244
 30
0.0
 10
0.028390
 20
10.893421
 30
0.0
  0
SPLINE
  5
201
100
AcDbEntity
  8
Letters
 62
7
100
AcDbSpline
 70
8
 71
3
 72
8
 73
4
 74
0
 40
0
 40
0
 40
0
 40
0
 40
1
 40
1
 40
1
 40
1
 10
0.028390
 20
10.893421
 30
0.0
 10
0.028196
 20
10.893543
 30
0.0
 10
0.027999
 20
10.893501
 30
0.0
 10
0.027779
 20
10.893507
 30
0.0
  0
SPLINE
  5
202
100
AcDbEntity
  8
Letters
 62
7
100
AcDbSpline
 70
8
 71
3
 72
8
 73
4
 74
0
 40
0
 40
0
 40
0
 40
0
 40
1
 40
1
 40
1
 40
1
 10
0.027779
 20
10.893507
 30
0.0
 10
0.027370
 20
10.893507
 30
0.0
 10
0.027324
 20
10.893499
 30
0.0
 10
0.026915
 20
10.893500
 30
0.0
  0
SPLINE
  5
203
100
AcDbEntity
  8
Letters
 62
7
100
AcDbSpline
 70
8
 71
3
 72
8
 73
4
 74
0
 40
0
 40
0
 40
0
 40
0
 40
1
 40
1
 40
1
 40
1
 10
0.026915
 20
10.893500
 30
0.0
 10
0.026609
 20
10.893485
 30
0.0
 10
0.026540
 20
10.893804
 30
0.0
 10
0.026524
 20
10.894081
 30
0.0
  0
SPLINE
  5
204
100
AcDbEntity
  8
Letters
 62
7
100
AcDbSpline
 70
8
 71
3
 72
8
 73
4
 74
0
 40
0
 40
0
 40
0
 40
0
 40
1
 40
1
 40
1
 40
1
 10
0.026524
 20
10.894081
 30
0.0
 10
0.026543
 20
10.894544
 30
0.0
 10
0.026483
 20
10.894954
 30
0.0
 10
0.026557
 20
10.895412
 30
0.0
  0
SPLINE
  5
205
100
AcDbEntity
  8
Letters
 62
7
100
AcDbSpline
 70
8
 71
3
 72
8
 73
4
 74
0
 40
0
 40
0
 40
0
 40
0
 40
1
 40
1
 40
1
 40
1
 10
0.026557
 20
10.895412
 30
0.0
 10
0.026626
 20
10.895586
 30
0.0
 10
0.026815
 20
10.895636
 30
0.0
 10
0.027012
 20
10.895628
 30
0.0
  0
SPLINE
  5
206
100
AcDbEntity
  8
Letters
 62
7
100
AcDbSpline
 70
8
 71
3
 72
8
 73
4
 74
0
 40
0
 40
0
 40
0
 40
0
 40
1
 40
1
 40
1
 40
1
 10
0.027012
 20
10.895628
 30
0.0
 10
0.028395
 20
10.895627
 30
0.0
 10
0.029156
 20
10.895605
 30
0.0
 10
0.030539
 20
10.895622
 30
0.0
  0
SPLINE
  5
207
100
AcDbEntity
  8
Letters
 62
7
100
AcDbSpline
 70
8
 71
3
 72
8
 73
4
 74
0
 40
0
 40
0
 40
0
 40
0
 40
1
 40
1
 40
1
 40
1
 10
0.030539
 20
10.895622
 30
0.0
 10
0.030977
 20
10.895667
 30
0.0
 10
0.031258
 20
10.896160
 30
0.0
 10
0.031203
 20
10.896568
 30
0.0
  0
SPLINE
  5
208
100
AcDbEntity
  8
Letters
 62
7
100
AcDbSpline
 70
8
 71
3
 72
8
 73
4
 74
0
 40
0
 40
0
 40
0
 40
0
 40
1
 40
1
 40
1
 40
1
 10
0.031203
 20
10.896568
 30
0.0
 10
0.031245
 20
10.896990
 30
0.0
 10
0.030899
 20
10.897416
 30
0.0
 10
0.030440
 20
10.897434
 30
0.0
  0
SPLINE
  5
209
100
AcDbEntity
  8
Letters
 62
7
100
AcDbSpline
 70
8
 71
3
 72
8
 73
4
 74
0
 40
0
 40
0
 40
0
 40
0
 40
1
 40
1
 40
1
 40
1
 10
0.030440
 20
10.897434
 30
0.0
 10
0.028512
 20
10.897438
 30
0.0
 10
0.026791
 20
10.897438
 30
0.0
 10
0.024863
 20
10.897434
 30
0.0
  0
SPLINE
  5
20a
100
AcDbEntity
  8
Letters
 62
7
100
AcDbSpline
 70
8
 71
3
 72
8
 73
4
 74
0
 40
0
 40
0
 40
0
 40
0
 40
1
 40
1
 40
1
 40
1
 10
0.024863
 20
10.897434
 30
0.0
 10
0.024439
 20
10.897418
 30
0.0
 10
0.024118
 20
10.897024
 30
0.0
 10
0.024160
 20
10.896633
 30
0.0
  0
SPLINE
  5
20b
100
AcDbEntity
  8
Letters
 62
7
100
AcDbSpline
 70
8
 71
3
 72
8
 73
4
 74
0
 40
0
 40
0
 40
0
 40
0
 40
1
 40
1
 40
1
 40
1
 10
0.024160
 20
10.896633
 30
0.0
 10
0.024160
 20
10.894005
 30
0.0
 10
0.024160
 20
10.891377
 30
0.0
 10
0.024160
 20
10.888748
 30
0.0
  0
SPLINE
  5
20c
100
AcDbEntity
  8
Letters
 62
7
100
AcDbSpline
 70
8
 71
3
 72
8
 73
4
 74
0
 40
0
 40
0
 40
0
 40
0
 40
1
 40
1
 40
1
 40
1
 10
0.024160
 20
10.888748
 30
0.0
 10
0.024136
 20
10.888421
 30
0.0
 10
0.024359
 20
10.888095
 30
0.0
 10
0.024635
 20
10.888002
 30
0.0
  0
SPLINE
  5
20d
100
AcDbEntity
  8
Letters
 62
7
100
AcDbSpline
 70
8
 71
3
 72
8
 73
4
 74
0
 40
0
 40
0
 40
0
 40
0
 40
1
 40
1
 40
1
 40
1
 10
0.024635
 20
10.888002
 30
0.0
 10
0.024910
 20
10.887908
 30
0.0
 10
0.025156
 20
10.887961
 30
0.0
 10
0.025388
 20
10.887946
 30
0.0
  0
LWPOLYLINE
  5
20e
100
AcDbEntity
  8
Letters
 62
7
100
AcDbPolyline
 90
2
 70
1
 10
0.026595
 20
10.891766
 30
0.0
 10
0.026673
 20
10.891818
 30
0.0
  0
SPLINE
  5
20f
100
AcDbEntity
  8
Letters
 62
7
100
AcDbSpline
 70
8
 71
3
 72
8
 73
4
 74
0
 40
0
 40
0
 40
0
 40
0
 40
1
 40
1
 40
1
 40
1
 10
0.025388
 20
10.877725
 30
0.0
 10
0.027195
 20
10.877726
 30
0.0
 10
0.028856
 20
10.877737
 30
0.0
 10
0.030662
 20
10.877743
 30
0.0
  0
SPLINE
  5
210
100
AcDbEntity
  8
Letters
 62
7
100
AcDbSpline
 70
8
 71
3
 72
8
 73
4
 74
0
 40
0
 40
0
 40
0
 40
0
 40
1
 40
1
 40
1
 40
1
 10
0.030662
 20
10.877743
 30
0.0
 10
0.030924
 20
10.877762
 30
0.0
 10
0.031171
 20
10.877934
 30
0.0
 10
0.031239
 20
10.878179
 30
0.0
  0
SPLINE
  5
211
100
AcDbEntity
  8
Letters
 62
7
100
AcDbSpline
 70
8
 71
3
 72
8
 73
4
 74
0
 40
0
 40
0
 40
0
 40
0
 40
1
 40
1
 40
1
 40
1
 10
0.031239
 20
10.878179
 30
0.0
 10
0.031292
 20
10.878383
 30
0.0
 10
0.031253
 20
10.878798
 30
0.0
 10
0.031264
 20
10.879006
 30
0.0
  0
SPLINE
  5
212
100
AcDbEntity
  8
Letters
 62
7
100
AcDbSpline
 70
8
 71
3
 72
8
 73
4
 74
0
 40
0
 40
0
 40
0
 40
0
 40
1
 40
1
 40
1
 40
1
 10
0.031264
 20
10.879006
 30
0.0
 10
0.031278
 20
10.879257
 30
0.0
 10
0.031114
 20
10.879511
 30
0.0
 10
0.030863
 20
10.879596
 30
0.0
  0
SPLINE
  5
213
100
AcDbEntity
  8
Letters
 62
7
100
AcDbSpline
 70
8
 71
3
 72
8
 73
4
 74
0
 40
0
 40
0
 40
0
 40
0
 40
1
 40
1
 40
1
 40
1
 10
0.030863
 20
10.879596
 30
0.0
 10
0.030787
 20
10.879632
 30
0.0
 10
0.030763
 20
10.879649
 30
0.0
 10
0.030608
 20
10.879659
 30
0.0
  0
SPLINE
  5
214
100
AcDbEntity
  8
Letters
 62
7
100
AcDbSpline
 70
8
 71
3
 72
8
 73
4
 74
0
 40
0
 40
0
 40
0
 40
0
 40
1
 40
1
 40
1
 40
1
 10
0.030608
 20
10.879659
 30
0.0
 10
0.029192
 20
10.879682
 30
0.0
 10
0.028224
 20
10.879664
 30
0.0
 10
0.026808
 20
10.879666
 30
0.0
  0
SPLINE
  5
215
100
AcDbEntity
  8
Letters
 62
7
100
AcDbSpline
 70
8
 71
3
 72
8
 73
4
 74
0
 40
0
 40
0
 40
0
 40
0
 40
1
 40
1
 40
1
 40
1
 10
0.026808
 20
10.879666
 30
0.0
 10
0.026689
 20
10.879666
 30
0.0
 10
0.026589
 20
10.879738
 30
0.0
 10
0.026513
 20
10.879818
 30
0.0
  0
SPLINE
  5
216
100
AcDbEntity
  8
Letters
 62
7
100
AcDbSpline
 70
8
 71
3
 72
8
 73
4
 74
0
 40
0
 40
0
 40
0
 40
0
 40
1
 40
1
 40
1
 40
1
 10
0.026513
 20
10.879818
 30
0.0
 10
0.026472
 20
10.879878
 30
0.0
 10
0.026446
 20
10.879947
 30
0.0
 10
0.026445
 20
10.880023
 30
0.0
  0
LWPOLYLINE
  5
217
100
AcDbEntity
  8
Letters
 62
7
100
AcDbPolyline
 90
2
 70
1
 10
0.025388
 20
10.887946
 30
0.0
 10
0.025388
 20
10.887946
 30
0.0
  0
SPLINE
  5
218
100
AcDbEntity
  8
Letters
 62
7
100
AcDbSpline
 70
8
 71
3
 72
8
 73
4
 74
0
 40
0
 40
0
 40
0
 40
0
 40
1
 40
1
 40
1
 40
1
 10
0.026445
 20
10.881272
 30
0.0
 10
0.026449
 20
10.881376
 30
0.0
 10
0.026497
 20
10.881487
 30
0.0
 10
0.026595
 20
10.881544
 30
0.0
  0
LWPOLYLINE
  5
219
100
AcDbEntity
  8
Letters
 62
7
100
AcDbPolyline
 90
2
 70
1
 10
0.026445
 20
10.880023
 30
0.0
 10
0.026445
 20
10.881272
 30
0.0
  0
SPLINE
  5
21a
100
AcDbEntity
  8
Letters
 62
7
100
AcDbSpline
 70
8
 71
3
 72
8
 73
4
 74
0
 40
0
 40
0
 40
0
 40
0
 40
1
 40
1
 40
1
 40
1
 10
0.026673
 20
10.881596
 30
0.0
 10
0.026722
 20
10.881614
 30
0.0
 10
0.026774
 20
10.881623
 30
0.0
 10
0.026827
 20
10.881629
 30
0.0
  0
SPLINE
  5
21b
100
AcDbEntity
  8
Letters
 62
7
100
AcDbSpline
 70
8
 71
3
 72
8
 73
4
 74
0
 40
0
 40
0
 40
0
 40
0
 40
1
 40
1
 40
1
 40
1
 10
0.026827
 20
10.881629
 30
0.0
 10
0.027362
 20
10.881640
 30
0.0
 10
0.027598
 20
10.881619
 30
0.0
 10
0.028133
 20
10.881644
 30
0.0
  0
SPLINE
  5
21c
100
AcDbEntity
  8
Letters
 62
7
100
AcDbSpline
 70
8
 71
3
 72
8
 73
4
 74
0
 40
0
 40
0
 40
0
 40
0
 40
1
 40
1
 40
1
 40
1
 10
0.028133
 20
10.881644
 30
0.0
 10
0.028434
 20
10.881693
 30
0.0
 10
0.028667
 20
10.881951
 30
0.0
 10
0.028663
 20
10.882248
 30
0.0
  0
SPLINE
  5
21d
100
AcDbEntity
  8
Letters
 62
7
100
AcDbSpline
 70
8
 71
3
 72
8
 73
4
 74
0
 40
0
 40
0
 40
0
 40
0
 40
1
 40
1
 40
1
 40
1
 10
0.028663
 20
10.882248
 30
0.0
 10
0.028657
 20
10.882561
 30
0.0
 10
0.028731
 20
10.883023
 30
0.0
 10
0.028390
 20
10.883199
 30
0.0
  0
SPLINE
  5
21e
100
AcDbEntity
  8
Letters
 62
7
100
AcDbSpline
 70
8
 71
3
 72
8
 73
4
 74
0
 40
0
 40
0
 40
0
 40
0
 40
1
 40
1
 40
1
 40
1
 10
0.028390
 20
10.883199
 30
0.0
 10
0.028196
 20
10.883321
 30
0.0
 10
0.027999
 20
10.883280
 30
0.0
 10
0.027779
 20
10.883285
 30
0.0
  0
SPLINE
  5
21f
100
AcDbEntity
  8
Letters
 62
7
100
AcDbSpline
 70
8
 71
3
 72
8
 73
4
 74
0
 40
0
 40
0
 40
0
 40
0
 40
1
 40
1
 40
1
 40
1
 10
0.027779
 20
10.883285
 30
0.0
 10
0.027370
 20
10.883285
 30
0.0
 10
0.027324
 20
10.883277
 30
0.0
 10
0.026915
 20
10.883277
 30
0.0
  0
SPLINE
  5
220
100
AcDbEntity
  8
Letters
 62
7
100
AcDbSpline
 70
8
 71
3
 72
8
 73
4
 74
0
 40
0
 40
0
 40
0
 40
0
 40
1
 40
1
 40
1
 40
1
 10
0.026915
 20
10.883277
 30
0.0
 10
0.026609
 20
10.883263
 30
0.0
 10
0.026540
 20
10.883582
 30
0.0
 10
0.026524
 20
10.883859
 30
0.0
  0
SPLINE
  5
221
100
AcDbEntity
  8
Letters
 62
7
100
AcDbSpline
 70
8
 71
3
 72
8
 73
4
 74
0
 40
0
 40
0
 40
0
 40
0
 40
1
 40
1
 40
1
 40
1
 10
0.026524
 20
10.883859
 30
0.0
 10
0.026543
 20
10.884322
 30
0.0
 10
0.026483
 20
10.884732
 30
0.0
 10
0.026557
 20
10.885189
 30
0.0
  0
SPLINE
  5
222
100
AcDbEntity
  8
Letters
 62
7
100
AcDbSpline
 70
8
 71
3
 72
8
 73
4
 74
0
 40
0
 40
0
 40
0
 40
0
 40
1
 40
1
 40
1
 40
1
 10
0.026557
 20
10.885189
 30
0.0
 10
0.026626
 20
10.885364
 30
0.0
 10
0.026815
 20
10.885414
 30
0.0
 10
0.027012
 20
10.885406
 30
0.0
  0
SPLINE
  5
223
100
AcDbEntity
  8
Letters
 62
7
100
AcDbSpline
 70
8
 71
3
 72
8
 73
4
 74
0
 40
0
 40
0
 40
0
 40
0
 40
1
 40
1
 40
1
 40
1
 10
0.027012
 20
10.885406
 30
0.0
 10
0.028395
 20
10.885405
 30
0.0
 10
0.029156
 20
10.885383
 30
0.0
 10
0.030539
 20
10.885399
 30
0.0
  0
SPLINE
  5
224
100
AcDbEntity
  8
Letters
 62
7
100
AcDbSpline
 70
8
 71
3
 72
8
 73
4
 74
0
 40
0
 40
0
 40
0
 40
0
 40
1
 40
1
 40
1
 40
1
 10
0.030539
 20
10.885399
 30
0.0
 10
0.030977
 20
10.885444
 30
0.0
 10
0.031258
 20
10.885938
 30
0.0
 10
0.031203
 20
10.886345
 30
0.0
  0
SPLINE
  5
225
100
AcDbEntity
  8
Letters
 62
7
100
AcDbSpline
 70
8
 71
3
 72
8
 73
4
 74
0
 40
0
 40
0
 40
0
 40
0
 40
1
 40
1
 40
1
 40
1
 10
0.031203
 20
10.886345
 30
0.0
 10
0.031245
 20
10.886768
 30
0.0
 10
0.030899
 20
10.887194
 30
0.0
 10
0.030440
 20
10.887212
 30
0.0
  0
SPLINE
  5
226
100
AcDbEntity
  8
Letters
 62
7
100
AcDbSpline
 70
8
 71
3
 72
8
 73
4
 74
0
 40
0
 40
0
 40
0
 40
0
 40
1
 40
1
 40
1
 40
1
 10
0.030440
 20
10.887212
 30
0.0
 10
0.028512
 20
10.887216
 30
0.0
 10
0.026791
 20
10.887216
 30
0.0
 10
0.024863
 20
10.887212
 30
0.0
  0
SPLINE
  5
227
100
AcDbEntity
  8
Letters
 62
7
100
AcDbSpline
 70
8
 71
3
 72
8
 73
4
 74
0
 40
0
 40
0
 40
0
 40
0
 40
1
 40
1
 40
1
 40
1
 10
0.024863
 20
10.887212
 30
0.0
 10
0.024439
 20
10.887196
 30
0.0
 10
0.024118
 20
10.886802
 30
0.0
 10
0.024160
 20
10.886411
 30
0.0
  0
SPLINE
  5
228
100
AcDbEntity
  8
Letters
 62
7
100
AcDbSpline
 70
8
 71
3
 72
8
 73
4
 74
0
 40
0
 40
0
 40
0
 40
0
 40
1
 40
1
 40
1
 40
1
 10
0.024160
 20
10.886411
 30
0.0
 10
0.024160
 20
10.883783
 30
0.0
 10
0.024160
 20
10.881155
 30
0.0
 10
0.024160
 20
10.878526
 30
0.0
  0
SPLINE
  5
229
100
AcDbEntity
  8
Letters
 62
7
100
AcDbSpline
 70
8
 71
3
 72
8
 73
4
 74
0
 40
0
 40
0
 40
0
 40
0
 40
1
 40
1
 40
1
 40
1
 10
0.024160
 20
10.878526
 30
0.0
 10
0.024136
 20
10.878199
 30
0.0
 10
0.024359
 20
10.877872
 30
0.0
 10
0.024635
 20
10.877780
 30
0.0
  0
SPLINE
  5
22a
100
AcDbEntity
  8
Letters
 62
7
100
AcDbSpline
 70
8
 71
3
 72
8
 73
4
 74
0
 40
0
 40
0
 40
0
 40
0
 40
1
 40
1
 40
1
 40
1
 10
0.024635
 20
10.877780
 30
0.0
 10
0.024910
 20
10.877686
 30
0.0
 10
0.025156
 20
10.877738
 30
0.0
 10
0.025388
 20
10.877724
 30
0.0
  0
LWPOLYLINE
  5
22b
100
AcDbEntity
  8
Letters
 62
7
100
AcDbPolyline
 90
2
 70
1
 10
0.026595
 20
10.881544
 30
0.0
 10
0.026673
 20
10.881596
 30
0.0
  0
SPLINE
  5
22c
100
AcDbEntity
  8
Letters
 62
7
100
AcDbSpline
 70
8
 71
3
 72
8
 73
4
 74
0
 40
0
 40
0
 40
0
 40
0
 40
1
 40
1
 40
1
 40
1
 10
0.020602
 20
10.902403
 30
0.0
 10
0.020813
 20
10.902282
 30
0.0
 10
0.021109
 20
10.902450
 30
0.0
 10
0.021083
 20
10.902691
 30
0.0
  0
SPLINE
  5
22d
100
AcDbEntity
  8
Letters
 62
7
100
AcDbSpline
 70
8
 71
3
 72
8
 73
4
 74
0
 40
0
 40
0
 40
0
 40
0
 40
1
 40
1
 40
1
 40
1
 10
0.021083
 20
10.902691
 30
0.0
 10
0.021086
 20
10.904059
 30
0.0
 10
0.021076
 20
10.905634
 30
0.0
 10
0.021087
 20
10.907002
 30
0.0
  0
SPLINE
  5
22e
100
AcDbEntity
  8
Letters
 62
7
100
AcDbSpline
 70
8
 71
3
 72
8
 73
4
 74
0
 40
0
 40
0
 40
0
 40
0
 40
1
 40
1
 40
1
 40
1
 10
0.021087
 20
10.907002
 30
0.0
 10
0.021136
 20
10.907521
 30
0.0
 10
0.021653
 20
10.907741
 30
0.0
 10
0.022192
 20
10.907691
 30
0.0
  0
SPLINE
  5
22f
100
AcDbEntity
  8
Letters
 62
7
100
AcDbSpline
 70
8
 71
3
 72
8
 73
4
 74
0
 40
0
 40
0
 40
0
 40
0
 40
1
 40
1
 40
1
 40
1
 10
0.022192
 20
10.907691
 30
0.0
 10
0.022767
 20
10.907706
 30
0.0
 10
0.023295
 20
10.907370
 30
0.0
 10
0.023246
 20
10.906818
 30
0.0
  0
SPLINE
  5
230
100
AcDbEntity
  8
Letters
 62
7
100
AcDbSpline
 70
8
 71
3
 72
8
 73
4
 74
0
 40
0
 40
0
 40
0
 40
0
 40
1
 40
1
 40
1
 40
1
 10
0.023246
 20
10.906818
 30
0.0
 10
0.023244
 20
10.904306
 30
0.0
 10
0.023279
 20
10.901620
 30
0.0
 10
0.023274
 20
10.899107
 30
0.0
  0
SPLINE
  5
231
100
AcDbEntity
  8
Letters
 62
7
100
AcDbSpline
 70
8
 71
3
 72
8
 73
4
 74
0
 40
0
 40
0
 40
0
 40
0
 40
1
 40
1
 40
1
 40
1
 10
0.023274
 20
10.899107
 30
0.0
 10
0.023240
 20
10.898705
 30
0.0
 10
0.022909
 20
10.898346
 30
0.0
 10
0.022492
 20
10.898296
 30
0.0
  0
SPLINE
  5
232
100
AcDbEntity
  8
Letters
 62
7
100
AcDbSpline
 70
8
 71
3
 72
8
 73
4
 74
0
 40
0
 40
0
 40
0
 40
0
 40
1
 40
1
 40
1
 40
1
 10
0.022492
 20
10.898296
 30
0.0
 10
0.022261
 20
10.898278
 30
0.0
 10
0.022020
 20
10.898260
 30
0.0
 10
0.021792
 20
10.898313
 30
0.0
  0
SPLINE
  5
233
100
AcDbEntity
  8
Letters
 62
7
100
AcDbSpline
 70
8
 71
3
 72
8
 73
4
 74
0
 40
0
 40
0
 40
0
 40
0
 40
1
 40
1
 40
1
 40
1
 10
0.021792
 20
10.898313
 30
0.0
 10
0.021454
 20
10.898452
 30
0.0
 10
0.021519
 20
10.898376
 30
0.0
 10
0.021211
 20
10.898617
 30
0.0
  0
SPLINE
  5
234
100
AcDbEntity
  8
Letters
 62
7
100
AcDbSpline
 70
8
 71
3
 72
8
 73
4
 74
0
 40
0
 40
0
 40
0
 40
0
 40
1
 40
1
 40
1
 40
1
 10
0.021211
 20
10.898617
 30
0.0
 10
0.020656
 20
10.899066
 30
0.0
 10
0.020248
 20
10.899493
 30
0.0
 10
0.019705
 20
10.899959
 30
0.0
  0
SPLINE
  5
235
100
AcDbEntity
  8
Letters
 62
7
100
AcDbSpline
 70
8
 71
3
 72
8
 73
4
 74
0
 40
0
 40
0
 40
0
 40
0
 40
1
 40
1
 40
1
 40
1
 10
0.019705
 20
10.899959
 30
0.0
 10
0.019688
 20
10.899966
 30
0.0
 10
0.019689
 20
10.899971
 30
0.0
 10
0.019662
 20
10.899972
 30
0.0
  0
SPLINE
  5
236
100
AcDbEntity
  8
Letters
 62
7
100
AcDbSpline
 70
8
 71
3
 72
8
 73
4
 74
0
 40
0
 40
0
 40
0
 40
0
 40
1
 40
1
 40
1
 40
1
 10
0.019662
 20
10.899972
 30
0.0
 10
0.019650
 20
10.899972
 30
0.0
 10
0.019636
 20
10.899969
 30
0.0
 10
0.019631
 20
10.899968
 30
0.0
  0
SPLINE
  5
237
100
AcDbEntity
  8
Letters
 62
7
100
AcDbSpline
 70
8
 71
3
 72
8
 73
4
 74
0
 40
0
 40
0
 40
0
 40
0
 40
1
 40
1
 40
1
 40
1
 10
0.019631
 20
10.899968
 30
0.0
 10
0.019609
 20
10.899965
 30
0.0
 10
0.019593
 20
10.899951
 30
0.0
 10
0.019576
 20
10.899937
 30
0.0
  0
SPLINE
  5
238
100
AcDbEntity
  8
Letters
 62
7
100
AcDbSpline
 70
8
 71
3
 72
8
 73
4
 74
0
 40
0
 40
0
 40
0
 40
0
 40
1
 40
1
 40
1
 40
1
 10
0.019576
 20
10.899937
 30
0.0
 10
0.018958
 20
10.899344
 30
0.0
 10
0.018669
 20
10.899032
 30
0.0
 10
0.018045
 20
10.898446
 30
0.0
  0
SPLINE
  5
239
100
AcDbEntity
  8
Letters
 62
7
100
AcDbSpline
 70
8
 71
3
 72
8
 73
4
 74
0
 40
0
 40
0
 40
0
 40
0
 40
1
 40
1
 40
1
 40
1
 10
0.018045
 20
10.898446
 30
0.0
 10
0.017792
 20
10.898230
 30
0.0
 10
0.017124
 20
10.898275
 30
0.0
 10
0.016812
 20
10.898311
 30
0.0
  0
SPLINE
  5
23a
100
AcDbEntity
  8
Letters
 62
7
100
AcDbSpline
 70
8
 71
3
 72
8
 73
4
 74
0
 40
0
 40
0
 40
0
 40
0
 40
1
 40
1
 40
1
 40
1
 10
0.016812
 20
10.898311
 30
0.0
 10
0.016344
 20
10.898396
 30
0.0
 10
0.015989
 20
10.898849
 30
0.0
 10
0.016034
 20
10.899310
 30
0.0
  0
SPLINE
  5
23b
100
AcDbEntity
  8
Letters
 62
7
100
AcDbSpline
 70
8
 71
3
 72
8
 73
4
 74
0
 40
0
 40
0
 40
0
 40
0
 40
1
 40
1
 40
1
 40
1
 10
0.016034
 20
10.899310
 30
0.0
 10
0.016036
 20
10.901846
 30
0.0
 10
0.016014
 20
10.904322
 30
0.0
 10
0.016020
 20
10.906858
 30
0.0
  0
SPLINE
  5
23c
100
AcDbEntity
  8
Letters
 62
7
100
AcDbSpline
 70
8
 71
3
 72
8
 73
4
 74
0
 40
0
 40
0
 40
0
 40
0
 40
1
 40
1
 40
1
 40
1
 10
0.016020
 20
10.906858
 30
0.0
 10
0.016045
 20
10.907304
 30
0.0
 10
0.016461
 20
10.907693
 30
0.0
 10
0.016928
 20
10.907670
 30
0.0
  0
SPLINE
  5
23d
100
AcDbEntity
  8
Letters
 62
7
100
AcDbSpline
 70
8
 71
3
 72
8
 73
4
 74
0
 40
0
 40
0
 40
0
 40
0
 40
1
 40
1
 40
1
 40
1
 10
0.016928
 20
10.907670
 30
0.0
 10
0.017659
 20
10.907714
 30
0.0
 10
0.018230
 20
10.907590
 30
0.0
 10
0.018177
 20
10.906843
 30
0.0
  0
SPLINE
  5
23e
100
AcDbEntity
  8
Letters
 62
7
100
AcDbSpline
 70
8
 71
3
 72
8
 73
4
 74
0
 40
0
 40
0
 40
0
 40
0
 40
1
 40
1
 40
1
 40
1
 10
0.018177
 20
10.906843
 30
0.0
 10
0.018177
 20
10.905570
 30
0.0
 10
0.018155
 20
10.904057
 30
0.0
 10
0.018154
 20
10.902794
 30
0.0
  0
SPLINE
  5
23f
100
AcDbEntity
  8
Letters
 62
7
100
AcDbSpline
 70
8
 71
3
 72
8
 73
4
 74
0
 40
0
 40
0
 40
0
 40
0
 40
1
 40
1
 40
1
 40
1
 10
0.018154
 20
10.902794
 30
0.0
 10
0.018136
 20
10.902460
 30
0.0
 10
0.018627
 20
10.902278
 30
0.0
 10
0.018864
 20
10.902523
 30
0.0
  0
SPLINE
  5
240
100
AcDbEntity
  8
Letters
 62
7
100
AcDbSpline
 70
8
 71
3
 72
8
 73
4
 74
0
 40
0
 40
0
 40
0
 40
0
 40
1
 40
1
 40
1
 40
1
 10
0.018864
 20
10.902523
 30
0.0
 10
0.019090
 20
10.902743
 30
0.0
 10
0.019332
 20
10.903132
 30
0.0
 10
0.019559
 20
10.903351
 30
0.0
  0
SPLINE
  5
241
100
AcDbEntity
  8
Letters
 62
7
100
AcDbSpline
 70
8
 71
3
 72
8
 73
4
 74
0
 40
0
 40
0
 40
0
 40
0
 40
1
 40
1
 40
1
 40
1
 10
0.019559
 20
10.903351
 30
0.0
 10
0.019650
 20
10.903406
 30
0.0
 10
0.019779
 20
10.903400
 30
0.0
 10
0.019858
 20
10.903331
 30
0.0
  0
SPLINE
  5
242
100
AcDbEntity
  8
Letters
 62
7
100
AcDbSpline
 70
8
 71
3
 72
8
 73
4
 74
0
 40
0
 40
0
 40
0
 40
0
 40
1
 40
1
 40
1
 40
1
 10
0.019858
 20
10.903331
 30
0.0
 10
0.020128
 20
10.903078
 30
0.0
 10
0.020325
 20
10.902652
 30
0.0
 10
0.020602
 20
10.902402
 30
0.0
  0
LWPOLYLINE
  5
243
100
AcDbEntity
  8
Letters
 62
7
100
AcDbPolyline
 90
2
 70
1
 10
0.025388
 20
10.877724
 30
0.0
 10
0.025388
 20
10.877725
 30
0.0
  0
SPLINE
  5
244
100
AcDbEntity
  8
Letters
 62
7
100
AcDbSpline
 70
8
 71
3
 72
8
 73
4
 74
0
 40
0
 40
0
 40
0
 40
0
 40
1
 40
1
 40
1
 40
1
 10
0.020602
 20
10.892125
 30
0.0
 10
0.020813
 20
10.892004
 30
0.0
 10
0.021109
 20
10.892172
 30
0.0
 10
0.021083
 20
10.892413
 30
0.0
  0
SPLINE
  5
245
100
AcDbEntity
  8
Letters
 62
7
100
AcDbSpline
 70
8
 71
3
 72
8
 73
4
 74
0
 40
0
 40
0
 40
0
 40
0
 40
1
 40
1
 40
1
 40
1
 10
0.021083
 20
10.892413
 30
0.0
 10
0.021086
 20
10.893781
 30
0.0
 10
0.021076
 20
10.895356
 30
0.0
 10
0.021087
 20
10.896724
 30
0.0
  0
SPLINE
  5
246
100
AcDbEntity
  8
Letters
 62
7
100
AcDbSpline
 70
8
 71
3
 72
8
 73
4
 74
0
 40
0
 40
0
 40
0
 40
0
 40
1
 40
1
 40
1
 40
1
 10
0.021087
 20
10.896724
 30
0.0
 10
0.021136
 20
10.897243
 30
0.0
 10
0.021653
 20
10.897462
 30
0.0
 10
0.022192
 20
10.897413
 30
0.0
  0
SPLINE
  5
247
100
AcDbEntity
  8
Letters
 62
7
100
AcDbSpline
 70
8
 71
3
 72
8
 73
4
 74
0
 40
0
 40
0
 40
0
 40
0
 40
1
 40
1
 40
1
 40
1
 10
0.022192
 20
10.897413
 30
0.0
 10
0.022767
 20
10.897428
 30
0.0
 10
0.023295
 20
10.897092
 30
0.0
 10
0.023246
 20
10.896540
 30
0.0
  0
SPLINE
  5
248
100
AcDbEntity
  8
Letters
 62
7
100
AcDbSpline
 70
8
 71
3
 72
8
 73
4
 74
0
 40
0
 40
0
 40
0
 40
0
 40
1
 40
1
 40
1
 40
1
 10
0.023246
 20
10.896540
 30
0.0
 10
0.023244
 20
10.894028
 30
0.0
 10
0.023279
 20
10.891341
 30
0.0
 10
0.023274
 20
10.888829
 30
0.0
  0
SPLINE
  5
249
100
AcDbEntity
  8
Letters
 62
7
100
AcDbSpline
 70
8
 71
3
 72
8
 73
4
 74
0
 40
0
 40
0
 40
0
 40
0
 40
1
 40
1
 40
1
 40
1
 10
0.023274
 20
10.888829
 30
0.0
 10
0.023240
 20
10.888427
 30
0.0
 10
0.022909
 20
10.888068
 30
0.0
 10
0.022492
 20
10.888018
 30
0.0
  0
SPLINE
  5
24a
100
AcDbEntity
  8
Letters
 62
7
100
AcDbSpline
 70
8
 71
3
 72
8
 73
4
 74
0
 40
0
 40
0
 40
0
 40
0
 40
1
 40
1
 40
1
 40
1
 10
0.022492
 20
10.888018
 30
0.0
 10
0.022261
 20
10.888000
 30
0.0
 10
0.022020
 20
10.887982
 30
0.0
 10
0.021792
 20
10.888036
 30
0.0
  0
SPLINE
  5
24b
100
AcDbEntity
  8
Letters
 62
7
100
AcDbSpline
 70
8
 71
3
 72
8
 73
4
 74
0
 40
0
 40
0
 40
0
 40
0
 40
1
 40
1
 40
1
 40
1
 10
0.021792
 20
10.888036
 30
0.0
 10
0.021454
 20
10.888174
 30
0.0
 10
0.021519
 20
10.888098
 30
0.0
 10
0.021211
 20
10.888339
 30
0.0
  0
SPLINE
  5
24c
100
AcDbEntity
  8
Letters
 62
7
100
AcDbSpline
 70
8
 71
3
 72
8
 73
4
 74
0
 40
0
 40
0
 40
0
 40
0
 40
1
 40
1
 40
1
 40
1
 10
0.021211
 20
10.888339
 30
0.0
 10
0.020656
 20
10.888788
 30
0.0
 10
0.020248
 20
10.889215
 30
0.0
 10
0.019705
 20
10.889681
 30
0.0
  0
SPLINE
  5
24d
100
AcDbEntity
  8
Letters
 62
7
100
AcDbSpline
 70
8
 71
3
 72
8
 73
4
 74
0
 40
0
 40
0
 40
0
 40
0
 40
1
 40
1
 40
1
 40
1
 10
0.019705
 20
10.889681
 30
0.0
 10
0.019688
 20
10.889688
 30
0.0
 10
0.019689
 20
10.889693
 30
0.0
 10
0.019662
 20
10.889694
 30
0.0
  0
SPLINE
  5
24e
100
AcDbEntity
  8
Letters
 62
7
100
AcDbSpline
 70
8
 71
3
 72
8
 73
4
 74
0
 40
0
 40
0
 40
0
 40
0
 40
1
 40
1
 40
1
 40
1
 10
0.019662
 20
10.889694
 30
0.0
 10
0.019650
 20
10.889694
 30
0.0
 10
0.019636
 20
10.889692
 30
0.0
 10
0.019631
 20
10.889690
 30
0.0
  0
SPLINE
  5
24f
100
AcDbEntity
  8
Letters
 62
7
100
AcDbSpline
 70
8
 71
3
 72
8
 73
4
 74
0
 40
0
 40
0
 40
0
 40
0
 40
1
 40
1
 40
1
 40
1
 10
0.019631
 20
10.889690
 30
0.0
 10
0.019609
 20
10.889688
 30
0.0
 10
0.019593
 20
10.889673
 30
0.0
 10
0.019576
 20
10.889659
 30
0.0
  0
SPLINE
  5
250
100
AcDbEntity
  8
Letters
 62
7
100
AcDbSpline
 70
8
 71
3
 72
8
 73
4
 74
0
 40
0
 40
0
 40
0
 40
0
 40
1
 40
1
 40
1
 40
1
 10
0.019576
 20
10.889659
 30
0.0
 10
0.018958
 20
10.889066
 30
0.0
 10
0.018669
 20
10.888754
 30
0.0
 10
0.018045
 20
10.888168
 30
0.0
  0
SPLINE
  5
251
100
AcDbEntity
  8
Letters
 62
7
100
AcDbSpline
 70
8
 71
3
 72
8
 73
4
 74
0
 40
0
 40
0
 40
0
 40
0
 40
1
 40
1
 40
1
 40
1
 10
0.018045
 20
10.888168
 30
0.0
 10
0.017792
 20
10.887952
 30
0.0
 10
0.017124
 20
10.887997
 30
0.0
 10
0.016812
 20
10.888033
 30
0.0
  0
SPLINE
  5
252
100
AcDbEntity
  8
Letters
 62
7
100
AcDbSpline
 70
8
 71
3
 72
8
 73
4
 74
0
 40
0
 40
0
 40
0
 40
0
 40
1
 40
1
 40
1
 40
1
 10
0.016812
 20
10.888033
 30
0.0
 10
0.016344
 20
10.888119
 30
0.0
 10
0.015989
 20
10.888571
 30
0.0
 10
0.016034
 20
10.889032
 30
0.0
  0
SPLINE
  5
253
100
AcDbEntity
  8
Letters
 62
7
100
AcDbSpline
 70
8
 71
3
 72
8
 73
4
 74
0
 40
0
 40
0
 40
0
 40
0
 40
1
 40
1
 40
1
 40
1
 10
0.016034
 20
10.889032
 30
0.0
 10
0.016036
 20
10.891568
 30
0.0
 10
0.016014
 20
10.894045
 30
0.0
 10
0.016020
 20
10.896580
 30
0.0
  0
SPLINE
  5
254
100
AcDbEntity
  8
Letters
 62
7
100
AcDbSpline
 70
8
 71
3
 72
8
 73
4
 74
0
 40
0
 40
0
 40
0
 40
0
 40
1
 40
1
 40
1
 40
1
 10
0.016020
 20
10.896580
 30
0.0
 10
0.016045
 20
10.897026
 30
0.0
 10
0.016461
 20
10.897416
 30
0.0
 10
0.016928
 20
10.897392
 30
0.0
  0
SPLINE
  5
255
100
AcDbEntity
  8
Letters
 62
7
100
AcDbSpline
 70
8
 71
3
 72
8
 73
4
 74
0
 40
0
 40
0
 40
0
 40
0
 40
1
 40
1
 40
1
 40
1
 10
0.016928
 20
10.897392
 30
0.0
 10
0.017659
 20
10.897437
 30
0.0
 10
0.018230
 20
10.897312
 30
0.0
 10
0.018177
 20
10.896565
 30
0.0
  0
SPLINE
  5
256
100
AcDbEntity
  8
Letters
 62
7
100
AcDbSpline
 70
8
 71
3
 72
8
 73
4
 74
0
 40
0
 40
0
 40
0
 40
0
 40
1
 40
1
 40
1
 40
1
 10
0.018177
 20
10.896565
 30
0.0
 10
0.018177
 20
10.895292
 30
0.0
 10
0.018155
 20
10.893779
 30
0.0
 10
0.018154
 20
10.892516
 30
0.0
  0
SPLINE
  5
257
100
AcDbEntity
  8
Letters
 62
7
100
AcDbSpline
 70
8
 71
3
 72
8
 73
4
 74
0
 40
0
 40
0
 40
0
 40
0
 40
1
 40
1
 40
1
 40
1
 10
0.018154
 20
10.892516
 30
0.0
 10
0.018136
 20
10.892182
 30
0.0
 10
0.018627
 20
10.892001
 30
0.0
 10
0.018864
 20
10.892246
 30
0.0
  0
SPLINE
  5
258
100
AcDbEntity
  8
Letters
 62
7
100
AcDbSpline
 70
8
 71
3
 72
8
 73
4
 74
0
 40
0
 40
0
 40
0
 40
0
 40
1
 40
1
 40
1
 40
1
 10
0.018864
 20
10.892246
 30
0.0
 10
0.019090
 20
10.892465
 30
0.0
 10
0.019332
 20
10.892854
 30
0.0
 10
0.019559
 20
10.893073
 30
0.0
  0
SPLINE
  5
259
100
AcDbEntity
  8
Letters
 62
7
100
AcDbSpline
 70
8
 71
3
 72
8
 73
4
 74
0
 40
0
 40
0
 40
0
 40
0
 40
1
 40
1
 40
1
 40
1
 10
0.019559
 20
10.893073
 30
0.0
 10
0.019650
 20
10.893128
 30
0.0
 10
0.019779
 20
10.893122
 30
0.0
 10
0.019858
 20
10.893053
 30
0.0
  0
SPLINE
  5
25a
100
AcDbEntity
  8
Letters
 62
7
100
AcDbSpline
 70
8
 71
3
 72
8
 73
4
 74
0
 40
0
 40
0
 40
0
 40
0
 40
1
 40
1
 40
1
 40
1
 10
0.019858
 20
10.893053
 30
0.0
 10
0.020128
 20
10.892800
 30
0.0
 10
0.020325
 20
10.892374
 30
0.0
 10
0.020602
 20
10.892125
 30
0.0
  0
LWPOLYLINE
  5
25b
100
AcDbEntity
  8
Letters
 62
7
100
AcDbPolyline
 90
2
 70
1
 10
0.020602
 20
10.902402
 30
0.0
 10
0.020602
 20
10.902403
 30
0.0
  0
SPLINE
  5
25c
100
AcDbEntity
  8
Letters
 62
7
100
AcDbSpline
 70
8
 71
3
 72
8
 73
4
 74
0
 40
0
 40
0
 40
0
 40
0
 40
1
 40
1
 40
1
 40
1
 10
0.020602
 20
10.881925
 30
0.0
 10
0.020813
 20
10.881804
 30
0.0
 10
0.021109
 20
10.881971
 30
0.0
 10
0.021083
 20
10.882213
 30
0.0
  0
SPLINE
  5
25d
100
AcDbEntity
  8
Letters
 62
7
100
AcDbSpline
 70
8
 71
3
 72
8
 73
4
 74
0
 40
0
 40
0
 40
0
 40
0
 40
1
 40
1
 40
1
 40
1
 10
0.021083
 20
10.882213
 30
0.0
 10
0.021086
 20
10.883581
 30
0.0
 10
0.021076
 20
10.885156
 30
0.0
 10
0.021087
 20
10.886524
 30
0.0
  0
SPLINE
  5
25e
100
AcDbEntity
  8
Letters
 62
7
100
AcDbSpline
 70
8
 71
3
 72
8
 73
4
 74
0
 40
0
 40
0
 40
0
 40
0
 40
1
 40
1
 40
1
 40
1
 10
0.021087
 20
10.886524
 30
0.0
 10
0.021136
 20
10.887043
 30
0.0
 10
0.021653
 20
10.887262
 30
0.0
 10
0.022192
 20
10.887213
 30
0.0
  0
SPLINE
  5
25f
100
AcDbEntity
  8
Letters
 62
7
100
AcDbSpline
 70
8
 71
3
 72
8
 73
4
 74
0
 40
0
 40
0
 40
0
 40
0
 40
1
 40
1
 40
1
 40
1
 10
0.022192
 20
10.887213
 30
0.0
 10
0.022767
 20
10.887228
 30
0.0
 10
0.023295
 20
10.886892
 30
0.0
 10
0.023246
 20
10.886340
 30
0.0
  0
SPLINE
  5
260
100
AcDbEntity
  8
Letters
 62
7
100
AcDbSpline
 70
8
 71
3
 72
8
 73
4
 74
0
 40
0
 40
0
 40
0
 40
0
 40
1
 40
1
 40
1
 40
1
 10
0.023246
 20
10.886340
 30
0.0
 10
0.023244
 20
10.883828
 30
0.0
 10
0.023279
 20
10.881141
 30
0.0
 10
0.023274
 20
10.878629
 30
0.0
  0
SPLINE
  5
261
100
AcDbEntity
  8
Letters
 62
7
100
AcDbSpline
 70
8
 71
3
 72
8
 73
4
 74
0
 40
0
 40
0
 40
0
 40
0
 40
1
 40
1
 40
1
 40
1
 10
0.023274
 20
10.878629
 30
0.0
 10
0.023240
 20
10.878227
 30
0.0
 10
0.022909
 20
10.877868
 30
0.0
 10
0.022492
 20
10.877818
 30
0.0
  0
SPLINE
  5
262
100
AcDbEntity
  8
Letters
 62
7
100
AcDbSpline
 70
8
 71
3
 72
8
 73
4
 74
0
 40
0
 40
0
 40
0
 40
0
 40
1
 40
1
 40
1
 40
1
 10
0.022492
 20
10.877818
 30
0.0
 10
0.022261
 20
10.877800
 30
0.0
 10
0.022020
 20
10.877782
 30
0.0
 10
0.021792
 20
10.877836
 30
0.0
  0
SPLINE
  5
263
100
AcDbEntity
  8
Letters
 62
7
100
AcDbSpline
 70
8
 71
3
 72
8
 73
4
 74
0
 40
0
 40
0
 40
0
 40
0
 40
1
 40
1
 40
1
 40
1
 10
0.021792
 20
10.877836
 30
0.0
 10
0.021454
 20
10.877974
 30
0.0
 10
0.021519
 20
10.877898
 30
0.0
 10
0.021211
 20
10.878139
 30
0.0
  0
SPLINE
  5
264
100
AcDbEntity
  8
Letters
 62
7
100
AcDbSpline
 70
8
 71
3
 72
8
 73
4
 74
0
 40
0
 40
0
 40
0
 40
0
 40
1
 40
1
 40
1
 40
1
 10
0.021211
 20
10.878139
 30
0.0
 10
0.020656
 20
10.878588
 30
0.0
 10
0.020248
 20
10.879015
 30
0.0
 10
0.019705
 20
10.879481
 30
0.0
  0
SPLINE
  5
265
100
AcDbEntity
  8
Letters
 62
7
100
AcDbSpline
 70
8
 71
3
 72
8
 73
4
 74
0
 40
0
 40
0
 40
0
 40
0
 40
1
 40
1
 40
1
 40
1
 10
0.019705
 20
10.879481
 30
0.0
 10
0.019688
 20
10.879488
 30
0.0
 10
0.019689
 20
10.879493
 30
0.0
 10
0.019662
 20
10.879493
 30
0.0
  0
SPLINE
  5
266
100
AcDbEntity
  8
Letters
 62
7
100
AcDbSpline
 70
8
 71
3
 72
8
 73
4
 74
0
 40
0
 40
0
 40
0
 40
0
 40
1
 40
1
 40
1
 40
1
 10
0.019662
 20
10.879493
 30
0.0
 10
0.019650
 20
10.879494
 30
0.0
 10
0.019636
 20
10.879491
 30
0.0
 10
0.019631
 20
10.879490
 30
0.0
  0
SPLINE
  5
267
100
AcDbEntity
  8
Letters
 62
7
100
AcDbSpline
 70
8
 71
3
 72
8
 73
4
 74
0
 40
0
 40
0
 40
0
 40
0
 40
1
 40
1
 40
1
 40
1
 10
0.019631
 20
10.879490
 30
0.0
 10
0.019609
 20
10.879487
 30
0.0
 10
0.019593
 20
10.879472
 30
0.0
 10
0.019576
 20
10.879459
 30
0.0
  0
SPLINE
  5
268
100
AcDbEntity
  8
Letters
 62
7
100
AcDbSpline
 70
8
 71
3
 72
8
 73
4
 74
0
 40
0
 40
0
 40
0
 40
0
 40
1
 40
1
 40
1
 40
1
 10
0.019576
 20
10.879459
 30
0.0
 10
0.018958
 20
10.878866
 30
0.0
 10
0.018669
 20
10.878554
 30
0.0
 10
0.018045
 20
10.877968
 30
0.0
  0
SPLINE
  5
269
100
AcDbEntity
  8
Letters
 62
7
100
AcDbSpline
 70
8
 71
3
 72
8
 73
4
 74
0
 40
0
 40
0
 40
0
 40
0
 40
1
 40
1
 40
1
 40
1
 10
0.018045
 20
10.877968
 30
0.0
 10
0.017792
 20
10.877752
 30
0.0
 10
0.017124
 20
10.877797
 30
0.0
 10
0.016812
 20
10.877833
 30
0.0
  0
SPLINE
  5
26a
100
AcDbEntity
  8
Letters
 62
7
100
AcDbSpline
 70
8
 71
3
 72
8
 73
4
 74
0
 40
0
 40
0
 40
0
 40
0
 40
1
 40
1
 40
1
 40
1
 10
0.016812
 20
10.877833
 30
0.0
 10
0.016344
 20
10.877918
 30
0.0
 10
0.015989
 20
10.878371
 30
0.0
 10
0.016034
 20
10.878832
 30
0.0
  0
SPLINE
  5
26b
100
AcDbEntity
  8
Letters
 62
7
100
AcDbSpline
 70
8
 71
3
 72
8
 73
4
 74
0
 40
0
 40
0
 40
0
 40
0
 40
1
 40
1
 40
1
 40
1
 10
0.016034
 20
10.878832
 30
0.0
 10
0.016036
 20
10.881368
 30
0.0
 10
0.016014
 20
10.883844
 30
0.0
 10
0.016020
 20
10.886380
 30
0.0
  0
SPLINE
  5
26c
100
AcDbEntity
  8
Letters
 62
7
100
AcDbSpline
 70
8
 71
3
 72
8
 73
4
 74
0
 40
0
 40
0
 40
0
 40
0
 40
1
 40
1
 40
1
 40
1
 10
0.016020
 20
10.886380
 30
0.0
 10
0.016045
 20
10.886826
 30
0.0
 10
0.016461
 20
10.887215
 30
0.0
 10
0.016928
 20
10.887192
 30
0.0
  0
SPLINE
  5
26d
100
AcDbEntity
  8
Letters
 62
7
100
AcDbSpline
 70
8
 71
3
 72
8
 73
4
 74
0
 40
0
 40
0
 40
0
 40
0
 40
1
 40
1
 40
1
 40
1
 10
0.016928
 20
10.887192
 30
0.0
 10
0.017659
 20
10.887236
 30
0.0
 10
0.018230
 20
10.887112
 30
0.0
 10
0.018177
 20
10.886364
 30
0.0
  0
SPLINE
  5
26e
100
AcDbEntity
  8
Letters
 62
7
100
AcDbSpline
 70
8
 71
3
 72
8
 73
4
 74
0
 40
0
 40
0
 40
0
 40
0
 40
1
 40
1
 40
1
 40
1
 10
0.018177
 20
10.886364
 30
0.0
 10
0.018177
 20
10.885091
 30
0.0
 10
0.018155
 20
10.883578
 30
0.0
 10
0.018154
 20
10.882316
 30
0.0
  0
SPLINE
  5
26f
100
AcDbEntity
  8
Letters
 62
7
100
AcDbSpline
 70
8
 71
3
 72
8
 73
4
 74
0
 40
0
 40
0
 40
0
 40
0
 40
1
 40
1
 40
1
 40
1
 10
0.018154
 20
10.882316
 30
0.0
 10
0.018136
 20
10.881981
 30
0.0
 10
0.018627
 20
10.881800
 30
0.0
 10
0.018864
 20
10.882045
 30
0.0
  0
SPLINE
  5
270
100
AcDbEntity
  8
Letters
 62
7
100
AcDbSpline
 70
8
 71
3
 72
8
 73
4
 74
0
 40
0
 40
0
 40
0
 40
0
 40
1
 40
1
 40
1
 40
1
 10
0.018864
 20
10.882045
 30
0.0
 10
0.019090
 20
10.882264
 30
0.0
 10
0.019332
 20
10.882653
 30
0.0
 10
0.019559
 20
10.882873
 30
0.0
  0
SPLINE
  5
271
100
AcDbEntity
  8
Letters
 62
7
100
AcDbSpline
 70
8
 71
3
 72
8
 73
4
 74
0
 40
0
 40
0
 40
0
 40
0
 40
1
 40
1
 40
1
 40
1
 10
0.019559
 20
10.882873
 30
0.0
 10
0.019650
 20
10.882927
 30
0.0
 10
0.019779
 20
10.882921
 30
0.0
 10
0.019858
 20
10.882853
 30
0.0
  0
SPLINE
  5
272
100
AcDbEntity
  8
Letters
 62
7
100
AcDbSpline
 70
8
 71
3
 72
8
 73
4
 74
0
 40
0
 40
0
 40
0
 40
0
 40
1
 40
1
 40
1
 40
1
 10
0.019858
 20
10.882853
 30
0.0
 10
0.020128
 20
10.882600
 30
0.0
 10
0.020325
 20
10.882174
 30
0.0
 10
0.020602
 20
10.881924
 30
0.0
  0
LWPOLYLINE
  5
273
100
AcDbEntity
  8
Letters
 62
7
100
AcDbPolyline
 90
2
 70
1
 10
0.020602
 20
10.892125
 30
0.0
 10
0.020602
 20
10.892125
 30
0.0
  0
SPLINE
  5
274
100
AcDbEntity
  8
Letters
 62
7
100
AcDbSpline
 70
8
 71
3
 72
8
 73
4
 74
0
 40
0
 40
0
 40
0
 40
0
 40
1
 40
1
 40
1
 40
1
 10
0.015067
 20
10.899329
 30
0.0
 10
0.015276
 20
10.899705
 30
0.0
 10
0.015288
 20
10.900142
 30
0.0
 10
0.015260
 20
10.900558
 30
0.0
  0
SPLINE
  5
275
100
AcDbEntity
  8
Letters
 62
7
100
AcDbSpline
 70
8
 71
3
 72
8
 73
4
 74
0
 40
0
 40
0
 40
0
 40
0
 40
1
 40
1
 40
1
 40
1
 10
0.015260
 20
10.900558
 30
0.0
 10
0.015258
 20
10.902374
 30
0.0
 10
0.015265
 20
10.904191
 30
0.0
 10
0.015257
 20
10.906007
 30
0.0
  0
SPLINE
  5
276
100
AcDbEntity
  8
Letters
 62
7
100
AcDbSpline
 70
8
 71
3
 72
8
 73
4
 74
0
 40
0
 40
0
 40
0
 40
0
 40
1
 40
1
 40
1
 40
1
 10
0.015257
 20
10.906007
 30
0.0
 10
0.015203
 20
10.906724
 30
0.0
 10
0.014674
 20
10.907373
 30
0.0
 10
0.013970
 20
10.907605
 30
0.0
  0
SPLINE
  5
277
100
AcDbEntity
  8
Letters
 62
7
100
AcDbSpline
 70
8
 71
3
 72
8
 73
4
 74
0
 40
0
 40
0
 40
0
 40
0
 40
1
 40
1
 40
1
 40
1
 10
0.013970
 20
10.907605
 30
0.0
 10
0.013630
 20
10.907703
 30
0.0
 10
0.013272
 20
10.907714
 30
0.0
 10
0.012920
 20
10.907698
 30
0.0
  0
SPLINE
  5
278
100
AcDbEntity
  8
Letters
 62
7
100
AcDbSpline
 70
8
 71
3
 72
8
 73
4
 74
0
 40
0
 40
0
 40
0
 40
0
 40
1
 40
1
 40
1
 40
1
 10
0.012920
 20
10.907698
 30
0.0
 10
0.011898
 20
10.907694
 30
0.0
 10
0.010876
 20
10.907707
 30
0.0
 10
0.009855
 20
10.907692
 30
0.0
  0
SPLINE
  5
279
100
AcDbEntity
  8
Letters
 62
7
100
AcDbSpline
 70
8
 71
3
 72
8
 73
4
 74
0
 40
0
 40
0
 40
0
 40
0
 40
1
 40
1
 40
1
 40
1
 10
0.009855
 20
10.907692
 30
0.0
 10
0.009131
 20
10.907640
 30
0.0
 10
0.008473
 20
10.907179
 30
0.0
 10
0.008174
 20
10.906545
 30
0.0
  0
SPLINE
  5
27a
100
AcDbEntity
  8
Letters
 62
7
100
AcDbSpline
 70
8
 71
3
 72
8
 73
4
 74
0
 40
0
 40
0
 40
0
 40
0
 40
1
 40
1
 40
1
 40
1
 10
0.008174
 20
10.906545
 30
0.0
 10
0.008017
 20
10.906211
 30
0.0
 10
0.007987
 20
10.906138
 30
0.0
 10
0.008002
 20
10.905453
 30
0.0
  0
SPLINE
  5
27b
100
AcDbEntity
  8
Letters
 62
7
100
AcDbSpline
 70
8
 71
3
 72
8
 73
4
 74
0
 40
0
 40
0
 40
0
 40
0
 40
1
 40
1
 40
1
 40
1
 10
0.008002
 20
10.905453
 30
0.0
 10
0.007999
 20
10.903737
 30
0.0
 10
0.008006
 20
10.902037
 30
0.0
 10
0.007998
 20
10.900337
 30
0.0
  0
SPLINE
  5
27c
100
AcDbEntity
  8
Letters
 62
7
100
AcDbSpline
 70
8
 71
3
 72
8
 73
4
 74
0
 40
0
 40
0
 40
0
 40
0
 40
1
 40
1
 40
1
 40
1
 10
0.007998
 20
10.900337
 30
0.0
 10
0.007943
 20
10.899671
 30
0.0
 10
0.008276
 20
10.898995
 30
0.0
 10
0.008843
 20
10.898613
 30
0.0
  0
SPLINE
  5
27d
100
AcDbEntity
  8
Letters
 62
7
100
AcDbSpline
 70
8
 71
3
 72
8
 73
4
 74
0
 40
0
 40
0
 40
0
 40
0
 40
1
 40
1
 40
1
 40
1
 10
0.008843
 20
10.898613
 30
0.0
 10
0.009237
 20
10.898333
 30
0.0
 10
0.009450
 20
10.898286
 30
0.0
 10
0.010227
 20
10.898278
 30
0.0
  0
SPLINE
  5
27e
100
AcDbEntity
  8
Letters
 62
7
100
AcDbSpline
 70
8
 71
3
 72
8
 73
4
 74
0
 40
0
 40
0
 40
0
 40
0
 40
1
 40
1
 40
1
 40
1
 10
0.010227
 20
10.898278
 30
0.0
 10
0.011206
 20
10.898278
 30
0.0
 10
0.012186
 20
10.898278
 30
0.0
 10
0.013165
 20
10.898288
 30
0.0
  0
SPLINE
  5
27f
100
AcDbEntity
  8
Letters
 62
7
100
AcDbSpline
 70
8
 71
3
 72
8
 73
4
 74
0
 40
0
 40
0
 40
0
 40
0
 40
1
 40
1
 40
1
 40
1
 10
0.013165
 20
10.898288
 30
0.0
 10
0.013961
 20
10.898285
 30
0.0
 10
0.014732
 20
10.898649
 30
0.0
 10
0.015067
 20
10.899329
 30
0.0
  0
LWPOLYLINE
  5
280
100
AcDbEntity
  8
Letters
 62
7
100
AcDbPolyline
 90
2
 70
1
 10
0.020602
 20
10.881924
 30
0.0
 10
0.020602
 20
10.881925
 30
0.0
  0
SPLINE
  5
281
100
AcDbEntity
  8
Letters
 62
7
100
AcDbSpline
 70
8
 71
3
 72
8
 73
4
 74
0
 40
0
 40
0
 40
0
 40
0
 40
1
 40
1
 40
1
 40
1
 10
0.010258
 20
10.901641
 30
0.0
 10
0.010233
 20
10.901842
 30
0.0
 10
0.010254
 20
10.902047
 30
0.0
 10
0.010247
 20
10.902250
 30
0.0
  0
SPLINE
  5
282
100
AcDbEntity
  8
Letters
 62
7
100
AcDbSpline
 70
8
 71
3
 72
8
 73
4
 74
0
 40
0
 40
0
 40
0
 40
0
 40
1
 40
1
 40
1
 40
1
 10
0.010247
 20
10.902250
 30
0.0
 10
0.010248
 20
10.902928
 30
0.0
 10
0.010244
 20
10.903607
 30
0.0
 10
0.010249
 20
10.904285
 30
0.0
  0
SPLINE
  5
283
100
AcDbEntity
  8
Letters
 62
7
100
AcDbSpline
 70
8
 71
3
 72
8
 73
4
 74
0
 40
0
 40
0
 40
0
 40
0
 40
1
 40
1
 40
1
 40
1
 10
0.010249
 20
10.904285
 30
0.0
 10
0.010296
 20
10.904628
 30
0.0
 10
0.010458
 20
10.904960
 30
0.0
 10
0.010730
 20
10.905179
 30
0.0
  0
SPLINE
  5
284
100
AcDbEntity
  8
Letters
 62
7
100
AcDbSpline
 70
8
 71
3
 72
8
 73
4
 74
0
 40
0
 40
0
 40
0
 40
0
 40
1
 40
1
 40
1
 40
1
 10
0.010730
 20
10.905179
 30
0.0
 10
0.010945
 20
10.905359
 30
0.0
 10
0.011215
 20
10.905475
 30
0.0
 10
0.011496
 20
10.905490
 30
0.0
  0
SPLINE
  5
285
100
AcDbEntity
  8
Letters
 62
7
100
AcDbSpline
 70
8
 71
3
 72
8
 73
4
 74
0
 40
0
 40
0
 40
0
 40
0
 40
1
 40
1
 40
1
 40
1
 10
0.011496
 20
10.905490
 30
0.0
 10
0.011760
 20
10.905512
 30
0.0
 10
0.012032
 20
10.905471
 30
0.0
 10
0.012267
 20
10.905345
 30
0.0
  0
SPLINE
  5
286
100
AcDbEntity
  8
Letters
 62
7
100
AcDbSpline
 70
8
 71
3
 72
8
 73
4
 74
0
 40
0
 40
0
 40
0
 40
0
 40
1
 40
1
 40
1
 40
1
 10
0.012267
 20
10.905345
 30
0.0
 10
0.012581
 20
10.905181
 30
0.0
 10
0.012831
 20
10.904895
 30
0.0
 10
0.012933
 20
10.904554
 30
0.0
  0
SPLINE
  5
287
100
AcDbEntity
  8
Letters
 62
7
100
AcDbSpline
 70
8
 71
3
 72
8
 73
4
 74
0
 40
0
 40
0
 40
0
 40
0
 40
1
 40
1
 40
1
 40
1
 10
0.012933
 20
10.904554
 30
0.0
 10
0.013006
 20
10.904370
 30
0.0
 10
0.013000
 20
10.904171
 30
0.0
 10
0.012997
 20
10.903976
 30
0.0
  0
SPLINE
  5
288
100
AcDbEntity
  8
Letters
 62
7
100
AcDbSpline
 70
8
 71
3
 72
8
 73
4
 74
0
 40
0
 40
0
 40
0
 40
0
 40
1
 40
1
 40
1
 40
1
 10
0.012997
 20
10.903976
 30
0.0
 10
0.012996
 20
10.903217
 30
0.0
 10
0.013000
 20
10.902458
 30
0.0
 10
0.012995
 20
10.901699
 30
0.0
  0
SPLINE
  5
289
100
AcDbEntity
  8
Letters
 62
7
100
AcDbSpline
 70
8
 71
3
 72
8
 73
4
 74
0
 40
0
 40
0
 40
0
 40
0
 40
1
 40
1
 40
1
 40
1
 10
0.012995
 20
10.901699
 30
0.0
 10
0.012949
 20
10.901353
 30
0.0
 10
0.012782
 20
10.901018
 30
0.0
 10
0.012505
 20
10.900798
 30
0.0
  0
SPLINE
  5
28a
100
AcDbEntity
  8
Letters
 62
7
100
AcDbSpline
 70
8
 71
3
 72
8
 73
4
 74
0
 40
0
 40
0
 40
0
 40
0
 40
1
 40
1
 40
1
 40
1
 10
0.012505
 20
10.900798
 30
0.0
 10
0.012289
 20
10.900620
 30
0.0
 10
0.012018
 20
10.900507
 30
0.0
 10
0.011737
 20
10.900494
 30
0.0
  0
SPLINE
  5
28b
100
AcDbEntity
  8
Letters
 62
7
100
AcDbSpline
 70
8
 71
3
 72
8
 73
4
 74
0
 40
0
 40
0
 40
0
 40
0
 40
1
 40
1
 40
1
 40
1
 10
0.011737
 20
10.900494
 30
0.0
 10
0.011477
 20
10.900475
 30
0.0
 10
0.011209
 20
10.900516
 30
0.0
 10
0.010977
 20
10.900640
 30
0.0
  0
SPLINE
  5
28c
100
AcDbEntity
  8
Letters
 62
7
100
AcDbSpline
 70
8
 71
3
 72
8
 73
4
 74
0
 40
0
 40
0
 40
0
 40
0
 40
1
 40
1
 40
1
 40
1
 10
0.010977
 20
10.900640
 30
0.0
 10
0.010669
 20
10.900801
 30
0.0
 10
0.010421
 20
10.901080
 30
0.0
 10
0.010317
 20
10.901415
 30
0.0
  0
SPLINE
  5
28d
100
AcDbEntity
  8
Letters
 62
7
100
AcDbSpline
 70
8
 71
3
 72
8
 73
4
 74
0
 40
0
 40
0
 40
0
 40
0
 40
1
 40
1
 40
1
 40
1
 10
0.010317
 20
10.901415
 30
0.0
 10
0.010291
 20
10.901488
 30
0.0
 10
0.010271
 20
10.901564
 30
0.0
 10
0.010258
 20
10.901641
 30
0.0
  0
LWPOLYLINE
  5
28e
100
AcDbEntity
  8
Letters
 62
7
100
AcDbPolyline
 90
2
 70
1
 10
0.015067
 20
10.899329
 30
0.0
 10
0.015067
 20
10.899329
 30
0.0
  0
SPLINE
  5
28f
100
AcDbEntity
  8
Letters
 62
7
100
AcDbSpline
 70
8
 71
3
 72
8
 73
4
 74
0
 40
0
 40
0
 40
0
 40
0
 40
1
 40
1
 40
1
 40
1
 10
0.015067
 20
10.889052
 30
0.0
 10
0.015276
 20
10.889428
 30
0.0
 10
0.015288
 20
10.889864
 30
0.0
 10
0.015260
 20
10.890280
 30
0.0
  0
SPLINE
  5
290
100
AcDbEntity
  8
Letters
 62
7
100
AcDbSpline
 70
8
 71
3
 72
8
 73
4
 74
0
 40
0
 40
0
 40
0
 40
0
 40
1
 40
1
 40
1
 40
1
 10
0.015260
 20
10.890280
 30
0.0
 10
0.015258
 20
10.892096
 30
0.0
 10
0.015265
 20
10.893913
 30
0.0
 10
0.015257
 20
10.895729
 30
0.0
  0
SPLINE
  5
291
100
AcDbEntity
  8
Letters
 62
7
100
AcDbSpline
 70
8
 71
3
 72
8
 73
4
 74
0
 40
0
 40
0
 40
0
 40
0
 40
1
 40
1
 40
1
 40
1
 10
0.015257
 20
10.895729
 30
0.0
 10
0.015203
 20
10.896446
 30
0.0
 10
0.014674
 20
10.897095
 30
0.0
 10
0.013970
 20
10.897327
 30
0.0
  0
SPLINE
  5
292
100
AcDbEntity
  8
Letters
 62
7
100
AcDbSpline
 70
8
 71
3
 72
8
 73
4
 74
0
 40
0
 40
0
 40
0
 40
0
 40
1
 40
1
 40
1
 40
1
 10
0.013970
 20
10.897327
 30
0.0
 10
0.013630
 20
10.897425
 30
0.0
 10
0.013272
 20
10.897436
 30
0.0
 10
0.012920
 20
10.897421
 30
0.0
  0
SPLINE
  5
293
100
AcDbEntity
  8
Letters
 62
7
100
AcDbSpline
 70
8
 71
3
 72
8
 73
4
 74
0
 40
0
 40
0
 40
0
 40
0
 40
1
 40
1
 40
1
 40
1
 10
0.012920
 20
10.897421
 30
0.0
 10
0.011898
 20
10.897416
 30
0.0
 10
0.010876
 20
10.897430
 30
0.0
 10
0.009855
 20
10.897414
 30
0.0
  0
SPLINE
  5
294
100
AcDbEntity
  8
Letters
 62
7
100
AcDbSpline
 70
8
 71
3
 72
8
 73
4
 74
0
 40
0
 40
0
 40
0
 40
0
 40
1
 40
1
 40
1
 40
1
 10
0.009855
 20
10.897414
 30
0.0
 10
0.009131
 20
10.897362
 30
0.0
 10
0.008473
 20
10.896901
 30
0.0
 10
0.008174
 20
10.896267
 30
0.0
  0
SPLINE
  5
295
100
AcDbEntity
  8
Letters
 62
7
100
AcDbSpline
 70
8
 71
3
 72
8
 73
4
 74
0
 40
0
 40
0
 40
0
 40
0
 40
1
 40
1
 40
1
 40
1
 10
0.008174
 20
10.896267
 30
0.0
 10
0.008017
 20
10.895933
 30
0.0
 10
0.007987
 20
10.895861
 30
0.0
 10
0.008002
 20
10.895176
 30
0.0
  0
SPLINE
  5
296
100
AcDbEntity
  8
Letters
 62
7
100
AcDbSpline
 70
8
 71
3
 72
8
 73
4
 74
0
 40
0
 40
0
 40
0
 40
0
 40
1
 40
1
 40
1
 40
1
 10
0.008002
 20
10.895176
 30
0.0
 10
0.007999
 20
10.893459
 30
0.0
 10
0.008006
 20
10.891759
 30
0.0
 10
0.007998
 20
10.890059
 30
0.0
  0
SPLINE
  5
297
100
AcDbEntity
  8
Letters
 62
7
100
AcDbSpline
 70
8
 71
3
 72
8
 73
4
 74
0
 40
0
 40
0
 40
0
 40
0
 40
1
 40
1
 40
1
 40
1
 10
0.007998
 20
10.890059
 30
0.0
 10
0.007943
 20
10.889393
 30
0.0
 10
0.008276
 20
10.888718
 30
0.0
 10
0.008843
 20
10.888335
 30
0.0
  0
SPLINE
  5
298
100
AcDbEntity
  8
Letters
 62
7
100
AcDbSpline
 70
8
 71
3
 72
8
 73
4
 74
0
 40
0
 40
0
 40
0
 40
0
 40
1
 40
1
 40
1
 40
1
 10
0.008843
 20
10.888335
 30
0.0
 10
0.009237
 20
10.888055
 30
0.0
 10
0.009450
 20
10.888008
 30
0.0
 10
0.010227
 20
10.888000
 30
0.0
  0
SPLINE
  5
299
100
AcDbEntity
  8
Letters
 62
7
100
AcDbSpline
 70
8
 71
3
 72
8
 73
4
 74
0
 40
0
 40
0
 40
0
 40
0
 40
1
 40
1
 40
1
 40
1
 10
0.010227
 20
10.888000
 30
0.0
 10
0.011206
 20
10.888000
 30
0.0
 10
0.012186
 20
10.888000
 30
0.0
 10
0.013165
 20
10.888010
 30
0.0
  0
SPLINE
  5
29a
100
AcDbEntity
  8
Letters
 62
7
100
AcDbSpline
 70
8
 71
3
 72
8
 73
4
 74
0
 40
0
 40
0
 40
0
 40
0
 40
1
 40
1
 40
1
 40
1
 10
0.013165
 20
10.888010
 30
0.0
 10
0.013961
 20
10.888007
 30
0.0
 10
0.014732
 20
10.888371
 30
0.0
 10
0.015067
 20
10.889052
 30
0.0
  0
LWPOLYLINE
  5
29b
100
AcDbEntity
  8
Letters
 62
7
100
AcDbPolyline
 90
2
 70
1
 10
0.010258
 20
10.901641
 30
0.0
 10
0.010258
 20
10.901641
 30
0.0
  0
SPLINE
  5
29c
100
AcDbEntity
  8
Letters
 62
7
100
AcDbSpline
 70
8
 71
3
 72
8
 73
4
 74
0
 40
0
 40
0
 40
0
 40
0
 40
1
 40
1
 40
1
 40
1
 10
0.010258
 20
10.891363
 30
0.0
 10
0.010233
 20
10.891564
 30
0.0
 10
0.010254
 20
10.891769
 30
0.0
 10
0.010247
 20
10.891972
 30
0.0
  0
SPLINE
  5
29d
100
AcDbEntity
  8
Letters
 62
7
100
AcDbSpline
 70
8
 71
3
 72
8
 73
4
 74
0
 40
0
 40
0
 40
0
 40
0
 40
1
 40
1
 40
1
 40
1
 10
0.010247
 20
10.891972
 30
0.0
 10
0.010248
 20
10.892650
 30
0.0
 10
0.010244
 20
10.893329
 30
0.0
 10
0.010249
 20
10.894008
 30
0.0
  0
SPLINE
  5
29e
100
AcDbEntity
  8
Letters
 62
7
100
AcDbSpline
 70
8
 71
3
 72
8
 73
4
 74
0
 40
0
 40
0
 40
0
 40
0
 40
1
 40
1
 40
1
 40
1
 10
0.010249
 20
10.894008
 30
0.0
 10
0.010296
 20
10.894350
 30
0.0
 10
0.010458
 20
10.894683
 30
0.0
 10
0.010730
 20
10.894902
 30
0.0
  0
SPLINE
  5
29f
100
AcDbEntity
  8
Letters
 62
7
100
AcDbSpline
 70
8
 71
3
 72
8
 73
4
 74
0
 40
0
 40
0
 40
0
 40
0
 40
1
 40
1
 40
1
 40
1
 10
0.010730
 20
10.894902
 30
0.0
 10
0.010945
 20
10.895081
 30
0.0
 10
0.011215
 20
10.895197
 30
0.0
 10
0.011496
 20
10.895212
 30
0.0
  0
SPLINE
  5
2a0
100
AcDbEntity
  8
Letters
 62
7
100
AcDbSpline
 70
8
 71
3
 72
8
 73
4
 74
0
 40
0
 40
0
 40
0
 40
0
 40
1
 40
1
 40
1
 40
1
 10
0.011496
 20
10.895212
 30
0.0
 10
0.011760
 20
10.895234
 30
0.0
 10
0.012032
 20
10.895193
 30
0.0
 10
0.012267
 20
10.895067
 30
0.0
  0
SPLINE
  5
2a1
100
AcDbEntity
  8
Letters
 62
7
100
AcDbSpline
 70
8
 71
3
 72
8
 73
4
 74
0
 40
0
 40
0
 40
0
 40
0
 40
1
 40
1
 40
1
 40
1
 10
0.012267
 20
10.895067
 30
0.0
 10
0.012581
 20
10.894904
 30
0.0
 10
0.012831
 20
10.894617
 30
0.0
 10
0.012933
 20
10.894276
 30
0.0
  0
SPLINE
  5
2a2
100
AcDbEntity
  8
Letters
 62
7
100
AcDbSpline
 70
8
 71
3
 72
8
 73
4
 74
0
 40
0
 40
0
 40
0
 40
0
 40
1
 40
1
 40
1
 40
1
 10
0.012933
 20
10.894276
 30
0.0
 10
0.013006
 20
10.894092
 30
0.0
 10
0.013000
 20
10.893893
 30
0.0
 10
0.012997
 20
10.893698
 30
0.0
  0
SPLINE
  5
2a3
100
AcDbEntity
  8
Letters
 62
7
100
AcDbSpline
 70
8
 71
3
 72
8
 73
4
 74
0
 40
0
 40
0
 40
0
 40
0
 40
1
 40
1
 40
1
 40
1
 10
0.012997
 20
10.893698
 30
0.0
 10
0.012996
 20
10.892939
 30
0.0
 10
0.013000
 20
10.892180
 30
0.0
 10
0.012995
 20
10.891422
 30
0.0
  0
SPLINE
  5
2a4
100
AcDbEntity
  8
Letters
 62
7
100
AcDbSpline
 70
8
 71
3
 72
8
 73
4
 74
0
 40
0
 40
0
 40
0
 40
0
 40
1
 40
1
 40
1
 40
1
 10
0.012995
 20
10.891422
 30
0.0
 10
0.012949
 20
10.891075
 30
0.0
 10
0.012782
 20
10.890740
 30
0.0
 10
0.012505
 20
10.890520
 30
0.0
  0
SPLINE
  5
2a5
100
AcDbEntity
  8
Letters
 62
7
100
AcDbSpline
 70
8
 71
3
 72
8
 73
4
 74
0
 40
0
 40
0
 40
0
 40
0
 40
1
 40
1
 40
1
 40
1
 10
0.012505
 20
10.890520
 30
0.0
 10
0.012289
 20
10.890343
 30
0.0
 10
0.012018
 20
10.890230
 30
0.0
 10
0.011737
 20
10.890216
 30
0.0
  0
SPLINE
  5
2a6
100
AcDbEntity
  8
Letters
 62
7
100
AcDbSpline
 70
8
 71
3
 72
8
 73
4
 74
0
 40
0
 40
0
 40
0
 40
0
 40
1
 40
1
 40
1
 40
1
 10
0.011737
 20
10.890216
 30
0.0
 10
0.011477
 20
10.890197
 30
0.0
 10
0.011209
 20
10.890238
 30
0.0
 10
0.010977
 20
10.890362
 30
0.0
  0
SPLINE
  5
2a7
100
AcDbEntity
  8
Letters
 62
7
100
AcDbSpline
 70
8
 71
3
 72
8
 73
4
 74
0
 40
0
 40
0
 40
0
 40
0
 40
1
 40
1
 40
1
 40
1
 10
0.010977
 20
10.890362
 30
0.0
 10
0.010669
 20
10.890524
 30
0.0
 10
0.010421
 20
10.890803
 30
0.0
 10
0.010317
 20
10.891137
 30
0.0
  0
SPLINE
  5
2a8
100
AcDbEntity
  8
Letters
 62
7
100
AcDbSpline
 70
8
 71
3
 72
8
 73
4
 74
0
 40
0
 40
0
 40
0
 40
0
 40
1
 40
1
 40
1
 40
1
 10
0.010317
 20
10.891137
 30
0.0
 10
0.010291
 20
10.891211
 30
0.0
 10
0.010271
 20
10.891286
 30
0.0
 10
0.010258
 20
10.891363
 30
0.0
  0
LWPOLYLINE
  5
2a9
100
AcDbEntity
  8
Letters
 62
7
100
AcDbPolyline
 90
2
 70
1
 10
0.015067
 20
10.889052
 30
0.0
 10
0.015067
 20
10.889052
 30
0.0
  0
SPLINE
  5
2aa
100
AcDbEntity
  8
Letters
 62
7
100
AcDbSpline
 70
8
 71
3
 72
8
 73
4
 74
0
 40
0
 40
0
 40
0
 40
0
 40
1
 40
1
 40
1
 40
1
 10
0.015067
 20
10.878829
 30
0.0
 10
0.015276
 20
10.879205
 30
0.0
 10
0.015288
 20
10.879642
 30
0.0
 10
0.015260
 20
10.880058
 30
0.0
  0
SPLINE
  5
2ab
100
AcDbEntity
  8
Letters
 62
7
100
AcDbSpline
 70
8
 71
3
 72
8
 73
4
 74
0
 40
0
 40
0
 40
0
 40
0
 40
1
 40
1
 40
1
 40
1
 10
0.015260
 20
10.880058
 30
0.0
 10
0.015258
 20
10.881874
 30
0.0
 10
0.015265
 20
10.883691
 30
0.0
 10
0.015257
 20
10.885506
 30
0.0
  0
SPLINE
  5
2ac
100
AcDbEntity
  8
Letters
 62
7
100
AcDbSpline
 70
8
 71
3
 72
8
 73
4
 74
0
 40
0
 40
0
 40
0
 40
0
 40
1
 40
1
 40
1
 40
1
 10
0.015257
 20
10.885506
 30
0.0
 10
0.015203
 20
10.886224
 30
0.0
 10
0.014674
 20
10.886873
 30
0.0
 10
0.013970
 20
10.887105
 30
0.0
  0
SPLINE
  5
2ad
100
AcDbEntity
  8
Letters
 62
7
100
AcDbSpline
 70
8
 71
3
 72
8
 73
4
 74
0
 40
0
 40
0
 40
0
 40
0
 40
1
 40
1
 40
1
 40
1
 10
0.013970
 20
10.887105
 30
0.0
 10
0.013630
 20
10.887203
 30
0.0
 10
0.013272
 20
10.887214
 30
0.0
 10
0.012920
 20
10.887198
 30
0.0
  0
SPLINE
  5
2ae
100
AcDbEntity
  8
Letters
 62
7
100
AcDbSpline
 70
8
 71
3
 72
8
 73
4
 74
0
 40
0
 40
0
 40
0
 40
0
 40
1
 40
1
 40
1
 40
1
 10
0.012920
 20
10.887198
 30
0.0
 10
0.011898
 20
10.887194
 30
0.0
 10
0.010876
 20
10.887207
 30
0.0
 10
0.009855
 20
10.887192
 30
0.0
  0
SPLINE
  5
2af
100
AcDbEntity
  8
Letters
 62
7
100
AcDbSpline
 70
8
 71
3
 72
8
 73
4
 74
0
 40
0
 40
0
 40
0
 40
0
 40
1
 40
1
 40
1
 40
1
 10
0.009855
 20
10.887192
 30
0.0
 10
0.009131
 20
10.887140
 30
0.0
 10
0.008473
 20
10.886679
 30
0.0
 10
0.008174
 20
10.886045
 30
0.0
  0
SPLINE
  5
2b0
100
AcDbEntity
  8
Letters
 62
7
100
AcDbSpline
 70
8
 71
3
 72
8
 73
4
 74
0
 40
0
 40
0
 40
0
 40
0
 40
1
 40
1
 40
1
 40
1
 10
0.008174
 20
10.886045
 30
0.0
 10
0.008017
 20
10.885711
 30
0.0
 10
0.007987
 20
10.885638
 30
0.0
 10
0.008002
 20
10.884953
 30
0.0
  0
SPLINE
  5
2b1
100
AcDbEntity
  8
Letters
 62
7
100
AcDbSpline
 70
8
 71
3
 72
8
 73
4
 74
0
 40
0
 40
0
 40
0
 40
0
 40
1
 40
1
 40
1
 40
1
 10
0.008002
 20
10.884953
 30
0.0
 10
0.007999
 20
10.883237
 30
0.0
 10
0.008006
 20
10.881537
 30
0.0
 10
0.007998
 20
10.879837
 30
0.0
  0
SPLINE
  5
2b2
100
AcDbEntity
  8
Letters
 62
7
100
AcDbSpline
 70
8
 71
3
 72
8
 73
4
 74
0
 40
0
 40
0
 40
0
 40
0
 40
1
 40
1
 40
1
 40
1
 10
0.007998
 20
10.879837
 30
0.0
 10
0.007943
 20
10.879171
 30
0.0
 10
0.008276
 20
10.878495
 30
0.0
 10
0.008843
 20
10.878113
 30
0.0
  0
SPLINE
  5
2b3
100
AcDbEntity
  8
Letters
 62
7
100
AcDbSpline
 70
8
 71
3
 72
8
 73
4
 74
0
 40
0
 40
0
 40
0
 40
0
 40
1
 40
1
 40
1
 40
1
 10
0.008843
 20
10.878113
 30
0.0
 10
0.009237
 20
10.877833
 30
0.0
 10
0.009450
 20
10.877786
 30
0.0
 10
0.010227
 20
10.877778
 30
0.0
  0
SPLINE
  5
2b4
100
AcDbEntity
  8
Letters
 62
7
100
AcDbSpline
 70
8
 71
3
 72
8
 73
4
 74
0
 40
0
 40
0
 40
0
 40
0
 40
1
 40
1
 40
1
 40
1
 10
0.010227
 20
10.877778
 30
0.0
 10
0.011206
 20
10.877778
 30
0.0
 10
0.012186
 20
10.877778
 30
0.0
 10
0.013165
 20
10.877788
 30
0.0
  0
SPLINE
  5
2b5
100
AcDbEntity
  8
Letters
 62
7
100
AcDbSpline
 70
8
 71
3
 72
8
 73
4
 74
0
 40
0
 40
0
 40
0
 40
0
 40
1
 40
1
 40
1
 40
1
 10
0.013165
 20
10.877788
 30
0.0
 10
0.013961
 20
10.877785
 30
0.0
 10
0.014732
 20
10.878149
 30
0.0
 10
0.015067
 20
10.878829
 30
0.0
  0
LWPOLYLINE
  5
2b6
100
AcDbEntity
  8
Letters
 62
7
100
AcDbPolyline
 90
2
 70
1
 10
0.010258
 20
10.891363
 30
0.0
 10
0.010258
 20
10.891363
 30
0.0
  0
SPLINE
  5
2b7
100
AcDbEntity
  8
Letters
 62
7
100
AcDbSpline
 70
8
 71
3
 72
8
 73
4
 74
0
 40
0
 40
0
 40
0
 40
0
 40
1
 40
1
 40
1
 40
1
 10
0.010258
 20
10.881141
 30
0.0
 10
0.010233
 20
10.881342
 30
0.0
 10
0.010254
 20
10.881547
 30
0.0
 10
0.010247
 20
10.881749
 30
0.0
  0
SPLINE
  5
2b8
100
AcDbEntity
  8
Letters
 62
7
100
AcDbSpline
 70
8
 71
3
 72
8
 73
4
 74
0
 40
0
 40
0
 40
0
 40
0
 40
1
 40
1
 40
1
 40
1
 10
0.010247
 20
10.881749
 30
0.0
 10
0.010248
 20
10.882428
 30
0.0
 10
0.010244
 20
10.883107
 30
0.0
 10
0.010249
 20
10.883785
 30
0.0
  0
SPLINE
  5
2b9
100
AcDbEntity
  8
Letters
 62
7
100
AcDbSpline
 70
8
 71
3
 72
8
 73
4
 74
0
 40
0
 40
0
 40
0
 40
0
 40
1
 40
1
 40
1
 40
1
 10
0.010249
 20
10.883785
 30
0.0
 10
0.010296
 20
10.884128
 30
0.0
 10
0.010458
 20
10.884460
 30
0.0
 10
0.010730
 20
10.884679
 30
0.0
  0
SPLINE
  5
2ba
100
AcDbEntity
  8
Letters
 62
7
100
AcDbSpline
 70
8
 71
3
 72
8
 73
4
 74
0
 40
0
 40
0
 40
0
 40
0
 40
1
 40
1
 40
1
 40
1
 10
0.010730
 20
10.884679
 30
0.0
 10
0.010945
 20
10.884859
 30
0.0
 10
0.011215
 20
10.884975
 30
0.0
 10
0.011496
 20
10.884990
 30
0.0
  0
SPLINE
  5
2bb
100
AcDbEntity
  8
Letters
 62
7
100
AcDbSpline
 70
8
 71
3
 72
8
 73
4
 74
0
 40
0
 40
0
 40
0
 40
0
 40
1
 40
1
 40
1
 40
1
 10
0.011496
 20
10.884990
 30
0.0
 10
0.011760
 20
10.885011
 30
0.0
 10
0.012032
 20
10.884971
 30
0.0
 10
0.012267
 20
10.884845
 30
0.0
  0
SPLINE
  5
2bc
100
AcDbEntity
  8
Letters
 62
7
100
AcDbSpline
 70
8
 71
3
 72
8
 73
4
 74
0
 40
0
 40
0
 40
0
 40
0
 40
1
 40
1
 40
1
 40
1
 10
0.012267
 20
10.884845
 30
0.0
 10
0.012581
 20
10.884681
 30
0.0
 10
0.012831
 20
10.884395
 30
0.0
 10
0.012933
 20
10.884054
 30
0.0
  0
SPLINE
  5
2bd
100
AcDbEntity
  8
Letters
 62
7
100
AcDbSpline
 70
8
 71
3
 72
8
 73
4
 74
0
 40
0
 40
0
 40
0
 40
0
 40
1
 40
1
 40
1
 40
1
 10
0.012933
 20
10.884054
 30
0.0
 10
0.013006
 20
10.883870
 30
0.0
 10
0.013000
 20
10.883671
 30
0.0
 10
0.012997
 20
10.883476
 30
0.0
  0
SPLINE
  5
2be
100
AcDbEntity
  8
Letters
 62
7
100
AcDbSpline
 70
8
 71
3
 72
8
 73
4
 74
0
 40
0
 40
0
 40
0
 40
0
 40
1
 40
1
 40
1
 40
1
 10
0.012997
 20
10.883476
 30
0.0
 10
0.012996
 20
10.882717
 30
0.0
 10
0.013000
 20
10.881958
 30
0.0
 10
0.012995
 20
10.881199
 30
0.0
  0
SPLINE
  5
2bf
100
AcDbEntity
  8
Letters
 62
7
100
AcDbSpline
 70
8
 71
3
 72
8
 73
4
 74
0
 40
0
 40
0
 40
0
 40
0
 40
1
 40
1
 40
1
 40
1
 10
0.012995
 20
10.881199
 30
0.0
 10
0.012949
 20
10.880853
 30
0.0
 10
0.012782
 20
10.880518
 30
0.0
 10
0.012505
 20
10.880298
 30
0.0
  0
SPLINE
  5
2c0
100
AcDbEntity
  8
Letters
 62
7
100
AcDbSpline
 70
8
 71
3
 72
8
 73
4
 74
0
 40
0
 40
0
 40
0
 40
0
 40
1
 40
1
 40
1
 40
1
 10
0.012505
 20
10.880298
 30
0.0
 10
0.012289
 20
10.880120
 30
0.0
 10
0.012018
 20
10.880008
 30
0.0
 10
0.011737
 20
10.879994
 30
0.0
  0
SPLINE
  5
2c1
100
AcDbEntity
  8
Letters
 62
7
100
AcDbSpline
 70
8
 71
3
 72
8
 73
4
 74
0
 40
0
 40
0
 40
0
 40
0
 40
1
 40
1
 40
1
 40
1
 10
0.011737
 20
10.879994
 30
0.0
 10
0.011477
 20
10.879975
 30
0.0
 10
0.011209
 20
10.880016
 30
0.0
 10
0.010977
 20
10.880140
 30
0.0
  0
SPLINE
  5
2c2
100
AcDbEntity
  8
Letters
 62
7
100
AcDbSpline
 70
8
 71
3
 72
8
 73
4
 74
0
 40
0
 40
0
 40
0
 40
0
 40
1
 40
1
 40
1
 40
1
 10
0.010977
 20
10.880140
 30
0.0
 10
0.010669
 20
10.880301
 30
0.0
 10
0.010421
 20
10.880580
 30
0.0
 10
0.010317
 20
10.880915
 30
0.0
  0
SPLINE
  5
2c3
100
AcDbEntity
  8
Letters
 62
7
100
AcDbSpline
 70
8
 71
3
 72
8
 73
4
 74
0
 40
0
 40
0
 40
0
 40
0
 40
1
 40
1
 40
1
 40
1
 10
0.010317
 20
10.880915
 30
0.0
 10
0.010291
 20
10.880988
 30
0.0
 10
0.010271
 20
10.881064
 30
0.0
 10
0.010258
 20
10.881141
 30
0.0
  0
LWPOLYLINE
  5
2c4
100
AcDbEntity
  8
Letters
 62
7
100
AcDbPolyline
 90
2
 70
1
 10
0.015067
 20
10.878829
 30
0.0
 10
0.015067
 20
10.878829
 30
0.0
  0
SPLINE
  5
2c5
100
AcDbEntity
  8
Letters
 62
7
100
AcDbSpline
 70
8
 71
3
 72
8
 73
4
 74
0
 40
0
 40
0
 40
0
 40
0
 40
1
 40
1
 40
1
 40
1
 10
0.004161
 20
10.887196
 30
0.0
 10
0.002784
 20
10.887196
 30
0.0
 10
0.001407
 20
10.887196
 30
0.0
 10
0.000029
 20
10.887196
 30
0.0
  0
SPLINE
  5
2c6
100
AcDbEntity
  8
Letters
 62
7
100
AcDbSpline
 70
8
 71
3
 72
8
 73
4
 74
0
 40
0
 40
0
 40
0
 40
0
 40
1
 40
1
 40
1
 40
1
 10
0.000029
 20
10.887196
 30
0.0
 10
0.000029
 20
10.884056
 30
0.0
 10
0.000029
 20
10.880917
 30
0.0
 10
0.000029
 20
10.877778
 30
0.0
  0
SPLINE
  5
2c7
100
AcDbEntity
  8
Letters
 62
7
100
AcDbSpline
 70
8
 71
3
 72
8
 73
4
 74
0
 40
0
 40
0
 40
0
 40
0
 40
1
 40
1
 40
1
 40
1
 10
0.000029
 20
10.877778
 30
0.0
 10
0.000623
 20
10.877778
 30
0.0
 10
0.001464
 20
10.877778
 30
0.0
 10
0.002058
 20
10.877778
 30
0.0
  0
SPLINE
  5
2c8
100
AcDbEntity
  8
Letters
 62
7
100
AcDbSpline
 70
8
 71
3
 72
8
 73
4
 74
0
 40
0
 40
0
 40
0
 40
0
 40
1
 40
1
 40
1
 40
1
 10
0.002058
 20
10.877778
 30
0.0
 10
0.002058
 20
10.878605
 30
0.0
 10
0.002058
 20
10.879074
 30
0.0
 10
0.002058
 20
10.879902
 30
0.0
  0
SPLINE
  5
2c9
100
AcDbEntity
  8
Letters
 62
7
100
AcDbSpline
 70
8
 71
3
 72
8
 73
4
 74
0
 40
0
 40
0
 40
0
 40
0
 40
1
 40
1
 40
1
 40
1
 10
0.002058
 20
10.879902
 30
0.0
 10
0.003006
 20
10.879905
 30
0.0
 10
0.003708
 20
10.879895
 30
0.0
 10
0.004656
 20
10.879906
 30
0.0
  0
SPLINE
  5
2ca
100
AcDbEntity
  8
Letters
 62
7
100
AcDbSpline
 70
8
 71
3
 72
8
 73
4
 74
0
 40
0
 40
0
 40
0
 40
0
 40
1
 40
1
 40
1
 40
1
 10
0.004656
 20
10.879906
 30
0.0
 10
0.005538
 20
10.880038
 30
0.0
 10
0.006367
 20
10.880909
 30
0.0
 10
0.006820
 20
10.881673
 30
0.0
  0
SPLINE
  5
2cb
100
AcDbEntity
  8
Letters
 62
7
100
AcDbSpline
 70
8
 71
3
 72
8
 73
4
 74
0
 40
0
 40
0
 40
0
 40
0
 40
1
 40
1
 40
1
 40
1
 10
0.006820
 20
10.881673
 30
0.0
 10
0.007000
 20
10.882001
 30
0.0
 10
0.007200
 20
10.882353
 30
0.0
 10
0.007156
 20
10.882739
 30
0.0
  0
SPLINE
  5
2cc
100
AcDbEntity
  8
Letters
 62
7
100
AcDbSpline
 70
8
 71
3
 72
8
 73
4
 74
0
 40
0
 40
0
 40
0
 40
0
 40
1
 40
1
 40
1
 40
1
 10
0.007156
 20
10.882739
 30
0.0
 10
0.007148
 20
10.883357
 30
0.0
 10
0.007172
 20
10.883977
 30
0.0
 10
0.007144
 20
10.884594
 30
0.0
  0
SPLINE
  5
2cd
100
AcDbEntity
  8
Letters
 62
7
100
AcDbSpline
 70
8
 71
3
 72
8
 73
4
 74
0
 40
0
 40
0
 40
0
 40
0
 40
1
 40
1
 40
1
 40
1
 10
0.007144
 20
10.884594
 30
0.0
 10
0.006999
 20
10.885713
 30
0.0
 10
0.006196
 20
10.886710
 30
0.0
 10
0.005135
 20
10.887127
 30
0.0
  0
SPLINE
  5
2ce
100
AcDbEntity
  8
Letters
 62
7
100
AcDbSpline
 70
8
 71
3
 72
8
 73
4
 74
0
 40
0
 40
0
 40
0
 40
0
 40
1
 40
1
 40
1
 40
1
 10
0.005135
 20
10.887127
 30
0.0
 10
0.004813
 20
10.887213
 30
0.0
 10
0.004687
 20
10.887192
 30
0.0
 10
0.004161
 20
10.887196
 30
0.0
  0
LWPOLYLINE
  5
2cf
100
AcDbEntity
  8
Letters
 62
7
100
AcDbPolyline
 90
2
 70
1
 10
0.010258
 20
10.881141
 30
0.0
 10
0.010258
 20
10.881141
 30
0.0
  0
SPLINE
  5
2d0
100
AcDbEntity
  8
Letters
 62
7
100
AcDbSpline
 70
8
 71
3
 72
8
 73
4
 74
0
 40
0
 40
0
 40
0
 40
0
 40
1
 40
1
 40
1
 40
1
 10
0.002319
 20
10.883707
 30
0.0
 10
0.002277
 20
10.884305
 30
0.0
 10
0.002703
 20
10.884890
 30
0.0
 10
0.003284
 20
10.885035
 30
0.0
  0
SPLINE
  5
2d1
100
AcDbEntity
  8
Letters
 62
7
100
AcDbSpline
 70
8
 71
3
 72
8
 73
4
 74
0
 40
0
 40
0
 40
0
 40
0
 40
1
 40
1
 40
1
 40
1
 10
0.003284
 20
10.885035
 30
0.0
 10
0.003841
 20
10.885201
 30
0.0
 10
0.004480
 20
10.884942
 30
0.0
 10
0.004769
 20
10.884439
 30
0.0
  0
SPLINE
  5
2d2
100
AcDbEntity
  8
Letters
 62
7
100
AcDbSpline
 70
8
 71
3
 72
8
 73
4
 74
0
 40
0
 40
0
 40
0
 40
0
 40
1
 40
1
 40
1
 40
1
 10
0.004769
 20
10.884439
 30
0.0
 10
0.005111
 20
10.883887
 30
0.0
 10
0.004958
 20
10.883103
 30
0.0
 10
0.004435
 20
10.882719
 30
0.0
  0
SPLINE
  5
2d3
100
AcDbEntity
  8
Letters
 62
7
100
AcDbSpline
 70
8
 71
3
 72
8
 73
4
 74
0
 40
0
 40
0
 40
0
 40
0
 40
1
 40
1
 40
1
 40
1
 10
0.004435
 20
10.882719
 30
0.0
 10
0.003929
 20
10.882317
 30
0.0
 10
0.003125
 20
10.882375
 30
0.0
 10
0.002693
 20
10.882859
 30
0.0
  0
SPLINE
  5
2d4
100
AcDbEntity
  8
Letters
 62
7
100
AcDbSpline
 70
8
 71
3
 72
8
 73
4
 74
0
 40
0
 40
0
 40
0
 40
0
 40
1
 40
1
 40
1
 40
1
 10
0.002693
 20
10.882859
 30
0.0
 10
0.002470
 20
10.883085
 30
0.0
 10
0.002338
 20
10.883392
 30
0.0
 10
0.002319
 20
10.883707
 30
0.0
  0
LWPOLYLINE
  5
2d5
100
AcDbEntity
  8
Letters
 62
7
100
AcDbPolyline
 90
2
 70
1
 10
0.004161
 20
10.887196
 30
0.0
 10
0.004161
 20
10.887196
 30
0.0
  0
LWPOLYLINE
  5
2d6
100
AcDbEntity
  8
Letters
 62
7
100
AcDbPolyline
 90
2
 70
1
 10
0.002319
 20
10.883707
 30
0.0
 10
0.002319
 20
10.883707
 30
0.0
  0
LWPOLYLINE
  5
2d7
100
AcDbEntity
  8
Letters
 62
7
100
AcDbPolyline
 90
9
 70
1
 10
0.002569
 20
10.895112
 30
0.0
 10
0.002567
 20
10.888000
 30
0.0
 10
0.004500
 20
10.888000
 30
0.0
 10
0.004502
 20
10.895109
 30
0.0
 10
0.007000
 20
10.895109
 30
0.0
 10
0.007000
 20
10.897444
 30
0.0
 10
0.000164
 20
10.897444
 30
0.0
 10
0.000169
 20
10.895113
 30
0.0
 10
0.002569
 20
10.895112
 30
0.0
  0
LWPOLYLINE
  5
2d8
100
AcDbEntity
  8
Letters
 62
7
100
AcDbPolyline
 90
6
 70
1
 10
0.039289
 20
10.877778
 30
0.0
 10
0.000000
 20
10.877778
 30
0.0
 10
0.000000
 20
10.918056
 30
0.0
 10
0.039289
 20
10.918056
 30
0.0
 10
0.039289
 20
10.877778
 30
0.0
 10
0.039289
 20
10.877778
 30
0.0
  0
ENDSEC
  0
SECTION
  2
OBJECTS
  0
DICTIONARY
  5
C
330
0
100
AcDbDictionary
  3
ACAD_GROUP
350
D
  3
ACAD_MLINESTYLE
350
17
  0
DICTIONARY
  5
D
330
C
100
AcDbDictionary
  0
DICTIONARY
  5
1A
330
C
100
AcDbDictionary
  0
DICTIONARY
  5
17
330
C
100
AcDbDictionary
  3
STANDARD
350
18
  0
DICTIONARY
  5
19
330
C
100
AcDbDictionary
  0
ENDSEC
  0
EOF
