999
Inkscape export via "Better DXF Output" (bob@bobcookdev.com)
  0
SECTION
  2
HEADER
  9
$ACADVER
  1
AC1014
  9
$HANDSEED
  5
FFFF
  0
ENDSEC
  0
SECTION
  2
TABLES
  0
TABLE
  2
VPORT
  5
8
330
0
100
AcDbSymbolTable
 70
     4
  0
VPORT
  5
2E
330
8
100
AcDbSymbolTableRecord
100
AcDbViewportTableRecord
  2
*ACTIVE
 70
     0
 10
0.0
 20
0.0
 11
1.0
 21
1.0
 12
4.25
 22
5.5
 13
0.0
 23
0.0
 14
10.0
 24
10.0
 15
10.0
 25
10.0
 16
0.0
 26
0.0
 36
1.0
 17
0.0
 27
0.0
 37
0.0
 40
11
 41
1.24
 42
50.0
 43
0.0
 44
0.0
 50
0.0
 51
0.0
 71
     0
 72
   100
 73
     1
 74
     3
 75
     0
 76
     0
 77
     0
 78
     0
  0
ENDTAB
  0
TABLE
  2
LTYPE
  5
5
330
0
100
AcDbSymbolTable
 70
     1
  0
LTYPE
  5
14
330
5
100
AcDbSymbolTableRecord
100
AcDbLinetypeTableRecord
  2
BYBLOCK
 70
     0
  3

 72
    65
 73
     0
 40
0.0
  0
LTYPE
  5
15
330
5
100
AcDbSymbolTableRecord
100
AcDbLinetypeTableRecord
  2
BYLAYER
 70
     0
  3

 72
    65
 73
     0
 40
0.0
  0
LTYPE
  5
16
330
5
100
AcDbSymbolTableRecord
100
AcDbLinetypeTableRecord
  2
CONTINUOUS
 70
     0
  3
Solid line
 72
    65
 73
     0
 40
0.0
  0
ENDTAB
  0
TABLE
  2
LAYER
  5
2
330
0
100
AcDbSymbolTable
 70
1
  0
LAYER
  5
10
330
2
100
AcDbSymbolTableRecord
100
AcDbLayerTableRecord
  2
0
 70
     0
 62
     7
  6
CONTINUOUS
  0
ENDTAB
  0
TABLE
  2
STYLE
  5
3
330
0
100
AcDbSymbolTable
 70
     1
  0
STYLE
  5
11
330
3
100
AcDbSymbolTableRecord
100
AcDbTextStyleTableRecord
  2
STANDARD
 70
     0
 40
0.0
 41
1.0
 50
0.0
 71
     0
 42
2.5
  3
txt
  4

  0
ENDTAB
  0
TABLE
  2
VIEW
  5
6
330
0
100
AcDbSymbolTable
 70
     0
  0
ENDTAB
  0
TABLE
  2
UCS
  5
7
330
0
100
AcDbSymbolTable
 70
     0
  0
ENDTAB
  0
TABLE
  2
APPID
  5
9
330
0
100
AcDbSymbolTable
 70
     2
  0
APPID
  5
12
330
9
100
AcDbSymbolTableRecord
100
AcDbRegAppTableRecord
  2
ACAD
 70
     0
  0
ENDTAB
  0
TABLE
  2
DIMSTYLE
  5
A
330
0
100
AcDbSymbolTable
 70
     1
  0
DIMSTYLE
105
27
330
A
100
AcDbSymbolTableRecord
100
AcDbDimStyleTableRecord
  2
ISO-25
 70
     0
  3

  4

  5

  6

  7

 40
1.0
 41
2.5
 42
0.625
 43
3.75
 44
1.25
 45
0.0
 46
0.0
 47
0.0
 48
0.0
140
2.5
141
2.5
142
0.0
143
0.03937007874016
144
1.0
145
0.0
146
1.0
147
0.625
 71
     0
 72
     0
 73
     0
 74
     0
 75
     0
 76
     0
 77
     1
 78
     8
170
     0
171
     3
172
     1
173
     0
174
     0
175
     0
176
     0
177
     0
178
     0
270
     2
271
     2
272
     2
273
     2
274
     3
340
11
275
     0
280
     0
281
     0
282
     0
283
     0
284
     8
285
     0
286
     0
287
     3
288
     0
  0
ENDTAB
  0
TABLE
  2
BLOCK_RECORD
  5
1
330
0
100
AcDbSymbolTable
 70
     1
  0
BLOCK_RECORD
  5
1F
330
1
100
AcDbSymbolTableRecord
100
AcDbBlockTableRecord
  2
*MODEL_SPACE
  0
BLOCK_RECORD
  5
1B
330
1
100
AcDbSymbolTableRecord
100
AcDbBlockTableRecord
  2
*PAPER_SPACE
  0
ENDTAB
  0
ENDSEC
  0
SECTION
  2
BLOCKS
  0
BLOCK
  5
20
330
1F
100
AcDbEntity
  8
0
100
AcDbBlockBegin
  2
*MODEL_SPACE
 70
     0
 10
0.0
 20
0.0
 30
0.0
  3
*MODEL_SPACE
  1

  0
ENDBLK
  5
21
330
1F
100
AcDbEntity
  8
0
100
AcDbBlockEnd
  0
BLOCK
  5
1C
330
1B
100
AcDbEntity
 67
     1
  8
0
100
AcDbBlockBegin
  2
*PAPER_SPACE
  1

  0
ENDBLK
  5
1D
330
1B
100
AcDbEntity
 67
     1
  8
0
100
AcDbBlockEnd
  0
ENDSEC
  0
SECTION
  2
ENTITIES
0
LINE
8
Letters
62
4
5
100
100
AcDbEntity
100
AcDbLine
10
0.105702
20
277.056714
30
0.0
11
0.000742
21
277.056714
31
0.0
0
LINE
8
Letters
62
4
5
101
100
AcDbEntity
100
AcDbLine
10
0.000742
20
277.056714
30
0.0
11
0.000742
21
276.815765
31
0.0
0
LINE
8
Letters
62
4
5
102
100
AcDbEntity
100
AcDbLine
10
0.000742
20
276.815765
30
0.0
11
0.052271
21
276.815765
31
0.0
0
LINE
8
Letters
62
4
5
103
100
AcDbEntity
100
AcDbLine
10
0.052271
20
276.815765
30
0.0
11
0.052271
21
276.870100
31
0.0
0
LINE
8
Letters
62
4
5
104
100
AcDbEntity
100
AcDbLine
10
0.052271
20
276.870100
30
0.0
11
0.118254
21
276.870220
31
0.0
0
LINE
8
Letters
62
4
5
105
100
AcDbEntity
100
AcDbLine
10
0.118254
20
276.870220
30
0.0
11
0.173220
21
276.915421
31
0.0
0
LINE
8
Letters
62
4
5
106
100
AcDbEntity
100
AcDbLine
10
0.173220
20
276.915421
30
0.0
11
0.181757
21
276.942686
31
0.0
0
LINE
8
Letters
62
4
5
107
100
AcDbEntity
100
AcDbLine
10
0.181757
20
276.942686
30
0.0
11
0.181449
21
276.990160
31
0.0
0
LINE
8
Letters
62
4
5
108
100
AcDbEntity
100
AcDbLine
10
0.181449
20
276.990160
30
0.0
11
0.130428
21
277.054964
31
0.0
0
LINE
8
Letters
62
4
5
109
100
AcDbEntity
100
AcDbLine
10
0.130428
20
277.054964
30
0.0
11
0.105702
21
277.056714
31
0.0
0
LINE
8
Letters
62
4
5
10a
100
AcDbEntity
100
AcDbLine
10
0.105702
20
277.056714
30
0.0
11
0.105702
21
277.056714
31
0.0
0
LINE
8
Letters
62
4
5
10b
100
AcDbEntity
100
AcDbLine
10
0.058909
20
276.966374
30
0.0
11
0.083409
21
277.000097
31
0.0
0
LINE
8
Letters
62
4
5
10c
100
AcDbEntity
100
AcDbLine
10
0.083409
20
277.000097
30
0.0
11
0.121143
21
276.984971
31
0.0
0
LINE
8
Letters
62
4
5
10d
100
AcDbEntity
100
AcDbLine
10
0.121143
20
276.984971
30
0.0
11
0.112651
21
276.941283
31
0.0
0
LINE
8
Letters
62
4
5
10e
100
AcDbEntity
100
AcDbLine
10
0.112651
20
276.941283
30
0.0
11
0.068392
21
276.944830
31
0.0
0
LINE
8
Letters
62
4
5
10f
100
AcDbEntity
100
AcDbLine
10
0.068392
20
276.944830
30
0.0
11
0.058909
21
276.966374
31
0.0
0
LINE
8
Letters
62
4
5
110
100
AcDbEntity
100
AcDbLine
10
0.058909
20
276.966374
30
0.0
11
0.058909
21
276.966374
31
0.0
0
LINE
8
Letters
62
4
5
111
100
AcDbEntity
100
AcDbLine
10
0.064387
20
277.257962
30
0.0
11
0.064312
21
277.077311
31
0.0
0
LINE
8
Letters
62
4
5
112
100
AcDbEntity
100
AcDbLine
10
0.064312
20
277.077311
30
0.0
11
0.115979
21
277.077311
31
0.0
0
LINE
8
Letters
62
4
5
113
100
AcDbEntity
100
AcDbLine
10
0.115979
20
277.077311
30
0.0
11
0.116021
21
277.257884
31
0.0
0
LINE
8
Letters
62
4
5
114
100
AcDbEntity
100
AcDbLine
10
0.116021
20
277.257884
30
0.0
11
0.178243
21
277.257884
31
0.0
0
LINE
8
Letters
62
4
5
115
100
AcDbEntity
100
AcDbLine
10
0.178243
20
277.257884
30
0.0
11
0.178243
21
277.316241
31
0.0
0
LINE
8
Letters
62
4
5
116
100
AcDbEntity
100
AcDbLine
10
0.178243
20
277.316241
30
0.0
11
0.003440
21
277.316241
31
0.0
0
LINE
8
Letters
62
4
5
117
100
AcDbEntity
100
AcDbLine
10
0.003440
20
277.316241
30
0.0
11
0.003585
21
277.257982
31
0.0
0
LINE
8
Letters
62
4
5
118
100
AcDbEntity
100
AcDbLine
10
0.003585
20
277.257982
30
0.0
11
0.064387
21
277.257962
31
0.0
0
LINE
8
Letters
62
4
5
119
100
AcDbEntity
100
AcDbLine
10
0.382694
20
277.103557
30
0.0
11
0.387612
21
277.134759
31
0.0
0
LINE
8
Letters
62
4
5
11a
100
AcDbEntity
100
AcDbLine
10
0.387612
20
277.134759
30
0.0
11
0.387529
21
277.273158
31
0.0
0
LINE
8
Letters
62
4
5
11b
100
AcDbEntity
100
AcDbLine
10
0.387529
20
277.273158
30
0.0
11
0.354834
21
277.313760
31
0.0
0
LINE
8
Letters
62
4
5
11c
100
AcDbEntity
100
AcDbLine
10
0.354834
20
277.313760
30
0.0
11
0.328165
21
277.316128
31
0.0
0
LINE
8
Letters
62
4
5
11d
100
AcDbEntity
100
AcDbLine
10
0.328165
20
277.316128
30
0.0
11
0.250306
21
277.315973
31
0.0
0
LINE
8
Letters
62
4
5
11e
100
AcDbEntity
100
AcDbLine
10
0.250306
20
277.315973
30
0.0
11
0.207631
21
277.286825
31
0.0
0
LINE
8
Letters
62
4
5
11f
100
AcDbEntity
100
AcDbLine
10
0.207631
20
277.286825
30
0.0
11
0.203252
21
277.259108
31
0.0
0
LINE
8
Letters
62
4
5
120
100
AcDbEntity
100
AcDbLine
10
0.203252
20
277.259108
30
0.0
11
0.203146
21
277.129141
31
0.0
0
LINE
8
Letters
62
4
5
121
100
AcDbEntity
100
AcDbLine
10
0.203146
20
277.129141
30
0.0
11
0.224616
21
277.085362
31
0.0
0
LINE
8
Letters
62
4
5
122
100
AcDbEntity
100
AcDbLine
10
0.224616
20
277.085362
30
0.0
11
0.259757
21
277.076847
31
0.0
0
LINE
8
Letters
62
4
5
123
100
AcDbEntity
100
AcDbLine
10
0.259757
20
277.076847
30
0.0
11
0.334381
21
277.077098
31
0.0
0
LINE
8
Letters
62
4
5
124
100
AcDbEntity
100
AcDbLine
10
0.334381
20
277.077098
30
0.0
11
0.382694
21
277.103556
31
0.0
0
LINE
8
Letters
62
4
5
125
100
AcDbEntity
100
AcDbLine
10
0.382694
20
277.103556
30
0.0
11
0.382694
21
277.103557
31
0.0
0
LINE
8
Letters
62
4
5
126
100
AcDbEntity
100
AcDbLine
10
0.260562
20
277.162268
30
0.0
11
0.260272
21
277.177731
31
0.0
0
LINE
8
Letters
62
4
5
127
100
AcDbEntity
100
AcDbLine
10
0.260272
20
277.177731
30
0.0
11
0.260319
21
277.229443
31
0.0
0
LINE
8
Letters
62
4
5
128
100
AcDbEntity
100
AcDbLine
10
0.260319
20
277.229443
30
0.0
11
0.272549
21
277.252146
31
0.0
0
LINE
8
Letters
62
4
5
129
100
AcDbEntity
100
AcDbLine
10
0.272549
20
277.252146
30
0.0
11
0.292000
21
277.260040
31
0.0
0
LINE
8
Letters
62
4
5
12a
100
AcDbEntity
100
AcDbLine
10
0.292000
20
277.260040
30
0.0
11
0.311577
21
277.256354
31
0.0
0
LINE
8
Letters
62
4
5
12b
100
AcDbEntity
100
AcDbLine
10
0.311577
20
277.256354
30
0.0
11
0.328502
21
277.236268
31
0.0
0
LINE
8
Letters
62
4
5
12c
100
AcDbEntity
100
AcDbLine
10
0.328502
20
277.236268
30
0.0
11
0.330130
21
277.221585
31
0.0
0
LINE
8
Letters
62
4
5
12d
100
AcDbEntity
100
AcDbLine
10
0.330130
20
277.221585
30
0.0
11
0.330086
21
277.163757
31
0.0
0
LINE
8
Letters
62
4
5
12e
100
AcDbEntity
100
AcDbLine
10
0.330086
20
277.163757
30
0.0
11
0.317635
21
277.140863
31
0.0
0
LINE
8
Letters
62
4
5
12f
100
AcDbEntity
100
AcDbLine
10
0.317635
20
277.140863
30
0.0
11
0.298116
21
277.133130
31
0.0
0
LINE
8
Letters
62
4
5
130
100
AcDbEntity
100
AcDbLine
10
0.298116
20
277.133130
30
0.0
11
0.278828
21
277.136850
31
0.0
0
LINE
8
Letters
62
4
5
131
100
AcDbEntity
100
AcDbLine
10
0.278828
20
277.136850
30
0.0
11
0.262044
21
277.156526
31
0.0
0
LINE
8
Letters
62
4
5
132
100
AcDbEntity
100
AcDbLine
10
0.262044
20
277.156526
30
0.0
11
0.260563
21
277.162267
31
0.0
0
LINE
8
Letters
62
4
5
133
100
AcDbEntity
100
AcDbLine
10
0.260563
20
277.162267
30
0.0
11
0.260562
21
277.162268
31
0.0
0
LINE
8
Letters
62
4
5
134
100
AcDbEntity
100
AcDbLine
10
0.523303
20
277.182460
30
0.0
11
0.535496
21
277.189778
31
0.0
0
LINE
8
Letters
62
4
5
135
100
AcDbEntity
100
AcDbLine
10
0.535496
20
277.189778
30
0.0
11
0.535615
21
277.299285
31
0.0
0
LINE
8
Letters
62
4
5
136
100
AcDbEntity
100
AcDbLine
10
0.535615
20
277.299285
30
0.0
11
0.563683
21
277.316799
31
0.0
0
LINE
8
Letters
62
4
5
137
100
AcDbEntity
100
AcDbLine
10
0.563683
20
277.316799
30
0.0
11
0.590437
21
277.294623
31
0.0
0
LINE
8
Letters
62
4
5
138
100
AcDbEntity
100
AcDbLine
10
0.590437
20
277.294623
30
0.0
11
0.591159
21
277.098746
31
0.0
0
LINE
8
Letters
62
4
5
139
100
AcDbEntity
100
AcDbLine
10
0.591159
20
277.098746
30
0.0
11
0.571288
21
277.078148
31
0.0
0
LINE
8
Letters
62
4
5
13a
100
AcDbEntity
100
AcDbLine
10
0.571288
20
277.078148
30
0.0
11
0.553528
21
277.078594
31
0.0
0
LINE
8
Letters
62
4
5
13b
100
AcDbEntity
100
AcDbLine
10
0.553528
20
277.078594
30
0.0
11
0.538757
21
277.086307
31
0.0
0
LINE
8
Letters
62
4
5
13c
100
AcDbEntity
100
AcDbLine
10
0.538757
20
277.086307
30
0.0
11
0.500517
21
277.120390
31
0.0
0
LINE
8
Letters
62
4
5
13d
100
AcDbEntity
100
AcDbLine
10
0.500517
20
277.120390
30
0.0
11
0.499408
21
277.120711
31
0.0
0
LINE
8
Letters
62
4
5
13e
100
AcDbEntity
100
AcDbLine
10
0.499408
20
277.120711
30
0.0
11
0.498618
21
277.120626
31
0.0
0
LINE
8
Letters
62
4
5
13f
100
AcDbEntity
100
AcDbLine
10
0.498618
20
277.120626
30
0.0
11
0.497226
21
277.119833
31
0.0
0
LINE
8
Letters
62
4
5
140
100
AcDbEntity
100
AcDbLine
10
0.497226
20
277.119833
30
0.0
11
0.458334
21
277.081961
31
0.0
0
LINE
8
Letters
62
4
5
141
100
AcDbEntity
100
AcDbLine
10
0.458334
20
277.081961
30
0.0
11
0.427028
21
277.078532
31
0.0
0
LINE
8
Letters
62
4
5
142
100
AcDbEntity
100
AcDbLine
10
0.427028
20
277.078532
30
0.0
11
0.407269
21
277.103907
31
0.0
0
LINE
8
Letters
62
4
5
143
100
AcDbEntity
100
AcDbLine
10
0.407269
20
277.103907
30
0.0
11
0.406902
21
277.295632
31
0.0
0
LINE
8
Letters
62
4
5
144
100
AcDbEntity
100
AcDbLine
10
0.406902
20
277.295632
30
0.0
11
0.429982
21
277.316252
31
0.0
0
LINE
8
Letters
62
4
5
145
100
AcDbEntity
100
AcDbLine
10
0.429982
20
277.316252
30
0.0
11
0.461683
21
277.295236
31
0.0
0
LINE
8
Letters
62
4
5
146
100
AcDbEntity
100
AcDbLine
10
0.461683
20
277.295236
30
0.0
11
0.461111
21
277.192403
31
0.0
0
LINE
8
Letters
62
4
5
147
100
AcDbEntity
100
AcDbLine
10
0.461111
20
277.192403
30
0.0
11
0.479140
21
277.185527
31
0.0
0
LINE
8
Letters
62
4
5
148
100
AcDbEntity
100
AcDbLine
10
0.479140
20
277.185527
30
0.0
11
0.496797
21
277.206544
31
0.0
0
LINE
8
Letters
62
4
5
149
100
AcDbEntity
100
AcDbLine
10
0.496797
20
277.206544
30
0.0
11
0.504401
21
277.206036
31
0.0
0
LINE
8
Letters
62
4
5
14a
100
AcDbEntity
100
AcDbLine
10
0.504401
20
277.206036
30
0.0
11
0.523301
21
277.182458
31
0.0
0
LINE
8
Letters
62
4
5
14b
100
AcDbEntity
100
AcDbLine
10
0.523301
20
277.182458
30
0.0
11
0.523303
21
277.182460
31
0.0
0
LINE
8
Letters
62
4
5
14c
100
AcDbEntity
100
AcDbLine
10
0.644866
20
277.075525
30
0.0
11
0.778821
21
277.075968
31
0.0
0
LINE
8
Letters
62
4
5
14d
100
AcDbEntity
100
AcDbLine
10
0.778821
20
277.075968
30
0.0
11
0.793477
21
277.087053
31
0.0
0
LINE
8
Letters
62
4
5
14e
100
AcDbEntity
100
AcDbLine
10
0.793477
20
277.087053
30
0.0
11
0.794115
21
277.108053
31
0.0
0
LINE
8
Letters
62
4
5
14f
100
AcDbEntity
100
AcDbLine
10
0.794115
20
277.108053
30
0.0
11
0.783919
21
277.123053
31
0.0
0
LINE
8
Letters
62
4
5
150
100
AcDbEntity
100
AcDbLine
10
0.783919
20
277.123053
30
0.0
11
0.777455
21
277.124645
31
0.0
0
LINE
8
Letters
62
4
5
151
100
AcDbEntity
100
AcDbLine
10
0.777455
20
277.124645
30
0.0
11
0.680928
21
277.124843
31
0.0
0
LINE
8
Letters
62
4
5
152
100
AcDbEntity
100
AcDbLine
10
0.680928
20
277.124843
30
0.0
11
0.673434
21
277.128682
31
0.0
0
LINE
8
Letters
62
4
5
153
100
AcDbEntity
100
AcDbLine
10
0.673434
20
277.128682
30
0.0
11
0.671707
21
277.133893
31
0.0
0
LINE
8
Letters
62
4
5
154
100
AcDbEntity
100
AcDbLine
10
0.671707
20
277.133893
30
0.0
11
0.671706
21
277.165625
31
0.0
0
LINE
8
Letters
62
4
5
155
100
AcDbEntity
100
AcDbLine
10
0.671706
20
277.165625
30
0.0
11
0.675513
21
277.172539
31
0.0
0
LINE
8
Letters
62
4
5
156
100
AcDbEntity
100
AcDbLine
10
0.675513
20
277.172539
30
0.0
11
0.677486
21
277.173857
31
0.0
0
LINE
8
Letters
62
4
5
157
100
AcDbEntity
100
AcDbLine
10
0.677486
20
277.173857
30
0.0
11
0.681399
21
277.174681
31
0.0
0
LINE
8
Letters
62
4
5
158
100
AcDbEntity
100
AcDbLine
10
0.681399
20
277.174681
30
0.0
11
0.714575
21
277.175073
31
0.0
0
LINE
8
Letters
62
4
5
159
100
AcDbEntity
100
AcDbLine
10
0.714575
20
277.175073
30
0.0
11
0.728046
21
277.190416
31
0.0
0
LINE
8
Letters
62
4
5
15a
100
AcDbEntity
100
AcDbLine
10
0.728046
20
277.190416
30
0.0
11
0.721103
21
277.214565
31
0.0
0
LINE
8
Letters
62
4
5
15b
100
AcDbEntity
100
AcDbLine
10
0.721103
20
277.214565
30
0.0
11
0.705589
21
277.216752
31
0.0
0
LINE
8
Letters
62
4
5
15c
100
AcDbEntity
100
AcDbLine
10
0.705589
20
277.216752
30
0.0
11
0.683629
21
277.216569
31
0.0
0
LINE
8
Letters
62
4
5
15d
100
AcDbEntity
100
AcDbLine
10
0.683629
20
277.216569
30
0.0
11
0.673717
21
277.231351
31
0.0
0
LINE
8
Letters
62
4
5
15e
100
AcDbEntity
100
AcDbLine
10
0.673717
20
277.231351
30
0.0
11
0.674547
21
277.265135
31
0.0
0
LINE
8
Letters
62
4
5
15f
100
AcDbEntity
100
AcDbLine
10
0.674547
20
277.265135
30
0.0
11
0.686097
21
277.270629
31
0.0
0
LINE
8
Letters
62
4
5
160
100
AcDbEntity
100
AcDbLine
10
0.686097
20
277.270629
30
0.0
11
0.775685
21
277.270470
31
0.0
0
LINE
8
Letters
62
4
5
161
100
AcDbEntity
100
AcDbLine
10
0.775685
20
277.270470
30
0.0
11
0.792569
21
277.294497
31
0.0
0
LINE
8
Letters
62
4
5
162
100
AcDbEntity
100
AcDbLine
10
0.792569
20
277.294497
30
0.0
11
0.773186
21
277.316503
31
0.0
0
LINE
8
Letters
62
4
5
163
100
AcDbEntity
100
AcDbLine
10
0.773186
20
277.316503
30
0.0
11
0.631532
21
277.316503
31
0.0
0
LINE
8
Letters
62
4
5
164
100
AcDbEntity
100
AcDbLine
10
0.631532
20
277.316503
30
0.0
11
0.613676
21
277.296156
31
0.0
0
LINE
8
Letters
62
4
5
165
100
AcDbEntity
100
AcDbLine
10
0.613676
20
277.296156
30
0.0
11
0.613676
21
277.095887
31
0.0
0
LINE
8
Letters
62
4
5
166
100
AcDbEntity
100
AcDbLine
10
0.613676
20
277.095887
30
0.0
11
0.625717
21
277.076927
31
0.0
0
LINE
8
Letters
62
4
5
167
100
AcDbEntity
100
AcDbLine
10
0.625717
20
277.076927
30
0.0
11
0.644866
21
277.075524
31
0.0
0
LINE
8
Letters
62
4
5
168
100
AcDbEntity
100
AcDbLine
10
0.644866
20
277.075524
30
0.0
11
0.644866
21
277.075525
31
0.0
0
LINE
8
Letters
62
4
5
169
100
AcDbEntity
100
AcDbLine
10
0.818765
20
277.098032
30
0.0
11
0.818594
21
277.291783
31
0.0
0
LINE
8
Letters
62
4
5
16a
100
AcDbEntity
100
AcDbLine
10
0.818594
20
277.291783
30
0.0
11
0.847966
21
277.313251
31
0.0
0
LINE
8
Letters
62
4
5
16b
100
AcDbEntity
100
AcDbLine
10
0.847966
20
277.313251
30
0.0
11
0.940769
21
277.313418
31
0.0
0
LINE
8
Letters
62
4
5
16c
100
AcDbEntity
100
AcDbLine
10
0.940769
20
277.313418
30
0.0
11
0.965470
21
277.303164
31
0.0
0
LINE
8
Letters
62
4
5
16d
100
AcDbEntity
100
AcDbLine
10
0.965470
20
277.303164
30
0.0
11
0.987967
21
277.282336
31
0.0
0
LINE
8
Letters
62
4
5
16e
100
AcDbEntity
100
AcDbLine
10
0.987967
20
277.282336
30
0.0
11
0.993397
21
277.273953
31
0.0
0
LINE
8
Letters
62
4
5
16f
100
AcDbEntity
100
AcDbLine
10
0.993397
20
277.273953
30
0.0
11
0.995551
21
277.259405
31
0.0
0
LINE
8
Letters
62
4
5
170
100
AcDbEntity
100
AcDbLine
10
0.995551
20
277.259405
30
0.0
11
0.995472
21
277.196130
31
0.0
0
LINE
8
Letters
62
4
5
171
100
AcDbEntity
100
AcDbLine
10
0.995472
20
277.196130
30
0.0
11
0.982984
21
277.180858
31
0.0
0
LINE
8
Letters
62
4
5
172
100
AcDbEntity
100
AcDbLine
10
0.982984
20
277.180858
30
0.0
11
0.975451
21
277.146912
31
0.0
0
LINE
8
Letters
62
4
5
173
100
AcDbEntity
100
AcDbLine
10
0.975451
20
277.146912
30
0.0
11
0.979058
21
277.127009
31
0.0
0
LINE
8
Letters
62
4
5
174
100
AcDbEntity
100
AcDbLine
10
0.979058
20
277.127009
30
0.0
11
0.990959
21
277.108194
31
0.0
0
LINE
8
Letters
62
4
5
175
100
AcDbEntity
100
AcDbLine
10
0.990959
20
277.108194
30
0.0
11
0.985209
21
277.078948
31
0.0
0
LINE
8
Letters
62
4
5
176
100
AcDbEntity
100
AcDbLine
10
0.985209
20
277.078948
30
0.0
11
0.952775
21
277.083973
31
0.0
0
LINE
8
Letters
62
4
5
177
100
AcDbEntity
100
AcDbLine
10
0.952775
20
277.083973
30
0.0
11
0.903393
21
277.135978
31
0.0
0
LINE
8
Letters
62
4
5
178
100
AcDbEntity
100
AcDbLine
10
0.903393
20
277.135978
30
0.0
11
0.893948
21
277.138348
31
0.0
0
LINE
8
Letters
62
4
5
179
100
AcDbEntity
100
AcDbLine
10
0.893948
20
277.138348
30
0.0
11
0.876573
21
277.138253
31
0.0
0
LINE
8
Letters
62
4
5
17a
100
AcDbEntity
100
AcDbLine
10
0.876573
20
277.138253
30
0.0
11
0.868755
21
277.132963
31
0.0
0
LINE
8
Letters
62
4
5
17b
100
AcDbEntity
100
AcDbLine
10
0.868755
20
277.132963
30
0.0
11
0.867570
21
277.128012
31
0.0
0
LINE
8
Letters
62
4
5
17c
100
AcDbEntity
100
AcDbLine
10
0.867570
20
277.128012
30
0.0
11
0.867706
21
277.086583
31
0.0
0
LINE
8
Letters
62
4
5
17d
100
AcDbEntity
100
AcDbLine
10
0.867706
20
277.086583
30
0.0
11
0.859624
21
277.076819
31
0.0
0
LINE
8
Letters
62
4
5
17e
100
AcDbEntity
100
AcDbLine
10
0.859624
20
277.076819
30
0.0
11
0.833069
21
277.076864
31
0.0
0
LINE
8
Letters
62
4
5
17f
100
AcDbEntity
100
AcDbLine
10
0.833069
20
277.076864
30
0.0
11
0.818764
21
277.087499
31
0.0
0
LINE
8
Letters
62
4
5
180
100
AcDbEntity
100
AcDbLine
10
0.818764
20
277.087499
30
0.0
11
0.818765
21
277.098032
31
0.0
0
LINE
8
Letters
62
4
5
181
100
AcDbEntity
100
AcDbLine
10
0.876449
20
277.225035
30
0.0
11
0.914286
21
277.261193
31
0.0
0
LINE
8
Letters
62
4
5
182
100
AcDbEntity
100
AcDbLine
10
0.914286
20
277.261193
30
0.0
11
0.944537
21
277.222672
31
0.0
0
LINE
8
Letters
62
4
5
183
100
AcDbEntity
100
AcDbLine
10
0.944537
20
277.222672
30
0.0
11
0.910482
21
277.192778
31
0.0
0
LINE
8
Letters
62
4
5
184
100
AcDbEntity
100
AcDbLine
10
0.910482
20
277.192778
30
0.0
11
0.876449
21
277.225035
31
0.0
0
LINE
8
Letters
62
4
5
185
100
AcDbEntity
100
AcDbLine
10
0.876449
20
277.225035
30
0.0
11
0.876449
21
277.225035
31
0.0
0
LINE
8
Letters
62
4
5
186
100
AcDbEntity
100
AcDbLine
10
0.876413
20
276.966193
30
0.0
11
0.914249
21
277.002351
31
0.0
0
LINE
8
Letters
62
4
5
187
100
AcDbEntity
100
AcDbLine
10
0.914249
20
277.002351
30
0.0
11
0.944500
21
276.963830
31
0.0
0
LINE
8
Letters
62
4
5
188
100
AcDbEntity
100
AcDbLine
10
0.944500
20
276.963830
30
0.0
11
0.910445
21
276.933935
31
0.0
0
LINE
8
Letters
62
4
5
189
100
AcDbEntity
100
AcDbLine
10
0.910445
20
276.933935
30
0.0
11
0.876413
21
276.966193
31
0.0
0
LINE
8
Letters
62
4
5
18a
100
AcDbEntity
100
AcDbLine
10
0.876413
20
276.966193
30
0.0
11
0.876413
21
276.966193
31
0.0
0
LINE
8
Letters
62
4
5
18b
100
AcDbEntity
100
AcDbLine
10
0.818765
20
276.837778
30
0.0
11
0.818594
21
277.031530
31
0.0
0
LINE
8
Letters
62
4
5
18c
100
AcDbEntity
100
AcDbLine
10
0.818594
20
277.031530
30
0.0
11
0.847966
21
277.052997
31
0.0
0
LINE
8
Letters
62
4
5
18d
100
AcDbEntity
100
AcDbLine
10
0.847966
20
277.052997
30
0.0
11
0.940769
21
277.053164
31
0.0
0
LINE
8
Letters
62
4
5
18e
100
AcDbEntity
100
AcDbLine
10
0.940769
20
277.053164
30
0.0
11
0.965470
21
277.042910
31
0.0
0
LINE
8
Letters
62
4
5
18f
100
AcDbEntity
100
AcDbLine
10
0.965470
20
277.042910
30
0.0
11
0.987967
21
277.022082
31
0.0
0
LINE
8
Letters
62
4
5
190
100
AcDbEntity
100
AcDbLine
10
0.987967
20
277.022082
30
0.0
11
0.993397
21
277.013699
31
0.0
0
LINE
8
Letters
62
4
5
191
100
AcDbEntity
100
AcDbLine
10
0.993397
20
277.013699
30
0.0
11
0.995551
21
276.999152
31
0.0
0
LINE
8
Letters
62
4
5
192
100
AcDbEntity
100
AcDbLine
10
0.995551
20
276.999152
30
0.0
11
0.995472
21
276.935876
31
0.0
0
LINE
8
Letters
62
4
5
193
100
AcDbEntity
100
AcDbLine
10
0.995472
20
276.935876
30
0.0
11
0.982984
21
276.920604
31
0.0
0
LINE
8
Letters
62
4
5
194
100
AcDbEntity
100
AcDbLine
10
0.982984
20
276.920604
30
0.0
11
0.975451
21
276.886658
31
0.0
0
LINE
8
Letters
62
4
5
195
100
AcDbEntity
100
AcDbLine
10
0.975451
20
276.886658
30
0.0
11
0.979058
21
276.866755
31
0.0
0
LINE
8
Letters
62
4
5
196
100
AcDbEntity
100
AcDbLine
10
0.979058
20
276.866755
30
0.0
11
0.990959
21
276.847940
31
0.0
0
LINE
8
Letters
62
4
5
197
100
AcDbEntity
100
AcDbLine
10
0.990959
20
276.847940
30
0.0
11
0.985209
21
276.818694
31
0.0
0
LINE
8
Letters
62
4
5
198
100
AcDbEntity
100
AcDbLine
10
0.985209
20
276.818694
30
0.0
11
0.952775
21
276.823719
31
0.0
0
LINE
8
Letters
62
4
5
199
100
AcDbEntity
100
AcDbLine
10
0.952775
20
276.823719
30
0.0
11
0.903393
21
276.875724
31
0.0
0
LINE
8
Letters
62
4
5
19a
100
AcDbEntity
100
AcDbLine
10
0.903393
20
276.875724
30
0.0
11
0.893948
21
276.878095
31
0.0
0
LINE
8
Letters
62
4
5
19b
100
AcDbEntity
100
AcDbLine
10
0.893948
20
276.878095
30
0.0
11
0.876573
21
276.878000
31
0.0
0
LINE
8
Letters
62
4
5
19c
100
AcDbEntity
100
AcDbLine
10
0.876573
20
276.878000
30
0.0
11
0.868755
21
276.872710
31
0.0
0
LINE
8
Letters
62
4
5
19d
100
AcDbEntity
100
AcDbLine
10
0.868755
20
276.872710
30
0.0
11
0.867570
21
276.867759
31
0.0
0
LINE
8
Letters
62
4
5
19e
100
AcDbEntity
100
AcDbLine
10
0.867570
20
276.867759
30
0.0
11
0.867706
21
276.826329
31
0.0
0
LINE
8
Letters
62
4
5
19f
100
AcDbEntity
100
AcDbLine
10
0.867706
20
276.826329
30
0.0
11
0.859624
21
276.816566
31
0.0
0
LINE
8
Letters
62
4
5
1a0
100
AcDbEntity
100
AcDbLine
10
0.859624
20
276.816566
30
0.0
11
0.833069
21
276.816610
31
0.0
0
LINE
8
Letters
62
4
5
1a1
100
AcDbEntity
100
AcDbLine
10
0.833069
20
276.816610
30
0.0
11
0.818764
21
276.827246
31
0.0
0
LINE
8
Letters
62
4
5
1a2
100
AcDbEntity
100
AcDbLine
10
0.818764
20
276.827246
30
0.0
11
0.818765
21
276.837778
31
0.0
0
LINE
8
Letters
62
4
5
1a3
100
AcDbEntity
100
AcDbLine
10
0.876413
20
276.705136
30
0.0
11
0.914249
21
276.741294
31
0.0
0
LINE
8
Letters
62
4
5
1a4
100
AcDbEntity
100
AcDbLine
10
0.914249
20
276.741294
30
0.0
11
0.944500
21
276.702773
31
0.0
0
LINE
8
Letters
62
4
5
1a5
100
AcDbEntity
100
AcDbLine
10
0.944500
20
276.702773
30
0.0
11
0.910445
21
276.672879
31
0.0
0
LINE
8
Letters
62
4
5
1a6
100
AcDbEntity
100
AcDbLine
10
0.910445
20
276.672879
30
0.0
11
0.876413
21
276.705136
31
0.0
0
LINE
8
Letters
62
4
5
1a7
100
AcDbEntity
100
AcDbLine
10
0.876413
20
276.705136
30
0.0
11
0.876413
21
276.705136
31
0.0
0
LINE
8
Letters
62
4
5
1a8
100
AcDbEntity
100
AcDbLine
10
0.818765
20
276.576722
30
0.0
11
0.818594
21
276.770473
31
0.0
0
LINE
8
Letters
62
4
5
1a9
100
AcDbEntity
100
AcDbLine
10
0.818594
20
276.770473
30
0.0
11
0.847966
21
276.791941
31
0.0
0
LINE
8
Letters
62
4
5
1aa
100
AcDbEntity
100
AcDbLine
10
0.847966
20
276.791941
30
0.0
11
0.940769
21
276.792108
31
0.0
0
LINE
8
Letters
62
4
5
1ab
100
AcDbEntity
100
AcDbLine
10
0.940769
20
276.792108
30
0.0
11
0.965470
21
276.781854
31
0.0
0
LINE
8
Letters
62
4
5
1ac
100
AcDbEntity
100
AcDbLine
10
0.965470
20
276.781854
30
0.0
11
0.987967
21
276.761026
31
0.0
0
LINE
8
Letters
62
4
5
1ad
100
AcDbEntity
100
AcDbLine
10
0.987967
20
276.761026
30
0.0
11
0.993397
21
276.752643
31
0.0
0
LINE
8
Letters
62
4
5
1ae
100
AcDbEntity
100
AcDbLine
10
0.993397
20
276.752643
30
0.0
11
0.995551
21
276.738095
31
0.0
0
LINE
8
Letters
62
4
5
1af
100
AcDbEntity
100
AcDbLine
10
0.995551
20
276.738095
30
0.0
11
0.995472
21
276.674820
31
0.0
0
LINE
8
Letters
62
4
5
1b0
100
AcDbEntity
100
AcDbLine
10
0.995472
20
276.674820
30
0.0
11
0.982984
21
276.659548
31
0.0
0
LINE
8
Letters
62
4
5
1b1
100
AcDbEntity
100
AcDbLine
10
0.982984
20
276.659548
30
0.0
11
0.975451
21
276.625602
31
0.0
0
LINE
8
Letters
62
4
5
1b2
100
AcDbEntity
100
AcDbLine
10
0.975451
20
276.625602
30
0.0
11
0.979058
21
276.605699
31
0.0
0
LINE
8
Letters
62
4
5
1b3
100
AcDbEntity
100
AcDbLine
10
0.979058
20
276.605699
30
0.0
11
0.990959
21
276.586884
31
0.0
0
LINE
8
Letters
62
4
5
1b4
100
AcDbEntity
100
AcDbLine
10
0.990959
20
276.586884
30
0.0
11
0.985209
21
276.557639
31
0.0
0
LINE
8
Letters
62
4
5
1b5
100
AcDbEntity
100
AcDbLine
10
0.985209
20
276.557639
30
0.0
11
0.952775
21
276.562662
31
0.0
0
LINE
8
Letters
62
4
5
1b6
100
AcDbEntity
100
AcDbLine
10
0.952775
20
276.562662
30
0.0
11
0.903393
21
276.614666
31
0.0
0
LINE
8
Letters
62
4
5
1b7
100
AcDbEntity
100
AcDbLine
10
0.903393
20
276.614666
30
0.0
11
0.893948
21
276.617037
31
0.0
0
LINE
8
Letters
62
4
5
1b8
100
AcDbEntity
100
AcDbLine
10
0.893948
20
276.617037
30
0.0
11
0.876573
21
276.616942
31
0.0
0
LINE
8
Letters
62
4
5
1b9
100
AcDbEntity
100
AcDbLine
10
0.876573
20
276.616942
30
0.0
11
0.868755
21
276.611652
31
0.0
0
LINE
8
Letters
62
4
5
1ba
100
AcDbEntity
100
AcDbLine
10
0.868755
20
276.611652
30
0.0
11
0.867570
21
276.606701
31
0.0
0
LINE
8
Letters
62
4
5
1bb
100
AcDbEntity
100
AcDbLine
10
0.867570
20
276.606701
30
0.0
11
0.867706
21
276.565273
31
0.0
0
LINE
8
Letters
62
4
5
1bc
100
AcDbEntity
100
AcDbLine
10
0.867706
20
276.565273
30
0.0
11
0.859624
21
276.555508
31
0.0
0
LINE
8
Letters
62
4
5
1bd
100
AcDbEntity
100
AcDbLine
10
0.859624
20
276.555508
30
0.0
11
0.833069
21
276.555552
31
0.0
0
LINE
8
Letters
62
4
5
1be
100
AcDbEntity
100
AcDbLine
10
0.833069
20
276.555552
30
0.0
11
0.818764
21
276.566186
31
0.0
0
LINE
8
Letters
62
4
5
1bf
100
AcDbEntity
100
AcDbLine
10
0.818764
20
276.566186
30
0.0
11
0.818765
21
276.576722
31
0.0
0
LINE
8
Letters
62
4
5
1c0
100
AcDbEntity
100
AcDbLine
10
0.876413
20
276.443516
30
0.0
11
0.914249
21
276.479674
31
0.0
0
LINE
8
Letters
62
4
5
1c1
100
AcDbEntity
100
AcDbLine
10
0.914249
20
276.479674
30
0.0
11
0.944500
21
276.441153
31
0.0
0
LINE
8
Letters
62
4
5
1c2
100
AcDbEntity
100
AcDbLine
10
0.944500
20
276.441153
30
0.0
11
0.910445
21
276.411258
31
0.0
0
LINE
8
Letters
62
4
5
1c3
100
AcDbEntity
100
AcDbLine
10
0.910445
20
276.411258
30
0.0
11
0.876413
21
276.443516
31
0.0
0
LINE
8
Letters
62
4
5
1c4
100
AcDbEntity
100
AcDbLine
10
0.876413
20
276.443516
30
0.0
11
0.876413
21
276.443516
31
0.0
0
LINE
8
Letters
62
4
5
1c5
100
AcDbEntity
100
AcDbLine
10
0.818765
20
276.315102
30
0.0
11
0.818594
21
276.508853
31
0.0
0
LINE
8
Letters
62
4
5
1c6
100
AcDbEntity
100
AcDbLine
10
0.818594
20
276.508853
30
0.0
11
0.847966
21
276.530319
31
0.0
0
LINE
8
Letters
62
4
5
1c7
100
AcDbEntity
100
AcDbLine
10
0.847966
20
276.530319
30
0.0
11
0.940769
21
276.530486
31
0.0
0
LINE
8
Letters
62
4
5
1c8
100
AcDbEntity
100
AcDbLine
10
0.940769
20
276.530486
30
0.0
11
0.965470
21
276.520233
31
0.0
0
LINE
8
Letters
62
4
5
1c9
100
AcDbEntity
100
AcDbLine
10
0.965470
20
276.520233
30
0.0
11
0.987967
21
276.499405
31
0.0
0
LINE
8
Letters
62
4
5
1ca
100
AcDbEntity
100
AcDbLine
10
0.987967
20
276.499405
30
0.0
11
0.993397
21
276.491023
31
0.0
0
LINE
8
Letters
62
4
5
1cb
100
AcDbEntity
100
AcDbLine
10
0.993397
20
276.491023
30
0.0
11
0.995551
21
276.476475
31
0.0
0
LINE
8
Letters
62
4
5
1cc
100
AcDbEntity
100
AcDbLine
10
0.995551
20
276.476475
30
0.0
11
0.995472
21
276.413199
31
0.0
0
LINE
8
Letters
62
4
5
1cd
100
AcDbEntity
100
AcDbLine
10
0.995472
20
276.413199
30
0.0
11
0.982984
21
276.397928
31
0.0
0
LINE
8
Letters
62
4
5
1ce
100
AcDbEntity
100
AcDbLine
10
0.982984
20
276.397928
30
0.0
11
0.975451
21
276.363982
31
0.0
0
LINE
8
Letters
62
4
5
1cf
100
AcDbEntity
100
AcDbLine
10
0.975451
20
276.363982
30
0.0
11
0.979058
21
276.344079
31
0.0
0
LINE
8
Letters
62
4
5
1d0
100
AcDbEntity
100
AcDbLine
10
0.979058
20
276.344079
30
0.0
11
0.990959
21
276.325264
31
0.0
0
LINE
8
Letters
62
4
5
1d1
100
AcDbEntity
100
AcDbLine
10
0.990959
20
276.325264
30
0.0
11
0.985209
21
276.296019
31
0.0
0
LINE
8
Letters
62
4
5
1d2
100
AcDbEntity
100
AcDbLine
10
0.985209
20
276.296019
30
0.0
11
0.952775
21
276.301042
31
0.0
0
LINE
8
Letters
62
4
5
1d3
100
AcDbEntity
100
AcDbLine
10
0.952775
20
276.301042
30
0.0
11
0.903393
21
276.353046
31
0.0
0
LINE
8
Letters
62
4
5
1d4
100
AcDbEntity
100
AcDbLine
10
0.903393
20
276.353046
30
0.0
11
0.893948
21
276.355417
31
0.0
0
LINE
8
Letters
62
4
5
1d5
100
AcDbEntity
100
AcDbLine
10
0.893948
20
276.355417
30
0.0
11
0.876573
21
276.355322
31
0.0
0
LINE
8
Letters
62
4
5
1d6
100
AcDbEntity
100
AcDbLine
10
0.876573
20
276.355322
30
0.0
11
0.868755
21
276.350033
31
0.0
0
LINE
8
Letters
62
4
5
1d7
100
AcDbEntity
100
AcDbLine
10
0.868755
20
276.350033
30
0.0
11
0.867570
21
276.345083
31
0.0
0
LINE
8
Letters
62
4
5
1d8
100
AcDbEntity
100
AcDbLine
10
0.867570
20
276.345083
30
0.0
11
0.867706
21
276.303654
31
0.0
0
LINE
8
Letters
62
4
5
1d9
100
AcDbEntity
100
AcDbLine
10
0.867706
20
276.303654
30
0.0
11
0.859624
21
276.293890
31
0.0
0
LINE
8
Letters
62
4
5
1da
100
AcDbEntity
100
AcDbLine
10
0.859624
20
276.293890
30
0.0
11
0.833069
21
276.293934
31
0.0
0
LINE
8
Letters
62
4
5
1db
100
AcDbEntity
100
AcDbLine
10
0.833069
20
276.293934
30
0.0
11
0.818764
21
276.304568
31
0.0
0
LINE
8
Letters
62
4
5
1dc
100
AcDbEntity
100
AcDbLine
10
0.818764
20
276.304568
30
0.0
11
0.818765
21
276.315102
31
0.0
0
LINE
8
Letters
62
4
5
1dd
100
AcDbEntity
100
AcDbLine
10
0.644866
20
276.814892
30
0.0
11
0.778821
21
276.815335
31
0.0
0
LINE
8
Letters
62
4
5
1de
100
AcDbEntity
100
AcDbLine
10
0.778821
20
276.815335
30
0.0
11
0.793477
21
276.826420
31
0.0
0
LINE
8
Letters
62
4
5
1df
100
AcDbEntity
100
AcDbLine
10
0.793477
20
276.826420
30
0.0
11
0.794115
21
276.847419
31
0.0
0
LINE
8
Letters
62
4
5
1e0
100
AcDbEntity
100
AcDbLine
10
0.794115
20
276.847419
30
0.0
11
0.783919
21
276.862419
31
0.0
0
LINE
8
Letters
62
4
5
1e1
100
AcDbEntity
100
AcDbLine
10
0.783919
20
276.862419
30
0.0
11
0.777455
21
276.864011
31
0.0
0
LINE
8
Letters
62
4
5
1e2
100
AcDbEntity
100
AcDbLine
10
0.777455
20
276.864011
30
0.0
11
0.680928
21
276.864209
31
0.0
0
LINE
8
Letters
62
4
5
1e3
100
AcDbEntity
100
AcDbLine
10
0.680928
20
276.864209
30
0.0
11
0.673434
21
276.868048
31
0.0
0
LINE
8
Letters
62
4
5
1e4
100
AcDbEntity
100
AcDbLine
10
0.673434
20
276.868048
30
0.0
11
0.671707
21
276.873259
31
0.0
0
LINE
8
Letters
62
4
5
1e5
100
AcDbEntity
100
AcDbLine
10
0.671707
20
276.873259
30
0.0
11
0.671706
21
276.904991
31
0.0
0
LINE
8
Letters
62
4
5
1e6
100
AcDbEntity
100
AcDbLine
10
0.671706
20
276.904991
30
0.0
11
0.675513
21
276.911905
31
0.0
0
LINE
8
Letters
62
4
5
1e7
100
AcDbEntity
100
AcDbLine
10
0.675513
20
276.911905
30
0.0
11
0.677486
21
276.913223
31
0.0
0
LINE
8
Letters
62
4
5
1e8
100
AcDbEntity
100
AcDbLine
10
0.677486
20
276.913223
30
0.0
11
0.681399
21
276.914047
31
0.0
0
LINE
8
Letters
62
4
5
1e9
100
AcDbEntity
100
AcDbLine
10
0.681399
20
276.914047
30
0.0
11
0.714575
21
276.914439
31
0.0
0
LINE
8
Letters
62
4
5
1ea
100
AcDbEntity
100
AcDbLine
10
0.714575
20
276.914439
30
0.0
11
0.728046
21
276.929783
31
0.0
0
LINE
8
Letters
62
4
5
1eb
100
AcDbEntity
100
AcDbLine
10
0.728046
20
276.929783
30
0.0
11
0.721103
21
276.953931
31
0.0
0
LINE
8
Letters
62
4
5
1ec
100
AcDbEntity
100
AcDbLine
10
0.721103
20
276.953931
30
0.0
11
0.705589
21
276.956118
31
0.0
0
LINE
8
Letters
62
4
5
1ed
100
AcDbEntity
100
AcDbLine
10
0.705589
20
276.956118
30
0.0
11
0.683629
21
276.955935
31
0.0
0
LINE
8
Letters
62
4
5
1ee
100
AcDbEntity
100
AcDbLine
10
0.683629
20
276.955935
30
0.0
11
0.673717
21
276.970717
31
0.0
0
LINE
8
Letters
62
4
5
1ef
100
AcDbEntity
100
AcDbLine
10
0.673717
20
276.970717
30
0.0
11
0.674547
21
277.004501
31
0.0
0
LINE
8
Letters
62
4
5
1f0
100
AcDbEntity
100
AcDbLine
10
0.674547
20
277.004501
30
0.0
11
0.686097
21
277.009995
31
0.0
0
LINE
8
Letters
62
4
5
1f1
100
AcDbEntity
100
AcDbLine
10
0.686097
20
277.009995
30
0.0
11
0.775685
21
277.009837
31
0.0
0
LINE
8
Letters
62
4
5
1f2
100
AcDbEntity
100
AcDbLine
10
0.775685
20
277.009837
30
0.0
11
0.792569
21
277.033863
31
0.0
0
LINE
8
Letters
62
4
5
1f3
100
AcDbEntity
100
AcDbLine
10
0.792569
20
277.033863
30
0.0
11
0.773186
21
277.055869
31
0.0
0
LINE
8
Letters
62
4
5
1f4
100
AcDbEntity
100
AcDbLine
10
0.773186
20
277.055869
30
0.0
11
0.631532
21
277.055869
31
0.0
0
LINE
8
Letters
62
4
5
1f5
100
AcDbEntity
100
AcDbLine
10
0.631532
20
277.055869
30
0.0
11
0.613676
21
277.035522
31
0.0
0
LINE
8
Letters
62
4
5
1f6
100
AcDbEntity
100
AcDbLine
10
0.613676
20
277.035522
30
0.0
11
0.613676
21
276.835253
31
0.0
0
LINE
8
Letters
62
4
5
1f7
100
AcDbEntity
100
AcDbLine
10
0.613676
20
276.835253
30
0.0
11
0.625717
21
276.816293
31
0.0
0
LINE
8
Letters
62
4
5
1f8
100
AcDbEntity
100
AcDbLine
10
0.625717
20
276.816293
30
0.0
11
0.644866
21
276.814891
31
0.0
0
LINE
8
Letters
62
4
5
1f9
100
AcDbEntity
100
AcDbLine
10
0.644866
20
276.814891
30
0.0
11
0.644866
21
276.814892
31
0.0
0
LINE
8
Letters
62
4
5
1fa
100
AcDbEntity
100
AcDbLine
10
0.644866
20
276.553835
30
0.0
11
0.778821
21
276.554286
31
0.0
0
LINE
8
Letters
62
4
5
1fb
100
AcDbEntity
100
AcDbLine
10
0.778821
20
276.554286
30
0.0
11
0.793477
21
276.565372
31
0.0
0
LINE
8
Letters
62
4
5
1fc
100
AcDbEntity
100
AcDbLine
10
0.793477
20
276.565372
30
0.0
11
0.794115
21
276.586371
31
0.0
0
LINE
8
Letters
62
4
5
1fd
100
AcDbEntity
100
AcDbLine
10
0.794115
20
276.586371
30
0.0
11
0.783919
21
276.601372
31
0.0
0
LINE
8
Letters
62
4
5
1fe
100
AcDbEntity
100
AcDbLine
10
0.783919
20
276.601372
30
0.0
11
0.777455
21
276.602964
31
0.0
0
LINE
8
Letters
62
4
5
1ff
100
AcDbEntity
100
AcDbLine
10
0.777455
20
276.602964
30
0.0
11
0.680928
21
276.603161
31
0.0
0
LINE
8
Letters
62
4
5
200
100
AcDbEntity
100
AcDbLine
10
0.680928
20
276.603161
30
0.0
11
0.673434
21
276.607001
31
0.0
0
LINE
8
Letters
62
4
5
201
100
AcDbEntity
100
AcDbLine
10
0.673434
20
276.607001
30
0.0
11
0.671707
21
276.612212
31
0.0
0
LINE
8
Letters
62
4
5
202
100
AcDbEntity
100
AcDbLine
10
0.671707
20
276.612212
30
0.0
11
0.671706
21
276.643944
31
0.0
0
LINE
8
Letters
62
4
5
203
100
AcDbEntity
100
AcDbLine
10
0.671706
20
276.643944
30
0.0
11
0.675513
21
276.650857
31
0.0
0
LINE
8
Letters
62
4
5
204
100
AcDbEntity
100
AcDbLine
10
0.675513
20
276.650857
30
0.0
11
0.677486
21
276.652175
31
0.0
0
LINE
8
Letters
62
4
5
205
100
AcDbEntity
100
AcDbLine
10
0.677486
20
276.652175
30
0.0
11
0.681399
21
276.652999
31
0.0
0
LINE
8
Letters
62
4
5
206
100
AcDbEntity
100
AcDbLine
10
0.681399
20
276.652999
30
0.0
11
0.714575
21
276.653392
31
0.0
0
LINE
8
Letters
62
4
5
207
100
AcDbEntity
100
AcDbLine
10
0.714575
20
276.653392
30
0.0
11
0.728046
21
276.668735
31
0.0
0
LINE
8
Letters
62
4
5
208
100
AcDbEntity
100
AcDbLine
10
0.728046
20
276.668735
30
0.0
11
0.721103
21
276.692883
31
0.0
0
LINE
8
Letters
62
4
5
209
100
AcDbEntity
100
AcDbLine
10
0.721103
20
276.692883
30
0.0
11
0.705589
21
276.695070
31
0.0
0
LINE
8
Letters
62
4
5
20a
100
AcDbEntity
100
AcDbLine
10
0.705589
20
276.695070
30
0.0
11
0.683629
21
276.694888
31
0.0
0
LINE
8
Letters
62
4
5
20b
100
AcDbEntity
100
AcDbLine
10
0.683629
20
276.694888
30
0.0
11
0.673717
21
276.709669
31
0.0
0
LINE
8
Letters
62
4
5
20c
100
AcDbEntity
100
AcDbLine
10
0.673717
20
276.709669
30
0.0
11
0.674547
21
276.743454
31
0.0
0
LINE
8
Letters
62
4
5
20d
100
AcDbEntity
100
AcDbLine
10
0.674547
20
276.743454
30
0.0
11
0.686097
21
276.748947
31
0.0
0
LINE
8
Letters
62
4
5
20e
100
AcDbEntity
100
AcDbLine
10
0.686097
20
276.748947
30
0.0
11
0.775685
21
276.748789
31
0.0
0
LINE
8
Letters
62
4
5
20f
100
AcDbEntity
100
AcDbLine
10
0.775685
20
276.748789
30
0.0
11
0.792569
21
276.772816
31
0.0
0
LINE
8
Letters
62
4
5
210
100
AcDbEntity
100
AcDbLine
10
0.792569
20
276.772816
30
0.0
11
0.773186
21
276.794821
31
0.0
0
LINE
8
Letters
62
4
5
211
100
AcDbEntity
100
AcDbLine
10
0.773186
20
276.794821
30
0.0
11
0.631532
21
276.794821
31
0.0
0
LINE
8
Letters
62
4
5
212
100
AcDbEntity
100
AcDbLine
10
0.631532
20
276.794821
30
0.0
11
0.613676
21
276.774474
31
0.0
0
LINE
8
Letters
62
4
5
213
100
AcDbEntity
100
AcDbLine
10
0.613676
20
276.774474
30
0.0
11
0.613676
21
276.574206
31
0.0
0
LINE
8
Letters
62
4
5
214
100
AcDbEntity
100
AcDbLine
10
0.613676
20
276.574206
30
0.0
11
0.625717
21
276.555246
31
0.0
0
LINE
8
Letters
62
4
5
215
100
AcDbEntity
100
AcDbLine
10
0.625717
20
276.555246
30
0.0
11
0.644866
21
276.553835
31
0.0
0
LINE
8
Letters
62
4
5
216
100
AcDbEntity
100
AcDbLine
10
0.644866
20
276.553835
30
0.0
11
0.644866
21
276.553835
31
0.0
0
LINE
8
Letters
62
4
5
217
100
AcDbEntity
100
AcDbLine
10
0.644866
20
276.294212
30
0.0
11
0.778821
21
276.294664
31
0.0
0
LINE
8
Letters
62
4
5
218
100
AcDbEntity
100
AcDbLine
10
0.778821
20
276.294664
30
0.0
11
0.793477
21
276.305749
31
0.0
0
LINE
8
Letters
62
4
5
219
100
AcDbEntity
100
AcDbLine
10
0.793477
20
276.305749
30
0.0
11
0.794115
21
276.326750
31
0.0
0
LINE
8
Letters
62
4
5
21a
100
AcDbEntity
100
AcDbLine
10
0.794115
20
276.326750
30
0.0
11
0.783919
21
276.341750
31
0.0
0
LINE
8
Letters
62
4
5
21b
100
AcDbEntity
100
AcDbLine
10
0.783919
20
276.341750
30
0.0
11
0.777455
21
276.343330
31
0.0
0
LINE
8
Letters
62
4
5
21c
100
AcDbEntity
100
AcDbLine
10
0.777455
20
276.343330
30
0.0
11
0.680928
21
276.343528
31
0.0
0
LINE
8
Letters
62
4
5
21d
100
AcDbEntity
100
AcDbLine
10
0.680928
20
276.343528
30
0.0
11
0.673434
21
276.347366
31
0.0
0
LINE
8
Letters
62
4
5
21e
100
AcDbEntity
100
AcDbLine
10
0.673434
20
276.347366
30
0.0
11
0.671707
21
276.352576
31
0.0
0
LINE
8
Letters
62
4
5
21f
100
AcDbEntity
100
AcDbLine
10
0.671707
20
276.352576
30
0.0
11
0.671706
21
276.384308
31
0.0
0
LINE
8
Letters
62
4
5
220
100
AcDbEntity
100
AcDbLine
10
0.671706
20
276.384308
30
0.0
11
0.675513
21
276.391222
31
0.0
0
LINE
8
Letters
62
4
5
221
100
AcDbEntity
100
AcDbLine
10
0.675513
20
276.391222
30
0.0
11
0.677486
21
276.392549
31
0.0
0
LINE
8
Letters
62
4
5
222
100
AcDbEntity
100
AcDbLine
10
0.677486
20
276.392549
30
0.0
11
0.681399
21
276.393367
31
0.0
0
LINE
8
Letters
62
4
5
223
100
AcDbEntity
100
AcDbLine
10
0.681399
20
276.393367
30
0.0
11
0.714575
21
276.393762
31
0.0
0
LINE
8
Letters
62
4
5
224
100
AcDbEntity
100
AcDbLine
10
0.714575
20
276.393762
30
0.0
11
0.728046
21
276.409107
31
0.0
0
LINE
8
Letters
62
4
5
225
100
AcDbEntity
100
AcDbLine
10
0.728046
20
276.409107
30
0.0
11
0.721103
21
276.433254
31
0.0
0
LINE
8
Letters
62
4
5
226
100
AcDbEntity
100
AcDbLine
10
0.721103
20
276.433254
30
0.0
11
0.705589
21
276.435427
31
0.0
0
LINE
8
Letters
62
4
5
227
100
AcDbEntity
100
AcDbLine
10
0.705589
20
276.435427
30
0.0
11
0.683629
21
276.435244
31
0.0
0
LINE
8
Letters
62
4
5
228
100
AcDbEntity
100
AcDbLine
10
0.683629
20
276.435244
30
0.0
11
0.673717
21
276.450024
31
0.0
0
LINE
8
Letters
62
4
5
229
100
AcDbEntity
100
AcDbLine
10
0.673717
20
276.450024
30
0.0
11
0.674547
21
276.483809
31
0.0
0
LINE
8
Letters
62
4
5
22a
100
AcDbEntity
100
AcDbLine
10
0.674547
20
276.483809
30
0.0
11
0.686097
21
276.489303
31
0.0
0
LINE
8
Letters
62
4
5
22b
100
AcDbEntity
100
AcDbLine
10
0.686097
20
276.489303
30
0.0
11
0.775685
21
276.489145
31
0.0
0
LINE
8
Letters
62
4
5
22c
100
AcDbEntity
100
AcDbLine
10
0.775685
20
276.489145
30
0.0
11
0.792569
21
276.513171
31
0.0
0
LINE
8
Letters
62
4
5
22d
100
AcDbEntity
100
AcDbLine
10
0.792569
20
276.513171
30
0.0
11
0.773186
21
276.535176
31
0.0
0
LINE
8
Letters
62
4
5
22e
100
AcDbEntity
100
AcDbLine
10
0.773186
20
276.535176
30
0.0
11
0.631532
21
276.535176
31
0.0
0
LINE
8
Letters
62
4
5
22f
100
AcDbEntity
100
AcDbLine
10
0.631532
20
276.535176
30
0.0
11
0.613676
21
276.514830
31
0.0
0
LINE
8
Letters
62
4
5
230
100
AcDbEntity
100
AcDbLine
10
0.613676
20
276.514830
30
0.0
11
0.613676
21
276.314562
31
0.0
0
LINE
8
Letters
62
4
5
231
100
AcDbEntity
100
AcDbLine
10
0.613676
20
276.314562
30
0.0
11
0.625717
21
276.295602
31
0.0
0
LINE
8
Letters
62
4
5
232
100
AcDbEntity
100
AcDbLine
10
0.625717
20
276.295602
30
0.0
11
0.644866
21
276.294191
31
0.0
0
LINE
8
Letters
62
4
5
233
100
AcDbEntity
100
AcDbLine
10
0.644866
20
276.294191
30
0.0
11
0.644866
21
276.294212
31
0.0
0
LINE
8
Letters
62
4
5
234
100
AcDbEntity
100
AcDbLine
10
0.523303
20
276.921025
30
0.0
11
0.535496
21
276.928343
31
0.0
0
LINE
8
Letters
62
4
5
235
100
AcDbEntity
100
AcDbLine
10
0.535496
20
276.928343
30
0.0
11
0.535615
21
277.037850
31
0.0
0
LINE
8
Letters
62
4
5
236
100
AcDbEntity
100
AcDbLine
10
0.535615
20
277.037850
30
0.0
11
0.563683
21
277.055364
31
0.0
0
LINE
8
Letters
62
4
5
237
100
AcDbEntity
100
AcDbLine
10
0.563683
20
277.055364
30
0.0
11
0.590437
21
277.033188
31
0.0
0
LINE
8
Letters
62
4
5
238
100
AcDbEntity
100
AcDbLine
10
0.590437
20
277.033188
30
0.0
11
0.591159
21
276.837311
31
0.0
0
LINE
8
Letters
62
4
5
239
100
AcDbEntity
100
AcDbLine
10
0.591159
20
276.837311
30
0.0
11
0.571288
21
276.816713
31
0.0
0
LINE
8
Letters
62
4
5
23a
100
AcDbEntity
100
AcDbLine
10
0.571288
20
276.816713
30
0.0
11
0.553528
21
276.817159
31
0.0
0
LINE
8
Letters
62
4
5
23b
100
AcDbEntity
100
AcDbLine
10
0.553528
20
276.817159
30
0.0
11
0.538757
21
276.824872
31
0.0
0
LINE
8
Letters
62
4
5
23c
100
AcDbEntity
100
AcDbLine
10
0.538757
20
276.824872
30
0.0
11
0.500517
21
276.858955
31
0.0
0
LINE
8
Letters
62
4
5
23d
100
AcDbEntity
100
AcDbLine
10
0.500517
20
276.858955
30
0.0
11
0.499408
21
276.859276
31
0.0
0
LINE
8
Letters
62
4
5
23e
100
AcDbEntity
100
AcDbLine
10
0.499408
20
276.859276
30
0.0
11
0.498618
21
276.859191
31
0.0
0
LINE
8
Letters
62
4
5
23f
100
AcDbEntity
100
AcDbLine
10
0.498618
20
276.859191
30
0.0
11
0.497226
21
276.858398
31
0.0
0
LINE
8
Letters
62
4
5
240
100
AcDbEntity
100
AcDbLine
10
0.497226
20
276.858398
30
0.0
11
0.458334
21
276.820526
31
0.0
0
LINE
8
Letters
62
4
5
241
100
AcDbEntity
100
AcDbLine
10
0.458334
20
276.820526
30
0.0
11
0.427028
21
276.817097
31
0.0
0
LINE
8
Letters
62
4
5
242
100
AcDbEntity
100
AcDbLine
10
0.427028
20
276.817097
30
0.0
11
0.407269
21
276.842472
31
0.0
0
LINE
8
Letters
62
4
5
243
100
AcDbEntity
100
AcDbLine
10
0.407269
20
276.842472
30
0.0
11
0.406902
21
277.034197
31
0.0
0
LINE
8
Letters
62
4
5
244
100
AcDbEntity
100
AcDbLine
10
0.406902
20
277.034197
30
0.0
11
0.429982
21
277.054817
31
0.0
0
LINE
8
Letters
62
4
5
245
100
AcDbEntity
100
AcDbLine
10
0.429982
20
277.054817
30
0.0
11
0.461683
21
277.033801
31
0.0
0
LINE
8
Letters
62
4
5
246
100
AcDbEntity
100
AcDbLine
10
0.461683
20
277.033801
30
0.0
11
0.461111
21
276.930968
31
0.0
0
LINE
8
Letters
62
4
5
247
100
AcDbEntity
100
AcDbLine
10
0.461111
20
276.930968
30
0.0
11
0.479140
21
276.924092
31
0.0
0
LINE
8
Letters
62
4
5
248
100
AcDbEntity
100
AcDbLine
10
0.479140
20
276.924092
30
0.0
11
0.496797
21
276.945109
31
0.0
0
LINE
8
Letters
62
4
5
249
100
AcDbEntity
100
AcDbLine
10
0.496797
20
276.945109
30
0.0
11
0.504401
21
276.944601
31
0.0
0
LINE
8
Letters
62
4
5
24a
100
AcDbEntity
100
AcDbLine
10
0.504401
20
276.944601
30
0.0
11
0.523301
21
276.921023
31
0.0
0
LINE
8
Letters
62
4
5
24b
100
AcDbEntity
100
AcDbLine
10
0.523301
20
276.921023
30
0.0
11
0.523303
21
276.921025
31
0.0
0
LINE
8
Letters
62
4
5
24c
100
AcDbEntity
100
AcDbLine
10
0.523303
20
276.659962
30
0.0
11
0.535496
21
276.667280
31
0.0
0
LINE
8
Letters
62
4
5
24d
100
AcDbEntity
100
AcDbLine
10
0.535496
20
276.667280
30
0.0
11
0.535615
21
276.776787
31
0.0
0
LINE
8
Letters
62
4
5
24e
100
AcDbEntity
100
AcDbLine
10
0.535615
20
276.776787
30
0.0
11
0.563683
21
276.794301
31
0.0
0
LINE
8
Letters
62
4
5
24f
100
AcDbEntity
100
AcDbLine
10
0.563683
20
276.794301
30
0.0
11
0.590437
21
276.772125
31
0.0
0
LINE
8
Letters
62
4
5
250
100
AcDbEntity
100
AcDbLine
10
0.590437
20
276.772125
30
0.0
11
0.591159
21
276.576248
31
0.0
0
LINE
8
Letters
62
4
5
251
100
AcDbEntity
100
AcDbLine
10
0.591159
20
276.576248
30
0.0
11
0.571288
21
276.555652
31
0.0
0
LINE
8
Letters
62
4
5
252
100
AcDbEntity
100
AcDbLine
10
0.571288
20
276.555652
30
0.0
11
0.553528
21
276.556103
31
0.0
0
LINE
8
Letters
62
4
5
253
100
AcDbEntity
100
AcDbLine
10
0.553528
20
276.556103
30
0.0
11
0.538757
21
276.563816
31
0.0
0
LINE
8
Letters
62
4
5
254
100
AcDbEntity
100
AcDbLine
10
0.538757
20
276.563816
30
0.0
11
0.500517
21
276.597899
31
0.0
0
LINE
8
Letters
62
4
5
255
100
AcDbEntity
100
AcDbLine
10
0.500517
20
276.597899
30
0.0
11
0.499408
21
276.598220
31
0.0
0
LINE
8
Letters
62
4
5
256
100
AcDbEntity
100
AcDbLine
10
0.499408
20
276.598220
30
0.0
11
0.498618
21
276.598135
31
0.0
0
LINE
8
Letters
62
4
5
257
100
AcDbEntity
100
AcDbLine
10
0.498618
20
276.598135
30
0.0
11
0.497226
21
276.597342
31
0.0
0
LINE
8
Letters
62
4
5
258
100
AcDbEntity
100
AcDbLine
10
0.497226
20
276.597342
30
0.0
11
0.458334
21
276.559470
31
0.0
0
LINE
8
Letters
62
4
5
259
100
AcDbEntity
100
AcDbLine
10
0.458334
20
276.559470
30
0.0
11
0.427028
21
276.556041
31
0.0
0
LINE
8
Letters
62
4
5
25a
100
AcDbEntity
100
AcDbLine
10
0.427028
20
276.556041
30
0.0
11
0.407269
21
276.581416
31
0.0
0
LINE
8
Letters
62
4
5
25b
100
AcDbEntity
100
AcDbLine
10
0.407269
20
276.581416
30
0.0
11
0.406902
21
276.773141
31
0.0
0
LINE
8
Letters
62
4
5
25c
100
AcDbEntity
100
AcDbLine
10
0.406902
20
276.773141
30
0.0
11
0.429982
21
276.793762
31
0.0
0
LINE
8
Letters
62
4
5
25d
100
AcDbEntity
100
AcDbLine
10
0.429982
20
276.793762
30
0.0
11
0.461683
21
276.772745
31
0.0
0
LINE
8
Letters
62
4
5
25e
100
AcDbEntity
100
AcDbLine
10
0.461683
20
276.772745
30
0.0
11
0.461111
21
276.669912
31
0.0
0
LINE
8
Letters
62
4
5
25f
100
AcDbEntity
100
AcDbLine
10
0.461111
20
276.669912
30
0.0
11
0.479140
21
276.663036
31
0.0
0
LINE
8
Letters
62
4
5
260
100
AcDbEntity
100
AcDbLine
10
0.479140
20
276.663036
30
0.0
11
0.496797
21
276.684053
31
0.0
0
LINE
8
Letters
62
4
5
261
100
AcDbEntity
100
AcDbLine
10
0.496797
20
276.684053
30
0.0
11
0.504401
21
276.683545
31
0.0
0
LINE
8
Letters
62
4
5
262
100
AcDbEntity
100
AcDbLine
10
0.504401
20
276.683545
30
0.0
11
0.523301
21
276.659967
31
0.0
0
LINE
8
Letters
62
4
5
263
100
AcDbEntity
100
AcDbLine
10
0.523301
20
276.659967
30
0.0
11
0.523303
21
276.659962
31
0.0
0
LINE
8
Letters
62
4
5
264
100
AcDbEntity
100
AcDbLine
10
0.523303
20
276.400883
30
0.0
11
0.535496
21
276.408201
31
0.0
0
LINE
8
Letters
62
4
5
265
100
AcDbEntity
100
AcDbLine
10
0.535496
20
276.408201
30
0.0
11
0.535615
21
276.517707
31
0.0
0
LINE
8
Letters
62
4
5
266
100
AcDbEntity
100
AcDbLine
10
0.535615
20
276.517707
30
0.0
11
0.563683
21
276.535222
31
0.0
0
LINE
8
Letters
62
4
5
267
100
AcDbEntity
100
AcDbLine
10
0.563683
20
276.535222
30
0.0
11
0.590437
21
276.513045
31
0.0
0
LINE
8
Letters
62
4
5
268
100
AcDbEntity
100
AcDbLine
10
0.590437
20
276.513045
30
0.0
11
0.591159
21
276.317168
31
0.0
0
LINE
8
Letters
62
4
5
269
100
AcDbEntity
100
AcDbLine
10
0.591159
20
276.317168
30
0.0
11
0.571288
21
276.296572
31
0.0
0
LINE
8
Letters
62
4
5
26a
100
AcDbEntity
100
AcDbLine
10
0.571288
20
276.296572
30
0.0
11
0.553528
21
276.297023
31
0.0
0
LINE
8
Letters
62
4
5
26b
100
AcDbEntity
100
AcDbLine
10
0.553528
20
276.297023
30
0.0
11
0.538757
21
276.304736
31
0.0
0
LINE
8
Letters
62
4
5
26c
100
AcDbEntity
100
AcDbLine
10
0.538757
20
276.304736
30
0.0
11
0.500517
21
276.338819
31
0.0
0
LINE
8
Letters
62
4
5
26d
100
AcDbEntity
100
AcDbLine
10
0.500517
20
276.338819
30
0.0
11
0.499408
21
276.339129
31
0.0
0
LINE
8
Letters
62
4
5
26e
100
AcDbEntity
100
AcDbLine
10
0.499408
20
276.339129
30
0.0
11
0.498618
21
276.339044
31
0.0
0
LINE
8
Letters
62
4
5
26f
100
AcDbEntity
100
AcDbLine
10
0.498618
20
276.339044
30
0.0
11
0.497226
21
276.338254
31
0.0
0
LINE
8
Letters
62
4
5
270
100
AcDbEntity
100
AcDbLine
10
0.497226
20
276.338254
30
0.0
11
0.458334
21
276.300382
31
0.0
0
LINE
8
Letters
62
4
5
271
100
AcDbEntity
100
AcDbLine
10
0.458334
20
276.300382
30
0.0
11
0.427028
21
276.296953
31
0.0
0
LINE
8
Letters
62
4
5
272
100
AcDbEntity
100
AcDbLine
10
0.427028
20
276.296953
30
0.0
11
0.407269
21
276.322327
31
0.0
0
LINE
8
Letters
62
4
5
273
100
AcDbEntity
100
AcDbLine
10
0.407269
20
276.322327
30
0.0
11
0.406902
21
276.514052
31
0.0
0
LINE
8
Letters
62
4
5
274
100
AcDbEntity
100
AcDbLine
10
0.406902
20
276.514052
30
0.0
11
0.429982
21
276.534671
31
0.0
0
LINE
8
Letters
62
4
5
275
100
AcDbEntity
100
AcDbLine
10
0.429982
20
276.534671
30
0.0
11
0.461683
21
276.513654
31
0.0
0
LINE
8
Letters
62
4
5
276
100
AcDbEntity
100
AcDbLine
10
0.461683
20
276.513654
30
0.0
11
0.461111
21
276.410821
31
0.0
0
LINE
8
Letters
62
4
5
277
100
AcDbEntity
100
AcDbLine
10
0.461111
20
276.410821
30
0.0
11
0.479140
21
276.403946
31
0.0
0
LINE
8
Letters
62
4
5
278
100
AcDbEntity
100
AcDbLine
10
0.479140
20
276.403946
30
0.0
11
0.496797
21
276.424963
31
0.0
0
LINE
8
Letters
62
4
5
279
100
AcDbEntity
100
AcDbLine
10
0.496797
20
276.424963
30
0.0
11
0.504401
21
276.424455
31
0.0
0
LINE
8
Letters
62
4
5
27a
100
AcDbEntity
100
AcDbLine
10
0.504401
20
276.424455
30
0.0
11
0.523301
21
276.400878
31
0.0
0
LINE
8
Letters
62
4
5
27b
100
AcDbEntity
100
AcDbLine
10
0.523301
20
276.400878
30
0.0
11
0.523303
21
276.400883
31
0.0
0
LINE
8
Letters
62
4
5
27c
100
AcDbEntity
100
AcDbLine
10
0.382694
20
276.842965
30
0.0
11
0.387612
21
276.874167
31
0.0
0
LINE
8
Letters
62
4
5
27d
100
AcDbEntity
100
AcDbLine
10
0.387612
20
276.874167
30
0.0
11
0.387529
21
277.012566
31
0.0
0
LINE
8
Letters
62
4
5
27e
100
AcDbEntity
100
AcDbLine
10
0.387529
20
277.012566
30
0.0
11
0.354834
21
277.053168
31
0.0
0
LINE
8
Letters
62
4
5
27f
100
AcDbEntity
100
AcDbLine
10
0.354834
20
277.053168
30
0.0
11
0.328165
21
277.055536
31
0.0
0
LINE
8
Letters
62
4
5
280
100
AcDbEntity
100
AcDbLine
10
0.328165
20
277.055536
30
0.0
11
0.250306
21
277.055381
31
0.0
0
LINE
8
Letters
62
4
5
281
100
AcDbEntity
100
AcDbLine
10
0.250306
20
277.055381
30
0.0
11
0.207631
21
277.026233
31
0.0
0
LINE
8
Letters
62
4
5
282
100
AcDbEntity
100
AcDbLine
10
0.207631
20
277.026233
30
0.0
11
0.203252
21
276.998517
31
0.0
0
LINE
8
Letters
62
4
5
283
100
AcDbEntity
100
AcDbLine
10
0.203252
20
276.998517
30
0.0
11
0.203146
21
276.868549
31
0.0
0
LINE
8
Letters
62
4
5
284
100
AcDbEntity
100
AcDbLine
10
0.203146
20
276.868549
30
0.0
11
0.224616
21
276.824770
31
0.0
0
LINE
8
Letters
62
4
5
285
100
AcDbEntity
100
AcDbLine
10
0.224616
20
276.824770
30
0.0
11
0.259757
21
276.816256
31
0.0
0
LINE
8
Letters
62
4
5
286
100
AcDbEntity
100
AcDbLine
10
0.259757
20
276.816256
30
0.0
11
0.334381
21
276.816506
31
0.0
0
LINE
8
Letters
62
4
5
287
100
AcDbEntity
100
AcDbLine
10
0.334381
20
276.816506
30
0.0
11
0.382694
21
276.842965
31
0.0
0
LINE
8
Letters
62
4
5
288
100
AcDbEntity
100
AcDbLine
10
0.382694
20
276.842965
30
0.0
11
0.382694
21
276.842965
31
0.0
0
LINE
8
Letters
62
4
5
289
100
AcDbEntity
100
AcDbLine
10
0.260562
20
276.901676
30
0.0
11
0.260272
21
276.917139
31
0.0
0
LINE
8
Letters
62
4
5
28a
100
AcDbEntity
100
AcDbLine
10
0.260272
20
276.917139
30
0.0
11
0.260319
21
276.968851
31
0.0
0
LINE
8
Letters
62
4
5
28b
100
AcDbEntity
100
AcDbLine
10
0.260319
20
276.968851
30
0.0
11
0.272549
21
276.991554
31
0.0
0
LINE
8
Letters
62
4
5
28c
100
AcDbEntity
100
AcDbLine
10
0.272549
20
276.991554
30
0.0
11
0.292000
21
276.999448
31
0.0
0
LINE
8
Letters
62
4
5
28d
100
AcDbEntity
100
AcDbLine
10
0.292000
20
276.999448
30
0.0
11
0.311577
21
276.995762
31
0.0
0
LINE
8
Letters
62
4
5
28e
100
AcDbEntity
100
AcDbLine
10
0.311577
20
276.995762
30
0.0
11
0.328502
21
276.975676
31
0.0
0
LINE
8
Letters
62
4
5
28f
100
AcDbEntity
100
AcDbLine
10
0.328502
20
276.975676
30
0.0
11
0.330130
21
276.960993
31
0.0
0
LINE
8
Letters
62
4
5
290
100
AcDbEntity
100
AcDbLine
10
0.330130
20
276.960993
30
0.0
11
0.330086
21
276.903166
31
0.0
0
LINE
8
Letters
62
4
5
291
100
AcDbEntity
100
AcDbLine
10
0.330086
20
276.903166
30
0.0
11
0.317635
21
276.880272
31
0.0
0
LINE
8
Letters
62
4
5
292
100
AcDbEntity
100
AcDbLine
10
0.317635
20
276.880272
30
0.0
11
0.298116
21
276.872538
31
0.0
0
LINE
8
Letters
62
4
5
293
100
AcDbEntity
100
AcDbLine
10
0.298116
20
276.872538
30
0.0
11
0.278828
21
276.876258
31
0.0
0
LINE
8
Letters
62
4
5
294
100
AcDbEntity
100
AcDbLine
10
0.278828
20
276.876258
30
0.0
11
0.262044
21
276.895935
31
0.0
0
LINE
8
Letters
62
4
5
295
100
AcDbEntity
100
AcDbLine
10
0.262044
20
276.895935
30
0.0
11
0.260563
21
276.901676
31
0.0
0
LINE
8
Letters
62
4
5
296
100
AcDbEntity
100
AcDbLine
10
0.260563
20
276.901676
30
0.0
11
0.260562
21
276.901676
31
0.0
0
LINE
8
Letters
62
4
5
297
100
AcDbEntity
100
AcDbLine
10
0.382694
20
276.581909
30
0.0
11
0.387612
21
276.613111
31
0.0
0
LINE
8
Letters
62
4
5
298
100
AcDbEntity
100
AcDbLine
10
0.387612
20
276.613111
30
0.0
11
0.387529
21
276.751511
31
0.0
0
LINE
8
Letters
62
4
5
299
100
AcDbEntity
100
AcDbLine
10
0.387529
20
276.751511
30
0.0
11
0.354834
21
276.792113
31
0.0
0
LINE
8
Letters
62
4
5
29a
100
AcDbEntity
100
AcDbLine
10
0.354834
20
276.792113
30
0.0
11
0.328165
21
276.794481
31
0.0
0
LINE
8
Letters
62
4
5
29b
100
AcDbEntity
100
AcDbLine
10
0.328165
20
276.794481
30
0.0
11
0.250306
21
276.794325
31
0.0
0
LINE
8
Letters
62
4
5
29c
100
AcDbEntity
100
AcDbLine
10
0.250306
20
276.794325
30
0.0
11
0.207631
21
276.765177
31
0.0
0
LINE
8
Letters
62
4
5
29d
100
AcDbEntity
100
AcDbLine
10
0.207631
20
276.765177
30
0.0
11
0.203252
21
276.737461
31
0.0
0
LINE
8
Letters
62
4
5
29e
100
AcDbEntity
100
AcDbLine
10
0.203252
20
276.737461
30
0.0
11
0.203146
21
276.607493
31
0.0
0
LINE
8
Letters
62
4
5
29f
100
AcDbEntity
100
AcDbLine
10
0.203146
20
276.607493
30
0.0
11
0.224616
21
276.563714
31
0.0
0
LINE
8
Letters
62
4
5
2a0
100
AcDbEntity
100
AcDbLine
10
0.224616
20
276.563714
30
0.0
11
0.259757
21
276.555200
31
0.0
0
LINE
8
Letters
62
4
5
2a1
100
AcDbEntity
100
AcDbLine
10
0.259757
20
276.555200
30
0.0
11
0.334381
21
276.555450
31
0.0
0
LINE
8
Letters
62
4
5
2a2
100
AcDbEntity
100
AcDbLine
10
0.334381
20
276.555450
30
0.0
11
0.382694
21
276.581909
31
0.0
0
LINE
8
Letters
62
4
5
2a3
100
AcDbEntity
100
AcDbLine
10
0.382694
20
276.581909
30
0.0
11
0.382694
21
276.581909
31
0.0
0
LINE
8
Letters
62
4
5
2a4
100
AcDbEntity
100
AcDbLine
10
0.260562
20
276.640620
30
0.0
11
0.260272
21
276.656083
31
0.0
0
LINE
8
Letters
62
4
5
2a5
100
AcDbEntity
100
AcDbLine
10
0.260272
20
276.656083
30
0.0
11
0.260319
21
276.707796
31
0.0
0
LINE
8
Letters
62
4
5
2a6
100
AcDbEntity
100
AcDbLine
10
0.260319
20
276.707796
30
0.0
11
0.272549
21
276.730498
31
0.0
0
LINE
8
Letters
62
4
5
2a7
100
AcDbEntity
100
AcDbLine
10
0.272549
20
276.730498
30
0.0
11
0.292000
21
276.738392
31
0.0
0
LINE
8
Letters
62
4
5
2a8
100
AcDbEntity
100
AcDbLine
10
0.292000
20
276.738392
30
0.0
11
0.311577
21
276.734707
31
0.0
0
LINE
8
Letters
62
4
5
2a9
100
AcDbEntity
100
AcDbLine
10
0.311577
20
276.734707
30
0.0
11
0.328502
21
276.714620
31
0.0
0
LINE
8
Letters
62
4
5
2aa
100
AcDbEntity
100
AcDbLine
10
0.328502
20
276.714620
30
0.0
11
0.330130
21
276.699938
31
0.0
0
LINE
8
Letters
62
4
5
2ab
100
AcDbEntity
100
AcDbLine
10
0.330130
20
276.699938
30
0.0
11
0.330086
21
276.642110
31
0.0
0
LINE
8
Letters
62
4
5
2ac
100
AcDbEntity
100
AcDbLine
10
0.330086
20
276.642110
30
0.0
11
0.317635
21
276.619216
31
0.0
0
LINE
8
Letters
62
4
5
2ad
100
AcDbEntity
100
AcDbLine
10
0.317635
20
276.619216
30
0.0
11
0.298116
21
276.611483
31
0.0
0
LINE
8
Letters
62
4
5
2ae
100
AcDbEntity
100
AcDbLine
10
0.298116
20
276.611483
30
0.0
11
0.278828
21
276.615203
31
0.0
0
LINE
8
Letters
62
4
5
2af
100
AcDbEntity
100
AcDbLine
10
0.278828
20
276.615203
30
0.0
11
0.262044
21
276.634879
31
0.0
0
LINE
8
Letters
62
4
5
2b0
100
AcDbEntity
100
AcDbLine
10
0.262044
20
276.634879
30
0.0
11
0.260563
21
276.640620
31
0.0
0
LINE
8
Letters
62
4
5
2b1
100
AcDbEntity
100
AcDbLine
10
0.260563
20
276.640620
30
0.0
11
0.260562
21
276.640620
31
0.0
0
LINE
8
Letters
62
4
5
2b2
100
AcDbEntity
100
AcDbLine
10
0.382694
20
276.322263
30
0.0
11
0.387612
21
276.353465
31
0.0
0
LINE
8
Letters
62
4
5
2b3
100
AcDbEntity
100
AcDbLine
10
0.387612
20
276.353465
30
0.0
11
0.387529
21
276.491864
31
0.0
0
LINE
8
Letters
62
4
5
2b4
100
AcDbEntity
100
AcDbLine
10
0.387529
20
276.491864
30
0.0
11
0.354834
21
276.532467
31
0.0
0
LINE
8
Letters
62
4
5
2b5
100
AcDbEntity
100
AcDbLine
10
0.354834
20
276.532467
30
0.0
11
0.328165
21
276.534837
31
0.0
0
LINE
8
Letters
62
4
5
2b6
100
AcDbEntity
100
AcDbLine
10
0.328165
20
276.534837
30
0.0
11
0.250306
21
276.534682
31
0.0
0
LINE
8
Letters
62
4
5
2b7
100
AcDbEntity
100
AcDbLine
10
0.250306
20
276.534682
30
0.0
11
0.207631
21
276.505534
31
0.0
0
LINE
8
Letters
62
4
5
2b8
100
AcDbEntity
100
AcDbLine
10
0.207631
20
276.505534
30
0.0
11
0.203252
21
276.477817
31
0.0
0
LINE
8
Letters
62
4
5
2b9
100
AcDbEntity
100
AcDbLine
10
0.203252
20
276.477817
30
0.0
11
0.203147
21
276.347849
31
0.0
0
LINE
8
Letters
62
4
5
2ba
100
AcDbEntity
100
AcDbLine
10
0.203147
20
276.347849
30
0.0
11
0.224616
21
276.304070
31
0.0
0
LINE
8
Letters
62
4
5
2bb
100
AcDbEntity
100
AcDbLine
10
0.224616
20
276.304070
30
0.0
11
0.259757
21
276.295556
31
0.0
0
LINE
8
Letters
62
4
5
2bc
100
AcDbEntity
100
AcDbLine
10
0.259757
20
276.295556
30
0.0
11
0.334381
21
276.295806
31
0.0
0
LINE
8
Letters
62
4
5
2bd
100
AcDbEntity
100
AcDbLine
10
0.334381
20
276.295806
30
0.0
11
0.382694
21
276.322265
31
0.0
0
LINE
8
Letters
62
4
5
2be
100
AcDbEntity
100
AcDbLine
10
0.382694
20
276.322265
30
0.0
11
0.382694
21
276.322263
31
0.0
0
LINE
8
Letters
62
4
5
2bf
100
AcDbEntity
100
AcDbLine
10
0.260562
20
276.380974
30
0.0
11
0.260272
21
276.396437
31
0.0
0
LINE
8
Letters
62
4
5
2c0
100
AcDbEntity
100
AcDbLine
10
0.260272
20
276.396437
30
0.0
11
0.260319
21
276.448149
31
0.0
0
LINE
8
Letters
62
4
5
2c1
100
AcDbEntity
100
AcDbLine
10
0.260319
20
276.448149
30
0.0
11
0.272549
21
276.470851
31
0.0
0
LINE
8
Letters
62
4
5
2c2
100
AcDbEntity
100
AcDbLine
10
0.272549
20
276.470851
30
0.0
11
0.292000
21
276.478745
31
0.0
0
LINE
8
Letters
62
4
5
2c3
100
AcDbEntity
100
AcDbLine
10
0.292000
20
276.478745
30
0.0
11
0.311577
21
276.475059
31
0.0
0
LINE
8
Letters
62
4
5
2c4
100
AcDbEntity
100
AcDbLine
10
0.311577
20
276.475059
30
0.0
11
0.328502
21
276.454974
31
0.0
0
LINE
8
Letters
62
4
5
2c5
100
AcDbEntity
100
AcDbLine
10
0.328502
20
276.454974
30
0.0
11
0.330130
21
276.440292
31
0.0
0
LINE
8
Letters
62
4
5
2c6
100
AcDbEntity
100
AcDbLine
10
0.330130
20
276.440292
30
0.0
11
0.330086
21
276.382465
31
0.0
0
LINE
8
Letters
62
4
5
2c7
100
AcDbEntity
100
AcDbLine
10
0.330086
20
276.382465
30
0.0
11
0.317635
21
276.359571
31
0.0
0
LINE
8
Letters
62
4
5
2c8
100
AcDbEntity
100
AcDbLine
10
0.317635
20
276.359571
30
0.0
11
0.298116
21
276.351838
31
0.0
0
LINE
8
Letters
62
4
5
2c9
100
AcDbEntity
100
AcDbLine
10
0.298116
20
276.351838
30
0.0
11
0.278828
21
276.355558
31
0.0
0
LINE
8
Letters
62
4
5
2ca
100
AcDbEntity
100
AcDbLine
10
0.278828
20
276.355558
30
0.0
11
0.262044
21
276.375234
31
0.0
0
LINE
8
Letters
62
4
5
2cb
100
AcDbEntity
100
AcDbLine
10
0.262044
20
276.375234
30
0.0
11
0.260563
21
276.380975
31
0.0
0
LINE
8
Letters
62
4
5
2cc
100
AcDbEntity
100
AcDbLine
10
0.260563
20
276.380975
30
0.0
11
0.260562
21
276.380974
31
0.0
0
LINE
8
Letters
62
4
5
2cd
100
AcDbEntity
100
AcDbLine
10
0.105702
20
276.534772
30
0.0
11
0.000742
21
276.534772
31
0.0
0
LINE
8
Letters
62
4
5
2ce
100
AcDbEntity
100
AcDbLine
10
0.000742
20
276.534772
30
0.0
11
0.000742
21
276.295556
31
0.0
0
LINE
8
Letters
62
4
5
2cf
100
AcDbEntity
100
AcDbLine
10
0.000742
20
276.295556
30
0.0
11
0.052271
21
276.295556
31
0.0
0
LINE
8
Letters
62
4
5
2d0
100
AcDbEntity
100
AcDbLine
10
0.052271
20
276.295556
30
0.0
11
0.052271
21
276.349500
31
0.0
0
LINE
8
Letters
62
4
5
2d1
100
AcDbEntity
100
AcDbLine
10
0.052271
20
276.349500
30
0.0
11
0.118254
21
276.349619
31
0.0
0
LINE
8
Letters
62
4
5
2d2
100
AcDbEntity
100
AcDbLine
10
0.118254
20
276.349619
30
0.0
11
0.173220
21
276.394495
31
0.0
0
LINE
8
Letters
62
4
5
2d3
100
AcDbEntity
100
AcDbLine
10
0.173220
20
276.394495
30
0.0
11
0.181757
21
276.421566
31
0.0
0
LINE
8
Letters
62
4
5
2d4
100
AcDbEntity
100
AcDbLine
10
0.181757
20
276.421566
30
0.0
11
0.181449
21
276.468697
31
0.0
0
LINE
8
Letters
62
4
5
2d5
100
AcDbEntity
100
AcDbLine
10
0.181449
20
276.468697
30
0.0
11
0.130428
21
276.533035
31
0.0
0
LINE
8
Letters
62
4
5
2d6
100
AcDbEntity
100
AcDbLine
10
0.130428
20
276.533035
30
0.0
11
0.105702
21
276.534785
31
0.0
0
LINE
8
Letters
62
4
5
2d7
100
AcDbEntity
100
AcDbLine
10
0.105702
20
276.534785
30
0.0
11
0.105702
21
276.534772
31
0.0
0
LINE
8
Letters
62
4
5
2d8
100
AcDbEntity
100
AcDbLine
10
0.058909
20
276.446164
30
0.0
11
0.083409
21
276.479887
31
0.0
0
LINE
8
Letters
62
4
5
2d9
100
AcDbEntity
100
AcDbLine
10
0.083409
20
276.479887
30
0.0
11
0.121143
21
276.464763
31
0.0
0
LINE
8
Letters
62
4
5
2da
100
AcDbEntity
100
AcDbLine
10
0.121143
20
276.464763
30
0.0
11
0.112651
21
276.421075
31
0.0
0
LINE
8
Letters
62
4
5
2db
100
AcDbEntity
100
AcDbLine
10
0.112651
20
276.421075
30
0.0
11
0.068392
21
276.424623
31
0.0
0
LINE
8
Letters
62
4
5
2dc
100
AcDbEntity
100
AcDbLine
10
0.068392
20
276.424623
30
0.0
11
0.058909
21
276.446167
31
0.0
0
LINE
8
Letters
62
4
5
2dd
100
AcDbEntity
100
AcDbLine
10
0.058909
20
276.446167
30
0.0
11
0.058909
21
276.446164
31
0.0
0
LINE
8
Letters
62
4
5
2de
100
AcDbEntity
100
AcDbLine
10
0.065264
20
276.735851
30
0.0
11
0.065193
21
276.555200
31
0.0
0
LINE
8
Letters
62
4
5
2df
100
AcDbEntity
100
AcDbLine
10
0.065193
20
276.555200
30
0.0
11
0.114300
21
276.555200
31
0.0
0
LINE
8
Letters
62
4
5
2e0
100
AcDbEntity
100
AcDbLine
10
0.114300
20
276.555200
30
0.0
11
0.114340
21
276.735774
31
0.0
0
LINE
8
Letters
62
4
5
2e1
100
AcDbEntity
100
AcDbLine
10
0.114340
20
276.735774
30
0.0
11
0.177800
21
276.735774
31
0.0
0
LINE
8
Letters
62
4
5
2e2
100
AcDbEntity
100
AcDbLine
10
0.177800
20
276.735774
30
0.0
11
0.177800
21
276.795089
31
0.0
0
LINE
8
Letters
62
4
5
2e3
100
AcDbEntity
100
AcDbLine
10
0.177800
20
276.795089
30
0.0
11
0.004165
21
276.795089
31
0.0
0
LINE
8
Letters
62
4
5
2e4
100
AcDbEntity
100
AcDbLine
10
0.004165
20
276.795089
30
0.0
11
0.004302
21
276.735871
31
0.0
0
LINE
8
Letters
62
4
5
2e5
100
AcDbEntity
100
AcDbLine
10
0.004302
20
276.735871
30
0.0
11
0.065264
21
276.735851
31
0.0
0
LINE
8
Letters
62
4
5
2e6
100
AcDbEntity
100
AcDbLine
10
0.997937
20
276.295556
30
0.0
11
0.000000
21
276.295556
31
0.0
0
LINE
8
Letters
62
4
5
2e7
100
AcDbEntity
100
AcDbLine
10
0.000000
20
276.295556
30
0.0
11
0.000000
21
277.318611
31
0.0
0
LINE
8
Letters
62
4
5
2e8
100
AcDbEntity
100
AcDbLine
10
0.000000
20
277.318611
30
0.0
11
0.997937
21
277.318611
31
0.0
0
LINE
8
Letters
62
4
5
2e9
100
AcDbEntity
100
AcDbLine
10
0.997937
20
277.318611
30
0.0
11
0.997937
21
276.295556
31
0.0
0
LINE
8
Letters
62
4
5
2ea
100
AcDbEntity
100
AcDbLine
10
0.997937
20
276.295556
30
0.0
11
0.997937
21
276.295556
31
0.0
  0
ENDSEC
  0
SECTION
  2
OBJECTS
  0
DICTIONARY
  5
C
330
0
100
AcDbDictionary
  3
ACAD_GROUP
350
D
  3
ACAD_MLINESTYLE
350
17
  0
DICTIONARY
  5
D
330
C
100
AcDbDictionary
  0
DICTIONARY
  5
1A
330
C
100
AcDbDictionary
  0
DICTIONARY
  5
17
330
C
100
AcDbDictionary
  3
STANDARD
350
18
  0
DICTIONARY
  5
19
330
C
100
AcDbDictionary
  0
ENDSEC
  0
EOF
