<?xml version="1.0" encoding="UTF-8" standalone="no"?>
<svg
   xmlns:dc="http://purl.org/dc/elements/1.1/"
   xmlns:cc="http://creativecommons.org/ns#"
   xmlns:rdf="http://www.w3.org/1999/02/22-rdf-syntax-ns#"
   xmlns:svg="http://www.w3.org/2000/svg"
   xmlns="http://www.w3.org/2000/svg"
   xmlns:sodipodi="http://sodipodi.sourceforge.net/DTD/sodipodi-0.dtd"
   xmlns:inkscape="http://www.inkscape.org/namespaces/inkscape"
   sodipodi:docname="power_tower_v1_gto_mc_ink_scaled_1layer.svg"
   inkscape:version="0.48.5 r10040"
   version="1.1"
   id="svg2"
   viewBox="0 0 8.5000001 11"
   height="990"
   width="765">
  <metadata
     id="metadata133">
    <rdf:RDF>
      <cc:Work
         rdf:about="">
        <dc:format>image/svg+xml</dc:format>
        <dc:type
           rdf:resource="http://purl.org/dc/dcmitype/StillImage" />
        <dc:title></dc:title>
      </cc:Work>
    </rdf:RDF>
  </metadata>
  <defs
     id="defs131" />
  <sodipodi:namedview
     pagecolor="#ffffff"
     bordercolor="#666666"
     borderopacity="1"
     objecttolerance="10"
     gridtolerance="10"
     guidetolerance="10"
     inkscape:pageopacity="0"
     inkscape:pageshadow="2"
     inkscape:window-width="1426"
     inkscape:window-height="767"
     id="namedview129"
     showgrid="false"
     inkscape:document-units="in"
     units="in"
     inkscape:zoom="1.28"
     inkscape:cx="-30.914065"
     inkscape:cy="186.98669"
     inkscape:window-x="0"
     inkscape:window-y="0"
     inkscape:window-maximized="0"
     inkscape:current-layer="layer2" />
  <g
     inkscape:groupmode="layer"
     id="layer2"
     inkscape:label="Letters"
     style="display:inline">
    <path
       style="fill:none;stroke:#000000;stroke-width:0.001;stroke-miterlimit:4;stroke-dasharray:none"
       d="m 0.37453489,8.3029811 c -0.12396874,0 -0.24793746,0 -0.37190618,0 0,0.2845857 0,0.5691714 0,0.8537572 0.05345368,0 0.1291295,0 0.18258313,0 0,-0.075015 0,-0.1175123 0,-0.1925266 0.0853256,-2.822e-4 0.14854322,5.644e-4 0.23379739,-4.234e-4 0.0794061,-0.011939 0.15403608,-0.090905 0.19476068,-0.1601608 0.016206,-0.029715 0.0342005,-0.061666 0.0302523,-0.096611 -7.0308e-4,-0.05605 0.001421,-0.1122768 -0.001091,-0.1682128 C 0.62991069,8.4373634 0.55767806,8.3470145 0.4621464,8.3091832 0.4331542,8.3013632 0.421848,8.3033632 0.3745349,8.3029832 z"
       id="path61"
       inkscape:connector-curvature="0"
       sodipodi:nodetypes="cccccccccccc" />
    <path
       style="fill:none;stroke:#000000;stroke-width:0.001;stroke-miterlimit:4;stroke-dasharray:none"
       d="m 0.20873201,8.6230849 c -0.003794,-0.05378 0.0345233,-0.1064417 0.0868103,-0.1194899 0.0501884,-0.014941 0.10762762,0.00838 0.13370351,0.053594 0.0307125,0.049707 0.0169856,0.120242 -0.0300885,0.1547993 -0.0455211,0.036226 -0.1178928,0.031022 -0.15682356,-0.012566 -0.0200066,-0.020298 -0.0319193,-0.047962 -0.0336017,-0.076338 z"
       id="path62"
       inkscape:connector-curvature="0" />
    <path
       id="path91"
       d="M 0.22814193,7.5898968 0.22787664,8.23 l 0.18307118,0 1.4974e-4,-0.6398267 0.22047386,0 0,-0.2067766 -0.6193821,0 5.1192e-4,0.2064301 z"
       inkscape:connector-curvature="0"
       style="fill:none;stroke:#000000;stroke-width:0.001;stroke-miterlimit:4;stroke-dasharray:none"
       sodipodi:nodetypes="ccccccccc" />
    <path
       style="fill:none;stroke:#000000;stroke-width:0.001;stroke-miterlimit:4;stroke-dasharray:none"
       d="M 1.356003,8.1370041 C 1.3748598,8.1031572 1.3758846,8.0638397 1.3734267,8.0264449 1.373217,7.8629888 1.3738365,7.6994723 1.3731347,7.5360547 1.3682535,7.4715033 1.320678,7.4130696 1.2572852,7.3921881 c -0.030599,-0.0088 -0.062804,-0.0098 -0.094495,-0.00839 -0.091949,4.297e-4 -0.1839825,-8.22e-4 -0.27587771,5.513e-4 -0.065121,0.00472 -0.12432555,0.046199 -0.15121249,0.1032799 -0.0142052,0.030024 -0.0168796,0.036559 -0.0155155,0.098207 -2.7466e-4,0.154481 3.2272e-4,0.3075174 -3.7412e-4,0.4605157 -0.004903,0.059892 0.0250366,0.1207107 0.0760742,0.1551222 0.0354122,0.025235 0.0546161,0.029444 0.12451401,0.030169 0.0881598,0 0.17632001,0 0.26441611,-8.88e-4 0.071665,2.423e-4 0.1411036,-0.032517 0.1711881,-0.09375 z"
       id="path93"
       inkscape:connector-curvature="0"
       sodipodi:nodetypes="ccccccccccccc" />
    <path
       style="fill:none;stroke:#000000;stroke-width:0.001;stroke-miterlimit:4;stroke-dasharray:none"
       d="m 0.92325124,7.9289734 c -0.002277,-0.018107 -4.2813e-4,-0.036548 -0.001026,-0.054791 1.107e-4,-0.061073 -2.2131e-4,-0.1221821 1.6587e-4,-0.1832329 0.004239,-0.030827 0.0188262,-0.06074 0.0433341,-0.080442 0.0193392,-0.016136 0.0436311,-0.026615 0.0689202,-0.027971 0.023719,-0.00193 0.048244,0.00173 0.069366,0.013059 0.028238,0.014732 0.050756,0.040484 0.059972,0.071173 0.00655,0.016615 0.00606,0.034507 0.00577,0.052025 -1.059e-4,0.068296 2.118e-4,0.1366249 -1.587e-4,0.2049004 -0.00421,0.031191 -0.019219,0.061367 -0.044117,0.081121 -0.019492,0.015997 -0.043859,0.026154 -0.06916,0.027402 -0.023403,0.00166 -0.047527,-0.00197 -0.0683443,-0.013182 -0.0277524,-0.014518 -0.0500895,-0.039621 -0.0594711,-0.069719 -0.002304,-0.00662 -0.00414,-0.013413 -0.005247,-0.020342 z"
       id="path95"
       inkscape:connector-curvature="0" />
    <path
       style="fill:none;stroke:#000000;stroke-width:0.001;stroke-miterlimit:4;stroke-dasharray:none"
       d="m 1.8542231,7.8574239 c 0.018991,0.010854 0.045579,-0.00424 0.043205,-0.025929 2.801e-4,-0.1231145 -5.608e-4,-0.2649226 4.2e-4,-0.3880158 0.0044,-0.046721 0.050905,-0.066472 0.099454,-0.062058 0.051744,-0.00131 0.099215,0.028923 0.094796,0.078576 -1.189e-4,0.226153 0.00297,0.467903 0.00256,0.694052 -0.00306,0.036132 -0.03284,0.068451 -0.070408,0.072985 -0.020796,0.00164 -0.042478,0.00321 -0.06293,-0.00158 -0.030424,-0.012474 -0.024596,-0.0056 -0.052339,-0.02733 -0.049973,-0.040422 -0.086693,-0.078849 -0.135495,-0.1207646 -0.00155,-6.579e-4 -0.00152,-0.00111 -0.00393,-0.00114 -0.0011,-5.51e-5 -0.00228,1.839e-4 -0.0028,3.013e-4 -0.00196,2.553e-4 -0.0034,0.00156 -0.00493,0.00281 -0.055651,0.05335 -0.08166,0.081438 -0.137809,0.1341935 -0.022751,0.019425 -0.082856,0.015363 -0.1109249,0.01215 -0.042133,-0.00768 -0.074122,-0.048404 -0.070012,-0.089913 1.59e-4,-0.2282352 -0.00185,-0.4511129 -0.0013,-0.6793397 0.00227,-0.040148 0.039743,-0.07517 0.081779,-0.073064 0.065788,-0.00399 0.1171556,0.00718 0.1123272,0.074468 0,0.1145621 -0.00196,0.25073 -0.00203,0.3643691 -0.0016,0.030096 0.042561,0.046408 0.063883,0.024362 0.020393,-0.019728 0.042161,-0.054747 0.062564,-0.074467 0.00822,-0.00493 0.019813,-0.00439 0.026945,0.0018 0.024312,0.022767 0.042009,0.061068 0.066969,0.083544 z"
       id="path98"
       inkscape:connector-curvature="0"
       sodipodi:nodetypes="ccccccccccccccccccccccccc" />
    <path
       style="fill:none;stroke:#000000;stroke-width:0.001;stroke-miterlimit:4;stroke-dasharray:none"
       d="m 2.2849569,8.2363279 c 0.1626117,-1.18e-4 0.3120385,-0.00115 0.4746442,-0.00157 0.02358,-0.00167 0.045775,-0.017224 0.051931,-0.039278 0.00476,-0.018352 0.00121,-0.055677 0.00226,-0.074407 0.00119,-0.022574 -0.013509,-0.045484 -0.036126,-0.053151 -0.00687,-0.00319 -0.00903,-0.00466 -0.022906,-0.00564 -0.1274384,-0.00206 -0.2145997,-4.712e-4 -0.3420243,-7.012e-4 -0.010705,5.51e-5 -0.01971,-0.00645 -0.026553,-0.013604 -0.00371,-0.00537 -0.00605,-0.011606 -0.00612,-0.018464 l -2.4e-6,-0.1124358 c 3.231e-4,-0.00944 0.0047,-0.019381 0.013489,-0.024497 l 0.00699,-0.00467 c 0.00443,-0.00158 0.00914,-0.00236 0.013865,-0.00292 0.048199,-0.00101 0.069443,9.002e-4 0.1175536,-0.00139 0.027128,-0.00437 0.0481,-0.02763 0.047734,-0.054367 -5.941e-4,-0.028105 0.0061,-0.069709 -0.024603,-0.085564 -0.017411,-0.011 -0.035182,-0.00726 -0.054972,-0.00775 -0.036813,0 -0.040987,6.944e-4 -0.077808,6.469e-4 -0.027468,0.00129 -0.033712,-0.027429 -0.035123,-0.052375 0.00165,-0.041665 -0.00373,-0.078558 0.00294,-0.1197082 0.00623,-0.015694 0.023191,-0.020202 0.040925,-0.019466 0.1245179,7.57e-5 0.1929565,0.00202 0.3174402,5.607e-4 0.039426,-0.00405 0.06475,-0.048429 0.059823,-0.085133 0.00377,-0.038057 -0.027421,-0.076345 -0.06868,-0.077973 -0.1735162,-3.641e-4 -0.3284064,-3.643e-4 -0.5019224,0 -0.038193,0.00139 -0.067093,0.036856 -0.063268,0.072095 0,0.2364913 0,0.4729825 -3e-7,0.7096139 -0.00224,0.029429 0.017862,0.05882 0.042665,0.067181 0.024803,0.00836 0.046958,0.00367 0.067851,0.00497 z"
       id="path110"
       inkscape:connector-curvature="0"
       sodipodi:nodetypes="cccccccccccccccccccccccccccccc" />
    <path
       style="fill:none;stroke:#000000;stroke-width:0.001;stroke-miterlimit:4;stroke-dasharray:none"
       d="M 2.9011343,8.1565799 C 2.901374,7.930882 2.899691,7.6957346 2.900531,7.4700588 c 0.00369,-0.040902 0.062855,-0.078856 0.1040723,-0.076065 0.1096243,-1.65e-5 0.2192485,-3.3e-5 0.3288307,-5.933e-4 0.032715,-0.0019 0.066818,0.00991 0.087524,0.036334 0.022326,0.024622 0.057578,0.049054 0.079711,0.0738 0.00765,0.00901 0.015129,0.01849 0.019243,0.029704 0.00657,0.015828 0.00964,0.033201 0.00763,0.051546 -2.074e-4,0.071638 0.00734,0.2159773 -2.805e-4,0.2242051 -0.012936,0.023373 -0.031044,0.01575 -0.044249,0.054112 -0.017049,0.034405 -0.011335,0.080283 -0.026689,0.1202811 -0.011088,0.023102 8.327e-4,0.053627 0.012778,0.070523 0.009,0.012339 0.010223,0.020377 0.042171,0.066667 0.026234,0.031134 0.015932,0.084142 -0.020374,0.1036265 -0.030253,0.017263 -0.087498,0.0073 -0.1149246,-0.017804 -0.063918,-0.062912 -0.1108702,-0.1205428 -0.1749763,-0.1842688 -0.00859,-0.00917 -0.021917,-0.00868 -0.033466,-0.0084 -0.020516,2.171e-4 -0.041072,-4.388e-4 -0.061563,3.361e-4 -0.011672,0.00119 -0.022173,0.00842 -0.027703,0.018744 -0.00298,0.00528 -0.00389,0.011709 -0.0042,0.017543 l 4.82e-4,0.1467968 c 1.288e-4,0.026001 -0.00248,0.034209 -0.028635,0.034596 -0.00134,4.47e-5 -0.080845,-3.183e-4 -0.094095,-1.583e-4 -0.044748,0.00139 -0.050857,-0.00343 -0.050685,-0.037684 z"
       id="path118"
       inkscape:connector-curvature="0"
       sodipodi:nodetypes="ccccccccccccccccccccccccc" />
    <path
       style="fill:none;stroke:#000000;stroke-width:0.001;stroke-miterlimit:4;stroke-dasharray:none"
       d="m 3.1055294,7.706568 c -0.00561,-0.070957 0.062796,-0.1383366 0.134066,-0.1281188 0.064616,0.00661 0.11685,0.071827 0.1071888,0.1364917 -0.00695,0.05847 -0.061465,0.1072324 -0.1206682,0.1059249 C 3.164394,7.8214208 3.1078122,7.7685098 3.1055294,7.706568 z"
       id="path119"
       inkscape:connector-curvature="0"
       sodipodi:nodetypes="ccccc" />
    <path
       sodipodi:nodetypes="ccccc"
       inkscape:connector-curvature="0"
       id="path33512"
       d="m 3.1054003,8.6237268 c -0.00561,-0.070957 0.062796,-0.1383366 0.134066,-0.1281188 0.064616,0.00661 0.11685,0.071827 0.1071888,0.1364917 -0.00695,0.05847 -0.061465,0.1072324 -0.1206682,0.1059249 -0.061722,5.55e-4 -0.1183038,-0.052356 -0.1205866,-0.1142978 z"
       style="fill:none;stroke:#000000;stroke-width:0.001;stroke-miterlimit:4;stroke-dasharray:none" />
    <path
       sodipodi:nodetypes="ccccccccccccccccccccccccc"
       inkscape:connector-curvature="0"
       id="path33514"
       d="M 2.9011343,9.0787388 C 2.901374,8.8530409 2.899691,8.6178935 2.900531,8.3922177 c 0.00369,-0.040902 0.062855,-0.078856 0.1040723,-0.076065 0.1096243,-1.65e-5 0.2192485,-3.3e-5 0.3288307,-5.933e-4 0.032715,-0.0019 0.066818,0.00991 0.087524,0.036334 0.022326,0.024622 0.057578,0.049054 0.079711,0.0738 0.00765,0.00901 0.015129,0.01849 0.019243,0.029704 0.00657,0.015828 0.00964,0.033201 0.00763,0.051546 -2.074e-4,0.071638 0.00734,0.2159773 -2.805e-4,0.2242051 -0.012936,0.023373 -0.031044,0.01575 -0.044249,0.054112 -0.017049,0.034405 -0.011335,0.080283 -0.026689,0.1202811 -0.011088,0.023102 8.327e-4,0.053627 0.012778,0.070523 0.009,0.012339 0.010223,0.020377 0.042171,0.066667 0.026234,0.031134 0.015932,0.084142 -0.020374,0.1036265 -0.030253,0.017263 -0.087498,0.0073 -0.1149246,-0.017804 -0.063918,-0.062912 -0.1108702,-0.1205428 -0.1749763,-0.1842688 -0.00859,-0.00917 -0.021917,-0.00868 -0.033466,-0.0084 -0.020516,2.171e-4 -0.041072,-4.388e-4 -0.061563,3.361e-4 -0.011672,0.00119 -0.022173,0.00842 -0.027703,0.018744 -0.00298,0.00528 -0.00389,0.011709 -0.0042,0.017543 l 4.82e-4,0.1467968 c 1.288e-4,0.026001 -0.00248,0.034209 -0.028635,0.034596 -0.00134,4.47e-5 -0.080845,-3.183e-4 -0.094095,-1.583e-4 -0.044748,0.00139 -0.050857,-0.00343 -0.050685,-0.037684 z"
       style="fill:none;stroke:#000000;stroke-width:0.001;stroke-miterlimit:4;stroke-dasharray:none" />
    <path
       style="fill:none;stroke:#000000;stroke-width:0.001;stroke-miterlimit:4;stroke-dasharray:none"
       d="m 3.1054003,9.5487296 c -0.00561,-0.070957 0.062796,-0.1383366 0.134066,-0.1281188 0.064616,0.00661 0.11685,0.071827 0.1071888,0.1364917 -0.00695,0.05847 -0.061465,0.1072324 -0.1206682,0.1059249 -0.061722,5.55e-4 -0.1183038,-0.052356 -0.1205866,-0.1142978 z"
       id="path33516"
       inkscape:connector-curvature="0"
       sodipodi:nodetypes="ccccc" />
    <path
       style="fill:none;stroke:#000000;stroke-width:0.001;stroke-miterlimit:4;stroke-dasharray:none"
       d="M 2.9011343,10.003741 C 2.901374,9.7780437 2.899691,9.5428963 2.900531,9.3172205 c 0.00369,-0.040902 0.062855,-0.078856 0.1040723,-0.076065 0.1096243,-1.65e-5 0.2192485,-3.3e-5 0.3288307,-5.933e-4 0.032715,-0.0019 0.066818,0.00991 0.087524,0.036334 0.022326,0.024622 0.057578,0.049054 0.079711,0.0738 0.00765,0.00901 0.015129,0.01849 0.019243,0.029704 0.00657,0.015828 0.00964,0.033201 0.00763,0.051546 -2.074e-4,0.071638 0.00734,0.2159773 -2.805e-4,0.2242051 -0.012936,0.023373 -0.031044,0.01575 -0.044249,0.054112 -0.017049,0.034405 -0.011335,0.080283 -0.026689,0.1202811 -0.011088,0.023102 8.327e-4,0.053627 0.012778,0.070523 0.009,0.012339 0.010223,0.020377 0.042171,0.066667 0.026234,0.031134 0.015932,0.084141 -0.020374,0.1036246 -0.030253,0.01726 -0.087498,0.0073 -0.1149246,-0.0178 -0.063918,-0.06291 -0.1108702,-0.1205409 -0.1749763,-0.1842669 -0.00859,-0.00917 -0.021917,-0.00868 -0.033466,-0.0084 -0.020516,2.171e-4 -0.041072,-4.388e-4 -0.061563,3.361e-4 -0.011672,0.00119 -0.022173,0.00842 -0.027703,0.018744 -0.00298,0.00528 -0.00389,0.011709 -0.0042,0.017543 l 4.82e-4,0.1467948 c 1.288e-4,0.026 -0.00248,0.03421 -0.028635,0.0346 -0.00134,4.5e-5 -0.080845,-3.18e-4 -0.094095,-1.58e-4 -0.044748,0.0014 -0.050857,-0.0034 -0.050685,-0.03768 z"
       id="path33518"
       inkscape:connector-curvature="0"
       sodipodi:nodetypes="ccccccccccccccccccccccccc" />
    <path
       sodipodi:nodetypes="ccccc"
       inkscape:connector-curvature="0"
       id="path33520"
       d="m 3.1054003,10.475731 c -0.00561,-0.07096 0.062796,-0.138337 0.134066,-0.128119 0.064616,0.0066 0.11685,0.07183 0.1071888,0.136492 -0.00695,0.05847 -0.061465,0.107232 -0.1206682,0.105925 -0.061722,5.55e-4 -0.1183038,-0.05236 -0.1205866,-0.114298 z"
       style="fill:none;stroke:#000000;stroke-width:0.001;stroke-miterlimit:4;stroke-dasharray:none" />
    <path
       sodipodi:nodetypes="ccccccccccccccccccccccccc"
       inkscape:connector-curvature="0"
       id="path33522"
       d="m 2.9011343,10.930742 c 2.397e-4,-0.225697 -0.00144,-0.460844 -6.033e-4,-0.68652 0.00369,-0.0409 0.062855,-0.07886 0.1040723,-0.07606 0.1096243,-1.7e-5 0.2192485,-3.3e-5 0.3288307,-5.94e-4 0.032715,-0.0019 0.066818,0.0099 0.087524,0.03633 0.022326,0.02462 0.057578,0.04905 0.079711,0.0738 0.00765,0.009 0.015129,0.01849 0.019243,0.0297 0.00657,0.01583 0.00964,0.0332 0.00763,0.05155 -2.074e-4,0.07164 0.00734,0.215978 -2.805e-4,0.224206 -0.012936,0.02337 -0.031044,0.01575 -0.044249,0.05411 -0.017049,0.0344 -0.011335,0.08028 -0.026689,0.120281 -0.011088,0.0231 8.327e-4,0.05363 0.012778,0.07052 0.009,0.01234 0.010223,0.02038 0.042171,0.06667 0.026234,0.03113 0.015932,0.08414 -0.020374,0.103624 -0.030253,0.01726 -0.087498,0.0073 -0.1149246,-0.0178 -0.063918,-0.06291 -0.1108702,-0.120541 -0.1749763,-0.184267 -0.00859,-0.0092 -0.021917,-0.0087 -0.033466,-0.0084 -0.020516,2.17e-4 -0.041072,-4.38e-4 -0.061563,3.36e-4 -0.011672,0.0012 -0.022173,0.0084 -0.027703,0.01874 -0.00298,0.0053 -0.00389,0.01171 -0.0042,0.01754 l 4.82e-4,0.146795 c 1.288e-4,0.026 -0.00248,0.03421 -0.028635,0.0346 -0.00134,4.5e-5 -0.080845,-3.18e-4 -0.094095,-1.58e-4 -0.044748,0.0014 -0.050857,-0.0034 -0.050685,-0.03768 z"
       style="fill:none;stroke:#000000;stroke-width:0.001;stroke-miterlimit:4;stroke-dasharray:none" />
    <path
       sodipodi:nodetypes="cccccccccccccccccccccccccccccc"
       inkscape:connector-curvature="0"
       id="path33524"
       d="m 2.2849569,9.1598332 c 0.1626117,-1.18e-4 0.3120385,-0.00115 0.4746442,-0.00157 0.02358,-0.00167 0.045775,-0.017224 0.051931,-0.039278 0.00476,-0.018352 0.00121,-0.055677 0.00226,-0.074407 0.00119,-0.022574 -0.013509,-0.045484 -0.036126,-0.053151 -0.00687,-0.00319 -0.00903,-0.00466 -0.022906,-0.00564 -0.1274384,-0.00206 -0.2145997,-4.712e-4 -0.3420243,-7.012e-4 -0.010705,5.51e-5 -0.01971,-0.00645 -0.026553,-0.013604 -0.00371,-0.00537 -0.00605,-0.011606 -0.00612,-0.018464 l -2.4e-6,-0.1124358 c 3.231e-4,-0.00944 0.0047,-0.019381 0.013489,-0.024497 l 0.00699,-0.00467 c 0.00443,-0.00158 0.00914,-0.00236 0.013865,-0.00292 0.048199,-0.00101 0.069443,9.002e-4 0.1175536,-0.00139 0.027128,-0.00437 0.0481,-0.02763 0.047734,-0.054367 -5.941e-4,-0.028105 0.0061,-0.069709 -0.024603,-0.085564 -0.017411,-0.011 -0.035182,-0.00726 -0.054972,-0.00775 -0.036813,0 -0.040987,6.944e-4 -0.077808,6.469e-4 -0.027468,0.00129 -0.033712,-0.027429 -0.035123,-0.052375 0.00165,-0.041665 -0.00373,-0.078558 0.00294,-0.1197082 0.00623,-0.015694 0.023191,-0.020202 0.040925,-0.019466 0.1245179,7.57e-5 0.1929565,0.00202 0.3174402,5.607e-4 0.039426,-0.00405 0.06475,-0.048429 0.059823,-0.085133 0.00377,-0.038057 -0.027421,-0.076345 -0.06868,-0.077973 -0.1735162,-3.641e-4 -0.3284064,-3.643e-4 -0.5019224,0 -0.038193,0.00139 -0.067093,0.036856 -0.063268,0.072095 0,0.2364913 0,0.4729825 -3e-7,0.7096139 -0.00224,0.029429 0.017862,0.05882 0.042665,0.067181 0.024803,0.00836 0.046958,0.00367 0.067851,0.00497 z"
       style="fill:none;stroke:#000000;stroke-width:0.001;stroke-miterlimit:4;stroke-dasharray:none" />
    <path
       style="fill:none;stroke:#000000;stroke-width:0.001;stroke-miterlimit:4;stroke-dasharray:none"
       d="m 2.2849569,10.084837 c 0.1626117,-1.18e-4 0.3120385,-0.0011 0.4746442,-0.0016 0.02358,-0.0017 0.045775,-0.01722 0.051931,-0.03928 0.00476,-0.01835 0.00121,-0.055677 0.00226,-0.074407 0.00119,-0.022574 -0.013509,-0.045484 -0.036126,-0.053151 -0.00687,-0.00319 -0.00903,-0.00466 -0.022906,-0.00564 -0.1274384,-0.00206 -0.2145997,-4.712e-4 -0.3420243,-7.012e-4 -0.010705,5.51e-5 -0.01971,-0.00645 -0.026553,-0.013604 -0.00371,-0.00537 -0.00605,-0.011606 -0.00612,-0.018464 l -2.4e-6,-0.1124358 c 3.231e-4,-0.00944 0.0047,-0.019381 0.013489,-0.024497 l 0.00699,-0.00467 c 0.00443,-0.00158 0.00914,-0.00236 0.013865,-0.00292 0.048199,-0.00101 0.069443,9.002e-4 0.1175536,-0.00139 0.027128,-0.00437 0.0481,-0.02763 0.047734,-0.054367 -5.941e-4,-0.028105 0.0061,-0.069709 -0.024603,-0.085564 -0.017411,-0.011 -0.035182,-0.00726 -0.054972,-0.00775 -0.036813,0 -0.040987,6.944e-4 -0.077808,6.469e-4 -0.027468,0.00129 -0.033712,-0.027429 -0.035123,-0.052375 0.00165,-0.041665 -0.00373,-0.078558 0.00294,-0.1197082 0.00623,-0.015694 0.023191,-0.020202 0.040925,-0.019466 0.1245179,7.57e-5 0.1929565,0.00202 0.3174402,5.607e-4 0.039426,-0.00405 0.06475,-0.048429 0.059823,-0.085133 0.00377,-0.038057 -0.027421,-0.076345 -0.06868,-0.077973 -0.1735162,-3.641e-4 -0.3284064,-3.643e-4 -0.5019224,0 -0.038193,0.00139 -0.067093,0.036856 -0.063268,0.072095 0,0.2364913 0,0.4729825 -3e-7,0.7096136 -0.00224,0.02943 0.017862,0.05882 0.042665,0.06718 0.024803,0.0084 0.046958,0.0037 0.067851,0.005 z"
       id="path33526"
       inkscape:connector-curvature="0"
       sodipodi:nodetypes="cccccccccccccccccccccccccccccc" />
    <path
       sodipodi:nodetypes="cccccccccccccccccccccccccccccc"
       inkscape:connector-curvature="0"
       id="path33528"
       d="m 2.2849569,11.00476 c 0.1626117,-1.18e-4 0.3120385,-0.0011 0.4746442,-0.0016 0.02358,-0.0017 0.045775,-0.01722 0.051931,-0.03928 0.00476,-0.01835 0.00121,-0.05568 0.00226,-0.07441 0.00119,-0.02257 -0.013509,-0.04548 -0.036126,-0.05315 -0.00687,-0.0032 -0.00903,-0.0047 -0.022906,-0.0056 -0.1274384,-0.0021 -0.2145997,-4.71e-4 -0.3420243,-7.01e-4 -0.010705,5.5e-5 -0.01971,-0.0064 -0.026553,-0.0136 -0.00371,-0.0054 -0.00605,-0.01161 -0.00612,-0.01846 l -2.4e-6,-0.112436 c 3.231e-4,-0.0094 0.0047,-0.01938 0.013489,-0.0245 l 0.00699,-0.0047 c 0.00443,-0.0016 0.00914,-0.0024 0.013865,-0.0029 0.048199,-10e-4 0.069443,9e-4 0.1175536,-0.0014 0.027128,-0.0044 0.0481,-0.02763 0.047734,-0.05437 -5.941e-4,-0.02811 0.0061,-0.06971 -0.024603,-0.08556 -0.017411,-0.011 -0.035182,-0.0073 -0.054972,-0.0077 -0.036813,0 -0.040987,6.94e-4 -0.077808,6.47e-4 -0.027468,0.0013 -0.033712,-0.02743 -0.035123,-0.05237 0.00165,-0.04167 -0.00373,-0.07856 0.00294,-0.119708 0.00623,-0.01569 0.023191,-0.0202 0.040925,-0.01947 0.1245179,7.5e-5 0.1929565,0.002 0.3174402,5.6e-4 0.039426,-0.004 0.06475,-0.04843 0.059823,-0.08513 0.00377,-0.03806 -0.027421,-0.07634 -0.06868,-0.07797 -0.1735162,-3.64e-4 -0.3284064,-3.64e-4 -0.5019224,0 -0.038193,0.0014 -0.067093,0.03686 -0.063268,0.07209 0,0.236492 0,0.472983 -3e-7,0.709614 -0.00224,0.02943 0.017862,0.05882 0.042665,0.06718 0.024803,0.0084 0.046958,0.0037 0.067851,0.005 z"
       style="fill:none;stroke:#000000;stroke-width:0.001;stroke-miterlimit:4;stroke-dasharray:none" />
    <path
       sodipodi:nodetypes="ccccccccccccccccccccccccc"
       inkscape:connector-curvature="0"
       id="path33536"
       d="m 1.8542231,8.7837686 c 0.018991,0.010854 0.045579,-0.00424 0.043205,-0.025929 2.801e-4,-0.1231145 -5.608e-4,-0.2649226 4.2e-4,-0.3880158 0.0044,-0.046721 0.050905,-0.066472 0.099454,-0.062058 0.051744,-0.00131 0.099215,0.028923 0.094796,0.078576 -1.189e-4,0.226153 0.00297,0.467903 0.00256,0.694052 -0.00306,0.036132 -0.03284,0.068451 -0.070408,0.072985 -0.020796,0.00164 -0.042478,0.00321 -0.06293,-0.00158 -0.030424,-0.012474 -0.024596,-0.0056 -0.052339,-0.02733 -0.049973,-0.040422 -0.086693,-0.078849 -0.135495,-0.1207646 -0.00155,-6.579e-4 -0.00152,-0.00111 -0.00393,-0.00114 -0.0011,-5.51e-5 -0.00228,1.839e-4 -0.0028,3.013e-4 -0.00196,2.553e-4 -0.0034,0.00156 -0.00493,0.00281 -0.055651,0.05335 -0.08166,0.081438 -0.137809,0.1341935 -0.022751,0.019425 -0.082856,0.015363 -0.1109249,0.01215 -0.042133,-0.00768 -0.074122,-0.048404 -0.070012,-0.089913 1.59e-4,-0.2282352 -0.00185,-0.4511129 -0.0013,-0.6793397 0.00227,-0.040148 0.039743,-0.07517 0.081779,-0.073064 0.065788,-0.00399 0.1171556,0.00718 0.1123272,0.074468 0,0.1145621 -0.00196,0.25073 -0.00203,0.3643691 -0.0016,0.030096 0.042561,0.046408 0.063883,0.024362 0.020393,-0.019728 0.042161,-0.054747 0.062564,-0.074467 0.00822,-0.00493 0.019813,-0.00439 0.026945,0.0018 0.024312,0.022767 0.042009,0.061068 0.066969,0.083544 z"
       style="fill:none;stroke:#000000;stroke-width:0.001;stroke-miterlimit:4;stroke-dasharray:none" />
    <path
       style="fill:none;stroke:#000000;stroke-width:0.001;stroke-miterlimit:4;stroke-dasharray:none"
       d="m 1.8542231,9.7087947 c 0.018991,0.010854 0.045579,-0.00424 0.043205,-0.025929 2.801e-4,-0.1231145 -5.608e-4,-0.2649227 4.2e-4,-0.3880158 0.0044,-0.046721 0.050905,-0.066472 0.099454,-0.062058 0.051744,-0.00131 0.099215,0.028923 0.094796,0.078576 -1.189e-4,0.226153 0.00297,0.467903 0.00256,0.6940521 -0.00306,0.03613 -0.03284,0.06845 -0.070408,0.07298 -0.020796,0.0016 -0.042478,0.0032 -0.06293,-0.0016 -0.030424,-0.01247 -0.024596,-0.0056 -0.052339,-0.02733 -0.049973,-0.04042 -0.086693,-0.078849 -0.135495,-0.1207646 -0.00155,-6.58e-4 -0.00152,-0.00111 -0.00393,-0.00114 -0.0011,-5.52e-5 -0.00228,1.839e-4 -0.0028,3.013e-4 -0.00196,2.553e-4 -0.0034,0.00156 -0.00493,0.00281 -0.055651,0.05335 -0.08166,0.08144 -0.137809,0.1341933 -0.022751,0.01943 -0.082856,0.01536 -0.1109249,0.01215 -0.042133,-0.0077 -0.074122,-0.0484 -0.070012,-0.089913 1.59e-4,-0.2282352 -0.00185,-0.4511129 -0.0013,-0.6793397 0.00227,-0.040148 0.039743,-0.07517 0.081779,-0.073064 0.065788,-0.00399 0.1171556,0.00718 0.1123272,0.074468 0,0.1145621 -0.00196,0.25073 -0.00203,0.364369 -0.0016,0.030096 0.042561,0.046408 0.063883,0.024362 0.020393,-0.019728 0.042161,-0.054747 0.062564,-0.074467 0.00822,-0.00493 0.019813,-0.00439 0.026945,0.0018 0.024312,0.022767 0.042009,0.061068 0.066969,0.083544 z"
       id="path33538"
       inkscape:connector-curvature="0"
       sodipodi:nodetypes="ccccccccccccccccccccccccc" />
    <path
       sodipodi:nodetypes="ccccccccccccccccccccccccc"
       inkscape:connector-curvature="0"
       id="path33540"
       d="m 1.8542231,10.626794 c 0.018991,0.01085 0.045579,-0.0042 0.043205,-0.02593 2.801e-4,-0.123115 -5.608e-4,-0.264923 4.2e-4,-0.388016 0.0044,-0.04672 0.050905,-0.06647 0.099454,-0.06206 0.051744,-0.0013 0.099215,0.02892 0.094796,0.07858 -1.189e-4,0.226153 0.00297,0.467903 0.00256,0.694052 -0.00306,0.03613 -0.03284,0.06845 -0.070408,0.07298 -0.020796,0.0016 -0.042478,0.0032 -0.06293,-0.0016 -0.030424,-0.01247 -0.024596,-0.0056 -0.052339,-0.02733 -0.049973,-0.04042 -0.086693,-0.07885 -0.135495,-0.120765 -0.00155,-6.58e-4 -0.00152,-0.0011 -0.00393,-0.0011 -0.0011,-5.5e-5 -0.00228,1.84e-4 -0.0028,3.02e-4 -0.00196,2.55e-4 -0.0034,0.0016 -0.00493,0.0028 -0.055651,0.05335 -0.08166,0.08144 -0.137809,0.134193 -0.022751,0.01943 -0.082856,0.01536 -0.1109249,0.01215 -0.042133,-0.0077 -0.074122,-0.0484 -0.070012,-0.08991 1.59e-4,-0.228235 -0.00185,-0.451113 -0.0013,-0.67934 0.00227,-0.04015 0.039743,-0.07517 0.081779,-0.07306 0.065788,-0.004 0.1171556,0.0072 0.1123272,0.07447 0,0.114562 -0.00196,0.25073 -0.00203,0.364369 -0.0016,0.0301 0.042561,0.04641 0.063883,0.02436 0.020393,-0.01973 0.042161,-0.05475 0.062564,-0.07447 0.00822,-0.0049 0.019813,-0.0044 0.026945,0.0018 0.024312,0.02277 0.042009,0.06107 0.066969,0.08354 z"
       style="fill:none;stroke:#000000;stroke-width:0.001;stroke-miterlimit:4;stroke-dasharray:none" />
    <path
       sodipodi:nodetypes="ccccccccccccc"
       inkscape:connector-curvature="0"
       id="path33542"
       d="M 1.356003,9.0603609 C 1.3748598,9.026514 1.3758846,8.9871965 1.3734267,8.9498017 1.373217,8.7863456 1.3738365,8.6228291 1.3731347,8.4594115 1.3682535,8.3948601 1.320678,8.3364264 1.2572852,8.3155449 c -0.030599,-0.0088 -0.062804,-0.0098 -0.094495,-0.00839 -0.091949,4.297e-4 -0.1839825,-8.22e-4 -0.27587771,5.513e-4 -0.065121,0.00472 -0.12432555,0.046199 -0.15121249,0.1032799 -0.0142052,0.030024 -0.0168796,0.036559 -0.0155155,0.098207 -2.7466e-4,0.154481 3.2272e-4,0.3075174 -3.7412e-4,0.4605157 -0.004903,0.059892 0.0250366,0.1207107 0.0760742,0.1551222 0.0354122,0.025235 0.0546161,0.029444 0.12451401,0.030169 0.0881598,0 0.17632001,0 0.26441611,-8.88e-4 0.071665,2.423e-4 0.1411036,-0.032517 0.1711881,-0.09375 z"
       style="fill:none;stroke:#000000;stroke-width:0.001;stroke-miterlimit:4;stroke-dasharray:none" />
    <path
       inkscape:connector-curvature="0"
       id="path33544"
       d="m 0.92325124,8.8523302 c -0.002277,-0.018107 -4.2813e-4,-0.036548 -0.001026,-0.054791 1.107e-4,-0.061073 -2.2131e-4,-0.1221821 1.6587e-4,-0.1832329 0.004239,-0.030827 0.0188262,-0.06074 0.0433341,-0.080442 0.0193392,-0.016136 0.0436311,-0.026615 0.0689202,-0.027971 0.023719,-0.00193 0.048244,0.00173 0.069366,0.013059 0.028238,0.014732 0.050756,0.040484 0.059972,0.071173 0.00655,0.016615 0.00606,0.034507 0.00577,0.052025 -1.059e-4,0.068296 2.118e-4,0.1366249 -1.587e-4,0.2049004 -0.00421,0.031191 -0.019219,0.061367 -0.044117,0.081121 -0.019492,0.015997 -0.043859,0.026154 -0.06916,0.027402 -0.023403,0.00166 -0.047527,-0.00197 -0.0683443,-0.013182 -0.0277524,-0.014518 -0.0500895,-0.039621 -0.0594711,-0.069719 -0.002304,-0.00662 -0.00414,-0.013413 -0.005247,-0.020342 z"
       style="fill:none;stroke:#000000;stroke-width:0.001;stroke-miterlimit:4;stroke-dasharray:none" />
    <path
       style="fill:none;stroke:#000000;stroke-width:0.001;stroke-miterlimit:4;stroke-dasharray:none"
       d="M 1.356003,9.9853609 C 1.3748598,9.9515141 1.3758846,9.9121965 1.3734267,9.8748018 1.373217,9.7113457 1.3738365,9.5478292 1.3731347,9.3844115 1.3682535,9.3198602 1.320678,9.2614265 1.2572852,9.240545 c -0.030599,-0.0088 -0.062804,-0.0098 -0.094495,-0.00839 -0.091949,4.297e-4 -0.1839825,-8.22e-4 -0.27587771,5.513e-4 -0.065121,0.00472 -0.12432555,0.046199 -0.15121249,0.1032799 -0.0142052,0.030024 -0.0168796,0.036559 -0.0155155,0.098207 -2.7466e-4,0.154481 3.2272e-4,0.3075174 -3.7412e-4,0.4605157 -0.004903,0.059892 0.0250366,0.1207111 0.0760742,0.1551221 0.0354122,0.02524 0.0546161,0.02944 0.12451401,0.03017 0.0881598,0 0.17632001,0 0.26441611,-8.88e-4 0.071665,2.42e-4 0.1411036,-0.03252 0.1711881,-0.09375 z"
       id="path33546"
       inkscape:connector-curvature="0"
       sodipodi:nodetypes="ccccccccccccc" />
    <path
       style="fill:none;stroke:#000000;stroke-width:0.001;stroke-miterlimit:4;stroke-dasharray:none"
       d="m 0.92325124,9.7773303 c -0.002277,-0.018107 -4.2813e-4,-0.036548 -0.001026,-0.054791 1.107e-4,-0.061073 -2.2131e-4,-0.1221821 1.6587e-4,-0.1832329 0.004239,-0.030827 0.0188262,-0.06074 0.0433341,-0.080442 0.0193392,-0.016136 0.0436311,-0.026615 0.0689202,-0.027971 0.023719,-0.00193 0.048244,0.00173 0.069366,0.013059 0.028238,0.014732 0.050756,0.040484 0.059972,0.071173 0.00655,0.016615 0.00606,0.034507 0.00577,0.052025 -1.059e-4,0.068296 2.118e-4,0.1366249 -1.587e-4,0.2049004 -0.00421,0.031191 -0.019219,0.061367 -0.044117,0.081121 -0.019492,0.015997 -0.043859,0.026154 -0.06916,0.027402 -0.023403,0.00166 -0.047527,-0.00197 -0.0683443,-0.013182 -0.0277524,-0.014518 -0.0500895,-0.039621 -0.0594711,-0.069719 -0.002304,-0.00662 -0.00414,-0.013413 -0.005247,-0.020342 z"
       id="path33548"
       inkscape:connector-curvature="0" />
    <path
       sodipodi:nodetypes="ccccccccccccc"
       inkscape:connector-curvature="0"
       id="path33550"
       d="m 1.356003,10.905367 c 0.018857,-0.03385 0.019882,-0.07316 0.017424,-0.110559 -2.097e-4,-0.163456 4.098e-4,-0.326973 -2.92e-4,-0.49039 -0.00488,-0.06455 -0.052457,-0.122985 -0.1158495,-0.143867 -0.030599,-0.0088 -0.062804,-0.0098 -0.094495,-0.0084 -0.091949,4.3e-4 -0.1839825,-8.22e-4 -0.27587771,5.51e-4 -0.065121,0.0047 -0.12432555,0.0462 -0.15121249,0.10328 -0.0142052,0.03002 -0.0168796,0.03656 -0.0155155,0.09821 -2.7466e-4,0.154481 3.2272e-4,0.307518 -3.7412e-4,0.460516 -0.004903,0.05989 0.0250366,0.120711 0.0760742,0.155122 0.0354122,0.02524 0.0546161,0.02944 0.12451401,0.03017 0.0881598,0 0.17632001,0 0.26441611,-8.88e-4 0.071665,2.42e-4 0.1411036,-0.03252 0.1711881,-0.09375 z"
       style="fill:none;stroke:#000000;stroke-width:0.001;stroke-miterlimit:4;stroke-dasharray:none" />
    <path
       inkscape:connector-curvature="0"
       id="path33552"
       d="m 0.92325124,10.697336 c -0.002277,-0.01811 -4.2813e-4,-0.03655 -0.001026,-0.05479 1.107e-4,-0.06107 -2.2131e-4,-0.122182 1.6587e-4,-0.183233 0.004239,-0.03083 0.0188262,-0.06074 0.0433341,-0.08044 0.0193392,-0.01614 0.0436311,-0.02661 0.0689202,-0.02797 0.023719,-0.0019 0.048244,0.0017 0.069366,0.01306 0.028238,0.01473 0.050756,0.04048 0.059972,0.07117 0.00655,0.01661 0.00606,0.03451 0.00577,0.05202 -1.059e-4,0.0683 2.118e-4,0.136625 -1.587e-4,0.204901 -0.00421,0.03119 -0.019219,0.06137 -0.044117,0.08112 -0.019492,0.016 -0.043859,0.02615 -0.06916,0.0274 -0.023403,0.0017 -0.047527,-0.002 -0.0683443,-0.01318 -0.0277524,-0.01452 -0.0500895,-0.03962 -0.0594711,-0.06972 -0.002304,-0.0066 -0.00414,-0.01341 -0.005247,-0.02034 z"
       style="fill:none;stroke:#000000;stroke-width:0.001;stroke-miterlimit:4;stroke-dasharray:none" />
    <path
       sodipodi:nodetypes="cccccccccccc"
       inkscape:connector-curvature="0"
       id="path33554"
       d="m 0.37453489,10.152381 c -0.12396874,0 -0.24793746,0 -0.37190618,0 0,0.28254 0,0.565079 0,0.847619 0.05345368,0 0.1291295,0 0.18258313,0 0,-0.07448 0,-0.116667 0,-0.191142 0.0853256,-2.81e-4 0.14854322,5.6e-4 0.23379739,-4.21e-4 0.0794061,-0.01185 0.15403608,-0.09026 0.19476068,-0.159009 0.016206,-0.0295 0.0342005,-0.06123 0.0302523,-0.09592 -7.0308e-4,-0.05565 0.001421,-0.111468 -0.001091,-0.167002 -0.0130205,-0.100712 -0.0852532,-0.190411 -0.18078481,-0.22797 -0.0289922,-0.0077 -0.0402984,-0.0058 -0.0876115,-0.0062 z"
       style="fill:none;stroke:#000000;stroke-width:0.001;stroke-miterlimit:4;stroke-dasharray:none" />
    <path
       inkscape:connector-curvature="0"
       id="path33556"
       d="m 0.20873201,10.466347 c -0.003794,-0.05378 0.0345233,-0.106442 0.0868103,-0.11949 0.0501884,-0.01494 0.10762762,0.0084 0.13370351,0.05359 0.0307125,0.04971 0.0169856,0.120242 -0.0300885,0.154799 -0.0455211,0.03623 -0.1178928,0.03102 -0.15682356,-0.01257 -0.0200066,-0.0203 -0.0319193,-0.04796 -0.0336017,-0.07634 z"
       style="fill:none;stroke:#000000;stroke-width:0.001;stroke-miterlimit:4;stroke-dasharray:none" />
    <path
       sodipodi:nodetypes="ccccccccc"
       style="fill:none;stroke:#000000;stroke-width:0.001;stroke-miterlimit:4;stroke-dasharray:none"
       inkscape:connector-curvature="0"
       d="M 0.23125214,9.4398972 0.231,10.08 l 0.174,0 1.4232e-4,-0.6398276 0.22485769,0 0,-0.2101724 -0.61524329,0 4.8656e-4,0.2098277 z"
       id="path33558" />
    <path
       style="fill:none;stroke:#000000;stroke-width:0.00100001;stroke-miterlimit:4;stroke-dasharray:none;display:inline"
       inkscape:connector-curvature="0"
       d="M 3.5359988,11 0,11 0,7.3750006 l 3.5359988,0 0,3.6249994 z"
       id="path4214" />
  </g>
</svg>
