%
M48
M72
T01C0.0320
T02C0.0400
%
T01
X2651Y3651
X2651Y4651
X3401Y5651
X2651Y6151
X3401Y6651
X4651Y6151
X5401Y5651
X5401Y6651
X6651Y6151
X7401Y5651
X7401Y6651
X8651Y6151
X9401Y5651
X9401Y6651
X10651Y6151
X11401Y5651
X11401Y6651
X12651Y6151
X13401Y5651
X13401Y6651
X13401Y8401
X12401Y8401
X11401Y8401
X10401Y8401
X9401Y8401
X8401Y8401
X7401Y8401
X6401Y8401
X5401Y8401
X5401Y10401
X6401Y10401
X7401Y10401
X8401Y10401
X9401Y10401
X10401Y10401
X11401Y10401
X12401Y10401
X13401Y10401
X14401Y10401
X14401Y8401
X12651Y4651
X12651Y3651
X10651Y3651
X10651Y4651
X8651Y4651
X8651Y3651
X6651Y3651
X6651Y4651
X4651Y4651
X4651Y3651
X3401Y8401
X2401Y8401
X2401Y10401
X3401Y10401
X3401Y12401
X2401Y12401
X2401Y14401
X3401Y14401
X3401Y16401
X2401Y16401
X2401Y18401
X3401Y18401
X5401Y18401
X6401Y18401
X7401Y18401
X8401Y18401
X9401Y18401
X10401Y18401
X11401Y18401
X12401Y18401
X13401Y18401
X14401Y18401
X14401Y16401
X13401Y16401
X12401Y16401
X11401Y16401
X10401Y16401
X9401Y16401
X8401Y16401
X7401Y16401
X6401Y16401
X5401Y16401
X5401Y14401
X6401Y14401
X7401Y14401
X8401Y14401
X9401Y14401
X10401Y14401
X11401Y14401
X12401Y14401
X13401Y14401
X14401Y14401
X14401Y12401
X13401Y12401
X12401Y12401
X11401Y12401
X10401Y12401
X9401Y12401
X8401Y12401
X7401Y12401
X6401Y12401
X5401Y12401
T02
X5151Y2401
X6151Y2401
X7151Y2401
X8151Y2401
X9151Y2401
X10151Y2401
X11151Y2401
M30
