G75*
%MOIN*%
%OFA0B0*%
%FSLAX24Y24*%
%IPPOS*%
%LPD*%
%AMOC8*
5,1,8,0,0,1.08239X$1,22.5*
%
%ADD10C,0.0000*%
%ADD11R,0.0472X0.0472*%
%ADD12R,0.0472X0.0472*%
%ADD13C,0.0397*%
%ADD14C,0.0060*%
%ADD15C,0.0317*%
D10*
X002392Y002517D02*
X002392Y011017D01*
X008892Y011017D01*
X008892Y002517D01*
X002392Y002517D01*
D11*
X002978Y004392D03*
X002978Y005142D03*
X002978Y005892D03*
X002978Y006642D03*
X002978Y007392D03*
X002978Y008079D03*
X002978Y008829D03*
X003805Y008829D03*
X003805Y008079D03*
X003805Y007392D03*
X003805Y006642D03*
X003805Y005892D03*
X003805Y005142D03*
X003805Y004392D03*
X004892Y003805D03*
X005517Y003805D03*
X006139Y003805D03*
X006767Y003868D03*
X007392Y003666D03*
X006767Y003041D03*
X006139Y002978D03*
X005517Y002978D03*
X004892Y002978D03*
X007392Y004493D03*
X008079Y004291D03*
X008079Y005118D03*
X008017Y008603D03*
X007392Y009166D03*
X008017Y009430D03*
X007392Y009993D03*
X006704Y009728D03*
X006017Y009728D03*
X005267Y009728D03*
X004579Y009728D03*
X004579Y010555D03*
X005267Y010555D03*
X006017Y010555D03*
X006704Y010555D03*
D12*
G36*
X003575Y009468D02*
X003908Y009801D01*
X004241Y009468D01*
X003908Y009135D01*
X003575Y009468D01*
G37*
G36*
X002990Y010053D02*
X003323Y010386D01*
X003656Y010053D01*
X003323Y009720D01*
X002990Y010053D01*
G37*
G36*
X004221Y003564D02*
X003888Y003897D01*
X004221Y004230D01*
X004554Y003897D01*
X004221Y003564D01*
G37*
G36*
X003636Y002980D02*
X003303Y003313D01*
X003636Y003646D01*
X003969Y003313D01*
X003636Y002980D01*
G37*
D13*
X003267Y003517D03*
X003267Y003892D03*
X004142Y004954D03*
X004142Y005329D03*
X004767Y004204D03*
X005142Y004329D03*
X006517Y004267D03*
X006892Y004267D03*
X004142Y007204D03*
X004142Y007579D03*
X004329Y009142D03*
X004704Y009204D03*
X005829Y009392D03*
X006204Y009392D03*
X007704Y008579D03*
X008329Y008579D03*
D14*
X008041Y008579D01*
X008017Y008603D01*
X007993Y008579D01*
X007704Y008579D01*
X007752Y009166D02*
X007392Y009166D01*
X007752Y009166D02*
X008017Y009430D01*
X007392Y009993D02*
X007127Y009728D01*
X006704Y009728D01*
X006204Y009541D02*
X006204Y009392D01*
X006204Y009541D02*
X006017Y009728D01*
X005829Y009541D01*
X005829Y009392D01*
X005267Y009728D02*
X005267Y009805D01*
X006017Y010555D01*
X006704Y010555D02*
X006704Y010204D01*
X005267Y010454D02*
X005267Y010555D01*
X005267Y010454D02*
X004680Y009868D01*
X004579Y009868D01*
X004579Y009728D01*
X004704Y009204D02*
X004642Y009142D01*
X004329Y009142D01*
X004234Y009142D01*
X003908Y009468D01*
X003642Y009142D02*
X003642Y008993D01*
X003805Y008829D01*
X003642Y009142D02*
X003323Y009460D01*
X003323Y010053D01*
X003055Y008829D02*
X003805Y008079D01*
X003993Y007579D02*
X003805Y007392D01*
X003993Y007204D01*
X004142Y007204D01*
X004142Y007579D02*
X003993Y007579D01*
X003329Y008079D02*
X002978Y008079D01*
X002978Y007392D02*
X003055Y007392D01*
X003805Y006642D01*
X003055Y006642D02*
X003805Y005892D01*
X003329Y005892D02*
X002978Y005892D01*
X002978Y006642D02*
X003055Y006642D01*
X003993Y005329D02*
X003805Y005142D01*
X003993Y004954D01*
X004142Y004954D01*
X004142Y005329D02*
X003993Y005329D01*
X003805Y004392D02*
X003055Y005142D01*
X002978Y005142D01*
X002978Y004392D02*
X003329Y004392D01*
X003267Y003892D02*
X003267Y003517D01*
X003432Y003517D01*
X003636Y003313D01*
X003688Y003313D01*
X003892Y003517D01*
X004221Y003897D02*
X004329Y004006D01*
X004329Y004329D01*
X004767Y004204D02*
X005017Y004204D01*
X005142Y004329D01*
X004892Y004079D02*
X004767Y004204D01*
X004892Y004079D02*
X004892Y003805D01*
X004892Y003180D02*
X005517Y003805D01*
X005517Y003183D02*
X006139Y003805D01*
X006517Y004118D02*
X006517Y004267D01*
X006517Y004118D02*
X006767Y003868D01*
X006892Y003993D01*
X006892Y004267D01*
X007392Y004493D02*
X007392Y004829D01*
X008079Y004767D02*
X008079Y005118D01*
X008079Y004291D02*
X008079Y003954D01*
X007392Y004017D02*
X007392Y003666D01*
X006767Y003392D02*
X006767Y003041D01*
X006142Y002981D02*
X006139Y002978D01*
X006142Y002981D02*
X006142Y003329D01*
X005517Y003183D02*
X005517Y002978D01*
X004892Y002978D02*
X004892Y003180D01*
X003055Y008829D02*
X002978Y008829D01*
X004579Y010204D02*
X004579Y010555D01*
D15*
X004579Y010204D03*
X006704Y010204D03*
X003329Y008079D03*
X003329Y005892D03*
X003329Y004392D03*
X003892Y003517D03*
X004329Y004329D03*
X006142Y003329D03*
X006767Y003392D03*
X007392Y004017D03*
X008079Y003954D03*
X008079Y004767D03*
X007392Y004829D03*
M02*
