G75*
%MOIN*%
%OFA0B0*%
%FSLAX24Y24*%
%IPPOS*%
%LPD*%
%AMOC8*
5,1,8,0,0,1.08239X$1,22.5*
%
%ADD10C,0.0000*%
%ADD11C,0.0100*%
%ADD12C,0.0040*%
%ADD13C,0.0080*%
D10*
X002392Y002517D02*
X002392Y011017D01*
X008892Y011017D01*
X008892Y002517D01*
X002392Y002517D01*
D11*
X002642Y004067D02*
X002642Y009466D01*
X002644Y009541D01*
X002650Y009615D01*
X002660Y009689D01*
X002673Y009762D01*
X002691Y009835D01*
X002712Y009906D01*
X002737Y009977D01*
X002765Y010046D01*
X002797Y010113D01*
X002833Y010179D01*
X002872Y010242D01*
X002914Y010304D01*
X002960Y010363D01*
X003008Y010420D01*
X003059Y010474D01*
X003113Y010525D01*
X003170Y010573D01*
X003229Y010619D01*
X003291Y010661D01*
X003355Y010700D01*
X003420Y010736D01*
X003487Y010768D01*
X003556Y010796D01*
X003627Y010821D01*
X003698Y010842D01*
X003771Y010860D01*
X003844Y010873D01*
X003918Y010883D01*
X003992Y010889D01*
X004067Y010891D01*
X004067Y010892D02*
X006916Y010892D01*
X006392Y009392D02*
X005151Y009392D01*
X005093Y009390D01*
X005036Y009384D01*
X004979Y009375D01*
X004922Y009362D01*
X004867Y009345D01*
X004813Y009325D01*
X004760Y009301D01*
X004709Y009274D01*
X004660Y009243D01*
X004613Y009209D01*
X004568Y009173D01*
X004526Y009133D01*
X004486Y009091D01*
X004450Y009046D01*
X004416Y008999D01*
X004385Y008950D01*
X004358Y008899D01*
X004334Y008846D01*
X004314Y008792D01*
X004297Y008737D01*
X004284Y008680D01*
X004275Y008623D01*
X004269Y008566D01*
X004267Y008508D01*
X004267Y004892D01*
X004269Y004843D01*
X004275Y004794D01*
X004284Y004746D01*
X004298Y004699D01*
X004315Y004653D01*
X004335Y004608D01*
X004359Y004565D01*
X004386Y004525D01*
X004417Y004486D01*
X004450Y004450D01*
X004486Y004417D01*
X004525Y004386D01*
X004565Y004359D01*
X004608Y004335D01*
X004653Y004315D01*
X004699Y004298D01*
X004746Y004284D01*
X004794Y004275D01*
X004843Y004269D01*
X004892Y004267D01*
X006494Y004267D01*
X006517Y002641D02*
X006604Y002643D01*
X006691Y002649D01*
X006777Y002659D01*
X006863Y002672D01*
X006948Y002690D01*
X007033Y002711D01*
X007116Y002736D01*
X007198Y002765D01*
X007279Y002797D01*
X007358Y002833D01*
X007435Y002872D01*
X007511Y002915D01*
X007585Y002962D01*
X007656Y003011D01*
X007725Y003064D01*
X007792Y003120D01*
X007856Y003178D01*
X007918Y003240D01*
X007976Y003304D01*
X008032Y003371D01*
X008085Y003440D01*
X008134Y003511D01*
X008181Y003585D01*
X008224Y003661D01*
X008263Y003738D01*
X008299Y003817D01*
X008331Y003898D01*
X008360Y003980D01*
X008385Y004063D01*
X008406Y004148D01*
X008424Y004233D01*
X008437Y004319D01*
X008447Y004405D01*
X008453Y004492D01*
X008455Y004579D01*
X008454Y004579D02*
X008454Y005189D01*
X008452Y005219D01*
X008447Y005248D01*
X008439Y005277D01*
X008428Y005304D01*
X008413Y005330D01*
X008396Y005354D01*
X008376Y005376D01*
X008354Y005396D01*
X008330Y005413D01*
X008304Y005428D01*
X008277Y005439D01*
X008248Y005447D01*
X008219Y005452D01*
X008189Y005454D01*
X007681Y005454D01*
X007631Y005452D01*
X007582Y005447D01*
X007533Y005437D01*
X007485Y005425D01*
X007438Y005408D01*
X007393Y005388D01*
X007349Y005365D01*
X007307Y005339D01*
X007267Y005309D01*
X007229Y005277D01*
X007194Y005242D01*
X007162Y005204D01*
X007132Y005164D01*
X007106Y005122D01*
X007083Y005078D01*
X007063Y005033D01*
X007046Y004986D01*
X007034Y004938D01*
X007024Y004889D01*
X007019Y004840D01*
X007017Y004790D01*
X007015Y004747D01*
X007010Y004704D01*
X007001Y004662D01*
X006989Y004620D01*
X006973Y004580D01*
X006954Y004541D01*
X006932Y004504D01*
X006907Y004469D01*
X006879Y004436D01*
X006848Y004405D01*
X006815Y004377D01*
X006780Y004352D01*
X006743Y004330D01*
X006704Y004311D01*
X006664Y004295D01*
X006622Y004283D01*
X006580Y004274D01*
X006537Y004269D01*
X006494Y004267D01*
X006517Y002642D02*
X006454Y002642D01*
X004067Y002642D01*
X003992Y002644D01*
X003918Y002650D01*
X003844Y002660D01*
X003771Y002673D01*
X003698Y002691D01*
X003627Y002712D01*
X003556Y002737D01*
X003487Y002765D01*
X003420Y002797D01*
X003354Y002833D01*
X003291Y002872D01*
X003229Y002914D01*
X003170Y002960D01*
X003113Y003008D01*
X003059Y003059D01*
X003008Y003113D01*
X002960Y003170D01*
X002914Y003229D01*
X002872Y003291D01*
X002833Y003355D01*
X002797Y003420D01*
X002765Y003487D01*
X002737Y003556D01*
X002712Y003627D01*
X002691Y003698D01*
X002673Y003771D01*
X002660Y003844D01*
X002650Y003918D01*
X002644Y003992D01*
X002642Y004067D01*
X007017Y008767D02*
X007015Y008816D01*
X007009Y008865D01*
X007000Y008913D01*
X006986Y008960D01*
X006969Y009006D01*
X006949Y009051D01*
X006925Y009094D01*
X006898Y009134D01*
X006867Y009173D01*
X006834Y009209D01*
X006798Y009242D01*
X006759Y009273D01*
X006719Y009300D01*
X006676Y009324D01*
X006631Y009344D01*
X006585Y009361D01*
X006538Y009375D01*
X006490Y009384D01*
X006441Y009390D01*
X006392Y009392D01*
X006916Y010892D02*
X006995Y010890D01*
X007073Y010884D01*
X007151Y010875D01*
X007228Y010861D01*
X007305Y010844D01*
X007381Y010823D01*
X007455Y010798D01*
X007529Y010770D01*
X007601Y010738D01*
X007671Y010703D01*
X007739Y010664D01*
X007805Y010622D01*
X007870Y010577D01*
X007932Y010529D01*
X007991Y010477D01*
X008048Y010423D01*
X008102Y010366D01*
X008154Y010307D01*
X008202Y010245D01*
X008247Y010180D01*
X008289Y010114D01*
X008328Y010046D01*
X008363Y009976D01*
X008395Y009904D01*
X008423Y009830D01*
X008448Y009756D01*
X008469Y009680D01*
X008486Y009603D01*
X008500Y009526D01*
X008509Y009448D01*
X008515Y009370D01*
X008517Y009291D01*
X008517Y008717D01*
X008515Y008675D01*
X008509Y008634D01*
X008500Y008594D01*
X008487Y008554D01*
X008470Y008516D01*
X008449Y008480D01*
X008426Y008445D01*
X008399Y008413D01*
X008370Y008384D01*
X008338Y008357D01*
X008303Y008334D01*
X008267Y008313D01*
X008229Y008296D01*
X008189Y008283D01*
X008149Y008274D01*
X008108Y008268D01*
X008066Y008266D01*
X008066Y008267D02*
X007517Y008267D01*
X007473Y008269D01*
X007430Y008275D01*
X007388Y008284D01*
X007346Y008297D01*
X007306Y008314D01*
X007267Y008334D01*
X007230Y008357D01*
X007196Y008384D01*
X007163Y008413D01*
X007134Y008446D01*
X007107Y008480D01*
X007084Y008517D01*
X007064Y008556D01*
X007047Y008596D01*
X007034Y008638D01*
X007025Y008680D01*
X007019Y008723D01*
X007017Y008767D01*
D12*
X007017Y008829D02*
X007017Y010329D01*
X007767Y010329D01*
X007767Y008954D01*
X007642Y008829D01*
X007017Y008829D01*
X006954Y009392D02*
X007079Y009517D01*
X007079Y010892D01*
X006329Y010892D01*
X006329Y009392D01*
X006954Y009392D01*
X006392Y009517D02*
X006267Y009392D01*
X005642Y009392D01*
X005642Y010892D01*
X005642Y009517D01*
X005517Y009392D01*
X004892Y009392D01*
X004892Y010892D01*
X005642Y010892D01*
X006392Y010892D01*
X006392Y009517D01*
X007642Y009767D02*
X007642Y008267D01*
X008267Y008267D01*
X008392Y008392D01*
X008392Y009767D01*
X007642Y009767D01*
X004954Y009517D02*
X004829Y009392D01*
X004204Y009392D01*
X004204Y010892D01*
X004954Y010892D01*
X004954Y009517D01*
X004323Y009583D02*
X004323Y009407D01*
X003881Y008965D01*
X002820Y010025D01*
X003351Y010556D01*
X004323Y009583D01*
X004017Y009204D02*
X004142Y009079D01*
X004142Y008454D01*
X002642Y008454D01*
X004017Y008454D01*
X004142Y008329D01*
X004142Y007704D01*
X002642Y007704D01*
X002642Y008454D01*
X002642Y009204D01*
X004017Y009204D01*
X004017Y007767D02*
X002642Y007767D01*
X002642Y007017D01*
X004017Y007017D01*
X004142Y006892D01*
X004142Y006267D01*
X002642Y006267D01*
X004017Y006267D01*
X004142Y006142D01*
X004142Y005517D01*
X002642Y005517D01*
X002642Y006267D01*
X002642Y007017D01*
X004142Y007017D01*
X004142Y007642D01*
X004017Y007767D01*
X004017Y005517D02*
X002642Y005517D01*
X002642Y004767D01*
X004017Y004767D01*
X004142Y004642D01*
X004142Y004017D01*
X002642Y004017D01*
X002642Y004767D01*
X004142Y004767D01*
X004142Y005392D01*
X004017Y005517D01*
X004105Y004312D02*
X004282Y004312D01*
X004724Y003870D01*
X003663Y002810D01*
X003133Y003340D01*
X004105Y004312D01*
X004517Y004017D02*
X004642Y004142D01*
X005267Y004142D01*
X005142Y004017D01*
X005142Y002642D01*
X005892Y002642D01*
X005892Y004142D01*
X005267Y004142D01*
X005267Y002642D01*
X004517Y002642D01*
X004517Y004017D01*
X005764Y004017D02*
X005889Y004142D01*
X006514Y004142D01*
X006514Y002642D01*
X005764Y002642D01*
X005764Y004017D01*
X006392Y004079D02*
X006517Y004204D01*
X007142Y004204D01*
X007142Y002704D01*
X006392Y002704D01*
X006392Y004079D01*
X007017Y004704D02*
X007142Y004829D01*
X007767Y004829D01*
X007767Y003329D01*
X007017Y003329D01*
X007017Y004704D01*
X007704Y005329D02*
X007704Y003954D01*
X008454Y003954D01*
X008454Y005454D01*
X007829Y005454D01*
X007704Y005329D01*
D13*
X007008Y004790D02*
X006868Y004719D01*
X006727Y004579D01*
X006938Y004579D01*
X007008Y004509D01*
X007008Y004439D01*
X006938Y004369D01*
X006798Y004369D01*
X006727Y004439D01*
X006727Y004579D01*
X006547Y004439D02*
X006547Y004719D01*
X006477Y004790D01*
X006337Y004790D01*
X006267Y004719D01*
X006267Y004439D01*
X006337Y004369D01*
X006477Y004369D01*
X006547Y004439D01*
X006087Y004509D02*
X006087Y004790D01*
X005807Y004790D02*
X005807Y004509D01*
X005947Y004369D01*
X006087Y004509D01*
X005727Y004707D02*
X005446Y004427D01*
X005446Y004357D01*
X005266Y004427D02*
X005266Y004707D01*
X005196Y004777D01*
X005056Y004777D01*
X004986Y004707D01*
X004986Y004427D01*
X005056Y004357D01*
X005196Y004357D01*
X005266Y004427D01*
X005446Y004777D02*
X005727Y004777D01*
X005727Y004707D01*
X004806Y004777D02*
X004806Y004497D01*
X004666Y004357D01*
X004525Y004497D01*
X004525Y004777D01*
X004524Y004738D02*
X004664Y004878D01*
X004524Y005018D01*
X004244Y005018D01*
X004314Y005198D02*
X004244Y005268D01*
X004244Y005409D01*
X004314Y005479D01*
X004594Y005479D01*
X004664Y005409D01*
X004664Y005268D01*
X004594Y005198D01*
X004314Y005198D01*
X004244Y004738D02*
X004524Y004738D01*
X004384Y005659D02*
X004244Y005799D01*
X004664Y005799D01*
X004664Y005659D02*
X004664Y005939D01*
X004599Y006713D02*
X004319Y006713D01*
X004599Y006713D02*
X004739Y006853D01*
X004599Y006993D01*
X004319Y006993D01*
X004389Y007173D02*
X004319Y007243D01*
X004319Y007384D01*
X004389Y007454D01*
X004669Y007454D01*
X004739Y007384D01*
X004739Y007243D01*
X004669Y007173D01*
X004389Y007173D01*
X004389Y007634D02*
X004319Y007704D01*
X004319Y007844D01*
X004389Y007914D01*
X004459Y007914D01*
X004739Y007634D01*
X004739Y007914D01*
X004653Y008454D02*
X004461Y008505D01*
X004321Y008748D01*
X004564Y008888D02*
X004704Y008645D01*
X004653Y008454D01*
X004895Y008675D02*
X004991Y008649D01*
X005112Y008719D01*
X005138Y008815D01*
X004998Y009057D01*
X004902Y009083D01*
X004781Y009013D01*
X004755Y008917D01*
X004895Y008675D01*
X005154Y009148D02*
X005179Y009243D01*
X005301Y009313D01*
X005396Y009288D01*
X005431Y009227D01*
X005406Y009131D01*
X005501Y009106D01*
X005536Y009045D01*
X005511Y008949D01*
X005389Y008879D01*
X005294Y008905D01*
X005345Y009096D02*
X005406Y009131D01*
X005682Y009009D02*
X005822Y008869D01*
X005962Y009009D01*
X005962Y009290D01*
X006142Y009219D02*
X006142Y008939D01*
X006212Y008869D01*
X006352Y008869D01*
X006422Y008939D01*
X006422Y009219D01*
X006352Y009290D01*
X006212Y009290D01*
X006142Y009219D01*
X005682Y009290D02*
X005682Y009009D01*
X006602Y009079D02*
X006883Y009079D01*
X006813Y008869D02*
X006813Y009290D01*
X006602Y009079D01*
X007275Y008215D02*
X007275Y007934D01*
X007416Y007794D01*
X007556Y007934D01*
X007556Y008215D01*
X007736Y008144D02*
X007736Y007864D01*
X007806Y007794D01*
X007946Y007794D01*
X008016Y007864D01*
X008016Y008144D01*
X007946Y008215D01*
X007806Y008215D01*
X007736Y008144D01*
X008196Y008215D02*
X008196Y008004D01*
X008336Y008074D01*
X008406Y008074D01*
X008477Y008004D01*
X008477Y007864D01*
X008406Y007794D01*
X008266Y007794D01*
X008196Y007864D01*
X008196Y008215D02*
X008477Y008215D01*
X003164Y003814D02*
X002744Y003814D01*
X002744Y003534D02*
X003164Y003814D01*
X003164Y003534D02*
X002744Y003534D01*
X002744Y003367D02*
X002744Y003227D01*
X002744Y003297D02*
X003164Y003297D01*
X003164Y003227D02*
X003164Y003367D01*
X003024Y003047D02*
X002744Y003047D01*
X003024Y003047D02*
X003164Y002907D01*
X003024Y002766D01*
X002744Y002766D01*
M02*
