G75*
%MOIN*%
%OFA0B0*%
%FSLAX24Y24*%
%IPPOS*%
%LPD*%
%AMOC8*
5,1,8,0,0,1.08239X$1,22.5*
%
%ADD10C,0.0000*%
%ADD11R,0.0472X0.0472*%
%ADD12R,0.0472X0.0472*%
%ADD13C,0.0397*%
%ADD14C,0.0060*%
%ADD15C,0.0317*%
D10*
X002392Y002517D02*
X002392Y011017D01*
X008892Y011017D01*
X008892Y002517D01*
X002392Y002517D01*
D11*
X004829Y002978D03*
X005642Y002978D03*
X005642Y003805D03*
X004829Y003805D03*
X003805Y005517D03*
X003805Y006329D03*
X003805Y007142D03*
X003805Y007954D03*
X003805Y008767D03*
X003805Y009579D03*
X003805Y010392D03*
X002978Y010392D03*
X002978Y009579D03*
X002978Y008767D03*
X002978Y007954D03*
X002978Y007142D03*
X002978Y006329D03*
X002978Y005517D03*
X006454Y003805D03*
X006454Y002978D03*
X007478Y005517D03*
X007478Y006329D03*
X007478Y007142D03*
X007478Y007954D03*
X007478Y008767D03*
X007478Y009579D03*
X007478Y010392D03*
X008305Y010392D03*
X008305Y009579D03*
X008305Y008767D03*
X008305Y007954D03*
X008305Y007142D03*
X008305Y006329D03*
X008305Y005517D03*
D12*
G36*
X007810Y004809D02*
X007574Y004401D01*
X007166Y004637D01*
X007402Y005045D01*
X007810Y004809D01*
G37*
G36*
X008526Y004396D02*
X008290Y003988D01*
X007882Y004224D01*
X008118Y004632D01*
X008526Y004396D01*
G37*
G36*
X007795Y003323D02*
X007387Y003087D01*
X007151Y003495D01*
X007559Y003731D01*
X007795Y003323D01*
G37*
G36*
X007382Y004039D02*
X006974Y003803D01*
X006738Y004211D01*
X007146Y004447D01*
X007382Y004039D01*
G37*
G36*
X004309Y003803D02*
X003901Y004039D01*
X004137Y004447D01*
X004545Y004211D01*
X004309Y003803D01*
G37*
G36*
X003896Y003087D02*
X003488Y003323D01*
X003724Y003731D01*
X004132Y003495D01*
X003896Y003087D01*
G37*
G36*
X003010Y003988D02*
X002774Y004396D01*
X003182Y004632D01*
X003418Y004224D01*
X003010Y003988D01*
G37*
G36*
X003726Y004401D02*
X003490Y004809D01*
X003898Y005045D01*
X004134Y004637D01*
X003726Y004401D01*
G37*
D13*
X003642Y005204D03*
X003829Y005829D03*
X003829Y007642D03*
X003829Y008267D03*
X003829Y010079D03*
X003829Y010704D03*
X007454Y009079D03*
X007454Y008454D03*
X007454Y006642D03*
X007454Y006017D03*
X007454Y004142D03*
X006954Y003704D03*
X005142Y003829D03*
X004517Y003517D03*
X004079Y003204D03*
X003517Y003517D03*
D14*
X003625Y003409D01*
X003810Y003409D01*
X003875Y003409D01*
X004079Y003204D01*
X004517Y003517D02*
X004541Y003517D01*
X004829Y003805D01*
X005118Y003805D01*
X005142Y003829D01*
X005642Y003805D02*
X004829Y002993D01*
X004829Y002978D01*
X005642Y002978D02*
X006454Y003791D01*
X006454Y003805D01*
X006954Y003704D02*
X006954Y004019D01*
X007060Y004125D01*
X007077Y004142D01*
X007454Y004142D01*
X007767Y003892D02*
X007767Y004445D01*
X007488Y004723D01*
X008204Y004310D02*
X008267Y004373D01*
X008267Y004704D01*
X007478Y005493D01*
X007478Y005517D01*
X007954Y005517D02*
X008305Y005517D01*
X008305Y005603D01*
X008305Y006329D02*
X007493Y007142D01*
X007478Y007142D01*
X007454Y006642D02*
X007454Y006353D01*
X007478Y006329D01*
X007454Y006305D01*
X007454Y006017D01*
X008305Y007142D02*
X007493Y007954D01*
X007478Y007954D01*
X007954Y007954D02*
X008305Y007954D01*
X008305Y008767D02*
X007493Y009579D01*
X007478Y009579D01*
X007454Y009079D02*
X007454Y008791D01*
X007478Y008767D01*
X007454Y008743D01*
X007454Y008454D01*
X008305Y009579D02*
X007493Y010392D01*
X007478Y010392D01*
X007954Y010392D02*
X008305Y010392D01*
X003829Y010416D02*
X003805Y010392D01*
X003829Y010368D01*
X003829Y010079D01*
X003829Y010416D02*
X003829Y010704D01*
X002978Y010392D02*
X003791Y009579D01*
X003805Y009579D01*
X003805Y008767D02*
X003791Y008767D01*
X002978Y009579D01*
X002978Y008767D02*
X003329Y008767D01*
X003829Y008267D02*
X003829Y007978D01*
X003805Y007954D01*
X003829Y007930D01*
X003829Y007642D01*
X003805Y007142D02*
X003791Y007142D01*
X002978Y007954D01*
X002978Y007142D02*
X003791Y006329D01*
X003805Y006329D01*
X003829Y005829D02*
X003829Y005541D01*
X003805Y005517D01*
X003642Y005353D01*
X003642Y005204D01*
X003560Y004723D02*
X003017Y005267D01*
X003017Y005478D01*
X002978Y005517D01*
X002978Y006329D02*
X003329Y006329D01*
X003560Y004723D02*
X003812Y004723D01*
X004223Y004125D02*
X003281Y004125D01*
X003096Y004310D01*
X006454Y003329D02*
X006454Y002978D01*
X007473Y003409D02*
X007473Y003598D01*
X007767Y003892D01*
D15*
X006454Y003329D03*
X007954Y005517D03*
X007954Y007954D03*
X007954Y010392D03*
X003329Y008767D03*
X003329Y006329D03*
M02*
