G75*
%MOIN*%
%OFA0B0*%
%FSLAX24Y24*%
%IPPOS*%
%LPD*%
%AMOC8*
5,1,8,0,0,1.08239X$1,22.5*
%
%ADD10C,0.0000*%
%ADD11R,0.0472X0.0472*%
D10*
X002392Y002517D02*
X002392Y011017D01*
X008892Y011017D01*
X008892Y002517D01*
X002392Y002517D01*
D11*
X002978Y003204D03*
X003805Y003204D03*
X003805Y004204D03*
X002978Y004204D03*
X002978Y005204D03*
X003805Y005204D03*
X003805Y006204D03*
X002978Y006204D03*
X002978Y007204D03*
X003805Y007204D03*
X004392Y008103D03*
X005017Y008055D03*
X005017Y007228D03*
X005642Y007180D03*
X005642Y006353D03*
X006267Y006305D03*
X006267Y005478D03*
X006892Y005305D03*
X007478Y005204D03*
X006892Y004478D03*
X007478Y004204D03*
X008305Y004204D03*
X008305Y005204D03*
X008305Y006204D03*
X007478Y006204D03*
X007478Y007204D03*
X008305Y007204D03*
X008305Y008204D03*
X007478Y008204D03*
X007478Y009267D03*
X008305Y009267D03*
X008305Y010204D03*
X007478Y010204D03*
X004392Y008930D03*
X003805Y009267D03*
X002978Y009267D03*
X002978Y010204D03*
X003805Y010204D03*
X003805Y008204D03*
X002978Y008204D03*
X007478Y003204D03*
X008305Y003204D03*
M02*
