G75*
%MOIN*%
%OFA0B0*%
%FSLAX24Y24*%
%IPPOS*%
%LPD*%
%AMOC8*
5,1,8,0,0,1.08239X$1,22.5*
%
%ADD10C,0.0000*%
%ADD11C,0.0400*%
%ADD12C,0.0317*%
%ADD13C,0.0060*%
D10*
X002392Y002517D02*
X002392Y011017D01*
X008892Y011017D01*
X008892Y002517D01*
X002392Y002517D01*
D11*
X002954Y002829D03*
X002954Y003454D03*
X003829Y004579D03*
X003829Y005204D03*
X003704Y007204D03*
X003704Y007829D03*
X004329Y007642D03*
X004704Y007704D03*
X006079Y007642D03*
X006454Y007642D03*
X006517Y008579D03*
X006204Y009017D03*
X005392Y009142D03*
X005079Y009704D03*
X007454Y006954D03*
X007454Y006329D03*
X007454Y004329D03*
X007454Y003704D03*
D12*
X007829Y003142D03*
X008329Y003454D03*
X007954Y005767D03*
X006892Y006704D03*
X005767Y006704D03*
X007642Y008267D03*
X005579Y010204D03*
X003642Y008267D03*
X003329Y005767D03*
D13*
X003329Y003829D01*
X002954Y003454D01*
X003329Y005767D02*
X003329Y007954D01*
X003642Y008267D01*
X003704Y008267D01*
X004829Y009392D01*
X005204Y009392D01*
X005517Y009704D01*
X005517Y010142D01*
X005579Y010204D01*
X006954Y008829D01*
X007079Y008829D01*
X007642Y008267D01*
X007642Y007767D01*
X007142Y007267D01*
X006892Y007267D01*
X006329Y006704D01*
X005767Y006704D01*
X006892Y006704D02*
X006892Y006392D01*
X007829Y005454D01*
X007829Y003142D01*
X008329Y003454D02*
X008329Y005392D01*
X007954Y005767D01*
X007954Y007954D01*
X007642Y008267D01*
M02*
