G75*
%MOIN*%
%OFA0B0*%
%FSLAX24Y24*%
%IPPOS*%
%LPD*%
%AMOC8*
5,1,8,0,0,1.08239X$1,22.5*
%
%ADD10C,0.0000*%
%ADD11R,0.0512X0.0512*%
%ADD12C,0.0440*%
D10*
X002392Y002517D02*
X002392Y011017D01*
X008892Y011017D01*
X008892Y002517D01*
X002392Y002517D01*
D11*
X002978Y003142D03*
X003805Y003142D03*
X003805Y004017D03*
X002978Y004017D03*
X002978Y004892D03*
X003805Y004892D03*
X003805Y005767D03*
X004392Y006353D03*
X005017Y006353D03*
X005642Y006353D03*
X006267Y006353D03*
X006892Y006353D03*
X007478Y006642D03*
X006892Y007180D03*
X007478Y007517D03*
X007166Y008267D03*
X007368Y008892D03*
X007993Y008267D03*
X008305Y007517D03*
X008305Y006642D03*
X008305Y005767D03*
X008305Y004892D03*
X007478Y004892D03*
X007478Y005767D03*
X006267Y007180D03*
X005642Y007180D03*
X005017Y007180D03*
X004392Y007180D03*
X003805Y007517D03*
X004118Y008267D03*
X003916Y008892D03*
X004541Y009517D03*
X004743Y008892D03*
X005368Y009517D03*
X005916Y009517D03*
X006055Y010204D03*
X005228Y010204D03*
X006541Y008892D03*
X006743Y009517D03*
X003805Y006642D03*
X002978Y006642D03*
X002978Y007517D03*
X003291Y008267D03*
X002978Y005767D03*
X007478Y004017D03*
X007478Y003142D03*
X008305Y003142D03*
X008305Y004017D03*
D12*
X007454Y004329D03*
X007454Y003704D03*
X007454Y006329D03*
X007454Y006954D03*
X006454Y007642D03*
X006079Y007642D03*
X006517Y008579D03*
X006204Y009017D03*
X005392Y009142D03*
X005079Y009704D03*
X003704Y007829D03*
X003704Y007204D03*
X004329Y007642D03*
X004704Y007704D03*
X003829Y005204D03*
X003829Y004579D03*
X002954Y003454D03*
X002954Y002829D03*
M02*
