G75*
%MOIN*%
%OFA0B0*%
%FSLAX24Y24*%
%IPPOS*%
%LPD*%
%AMOC8*
5,1,8,0,0,1.08239X$1,22.5*
%
%ADD10C,0.0000*%
%ADD11R,0.0472X0.0472*%
%ADD12C,0.0400*%
%ADD13C,0.0060*%
%ADD14C,0.0317*%
D10*
X002392Y002517D02*
X002392Y011017D01*
X008892Y011017D01*
X008892Y002517D01*
X002392Y002517D01*
D11*
X002978Y003142D03*
X003805Y003142D03*
X003805Y004017D03*
X002978Y004017D03*
X002978Y004892D03*
X003805Y004892D03*
X003805Y005767D03*
X004392Y006353D03*
X005017Y006353D03*
X005642Y006353D03*
X006267Y006353D03*
X006892Y006353D03*
X007478Y006642D03*
X006892Y007180D03*
X007478Y007517D03*
X007166Y008267D03*
X007368Y008892D03*
X007993Y008267D03*
X008305Y007517D03*
X008305Y006642D03*
X008305Y005767D03*
X008305Y004892D03*
X007478Y004892D03*
X007478Y005767D03*
X006267Y007180D03*
X005642Y007180D03*
X005017Y007180D03*
X004392Y007180D03*
X003805Y007517D03*
X004118Y008267D03*
X003916Y008892D03*
X004541Y009517D03*
X004743Y008892D03*
X005368Y009517D03*
X005916Y009517D03*
X006055Y010204D03*
X005228Y010204D03*
X006541Y008892D03*
X006743Y009517D03*
X003805Y006642D03*
X002978Y006642D03*
X002978Y007517D03*
X003291Y008267D03*
X002978Y005767D03*
X007478Y004017D03*
X007478Y003142D03*
X008305Y003142D03*
X008305Y004017D03*
D12*
X007454Y004329D03*
X007454Y003704D03*
X007454Y006329D03*
X007454Y006954D03*
X006454Y007642D03*
X006079Y007642D03*
X006517Y008579D03*
X006204Y009017D03*
X005392Y009142D03*
X005079Y009704D03*
X003704Y007829D03*
X003704Y007204D03*
X004329Y007642D03*
X004704Y007704D03*
X003829Y005204D03*
X003829Y004579D03*
X002954Y003454D03*
X002954Y002829D03*
D13*
X002954Y003118D01*
X002978Y003142D01*
X002954Y003166D01*
X002954Y003454D01*
X002978Y003968D02*
X003805Y003142D01*
X003805Y004017D02*
X002978Y004843D01*
X002978Y004892D01*
X003805Y004892D02*
X003829Y004868D01*
X003829Y004579D01*
X003805Y004892D02*
X003829Y004916D01*
X003829Y005204D01*
X003805Y005767D02*
X002978Y006593D01*
X002978Y006642D01*
X003704Y007204D02*
X003704Y007416D01*
X003805Y007517D01*
X003704Y007618D01*
X003704Y007829D01*
X003642Y008267D02*
X003291Y008267D01*
X003916Y008468D02*
X004118Y008267D01*
X003916Y008468D02*
X003916Y008892D01*
X004541Y009093D02*
X004541Y009517D01*
X004541Y009093D02*
X004743Y008892D01*
X005392Y009142D02*
X005392Y009493D01*
X005368Y009517D01*
X005180Y009704D01*
X005079Y009704D01*
X005228Y010204D02*
X005579Y010204D01*
X006055Y010204D02*
X006055Y009656D01*
X005916Y009517D01*
X006204Y009017D02*
X006416Y009017D01*
X006541Y008892D01*
X006517Y008868D01*
X006517Y008579D01*
X007166Y008267D02*
X007166Y008118D01*
X007392Y007892D01*
X007930Y007892D01*
X008305Y007517D01*
X007993Y008267D02*
X007642Y008267D01*
X007368Y008892D02*
X006743Y009517D01*
X006454Y007642D02*
X006454Y007368D01*
X006267Y007180D01*
X006079Y007368D01*
X006079Y007642D01*
X005642Y007180D02*
X005642Y006978D01*
X005017Y006353D01*
X005017Y006978D02*
X004392Y006353D01*
X003805Y006642D02*
X002978Y007468D01*
X002978Y007517D01*
X004329Y007642D02*
X004392Y007579D01*
X004579Y007579D01*
X004704Y007704D01*
X004392Y007579D02*
X004392Y007180D01*
X005017Y007180D02*
X005017Y006978D01*
X005642Y006579D02*
X005642Y006353D01*
X005642Y006579D02*
X005767Y006704D01*
X006267Y006579D02*
X006267Y006353D01*
X006267Y006579D02*
X006868Y007180D01*
X006892Y007180D01*
X006892Y006704D02*
X006892Y006353D01*
X007454Y006329D02*
X007454Y006618D01*
X007478Y006642D01*
X007454Y006666D01*
X007454Y006954D01*
X007478Y007468D02*
X008305Y006642D01*
X008305Y005767D02*
X007954Y005767D01*
X007478Y005767D02*
X007478Y005718D01*
X008305Y004892D01*
X007478Y004892D02*
X007478Y004843D01*
X008305Y004017D01*
X008329Y003454D02*
X008329Y003166D01*
X008305Y003142D01*
X007829Y003142D02*
X007478Y003142D01*
X007454Y003704D02*
X007454Y003993D01*
X007478Y004017D01*
X007454Y004041D01*
X007454Y004329D01*
X007478Y007468D02*
X007478Y007517D01*
X003329Y005767D02*
X002978Y005767D01*
X002978Y004017D02*
X002978Y003968D01*
D14*
X003329Y005767D03*
X003642Y008267D03*
X005579Y010204D03*
X007642Y008267D03*
X006892Y006704D03*
X007954Y005767D03*
X008329Y003454D03*
X007829Y003142D03*
X005767Y006704D03*
M02*
