G75*
%MOIN*%
%OFA0B0*%
%FSLAX24Y24*%
%IPPOS*%
%LPD*%
%AMOC8*
5,1,8,0,0,1.08239X$1,22.5*
%
%ADD10C,0.0000*%
%ADD11C,0.0100*%
%ADD12C,0.0040*%
%ADD13C,0.0080*%
D10*
X002392Y002517D02*
X002392Y011017D01*
X008892Y011017D01*
X008892Y002517D01*
X002392Y002517D01*
D11*
X002642Y003046D02*
X002642Y008008D01*
X002825Y008450D02*
X004870Y010495D01*
X005224Y010642D02*
X006035Y010642D01*
X006430Y010478D02*
X008428Y008480D01*
X008642Y007965D02*
X008642Y002943D01*
X008640Y002918D01*
X008635Y002893D01*
X008626Y002869D01*
X008614Y002847D01*
X008599Y002827D01*
X008581Y002809D01*
X008561Y002794D01*
X008539Y002782D01*
X008515Y002773D01*
X008490Y002768D01*
X008465Y002766D01*
X008465Y002767D02*
X007318Y002767D01*
X007318Y002766D02*
X007293Y002768D01*
X007268Y002773D01*
X007244Y002782D01*
X007222Y002794D01*
X007202Y002809D01*
X007184Y002827D01*
X007169Y002847D01*
X007157Y002869D01*
X007148Y002893D01*
X007143Y002918D01*
X007141Y002943D01*
X007142Y002943D02*
X007142Y005566D01*
X007140Y005608D01*
X007134Y005649D01*
X007125Y005689D01*
X007112Y005729D01*
X007095Y005767D01*
X007074Y005803D01*
X007051Y005838D01*
X007024Y005870D01*
X006995Y005899D01*
X006963Y005926D01*
X006928Y005949D01*
X006892Y005970D01*
X006854Y005987D01*
X006814Y006000D01*
X006774Y006009D01*
X006733Y006015D01*
X006691Y006017D01*
X004592Y006017D01*
X004550Y006015D01*
X004509Y006009D01*
X004469Y006000D01*
X004429Y005987D01*
X004391Y005970D01*
X004355Y005949D01*
X004320Y005926D01*
X004288Y005899D01*
X004259Y005870D01*
X004232Y005838D01*
X004209Y005803D01*
X004188Y005767D01*
X004171Y005729D01*
X004158Y005689D01*
X004149Y005649D01*
X004143Y005608D01*
X004141Y005566D01*
X004142Y005566D02*
X004142Y002943D01*
X004140Y002918D01*
X004135Y002893D01*
X004126Y002869D01*
X004114Y002847D01*
X004099Y002827D01*
X004081Y002809D01*
X004061Y002794D01*
X004039Y002782D01*
X004015Y002773D01*
X003990Y002768D01*
X003965Y002766D01*
X003965Y002767D02*
X002921Y002767D01*
X002921Y002766D02*
X002890Y002768D01*
X002859Y002773D01*
X002829Y002782D01*
X002800Y002794D01*
X002772Y002809D01*
X002746Y002827D01*
X002723Y002848D01*
X002702Y002871D01*
X002684Y002897D01*
X002669Y002925D01*
X002657Y002954D01*
X002648Y002984D01*
X002643Y003015D01*
X002641Y003046D01*
X004943Y007892D02*
X006340Y007892D01*
X006361Y007894D01*
X006381Y007899D01*
X006400Y007908D01*
X006418Y007919D01*
X006433Y007934D01*
X006446Y007950D01*
X006455Y007969D01*
X006462Y007989D01*
X006465Y008010D01*
X006464Y008031D01*
X006460Y008052D01*
X006453Y008071D01*
X006442Y008089D01*
X006428Y008105D01*
X005818Y008840D01*
X005819Y008840D02*
X005796Y008860D01*
X005771Y008877D01*
X005745Y008891D01*
X005716Y008902D01*
X005687Y008909D01*
X005657Y008913D01*
X005627Y008913D01*
X005597Y008909D01*
X005568Y008902D01*
X005539Y008891D01*
X005513Y008877D01*
X005488Y008860D01*
X005465Y008840D01*
X004855Y008105D01*
X004841Y008089D01*
X004830Y008071D01*
X004823Y008052D01*
X004819Y008031D01*
X004818Y008010D01*
X004821Y007989D01*
X004828Y007969D01*
X004837Y007950D01*
X004850Y007934D01*
X004865Y007919D01*
X004883Y007908D01*
X004902Y007899D01*
X004922Y007894D01*
X004943Y007892D01*
X002825Y008450D02*
X002792Y008414D01*
X002761Y008375D01*
X002734Y008335D01*
X002710Y008292D01*
X002690Y008247D01*
X002673Y008201D01*
X002659Y008154D01*
X002650Y008106D01*
X002644Y008057D01*
X002642Y008008D01*
X004870Y010496D02*
X004903Y010525D01*
X004937Y010552D01*
X004974Y010575D01*
X005013Y010595D01*
X005053Y010612D01*
X005095Y010625D01*
X005137Y010634D01*
X005180Y010640D01*
X005224Y010642D01*
X006035Y010642D02*
X006079Y010640D01*
X006122Y010635D01*
X006165Y010627D01*
X006208Y010615D01*
X006249Y010599D01*
X006289Y010581D01*
X006327Y010560D01*
X006364Y010535D01*
X006398Y010508D01*
X006430Y010478D01*
X008428Y008480D02*
X008464Y008442D01*
X008497Y008402D01*
X008526Y008359D01*
X008553Y008314D01*
X008576Y008268D01*
X008596Y008220D01*
X008612Y008170D01*
X008625Y008120D01*
X008635Y008069D01*
X008640Y008017D01*
X008642Y007965D01*
D12*
X008642Y007829D02*
X008642Y007204D01*
X007204Y007204D01*
X007142Y007267D01*
X007142Y007829D01*
X008642Y007829D01*
X008329Y007954D02*
X006892Y007954D01*
X006829Y008017D01*
X006829Y008579D01*
X008329Y008579D01*
X008329Y007954D01*
X007704Y008579D02*
X006267Y008579D01*
X006204Y008642D01*
X006204Y009204D01*
X007704Y009204D01*
X007704Y008579D01*
X007079Y009204D02*
X005579Y009204D01*
X005579Y009829D01*
X007017Y009829D01*
X007079Y009767D01*
X007079Y009204D01*
X006392Y009892D02*
X004892Y009892D01*
X004892Y010517D01*
X006329Y010517D01*
X006392Y010454D01*
X006392Y009892D01*
X005704Y009767D02*
X005704Y009204D01*
X004204Y009204D01*
X004204Y009829D01*
X005642Y009829D01*
X005704Y009767D01*
X005079Y009142D02*
X005017Y009204D01*
X003579Y009204D01*
X003579Y008579D01*
X005079Y008579D01*
X005079Y009142D01*
X004454Y008517D02*
X004392Y008579D01*
X002954Y008579D01*
X002954Y007954D01*
X004454Y007954D01*
X004454Y008517D01*
X004079Y007829D02*
X004142Y007767D01*
X004142Y007204D01*
X002642Y007204D01*
X002642Y007829D01*
X004079Y007829D01*
X004142Y007517D02*
X004079Y007454D01*
X004079Y006017D01*
X004704Y006017D01*
X004704Y007517D01*
X004142Y007517D01*
X004704Y007454D02*
X004767Y007517D01*
X005329Y007517D01*
X005329Y006017D01*
X004704Y006017D01*
X004704Y007454D01*
X005329Y007454D02*
X005392Y007517D01*
X005954Y007517D01*
X005954Y006017D01*
X005329Y006017D01*
X005329Y007454D01*
X005954Y007454D02*
X006017Y007517D01*
X006579Y007517D01*
X006579Y006017D01*
X006579Y007454D01*
X006642Y007517D01*
X007204Y007517D01*
X007204Y006017D01*
X006579Y006017D01*
X005954Y006017D01*
X005954Y007454D01*
X007142Y006954D02*
X007142Y006392D01*
X007204Y006329D01*
X008642Y006329D01*
X008642Y006954D01*
X007142Y006954D01*
X007142Y006079D02*
X008642Y006079D01*
X008642Y005454D01*
X007204Y005454D01*
X007142Y005517D01*
X007142Y006079D01*
X007142Y005204D02*
X008642Y005204D01*
X008642Y004579D01*
X007204Y004579D01*
X007142Y004642D01*
X007142Y005204D01*
X007142Y004329D02*
X008642Y004329D01*
X008642Y003704D01*
X007204Y003704D01*
X007142Y003767D01*
X007142Y004329D01*
X007142Y003454D02*
X008642Y003454D01*
X008642Y002829D01*
X007204Y002829D01*
X007142Y002892D01*
X007142Y003454D01*
X004142Y003392D02*
X004142Y002829D01*
X002642Y002829D01*
X002642Y003454D01*
X004079Y003454D01*
X004142Y003392D01*
X004142Y003704D02*
X002642Y003704D01*
X002642Y004329D01*
X004079Y004329D01*
X004142Y004267D01*
X004142Y003704D01*
X004142Y004579D02*
X002642Y004579D01*
X002642Y005204D01*
X004079Y005204D01*
X004142Y005142D01*
X004142Y004579D01*
X004142Y005454D02*
X002642Y005454D01*
X002642Y006079D01*
X004079Y006079D01*
X004142Y006017D01*
X004142Y005454D01*
X004142Y006329D02*
X002642Y006329D01*
X002642Y006954D01*
X004079Y006954D01*
X004142Y006892D01*
X004142Y006329D01*
D13*
X004275Y005965D02*
X004275Y005684D01*
X004416Y005544D01*
X004556Y005684D01*
X004556Y005965D01*
X004736Y005894D02*
X004736Y005614D01*
X004806Y005544D01*
X004946Y005544D01*
X005016Y005614D01*
X005016Y005894D01*
X004946Y005965D01*
X004806Y005965D01*
X004736Y005894D01*
X004602Y005564D02*
X004602Y005284D01*
X004602Y005424D02*
X004181Y005424D01*
X004321Y005284D01*
X004251Y005104D02*
X004181Y005034D01*
X004181Y004893D01*
X004251Y004823D01*
X004532Y004823D01*
X004602Y004893D01*
X004602Y005034D01*
X004532Y005104D01*
X004251Y005104D01*
X004181Y004643D02*
X004462Y004643D01*
X004602Y004503D01*
X004462Y004363D01*
X004181Y004363D01*
X004181Y003877D02*
X004602Y003877D01*
X004181Y003596D01*
X004602Y003596D01*
X004602Y003429D02*
X004602Y003289D01*
X004602Y003359D02*
X004181Y003359D01*
X004181Y003289D02*
X004181Y003429D01*
X004181Y003109D02*
X004462Y003109D01*
X004602Y002969D01*
X004462Y002829D01*
X004181Y002829D01*
X006681Y003369D02*
X006962Y003369D01*
X007102Y003509D01*
X006962Y003649D01*
X006681Y003649D01*
X006751Y003830D02*
X006681Y003900D01*
X006681Y004040D01*
X006751Y004110D01*
X007032Y004110D01*
X007102Y004040D01*
X007102Y003900D01*
X007032Y003830D01*
X006751Y003830D01*
X006891Y004290D02*
X006891Y004500D01*
X006962Y004570D01*
X007032Y004570D01*
X007102Y004500D01*
X007102Y004360D01*
X007032Y004290D01*
X006891Y004290D01*
X006751Y004430D01*
X006681Y004570D01*
X006711Y005526D02*
X006641Y005596D01*
X006711Y005526D02*
X006852Y005526D01*
X006922Y005596D01*
X006922Y005736D01*
X006852Y005806D01*
X006781Y005806D01*
X006641Y005736D01*
X006641Y005946D01*
X006922Y005946D01*
X006461Y005876D02*
X006461Y005596D01*
X006391Y005526D01*
X006251Y005526D01*
X006181Y005596D01*
X006181Y005876D01*
X006251Y005946D01*
X006391Y005946D01*
X006461Y005876D01*
X006001Y005946D02*
X006001Y005666D01*
X005861Y005526D01*
X005721Y005666D01*
X005721Y005946D01*
X005477Y005894D02*
X005406Y005965D01*
X005266Y005965D01*
X005196Y005894D01*
X005477Y005894D02*
X005477Y005824D01*
X005196Y005544D01*
X005477Y005544D01*
X005556Y007982D02*
X005696Y007982D01*
X005766Y008052D01*
X005766Y008332D01*
X005696Y008402D01*
X005556Y008402D01*
X005486Y008332D01*
X005486Y008052D01*
X005556Y007982D01*
X005306Y008122D02*
X005306Y008402D01*
X005306Y008122D02*
X005166Y007982D01*
X005025Y008122D01*
X005025Y008402D01*
X005946Y008402D02*
X006227Y008402D01*
X006227Y008332D01*
X005946Y008052D01*
X005946Y007982D01*
X007529Y009488D02*
X007727Y009488D01*
X007925Y009686D01*
X008003Y009509D02*
X007805Y009311D01*
X007805Y009212D01*
X007904Y009113D01*
X008003Y009113D01*
X008201Y009311D01*
X008201Y009410D01*
X008102Y009509D01*
X008003Y009509D01*
X007727Y009884D02*
X007529Y009686D01*
X007529Y009488D01*
X008230Y009084D02*
X008428Y008886D01*
X008527Y009084D02*
X008230Y009084D01*
X008230Y008787D02*
X008527Y009084D01*
X005006Y010669D02*
X004907Y010570D01*
X004808Y010570D01*
X004680Y010443D02*
X004482Y010641D01*
X004383Y010641D01*
X004284Y010542D01*
X004284Y010443D01*
X004482Y010245D01*
X004581Y010245D01*
X004680Y010344D01*
X004680Y010443D01*
X004610Y010768D02*
X004610Y010867D01*
X004709Y010967D01*
X004808Y010967D01*
X004857Y010917D01*
X004857Y010818D01*
X004956Y010818D01*
X005006Y010768D01*
X005006Y010669D01*
X004857Y010818D02*
X004808Y010768D01*
X004305Y010167D02*
X004107Y010365D01*
X003909Y010167D02*
X004107Y009969D01*
X004305Y009969D01*
X004305Y010167D01*
X003632Y009504D02*
X003682Y009454D01*
X003682Y009355D01*
X003583Y009256D01*
X003484Y009256D01*
X003434Y009306D01*
X003434Y009405D01*
X003533Y009504D01*
X003632Y009504D01*
X003533Y009504D02*
X003533Y009603D01*
X003484Y009653D01*
X003385Y009653D01*
X003286Y009553D01*
X003286Y009454D01*
X003335Y009405D01*
X003434Y009405D01*
X003356Y009129D02*
X003158Y009327D01*
X003059Y009327D01*
X002960Y009228D01*
X002960Y009129D01*
X003158Y008931D01*
X003257Y008931D01*
X003356Y009030D01*
X003356Y009129D01*
X002981Y008853D02*
X002783Y009051D01*
X002585Y008853D02*
X002783Y008655D01*
X002981Y008655D01*
X002981Y008853D01*
M02*
