G75*
G70*
%OFA0B0*%
%FSLAX24Y24*%
%IPPOS*%
%LPD*%
%AMOC8*
5,1,8,0,0,1.08239X$1,22.5*
%
%ADD10C,0.0100*%
%ADD11C,0.0000*%
%ADD12C,0.0520*%
%ADD13OC8,0.0520*%
%ADD14OC8,0.0630*%
%ADD15C,0.0630*%
%ADD16C,0.0600*%
%ADD17C,0.0240*%
%ADD18C,0.0396*%
%ADD19C,0.0160*%
%ADD20C,0.0120*%
D10*
X000151Y000554D02*
X000151Y021554D01*
X027151Y021554D01*
X027151Y000554D01*
X000151Y000554D01*
D11*
X005521Y020554D02*
X005523Y020604D01*
X005529Y020654D01*
X005539Y020703D01*
X005553Y020751D01*
X005570Y020798D01*
X005591Y020843D01*
X005616Y020887D01*
X005644Y020928D01*
X005676Y020967D01*
X005710Y021004D01*
X005747Y021038D01*
X005787Y021068D01*
X005829Y021095D01*
X005873Y021119D01*
X005919Y021140D01*
X005966Y021156D01*
X006014Y021169D01*
X006064Y021178D01*
X006113Y021183D01*
X006164Y021184D01*
X006214Y021181D01*
X006263Y021174D01*
X006312Y021163D01*
X006360Y021148D01*
X006406Y021130D01*
X006451Y021108D01*
X006494Y021082D01*
X006535Y021053D01*
X006574Y021021D01*
X006610Y020986D01*
X006642Y020948D01*
X006672Y020908D01*
X006699Y020865D01*
X006722Y020821D01*
X006741Y020775D01*
X006757Y020727D01*
X006769Y020678D01*
X006777Y020629D01*
X006781Y020579D01*
X006781Y020529D01*
X006777Y020479D01*
X006769Y020430D01*
X006757Y020381D01*
X006741Y020333D01*
X006722Y020287D01*
X006699Y020243D01*
X006672Y020200D01*
X006642Y020160D01*
X006610Y020122D01*
X006574Y020087D01*
X006535Y020055D01*
X006494Y020026D01*
X006451Y020000D01*
X006406Y019978D01*
X006360Y019960D01*
X006312Y019945D01*
X006263Y019934D01*
X006214Y019927D01*
X006164Y019924D01*
X006113Y019925D01*
X006064Y019930D01*
X006014Y019939D01*
X005966Y019952D01*
X005919Y019968D01*
X005873Y019989D01*
X005829Y020013D01*
X005787Y020040D01*
X005747Y020070D01*
X005710Y020104D01*
X005676Y020141D01*
X005644Y020180D01*
X005616Y020221D01*
X005591Y020265D01*
X005570Y020310D01*
X005553Y020357D01*
X005539Y020405D01*
X005529Y020454D01*
X005523Y020504D01*
X005521Y020554D01*
X025521Y014554D02*
X025523Y014604D01*
X025529Y014654D01*
X025539Y014703D01*
X025553Y014751D01*
X025570Y014798D01*
X025591Y014843D01*
X025616Y014887D01*
X025644Y014928D01*
X025676Y014967D01*
X025710Y015004D01*
X025747Y015038D01*
X025787Y015068D01*
X025829Y015095D01*
X025873Y015119D01*
X025919Y015140D01*
X025966Y015156D01*
X026014Y015169D01*
X026064Y015178D01*
X026113Y015183D01*
X026164Y015184D01*
X026214Y015181D01*
X026263Y015174D01*
X026312Y015163D01*
X026360Y015148D01*
X026406Y015130D01*
X026451Y015108D01*
X026494Y015082D01*
X026535Y015053D01*
X026574Y015021D01*
X026610Y014986D01*
X026642Y014948D01*
X026672Y014908D01*
X026699Y014865D01*
X026722Y014821D01*
X026741Y014775D01*
X026757Y014727D01*
X026769Y014678D01*
X026777Y014629D01*
X026781Y014579D01*
X026781Y014529D01*
X026777Y014479D01*
X026769Y014430D01*
X026757Y014381D01*
X026741Y014333D01*
X026722Y014287D01*
X026699Y014243D01*
X026672Y014200D01*
X026642Y014160D01*
X026610Y014122D01*
X026574Y014087D01*
X026535Y014055D01*
X026494Y014026D01*
X026451Y014000D01*
X026406Y013978D01*
X026360Y013960D01*
X026312Y013945D01*
X026263Y013934D01*
X026214Y013927D01*
X026164Y013924D01*
X026113Y013925D01*
X026064Y013930D01*
X026014Y013939D01*
X025966Y013952D01*
X025919Y013968D01*
X025873Y013989D01*
X025829Y014013D01*
X025787Y014040D01*
X025747Y014070D01*
X025710Y014104D01*
X025676Y014141D01*
X025644Y014180D01*
X025616Y014221D01*
X025591Y014265D01*
X025570Y014310D01*
X025553Y014357D01*
X025539Y014405D01*
X025529Y014454D01*
X025523Y014504D01*
X025521Y014554D01*
X025521Y003554D02*
X025523Y003604D01*
X025529Y003654D01*
X025539Y003703D01*
X025553Y003751D01*
X025570Y003798D01*
X025591Y003843D01*
X025616Y003887D01*
X025644Y003928D01*
X025676Y003967D01*
X025710Y004004D01*
X025747Y004038D01*
X025787Y004068D01*
X025829Y004095D01*
X025873Y004119D01*
X025919Y004140D01*
X025966Y004156D01*
X026014Y004169D01*
X026064Y004178D01*
X026113Y004183D01*
X026164Y004184D01*
X026214Y004181D01*
X026263Y004174D01*
X026312Y004163D01*
X026360Y004148D01*
X026406Y004130D01*
X026451Y004108D01*
X026494Y004082D01*
X026535Y004053D01*
X026574Y004021D01*
X026610Y003986D01*
X026642Y003948D01*
X026672Y003908D01*
X026699Y003865D01*
X026722Y003821D01*
X026741Y003775D01*
X026757Y003727D01*
X026769Y003678D01*
X026777Y003629D01*
X026781Y003579D01*
X026781Y003529D01*
X026777Y003479D01*
X026769Y003430D01*
X026757Y003381D01*
X026741Y003333D01*
X026722Y003287D01*
X026699Y003243D01*
X026672Y003200D01*
X026642Y003160D01*
X026610Y003122D01*
X026574Y003087D01*
X026535Y003055D01*
X026494Y003026D01*
X026451Y003000D01*
X026406Y002978D01*
X026360Y002960D01*
X026312Y002945D01*
X026263Y002934D01*
X026214Y002927D01*
X026164Y002924D01*
X026113Y002925D01*
X026064Y002930D01*
X026014Y002939D01*
X025966Y002952D01*
X025919Y002968D01*
X025873Y002989D01*
X025829Y003013D01*
X025787Y003040D01*
X025747Y003070D01*
X025710Y003104D01*
X025676Y003141D01*
X025644Y003180D01*
X025616Y003221D01*
X025591Y003265D01*
X025570Y003310D01*
X025553Y003357D01*
X025539Y003405D01*
X025529Y003454D01*
X025523Y003504D01*
X025521Y003554D01*
D12*
X020151Y010794D02*
X020151Y011314D01*
X019151Y011314D02*
X019151Y010794D01*
X018151Y010794D02*
X018151Y011314D01*
X017151Y011314D02*
X017151Y010794D01*
X016151Y010794D02*
X016151Y011314D01*
X015151Y011314D02*
X015151Y010794D01*
X014151Y010794D02*
X014151Y011314D01*
X013151Y011314D02*
X013151Y010794D01*
X013151Y013794D02*
X013151Y014314D01*
X014151Y014314D02*
X014151Y013794D01*
X015151Y013794D02*
X015151Y014314D01*
X016151Y014314D02*
X016151Y013794D01*
X017151Y013794D02*
X017151Y014314D01*
X018151Y014314D02*
X018151Y013794D01*
X019151Y013794D02*
X019151Y014314D01*
X020151Y014314D02*
X020151Y013794D01*
D13*
X018651Y004804D03*
X017651Y004804D03*
X018151Y003054D03*
X015151Y003054D03*
D14*
X016151Y004804D03*
D15*
X015151Y004804D03*
D16*
X015151Y001854D02*
X015151Y001254D01*
X014151Y001254D02*
X014151Y001854D01*
X013151Y001854D02*
X013151Y001254D01*
X011151Y001254D02*
X011151Y001854D01*
X010151Y001854D02*
X010151Y001254D01*
X009151Y001254D02*
X009151Y001854D01*
X008151Y001854D02*
X008151Y001254D01*
X007151Y001254D02*
X007151Y001854D01*
X006151Y001854D02*
X006151Y001254D01*
X005151Y001254D02*
X005151Y001854D01*
X004151Y001854D02*
X004151Y001254D01*
X016151Y001254D02*
X016151Y001854D01*
X017151Y001854D02*
X017151Y001254D01*
X018151Y001254D02*
X018151Y001854D01*
X020151Y001854D02*
X020151Y001254D01*
X021151Y001254D02*
X021151Y001854D01*
X022151Y001854D02*
X022151Y001254D01*
X023151Y001254D02*
X023151Y001854D01*
X024151Y001854D02*
X024151Y001254D01*
X025151Y001254D02*
X025151Y001854D01*
X025151Y020254D02*
X025151Y020854D01*
X024151Y020854D02*
X024151Y020254D01*
X023151Y020254D02*
X023151Y020854D01*
X022151Y020854D02*
X022151Y020254D01*
X021151Y020254D02*
X021151Y020854D01*
X020151Y020854D02*
X020151Y020254D01*
X019151Y020254D02*
X019151Y020854D01*
X018151Y020854D02*
X018151Y020254D01*
X016551Y020254D02*
X016551Y020854D01*
X015551Y020854D02*
X015551Y020254D01*
X014551Y020254D02*
X014551Y020854D01*
X013551Y020854D02*
X013551Y020254D01*
X012551Y020254D02*
X012551Y020854D01*
X011551Y020854D02*
X011551Y020254D01*
X010551Y020254D02*
X010551Y020854D01*
X009551Y020854D02*
X009551Y020254D01*
D17*
X012151Y014054D02*
X013151Y014054D01*
X012151Y007804D02*
X015151Y004804D01*
X015151Y003054D01*
X015151Y001554D01*
D18*
X012151Y007804D03*
X012151Y014054D03*
D19*
X018651Y004804D02*
X018151Y004304D01*
X018151Y003054D01*
D20*
X020151Y001554D02*
X020151Y004592D01*
X017689Y007054D01*
X015855Y007054D01*
X013151Y009758D01*
X013151Y011054D01*
X014151Y011054D02*
X014151Y009676D01*
X016272Y007554D01*
X018141Y007554D01*
X021151Y004544D01*
X021151Y001554D01*
X022151Y001554D02*
X022151Y004519D01*
X018616Y008054D01*
X016609Y008054D01*
X015151Y009512D01*
X015151Y011054D01*
X016651Y012554D02*
X018151Y014054D01*
X017151Y014054D02*
X015901Y012804D01*
X010225Y012804D01*
X007151Y009730D01*
X007151Y001554D01*
X008151Y001554D02*
X008151Y009933D01*
X010772Y012554D01*
X016651Y012554D01*
X017401Y012304D02*
X019151Y014054D01*
X020151Y014054D02*
X018151Y012054D01*
X011553Y012054D01*
X010151Y010653D01*
X010151Y001554D01*
X011151Y001554D02*
X011151Y011097D01*
X011858Y011804D01*
X018444Y011804D01*
X019151Y011097D01*
X019151Y011054D01*
X018151Y011054D02*
X018151Y009456D01*
X019053Y008554D01*
X019081Y008554D01*
X023151Y004485D01*
X023151Y001554D01*
X011151Y001554D02*
X011151Y002054D01*
X009151Y001554D02*
X009151Y010204D01*
X011252Y012304D01*
X017401Y012304D01*
X016151Y013956D02*
X016151Y014054D01*
X016151Y013956D02*
X015250Y013054D01*
X009703Y013054D01*
X006151Y009503D01*
X006151Y001554D01*
X005151Y001554D02*
X005151Y009199D01*
X009257Y013304D01*
X014444Y013304D01*
X015151Y014011D01*
X015151Y014054D01*
X014151Y014054D02*
X013401Y014804D01*
X009151Y014804D01*
X004151Y009804D01*
X004151Y001554D01*
M02*
