%
M48
M72
T01C0.0320
T02C0.0400
T03C0.0500
T04C0.1260
%
T01
X4339Y6054
X5339Y6054
X5339Y7554
X4339Y7554
X4339Y8804
X5339Y8804
X5339Y10304
X4339Y10304
X4339Y11554
X5339Y11554
X5339Y13054
X4339Y13054
X4339Y14304
X5339Y14304
X5339Y15804
X4339Y15804
X10839Y14804
X10839Y13804
X10839Y12804
X10839Y11804
X10839Y10804
X10839Y9804
X10839Y8804
X10839Y7804
X10839Y6804
X13839Y6804
X13839Y7804
X13839Y8804
X13839Y9804
X13839Y10804
X13839Y11804
X13839Y12804
X13839Y13804
X13839Y14804
X16589Y14804
X16589Y13804
X16589Y12804
X16589Y11804
X16589Y10804
X16589Y9804
X16589Y8804
X16589Y7804
X16589Y6804
X16589Y5554
X14839Y4554
X14839Y3554
X16589Y2554
X18339Y4054
X19339Y4054
X19589Y6804
X19589Y7804
X19589Y8804
X19589Y9804
X19589Y10804
X19589Y11804
X19589Y12804
X19589Y13804
X19589Y14804
X23839Y16304
X24839Y16304
X24839Y17804
X23839Y17804
X23839Y12804
X24839Y12804
X24839Y11304
X23839Y11304
X23839Y10054
X24839Y10054
X24839Y8554
X23839Y8554
X23839Y7304
X24839Y7304
X24839Y5804
X23839Y5804
T02
X5089Y1554
X6089Y1554
X7089Y1554
X8089Y1554
X9089Y1554
X10089Y1554
X11089Y1554
X12089Y1554
X14089Y1554
X15089Y1554
X16089Y1554
X17089Y1554
X18089Y1554
X19089Y1554
X21089Y1554
X22089Y1554
X23089Y1554
X24089Y1554
X25089Y1554
X26089Y1554
X22589Y7054
X22589Y8054
X22589Y9054
X22589Y10054
X22589Y11054
X22589Y12054
X22589Y13054
X22589Y14054
X23089Y20554
X24089Y20554
X25089Y20554
X26089Y20554
X22089Y20554
X21089Y20554
X20089Y20554
X19089Y20554
X17489Y20554
X16489Y20554
X15489Y20554
X14489Y20554
X13489Y20554
X12489Y20554
X11489Y20554
X10489Y20554
X6589Y14054
X6589Y13054
X6589Y12054
X6589Y11054
X6589Y10054
X6589Y9054
X6589Y8054
X6589Y7054
X9589Y4554
X9589Y3554
X11589Y3554
X11589Y4554
T03
X2339Y6115
X2339Y7493
X2339Y8865
X2339Y10243
X2339Y11615
X2339Y12993
X2339Y14365
X2339Y15743
X26339Y16365
X26339Y17743
X26339Y12743
X26339Y11365
X26339Y9993
X26339Y8615
X26339Y7243
X26339Y5865
T04
X27089Y3554
X27089Y14554
X7089Y20554
M30
