G75*
G70*
%OFA0B0*%
%FSLAX24Y24*%
%IPPOS*%
%LPD*%
%AMOC8*
5,1,8,0,0,1.08239X$1,22.5*
%
%ADD10C,0.0100*%
%ADD11C,0.0000*%
%ADD12C,0.0750*%
%ADD13C,0.0520*%
%ADD14OC8,0.0520*%
%ADD15OC8,0.0630*%
%ADD16C,0.0630*%
%ADD17C,0.0600*%
%ADD18C,0.0240*%
D10*
X001089Y000554D02*
X001089Y021554D01*
X028089Y021554D01*
X028089Y000554D01*
X001089Y000554D01*
X002400Y006054D02*
X002339Y006115D01*
X002400Y006054D02*
X004339Y006054D01*
X005339Y006054D02*
X005839Y006554D01*
X008339Y006554D01*
X009089Y007304D01*
X012339Y007304D01*
X012839Y007804D01*
X013839Y007804D01*
X013839Y008804D02*
X012589Y008804D01*
X012089Y008304D01*
X009089Y008304D01*
X008339Y007554D01*
X005339Y007554D01*
X004339Y007554D02*
X002400Y007554D01*
X002339Y007493D01*
X002400Y008804D02*
X002339Y008865D01*
X002400Y008804D02*
X004339Y008804D01*
X005339Y008804D02*
X005589Y008554D01*
X008339Y008554D01*
X009089Y009304D01*
X012089Y009304D01*
X012589Y009804D01*
X013839Y009804D01*
X013839Y010804D02*
X012589Y010804D01*
X012089Y010304D01*
X009089Y010304D01*
X008339Y009554D01*
X006089Y009554D01*
X005339Y010304D01*
X006089Y010554D02*
X008339Y010554D01*
X009089Y011304D01*
X012089Y011304D01*
X012589Y011804D01*
X013839Y011804D01*
X013839Y012804D02*
X012589Y012804D01*
X012089Y013304D01*
X009089Y013304D01*
X008339Y012554D01*
X005839Y012554D01*
X005339Y013054D01*
X006089Y013554D02*
X008339Y013554D01*
X009089Y014304D01*
X012089Y014304D01*
X012589Y013804D01*
X013839Y013804D01*
X013839Y014804D02*
X012589Y014804D01*
X012089Y015304D01*
X005839Y015304D01*
X005339Y015804D01*
X004339Y015804D02*
X002400Y015804D01*
X002339Y015743D01*
X002339Y014365D02*
X002400Y014304D01*
X004339Y014304D01*
X005339Y014304D02*
X006089Y013554D01*
X006589Y013054D02*
X008339Y013054D01*
X009089Y013804D01*
X010839Y013804D01*
X010839Y012804D02*
X009089Y012804D01*
X008339Y012054D01*
X006589Y012054D01*
X006589Y011054D02*
X008339Y011054D01*
X009089Y011804D01*
X010839Y011804D01*
X010839Y010804D02*
X009089Y010804D01*
X008339Y010054D01*
X006589Y010054D01*
X006089Y010554D02*
X005339Y011304D01*
X005339Y011554D01*
X004339Y011554D02*
X002400Y011554D01*
X002339Y011615D01*
X002400Y010304D02*
X002339Y010243D01*
X002400Y010304D02*
X004339Y010304D01*
X006589Y009054D02*
X008339Y009054D01*
X009089Y009804D01*
X010839Y009804D01*
X010839Y008804D02*
X009089Y008804D01*
X008339Y008054D01*
X006589Y008054D01*
X006589Y007054D02*
X008339Y007054D01*
X009089Y007804D01*
X010839Y007804D01*
X016589Y007804D02*
X017839Y007804D01*
X018339Y007304D01*
X022339Y007304D01*
X022589Y007054D01*
X023089Y007554D02*
X021839Y007554D01*
X021589Y007804D01*
X019589Y007804D01*
X019589Y008804D02*
X021589Y008804D01*
X021839Y008554D01*
X023089Y008554D01*
X023839Y007804D01*
X023839Y007304D01*
X023339Y007304D02*
X023339Y006304D01*
X023839Y005804D01*
X024839Y005804D02*
X024900Y005865D01*
X026339Y005865D01*
X026339Y007243D02*
X024900Y007243D01*
X024839Y007304D01*
X024839Y008554D02*
X024900Y008615D01*
X026339Y008615D01*
X026339Y009993D02*
X024900Y009993D01*
X024839Y010054D01*
X023839Y010054D02*
X023339Y010554D01*
X021839Y010554D01*
X021589Y010804D01*
X019589Y010804D01*
X019589Y009804D02*
X021589Y009804D01*
X021839Y009554D01*
X023339Y009554D01*
X023839Y009054D01*
X023839Y008554D01*
X023089Y007554D02*
X023339Y007304D01*
X022589Y008054D02*
X022339Y008304D01*
X018339Y008304D01*
X017839Y008804D01*
X016589Y008804D01*
X016589Y009804D02*
X017839Y009804D01*
X018339Y009304D01*
X022339Y009304D01*
X022589Y009054D01*
X022589Y010054D02*
X022339Y010304D01*
X018339Y010304D01*
X017839Y010804D01*
X016589Y010804D01*
X016589Y011804D02*
X017839Y011804D01*
X018339Y011304D01*
X022339Y011304D01*
X022589Y011054D01*
X021839Y011554D02*
X023589Y011554D01*
X023839Y011304D01*
X024839Y011304D02*
X024900Y011365D01*
X026339Y011365D01*
X026339Y012743D02*
X024900Y012743D01*
X024839Y012804D01*
X023839Y012804D02*
X023339Y012804D01*
X023089Y012554D01*
X021839Y012554D01*
X021589Y012804D01*
X019589Y012804D01*
X019589Y013804D02*
X021589Y013804D01*
X021839Y013554D01*
X023589Y013554D01*
X023839Y013804D01*
X023839Y016304D01*
X024839Y016304D02*
X024900Y016365D01*
X026339Y016365D01*
X026339Y017743D02*
X026277Y017804D01*
X024839Y017804D01*
X023839Y017804D02*
X020839Y014804D01*
X019589Y014804D01*
X018339Y014304D02*
X022339Y014304D01*
X022589Y014054D01*
X022339Y013304D02*
X022589Y013054D01*
X022339Y013304D02*
X018339Y013304D01*
X017839Y013804D01*
X016589Y013804D01*
X016589Y012804D02*
X017839Y012804D01*
X018339Y012304D01*
X022339Y012304D01*
X022589Y012054D01*
X021839Y011554D02*
X021589Y011804D01*
X019589Y011804D01*
X018339Y014304D02*
X017839Y014804D01*
X016589Y014804D01*
X010839Y014804D02*
X009089Y014804D01*
X008339Y014054D01*
X006589Y014054D01*
X004339Y013054D02*
X002400Y013054D01*
X002339Y012993D01*
D11*
X006459Y020554D02*
X006461Y020604D01*
X006467Y020654D01*
X006477Y020703D01*
X006491Y020751D01*
X006508Y020798D01*
X006529Y020843D01*
X006554Y020887D01*
X006582Y020928D01*
X006614Y020967D01*
X006648Y021004D01*
X006685Y021038D01*
X006725Y021068D01*
X006767Y021095D01*
X006811Y021119D01*
X006857Y021140D01*
X006904Y021156D01*
X006952Y021169D01*
X007002Y021178D01*
X007051Y021183D01*
X007102Y021184D01*
X007152Y021181D01*
X007201Y021174D01*
X007250Y021163D01*
X007298Y021148D01*
X007344Y021130D01*
X007389Y021108D01*
X007432Y021082D01*
X007473Y021053D01*
X007512Y021021D01*
X007548Y020986D01*
X007580Y020948D01*
X007610Y020908D01*
X007637Y020865D01*
X007660Y020821D01*
X007679Y020775D01*
X007695Y020727D01*
X007707Y020678D01*
X007715Y020629D01*
X007719Y020579D01*
X007719Y020529D01*
X007715Y020479D01*
X007707Y020430D01*
X007695Y020381D01*
X007679Y020333D01*
X007660Y020287D01*
X007637Y020243D01*
X007610Y020200D01*
X007580Y020160D01*
X007548Y020122D01*
X007512Y020087D01*
X007473Y020055D01*
X007432Y020026D01*
X007389Y020000D01*
X007344Y019978D01*
X007298Y019960D01*
X007250Y019945D01*
X007201Y019934D01*
X007152Y019927D01*
X007102Y019924D01*
X007051Y019925D01*
X007002Y019930D01*
X006952Y019939D01*
X006904Y019952D01*
X006857Y019968D01*
X006811Y019989D01*
X006767Y020013D01*
X006725Y020040D01*
X006685Y020070D01*
X006648Y020104D01*
X006614Y020141D01*
X006582Y020180D01*
X006554Y020221D01*
X006529Y020265D01*
X006508Y020310D01*
X006491Y020357D01*
X006477Y020405D01*
X006467Y020454D01*
X006461Y020504D01*
X006459Y020554D01*
X026459Y014554D02*
X026461Y014604D01*
X026467Y014654D01*
X026477Y014703D01*
X026491Y014751D01*
X026508Y014798D01*
X026529Y014843D01*
X026554Y014887D01*
X026582Y014928D01*
X026614Y014967D01*
X026648Y015004D01*
X026685Y015038D01*
X026725Y015068D01*
X026767Y015095D01*
X026811Y015119D01*
X026857Y015140D01*
X026904Y015156D01*
X026952Y015169D01*
X027002Y015178D01*
X027051Y015183D01*
X027102Y015184D01*
X027152Y015181D01*
X027201Y015174D01*
X027250Y015163D01*
X027298Y015148D01*
X027344Y015130D01*
X027389Y015108D01*
X027432Y015082D01*
X027473Y015053D01*
X027512Y015021D01*
X027548Y014986D01*
X027580Y014948D01*
X027610Y014908D01*
X027637Y014865D01*
X027660Y014821D01*
X027679Y014775D01*
X027695Y014727D01*
X027707Y014678D01*
X027715Y014629D01*
X027719Y014579D01*
X027719Y014529D01*
X027715Y014479D01*
X027707Y014430D01*
X027695Y014381D01*
X027679Y014333D01*
X027660Y014287D01*
X027637Y014243D01*
X027610Y014200D01*
X027580Y014160D01*
X027548Y014122D01*
X027512Y014087D01*
X027473Y014055D01*
X027432Y014026D01*
X027389Y014000D01*
X027344Y013978D01*
X027298Y013960D01*
X027250Y013945D01*
X027201Y013934D01*
X027152Y013927D01*
X027102Y013924D01*
X027051Y013925D01*
X027002Y013930D01*
X026952Y013939D01*
X026904Y013952D01*
X026857Y013968D01*
X026811Y013989D01*
X026767Y014013D01*
X026725Y014040D01*
X026685Y014070D01*
X026648Y014104D01*
X026614Y014141D01*
X026582Y014180D01*
X026554Y014221D01*
X026529Y014265D01*
X026508Y014310D01*
X026491Y014357D01*
X026477Y014405D01*
X026467Y014454D01*
X026461Y014504D01*
X026459Y014554D01*
X026459Y003554D02*
X026461Y003604D01*
X026467Y003654D01*
X026477Y003703D01*
X026491Y003751D01*
X026508Y003798D01*
X026529Y003843D01*
X026554Y003887D01*
X026582Y003928D01*
X026614Y003967D01*
X026648Y004004D01*
X026685Y004038D01*
X026725Y004068D01*
X026767Y004095D01*
X026811Y004119D01*
X026857Y004140D01*
X026904Y004156D01*
X026952Y004169D01*
X027002Y004178D01*
X027051Y004183D01*
X027102Y004184D01*
X027152Y004181D01*
X027201Y004174D01*
X027250Y004163D01*
X027298Y004148D01*
X027344Y004130D01*
X027389Y004108D01*
X027432Y004082D01*
X027473Y004053D01*
X027512Y004021D01*
X027548Y003986D01*
X027580Y003948D01*
X027610Y003908D01*
X027637Y003865D01*
X027660Y003821D01*
X027679Y003775D01*
X027695Y003727D01*
X027707Y003678D01*
X027715Y003629D01*
X027719Y003579D01*
X027719Y003529D01*
X027715Y003479D01*
X027707Y003430D01*
X027695Y003381D01*
X027679Y003333D01*
X027660Y003287D01*
X027637Y003243D01*
X027610Y003200D01*
X027580Y003160D01*
X027548Y003122D01*
X027512Y003087D01*
X027473Y003055D01*
X027432Y003026D01*
X027389Y003000D01*
X027344Y002978D01*
X027298Y002960D01*
X027250Y002945D01*
X027201Y002934D01*
X027152Y002927D01*
X027102Y002924D01*
X027051Y002925D01*
X027002Y002930D01*
X026952Y002939D01*
X026904Y002952D01*
X026857Y002968D01*
X026811Y002989D01*
X026767Y003013D01*
X026725Y003040D01*
X026685Y003070D01*
X026648Y003104D01*
X026614Y003141D01*
X026582Y003180D01*
X026554Y003221D01*
X026529Y003265D01*
X026508Y003310D01*
X026491Y003357D01*
X026477Y003405D01*
X026467Y003454D01*
X026461Y003504D01*
X026459Y003554D01*
D12*
X026714Y005865D02*
X025964Y005865D01*
X025964Y007243D02*
X026714Y007243D01*
X026714Y008615D02*
X025964Y008615D01*
X025964Y009993D02*
X026714Y009993D01*
X026714Y011365D02*
X025964Y011365D01*
X025964Y012743D02*
X026714Y012743D01*
X026714Y016365D02*
X025964Y016365D01*
X025964Y017743D02*
X026714Y017743D01*
X002714Y015743D02*
X001964Y015743D01*
X001964Y014365D02*
X002714Y014365D01*
X002714Y012993D02*
X001964Y012993D01*
X001964Y011615D02*
X002714Y011615D01*
X002714Y010243D02*
X001964Y010243D01*
X001964Y008865D02*
X002714Y008865D01*
X002714Y007493D02*
X001964Y007493D01*
X001964Y006115D02*
X002714Y006115D01*
D13*
X010579Y006804D02*
X011099Y006804D01*
X011099Y007804D02*
X010579Y007804D01*
X010579Y008804D02*
X011099Y008804D01*
X011099Y009804D02*
X010579Y009804D01*
X010579Y010804D02*
X011099Y010804D01*
X011099Y011804D02*
X010579Y011804D01*
X010579Y012804D02*
X011099Y012804D01*
X011099Y013804D02*
X010579Y013804D01*
X010579Y014804D02*
X011099Y014804D01*
X013579Y014804D02*
X014099Y014804D01*
X014099Y013804D02*
X013579Y013804D01*
X013579Y012804D02*
X014099Y012804D01*
X014099Y011804D02*
X013579Y011804D01*
X013579Y010804D02*
X014099Y010804D01*
X014099Y009804D02*
X013579Y009804D01*
X013579Y008804D02*
X014099Y008804D01*
X014099Y007804D02*
X013579Y007804D01*
X013579Y006804D02*
X014099Y006804D01*
X016329Y006804D02*
X016849Y006804D01*
X016849Y007804D02*
X016329Y007804D01*
X016329Y008804D02*
X016849Y008804D01*
X016849Y009804D02*
X016329Y009804D01*
X016329Y010804D02*
X016849Y010804D01*
X016849Y011804D02*
X016329Y011804D01*
X016329Y012804D02*
X016849Y012804D01*
X016849Y013804D02*
X016329Y013804D01*
X016329Y014804D02*
X016849Y014804D01*
X019329Y014804D02*
X019849Y014804D01*
X019849Y013804D02*
X019329Y013804D01*
X019329Y012804D02*
X019849Y012804D01*
X019849Y011804D02*
X019329Y011804D01*
X019329Y010804D02*
X019849Y010804D01*
X019849Y009804D02*
X019329Y009804D01*
X019329Y008804D02*
X019849Y008804D01*
X019849Y007804D02*
X019329Y007804D01*
X019329Y006804D02*
X019849Y006804D01*
D14*
X016589Y005554D03*
X018339Y004054D03*
X019339Y004054D03*
X016589Y002554D03*
X023839Y005804D03*
X024839Y005804D03*
X024839Y007304D03*
X023839Y007304D03*
X023839Y008554D03*
X024839Y008554D03*
X024839Y010054D03*
X023839Y010054D03*
X023839Y011304D03*
X024839Y011304D03*
X024839Y012804D03*
X023839Y012804D03*
X023839Y016304D03*
X024839Y016304D03*
X024839Y017804D03*
X023839Y017804D03*
X005339Y015804D03*
X004339Y015804D03*
X004339Y014304D03*
X005339Y014304D03*
X005339Y013054D03*
X004339Y013054D03*
X004339Y011554D03*
X005339Y011554D03*
X005339Y010304D03*
X004339Y010304D03*
X004339Y008804D03*
X005339Y008804D03*
X005339Y007554D03*
X004339Y007554D03*
X004339Y006054D03*
X005339Y006054D03*
D15*
X014839Y004554D03*
D16*
X014839Y003554D03*
D17*
X015089Y001854D02*
X015089Y001254D01*
X014089Y001254D02*
X014089Y001854D01*
X016089Y001854D02*
X016089Y001254D01*
X017089Y001254D02*
X017089Y001854D01*
X018089Y001854D02*
X018089Y001254D01*
X019089Y001254D02*
X019089Y001854D01*
X021089Y001854D02*
X021089Y001254D01*
X022089Y001254D02*
X022089Y001854D01*
X023089Y001854D02*
X023089Y001254D01*
X024089Y001254D02*
X024089Y001854D01*
X025089Y001854D02*
X025089Y001254D01*
X026089Y001254D02*
X026089Y001854D01*
X022889Y007054D02*
X022289Y007054D01*
X022289Y008054D02*
X022889Y008054D01*
X022889Y009054D02*
X022289Y009054D01*
X022289Y010054D02*
X022889Y010054D01*
X022889Y011054D02*
X022289Y011054D01*
X022289Y012054D02*
X022889Y012054D01*
X022889Y013054D02*
X022289Y013054D01*
X022289Y014054D02*
X022889Y014054D01*
X023089Y020254D02*
X023089Y020854D01*
X024089Y020854D02*
X024089Y020254D01*
X025089Y020254D02*
X025089Y020854D01*
X026089Y020854D02*
X026089Y020254D01*
X022089Y020254D02*
X022089Y020854D01*
X021089Y020854D02*
X021089Y020254D01*
X020089Y020254D02*
X020089Y020854D01*
X019089Y020854D02*
X019089Y020254D01*
X017489Y020254D02*
X017489Y020854D01*
X016489Y020854D02*
X016489Y020254D01*
X015489Y020254D02*
X015489Y020854D01*
X014489Y020854D02*
X014489Y020254D01*
X013489Y020254D02*
X013489Y020854D01*
X012489Y020854D02*
X012489Y020254D01*
X011489Y020254D02*
X011489Y020854D01*
X010489Y020854D02*
X010489Y020254D01*
X006889Y014054D02*
X006289Y014054D01*
X006289Y013054D02*
X006889Y013054D01*
X006889Y012054D02*
X006289Y012054D01*
X006289Y011054D02*
X006889Y011054D01*
X006889Y010054D02*
X006289Y010054D01*
X006289Y009054D02*
X006889Y009054D01*
X006889Y008054D02*
X006289Y008054D01*
X006289Y007054D02*
X006889Y007054D01*
X009289Y004554D02*
X009889Y004554D01*
X009889Y003554D02*
X009289Y003554D01*
X011289Y003554D02*
X011889Y003554D01*
X011889Y004554D02*
X011289Y004554D01*
X011089Y001854D02*
X011089Y001254D01*
X012089Y001254D02*
X012089Y001854D01*
X010089Y001854D02*
X010089Y001254D01*
X009089Y001254D02*
X009089Y001854D01*
X008089Y001854D02*
X008089Y001254D01*
X007089Y001254D02*
X007089Y001854D01*
X006089Y001854D02*
X006089Y001254D01*
X005089Y001254D02*
X005089Y001854D01*
D18*
X009589Y003554D02*
X011589Y003554D01*
X014839Y003554D01*
X015589Y003554D01*
X016589Y002554D01*
X016089Y002054D01*
X016089Y001554D01*
X019339Y004054D02*
X017839Y005554D01*
X016589Y005554D01*
X015214Y006179D02*
X018964Y006179D01*
X019589Y006804D01*
X015214Y006179D02*
X014339Y005304D01*
X012339Y005304D01*
X011589Y004554D01*
X010839Y005804D02*
X012839Y005804D01*
X013839Y006804D01*
X010839Y005804D02*
X009589Y004554D01*
M02*
