G75*
G70*
%OFA0B0*%
%FSLAX24Y24*%
%IPPOS*%
%LPD*%
%AMOC8*
5,1,8,0,0,1.08239X$1,22.5*
%
%ADD10C,0.0100*%
%ADD11C,0.0000*%
%ADD12C,0.0520*%
%ADD13OC8,0.0520*%
%ADD14OC8,0.0630*%
%ADD15C,0.0630*%
%ADD16C,0.0600*%
%ADD17OC8,0.0600*%
%ADD18C,0.0750*%
%ADD19C,0.0240*%
%ADD20C,0.0120*%
%ADD21C,0.0396*%
D10*
X000151Y000151D02*
X000151Y021151D01*
X027151Y021151D01*
X027151Y000151D01*
X000151Y000151D01*
D11*
X005521Y020151D02*
X005523Y020201D01*
X005529Y020251D01*
X005539Y020300D01*
X005553Y020348D01*
X005570Y020395D01*
X005591Y020440D01*
X005616Y020484D01*
X005644Y020525D01*
X005676Y020564D01*
X005710Y020601D01*
X005747Y020635D01*
X005787Y020665D01*
X005829Y020692D01*
X005873Y020716D01*
X005919Y020737D01*
X005966Y020753D01*
X006014Y020766D01*
X006064Y020775D01*
X006113Y020780D01*
X006164Y020781D01*
X006214Y020778D01*
X006263Y020771D01*
X006312Y020760D01*
X006360Y020745D01*
X006406Y020727D01*
X006451Y020705D01*
X006494Y020679D01*
X006535Y020650D01*
X006574Y020618D01*
X006610Y020583D01*
X006642Y020545D01*
X006672Y020505D01*
X006699Y020462D01*
X006722Y020418D01*
X006741Y020372D01*
X006757Y020324D01*
X006769Y020275D01*
X006777Y020226D01*
X006781Y020176D01*
X006781Y020126D01*
X006777Y020076D01*
X006769Y020027D01*
X006757Y019978D01*
X006741Y019930D01*
X006722Y019884D01*
X006699Y019840D01*
X006672Y019797D01*
X006642Y019757D01*
X006610Y019719D01*
X006574Y019684D01*
X006535Y019652D01*
X006494Y019623D01*
X006451Y019597D01*
X006406Y019575D01*
X006360Y019557D01*
X006312Y019542D01*
X006263Y019531D01*
X006214Y019524D01*
X006164Y019521D01*
X006113Y019522D01*
X006064Y019527D01*
X006014Y019536D01*
X005966Y019549D01*
X005919Y019565D01*
X005873Y019586D01*
X005829Y019610D01*
X005787Y019637D01*
X005747Y019667D01*
X005710Y019701D01*
X005676Y019738D01*
X005644Y019777D01*
X005616Y019818D01*
X005591Y019862D01*
X005570Y019907D01*
X005553Y019954D01*
X005539Y020002D01*
X005529Y020051D01*
X005523Y020101D01*
X005521Y020151D01*
X025521Y014151D02*
X025523Y014201D01*
X025529Y014251D01*
X025539Y014300D01*
X025553Y014348D01*
X025570Y014395D01*
X025591Y014440D01*
X025616Y014484D01*
X025644Y014525D01*
X025676Y014564D01*
X025710Y014601D01*
X025747Y014635D01*
X025787Y014665D01*
X025829Y014692D01*
X025873Y014716D01*
X025919Y014737D01*
X025966Y014753D01*
X026014Y014766D01*
X026064Y014775D01*
X026113Y014780D01*
X026164Y014781D01*
X026214Y014778D01*
X026263Y014771D01*
X026312Y014760D01*
X026360Y014745D01*
X026406Y014727D01*
X026451Y014705D01*
X026494Y014679D01*
X026535Y014650D01*
X026574Y014618D01*
X026610Y014583D01*
X026642Y014545D01*
X026672Y014505D01*
X026699Y014462D01*
X026722Y014418D01*
X026741Y014372D01*
X026757Y014324D01*
X026769Y014275D01*
X026777Y014226D01*
X026781Y014176D01*
X026781Y014126D01*
X026777Y014076D01*
X026769Y014027D01*
X026757Y013978D01*
X026741Y013930D01*
X026722Y013884D01*
X026699Y013840D01*
X026672Y013797D01*
X026642Y013757D01*
X026610Y013719D01*
X026574Y013684D01*
X026535Y013652D01*
X026494Y013623D01*
X026451Y013597D01*
X026406Y013575D01*
X026360Y013557D01*
X026312Y013542D01*
X026263Y013531D01*
X026214Y013524D01*
X026164Y013521D01*
X026113Y013522D01*
X026064Y013527D01*
X026014Y013536D01*
X025966Y013549D01*
X025919Y013565D01*
X025873Y013586D01*
X025829Y013610D01*
X025787Y013637D01*
X025747Y013667D01*
X025710Y013701D01*
X025676Y013738D01*
X025644Y013777D01*
X025616Y013818D01*
X025591Y013862D01*
X025570Y013907D01*
X025553Y013954D01*
X025539Y014002D01*
X025529Y014051D01*
X025523Y014101D01*
X025521Y014151D01*
X025521Y003151D02*
X025523Y003201D01*
X025529Y003251D01*
X025539Y003300D01*
X025553Y003348D01*
X025570Y003395D01*
X025591Y003440D01*
X025616Y003484D01*
X025644Y003525D01*
X025676Y003564D01*
X025710Y003601D01*
X025747Y003635D01*
X025787Y003665D01*
X025829Y003692D01*
X025873Y003716D01*
X025919Y003737D01*
X025966Y003753D01*
X026014Y003766D01*
X026064Y003775D01*
X026113Y003780D01*
X026164Y003781D01*
X026214Y003778D01*
X026263Y003771D01*
X026312Y003760D01*
X026360Y003745D01*
X026406Y003727D01*
X026451Y003705D01*
X026494Y003679D01*
X026535Y003650D01*
X026574Y003618D01*
X026610Y003583D01*
X026642Y003545D01*
X026672Y003505D01*
X026699Y003462D01*
X026722Y003418D01*
X026741Y003372D01*
X026757Y003324D01*
X026769Y003275D01*
X026777Y003226D01*
X026781Y003176D01*
X026781Y003126D01*
X026777Y003076D01*
X026769Y003027D01*
X026757Y002978D01*
X026741Y002930D01*
X026722Y002884D01*
X026699Y002840D01*
X026672Y002797D01*
X026642Y002757D01*
X026610Y002719D01*
X026574Y002684D01*
X026535Y002652D01*
X026494Y002623D01*
X026451Y002597D01*
X026406Y002575D01*
X026360Y002557D01*
X026312Y002542D01*
X026263Y002531D01*
X026214Y002524D01*
X026164Y002521D01*
X026113Y002522D01*
X026064Y002527D01*
X026014Y002536D01*
X025966Y002549D01*
X025919Y002565D01*
X025873Y002586D01*
X025829Y002610D01*
X025787Y002637D01*
X025747Y002667D01*
X025710Y002701D01*
X025676Y002738D01*
X025644Y002777D01*
X025616Y002818D01*
X025591Y002862D01*
X025570Y002907D01*
X025553Y002954D01*
X025539Y003002D01*
X025529Y003051D01*
X025523Y003101D01*
X025521Y003151D01*
D12*
X025026Y004891D02*
X025026Y005411D01*
X024026Y005411D02*
X024026Y004891D01*
X023026Y004891D02*
X023026Y005411D01*
X026026Y005411D02*
X026026Y004891D01*
X026026Y007891D02*
X026026Y008411D01*
X026026Y009141D02*
X026026Y009661D01*
X025026Y009661D02*
X025026Y009141D01*
X025026Y008411D02*
X025026Y007891D01*
X024026Y007891D02*
X024026Y008411D01*
X024026Y009141D02*
X024026Y009661D01*
X023026Y009661D02*
X023026Y009141D01*
X023026Y008411D02*
X023026Y007891D01*
X018661Y007651D02*
X018141Y007651D01*
X018141Y006651D02*
X018661Y006651D01*
X018661Y008651D02*
X018141Y008651D01*
X018141Y009651D02*
X018661Y009651D01*
X018661Y010651D02*
X018141Y010651D01*
X018141Y011651D02*
X018661Y011651D01*
X018661Y012651D02*
X018141Y012651D01*
X018141Y013651D02*
X018661Y013651D01*
X018661Y014651D02*
X018141Y014651D01*
X018141Y015651D02*
X018661Y015651D01*
X015661Y015651D02*
X015141Y015651D01*
X015141Y014651D02*
X015661Y014651D01*
X015661Y013651D02*
X015141Y013651D01*
X015141Y012651D02*
X015661Y012651D01*
X015661Y011651D02*
X015141Y011651D01*
X015141Y010651D02*
X015661Y010651D01*
X015661Y009651D02*
X015141Y009651D01*
X015141Y008651D02*
X015661Y008651D01*
X015661Y007651D02*
X015141Y007651D01*
X015141Y006651D02*
X015661Y006651D01*
X011411Y006651D02*
X010891Y006651D01*
X010891Y007651D02*
X011411Y007651D01*
X011411Y008651D02*
X010891Y008651D01*
X010891Y009651D02*
X011411Y009651D01*
X011411Y010651D02*
X010891Y010651D01*
X010891Y011651D02*
X011411Y011651D01*
X011411Y012651D02*
X010891Y012651D01*
X010891Y013651D02*
X011411Y013651D01*
X011411Y014651D02*
X010891Y014651D01*
X010891Y015651D02*
X011411Y015651D01*
X008411Y015651D02*
X007891Y015651D01*
X007891Y014651D02*
X008411Y014651D01*
X008411Y013651D02*
X007891Y013651D01*
X007891Y012651D02*
X008411Y012651D01*
X008411Y011651D02*
X007891Y011651D01*
X007891Y010651D02*
X008411Y010651D01*
X008411Y009651D02*
X007891Y009651D01*
X007891Y008651D02*
X008411Y008651D01*
X008411Y007651D02*
X007891Y007651D01*
X007891Y006651D02*
X008411Y006651D01*
X023026Y012141D02*
X023026Y012661D01*
X024026Y012661D02*
X024026Y012141D01*
X025026Y012141D02*
X025026Y012661D01*
X026026Y012661D02*
X026026Y012141D01*
D13*
X021651Y012401D03*
X020651Y012401D03*
X020651Y011401D03*
X021651Y011401D03*
X021651Y010401D03*
X021651Y009401D03*
X020651Y009401D03*
X020651Y010401D03*
X020651Y008151D03*
X021651Y008151D03*
X021651Y007151D03*
X020651Y007151D03*
X020651Y006151D03*
X020651Y005151D03*
X021651Y005151D03*
X021651Y006151D03*
X022151Y003151D03*
X019151Y003151D03*
X017901Y003151D03*
X016901Y003151D03*
X004776Y007401D03*
X003776Y007401D03*
X003776Y008901D03*
X004776Y008901D03*
X004776Y010151D03*
X003776Y010151D03*
X003776Y011651D03*
X004776Y011651D03*
X004776Y012901D03*
X003776Y012901D03*
X003776Y014401D03*
X004776Y014401D03*
X004776Y015651D03*
X003776Y015651D03*
X003776Y017151D03*
X004776Y017151D03*
D14*
X015401Y003151D03*
D15*
X014401Y003151D03*
D16*
X014151Y001451D02*
X014151Y000851D01*
X013151Y000851D02*
X013151Y001451D01*
X015151Y001451D02*
X015151Y000851D01*
X016151Y000851D02*
X016151Y001451D01*
X017151Y001451D02*
X017151Y000851D01*
X018151Y000851D02*
X018151Y001451D01*
X020151Y001451D02*
X020151Y000851D01*
X021151Y000851D02*
X021151Y001451D01*
X022151Y001451D02*
X022151Y000851D01*
X023151Y000851D02*
X023151Y001451D01*
X024151Y001451D02*
X024151Y000851D01*
X025151Y000851D02*
X025151Y001451D01*
X011151Y001451D02*
X011151Y000851D01*
X010151Y000851D02*
X010151Y001451D01*
X009151Y001451D02*
X009151Y000851D01*
X008151Y000851D02*
X008151Y001451D01*
X007151Y001451D02*
X007151Y000851D01*
X006151Y000851D02*
X006151Y001451D01*
X005151Y001451D02*
X005151Y000851D01*
X004151Y000851D02*
X004151Y001451D01*
X009551Y019851D02*
X009551Y020451D01*
X010551Y020451D02*
X010551Y019851D01*
X011551Y019851D02*
X011551Y020451D01*
X012551Y020451D02*
X012551Y019851D01*
X013551Y019851D02*
X013551Y020451D01*
X014551Y020451D02*
X014551Y019851D01*
X015551Y019851D02*
X015551Y020451D01*
X016551Y020451D02*
X016551Y019851D01*
X018151Y019851D02*
X018151Y020451D01*
X019151Y020451D02*
X019151Y019851D01*
X020151Y019851D02*
X020151Y020451D01*
X021151Y020451D02*
X021151Y019851D01*
X022151Y019851D02*
X022151Y020451D01*
X023151Y020451D02*
X023151Y019851D01*
X024151Y019851D02*
X024151Y020451D01*
X025151Y020451D02*
X025151Y019851D01*
D17*
X011151Y003651D03*
X010151Y003651D03*
X009151Y003651D03*
X008151Y003651D03*
X007151Y003651D03*
X006151Y003651D03*
X005151Y003651D03*
X004151Y003651D03*
X004151Y002651D03*
X005151Y002651D03*
X006151Y002651D03*
X007151Y002651D03*
X008151Y002651D03*
X009151Y002651D03*
X010151Y002651D03*
X011151Y002651D03*
D18*
X001776Y004712D02*
X001026Y004712D01*
X001026Y006090D02*
X001776Y006090D01*
X001776Y007462D02*
X001026Y007462D01*
X001026Y008840D02*
X001776Y008840D01*
X001776Y010212D02*
X001026Y010212D01*
X001026Y011590D02*
X001776Y011590D01*
X001776Y012962D02*
X001026Y012962D01*
X001026Y014340D02*
X001776Y014340D01*
X001776Y015712D02*
X001026Y015712D01*
X001026Y017090D02*
X001776Y017090D01*
D19*
X004776Y017151D02*
X004776Y015651D01*
X004776Y014401D01*
X004776Y012901D01*
X004776Y011651D01*
X004776Y010151D01*
X004776Y008901D01*
X004776Y007401D01*
X014401Y003151D02*
X015151Y002401D01*
X015151Y001151D01*
X021651Y005151D02*
X022151Y004651D01*
X022151Y003151D01*
D20*
X020401Y004901D02*
X020651Y005151D01*
X021151Y005651D01*
X022401Y005651D01*
X022901Y006151D01*
X024401Y006151D01*
X026026Y007776D01*
X026026Y008151D01*
X025026Y008151D02*
X025026Y007776D01*
X023901Y006651D01*
X021151Y006651D01*
X020651Y006151D01*
X019651Y005151D01*
X014901Y005151D01*
X014151Y005901D01*
X014151Y011651D01*
X015151Y012651D01*
X015401Y012651D01*
X015651Y011651D02*
X016401Y012401D01*
X016401Y016651D01*
X018651Y018901D01*
X020151Y018901D01*
X021151Y019901D01*
X021151Y020151D01*
X020151Y020151D02*
X020151Y019901D01*
X019401Y019151D01*
X018401Y019151D01*
X016151Y016901D01*
X016151Y014151D01*
X015651Y013651D01*
X015401Y013651D01*
X015401Y014651D02*
X015151Y014651D01*
X013901Y013401D01*
X013901Y005651D01*
X014651Y004901D01*
X020401Y004901D01*
X018901Y005401D02*
X020651Y007151D01*
X021151Y007651D01*
X022151Y007651D01*
X022401Y007401D01*
X023651Y007401D01*
X024026Y007776D01*
X024026Y008151D01*
X023026Y008151D02*
X023026Y008276D01*
X022651Y008651D01*
X021151Y008651D01*
X020651Y008151D01*
X019401Y006901D01*
X019401Y006401D01*
X018651Y005651D01*
X015401Y005651D01*
X014651Y006401D01*
X014651Y008151D01*
X015151Y008651D01*
X015401Y008651D01*
X015401Y007651D02*
X015901Y007651D01*
X016901Y008651D01*
X016901Y016151D01*
X019151Y018401D01*
X021651Y018401D01*
X023151Y019901D01*
X023151Y020151D01*
X022151Y020151D02*
X022151Y019901D01*
X020901Y018651D01*
X018901Y018651D01*
X016651Y016401D01*
X016651Y010651D01*
X015651Y009651D01*
X015401Y009651D01*
X015401Y010651D02*
X015151Y010651D01*
X014401Y009901D01*
X014401Y006151D01*
X015151Y005401D01*
X018901Y005401D01*
X018401Y007651D02*
X018151Y007651D01*
X017151Y008651D01*
X017151Y015901D01*
X019401Y018151D01*
X022401Y018151D01*
X024151Y019901D01*
X024151Y020151D01*
X025151Y020151D02*
X025151Y019901D01*
X023151Y017901D01*
X019651Y017901D01*
X017401Y015651D01*
X017401Y010401D01*
X018151Y009651D01*
X018401Y009651D01*
X020651Y009401D02*
X021151Y009901D01*
X022151Y009901D01*
X022401Y010151D01*
X024151Y010151D01*
X026026Y012026D01*
X026026Y012401D01*
X025026Y012401D02*
X025026Y012026D01*
X023901Y010901D01*
X021151Y010901D01*
X020651Y010401D01*
X020651Y011401D02*
X021151Y011901D01*
X022151Y011901D01*
X022401Y011651D01*
X023651Y011651D01*
X024026Y012026D01*
X024026Y012401D01*
X023026Y012401D02*
X022901Y012401D01*
X022401Y012901D01*
X021151Y012901D01*
X020651Y012401D01*
X015651Y011651D02*
X015401Y011651D01*
X012401Y014151D02*
X012401Y006401D01*
X010401Y004401D01*
X005901Y004401D01*
X005151Y003651D01*
X004151Y003651D02*
X005151Y004651D01*
X010199Y004651D01*
X012151Y006604D01*
X012151Y014151D01*
X011651Y014651D01*
X011151Y014651D01*
X010401Y014151D02*
X010401Y020001D01*
X010551Y020151D01*
X010151Y019551D02*
X010151Y013651D01*
X010401Y013401D01*
X010401Y012401D01*
X011151Y011651D01*
X010151Y012151D02*
X010151Y010901D01*
X009401Y011651D02*
X009401Y007651D01*
X010151Y006901D01*
X010151Y008901D02*
X009651Y009401D01*
X009651Y011901D01*
X009151Y012401D01*
X009151Y012901D01*
X008901Y013151D01*
X007151Y013151D01*
X007151Y012151D02*
X008901Y012151D01*
X009401Y011651D01*
X010151Y012151D02*
X009401Y012901D01*
X009401Y014651D01*
X008901Y015151D01*
X007151Y015151D01*
X005401Y014651D02*
X005401Y006901D01*
X005901Y008401D02*
X005901Y012651D01*
X006901Y011151D02*
X006901Y008651D01*
X009901Y012901D02*
X009901Y016151D01*
X009651Y016401D01*
X010401Y014151D02*
X010901Y013651D01*
X011151Y013651D01*
X012401Y014151D02*
X013901Y015651D01*
X015401Y015651D01*
X010151Y019551D02*
X009551Y020151D01*
X009151Y002651D02*
X009151Y001151D01*
X008151Y001151D02*
X008151Y002651D01*
X007151Y002651D02*
X007151Y001151D01*
X006151Y001151D02*
X006151Y002651D01*
X005151Y002651D02*
X005151Y001151D01*
X004151Y001151D02*
X004151Y002651D01*
X010151Y002651D02*
X010151Y001151D01*
X011151Y001151D02*
X011151Y002651D01*
D21*
X010151Y006901D03*
X010151Y008901D03*
X010151Y010901D03*
X009901Y012901D03*
X007151Y013151D03*
X007151Y012151D03*
X006901Y011151D03*
X005901Y012651D03*
X005401Y014651D03*
X007151Y015151D03*
X009651Y016401D03*
X006901Y008651D03*
X005901Y008401D03*
X005401Y006901D03*
M02*
