%
M48
M72
T01C0.0236
T02C0.0320
T03C0.0400
T04C0.0500
T05C0.1260
%
T01
X5401Y6901
X5901Y8401
X6901Y8651
X6901Y11151
X7151Y12151
X7151Y13151
X5901Y12651
X5401Y14651
X7151Y15151
X9651Y16401
X9901Y12901
X10151Y10901
X10151Y8901
X10151Y6901
T02
X11151Y6651
X11151Y7651
X11151Y8651
X11151Y9651
X11151Y10651
X11151Y11651
X11151Y12651
X11151Y13651
X11151Y14651
X11151Y15651
X8151Y15651
X8151Y14651
X8151Y13651
X8151Y12651
X8151Y11651
X8151Y10651
X8151Y9651
X8151Y8651
X8151Y7651
X8151Y6651
X4776Y7401
X3776Y7401
X3776Y8901
X4776Y8901
X4776Y10151
X3776Y10151
X3776Y11651
X4776Y11651
X4776Y12901
X3776Y12901
X3776Y14401
X4776Y14401
X4776Y15651
X3776Y15651
X3776Y17151
X4776Y17151
X15401Y15651
X15401Y14651
X15401Y13651
X15401Y12651
X15401Y11651
X15401Y10651
X15401Y9651
X15401Y8651
X15401Y7651
X15401Y6651
X18401Y6651
X18401Y7651
X18401Y8651
X18401Y9651
X18401Y10651
X18401Y11651
X18401Y12651
X18401Y13651
X18401Y14651
X18401Y15651
X20651Y12401
X21651Y12401
X21651Y11401
X20651Y11401
X20651Y10401
X20651Y9401
X21651Y9401
X21651Y10401
X23026Y9401
X24026Y9401
X25026Y9401
X26026Y9401
X26026Y8151
X25026Y8151
X24026Y8151
X23026Y8151
X21651Y8151
X20651Y8151
X20651Y7151
X21651Y7151
X21651Y6151
X21651Y5151
X20651Y5151
X20651Y6151
X23026Y5151
X24026Y5151
X25026Y5151
X26026Y5151
X22151Y3151
X19151Y3151
X17901Y3151
X16901Y3151
X15401Y3151
X14401Y3151
X23026Y12401
X24026Y12401
X25026Y12401
X26026Y12401
T03
X4151Y1151
X5151Y1151
X6151Y1151
X7151Y1151
X8151Y1151
X9151Y1151
X10151Y1151
X11151Y1151
X11151Y2651
X10151Y2651
X9151Y2651
X8151Y2651
X7151Y2651
X6151Y2651
X5151Y2651
X4151Y2651
X4151Y3651
X5151Y3651
X6151Y3651
X7151Y3651
X8151Y3651
X9151Y3651
X10151Y3651
X11151Y3651
X13151Y1151
X14151Y1151
X15151Y1151
X16151Y1151
X17151Y1151
X18151Y1151
X20151Y1151
X21151Y1151
X22151Y1151
X23151Y1151
X24151Y1151
X25151Y1151
X25151Y20151
X24151Y20151
X23151Y20151
X22151Y20151
X21151Y20151
X20151Y20151
X19151Y20151
X18151Y20151
X16551Y20151
X15551Y20151
X14551Y20151
X13551Y20151
X12551Y20151
X11551Y20151
X10551Y20151
X9551Y20151
T04
X1401Y17090
X1401Y15712
X1401Y14340
X1401Y12962
X1401Y11590
X1401Y10212
X1401Y8840
X1401Y7462
X1401Y6090
X1401Y4712
T05
X6151Y20151
X26151Y14151
X26151Y3151
M30
