G75*
G70*
%OFA0B0*%
%FSLAX24Y24*%
%IPPOS*%
%LPD*%
%AMOC8*
5,1,8,0,0,1.08239X$1,22.5*
%
%ADD10C,0.0100*%
%ADD11C,0.0000*%
D10*
X000151Y000151D02*
X000151Y021151D01*
X027151Y021151D01*
X027151Y000151D01*
X000151Y000151D01*
D11*
X005521Y020151D02*
X005523Y020201D01*
X005529Y020251D01*
X005539Y020300D01*
X005553Y020348D01*
X005570Y020395D01*
X005591Y020440D01*
X005616Y020484D01*
X005644Y020525D01*
X005676Y020564D01*
X005710Y020601D01*
X005747Y020635D01*
X005787Y020665D01*
X005829Y020692D01*
X005873Y020716D01*
X005919Y020737D01*
X005966Y020753D01*
X006014Y020766D01*
X006064Y020775D01*
X006113Y020780D01*
X006164Y020781D01*
X006214Y020778D01*
X006263Y020771D01*
X006312Y020760D01*
X006360Y020745D01*
X006406Y020727D01*
X006451Y020705D01*
X006494Y020679D01*
X006535Y020650D01*
X006574Y020618D01*
X006610Y020583D01*
X006642Y020545D01*
X006672Y020505D01*
X006699Y020462D01*
X006722Y020418D01*
X006741Y020372D01*
X006757Y020324D01*
X006769Y020275D01*
X006777Y020226D01*
X006781Y020176D01*
X006781Y020126D01*
X006777Y020076D01*
X006769Y020027D01*
X006757Y019978D01*
X006741Y019930D01*
X006722Y019884D01*
X006699Y019840D01*
X006672Y019797D01*
X006642Y019757D01*
X006610Y019719D01*
X006574Y019684D01*
X006535Y019652D01*
X006494Y019623D01*
X006451Y019597D01*
X006406Y019575D01*
X006360Y019557D01*
X006312Y019542D01*
X006263Y019531D01*
X006214Y019524D01*
X006164Y019521D01*
X006113Y019522D01*
X006064Y019527D01*
X006014Y019536D01*
X005966Y019549D01*
X005919Y019565D01*
X005873Y019586D01*
X005829Y019610D01*
X005787Y019637D01*
X005747Y019667D01*
X005710Y019701D01*
X005676Y019738D01*
X005644Y019777D01*
X005616Y019818D01*
X005591Y019862D01*
X005570Y019907D01*
X005553Y019954D01*
X005539Y020002D01*
X005529Y020051D01*
X005523Y020101D01*
X005521Y020151D01*
X025521Y014151D02*
X025523Y014201D01*
X025529Y014251D01*
X025539Y014300D01*
X025553Y014348D01*
X025570Y014395D01*
X025591Y014440D01*
X025616Y014484D01*
X025644Y014525D01*
X025676Y014564D01*
X025710Y014601D01*
X025747Y014635D01*
X025787Y014665D01*
X025829Y014692D01*
X025873Y014716D01*
X025919Y014737D01*
X025966Y014753D01*
X026014Y014766D01*
X026064Y014775D01*
X026113Y014780D01*
X026164Y014781D01*
X026214Y014778D01*
X026263Y014771D01*
X026312Y014760D01*
X026360Y014745D01*
X026406Y014727D01*
X026451Y014705D01*
X026494Y014679D01*
X026535Y014650D01*
X026574Y014618D01*
X026610Y014583D01*
X026642Y014545D01*
X026672Y014505D01*
X026699Y014462D01*
X026722Y014418D01*
X026741Y014372D01*
X026757Y014324D01*
X026769Y014275D01*
X026777Y014226D01*
X026781Y014176D01*
X026781Y014126D01*
X026777Y014076D01*
X026769Y014027D01*
X026757Y013978D01*
X026741Y013930D01*
X026722Y013884D01*
X026699Y013840D01*
X026672Y013797D01*
X026642Y013757D01*
X026610Y013719D01*
X026574Y013684D01*
X026535Y013652D01*
X026494Y013623D01*
X026451Y013597D01*
X026406Y013575D01*
X026360Y013557D01*
X026312Y013542D01*
X026263Y013531D01*
X026214Y013524D01*
X026164Y013521D01*
X026113Y013522D01*
X026064Y013527D01*
X026014Y013536D01*
X025966Y013549D01*
X025919Y013565D01*
X025873Y013586D01*
X025829Y013610D01*
X025787Y013637D01*
X025747Y013667D01*
X025710Y013701D01*
X025676Y013738D01*
X025644Y013777D01*
X025616Y013818D01*
X025591Y013862D01*
X025570Y013907D01*
X025553Y013954D01*
X025539Y014002D01*
X025529Y014051D01*
X025523Y014101D01*
X025521Y014151D01*
X025521Y003151D02*
X025523Y003201D01*
X025529Y003251D01*
X025539Y003300D01*
X025553Y003348D01*
X025570Y003395D01*
X025591Y003440D01*
X025616Y003484D01*
X025644Y003525D01*
X025676Y003564D01*
X025710Y003601D01*
X025747Y003635D01*
X025787Y003665D01*
X025829Y003692D01*
X025873Y003716D01*
X025919Y003737D01*
X025966Y003753D01*
X026014Y003766D01*
X026064Y003775D01*
X026113Y003780D01*
X026164Y003781D01*
X026214Y003778D01*
X026263Y003771D01*
X026312Y003760D01*
X026360Y003745D01*
X026406Y003727D01*
X026451Y003705D01*
X026494Y003679D01*
X026535Y003650D01*
X026574Y003618D01*
X026610Y003583D01*
X026642Y003545D01*
X026672Y003505D01*
X026699Y003462D01*
X026722Y003418D01*
X026741Y003372D01*
X026757Y003324D01*
X026769Y003275D01*
X026777Y003226D01*
X026781Y003176D01*
X026781Y003126D01*
X026777Y003076D01*
X026769Y003027D01*
X026757Y002978D01*
X026741Y002930D01*
X026722Y002884D01*
X026699Y002840D01*
X026672Y002797D01*
X026642Y002757D01*
X026610Y002719D01*
X026574Y002684D01*
X026535Y002652D01*
X026494Y002623D01*
X026451Y002597D01*
X026406Y002575D01*
X026360Y002557D01*
X026312Y002542D01*
X026263Y002531D01*
X026214Y002524D01*
X026164Y002521D01*
X026113Y002522D01*
X026064Y002527D01*
X026014Y002536D01*
X025966Y002549D01*
X025919Y002565D01*
X025873Y002586D01*
X025829Y002610D01*
X025787Y002637D01*
X025747Y002667D01*
X025710Y002701D01*
X025676Y002738D01*
X025644Y002777D01*
X025616Y002818D01*
X025591Y002862D01*
X025570Y002907D01*
X025553Y002954D01*
X025539Y003002D01*
X025529Y003051D01*
X025523Y003101D01*
X025521Y003151D01*
M02*
