%
M48
M72
T01C0.0236
T02C0.0320
T03C0.0400
T04C0.0500
T05C0.1260
%
T01
X6651Y6651
X6651Y7651
X6651Y8651
X7651Y10651
X8151Y11651
X8651Y14651
X19651Y5401
T02
X19651Y7151
X19651Y8151
X19651Y9151
X19651Y10151
X19651Y11151
X19651Y12151
X19651Y13151
X19651Y14151
X19651Y15151
X19651Y16151
X16651Y16151
X16651Y15151
X16651Y14151
X16651Y13151
X16651Y12151
X16651Y11151
X16651Y10151
X16651Y9151
X16651Y8151
X16651Y7151
X15651Y5401
X14401Y3401
X13401Y3401
X15651Y2401
X17151Y3401
X18151Y3401
X12901Y7151
X12901Y8151
X12901Y9151
X12901Y10151
X12901Y11151
X12901Y12151
X12901Y13151
X12901Y14151
X12901Y15151
X12901Y16151
X9901Y16151
X9901Y15151
X9901Y14151
X9901Y13151
X9901Y12151
X9901Y11151
X9901Y10151
X9901Y9151
X9901Y8151
X9901Y7151
T03
X3651Y1151
X4651Y1151
X5651Y1151
X6651Y1151
X7651Y1151
X8651Y1151
X9651Y1151
X10651Y1151
X10651Y2651
X9651Y2651
X8651Y2651
X7651Y2651
X6651Y2651
X5651Y2651
X4651Y2651
X3651Y2651
X3651Y3651
X4651Y3651
X5651Y3651
X6651Y3651
X7651Y3651
X8651Y3651
X9651Y3651
X10651Y3651
X13151Y1151
X14151Y1151
X15151Y1151
X16151Y1151
X17151Y1151
X18151Y1151
X20151Y1151
X21151Y1151
X22151Y1151
X23151Y1151
X24151Y1151
X25151Y1151
X21651Y6651
X21651Y7651
X21651Y8651
X21651Y9651
X21651Y10651
X21651Y11651
X21651Y12651
X21651Y13651
X21151Y20151
X20151Y20151
X19151Y20151
X18151Y20151
X16551Y20151
X15551Y20151
X14551Y20151
X13551Y20151
X12551Y20151
X11551Y20151
X10551Y20151
X9551Y20151
X5651Y13651
X5651Y12651
X5651Y11651
X5651Y10651
X5651Y9651
X5651Y8651
X5651Y7651
X5651Y6651
X22151Y20151
X23151Y20151
X24151Y20151
X25151Y20151
T04
X25401Y17340
X25401Y15962
X25401Y12340
X25401Y10962
X25401Y9590
X25401Y8212
X25401Y6840
X25401Y5462
X1401Y5712
X1401Y7090
X1401Y8462
X1401Y9840
X1401Y11212
X1401Y12590
X1401Y13962
X1401Y15340
T05
X6151Y20151
X26151Y14151
X26151Y3151
M30
