G75*
%MOIN*%
%OFA0B0*%
%FSLAX24Y24*%
%IPPOS*%
%LPD*%
%AMOC8*
5,1,8,0,0,1.08239X$1,22.5*
%
%ADD10C,0.0000*%
%ADD11C,0.0100*%
%ADD12C,0.0040*%
%ADD13C,0.0080*%
D10*
X002392Y002517D02*
X002392Y011017D01*
X008892Y011017D01*
X008892Y002517D01*
X002392Y002517D01*
D11*
X002704Y002829D02*
X004053Y002829D01*
X004053Y002830D02*
X004070Y002832D01*
X004087Y002837D01*
X004102Y002845D01*
X004115Y002856D01*
X004126Y002869D01*
X004134Y002884D01*
X004139Y002901D01*
X004141Y002918D01*
X004142Y002918D02*
X004142Y007910D01*
X004144Y007939D01*
X004150Y007968D01*
X004159Y007996D01*
X004172Y008023D01*
X004188Y008047D01*
X004208Y008069D01*
X004230Y008089D01*
X004255Y008105D01*
X004281Y008118D01*
X004309Y008127D01*
X004338Y008133D01*
X004367Y008135D01*
X004396Y008133D01*
X004425Y008127D01*
X004453Y008118D01*
X004480Y008105D01*
X004504Y008089D01*
X004526Y008069D01*
X005421Y007175D01*
X005445Y007153D01*
X005472Y007133D01*
X005500Y007117D01*
X005530Y007104D01*
X005561Y007094D01*
X005593Y007087D01*
X005626Y007083D01*
X005658Y007083D01*
X005691Y007087D01*
X005723Y007094D01*
X005754Y007104D01*
X005784Y007117D01*
X005812Y007133D01*
X005839Y007153D01*
X005863Y007175D01*
X006757Y008069D01*
X006779Y008089D01*
X006803Y008105D01*
X006830Y008118D01*
X006858Y008127D01*
X006887Y008133D01*
X006916Y008135D01*
X006945Y008133D01*
X006974Y008127D01*
X007002Y008118D01*
X007028Y008105D01*
X007053Y008089D01*
X007075Y008069D01*
X007095Y008047D01*
X007111Y008023D01*
X007124Y007996D01*
X007133Y007968D01*
X007139Y007939D01*
X007141Y007910D01*
X007142Y007910D02*
X007142Y002892D01*
X007141Y002892D02*
X007143Y002878D01*
X007147Y002865D01*
X007155Y002853D01*
X007165Y002843D01*
X007177Y002835D01*
X007190Y002831D01*
X007204Y002829D01*
X008553Y002829D01*
X008553Y002830D02*
X008570Y002832D01*
X008587Y002837D01*
X008602Y002845D01*
X008615Y002856D01*
X008626Y002869D01*
X008634Y002884D01*
X008639Y002901D01*
X008641Y002918D01*
X008642Y002918D02*
X008642Y010439D01*
X008640Y010461D01*
X008635Y010482D01*
X008627Y010503D01*
X008615Y010521D01*
X008601Y010538D01*
X008584Y010552D01*
X008566Y010564D01*
X008545Y010572D01*
X008524Y010577D01*
X008502Y010579D01*
X007105Y010579D01*
X006847Y010472D02*
X005921Y009546D01*
X005921Y009547D02*
X005893Y009521D01*
X005861Y009498D01*
X005828Y009478D01*
X005793Y009461D01*
X005757Y009448D01*
X005719Y009439D01*
X005681Y009433D01*
X005642Y009431D01*
X005603Y009433D01*
X005565Y009439D01*
X005527Y009448D01*
X005491Y009461D01*
X005456Y009478D01*
X005423Y009498D01*
X005391Y009521D01*
X005363Y009547D01*
X005362Y009546D02*
X004436Y010472D01*
X004178Y010579D02*
X002704Y010579D01*
X002704Y010580D02*
X002690Y010578D01*
X002677Y010574D01*
X002665Y010566D01*
X002655Y010556D01*
X002647Y010544D01*
X002643Y010531D01*
X002641Y010517D01*
X002642Y010517D02*
X002642Y002892D01*
X002641Y002892D02*
X002643Y002878D01*
X002647Y002865D01*
X002655Y002853D01*
X002665Y002843D01*
X002677Y002835D01*
X002690Y002831D01*
X002704Y002829D01*
X007017Y008142D02*
X007017Y008160D01*
X006848Y010472D02*
X006874Y010496D01*
X006903Y010518D01*
X006933Y010536D01*
X006966Y010551D01*
X006999Y010563D01*
X007034Y010572D01*
X007069Y010577D01*
X007105Y010579D01*
X004435Y010472D02*
X004409Y010496D01*
X004380Y010518D01*
X004350Y010536D01*
X004317Y010551D01*
X004284Y010563D01*
X004249Y010572D01*
X004214Y010577D01*
X004178Y010579D01*
D12*
X004142Y010454D02*
X004017Y010579D01*
X002642Y010579D01*
X002642Y009829D01*
X004142Y009829D01*
X004142Y010454D01*
X004142Y010204D02*
X004017Y010079D01*
X004017Y008704D01*
X004767Y008704D01*
X004767Y010204D01*
X004142Y010204D01*
X004017Y009579D02*
X004142Y009454D01*
X004142Y008829D01*
X002642Y008829D01*
X002642Y009579D01*
X004017Y009579D01*
X004642Y009329D02*
X004767Y009454D01*
X005392Y009454D01*
X005392Y007954D01*
X004642Y007954D01*
X004642Y009329D01*
X005267Y008579D02*
X005392Y008704D01*
X006017Y008704D01*
X006017Y007204D01*
X005267Y007204D01*
X005267Y008579D01*
X005892Y007954D02*
X005892Y009329D01*
X006017Y009454D01*
X006642Y009454D01*
X006642Y007954D01*
X005892Y007954D01*
X006517Y008767D02*
X006517Y010142D01*
X006642Y010267D01*
X007267Y010267D01*
X007267Y008767D01*
X006517Y008767D01*
X007142Y008829D02*
X007142Y009579D01*
X008517Y009579D01*
X008642Y009454D01*
X008642Y008829D01*
X007142Y008829D01*
X007142Y008579D02*
X008517Y008579D01*
X008642Y008454D01*
X008642Y007829D01*
X007142Y007829D01*
X007142Y008579D01*
X007142Y007579D02*
X008517Y007579D01*
X008642Y007454D01*
X008642Y006829D01*
X007142Y006829D01*
X007142Y007579D01*
X007142Y006579D02*
X008517Y006579D01*
X008642Y006454D01*
X008642Y005829D01*
X007142Y005829D01*
X007142Y006579D01*
X007142Y005579D02*
X008517Y005579D01*
X008642Y005454D01*
X008642Y004829D01*
X007142Y004829D01*
X007142Y005579D01*
X007142Y004579D02*
X008517Y004579D01*
X008642Y004454D01*
X008642Y003829D01*
X007142Y003829D01*
X007142Y004579D01*
X007142Y003579D02*
X008517Y003579D01*
X008642Y003454D01*
X008642Y002829D01*
X007142Y002829D01*
X007142Y003579D01*
X004142Y003454D02*
X004142Y002829D01*
X002642Y002829D01*
X002642Y003579D01*
X004017Y003579D01*
X004142Y003454D01*
X004142Y003829D02*
X002642Y003829D01*
X002642Y004579D01*
X004017Y004579D01*
X004142Y004454D01*
X004142Y003829D01*
X004142Y004829D02*
X002642Y004829D01*
X002642Y005579D01*
X004017Y005579D01*
X004142Y005454D01*
X004142Y004829D01*
X004142Y005829D02*
X002642Y005829D01*
X002642Y006579D01*
X004017Y006579D01*
X004142Y006454D01*
X004142Y005829D01*
X004142Y006829D02*
X002642Y006829D01*
X002642Y007579D01*
X004017Y007579D01*
X004142Y007454D01*
X004142Y006829D01*
X004142Y007829D02*
X002642Y007829D01*
X002642Y008579D01*
X004017Y008579D01*
X004142Y008454D01*
X004142Y007829D01*
X007142Y009829D02*
X007142Y010579D01*
X008517Y010579D01*
X008642Y010454D01*
X008642Y009829D01*
X007142Y009829D01*
D13*
X006598Y010217D02*
X006598Y010316D01*
X006399Y010514D01*
X006300Y010514D01*
X006201Y010415D01*
X006201Y010316D01*
X006399Y010118D01*
X006498Y010118D01*
X006598Y010217D01*
X006626Y010542D02*
X006824Y010740D01*
X006923Y010542D02*
X006626Y010839D01*
X006626Y010542D01*
X006222Y010040D02*
X006024Y010238D01*
X005826Y010040D02*
X006024Y009842D01*
X006222Y009842D01*
X006222Y010040D01*
X005457Y010068D02*
X005408Y010018D01*
X005309Y010018D01*
X005309Y009919D01*
X005259Y009870D01*
X005160Y009870D01*
X005061Y009969D01*
X005061Y010068D01*
X004934Y010195D02*
X005132Y010393D01*
X005132Y010493D01*
X005033Y010592D01*
X004934Y010592D01*
X004736Y010393D01*
X004736Y010294D01*
X004835Y010195D01*
X004934Y010195D01*
X005259Y010266D02*
X005358Y010266D01*
X005457Y010167D01*
X005457Y010068D01*
X005309Y010018D02*
X005259Y010068D01*
X004658Y010570D02*
X004856Y010769D01*
X004658Y010570D02*
X004460Y010570D01*
X004460Y010769D01*
X004658Y010967D01*
X006619Y008695D02*
X006619Y008415D01*
X006829Y008415D01*
X006759Y008555D01*
X006759Y008625D01*
X006829Y008695D01*
X006969Y008695D01*
X007039Y008625D01*
X007039Y008485D01*
X006969Y008415D01*
X006969Y008235D02*
X006689Y008235D01*
X006619Y008165D01*
X006619Y008025D01*
X006689Y007955D01*
X006969Y007955D01*
X007039Y008025D01*
X007039Y008165D01*
X006969Y008235D01*
X006899Y007774D02*
X006619Y007774D01*
X006619Y007494D02*
X006899Y007494D01*
X007039Y007634D01*
X006899Y007774D01*
X006899Y006945D02*
X006829Y006875D01*
X006829Y006665D01*
X006969Y006665D01*
X007039Y006735D01*
X007039Y006875D01*
X006969Y006945D01*
X006899Y006945D01*
X006689Y006805D02*
X006829Y006665D01*
X006689Y006805D02*
X006619Y006945D01*
X006689Y006485D02*
X006619Y006415D01*
X006619Y006275D01*
X006689Y006205D01*
X006969Y006205D01*
X007039Y006275D01*
X007039Y006415D01*
X006969Y006485D01*
X006689Y006485D01*
X006619Y006024D02*
X006899Y006024D01*
X007039Y005884D01*
X006899Y005744D01*
X006619Y005744D01*
X006619Y004070D02*
X006689Y004070D01*
X006969Y003790D01*
X007039Y003790D01*
X006969Y003610D02*
X006689Y003610D01*
X006619Y003540D01*
X006619Y003400D01*
X006689Y003330D01*
X006969Y003330D01*
X007039Y003400D01*
X007039Y003540D01*
X006969Y003610D01*
X006619Y003790D02*
X006619Y004070D01*
X006619Y003149D02*
X006899Y003149D01*
X007039Y003009D01*
X006899Y002869D01*
X006619Y002869D01*
X004664Y002907D02*
X004524Y003047D01*
X004244Y003047D01*
X004244Y003227D02*
X004244Y003367D01*
X004244Y003297D02*
X004664Y003297D01*
X004664Y003227D02*
X004664Y003367D01*
X004664Y003534D02*
X004244Y003534D01*
X004664Y003814D01*
X004244Y003814D01*
X004244Y004613D02*
X004524Y004613D01*
X004664Y004753D01*
X004524Y004893D01*
X004244Y004893D01*
X004314Y005073D02*
X004594Y005073D01*
X004664Y005143D01*
X004664Y005284D01*
X004594Y005354D01*
X004314Y005354D01*
X004244Y005284D01*
X004244Y005143D01*
X004314Y005073D01*
X004384Y005534D02*
X004244Y005674D01*
X004664Y005674D01*
X004664Y005534D02*
X004664Y005814D01*
X004537Y007338D02*
X004256Y007338D01*
X004256Y007618D02*
X004537Y007618D01*
X004677Y007478D01*
X004537Y007338D01*
X004607Y007798D02*
X004326Y007798D01*
X004256Y007868D01*
X004256Y008009D01*
X004326Y008079D01*
X004607Y008079D01*
X004677Y008009D01*
X004677Y007868D01*
X004607Y007798D01*
X004677Y008259D02*
X004396Y008539D01*
X004326Y008539D01*
X004256Y008469D01*
X004256Y008329D01*
X004326Y008259D01*
X004677Y008259D02*
X004677Y008539D01*
X004664Y002907D02*
X004524Y002766D01*
X004244Y002766D01*
M02*
