%
M48
M72
T01C0.0320
T02C0.0433
T03C0.0520
T04C0.1260
%
T01
X1851Y3601
X1851Y4601
X1851Y5601
X1851Y6601
X1851Y7601
X1851Y8601
X1851Y9601
X1851Y10601
X1851Y12351
X1851Y13351
X1851Y14351
X1851Y15351
X1851Y16351
X1851Y17351
X1851Y18351
X1851Y19351
X1851Y20351
X2601Y22101
X3601Y22101
X4851Y20351
X4851Y19351
X4851Y18351
X4851Y17351
X4851Y16351
X4851Y15351
X4851Y14351
X4851Y13351
X4851Y12351
X4851Y10601
X4851Y9601
X4851Y8601
X4851Y7601
X4851Y6601
X4851Y5601
X4851Y4601
X4851Y3601
X6851Y3351
X6851Y4351
X8351Y3351
X9351Y3351
X12101Y4851
X13101Y4851
X14101Y4851
X16101Y4851
X17101Y4851
X18101Y4851
X18101Y7851
X17101Y7851
X16101Y7851
X17101Y9351
X18101Y9351
X17101Y11351
X17101Y12351
X17101Y13351
X17101Y14351
X17101Y15351
X17101Y16351
X17101Y17351
X17101Y18351
X17101Y19351
X17101Y20351
X14101Y20351
X14101Y19351
X14101Y18351
X14101Y17351
X14101Y16351
X14101Y15351
X14101Y14351
X14101Y13351
X14101Y12351
X14101Y11351
X14101Y9351
X13101Y9351
X13101Y7851
X14101Y7851
X12101Y7851
X9351Y8851
X8351Y8851
X6851Y8851
X6851Y9851
X8351Y11351
X8351Y12351
X8351Y13351
X8351Y14351
X8351Y15351
X8351Y16351
X8351Y17351
X8351Y18351
X8351Y19351
X8351Y20351
X11351Y20351
X11351Y19351
X11351Y18351
X11351Y17351
X11351Y16351
X11351Y15351
X11351Y14351
X11351Y13351
X11351Y12351
X11351Y11351
X6851Y7101
X6851Y6101
X8351Y6101
X9351Y6101
X20101Y11351
X20101Y12351
X20101Y13351
X20101Y14351
X20101Y15351
X20101Y16351
X20101Y17351
X20101Y18351
X20101Y19351
X20101Y20351
X23101Y20351
X23101Y19351
X23101Y18351
X23101Y17351
X23101Y16351
X23101Y15351
X23101Y14351
X23101Y13351
X23101Y12351
X23101Y11351
X23101Y10101
X24101Y10101
X25101Y10101
X25101Y9101
X24101Y9101
X23101Y9101
X22101Y9101
X22101Y10101
X22101Y7601
X22101Y6601
X22101Y5601
X22101Y4601
X25101Y4601
X25101Y5601
X25101Y6601
X25101Y7601
X26851Y7601
X26851Y6601
X26851Y5601
X26851Y4601
X28851Y3101
X28851Y2101
X30351Y2101
X31351Y2101
X29851Y4601
X29851Y5601
X29851Y6601
X29851Y7601
X29851Y9101
X29851Y10101
X28851Y10101
X28851Y9101
X27851Y9101
X26851Y9101
X26851Y10101
X27851Y10101
X28851Y11351
X28851Y12351
X28851Y13351
X28851Y14351
X28851Y15351
X28851Y16351
X28851Y17351
X28851Y18351
X28851Y19351
X28851Y20351
X30851Y20101
X30851Y21101
X31851Y21101
X31851Y20101
X31851Y19101
X31851Y18101
X31851Y17101
X31851Y16101
X30851Y16101
X30851Y17101
X30851Y18101
X30851Y19101
X30851Y15101
X31851Y15101
X31851Y14101
X30851Y14101
X25851Y14351
X25851Y15351
X25851Y16351
X25851Y17351
X25851Y18351
X25851Y19351
X25851Y20351
X25601Y24101
X26601Y24101
X27601Y24101
X28601Y24101
X29601Y24101
X30601Y24101
X31601Y24101
X31101Y25101
X31101Y26101
X31101Y27101
X31101Y28101
X30101Y28101
X29101Y28101
X29101Y27101
X29101Y26101
X29101Y25101
X27101Y25101
X27101Y26101
X27101Y27101
X27101Y28101
X26101Y28101
X25101Y28101
X25101Y27101
X25101Y26101
X25101Y25101
X24601Y24101
X23601Y24101
X22601Y24101
X21601Y24101
X20601Y24101
X19601Y24101
X18601Y24101
X17601Y24101
X16601Y24101
X15601Y24101
X14601Y24101
X13601Y24101
X12601Y24101
X11601Y24101
X10601Y24101
X9601Y24101
X8601Y24101
X7601Y24101
X6601Y24101
X5601Y24101
X4601Y24101
X5101Y25101
X5101Y26101
X5101Y27101
X5101Y28101
X6101Y28101
X7101Y28101
X8101Y28101
X9101Y28101
X10101Y28101
X11101Y28101
X12101Y28101
X13101Y28101
X14101Y28101
X15101Y28101
X16101Y28101
X17101Y28101
X18101Y28101
X19101Y28101
X20101Y28101
X21101Y28101
X22101Y28101
X23101Y28101
X24101Y28101
X23101Y27101
X23101Y26101
X23101Y25101
X21101Y25101
X21101Y26101
X21101Y27101
X19101Y27101
X19101Y26101
X19101Y25101
X17101Y25101
X17101Y26101
X17101Y27101
X15101Y27101
X15101Y26101
X15101Y25101
X13101Y25101
X13101Y26101
X13101Y27101
X11101Y27101
X11101Y26101
X11101Y25101
X9101Y25101
X9101Y26101
X9101Y27101
X7101Y27101
X7101Y26101
X7101Y25101
X4101Y28101
X25851Y13351
X25851Y12351
X25851Y11351
X28101Y28101
T02
X6351Y21351
T03
X6591Y30601
X4611Y30601
X8611Y30601
X10591Y30601
X12611Y30601
X14591Y30601
X16611Y30601
X18591Y30601
X20611Y30601
X22591Y30601
X24611Y30601
X26591Y30601
X28611Y30601
X30591Y30601
X34101Y20841
X34101Y18861
X34101Y16841
X34101Y14861
X34101Y12841
X34101Y10861
X34101Y8841
X34101Y6861
X27091Y1601
X25111Y1601
X22091Y1601
X20111Y1601
X18091Y1601
X16111Y1601
X14091Y1601
X12111Y1601
T04
X1601Y1601
X1601Y30601
X34101Y30601
X34101Y1601
M30
