%
M48
M72
T01C0.0276
T02C0.0320
T03C0.0354
T04C0.0400
T05C0.0500
T06C0.0520
T07C0.1260
%
T01
X3851Y20560
X3601Y21560
X13601Y26310
X14101Y26810
X23851Y14060
X24351Y13685
X24851Y13310
X28601Y11310
T02
X30101Y10810
X30101Y9810
X31101Y9810
X32101Y9810
X33101Y9810
X33101Y10810
X32101Y10810
X31101Y10810
X31351Y13060
X31351Y14060
X31351Y15060
X31351Y16060
X31351Y17060
X31351Y18060
X31351Y19060
X31351Y20060
X31351Y21060
X31351Y22060
X28851Y22060
X28851Y21060
X28851Y20060
X28851Y19060
X28851Y18060
X28851Y17060
X28851Y16060
X28851Y15060
X28851Y14060
X28851Y13060
X25851Y13060
X25851Y14060
X25851Y15060
X25851Y16060
X25851Y17060
X25851Y18060
X25851Y19060
X25851Y20060
X25851Y21060
X25851Y22060
X22851Y22060
X22851Y21060
X22851Y20060
X22851Y19060
X22851Y18060
X22851Y17060
X22851Y16060
X22851Y15060
X22851Y14060
X22851Y13060
X19851Y13060
X19851Y14060
X19851Y15060
X19851Y16060
X19851Y17060
X19851Y18060
X19851Y19060
X19851Y20060
X19851Y21060
X19851Y22060
X20351Y24810
X21351Y24810
X22351Y24810
X23351Y24810
X23351Y27810
X22351Y27810
X21351Y27810
X20351Y27810
X19351Y27810
X18351Y27810
X17351Y27810
X16351Y27810
X15351Y27810
X15351Y29310
X15351Y30310
X16601Y30310
X16601Y29310
X17851Y29310
X17851Y30310
X19101Y30310
X19101Y29310
X20351Y29310
X20351Y30310
X21601Y30310
X21601Y29310
X22851Y29310
X22851Y30310
X24101Y30310
X24101Y29310
X26601Y27810
X27601Y27810
X28601Y27810
X29601Y27810
X30601Y27810
X31601Y27810
X32601Y27810
X33601Y27810
X34601Y27810
X34351Y29560
X34351Y30560
X35601Y30560
X35601Y29560
X32851Y29560
X32851Y30560
X31601Y30560
X31601Y29560
X31601Y24810
X32601Y24810
X33601Y24810
X34601Y24810
X35601Y23810
X36601Y23810
X36601Y22560
X35601Y22560
X34351Y22060
X34351Y21060
X34351Y20060
X34351Y19060
X34351Y18060
X34351Y17060
X34351Y16060
X34351Y15060
X34351Y14060
X34351Y13060
X35601Y14310
X36601Y14310
X36601Y15560
X35601Y15560
X35601Y17060
X36601Y17060
X36601Y18310
X35601Y18310
X35601Y19810
X36601Y19810
X36601Y21060
X35601Y21060
X30601Y24810
X29601Y24810
X28601Y24810
X27601Y24810
X26601Y24810
X19351Y24810
X18351Y24810
X17351Y24810
X16351Y24810
X15351Y24810
X12851Y24810
X11851Y24810
X10851Y24810
X9851Y24810
X8851Y24810
X7851Y24810
X6851Y24810
X5851Y24810
X4851Y24810
X4851Y23060
X4851Y22060
X4851Y21060
X4851Y20060
X4851Y19060
X4851Y18060
X4851Y17060
X4851Y16060
X4851Y15060
X4851Y13060
X4851Y12060
X4851Y11060
X4851Y10060
X4851Y9060
X4851Y8060
X4851Y7060
X4851Y6060
X7851Y6060
X7851Y5060
X8851Y3810
X8851Y2810
X10851Y2810
X10851Y3810
X9851Y5060
X9851Y6060
X9851Y7560
X9851Y8560
X9851Y10060
X9851Y11060
X7851Y11060
X7851Y10060
X7851Y8560
X7851Y7560
X12101Y7060
X12101Y6060
X13851Y6060
X13851Y5060
X13851Y7060
X13851Y9060
X13851Y10060
X13851Y11060
X12101Y11060
X12101Y10060
X10851Y13060
X10851Y14060
X10851Y15060
X10851Y16060
X10851Y17060
X10851Y18060
X10851Y19060
X10851Y20060
X10851Y21060
X10851Y22060
X13851Y22060
X13851Y21060
X13851Y20060
X13851Y19060
X13851Y18060
X13851Y17060
X13851Y16060
X13851Y15060
X13851Y14060
X13851Y13060
X16851Y13060
X16851Y14060
X16851Y15060
X16851Y16060
X16851Y17060
X16851Y18060
X16851Y19060
X16851Y20060
X16851Y21060
X16851Y22060
X12851Y27810
X11851Y27810
X10851Y27810
X9851Y27810
X8851Y27810
X7851Y27810
X6851Y27810
X5851Y27810
X4851Y27810
X4601Y29310
X4601Y30310
X5851Y30310
X5851Y29310
X7101Y29310
X7101Y30310
X8351Y30310
X8351Y29310
X9601Y29310
X9601Y30310
X10851Y30310
X10851Y29310
X12101Y29310
X12101Y30310
X13351Y30310
X13351Y29310
X7851Y22060
X7851Y21060
X7851Y20060
X7851Y19060
X7851Y18060
X7851Y17060
X7851Y16060
X7851Y15060
X7851Y14060
X7851Y13060
X1851Y13060
X1851Y12060
X1851Y11060
X1851Y10060
X1851Y9060
X1851Y8060
X1851Y7060
X1851Y6060
X1851Y15060
X1851Y16060
X1851Y17060
X1851Y18060
X1851Y19060
X1851Y20060
X1851Y21060
X1851Y22060
X1851Y23060
X1851Y28310
X2851Y28310
X2851Y29310
X1851Y29310
X16851Y11060
X16851Y10060
X16851Y9060
X16851Y7060
X16851Y6060
X16851Y5060
X30101Y5310
X30101Y6310
X30101Y7310
X30101Y8310
X33101Y8310
X33101Y7310
X33101Y6310
X33101Y5310
X35851Y5310
X35851Y6310
X35851Y7310
X35851Y8310
X35851Y9810
X36851Y9810
X37851Y9810
X38851Y9810
X38851Y10810
X37851Y10810
X36851Y10810
X35851Y10810
X38851Y8310
X38851Y7310
X38851Y6310
X38851Y5310
T03
X27351Y4810
X27351Y6810
X27351Y8810
X24351Y8810
X24351Y6810
X24351Y4810
X21851Y4810
X21851Y6810
X21851Y8810
X18851Y8810
X18851Y6810
X18851Y4810
X18851Y11810
X21851Y11810
X24351Y11810
X27351Y11810
T04
X28601Y8060
X28601Y7060
X28601Y6060
X28601Y5060
X23101Y5060
X23101Y6060
X23101Y7060
X23101Y8060
T05
X23040Y2560
X21662Y2560
X20290Y2560
X18912Y2560
X17540Y2560
X16162Y2560
X14790Y2560
X13412Y2560
X24412Y2560
X25790Y2560
X27162Y2560
X28540Y2560
X29912Y2560
X31290Y2560
X32662Y2560
X34040Y2560
X38851Y14121
X38851Y15499
X38851Y16871
X38851Y18249
X38851Y19621
X38851Y20999
X38851Y22371
X38851Y23749
X38601Y27871
X38601Y29249
X35790Y32060
X34412Y32060
X33040Y32060
X31662Y32060
X30290Y32060
X28912Y32060
X27540Y32060
X26162Y32060
X24790Y32060
X23412Y32060
X22040Y32060
X20662Y32060
X19290Y32060
X17912Y32060
X16540Y32060
X15162Y32060
X13790Y32060
X12412Y32060
X11040Y32060
X9662Y32060
X8290Y32060
X6912Y32060
X5540Y32060
X4162Y32060
T06
X4611Y2810
X6591Y2810
T07
X1601Y2810
X1601Y31810
X38601Y31810
X38601Y2810
M30
