G75*
%MOIN*%
%OFA0B0*%
%FSLAX24Y24*%
%IPPOS*%
%LPD*%
%AMOC8*
5,1,8,0,0,1.08239X$1,22.5*
%
%ADD10C,0.0000*%
%ADD11C,0.0100*%
%ADD12C,0.0040*%
%ADD13C,0.0080*%
D10*
X002392Y002517D02*
X002392Y011017D01*
X008892Y011017D01*
X008892Y002517D01*
X002392Y002517D01*
D11*
X002642Y002642D02*
X006622Y002642D01*
X007295Y002920D02*
X008410Y004035D01*
X008642Y004594D02*
X008642Y008820D01*
X008237Y009796D02*
X007524Y010509D01*
X006601Y010892D02*
X002642Y010892D01*
X002642Y002642D01*
X004267Y004392D02*
X005563Y004392D01*
X006551Y004801D02*
X006651Y004901D01*
X007017Y005784D02*
X007017Y007626D01*
X006564Y008720D02*
X006379Y008904D01*
X007524Y010510D02*
X007474Y010557D01*
X007422Y010601D01*
X007368Y010643D01*
X007312Y010681D01*
X007253Y010717D01*
X007193Y010750D01*
X007132Y010779D01*
X007069Y010805D01*
X007004Y010828D01*
X006939Y010848D01*
X006872Y010863D01*
X006805Y010876D01*
X006737Y010885D01*
X006669Y010890D01*
X006601Y010892D01*
X005504Y009267D02*
X004267Y009267D01*
X004267Y004392D01*
X005563Y004391D02*
X005636Y004393D01*
X005709Y004399D01*
X005782Y004408D01*
X005854Y004422D01*
X005925Y004439D01*
X005995Y004459D01*
X006064Y004484D01*
X006132Y004512D01*
X006198Y004543D01*
X006262Y004578D01*
X006324Y004617D01*
X006385Y004658D01*
X006443Y004703D01*
X006498Y004750D01*
X006552Y004800D01*
X006651Y004900D02*
X006696Y004948D01*
X006738Y004997D01*
X006778Y005049D01*
X006815Y005103D01*
X006850Y005159D01*
X006881Y005217D01*
X006909Y005276D01*
X006934Y005336D01*
X006956Y005398D01*
X006974Y005460D01*
X006990Y005524D01*
X007002Y005588D01*
X007010Y005653D01*
X007015Y005719D01*
X007017Y005784D01*
X008642Y004594D02*
X008640Y004542D01*
X008635Y004491D01*
X008627Y004440D01*
X008615Y004389D01*
X008600Y004340D01*
X008582Y004291D01*
X008560Y004244D01*
X008536Y004198D01*
X008509Y004155D01*
X008479Y004112D01*
X008446Y004072D01*
X008410Y004035D01*
X007295Y002921D02*
X007253Y002881D01*
X007209Y002845D01*
X007163Y002811D01*
X007115Y002779D01*
X007064Y002751D01*
X007013Y002726D01*
X006960Y002704D01*
X006905Y002685D01*
X006850Y002670D01*
X006794Y002658D01*
X006737Y002649D01*
X006679Y002644D01*
X006622Y002642D01*
X007017Y007626D02*
X007015Y007702D01*
X007010Y007778D01*
X007000Y007853D01*
X006987Y007928D01*
X006971Y008002D01*
X006950Y008075D01*
X006927Y008147D01*
X006899Y008218D01*
X006869Y008287D01*
X006834Y008355D01*
X006797Y008421D01*
X006756Y008485D01*
X006713Y008547D01*
X006666Y008607D01*
X006617Y008664D01*
X006564Y008719D01*
X008238Y009797D02*
X008287Y009744D01*
X008334Y009689D01*
X008378Y009632D01*
X008419Y009572D01*
X008457Y009510D01*
X008491Y009447D01*
X008523Y009382D01*
X008550Y009315D01*
X008574Y009247D01*
X008595Y009177D01*
X008612Y009107D01*
X008625Y009036D01*
X008634Y008964D01*
X008640Y008892D01*
X008642Y008820D01*
X006379Y008904D02*
X006328Y008951D01*
X006275Y008996D01*
X006220Y009038D01*
X006162Y009076D01*
X006102Y009112D01*
X006041Y009143D01*
X005977Y009172D01*
X005913Y009197D01*
X005846Y009218D01*
X005779Y009235D01*
X005711Y009249D01*
X005642Y009258D01*
X005573Y009264D01*
X005504Y009266D01*
D12*
X005142Y009392D02*
X005142Y010767D01*
X005267Y010892D01*
X005892Y010892D01*
X005892Y009392D01*
X005142Y009392D01*
X004892Y009392D02*
X004142Y009392D01*
X004142Y010767D01*
X004267Y010892D01*
X004892Y010892D01*
X004892Y009392D01*
X004142Y009204D02*
X004017Y009329D01*
X002642Y009329D01*
X002642Y008579D01*
X004142Y008579D01*
X004142Y009204D01*
X004142Y009704D02*
X002642Y009704D01*
X002642Y010454D01*
X004017Y010454D01*
X004142Y010329D01*
X004142Y009704D01*
X004017Y008204D02*
X004142Y008079D01*
X004142Y007454D01*
X002642Y007454D01*
X002642Y008204D01*
X004017Y008204D01*
X004017Y007079D02*
X004142Y006954D01*
X004142Y006329D01*
X002642Y006329D01*
X002642Y007079D01*
X004017Y007079D01*
X003954Y005954D02*
X004079Y005829D01*
X004079Y005204D01*
X002579Y005204D01*
X002579Y005954D01*
X003954Y005954D01*
X003954Y004829D02*
X004079Y004704D01*
X004079Y004079D01*
X002579Y004079D01*
X002579Y004829D01*
X003954Y004829D01*
X004142Y004142D02*
X004892Y004142D01*
X004892Y002767D01*
X004767Y002642D01*
X004142Y002642D01*
X004142Y004142D01*
X004017Y003767D02*
X004142Y003642D01*
X004142Y003017D01*
X002642Y003017D01*
X002642Y003767D01*
X004017Y003767D01*
X005142Y004142D02*
X005142Y002642D01*
X005767Y002642D01*
X005892Y002767D01*
X005892Y004142D01*
X005142Y004142D01*
X005903Y003968D02*
X006582Y004285D01*
X007163Y003039D01*
X007103Y002873D01*
X006537Y002608D01*
X005903Y003968D01*
X006409Y004157D02*
X006939Y004687D01*
X007911Y003715D01*
X007911Y003538D01*
X007469Y003096D01*
X006409Y004157D01*
X006913Y004594D02*
X007230Y005273D01*
X008476Y004692D01*
X008536Y004526D01*
X008272Y003960D01*
X006913Y004594D01*
X007142Y005079D02*
X007142Y005829D01*
X008517Y005829D01*
X008642Y005704D01*
X008642Y005079D01*
X007142Y005079D01*
X007142Y005892D02*
X007142Y006642D01*
X008517Y006642D01*
X008642Y006517D01*
X008642Y005892D01*
X007142Y005892D01*
X007142Y006704D02*
X007142Y007454D01*
X008517Y007454D01*
X008642Y007329D01*
X008642Y006704D01*
X007142Y006704D01*
X007142Y007517D02*
X007142Y008267D01*
X008517Y008267D01*
X008642Y008142D01*
X008642Y007517D01*
X007142Y007517D01*
X007245Y008160D02*
X006928Y008840D01*
X008175Y009421D01*
X008341Y009360D01*
X008605Y008794D01*
X007245Y008160D01*
X007064Y008784D02*
X006534Y009314D01*
X007506Y010286D01*
X007683Y010286D01*
X008125Y009844D01*
X007064Y008784D01*
X006685Y009258D02*
X005960Y009452D01*
X006316Y010780D01*
X006469Y010868D01*
X007073Y010707D01*
X006685Y009258D01*
D13*
X006371Y009247D02*
X006371Y009177D01*
X006301Y009107D01*
X006371Y009037D01*
X006371Y008967D01*
X006301Y008897D01*
X006161Y008897D01*
X006091Y008967D01*
X006231Y009107D02*
X006301Y009107D01*
X006371Y009247D02*
X006301Y009317D01*
X006161Y009317D01*
X006091Y009247D01*
X005911Y009247D02*
X005911Y008967D01*
X005841Y008897D01*
X005701Y008897D01*
X005630Y008967D01*
X005630Y009247D01*
X005701Y009317D01*
X005841Y009317D01*
X005911Y009247D01*
X005450Y009317D02*
X005450Y009037D01*
X005310Y008897D01*
X005170Y009037D01*
X005170Y009317D01*
X004677Y009227D02*
X004677Y008946D01*
X004396Y009227D01*
X004326Y009227D01*
X004256Y009156D01*
X004256Y009016D01*
X004326Y008946D01*
X004326Y008766D02*
X004256Y008696D01*
X004256Y008556D01*
X004326Y008486D01*
X004607Y008486D01*
X004677Y008556D01*
X004677Y008696D01*
X004607Y008766D01*
X004326Y008766D01*
X004256Y008306D02*
X004537Y008306D01*
X004677Y008166D01*
X004537Y008025D01*
X004256Y008025D01*
X004727Y006258D02*
X004727Y005977D01*
X004727Y006118D02*
X004306Y006118D01*
X004446Y005977D01*
X004376Y005797D02*
X004306Y005727D01*
X004306Y005587D01*
X004376Y005517D01*
X004657Y005517D01*
X004727Y005587D01*
X004727Y005727D01*
X004657Y005797D01*
X004376Y005797D01*
X004306Y005337D02*
X004587Y005337D01*
X004727Y005197D01*
X004587Y005057D01*
X004306Y005057D01*
X004238Y004602D02*
X004238Y004322D01*
X004378Y004182D01*
X004518Y004322D01*
X004518Y004602D01*
X004698Y004532D02*
X004698Y004252D01*
X004768Y004182D01*
X004909Y004182D01*
X004979Y004252D01*
X004979Y004532D01*
X004909Y004602D01*
X004768Y004602D01*
X004698Y004532D01*
X005159Y004602D02*
X005439Y004602D01*
X005439Y004532D01*
X005159Y004252D01*
X005159Y004182D01*
X005826Y004352D02*
X006024Y004154D01*
X006222Y004154D01*
X006222Y004352D01*
X006024Y004550D01*
X006201Y004628D02*
X006399Y004430D01*
X006498Y004430D01*
X006598Y004529D01*
X006598Y004628D01*
X006399Y004826D01*
X006300Y004826D01*
X006201Y004727D01*
X006201Y004628D01*
X006626Y004855D02*
X006626Y005053D01*
X006675Y005201D01*
X006774Y005003D02*
X006626Y004855D01*
X006725Y004756D01*
X006824Y004756D01*
X006923Y004855D01*
X006923Y004954D01*
X006874Y005003D01*
X006774Y005003D01*
X006899Y005738D02*
X006619Y005738D01*
X006899Y005738D02*
X007039Y005878D01*
X006899Y006018D01*
X006619Y006018D01*
X006689Y006198D02*
X006969Y006198D01*
X007039Y006268D01*
X007039Y006409D01*
X006969Y006479D01*
X006689Y006479D01*
X006619Y006409D01*
X006619Y006268D01*
X006689Y006198D01*
X006619Y006659D02*
X006829Y006659D01*
X006759Y006799D01*
X006759Y006869D01*
X006829Y006939D01*
X006969Y006939D01*
X007039Y006869D01*
X007039Y006729D01*
X006969Y006659D01*
X006619Y006659D02*
X006619Y006939D01*
X008454Y009528D02*
X008752Y009825D01*
X008454Y009825D01*
X008653Y009627D01*
X008426Y010051D02*
X008426Y010150D01*
X008327Y010249D01*
X008228Y010249D01*
X008030Y010051D01*
X008030Y009952D01*
X008129Y009853D01*
X008228Y009853D01*
X008426Y010051D01*
X008150Y010426D02*
X007952Y010228D01*
X007754Y010228D01*
X007754Y010426D01*
X007952Y010624D01*
X003752Y003102D02*
X003752Y002682D01*
X003471Y003102D01*
X003471Y002682D01*
X003304Y002682D02*
X003164Y002682D01*
X003234Y002682D02*
X003234Y003102D01*
X003164Y003102D02*
X003304Y003102D01*
X002984Y003102D02*
X002984Y002822D01*
X002844Y002682D01*
X002704Y002822D01*
X002704Y003102D01*
M02*
