G75*
G70*
%OFA0B0*%
%FSLAX25Y25*%
%IPPOS*%
%LPD*%
%AMOC8*
5,1,8,0,0,1.08239X$1,22.5*
%
%ADD11C,0.01000*%
X0012500Y0012500D02*
G75*
%LPD*%
D11*
X0012500Y0012500D02*
X0012500Y0099380D01*
X0057500Y0099380D01*
X0078120Y0073130D02*
X0078120Y0056250D01*
X0054370Y0031880D02*
X0032500Y0031880D01*
X0032500Y0012500D01*
X0012500Y0012500D01*
X0054380Y0031880D02*
X0055440Y0032120D01*
X0056500Y0032410D01*
X0057540Y0032730D01*
X0058570Y0033090D01*
X0059590Y0033490D01*
X0060600Y0033920D01*
X0061590Y0034390D01*
X0062560Y0034890D01*
X0063510Y0035430D01*
X0064440Y0036000D01*
X0065350Y0036600D01*
X0066240Y0037240D01*
X0067110Y0037900D01*
X0067950Y0038600D01*
X0068770Y0039330D01*
X0069560Y0040080D01*
X0070320Y0040860D01*
X0071060Y0041670D01*
X0071760Y0042510D01*
X0072440Y0043370D01*
X0073080Y0044250D01*
X0073690Y0045160D01*
X0074270Y0046090D01*
X0074820Y0047030D01*
X0075330Y0048000D01*
X0075810Y0048980D01*
X0076250Y0049980D01*
X0076660Y0051000D01*
X0077020Y0052030D01*
X0077360Y0053070D01*
X0077650Y0054120D01*
X0077910Y0055180D01*
X0078130Y0056250D01*
X0078120Y0073120D02*
X0078020Y0074190D01*
X0077880Y0075250D01*
X0077700Y0076310D01*
X0077480Y0077360D01*
X0077230Y0078400D01*
X0076940Y0079440D01*
X0076610Y0080460D01*
X0076250Y0081470D01*
X0075850Y0082460D01*
X0075420Y0083440D01*
X0074950Y0084410D01*
X0074450Y0085350D01*
X0073910Y0086280D01*
X0073340Y0087190D01*
X0072740Y0088080D01*
X0072110Y0088950D01*
X0071450Y0089790D01*
X0070750Y0090610D01*
X0070030Y0091400D01*
X0069280Y0092170D01*
X0068510Y0092910D01*
X0067710Y0093620D01*
X0066880Y0094310D01*
X0066030Y0094960D01*
X0065160Y0095580D01*
X0064260Y0096170D01*
X0063350Y0096730D01*
X0062410Y0097260D01*
X0061460Y0097750D01*
X0060490Y0098210D01*
X0059510Y0098630D01*
X0058510Y0099020D01*
X0057490Y0099370D01*
X0033620Y0066880D02*
X0033640Y0067570D01*
X0033700Y0068260D01*
X0033800Y0068940D01*
X0033940Y0069620D01*
X0034110Y0070290D01*
X0034330Y0070950D01*
X0034580Y0071590D01*
X0034870Y0072220D01*
X0035200Y0072830D01*
X0035560Y0073420D01*
X0035950Y0073990D01*
X0036380Y0074530D01*
X0036830Y0075050D01*
X0037320Y0075550D01*
X0037830Y0076010D01*
X0038370Y0076440D01*
X0038940Y0076850D01*
X0039520Y0077210D01*
X0040130Y0077550D01*
X0040750Y0077850D01*
X0041390Y0078110D01*
X0042040Y0078330D01*
X0042710Y0078520D01*
X0043390Y0078670D01*
X0044070Y0078780D01*
X0044760Y0078850D01*
X0045450Y0078880D01*
X0046140Y0078870D01*
X0046830Y0078820D01*
X0047510Y0078730D01*
X0048190Y0078600D01*
X0048860Y0078430D01*
X0049530Y0078230D01*
X0050170Y0077980D01*
X0050800Y0077700D01*
X0051420Y0077390D01*
X0052010Y0077030D01*
X0052590Y0076650D01*
X0053140Y0076230D01*
X0053670Y0075780D01*
X0054170Y0075300D01*
X0054640Y0074800D01*
X0055080Y0074260D01*
X0055490Y0073710D01*
X0055870Y0073130D01*
X0056210Y0072530D01*
X0056520Y0071910D01*
X0056790Y0071270D01*
X0057020Y0070620D01*
X0057220Y0069960D01*
X0057380Y0069280D01*
X0057500Y0068600D01*
X0057580Y0067920D01*
X0057620Y0067230D01*
X0057620Y0066530D01*
X0057580Y0065840D01*
X0057500Y0065160D01*
X0057380Y0064480D01*
X0057220Y0063800D01*
X0057020Y0063140D01*
X0056790Y0062490D01*
X0056520Y0061850D01*
X0056210Y0061230D01*
X0055870Y0060630D01*
X0055490Y0060050D01*
X0055080Y0059500D01*
X0054640Y0058960D01*
X0054170Y0058460D01*
X0053670Y0057980D01*
X0053140Y0057530D01*
X0052590Y0057110D01*
X0052010Y0056730D01*
X0051420Y0056370D01*
X0050800Y0056060D01*
X0050170Y0055780D01*
X0049530Y0055530D01*
X0048860Y0055330D01*
X0048190Y0055160D01*
X0047510Y0055030D01*
X0046830Y0054940D01*
X0046140Y0054890D01*
X0045450Y0054880D01*
X0044760Y0054910D01*
X0044070Y0054980D01*
X0043390Y0055090D01*
X0042710Y0055240D01*
X0042040Y0055430D01*
X0041390Y0055650D01*
X0040750Y0055910D01*
X0040130Y0056210D01*
X0039520Y0056550D01*
X0038940Y0056910D01*
X0038370Y0057320D01*
X0037830Y0057750D01*
X0037320Y0058210D01*
X0036830Y0058710D01*
X0036380Y0059230D01*
X0035950Y0059770D01*
X0035560Y0060340D01*
X0035200Y0060930D01*
X0034870Y0061540D01*
X0034580Y0062170D01*
X0034330Y0062810D01*
X0034110Y0063470D01*
X0033940Y0064140D01*
X0033800Y0064820D01*
X0033700Y0065500D01*
X0033640Y0066190D01*
X0033620Y0066880D01*
X0085630Y0012500D02*
G75*
%LPD*%
D11*
X0085670Y0028200D02*
X0085670Y0077570D01*
X0085630Y0078440D01*
X0085640Y0079320D01*
X0085680Y0080190D01*
X0085760Y0081060D01*
X0085870Y0081930D01*
X0086030Y0082790D01*
X0086220Y0083640D01*
X0086450Y0084490D01*
X0086710Y0085320D01*
X0087010Y0086140D01*
X0087350Y0086950D01*
X0087720Y0087740D01*
X0088130Y0088510D01*
X0088570Y0089270D01*
X0089040Y0090000D01*
X0089540Y0090720D01*
X0090080Y0091410D01*
X0090640Y0092080D01*
X0091240Y0092720D01*
X0091860Y0093340D01*
X0092500Y0093930D01*
X0093170Y0094490D01*
X0093870Y0095020D01*
X0094590Y0095520D01*
X0095330Y0095980D01*
X0096080Y0096420D01*
X0096860Y0096820D01*
X0097650Y0097190D01*
X0098460Y0097520D01*
X0099290Y0097820D01*
X0100120Y0098080D01*
X0100970Y0098300D01*
X0101820Y0098490D01*
X0102680Y0098640D01*
X0103550Y0098750D01*
X0104420Y0098820D01*
X0131300Y0098820D01*
X0131290Y0098820D02*
X0132170Y0098830D01*
X0133040Y0098800D01*
X0133910Y0098730D01*
X0134780Y0098620D01*
X0135640Y0098480D01*
X0136490Y0098300D01*
X0137340Y0098080D01*
X0138170Y0097830D01*
X0139000Y0097540D01*
X0139810Y0097210D01*
X0140600Y0096850D01*
X0141380Y0096450D01*
X0142140Y0096020D01*
X0142880Y0095560D01*
X0143600Y0095070D01*
X0144300Y0094540D01*
X0144970Y0093990D01*
X0145620Y0093400D01*
X0146240Y0092790D01*
X0146840Y0092150D01*
X0147410Y0091490D01*
X0147940Y0090800D01*
X0148450Y0090090D01*
X0148930Y0089360D01*
X0149370Y0088610D01*
X0149780Y0087840D01*
X0150160Y0087050D01*
X0150500Y0086250D01*
X0150810Y0085430D01*
X0151080Y0084600D01*
X0151310Y0083760D01*
X0151510Y0082910D01*
X0151670Y0082050D01*
X0151790Y0081190D01*
X0151870Y0080320D01*
X0151920Y0079450D01*
X0151920Y0033200D01*
X0151930Y0033200D02*
X0151970Y0032330D01*
X0151960Y0031460D01*
X0151920Y0030590D01*
X0151840Y0029720D01*
X0151720Y0028860D01*
X0151560Y0028000D01*
X0151370Y0027150D01*
X0151130Y0026310D01*
X0150860Y0025480D01*
X0150550Y0024670D01*
X0150210Y0023870D01*
X0149830Y0023080D01*
X0149410Y0022320D01*
X0148960Y0021570D01*
X0148480Y0020840D01*
X0147970Y0020140D01*
X0147420Y0019460D01*
X0146850Y0018810D01*
X0146240Y0018180D01*
X0145610Y0017580D01*
X0144950Y0017010D01*
X0144270Y0016470D01*
X0143560Y0015950D01*
X0142830Y0015480D01*
X0142090Y0015030D01*
X0141320Y0014620D01*
X0140530Y0014250D01*
X0139730Y0013910D01*
X0138910Y0013600D01*
X0138080Y0013330D01*
X0137240Y0013100D01*
X0136390Y0012910D01*
X0135530Y0012760D01*
X0134670Y0012650D01*
X0133800Y0012570D01*
X0134420Y0012570D02*
X0104420Y0012570D01*
X0103600Y0012520D01*
X0102780Y0012500D01*
X0101960Y0012520D01*
X0101140Y0012590D01*
X0100330Y0012690D01*
X0099520Y0012830D01*
X0098710Y0013010D01*
X0097920Y0013220D01*
X0097140Y0013480D01*
X0096370Y0013770D01*
X0095620Y0014090D01*
X0094880Y0014450D01*
X0094160Y0014850D01*
X0093460Y0015280D01*
X0092780Y0015750D01*
X0092130Y0016240D01*
X0091500Y0016770D01*
X0090890Y0017320D01*
X0090310Y0017910D01*
X0089760Y0018520D01*
X0089240Y0019150D01*
X0088760Y0019810D01*
X0088300Y0020490D01*
X0087870Y0021200D01*
X0087480Y0021920D01*
X0087130Y0022660D01*
X0086810Y0023420D01*
X0086520Y0024190D01*
X0086280Y0024970D01*
X0086070Y0025770D01*
X0085900Y0026570D01*
X0085760Y0027380D01*
X0085670Y0028200D01*
X0106300Y0045700D02*
X0106300Y0066950D01*
X0106410Y0067640D01*
X0106560Y0068310D01*
X0106750Y0068980D01*
X0106970Y0069640D01*
X0107230Y0070280D01*
X0107520Y0070910D01*
X0107850Y0071520D01*
X0108210Y0072110D01*
X0108610Y0072680D01*
X0109030Y0073230D01*
X0109480Y0073750D01*
X0109970Y0074250D01*
X0110480Y0074720D01*
X0111010Y0075160D01*
X0111570Y0075570D01*
X0112150Y0075950D01*
X0112750Y0076300D01*
X0113360Y0076610D01*
X0114000Y0076890D01*
X0114650Y0077140D01*
X0115310Y0077350D01*
X0115980Y0077520D01*
X0116660Y0077650D01*
X0117340Y0077750D01*
X0118040Y0077810D01*
X0118730Y0077830D01*
X0119420Y0077810D01*
X0120110Y0077760D01*
X0120800Y0077660D01*
X0121480Y0077530D01*
X0122150Y0077360D01*
X0122810Y0077160D01*
X0123460Y0076920D01*
X0124100Y0076640D01*
X0124720Y0076330D01*
X0125320Y0075980D01*
X0125900Y0075610D01*
X0126460Y0075200D01*
X0127000Y0074760D01*
X0127510Y0074290D01*
X0127990Y0073800D01*
X0128450Y0073270D01*
X0128880Y0072730D01*
X0129270Y0072160D01*
X0129640Y0071570D01*
X0129970Y0070960D01*
X0130270Y0070340D01*
X0130530Y0069700D01*
X0130760Y0069040D01*
X0130950Y0068370D01*
X0131100Y0067700D01*
X0131220Y0067010D01*
X0131290Y0066330D01*
X0131300Y0066320D02*
X0131300Y0045070D01*
X0131290Y0045070D02*
X0131180Y0044380D01*
X0131030Y0043710D01*
X0130840Y0043040D01*
X0130620Y0042380D01*
X0130360Y0041740D01*
X0130070Y0041110D01*
X0129740Y0040500D01*
X0129380Y0039910D01*
X0128980Y0039340D01*
X0128560Y0038790D01*
X0128110Y0038270D01*
X0127620Y0037770D01*
X0127110Y0037300D01*
X0126580Y0036860D01*
X0126020Y0036450D01*
X0125440Y0036070D01*
X0124840Y0035720D01*
X0124230Y0035410D01*
X0123590Y0035130D01*
X0122940Y0034880D01*
X0122280Y0034670D01*
X0121610Y0034500D01*
X0120930Y0034370D01*
X0120250Y0034270D01*
X0119550Y0034210D01*
X0118860Y0034190D01*
X0118170Y0034210D01*
X0117480Y0034260D01*
X0116790Y0034360D01*
X0116110Y0034490D01*
X0115440Y0034660D01*
X0114780Y0034860D01*
X0114130Y0035100D01*
X0113490Y0035380D01*
X0112870Y0035690D01*
X0112270Y0036040D01*
X0111690Y0036410D01*
X0111130Y0036820D01*
X0110590Y0037260D01*
X0110080Y0037730D01*
X0109600Y0038220D01*
X0109140Y0038750D01*
X0108710Y0039290D01*
X0108320Y0039860D01*
X0107950Y0040450D01*
X0107620Y0041060D01*
X0107320Y0041680D01*
X0107060Y0042320D01*
X0106830Y0042980D01*
X0106640Y0043650D01*
X0106490Y0044320D01*
X0106370Y0045010D01*
X0106300Y0045690D01*
X0159470Y0012500D02*
G75*
%LPD*%
D11*
X0159480Y0020510D02*
X0159480Y0092090D01*
X0159500Y0092540D01*
X0159550Y0092980D01*
X0159650Y0093420D01*
X0159770Y0093850D01*
X0159940Y0094260D01*
X0160130Y0094660D01*
X0160360Y0095050D01*
X0160620Y0095410D01*
X0160910Y0095750D01*
X0161230Y0096070D01*
X0161570Y0096360D01*
X0161930Y0096620D01*
X0162320Y0096850D01*
X0162720Y0097040D01*
X0163130Y0097210D01*
X0163560Y0097330D01*
X0164000Y0097430D01*
X0164440Y0097480D01*
X0164890Y0097500D01*
X0164890Y0097510D02*
X0174280Y0097510D01*
X0174740Y0097470D01*
X0175190Y0097380D01*
X0175630Y0097270D01*
X0176060Y0097110D01*
X0176470Y0096920D01*
X0176870Y0096700D01*
X0177250Y0096440D01*
X0177600Y0096160D01*
X0177930Y0095840D01*
X0178240Y0095500D01*
X0178510Y0095140D01*
X0178750Y0094750D01*
X0178970Y0094350D01*
X0179140Y0093930D01*
X0179280Y0093490D01*
X0179390Y0093050D01*
X0179460Y0092600D01*
X0179490Y0092140D01*
X0179480Y0091690D01*
X0179480Y0056880D01*
X0179470Y0056880D02*
X0179460Y0056520D01*
X0179480Y0056160D01*
X0179540Y0055810D01*
X0179640Y0055460D01*
X0179770Y0055130D01*
X0179930Y0054810D01*
X0180130Y0054510D01*
X0180360Y0054230D01*
X0180610Y0053970D01*
X0180890Y0053750D01*
X0181190Y0053550D01*
X0181500Y0053380D01*
X0181840Y0053250D01*
X0182180Y0053150D01*
X0182540Y0053090D01*
X0182900Y0053060D01*
X0183260Y0053070D01*
X0183610Y0053120D01*
X0183960Y0053200D01*
X0184300Y0053320D01*
X0184630Y0053480D01*
X0184930Y0053660D01*
X0185220Y0053880D01*
X0190650Y0060560D01*
X0190850Y0060740D01*
X0191080Y0060880D01*
X0191320Y0060990D01*
X0191580Y0061070D01*
X0191850Y0061110D01*
X0192110Y0061110D01*
X0192380Y0061070D01*
X0192640Y0060990D01*
X0192880Y0060880D01*
X0193110Y0060740D01*
X0193310Y0060560D01*
X0193300Y0060560D02*
X0198830Y0053780D01*
X0199060Y0053550D01*
X0199310Y0053350D01*
X0199590Y0053180D01*
X0199880Y0053050D01*
X0200190Y0052940D01*
X0200510Y0052880D01*
X0200830Y0052840D01*
X0201150Y0052850D01*
X0201480Y0052890D01*
X0201790Y0052960D01*
X0202100Y0053070D01*
X0202390Y0053220D01*
X0202660Y0053390D01*
X0202910Y0053600D01*
X0203140Y0053830D01*
X0203340Y0054080D01*
X0203510Y0054360D01*
X0203640Y0054650D01*
X0203750Y0054960D01*
X0203810Y0055280D01*
X0203850Y0055600D01*
X0203850Y0092220D01*
X0203860Y0092220D02*
X0203880Y0092660D01*
X0203930Y0093090D01*
X0204020Y0093520D01*
X0204150Y0093930D01*
X0204300Y0094340D01*
X0204500Y0094730D01*
X0204720Y0095110D01*
X0204970Y0095460D01*
X0205260Y0095800D01*
X0205560Y0096100D01*
X0205900Y0096390D01*
X0206250Y0096640D01*
X0206630Y0096860D01*
X0207020Y0097060D01*
X0207430Y0097210D01*
X0207840Y0097340D01*
X0208270Y0097430D01*
X0208700Y0097480D01*
X0209140Y0097500D01*
X0209140Y0097510D02*
X0218570Y0097510D01*
X0218570Y0097500D02*
X0219030Y0097460D01*
X0219490Y0097370D01*
X0219940Y0097250D01*
X0220370Y0097100D01*
X0220790Y0096900D01*
X0221200Y0096680D01*
X0221580Y0096420D01*
X0221940Y0096130D01*
X0222280Y0095810D01*
X0222590Y0095470D01*
X0222860Y0095100D01*
X0223110Y0094710D01*
X0223330Y0094300D01*
X0223510Y0093870D01*
X0223650Y0093430D01*
X0223760Y0092980D01*
X0223830Y0092520D01*
X0223860Y0092060D01*
X0223850Y0091600D01*
X0223850Y0020240D01*
X0217370Y0012510D02*
X0209000Y0012510D01*
X0202420Y0016440D02*
X0192780Y0027950D01*
X0192790Y0027960D02*
X0192690Y0028030D01*
X0192580Y0028090D01*
X0192460Y0028130D01*
X0192340Y0028140D01*
X0191090Y0027870D02*
X0181930Y0016840D01*
X0174390Y0012510D02*
X0166860Y0012510D01*
X0166310Y0012550D01*
X0165770Y0012630D01*
X0165230Y0012750D01*
X0164700Y0012910D01*
X0164190Y0013100D01*
X0163690Y0013330D01*
X0163210Y0013600D01*
X0162750Y0013900D01*
X0162310Y0014230D01*
X0161900Y0014590D01*
X0161510Y0014980D01*
X0161150Y0015400D01*
X0160820Y0015840D01*
X0160530Y0016300D01*
X0160270Y0016790D01*
X0160040Y0017290D01*
X0159850Y0017800D01*
X0159700Y0018330D01*
X0159590Y0018870D01*
X0159510Y0019410D01*
X0159470Y0019960D01*
X0159480Y0020510D01*
X0174390Y0012500D02*
X0175020Y0012600D01*
X0175640Y0012740D01*
X0176250Y0012910D01*
X0176860Y0013110D01*
X0177450Y0013350D01*
X0178030Y0013620D01*
X0178590Y0013920D01*
X0179130Y0014250D01*
X0179660Y0014610D01*
X0180160Y0015010D01*
X0180640Y0015430D01*
X0181100Y0015870D01*
X0181530Y0016340D01*
X0181930Y0016840D01*
X0191090Y0027870D02*
X0191280Y0027980D01*
X0191480Y0028070D01*
X0191690Y0028130D01*
X0191910Y0028160D01*
X0192130Y0028160D01*
X0192340Y0028130D01*
X0202420Y0016440D02*
X0202790Y0015960D01*
X0203200Y0015510D01*
X0203630Y0015090D01*
X0204080Y0014690D01*
X0204560Y0014320D01*
X0205060Y0013980D01*
X0205580Y0013670D01*
X0206110Y0013390D01*
X0206670Y0013140D01*
X0207230Y0012930D01*
X0207810Y0012750D01*
X0208400Y0012610D01*
X0208990Y0012510D01*
X0217370Y0012510D02*
X0217880Y0012570D01*
X0218380Y0012670D01*
X0218870Y0012800D01*
X0219350Y0012970D01*
X0219820Y0013170D01*
X0220270Y0013410D01*
X0220700Y0013680D01*
X0221120Y0013970D01*
X0221510Y0014300D01*
X0221870Y0014650D01*
X0222210Y0015030D01*
X0222530Y0015430D01*
X0222810Y0015850D01*
X0223060Y0016300D01*
X0223280Y0016750D01*
X0223470Y0017230D01*
X0223620Y0017710D01*
X0223740Y0018210D01*
X0223820Y0018710D01*
X0223870Y0019220D01*
X0223880Y0019730D01*
X0223850Y0020230D01*
X0231380Y0012500D02*
G75*
%LPD*%
D11*
X0238910Y0012510D02*
X0291030Y0012510D01*
X0291030Y0012500D02*
X0291350Y0012520D01*
X0291670Y0012570D01*
X0291980Y0012660D01*
X0292280Y0012790D01*
X0292560Y0012940D01*
X0292830Y0013130D01*
X0293070Y0013340D01*
X0293280Y0013580D01*
X0293470Y0013850D01*
X0293620Y0014130D01*
X0293750Y0014430D01*
X0293840Y0014740D01*
X0293890Y0015060D01*
X0293910Y0015380D01*
X0293910Y0027760D01*
X0293900Y0027750D02*
X0293850Y0028080D01*
X0293770Y0028410D01*
X0293650Y0028720D01*
X0293500Y0029020D01*
X0293320Y0029300D01*
X0293110Y0029560D01*
X0292880Y0029800D01*
X0292620Y0030020D01*
X0292340Y0030200D01*
X0292040Y0030350D01*
X0291730Y0030480D01*
X0291410Y0030570D01*
X0291080Y0030620D01*
X0290740Y0030640D01*
X0290410Y0030620D01*
X0290410Y0030630D02*
X0257030Y0030630D01*
X0256660Y0030620D01*
X0256280Y0030640D01*
X0255910Y0030700D01*
X0255550Y0030790D01*
X0255190Y0030920D01*
X0254850Y0031080D01*
X0254520Y0031260D01*
X0254220Y0031480D01*
X0253930Y0031730D01*
X0253670Y0032000D01*
X0253430Y0032290D01*
X0253230Y0032600D01*
X0253050Y0032930D01*
X0252900Y0033280D01*
X0252790Y0033640D01*
X0252710Y0034000D01*
X0252660Y0034380D01*
X0252660Y0045630D01*
X0252710Y0045950D01*
X0252800Y0046250D01*
X0252920Y0046540D01*
X0253070Y0046820D01*
X0253250Y0047080D01*
X0253470Y0047320D01*
X0253700Y0047530D01*
X0253960Y0047710D01*
X0254240Y0047870D01*
X0254530Y0047990D01*
X0254840Y0048080D01*
X0255150Y0048130D01*
X0255470Y0048150D01*
X0255780Y0048130D01*
X0270410Y0048130D01*
X0270410Y0048140D02*
X0270720Y0048120D01*
X0271030Y0048140D01*
X0271340Y0048190D01*
X0271630Y0048290D01*
X0271920Y0048410D01*
X0272180Y0048580D01*
X0272430Y0048770D01*
X0272650Y0048990D01*
X0272840Y0049230D01*
X0273000Y0049500D01*
X0273130Y0049780D01*
X0273220Y0050080D01*
X0273280Y0050390D01*
X0273280Y0050380D02*
X0273280Y0058370D01*
X0273270Y0058370D02*
X0273290Y0058700D01*
X0273270Y0059040D01*
X0273210Y0059370D01*
X0273130Y0059690D01*
X0273000Y0060010D01*
X0272850Y0060310D01*
X0272660Y0060590D01*
X0272450Y0060850D01*
X0272210Y0061080D01*
X0271950Y0061290D01*
X0271660Y0061470D01*
X0271360Y0061620D01*
X0271050Y0061740D01*
X0270720Y0061820D01*
X0270390Y0061870D01*
X0270400Y0061880D02*
X0255050Y0061880D01*
X0255050Y0061890D02*
X0254750Y0061940D01*
X0254450Y0062030D01*
X0254170Y0062140D01*
X0253910Y0062290D01*
X0253660Y0062470D01*
X0253430Y0062670D01*
X0253230Y0062900D01*
X0253050Y0063150D01*
X0252910Y0063420D01*
X0252790Y0063700D01*
X0252710Y0063990D01*
X0252660Y0064290D01*
X0252640Y0064600D01*
X0252660Y0064900D01*
X0252660Y0075380D01*
X0252680Y0075770D01*
X0252740Y0076160D01*
X0252830Y0076540D01*
X0252960Y0076910D01*
X0253130Y0077270D01*
X0253330Y0077600D01*
X0253570Y0077920D01*
X0253830Y0078210D01*
X0254120Y0078470D01*
X0254440Y0078710D01*
X0254770Y0078910D01*
X0255130Y0079080D01*
X0255500Y0079210D01*
X0255880Y0079300D01*
X0256270Y0079360D01*
X0256660Y0079380D01*
X0286640Y0079380D01*
X0287180Y0079460D01*
X0287710Y0079590D01*
X0288230Y0079750D01*
X0288740Y0079950D01*
X0289230Y0080180D01*
X0289700Y0080450D01*
X0290160Y0080750D01*
X0290590Y0081090D01*
X0290990Y0081450D01*
X0291370Y0081840D01*
X0291720Y0082260D01*
X0292040Y0082700D01*
X0292330Y0083170D01*
X0292590Y0083650D01*
X0292800Y0084150D01*
X0292990Y0084660D01*
X0293130Y0085190D01*
X0293240Y0085720D01*
X0293310Y0086260D01*
X0293340Y0086810D01*
X0293330Y0087350D01*
X0293280Y0087900D01*
X0293280Y0089500D01*
X0293310Y0090020D01*
X0293300Y0090550D01*
X0293250Y0091080D01*
X0293160Y0091600D01*
X0293040Y0092110D01*
X0292880Y0092620D01*
X0292680Y0093110D01*
X0292450Y0093590D01*
X0292190Y0094040D01*
X0291890Y0094480D01*
X0291560Y0094900D01*
X0291210Y0095290D01*
X0290830Y0095660D01*
X0290420Y0095990D01*
X0289990Y0096300D01*
X0289540Y0096580D01*
X0289070Y0096820D01*
X0288580Y0097030D01*
X0288080Y0097200D01*
X0287570Y0097340D01*
X0287050Y0097440D01*
X0286520Y0097500D01*
X0286520Y0097510D02*
X0237660Y0097510D01*
X0237660Y0097500D02*
X0237140Y0097440D01*
X0236640Y0097330D01*
X0236140Y0097190D01*
X0235660Y0097010D01*
X0235190Y0096800D01*
X0234740Y0096550D01*
X0234300Y0096270D01*
X0233890Y0095960D01*
X0233510Y0095610D01*
X0233150Y0095240D01*
X0232820Y0094850D01*
X0232520Y0094430D01*
X0232250Y0093980D01*
X0232020Y0093520D01*
X0231820Y0093050D01*
X0231660Y0092560D01*
X0231530Y0092060D01*
X0231440Y0091550D01*
X0231390Y0091040D01*
X0231380Y0090520D01*
X0231410Y0090010D01*
X0231410Y0020010D01*
X0231430Y0019470D01*
X0231490Y0018940D01*
X0231580Y0018420D01*
X0231710Y0017900D01*
X0231880Y0017390D01*
X0232090Y0016890D01*
X0232330Y0016420D01*
X0232600Y0015960D01*
X0232910Y0015520D01*
X0233240Y0015100D01*
X0233610Y0014710D01*
X0234000Y0014340D01*
X0234420Y0014010D01*
X0234860Y0013700D01*
X0235320Y0013430D01*
X0235790Y0013190D01*
X0236290Y0012980D01*
X0236800Y0012810D01*
X0237320Y0012680D01*
X0237840Y0012590D01*
X0238370Y0012530D01*
X0238910Y0012510D01*
X0301410Y0012500D02*
G75*
%LPD*%
D11*
X0304220Y0012500D02*
X0317470Y0012500D01*
X0317870Y0012550D01*
X0318250Y0012630D01*
X0318630Y0012750D01*
X0318990Y0012900D01*
X0319340Y0013090D01*
X0319670Y0013310D01*
X0319980Y0013550D01*
X0320270Y0013830D01*
X0320530Y0014130D01*
X0320750Y0014450D01*
X0320950Y0014790D01*
X0321120Y0015150D01*
X0321250Y0015520D01*
X0321350Y0015900D01*
X0321410Y0016290D01*
X0321440Y0016690D01*
X0321430Y0017080D01*
X0321430Y0028790D01*
X0321450Y0029250D01*
X0321510Y0029710D01*
X0321600Y0030160D01*
X0321730Y0030610D01*
X0321900Y0031040D01*
X0322100Y0031450D01*
X0322340Y0031850D01*
X0322610Y0032220D01*
X0322910Y0032580D01*
X0323230Y0032900D01*
X0323590Y0033200D01*
X0323960Y0033470D01*
X0324360Y0033710D01*
X0324770Y0033910D01*
X0325200Y0034080D01*
X0325650Y0034210D01*
X0326100Y0034300D01*
X0326560Y0034360D01*
X0327020Y0034380D01*
X0329910Y0034380D01*
X0334350Y0032180D02*
X0347380Y0015150D01*
X0351470Y0012500D02*
X0361640Y0012500D01*
X0362010Y0012520D01*
X0362380Y0012580D01*
X0362730Y0012670D01*
X0363080Y0012810D01*
X0363410Y0012970D01*
X0363720Y0013180D01*
X0364010Y0013410D01*
X0364270Y0013670D01*
X0364500Y0013960D01*
X0364710Y0014270D01*
X0364870Y0014600D01*
X0365010Y0014950D01*
X0365100Y0015300D01*
X0365160Y0015670D01*
X0365180Y0016040D01*
X0365180Y0022800D01*
X0361410Y0032520D02*
X0361360Y0032570D01*
X0361370Y0032570D02*
X0360940Y0033030D01*
X0360530Y0033510D01*
X0360160Y0034020D01*
X0359820Y0034550D01*
X0359510Y0035100D01*
X0359230Y0035670D01*
X0358990Y0036250D01*
X0358780Y0036840D01*
X0358610Y0037450D01*
X0358480Y0038070D01*
X0358390Y0038690D01*
X0358330Y0039320D01*
X0358310Y0039950D01*
X0362050Y0048750D02*
X0362050Y0048750D01*
X0365180Y0056300D02*
X0365180Y0076880D01*
X0362080Y0084350D02*
X0352730Y0093700D01*
X0342040Y0098130D02*
X0318810Y0098130D01*
X0318800Y0098130D02*
X0317990Y0098120D01*
X0317180Y0098080D01*
X0316370Y0098000D01*
X0315570Y0097880D01*
X0314770Y0097720D01*
X0313980Y0097520D01*
X0313200Y0097290D01*
X0312440Y0097020D01*
X0311680Y0096710D01*
X0310950Y0096370D01*
X0310230Y0096000D01*
X0309530Y0095590D01*
X0308840Y0095140D01*
X0308190Y0094670D01*
X0307550Y0094160D01*
X0306940Y0093630D01*
X0306350Y0093060D01*
X0305800Y0092470D01*
X0305270Y0091860D01*
X0304770Y0091210D01*
X0304300Y0090550D01*
X0303870Y0089860D01*
X0303460Y0089160D01*
X0303100Y0088430D01*
X0302760Y0087690D01*
X0302460Y0086940D01*
X0302200Y0086170D01*
X0301980Y0085390D01*
X0301790Y0084600D01*
X0301640Y0083800D01*
X0301530Y0082990D01*
X0301460Y0082180D01*
X0301420Y0081370D01*
X0301430Y0081370D02*
X0301430Y0015920D01*
X0301410Y0015600D01*
X0301430Y0015270D01*
X0301480Y0014950D01*
X0301570Y0014630D01*
X0301690Y0014330D01*
X0301840Y0014040D01*
X0302010Y0013760D01*
X0302220Y0013510D01*
X0302450Y0013280D01*
X0302710Y0013080D01*
X0302980Y0012900D01*
X0303270Y0012750D01*
X0303580Y0012640D01*
X0303900Y0012560D01*
X0304220Y0012510D01*
X0329910Y0034380D02*
X0330380Y0034360D01*
X0330840Y0034300D01*
X0331290Y0034210D01*
X0331740Y0034070D01*
X0332180Y0033900D01*
X0332590Y0033690D01*
X0332990Y0033450D01*
X0333370Y0033180D01*
X0333720Y0032880D01*
X0334050Y0032540D01*
X0334350Y0032190D01*
X0361410Y0032520D02*
X0361890Y0032000D01*
X0362340Y0031440D01*
X0362760Y0030870D01*
X0363150Y0030270D01*
X0363510Y0029650D01*
X0363830Y0029020D01*
X0364130Y0028370D01*
X0364380Y0027700D01*
X0364610Y0027020D01*
X0364790Y0026330D01*
X0364940Y0025640D01*
X0365060Y0024930D01*
X0365130Y0024220D01*
X0365170Y0023510D01*
X0365180Y0022800D01*
X0351480Y0012510D02*
X0351020Y0012580D01*
X0350580Y0012690D01*
X0350140Y0012830D01*
X0349720Y0013020D01*
X0349320Y0013230D01*
X0348930Y0013480D01*
X0348570Y0013760D01*
X0348230Y0014070D01*
X0347920Y0014410D01*
X0347640Y0014770D01*
X0347390Y0015150D01*
X0358300Y0039950D02*
X0358320Y0040600D01*
X0358380Y0041260D01*
X0358470Y0041900D01*
X0358600Y0042550D01*
X0358760Y0043180D01*
X0358950Y0043810D01*
X0359180Y0044420D01*
X0359430Y0045020D01*
X0359720Y0045610D01*
X0360040Y0046180D01*
X0360390Y0046740D01*
X0360760Y0047270D01*
X0361170Y0047790D01*
X0361600Y0048280D01*
X0362050Y0048750D01*
X0362060Y0048750D02*
X0362500Y0049220D01*
X0362910Y0049720D01*
X0363290Y0050240D01*
X0363640Y0050780D01*
X0363960Y0051340D01*
X0364240Y0051920D01*
X0364490Y0052520D01*
X0364700Y0053130D01*
X0364870Y0053750D01*
X0365010Y0054380D01*
X0365100Y0055010D01*
X0365160Y0055660D01*
X0365180Y0056300D01*
X0362060Y0048750D02*
X0362050Y0048740D01*
X0365170Y0076880D02*
X0365150Y0077520D01*
X0365090Y0078150D01*
X0365000Y0078780D01*
X0364860Y0079410D01*
X0364690Y0080020D01*
X0364480Y0080620D01*
X0364240Y0081210D01*
X0363960Y0081790D01*
X0363650Y0082340D01*
X0363300Y0082880D01*
X0362920Y0083390D01*
X0362510Y0083880D01*
X0362080Y0084350D01*
X0352730Y0093700D02*
X0352190Y0094210D01*
X0351630Y0094700D01*
X0351050Y0095150D01*
X0350440Y0095580D01*
X0349810Y0095980D01*
X0349170Y0096340D01*
X0348500Y0096680D01*
X0347830Y0096980D01*
X0347130Y0097250D01*
X0346430Y0097480D01*
X0345710Y0097680D01*
X0344990Y0097840D01*
X0344260Y0097970D01*
X0343520Y0098060D01*
X0342780Y0098110D01*
X0342040Y0098130D01*
X0321930Y0065630D02*
X0321950Y0066320D01*
X0322010Y0067010D01*
X0322110Y0067690D01*
X0322250Y0068370D01*
X0322420Y0069040D01*
X0322640Y0069700D01*
X0322890Y0070340D01*
X0323180Y0070970D01*
X0323510Y0071580D01*
X0323870Y0072170D01*
X0324260Y0072740D01*
X0324690Y0073280D01*
X0325140Y0073800D01*
X0325630Y0074300D01*
X0326140Y0074760D01*
X0326680Y0075190D01*
X0327250Y0075600D01*
X0327830Y0075960D01*
X0328440Y0076300D01*
X0329060Y0076600D01*
X0329700Y0076860D01*
X0330350Y0077080D01*
X0331020Y0077270D01*
X0331700Y0077420D01*
X0332380Y0077530D01*
X0333070Y0077600D01*
X0333760Y0077630D01*
X0334450Y0077620D01*
X0335140Y0077570D01*
X0335820Y0077480D01*
X0336500Y0077350D01*
X0337170Y0077180D01*
X0337840Y0076980D01*
X0338480Y0076730D01*
X0339110Y0076450D01*
X0339730Y0076140D01*
X0340320Y0075780D01*
X0340900Y0075400D01*
X0341450Y0074980D01*
X0341980Y0074530D01*
X0342480Y0074050D01*
X0342950Y0073550D01*
X0343390Y0073010D01*
X0343800Y0072460D01*
X0344180Y0071880D01*
X0344520Y0071280D01*
X0344830Y0070660D01*
X0345100Y0070020D01*
X0345330Y0069370D01*
X0345530Y0068710D01*
X0345690Y0068030D01*
X0345810Y0067350D01*
X0345890Y0066670D01*
X0345930Y0065980D01*
X0345930Y0065280D01*
X0345890Y0064590D01*
X0345810Y0063910D01*
X0345690Y0063230D01*
X0345530Y0062550D01*
X0345330Y0061890D01*
X0345100Y0061240D01*
X0344830Y0060600D01*
X0344520Y0059980D01*
X0344180Y0059380D01*
X0343800Y0058800D01*
X0343390Y0058250D01*
X0342950Y0057710D01*
X0342480Y0057210D01*
X0341980Y0056730D01*
X0341450Y0056280D01*
X0340900Y0055860D01*
X0340320Y0055480D01*
X0339730Y0055120D01*
X0339110Y0054810D01*
X0338480Y0054530D01*
X0337840Y0054280D01*
X0337170Y0054080D01*
X0336500Y0053910D01*
X0335820Y0053780D01*
X0335140Y0053690D01*
X0334450Y0053640D01*
X0333760Y0053630D01*
X0333070Y0053660D01*
X0332380Y0053730D01*
X0331700Y0053840D01*
X0331020Y0053990D01*
X0330350Y0054180D01*
X0329700Y0054400D01*
X0329060Y0054660D01*
X0328440Y0054960D01*
X0327830Y0055300D01*
X0327250Y0055660D01*
X0326680Y0056070D01*
X0326140Y0056500D01*
X0325630Y0056960D01*
X0325140Y0057460D01*
X0324690Y0057980D01*
X0324260Y0058520D01*
X0323870Y0059090D01*
X0323510Y0059680D01*
X0323180Y0060290D01*
X0322890Y0060920D01*
X0322640Y0061560D01*
X0322420Y0062220D01*
X0322250Y0062890D01*
X0322110Y0063570D01*
X0322010Y0064250D01*
X0321950Y0064940D01*
X0321930Y0065630D01*
X0012500Y0106880D02*
G75*
%LPD*%
D11*
X0035000Y0106880D02*
X0055000Y0106880D01*
X0055000Y0171880D01*
X0077500Y0171880D01*
X0077500Y0193130D01*
X0012500Y0193130D01*
X0012500Y0171880D01*
X0035000Y0171880D01*
X0035000Y0106880D01*
X0085000Y0106880D02*
G75*
%LPD*%
D11*
X0085040Y0122580D02*
X0085040Y0171950D01*
X0085000Y0172820D01*
X0085010Y0173700D01*
X0085050Y0174570D01*
X0085130Y0175440D01*
X0085240Y0176310D01*
X0085400Y0177170D01*
X0085590Y0178020D01*
X0085820Y0178870D01*
X0086080Y0179700D01*
X0086380Y0180520D01*
X0086720Y0181330D01*
X0087090Y0182120D01*
X0087500Y0182890D01*
X0087940Y0183650D01*
X0088410Y0184380D01*
X0088910Y0185100D01*
X0089450Y0185790D01*
X0090010Y0186460D01*
X0090610Y0187100D01*
X0091230Y0187720D01*
X0091870Y0188310D01*
X0092540Y0188870D01*
X0093240Y0189400D01*
X0093960Y0189900D01*
X0094700Y0190360D01*
X0095450Y0190800D01*
X0096230Y0191200D01*
X0097020Y0191570D01*
X0097830Y0191900D01*
X0098660Y0192200D01*
X0099490Y0192460D01*
X0100340Y0192680D01*
X0101190Y0192870D01*
X0102050Y0193020D01*
X0102920Y0193130D01*
X0103790Y0193200D01*
X0130670Y0193200D01*
X0130660Y0193200D02*
X0131540Y0193210D01*
X0132410Y0193180D01*
X0133280Y0193110D01*
X0134150Y0193000D01*
X0135010Y0192860D01*
X0135860Y0192680D01*
X0136710Y0192460D01*
X0137540Y0192210D01*
X0138370Y0191920D01*
X0139180Y0191590D01*
X0139970Y0191230D01*
X0140750Y0190830D01*
X0141510Y0190400D01*
X0142250Y0189940D01*
X0142970Y0189450D01*
X0143670Y0188920D01*
X0144340Y0188370D01*
X0144990Y0187780D01*
X0145610Y0187170D01*
X0146210Y0186530D01*
X0146780Y0185870D01*
X0147310Y0185180D01*
X0147820Y0184470D01*
X0148300Y0183740D01*
X0148740Y0182990D01*
X0149150Y0182220D01*
X0149530Y0181430D01*
X0149870Y0180630D01*
X0150180Y0179810D01*
X0150450Y0178980D01*
X0150680Y0178140D01*
X0150880Y0177290D01*
X0151040Y0176430D01*
X0151160Y0175570D01*
X0151240Y0174700D01*
X0151290Y0173830D01*
X0151290Y0127580D01*
X0151300Y0127580D02*
X0151340Y0126710D01*
X0151330Y0125840D01*
X0151290Y0124970D01*
X0151210Y0124100D01*
X0151090Y0123240D01*
X0150930Y0122380D01*
X0150740Y0121530D01*
X0150500Y0120690D01*
X0150230Y0119860D01*
X0149920Y0119050D01*
X0149580Y0118250D01*
X0149200Y0117460D01*
X0148780Y0116700D01*
X0148330Y0115950D01*
X0147850Y0115220D01*
X0147340Y0114520D01*
X0146790Y0113840D01*
X0146220Y0113190D01*
X0145610Y0112560D01*
X0144980Y0111960D01*
X0144320Y0111390D01*
X0143640Y0110850D01*
X0142930Y0110330D01*
X0142200Y0109860D01*
X0141460Y0109410D01*
X0140690Y0109000D01*
X0139900Y0108630D01*
X0139100Y0108290D01*
X0138280Y0107980D01*
X0137450Y0107710D01*
X0136610Y0107480D01*
X0135760Y0107290D01*
X0134900Y0107140D01*
X0134040Y0107030D01*
X0133170Y0106950D01*
X0133790Y0106950D02*
X0103790Y0106950D01*
X0102970Y0106900D01*
X0102150Y0106880D01*
X0101330Y0106900D01*
X0100510Y0106970D01*
X0099700Y0107070D01*
X0098890Y0107210D01*
X0098080Y0107390D01*
X0097290Y0107600D01*
X0096510Y0107860D01*
X0095740Y0108150D01*
X0094990Y0108470D01*
X0094250Y0108830D01*
X0093530Y0109230D01*
X0092830Y0109660D01*
X0092150Y0110130D01*
X0091500Y0110620D01*
X0090870Y0111150D01*
X0090260Y0111700D01*
X0089680Y0112290D01*
X0089130Y0112900D01*
X0088610Y0113530D01*
X0088130Y0114190D01*
X0087670Y0114870D01*
X0087240Y0115580D01*
X0086850Y0116300D01*
X0086500Y0117040D01*
X0086180Y0117800D01*
X0085890Y0118570D01*
X0085650Y0119350D01*
X0085440Y0120150D01*
X0085270Y0120950D01*
X0085130Y0121760D01*
X0085040Y0122580D01*
X0105670Y0140080D02*
X0105670Y0161330D01*
X0105780Y0162020D01*
X0105930Y0162690D01*
X0106120Y0163360D01*
X0106340Y0164020D01*
X0106600Y0164660D01*
X0106890Y0165290D01*
X0107220Y0165900D01*
X0107580Y0166490D01*
X0107980Y0167060D01*
X0108400Y0167610D01*
X0108850Y0168130D01*
X0109340Y0168630D01*
X0109850Y0169100D01*
X0110380Y0169540D01*
X0110940Y0169950D01*
X0111520Y0170330D01*
X0112120Y0170680D01*
X0112730Y0170990D01*
X0113370Y0171270D01*
X0114020Y0171520D01*
X0114680Y0171730D01*
X0115350Y0171900D01*
X0116030Y0172030D01*
X0116710Y0172130D01*
X0117410Y0172190D01*
X0118100Y0172210D01*
X0118790Y0172190D01*
X0119480Y0172140D01*
X0120170Y0172040D01*
X0120850Y0171910D01*
X0121520Y0171740D01*
X0122180Y0171540D01*
X0122830Y0171300D01*
X0123470Y0171020D01*
X0124090Y0170710D01*
X0124690Y0170360D01*
X0125270Y0169990D01*
X0125830Y0169580D01*
X0126370Y0169140D01*
X0126880Y0168670D01*
X0127360Y0168180D01*
X0127820Y0167650D01*
X0128250Y0167110D01*
X0128640Y0166540D01*
X0129010Y0165950D01*
X0129340Y0165340D01*
X0129640Y0164720D01*
X0129900Y0164080D01*
X0130130Y0163420D01*
X0130320Y0162750D01*
X0130470Y0162080D01*
X0130590Y0161390D01*
X0130660Y0160710D01*
X0130670Y0160700D02*
X0130670Y0139450D01*
X0130660Y0139450D02*
X0130550Y0138760D01*
X0130400Y0138090D01*
X0130210Y0137420D01*
X0129990Y0136760D01*
X0129730Y0136120D01*
X0129440Y0135490D01*
X0129110Y0134880D01*
X0128750Y0134290D01*
X0128350Y0133720D01*
X0127930Y0133170D01*
X0127480Y0132650D01*
X0126990Y0132150D01*
X0126480Y0131680D01*
X0125950Y0131240D01*
X0125390Y0130830D01*
X0124810Y0130450D01*
X0124210Y0130100D01*
X0123600Y0129790D01*
X0122960Y0129510D01*
X0122310Y0129260D01*
X0121650Y0129050D01*
X0120980Y0128880D01*
X0120300Y0128750D01*
X0119620Y0128650D01*
X0118920Y0128590D01*
X0118230Y0128570D01*
X0117540Y0128590D01*
X0116850Y0128640D01*
X0116160Y0128740D01*
X0115480Y0128870D01*
X0114810Y0129040D01*
X0114150Y0129240D01*
X0113500Y0129480D01*
X0112860Y0129760D01*
X0112240Y0130070D01*
X0111640Y0130420D01*
X0111060Y0130790D01*
X0110500Y0131200D01*
X0109960Y0131640D01*
X0109450Y0132110D01*
X0108970Y0132600D01*
X0108510Y0133130D01*
X0108080Y0133670D01*
X0107690Y0134240D01*
X0107320Y0134830D01*
X0106990Y0135440D01*
X0106690Y0136060D01*
X0106430Y0136700D01*
X0106200Y0137360D01*
X0106010Y0138030D01*
X0105860Y0138700D01*
X0105740Y0139390D01*
X0105670Y0140070D01*
X0158840Y0106880D02*
G75*
%LPD*%
D11*
X0158850Y0114890D02*
X0158850Y0186470D01*
X0158870Y0186920D01*
X0158920Y0187360D01*
X0159020Y0187800D01*
X0159140Y0188230D01*
X0159310Y0188640D01*
X0159500Y0189040D01*
X0159730Y0189430D01*
X0159990Y0189790D01*
X0160280Y0190130D01*
X0160600Y0190450D01*
X0160940Y0190740D01*
X0161300Y0191000D01*
X0161690Y0191230D01*
X0162090Y0191420D01*
X0162500Y0191590D01*
X0162930Y0191710D01*
X0163370Y0191810D01*
X0163810Y0191860D01*
X0164260Y0191880D01*
X0164260Y0191890D02*
X0173650Y0191890D01*
X0174110Y0191850D01*
X0174560Y0191760D01*
X0175000Y0191650D01*
X0175430Y0191490D01*
X0175840Y0191300D01*
X0176240Y0191080D01*
X0176620Y0190820D01*
X0176970Y0190540D01*
X0177300Y0190220D01*
X0177610Y0189880D01*
X0177880Y0189520D01*
X0178120Y0189130D01*
X0178340Y0188730D01*
X0178510Y0188310D01*
X0178650Y0187870D01*
X0178760Y0187430D01*
X0178830Y0186980D01*
X0178860Y0186520D01*
X0178850Y0186070D01*
X0178850Y0151260D01*
X0178840Y0151260D02*
X0178830Y0150900D01*
X0178850Y0150540D01*
X0178910Y0150190D01*
X0179010Y0149840D01*
X0179140Y0149510D01*
X0179300Y0149190D01*
X0179500Y0148890D01*
X0179730Y0148610D01*
X0179980Y0148350D01*
X0180260Y0148130D01*
X0180560Y0147930D01*
X0180870Y0147760D01*
X0181210Y0147630D01*
X0181550Y0147530D01*
X0181910Y0147470D01*
X0182270Y0147440D01*
X0182630Y0147450D01*
X0182980Y0147500D01*
X0183330Y0147580D01*
X0183670Y0147700D01*
X0184000Y0147860D01*
X0184300Y0148040D01*
X0184590Y0148260D01*
X0190020Y0154940D01*
X0190220Y0155120D01*
X0190450Y0155260D01*
X0190690Y0155370D01*
X0190950Y0155450D01*
X0191220Y0155490D01*
X0191480Y0155490D01*
X0191750Y0155450D01*
X0192010Y0155370D01*
X0192250Y0155260D01*
X0192480Y0155120D01*
X0192680Y0154940D01*
X0192670Y0154940D02*
X0198200Y0148160D01*
X0198430Y0147930D01*
X0198680Y0147730D01*
X0198960Y0147560D01*
X0199250Y0147430D01*
X0199560Y0147320D01*
X0199880Y0147260D01*
X0200200Y0147220D01*
X0200520Y0147230D01*
X0200850Y0147270D01*
X0201160Y0147340D01*
X0201470Y0147450D01*
X0201760Y0147600D01*
X0202030Y0147770D01*
X0202280Y0147980D01*
X0202510Y0148210D01*
X0202710Y0148460D01*
X0202880Y0148740D01*
X0203010Y0149030D01*
X0203120Y0149340D01*
X0203180Y0149660D01*
X0203220Y0149980D01*
X0203220Y0186600D01*
X0203230Y0186600D02*
X0203250Y0187040D01*
X0203300Y0187470D01*
X0203390Y0187900D01*
X0203520Y0188310D01*
X0203670Y0188720D01*
X0203870Y0189110D01*
X0204090Y0189490D01*
X0204340Y0189840D01*
X0204630Y0190180D01*
X0204930Y0190480D01*
X0205270Y0190770D01*
X0205620Y0191020D01*
X0206000Y0191240D01*
X0206390Y0191440D01*
X0206800Y0191590D01*
X0207210Y0191720D01*
X0207640Y0191810D01*
X0208070Y0191860D01*
X0208510Y0191880D01*
X0208510Y0191890D02*
X0217940Y0191890D01*
X0217940Y0191880D02*
X0218400Y0191840D01*
X0218860Y0191750D01*
X0219310Y0191630D01*
X0219740Y0191480D01*
X0220160Y0191280D01*
X0220570Y0191060D01*
X0220950Y0190800D01*
X0221310Y0190510D01*
X0221650Y0190190D01*
X0221960Y0189850D01*
X0222230Y0189480D01*
X0222480Y0189090D01*
X0222700Y0188680D01*
X0222880Y0188250D01*
X0223020Y0187810D01*
X0223130Y0187360D01*
X0223200Y0186900D01*
X0223230Y0186440D01*
X0223220Y0185980D01*
X0223220Y0114620D01*
X0216740Y0106890D02*
X0208370Y0106890D01*
X0201790Y0110820D02*
X0192150Y0122330D01*
X0192160Y0122340D02*
X0192060Y0122410D01*
X0191950Y0122470D01*
X0191830Y0122510D01*
X0191710Y0122520D01*
X0190460Y0122250D02*
X0181300Y0111220D01*
X0173760Y0106890D02*
X0166230Y0106890D01*
X0165680Y0106930D01*
X0165140Y0107010D01*
X0164600Y0107130D01*
X0164070Y0107290D01*
X0163560Y0107480D01*
X0163060Y0107710D01*
X0162580Y0107980D01*
X0162120Y0108280D01*
X0161680Y0108610D01*
X0161270Y0108970D01*
X0160880Y0109360D01*
X0160520Y0109780D01*
X0160190Y0110220D01*
X0159900Y0110680D01*
X0159640Y0111170D01*
X0159410Y0111670D01*
X0159220Y0112180D01*
X0159070Y0112710D01*
X0158960Y0113250D01*
X0158880Y0113790D01*
X0158840Y0114340D01*
X0158850Y0114890D01*
X0173760Y0106880D02*
X0174390Y0106980D01*
X0175010Y0107120D01*
X0175620Y0107290D01*
X0176230Y0107490D01*
X0176820Y0107730D01*
X0177400Y0108000D01*
X0177960Y0108300D01*
X0178500Y0108630D01*
X0179030Y0108990D01*
X0179530Y0109390D01*
X0180010Y0109810D01*
X0180470Y0110250D01*
X0180900Y0110720D01*
X0181300Y0111220D01*
X0190460Y0122250D02*
X0190650Y0122360D01*
X0190850Y0122450D01*
X0191060Y0122510D01*
X0191280Y0122540D01*
X0191500Y0122540D01*
X0191710Y0122510D01*
X0201790Y0110820D02*
X0202160Y0110340D01*
X0202570Y0109890D01*
X0203000Y0109470D01*
X0203450Y0109070D01*
X0203930Y0108700D01*
X0204430Y0108360D01*
X0204950Y0108050D01*
X0205480Y0107770D01*
X0206040Y0107520D01*
X0206600Y0107310D01*
X0207180Y0107130D01*
X0207770Y0106990D01*
X0208360Y0106890D01*
X0216740Y0106890D02*
X0217250Y0106950D01*
X0217750Y0107050D01*
X0218240Y0107180D01*
X0218720Y0107350D01*
X0219190Y0107550D01*
X0219640Y0107790D01*
X0220070Y0108060D01*
X0220490Y0108350D01*
X0220880Y0108680D01*
X0221240Y0109030D01*
X0221580Y0109410D01*
X0221900Y0109810D01*
X0222180Y0110230D01*
X0222430Y0110680D01*
X0222650Y0111130D01*
X0222840Y0111610D01*
X0222990Y0112090D01*
X0223110Y0112590D01*
X0223190Y0113090D01*
X0223240Y0113600D01*
X0223250Y0114110D01*
X0223220Y0114610D01*
X0230750Y0106880D02*
G75*
%LPD*%
D11*
X0238280Y0106890D02*
X0290400Y0106890D01*
X0290400Y0106880D02*
X0290720Y0106900D01*
X0291040Y0106950D01*
X0291350Y0107040D01*
X0291650Y0107170D01*
X0291930Y0107320D01*
X0292200Y0107510D01*
X0292440Y0107720D01*
X0292650Y0107960D01*
X0292840Y0108230D01*
X0292990Y0108510D01*
X0293120Y0108810D01*
X0293210Y0109120D01*
X0293260Y0109440D01*
X0293280Y0109760D01*
X0293280Y0122140D01*
X0293270Y0122130D02*
X0293220Y0122460D01*
X0293140Y0122790D01*
X0293020Y0123100D01*
X0292870Y0123400D01*
X0292690Y0123680D01*
X0292480Y0123940D01*
X0292250Y0124180D01*
X0291990Y0124400D01*
X0291710Y0124580D01*
X0291410Y0124730D01*
X0291100Y0124860D01*
X0290780Y0124950D01*
X0290450Y0125000D01*
X0290110Y0125020D01*
X0289780Y0125000D01*
X0289780Y0125010D02*
X0256400Y0125010D01*
X0256030Y0125000D01*
X0255650Y0125020D01*
X0255280Y0125080D01*
X0254920Y0125170D01*
X0254560Y0125300D01*
X0254220Y0125460D01*
X0253890Y0125640D01*
X0253590Y0125860D01*
X0253300Y0126110D01*
X0253040Y0126380D01*
X0252800Y0126670D01*
X0252600Y0126980D01*
X0252420Y0127310D01*
X0252270Y0127660D01*
X0252160Y0128020D01*
X0252080Y0128380D01*
X0252030Y0128760D01*
X0252030Y0140010D01*
X0252080Y0140330D01*
X0252170Y0140630D01*
X0252290Y0140920D01*
X0252440Y0141200D01*
X0252620Y0141460D01*
X0252840Y0141700D01*
X0253070Y0141910D01*
X0253330Y0142090D01*
X0253610Y0142250D01*
X0253900Y0142370D01*
X0254210Y0142460D01*
X0254520Y0142510D01*
X0254840Y0142530D01*
X0255150Y0142510D01*
X0269780Y0142510D01*
X0269780Y0142520D02*
X0270090Y0142500D01*
X0270400Y0142520D01*
X0270710Y0142570D01*
X0271000Y0142670D01*
X0271290Y0142790D01*
X0271550Y0142960D01*
X0271800Y0143150D01*
X0272020Y0143370D01*
X0272210Y0143610D01*
X0272370Y0143880D01*
X0272500Y0144160D01*
X0272590Y0144460D01*
X0272650Y0144770D01*
X0272650Y0144760D02*
X0272650Y0152750D01*
X0272640Y0152750D02*
X0272660Y0153080D01*
X0272640Y0153420D01*
X0272580Y0153750D01*
X0272500Y0154070D01*
X0272370Y0154390D01*
X0272220Y0154690D01*
X0272030Y0154970D01*
X0271820Y0155230D01*
X0271580Y0155460D01*
X0271320Y0155670D01*
X0271030Y0155850D01*
X0270730Y0156000D01*
X0270420Y0156120D01*
X0270090Y0156200D01*
X0269760Y0156250D01*
X0269770Y0156260D02*
X0254420Y0156260D01*
X0254420Y0156270D02*
X0254120Y0156320D01*
X0253820Y0156410D01*
X0253540Y0156520D01*
X0253280Y0156670D01*
X0253030Y0156850D01*
X0252800Y0157050D01*
X0252600Y0157280D01*
X0252420Y0157530D01*
X0252280Y0157800D01*
X0252160Y0158080D01*
X0252080Y0158370D01*
X0252030Y0158670D01*
X0252010Y0158980D01*
X0252030Y0159280D01*
X0252030Y0169760D01*
X0252050Y0170150D01*
X0252110Y0170540D01*
X0252200Y0170920D01*
X0252330Y0171290D01*
X0252500Y0171650D01*
X0252700Y0171980D01*
X0252940Y0172300D01*
X0253200Y0172590D01*
X0253490Y0172850D01*
X0253810Y0173090D01*
X0254140Y0173290D01*
X0254500Y0173460D01*
X0254870Y0173590D01*
X0255250Y0173680D01*
X0255640Y0173740D01*
X0256030Y0173760D01*
X0286010Y0173760D01*
X0286550Y0173840D01*
X0287080Y0173970D01*
X0287600Y0174130D01*
X0288110Y0174330D01*
X0288600Y0174560D01*
X0289070Y0174830D01*
X0289530Y0175130D01*
X0289960Y0175470D01*
X0290360Y0175830D01*
X0290740Y0176220D01*
X0291090Y0176640D01*
X0291410Y0177080D01*
X0291700Y0177550D01*
X0291960Y0178030D01*
X0292170Y0178530D01*
X0292360Y0179040D01*
X0292500Y0179570D01*
X0292610Y0180100D01*
X0292680Y0180640D01*
X0292710Y0181190D01*
X0292700Y0181730D01*
X0292650Y0182280D01*
X0292650Y0183880D01*
X0292680Y0184400D01*
X0292670Y0184930D01*
X0292620Y0185460D01*
X0292530Y0185980D01*
X0292410Y0186490D01*
X0292250Y0187000D01*
X0292050Y0187490D01*
X0291820Y0187970D01*
X0291560Y0188420D01*
X0291260Y0188860D01*
X0290930Y0189280D01*
X0290580Y0189670D01*
X0290200Y0190040D01*
X0289790Y0190370D01*
X0289360Y0190680D01*
X0288910Y0190960D01*
X0288440Y0191200D01*
X0287950Y0191410D01*
X0287450Y0191580D01*
X0286940Y0191720D01*
X0286420Y0191820D01*
X0285890Y0191880D01*
X0285890Y0191890D02*
X0237030Y0191890D01*
X0237030Y0191880D02*
X0236510Y0191820D01*
X0236010Y0191710D01*
X0235510Y0191570D01*
X0235030Y0191390D01*
X0234560Y0191180D01*
X0234110Y0190930D01*
X0233670Y0190650D01*
X0233260Y0190340D01*
X0232880Y0189990D01*
X0232520Y0189620D01*
X0232190Y0189230D01*
X0231890Y0188810D01*
X0231620Y0188360D01*
X0231390Y0187900D01*
X0231190Y0187430D01*
X0231030Y0186940D01*
X0230900Y0186440D01*
X0230810Y0185930D01*
X0230760Y0185420D01*
X0230750Y0184900D01*
X0230780Y0184390D01*
X0230780Y0114390D01*
X0230800Y0113850D01*
X0230860Y0113320D01*
X0230950Y0112800D01*
X0231080Y0112280D01*
X0231250Y0111770D01*
X0231460Y0111270D01*
X0231700Y0110800D01*
X0231970Y0110340D01*
X0232280Y0109900D01*
X0232610Y0109480D01*
X0232980Y0109090D01*
X0233370Y0108720D01*
X0233790Y0108390D01*
X0234230Y0108080D01*
X0234690Y0107810D01*
X0235160Y0107570D01*
X0235660Y0107360D01*
X0236170Y0107190D01*
X0236690Y0107060D01*
X0237210Y0106970D01*
X0237740Y0106910D01*
X0238280Y0106890D01*
X0300780Y0106880D02*
G75*
%LPD*%
D11*
X0303590Y0106880D02*
X0316840Y0106880D01*
X0317240Y0106930D01*
X0317620Y0107010D01*
X0318000Y0107130D01*
X0318360Y0107280D01*
X0318710Y0107470D01*
X0319040Y0107690D01*
X0319350Y0107930D01*
X0319640Y0108210D01*
X0319900Y0108510D01*
X0320120Y0108830D01*
X0320320Y0109170D01*
X0320490Y0109530D01*
X0320620Y0109900D01*
X0320720Y0110280D01*
X0320780Y0110670D01*
X0320810Y0111070D01*
X0320800Y0111460D01*
X0320800Y0123170D01*
X0320820Y0123630D01*
X0320880Y0124090D01*
X0320970Y0124540D01*
X0321100Y0124990D01*
X0321270Y0125420D01*
X0321470Y0125830D01*
X0321710Y0126230D01*
X0321980Y0126600D01*
X0322280Y0126960D01*
X0322600Y0127280D01*
X0322960Y0127580D01*
X0323330Y0127850D01*
X0323730Y0128090D01*
X0324140Y0128290D01*
X0324570Y0128460D01*
X0325020Y0128590D01*
X0325470Y0128680D01*
X0325930Y0128740D01*
X0326390Y0128760D01*
X0329280Y0128760D01*
X0333720Y0126560D02*
X0346750Y0109530D01*
X0350840Y0106880D02*
X0361010Y0106880D01*
X0361380Y0106900D01*
X0361750Y0106960D01*
X0362100Y0107050D01*
X0362450Y0107190D01*
X0362780Y0107350D01*
X0363090Y0107560D01*
X0363380Y0107790D01*
X0363640Y0108050D01*
X0363870Y0108340D01*
X0364080Y0108650D01*
X0364240Y0108980D01*
X0364380Y0109330D01*
X0364470Y0109680D01*
X0364530Y0110050D01*
X0364550Y0110420D01*
X0364550Y0117180D01*
X0360780Y0126900D02*
X0360730Y0126950D01*
X0360740Y0126950D02*
X0360310Y0127410D01*
X0359900Y0127890D01*
X0359530Y0128400D01*
X0359190Y0128930D01*
X0358880Y0129480D01*
X0358600Y0130050D01*
X0358360Y0130630D01*
X0358150Y0131220D01*
X0357980Y0131830D01*
X0357850Y0132450D01*
X0357760Y0133070D01*
X0357700Y0133700D01*
X0357680Y0134330D01*
X0361420Y0143130D02*
X0361420Y0143130D01*
X0364550Y0150680D02*
X0364550Y0171260D01*
X0361450Y0178730D02*
X0352100Y0188080D01*
X0341410Y0192510D02*
X0318180Y0192510D01*
X0318170Y0192510D02*
X0317360Y0192500D01*
X0316550Y0192460D01*
X0315740Y0192380D01*
X0314940Y0192260D01*
X0314140Y0192100D01*
X0313350Y0191900D01*
X0312570Y0191670D01*
X0311810Y0191400D01*
X0311050Y0191090D01*
X0310320Y0190750D01*
X0309600Y0190380D01*
X0308900Y0189970D01*
X0308210Y0189520D01*
X0307560Y0189050D01*
X0306920Y0188540D01*
X0306310Y0188010D01*
X0305720Y0187440D01*
X0305170Y0186850D01*
X0304640Y0186240D01*
X0304140Y0185590D01*
X0303670Y0184930D01*
X0303240Y0184240D01*
X0302830Y0183540D01*
X0302470Y0182810D01*
X0302130Y0182070D01*
X0301830Y0181320D01*
X0301570Y0180550D01*
X0301350Y0179770D01*
X0301160Y0178980D01*
X0301010Y0178180D01*
X0300900Y0177370D01*
X0300830Y0176560D01*
X0300790Y0175750D01*
X0300800Y0175750D02*
X0300800Y0110300D01*
X0300780Y0109980D01*
X0300800Y0109650D01*
X0300850Y0109330D01*
X0300940Y0109010D01*
X0301060Y0108710D01*
X0301210Y0108420D01*
X0301380Y0108140D01*
X0301590Y0107890D01*
X0301820Y0107660D01*
X0302080Y0107460D01*
X0302350Y0107280D01*
X0302640Y0107130D01*
X0302950Y0107020D01*
X0303270Y0106940D01*
X0303590Y0106890D01*
X0329280Y0128760D02*
X0329750Y0128740D01*
X0330210Y0128680D01*
X0330660Y0128590D01*
X0331110Y0128450D01*
X0331550Y0128280D01*
X0331960Y0128070D01*
X0332360Y0127830D01*
X0332740Y0127560D01*
X0333090Y0127260D01*
X0333420Y0126920D01*
X0333720Y0126570D01*
X0360780Y0126900D02*
X0361260Y0126380D01*
X0361710Y0125820D01*
X0362130Y0125250D01*
X0362520Y0124650D01*
X0362880Y0124030D01*
X0363200Y0123400D01*
X0363500Y0122750D01*
X0363750Y0122080D01*
X0363980Y0121400D01*
X0364160Y0120710D01*
X0364310Y0120020D01*
X0364430Y0119310D01*
X0364500Y0118600D01*
X0364540Y0117890D01*
X0364550Y0117180D01*
X0350850Y0106890D02*
X0350390Y0106960D01*
X0349950Y0107070D01*
X0349510Y0107210D01*
X0349090Y0107400D01*
X0348690Y0107610D01*
X0348300Y0107860D01*
X0347940Y0108140D01*
X0347600Y0108450D01*
X0347290Y0108790D01*
X0347010Y0109150D01*
X0346760Y0109530D01*
X0357670Y0134330D02*
X0357690Y0134980D01*
X0357750Y0135640D01*
X0357840Y0136280D01*
X0357970Y0136930D01*
X0358130Y0137560D01*
X0358320Y0138190D01*
X0358550Y0138800D01*
X0358800Y0139400D01*
X0359090Y0139990D01*
X0359410Y0140560D01*
X0359760Y0141120D01*
X0360130Y0141650D01*
X0360540Y0142170D01*
X0360970Y0142660D01*
X0361420Y0143130D01*
X0361430Y0143130D02*
X0361870Y0143600D01*
X0362280Y0144100D01*
X0362660Y0144620D01*
X0363010Y0145160D01*
X0363330Y0145720D01*
X0363610Y0146300D01*
X0363860Y0146900D01*
X0364070Y0147510D01*
X0364240Y0148130D01*
X0364380Y0148760D01*
X0364470Y0149390D01*
X0364530Y0150040D01*
X0364550Y0150680D01*
X0361430Y0143130D02*
X0361420Y0143120D01*
X0364540Y0171260D02*
X0364520Y0171900D01*
X0364460Y0172530D01*
X0364370Y0173160D01*
X0364230Y0173790D01*
X0364060Y0174400D01*
X0363850Y0175000D01*
X0363610Y0175590D01*
X0363330Y0176170D01*
X0363020Y0176720D01*
X0362670Y0177260D01*
X0362290Y0177770D01*
X0361880Y0178260D01*
X0361450Y0178730D01*
X0352100Y0188080D02*
X0351560Y0188590D01*
X0351000Y0189080D01*
X0350420Y0189530D01*
X0349810Y0189960D01*
X0349180Y0190360D01*
X0348540Y0190720D01*
X0347870Y0191060D01*
X0347200Y0191360D01*
X0346500Y0191630D01*
X0345800Y0191860D01*
X0345080Y0192060D01*
X0344360Y0192220D01*
X0343630Y0192350D01*
X0342890Y0192440D01*
X0342150Y0192490D01*
X0341410Y0192510D01*
X0321300Y0160010D02*
X0321320Y0160700D01*
X0321380Y0161390D01*
X0321480Y0162070D01*
X0321620Y0162750D01*
X0321790Y0163420D01*
X0322010Y0164080D01*
X0322260Y0164720D01*
X0322550Y0165350D01*
X0322880Y0165960D01*
X0323240Y0166550D01*
X0323630Y0167120D01*
X0324060Y0167660D01*
X0324510Y0168180D01*
X0325000Y0168680D01*
X0325510Y0169140D01*
X0326050Y0169570D01*
X0326620Y0169980D01*
X0327200Y0170340D01*
X0327810Y0170680D01*
X0328430Y0170980D01*
X0329070Y0171240D01*
X0329720Y0171460D01*
X0330390Y0171650D01*
X0331070Y0171800D01*
X0331750Y0171910D01*
X0332440Y0171980D01*
X0333130Y0172010D01*
X0333820Y0172000D01*
X0334510Y0171950D01*
X0335190Y0171860D01*
X0335870Y0171730D01*
X0336540Y0171560D01*
X0337210Y0171360D01*
X0337850Y0171110D01*
X0338480Y0170830D01*
X0339100Y0170520D01*
X0339690Y0170160D01*
X0340270Y0169780D01*
X0340820Y0169360D01*
X0341350Y0168910D01*
X0341850Y0168430D01*
X0342320Y0167930D01*
X0342760Y0167390D01*
X0343170Y0166840D01*
X0343550Y0166260D01*
X0343890Y0165660D01*
X0344200Y0165040D01*
X0344470Y0164400D01*
X0344700Y0163750D01*
X0344900Y0163090D01*
X0345060Y0162410D01*
X0345180Y0161730D01*
X0345260Y0161050D01*
X0345300Y0160360D01*
X0345300Y0159660D01*
X0345260Y0158970D01*
X0345180Y0158290D01*
X0345060Y0157610D01*
X0344900Y0156930D01*
X0344700Y0156270D01*
X0344470Y0155620D01*
X0344200Y0154980D01*
X0343890Y0154360D01*
X0343550Y0153760D01*
X0343170Y0153180D01*
X0342760Y0152630D01*
X0342320Y0152090D01*
X0341850Y0151590D01*
X0341350Y0151110D01*
X0340820Y0150660D01*
X0340270Y0150240D01*
X0339690Y0149860D01*
X0339100Y0149500D01*
X0338480Y0149190D01*
X0337850Y0148910D01*
X0337210Y0148660D01*
X0336540Y0148460D01*
X0335870Y0148290D01*
X0335190Y0148160D01*
X0334510Y0148070D01*
X0333820Y0148020D01*
X0333130Y0148010D01*
X0332440Y0148040D01*
X0331750Y0148110D01*
X0331070Y0148220D01*
X0330390Y0148370D01*
X0329720Y0148560D01*
X0329070Y0148780D01*
X0328430Y0149040D01*
X0327810Y0149340D01*
X0327200Y0149680D01*
X0326620Y0150040D01*
X0326050Y0150450D01*
X0325510Y0150880D01*
X0325000Y0151340D01*
X0324510Y0151840D01*
X0324060Y0152360D01*
X0323630Y0152900D01*
X0323240Y0153470D01*
X0322880Y0154060D01*
X0322550Y0154670D01*
X0322260Y0155300D01*
X0322010Y0155940D01*
X0321790Y0156600D01*
X0321620Y0157270D01*
X0321480Y0157950D01*
X0321380Y0158630D01*
X0321320Y0159320D01*
X0321300Y0160010D01*
X0012500Y0200710D02*
G75*
%LPD*%
D11*
X0012500Y0200710D02*
X0012500Y0287590D01*
X0057500Y0287590D01*
X0078120Y0261340D02*
X0078120Y0244460D01*
X0054370Y0220090D02*
X0032500Y0220090D01*
X0032500Y0200710D01*
X0012500Y0200710D01*
X0054380Y0220090D02*
X0055440Y0220330D01*
X0056500Y0220620D01*
X0057540Y0220940D01*
X0058570Y0221300D01*
X0059590Y0221700D01*
X0060600Y0222130D01*
X0061590Y0222600D01*
X0062560Y0223100D01*
X0063510Y0223640D01*
X0064440Y0224210D01*
X0065350Y0224810D01*
X0066240Y0225450D01*
X0067110Y0226110D01*
X0067950Y0226810D01*
X0068770Y0227540D01*
X0069560Y0228290D01*
X0070320Y0229070D01*
X0071060Y0229880D01*
X0071760Y0230720D01*
X0072440Y0231580D01*
X0073080Y0232460D01*
X0073690Y0233370D01*
X0074270Y0234300D01*
X0074820Y0235240D01*
X0075330Y0236210D01*
X0075810Y0237190D01*
X0076250Y0238190D01*
X0076660Y0239210D01*
X0077020Y0240240D01*
X0077360Y0241280D01*
X0077650Y0242330D01*
X0077910Y0243390D01*
X0078130Y0244460D01*
X0078120Y0261330D02*
X0078020Y0262400D01*
X0077880Y0263460D01*
X0077700Y0264520D01*
X0077480Y0265570D01*
X0077230Y0266610D01*
X0076940Y0267650D01*
X0076610Y0268670D01*
X0076250Y0269680D01*
X0075850Y0270670D01*
X0075420Y0271650D01*
X0074950Y0272620D01*
X0074450Y0273560D01*
X0073910Y0274490D01*
X0073340Y0275400D01*
X0072740Y0276290D01*
X0072110Y0277160D01*
X0071450Y0278000D01*
X0070750Y0278820D01*
X0070030Y0279610D01*
X0069280Y0280380D01*
X0068510Y0281120D01*
X0067710Y0281830D01*
X0066880Y0282520D01*
X0066030Y0283170D01*
X0065160Y0283790D01*
X0064260Y0284380D01*
X0063350Y0284940D01*
X0062410Y0285470D01*
X0061460Y0285960D01*
X0060490Y0286420D01*
X0059510Y0286840D01*
X0058510Y0287230D01*
X0057490Y0287580D01*
X0033620Y0255090D02*
X0033640Y0255780D01*
X0033700Y0256470D01*
X0033800Y0257150D01*
X0033940Y0257830D01*
X0034110Y0258500D01*
X0034330Y0259160D01*
X0034580Y0259800D01*
X0034870Y0260430D01*
X0035200Y0261040D01*
X0035560Y0261630D01*
X0035950Y0262200D01*
X0036380Y0262740D01*
X0036830Y0263260D01*
X0037320Y0263760D01*
X0037830Y0264220D01*
X0038370Y0264650D01*
X0038940Y0265060D01*
X0039520Y0265420D01*
X0040130Y0265760D01*
X0040750Y0266060D01*
X0041390Y0266320D01*
X0042040Y0266540D01*
X0042710Y0266730D01*
X0043390Y0266880D01*
X0044070Y0266990D01*
X0044760Y0267060D01*
X0045450Y0267090D01*
X0046140Y0267080D01*
X0046830Y0267030D01*
X0047510Y0266940D01*
X0048190Y0266810D01*
X0048860Y0266640D01*
X0049530Y0266440D01*
X0050170Y0266190D01*
X0050800Y0265910D01*
X0051420Y0265600D01*
X0052010Y0265240D01*
X0052590Y0264860D01*
X0053140Y0264440D01*
X0053670Y0263990D01*
X0054170Y0263510D01*
X0054640Y0263010D01*
X0055080Y0262470D01*
X0055490Y0261920D01*
X0055870Y0261340D01*
X0056210Y0260740D01*
X0056520Y0260120D01*
X0056790Y0259480D01*
X0057020Y0258830D01*
X0057220Y0258170D01*
X0057380Y0257490D01*
X0057500Y0256810D01*
X0057580Y0256130D01*
X0057620Y0255440D01*
X0057620Y0254740D01*
X0057580Y0254050D01*
X0057500Y0253370D01*
X0057380Y0252690D01*
X0057220Y0252010D01*
X0057020Y0251350D01*
X0056790Y0250700D01*
X0056520Y0250060D01*
X0056210Y0249440D01*
X0055870Y0248840D01*
X0055490Y0248260D01*
X0055080Y0247710D01*
X0054640Y0247170D01*
X0054170Y0246670D01*
X0053670Y0246190D01*
X0053140Y0245740D01*
X0052590Y0245320D01*
X0052010Y0244940D01*
X0051420Y0244580D01*
X0050800Y0244270D01*
X0050170Y0243990D01*
X0049530Y0243740D01*
X0048860Y0243540D01*
X0048190Y0243370D01*
X0047510Y0243240D01*
X0046830Y0243150D01*
X0046140Y0243100D01*
X0045450Y0243090D01*
X0044760Y0243120D01*
X0044070Y0243190D01*
X0043390Y0243300D01*
X0042710Y0243450D01*
X0042040Y0243640D01*
X0041390Y0243860D01*
X0040750Y0244120D01*
X0040130Y0244420D01*
X0039520Y0244760D01*
X0038940Y0245120D01*
X0038370Y0245530D01*
X0037830Y0245960D01*
X0037320Y0246420D01*
X0036830Y0246920D01*
X0036380Y0247440D01*
X0035950Y0247980D01*
X0035560Y0248550D01*
X0035200Y0249140D01*
X0034870Y0249750D01*
X0034580Y0250380D01*
X0034330Y0251020D01*
X0034110Y0251680D01*
X0033940Y0252350D01*
X0033800Y0253030D01*
X0033700Y0253710D01*
X0033640Y0254400D01*
X0033620Y0255090D01*
X0085630Y0200710D02*
G75*
%LPD*%
D11*
X0085670Y0216410D02*
X0085670Y0265780D01*
X0085630Y0266650D01*
X0085640Y0267530D01*
X0085680Y0268400D01*
X0085760Y0269270D01*
X0085870Y0270140D01*
X0086030Y0271000D01*
X0086220Y0271850D01*
X0086450Y0272700D01*
X0086710Y0273530D01*
X0087010Y0274350D01*
X0087350Y0275160D01*
X0087720Y0275950D01*
X0088130Y0276720D01*
X0088570Y0277480D01*
X0089040Y0278210D01*
X0089540Y0278930D01*
X0090080Y0279620D01*
X0090640Y0280290D01*
X0091240Y0280930D01*
X0091860Y0281550D01*
X0092500Y0282140D01*
X0093170Y0282700D01*
X0093870Y0283230D01*
X0094590Y0283730D01*
X0095330Y0284190D01*
X0096080Y0284630D01*
X0096860Y0285030D01*
X0097650Y0285400D01*
X0098460Y0285730D01*
X0099290Y0286030D01*
X0100120Y0286290D01*
X0100970Y0286510D01*
X0101820Y0286700D01*
X0102680Y0286850D01*
X0103550Y0286960D01*
X0104420Y0287030D01*
X0131300Y0287030D01*
X0131290Y0287030D02*
X0132170Y0287040D01*
X0133040Y0287010D01*
X0133910Y0286940D01*
X0134780Y0286830D01*
X0135640Y0286690D01*
X0136490Y0286510D01*
X0137340Y0286290D01*
X0138170Y0286040D01*
X0139000Y0285750D01*
X0139810Y0285420D01*
X0140600Y0285060D01*
X0141380Y0284660D01*
X0142140Y0284230D01*
X0142880Y0283770D01*
X0143600Y0283280D01*
X0144300Y0282750D01*
X0144970Y0282200D01*
X0145620Y0281610D01*
X0146240Y0281000D01*
X0146840Y0280360D01*
X0147410Y0279700D01*
X0147940Y0279010D01*
X0148450Y0278300D01*
X0148930Y0277570D01*
X0149370Y0276820D01*
X0149780Y0276050D01*
X0150160Y0275260D01*
X0150500Y0274460D01*
X0150810Y0273640D01*
X0151080Y0272810D01*
X0151310Y0271970D01*
X0151510Y0271120D01*
X0151670Y0270260D01*
X0151790Y0269400D01*
X0151870Y0268530D01*
X0151920Y0267660D01*
X0151920Y0221410D01*
X0151930Y0221410D02*
X0151970Y0220540D01*
X0151960Y0219670D01*
X0151920Y0218800D01*
X0151840Y0217930D01*
X0151720Y0217070D01*
X0151560Y0216210D01*
X0151370Y0215360D01*
X0151130Y0214520D01*
X0150860Y0213690D01*
X0150550Y0212880D01*
X0150210Y0212080D01*
X0149830Y0211290D01*
X0149410Y0210530D01*
X0148960Y0209780D01*
X0148480Y0209050D01*
X0147970Y0208350D01*
X0147420Y0207670D01*
X0146850Y0207020D01*
X0146240Y0206390D01*
X0145610Y0205790D01*
X0144950Y0205220D01*
X0144270Y0204680D01*
X0143560Y0204160D01*
X0142830Y0203690D01*
X0142090Y0203240D01*
X0141320Y0202830D01*
X0140530Y0202460D01*
X0139730Y0202120D01*
X0138910Y0201810D01*
X0138080Y0201540D01*
X0137240Y0201310D01*
X0136390Y0201120D01*
X0135530Y0200970D01*
X0134670Y0200860D01*
X0133800Y0200780D01*
X0134420Y0200780D02*
X0104420Y0200780D01*
X0103600Y0200730D01*
X0102780Y0200710D01*
X0101960Y0200730D01*
X0101140Y0200800D01*
X0100330Y0200900D01*
X0099520Y0201040D01*
X0098710Y0201220D01*
X0097920Y0201430D01*
X0097140Y0201690D01*
X0096370Y0201980D01*
X0095620Y0202300D01*
X0094880Y0202660D01*
X0094160Y0203060D01*
X0093460Y0203490D01*
X0092780Y0203960D01*
X0092130Y0204450D01*
X0091500Y0204980D01*
X0090890Y0205530D01*
X0090310Y0206120D01*
X0089760Y0206730D01*
X0089240Y0207360D01*
X0088760Y0208020D01*
X0088300Y0208700D01*
X0087870Y0209410D01*
X0087480Y0210130D01*
X0087130Y0210870D01*
X0086810Y0211630D01*
X0086520Y0212400D01*
X0086280Y0213180D01*
X0086070Y0213980D01*
X0085900Y0214780D01*
X0085760Y0215590D01*
X0085670Y0216410D01*
X0106300Y0233910D02*
X0106300Y0255160D01*
X0106410Y0255850D01*
X0106560Y0256520D01*
X0106750Y0257190D01*
X0106970Y0257850D01*
X0107230Y0258490D01*
X0107520Y0259120D01*
X0107850Y0259730D01*
X0108210Y0260320D01*
X0108610Y0260890D01*
X0109030Y0261440D01*
X0109480Y0261960D01*
X0109970Y0262460D01*
X0110480Y0262930D01*
X0111010Y0263370D01*
X0111570Y0263780D01*
X0112150Y0264160D01*
X0112750Y0264510D01*
X0113360Y0264820D01*
X0114000Y0265100D01*
X0114650Y0265350D01*
X0115310Y0265560D01*
X0115980Y0265730D01*
X0116660Y0265860D01*
X0117340Y0265960D01*
X0118040Y0266020D01*
X0118730Y0266040D01*
X0119420Y0266020D01*
X0120110Y0265970D01*
X0120800Y0265870D01*
X0121480Y0265740D01*
X0122150Y0265570D01*
X0122810Y0265370D01*
X0123460Y0265130D01*
X0124100Y0264850D01*
X0124720Y0264540D01*
X0125320Y0264190D01*
X0125900Y0263820D01*
X0126460Y0263410D01*
X0127000Y0262970D01*
X0127510Y0262500D01*
X0127990Y0262010D01*
X0128450Y0261480D01*
X0128880Y0260940D01*
X0129270Y0260370D01*
X0129640Y0259780D01*
X0129970Y0259170D01*
X0130270Y0258550D01*
X0130530Y0257910D01*
X0130760Y0257250D01*
X0130950Y0256580D01*
X0131100Y0255910D01*
X0131220Y0255220D01*
X0131290Y0254540D01*
X0131300Y0254530D02*
X0131300Y0233280D01*
X0131290Y0233280D02*
X0131180Y0232590D01*
X0131030Y0231920D01*
X0130840Y0231250D01*
X0130620Y0230590D01*
X0130360Y0229950D01*
X0130070Y0229320D01*
X0129740Y0228710D01*
X0129380Y0228120D01*
X0128980Y0227550D01*
X0128560Y0227000D01*
X0128110Y0226480D01*
X0127620Y0225980D01*
X0127110Y0225510D01*
X0126580Y0225070D01*
X0126020Y0224660D01*
X0125440Y0224280D01*
X0124840Y0223930D01*
X0124230Y0223620D01*
X0123590Y0223340D01*
X0122940Y0223090D01*
X0122280Y0222880D01*
X0121610Y0222710D01*
X0120930Y0222580D01*
X0120250Y0222480D01*
X0119550Y0222420D01*
X0118860Y0222400D01*
X0118170Y0222420D01*
X0117480Y0222470D01*
X0116790Y0222570D01*
X0116110Y0222700D01*
X0115440Y0222870D01*
X0114780Y0223070D01*
X0114130Y0223310D01*
X0113490Y0223590D01*
X0112870Y0223900D01*
X0112270Y0224250D01*
X0111690Y0224620D01*
X0111130Y0225030D01*
X0110590Y0225470D01*
X0110080Y0225940D01*
X0109600Y0226430D01*
X0109140Y0226960D01*
X0108710Y0227500D01*
X0108320Y0228070D01*
X0107950Y0228660D01*
X0107620Y0229270D01*
X0107320Y0229890D01*
X0107060Y0230530D01*
X0106830Y0231190D01*
X0106640Y0231860D01*
X0106490Y0232530D01*
X0106370Y0233220D01*
X0106300Y0233900D01*
X0159470Y0200710D02*
G75*
%LPD*%
D11*
X0159480Y0208720D02*
X0159480Y0280300D01*
X0159500Y0280750D01*
X0159550Y0281190D01*
X0159650Y0281630D01*
X0159770Y0282060D01*
X0159940Y0282470D01*
X0160130Y0282870D01*
X0160360Y0283260D01*
X0160620Y0283620D01*
X0160910Y0283960D01*
X0161230Y0284280D01*
X0161570Y0284570D01*
X0161930Y0284830D01*
X0162320Y0285060D01*
X0162720Y0285250D01*
X0163130Y0285420D01*
X0163560Y0285540D01*
X0164000Y0285640D01*
X0164440Y0285690D01*
X0164890Y0285710D01*
X0164890Y0285720D02*
X0174280Y0285720D01*
X0174740Y0285680D01*
X0175190Y0285590D01*
X0175630Y0285480D01*
X0176060Y0285320D01*
X0176470Y0285130D01*
X0176870Y0284910D01*
X0177250Y0284650D01*
X0177600Y0284370D01*
X0177930Y0284050D01*
X0178240Y0283710D01*
X0178510Y0283350D01*
X0178750Y0282960D01*
X0178970Y0282560D01*
X0179140Y0282140D01*
X0179280Y0281700D01*
X0179390Y0281260D01*
X0179460Y0280810D01*
X0179490Y0280350D01*
X0179480Y0279900D01*
X0179480Y0245090D01*
X0179470Y0245090D02*
X0179460Y0244730D01*
X0179480Y0244370D01*
X0179540Y0244020D01*
X0179640Y0243670D01*
X0179770Y0243340D01*
X0179930Y0243020D01*
X0180130Y0242720D01*
X0180360Y0242440D01*
X0180610Y0242180D01*
X0180890Y0241960D01*
X0181190Y0241760D01*
X0181500Y0241590D01*
X0181840Y0241460D01*
X0182180Y0241360D01*
X0182540Y0241300D01*
X0182900Y0241270D01*
X0183260Y0241280D01*
X0183610Y0241330D01*
X0183960Y0241410D01*
X0184300Y0241530D01*
X0184630Y0241690D01*
X0184930Y0241870D01*
X0185220Y0242090D01*
X0190650Y0248770D01*
X0190850Y0248950D01*
X0191080Y0249090D01*
X0191320Y0249200D01*
X0191580Y0249280D01*
X0191850Y0249320D01*
X0192110Y0249320D01*
X0192380Y0249280D01*
X0192640Y0249200D01*
X0192880Y0249090D01*
X0193110Y0248950D01*
X0193310Y0248770D01*
X0193300Y0248770D02*
X0198830Y0241990D01*
X0199060Y0241760D01*
X0199310Y0241560D01*
X0199590Y0241390D01*
X0199880Y0241260D01*
X0200190Y0241150D01*
X0200510Y0241090D01*
X0200830Y0241050D01*
X0201150Y0241060D01*
X0201480Y0241100D01*
X0201790Y0241170D01*
X0202100Y0241280D01*
X0202390Y0241430D01*
X0202660Y0241600D01*
X0202910Y0241810D01*
X0203140Y0242040D01*
X0203340Y0242290D01*
X0203510Y0242570D01*
X0203640Y0242860D01*
X0203750Y0243170D01*
X0203810Y0243490D01*
X0203850Y0243810D01*
X0203850Y0280430D01*
X0203860Y0280430D02*
X0203880Y0280870D01*
X0203930Y0281300D01*
X0204020Y0281730D01*
X0204150Y0282140D01*
X0204300Y0282550D01*
X0204500Y0282940D01*
X0204720Y0283320D01*
X0204970Y0283670D01*
X0205260Y0284010D01*
X0205560Y0284310D01*
X0205900Y0284600D01*
X0206250Y0284850D01*
X0206630Y0285070D01*
X0207020Y0285270D01*
X0207430Y0285420D01*
X0207840Y0285550D01*
X0208270Y0285640D01*
X0208700Y0285690D01*
X0209140Y0285710D01*
X0209140Y0285720D02*
X0218570Y0285720D01*
X0218570Y0285710D02*
X0219030Y0285670D01*
X0219490Y0285580D01*
X0219940Y0285460D01*
X0220370Y0285310D01*
X0220790Y0285110D01*
X0221200Y0284890D01*
X0221580Y0284630D01*
X0221940Y0284340D01*
X0222280Y0284020D01*
X0222590Y0283680D01*
X0222860Y0283310D01*
X0223110Y0282920D01*
X0223330Y0282510D01*
X0223510Y0282080D01*
X0223650Y0281640D01*
X0223760Y0281190D01*
X0223830Y0280730D01*
X0223860Y0280270D01*
X0223850Y0279810D01*
X0223850Y0208450D01*
X0217370Y0200720D02*
X0209000Y0200720D01*
X0202420Y0204650D02*
X0192780Y0216160D01*
X0192790Y0216170D02*
X0192690Y0216240D01*
X0192580Y0216300D01*
X0192460Y0216340D01*
X0192340Y0216350D01*
X0191090Y0216080D02*
X0181930Y0205050D01*
X0174390Y0200720D02*
X0166860Y0200720D01*
X0166310Y0200760D01*
X0165770Y0200840D01*
X0165230Y0200960D01*
X0164700Y0201120D01*
X0164190Y0201310D01*
X0163690Y0201540D01*
X0163210Y0201810D01*
X0162750Y0202110D01*
X0162310Y0202440D01*
X0161900Y0202800D01*
X0161510Y0203190D01*
X0161150Y0203610D01*
X0160820Y0204050D01*
X0160530Y0204510D01*
X0160270Y0205000D01*
X0160040Y0205500D01*
X0159850Y0206010D01*
X0159700Y0206540D01*
X0159590Y0207080D01*
X0159510Y0207620D01*
X0159470Y0208170D01*
X0159480Y0208720D01*
X0174390Y0200710D02*
X0175020Y0200810D01*
X0175640Y0200950D01*
X0176250Y0201120D01*
X0176860Y0201320D01*
X0177450Y0201560D01*
X0178030Y0201830D01*
X0178590Y0202130D01*
X0179130Y0202460D01*
X0179660Y0202820D01*
X0180160Y0203220D01*
X0180640Y0203640D01*
X0181100Y0204080D01*
X0181530Y0204550D01*
X0181930Y0205050D01*
X0191090Y0216080D02*
X0191280Y0216190D01*
X0191480Y0216280D01*
X0191690Y0216340D01*
X0191910Y0216370D01*
X0192130Y0216370D01*
X0192340Y0216340D01*
X0202420Y0204650D02*
X0202790Y0204170D01*
X0203200Y0203720D01*
X0203630Y0203300D01*
X0204080Y0202900D01*
X0204560Y0202530D01*
X0205060Y0202190D01*
X0205580Y0201880D01*
X0206110Y0201600D01*
X0206670Y0201350D01*
X0207230Y0201140D01*
X0207810Y0200960D01*
X0208400Y0200820D01*
X0208990Y0200720D01*
X0217370Y0200720D02*
X0217880Y0200780D01*
X0218380Y0200880D01*
X0218870Y0201010D01*
X0219350Y0201180D01*
X0219820Y0201380D01*
X0220270Y0201620D01*
X0220700Y0201890D01*
X0221120Y0202180D01*
X0221510Y0202510D01*
X0221870Y0202860D01*
X0222210Y0203240D01*
X0222530Y0203640D01*
X0222810Y0204060D01*
X0223060Y0204510D01*
X0223280Y0204960D01*
X0223470Y0205440D01*
X0223620Y0205920D01*
X0223740Y0206420D01*
X0223820Y0206920D01*
X0223870Y0207430D01*
X0223880Y0207940D01*
X0223850Y0208440D01*
X0231380Y0200710D02*
G75*
%LPD*%
D11*
X0238910Y0200720D02*
X0291030Y0200720D01*
X0291030Y0200710D02*
X0291350Y0200730D01*
X0291670Y0200780D01*
X0291980Y0200870D01*
X0292280Y0201000D01*
X0292560Y0201150D01*
X0292830Y0201340D01*
X0293070Y0201550D01*
X0293280Y0201790D01*
X0293470Y0202060D01*
X0293620Y0202340D01*
X0293750Y0202640D01*
X0293840Y0202950D01*
X0293890Y0203270D01*
X0293910Y0203590D01*
X0293910Y0215970D01*
X0293900Y0215960D02*
X0293850Y0216290D01*
X0293770Y0216620D01*
X0293650Y0216930D01*
X0293500Y0217230D01*
X0293320Y0217510D01*
X0293110Y0217770D01*
X0292880Y0218010D01*
X0292620Y0218230D01*
X0292340Y0218410D01*
X0292040Y0218560D01*
X0291730Y0218690D01*
X0291410Y0218780D01*
X0291080Y0218830D01*
X0290740Y0218850D01*
X0290410Y0218830D01*
X0290410Y0218840D02*
X0257030Y0218840D01*
X0256660Y0218830D01*
X0256280Y0218850D01*
X0255910Y0218910D01*
X0255550Y0219000D01*
X0255190Y0219130D01*
X0254850Y0219290D01*
X0254520Y0219470D01*
X0254220Y0219690D01*
X0253930Y0219940D01*
X0253670Y0220210D01*
X0253430Y0220500D01*
X0253230Y0220810D01*
X0253050Y0221140D01*
X0252900Y0221490D01*
X0252790Y0221850D01*
X0252710Y0222210D01*
X0252660Y0222590D01*
X0252660Y0233840D01*
X0252710Y0234160D01*
X0252800Y0234460D01*
X0252920Y0234750D01*
X0253070Y0235030D01*
X0253250Y0235290D01*
X0253470Y0235530D01*
X0253700Y0235740D01*
X0253960Y0235920D01*
X0254240Y0236080D01*
X0254530Y0236200D01*
X0254840Y0236290D01*
X0255150Y0236340D01*
X0255470Y0236360D01*
X0255780Y0236340D01*
X0270410Y0236340D01*
X0270410Y0236350D02*
X0270720Y0236330D01*
X0271030Y0236350D01*
X0271340Y0236400D01*
X0271630Y0236500D01*
X0271920Y0236620D01*
X0272180Y0236790D01*
X0272430Y0236980D01*
X0272650Y0237200D01*
X0272840Y0237440D01*
X0273000Y0237710D01*
X0273130Y0237990D01*
X0273220Y0238290D01*
X0273280Y0238600D01*
X0273280Y0238590D02*
X0273280Y0246580D01*
X0273270Y0246580D02*
X0273290Y0246910D01*
X0273270Y0247250D01*
X0273210Y0247580D01*
X0273130Y0247900D01*
X0273000Y0248220D01*
X0272850Y0248520D01*
X0272660Y0248800D01*
X0272450Y0249060D01*
X0272210Y0249290D01*
X0271950Y0249500D01*
X0271660Y0249680D01*
X0271360Y0249830D01*
X0271050Y0249950D01*
X0270720Y0250030D01*
X0270390Y0250080D01*
X0270400Y0250090D02*
X0255050Y0250090D01*
X0255050Y0250100D02*
X0254750Y0250150D01*
X0254450Y0250240D01*
X0254170Y0250350D01*
X0253910Y0250500D01*
X0253660Y0250680D01*
X0253430Y0250880D01*
X0253230Y0251110D01*
X0253050Y0251360D01*
X0252910Y0251630D01*
X0252790Y0251910D01*
X0252710Y0252200D01*
X0252660Y0252500D01*
X0252640Y0252810D01*
X0252660Y0253110D01*
X0252660Y0263590D01*
X0252680Y0263980D01*
X0252740Y0264370D01*
X0252830Y0264750D01*
X0252960Y0265120D01*
X0253130Y0265480D01*
X0253330Y0265810D01*
X0253570Y0266130D01*
X0253830Y0266420D01*
X0254120Y0266680D01*
X0254440Y0266920D01*
X0254770Y0267120D01*
X0255130Y0267290D01*
X0255500Y0267420D01*
X0255880Y0267510D01*
X0256270Y0267570D01*
X0256660Y0267590D01*
X0286640Y0267590D01*
X0287180Y0267670D01*
X0287710Y0267800D01*
X0288230Y0267960D01*
X0288740Y0268160D01*
X0289230Y0268390D01*
X0289700Y0268660D01*
X0290160Y0268960D01*
X0290590Y0269300D01*
X0290990Y0269660D01*
X0291370Y0270050D01*
X0291720Y0270470D01*
X0292040Y0270910D01*
X0292330Y0271380D01*
X0292590Y0271860D01*
X0292800Y0272360D01*
X0292990Y0272870D01*
X0293130Y0273400D01*
X0293240Y0273930D01*
X0293310Y0274470D01*
X0293340Y0275020D01*
X0293330Y0275560D01*
X0293280Y0276110D01*
X0293280Y0277710D01*
X0293310Y0278230D01*
X0293300Y0278760D01*
X0293250Y0279290D01*
X0293160Y0279810D01*
X0293040Y0280320D01*
X0292880Y0280830D01*
X0292680Y0281320D01*
X0292450Y0281800D01*
X0292190Y0282250D01*
X0291890Y0282690D01*
X0291560Y0283110D01*
X0291210Y0283500D01*
X0290830Y0283870D01*
X0290420Y0284200D01*
X0289990Y0284510D01*
X0289540Y0284790D01*
X0289070Y0285030D01*
X0288580Y0285240D01*
X0288080Y0285410D01*
X0287570Y0285550D01*
X0287050Y0285650D01*
X0286520Y0285710D01*
X0286520Y0285720D02*
X0237660Y0285720D01*
X0237660Y0285710D02*
X0237140Y0285650D01*
X0236640Y0285540D01*
X0236140Y0285400D01*
X0235660Y0285220D01*
X0235190Y0285010D01*
X0234740Y0284760D01*
X0234300Y0284480D01*
X0233890Y0284170D01*
X0233510Y0283820D01*
X0233150Y0283450D01*
X0232820Y0283060D01*
X0232520Y0282640D01*
X0232250Y0282190D01*
X0232020Y0281730D01*
X0231820Y0281260D01*
X0231660Y0280770D01*
X0231530Y0280270D01*
X0231440Y0279760D01*
X0231390Y0279250D01*
X0231380Y0278730D01*
X0231410Y0278220D01*
X0231410Y0208220D01*
X0231430Y0207680D01*
X0231490Y0207150D01*
X0231580Y0206630D01*
X0231710Y0206110D01*
X0231880Y0205600D01*
X0232090Y0205100D01*
X0232330Y0204630D01*
X0232600Y0204170D01*
X0232910Y0203730D01*
X0233240Y0203310D01*
X0233610Y0202920D01*
X0234000Y0202550D01*
X0234420Y0202220D01*
X0234860Y0201910D01*
X0235320Y0201640D01*
X0235790Y0201400D01*
X0236290Y0201190D01*
X0236800Y0201020D01*
X0237320Y0200890D01*
X0237840Y0200800D01*
X0238370Y0200740D01*
X0238910Y0200720D01*
X0301410Y0200710D02*
G75*
%LPD*%
D11*
X0304220Y0200710D02*
X0317470Y0200710D01*
X0317870Y0200760D01*
X0318250Y0200840D01*
X0318630Y0200960D01*
X0318990Y0201110D01*
X0319340Y0201300D01*
X0319670Y0201520D01*
X0319980Y0201760D01*
X0320270Y0202040D01*
X0320530Y0202340D01*
X0320750Y0202660D01*
X0320950Y0203000D01*
X0321120Y0203360D01*
X0321250Y0203730D01*
X0321350Y0204110D01*
X0321410Y0204500D01*
X0321440Y0204900D01*
X0321430Y0205290D01*
X0321430Y0217000D01*
X0321450Y0217460D01*
X0321510Y0217920D01*
X0321600Y0218370D01*
X0321730Y0218820D01*
X0321900Y0219250D01*
X0322100Y0219660D01*
X0322340Y0220060D01*
X0322610Y0220430D01*
X0322910Y0220790D01*
X0323230Y0221110D01*
X0323590Y0221410D01*
X0323960Y0221680D01*
X0324360Y0221920D01*
X0324770Y0222120D01*
X0325200Y0222290D01*
X0325650Y0222420D01*
X0326100Y0222510D01*
X0326560Y0222570D01*
X0327020Y0222590D01*
X0329910Y0222590D01*
X0334350Y0220390D02*
X0347380Y0203360D01*
X0351470Y0200710D02*
X0361640Y0200710D01*
X0362010Y0200730D01*
X0362380Y0200790D01*
X0362730Y0200880D01*
X0363080Y0201020D01*
X0363410Y0201180D01*
X0363720Y0201390D01*
X0364010Y0201620D01*
X0364270Y0201880D01*
X0364500Y0202170D01*
X0364710Y0202480D01*
X0364870Y0202810D01*
X0365010Y0203160D01*
X0365100Y0203510D01*
X0365160Y0203880D01*
X0365180Y0204250D01*
X0365180Y0211010D01*
X0361410Y0220730D02*
X0361360Y0220780D01*
X0361370Y0220780D02*
X0360940Y0221240D01*
X0360530Y0221720D01*
X0360160Y0222230D01*
X0359820Y0222760D01*
X0359510Y0223310D01*
X0359230Y0223880D01*
X0358990Y0224460D01*
X0358780Y0225050D01*
X0358610Y0225660D01*
X0358480Y0226280D01*
X0358390Y0226900D01*
X0358330Y0227530D01*
X0358310Y0228160D01*
X0362050Y0236960D02*
X0362050Y0236960D01*
X0365180Y0244510D02*
X0365180Y0265090D01*
X0362080Y0272560D02*
X0352730Y0281910D01*
X0342040Y0286340D02*
X0318810Y0286340D01*
X0318800Y0286340D02*
X0317990Y0286330D01*
X0317180Y0286290D01*
X0316370Y0286210D01*
X0315570Y0286090D01*
X0314770Y0285930D01*
X0313980Y0285730D01*
X0313200Y0285500D01*
X0312440Y0285230D01*
X0311680Y0284920D01*
X0310950Y0284580D01*
X0310230Y0284210D01*
X0309530Y0283800D01*
X0308840Y0283350D01*
X0308190Y0282880D01*
X0307550Y0282370D01*
X0306940Y0281840D01*
X0306350Y0281270D01*
X0305800Y0280680D01*
X0305270Y0280070D01*
X0304770Y0279420D01*
X0304300Y0278760D01*
X0303870Y0278070D01*
X0303460Y0277370D01*
X0303100Y0276640D01*
X0302760Y0275900D01*
X0302460Y0275150D01*
X0302200Y0274380D01*
X0301980Y0273600D01*
X0301790Y0272810D01*
X0301640Y0272010D01*
X0301530Y0271200D01*
X0301460Y0270390D01*
X0301420Y0269580D01*
X0301430Y0269580D02*
X0301430Y0204130D01*
X0301410Y0203810D01*
X0301430Y0203480D01*
X0301480Y0203160D01*
X0301570Y0202840D01*
X0301690Y0202540D01*
X0301840Y0202250D01*
X0302010Y0201970D01*
X0302220Y0201720D01*
X0302450Y0201490D01*
X0302710Y0201290D01*
X0302980Y0201110D01*
X0303270Y0200960D01*
X0303580Y0200850D01*
X0303900Y0200770D01*
X0304220Y0200720D01*
X0329910Y0222590D02*
X0330380Y0222570D01*
X0330840Y0222510D01*
X0331290Y0222420D01*
X0331740Y0222280D01*
X0332180Y0222110D01*
X0332590Y0221900D01*
X0332990Y0221660D01*
X0333370Y0221390D01*
X0333720Y0221090D01*
X0334050Y0220750D01*
X0334350Y0220400D01*
X0361410Y0220730D02*
X0361890Y0220210D01*
X0362340Y0219650D01*
X0362760Y0219080D01*
X0363150Y0218480D01*
X0363510Y0217860D01*
X0363830Y0217230D01*
X0364130Y0216580D01*
X0364380Y0215910D01*
X0364610Y0215230D01*
X0364790Y0214540D01*
X0364940Y0213850D01*
X0365060Y0213140D01*
X0365130Y0212430D01*
X0365170Y0211720D01*
X0365180Y0211010D01*
X0351480Y0200720D02*
X0351020Y0200790D01*
X0350580Y0200900D01*
X0350140Y0201040D01*
X0349720Y0201230D01*
X0349320Y0201440D01*
X0348930Y0201690D01*
X0348570Y0201970D01*
X0348230Y0202280D01*
X0347920Y0202620D01*
X0347640Y0202980D01*
X0347390Y0203360D01*
X0358300Y0228160D02*
X0358320Y0228810D01*
X0358380Y0229470D01*
X0358470Y0230110D01*
X0358600Y0230760D01*
X0358760Y0231390D01*
X0358950Y0232020D01*
X0359180Y0232630D01*
X0359430Y0233230D01*
X0359720Y0233820D01*
X0360040Y0234390D01*
X0360390Y0234950D01*
X0360760Y0235480D01*
X0361170Y0236000D01*
X0361600Y0236490D01*
X0362050Y0236960D01*
X0362060Y0236960D02*
X0362500Y0237430D01*
X0362910Y0237930D01*
X0363290Y0238450D01*
X0363640Y0238990D01*
X0363960Y0239550D01*
X0364240Y0240130D01*
X0364490Y0240730D01*
X0364700Y0241340D01*
X0364870Y0241960D01*
X0365010Y0242590D01*
X0365100Y0243220D01*
X0365160Y0243870D01*
X0365180Y0244510D01*
X0362060Y0236960D02*
X0362050Y0236950D01*
X0365170Y0265090D02*
X0365150Y0265730D01*
X0365090Y0266360D01*
X0365000Y0266990D01*
X0364860Y0267620D01*
X0364690Y0268230D01*
X0364480Y0268830D01*
X0364240Y0269420D01*
X0363960Y0270000D01*
X0363650Y0270550D01*
X0363300Y0271090D01*
X0362920Y0271600D01*
X0362510Y0272090D01*
X0362080Y0272560D01*
X0352730Y0281910D02*
X0352190Y0282420D01*
X0351630Y0282910D01*
X0351050Y0283360D01*
X0350440Y0283790D01*
X0349810Y0284190D01*
X0349170Y0284550D01*
X0348500Y0284890D01*
X0347830Y0285190D01*
X0347130Y0285460D01*
X0346430Y0285690D01*
X0345710Y0285890D01*
X0344990Y0286050D01*
X0344260Y0286180D01*
X0343520Y0286270D01*
X0342780Y0286320D01*
X0342040Y0286340D01*
X0321930Y0253840D02*
X0321950Y0254530D01*
X0322010Y0255220D01*
X0322110Y0255900D01*
X0322250Y0256580D01*
X0322420Y0257250D01*
X0322640Y0257910D01*
X0322890Y0258550D01*
X0323180Y0259180D01*
X0323510Y0259790D01*
X0323870Y0260380D01*
X0324260Y0260950D01*
X0324690Y0261490D01*
X0325140Y0262010D01*
X0325630Y0262510D01*
X0326140Y0262970D01*
X0326680Y0263400D01*
X0327250Y0263810D01*
X0327830Y0264170D01*
X0328440Y0264510D01*
X0329060Y0264810D01*
X0329700Y0265070D01*
X0330350Y0265290D01*
X0331020Y0265480D01*
X0331700Y0265630D01*
X0332380Y0265740D01*
X0333070Y0265810D01*
X0333760Y0265840D01*
X0334450Y0265830D01*
X0335140Y0265780D01*
X0335820Y0265690D01*
X0336500Y0265560D01*
X0337170Y0265390D01*
X0337840Y0265190D01*
X0338480Y0264940D01*
X0339110Y0264660D01*
X0339730Y0264350D01*
X0340320Y0263990D01*
X0340900Y0263610D01*
X0341450Y0263190D01*
X0341980Y0262740D01*
X0342480Y0262260D01*
X0342950Y0261760D01*
X0343390Y0261220D01*
X0343800Y0260670D01*
X0344180Y0260090D01*
X0344520Y0259490D01*
X0344830Y0258870D01*
X0345100Y0258230D01*
X0345330Y0257580D01*
X0345530Y0256920D01*
X0345690Y0256240D01*
X0345810Y0255560D01*
X0345890Y0254880D01*
X0345930Y0254190D01*
X0345930Y0253490D01*
X0345890Y0252800D01*
X0345810Y0252120D01*
X0345690Y0251440D01*
X0345530Y0250760D01*
X0345330Y0250100D01*
X0345100Y0249450D01*
X0344830Y0248810D01*
X0344520Y0248190D01*
X0344180Y0247590D01*
X0343800Y0247010D01*
X0343390Y0246460D01*
X0342950Y0245920D01*
X0342480Y0245420D01*
X0341980Y0244940D01*
X0341450Y0244490D01*
X0340900Y0244070D01*
X0340320Y0243690D01*
X0339730Y0243330D01*
X0339110Y0243020D01*
X0338480Y0242740D01*
X0337840Y0242490D01*
X0337170Y0242290D01*
X0336500Y0242120D01*
X0335820Y0241990D01*
X0335140Y0241900D01*
X0334450Y0241850D01*
X0333760Y0241840D01*
X0333070Y0241870D01*
X0332380Y0241940D01*
X0331700Y0242050D01*
X0331020Y0242200D01*
X0330350Y0242390D01*
X0329700Y0242610D01*
X0329060Y0242870D01*
X0328440Y0243170D01*
X0327830Y0243510D01*
X0327250Y0243870D01*
X0326680Y0244280D01*
X0326140Y0244710D01*
X0325630Y0245170D01*
X0325140Y0245670D01*
X0324690Y0246190D01*
X0324260Y0246730D01*
X0323870Y0247300D01*
X0323510Y0247890D01*
X0323180Y0248500D01*
X0322890Y0249130D01*
X0322640Y0249770D01*
X0322420Y0250430D01*
X0322250Y0251100D01*
X0322110Y0251780D01*
X0322010Y0252460D01*
X0321950Y0253150D01*
X0321930Y0253840D01*
X0012500Y0295090D02*
G75*
%LPD*%
D11*
X0035000Y0295090D02*
X0055000Y0295090D01*
X0055000Y0360090D01*
X0077500Y0360090D01*
X0077500Y0381340D01*
X0012500Y0381340D01*
X0012500Y0360090D01*
X0035000Y0360090D01*
X0035000Y0295090D01*
X0085000Y0295090D02*
G75*
%LPD*%
D11*
X0085040Y0310790D02*
X0085040Y0360160D01*
X0085000Y0361030D01*
X0085010Y0361910D01*
X0085050Y0362780D01*
X0085130Y0363650D01*
X0085240Y0364520D01*
X0085400Y0365380D01*
X0085590Y0366230D01*
X0085820Y0367080D01*
X0086080Y0367910D01*
X0086380Y0368730D01*
X0086720Y0369540D01*
X0087090Y0370330D01*
X0087500Y0371100D01*
X0087940Y0371860D01*
X0088410Y0372590D01*
X0088910Y0373310D01*
X0089450Y0374000D01*
X0090010Y0374670D01*
X0090610Y0375310D01*
X0091230Y0375930D01*
X0091870Y0376520D01*
X0092540Y0377080D01*
X0093240Y0377610D01*
X0093960Y0378110D01*
X0094700Y0378570D01*
X0095450Y0379010D01*
X0096230Y0379410D01*
X0097020Y0379780D01*
X0097830Y0380110D01*
X0098660Y0380410D01*
X0099490Y0380670D01*
X0100340Y0380890D01*
X0101190Y0381080D01*
X0102050Y0381230D01*
X0102920Y0381340D01*
X0103790Y0381410D01*
X0130670Y0381410D01*
X0130660Y0381410D02*
X0131540Y0381420D01*
X0132410Y0381390D01*
X0133280Y0381320D01*
X0134150Y0381210D01*
X0135010Y0381070D01*
X0135860Y0380890D01*
X0136710Y0380670D01*
X0137540Y0380420D01*
X0138370Y0380130D01*
X0139180Y0379800D01*
X0139970Y0379440D01*
X0140750Y0379040D01*
X0141510Y0378610D01*
X0142250Y0378150D01*
X0142970Y0377660D01*
X0143670Y0377130D01*
X0144340Y0376580D01*
X0144990Y0375990D01*
X0145610Y0375380D01*
X0146210Y0374740D01*
X0146780Y0374080D01*
X0147310Y0373390D01*
X0147820Y0372680D01*
X0148300Y0371950D01*
X0148740Y0371200D01*
X0149150Y0370430D01*
X0149530Y0369640D01*
X0149870Y0368840D01*
X0150180Y0368020D01*
X0150450Y0367190D01*
X0150680Y0366350D01*
X0150880Y0365500D01*
X0151040Y0364640D01*
X0151160Y0363780D01*
X0151240Y0362910D01*
X0151290Y0362040D01*
X0151290Y0315790D01*
X0151300Y0315790D02*
X0151340Y0314920D01*
X0151330Y0314050D01*
X0151290Y0313180D01*
X0151210Y0312310D01*
X0151090Y0311450D01*
X0150930Y0310590D01*
X0150740Y0309740D01*
X0150500Y0308900D01*
X0150230Y0308070D01*
X0149920Y0307260D01*
X0149580Y0306460D01*
X0149200Y0305670D01*
X0148780Y0304910D01*
X0148330Y0304160D01*
X0147850Y0303430D01*
X0147340Y0302730D01*
X0146790Y0302050D01*
X0146220Y0301400D01*
X0145610Y0300770D01*
X0144980Y0300170D01*
X0144320Y0299600D01*
X0143640Y0299060D01*
X0142930Y0298540D01*
X0142200Y0298070D01*
X0141460Y0297620D01*
X0140690Y0297210D01*
X0139900Y0296840D01*
X0139100Y0296500D01*
X0138280Y0296190D01*
X0137450Y0295920D01*
X0136610Y0295690D01*
X0135760Y0295500D01*
X0134900Y0295350D01*
X0134040Y0295240D01*
X0133170Y0295160D01*
X0133790Y0295160D02*
X0103790Y0295160D01*
X0102970Y0295110D01*
X0102150Y0295090D01*
X0101330Y0295110D01*
X0100510Y0295180D01*
X0099700Y0295280D01*
X0098890Y0295420D01*
X0098080Y0295600D01*
X0097290Y0295810D01*
X0096510Y0296070D01*
X0095740Y0296360D01*
X0094990Y0296680D01*
X0094250Y0297040D01*
X0093530Y0297440D01*
X0092830Y0297870D01*
X0092150Y0298340D01*
X0091500Y0298830D01*
X0090870Y0299360D01*
X0090260Y0299910D01*
X0089680Y0300500D01*
X0089130Y0301110D01*
X0088610Y0301740D01*
X0088130Y0302400D01*
X0087670Y0303080D01*
X0087240Y0303790D01*
X0086850Y0304510D01*
X0086500Y0305250D01*
X0086180Y0306010D01*
X0085890Y0306780D01*
X0085650Y0307560D01*
X0085440Y0308360D01*
X0085270Y0309160D01*
X0085130Y0309970D01*
X0085040Y0310790D01*
X0105670Y0328290D02*
X0105670Y0349540D01*
X0105780Y0350230D01*
X0105930Y0350900D01*
X0106120Y0351570D01*
X0106340Y0352230D01*
X0106600Y0352870D01*
X0106890Y0353500D01*
X0107220Y0354110D01*
X0107580Y0354700D01*
X0107980Y0355270D01*
X0108400Y0355820D01*
X0108850Y0356340D01*
X0109340Y0356840D01*
X0109850Y0357310D01*
X0110380Y0357750D01*
X0110940Y0358160D01*
X0111520Y0358540D01*
X0112120Y0358890D01*
X0112730Y0359200D01*
X0113370Y0359480D01*
X0114020Y0359730D01*
X0114680Y0359940D01*
X0115350Y0360110D01*
X0116030Y0360240D01*
X0116710Y0360340D01*
X0117410Y0360400D01*
X0118100Y0360420D01*
X0118790Y0360400D01*
X0119480Y0360350D01*
X0120170Y0360250D01*
X0120850Y0360120D01*
X0121520Y0359950D01*
X0122180Y0359750D01*
X0122830Y0359510D01*
X0123470Y0359230D01*
X0124090Y0358920D01*
X0124690Y0358570D01*
X0125270Y0358200D01*
X0125830Y0357790D01*
X0126370Y0357350D01*
X0126880Y0356880D01*
X0127360Y0356390D01*
X0127820Y0355860D01*
X0128250Y0355320D01*
X0128640Y0354750D01*
X0129010Y0354160D01*
X0129340Y0353550D01*
X0129640Y0352930D01*
X0129900Y0352290D01*
X0130130Y0351630D01*
X0130320Y0350960D01*
X0130470Y0350290D01*
X0130590Y0349600D01*
X0130660Y0348920D01*
X0130670Y0348910D02*
X0130670Y0327660D01*
X0130660Y0327660D02*
X0130550Y0326970D01*
X0130400Y0326300D01*
X0130210Y0325630D01*
X0129990Y0324970D01*
X0129730Y0324330D01*
X0129440Y0323700D01*
X0129110Y0323090D01*
X0128750Y0322500D01*
X0128350Y0321930D01*
X0127930Y0321380D01*
X0127480Y0320860D01*
X0126990Y0320360D01*
X0126480Y0319890D01*
X0125950Y0319450D01*
X0125390Y0319040D01*
X0124810Y0318660D01*
X0124210Y0318310D01*
X0123600Y0318000D01*
X0122960Y0317720D01*
X0122310Y0317470D01*
X0121650Y0317260D01*
X0120980Y0317090D01*
X0120300Y0316960D01*
X0119620Y0316860D01*
X0118920Y0316800D01*
X0118230Y0316780D01*
X0117540Y0316800D01*
X0116850Y0316850D01*
X0116160Y0316950D01*
X0115480Y0317080D01*
X0114810Y0317250D01*
X0114150Y0317450D01*
X0113500Y0317690D01*
X0112860Y0317970D01*
X0112240Y0318280D01*
X0111640Y0318630D01*
X0111060Y0319000D01*
X0110500Y0319410D01*
X0109960Y0319850D01*
X0109450Y0320320D01*
X0108970Y0320810D01*
X0108510Y0321340D01*
X0108080Y0321880D01*
X0107690Y0322450D01*
X0107320Y0323040D01*
X0106990Y0323650D01*
X0106690Y0324270D01*
X0106430Y0324910D01*
X0106200Y0325570D01*
X0106010Y0326240D01*
X0105860Y0326910D01*
X0105740Y0327600D01*
X0105670Y0328280D01*
X0158840Y0295090D02*
G75*
%LPD*%
D11*
X0158850Y0303100D02*
X0158850Y0374680D01*
X0158870Y0375130D01*
X0158920Y0375570D01*
X0159020Y0376010D01*
X0159140Y0376440D01*
X0159310Y0376850D01*
X0159500Y0377250D01*
X0159730Y0377640D01*
X0159990Y0378000D01*
X0160280Y0378340D01*
X0160600Y0378660D01*
X0160940Y0378950D01*
X0161300Y0379210D01*
X0161690Y0379440D01*
X0162090Y0379630D01*
X0162500Y0379800D01*
X0162930Y0379920D01*
X0163370Y0380020D01*
X0163810Y0380070D01*
X0164260Y0380090D01*
X0164260Y0380100D02*
X0173650Y0380100D01*
X0174110Y0380060D01*
X0174560Y0379970D01*
X0175000Y0379860D01*
X0175430Y0379700D01*
X0175840Y0379510D01*
X0176240Y0379290D01*
X0176620Y0379030D01*
X0176970Y0378750D01*
X0177300Y0378430D01*
X0177610Y0378090D01*
X0177880Y0377730D01*
X0178120Y0377340D01*
X0178340Y0376940D01*
X0178510Y0376520D01*
X0178650Y0376080D01*
X0178760Y0375640D01*
X0178830Y0375190D01*
X0178860Y0374730D01*
X0178850Y0374280D01*
X0178850Y0339470D01*
X0178840Y0339470D02*
X0178830Y0339110D01*
X0178850Y0338750D01*
X0178910Y0338400D01*
X0179010Y0338050D01*
X0179140Y0337720D01*
X0179300Y0337400D01*
X0179500Y0337100D01*
X0179730Y0336820D01*
X0179980Y0336560D01*
X0180260Y0336340D01*
X0180560Y0336140D01*
X0180870Y0335970D01*
X0181210Y0335840D01*
X0181550Y0335740D01*
X0181910Y0335680D01*
X0182270Y0335650D01*
X0182630Y0335660D01*
X0182980Y0335710D01*
X0183330Y0335790D01*
X0183670Y0335910D01*
X0184000Y0336070D01*
X0184300Y0336250D01*
X0184590Y0336470D01*
X0190020Y0343150D01*
X0190220Y0343330D01*
X0190450Y0343470D01*
X0190690Y0343580D01*
X0190950Y0343660D01*
X0191220Y0343700D01*
X0191480Y0343700D01*
X0191750Y0343660D01*
X0192010Y0343580D01*
X0192250Y0343470D01*
X0192480Y0343330D01*
X0192680Y0343150D01*
X0192670Y0343150D02*
X0198200Y0336370D01*
X0198430Y0336140D01*
X0198680Y0335940D01*
X0198960Y0335770D01*
X0199250Y0335640D01*
X0199560Y0335530D01*
X0199880Y0335470D01*
X0200200Y0335430D01*
X0200520Y0335440D01*
X0200850Y0335480D01*
X0201160Y0335550D01*
X0201470Y0335660D01*
X0201760Y0335810D01*
X0202030Y0335980D01*
X0202280Y0336190D01*
X0202510Y0336420D01*
X0202710Y0336670D01*
X0202880Y0336950D01*
X0203010Y0337240D01*
X0203120Y0337550D01*
X0203180Y0337870D01*
X0203220Y0338190D01*
X0203220Y0374810D01*
X0203230Y0374810D02*
X0203250Y0375250D01*
X0203300Y0375680D01*
X0203390Y0376110D01*
X0203520Y0376520D01*
X0203670Y0376930D01*
X0203870Y0377320D01*
X0204090Y0377700D01*
X0204340Y0378050D01*
X0204630Y0378390D01*
X0204930Y0378690D01*
X0205270Y0378980D01*
X0205620Y0379230D01*
X0206000Y0379450D01*
X0206390Y0379650D01*
X0206800Y0379800D01*
X0207210Y0379930D01*
X0207640Y0380020D01*
X0208070Y0380070D01*
X0208510Y0380090D01*
X0208510Y0380100D02*
X0217940Y0380100D01*
X0217940Y0380090D02*
X0218400Y0380050D01*
X0218860Y0379960D01*
X0219310Y0379840D01*
X0219740Y0379690D01*
X0220160Y0379490D01*
X0220570Y0379270D01*
X0220950Y0379010D01*
X0221310Y0378720D01*
X0221650Y0378400D01*
X0221960Y0378060D01*
X0222230Y0377690D01*
X0222480Y0377300D01*
X0222700Y0376890D01*
X0222880Y0376460D01*
X0223020Y0376020D01*
X0223130Y0375570D01*
X0223200Y0375110D01*
X0223230Y0374650D01*
X0223220Y0374190D01*
X0223220Y0302830D01*
X0216740Y0295100D02*
X0208370Y0295100D01*
X0201790Y0299030D02*
X0192150Y0310540D01*
X0192160Y0310550D02*
X0192060Y0310620D01*
X0191950Y0310680D01*
X0191830Y0310720D01*
X0191710Y0310730D01*
X0190460Y0310460D02*
X0181300Y0299430D01*
X0173760Y0295100D02*
X0166230Y0295100D01*
X0165680Y0295140D01*
X0165140Y0295220D01*
X0164600Y0295340D01*
X0164070Y0295500D01*
X0163560Y0295690D01*
X0163060Y0295920D01*
X0162580Y0296190D01*
X0162120Y0296490D01*
X0161680Y0296820D01*
X0161270Y0297180D01*
X0160880Y0297570D01*
X0160520Y0297990D01*
X0160190Y0298430D01*
X0159900Y0298890D01*
X0159640Y0299380D01*
X0159410Y0299880D01*
X0159220Y0300390D01*
X0159070Y0300920D01*
X0158960Y0301460D01*
X0158880Y0302000D01*
X0158840Y0302550D01*
X0158850Y0303100D01*
X0173760Y0295090D02*
X0174390Y0295190D01*
X0175010Y0295330D01*
X0175620Y0295500D01*
X0176230Y0295700D01*
X0176820Y0295940D01*
X0177400Y0296210D01*
X0177960Y0296510D01*
X0178500Y0296840D01*
X0179030Y0297200D01*
X0179530Y0297600D01*
X0180010Y0298020D01*
X0180470Y0298460D01*
X0180900Y0298930D01*
X0181300Y0299430D01*
X0190460Y0310460D02*
X0190650Y0310570D01*
X0190850Y0310660D01*
X0191060Y0310720D01*
X0191280Y0310750D01*
X0191500Y0310750D01*
X0191710Y0310720D01*
X0201790Y0299030D02*
X0202160Y0298550D01*
X0202570Y0298100D01*
X0203000Y0297680D01*
X0203450Y0297280D01*
X0203930Y0296910D01*
X0204430Y0296570D01*
X0204950Y0296260D01*
X0205480Y0295980D01*
X0206040Y0295730D01*
X0206600Y0295520D01*
X0207180Y0295340D01*
X0207770Y0295200D01*
X0208360Y0295100D01*
X0216740Y0295100D02*
X0217250Y0295160D01*
X0217750Y0295260D01*
X0218240Y0295390D01*
X0218720Y0295560D01*
X0219190Y0295760D01*
X0219640Y0296000D01*
X0220070Y0296270D01*
X0220490Y0296560D01*
X0220880Y0296890D01*
X0221240Y0297240D01*
X0221580Y0297620D01*
X0221900Y0298020D01*
X0222180Y0298440D01*
X0222430Y0298890D01*
X0222650Y0299340D01*
X0222840Y0299820D01*
X0222990Y0300300D01*
X0223110Y0300800D01*
X0223190Y0301300D01*
X0223240Y0301810D01*
X0223250Y0302320D01*
X0223220Y0302820D01*
X0230750Y0295090D02*
G75*
%LPD*%
D11*
X0238280Y0295100D02*
X0290400Y0295100D01*
X0290400Y0295090D02*
X0290720Y0295110D01*
X0291040Y0295160D01*
X0291350Y0295250D01*
X0291650Y0295380D01*
X0291930Y0295530D01*
X0292200Y0295720D01*
X0292440Y0295930D01*
X0292650Y0296170D01*
X0292840Y0296440D01*
X0292990Y0296720D01*
X0293120Y0297020D01*
X0293210Y0297330D01*
X0293260Y0297650D01*
X0293280Y0297970D01*
X0293280Y0310350D01*
X0293270Y0310340D02*
X0293220Y0310670D01*
X0293140Y0311000D01*
X0293020Y0311310D01*
X0292870Y0311610D01*
X0292690Y0311890D01*
X0292480Y0312150D01*
X0292250Y0312390D01*
X0291990Y0312610D01*
X0291710Y0312790D01*
X0291410Y0312940D01*
X0291100Y0313070D01*
X0290780Y0313160D01*
X0290450Y0313210D01*
X0290110Y0313230D01*
X0289780Y0313210D01*
X0289780Y0313220D02*
X0256400Y0313220D01*
X0256030Y0313210D01*
X0255650Y0313230D01*
X0255280Y0313290D01*
X0254920Y0313380D01*
X0254560Y0313510D01*
X0254220Y0313670D01*
X0253890Y0313850D01*
X0253590Y0314070D01*
X0253300Y0314320D01*
X0253040Y0314590D01*
X0252800Y0314880D01*
X0252600Y0315190D01*
X0252420Y0315520D01*
X0252270Y0315870D01*
X0252160Y0316230D01*
X0252080Y0316590D01*
X0252030Y0316970D01*
X0252030Y0328220D01*
X0252080Y0328540D01*
X0252170Y0328840D01*
X0252290Y0329130D01*
X0252440Y0329410D01*
X0252620Y0329670D01*
X0252840Y0329910D01*
X0253070Y0330120D01*
X0253330Y0330300D01*
X0253610Y0330460D01*
X0253900Y0330580D01*
X0254210Y0330670D01*
X0254520Y0330720D01*
X0254840Y0330740D01*
X0255150Y0330720D01*
X0269780Y0330720D01*
X0269780Y0330730D02*
X0270090Y0330710D01*
X0270400Y0330730D01*
X0270710Y0330780D01*
X0271000Y0330880D01*
X0271290Y0331000D01*
X0271550Y0331170D01*
X0271800Y0331360D01*
X0272020Y0331580D01*
X0272210Y0331820D01*
X0272370Y0332090D01*
X0272500Y0332370D01*
X0272590Y0332670D01*
X0272650Y0332980D01*
X0272650Y0332970D02*
X0272650Y0340960D01*
X0272640Y0340960D02*
X0272660Y0341290D01*
X0272640Y0341630D01*
X0272580Y0341960D01*
X0272500Y0342280D01*
X0272370Y0342600D01*
X0272220Y0342900D01*
X0272030Y0343180D01*
X0271820Y0343440D01*
X0271580Y0343670D01*
X0271320Y0343880D01*
X0271030Y0344060D01*
X0270730Y0344210D01*
X0270420Y0344330D01*
X0270090Y0344410D01*
X0269760Y0344460D01*
X0269770Y0344470D02*
X0254420Y0344470D01*
X0254420Y0344480D02*
X0254120Y0344530D01*
X0253820Y0344620D01*
X0253540Y0344730D01*
X0253280Y0344880D01*
X0253030Y0345060D01*
X0252800Y0345260D01*
X0252600Y0345490D01*
X0252420Y0345740D01*
X0252280Y0346010D01*
X0252160Y0346290D01*
X0252080Y0346580D01*
X0252030Y0346880D01*
X0252010Y0347190D01*
X0252030Y0347490D01*
X0252030Y0357970D01*
X0252050Y0358360D01*
X0252110Y0358750D01*
X0252200Y0359130D01*
X0252330Y0359500D01*
X0252500Y0359860D01*
X0252700Y0360190D01*
X0252940Y0360510D01*
X0253200Y0360800D01*
X0253490Y0361060D01*
X0253810Y0361300D01*
X0254140Y0361500D01*
X0254500Y0361670D01*
X0254870Y0361800D01*
X0255250Y0361890D01*
X0255640Y0361950D01*
X0256030Y0361970D01*
X0286010Y0361970D01*
X0286550Y0362050D01*
X0287080Y0362180D01*
X0287600Y0362340D01*
X0288110Y0362540D01*
X0288600Y0362770D01*
X0289070Y0363040D01*
X0289530Y0363340D01*
X0289960Y0363680D01*
X0290360Y0364040D01*
X0290740Y0364430D01*
X0291090Y0364850D01*
X0291410Y0365290D01*
X0291700Y0365760D01*
X0291960Y0366240D01*
X0292170Y0366740D01*
X0292360Y0367250D01*
X0292500Y0367780D01*
X0292610Y0368310D01*
X0292680Y0368850D01*
X0292710Y0369400D01*
X0292700Y0369940D01*
X0292650Y0370490D01*
X0292650Y0372090D01*
X0292680Y0372610D01*
X0292670Y0373140D01*
X0292620Y0373670D01*
X0292530Y0374190D01*
X0292410Y0374700D01*
X0292250Y0375210D01*
X0292050Y0375700D01*
X0291820Y0376180D01*
X0291560Y0376630D01*
X0291260Y0377070D01*
X0290930Y0377490D01*
X0290580Y0377880D01*
X0290200Y0378250D01*
X0289790Y0378580D01*
X0289360Y0378890D01*
X0288910Y0379170D01*
X0288440Y0379410D01*
X0287950Y0379620D01*
X0287450Y0379790D01*
X0286940Y0379930D01*
X0286420Y0380030D01*
X0285890Y0380090D01*
X0285890Y0380100D02*
X0237030Y0380100D01*
X0237030Y0380090D02*
X0236510Y0380030D01*
X0236010Y0379920D01*
X0235510Y0379780D01*
X0235030Y0379600D01*
X0234560Y0379390D01*
X0234110Y0379140D01*
X0233670Y0378860D01*
X0233260Y0378550D01*
X0232880Y0378200D01*
X0232520Y0377830D01*
X0232190Y0377440D01*
X0231890Y0377020D01*
X0231620Y0376570D01*
X0231390Y0376110D01*
X0231190Y0375640D01*
X0231030Y0375150D01*
X0230900Y0374650D01*
X0230810Y0374140D01*
X0230760Y0373630D01*
X0230750Y0373110D01*
X0230780Y0372600D01*
X0230780Y0302600D01*
X0230800Y0302060D01*
X0230860Y0301530D01*
X0230950Y0301010D01*
X0231080Y0300490D01*
X0231250Y0299980D01*
X0231460Y0299480D01*
X0231700Y0299010D01*
X0231970Y0298550D01*
X0232280Y0298110D01*
X0232610Y0297690D01*
X0232980Y0297300D01*
X0233370Y0296930D01*
X0233790Y0296600D01*
X0234230Y0296290D01*
X0234690Y0296020D01*
X0235160Y0295780D01*
X0235660Y0295570D01*
X0236170Y0295400D01*
X0236690Y0295270D01*
X0237210Y0295180D01*
X0237740Y0295120D01*
X0238280Y0295100D01*
X0300780Y0295090D02*
G75*
%LPD*%
D11*
X0303590Y0295090D02*
X0316840Y0295090D01*
X0317240Y0295140D01*
X0317620Y0295220D01*
X0318000Y0295340D01*
X0318360Y0295490D01*
X0318710Y0295680D01*
X0319040Y0295900D01*
X0319350Y0296140D01*
X0319640Y0296420D01*
X0319900Y0296720D01*
X0320120Y0297040D01*
X0320320Y0297380D01*
X0320490Y0297740D01*
X0320620Y0298110D01*
X0320720Y0298490D01*
X0320780Y0298880D01*
X0320810Y0299280D01*
X0320800Y0299670D01*
X0320800Y0311380D01*
X0320820Y0311840D01*
X0320880Y0312300D01*
X0320970Y0312750D01*
X0321100Y0313200D01*
X0321270Y0313630D01*
X0321470Y0314040D01*
X0321710Y0314440D01*
X0321980Y0314810D01*
X0322280Y0315170D01*
X0322600Y0315490D01*
X0322960Y0315790D01*
X0323330Y0316060D01*
X0323730Y0316300D01*
X0324140Y0316500D01*
X0324570Y0316670D01*
X0325020Y0316800D01*
X0325470Y0316890D01*
X0325930Y0316950D01*
X0326390Y0316970D01*
X0329280Y0316970D01*
X0333720Y0314770D02*
X0346750Y0297740D01*
X0350840Y0295090D02*
X0361010Y0295090D01*
X0361380Y0295110D01*
X0361750Y0295170D01*
X0362100Y0295260D01*
X0362450Y0295400D01*
X0362780Y0295560D01*
X0363090Y0295770D01*
X0363380Y0296000D01*
X0363640Y0296260D01*
X0363870Y0296550D01*
X0364080Y0296860D01*
X0364240Y0297190D01*
X0364380Y0297540D01*
X0364470Y0297890D01*
X0364530Y0298260D01*
X0364550Y0298630D01*
X0364550Y0305390D01*
X0360780Y0315110D02*
X0360730Y0315160D01*
X0360740Y0315160D02*
X0360310Y0315620D01*
X0359900Y0316100D01*
X0359530Y0316610D01*
X0359190Y0317140D01*
X0358880Y0317690D01*
X0358600Y0318260D01*
X0358360Y0318840D01*
X0358150Y0319430D01*
X0357980Y0320040D01*
X0357850Y0320660D01*
X0357760Y0321280D01*
X0357700Y0321910D01*
X0357680Y0322540D01*
X0361420Y0331340D02*
X0361420Y0331340D01*
X0364550Y0338890D02*
X0364550Y0359470D01*
X0361450Y0366940D02*
X0352100Y0376290D01*
X0341410Y0380720D02*
X0318180Y0380720D01*
X0318170Y0380720D02*
X0317360Y0380710D01*
X0316550Y0380670D01*
X0315740Y0380590D01*
X0314940Y0380470D01*
X0314140Y0380310D01*
X0313350Y0380110D01*
X0312570Y0379880D01*
X0311810Y0379610D01*
X0311050Y0379300D01*
X0310320Y0378960D01*
X0309600Y0378590D01*
X0308900Y0378180D01*
X0308210Y0377730D01*
X0307560Y0377260D01*
X0306920Y0376750D01*
X0306310Y0376220D01*
X0305720Y0375650D01*
X0305170Y0375060D01*
X0304640Y0374450D01*
X0304140Y0373800D01*
X0303670Y0373140D01*
X0303240Y0372450D01*
X0302830Y0371750D01*
X0302470Y0371020D01*
X0302130Y0370280D01*
X0301830Y0369530D01*
X0301570Y0368760D01*
X0301350Y0367980D01*
X0301160Y0367190D01*
X0301010Y0366390D01*
X0300900Y0365580D01*
X0300830Y0364770D01*
X0300790Y0363960D01*
X0300800Y0363960D02*
X0300800Y0298510D01*
X0300780Y0298190D01*
X0300800Y0297860D01*
X0300850Y0297540D01*
X0300940Y0297220D01*
X0301060Y0296920D01*
X0301210Y0296630D01*
X0301380Y0296350D01*
X0301590Y0296100D01*
X0301820Y0295870D01*
X0302080Y0295670D01*
X0302350Y0295490D01*
X0302640Y0295340D01*
X0302950Y0295230D01*
X0303270Y0295150D01*
X0303590Y0295100D01*
X0329280Y0316970D02*
X0329750Y0316950D01*
X0330210Y0316890D01*
X0330660Y0316800D01*
X0331110Y0316660D01*
X0331550Y0316490D01*
X0331960Y0316280D01*
X0332360Y0316040D01*
X0332740Y0315770D01*
X0333090Y0315470D01*
X0333420Y0315130D01*
X0333720Y0314780D01*
X0360780Y0315110D02*
X0361260Y0314590D01*
X0361710Y0314030D01*
X0362130Y0313460D01*
X0362520Y0312860D01*
X0362880Y0312240D01*
X0363200Y0311610D01*
X0363500Y0310960D01*
X0363750Y0310290D01*
X0363980Y0309610D01*
X0364160Y0308920D01*
X0364310Y0308230D01*
X0364430Y0307520D01*
X0364500Y0306810D01*
X0364540Y0306100D01*
X0364550Y0305390D01*
X0350850Y0295100D02*
X0350390Y0295170D01*
X0349950Y0295280D01*
X0349510Y0295420D01*
X0349090Y0295610D01*
X0348690Y0295820D01*
X0348300Y0296070D01*
X0347940Y0296350D01*
X0347600Y0296660D01*
X0347290Y0297000D01*
X0347010Y0297360D01*
X0346760Y0297740D01*
X0357670Y0322540D02*
X0357690Y0323190D01*
X0357750Y0323850D01*
X0357840Y0324490D01*
X0357970Y0325140D01*
X0358130Y0325770D01*
X0358320Y0326400D01*
X0358550Y0327010D01*
X0358800Y0327610D01*
X0359090Y0328200D01*
X0359410Y0328770D01*
X0359760Y0329330D01*
X0360130Y0329860D01*
X0360540Y0330380D01*
X0360970Y0330870D01*
X0361420Y0331340D01*
X0361430Y0331340D02*
X0361870Y0331810D01*
X0362280Y0332310D01*
X0362660Y0332830D01*
X0363010Y0333370D01*
X0363330Y0333930D01*
X0363610Y0334510D01*
X0363860Y0335110D01*
X0364070Y0335720D01*
X0364240Y0336340D01*
X0364380Y0336970D01*
X0364470Y0337600D01*
X0364530Y0338250D01*
X0364550Y0338890D01*
X0361430Y0331340D02*
X0361420Y0331330D01*
X0364540Y0359470D02*
X0364520Y0360110D01*
X0364460Y0360740D01*
X0364370Y0361370D01*
X0364230Y0362000D01*
X0364060Y0362610D01*
X0363850Y0363210D01*
X0363610Y0363800D01*
X0363330Y0364380D01*
X0363020Y0364930D01*
X0362670Y0365470D01*
X0362290Y0365980D01*
X0361880Y0366470D01*
X0361450Y0366940D01*
X0352100Y0376290D02*
X0351560Y0376800D01*
X0351000Y0377290D01*
X0350420Y0377740D01*
X0349810Y0378170D01*
X0349180Y0378570D01*
X0348540Y0378930D01*
X0347870Y0379270D01*
X0347200Y0379570D01*
X0346500Y0379840D01*
X0345800Y0380070D01*
X0345080Y0380270D01*
X0344360Y0380430D01*
X0343630Y0380560D01*
X0342890Y0380650D01*
X0342150Y0380700D01*
X0341410Y0380720D01*
X0321300Y0348220D02*
X0321320Y0348910D01*
X0321380Y0349600D01*
X0321480Y0350280D01*
X0321620Y0350960D01*
X0321790Y0351630D01*
X0322010Y0352290D01*
X0322260Y0352930D01*
X0322550Y0353560D01*
X0322880Y0354170D01*
X0323240Y0354760D01*
X0323630Y0355330D01*
X0324060Y0355870D01*
X0324510Y0356390D01*
X0325000Y0356890D01*
X0325510Y0357350D01*
X0326050Y0357780D01*
X0326620Y0358190D01*
X0327200Y0358550D01*
X0327810Y0358890D01*
X0328430Y0359190D01*
X0329070Y0359450D01*
X0329720Y0359670D01*
X0330390Y0359860D01*
X0331070Y0360010D01*
X0331750Y0360120D01*
X0332440Y0360190D01*
X0333130Y0360220D01*
X0333820Y0360210D01*
X0334510Y0360160D01*
X0335190Y0360070D01*
X0335870Y0359940D01*
X0336540Y0359770D01*
X0337210Y0359570D01*
X0337850Y0359320D01*
X0338480Y0359040D01*
X0339100Y0358730D01*
X0339690Y0358370D01*
X0340270Y0357990D01*
X0340820Y0357570D01*
X0341350Y0357120D01*
X0341850Y0356640D01*
X0342320Y0356140D01*
X0342760Y0355600D01*
X0343170Y0355050D01*
X0343550Y0354470D01*
X0343890Y0353870D01*
X0344200Y0353250D01*
X0344470Y0352610D01*
X0344700Y0351960D01*
X0344900Y0351300D01*
X0345060Y0350620D01*
X0345180Y0349940D01*
X0345260Y0349260D01*
X0345300Y0348570D01*
X0345300Y0347870D01*
X0345260Y0347180D01*
X0345180Y0346500D01*
X0345060Y0345820D01*
X0344900Y0345140D01*
X0344700Y0344480D01*
X0344470Y0343830D01*
X0344200Y0343190D01*
X0343890Y0342570D01*
X0343550Y0341970D01*
X0343170Y0341390D01*
X0342760Y0340840D01*
X0342320Y0340300D01*
X0341850Y0339800D01*
X0341350Y0339320D01*
X0340820Y0338870D01*
X0340270Y0338450D01*
X0339690Y0338070D01*
X0339100Y0337710D01*
X0338480Y0337400D01*
X0337850Y0337120D01*
X0337210Y0336870D01*
X0336540Y0336670D01*
X0335870Y0336500D01*
X0335190Y0336370D01*
X0334510Y0336280D01*
X0333820Y0336230D01*
X0333130Y0336220D01*
X0332440Y0336250D01*
X0331750Y0336320D01*
X0331070Y0336430D01*
X0330390Y0336580D01*
X0329720Y0336770D01*
X0329070Y0336990D01*
X0328430Y0337250D01*
X0327810Y0337550D01*
X0327200Y0337890D01*
X0326620Y0338250D01*
X0326050Y0338660D01*
X0325510Y0339090D01*
X0325000Y0339550D01*
X0324510Y0340050D01*
X0324060Y0340570D01*
X0323630Y0341110D01*
X0323240Y0341680D01*
X0322880Y0342270D01*
X0322550Y0342880D01*
X0322260Y0343510D01*
X0322010Y0344150D01*
X0321790Y0344810D01*
X0321620Y0345480D01*
X0321480Y0346160D01*
X0321380Y0346840D01*
X0321320Y0347530D01*
X0321300Y0348220D01*
M02*
