G75*
%MOIN*%
%OFA0B0*%
%FSLAX24Y24*%
%IPPOS*%
%LPD*%
%AMOC8*
5,1,8,0,0,1.08239X$1,22.5*
%
%ADD10C,0.0120*%
%ADD11C,0.0080*%
%ADD12C,0.0059*%
D10*
X006252Y000160D02*
X006252Y021160D01*
X034502Y021160D01*
X034502Y000160D01*
X006252Y000160D01*
D11*
X022086Y006145D02*
X022156Y006215D01*
X022296Y006215D01*
X022366Y006285D01*
X022296Y006355D01*
X022086Y006355D01*
X022086Y006145D02*
X022156Y006075D01*
X022366Y006075D01*
X022546Y006215D02*
X022546Y006285D01*
X022616Y006355D01*
X022756Y006355D01*
X022826Y006285D01*
X022826Y006145D01*
X022756Y006075D01*
X022616Y006075D01*
X022546Y006215D02*
X022826Y006215D01*
X022993Y006075D02*
X023133Y006075D01*
X023063Y006075D02*
X023063Y006355D01*
X023133Y006355D01*
X023063Y006495D02*
X023063Y006565D01*
X023307Y006355D02*
X023377Y006355D01*
X023517Y006215D01*
X023517Y006075D02*
X023517Y006355D01*
X023684Y006355D02*
X023824Y006355D01*
X023754Y006425D02*
X023754Y006145D01*
X023684Y006075D01*
X024004Y006145D02*
X024074Y006215D01*
X024214Y006215D01*
X024284Y006285D01*
X024214Y006355D01*
X024004Y006355D01*
X024004Y006145D02*
X024074Y006075D01*
X024284Y006075D01*
X024464Y006075D02*
X024464Y006355D01*
X024464Y006075D02*
X024675Y006075D01*
X024745Y006145D01*
X024745Y006355D01*
X024925Y006355D02*
X025135Y006355D01*
X025205Y006285D01*
X025205Y006145D01*
X025135Y006075D01*
X024925Y006075D01*
X024925Y006495D01*
X024877Y006825D02*
X024597Y006825D01*
X024737Y006825D02*
X024737Y007245D01*
X024877Y007105D01*
X025057Y007105D02*
X025197Y006825D01*
X025337Y007105D01*
X025839Y007105D02*
X025909Y007105D01*
X026049Y006965D01*
X026049Y006825D02*
X026049Y007105D01*
X026229Y007035D02*
X026229Y006965D01*
X026509Y006965D01*
X026509Y006895D02*
X026509Y007035D01*
X026439Y007105D01*
X026299Y007105D01*
X026229Y007035D01*
X026299Y006825D02*
X026439Y006825D01*
X026509Y006895D01*
X026690Y007105D02*
X026830Y006825D01*
X026970Y007105D01*
X027207Y007105D02*
X027207Y006825D01*
X027277Y006825D02*
X027137Y006825D01*
X027207Y007105D02*
X027277Y007105D01*
X027207Y007245D02*
X027207Y007315D01*
X027450Y007105D02*
X027520Y007105D01*
X027660Y006965D01*
X027660Y006825D02*
X027660Y007105D01*
X027841Y007175D02*
X027841Y006895D01*
X027911Y006825D01*
X028121Y006825D01*
X028121Y007245D01*
X027911Y007245D01*
X027841Y007175D01*
X028761Y007175D02*
X028761Y006895D01*
X028831Y006825D01*
X029042Y006825D01*
X029042Y007245D01*
X028831Y007245D01*
X028761Y007175D01*
X029222Y007245D02*
X029502Y007245D01*
X029502Y006825D01*
X029222Y006825D01*
X029362Y007035D02*
X029502Y007035D01*
X029682Y006825D02*
X029962Y006825D01*
X029962Y007245D01*
X029432Y006565D02*
X029432Y006495D01*
X029432Y006355D02*
X029432Y006075D01*
X029502Y006075D02*
X029362Y006075D01*
X029195Y006075D02*
X028985Y006075D01*
X028915Y006145D01*
X028985Y006215D01*
X029125Y006215D01*
X029195Y006285D01*
X029125Y006355D01*
X028915Y006355D01*
X028735Y006285D02*
X028665Y006355D01*
X028524Y006355D01*
X028454Y006285D01*
X028454Y006075D01*
X028274Y006075D02*
X028274Y006495D01*
X028204Y006355D02*
X028064Y006355D01*
X027994Y006285D01*
X027994Y006075D01*
X027814Y006145D02*
X027814Y006285D01*
X027744Y006355D01*
X027604Y006355D01*
X027534Y006285D01*
X027534Y006215D01*
X027814Y006215D01*
X027814Y006145D02*
X027744Y006075D01*
X027604Y006075D01*
X027353Y006145D02*
X027283Y006215D01*
X027073Y006215D01*
X027073Y006285D02*
X027073Y006075D01*
X027283Y006075D01*
X027353Y006145D01*
X027283Y006355D02*
X027143Y006355D01*
X027073Y006285D01*
X026893Y006285D02*
X026893Y006145D01*
X026823Y006075D01*
X026613Y006075D01*
X026613Y006495D01*
X026613Y006355D02*
X026823Y006355D01*
X026893Y006285D01*
X026836Y005745D02*
X027047Y005535D01*
X026766Y005535D01*
X026836Y005325D02*
X026836Y005745D01*
X027367Y005745D02*
X027367Y005325D01*
X027507Y005325D02*
X027227Y005325D01*
X027507Y005605D02*
X027367Y005745D01*
X027687Y005675D02*
X027967Y005395D01*
X027897Y005325D01*
X027757Y005325D01*
X027687Y005395D01*
X027687Y005675D01*
X027757Y005745D01*
X027897Y005745D01*
X027967Y005675D01*
X027967Y005395D01*
X028147Y005325D02*
X028428Y005325D01*
X028147Y005605D01*
X028147Y005675D01*
X028218Y005745D01*
X028358Y005745D01*
X028428Y005675D01*
X029055Y005605D02*
X029195Y005745D01*
X029375Y005675D02*
X029445Y005745D01*
X029585Y005745D01*
X029655Y005675D01*
X029655Y005395D01*
X029585Y005325D01*
X029445Y005325D01*
X029375Y005395D01*
X029195Y005325D02*
X029055Y005465D01*
X029055Y005605D01*
X028735Y006075D02*
X028735Y006495D01*
X028274Y006285D02*
X028204Y006355D01*
X029432Y006355D02*
X029502Y006355D01*
X029682Y006495D02*
X029962Y006495D01*
X029962Y006075D01*
X029962Y006285D02*
X029822Y006285D01*
X029822Y005745D02*
X029962Y005605D01*
X029962Y005465D01*
X029822Y005325D01*
X025972Y006075D02*
X025832Y006075D01*
X025902Y006075D02*
X025902Y006495D01*
X025972Y006495D02*
X025832Y006495D01*
X025665Y006355D02*
X025455Y006355D01*
X025385Y006285D01*
X025385Y006075D01*
X025665Y006075D02*
X025665Y006355D01*
X025252Y005535D02*
X025252Y005235D01*
X025162Y005235D01*
X025252Y005235D02*
X025252Y005035D01*
X025152Y005035D01*
X025252Y005035D02*
X025252Y004835D01*
X025152Y004835D01*
X025252Y004835D02*
X025252Y004535D01*
X024752Y005035D01*
X025252Y005535D01*
X023930Y005035D02*
X023932Y005075D01*
X023938Y005115D01*
X023948Y005155D01*
X023961Y005193D01*
X023979Y005229D01*
X023999Y005264D01*
X024024Y005296D01*
X024051Y005326D01*
X024081Y005353D01*
X024113Y005378D01*
X024148Y005398D01*
X024184Y005416D01*
X024222Y005429D01*
X024262Y005439D01*
X024302Y005445D01*
X024342Y005447D01*
X024382Y005445D01*
X024422Y005439D01*
X024462Y005429D01*
X024500Y005416D01*
X024536Y005398D01*
X024571Y005378D01*
X024603Y005353D01*
X024633Y005326D01*
X024660Y005296D01*
X024685Y005264D01*
X024705Y005229D01*
X024723Y005193D01*
X024736Y005155D01*
X024746Y005115D01*
X024752Y005075D01*
X024754Y005035D01*
X024752Y004995D01*
X024746Y004955D01*
X024736Y004915D01*
X024723Y004877D01*
X024705Y004841D01*
X024685Y004806D01*
X024660Y004774D01*
X024633Y004744D01*
X024603Y004717D01*
X024571Y004692D01*
X024536Y004672D01*
X024500Y004654D01*
X024462Y004641D01*
X024422Y004631D01*
X024382Y004625D01*
X024342Y004623D01*
X024302Y004625D01*
X024262Y004631D01*
X024222Y004641D01*
X024184Y004654D01*
X024148Y004672D01*
X024113Y004692D01*
X024081Y004717D01*
X024051Y004744D01*
X024024Y004774D01*
X023999Y004806D01*
X023979Y004841D01*
X023961Y004877D01*
X023948Y004915D01*
X023938Y004955D01*
X023932Y004995D01*
X023930Y005035D01*
X024013Y004805D02*
X024036Y004791D01*
X024060Y004780D01*
X024086Y004773D01*
X024112Y004769D01*
X024139Y004768D01*
X024165Y004771D01*
X024191Y004777D01*
X024216Y004786D01*
X024240Y004799D01*
X024262Y004814D01*
X024281Y004832D01*
X024299Y004853D01*
X024313Y004875D01*
X024324Y004899D01*
X024333Y004925D01*
X024138Y005175D02*
X024140Y005190D01*
X024145Y005205D01*
X024154Y005217D01*
X024166Y005228D01*
X024179Y005235D01*
X024194Y005239D01*
X024210Y005239D01*
X024225Y005235D01*
X024238Y005228D01*
X024250Y005217D01*
X024259Y005205D01*
X024264Y005190D01*
X024266Y005175D01*
X024264Y005160D01*
X024259Y005145D01*
X024250Y005133D01*
X024238Y005122D01*
X024225Y005115D01*
X024210Y005111D01*
X024194Y005111D01*
X024179Y005115D01*
X024166Y005122D01*
X024154Y005133D01*
X024145Y005145D01*
X024140Y005160D01*
X024138Y005175D01*
X024186Y006825D02*
X023906Y006825D01*
X024046Y006825D02*
X024046Y007245D01*
X024186Y007105D01*
X024347Y006895D02*
X024347Y006825D01*
X024417Y006825D01*
X024417Y006895D01*
X024347Y006895D01*
D12*
X023241Y005500D02*
X023343Y005399D01*
X023222Y005250D01*
X023252Y005190D01*
X023273Y005126D01*
X023464Y005107D01*
X023464Y004963D01*
X023273Y004944D01*
X023252Y004880D01*
X023222Y004820D01*
X023343Y004671D01*
X023241Y004570D01*
X023093Y004691D01*
X023033Y004660D01*
X022948Y004864D01*
X022986Y004886D01*
X023018Y004915D01*
X023042Y004951D01*
X023057Y004992D01*
X023062Y005035D01*
X023057Y005079D01*
X023041Y005120D01*
X023016Y005157D01*
X022983Y005186D01*
X022944Y005207D01*
X022901Y005218D01*
X022857Y005218D01*
X022814Y005208D01*
X022775Y005188D01*
X022741Y005160D01*
X022716Y005124D01*
X022699Y005083D01*
X022693Y005039D01*
X022697Y004995D01*
X022712Y004953D01*
X022736Y004916D01*
X022768Y004886D01*
X022807Y004864D01*
X022722Y004660D01*
X022662Y004691D01*
X022514Y004570D01*
X022412Y004671D01*
X022533Y004820D01*
X022502Y004880D01*
X022482Y004944D01*
X022291Y004963D01*
X022291Y005107D01*
X022482Y005126D01*
X022502Y005190D01*
X022533Y005250D01*
X022412Y005399D01*
X022514Y005500D01*
X022662Y005379D01*
X022722Y005410D01*
X022786Y005431D01*
X022805Y005621D01*
X022949Y005621D01*
X022969Y005431D01*
X023033Y005410D01*
X023093Y005379D01*
X023241Y005500D01*
X023286Y005455D02*
X023185Y005455D01*
X023115Y005398D02*
X023342Y005398D01*
X023295Y005340D02*
X022460Y005340D01*
X022507Y005282D02*
X023248Y005282D01*
X023235Y005225D02*
X022520Y005225D01*
X022495Y005167D02*
X022750Y005167D01*
X022710Y005110D02*
X022319Y005110D01*
X022291Y005052D02*
X022695Y005052D01*
X022697Y004995D02*
X022291Y004995D01*
X022484Y004937D02*
X022722Y004937D01*
X022780Y004880D02*
X022502Y004880D01*
X022532Y004822D02*
X022789Y004822D01*
X022765Y004764D02*
X022488Y004764D01*
X022441Y004707D02*
X022741Y004707D01*
X022611Y004649D02*
X022434Y004649D01*
X022492Y004592D02*
X022541Y004592D01*
X022989Y004764D02*
X023267Y004764D01*
X023223Y004822D02*
X022966Y004822D01*
X022975Y004880D02*
X023252Y004880D01*
X023271Y004937D02*
X023032Y004937D01*
X023057Y004995D02*
X023464Y004995D01*
X023464Y005052D02*
X023060Y005052D01*
X023045Y005110D02*
X023436Y005110D01*
X023260Y005167D02*
X023004Y005167D01*
X023057Y005398D02*
X022698Y005398D01*
X022640Y005398D02*
X022413Y005398D01*
X022469Y005455D02*
X022569Y005455D01*
X022789Y005455D02*
X022966Y005455D01*
X022960Y005513D02*
X022794Y005513D01*
X022800Y005570D02*
X022955Y005570D01*
X023013Y004707D02*
X023314Y004707D01*
X023321Y004649D02*
X023143Y004649D01*
X023214Y004592D02*
X023263Y004592D01*
M02*
