G75*
%MOIN*%
%OFA0B0*%
%FSLAX24Y24*%
%IPPOS*%
%LPD*%
%AMOC8*
5,1,8,0,0,1.08239X$1,22.5*
%
%ADD10C,0.0120*%
%ADD11R,0.0394X0.0118*%
%ADD12R,0.2047X0.4331*%
%ADD13C,0.0660*%
%ADD14R,0.0394X0.0433*%
%ADD15R,0.0433X0.0394*%
%ADD16C,0.0700*%
%ADD17R,0.0472X0.0236*%
%ADD18R,0.0800X0.0260*%
%ADD19C,0.0740*%
%ADD20C,0.0060*%
%ADD21C,0.0317*%
%ADD22C,0.0240*%
%ADD23C,0.0160*%
D10*
X006252Y000160D02*
X006252Y021160D01*
X034502Y021160D01*
X034502Y000160D01*
X006252Y000160D01*
X011377Y002035D02*
X011502Y002160D01*
X011502Y003660D01*
X011877Y004035D01*
X012397Y004035D01*
X007418Y005285D02*
X007418Y005745D01*
X007377Y005785D01*
X007418Y006785D02*
X007418Y007245D01*
X007377Y007285D01*
X023502Y003160D02*
X024377Y004035D01*
X025772Y004035D01*
X024697Y017579D02*
X024697Y017730D01*
X024877Y017910D01*
X025543Y017910D01*
X025918Y018285D01*
X027807Y018465D02*
X027807Y017579D01*
X027807Y018465D02*
X027877Y018535D01*
X014432Y017730D02*
X013877Y018285D01*
X013337Y018285D01*
X014432Y017730D02*
X014432Y017579D01*
X011377Y018035D02*
X011322Y017980D01*
X011322Y017579D01*
D11*
X011322Y017579D03*
X011322Y017323D03*
X011322Y017067D03*
X011322Y016812D03*
X011322Y016556D03*
X011322Y016300D03*
X011322Y016044D03*
X011322Y015788D03*
X011322Y015532D03*
X011322Y015276D03*
X011322Y015020D03*
X011322Y014764D03*
X011322Y014508D03*
X011322Y014253D03*
X011322Y013997D03*
X011322Y013741D03*
X014432Y013741D03*
X014432Y013997D03*
X014432Y014253D03*
X014432Y014508D03*
X014432Y014764D03*
X014432Y015020D03*
X014432Y015276D03*
X014432Y015532D03*
X014432Y015788D03*
X014432Y016044D03*
X014432Y016300D03*
X014432Y016556D03*
X014432Y016812D03*
X014432Y017067D03*
X014432Y017323D03*
X014432Y017579D03*
X024697Y017579D03*
X024697Y017323D03*
X024697Y017067D03*
X024697Y016812D03*
X024697Y016556D03*
X024697Y016300D03*
X024697Y016044D03*
X024697Y015788D03*
X024697Y015532D03*
X024697Y015276D03*
X024697Y015020D03*
X024697Y014764D03*
X024697Y014508D03*
X024697Y014253D03*
X024697Y013997D03*
X024697Y013741D03*
X027807Y013741D03*
X027807Y013997D03*
X027807Y014253D03*
X027807Y014508D03*
X027807Y014764D03*
X027807Y015020D03*
X027807Y015276D03*
X027807Y015532D03*
X027807Y015788D03*
X027807Y016044D03*
X027807Y016300D03*
X027807Y016556D03*
X027807Y016812D03*
X027807Y017067D03*
X027807Y017323D03*
X027807Y017579D03*
D12*
X026252Y015660D03*
X012877Y015660D03*
D13*
X023502Y003160D03*
X024502Y003160D03*
X012377Y002035D03*
X011377Y002035D03*
X009627Y002785D03*
X008627Y002785D03*
D14*
X009377Y011950D03*
X010377Y011950D03*
X010377Y012620D03*
X009377Y012620D03*
X011377Y012620D03*
X011377Y011950D03*
X012377Y011950D03*
X012377Y012620D03*
X013377Y012620D03*
X013377Y011950D03*
X014377Y011950D03*
X014377Y012620D03*
X015377Y012620D03*
X015377Y011950D03*
X016377Y011950D03*
X016377Y012620D03*
X022752Y012620D03*
X022752Y011950D03*
X023752Y011950D03*
X023752Y012620D03*
X024752Y012620D03*
X024752Y011950D03*
X025752Y011950D03*
X025752Y012620D03*
X026752Y012620D03*
X026752Y011950D03*
X027752Y011950D03*
X028752Y011950D03*
X028752Y012620D03*
X027752Y012620D03*
X029752Y012620D03*
X029752Y011950D03*
X028627Y017700D03*
X028627Y018370D03*
X015002Y018245D03*
X015002Y017575D03*
D15*
X016043Y017410D03*
X016712Y017410D03*
X016712Y016785D03*
X016043Y016785D03*
X016043Y016160D03*
X016712Y016160D03*
X016712Y015535D03*
X016043Y015535D03*
X016043Y014910D03*
X016712Y014910D03*
X016712Y014285D03*
X016712Y013660D03*
X016043Y013660D03*
X016043Y014285D03*
X019793Y010410D03*
X020462Y010410D03*
X020462Y009410D03*
X019793Y009410D03*
X019793Y008410D03*
X020462Y008410D03*
X020462Y007410D03*
X019793Y007410D03*
X019793Y006410D03*
X020462Y006410D03*
X020462Y005410D03*
X019793Y005410D03*
X019793Y004410D03*
X020462Y004410D03*
X020462Y003410D03*
X019793Y003410D03*
X023668Y002285D03*
X024337Y002285D03*
X033168Y003410D03*
X033837Y003410D03*
X033837Y004410D03*
X033168Y004410D03*
X033168Y005410D03*
X033837Y005410D03*
X033837Y006410D03*
X033168Y006410D03*
X033168Y007410D03*
X033837Y007410D03*
X033837Y008410D03*
X033168Y008410D03*
X033168Y009410D03*
X033837Y009410D03*
X033837Y010410D03*
X033168Y010410D03*
X030087Y013660D03*
X030087Y014285D03*
X029418Y014285D03*
X029418Y013660D03*
X029418Y014910D03*
X030087Y014910D03*
X030087Y015535D03*
X029418Y015535D03*
X029418Y016160D03*
X030087Y016160D03*
X030087Y016785D03*
X029418Y016785D03*
X029418Y017410D03*
X030087Y017410D03*
X030087Y018035D03*
X029418Y018035D03*
X026587Y018285D03*
X025918Y018285D03*
X024962Y018285D03*
X024293Y018285D03*
X023087Y018035D03*
X022418Y018035D03*
X022418Y017410D03*
X023087Y017410D03*
X023087Y016785D03*
X022418Y016785D03*
X022418Y016160D03*
X023087Y016160D03*
X023087Y015535D03*
X022418Y015535D03*
X022418Y014910D03*
X023087Y014910D03*
X023087Y014285D03*
X023087Y013660D03*
X022418Y013660D03*
X022418Y014285D03*
X016712Y018035D03*
X016043Y018035D03*
X013337Y018285D03*
X012668Y018285D03*
X009712Y018035D03*
X009043Y018035D03*
X009043Y017410D03*
X009712Y017410D03*
X009712Y016785D03*
X009043Y016785D03*
X009043Y016160D03*
X009712Y016160D03*
X009712Y015535D03*
X009043Y015535D03*
X009043Y014910D03*
X009712Y014910D03*
X009712Y014285D03*
X009712Y013660D03*
X009043Y013660D03*
X009043Y014285D03*
X009668Y008785D03*
X010337Y008785D03*
X008087Y006785D03*
X007418Y006785D03*
X007418Y005285D03*
X008087Y005285D03*
X008668Y001785D03*
X009337Y001785D03*
X023043Y008785D03*
X023712Y008785D03*
D16*
X023752Y010410D03*
X022752Y010410D03*
X020877Y011660D03*
X020877Y012660D03*
X020877Y013660D03*
X020877Y014660D03*
X020877Y015660D03*
X020877Y016660D03*
X020877Y017660D03*
X020877Y018660D03*
X018252Y018660D03*
X018252Y017660D03*
X018252Y016660D03*
X018252Y015660D03*
X018252Y014660D03*
X018252Y013660D03*
X018252Y012660D03*
X018252Y011660D03*
X018252Y010410D03*
X018252Y009410D03*
X018252Y008410D03*
X018252Y007410D03*
X018252Y006410D03*
X018252Y005410D03*
X018252Y004410D03*
X018252Y003410D03*
X016377Y010410D03*
X015377Y010410D03*
X014377Y010410D03*
X013377Y010410D03*
X012377Y010410D03*
X011377Y010410D03*
X010377Y010410D03*
X009377Y010410D03*
X007502Y011660D03*
X007502Y012660D03*
X007502Y013660D03*
X007502Y014660D03*
X007502Y015660D03*
X007502Y016660D03*
X007502Y017660D03*
X007502Y018660D03*
X024752Y010410D03*
X025752Y010410D03*
X026752Y010410D03*
X027752Y010410D03*
X028752Y010410D03*
X029752Y010410D03*
X031627Y010410D03*
X031627Y009410D03*
X031627Y008410D03*
X031627Y007410D03*
X031627Y006410D03*
X031627Y005410D03*
X031627Y004410D03*
X031627Y003410D03*
X031627Y011660D03*
X031627Y012660D03*
X031627Y013660D03*
X031627Y014660D03*
X031627Y015660D03*
X031627Y016660D03*
X031627Y017660D03*
X031627Y018660D03*
D17*
X024480Y008035D03*
X024480Y007535D03*
X024480Y007035D03*
X024480Y006535D03*
X024480Y006035D03*
X024480Y005535D03*
X024480Y005035D03*
X024480Y004535D03*
X022275Y004535D03*
X022275Y005035D03*
X022275Y005535D03*
X022275Y006035D03*
X022275Y006535D03*
X022275Y007035D03*
X022275Y007535D03*
X022275Y008035D03*
X011105Y008035D03*
X011105Y007535D03*
X011105Y007035D03*
X011105Y006535D03*
X011105Y006035D03*
X011105Y005535D03*
X011105Y005035D03*
X011105Y004535D03*
X008900Y004535D03*
X008900Y005035D03*
X008900Y005535D03*
X008900Y006035D03*
X008900Y006535D03*
X008900Y007035D03*
X008900Y007535D03*
X008900Y008035D03*
D18*
X012397Y008035D03*
X012397Y007535D03*
X012397Y007035D03*
X012397Y006535D03*
X012397Y006035D03*
X012397Y005535D03*
X012397Y005035D03*
X012397Y004535D03*
X012397Y004035D03*
X012397Y003535D03*
X016357Y003535D03*
X016357Y004035D03*
X016357Y004535D03*
X016357Y005035D03*
X016357Y005535D03*
X016357Y006035D03*
X016357Y006535D03*
X016357Y007035D03*
X016357Y007535D03*
X016357Y008035D03*
X025772Y008035D03*
X025772Y007535D03*
X025772Y007035D03*
X025772Y006535D03*
X025772Y006035D03*
X025772Y005535D03*
X025772Y005035D03*
X025772Y004535D03*
X025772Y004035D03*
X025772Y003535D03*
X029732Y003535D03*
X029732Y004035D03*
X029732Y004535D03*
X029732Y005035D03*
X029732Y005535D03*
X029732Y006035D03*
X029732Y006535D03*
X029732Y007035D03*
X029732Y007535D03*
X029732Y008035D03*
D19*
X027752Y001160D03*
X026752Y001160D03*
X025752Y001160D03*
X024752Y001160D03*
X023752Y001160D03*
X022752Y001160D03*
X020752Y001160D03*
X019752Y001160D03*
X018752Y001160D03*
X017752Y001160D03*
X016752Y001160D03*
X015752Y001160D03*
X014752Y001160D03*
X013752Y001160D03*
X013252Y020160D03*
X012252Y020160D03*
X011252Y020160D03*
X010252Y020160D03*
X014252Y020160D03*
X015252Y020160D03*
X016252Y020160D03*
X017252Y020160D03*
X018252Y020160D03*
X019252Y020160D03*
X020752Y020160D03*
X021752Y020160D03*
X022752Y020160D03*
X023752Y020160D03*
X024752Y020160D03*
X025752Y020160D03*
X026752Y020160D03*
X027752Y020160D03*
D20*
X026502Y019410D02*
X024502Y019410D01*
X023752Y020160D01*
X022877Y019285D01*
X016377Y019285D01*
X015377Y018285D01*
X015377Y017410D01*
X015035Y017067D01*
X014432Y017067D01*
X014432Y016812D02*
X015029Y016812D01*
X015502Y017285D01*
X015502Y018160D01*
X016502Y019160D01*
X022627Y019160D01*
X023690Y018098D01*
X023690Y017535D01*
X024413Y016812D01*
X024697Y016812D01*
X024665Y017035D02*
X024502Y017035D01*
X023877Y017660D01*
X023877Y018410D01*
X023377Y018910D01*
X023502Y019410D02*
X023627Y019410D01*
X024377Y018660D01*
X024377Y018325D01*
X024293Y018285D01*
X024293Y017825D01*
X024252Y017785D01*
X024252Y017535D01*
X024464Y017323D01*
X024697Y017323D01*
X024697Y017067D02*
X024665Y017035D01*
X024697Y016556D02*
X024357Y016556D01*
X023502Y017410D01*
X023502Y017660D01*
X023127Y018035D01*
X023087Y018035D01*
X022418Y018035D02*
X022127Y018035D01*
X021502Y018660D01*
X020877Y018660D01*
X022002Y019410D02*
X022752Y020160D01*
X021752Y020160D02*
X021127Y019535D01*
X012127Y019535D01*
X010752Y018160D01*
X010752Y017410D01*
X011095Y017067D01*
X011322Y017067D01*
X011322Y016812D02*
X011101Y016812D01*
X010627Y017285D01*
X010627Y018285D01*
X012002Y019660D01*
X020252Y019660D01*
X020752Y020160D01*
X022002Y019410D02*
X012252Y019410D01*
X010877Y018035D01*
X010877Y017535D01*
X011089Y017323D01*
X011322Y017323D01*
X012127Y017660D02*
X012877Y016910D01*
X014432Y016556D02*
X015023Y016556D01*
X015627Y017160D01*
X015627Y017660D01*
X016002Y018035D01*
X016043Y018035D01*
X016712Y018035D02*
X017627Y018035D01*
X018252Y018660D01*
X018252Y017660D02*
X018002Y017410D01*
X016712Y017410D01*
X016043Y017410D02*
X016002Y017410D01*
X015752Y017160D01*
X015752Y017035D01*
X015017Y016300D01*
X014432Y016300D01*
X014432Y016044D02*
X015136Y016044D01*
X015877Y016785D01*
X016043Y016785D01*
X016712Y016785D02*
X018127Y016785D01*
X018252Y016660D01*
X017752Y016160D02*
X018252Y015660D01*
X017752Y016160D02*
X016712Y016160D01*
X016043Y016160D02*
X015752Y016160D01*
X015380Y015788D01*
X014432Y015788D01*
X014432Y015532D02*
X016040Y015532D01*
X016043Y015535D01*
X016712Y015535D02*
X017377Y015535D01*
X018252Y014660D01*
X018252Y013660D02*
X017002Y014910D01*
X016712Y014910D01*
X016043Y014910D02*
X015752Y014910D01*
X015386Y015276D01*
X014432Y015276D01*
X014432Y015020D02*
X015267Y015020D01*
X016002Y014285D01*
X016043Y014285D01*
X016043Y013660D02*
X016002Y013660D01*
X014898Y014764D01*
X014432Y014764D01*
X014432Y014508D02*
X014841Y014508D01*
X015377Y013973D01*
X015377Y013620D01*
X016377Y012620D01*
X016377Y011950D02*
X016377Y010410D01*
X015377Y010410D02*
X015377Y011950D01*
X015377Y012620D02*
X015377Y013035D01*
X015127Y013285D01*
X015127Y013848D01*
X014722Y014253D01*
X014432Y014253D01*
X014432Y013997D02*
X014666Y013997D01*
X014877Y013785D01*
X014877Y013120D01*
X014377Y012620D01*
X014377Y011950D02*
X014377Y010410D01*
X013377Y010410D02*
X013377Y011950D01*
X013377Y012620D02*
X013418Y012660D01*
X013440Y012660D01*
X014432Y013653D01*
X014432Y013741D01*
X012377Y012620D02*
X012337Y012660D01*
X012252Y012723D01*
X011322Y013653D01*
X011322Y013741D01*
X011322Y013997D02*
X011089Y013997D01*
X010877Y013785D01*
X010877Y012910D01*
X011127Y012660D01*
X011337Y012660D01*
X011377Y012620D01*
X011377Y011950D02*
X011377Y010410D01*
X010377Y010410D02*
X010377Y011950D01*
X009377Y011950D02*
X009377Y010410D01*
X008127Y012285D02*
X007502Y011660D01*
X008127Y012285D02*
X008252Y012410D01*
X009043Y013200D01*
X009043Y013660D01*
X009043Y014285D02*
X009002Y014285D01*
X008377Y013660D01*
X008377Y013535D01*
X007502Y012660D01*
X007502Y013660D02*
X008752Y014910D01*
X009043Y014910D01*
X009712Y014910D02*
X009752Y014910D01*
X010119Y015276D01*
X011322Y015276D01*
X011322Y015020D02*
X010488Y015020D01*
X009877Y014410D01*
X009837Y014410D01*
X009712Y014285D01*
X009712Y013660D02*
X010816Y014764D01*
X011322Y014764D01*
X011322Y014508D02*
X011038Y014508D01*
X010127Y013598D01*
X010127Y013410D01*
X009377Y012660D01*
X009377Y012620D01*
X010377Y012620D02*
X010377Y013535D01*
X011095Y014253D01*
X011322Y014253D01*
X011322Y015532D02*
X009715Y015532D01*
X009712Y015535D01*
X010002Y016160D02*
X010374Y015788D01*
X011322Y015788D01*
X011322Y016044D02*
X010619Y016044D01*
X009877Y016785D01*
X009712Y016785D01*
X009043Y016785D02*
X007627Y016785D01*
X007502Y016660D01*
X008002Y016160D02*
X007502Y015660D01*
X008002Y016160D02*
X009043Y016160D01*
X009712Y016160D02*
X010002Y016160D01*
X010863Y016300D02*
X009752Y017410D01*
X009712Y017410D01*
X009752Y018035D02*
X010377Y017410D01*
X010377Y017160D01*
X010982Y016556D01*
X011322Y016556D01*
X011322Y016300D02*
X010863Y016300D01*
X009043Y015535D02*
X008377Y015535D01*
X007502Y014660D01*
X007752Y017410D02*
X007502Y017660D01*
X007752Y017410D02*
X009043Y017410D01*
X009043Y018035D02*
X008127Y018035D01*
X007502Y018660D01*
X009712Y018035D02*
X009752Y018035D01*
X014432Y017323D02*
X014750Y017323D01*
X015002Y017575D01*
X016712Y014285D02*
X016877Y014285D01*
X017752Y013410D01*
X017752Y013160D01*
X018252Y012660D01*
X017502Y012785D02*
X017502Y012410D01*
X018252Y011660D01*
X018252Y010410D02*
X019793Y010410D01*
X020462Y010410D02*
X020877Y010410D01*
X020877Y009410D02*
X020462Y009410D01*
X019793Y009410D02*
X018252Y009410D01*
X017627Y008785D01*
X017627Y008535D01*
X016627Y007535D01*
X016357Y007535D01*
X016357Y007035D02*
X016627Y007035D01*
X017877Y008285D01*
X018127Y008285D01*
X018252Y008410D01*
X019793Y008410D01*
X020462Y008410D02*
X020877Y008410D01*
X021127Y007910D02*
X021752Y007285D01*
X023252Y007285D01*
X023502Y007035D01*
X024480Y007035D01*
X024877Y006785D02*
X025127Y006535D01*
X025772Y006535D01*
X025772Y007035D02*
X025127Y007035D01*
X024877Y007285D01*
X023502Y007285D01*
X023252Y007535D01*
X022275Y007535D01*
X022275Y007035D02*
X023252Y007035D01*
X023502Y006785D01*
X024877Y006785D01*
X024480Y006535D02*
X023502Y006535D01*
X023252Y006785D01*
X021752Y006785D01*
X021627Y006910D01*
X018002Y006910D01*
X017377Y006285D01*
X011877Y006285D01*
X011627Y006535D01*
X011105Y006535D01*
X010502Y006535D01*
X009877Y006535D01*
X009627Y006785D01*
X008087Y006785D01*
X008900Y006535D02*
X009627Y006535D01*
X009877Y006285D01*
X011627Y006285D01*
X011877Y006035D01*
X012397Y006035D01*
X011877Y005785D02*
X017877Y005785D01*
X018002Y005910D01*
X021377Y005910D01*
X021752Y006285D01*
X023252Y006285D01*
X023502Y006035D01*
X024480Y006035D01*
X024877Y005785D02*
X025127Y005535D01*
X025772Y005535D01*
X025772Y005035D02*
X025127Y005035D01*
X024877Y005285D01*
X023502Y005285D01*
X023252Y005535D01*
X022275Y005535D01*
X022002Y005785D02*
X021127Y004910D01*
X018002Y004910D01*
X017627Y005285D01*
X011877Y005285D01*
X011627Y005535D01*
X011105Y005535D01*
X010502Y005535D01*
X010502Y005035D02*
X009877Y005035D01*
X009627Y005285D01*
X008087Y005285D01*
X008900Y005035D02*
X009627Y005035D01*
X009877Y004785D01*
X011627Y004785D01*
X011877Y004535D01*
X012397Y004535D01*
X011877Y004285D02*
X014252Y004285D01*
X012397Y005035D02*
X011877Y005035D01*
X011627Y005285D01*
X009877Y005285D01*
X009627Y005535D01*
X008900Y005535D01*
X008900Y006035D02*
X009627Y006035D01*
X009877Y005785D01*
X011627Y005785D01*
X011877Y005535D01*
X012397Y005535D01*
X011877Y005785D02*
X011627Y006035D01*
X011105Y006035D01*
X010502Y006035D01*
X009877Y006785D02*
X009627Y007035D01*
X008900Y007035D01*
X008900Y007535D02*
X009627Y007535D01*
X009877Y007285D01*
X011627Y007285D01*
X011877Y007035D01*
X012397Y007035D01*
X011877Y007285D02*
X011627Y007535D01*
X011105Y007535D01*
X011627Y007785D02*
X009877Y007785D01*
X009627Y008035D01*
X008900Y008035D01*
X010502Y007035D02*
X011105Y007035D01*
X011627Y006785D02*
X009877Y006785D01*
X011627Y006785D02*
X011877Y006535D01*
X012397Y006535D01*
X011877Y007285D02*
X013002Y007285D01*
X013252Y007535D01*
X013252Y007785D01*
X013002Y008035D01*
X012397Y008035D01*
X011877Y007535D02*
X011627Y007785D01*
X011877Y007535D02*
X012397Y007535D01*
X014252Y006785D02*
X016877Y006785D01*
X018002Y007910D01*
X021127Y007910D01*
X020877Y007410D02*
X020462Y007410D01*
X019793Y007410D02*
X018252Y007410D01*
X018002Y007410D01*
X017127Y006535D01*
X016357Y006535D01*
X016357Y006035D02*
X017877Y006035D01*
X018252Y006410D01*
X019793Y006410D01*
X020462Y006410D02*
X020877Y006410D01*
X022002Y005785D02*
X023252Y005785D01*
X023502Y005535D01*
X024480Y005535D01*
X024877Y005785D02*
X023502Y005785D01*
X023252Y006035D01*
X022275Y006035D01*
X022275Y006535D02*
X023252Y006535D01*
X023502Y006285D01*
X024877Y006285D01*
X025127Y006035D01*
X025772Y006035D01*
X024480Y005035D02*
X023502Y005035D01*
X023252Y005285D01*
X021877Y005285D01*
X021627Y005035D01*
X021627Y004660D01*
X020877Y003910D01*
X018002Y003910D01*
X017127Y004785D01*
X011877Y004785D01*
X011627Y005035D01*
X011105Y005035D01*
X010502Y005035D01*
X011105Y004535D02*
X011627Y004535D01*
X011877Y004285D01*
X008668Y001785D02*
X008627Y001825D01*
X016357Y004535D02*
X017127Y004535D01*
X018252Y003410D01*
X019793Y003410D01*
X020462Y003410D02*
X020877Y003410D01*
X020877Y004410D02*
X020462Y004410D01*
X019793Y004410D02*
X018252Y004410D01*
X018002Y004410D01*
X017377Y005035D01*
X016357Y005035D01*
X016357Y005535D02*
X018127Y005535D01*
X018252Y005410D01*
X019793Y005410D01*
X020462Y005410D02*
X020877Y005410D01*
X022275Y005035D02*
X023252Y005035D01*
X023502Y004785D01*
X024877Y004785D01*
X025127Y004535D01*
X025772Y004535D01*
X029732Y004535D02*
X030502Y004535D01*
X031627Y003410D01*
X033168Y003410D01*
X033837Y003410D02*
X033837Y003888D01*
X033815Y003910D01*
X033837Y003932D01*
X033837Y004410D01*
X033168Y004410D02*
X031627Y004410D01*
X031002Y005035D01*
X029732Y005035D01*
X029732Y005535D02*
X031502Y005535D01*
X031627Y005410D01*
X033168Y005410D01*
X033837Y005410D02*
X033837Y005888D01*
X033815Y005910D01*
X033837Y005932D01*
X033837Y006410D01*
X033168Y006410D02*
X031627Y006410D01*
X031252Y006035D01*
X029732Y006035D01*
X029732Y006535D02*
X030752Y006535D01*
X031627Y007410D01*
X033168Y007410D01*
X033837Y007410D02*
X033837Y007888D01*
X033815Y007910D01*
X033837Y007932D01*
X033837Y008410D01*
X033168Y008410D02*
X031627Y008410D01*
X031377Y008410D01*
X030002Y007035D01*
X029732Y007035D01*
X029732Y007535D02*
X030002Y007535D01*
X031252Y008785D01*
X031252Y009035D01*
X031627Y009410D01*
X033168Y009410D01*
X033837Y009410D02*
X033837Y009888D01*
X033815Y009910D01*
X033837Y009932D01*
X033837Y010410D01*
X033168Y010410D02*
X031627Y010410D01*
X029732Y008515D01*
X029732Y008035D01*
X026377Y007910D02*
X026377Y007410D01*
X026252Y007285D01*
X025127Y007285D01*
X024877Y007535D01*
X024480Y007535D01*
X024877Y007785D02*
X025127Y007535D01*
X025772Y007535D01*
X026252Y008035D02*
X026377Y007910D01*
X026252Y008035D02*
X025772Y008035D01*
X024877Y007785D02*
X023502Y007785D01*
X023252Y008035D01*
X022275Y008035D01*
X022752Y010410D02*
X022752Y011950D01*
X022752Y012620D02*
X022837Y012620D01*
X023502Y013285D01*
X023502Y013535D01*
X024476Y014508D01*
X024697Y014508D01*
X024697Y014253D02*
X024532Y014253D01*
X023752Y013473D01*
X023752Y012620D01*
X024377Y012995D02*
X024752Y012620D01*
X024377Y012995D02*
X024377Y013910D01*
X024464Y013997D01*
X024697Y013997D01*
X024697Y013741D02*
X024697Y013675D01*
X025752Y012620D01*
X025752Y011950D02*
X025752Y010410D01*
X024752Y010410D02*
X024752Y011950D01*
X023752Y011950D02*
X023752Y010410D01*
X022418Y013200D02*
X020877Y011660D01*
X020877Y012660D02*
X021127Y012910D01*
X021127Y013035D01*
X022377Y014285D01*
X022418Y014285D01*
X022418Y013660D02*
X022418Y013200D01*
X023087Y013660D02*
X023252Y013660D01*
X024357Y014764D01*
X024697Y014764D01*
X024697Y015020D02*
X024113Y015020D01*
X023377Y014285D01*
X023087Y014285D01*
X023087Y014910D02*
X023377Y014910D01*
X023744Y015276D01*
X024697Y015276D01*
X024697Y015532D02*
X023090Y015532D01*
X023087Y015535D01*
X022418Y015535D02*
X021752Y015535D01*
X020877Y014660D01*
X020877Y013660D02*
X022127Y014910D01*
X022418Y014910D01*
X021502Y015660D02*
X020877Y015660D01*
X021502Y015660D02*
X022002Y016160D01*
X022418Y016160D01*
X023087Y016160D02*
X023212Y016285D01*
X023377Y016285D01*
X023874Y015788D01*
X024697Y015788D01*
X024697Y016044D02*
X023994Y016044D01*
X023252Y016785D01*
X023087Y016785D01*
X022418Y016785D02*
X021877Y016785D01*
X021752Y016660D01*
X020877Y016660D01*
X021877Y017410D02*
X021627Y017660D01*
X020877Y017660D01*
X021877Y017410D02*
X022418Y017410D01*
X023087Y017410D02*
X023252Y017410D01*
X024363Y016300D01*
X024697Y016300D01*
X027502Y017160D02*
X027595Y017067D01*
X027807Y017067D01*
X027807Y017323D02*
X028250Y017323D01*
X028627Y017700D01*
X029002Y017620D02*
X029002Y017348D01*
X028211Y016556D01*
X027807Y016556D01*
X027807Y016300D02*
X028267Y016300D01*
X029377Y017410D01*
X029418Y017410D01*
X029002Y017620D02*
X029418Y018035D01*
X029252Y018035D01*
X030087Y018035D02*
X031002Y018035D01*
X031627Y018660D01*
X031627Y017660D02*
X031377Y017410D01*
X030087Y017410D01*
X030087Y016785D02*
X031502Y016785D01*
X031627Y016660D01*
X031127Y016160D02*
X031627Y015660D01*
X031127Y016160D02*
X030087Y016160D01*
X029418Y016160D02*
X029046Y015788D01*
X027807Y015788D01*
X027807Y015532D02*
X029415Y015532D01*
X029418Y015535D01*
X030087Y015535D02*
X030752Y015535D01*
X031627Y014660D01*
X031627Y013660D02*
X030377Y014910D01*
X030087Y014910D01*
X029418Y014910D02*
X029002Y014910D01*
X028636Y015276D01*
X027807Y015276D01*
X027807Y015020D02*
X028392Y015020D01*
X029127Y014285D01*
X029418Y014285D01*
X029418Y013660D02*
X029377Y013660D01*
X028273Y014764D01*
X027807Y014764D01*
X027807Y014508D02*
X028154Y014508D01*
X028752Y013910D01*
X028752Y013660D01*
X029752Y012660D01*
X029752Y012620D01*
X029752Y011950D02*
X029752Y010410D01*
X028752Y010410D02*
X028752Y011950D01*
X027752Y011950D02*
X027752Y010410D01*
X026752Y010410D02*
X026752Y011950D01*
X026752Y012620D02*
X027807Y013675D01*
X027807Y013741D01*
X027807Y013997D02*
X028041Y013997D01*
X028252Y013785D01*
X028252Y013160D01*
X027793Y012700D01*
X027793Y012660D01*
X027752Y012620D01*
X028752Y012620D02*
X028752Y013410D01*
X028502Y013660D01*
X028502Y013848D01*
X028097Y014253D01*
X027807Y014253D01*
X030087Y014285D02*
X030127Y014285D01*
X031002Y013410D01*
X031002Y013285D01*
X031627Y012660D01*
X030752Y012535D02*
X031627Y011660D01*
X030752Y012535D02*
X030752Y013035D01*
X030127Y013660D01*
X030087Y013660D01*
X028636Y016044D02*
X027807Y016044D01*
X028636Y016044D02*
X029377Y016785D01*
X029418Y016785D01*
X029377Y016785D02*
X029252Y016785D01*
X027502Y017160D02*
X027502Y018410D01*
X026502Y019410D01*
X017502Y012785D02*
X016712Y013575D01*
X016712Y013660D01*
X012377Y011950D02*
X012377Y010410D01*
X016377Y008535D02*
X016377Y008055D01*
X016357Y008035D01*
X016377Y008535D02*
X018252Y010410D01*
D21*
X020877Y010410D03*
X020877Y009410D03*
X022252Y008785D03*
X020877Y008410D03*
X020877Y007410D03*
X020877Y006410D03*
X020877Y005410D03*
X020877Y004410D03*
X022002Y004035D03*
X020877Y003410D03*
X015252Y004035D03*
X014252Y004285D03*
X010502Y005035D03*
X010502Y005535D03*
X010502Y006035D03*
X010502Y006535D03*
X010502Y007035D03*
X008877Y008785D03*
X008127Y010035D03*
X007377Y007285D03*
X007377Y005785D03*
X008127Y004535D03*
X014252Y006785D03*
X015127Y007285D03*
X025252Y008535D03*
X029627Y009285D03*
X033815Y009910D03*
X033815Y007910D03*
X033815Y005910D03*
X033815Y003910D03*
X028752Y004035D03*
X027002Y013660D03*
X027002Y014160D03*
X027002Y014660D03*
X026252Y014660D03*
X026252Y014160D03*
X026252Y013660D03*
X025502Y013660D03*
X025502Y014160D03*
X025502Y014660D03*
X025502Y016660D03*
X026252Y016660D03*
X027002Y016660D03*
X027002Y017160D03*
X027002Y017660D03*
X026252Y017660D03*
X026252Y017160D03*
X025502Y017160D03*
X025502Y017660D03*
X025877Y018785D03*
X026627Y018785D03*
X027877Y018535D03*
X028877Y019160D03*
X025002Y018785D03*
X023502Y019410D03*
X023377Y018910D03*
X015002Y018785D03*
X013377Y018910D03*
X012627Y018785D03*
X011377Y018035D03*
X012127Y017660D03*
X012127Y017160D03*
X012127Y016660D03*
X012877Y016660D03*
X013627Y016660D03*
X013627Y017160D03*
X013627Y017660D03*
X012877Y017660D03*
X012877Y017160D03*
X012877Y014660D03*
X012877Y014160D03*
X012877Y013660D03*
X013627Y013660D03*
X013627Y014160D03*
X013627Y014660D03*
X012127Y014660D03*
X012127Y014160D03*
X012127Y013660D03*
D22*
X012877Y015660D02*
X012877Y016660D01*
X012668Y018285D02*
X012668Y018745D01*
X012627Y018785D01*
X013337Y018870D02*
X013337Y018285D01*
X013337Y018870D02*
X013377Y018910D01*
X015002Y018785D02*
X015002Y018245D01*
X024962Y018285D02*
X025002Y018325D01*
X025002Y018785D01*
X025877Y018785D02*
X025918Y018745D01*
X025918Y018285D01*
X026587Y018285D02*
X026587Y018745D01*
X026627Y018785D01*
X026627Y018325D02*
X026587Y018285D01*
X028627Y018370D02*
X028627Y018910D01*
X028877Y019160D01*
X026252Y016660D02*
X026252Y015660D01*
X029627Y009285D02*
X028877Y008535D01*
X025252Y008535D01*
X023043Y008785D02*
X022252Y008785D01*
X015127Y007285D02*
X013627Y008785D01*
X011855Y008785D01*
X011105Y008035D01*
X011087Y008035D01*
X010337Y008785D01*
X010337Y008825D01*
X009627Y009535D01*
X008627Y009535D01*
X008127Y010035D01*
X008877Y008785D02*
X009668Y008785D01*
X011105Y008035D02*
X011127Y008058D01*
X010627Y002785D02*
X009627Y002785D01*
X009337Y002495D01*
X009337Y001785D01*
X008627Y001825D02*
X008627Y002785D01*
X010627Y002785D02*
X011377Y002035D01*
X012377Y002035D02*
X022377Y002035D01*
X023502Y003160D01*
X023668Y002995D01*
X023668Y002285D01*
X024337Y002285D02*
X024337Y002995D01*
X024502Y003160D01*
D23*
X022275Y004308D02*
X022275Y004535D01*
X022275Y004308D02*
X022002Y004035D01*
X016357Y004035D02*
X015252Y004035D01*
X008900Y004535D02*
X008127Y004535D01*
X023712Y008785D02*
X024002Y008785D01*
X024502Y008285D01*
X024502Y008058D01*
X024480Y008035D01*
X024752Y008035D01*
X025252Y008535D01*
X024480Y008035D02*
X024463Y008052D01*
X028752Y004035D02*
X029732Y004035D01*
X013377Y018325D02*
X013337Y018285D01*
M02*
