G75*
%MOIN*%
%OFA0B0*%
%FSLAX24Y24*%
%IPPOS*%
%LPD*%
%AMOC8*
5,1,8,0,0,1.08239X$1,22.5*
%
%ADD10C,0.0120*%
%ADD11C,0.0700*%
%ADD12C,0.0740*%
%ADD13C,0.0780*%
D10*
X006252Y000160D02*
X006252Y021160D01*
X034502Y021160D01*
X034502Y000160D01*
X006252Y000160D01*
D11*
X008627Y002785D03*
X009627Y002785D03*
X011377Y002035D03*
X012377Y002035D03*
X023502Y003160D03*
X024502Y003160D03*
D12*
X018252Y003410D03*
X018252Y004410D03*
X018252Y005410D03*
X018252Y006410D03*
X018252Y007410D03*
X018252Y008410D03*
X018252Y009410D03*
X018252Y010410D03*
X018252Y011660D03*
X018252Y012660D03*
X018252Y013660D03*
X018252Y014660D03*
X018252Y015660D03*
X018252Y016660D03*
X018252Y017660D03*
X018252Y018660D03*
X020877Y018660D03*
X020877Y017660D03*
X020877Y016660D03*
X020877Y015660D03*
X020877Y014660D03*
X020877Y013660D03*
X020877Y012660D03*
X020877Y011660D03*
X022752Y010410D03*
X023752Y010410D03*
X024752Y010410D03*
X025752Y010410D03*
X026752Y010410D03*
X027752Y010410D03*
X028752Y010410D03*
X029752Y010410D03*
X031627Y010410D03*
X031627Y009410D03*
X031627Y008410D03*
X031627Y007410D03*
X031627Y006410D03*
X031627Y005410D03*
X031627Y004410D03*
X031627Y003410D03*
X031627Y011660D03*
X031627Y012660D03*
X031627Y013660D03*
X031627Y014660D03*
X031627Y015660D03*
X031627Y016660D03*
X031627Y017660D03*
X031627Y018660D03*
X016377Y010410D03*
X015377Y010410D03*
X014377Y010410D03*
X013377Y010410D03*
X012377Y010410D03*
X011377Y010410D03*
X010377Y010410D03*
X009377Y010410D03*
X007502Y011660D03*
X007502Y012660D03*
X007502Y013660D03*
X007502Y014660D03*
X007502Y015660D03*
X007502Y016660D03*
X007502Y017660D03*
X007502Y018660D03*
D13*
X010252Y020160D03*
X011252Y020160D03*
X012252Y020160D03*
X013252Y020160D03*
X014252Y020160D03*
X015252Y020160D03*
X016252Y020160D03*
X017252Y020160D03*
X018252Y020160D03*
X019252Y020160D03*
X020752Y020160D03*
X021752Y020160D03*
X022752Y020160D03*
X023752Y020160D03*
X024752Y020160D03*
X025752Y020160D03*
X026752Y020160D03*
X027752Y020160D03*
X027752Y001160D03*
X026752Y001160D03*
X025752Y001160D03*
X024752Y001160D03*
X023752Y001160D03*
X022752Y001160D03*
X020752Y001160D03*
X019752Y001160D03*
X018752Y001160D03*
X017752Y001160D03*
X016752Y001160D03*
X015752Y001160D03*
X014752Y001160D03*
X013752Y001160D03*
M02*
