G75*
%MOIN*%
%OFA0B0*%
%FSLAX24Y24*%
%IPPOS*%
%LPD*%
%AMOC8*
5,1,8,0,0,1.08239X$1,22.5*
%
%ADD10C,0.0120*%
%ADD11R,0.0402X0.0126*%
%ADD12R,0.0390X0.0114*%
%ADD13R,0.1614X0.1535*%
%ADD14C,0.0700*%
%ADD15R,0.0434X0.0473*%
%ADD16R,0.0473X0.0434*%
%ADD17C,0.0740*%
%ADD18R,0.0512X0.0276*%
%ADD19R,0.0840X0.0300*%
%ADD20C,0.0780*%
D10*
X006252Y000160D02*
X006252Y021160D01*
X034502Y021160D01*
X034502Y000160D01*
X006252Y000160D01*
D11*
X011322Y013741D03*
X011322Y013997D03*
X011322Y014253D03*
X011322Y014508D03*
X011322Y014764D03*
X011322Y015020D03*
X011322Y015276D03*
X011322Y015532D03*
X011322Y015788D03*
X011322Y016044D03*
X011322Y016300D03*
X011322Y016556D03*
X011322Y016812D03*
X011322Y017067D03*
X011322Y017323D03*
X011322Y017579D03*
X014432Y017579D03*
X014432Y017323D03*
X014432Y017067D03*
X014432Y016812D03*
X014432Y016556D03*
X014432Y016300D03*
X014432Y016044D03*
X014432Y015788D03*
X014432Y015532D03*
X014432Y015276D03*
X014432Y015020D03*
X014432Y014764D03*
X014432Y014508D03*
X014432Y014253D03*
X014432Y013997D03*
X014432Y013741D03*
X024697Y013741D03*
X024697Y013997D03*
X024697Y014253D03*
X024697Y014508D03*
X024697Y014764D03*
X024697Y015020D03*
X024697Y015276D03*
X024697Y015532D03*
X024697Y015788D03*
X024697Y016044D03*
X024697Y016300D03*
X024697Y016556D03*
X024697Y016812D03*
X024697Y017067D03*
X024697Y017323D03*
X024697Y017579D03*
X027807Y017579D03*
X027807Y017323D03*
X027807Y017067D03*
X027807Y016812D03*
X027807Y016556D03*
X027807Y016300D03*
X027807Y016044D03*
X027807Y015788D03*
X027807Y015532D03*
X027807Y015276D03*
X027807Y015020D03*
X027807Y014764D03*
X027807Y014508D03*
X027807Y014253D03*
X027807Y013997D03*
X027807Y013741D03*
D12*
X027807Y013741D03*
X027807Y013997D03*
X027807Y014253D03*
X027807Y014508D03*
X027807Y014764D03*
X027807Y015020D03*
X027807Y015276D03*
X027807Y015532D03*
X027807Y015788D03*
X027807Y016044D03*
X027807Y016300D03*
X027807Y016556D03*
X027807Y016812D03*
X027807Y017067D03*
X027807Y017323D03*
X027807Y017579D03*
X024697Y017579D03*
X024697Y017323D03*
X024697Y017067D03*
X024697Y016812D03*
X024697Y016556D03*
X024697Y016300D03*
X024697Y016044D03*
X024697Y015788D03*
X024697Y015532D03*
X024697Y015276D03*
X024697Y015020D03*
X024697Y014764D03*
X024697Y014508D03*
X024697Y014253D03*
X024697Y013997D03*
X024697Y013741D03*
X014432Y013741D03*
X014432Y013997D03*
X014432Y014253D03*
X014432Y014508D03*
X014432Y014764D03*
X014432Y015020D03*
X014432Y015276D03*
X014432Y015532D03*
X014432Y015788D03*
X014432Y016044D03*
X014432Y016300D03*
X014432Y016556D03*
X014432Y016812D03*
X014432Y017067D03*
X014432Y017323D03*
X014432Y017579D03*
X011322Y017579D03*
X011322Y017323D03*
X011322Y017067D03*
X011322Y016812D03*
X011322Y016556D03*
X011322Y016300D03*
X011322Y016044D03*
X011322Y015788D03*
X011322Y015532D03*
X011322Y015276D03*
X011322Y015020D03*
X011322Y014764D03*
X011322Y014508D03*
X011322Y014253D03*
X011322Y013997D03*
X011322Y013741D03*
D13*
X012877Y015660D03*
X026252Y015660D03*
D14*
X024502Y003160D03*
X023502Y003160D03*
X012377Y002035D03*
X011377Y002035D03*
X009627Y002785D03*
X008627Y002785D03*
D15*
X009377Y011950D03*
X010377Y011950D03*
X010377Y012620D03*
X009377Y012620D03*
X011377Y012620D03*
X011377Y011950D03*
X012377Y011950D03*
X012377Y012620D03*
X013377Y012620D03*
X013377Y011950D03*
X014377Y011950D03*
X014377Y012620D03*
X015377Y012620D03*
X015377Y011950D03*
X016377Y011950D03*
X016377Y012620D03*
X022752Y012620D03*
X022752Y011950D03*
X023752Y011950D03*
X023752Y012620D03*
X024752Y012620D03*
X024752Y011950D03*
X025752Y011950D03*
X025752Y012620D03*
X026752Y012620D03*
X026752Y011950D03*
X027752Y011950D03*
X028752Y011950D03*
X028752Y012620D03*
X027752Y012620D03*
X029752Y012620D03*
X029752Y011950D03*
X028627Y017700D03*
X028627Y018370D03*
X015002Y018245D03*
X015002Y017575D03*
D16*
X016043Y017410D03*
X016712Y017410D03*
X016712Y016785D03*
X016043Y016785D03*
X016043Y016160D03*
X016712Y016160D03*
X016712Y015535D03*
X016043Y015535D03*
X016043Y014910D03*
X016712Y014910D03*
X016712Y014285D03*
X016712Y013660D03*
X016043Y013660D03*
X016043Y014285D03*
X019793Y010410D03*
X020462Y010410D03*
X020462Y009410D03*
X019793Y009410D03*
X019793Y008410D03*
X020462Y008410D03*
X020462Y007410D03*
X019793Y007410D03*
X019793Y006410D03*
X020462Y006410D03*
X020462Y005410D03*
X019793Y005410D03*
X019793Y004410D03*
X020462Y004410D03*
X020462Y003410D03*
X019793Y003410D03*
X023668Y002285D03*
X024337Y002285D03*
X033168Y003410D03*
X033837Y003410D03*
X033837Y004410D03*
X033168Y004410D03*
X033168Y005410D03*
X033837Y005410D03*
X033837Y006410D03*
X033168Y006410D03*
X033168Y007410D03*
X033837Y007410D03*
X033837Y008410D03*
X033168Y008410D03*
X033168Y009410D03*
X033837Y009410D03*
X033837Y010410D03*
X033168Y010410D03*
X030087Y013660D03*
X030087Y014285D03*
X029418Y014285D03*
X029418Y013660D03*
X029418Y014910D03*
X030087Y014910D03*
X030087Y015535D03*
X029418Y015535D03*
X029418Y016160D03*
X030087Y016160D03*
X030087Y016785D03*
X029418Y016785D03*
X029418Y017410D03*
X030087Y017410D03*
X030087Y018035D03*
X029418Y018035D03*
X026587Y018285D03*
X025918Y018285D03*
X024962Y018285D03*
X024293Y018285D03*
X023087Y018035D03*
X022418Y018035D03*
X022418Y017410D03*
X023087Y017410D03*
X023087Y016785D03*
X022418Y016785D03*
X022418Y016160D03*
X023087Y016160D03*
X023087Y015535D03*
X022418Y015535D03*
X022418Y014910D03*
X023087Y014910D03*
X023087Y014285D03*
X023087Y013660D03*
X022418Y013660D03*
X022418Y014285D03*
X016712Y018035D03*
X016043Y018035D03*
X013337Y018285D03*
X012668Y018285D03*
X009712Y018035D03*
X009043Y018035D03*
X009043Y017410D03*
X009712Y017410D03*
X009712Y016785D03*
X009043Y016785D03*
X009043Y016160D03*
X009712Y016160D03*
X009712Y015535D03*
X009043Y015535D03*
X009043Y014910D03*
X009712Y014910D03*
X009712Y014285D03*
X009712Y013660D03*
X009043Y013660D03*
X009043Y014285D03*
X009668Y008785D03*
X010337Y008785D03*
X008087Y006785D03*
X007418Y006785D03*
X007418Y005285D03*
X008087Y005285D03*
X008668Y001785D03*
X009337Y001785D03*
X023043Y008785D03*
X023712Y008785D03*
D17*
X023752Y010410D03*
X022752Y010410D03*
X020877Y011660D03*
X020877Y012660D03*
X020877Y013660D03*
X020877Y014660D03*
X020877Y015660D03*
X020877Y016660D03*
X020877Y017660D03*
X020877Y018660D03*
X018252Y018660D03*
X018252Y017660D03*
X018252Y016660D03*
X018252Y015660D03*
X018252Y014660D03*
X018252Y013660D03*
X018252Y012660D03*
X018252Y011660D03*
X018252Y010410D03*
X018252Y009410D03*
X018252Y008410D03*
X018252Y007410D03*
X018252Y006410D03*
X018252Y005410D03*
X018252Y004410D03*
X018252Y003410D03*
X016377Y010410D03*
X015377Y010410D03*
X014377Y010410D03*
X013377Y010410D03*
X012377Y010410D03*
X011377Y010410D03*
X010377Y010410D03*
X009377Y010410D03*
X007502Y011660D03*
X007502Y012660D03*
X007502Y013660D03*
X007502Y014660D03*
X007502Y015660D03*
X007502Y016660D03*
X007502Y017660D03*
X007502Y018660D03*
X024752Y010410D03*
X025752Y010410D03*
X026752Y010410D03*
X027752Y010410D03*
X028752Y010410D03*
X029752Y010410D03*
X031627Y010410D03*
X031627Y009410D03*
X031627Y008410D03*
X031627Y007410D03*
X031627Y006410D03*
X031627Y005410D03*
X031627Y004410D03*
X031627Y003410D03*
X031627Y011660D03*
X031627Y012660D03*
X031627Y013660D03*
X031627Y014660D03*
X031627Y015660D03*
X031627Y016660D03*
X031627Y017660D03*
X031627Y018660D03*
D18*
X024480Y008035D03*
X024480Y007535D03*
X024480Y007035D03*
X024480Y006535D03*
X024480Y006035D03*
X024480Y005535D03*
X024480Y005035D03*
X024480Y004535D03*
X022275Y004535D03*
X022275Y005035D03*
X022275Y005535D03*
X022275Y006035D03*
X022275Y006535D03*
X022275Y007035D03*
X022275Y007535D03*
X022275Y008035D03*
X011105Y008035D03*
X011105Y007535D03*
X011105Y007035D03*
X011105Y006535D03*
X011105Y006035D03*
X011105Y005535D03*
X011105Y005035D03*
X011105Y004535D03*
X008900Y004535D03*
X008900Y005035D03*
X008900Y005535D03*
X008900Y006035D03*
X008900Y006535D03*
X008900Y007035D03*
X008900Y007535D03*
X008900Y008035D03*
D19*
X012397Y008035D03*
X012397Y007535D03*
X012397Y007035D03*
X012397Y006535D03*
X012397Y006035D03*
X012397Y005535D03*
X012397Y005035D03*
X012397Y004535D03*
X012397Y004035D03*
X012397Y003535D03*
X016357Y003535D03*
X016357Y004035D03*
X016357Y004535D03*
X016357Y005035D03*
X016357Y005535D03*
X016357Y006035D03*
X016357Y006535D03*
X016357Y007035D03*
X016357Y007535D03*
X016357Y008035D03*
X025772Y008035D03*
X025772Y007535D03*
X025772Y007035D03*
X025772Y006535D03*
X025772Y006035D03*
X025772Y005535D03*
X025772Y005035D03*
X025772Y004535D03*
X025772Y004035D03*
X025772Y003535D03*
X029732Y003535D03*
X029732Y004035D03*
X029732Y004535D03*
X029732Y005035D03*
X029732Y005535D03*
X029732Y006035D03*
X029732Y006535D03*
X029732Y007035D03*
X029732Y007535D03*
X029732Y008035D03*
D20*
X027752Y001160D03*
X026752Y001160D03*
X025752Y001160D03*
X024752Y001160D03*
X023752Y001160D03*
X022752Y001160D03*
X020752Y001160D03*
X019752Y001160D03*
X018752Y001160D03*
X017752Y001160D03*
X016752Y001160D03*
X015752Y001160D03*
X014752Y001160D03*
X013752Y001160D03*
X013252Y020160D03*
X012252Y020160D03*
X011252Y020160D03*
X010252Y020160D03*
X014252Y020160D03*
X015252Y020160D03*
X016252Y020160D03*
X017252Y020160D03*
X018252Y020160D03*
X019252Y020160D03*
X020752Y020160D03*
X021752Y020160D03*
X022752Y020160D03*
X023752Y020160D03*
X024752Y020160D03*
X025752Y020160D03*
X026752Y020160D03*
X027752Y020160D03*
M02*
