G75*
%MOIN*%
%OFA0B0*%
%FSLAX24Y24*%
%IPPOS*%
%LPD*%
%AMOC8*
5,1,8,0,0,1.08239X$1,22.5*
%
%ADD10C,0.0120*%
%ADD11C,0.0050*%
%ADD12C,0.0060*%
%ADD13C,0.0040*%
D10*
X006252Y000160D02*
X006252Y021160D01*
X034502Y021160D01*
X034502Y000160D01*
X006252Y000160D01*
D11*
X008377Y001535D02*
X008377Y002035D01*
X009627Y002035D01*
X009627Y001535D01*
X008377Y001535D01*
X008377Y005035D02*
X007127Y005035D01*
X007127Y005535D01*
X008377Y005535D01*
X008377Y005035D01*
X008377Y006535D02*
X007127Y006535D01*
X007127Y007035D01*
X008377Y007035D01*
X008377Y006535D01*
X009377Y008535D02*
X009377Y009035D01*
X010627Y009035D01*
X010627Y008535D01*
X009377Y008535D01*
X008877Y009160D02*
X008877Y011160D01*
X008877Y011660D01*
X016877Y011660D01*
X016877Y011160D01*
X016877Y009160D01*
X008877Y009160D01*
X009355Y009635D02*
X009314Y009677D01*
X009314Y009718D01*
X009355Y009760D01*
X009439Y009760D01*
X009480Y009718D01*
X009480Y009677D01*
X009439Y009635D01*
X009355Y009635D01*
X009355Y009760D02*
X009314Y009802D01*
X009314Y009844D01*
X009355Y009885D01*
X009439Y009885D01*
X009480Y009844D01*
X009480Y009802D01*
X009439Y009760D01*
X010314Y009802D02*
X010355Y009760D01*
X010480Y009760D01*
X010480Y009677D02*
X010480Y009844D01*
X010439Y009885D01*
X010355Y009885D01*
X010314Y009844D01*
X010314Y009802D01*
X010314Y009677D02*
X010355Y009635D01*
X010439Y009635D01*
X010480Y009677D01*
X011100Y009635D02*
X011267Y009635D01*
X011183Y009635D02*
X011183Y009885D01*
X011100Y009802D01*
X011376Y009844D02*
X011418Y009885D01*
X011501Y009885D01*
X011543Y009844D01*
X011376Y009677D01*
X011418Y009635D01*
X011501Y009635D01*
X011543Y009677D01*
X011543Y009844D01*
X011376Y009844D02*
X011376Y009677D01*
X012100Y009635D02*
X012267Y009635D01*
X012183Y009635D02*
X012183Y009885D01*
X012100Y009802D01*
X012376Y009802D02*
X012460Y009885D01*
X012460Y009635D01*
X012543Y009635D02*
X012376Y009635D01*
X013100Y009635D02*
X013267Y009635D01*
X013183Y009635D02*
X013183Y009885D01*
X013100Y009802D01*
X013376Y009844D02*
X013418Y009885D01*
X013501Y009885D01*
X013543Y009844D01*
X013543Y009802D01*
X013376Y009635D01*
X013543Y009635D01*
X014100Y009635D02*
X014267Y009635D01*
X014183Y009635D02*
X014183Y009885D01*
X014100Y009802D01*
X014376Y009844D02*
X014418Y009885D01*
X014501Y009885D01*
X014543Y009844D01*
X014543Y009802D01*
X014501Y009760D01*
X014543Y009718D01*
X014543Y009677D01*
X014501Y009635D01*
X014418Y009635D01*
X014376Y009677D01*
X014460Y009760D02*
X014501Y009760D01*
X015225Y009802D02*
X015308Y009885D01*
X015308Y009635D01*
X015225Y009635D02*
X015392Y009635D01*
X015501Y009760D02*
X015668Y009760D01*
X015626Y009635D02*
X015626Y009885D01*
X015501Y009760D01*
X016100Y009802D02*
X016183Y009885D01*
X016183Y009635D01*
X016100Y009635D02*
X016267Y009635D01*
X016376Y009677D02*
X016418Y009635D01*
X016501Y009635D01*
X016543Y009677D01*
X016543Y009760D01*
X016501Y009802D01*
X016460Y009802D01*
X016376Y009760D01*
X016376Y009885D01*
X016543Y009885D01*
X017152Y010341D02*
X017152Y010424D01*
X017152Y010383D02*
X017361Y010383D01*
X017402Y010341D01*
X017402Y010299D01*
X017361Y010258D01*
X017361Y010534D02*
X017402Y010534D01*
X017361Y010534D02*
X017194Y010701D01*
X017152Y010701D01*
X017152Y010534D01*
X017002Y010910D02*
X017502Y010910D01*
X019502Y010910D01*
X019502Y002910D01*
X017502Y002910D01*
X017002Y002910D01*
X017002Y010910D01*
X017002Y011160D02*
X017502Y011160D01*
X019502Y011160D01*
X019502Y019160D01*
X017502Y019160D01*
X017002Y019160D01*
X017002Y011160D01*
X016877Y011160D02*
X008877Y011160D01*
X008752Y011160D02*
X008252Y011160D01*
X006252Y011160D01*
X006252Y019160D01*
X008252Y019160D01*
X008752Y019160D01*
X008752Y011160D01*
X008975Y011302D02*
X009017Y011260D01*
X009058Y011260D01*
X009100Y011302D01*
X009100Y011510D01*
X009058Y011510D02*
X009142Y011510D01*
X009251Y011469D02*
X009293Y011510D01*
X009376Y011510D01*
X009418Y011469D01*
X009418Y011427D01*
X009251Y011260D01*
X009418Y011260D01*
X009627Y011660D02*
X009127Y011660D01*
X009127Y012910D01*
X009627Y012910D01*
X009627Y011660D01*
X010127Y011660D02*
X010627Y011660D01*
X010627Y012910D01*
X010127Y012910D01*
X010127Y011660D01*
X011127Y011660D02*
X011627Y011660D01*
X011627Y012910D01*
X011127Y012910D01*
X011127Y011660D01*
X012127Y011660D02*
X012627Y011660D01*
X012627Y012910D01*
X012127Y012910D01*
X012127Y011660D01*
X013127Y011660D02*
X013627Y011660D01*
X013627Y012910D01*
X013127Y012910D01*
X013127Y011660D01*
X014127Y011660D02*
X014627Y011660D01*
X014627Y012910D01*
X014127Y012910D01*
X014127Y011660D01*
X015127Y011660D02*
X015627Y011660D01*
X015627Y012910D01*
X015127Y012910D01*
X015127Y011660D01*
X016127Y011660D02*
X016627Y011660D01*
X016627Y012910D01*
X016127Y012910D01*
X016127Y011660D01*
X017502Y011160D02*
X017502Y019160D01*
X017418Y019285D02*
X017318Y019285D01*
X017268Y019335D01*
X017468Y019535D01*
X017468Y019335D01*
X017418Y019285D01*
X017268Y019335D02*
X017268Y019535D01*
X017318Y019585D01*
X017418Y019585D01*
X017468Y019535D01*
X017145Y019285D02*
X016945Y019285D01*
X017045Y019285D02*
X017045Y019585D01*
X016945Y019485D01*
X016468Y019285D02*
X016268Y019285D01*
X016368Y019285D02*
X016368Y019585D01*
X016268Y019485D01*
X016145Y019285D02*
X015945Y019285D01*
X016045Y019285D02*
X016045Y019585D01*
X015945Y019485D01*
X015468Y019485D02*
X015468Y019535D01*
X015418Y019585D01*
X015318Y019585D01*
X015268Y019535D01*
X015468Y019485D02*
X015268Y019285D01*
X015468Y019285D01*
X015145Y019285D02*
X014945Y019285D01*
X015045Y019285D02*
X015045Y019585D01*
X014945Y019485D01*
X014468Y019485D02*
X014418Y019435D01*
X014468Y019385D01*
X014468Y019335D01*
X014418Y019285D01*
X014318Y019285D01*
X014268Y019335D01*
X014145Y019285D02*
X013945Y019285D01*
X014045Y019285D02*
X014045Y019585D01*
X013945Y019485D01*
X013655Y019523D02*
X013605Y019573D01*
X013455Y019573D01*
X013455Y019273D01*
X013605Y019273D01*
X013655Y019323D01*
X013655Y019523D01*
X013333Y019573D02*
X013333Y019273D01*
X013133Y019573D01*
X013133Y019273D01*
X013011Y019323D02*
X012961Y019273D01*
X012861Y019273D01*
X012811Y019323D01*
X012811Y019523D01*
X012861Y019573D01*
X012961Y019573D01*
X013011Y019523D01*
X013011Y019423D02*
X012911Y019423D01*
X013011Y019423D02*
X013011Y019323D01*
X012468Y019273D02*
X012368Y019373D01*
X012418Y019373D02*
X012268Y019373D01*
X012268Y019273D02*
X012268Y019573D01*
X012418Y019573D01*
X012468Y019523D01*
X012468Y019423D01*
X012418Y019373D01*
X012145Y019423D02*
X011945Y019423D01*
X011945Y019473D02*
X012045Y019573D01*
X012145Y019473D01*
X012145Y019273D01*
X011945Y019273D02*
X011945Y019473D01*
X011655Y019473D02*
X011655Y019273D01*
X011655Y019423D02*
X011455Y019423D01*
X011455Y019473D02*
X011555Y019573D01*
X011655Y019473D01*
X011455Y019473D02*
X011455Y019273D01*
X011333Y019323D02*
X011333Y019523D01*
X011283Y019573D01*
X011133Y019573D01*
X011133Y019273D01*
X011283Y019273D01*
X011333Y019323D01*
X011011Y019323D02*
X010961Y019273D01*
X010861Y019273D01*
X010811Y019323D01*
X010861Y019423D02*
X010961Y019423D01*
X011011Y019373D01*
X011011Y019323D01*
X010861Y019423D02*
X010811Y019473D01*
X010811Y019523D01*
X010861Y019573D01*
X010961Y019573D01*
X011011Y019523D01*
X010655Y019285D02*
X010455Y019285D01*
X010455Y019585D01*
X010333Y019535D02*
X010283Y019585D01*
X010183Y019585D01*
X010133Y019535D01*
X010133Y019335D01*
X010183Y019285D01*
X010283Y019285D01*
X010333Y019335D01*
X010011Y019335D02*
X009961Y019285D01*
X009861Y019285D01*
X009811Y019335D01*
X009861Y019435D02*
X009961Y019435D01*
X010011Y019385D01*
X010011Y019335D01*
X009861Y019435D02*
X009811Y019485D01*
X009811Y019535D01*
X009861Y019585D01*
X009961Y019585D01*
X010011Y019535D01*
X008602Y019003D02*
X008602Y018836D01*
X008602Y018920D02*
X008352Y018920D01*
X008436Y018836D01*
X008352Y018727D02*
X008352Y018643D01*
X008352Y018685D02*
X008561Y018685D01*
X008602Y018643D01*
X008602Y018602D01*
X008561Y018560D01*
X008752Y018285D02*
X008752Y017785D01*
X010002Y017785D01*
X010002Y018285D01*
X008752Y018285D01*
X008752Y017660D02*
X008752Y017160D01*
X010002Y017160D01*
X010002Y017660D01*
X008752Y017660D01*
X008752Y017035D02*
X008752Y016535D01*
X010002Y016535D01*
X010002Y017035D01*
X008752Y017035D01*
X008752Y016410D02*
X008752Y015910D01*
X010002Y015910D01*
X010002Y016410D01*
X008752Y016410D01*
X008752Y015785D02*
X008752Y015285D01*
X010002Y015285D01*
X010002Y015785D01*
X008752Y015785D01*
X008752Y015160D02*
X008752Y014660D01*
X010002Y014660D01*
X010002Y015160D01*
X008752Y015160D01*
X008752Y014535D02*
X008752Y014035D01*
X010002Y014035D01*
X010002Y014535D01*
X008752Y014535D01*
X008752Y013910D02*
X008752Y013410D01*
X010002Y013410D01*
X010002Y013910D01*
X008752Y013910D01*
X009052Y013235D02*
X009177Y013235D01*
X009219Y013194D01*
X009219Y013110D01*
X009177Y013068D01*
X009052Y013068D01*
X009052Y012985D02*
X009052Y013235D01*
X009136Y013068D02*
X009219Y012985D01*
X009329Y012985D02*
X009495Y012985D01*
X009412Y012985D02*
X009412Y013235D01*
X009329Y013152D01*
X009605Y013152D02*
X009605Y013194D01*
X009647Y013235D01*
X009730Y013235D01*
X009772Y013194D01*
X009772Y013152D01*
X009730Y013110D01*
X009647Y013110D01*
X009605Y013152D01*
X009647Y013110D02*
X009605Y013068D01*
X009605Y013027D01*
X009647Y012985D01*
X009730Y012985D01*
X009772Y013027D01*
X009772Y013068D01*
X009730Y013110D01*
X010052Y013068D02*
X010177Y013068D01*
X010219Y013110D01*
X010219Y013194D01*
X010177Y013235D01*
X010052Y013235D01*
X010052Y012985D01*
X010136Y013068D02*
X010219Y012985D01*
X010329Y012985D02*
X010495Y012985D01*
X010412Y012985D02*
X010412Y013235D01*
X010329Y013152D01*
X010605Y013152D02*
X010647Y013110D01*
X010772Y013110D01*
X010772Y013027D02*
X010772Y013194D01*
X010730Y013235D01*
X010647Y013235D01*
X010605Y013194D01*
X010605Y013152D01*
X010605Y013027D02*
X010647Y012985D01*
X010730Y012985D01*
X010772Y013027D01*
X011052Y013068D02*
X011177Y013068D01*
X011219Y013110D01*
X011219Y013194D01*
X011177Y013235D01*
X011052Y013235D01*
X011052Y012985D01*
X011136Y013068D02*
X011219Y012985D01*
X011329Y012985D02*
X011495Y013152D01*
X011495Y013194D01*
X011454Y013235D01*
X011370Y013235D01*
X011329Y013194D01*
X011329Y012985D02*
X011495Y012985D01*
X011605Y013027D02*
X011647Y012985D01*
X011730Y012985D01*
X011772Y013027D01*
X011772Y013194D01*
X011605Y013027D01*
X011605Y013194D01*
X011647Y013235D01*
X011730Y013235D01*
X011772Y013194D01*
X012052Y013235D02*
X012052Y012985D01*
X012052Y013068D02*
X012177Y013068D01*
X012219Y013110D01*
X012219Y013194D01*
X012177Y013235D01*
X012052Y013235D01*
X012136Y013068D02*
X012219Y012985D01*
X012329Y012985D02*
X012495Y013152D01*
X012495Y013194D01*
X012454Y013235D01*
X012370Y013235D01*
X012329Y013194D01*
X012329Y012985D02*
X012495Y012985D01*
X012605Y012985D02*
X012772Y012985D01*
X012688Y012985D02*
X012688Y013235D01*
X012605Y013152D01*
X013052Y013235D02*
X013052Y012985D01*
X013052Y013068D02*
X013177Y013068D01*
X013219Y013110D01*
X013219Y013194D01*
X013177Y013235D01*
X013052Y013235D01*
X013136Y013068D02*
X013219Y012985D01*
X013329Y012985D02*
X013495Y013152D01*
X013495Y013194D01*
X013454Y013235D01*
X013370Y013235D01*
X013329Y013194D01*
X013329Y012985D02*
X013495Y012985D01*
X013605Y012985D02*
X013772Y013152D01*
X013772Y013194D01*
X013730Y013235D01*
X013647Y013235D01*
X013605Y013194D01*
X013605Y012985D02*
X013772Y012985D01*
X014052Y012985D02*
X014052Y013235D01*
X014177Y013235D01*
X014219Y013194D01*
X014219Y013110D01*
X014177Y013068D01*
X014052Y013068D01*
X014136Y013068D02*
X014219Y012985D01*
X014329Y012985D02*
X014495Y013152D01*
X014495Y013194D01*
X014454Y013235D01*
X014370Y013235D01*
X014329Y013194D01*
X014329Y012985D02*
X014495Y012985D01*
X014605Y013027D02*
X014647Y012985D01*
X014730Y012985D01*
X014772Y013027D01*
X014772Y013068D01*
X014730Y013110D01*
X014688Y013110D01*
X014730Y013110D02*
X014772Y013152D01*
X014772Y013194D01*
X014730Y013235D01*
X014647Y013235D01*
X014605Y013194D01*
X015052Y013235D02*
X015052Y012985D01*
X015052Y013068D02*
X015177Y013068D01*
X015219Y013110D01*
X015219Y013194D01*
X015177Y013235D01*
X015052Y013235D01*
X015136Y013068D02*
X015219Y012985D01*
X015329Y012985D02*
X015495Y013152D01*
X015495Y013194D01*
X015454Y013235D01*
X015370Y013235D01*
X015329Y013194D01*
X015329Y012985D02*
X015495Y012985D01*
X015605Y013110D02*
X015772Y013110D01*
X015730Y012985D02*
X015730Y013235D01*
X015605Y013110D01*
X015752Y013410D02*
X015752Y013910D01*
X017002Y013910D01*
X017002Y013410D01*
X015752Y013410D01*
X015601Y013523D02*
X015518Y013523D01*
X015476Y013564D01*
X015476Y013648D01*
X015601Y013648D01*
X015643Y013606D01*
X015643Y013564D01*
X015601Y013523D01*
X015476Y013648D02*
X015560Y013731D01*
X015643Y013773D01*
X015367Y013731D02*
X015325Y013773D01*
X015242Y013773D01*
X015200Y013731D01*
X015090Y013731D02*
X015090Y013648D01*
X015049Y013606D01*
X014924Y013606D01*
X015007Y013606D02*
X015090Y013523D01*
X015200Y013523D02*
X015367Y013689D01*
X015367Y013731D01*
X015367Y013523D02*
X015200Y013523D01*
X015090Y013731D02*
X015049Y013773D01*
X014924Y013773D01*
X014924Y013523D01*
X015752Y014035D02*
X015752Y014535D01*
X017002Y014535D01*
X017002Y014035D01*
X015752Y014035D01*
X015476Y014148D02*
X015476Y014189D01*
X015643Y014356D01*
X015643Y014398D01*
X015476Y014398D01*
X015367Y014356D02*
X015325Y014398D01*
X015242Y014398D01*
X015200Y014356D01*
X015090Y014356D02*
X015090Y014273D01*
X015049Y014231D01*
X014924Y014231D01*
X015007Y014231D02*
X015090Y014148D01*
X015200Y014148D02*
X015367Y014314D01*
X015367Y014356D01*
X015367Y014148D02*
X015200Y014148D01*
X015090Y014356D02*
X015049Y014398D01*
X014924Y014398D01*
X014924Y014148D01*
X015752Y014660D02*
X015752Y015160D01*
X017002Y015160D01*
X017002Y014660D01*
X015752Y014660D01*
X015601Y014773D02*
X015518Y014773D01*
X015476Y014814D01*
X015476Y014856D01*
X015518Y014898D01*
X015601Y014898D01*
X015643Y014856D01*
X015643Y014814D01*
X015601Y014773D01*
X015601Y014898D02*
X015643Y014939D01*
X015643Y014981D01*
X015601Y015023D01*
X015518Y015023D01*
X015476Y014981D01*
X015476Y014939D01*
X015518Y014898D01*
X015367Y014939D02*
X015367Y014981D01*
X015325Y015023D01*
X015242Y015023D01*
X015200Y014981D01*
X015090Y014981D02*
X015090Y014898D01*
X015049Y014856D01*
X014924Y014856D01*
X015007Y014856D02*
X015090Y014773D01*
X015200Y014773D02*
X015367Y014939D01*
X015367Y014773D02*
X015200Y014773D01*
X015090Y014981D02*
X015049Y015023D01*
X014924Y015023D01*
X014924Y014773D01*
X015752Y015285D02*
X015752Y015785D01*
X017002Y015785D01*
X017002Y015285D01*
X015752Y015285D01*
X015601Y015398D02*
X015518Y015398D01*
X015476Y015439D01*
X015518Y015523D02*
X015643Y015523D01*
X015643Y015606D02*
X015643Y015439D01*
X015601Y015398D01*
X015518Y015523D02*
X015476Y015564D01*
X015476Y015606D01*
X015518Y015648D01*
X015601Y015648D01*
X015643Y015606D01*
X015367Y015606D02*
X015367Y015564D01*
X015200Y015398D01*
X015367Y015398D01*
X015367Y015606D02*
X015325Y015648D01*
X015242Y015648D01*
X015200Y015606D01*
X015090Y015606D02*
X015090Y015523D01*
X015049Y015481D01*
X014924Y015481D01*
X015007Y015481D02*
X015090Y015398D01*
X014924Y015398D02*
X014924Y015648D01*
X015049Y015648D01*
X015090Y015606D01*
X015090Y016023D02*
X015007Y016106D01*
X015049Y016106D02*
X014924Y016106D01*
X014924Y016023D02*
X014924Y016273D01*
X015049Y016273D01*
X015090Y016231D01*
X015090Y016148D01*
X015049Y016106D01*
X015200Y016064D02*
X015242Y016023D01*
X015325Y016023D01*
X015367Y016064D01*
X015367Y016106D01*
X015325Y016148D01*
X015283Y016148D01*
X015325Y016148D02*
X015367Y016189D01*
X015367Y016231D01*
X015325Y016273D01*
X015242Y016273D01*
X015200Y016231D01*
X015476Y016231D02*
X015518Y016273D01*
X015601Y016273D01*
X015643Y016231D01*
X015476Y016064D01*
X015518Y016023D01*
X015601Y016023D01*
X015643Y016064D01*
X015643Y016231D01*
X015476Y016231D02*
X015476Y016064D01*
X015752Y015910D02*
X015752Y016410D01*
X017002Y016410D01*
X017002Y015910D01*
X015752Y015910D01*
X015752Y016535D02*
X015752Y017035D01*
X017002Y017035D01*
X017002Y016535D01*
X015752Y016535D01*
X015643Y016648D02*
X015476Y016648D01*
X015560Y016648D02*
X015560Y016898D01*
X015476Y016814D01*
X015367Y016814D02*
X015325Y016773D01*
X015367Y016731D01*
X015367Y016689D01*
X015325Y016648D01*
X015242Y016648D01*
X015200Y016689D01*
X015090Y016648D02*
X015007Y016731D01*
X015049Y016731D02*
X014924Y016731D01*
X014924Y016648D02*
X014924Y016898D01*
X015049Y016898D01*
X015090Y016856D01*
X015090Y016773D01*
X015049Y016731D01*
X015200Y016856D02*
X015242Y016898D01*
X015325Y016898D01*
X015367Y016856D01*
X015367Y016814D01*
X015325Y016773D02*
X015283Y016773D01*
X015365Y017085D02*
X015365Y017210D01*
X015406Y017252D01*
X015490Y017252D01*
X015531Y017210D01*
X015531Y017085D01*
X015531Y017168D02*
X015615Y017252D01*
X015573Y017361D02*
X015615Y017403D01*
X015615Y017486D01*
X015573Y017528D01*
X015531Y017528D01*
X015490Y017486D01*
X015490Y017445D01*
X015490Y017486D02*
X015448Y017528D01*
X015406Y017528D01*
X015365Y017486D01*
X015365Y017403D01*
X015406Y017361D01*
X015252Y017285D02*
X014752Y017285D01*
X014752Y018535D01*
X015252Y018535D01*
X015252Y017285D01*
X015365Y017085D02*
X015615Y017085D01*
X015752Y017160D02*
X015752Y017660D01*
X017002Y017660D01*
X017002Y017160D01*
X015752Y017160D01*
X015615Y017637D02*
X015448Y017804D01*
X015406Y017804D01*
X015365Y017763D01*
X015365Y017679D01*
X015406Y017637D01*
X015615Y017637D02*
X015615Y017804D01*
X015752Y017785D02*
X015752Y018285D01*
X017002Y018285D01*
X017002Y017785D01*
X015752Y017785D01*
X015677Y018085D02*
X015427Y018085D01*
X015427Y018210D01*
X015469Y018252D01*
X015552Y018252D01*
X015594Y018210D01*
X015594Y018085D01*
X015594Y018168D02*
X015677Y018252D01*
X015636Y018361D02*
X015677Y018403D01*
X015677Y018486D01*
X015636Y018528D01*
X015594Y018528D01*
X015552Y018486D01*
X015552Y018445D01*
X015552Y018486D02*
X015511Y018528D01*
X015469Y018528D01*
X015427Y018486D01*
X015427Y018403D01*
X015469Y018361D01*
X015469Y018637D02*
X015427Y018679D01*
X015427Y018763D01*
X015469Y018804D01*
X015511Y018804D01*
X015552Y018763D01*
X015594Y018804D01*
X015636Y018804D01*
X015677Y018763D01*
X015677Y018679D01*
X015636Y018637D01*
X015552Y018721D02*
X015552Y018763D01*
X014468Y019485D02*
X014468Y019535D01*
X014418Y019585D01*
X014318Y019585D01*
X014268Y019535D01*
X014368Y019435D02*
X014418Y019435D01*
X013627Y018535D02*
X013627Y018035D01*
X012377Y018035D01*
X012377Y018535D01*
X013627Y018535D01*
X013252Y017785D02*
X013250Y017747D01*
X013244Y017710D01*
X013235Y017673D01*
X013222Y017637D01*
X013205Y017603D01*
X013185Y017571D01*
X013162Y017541D01*
X013135Y017513D01*
X013107Y017488D01*
X013075Y017467D01*
X013042Y017448D01*
X013007Y017433D01*
X012971Y017422D01*
X012934Y017414D01*
X012896Y017410D01*
X012858Y017410D01*
X012820Y017414D01*
X012783Y017422D01*
X012747Y017433D01*
X012712Y017448D01*
X012679Y017467D01*
X012647Y017488D01*
X012619Y017513D01*
X012592Y017541D01*
X012569Y017571D01*
X012549Y017603D01*
X012532Y017637D01*
X012519Y017673D01*
X012510Y017710D01*
X012504Y017747D01*
X012502Y017785D01*
X010834Y018027D02*
X010792Y017985D01*
X010709Y017985D01*
X010667Y018027D01*
X010834Y018194D01*
X010834Y018027D01*
X010834Y018194D02*
X010792Y018235D01*
X010709Y018235D01*
X010667Y018194D01*
X010667Y018027D01*
X010558Y017985D02*
X010391Y017985D01*
X010475Y017985D02*
X010475Y018235D01*
X010391Y018152D01*
X010282Y018194D02*
X010282Y018110D01*
X010240Y018068D01*
X010115Y018068D01*
X010115Y017985D02*
X010115Y018235D01*
X010240Y018235D01*
X010282Y018194D01*
X010198Y018068D02*
X010282Y017985D01*
X010240Y017610D02*
X010282Y017569D01*
X010282Y017485D01*
X010240Y017443D01*
X010115Y017443D01*
X010115Y017360D02*
X010115Y017610D01*
X010240Y017610D01*
X010198Y017443D02*
X010282Y017360D01*
X010391Y017360D02*
X010558Y017360D01*
X010475Y017360D02*
X010475Y017610D01*
X010391Y017527D01*
X010667Y017527D02*
X010751Y017610D01*
X010751Y017360D01*
X010834Y017360D02*
X010667Y017360D01*
X010709Y016985D02*
X010667Y016944D01*
X010709Y016985D02*
X010792Y016985D01*
X010834Y016944D01*
X010834Y016902D01*
X010667Y016735D01*
X010834Y016735D01*
X010558Y016735D02*
X010391Y016735D01*
X010475Y016735D02*
X010475Y016985D01*
X010391Y016902D01*
X010282Y016944D02*
X010282Y016860D01*
X010240Y016818D01*
X010115Y016818D01*
X010115Y016735D02*
X010115Y016985D01*
X010240Y016985D01*
X010282Y016944D01*
X010198Y016818D02*
X010282Y016735D01*
X010240Y016360D02*
X010282Y016319D01*
X010282Y016235D01*
X010240Y016193D01*
X010115Y016193D01*
X010115Y016110D02*
X010115Y016360D01*
X010240Y016360D01*
X010198Y016193D02*
X010282Y016110D01*
X010391Y016110D02*
X010558Y016110D01*
X010475Y016110D02*
X010475Y016360D01*
X010391Y016277D01*
X010667Y016319D02*
X010709Y016360D01*
X010792Y016360D01*
X010834Y016319D01*
X010834Y016277D01*
X010792Y016235D01*
X010834Y016193D01*
X010834Y016152D01*
X010792Y016110D01*
X010709Y016110D01*
X010667Y016152D01*
X010751Y016235D02*
X010792Y016235D01*
X010792Y015735D02*
X010667Y015610D01*
X010834Y015610D01*
X010792Y015485D02*
X010792Y015735D01*
X010475Y015735D02*
X010475Y015485D01*
X010558Y015485D02*
X010391Y015485D01*
X010282Y015485D02*
X010198Y015568D01*
X010240Y015568D02*
X010115Y015568D01*
X010115Y015485D02*
X010115Y015735D01*
X010240Y015735D01*
X010282Y015694D01*
X010282Y015610D01*
X010240Y015568D01*
X010391Y015652D02*
X010475Y015735D01*
X010475Y015110D02*
X010391Y015027D01*
X010282Y015069D02*
X010282Y014985D01*
X010240Y014943D01*
X010115Y014943D01*
X010115Y014860D02*
X010115Y015110D01*
X010240Y015110D01*
X010282Y015069D01*
X010198Y014943D02*
X010282Y014860D01*
X010391Y014860D02*
X010558Y014860D01*
X010475Y014860D02*
X010475Y015110D01*
X010667Y015110D02*
X010667Y014985D01*
X010751Y015027D01*
X010792Y015027D01*
X010834Y014985D01*
X010834Y014902D01*
X010792Y014860D01*
X010709Y014860D01*
X010667Y014902D01*
X010667Y015110D02*
X010834Y015110D01*
X010834Y014485D02*
X010751Y014444D01*
X010667Y014360D01*
X010792Y014360D01*
X010834Y014318D01*
X010834Y014277D01*
X010792Y014235D01*
X010709Y014235D01*
X010667Y014277D01*
X010667Y014360D01*
X010558Y014235D02*
X010391Y014235D01*
X010475Y014235D02*
X010475Y014485D01*
X010391Y014402D01*
X010282Y014444D02*
X010282Y014360D01*
X010240Y014318D01*
X010115Y014318D01*
X010115Y014235D02*
X010115Y014485D01*
X010240Y014485D01*
X010282Y014444D01*
X010198Y014318D02*
X010282Y014235D01*
X010240Y013860D02*
X010282Y013819D01*
X010282Y013735D01*
X010240Y013693D01*
X010115Y013693D01*
X010115Y013610D02*
X010115Y013860D01*
X010240Y013860D01*
X010198Y013693D02*
X010282Y013610D01*
X010391Y013610D02*
X010558Y013610D01*
X010475Y013610D02*
X010475Y013860D01*
X010391Y013777D01*
X010667Y013860D02*
X010834Y013860D01*
X010834Y013819D01*
X010667Y013652D01*
X010667Y013610D01*
X006944Y013602D02*
X006902Y013560D01*
X006819Y013560D01*
X006777Y013602D01*
X006777Y013685D02*
X006861Y013727D01*
X006902Y013727D01*
X006944Y013685D01*
X006944Y013602D01*
X006777Y013685D02*
X006777Y013810D01*
X006944Y013810D01*
X006902Y014560D02*
X006902Y014810D01*
X006777Y014685D01*
X006944Y014685D01*
X006902Y015560D02*
X006819Y015560D01*
X006777Y015602D01*
X006861Y015685D02*
X006902Y015685D01*
X006944Y015643D01*
X006944Y015602D01*
X006902Y015560D01*
X006902Y015685D02*
X006944Y015727D01*
X006944Y015769D01*
X006902Y015810D01*
X006819Y015810D01*
X006777Y015769D01*
X006777Y016435D02*
X006944Y016602D01*
X006944Y016644D01*
X006902Y016685D01*
X006819Y016685D01*
X006777Y016644D01*
X006777Y016435D02*
X006944Y016435D01*
X006944Y017560D02*
X006777Y017560D01*
X006861Y017560D02*
X006861Y017810D01*
X006777Y017727D01*
X006819Y018560D02*
X006777Y018602D01*
X006944Y018769D01*
X006944Y018602D01*
X006902Y018560D01*
X006819Y018560D01*
X006777Y018602D02*
X006777Y018769D01*
X006819Y018810D01*
X006902Y018810D01*
X006944Y018769D01*
X008252Y019160D02*
X008252Y011160D01*
X006944Y011769D02*
X006777Y011602D01*
X006777Y011560D01*
X006777Y011810D02*
X006944Y011810D01*
X006944Y011769D01*
X006902Y012560D02*
X006944Y012602D01*
X006944Y012643D01*
X006902Y012685D01*
X006777Y012685D01*
X006777Y012602D01*
X006819Y012560D01*
X006902Y012560D01*
X006777Y012685D02*
X006861Y012769D01*
X006944Y012810D01*
X016052Y012985D02*
X016052Y013235D01*
X016177Y013235D01*
X016219Y013194D01*
X016219Y013110D01*
X016177Y013068D01*
X016052Y013068D01*
X016136Y013068D02*
X016219Y012985D01*
X016329Y012985D02*
X016495Y013152D01*
X016495Y013194D01*
X016454Y013235D01*
X016370Y013235D01*
X016329Y013194D01*
X016329Y012985D02*
X016495Y012985D01*
X016605Y013027D02*
X016647Y012985D01*
X016730Y012985D01*
X016772Y013027D01*
X016772Y013110D01*
X016730Y013152D01*
X016688Y013152D01*
X016605Y013110D01*
X016605Y013235D01*
X016772Y013235D01*
X018777Y013560D02*
X018944Y013560D01*
X018861Y013560D02*
X018861Y013810D01*
X018777Y013727D01*
X019054Y013727D02*
X019054Y013769D01*
X019095Y013810D01*
X019179Y013810D01*
X019220Y013769D01*
X019220Y013727D01*
X019179Y013685D01*
X019095Y013685D01*
X019054Y013727D01*
X019095Y013685D02*
X019054Y013643D01*
X019054Y013602D01*
X019095Y013560D01*
X019179Y013560D01*
X019220Y013602D01*
X019220Y013643D01*
X019179Y013685D01*
X019902Y013769D02*
X019944Y013810D01*
X020027Y013810D01*
X020069Y013769D01*
X020069Y013727D01*
X019902Y013560D01*
X020069Y013560D01*
X020179Y013602D02*
X020220Y013560D01*
X020304Y013560D01*
X020345Y013602D01*
X020345Y013769D01*
X020304Y013810D01*
X020220Y013810D01*
X020179Y013769D01*
X020179Y013727D01*
X020220Y013685D01*
X020345Y013685D01*
X020304Y012810D02*
X020345Y012769D01*
X020179Y012602D01*
X020220Y012560D01*
X020304Y012560D01*
X020345Y012602D01*
X020345Y012769D01*
X020304Y012810D02*
X020220Y012810D01*
X020179Y012769D01*
X020179Y012602D01*
X020069Y012602D02*
X020027Y012560D01*
X019944Y012560D01*
X019902Y012602D01*
X019986Y012685D02*
X020027Y012685D01*
X020069Y012643D01*
X020069Y012602D01*
X020027Y012685D02*
X020069Y012727D01*
X020069Y012769D01*
X020027Y012810D01*
X019944Y012810D01*
X019902Y012769D01*
X019220Y012769D02*
X019054Y012602D01*
X019054Y012560D01*
X018944Y012560D02*
X018777Y012560D01*
X018861Y012560D02*
X018861Y012810D01*
X018777Y012727D01*
X019054Y012810D02*
X019220Y012810D01*
X019220Y012769D01*
X019220Y011810D02*
X019137Y011769D01*
X019054Y011685D01*
X019179Y011685D01*
X019220Y011643D01*
X019220Y011602D01*
X019179Y011560D01*
X019095Y011560D01*
X019054Y011602D01*
X019054Y011685D01*
X018944Y011560D02*
X018777Y011560D01*
X018861Y011560D02*
X018861Y011810D01*
X018777Y011727D01*
X019627Y011160D02*
X021627Y011160D01*
X022127Y011160D01*
X022127Y019160D01*
X021627Y019160D01*
X019627Y019160D01*
X019627Y011160D01*
X019944Y011560D02*
X019902Y011602D01*
X019944Y011560D02*
X020027Y011560D01*
X020069Y011602D01*
X020069Y011643D01*
X020027Y011685D01*
X019986Y011685D01*
X020027Y011685D02*
X020069Y011727D01*
X020069Y011769D01*
X020027Y011810D01*
X019944Y011810D01*
X019902Y011769D01*
X020179Y011727D02*
X020262Y011810D01*
X020262Y011560D01*
X020179Y011560D02*
X020345Y011560D01*
X020752Y010660D02*
X019502Y010660D01*
X019502Y010160D01*
X020752Y010160D01*
X020752Y010660D01*
X020433Y010048D02*
X020350Y010006D01*
X020266Y009923D01*
X020391Y009923D01*
X020433Y009881D01*
X020433Y009839D01*
X020391Y009798D01*
X020308Y009798D01*
X020266Y009839D01*
X020266Y009923D01*
X020157Y009923D02*
X020115Y009881D01*
X019990Y009881D01*
X020073Y009881D02*
X020157Y009798D01*
X020157Y009923D02*
X020157Y010006D01*
X020115Y010048D01*
X019990Y010048D01*
X019990Y009798D01*
X019502Y009660D02*
X019502Y009160D01*
X020752Y009160D01*
X020752Y009660D01*
X019502Y009660D01*
X019111Y009560D02*
X019111Y009310D01*
X019194Y009310D02*
X019027Y009310D01*
X019027Y009477D02*
X019111Y009560D01*
X019152Y010310D02*
X019069Y010310D01*
X019027Y010352D01*
X019194Y010519D01*
X019194Y010352D01*
X019152Y010310D01*
X019027Y010352D02*
X019027Y010519D01*
X019069Y010560D01*
X019152Y010560D01*
X019194Y010519D01*
X017502Y010910D02*
X017502Y002910D01*
X017463Y002085D02*
X017463Y001935D01*
X017563Y001985D01*
X017613Y001985D01*
X017663Y001935D01*
X017663Y001835D01*
X017613Y001785D01*
X017513Y001785D01*
X017463Y001835D01*
X017463Y002085D02*
X017663Y002085D01*
X017785Y002085D02*
X017785Y001885D01*
X017885Y001785D01*
X017985Y001885D01*
X017985Y002085D01*
X018828Y002035D02*
X018828Y001835D01*
X018878Y001785D01*
X018978Y001785D01*
X019028Y001835D01*
X019028Y001935D01*
X018928Y001935D01*
X018828Y002035D02*
X018878Y002085D01*
X018978Y002085D01*
X019028Y002035D01*
X019150Y002085D02*
X019350Y001785D01*
X019350Y002085D01*
X019473Y002085D02*
X019473Y001785D01*
X019623Y001785D01*
X019673Y001835D01*
X019673Y002035D01*
X019623Y002085D01*
X019473Y002085D01*
X019150Y002085D02*
X019150Y001785D01*
X020373Y001885D02*
X020473Y001785D01*
X020573Y001885D01*
X020573Y002085D01*
X020695Y002085D02*
X020795Y002085D01*
X020745Y002085D02*
X020745Y001785D01*
X020695Y001785D02*
X020795Y001785D01*
X020910Y001785D02*
X020910Y002085D01*
X021110Y001785D01*
X021110Y002085D01*
X020373Y002085D02*
X020373Y001885D01*
X020391Y002798D02*
X020433Y002839D01*
X020433Y002881D01*
X020391Y002923D01*
X020266Y002923D01*
X020266Y002839D01*
X020308Y002798D01*
X020391Y002798D01*
X020542Y002798D02*
X020709Y002798D01*
X020626Y002798D02*
X020626Y003048D01*
X020542Y002964D01*
X020433Y003048D02*
X020350Y003006D01*
X020266Y002923D01*
X020157Y002923D02*
X020115Y002881D01*
X019990Y002881D01*
X020073Y002881D02*
X020157Y002798D01*
X020157Y002923D02*
X020157Y003006D01*
X020115Y003048D01*
X019990Y003048D01*
X019990Y002798D01*
X019502Y003160D02*
X019502Y003660D01*
X020752Y003660D01*
X020752Y003160D01*
X019502Y003160D01*
X019194Y003394D02*
X019027Y003227D01*
X019027Y003185D01*
X019027Y003435D02*
X019194Y003435D01*
X019194Y003394D01*
X019990Y003798D02*
X019990Y004048D01*
X020115Y004048D01*
X020157Y004006D01*
X020157Y003923D01*
X020115Y003881D01*
X019990Y003881D01*
X020073Y003881D02*
X020157Y003798D01*
X020266Y003839D02*
X020308Y003798D01*
X020391Y003798D01*
X020433Y003839D01*
X020433Y003881D01*
X020391Y003923D01*
X020266Y003923D01*
X020266Y003839D01*
X020266Y003923D02*
X020350Y004006D01*
X020433Y004048D01*
X020542Y004006D02*
X020542Y003839D01*
X020709Y004006D01*
X020709Y003839D01*
X020667Y003798D01*
X020584Y003798D01*
X020542Y003839D01*
X020542Y004006D02*
X020584Y004048D01*
X020667Y004048D01*
X020709Y004006D01*
X020752Y004160D02*
X020752Y004660D01*
X019502Y004660D01*
X019502Y004160D01*
X020752Y004160D01*
X020667Y004798D02*
X020709Y004839D01*
X020709Y005006D01*
X020667Y005048D01*
X020584Y005048D01*
X020542Y005006D01*
X020542Y004964D01*
X020584Y004923D01*
X020709Y004923D01*
X020667Y004798D02*
X020584Y004798D01*
X020542Y004839D01*
X020433Y004839D02*
X020391Y004798D01*
X020308Y004798D01*
X020266Y004839D01*
X020266Y004923D02*
X020350Y004964D01*
X020391Y004964D01*
X020433Y004923D01*
X020433Y004839D01*
X020266Y004923D02*
X020266Y005048D01*
X020433Y005048D01*
X020157Y005006D02*
X020157Y004923D01*
X020115Y004881D01*
X019990Y004881D01*
X020073Y004881D02*
X020157Y004798D01*
X019990Y004798D02*
X019990Y005048D01*
X020115Y005048D01*
X020157Y005006D01*
X020752Y005160D02*
X020752Y005660D01*
X019502Y005660D01*
X019502Y005160D01*
X020752Y005160D01*
X020667Y005798D02*
X020584Y005798D01*
X020542Y005839D01*
X020542Y005881D01*
X020584Y005923D01*
X020667Y005923D01*
X020709Y005881D01*
X020709Y005839D01*
X020667Y005798D01*
X020667Y005923D02*
X020709Y005964D01*
X020709Y006006D01*
X020667Y006048D01*
X020584Y006048D01*
X020542Y006006D01*
X020542Y005964D01*
X020584Y005923D01*
X020433Y005923D02*
X020433Y005839D01*
X020391Y005798D01*
X020308Y005798D01*
X020266Y005839D01*
X020266Y005923D02*
X020350Y005964D01*
X020391Y005964D01*
X020433Y005923D01*
X020433Y006048D02*
X020266Y006048D01*
X020266Y005923D01*
X020157Y005923D02*
X020115Y005881D01*
X019990Y005881D01*
X020073Y005881D02*
X020157Y005798D01*
X020157Y005923D02*
X020157Y006006D01*
X020115Y006048D01*
X019990Y006048D01*
X019990Y005798D01*
X019502Y006160D02*
X019502Y006660D01*
X020752Y006660D01*
X020752Y006160D01*
X019502Y006160D01*
X019152Y006310D02*
X019152Y006560D01*
X019027Y006435D01*
X019194Y006435D01*
X019990Y006798D02*
X019990Y007048D01*
X020115Y007048D01*
X020157Y007006D01*
X020157Y006923D01*
X020115Y006881D01*
X019990Y006881D01*
X020073Y006881D02*
X020157Y006798D01*
X020266Y006839D02*
X020308Y006798D01*
X020391Y006798D01*
X020433Y006839D01*
X020433Y007006D01*
X020391Y007048D01*
X020308Y007048D01*
X020266Y007006D01*
X020266Y006964D01*
X020308Y006923D01*
X020433Y006923D01*
X020752Y007160D02*
X019502Y007160D01*
X019502Y007660D01*
X020752Y007660D01*
X020752Y007160D01*
X020391Y007798D02*
X020308Y007798D01*
X020266Y007839D01*
X020266Y007881D01*
X020308Y007923D01*
X020391Y007923D01*
X020433Y007881D01*
X020433Y007839D01*
X020391Y007798D01*
X020391Y007923D02*
X020433Y007964D01*
X020433Y008006D01*
X020391Y008048D01*
X020308Y008048D01*
X020266Y008006D01*
X020266Y007964D01*
X020308Y007923D01*
X020157Y007923D02*
X020115Y007881D01*
X019990Y007881D01*
X020073Y007881D02*
X020157Y007798D01*
X020157Y007923D02*
X020157Y008006D01*
X020115Y008048D01*
X019990Y008048D01*
X019990Y007798D01*
X019502Y008160D02*
X019502Y008660D01*
X020752Y008660D01*
X020752Y008160D01*
X019502Y008160D01*
X019194Y008310D02*
X019027Y008310D01*
X019194Y008477D01*
X019194Y008519D01*
X019152Y008560D01*
X019069Y008560D01*
X019027Y008519D01*
X019990Y008798D02*
X019990Y009048D01*
X020115Y009048D01*
X020157Y009006D01*
X020157Y008923D01*
X020115Y008881D01*
X019990Y008881D01*
X020073Y008881D02*
X020157Y008798D01*
X020266Y008798D02*
X020266Y008839D01*
X020433Y009006D01*
X020433Y009048D01*
X020266Y009048D01*
X022252Y009160D02*
X022252Y011160D01*
X022252Y011660D01*
X030252Y011660D01*
X030252Y011160D01*
X030252Y009160D01*
X022252Y009160D01*
X022752Y009035D02*
X024002Y009035D01*
X024002Y008535D01*
X022752Y008535D01*
X022752Y009035D01*
X022814Y009635D02*
X022980Y009802D01*
X022980Y009844D01*
X022939Y009885D01*
X022855Y009885D01*
X022814Y009844D01*
X022704Y009844D02*
X022704Y009802D01*
X022662Y009760D01*
X022704Y009718D01*
X022704Y009677D01*
X022662Y009635D01*
X022579Y009635D01*
X022537Y009677D01*
X022621Y009760D02*
X022662Y009760D01*
X022704Y009844D02*
X022662Y009885D01*
X022579Y009885D01*
X022537Y009844D01*
X022814Y009635D02*
X022980Y009635D01*
X023537Y009677D02*
X023579Y009635D01*
X023662Y009635D01*
X023704Y009677D01*
X023704Y009718D01*
X023662Y009760D01*
X023621Y009760D01*
X023662Y009760D02*
X023704Y009802D01*
X023704Y009844D01*
X023662Y009885D01*
X023579Y009885D01*
X023537Y009844D01*
X023814Y009844D02*
X023855Y009885D01*
X023939Y009885D01*
X023980Y009844D01*
X023980Y009802D01*
X023939Y009760D01*
X023980Y009718D01*
X023980Y009677D01*
X023939Y009635D01*
X023855Y009635D01*
X023814Y009677D01*
X023897Y009760D02*
X023939Y009760D01*
X024537Y009677D02*
X024579Y009635D01*
X024662Y009635D01*
X024704Y009677D01*
X024704Y009718D01*
X024662Y009760D01*
X024621Y009760D01*
X024662Y009760D02*
X024704Y009802D01*
X024704Y009844D01*
X024662Y009885D01*
X024579Y009885D01*
X024537Y009844D01*
X024814Y009760D02*
X024980Y009760D01*
X024939Y009635D02*
X024939Y009885D01*
X024814Y009760D01*
X025537Y009677D02*
X025579Y009635D01*
X025662Y009635D01*
X025704Y009677D01*
X025704Y009718D01*
X025662Y009760D01*
X025621Y009760D01*
X025662Y009760D02*
X025704Y009802D01*
X025704Y009844D01*
X025662Y009885D01*
X025579Y009885D01*
X025537Y009844D01*
X025814Y009885D02*
X025814Y009760D01*
X025897Y009802D01*
X025939Y009802D01*
X025980Y009760D01*
X025980Y009677D01*
X025939Y009635D01*
X025855Y009635D01*
X025814Y009677D01*
X025814Y009885D02*
X025980Y009885D01*
X026537Y009844D02*
X026579Y009885D01*
X026662Y009885D01*
X026704Y009844D01*
X026704Y009802D01*
X026662Y009760D01*
X026704Y009718D01*
X026704Y009677D01*
X026662Y009635D01*
X026579Y009635D01*
X026537Y009677D01*
X026621Y009760D02*
X026662Y009760D01*
X026814Y009760D02*
X026814Y009677D01*
X026855Y009635D01*
X026939Y009635D01*
X026980Y009677D01*
X026980Y009718D01*
X026939Y009760D01*
X026814Y009760D01*
X026897Y009844D01*
X026980Y009885D01*
X027537Y009844D02*
X027579Y009885D01*
X027662Y009885D01*
X027704Y009844D01*
X027704Y009802D01*
X027662Y009760D01*
X027704Y009718D01*
X027704Y009677D01*
X027662Y009635D01*
X027579Y009635D01*
X027537Y009677D01*
X027621Y009760D02*
X027662Y009760D01*
X027814Y009677D02*
X027814Y009635D01*
X027814Y009677D02*
X027980Y009844D01*
X027980Y009885D01*
X027814Y009885D01*
X028537Y009844D02*
X028579Y009885D01*
X028662Y009885D01*
X028704Y009844D01*
X028704Y009802D01*
X028662Y009760D01*
X028704Y009718D01*
X028704Y009677D01*
X028662Y009635D01*
X028579Y009635D01*
X028537Y009677D01*
X028621Y009760D02*
X028662Y009760D01*
X028814Y009718D02*
X028855Y009760D01*
X028939Y009760D01*
X028980Y009718D01*
X028980Y009677D01*
X028939Y009635D01*
X028855Y009635D01*
X028814Y009677D01*
X028814Y009718D01*
X028855Y009760D02*
X028814Y009802D01*
X028814Y009844D01*
X028855Y009885D01*
X028939Y009885D01*
X028980Y009844D01*
X028980Y009802D01*
X028939Y009760D01*
X029537Y009677D02*
X029579Y009635D01*
X029662Y009635D01*
X029704Y009677D01*
X029704Y009718D01*
X029662Y009760D01*
X029621Y009760D01*
X029662Y009760D02*
X029704Y009802D01*
X029704Y009844D01*
X029662Y009885D01*
X029579Y009885D01*
X029537Y009844D01*
X029814Y009844D02*
X029814Y009802D01*
X029855Y009760D01*
X029980Y009760D01*
X029980Y009677D02*
X029980Y009844D01*
X029939Y009885D01*
X029855Y009885D01*
X029814Y009844D01*
X029814Y009677D02*
X029855Y009635D01*
X029939Y009635D01*
X029980Y009677D01*
X030736Y010133D02*
X030777Y010174D01*
X030777Y010216D01*
X030736Y010258D01*
X030527Y010258D01*
X030527Y010299D02*
X030527Y010216D01*
X030569Y010409D02*
X030611Y010409D01*
X030652Y010450D01*
X030652Y010534D01*
X030694Y010576D01*
X030736Y010576D01*
X030777Y010534D01*
X030777Y010450D01*
X030736Y010409D01*
X030694Y010409D01*
X030652Y010450D01*
X030652Y010534D02*
X030611Y010576D01*
X030569Y010576D01*
X030527Y010534D01*
X030527Y010450D01*
X030569Y010409D01*
X030377Y010910D02*
X030877Y010910D01*
X032877Y010910D01*
X032877Y002910D01*
X030877Y002910D01*
X030377Y002910D01*
X030377Y010910D01*
X030377Y011160D02*
X030877Y011160D01*
X032877Y011160D01*
X032877Y019160D01*
X030877Y019160D01*
X030377Y019160D01*
X030377Y011160D01*
X030252Y011160D02*
X022252Y011160D01*
X022502Y011660D02*
X023002Y011660D01*
X023002Y012910D01*
X022502Y012910D01*
X022502Y011660D01*
X021627Y011160D02*
X021627Y019160D01*
X021727Y019300D02*
X021727Y019450D01*
X021777Y019500D01*
X021827Y019500D01*
X021877Y019450D01*
X021877Y019350D01*
X021827Y019300D01*
X021727Y019300D01*
X021627Y019400D01*
X021577Y019500D01*
X020877Y019300D02*
X020827Y019300D01*
X020627Y019500D01*
X020577Y019500D01*
X020577Y019300D01*
X020304Y018810D02*
X020179Y018685D01*
X020345Y018685D01*
X020304Y018560D02*
X020304Y018810D01*
X020069Y018769D02*
X020027Y018810D01*
X019944Y018810D01*
X019902Y018769D01*
X020069Y018769D02*
X020069Y018727D01*
X019902Y018560D01*
X020069Y018560D01*
X019220Y018602D02*
X019179Y018560D01*
X019095Y018560D01*
X019054Y018602D01*
X019137Y018685D02*
X019179Y018685D01*
X019220Y018643D01*
X019220Y018602D01*
X019179Y018685D02*
X019220Y018727D01*
X019220Y018769D01*
X019179Y018810D01*
X019095Y018810D01*
X019054Y018769D01*
X018944Y018769D02*
X018902Y018810D01*
X018819Y018810D01*
X018777Y018769D01*
X018944Y018769D02*
X018944Y018727D01*
X018777Y018560D01*
X018944Y018560D01*
X018902Y017810D02*
X018819Y017810D01*
X018777Y017769D01*
X018902Y017810D02*
X018944Y017769D01*
X018944Y017727D01*
X018777Y017560D01*
X018944Y017560D01*
X019054Y017560D02*
X019220Y017727D01*
X019220Y017769D01*
X019179Y017810D01*
X019095Y017810D01*
X019054Y017769D01*
X019054Y017560D02*
X019220Y017560D01*
X019902Y017560D02*
X020069Y017727D01*
X020069Y017769D01*
X020027Y017810D01*
X019944Y017810D01*
X019902Y017769D01*
X019902Y017560D02*
X020069Y017560D01*
X020179Y017602D02*
X020220Y017560D01*
X020304Y017560D01*
X020345Y017602D01*
X020345Y017685D01*
X020304Y017727D01*
X020262Y017727D01*
X020179Y017685D01*
X020179Y017810D01*
X020345Y017810D01*
X021727Y018643D02*
X021727Y018727D01*
X021727Y018685D02*
X021936Y018685D01*
X021977Y018643D01*
X021977Y018602D01*
X021936Y018560D01*
X021852Y018836D02*
X021852Y019003D01*
X021977Y018961D02*
X021727Y018961D01*
X021852Y018836D01*
X022127Y018285D02*
X022127Y017785D01*
X023377Y017785D01*
X023377Y018285D01*
X022127Y018285D01*
X022127Y017660D02*
X022127Y017160D01*
X023377Y017160D01*
X023377Y017660D01*
X022127Y017660D01*
X022127Y017035D02*
X022127Y016535D01*
X023377Y016535D01*
X023377Y017035D01*
X022127Y017035D01*
X022127Y016410D02*
X022127Y015910D01*
X023377Y015910D01*
X023377Y016410D01*
X022127Y016410D01*
X022127Y015785D02*
X022127Y015285D01*
X023377Y015285D01*
X023377Y015785D01*
X022127Y015785D01*
X022127Y015160D02*
X022127Y014660D01*
X023377Y014660D01*
X023377Y015160D01*
X022127Y015160D01*
X022127Y014535D02*
X022127Y014035D01*
X023377Y014035D01*
X023377Y014535D01*
X022127Y014535D01*
X022127Y013910D02*
X022127Y013410D01*
X023377Y013410D01*
X023377Y013910D01*
X022127Y013910D01*
X022427Y013235D02*
X022552Y013235D01*
X022594Y013194D01*
X022594Y013110D01*
X022552Y013068D01*
X022427Y013068D01*
X022427Y012985D02*
X022427Y013235D01*
X022511Y013068D02*
X022594Y012985D01*
X022704Y013110D02*
X022870Y013110D01*
X022829Y012985D02*
X022829Y013235D01*
X022704Y013110D01*
X022980Y013194D02*
X023022Y013235D01*
X023105Y013235D01*
X023147Y013194D01*
X023147Y013152D01*
X022980Y012985D01*
X023147Y012985D01*
X023427Y012985D02*
X023427Y013235D01*
X023552Y013235D01*
X023594Y013194D01*
X023594Y013110D01*
X023552Y013068D01*
X023427Y013068D01*
X023511Y013068D02*
X023594Y012985D01*
X023502Y012910D02*
X024002Y012910D01*
X024002Y011660D01*
X023502Y011660D01*
X023502Y012910D01*
X023704Y013110D02*
X023870Y013110D01*
X023829Y012985D02*
X023829Y013235D01*
X023704Y013110D01*
X023980Y013027D02*
X024022Y012985D01*
X024105Y012985D01*
X024147Y013027D01*
X024147Y013068D01*
X024105Y013110D01*
X024063Y013110D01*
X024105Y013110D02*
X024147Y013152D01*
X024147Y013194D01*
X024105Y013235D01*
X024022Y013235D01*
X023980Y013194D01*
X024427Y013235D02*
X024427Y012985D01*
X024427Y013068D02*
X024552Y013068D01*
X024594Y013110D01*
X024594Y013194D01*
X024552Y013235D01*
X024427Y013235D01*
X024511Y013068D02*
X024594Y012985D01*
X024502Y012910D02*
X025002Y012910D01*
X025002Y011660D01*
X024502Y011660D01*
X024502Y012910D01*
X024704Y013110D02*
X024870Y013110D01*
X024980Y013110D02*
X025105Y013235D01*
X025105Y012985D01*
X025147Y013110D02*
X024980Y013110D01*
X024829Y012985D02*
X024829Y013235D01*
X024704Y013110D01*
X024209Y013610D02*
X024042Y013610D01*
X024126Y013610D02*
X024126Y013860D01*
X024042Y013777D01*
X023933Y013735D02*
X023766Y013735D01*
X023891Y013860D01*
X023891Y013610D01*
X023657Y013610D02*
X023573Y013693D01*
X023615Y013693D02*
X023490Y013693D01*
X023490Y013610D02*
X023490Y013860D01*
X023615Y013860D01*
X023657Y013819D01*
X023657Y013735D01*
X023615Y013693D01*
X023657Y014235D02*
X023573Y014318D01*
X023615Y014318D02*
X023490Y014318D01*
X023490Y014235D02*
X023490Y014485D01*
X023615Y014485D01*
X023657Y014444D01*
X023657Y014360D01*
X023615Y014318D01*
X023766Y014360D02*
X023933Y014360D01*
X023891Y014235D02*
X023891Y014485D01*
X023766Y014360D01*
X024042Y014277D02*
X024209Y014444D01*
X024209Y014277D01*
X024167Y014235D01*
X024084Y014235D01*
X024042Y014277D01*
X024042Y014444D01*
X024084Y014485D01*
X024167Y014485D01*
X024209Y014444D01*
X024167Y014860D02*
X024209Y014902D01*
X024209Y015069D01*
X024167Y015110D01*
X024084Y015110D01*
X024042Y015069D01*
X024042Y015027D01*
X024084Y014985D01*
X024209Y014985D01*
X024167Y014860D02*
X024084Y014860D01*
X024042Y014902D01*
X023933Y014902D02*
X023891Y014860D01*
X023808Y014860D01*
X023766Y014902D01*
X023657Y014860D02*
X023573Y014943D01*
X023615Y014943D02*
X023490Y014943D01*
X023490Y014860D02*
X023490Y015110D01*
X023615Y015110D01*
X023657Y015069D01*
X023657Y014985D01*
X023615Y014943D01*
X023766Y015069D02*
X023808Y015110D01*
X023891Y015110D01*
X023933Y015069D01*
X023933Y015027D01*
X023891Y014985D01*
X023933Y014943D01*
X023933Y014902D01*
X023891Y014985D02*
X023850Y014985D01*
X023891Y015485D02*
X023808Y015485D01*
X023766Y015527D01*
X023657Y015485D02*
X023573Y015568D01*
X023615Y015568D02*
X023490Y015568D01*
X023490Y015485D02*
X023490Y015735D01*
X023615Y015735D01*
X023657Y015694D01*
X023657Y015610D01*
X023615Y015568D01*
X023766Y015694D02*
X023808Y015735D01*
X023891Y015735D01*
X023933Y015694D01*
X023933Y015652D01*
X023891Y015610D01*
X023933Y015568D01*
X023933Y015527D01*
X023891Y015485D01*
X023891Y015610D02*
X023850Y015610D01*
X024042Y015568D02*
X024084Y015610D01*
X024167Y015610D01*
X024209Y015568D01*
X024209Y015527D01*
X024167Y015485D01*
X024084Y015485D01*
X024042Y015527D01*
X024042Y015568D01*
X024084Y015610D02*
X024042Y015652D01*
X024042Y015694D01*
X024084Y015735D01*
X024167Y015735D01*
X024209Y015694D01*
X024209Y015652D01*
X024167Y015610D01*
X024042Y016110D02*
X024042Y016152D01*
X024209Y016319D01*
X024209Y016360D01*
X024042Y016360D01*
X023933Y016319D02*
X023933Y016277D01*
X023891Y016235D01*
X023933Y016193D01*
X023933Y016152D01*
X023891Y016110D01*
X023808Y016110D01*
X023766Y016152D01*
X023657Y016110D02*
X023573Y016193D01*
X023615Y016193D02*
X023490Y016193D01*
X023490Y016110D02*
X023490Y016360D01*
X023615Y016360D01*
X023657Y016319D01*
X023657Y016235D01*
X023615Y016193D01*
X023766Y016319D02*
X023808Y016360D01*
X023891Y016360D01*
X023933Y016319D01*
X023891Y016235D02*
X023850Y016235D01*
X023891Y016735D02*
X023808Y016735D01*
X023766Y016777D01*
X023657Y016735D02*
X023573Y016818D01*
X023615Y016818D02*
X023490Y016818D01*
X023490Y016735D02*
X023490Y016985D01*
X023615Y016985D01*
X023657Y016944D01*
X023657Y016860D01*
X023615Y016818D01*
X023766Y016944D02*
X023808Y016985D01*
X023891Y016985D01*
X023933Y016944D01*
X023933Y016902D01*
X023891Y016860D01*
X023933Y016818D01*
X023933Y016777D01*
X023891Y016735D01*
X023891Y016860D02*
X023850Y016860D01*
X024042Y016860D02*
X024126Y016944D01*
X024209Y016985D01*
X024167Y016860D02*
X024042Y016860D01*
X024042Y016777D01*
X024084Y016735D01*
X024167Y016735D01*
X024209Y016777D01*
X024209Y016818D01*
X024167Y016860D01*
X024167Y017360D02*
X024084Y017360D01*
X024042Y017402D01*
X024042Y017485D02*
X024126Y017527D01*
X024167Y017527D01*
X024209Y017485D01*
X024209Y017402D01*
X024167Y017360D01*
X024042Y017485D02*
X024042Y017610D01*
X024209Y017610D01*
X023933Y017569D02*
X023933Y017527D01*
X023891Y017485D01*
X023933Y017443D01*
X023933Y017402D01*
X023891Y017360D01*
X023808Y017360D01*
X023766Y017402D01*
X023657Y017360D02*
X023573Y017443D01*
X023615Y017443D02*
X023490Y017443D01*
X023490Y017360D02*
X023490Y017610D01*
X023615Y017610D01*
X023657Y017569D01*
X023657Y017485D01*
X023615Y017443D01*
X023766Y017569D02*
X023808Y017610D01*
X023891Y017610D01*
X023933Y017569D01*
X023891Y017485D02*
X023850Y017485D01*
X023740Y017835D02*
X023490Y017835D01*
X023490Y017960D01*
X023531Y018002D01*
X023615Y018002D01*
X023656Y017960D01*
X023656Y017835D01*
X023656Y017918D02*
X023740Y018002D01*
X023698Y018111D02*
X023740Y018153D01*
X023740Y018236D01*
X023698Y018278D01*
X023656Y018278D01*
X023615Y018236D01*
X023615Y018195D01*
X023615Y018236D02*
X023573Y018278D01*
X023531Y018278D01*
X023490Y018236D01*
X023490Y018153D01*
X023531Y018111D01*
X023615Y018387D02*
X023615Y018554D01*
X023740Y018513D02*
X023490Y018513D01*
X023615Y018387D01*
X024002Y018535D02*
X024002Y018035D01*
X025252Y018035D01*
X025252Y018535D01*
X024002Y018535D01*
X023727Y019300D02*
X023727Y019500D01*
X023577Y019450D02*
X023727Y019300D01*
X023877Y019450D02*
X023577Y019450D01*
X022877Y019450D02*
X022877Y019350D01*
X022827Y019300D01*
X022727Y019300D02*
X022677Y019400D01*
X022677Y019450D01*
X022727Y019500D01*
X022827Y019500D01*
X022877Y019450D01*
X022727Y019300D02*
X022577Y019300D01*
X022577Y019500D01*
X024577Y019450D02*
X024627Y019500D01*
X024677Y019500D01*
X024727Y019450D01*
X024777Y019500D01*
X024827Y019500D01*
X024877Y019450D01*
X024877Y019350D01*
X024827Y019300D01*
X024727Y019400D02*
X024727Y019450D01*
X024577Y019450D02*
X024577Y019350D01*
X024627Y019300D01*
X025577Y019350D02*
X025627Y019300D01*
X025577Y019350D02*
X025577Y019450D01*
X025627Y019500D01*
X025677Y019500D01*
X025877Y019300D01*
X025877Y019500D01*
X026445Y019585D02*
X026645Y019585D01*
X026545Y019585D02*
X026545Y019285D01*
X026768Y019285D02*
X026968Y019585D01*
X026768Y019585D02*
X026968Y019285D01*
X027445Y019285D02*
X027445Y019585D01*
X027595Y019585D01*
X027645Y019535D01*
X027645Y019435D01*
X027595Y019385D01*
X027445Y019385D01*
X027545Y019385D02*
X027645Y019285D01*
X027768Y019285D02*
X027968Y019585D01*
X027768Y019585D02*
X027968Y019285D01*
X028377Y018660D02*
X028877Y018660D01*
X028877Y017410D01*
X028377Y017410D01*
X028377Y018660D01*
X029127Y018285D02*
X029127Y017785D01*
X030377Y017785D01*
X030377Y018285D01*
X029127Y018285D01*
X029424Y018335D02*
X029424Y018585D01*
X029549Y018585D01*
X029590Y018544D01*
X029590Y018460D01*
X029549Y018418D01*
X029424Y018418D01*
X029507Y018418D02*
X029590Y018335D01*
X029700Y018377D02*
X029742Y018335D01*
X029825Y018335D01*
X029867Y018377D01*
X029867Y018460D01*
X029825Y018502D01*
X029783Y018502D01*
X029700Y018460D01*
X029700Y018585D01*
X029867Y018585D01*
X029976Y018585D02*
X030143Y018585D01*
X030143Y018544D01*
X029976Y018377D01*
X029976Y018335D01*
X030477Y018643D02*
X030477Y018727D01*
X030477Y018685D02*
X030686Y018685D01*
X030727Y018643D01*
X030727Y018602D01*
X030686Y018560D01*
X030686Y018836D02*
X030727Y018878D01*
X030727Y018961D01*
X030686Y019003D01*
X030644Y019003D01*
X030602Y018961D01*
X030602Y018836D01*
X030686Y018836D01*
X030602Y018836D02*
X030519Y018920D01*
X030477Y019003D01*
X030877Y019160D02*
X030877Y011160D01*
X030877Y010910D02*
X030877Y002910D01*
X032152Y003373D02*
X032319Y003373D01*
X032236Y003373D02*
X032236Y003623D01*
X032152Y003539D01*
X032429Y003498D02*
X032512Y003539D01*
X032554Y003539D01*
X032595Y003498D01*
X032595Y003414D01*
X032554Y003373D01*
X032470Y003373D01*
X032429Y003414D01*
X032429Y003498D02*
X032429Y003623D01*
X032595Y003623D01*
X032877Y003660D02*
X032877Y003160D01*
X034127Y003160D01*
X034127Y003660D01*
X032877Y003660D01*
X033052Y003735D02*
X033052Y003985D01*
X033177Y003985D01*
X033219Y003944D01*
X033219Y003860D01*
X033177Y003818D01*
X033052Y003818D01*
X033136Y003818D02*
X033219Y003735D01*
X033329Y003777D02*
X033370Y003735D01*
X033454Y003735D01*
X033495Y003777D01*
X033495Y003818D01*
X033454Y003860D01*
X033329Y003860D01*
X033329Y003777D01*
X033329Y003860D02*
X033412Y003944D01*
X033495Y003985D01*
X033605Y003944D02*
X033647Y003985D01*
X033730Y003985D01*
X033772Y003944D01*
X033772Y003902D01*
X033605Y003735D01*
X033772Y003735D01*
X034127Y004160D02*
X034127Y004660D01*
X032877Y004660D01*
X032877Y004160D01*
X034127Y004160D01*
X033730Y004735D02*
X033647Y004735D01*
X033605Y004777D01*
X033495Y004777D02*
X033495Y004818D01*
X033454Y004860D01*
X033329Y004860D01*
X033329Y004777D01*
X033370Y004735D01*
X033454Y004735D01*
X033495Y004777D01*
X033329Y004860D02*
X033412Y004944D01*
X033495Y004985D01*
X033605Y004944D02*
X033647Y004985D01*
X033730Y004985D01*
X033772Y004944D01*
X033772Y004902D01*
X033730Y004860D01*
X033772Y004818D01*
X033772Y004777D01*
X033730Y004735D01*
X033730Y004860D02*
X033688Y004860D01*
X034127Y005160D02*
X034127Y005660D01*
X032877Y005660D01*
X032877Y005160D01*
X034127Y005160D01*
X033730Y005735D02*
X033730Y005985D01*
X033605Y005860D01*
X033772Y005860D01*
X033495Y005818D02*
X033454Y005860D01*
X033329Y005860D01*
X033329Y005777D01*
X033370Y005735D01*
X033454Y005735D01*
X033495Y005777D01*
X033495Y005818D01*
X033412Y005944D02*
X033329Y005860D01*
X033219Y005860D02*
X033177Y005818D01*
X033052Y005818D01*
X033052Y005735D02*
X033052Y005985D01*
X033177Y005985D01*
X033219Y005944D01*
X033219Y005860D01*
X033136Y005818D02*
X033219Y005735D01*
X033412Y005944D02*
X033495Y005985D01*
X032877Y006160D02*
X032877Y006660D01*
X034127Y006660D01*
X034127Y006160D01*
X032877Y006160D01*
X032595Y006373D02*
X032429Y006373D01*
X032595Y006539D01*
X032595Y006581D01*
X032554Y006623D01*
X032470Y006623D01*
X032429Y006581D01*
X032236Y006623D02*
X032236Y006373D01*
X032319Y006373D02*
X032152Y006373D01*
X032152Y006539D02*
X032236Y006623D01*
X033052Y006735D02*
X033052Y006985D01*
X033177Y006985D01*
X033219Y006944D01*
X033219Y006860D01*
X033177Y006818D01*
X033052Y006818D01*
X033136Y006818D02*
X033219Y006735D01*
X033329Y006777D02*
X033370Y006735D01*
X033454Y006735D01*
X033495Y006777D01*
X033495Y006818D01*
X033454Y006860D01*
X033329Y006860D01*
X033329Y006777D01*
X033329Y006860D02*
X033412Y006944D01*
X033495Y006985D01*
X033605Y006985D02*
X033605Y006860D01*
X033688Y006902D01*
X033730Y006902D01*
X033772Y006860D01*
X033772Y006777D01*
X033730Y006735D01*
X033647Y006735D01*
X033605Y006777D01*
X033605Y006985D02*
X033772Y006985D01*
X034127Y007160D02*
X034127Y007660D01*
X032877Y007660D01*
X032877Y007160D01*
X034127Y007160D01*
X033730Y007735D02*
X033772Y007777D01*
X033772Y007818D01*
X033730Y007860D01*
X033605Y007860D01*
X033605Y007777D01*
X033647Y007735D01*
X033730Y007735D01*
X033605Y007860D02*
X033688Y007944D01*
X033772Y007985D01*
X033495Y007985D02*
X033412Y007944D01*
X033329Y007860D01*
X033454Y007860D01*
X033495Y007818D01*
X033495Y007777D01*
X033454Y007735D01*
X033370Y007735D01*
X033329Y007777D01*
X033329Y007860D01*
X033219Y007860D02*
X033177Y007818D01*
X033052Y007818D01*
X033052Y007735D02*
X033052Y007985D01*
X033177Y007985D01*
X033219Y007944D01*
X033219Y007860D01*
X033136Y007818D02*
X033219Y007735D01*
X032595Y007373D02*
X032429Y007373D01*
X032512Y007373D02*
X032512Y007623D01*
X032429Y007539D01*
X032319Y007373D02*
X032152Y007373D01*
X032236Y007373D02*
X032236Y007623D01*
X032152Y007539D01*
X032877Y008160D02*
X032877Y008660D01*
X034127Y008660D01*
X034127Y008160D01*
X032877Y008160D01*
X032595Y008414D02*
X032554Y008373D01*
X032470Y008373D01*
X032429Y008414D01*
X032595Y008581D01*
X032595Y008414D01*
X032429Y008414D02*
X032429Y008581D01*
X032470Y008623D01*
X032554Y008623D01*
X032595Y008581D01*
X032319Y008373D02*
X032152Y008373D01*
X032236Y008373D02*
X032236Y008623D01*
X032152Y008539D01*
X033052Y008735D02*
X033052Y008985D01*
X033177Y008985D01*
X033219Y008944D01*
X033219Y008860D01*
X033177Y008818D01*
X033052Y008818D01*
X033136Y008818D02*
X033219Y008735D01*
X033329Y008777D02*
X033370Y008735D01*
X033454Y008735D01*
X033495Y008777D01*
X033495Y008818D01*
X033454Y008860D01*
X033329Y008860D01*
X033329Y008777D01*
X033329Y008860D02*
X033412Y008944D01*
X033495Y008985D01*
X033605Y008985D02*
X033772Y008985D01*
X033772Y008944D01*
X033605Y008777D01*
X033605Y008735D01*
X034127Y009160D02*
X032877Y009160D01*
X032877Y009660D01*
X034127Y009660D01*
X034127Y009160D01*
X033730Y009735D02*
X033647Y009735D01*
X033605Y009777D01*
X033605Y009818D01*
X033647Y009860D01*
X033730Y009860D01*
X033772Y009818D01*
X033772Y009777D01*
X033730Y009735D01*
X033730Y009860D02*
X033772Y009902D01*
X033772Y009944D01*
X033730Y009985D01*
X033647Y009985D01*
X033605Y009944D01*
X033605Y009902D01*
X033647Y009860D01*
X033495Y009818D02*
X033454Y009860D01*
X033329Y009860D01*
X033329Y009777D01*
X033370Y009735D01*
X033454Y009735D01*
X033495Y009777D01*
X033495Y009818D01*
X033412Y009944D02*
X033329Y009860D01*
X033219Y009860D02*
X033177Y009818D01*
X033052Y009818D01*
X033052Y009735D02*
X033052Y009985D01*
X033177Y009985D01*
X033219Y009944D01*
X033219Y009860D01*
X033136Y009818D02*
X033219Y009735D01*
X033412Y009944D02*
X033495Y009985D01*
X032877Y010160D02*
X032877Y010660D01*
X034127Y010660D01*
X034127Y010160D01*
X032877Y010160D01*
X032319Y010414D02*
X032277Y010373D01*
X032194Y010373D01*
X032152Y010414D01*
X032152Y010456D01*
X032194Y010498D01*
X032277Y010498D01*
X032319Y010456D01*
X032319Y010414D01*
X032277Y010498D02*
X032319Y010539D01*
X032319Y010581D01*
X032277Y010623D01*
X032194Y010623D01*
X032152Y010581D01*
X032152Y010539D01*
X032194Y010498D01*
X032194Y009623D02*
X032152Y009581D01*
X032152Y009539D01*
X032194Y009498D01*
X032319Y009498D01*
X032319Y009581D02*
X032319Y009414D01*
X032277Y009373D01*
X032194Y009373D01*
X032152Y009414D01*
X032194Y009623D02*
X032277Y009623D01*
X032319Y009581D01*
X033552Y010735D02*
X033552Y010985D01*
X033677Y010985D01*
X033719Y010944D01*
X033719Y010860D01*
X033677Y010818D01*
X033552Y010818D01*
X033636Y010818D02*
X033719Y010735D01*
X033829Y010777D02*
X033870Y010735D01*
X033954Y010735D01*
X033995Y010777D01*
X033995Y010818D01*
X033954Y010860D01*
X033829Y010860D01*
X033829Y010777D01*
X033829Y010860D02*
X033912Y010944D01*
X033995Y010985D01*
X034105Y010944D02*
X034105Y010902D01*
X034147Y010860D01*
X034272Y010860D01*
X034272Y010777D02*
X034272Y010944D01*
X034230Y010985D01*
X034147Y010985D01*
X034105Y010944D01*
X034105Y010777D02*
X034147Y010735D01*
X034230Y010735D01*
X034272Y010777D01*
X032595Y011602D02*
X032554Y011560D01*
X032470Y011560D01*
X032429Y011602D01*
X032595Y011769D01*
X032595Y011602D01*
X032429Y011602D02*
X032429Y011769D01*
X032470Y011810D01*
X032554Y011810D01*
X032595Y011769D01*
X032319Y011685D02*
X032152Y011685D01*
X032277Y011810D01*
X032277Y011560D01*
X032277Y012560D02*
X032277Y012810D01*
X032152Y012685D01*
X032319Y012685D01*
X032429Y012727D02*
X032512Y012810D01*
X032512Y012560D01*
X032429Y012560D02*
X032595Y012560D01*
X032595Y013560D02*
X032429Y013560D01*
X032595Y013727D01*
X032595Y013769D01*
X032554Y013810D01*
X032470Y013810D01*
X032429Y013769D01*
X032319Y013685D02*
X032152Y013685D01*
X032277Y013810D01*
X032277Y013560D01*
X032277Y014560D02*
X032277Y014810D01*
X032152Y014685D01*
X032319Y014685D01*
X032429Y014602D02*
X032470Y014560D01*
X032554Y014560D01*
X032595Y014602D01*
X032595Y014643D01*
X032554Y014685D01*
X032512Y014685D01*
X032554Y014685D02*
X032595Y014727D01*
X032595Y014769D01*
X032554Y014810D01*
X032470Y014810D01*
X032429Y014769D01*
X032554Y015560D02*
X032554Y015810D01*
X032429Y015685D01*
X032595Y015685D01*
X032319Y015685D02*
X032152Y015685D01*
X032277Y015810D01*
X032277Y015560D01*
X032277Y016560D02*
X032277Y016810D01*
X032152Y016685D01*
X032319Y016685D01*
X032429Y016685D02*
X032512Y016727D01*
X032554Y016727D01*
X032595Y016685D01*
X032595Y016602D01*
X032554Y016560D01*
X032470Y016560D01*
X032429Y016602D01*
X032429Y016685D02*
X032429Y016810D01*
X032595Y016810D01*
X032554Y017560D02*
X032595Y017602D01*
X032595Y017643D01*
X032554Y017685D01*
X032429Y017685D01*
X032429Y017602D01*
X032470Y017560D01*
X032554Y017560D01*
X032429Y017685D02*
X032512Y017769D01*
X032595Y017810D01*
X032319Y017685D02*
X032152Y017685D01*
X032277Y017810D01*
X032277Y017560D01*
X032277Y018560D02*
X032277Y018810D01*
X032152Y018685D01*
X032319Y018685D01*
X032429Y018602D02*
X032429Y018560D01*
X032429Y018602D02*
X032595Y018769D01*
X032595Y018810D01*
X032429Y018810D01*
X030377Y017660D02*
X030377Y017160D01*
X029127Y017160D01*
X029127Y017660D01*
X030377Y017660D01*
X030377Y017035D02*
X029127Y017035D01*
X029127Y016535D01*
X030377Y016535D01*
X030377Y017035D01*
X030377Y016410D02*
X029127Y016410D01*
X029127Y015910D01*
X030377Y015910D01*
X030377Y016410D01*
X030377Y015785D02*
X029127Y015785D01*
X029127Y015285D01*
X030377Y015285D01*
X030377Y015785D01*
X030377Y015160D02*
X029127Y015160D01*
X029127Y014660D01*
X030377Y014660D01*
X030377Y015160D01*
X030377Y014535D02*
X030377Y014035D01*
X029127Y014035D01*
X029127Y014535D01*
X030377Y014535D01*
X030377Y013910D02*
X029127Y013910D01*
X029127Y013410D01*
X030377Y013410D01*
X030377Y013910D01*
X030105Y013235D02*
X030022Y013235D01*
X029980Y013194D01*
X029980Y013152D01*
X030022Y013110D01*
X030147Y013110D01*
X030147Y013027D02*
X030147Y013194D01*
X030105Y013235D01*
X030147Y013027D02*
X030105Y012985D01*
X030022Y012985D01*
X029980Y013027D01*
X030002Y012910D02*
X029502Y012910D01*
X029502Y011660D01*
X030002Y011660D01*
X030002Y012910D01*
X029829Y012985D02*
X029829Y013235D01*
X029704Y013110D01*
X029870Y013110D01*
X029594Y013110D02*
X029552Y013068D01*
X029427Y013068D01*
X029427Y012985D02*
X029427Y013235D01*
X029552Y013235D01*
X029594Y013194D01*
X029594Y013110D01*
X029511Y013068D02*
X029594Y012985D01*
X029147Y013027D02*
X029105Y012985D01*
X029022Y012985D01*
X028980Y013027D01*
X028980Y013068D01*
X029022Y013110D01*
X029105Y013110D01*
X029147Y013068D01*
X029147Y013027D01*
X029105Y013110D02*
X029147Y013152D01*
X029147Y013194D01*
X029105Y013235D01*
X029022Y013235D01*
X028980Y013194D01*
X028980Y013152D01*
X029022Y013110D01*
X028870Y013110D02*
X028704Y013110D01*
X028829Y013235D01*
X028829Y012985D01*
X029002Y012910D02*
X028502Y012910D01*
X028502Y011660D01*
X029002Y011660D01*
X029002Y012910D01*
X028594Y012985D02*
X028511Y013068D01*
X028552Y013068D02*
X028427Y013068D01*
X028427Y012985D02*
X028427Y013235D01*
X028552Y013235D01*
X028594Y013194D01*
X028594Y013110D01*
X028552Y013068D01*
X028147Y013194D02*
X028147Y013235D01*
X027980Y013235D01*
X027829Y013235D02*
X027704Y013110D01*
X027870Y013110D01*
X027829Y012985D02*
X027829Y013235D01*
X027594Y013194D02*
X027594Y013110D01*
X027552Y013068D01*
X027427Y013068D01*
X027427Y012985D02*
X027427Y013235D01*
X027552Y013235D01*
X027594Y013194D01*
X027511Y013068D02*
X027594Y012985D01*
X027502Y012910D02*
X028002Y012910D01*
X028002Y011660D01*
X027502Y011660D01*
X027502Y012910D01*
X027147Y013027D02*
X027147Y013068D01*
X027105Y013110D01*
X026980Y013110D01*
X026980Y013027D01*
X027022Y012985D01*
X027105Y012985D01*
X027147Y013027D01*
X027002Y012910D02*
X026502Y012910D01*
X026502Y011660D01*
X027002Y011660D01*
X027002Y012910D01*
X026829Y012985D02*
X026829Y013235D01*
X026704Y013110D01*
X026870Y013110D01*
X026980Y013110D02*
X027063Y013194D01*
X027147Y013235D01*
X026594Y013194D02*
X026594Y013110D01*
X026552Y013068D01*
X026427Y013068D01*
X026427Y012985D02*
X026427Y013235D01*
X026552Y013235D01*
X026594Y013194D01*
X026511Y013068D02*
X026594Y012985D01*
X026147Y013027D02*
X026105Y012985D01*
X026022Y012985D01*
X025980Y013027D01*
X025980Y013110D02*
X026063Y013152D01*
X026105Y013152D01*
X026147Y013110D01*
X026147Y013027D01*
X026002Y012910D02*
X025502Y012910D01*
X025502Y011660D01*
X026002Y011660D01*
X026002Y012910D01*
X025829Y012985D02*
X025829Y013235D01*
X025704Y013110D01*
X025870Y013110D01*
X025980Y013110D02*
X025980Y013235D01*
X026147Y013235D01*
X025594Y013194D02*
X025594Y013110D01*
X025552Y013068D01*
X025427Y013068D01*
X025427Y012985D02*
X025427Y013235D01*
X025552Y013235D01*
X025594Y013194D01*
X025511Y013068D02*
X025594Y012985D01*
X027980Y013027D02*
X027980Y012985D01*
X027980Y013027D02*
X028147Y013194D01*
X028299Y013585D02*
X028299Y013835D01*
X028424Y013835D01*
X028465Y013794D01*
X028465Y013710D01*
X028424Y013668D01*
X028299Y013668D01*
X028382Y013668D02*
X028465Y013585D01*
X028575Y013627D02*
X028617Y013585D01*
X028700Y013585D01*
X028742Y013627D01*
X028742Y013710D01*
X028700Y013752D01*
X028658Y013752D01*
X028575Y013710D01*
X028575Y013835D01*
X028742Y013835D01*
X028851Y013794D02*
X028851Y013627D01*
X029018Y013794D01*
X029018Y013627D01*
X028976Y013585D01*
X028893Y013585D01*
X028851Y013627D01*
X028851Y013794D02*
X028893Y013835D01*
X028976Y013835D01*
X029018Y013794D01*
X029018Y014210D02*
X028851Y014210D01*
X028935Y014210D02*
X028935Y014460D01*
X028851Y014377D01*
X028742Y014335D02*
X028742Y014252D01*
X028700Y014210D01*
X028617Y014210D01*
X028575Y014252D01*
X028575Y014335D02*
X028658Y014377D01*
X028700Y014377D01*
X028742Y014335D01*
X028742Y014460D02*
X028575Y014460D01*
X028575Y014335D01*
X028465Y014335D02*
X028424Y014293D01*
X028299Y014293D01*
X028299Y014210D02*
X028299Y014460D01*
X028424Y014460D01*
X028465Y014419D01*
X028465Y014335D01*
X028382Y014293D02*
X028465Y014210D01*
X028465Y014835D02*
X028382Y014918D01*
X028424Y014918D02*
X028299Y014918D01*
X028299Y014835D02*
X028299Y015085D01*
X028424Y015085D01*
X028465Y015044D01*
X028465Y014960D01*
X028424Y014918D01*
X028575Y014877D02*
X028617Y014835D01*
X028700Y014835D01*
X028742Y014877D01*
X028742Y014960D01*
X028700Y015002D01*
X028658Y015002D01*
X028575Y014960D01*
X028575Y015085D01*
X028742Y015085D01*
X028851Y015044D02*
X028893Y015085D01*
X028976Y015085D01*
X029018Y015044D01*
X029018Y015002D01*
X028851Y014835D01*
X029018Y014835D01*
X028976Y015460D02*
X028893Y015460D01*
X028851Y015502D01*
X028742Y015502D02*
X028700Y015460D01*
X028617Y015460D01*
X028575Y015502D01*
X028575Y015585D02*
X028658Y015627D01*
X028700Y015627D01*
X028742Y015585D01*
X028742Y015502D01*
X028575Y015585D02*
X028575Y015710D01*
X028742Y015710D01*
X028851Y015669D02*
X028893Y015710D01*
X028976Y015710D01*
X029018Y015669D01*
X029018Y015627D01*
X028976Y015585D01*
X029018Y015543D01*
X029018Y015502D01*
X028976Y015460D01*
X028976Y015585D02*
X028935Y015585D01*
X028465Y015585D02*
X028465Y015669D01*
X028424Y015710D01*
X028299Y015710D01*
X028299Y015460D01*
X028299Y015543D02*
X028424Y015543D01*
X028465Y015585D01*
X028382Y015543D02*
X028465Y015460D01*
X028465Y016085D02*
X028382Y016168D01*
X028424Y016168D02*
X028299Y016168D01*
X028299Y016085D02*
X028299Y016335D01*
X028424Y016335D01*
X028465Y016294D01*
X028465Y016210D01*
X028424Y016168D01*
X028575Y016127D02*
X028617Y016085D01*
X028700Y016085D01*
X028742Y016127D01*
X028742Y016210D01*
X028700Y016252D01*
X028658Y016252D01*
X028575Y016210D01*
X028575Y016335D01*
X028742Y016335D01*
X028851Y016210D02*
X029018Y016210D01*
X028976Y016085D02*
X028976Y016335D01*
X028851Y016210D01*
X028893Y016710D02*
X028851Y016752D01*
X028893Y016710D02*
X028976Y016710D01*
X029018Y016752D01*
X029018Y016835D01*
X028976Y016877D01*
X028935Y016877D01*
X028851Y016835D01*
X028851Y016960D01*
X029018Y016960D01*
X028980Y017110D02*
X029022Y017152D01*
X029022Y017193D01*
X028980Y017235D01*
X028855Y017235D01*
X028855Y017152D01*
X028897Y017110D01*
X028980Y017110D01*
X028855Y017235D02*
X028938Y017319D01*
X029022Y017360D01*
X028745Y017360D02*
X028579Y017360D01*
X028579Y017235D01*
X028662Y017277D01*
X028704Y017277D01*
X028745Y017235D01*
X028745Y017152D01*
X028704Y017110D01*
X028620Y017110D01*
X028579Y017152D01*
X028469Y017110D02*
X028386Y017193D01*
X028427Y017193D02*
X028302Y017193D01*
X028302Y017110D02*
X028302Y017360D01*
X028427Y017360D01*
X028469Y017319D01*
X028469Y017235D01*
X028427Y017193D01*
X028424Y016960D02*
X028299Y016960D01*
X028299Y016710D01*
X028299Y016793D02*
X028424Y016793D01*
X028465Y016835D01*
X028465Y016919D01*
X028424Y016960D01*
X028575Y016960D02*
X028575Y016835D01*
X028658Y016877D01*
X028700Y016877D01*
X028742Y016835D01*
X028742Y016752D01*
X028700Y016710D01*
X028617Y016710D01*
X028575Y016752D01*
X028465Y016710D02*
X028382Y016793D01*
X028575Y016960D02*
X028742Y016960D01*
X026877Y018035D02*
X026877Y018535D01*
X025627Y018535D01*
X025627Y018035D01*
X026877Y018035D01*
X026627Y017785D02*
X026625Y017747D01*
X026619Y017710D01*
X026610Y017673D01*
X026597Y017637D01*
X026580Y017603D01*
X026560Y017571D01*
X026537Y017541D01*
X026510Y017513D01*
X026482Y017488D01*
X026450Y017467D01*
X026417Y017448D01*
X026382Y017433D01*
X026346Y017422D01*
X026309Y017414D01*
X026271Y017410D01*
X026233Y017410D01*
X026195Y017414D01*
X026158Y017422D01*
X026122Y017433D01*
X026087Y017448D01*
X026054Y017467D01*
X026022Y017488D01*
X025994Y017513D01*
X025967Y017541D01*
X025944Y017571D01*
X025924Y017603D01*
X025907Y017637D01*
X025894Y017673D01*
X025885Y017710D01*
X025879Y017747D01*
X025877Y017785D01*
X020345Y016810D02*
X020262Y016769D01*
X020179Y016685D01*
X020304Y016685D01*
X020345Y016643D01*
X020345Y016602D01*
X020304Y016560D01*
X020220Y016560D01*
X020179Y016602D01*
X020179Y016685D01*
X020069Y016727D02*
X019902Y016560D01*
X020069Y016560D01*
X020069Y016727D02*
X020069Y016769D01*
X020027Y016810D01*
X019944Y016810D01*
X019902Y016769D01*
X019220Y016560D02*
X019054Y016560D01*
X019137Y016560D02*
X019137Y016810D01*
X019054Y016727D01*
X018944Y016727D02*
X018944Y016769D01*
X018902Y016810D01*
X018819Y016810D01*
X018777Y016769D01*
X018944Y016727D02*
X018777Y016560D01*
X018944Y016560D01*
X018902Y015810D02*
X018819Y015810D01*
X018777Y015769D01*
X018902Y015810D02*
X018944Y015769D01*
X018944Y015727D01*
X018777Y015560D01*
X018944Y015560D01*
X019054Y015602D02*
X019220Y015769D01*
X019220Y015602D01*
X019179Y015560D01*
X019095Y015560D01*
X019054Y015602D01*
X019054Y015769D01*
X019095Y015810D01*
X019179Y015810D01*
X019220Y015769D01*
X019902Y015769D02*
X019944Y015810D01*
X020027Y015810D01*
X020069Y015769D01*
X020069Y015727D01*
X019902Y015560D01*
X020069Y015560D01*
X020179Y015560D02*
X020179Y015602D01*
X020345Y015769D01*
X020345Y015810D01*
X020179Y015810D01*
X020220Y014810D02*
X020304Y014810D01*
X020345Y014769D01*
X020345Y014727D01*
X020304Y014685D01*
X020220Y014685D01*
X020179Y014727D01*
X020179Y014769D01*
X020220Y014810D01*
X020220Y014685D02*
X020179Y014643D01*
X020179Y014602D01*
X020220Y014560D01*
X020304Y014560D01*
X020345Y014602D01*
X020345Y014643D01*
X020304Y014685D01*
X020069Y014727D02*
X020069Y014769D01*
X020027Y014810D01*
X019944Y014810D01*
X019902Y014769D01*
X020069Y014727D02*
X019902Y014560D01*
X020069Y014560D01*
X019220Y014602D02*
X019220Y014769D01*
X019179Y014810D01*
X019095Y014810D01*
X019054Y014769D01*
X019054Y014727D01*
X019095Y014685D01*
X019220Y014685D01*
X019220Y014602D02*
X019179Y014560D01*
X019095Y014560D01*
X019054Y014602D01*
X018944Y014560D02*
X018777Y014560D01*
X018861Y014560D02*
X018861Y014810D01*
X018777Y014727D01*
X017311Y018560D02*
X017352Y018602D01*
X017352Y018643D01*
X017311Y018685D01*
X017102Y018685D01*
X017102Y018643D02*
X017102Y018727D01*
X017144Y018836D02*
X017102Y018878D01*
X017102Y018961D01*
X017144Y019003D01*
X017186Y019003D01*
X017227Y018961D01*
X017269Y019003D01*
X017311Y019003D01*
X017352Y018961D01*
X017352Y018878D01*
X017311Y018836D01*
X017227Y018920D02*
X017227Y018961D01*
X018077Y019350D02*
X018127Y019300D01*
X018177Y019300D01*
X018227Y019350D01*
X018227Y019500D01*
X018127Y019500D02*
X018077Y019450D01*
X018077Y019350D01*
X018127Y019500D02*
X018327Y019500D01*
X018377Y019450D01*
X018377Y019350D01*
X018327Y019300D01*
X019077Y019350D02*
X019077Y019450D01*
X019127Y019500D01*
X019177Y019500D01*
X019227Y019450D01*
X019227Y019350D01*
X019177Y019300D01*
X019127Y019300D01*
X019077Y019350D01*
X019227Y019350D02*
X019277Y019300D01*
X019327Y019300D01*
X019377Y019350D01*
X019377Y019450D01*
X019327Y019500D01*
X019277Y019500D01*
X019227Y019450D01*
X029736Y011498D02*
X029819Y011498D01*
X029777Y011498D02*
X029777Y011289D01*
X029736Y011248D01*
X029694Y011248D01*
X029652Y011289D01*
X029929Y011289D02*
X029970Y011248D01*
X030054Y011248D01*
X030095Y011289D01*
X030095Y011373D01*
X030054Y011414D01*
X030012Y011414D01*
X029929Y011373D01*
X029929Y011498D01*
X030095Y011498D01*
X032236Y005623D02*
X032236Y005373D01*
X032319Y005373D02*
X032152Y005373D01*
X032152Y005539D02*
X032236Y005623D01*
X032429Y005581D02*
X032470Y005623D01*
X032554Y005623D01*
X032595Y005581D01*
X032595Y005539D01*
X032554Y005498D01*
X032595Y005456D01*
X032595Y005414D01*
X032554Y005373D01*
X032470Y005373D01*
X032429Y005414D01*
X032512Y005498D02*
X032554Y005498D01*
X033052Y004985D02*
X033177Y004985D01*
X033219Y004944D01*
X033219Y004860D01*
X033177Y004818D01*
X033052Y004818D01*
X033052Y004735D02*
X033052Y004985D01*
X033136Y004818D02*
X033219Y004735D01*
X032595Y004498D02*
X032429Y004498D01*
X032554Y004623D01*
X032554Y004373D01*
X032319Y004373D02*
X032152Y004373D01*
X032236Y004373D02*
X032236Y004623D01*
X032152Y004539D01*
X027927Y001880D02*
X027927Y001780D01*
X027877Y001730D01*
X027777Y001730D02*
X027727Y001830D01*
X027727Y001880D01*
X027777Y001930D01*
X027877Y001930D01*
X027927Y001880D01*
X027777Y001730D02*
X027627Y001730D01*
X027627Y001930D01*
X026927Y001880D02*
X026627Y001880D01*
X026777Y001730D01*
X026777Y001930D01*
X025927Y001880D02*
X025927Y001780D01*
X025877Y001730D01*
X025777Y001830D02*
X025777Y001880D01*
X025827Y001930D01*
X025877Y001930D01*
X025927Y001880D01*
X025777Y001880D02*
X025727Y001930D01*
X025677Y001930D01*
X025627Y001880D01*
X025627Y001780D01*
X025677Y001730D01*
X024927Y001730D02*
X024727Y001930D01*
X024677Y001930D01*
X024627Y001880D01*
X024627Y001780D01*
X024677Y001730D01*
X024927Y001730D02*
X024927Y001930D01*
X024627Y002035D02*
X023377Y002035D01*
X023377Y002535D01*
X024627Y002535D01*
X024627Y002035D01*
X023927Y001930D02*
X023927Y001730D01*
X023927Y001830D02*
X023627Y001830D01*
X023727Y001730D01*
X022927Y001780D02*
X022877Y001730D01*
X022677Y001730D01*
X022627Y001780D01*
X022627Y001880D01*
X022677Y001930D01*
X022877Y001730D01*
X022927Y001780D02*
X022927Y001880D01*
X022877Y001930D01*
X022677Y001930D01*
X022032Y001613D02*
X021732Y001613D01*
X021732Y001413D02*
X022032Y001613D01*
X022032Y001413D02*
X021732Y001413D01*
X021732Y001298D02*
X021732Y001198D01*
X021732Y001248D02*
X022032Y001248D01*
X022032Y001198D02*
X022032Y001298D01*
X022032Y001076D02*
X021832Y001076D01*
X021732Y000976D01*
X021832Y000876D01*
X022032Y000876D01*
X021882Y000876D02*
X021882Y001076D01*
X019152Y004310D02*
X019194Y004352D01*
X019194Y004393D01*
X019152Y004435D01*
X019027Y004435D01*
X019027Y004352D01*
X019069Y004310D01*
X019152Y004310D01*
X019027Y004435D02*
X019111Y004519D01*
X019194Y004560D01*
X019152Y005310D02*
X019069Y005310D01*
X019027Y005352D01*
X019027Y005435D02*
X019111Y005477D01*
X019152Y005477D01*
X019194Y005435D01*
X019194Y005352D01*
X019152Y005310D01*
X019027Y005435D02*
X019027Y005560D01*
X019194Y005560D01*
X019152Y007310D02*
X019069Y007310D01*
X019027Y007352D01*
X019111Y007435D02*
X019152Y007435D01*
X019194Y007393D01*
X019194Y007352D01*
X019152Y007310D01*
X019152Y007435D02*
X019194Y007477D01*
X019194Y007519D01*
X019152Y007560D01*
X019069Y007560D01*
X019027Y007519D01*
X016968Y002073D02*
X016968Y001873D01*
X016868Y001773D01*
X016768Y001873D01*
X016768Y002073D01*
X016645Y002023D02*
X016645Y001973D01*
X016595Y001923D01*
X016645Y001873D01*
X016645Y001823D01*
X016595Y001773D01*
X016495Y001773D01*
X016445Y001823D01*
X016545Y001923D02*
X016595Y001923D01*
X016645Y002023D02*
X016595Y002073D01*
X016495Y002073D01*
X016445Y002023D01*
X016235Y002085D02*
X016035Y002085D01*
X016135Y002085D02*
X016135Y001785D01*
X015913Y001835D02*
X015863Y001785D01*
X015763Y001785D01*
X015713Y001835D01*
X015763Y001935D02*
X015863Y001935D01*
X015913Y001885D01*
X015913Y001835D01*
X015763Y001935D02*
X015713Y001985D01*
X015713Y002035D01*
X015763Y002085D01*
X015863Y002085D01*
X015913Y002035D01*
X015591Y002035D02*
X015591Y001935D01*
X015541Y001885D01*
X015391Y001885D01*
X015491Y001885D02*
X015591Y001785D01*
X015391Y001785D02*
X015391Y002085D01*
X015541Y002085D01*
X015591Y002035D01*
X015173Y002035D02*
X015173Y001935D01*
X015123Y001885D01*
X014973Y001885D01*
X015073Y001885D02*
X015173Y001785D01*
X014973Y001785D02*
X014973Y002085D01*
X015123Y002085D01*
X015173Y002035D01*
X014850Y002035D02*
X014850Y001835D01*
X014800Y001785D01*
X014700Y001785D01*
X014650Y001835D01*
X014650Y002035D01*
X014700Y002085D01*
X014800Y002085D01*
X014850Y002035D01*
X014536Y002085D02*
X014435Y002085D01*
X014486Y002085D02*
X014486Y001785D01*
X014536Y001785D02*
X014435Y001785D01*
D12*
X012877Y001785D02*
X012627Y001535D01*
X012127Y001535D01*
X011877Y001785D01*
X011627Y001535D01*
X011127Y001535D01*
X010877Y001785D01*
X010877Y002285D01*
X011127Y002535D01*
X011627Y002535D01*
X011877Y002285D01*
X012127Y002535D01*
X012627Y002535D01*
X012877Y002285D01*
X012877Y001785D01*
X011877Y001785D02*
X011877Y002285D01*
X011766Y002690D02*
X011539Y002690D01*
X011652Y002690D02*
X011652Y003030D01*
X011539Y002917D01*
X011398Y003030D02*
X011398Y002690D01*
X011171Y003030D01*
X011171Y002690D01*
X011039Y002690D02*
X010925Y002690D01*
X010982Y002690D02*
X010982Y003030D01*
X010925Y003030D02*
X011039Y003030D01*
X010784Y003030D02*
X010784Y002803D01*
X010670Y002690D01*
X010557Y002803D01*
X010557Y003030D01*
X010127Y003035D02*
X010127Y002535D01*
X009877Y002285D01*
X009377Y002285D01*
X009127Y002535D01*
X008877Y002285D01*
X008377Y002285D01*
X008127Y002535D01*
X008127Y003035D01*
X008377Y003285D01*
X008877Y003285D01*
X009127Y003035D01*
X009377Y003285D01*
X009877Y003285D01*
X010127Y003035D01*
X010164Y003440D02*
X010391Y003440D01*
X010277Y003440D02*
X010277Y003780D01*
X010164Y003667D01*
X010023Y003780D02*
X010023Y003440D01*
X009796Y003780D01*
X009796Y003440D01*
X009664Y003440D02*
X009550Y003440D01*
X009607Y003440D02*
X009607Y003780D01*
X009550Y003780D02*
X009664Y003780D01*
X009409Y003780D02*
X009409Y003553D01*
X009295Y003440D01*
X009182Y003553D01*
X009182Y003780D01*
X008891Y003724D02*
X008891Y003497D01*
X008834Y003440D01*
X008664Y003440D01*
X008664Y003780D01*
X008834Y003780D01*
X008891Y003724D01*
X008523Y003780D02*
X008523Y003440D01*
X008296Y003780D01*
X008296Y003440D01*
X008154Y003497D02*
X008098Y003440D01*
X007984Y003440D01*
X007927Y003497D01*
X007927Y003724D01*
X007984Y003780D01*
X008098Y003780D01*
X008154Y003724D01*
X008154Y003610D02*
X008041Y003610D01*
X008154Y003610D02*
X008154Y003497D01*
X009127Y003035D02*
X009127Y002535D01*
X009782Y001911D02*
X009839Y001968D01*
X009953Y001968D01*
X010009Y001911D01*
X010151Y001968D02*
X010378Y001968D01*
X010378Y001911D01*
X010151Y001684D01*
X010151Y001628D01*
X010009Y001684D02*
X009953Y001628D01*
X009839Y001628D01*
X009782Y001684D01*
X009782Y001911D01*
X011932Y002803D02*
X012045Y002690D01*
X012159Y002803D01*
X012159Y003030D01*
X012300Y003030D02*
X012414Y003030D01*
X012357Y003030D02*
X012357Y002690D01*
X012300Y002690D02*
X012414Y002690D01*
X012546Y002690D02*
X012546Y003030D01*
X012773Y002690D01*
X012773Y003030D01*
X012914Y002974D02*
X012971Y003030D01*
X013084Y003030D01*
X013141Y002974D01*
X013141Y002917D01*
X012914Y002690D01*
X013141Y002690D01*
X013057Y003225D02*
X015697Y003225D01*
X015720Y003227D01*
X015743Y003232D01*
X015765Y003241D01*
X015785Y003254D01*
X015803Y003269D01*
X015818Y003287D01*
X015831Y003307D01*
X015840Y003329D01*
X015845Y003352D01*
X015847Y003375D01*
X015847Y008195D01*
X015845Y008218D01*
X015840Y008241D01*
X015831Y008263D01*
X015818Y008283D01*
X015803Y008301D01*
X015785Y008316D01*
X015765Y008329D01*
X015743Y008338D01*
X015720Y008343D01*
X015697Y008345D01*
X013057Y008345D01*
X013034Y008343D01*
X013011Y008338D01*
X012989Y008329D01*
X012969Y008316D01*
X012951Y008301D01*
X012936Y008283D01*
X012923Y008263D01*
X012914Y008241D01*
X012909Y008218D01*
X012907Y008195D01*
X012907Y003375D01*
X012909Y003352D01*
X012914Y003329D01*
X012923Y003307D01*
X012936Y003287D01*
X012951Y003269D01*
X012969Y003254D01*
X012989Y003241D01*
X013011Y003232D01*
X013034Y003227D01*
X013057Y003225D01*
X011932Y003030D02*
X011932Y002803D01*
X010622Y004285D02*
X009382Y004285D01*
X009359Y004287D01*
X009336Y004292D01*
X009314Y004301D01*
X009294Y004314D01*
X009276Y004329D01*
X009261Y004347D01*
X009248Y004367D01*
X009239Y004389D01*
X009234Y004412D01*
X009232Y004435D01*
X009232Y008135D01*
X009234Y008158D01*
X009239Y008181D01*
X009248Y008203D01*
X009261Y008223D01*
X009276Y008241D01*
X009294Y008256D01*
X009314Y008269D01*
X009336Y008278D01*
X009359Y008283D01*
X009382Y008285D01*
X009615Y008285D01*
X010390Y008285D01*
X010622Y008285D01*
X010645Y008283D01*
X010668Y008278D01*
X010690Y008269D01*
X010710Y008256D01*
X010728Y008241D01*
X010743Y008223D01*
X010756Y008203D01*
X010765Y008181D01*
X010770Y008158D01*
X010772Y008135D01*
X010772Y004435D01*
X010770Y004412D01*
X010765Y004389D01*
X010756Y004367D01*
X010743Y004347D01*
X010728Y004329D01*
X010710Y004314D01*
X010690Y004301D01*
X010668Y004292D01*
X010645Y004287D01*
X010622Y004285D01*
X007991Y005785D02*
X007764Y005785D01*
X007934Y005955D01*
X007934Y005615D01*
X007623Y005615D02*
X007509Y005728D01*
X007566Y005728D02*
X007396Y005728D01*
X007396Y005615D02*
X007396Y005955D01*
X007566Y005955D01*
X007623Y005899D01*
X007623Y005785D01*
X007566Y005728D01*
X007623Y007115D02*
X007509Y007228D01*
X007566Y007228D02*
X007396Y007228D01*
X007396Y007115D02*
X007396Y007455D01*
X007566Y007455D01*
X007623Y007399D01*
X007623Y007285D01*
X007566Y007228D01*
X007764Y007172D02*
X007821Y007115D01*
X007934Y007115D01*
X007991Y007172D01*
X007991Y007228D01*
X007934Y007285D01*
X007877Y007285D01*
X007934Y007285D02*
X007991Y007342D01*
X007991Y007399D01*
X007934Y007455D01*
X007821Y007455D01*
X007764Y007399D01*
X008577Y008465D02*
X008690Y008465D01*
X008747Y008522D01*
X008747Y008805D01*
X008888Y008749D02*
X008945Y008805D01*
X009058Y008805D01*
X009115Y008749D01*
X009115Y008692D01*
X009058Y008635D01*
X009115Y008578D01*
X009115Y008522D01*
X009058Y008465D01*
X008945Y008465D01*
X008888Y008522D01*
X009002Y008635D02*
X009058Y008635D01*
X008577Y008465D02*
X008520Y008522D01*
X008520Y008805D01*
X009614Y008285D02*
X009616Y008247D01*
X009621Y008209D01*
X009631Y008172D01*
X009644Y008137D01*
X009660Y008102D01*
X009679Y008069D01*
X009702Y008039D01*
X009728Y008011D01*
X009756Y007985D01*
X009786Y007962D01*
X009819Y007943D01*
X009854Y007927D01*
X009889Y007914D01*
X009926Y007904D01*
X009964Y007899D01*
X010002Y007897D01*
X010040Y007899D01*
X010078Y007904D01*
X010115Y007914D01*
X010150Y007927D01*
X010185Y007943D01*
X010218Y007962D01*
X010248Y007985D01*
X010276Y008011D01*
X010302Y008039D01*
X010325Y008069D01*
X010344Y008102D01*
X010360Y008137D01*
X010373Y008172D01*
X010383Y008209D01*
X010388Y008247D01*
X010390Y008285D01*
X010777Y008690D02*
X010720Y008747D01*
X010720Y008974D01*
X010777Y009030D01*
X010890Y009030D01*
X010947Y008974D01*
X011088Y008974D02*
X011145Y009030D01*
X011258Y009030D01*
X011315Y008974D01*
X011315Y008917D01*
X011258Y008860D01*
X011315Y008803D01*
X011315Y008747D01*
X011258Y008690D01*
X011145Y008690D01*
X011088Y008747D01*
X010947Y008747D02*
X010890Y008690D01*
X010777Y008690D01*
X011202Y008860D02*
X011258Y008860D01*
X008703Y010222D02*
X008647Y010165D01*
X008533Y010165D01*
X008477Y010222D01*
X008477Y010278D01*
X008533Y010335D01*
X008647Y010335D01*
X008703Y010278D01*
X008703Y010222D01*
X008647Y010335D02*
X008703Y010392D01*
X008703Y010449D01*
X008647Y010505D01*
X008533Y010505D01*
X008477Y010449D01*
X008477Y010392D01*
X008533Y010335D01*
X007634Y010974D02*
X007407Y010747D01*
X007407Y010690D01*
X007407Y011030D02*
X007634Y011030D01*
X007634Y010974D01*
X014195Y008855D02*
X014195Y008572D01*
X014252Y008515D01*
X014365Y008515D01*
X014422Y008572D01*
X014422Y008855D01*
X014563Y008685D02*
X014790Y008685D01*
X014733Y008515D02*
X014733Y008855D01*
X014563Y008685D01*
X014877Y008345D02*
X014875Y008301D01*
X014869Y008258D01*
X014860Y008216D01*
X014847Y008174D01*
X014830Y008134D01*
X014810Y008095D01*
X014787Y008058D01*
X014760Y008024D01*
X014731Y007991D01*
X014698Y007962D01*
X014664Y007935D01*
X014627Y007912D01*
X014588Y007892D01*
X014548Y007875D01*
X014506Y007862D01*
X014464Y007853D01*
X014421Y007847D01*
X014377Y007845D01*
X014333Y007847D01*
X014290Y007853D01*
X014248Y007862D01*
X014206Y007875D01*
X014166Y007892D01*
X014127Y007912D01*
X014090Y007935D01*
X014056Y007962D01*
X014023Y007991D01*
X013994Y008024D01*
X013967Y008058D01*
X013944Y008095D01*
X013924Y008134D01*
X013907Y008174D01*
X013894Y008216D01*
X013885Y008258D01*
X013879Y008301D01*
X013877Y008345D01*
X016171Y008665D02*
X016398Y008665D01*
X016284Y008665D02*
X016284Y009005D01*
X016171Y008892D01*
X016539Y008835D02*
X016652Y008892D01*
X016709Y008892D01*
X016766Y008835D01*
X016766Y008722D01*
X016709Y008665D01*
X016596Y008665D01*
X016539Y008722D01*
X016539Y008835D02*
X016539Y009005D01*
X016766Y009005D01*
X019657Y010809D02*
X019884Y011036D01*
X019884Y010809D01*
X019828Y010753D01*
X019714Y010753D01*
X019657Y010809D01*
X019657Y011036D01*
X019714Y011093D01*
X019828Y011093D01*
X019884Y011036D01*
X020907Y011036D02*
X020964Y011093D01*
X021078Y011093D01*
X021134Y011036D01*
X021134Y010979D01*
X021078Y010923D01*
X021134Y010866D01*
X021134Y010809D01*
X021078Y010753D01*
X020964Y010753D01*
X020907Y010809D01*
X021021Y010923D02*
X021078Y010923D01*
X021276Y010979D02*
X021389Y011093D01*
X021389Y010753D01*
X021276Y010753D02*
X021503Y010753D01*
X021964Y009736D02*
X021907Y009679D01*
X021907Y009566D01*
X021964Y009509D01*
X021964Y009368D02*
X022021Y009368D01*
X022077Y009311D01*
X022134Y009368D01*
X022191Y009368D01*
X022247Y009311D01*
X022247Y009198D01*
X022191Y009141D01*
X022077Y009254D02*
X022077Y009311D01*
X021964Y009368D02*
X021907Y009311D01*
X021907Y009198D01*
X021964Y009141D01*
X022247Y009509D02*
X022021Y009736D01*
X021964Y009736D01*
X022247Y009736D02*
X022247Y009509D01*
X022247Y008680D02*
X022247Y008397D01*
X022190Y008340D01*
X022077Y008340D01*
X022020Y008397D01*
X022020Y008680D01*
X022388Y008680D02*
X022388Y008510D01*
X022502Y008567D01*
X022558Y008567D01*
X022615Y008510D01*
X022615Y008397D01*
X022558Y008340D01*
X022445Y008340D01*
X022388Y008397D01*
X022607Y008135D02*
X022607Y004435D01*
X022609Y004412D01*
X022614Y004389D01*
X022623Y004367D01*
X022636Y004347D01*
X022651Y004329D01*
X022669Y004314D01*
X022689Y004301D01*
X022711Y004292D01*
X022734Y004287D01*
X022757Y004285D01*
X023997Y004285D01*
X024020Y004287D01*
X024043Y004292D01*
X024065Y004301D01*
X024085Y004314D01*
X024103Y004329D01*
X024118Y004347D01*
X024131Y004367D01*
X024140Y004389D01*
X024145Y004412D01*
X024147Y004435D01*
X024147Y008135D01*
X024145Y008158D01*
X024140Y008181D01*
X024131Y008203D01*
X024118Y008223D01*
X024103Y008241D01*
X024085Y008256D01*
X024065Y008269D01*
X024043Y008278D01*
X024020Y008283D01*
X023997Y008285D01*
X023765Y008285D01*
X022990Y008285D01*
X022757Y008285D01*
X022734Y008283D01*
X022711Y008278D01*
X022689Y008269D01*
X022669Y008256D01*
X022651Y008241D01*
X022636Y008223D01*
X022623Y008203D01*
X022614Y008181D01*
X022609Y008158D01*
X022607Y008135D01*
X022989Y008285D02*
X022991Y008247D01*
X022996Y008209D01*
X023006Y008172D01*
X023019Y008137D01*
X023035Y008102D01*
X023054Y008069D01*
X023077Y008039D01*
X023103Y008011D01*
X023131Y007985D01*
X023161Y007962D01*
X023194Y007943D01*
X023229Y007927D01*
X023264Y007914D01*
X023301Y007904D01*
X023339Y007899D01*
X023377Y007897D01*
X023415Y007899D01*
X023453Y007904D01*
X023490Y007914D01*
X023525Y007927D01*
X023560Y007943D01*
X023593Y007962D01*
X023623Y007985D01*
X023651Y008011D01*
X023677Y008039D01*
X023700Y008069D01*
X023719Y008102D01*
X023735Y008137D01*
X023748Y008172D01*
X023758Y008209D01*
X023763Y008247D01*
X023765Y008285D01*
X024157Y008684D02*
X024214Y008628D01*
X024328Y008628D01*
X024384Y008684D01*
X024526Y008684D02*
X024582Y008628D01*
X024696Y008628D01*
X024753Y008684D01*
X024753Y008798D01*
X024696Y008854D01*
X024639Y008854D01*
X024526Y008798D01*
X024526Y008968D01*
X024753Y008968D01*
X024384Y008911D02*
X024328Y008968D01*
X024214Y008968D01*
X024157Y008911D01*
X024157Y008684D01*
X022615Y008680D02*
X022388Y008680D01*
X026282Y008195D02*
X026282Y003375D01*
X026284Y003352D01*
X026289Y003329D01*
X026298Y003307D01*
X026311Y003287D01*
X026326Y003269D01*
X026344Y003254D01*
X026364Y003241D01*
X026386Y003232D01*
X026409Y003227D01*
X026432Y003225D01*
X029072Y003225D01*
X029095Y003227D01*
X029118Y003232D01*
X029140Y003241D01*
X029160Y003254D01*
X029178Y003269D01*
X029193Y003287D01*
X029206Y003307D01*
X029215Y003329D01*
X029220Y003352D01*
X029222Y003375D01*
X029222Y008195D01*
X029220Y008218D01*
X029215Y008241D01*
X029206Y008263D01*
X029193Y008283D01*
X029178Y008301D01*
X029160Y008316D01*
X029140Y008329D01*
X029118Y008338D01*
X029095Y008343D01*
X029072Y008345D01*
X026432Y008345D01*
X026409Y008343D01*
X026386Y008338D01*
X026364Y008329D01*
X026344Y008316D01*
X026326Y008301D01*
X026311Y008283D01*
X026298Y008263D01*
X026289Y008241D01*
X026284Y008218D01*
X026282Y008195D01*
X027507Y008572D02*
X027564Y008515D01*
X027678Y008515D01*
X027734Y008572D01*
X027734Y008855D01*
X027876Y008685D02*
X028046Y008685D01*
X028103Y008628D01*
X028103Y008572D01*
X028046Y008515D01*
X027932Y008515D01*
X027876Y008572D01*
X027876Y008685D01*
X027989Y008799D01*
X028103Y008855D01*
X027507Y008855D02*
X027507Y008572D01*
X027252Y008345D02*
X027254Y008301D01*
X027260Y008258D01*
X027269Y008216D01*
X027282Y008174D01*
X027299Y008134D01*
X027319Y008095D01*
X027342Y008058D01*
X027369Y008024D01*
X027398Y007991D01*
X027431Y007962D01*
X027465Y007935D01*
X027502Y007912D01*
X027541Y007892D01*
X027581Y007875D01*
X027623Y007862D01*
X027665Y007853D01*
X027708Y007847D01*
X027752Y007845D01*
X027796Y007847D01*
X027839Y007853D01*
X027881Y007862D01*
X027923Y007875D01*
X027963Y007892D01*
X028002Y007912D01*
X028039Y007935D01*
X028073Y007962D01*
X028106Y007991D01*
X028135Y008024D01*
X028162Y008058D01*
X028185Y008095D01*
X028205Y008134D01*
X028222Y008174D01*
X028235Y008216D01*
X028244Y008258D01*
X028250Y008301D01*
X028252Y008345D01*
X029358Y008722D02*
X029415Y008665D01*
X029528Y008665D01*
X029585Y008722D01*
X029585Y008778D01*
X029528Y008835D01*
X029472Y008835D01*
X029528Y008835D02*
X029585Y008892D01*
X029585Y008949D01*
X029528Y009005D01*
X029415Y009005D01*
X029358Y008949D01*
X029727Y008949D02*
X029727Y008892D01*
X029783Y008835D01*
X029953Y008835D01*
X029953Y008722D02*
X029953Y008949D01*
X029897Y009005D01*
X029783Y009005D01*
X029727Y008949D01*
X029727Y008722D02*
X029783Y008665D01*
X029897Y008665D01*
X029953Y008722D01*
X033032Y010934D02*
X033032Y010991D01*
X033089Y011048D01*
X033203Y011048D01*
X033259Y010991D01*
X033259Y010934D01*
X033203Y010878D01*
X033089Y010878D01*
X033032Y010934D01*
X033089Y011048D02*
X033032Y011104D01*
X033032Y011161D01*
X033089Y011218D01*
X033203Y011218D01*
X033259Y011161D01*
X033259Y011104D01*
X033203Y011048D01*
X033203Y011565D02*
X033203Y011905D01*
X033032Y011735D01*
X033259Y011735D01*
X033401Y011622D02*
X033628Y011849D01*
X033628Y011622D01*
X033571Y011565D01*
X033457Y011565D01*
X033401Y011622D01*
X033401Y011849D01*
X033457Y011905D01*
X033571Y011905D01*
X033628Y011849D01*
X028297Y017778D02*
X027957Y017778D01*
X027957Y017948D01*
X028014Y018004D01*
X028127Y018004D01*
X028184Y017948D01*
X028184Y017778D01*
X028184Y017891D02*
X028297Y018004D01*
X028297Y018146D02*
X028071Y018373D01*
X028014Y018373D01*
X027957Y018316D01*
X027957Y018203D01*
X028014Y018146D01*
X028297Y018146D02*
X028297Y018373D01*
X027628Y018224D02*
X027628Y018167D01*
X027401Y017940D01*
X027628Y017940D01*
X027259Y017997D02*
X027259Y018280D01*
X027401Y018224D02*
X027457Y018280D01*
X027571Y018280D01*
X027628Y018224D01*
X027259Y017997D02*
X027203Y017940D01*
X027089Y017940D01*
X027032Y017997D01*
X027032Y018280D01*
X026503Y018628D02*
X026276Y018628D01*
X026503Y018854D01*
X026503Y018911D01*
X026446Y018968D01*
X026332Y018968D01*
X026276Y018911D01*
X026134Y018911D02*
X026078Y018968D01*
X025964Y018968D01*
X025907Y018911D01*
X025907Y018684D01*
X025964Y018628D01*
X026078Y018628D01*
X026134Y018684D01*
X024903Y018672D02*
X024846Y018615D01*
X024732Y018615D01*
X024676Y018672D01*
X024676Y018785D02*
X024789Y018842D01*
X024846Y018842D01*
X024903Y018785D01*
X024903Y018672D01*
X024676Y018785D02*
X024676Y018955D01*
X024903Y018955D01*
X024534Y018899D02*
X024534Y018785D01*
X024478Y018728D01*
X024307Y018728D01*
X024307Y018615D02*
X024307Y018955D01*
X024478Y018955D01*
X024534Y018899D01*
X024421Y018728D02*
X024534Y018615D01*
X022878Y018860D02*
X022651Y018860D01*
X022821Y019030D01*
X022821Y018690D01*
X022509Y018690D02*
X022282Y018690D01*
X022509Y018917D01*
X022509Y018974D01*
X022453Y019030D01*
X022339Y019030D01*
X022282Y018974D01*
X016878Y018974D02*
X016878Y018917D01*
X016821Y018860D01*
X016878Y018803D01*
X016878Y018747D01*
X016821Y018690D01*
X016707Y018690D01*
X016651Y018747D01*
X016509Y018690D02*
X016282Y018690D01*
X016509Y018917D01*
X016509Y018974D01*
X016453Y019030D01*
X016339Y019030D01*
X016282Y018974D01*
X016651Y018974D02*
X016707Y019030D01*
X016821Y019030D01*
X016878Y018974D01*
X016821Y018860D02*
X016764Y018860D01*
X014672Y018399D02*
X014672Y018172D01*
X014672Y018285D02*
X014332Y018285D01*
X014446Y018172D01*
X014315Y018190D02*
X014088Y018190D01*
X014202Y018190D02*
X014202Y018530D01*
X014088Y018417D01*
X013947Y018474D02*
X013890Y018530D01*
X013777Y018530D01*
X013720Y018474D01*
X013720Y018247D01*
X013777Y018190D01*
X013890Y018190D01*
X013947Y018247D01*
X014332Y017974D02*
X014389Y018030D01*
X014502Y018030D01*
X014559Y017974D01*
X014559Y017803D01*
X014672Y017803D02*
X014332Y017803D01*
X014332Y017974D01*
X014559Y017917D02*
X014672Y018030D01*
X012253Y018065D02*
X012026Y018065D01*
X012139Y018065D02*
X012139Y018405D01*
X012026Y018292D01*
X011884Y018405D02*
X011884Y018122D01*
X011828Y018065D01*
X011714Y018065D01*
X011657Y018122D01*
X011657Y018405D01*
X007759Y019372D02*
X007703Y019315D01*
X007589Y019315D01*
X007532Y019372D01*
X007759Y019599D01*
X007759Y019372D01*
X007759Y019599D02*
X007703Y019655D01*
X007589Y019655D01*
X007532Y019599D01*
X007532Y019372D01*
X022682Y004093D02*
X022682Y003866D01*
X022795Y003753D01*
X022909Y003866D01*
X022909Y004093D01*
X023050Y004093D02*
X023164Y004093D01*
X023107Y004093D02*
X023107Y003753D01*
X023050Y003753D02*
X023164Y003753D01*
X023252Y003660D02*
X023752Y003660D01*
X024002Y003410D01*
X024252Y003660D01*
X024752Y003660D01*
X025002Y003410D01*
X025002Y002910D01*
X024752Y002660D01*
X024252Y002660D01*
X024002Y002910D01*
X023752Y002660D01*
X023252Y002660D01*
X023002Y002910D01*
X023002Y003410D01*
X023252Y003660D01*
X023296Y003753D02*
X023296Y004093D01*
X023523Y003753D01*
X023523Y004093D01*
X023664Y004036D02*
X023721Y004093D01*
X023834Y004093D01*
X023891Y004036D01*
X023891Y003979D01*
X023664Y003753D01*
X023891Y003753D01*
X024177Y003809D02*
X024177Y004036D01*
X024234Y004093D01*
X024348Y004093D01*
X024404Y004036D01*
X024404Y003923D02*
X024291Y003923D01*
X024404Y003923D02*
X024404Y003809D01*
X024348Y003753D01*
X024234Y003753D01*
X024177Y003809D01*
X024546Y003753D02*
X024546Y004093D01*
X024773Y003753D01*
X024773Y004093D01*
X024914Y004093D02*
X025084Y004093D01*
X025141Y004036D01*
X025141Y003809D01*
X025084Y003753D01*
X024914Y003753D01*
X024914Y004093D01*
X024002Y003410D02*
X024002Y002910D01*
X024782Y002536D02*
X024782Y002309D01*
X024839Y002253D01*
X024953Y002253D01*
X025009Y002309D01*
X025151Y002309D02*
X025151Y002366D01*
X025207Y002423D01*
X025321Y002423D01*
X025378Y002366D01*
X025378Y002309D01*
X025321Y002253D01*
X025207Y002253D01*
X025151Y002309D01*
X025207Y002423D02*
X025151Y002479D01*
X025151Y002536D01*
X025207Y002593D01*
X025321Y002593D01*
X025378Y002536D01*
X025378Y002479D01*
X025321Y002423D01*
X025009Y002536D02*
X024953Y002593D01*
X024839Y002593D01*
X024782Y002536D01*
X018384Y002724D02*
X018157Y002497D01*
X018157Y002440D01*
X018157Y002780D02*
X018384Y002780D01*
X018384Y002724D01*
X032907Y002690D02*
X033134Y002690D01*
X033021Y002690D02*
X033021Y003030D01*
X032907Y002917D01*
X033276Y002860D02*
X033389Y002917D01*
X033446Y002917D01*
X033503Y002860D01*
X033503Y002747D01*
X033446Y002690D01*
X033332Y002690D01*
X033276Y002747D01*
X033276Y002860D02*
X033276Y003030D01*
X033503Y003030D01*
X033401Y018565D02*
X033401Y018622D01*
X033628Y018849D01*
X033628Y018905D01*
X033401Y018905D01*
X033203Y018905D02*
X033032Y018735D01*
X033259Y018735D01*
X033203Y018565D02*
X033203Y018905D01*
D13*
X027528Y017825D02*
X024976Y017825D01*
X024976Y013495D01*
X027528Y013495D01*
X027528Y017825D01*
X014153Y017825D02*
X014153Y013495D01*
X011601Y013495D01*
X011601Y017825D01*
X014153Y017825D01*
M02*
