%
M48
M72
T01C0.0197
T02C0.0400
%
T01
X8127Y4535
X7377Y5785
X7377Y7285
X8877Y8785
X8127Y10035
X10502Y7035
X10502Y6535
X10502Y6035
X10502Y5535
X10502Y5035
X14252Y4285
X15252Y4035
X14252Y6785
X15127Y7285
X20877Y7410
X20877Y8410
X22252Y8785
X20877Y9410
X20877Y10410
X25252Y8535
X20877Y6410
X20877Y5410
X20877Y4410
X22002Y4035
X20877Y3410
X28752Y4035
X33815Y3910
X33815Y5910
X33815Y7910
X33815Y9910
X29627Y9285
X27002Y13660
X27002Y14160
X27002Y14660
X26252Y14660
X26252Y14160
X26252Y13660
X25502Y13660
X25502Y14160
X25502Y14660
X25502Y16660
X26252Y16660
X27002Y16660
X27002Y17160
X27002Y17660
X26252Y17660
X26252Y17160
X25502Y17160
X25502Y17660
X25877Y18785
X26627Y18785
X27877Y18535
X28877Y19160
X25002Y18785
X23502Y19410
X23377Y18910
X15002Y18785
X13377Y18910
X12627Y18785
X11377Y18035
X12127Y17660
X12127Y17160
X12127Y16660
X12877Y16660
X13627Y16660
X13627Y17160
X13627Y17660
X12877Y17660
X12877Y17160
X12877Y14660
X12877Y14160
X12877Y13660
X13627Y13660
X13627Y14160
X13627Y14660
X12127Y14660
X12127Y14160
X12127Y13660
T02
X7502Y13660
X7502Y14660
X7502Y15660
X7502Y16660
X7502Y17660
X7502Y18660
X10252Y20160
X11252Y20160
X12252Y20160
X13252Y20160
X14252Y20160
X15252Y20160
X16252Y20160
X17252Y20160
X18252Y20160
X19252Y20160
X20752Y20160
X21752Y20160
X22752Y20160
X23752Y20160
X24752Y20160
X25752Y20160
X26752Y20160
X27752Y20160
X31627Y18660
X31627Y17660
X31627Y16660
X31627Y15660
X31627Y14660
X31627Y13660
X31627Y12660
X31627Y11660
X31627Y10410
X31627Y9410
X31627Y8410
X31627Y7410
X31627Y6410
X31627Y5410
X31627Y4410
X31627Y3410
X27752Y1160
X26752Y1160
X25752Y1160
X24752Y1160
X23752Y1160
X22752Y1160
X20752Y1160
X19752Y1160
X18752Y1160
X17752Y1160
X16752Y1160
X15752Y1160
X14752Y1160
X13752Y1160
X12377Y2035
X11377Y2035
X9627Y2785
X8627Y2785
X18252Y3410
X18252Y4410
X18252Y5410
X18252Y6410
X18252Y7410
X18252Y8410
X18252Y9410
X18252Y10410
X18252Y11660
X18252Y12660
X18252Y13660
X18252Y14660
X18252Y15660
X18252Y16660
X18252Y17660
X18252Y18660
X20877Y18660
X20877Y17660
X20877Y16660
X20877Y15660
X20877Y14660
X20877Y13660
X20877Y12660
X20877Y11660
X22752Y10410
X23752Y10410
X24752Y10410
X25752Y10410
X26752Y10410
X27752Y10410
X28752Y10410
X29752Y10410
X24502Y3160
X23502Y3160
X16377Y10410
X15377Y10410
X14377Y10410
X13377Y10410
X12377Y10410
X11377Y10410
X10377Y10410
X9377Y10410
X7502Y11660
X7502Y12660
M30
