G75*
%MOIN*%
%OFA0B0*%
%FSLAX24Y24*%
%IPPOS*%
%LPD*%
%AMOC8*
5,1,8,0,0,1.08239X$1,22.5*
%
%ADD10C,0.0000*%
%ADD11C,0.0040*%
%ADD12C,0.0080*%
D10*
X002392Y002517D02*
X002392Y011017D01*
X008892Y011017D01*
X008892Y002517D01*
X002392Y002517D01*
D11*
X002639Y002821D02*
X002639Y003571D01*
X004014Y003571D01*
X004139Y003446D01*
X004139Y002821D01*
X002639Y002821D01*
X002642Y003579D02*
X002642Y004329D01*
X004017Y004329D01*
X004142Y004204D01*
X004142Y003579D01*
X002642Y003579D01*
X002642Y004329D02*
X002642Y005079D01*
X002642Y005829D01*
X004017Y005829D01*
X004142Y005704D01*
X004142Y005079D01*
X002642Y005079D01*
X004017Y005079D01*
X004142Y004954D01*
X004142Y004329D01*
X002642Y004329D01*
X002579Y005892D02*
X002579Y006642D01*
X003954Y006642D01*
X004079Y006517D01*
X004079Y005892D01*
X002579Y005892D01*
X002579Y006704D02*
X002579Y007454D01*
X003954Y007454D01*
X004079Y007329D01*
X004079Y006704D01*
X002579Y006704D01*
X002642Y007517D02*
X002642Y008267D01*
X004017Y008267D01*
X004142Y008142D01*
X004142Y007517D01*
X002642Y007517D01*
X002642Y008329D02*
X002642Y009079D01*
X004017Y009079D01*
X004142Y008954D01*
X004142Y008329D01*
X002642Y008329D01*
X002642Y009142D02*
X002642Y009892D01*
X004017Y009892D01*
X004142Y009767D01*
X004142Y009142D01*
X002642Y009142D01*
X002642Y009954D02*
X002642Y010704D01*
X004017Y010704D01*
X004142Y010579D01*
X004142Y009954D01*
X002642Y009954D01*
X004017Y007517D02*
X004767Y007517D01*
X004767Y006142D01*
X004642Y006017D01*
X004017Y006017D01*
X004017Y007517D01*
X004829Y007517D02*
X005579Y007517D01*
X005579Y006142D01*
X005454Y006017D01*
X004829Y006017D01*
X004829Y007517D01*
X005642Y007517D02*
X006392Y007517D01*
X006392Y006142D01*
X006267Y006017D01*
X005642Y006017D01*
X005642Y007517D01*
X006463Y007502D02*
X007213Y007502D01*
X007213Y006127D01*
X007088Y006002D01*
X006463Y006002D01*
X006463Y007502D01*
X007142Y007454D02*
X007142Y006829D01*
X007267Y006704D01*
X008642Y006704D01*
X008642Y007454D01*
X007142Y007454D01*
X007267Y007517D02*
X007142Y007642D01*
X007142Y008267D01*
X008642Y008267D01*
X008642Y007517D01*
X007267Y007517D01*
X007267Y008329D02*
X007142Y008454D01*
X007142Y009079D01*
X008642Y009079D01*
X008642Y008329D01*
X007267Y008329D01*
X007267Y009142D02*
X007142Y009267D01*
X007142Y009892D01*
X008642Y009892D01*
X008642Y009142D01*
X007267Y009142D01*
X007267Y009954D02*
X007142Y010079D01*
X007142Y010704D01*
X008642Y010704D01*
X008642Y009954D01*
X007267Y009954D01*
X007142Y006642D02*
X008642Y006642D01*
X008642Y005892D01*
X007267Y005892D01*
X007142Y006017D01*
X007142Y006642D01*
X007142Y005829D02*
X008642Y005829D01*
X008642Y005079D01*
X007267Y005079D01*
X007142Y005204D01*
X007142Y005829D01*
X007142Y005079D02*
X008642Y005079D01*
X008642Y004329D01*
X008642Y003579D01*
X007267Y003579D01*
X007142Y003704D01*
X007142Y004329D01*
X008642Y004329D01*
X007267Y004329D01*
X007142Y004454D01*
X007142Y005079D01*
X007142Y003579D02*
X008642Y003579D01*
X008642Y002829D01*
X007267Y002829D01*
X007142Y002954D01*
X007142Y003579D01*
D12*
X006962Y003807D02*
X007102Y003947D01*
X006962Y004087D01*
X006681Y004087D01*
X006751Y004267D02*
X007032Y004267D01*
X007102Y004337D01*
X007102Y004477D01*
X007032Y004547D01*
X006751Y004547D01*
X006681Y004477D01*
X006681Y004337D01*
X006751Y004267D01*
X006681Y003807D02*
X006962Y003807D01*
X006891Y004727D02*
X007032Y004727D01*
X007102Y004798D01*
X007102Y004938D01*
X007032Y005008D01*
X006962Y005008D01*
X006891Y004938D01*
X006891Y004727D01*
X006751Y004868D01*
X006681Y005008D01*
X006759Y005544D02*
X006759Y005614D01*
X007039Y005894D01*
X007039Y005965D01*
X006759Y005965D01*
X006579Y005894D02*
X006509Y005965D01*
X006368Y005965D01*
X006298Y005894D01*
X006298Y005614D01*
X006368Y005544D01*
X006509Y005544D01*
X006579Y005614D01*
X006579Y005894D01*
X006118Y005965D02*
X006118Y005684D01*
X005978Y005544D01*
X005838Y005684D01*
X005838Y005965D01*
X005414Y005894D02*
X005414Y005824D01*
X005344Y005754D01*
X005204Y005754D01*
X005134Y005824D01*
X005134Y005894D01*
X005204Y005965D01*
X005344Y005965D01*
X005414Y005894D01*
X005344Y005754D02*
X005414Y005684D01*
X005414Y005614D01*
X005344Y005544D01*
X005204Y005544D01*
X005134Y005614D01*
X005134Y005684D01*
X005204Y005754D01*
X004954Y005614D02*
X004954Y005894D01*
X004884Y005965D01*
X004743Y005965D01*
X004673Y005894D01*
X004673Y005614D01*
X004743Y005544D01*
X004884Y005544D01*
X004954Y005614D01*
X004602Y005252D02*
X004602Y004971D01*
X004602Y005111D02*
X004181Y005111D01*
X004321Y004971D01*
X004251Y004791D02*
X004181Y004721D01*
X004181Y004581D01*
X004251Y004511D01*
X004532Y004511D01*
X004602Y004581D01*
X004602Y004721D01*
X004532Y004791D01*
X004251Y004791D01*
X004181Y004331D02*
X004462Y004331D01*
X004602Y004191D01*
X004462Y004050D01*
X004181Y004050D01*
X004181Y003854D02*
X004602Y003854D01*
X004181Y003574D01*
X004602Y003574D01*
X004602Y003407D02*
X004602Y003267D01*
X004602Y003337D02*
X004181Y003337D01*
X004181Y003267D02*
X004181Y003407D01*
X004181Y003087D02*
X004462Y003087D01*
X004602Y002947D01*
X004462Y002807D01*
X004181Y002807D01*
X004353Y005544D02*
X004493Y005684D01*
X004493Y005965D01*
X004213Y005965D02*
X004213Y005684D01*
X004353Y005544D01*
X004474Y007525D02*
X004194Y007525D01*
X004474Y007525D02*
X004614Y007666D01*
X004474Y007806D01*
X004194Y007806D01*
X004264Y007986D02*
X004194Y008056D01*
X004194Y008196D01*
X004264Y008266D01*
X004544Y008266D01*
X004614Y008196D01*
X004614Y008056D01*
X004544Y007986D01*
X004264Y007986D01*
X004264Y008446D02*
X004194Y008516D01*
X004194Y008656D01*
X004264Y008727D01*
X004334Y008727D01*
X004614Y008446D01*
X004614Y008727D01*
X004484Y009136D02*
X004204Y009136D01*
X004204Y009416D02*
X004484Y009416D01*
X004625Y009276D01*
X004484Y009136D01*
X004554Y009596D02*
X004274Y009596D01*
X004204Y009666D01*
X004204Y009806D01*
X004274Y009876D01*
X004554Y009876D01*
X004625Y009806D01*
X004625Y009666D01*
X004554Y009596D01*
X004554Y010057D02*
X004625Y010127D01*
X004625Y010267D01*
X004554Y010337D01*
X004484Y010337D01*
X004414Y010267D01*
X004414Y010197D01*
X004414Y010267D02*
X004344Y010337D01*
X004274Y010337D01*
X004204Y010267D01*
X004204Y010127D01*
X004274Y010057D01*
X006681Y009915D02*
X006681Y009775D01*
X006751Y009705D01*
X007032Y009705D01*
X007102Y009775D01*
X007102Y009915D01*
X007032Y009985D01*
X006751Y009985D01*
X006681Y009915D01*
X006891Y010165D02*
X006891Y010445D01*
X006681Y010375D02*
X006891Y010165D01*
X006681Y010375D02*
X007102Y010375D01*
X006962Y009524D02*
X006681Y009524D01*
X006681Y009244D02*
X006962Y009244D01*
X007102Y009384D01*
X006962Y009524D01*
X007019Y008845D02*
X006879Y008845D01*
X006809Y008775D01*
X006809Y008705D01*
X006879Y008565D01*
X006669Y008565D01*
X006669Y008845D01*
X007019Y008845D02*
X007089Y008775D01*
X007089Y008635D01*
X007019Y008565D01*
X007019Y008385D02*
X006739Y008385D01*
X006669Y008315D01*
X006669Y008175D01*
X006739Y008105D01*
X007019Y008105D01*
X007089Y008175D01*
X007089Y008315D01*
X007019Y008385D01*
X006949Y007924D02*
X006669Y007924D01*
X006669Y007644D02*
X006949Y007644D01*
X007089Y007784D01*
X006949Y007924D01*
M02*
