G75*
G70*
%OFA0B0*%
%FSLAX24Y24*%
%IPPOS*%
%LPD*%
%AMOC8*
5,1,8,0,0,1.08239X$1,22.5*
%
%ADD10C,0.0100*%
%ADD11C,0.0520*%
%ADD12C,0.0740*%
%ADD13OC8,0.0520*%
%ADD14C,0.0160*%
D10*
X000151Y000151D02*
X000151Y019647D01*
X015146Y019647D01*
X015146Y000151D01*
X000151Y000151D01*
D11*
X005401Y008401D03*
X006401Y008401D03*
X007401Y008401D03*
X008401Y008401D03*
X009401Y008401D03*
X010401Y008401D03*
X011401Y008401D03*
X012401Y008401D03*
X013401Y008401D03*
X014401Y008401D03*
X014401Y010401D03*
X013401Y010401D03*
X012401Y010401D03*
X011401Y010401D03*
X010401Y010401D03*
X009401Y010401D03*
X008401Y010401D03*
X007401Y010401D03*
X006401Y010401D03*
X005401Y010401D03*
X005401Y012401D03*
X006401Y012401D03*
X007401Y012401D03*
X008401Y012401D03*
X009401Y012401D03*
X010401Y012401D03*
X011401Y012401D03*
X012401Y012401D03*
X013401Y012401D03*
X014401Y012401D03*
X014401Y014401D03*
X013401Y014401D03*
X012401Y014401D03*
X011401Y014401D03*
X010401Y014401D03*
X009401Y014401D03*
X008401Y014401D03*
X007401Y014401D03*
X006401Y014401D03*
X005401Y014401D03*
X005401Y016401D03*
X006401Y016401D03*
X007401Y016401D03*
X008401Y016401D03*
X009401Y016401D03*
X010401Y016401D03*
X011401Y016401D03*
X012401Y016401D03*
X013401Y016401D03*
X014401Y016401D03*
X014401Y018401D03*
X013401Y018401D03*
X012401Y018401D03*
X011401Y018401D03*
X010401Y018401D03*
X009401Y018401D03*
X008401Y018401D03*
X007401Y018401D03*
X006401Y018401D03*
X005401Y018401D03*
D12*
X005151Y002401D03*
X006151Y002401D03*
X007151Y002401D03*
X008151Y002401D03*
X009151Y002401D03*
X010151Y002401D03*
X011151Y002401D03*
D13*
X010651Y003651D03*
X010651Y004651D03*
X011401Y005651D03*
X010651Y006151D03*
X011401Y006651D03*
X012651Y006151D03*
X013401Y005651D03*
X013401Y006651D03*
X012651Y004651D03*
X012651Y003651D03*
X009401Y005651D03*
X008651Y006151D03*
X009401Y006651D03*
X008651Y004651D03*
X008651Y003651D03*
X007401Y005651D03*
X006651Y006151D03*
X007401Y006651D03*
X006651Y004651D03*
X006651Y003651D03*
X005401Y005651D03*
X004651Y006151D03*
X005401Y006651D03*
X004651Y004651D03*
X004651Y003651D03*
X003401Y005651D03*
X002651Y006151D03*
X003401Y006651D03*
X003401Y008401D03*
X002401Y008401D03*
X002401Y010401D03*
X003401Y010401D03*
X003401Y012401D03*
X002401Y012401D03*
X002401Y014401D03*
X003401Y014401D03*
X003401Y016401D03*
X002401Y016401D03*
X002401Y018401D03*
X003401Y018401D03*
X002651Y004651D03*
X002651Y003651D03*
D14*
X003901Y002401D01*
X005151Y002401D01*
X005776Y001776D02*
X006151Y002151D01*
X006151Y002401D01*
X004901Y003651D01*
X004651Y003651D01*
X004651Y004651D02*
X004651Y006151D01*
X005401Y006651D02*
X005401Y008401D01*
X005901Y008901D01*
X005901Y010901D01*
X007401Y012401D01*
X007401Y014401D01*
X007401Y016401D01*
X007401Y018401D01*
X005401Y018401D02*
X005401Y016401D01*
X005401Y014401D01*
X005401Y012401D01*
X005401Y010401D01*
X005401Y009401D01*
X003401Y007401D01*
X003401Y006651D01*
X002651Y006151D02*
X002651Y004651D01*
X002151Y004151D02*
X002651Y003651D01*
X002151Y004151D02*
X002151Y008151D01*
X002401Y008401D01*
X001776Y009776D02*
X001776Y003901D01*
X003901Y001776D01*
X005776Y001776D01*
X006401Y001526D02*
X007151Y002276D01*
X007151Y002401D01*
X007151Y003151D01*
X006651Y003651D01*
X006651Y004651D02*
X006651Y006151D01*
X007401Y006651D02*
X007401Y008401D01*
X007401Y010401D01*
X007901Y010901D01*
X007901Y012901D01*
X009401Y014401D01*
X009401Y016401D01*
X009401Y018401D01*
X011401Y018401D02*
X011401Y016401D01*
X009901Y014901D01*
X009901Y012901D01*
X009401Y012401D01*
X009401Y010401D01*
X009401Y008401D01*
X009401Y006651D01*
X008651Y006151D02*
X008651Y004651D01*
X008651Y003651D02*
X008151Y003151D01*
X008151Y002401D01*
X007026Y001276D01*
X003651Y001276D01*
X001276Y003651D01*
X001276Y013276D01*
X002401Y014401D01*
X001026Y015026D02*
X001026Y003526D01*
X003526Y001026D01*
X007776Y001026D01*
X009151Y002401D01*
X010401Y003651D01*
X010651Y003651D01*
X011401Y003651D02*
X012651Y003651D01*
X013401Y003651D02*
X013401Y005651D01*
X012651Y006151D02*
X012651Y004651D01*
X013401Y003651D02*
X012151Y002401D01*
X011151Y002401D01*
X010151Y002401D02*
X011401Y003651D01*
X010651Y004651D02*
X010651Y006151D01*
X011401Y006651D02*
X011401Y008401D01*
X011401Y010401D01*
X011401Y012401D01*
X011401Y014401D01*
X011901Y014901D01*
X011901Y016901D01*
X013401Y018401D01*
X013401Y016401D02*
X013401Y014401D01*
X013401Y012401D01*
X013401Y010401D01*
X013401Y008401D01*
X013401Y006651D01*
X010151Y002401D02*
X008526Y000776D01*
X003401Y000776D01*
X000776Y003401D01*
X000776Y016776D01*
X002401Y018401D01*
X002401Y016401D02*
X001026Y015026D01*
X002401Y012401D02*
X001526Y011526D01*
X001526Y003776D01*
X003776Y001526D01*
X006401Y001526D01*
X001776Y009776D02*
X002401Y010401D01*
M02*
