%
T01C0.021650
X2562Y2000
X3000Y1937
X3375Y2312
X3062Y2750
X2500Y3437
X2500Y4062
X3625Y4437
X4250Y4625
X3625Y3625
X4500Y2937
X4875Y2937
X6812Y3062
X6812Y2437
X6812Y5437
X6812Y6062
X6812Y8437
X6812Y9062
X2500Y7062
X2500Y6437
X2000Y5750
X1625Y8437
X1625Y9062
X2000Y2750
X10125Y1812
X10750Y2312
X11375Y2312
X11937Y3375
X11937Y4000
X11437Y4500
X11937Y5750
X11937Y6375
X11437Y6875
X11562Y7625
X11062Y8562
X10437Y9062
X10125Y8562
X9812Y9062
X12562Y9062
X13187Y9062
X13187Y1437
X12562Y1437
X16375Y1812
X16875Y2312
X17500Y2312
X16937Y3437
X16937Y4062
X16437Y4562
X16937Y5875
X16937Y6500
X16437Y7000
X16937Y8312
X16937Y8937
X19312Y2375
X19937Y2375
X18812Y1812
X20937Y1437
X21250Y1812
X21562Y1437
X23250Y1500
X23250Y2250
X24562Y1375
X25187Y1375
X26875Y2000
X27687Y1750
X28125Y2250
X28187Y3937
X28687Y4437
X28687Y5062
X28187Y6375
X28812Y7250
X28500Y7812
X26437Y8312
X26187Y9125
X25562Y9125
X24187Y7750
X24187Y7125
X23687Y8562
X23687Y5187
X24187Y4375
X24187Y3750
X1625Y10625
X1625Y11250
X2375Y12625
X2375Y13250
X1937Y13937
X2375Y15625
X2375Y16250
X1937Y16937
X2937Y17937
X3312Y17937
X4625Y17187
X5000Y17187
X5500Y17187
X6437Y15937
X6875Y16625
X6875Y17250
X4250Y15625
X3625Y15687
X3625Y16500
X6875Y14250
X6875Y13625
X6437Y12937
X6875Y11250
X6875Y10625
X10125Y10625
X10500Y10625
X10625Y12062
X10312Y12062
X9312Y13750
X8562Y13187
X8562Y12687
X8562Y15000
X8562Y15500
X9312Y16000
X9437Y17750
X10000Y18125
X10812Y17812
X12500Y18312
X12875Y18312
X13062Y17500
X14437Y16312
X14437Y15750
X13687Y15250
X14437Y13937
X14437Y13562
X13687Y13000
X13562Y11125
X13000Y10812
X12187Y11187
X16625Y11250
X17187Y10937
X17625Y11250
X18250Y11562
X19562Y11062
X20062Y11437
X20562Y11875
X21062Y13250
X20562Y13750
X20562Y14375
X21062Y15687
X20562Y16187
X20562Y16812
X21062Y18125
X16937Y18437
X16937Y17812
X16437Y16500
X16937Y16000
X16937Y15375
X16437Y14062
X16937Y13562
X16750Y12937
X23125Y11937
X23125Y12687
X25187Y11375
X25562Y11375
X26062Y11062
X28187Y12375
X28500Y11812
X28500Y11500
X28562Y13625
X28562Y14000
X27125Y14500
X25437Y14812
X25437Y14187
X24125Y15125
X24437Y16375
X24437Y16687
X24250Y17375
X25750Y18437
X26375Y18437
X27062Y17937
X28687Y17000
X28687Y16375
X30812Y11562
X31437Y11562
X30875Y12250
X31750Y13562
X31750Y13937
X30875Y15250
X31750Y16562
X31750Y16937
X31000Y17750
X32500Y18312
X33062Y18312
X33625Y17750
X35062Y18312
X35687Y18312
X33562Y14812
X33562Y14187
X33437Y11500
X34062Y11500
X35187Y10687
X35812Y10687
X32875Y11000
X2562Y20500
X3000Y20437
X3375Y20812
X3062Y21250
X2500Y21937
X2500Y22562
X3625Y22937
X4250Y23125
X3625Y22125
X4500Y21437
X4875Y21437
X6812Y21562
X6812Y20937
X6812Y23937
X6812Y24562
X6812Y26937
X6812Y27562
X2500Y25562
X2500Y24937
X2000Y24250
X1625Y26937
X1625Y27562
X2000Y21250
X10125Y20312
X10750Y20812
X11375Y20812
X11937Y21875
X11937Y22500
X11437Y23000
X11937Y24250
X11937Y24875
X11437Y25375
X11562Y26125
X11062Y27062
X10437Y27562
X10125Y27062
X9812Y27562
X12562Y27562
X13187Y27562
X13187Y19937
X12562Y19937
X16375Y20312
X16875Y20812
X17500Y20812
X16937Y21937
X16937Y22562
X16437Y23062
X16937Y24375
X16937Y25000
X16437Y25500
X16937Y26812
X16937Y27437
X19312Y20875
X19937Y20875
X18812Y20312
X20937Y19937
X21250Y20312
X21562Y19937
X23250Y20000
X23250Y20750
X24562Y19875
X25187Y19875
X26875Y20500
X27687Y20250
X28125Y20750
X28187Y22437
X28687Y22937
X28687Y23562
X28187Y24875
X28812Y25750
X28500Y26312
X26437Y26812
X26187Y27625
X25562Y27625
X24187Y26250
X24187Y25625
X23687Y27062
X23687Y23687
X24187Y22875
X24187Y22250
X1625Y29125
X1625Y29750
X2375Y31125
X2375Y31750
X1937Y32437
X2375Y34125
X2375Y34750
X1937Y35437
X2937Y36437
X3312Y36437
X4625Y35687
X5000Y35687
X5500Y35687
X6437Y34437
X6875Y35125
X6875Y35750
X4250Y34125
X3625Y34187
X3625Y35000
X6875Y32750
X6875Y32125
X6437Y31437
X6875Y29750
X6875Y29125
X10125Y29125
X10500Y29125
X10625Y30562
X10312Y30562
X9312Y32250
X8562Y31687
X8562Y31187
X8562Y33500
X8562Y34000
X9312Y34500
X9437Y36250
X10000Y36625
X10812Y36312
X12500Y36812
X12875Y36812
X13062Y36000
X14437Y34812
X14437Y34250
X13687Y33750
X14437Y32437
X14437Y32062
X13687Y31500
X13562Y29625
X13000Y29312
X12187Y29687
X16625Y29750
X17187Y29437
X17625Y29750
X18250Y30062
X19562Y29562
X20062Y29937
X20562Y30375
X21062Y31750
X20562Y32250
X20562Y32875
X21062Y34187
X20562Y34687
X20562Y35312
X21062Y36625
X16937Y36937
X16937Y36312
X16437Y35000
X16937Y34500
X16937Y33875
X16437Y32562
X16937Y32062
X16750Y31437
X23125Y30437
X23125Y31187
X25187Y29875
X25562Y29875
X26062Y29562
X28187Y30875
X28500Y30312
X28500Y30000
X28562Y32125
X28562Y32500
X27125Y33000
X25437Y33312
X25437Y32687
X24125Y33625
X24437Y34875
X24437Y35187
X24250Y35875
X25750Y36937
X26375Y36937
X27062Y36437
X28687Y35500
X28687Y34875
X30812Y30062
X31437Y30062
X30875Y30750
X31750Y32062
X31750Y32437
X30875Y33750
X31750Y35062
X31750Y35437
X31000Y36250
X32500Y36812
X33062Y36812
X33625Y36250
X35062Y36812
X35687Y36812
X33562Y33312
X33562Y32687
X33437Y30000
X34062Y30000
X35187Y29187
X35812Y29187
X32875Y29500
M30
