G75*
G70*
%OFA0B0*%
%FSLAX25Y25*%
%IPPOS*%
%LPD*%
%AMOC8*
5,1,8,0,0,1.08239X$1,22.5*
%
%ADD11C,0.01000*%
%ADD13C,0.00400*%
%ADD15C,0.00800*%
%ADD17C,0.00000*%
X0010000Y0010000D02*
G75*
%LPD*%
D17*
X0010000Y0010000D02*
X0010000Y0095000D01*
X0075000Y0095000D01*
X0075000Y0010000D01*
X0010000Y0010000D01*
D11*
X0012500Y0020500D02*
X0012500Y0085210D01*
X0012520Y0085730D01*
X0012570Y0086250D01*
X0012670Y0086760D01*
X0012800Y0087260D01*
X0012960Y0087760D01*
X0013160Y0088240D01*
X0013390Y0088700D01*
X0013660Y0089150D01*
X0013950Y0089580D01*
X0014280Y0089980D01*
X0014640Y0090360D01*
X0015020Y0090720D01*
X0015420Y0091050D01*
X0015850Y0091340D01*
X0016300Y0091610D01*
X0016760Y0091840D01*
X0017240Y0092040D01*
X0017740Y0092200D01*
X0018240Y0092330D01*
X0018750Y0092430D01*
X0019270Y0092480D01*
X0019790Y0092500D01*
X0022930Y0092500D01*
X0023430Y0092480D01*
X0023940Y0092430D01*
X0024430Y0092340D01*
X0024920Y0092210D01*
X0025400Y0092050D01*
X0025870Y0091860D01*
X0026320Y0091640D01*
X0026750Y0091380D01*
X0027170Y0091090D01*
X0027560Y0090770D01*
X0027930Y0090430D01*
X0028270Y0090060D01*
X0028590Y0089670D01*
X0028880Y0089250D01*
X0029140Y0088820D01*
X0029360Y0088370D01*
X0029550Y0087900D01*
X0029710Y0087420D01*
X0029840Y0086930D01*
X0029930Y0086440D01*
X0029980Y0085930D01*
X0030000Y0085430D01*
X0030000Y0051250D01*
X0029990Y0051250D02*
X0030010Y0050890D01*
X0030070Y0050530D01*
X0030160Y0050190D01*
X0030290Y0049850D01*
X0030460Y0049530D01*
X0030660Y0049230D01*
X0030890Y0048950D01*
X0031150Y0048700D01*
X0031440Y0048480D01*
X0031740Y0048290D01*
X0032070Y0048140D01*
X0032410Y0048020D01*
X0032760Y0047930D01*
X0033120Y0047890D01*
X0033480Y0047880D01*
X0033840Y0047910D01*
X0034190Y0047980D01*
X0034540Y0048090D01*
X0034870Y0048240D01*
X0035180Y0048410D01*
X0035470Y0048630D01*
X0035740Y0048870D01*
X0041170Y0054300D01*
X0041370Y0054480D01*
X0041600Y0054620D01*
X0041840Y0054730D01*
X0042100Y0054810D01*
X0042370Y0054850D01*
X0042630Y0054850D01*
X0042900Y0054810D01*
X0043160Y0054730D01*
X0043400Y0054620D01*
X0043630Y0054480D01*
X0043830Y0054300D01*
X0043820Y0054300D02*
X0049970Y0048150D01*
X0050190Y0047940D01*
X0050440Y0047770D01*
X0050710Y0047630D01*
X0050990Y0047520D01*
X0051290Y0047440D01*
X0051590Y0047400D01*
X0051890Y0047390D01*
X0052190Y0047420D01*
X0052490Y0047490D01*
X0052780Y0047590D01*
X0053050Y0047720D01*
X0053310Y0047880D01*
X0053540Y0048080D01*
X0053750Y0048290D01*
X0053940Y0048540D01*
X0054090Y0048800D01*
X0054210Y0049080D01*
X0054300Y0049370D01*
X0054350Y0049670D01*
X0054370Y0049970D01*
X0054370Y0084090D01*
X0054390Y0084640D01*
X0054440Y0085190D01*
X0054530Y0085730D01*
X0054660Y0086270D01*
X0054820Y0086790D01*
X0055010Y0087310D01*
X0055240Y0087810D01*
X0055500Y0088300D01*
X0055790Y0088760D01*
X0056110Y0089210D01*
X0056460Y0089640D01*
X0056830Y0090040D01*
X0057230Y0090410D01*
X0057660Y0090760D01*
X0058110Y0091080D01*
X0058580Y0091370D01*
X0059060Y0091630D01*
X0059560Y0091860D01*
X0060080Y0092050D01*
X0060600Y0092210D01*
X0061140Y0092340D01*
X0061680Y0092430D01*
X0062230Y0092480D01*
X0062780Y0092500D01*
X0063460Y0092500D01*
X0064010Y0092480D01*
X0064560Y0092430D01*
X0065100Y0092340D01*
X0065640Y0092210D01*
X0066160Y0092050D01*
X0066680Y0091860D01*
X0067180Y0091630D01*
X0067670Y0091370D01*
X0068130Y0091080D01*
X0068580Y0090760D01*
X0069010Y0090410D01*
X0069410Y0090040D01*
X0069780Y0089640D01*
X0070130Y0089210D01*
X0070450Y0088760D01*
X0070740Y0088300D01*
X0071000Y0087810D01*
X0071230Y0087310D01*
X0071420Y0086790D01*
X0071580Y0086270D01*
X0071710Y0085730D01*
X0071800Y0085190D01*
X0071850Y0084640D01*
X0071870Y0084090D01*
X0071870Y0020230D01*
X0071850Y0019680D01*
X0071790Y0019130D01*
X0071690Y0018590D01*
X0071560Y0018050D01*
X0071380Y0017530D01*
X0071170Y0017020D01*
X0070920Y0016530D01*
X0070640Y0016050D01*
X0070330Y0015600D01*
X0069980Y0015170D01*
X0069610Y0014760D01*
X0069200Y0014390D01*
X0068770Y0014040D01*
X0068320Y0013730D01*
X0067840Y0013450D01*
X0067350Y0013200D01*
X0066840Y0012990D01*
X0066320Y0012810D01*
X0065780Y0012680D01*
X0065240Y0012580D01*
X0064690Y0012520D01*
X0064140Y0012500D01*
X0061390Y0012500D01*
X0057940Y0013930D02*
X0042680Y0029190D01*
X0042690Y0029200D02*
X0042590Y0029270D01*
X0042480Y0029330D01*
X0042360Y0029370D01*
X0042240Y0029380D01*
X0041610Y0029110D02*
X0026830Y0014330D01*
X0022410Y0012500D02*
X0020500Y0012500D01*
X0022410Y0012500D02*
X0022900Y0012520D01*
X0023390Y0012580D01*
X0023870Y0012670D01*
X0024340Y0012810D01*
X0024800Y0012980D01*
X0025250Y0013180D01*
X0025680Y0013420D01*
X0026080Y0013690D01*
X0026470Y0014000D01*
X0026830Y0014330D01*
X0020500Y0012500D02*
X0019950Y0012520D01*
X0019410Y0012570D01*
X0018870Y0012670D01*
X0018340Y0012800D01*
X0017820Y0012960D01*
X0017310Y0013160D01*
X0016820Y0013400D01*
X0016340Y0013660D01*
X0015890Y0013960D01*
X0015450Y0014290D01*
X0015040Y0014650D01*
X0014650Y0015040D01*
X0014290Y0015450D01*
X0013960Y0015890D01*
X0013660Y0016340D01*
X0013400Y0016820D01*
X0013160Y0017310D01*
X0012960Y0017820D01*
X0012800Y0018340D01*
X0012670Y0018870D01*
X0012570Y0019410D01*
X0012520Y0019950D01*
X0012500Y0020500D01*
X0041620Y0029110D02*
X0041750Y0029220D01*
X0041900Y0029300D01*
X0042070Y0029350D01*
X0042240Y0029370D01*
X0057940Y0013930D02*
X0058250Y0013640D01*
X0058590Y0013380D01*
X0058950Y0013150D01*
X0059330Y0012960D01*
X0059720Y0012790D01*
X0060130Y0012670D01*
X0060540Y0012570D01*
X0060960Y0012520D01*
X0061390Y0012500D01*
D13*
X0056250Y0013750D02*
X0056250Y0021250D01*
X0070000Y0021250D01*
X0071250Y0020000D01*
X0071250Y0013750D01*
X0056250Y0013750D01*
X0056250Y0019370D02*
X0057500Y0020620D01*
X0057500Y0034370D01*
X0050000Y0034370D01*
X0050000Y0019370D01*
X0056250Y0019370D01*
X0056250Y0023750D02*
X0056250Y0031250D01*
X0070000Y0031250D01*
X0071250Y0030000D01*
X0071250Y0023750D01*
X0056250Y0023750D01*
X0050620Y0029370D02*
X0051870Y0030620D01*
X0051870Y0044370D01*
X0044370Y0044370D01*
X0044370Y0029370D01*
X0050620Y0029370D01*
X0056250Y0033750D02*
X0056250Y0041250D01*
X0070000Y0041250D01*
X0071250Y0040000D01*
X0071250Y0033750D01*
X0056250Y0033750D01*
X0056250Y0043750D02*
X0056250Y0051250D01*
X0070000Y0051250D01*
X0071250Y0050000D01*
X0071250Y0043750D01*
X0056250Y0043750D01*
X0056250Y0053750D02*
X0056250Y0061250D01*
X0070000Y0061250D01*
X0071250Y0060000D01*
X0071250Y0053750D01*
X0056250Y0053750D01*
X0056250Y0063750D02*
X0056250Y0071250D01*
X0070000Y0071250D01*
X0071250Y0070000D01*
X0071250Y0063750D01*
X0056250Y0063750D01*
X0056250Y0073750D02*
X0056250Y0081250D01*
X0070000Y0081250D01*
X0071250Y0080000D01*
X0071250Y0073750D01*
X0056250Y0073750D01*
X0056250Y0083750D02*
X0056250Y0091250D01*
X0070000Y0091250D01*
X0071250Y0090000D01*
X0071250Y0083750D01*
X0056250Y0083750D01*
X0046250Y0053120D02*
X0038750Y0053120D01*
X0038750Y0038120D01*
X0045000Y0038120D01*
X0046250Y0039370D01*
X0046250Y0053120D01*
X0040000Y0044370D02*
X0040000Y0030620D01*
X0038750Y0029370D01*
X0032500Y0029370D01*
X0032500Y0044370D01*
X0040000Y0044370D01*
X0034370Y0034370D02*
X0034370Y0020620D01*
X0033120Y0019370D01*
X0026870Y0019370D01*
X0026870Y0034370D01*
X0034370Y0034370D01*
X0028120Y0033750D02*
X0013120Y0033750D01*
X0013120Y0041250D01*
X0026870Y0041250D01*
X0028120Y0040000D01*
X0028120Y0033750D01*
X0026870Y0031250D02*
X0028120Y0030000D01*
X0028120Y0023750D01*
X0013120Y0023750D01*
X0013120Y0031250D01*
X0026870Y0031250D01*
X0026870Y0021250D02*
X0028120Y0020000D01*
X0028120Y0013750D01*
X0013120Y0013750D01*
X0013120Y0021250D01*
X0026870Y0021250D01*
X0028120Y0043750D02*
X0013120Y0043750D01*
X0013120Y0051250D01*
X0026870Y0051250D01*
X0028120Y0050000D01*
X0028120Y0043750D01*
X0028120Y0053750D02*
X0013120Y0053750D01*
X0013120Y0061250D01*
X0026870Y0061250D01*
X0028120Y0060000D01*
X0028120Y0053750D01*
X0028120Y0063750D02*
X0013120Y0063750D01*
X0013120Y0071250D01*
X0026870Y0071250D01*
X0028120Y0070000D01*
X0028120Y0063750D01*
X0028120Y0073750D02*
X0013120Y0073750D01*
X0013120Y0081250D01*
X0026870Y0081250D01*
X0028120Y0080000D01*
X0028120Y0073750D01*
X0028120Y0083750D02*
X0013120Y0083750D01*
X0013120Y0091250D01*
X0026870Y0091250D01*
X0028120Y0090000D01*
X0028120Y0083750D01*
D15*
X0030520Y0083720D02*
X0030520Y0085120D01*
X0030520Y0084420D02*
X0034720Y0084420D01*
X0034720Y0083720D02*
X0034720Y0085120D01*
X0034720Y0086790D02*
X0030520Y0086790D01*
X0034720Y0089600D01*
X0030520Y0089600D01*
X0030520Y0081920D02*
X0033320Y0081920D01*
X0034720Y0080520D01*
X0033320Y0079120D01*
X0030520Y0079120D01*
X0034720Y0073350D02*
X0034720Y0070540D01*
X0034720Y0071940D02*
X0030520Y0071940D01*
X0031920Y0070540D01*
X0031220Y0068740D02*
X0030520Y0068040D01*
X0030520Y0066640D01*
X0031220Y0065940D01*
X0034020Y0065940D01*
X0034720Y0066640D01*
X0034720Y0068040D01*
X0034020Y0068740D01*
X0031220Y0068740D01*
X0030520Y0064140D02*
X0033320Y0064140D01*
X0034720Y0062740D01*
X0033320Y0061330D01*
X0030520Y0061330D01*
X0029420Y0047720D02*
X0028720Y0047720D01*
X0028020Y0047020D01*
X0028020Y0045620D01*
X0028720Y0044920D01*
X0028720Y0043120D02*
X0028020Y0042420D01*
X0028020Y0041010D01*
X0028720Y0040310D01*
X0031520Y0040310D01*
X0032220Y0041010D01*
X0032220Y0042420D01*
X0031520Y0043120D01*
X0028720Y0043120D01*
X0032220Y0044920D02*
X0029420Y0047720D01*
X0032220Y0047720D02*
X0032220Y0044920D01*
X0030820Y0038510D02*
X0028020Y0038510D01*
X0028020Y0035710D02*
X0030820Y0035710D01*
X0032220Y0037110D01*
X0030820Y0038510D01*
X0037170Y0023860D02*
X0038160Y0023860D01*
X0038650Y0023360D01*
X0038650Y0022370D01*
X0039640Y0022370D01*
X0040140Y0021870D01*
X0040140Y0020880D01*
X0039150Y0019890D01*
X0038160Y0019890D01*
X0036880Y0018620D02*
X0034900Y0020600D01*
X0033910Y0020600D01*
X0032920Y0019610D01*
X0032920Y0018620D01*
X0034900Y0016640D01*
X0035890Y0016640D01*
X0036880Y0017630D01*
X0036880Y0018620D01*
X0036180Y0021870D02*
X0036180Y0022860D01*
X0037170Y0023860D01*
X0038650Y0022370D02*
X0038160Y0021870D01*
X0043070Y0022670D02*
X0045050Y0022670D01*
X0047030Y0024650D01*
X0047810Y0022880D02*
X0045830Y0020900D01*
X0045830Y0019910D01*
X0046820Y0018920D01*
X0047810Y0018920D01*
X0049790Y0020900D01*
X0049790Y0021890D01*
X0048800Y0022880D01*
X0047810Y0022880D01*
X0045050Y0026630D02*
X0043070Y0024650D01*
X0043070Y0022670D01*
X0050070Y0018630D02*
X0052060Y0016650D01*
X0053050Y0018630D02*
X0050070Y0018630D01*
X0050070Y0015660D02*
X0053050Y0018630D01*
X0052140Y0035020D02*
X0054950Y0035020D01*
X0056350Y0036420D01*
X0054950Y0037820D01*
X0052140Y0037820D01*
X0052840Y0039630D02*
X0055650Y0039630D01*
X0056350Y0040330D01*
X0056350Y0041730D01*
X0055650Y0042430D01*
X0052840Y0042430D01*
X0052140Y0041730D01*
X0052140Y0040330D01*
X0052840Y0039630D01*
X0052140Y0044230D02*
X0054240Y0044230D01*
X0053540Y0045630D01*
X0053540Y0046330D01*
X0054240Y0047030D01*
X0055650Y0047030D01*
X0056350Y0046330D01*
X0056350Y0044930D01*
X0055650Y0044230D01*
X0052140Y0044230D02*
X0052140Y0047030D01*
X0053070Y0052520D02*
X0050270Y0052520D01*
X0053070Y0052520D02*
X0054470Y0053920D01*
X0053070Y0055320D01*
X0050270Y0055320D01*
X0050970Y0057130D02*
X0050270Y0057830D01*
X0050270Y0059230D01*
X0050970Y0059930D01*
X0053770Y0059930D01*
X0054470Y0059230D01*
X0054470Y0057830D01*
X0053770Y0057130D01*
X0050970Y0057130D01*
X0052370Y0061730D02*
X0052370Y0063830D01*
X0053070Y0064530D01*
X0053770Y0064530D01*
X0054470Y0063830D01*
X0054470Y0062430D01*
X0053770Y0061730D01*
X0052370Y0061730D01*
X0050970Y0063130D01*
X0050270Y0064530D01*
X0049020Y0077520D02*
X0051820Y0077520D01*
X0053220Y0078920D01*
X0051820Y0080320D01*
X0049020Y0080320D01*
X0049720Y0082130D02*
X0052520Y0082130D01*
X0053220Y0082830D01*
X0053220Y0084230D01*
X0052520Y0084930D01*
X0049720Y0084930D01*
X0049020Y0084230D01*
X0049020Y0082830D01*
X0049720Y0082130D01*
X0049020Y0086730D02*
X0049020Y0089530D01*
X0049720Y0089530D01*
X0052520Y0086730D01*
X0053220Y0086730D01*
X0031150Y0017840D02*
X0033130Y0015860D01*
X0033130Y0013880D01*
X0031150Y0013880D01*
X0029170Y0015860D01*
D15*
X0010400Y0010400D02*
X0010400Y0095400D01*
X0010400Y0095400D02*
X0075400Y0095400D01*
X0075400Y0010400D01*
X0010400Y0010400D01*
X0082500Y0010000D02*
G75*
%LPD*%
D17*
X0082500Y0010000D02*
X0082500Y0095000D01*
X0147500Y0095000D01*
X0147500Y0010000D01*
X0082500Y0010000D01*
D11*
X0097500Y0013010D02*
X0097500Y0024480D01*
X0097490Y0024480D02*
X0097510Y0024730D01*
X0097560Y0024980D01*
X0097650Y0025220D01*
X0097770Y0025440D01*
X0097920Y0025640D01*
X0098100Y0025820D01*
X0098300Y0025970D01*
X0098520Y0026090D01*
X0098760Y0026180D01*
X0099010Y0026230D01*
X0099260Y0026250D01*
X0105730Y0026250D01*
X0105730Y0026240D02*
X0105980Y0026260D01*
X0106230Y0026310D01*
X0106470Y0026400D01*
X0106690Y0026520D01*
X0106890Y0026670D01*
X0107070Y0026850D01*
X0107220Y0027050D01*
X0107340Y0027270D01*
X0107430Y0027510D01*
X0107480Y0027760D01*
X0107500Y0028010D01*
X0107500Y0076980D01*
X0107480Y0077230D01*
X0107430Y0077480D01*
X0107340Y0077720D01*
X0107220Y0077940D01*
X0107070Y0078140D01*
X0106890Y0078320D01*
X0106690Y0078470D01*
X0106470Y0078590D01*
X0106230Y0078680D01*
X0105980Y0078730D01*
X0105730Y0078750D01*
X0100000Y0078750D01*
X0099700Y0078770D01*
X0099400Y0078820D01*
X0099110Y0078910D01*
X0098840Y0079040D01*
X0098580Y0079190D01*
X0098340Y0079380D01*
X0098130Y0079590D01*
X0097940Y0079830D01*
X0097790Y0080090D01*
X0097660Y0080360D01*
X0097570Y0080650D01*
X0097520Y0080950D01*
X0097500Y0081250D01*
X0097500Y0091980D01*
X0097490Y0091980D02*
X0097510Y0092230D01*
X0097560Y0092480D01*
X0097650Y0092720D01*
X0097770Y0092940D01*
X0097920Y0093140D01*
X0098100Y0093320D01*
X0098300Y0093470D01*
X0098520Y0093590D01*
X0098760Y0093680D01*
X0099010Y0093730D01*
X0099260Y0093750D01*
X0130730Y0093750D01*
X0130980Y0093730D01*
X0131230Y0093680D01*
X0131470Y0093590D01*
X0131690Y0093470D01*
X0131890Y0093320D01*
X0132070Y0093140D01*
X0132220Y0092940D01*
X0132340Y0092720D01*
X0132430Y0092480D01*
X0132480Y0092230D01*
X0132500Y0091980D01*
X0132500Y0080000D01*
X0132480Y0079800D01*
X0132440Y0079610D01*
X0132360Y0079430D01*
X0132260Y0079270D01*
X0132130Y0079120D01*
X0131980Y0078990D01*
X0131820Y0078890D01*
X0131640Y0078810D01*
X0131450Y0078770D01*
X0131250Y0078750D01*
X0124260Y0078750D01*
X0124010Y0078730D01*
X0123760Y0078680D01*
X0123520Y0078590D01*
X0123300Y0078470D01*
X0123100Y0078320D01*
X0122920Y0078140D01*
X0122770Y0077940D01*
X0122650Y0077720D01*
X0122560Y0077480D01*
X0122510Y0077230D01*
X0122490Y0076980D01*
X0122500Y0076980D02*
X0122500Y0028010D01*
X0122490Y0028010D02*
X0122510Y0027760D01*
X0122560Y0027510D01*
X0122650Y0027270D01*
X0122770Y0027050D01*
X0122920Y0026850D01*
X0123100Y0026670D01*
X0123300Y0026520D01*
X0123520Y0026400D01*
X0123760Y0026310D01*
X0124010Y0026260D01*
X0124260Y0026240D01*
X0124260Y0026250D02*
X0130730Y0026250D01*
X0130980Y0026230D01*
X0131230Y0026180D01*
X0131470Y0026090D01*
X0131690Y0025970D01*
X0131890Y0025820D01*
X0132070Y0025640D01*
X0132220Y0025440D01*
X0132340Y0025220D01*
X0132430Y0024980D01*
X0132480Y0024730D01*
X0132500Y0024480D01*
X0132500Y0013010D01*
X0132480Y0012760D01*
X0132430Y0012510D01*
X0132340Y0012270D01*
X0132220Y0012050D01*
X0132070Y0011850D01*
X0131890Y0011670D01*
X0131690Y0011520D01*
X0131470Y0011400D01*
X0131230Y0011310D01*
X0130980Y0011260D01*
X0130730Y0011240D01*
X0130730Y0011250D02*
X0099260Y0011250D01*
X0099260Y0011240D02*
X0099010Y0011260D01*
X0098760Y0011310D01*
X0098520Y0011400D01*
X0098300Y0011520D01*
X0098100Y0011670D01*
X0097920Y0011850D01*
X0097770Y0012050D01*
X0097650Y0012270D01*
X0097560Y0012510D01*
X0097510Y0012760D01*
X0097490Y0013010D01*
D13*
X0097500Y0011250D02*
X0097500Y0025000D01*
X0098750Y0026250D01*
X0105000Y0026250D01*
X0105000Y0011250D01*
X0097500Y0011250D01*
X0106870Y0011250D02*
X0106870Y0025000D01*
X0108120Y0026250D01*
X0114370Y0026250D01*
X0114370Y0011250D01*
X0106870Y0011250D01*
X0115620Y0011250D02*
X0115620Y0025000D01*
X0116870Y0026250D01*
X0123120Y0026250D01*
X0123120Y0011250D01*
X0115620Y0011250D01*
X0125000Y0011250D02*
X0125000Y0025000D01*
X0126250Y0026250D01*
X0132500Y0026250D01*
X0132500Y0011250D01*
X0125000Y0011250D01*
X0122500Y0025000D02*
X0107500Y0025000D01*
X0107500Y0032500D01*
X0121250Y0032500D01*
X0122500Y0031250D01*
X0122500Y0025000D01*
X0122500Y0033120D02*
X0107500Y0033120D01*
X0107500Y0040620D01*
X0121250Y0040620D01*
X0122500Y0039370D01*
X0122500Y0033120D01*
X0122500Y0041250D02*
X0107500Y0041250D01*
X0107500Y0048750D01*
X0121250Y0048750D01*
X0122500Y0047500D01*
X0122500Y0041250D01*
X0122500Y0048750D02*
X0107500Y0048750D01*
X0107500Y0056250D01*
X0121250Y0056250D01*
X0122500Y0055000D01*
X0122500Y0048750D01*
X0122500Y0056870D02*
X0107500Y0056870D01*
X0107500Y0064370D01*
X0121250Y0064370D01*
X0122500Y0063120D01*
X0122500Y0056870D01*
X0122500Y0065000D02*
X0107500Y0065000D01*
X0107500Y0072500D01*
X0121250Y0072500D01*
X0122500Y0071250D01*
X0122500Y0065000D01*
X0122500Y0072500D02*
X0107500Y0072500D01*
X0107500Y0080000D01*
X0121250Y0080000D01*
X0122500Y0078750D01*
X0122500Y0072500D01*
X0123120Y0078750D02*
X0115620Y0078750D01*
X0115620Y0092500D01*
X0116870Y0093750D01*
X0123120Y0093750D01*
X0123120Y0078750D01*
X0125000Y0078750D02*
X0125000Y0092500D01*
X0126250Y0093750D01*
X0132500Y0093750D01*
X0132500Y0078750D01*
X0125000Y0078750D01*
X0114370Y0078750D02*
X0106870Y0078750D01*
X0106870Y0092500D01*
X0108120Y0093750D01*
X0114370Y0093750D01*
X0114370Y0078750D01*
X0105000Y0078750D02*
X0097500Y0078750D01*
X0097500Y0092500D01*
X0098750Y0093750D01*
X0105000Y0093750D01*
X0105000Y0078750D01*
D15*
X0097100Y0081800D02*
X0095700Y0083200D01*
X0092890Y0083200D01*
X0093590Y0085000D02*
X0096400Y0085000D01*
X0097100Y0085700D01*
X0097100Y0087100D01*
X0096400Y0087800D01*
X0093590Y0087800D01*
X0092890Y0087100D01*
X0092890Y0085700D01*
X0093590Y0085000D01*
X0094990Y0089600D02*
X0094990Y0092410D01*
X0092890Y0091710D02*
X0094990Y0089600D01*
X0092890Y0091710D02*
X0097100Y0091710D01*
X0097100Y0081800D02*
X0095700Y0080400D01*
X0092890Y0080400D01*
X0123720Y0042720D02*
X0123020Y0042020D01*
X0123020Y0040620D01*
X0123720Y0039920D01*
X0123720Y0038120D02*
X0123020Y0037420D01*
X0123020Y0036010D01*
X0123720Y0035310D01*
X0126520Y0035310D01*
X0127220Y0036010D01*
X0127220Y0037420D01*
X0126520Y0038120D01*
X0123720Y0038120D01*
X0127220Y0039920D02*
X0124420Y0042720D01*
X0123720Y0042720D01*
X0127220Y0042720D02*
X0127220Y0039920D01*
X0125820Y0033510D02*
X0123020Y0033510D01*
X0123020Y0030710D02*
X0125820Y0030710D01*
X0127220Y0032110D01*
X0125820Y0033510D01*
X0132630Y0023370D02*
X0136840Y0023370D01*
X0132630Y0020570D01*
X0136840Y0020570D01*
X0136840Y0018900D02*
X0136840Y0017500D01*
X0136840Y0018200D02*
X0132630Y0018200D01*
X0132630Y0017500D02*
X0132630Y0018900D01*
X0132630Y0015700D02*
X0135440Y0015700D01*
X0136840Y0014300D01*
X0135440Y0012900D01*
X0132630Y0012900D01*
X0107410Y0026650D02*
X0104600Y0026650D01*
X0106010Y0026650D02*
X0106010Y0030850D01*
X0104600Y0029450D01*
X0102800Y0030150D02*
X0102800Y0027350D01*
X0102100Y0026650D01*
X0100700Y0026650D01*
X0100000Y0027350D01*
X0100000Y0030150D01*
X0100700Y0030850D01*
X0102100Y0030850D01*
X0102800Y0030150D01*
X0098200Y0030850D02*
X0098200Y0028050D01*
X0096800Y0026650D01*
X0095400Y0028050D01*
X0095400Y0030850D01*
X0123430Y0054400D02*
X0126240Y0054400D01*
X0127640Y0055800D01*
X0126240Y0057200D01*
X0123430Y0057200D01*
X0124130Y0059000D02*
X0126940Y0059000D01*
X0127640Y0059700D01*
X0127640Y0061100D01*
X0126940Y0061800D01*
X0124130Y0061800D01*
X0123430Y0061100D01*
X0123430Y0059700D01*
X0124130Y0059000D01*
X0124130Y0063610D02*
X0123430Y0064310D01*
X0123430Y0065710D01*
X0124130Y0066410D01*
X0124840Y0066410D01*
X0125540Y0065710D01*
X0126240Y0066410D01*
X0126940Y0066410D01*
X0127640Y0065710D01*
X0127640Y0064310D01*
X0126940Y0063610D01*
X0125540Y0065010D02*
X0125540Y0065710D01*
X0133020Y0078830D02*
X0135820Y0078830D01*
X0137220Y0080240D01*
X0135820Y0081640D01*
X0133020Y0081640D01*
X0133720Y0083440D02*
X0136520Y0083440D01*
X0137220Y0084140D01*
X0137220Y0085540D01*
X0136520Y0086240D01*
X0133720Y0086240D01*
X0133020Y0085540D01*
X0133020Y0084140D01*
X0133720Y0083440D01*
X0133020Y0088040D02*
X0135120Y0088040D01*
X0134420Y0089440D01*
X0134420Y0090140D01*
X0135120Y0090850D01*
X0136520Y0090850D01*
X0137220Y0090140D01*
X0137220Y0088740D01*
X0136520Y0088040D01*
X0133020Y0088040D02*
X0133020Y0090850D01*
D15*
X0082100Y0010400D02*
X0082100Y0095400D01*
X0147900Y0095400D01*
X0147900Y0010400D01*
X0082100Y0010400D01*
X0155000Y0010000D02*
G75*
%LPD*%
D17*
X0155000Y0010000D02*
X0155000Y0095000D01*
X0220000Y0095000D01*
X0220000Y0010000D01*
X0155000Y0010000D01*
D11*
X0157500Y0014040D02*
X0157500Y0092500D01*
X0169700Y0092500D01*
X0170010Y0092480D01*
X0170320Y0092430D01*
X0170620Y0092340D01*
X0170910Y0092220D01*
X0171190Y0092070D01*
X0171450Y0091890D01*
X0171680Y0091680D01*
X0171890Y0091450D01*
X0172070Y0091190D01*
X0172220Y0090910D01*
X0172340Y0090620D01*
X0172430Y0090320D01*
X0172480Y0090010D01*
X0172500Y0089700D01*
X0172500Y0029040D01*
X0172490Y0029040D02*
X0172510Y0028730D01*
X0172560Y0028420D01*
X0172650Y0028120D01*
X0172770Y0027830D01*
X0172920Y0027550D01*
X0173100Y0027290D01*
X0173310Y0027060D01*
X0173540Y0026850D01*
X0173800Y0026670D01*
X0174080Y0026520D01*
X0174370Y0026400D01*
X0174670Y0026310D01*
X0174980Y0026260D01*
X0175290Y0026240D01*
X0175290Y0026250D02*
X0214480Y0026250D01*
X0214730Y0026230D01*
X0214980Y0026180D01*
X0215220Y0026090D01*
X0215440Y0025970D01*
X0215640Y0025820D01*
X0215820Y0025640D01*
X0215970Y0025440D01*
X0216090Y0025220D01*
X0216180Y0024980D01*
X0216230Y0024730D01*
X0216250Y0024480D01*
X0216250Y0013750D01*
X0216230Y0013450D01*
X0216180Y0013150D01*
X0216090Y0012860D01*
X0215960Y0012590D01*
X0215810Y0012330D01*
X0215620Y0012090D01*
X0215410Y0011880D01*
X0215170Y0011690D01*
X0214910Y0011540D01*
X0214640Y0011410D01*
X0214350Y0011320D01*
X0214050Y0011270D01*
X0213750Y0011250D01*
X0160290Y0011250D01*
X0160290Y0011240D02*
X0159980Y0011260D01*
X0159670Y0011310D01*
X0159370Y0011400D01*
X0159080Y0011520D01*
X0158800Y0011670D01*
X0158540Y0011850D01*
X0158310Y0012060D01*
X0158100Y0012290D01*
X0157920Y0012550D01*
X0157770Y0012830D01*
X0157650Y0013120D01*
X0157560Y0013420D01*
X0157510Y0013730D01*
X0157490Y0014040D01*
D13*
X0160000Y0011250D02*
X0160000Y0025000D01*
X0161250Y0026250D01*
X0167500Y0026250D01*
X0167500Y0011250D01*
X0160000Y0011250D01*
X0168120Y0011250D02*
X0168120Y0025000D01*
X0169370Y0026250D01*
X0175620Y0026250D01*
X0175620Y0011250D01*
X0168120Y0011250D01*
X0176250Y0011250D02*
X0176250Y0025000D01*
X0177500Y0026250D01*
X0183750Y0026250D01*
X0183750Y0011250D01*
X0176250Y0011250D01*
X0184370Y0011250D02*
X0184370Y0025000D01*
X0185620Y0026250D01*
X0191870Y0026250D01*
X0191870Y0011250D01*
X0184370Y0011250D01*
X0192500Y0011250D02*
X0192500Y0025000D01*
X0193750Y0026250D01*
X0200000Y0026250D01*
X0200000Y0011250D01*
X0192500Y0011250D01*
X0200620Y0011250D02*
X0200620Y0025000D01*
X0201870Y0026250D01*
X0208120Y0026250D01*
X0208120Y0011250D01*
X0200620Y0011250D01*
X0208750Y0011250D02*
X0208750Y0025000D01*
X0210000Y0026250D01*
X0216250Y0026250D01*
X0216250Y0011250D01*
X0208750Y0011250D01*
X0172500Y0025620D02*
X0157500Y0025620D01*
X0157500Y0033120D01*
X0171250Y0033120D01*
X0172500Y0031870D01*
X0172500Y0025620D01*
X0172500Y0033750D02*
X0157500Y0033750D01*
X0157500Y0041250D01*
X0171250Y0041250D01*
X0172500Y0040000D01*
X0172500Y0033750D01*
X0172500Y0041870D02*
X0157500Y0041870D01*
X0157500Y0049370D01*
X0171250Y0049370D01*
X0172500Y0048120D01*
X0172500Y0041870D01*
X0172500Y0050000D02*
X0157500Y0050000D01*
X0157500Y0057500D01*
X0171250Y0057500D01*
X0172500Y0056250D01*
X0172500Y0050000D01*
X0172500Y0058120D02*
X0157500Y0058120D01*
X0157500Y0065620D01*
X0171250Y0065620D01*
X0172500Y0064370D01*
X0172500Y0058120D01*
X0172500Y0066250D02*
X0157500Y0066250D01*
X0157500Y0073750D01*
X0171250Y0073750D01*
X0172500Y0072500D01*
X0172500Y0066250D01*
X0172500Y0074370D02*
X0157500Y0074370D01*
X0157500Y0081870D01*
X0171250Y0081870D01*
X0172500Y0080620D01*
X0172500Y0074370D01*
X0172500Y0082500D02*
X0157500Y0082500D01*
X0157500Y0090000D01*
X0171250Y0090000D01*
X0172500Y0088750D01*
X0172500Y0082500D01*
D15*
X0172890Y0081890D02*
X0175700Y0081890D01*
X0177100Y0080490D01*
X0175700Y0079080D01*
X0172890Y0079080D01*
X0173590Y0083690D02*
X0176400Y0083690D01*
X0177100Y0084390D01*
X0177100Y0085790D01*
X0176400Y0086490D01*
X0173590Y0086490D01*
X0172890Y0085790D01*
X0172890Y0084390D01*
X0173590Y0083690D01*
X0172890Y0088290D02*
X0174990Y0088290D01*
X0174290Y0089690D01*
X0174290Y0090390D01*
X0174990Y0091100D01*
X0176400Y0091100D01*
X0177100Y0090390D01*
X0177100Y0088990D01*
X0176400Y0088290D01*
X0172890Y0088290D02*
X0172890Y0091100D01*
X0174990Y0067350D02*
X0174990Y0064540D01*
X0172890Y0066640D01*
X0177100Y0066640D01*
X0176400Y0062740D02*
X0173590Y0062740D01*
X0172890Y0062040D01*
X0172890Y0060640D01*
X0173590Y0059940D01*
X0176400Y0059940D01*
X0177100Y0060640D01*
X0177100Y0062040D01*
X0176400Y0062740D01*
X0175700Y0058140D02*
X0172890Y0058140D01*
X0172890Y0055330D02*
X0175700Y0055330D01*
X0177100Y0056740D01*
X0175700Y0058140D01*
X0175700Y0044850D02*
X0176400Y0044850D01*
X0177100Y0044140D01*
X0177100Y0042740D01*
X0176400Y0042040D01*
X0174990Y0043440D02*
X0174990Y0044140D01*
X0175700Y0044850D01*
X0174990Y0044140D02*
X0174290Y0044850D01*
X0173590Y0044850D01*
X0172890Y0044140D01*
X0172890Y0042740D01*
X0173590Y0042040D01*
X0173590Y0040240D02*
X0172890Y0039540D01*
X0172890Y0038140D01*
X0173590Y0037440D01*
X0176400Y0037440D01*
X0177100Y0038140D01*
X0177100Y0039540D01*
X0176400Y0040240D01*
X0173590Y0040240D01*
X0172890Y0035640D02*
X0175700Y0035640D01*
X0177100Y0034240D01*
X0175700Y0032830D01*
X0172890Y0032830D01*
X0173770Y0030980D02*
X0173770Y0028170D01*
X0175170Y0026770D01*
X0176570Y0028170D01*
X0176570Y0030980D01*
X0178380Y0030270D02*
X0178380Y0027470D01*
X0179080Y0026770D01*
X0180480Y0026770D01*
X0181180Y0027470D01*
X0181180Y0030270D01*
X0180480Y0030980D01*
X0179080Y0030980D01*
X0178380Y0030270D01*
X0182980Y0030270D02*
X0183680Y0030980D01*
X0185080Y0030980D01*
X0185780Y0030270D01*
X0185780Y0029570D01*
X0182980Y0026770D01*
X0185780Y0026770D01*
X0190400Y0028050D02*
X0191800Y0026650D01*
X0193200Y0028050D01*
X0193200Y0030850D01*
X0195000Y0030150D02*
X0195000Y0027350D01*
X0195700Y0026650D01*
X0197100Y0026650D01*
X0197800Y0027350D01*
X0197800Y0030150D01*
X0197100Y0030850D01*
X0195700Y0030850D01*
X0195000Y0030150D01*
X0190400Y0030850D02*
X0190400Y0028050D01*
X0199600Y0029450D02*
X0201010Y0030850D01*
X0201010Y0026650D01*
X0202410Y0026650D02*
X0199600Y0026650D01*
X0206750Y0028520D02*
X0208160Y0027120D01*
X0209560Y0028520D01*
X0209560Y0031320D01*
X0211360Y0031320D02*
X0212760Y0031320D01*
X0212060Y0031320D02*
X0212060Y0027120D01*
X0211360Y0027120D02*
X0212760Y0027120D01*
X0214430Y0027120D02*
X0214430Y0031320D01*
X0217230Y0027120D01*
X0217230Y0031320D01*
X0206750Y0031320D02*
X0206750Y0028520D01*
D15*
X0154600Y0010400D02*
X0154600Y0095400D01*
X0220400Y0095400D01*
X0220400Y0010400D01*
X0154600Y0010400D01*
X0227500Y0010000D02*
G75*
%LPD*%
D17*
X0227500Y0010000D02*
X0227500Y0095000D01*
X0292500Y0095000D01*
X0292500Y0010000D01*
X0227500Y0010000D01*
D11*
X0230000Y0011250D02*
X0269800Y0011250D01*
X0276530Y0014030D02*
X0287680Y0025180D01*
X0290000Y0030770D02*
X0290000Y0073030D01*
X0285950Y0082790D02*
X0278820Y0089920D01*
X0269590Y0093750D02*
X0230000Y0093750D01*
X0230000Y0011250D01*
X0246250Y0028750D02*
X0259210Y0028750D01*
X0269090Y0032840D02*
X0270090Y0033840D01*
X0273750Y0042670D02*
X0273750Y0061090D01*
X0269220Y0072030D02*
X0267370Y0073870D01*
X0278820Y0089930D02*
X0278320Y0090400D01*
X0277800Y0090840D01*
X0277260Y0091260D01*
X0276700Y0091640D01*
X0276110Y0092000D01*
X0275510Y0092330D01*
X0274900Y0092620D01*
X0274270Y0092880D01*
X0273620Y0093110D01*
X0272970Y0093310D01*
X0272300Y0093460D01*
X0271630Y0093590D01*
X0270950Y0093680D01*
X0270270Y0093730D01*
X0269590Y0093750D01*
X0258620Y0077500D02*
X0246250Y0077500D01*
X0246250Y0028750D01*
X0259210Y0028740D02*
X0259940Y0028760D01*
X0260670Y0028820D01*
X0261400Y0028910D01*
X0262120Y0029050D01*
X0262830Y0029220D01*
X0263530Y0029420D01*
X0264220Y0029670D01*
X0264900Y0029950D01*
X0265560Y0030260D01*
X0266200Y0030610D01*
X0266820Y0031000D01*
X0267430Y0031410D01*
X0268010Y0031860D01*
X0268560Y0032330D01*
X0269100Y0032830D01*
X0270090Y0033830D02*
X0270540Y0034310D01*
X0270960Y0034800D01*
X0271360Y0035320D01*
X0271730Y0035860D01*
X0272080Y0036420D01*
X0272390Y0037000D01*
X0272670Y0037590D01*
X0272920Y0038190D01*
X0273140Y0038810D01*
X0273320Y0039430D01*
X0273480Y0040070D01*
X0273600Y0040710D01*
X0273680Y0041360D01*
X0273730Y0042020D01*
X0273750Y0042670D01*
X0290000Y0030770D02*
X0289980Y0030250D01*
X0289930Y0029740D01*
X0289850Y0029230D01*
X0289730Y0028720D01*
X0289580Y0028230D01*
X0289400Y0027740D01*
X0289180Y0027270D01*
X0288940Y0026810D01*
X0288670Y0026380D01*
X0288370Y0025950D01*
X0288040Y0025550D01*
X0287680Y0025180D01*
X0276530Y0014040D02*
X0276110Y0013640D01*
X0275670Y0013280D01*
X0275210Y0012940D01*
X0274730Y0012620D01*
X0274220Y0012340D01*
X0273710Y0012090D01*
X0273180Y0011870D01*
X0272630Y0011680D01*
X0272080Y0011530D01*
X0271520Y0011410D01*
X0270950Y0011320D01*
X0270370Y0011270D01*
X0269800Y0011250D01*
X0273750Y0061090D02*
X0273730Y0061850D01*
X0273680Y0062610D01*
X0273580Y0063360D01*
X0273450Y0064110D01*
X0273290Y0064850D01*
X0273080Y0065580D01*
X0272850Y0066300D01*
X0272570Y0067010D01*
X0272270Y0067700D01*
X0271920Y0068380D01*
X0271550Y0069040D01*
X0271140Y0069680D01*
X0270710Y0070300D01*
X0270240Y0070900D01*
X0269750Y0071470D01*
X0269220Y0072020D01*
X0285960Y0082800D02*
X0286450Y0082270D01*
X0286920Y0081720D01*
X0287360Y0081150D01*
X0287770Y0080550D01*
X0288150Y0079930D01*
X0288490Y0079300D01*
X0288810Y0078650D01*
X0289080Y0077980D01*
X0289320Y0077300D01*
X0289530Y0076600D01*
X0289700Y0075900D01*
X0289830Y0075190D01*
X0289920Y0074470D01*
X0289980Y0073750D01*
X0290000Y0073030D01*
X0267370Y0073870D02*
X0266860Y0074340D01*
X0266330Y0074790D01*
X0265780Y0075210D01*
X0265200Y0075590D01*
X0264600Y0075950D01*
X0263990Y0076260D01*
X0263350Y0076550D01*
X0262710Y0076800D01*
X0262040Y0077010D01*
X0261370Y0077180D01*
X0260690Y0077320D01*
X0260000Y0077410D01*
X0259310Y0077470D01*
X0258620Y0077490D01*
D13*
X0255000Y0078750D02*
X0255000Y0092500D01*
X0256250Y0093750D01*
X0262500Y0093750D01*
X0262500Y0078750D01*
X0255000Y0078750D01*
X0252500Y0078750D02*
X0245000Y0078750D01*
X0245000Y0092500D01*
X0246250Y0093750D01*
X0252500Y0093750D01*
X0252500Y0078750D01*
X0245000Y0076870D02*
X0243750Y0078120D01*
X0230000Y0078120D01*
X0230000Y0070620D01*
X0245000Y0070620D01*
X0245000Y0076870D01*
X0245000Y0081870D02*
X0230000Y0081870D01*
X0230000Y0089370D01*
X0243750Y0089370D01*
X0245000Y0088120D01*
X0245000Y0081870D01*
X0243750Y0066870D02*
X0245000Y0065620D01*
X0245000Y0059370D01*
X0230000Y0059370D01*
X0230000Y0066870D01*
X0243750Y0066870D01*
X0243750Y0055620D02*
X0245000Y0054370D01*
X0245000Y0048120D01*
X0230000Y0048120D01*
X0230000Y0055620D01*
X0243750Y0055620D01*
X0243120Y0044370D02*
X0244370Y0043120D01*
X0244370Y0036870D01*
X0229370Y0036870D01*
X0229370Y0044370D01*
X0243120Y0044370D01*
X0243120Y0033120D02*
X0244370Y0031870D01*
X0244370Y0025620D01*
X0229370Y0025620D01*
X0229370Y0033120D01*
X0243120Y0033120D01*
X0245000Y0026250D02*
X0252500Y0026250D01*
X0252500Y0012500D01*
X0251250Y0011250D01*
X0245000Y0011250D01*
X0245000Y0026250D01*
X0243750Y0022500D02*
X0245000Y0021250D01*
X0245000Y0015000D01*
X0230000Y0015000D01*
X0230000Y0022500D01*
X0243750Y0022500D01*
X0255000Y0026250D02*
X0255000Y0011250D01*
X0261250Y0011250D01*
X0262500Y0012500D01*
X0262500Y0026250D01*
X0255000Y0026250D01*
X0262610Y0024510D02*
X0269400Y0027680D01*
X0275210Y0015220D01*
X0274610Y0013560D01*
X0268950Y0010910D01*
X0262610Y0024510D01*
X0267670Y0026400D02*
X0272970Y0031700D01*
X0282690Y0021980D01*
X0282690Y0020210D01*
X0278270Y0015790D01*
X0267670Y0026400D01*
X0272710Y0030770D02*
X0275880Y0037560D01*
X0288340Y0031750D01*
X0288940Y0030090D01*
X0286300Y0024430D01*
X0272710Y0030770D01*
X0275000Y0035620D02*
X0275000Y0043120D01*
X0288750Y0043120D01*
X0290000Y0041870D01*
X0290000Y0035620D01*
X0275000Y0035620D01*
X0275000Y0043750D02*
X0275000Y0051250D01*
X0288750Y0051250D01*
X0290000Y0050000D01*
X0290000Y0043750D01*
X0275000Y0043750D01*
X0275000Y0051870D02*
X0275000Y0059370D01*
X0288750Y0059370D01*
X0290000Y0058120D01*
X0290000Y0051870D01*
X0275000Y0051870D01*
X0275000Y0060000D02*
X0275000Y0067500D01*
X0288750Y0067500D01*
X0290000Y0066250D01*
X0290000Y0060000D01*
X0275000Y0060000D01*
X0276030Y0066430D02*
X0272860Y0073230D01*
X0285330Y0079040D01*
X0286990Y0078430D01*
X0289630Y0072770D01*
X0276030Y0066430D01*
X0274220Y0072670D02*
X0268920Y0077970D01*
X0278640Y0087690D01*
X0280410Y0087690D01*
X0284830Y0083270D01*
X0274220Y0072670D01*
X0270430Y0077410D02*
X0263180Y0079350D01*
X0266740Y0092630D01*
X0268270Y0093510D01*
X0274310Y0091900D01*
X0270430Y0077410D01*
D15*
X0267290Y0077300D02*
X0267290Y0076600D01*
X0266590Y0075900D01*
X0267290Y0075200D01*
X0267290Y0074500D01*
X0266590Y0073800D01*
X0265190Y0073800D01*
X0264490Y0074500D01*
X0265890Y0075900D02*
X0266590Y0075900D01*
X0267290Y0077300D02*
X0266590Y0078000D01*
X0265190Y0078000D01*
X0264490Y0077300D01*
X0262690Y0077300D02*
X0262690Y0074500D01*
X0261990Y0073800D01*
X0260590Y0073800D01*
X0259880Y0074500D01*
X0259880Y0077300D01*
X0260590Y0078000D01*
X0261990Y0078000D01*
X0262690Y0077300D01*
X0258080Y0078000D02*
X0258080Y0075200D01*
X0256680Y0073800D01*
X0255280Y0075200D01*
X0255280Y0078000D01*
X0250350Y0077100D02*
X0250350Y0074290D01*
X0247540Y0077100D01*
X0246840Y0077100D01*
X0246140Y0076390D01*
X0246140Y0074990D01*
X0246840Y0074290D01*
X0246840Y0072490D02*
X0246140Y0071790D01*
X0246140Y0070390D01*
X0246840Y0069690D01*
X0249650Y0069690D01*
X0250350Y0070390D01*
X0250350Y0071790D01*
X0249650Y0072490D01*
X0246840Y0072490D01*
X0246140Y0067890D02*
X0248950Y0067890D01*
X0250350Y0066490D01*
X0248950Y0065080D01*
X0246140Y0065080D01*
X0250850Y0047410D02*
X0250850Y0044600D01*
X0250850Y0046010D02*
X0246640Y0046010D01*
X0248040Y0044600D01*
X0247340Y0042800D02*
X0246640Y0042100D01*
X0246640Y0040700D01*
X0247340Y0040000D01*
X0250150Y0040000D01*
X0250850Y0040700D01*
X0250850Y0042100D01*
X0250150Y0042800D01*
X0247340Y0042800D01*
X0246640Y0038200D02*
X0249450Y0038200D01*
X0250850Y0036800D01*
X0249450Y0035400D01*
X0246640Y0035400D01*
X0245960Y0030850D02*
X0245960Y0028050D01*
X0247360Y0026650D01*
X0248760Y0028050D01*
X0248760Y0030850D01*
X0250560Y0030150D02*
X0250560Y0027350D01*
X0251260Y0026650D01*
X0252670Y0026650D01*
X0253370Y0027350D01*
X0253370Y0030150D01*
X0252670Y0030850D01*
X0251260Y0030850D01*
X0250560Y0030150D01*
X0255170Y0030850D02*
X0257970Y0030850D01*
X0257970Y0030150D01*
X0255170Y0027350D01*
X0255170Y0026650D01*
X0261840Y0028350D02*
X0263820Y0026370D01*
X0265800Y0026370D01*
X0265800Y0028350D01*
X0263820Y0030330D01*
X0265590Y0031110D02*
X0267570Y0029130D01*
X0268560Y0029130D01*
X0269560Y0030120D01*
X0269560Y0031110D01*
X0267570Y0033090D01*
X0266580Y0033090D01*
X0265590Y0032100D01*
X0265590Y0031110D01*
X0269840Y0033380D02*
X0269840Y0035360D01*
X0270330Y0036840D01*
X0271320Y0034860D02*
X0269840Y0033380D01*
X0270830Y0032390D01*
X0271820Y0032390D01*
X0272810Y0033380D01*
X0272810Y0034370D01*
X0272320Y0034860D01*
X0271320Y0034860D01*
X0272570Y0042210D02*
X0269770Y0042210D01*
X0272570Y0042210D02*
X0273970Y0043610D01*
X0272570Y0045010D01*
X0269770Y0045010D01*
X0270470Y0046810D02*
X0273270Y0046810D01*
X0273970Y0047510D01*
X0273970Y0048920D01*
X0273270Y0049620D01*
X0270470Y0049620D01*
X0269770Y0048920D01*
X0269770Y0047510D01*
X0270470Y0046810D01*
X0269770Y0051420D02*
X0271870Y0051420D01*
X0271170Y0052820D01*
X0271170Y0053520D01*
X0271870Y0054220D01*
X0273270Y0054220D01*
X0273970Y0053520D01*
X0273970Y0052120D01*
X0273270Y0051420D01*
X0269770Y0051420D02*
X0269770Y0054220D01*
X0288120Y0080110D02*
X0291100Y0083080D01*
X0288120Y0083080D01*
X0290110Y0081100D01*
X0287840Y0085340D02*
X0287840Y0086330D01*
X0286850Y0087320D01*
X0285860Y0087320D01*
X0283880Y0085340D01*
X0283880Y0084350D01*
X0284870Y0083360D01*
X0285860Y0083360D01*
X0287840Y0085340D01*
X0285080Y0089090D02*
X0283100Y0087110D01*
X0281120Y0087110D01*
X0281120Y0089090D01*
X0283100Y0091070D01*
X0241100Y0015850D02*
X0241100Y0011650D01*
X0238290Y0015850D01*
X0238290Y0011650D01*
X0236620Y0011650D02*
X0235220Y0011650D01*
X0235920Y0011650D02*
X0235920Y0015850D01*
X0235220Y0015850D02*
X0236620Y0015850D01*
X0233420Y0015850D02*
X0233420Y0013050D01*
X0232020Y0011650D01*
X0230620Y0013050D01*
X0230620Y0015850D01*
D15*
X0227100Y0010400D02*
X0227100Y0095400D01*
X0292900Y0095400D01*
X0292900Y0010400D01*
X0227100Y0010400D01*
X0010000Y0102500D02*
G75*
%LPD*%
D17*
X0010000Y0102500D02*
X0010000Y0187500D01*
X0075000Y0187500D01*
X0075000Y0102500D01*
X0010000Y0102500D01*
D11*
X0013120Y0105620D02*
X0026610Y0105620D01*
X0026610Y0105630D02*
X0026780Y0105650D01*
X0026950Y0105700D01*
X0027100Y0105780D01*
X0027230Y0105890D01*
X0027340Y0106020D01*
X0027420Y0106170D01*
X0027470Y0106340D01*
X0027490Y0106510D01*
X0027500Y0106510D02*
X0027500Y0156430D01*
X0027520Y0156720D01*
X0027580Y0157010D01*
X0027670Y0157290D01*
X0027800Y0157560D01*
X0027960Y0157800D01*
X0028160Y0158020D01*
X0028380Y0158220D01*
X0028630Y0158380D01*
X0028890Y0158510D01*
X0029170Y0158600D01*
X0029460Y0158660D01*
X0029750Y0158680D01*
X0030040Y0158660D01*
X0030330Y0158600D01*
X0030610Y0158510D01*
X0030880Y0158380D01*
X0031120Y0158220D01*
X0031340Y0158020D01*
X0040290Y0149080D01*
X0040530Y0148860D01*
X0040800Y0148660D01*
X0041080Y0148500D01*
X0041380Y0148370D01*
X0041690Y0148270D01*
X0042010Y0148200D01*
X0042340Y0148160D01*
X0042660Y0148160D01*
X0042990Y0148200D01*
X0043310Y0148270D01*
X0043620Y0148370D01*
X0043920Y0148500D01*
X0044200Y0148660D01*
X0044470Y0148860D01*
X0044710Y0149080D01*
X0053650Y0158020D01*
X0053870Y0158220D01*
X0054110Y0158380D01*
X0054380Y0158510D01*
X0054660Y0158600D01*
X0054950Y0158660D01*
X0055240Y0158680D01*
X0055530Y0158660D01*
X0055820Y0158600D01*
X0056100Y0158510D01*
X0056360Y0158380D01*
X0056610Y0158220D01*
X0056830Y0158020D01*
X0057030Y0157800D01*
X0057190Y0157560D01*
X0057320Y0157290D01*
X0057410Y0157010D01*
X0057470Y0156720D01*
X0057490Y0156430D01*
X0057500Y0156430D02*
X0057500Y0106250D01*
X0057490Y0106250D02*
X0057510Y0106110D01*
X0057550Y0105980D01*
X0057630Y0105860D01*
X0057730Y0105760D01*
X0057850Y0105680D01*
X0057980Y0105640D01*
X0058120Y0105620D01*
X0071610Y0105620D01*
X0071610Y0105630D02*
X0071780Y0105650D01*
X0071950Y0105700D01*
X0072100Y0105780D01*
X0072230Y0105890D01*
X0072340Y0106020D01*
X0072420Y0106170D01*
X0072470Y0106340D01*
X0072490Y0106510D01*
X0072500Y0106510D02*
X0072500Y0181720D01*
X0072480Y0181940D01*
X0072430Y0182150D01*
X0072350Y0182360D01*
X0072230Y0182540D01*
X0072090Y0182710D01*
X0071920Y0182850D01*
X0071740Y0182970D01*
X0071530Y0183050D01*
X0071320Y0183100D01*
X0071100Y0183120D01*
X0057130Y0183120D01*
X0054550Y0182050D02*
X0045290Y0172790D01*
X0045290Y0172800D02*
X0045010Y0172540D01*
X0044690Y0172310D01*
X0044360Y0172110D01*
X0044010Y0171940D01*
X0043650Y0171810D01*
X0043270Y0171720D01*
X0042890Y0171660D01*
X0042500Y0171640D01*
X0042110Y0171660D01*
X0041730Y0171720D01*
X0041350Y0171810D01*
X0040990Y0171940D01*
X0040640Y0172110D01*
X0040310Y0172310D01*
X0039990Y0172540D01*
X0039710Y0172800D01*
X0039700Y0172790D02*
X0030440Y0182050D01*
X0027860Y0183120D02*
X0013120Y0183120D01*
X0013120Y0183130D02*
X0012980Y0183110D01*
X0012850Y0183070D01*
X0012730Y0182990D01*
X0012630Y0182890D01*
X0012550Y0182770D01*
X0012510Y0182640D01*
X0012490Y0182500D01*
X0012500Y0182500D02*
X0012500Y0106250D01*
X0012490Y0106250D02*
X0012510Y0106110D01*
X0012550Y0105980D01*
X0012630Y0105860D01*
X0012730Y0105760D01*
X0012850Y0105680D01*
X0012980Y0105640D01*
X0013120Y0105620D01*
X0056250Y0158750D02*
X0056250Y0158930D01*
X0054560Y0182050D02*
X0054820Y0182290D01*
X0055110Y0182510D01*
X0055410Y0182690D01*
X0055740Y0182840D01*
X0056070Y0182960D01*
X0056420Y0183050D01*
X0056770Y0183100D01*
X0057130Y0183120D01*
X0030430Y0182050D02*
X0030170Y0182290D01*
X0029880Y0182510D01*
X0029580Y0182690D01*
X0029250Y0182840D01*
X0028920Y0182960D01*
X0028570Y0183050D01*
X0028220Y0183100D01*
X0027860Y0183120D01*
D13*
X0027500Y0181870D02*
X0026250Y0183120D01*
X0012500Y0183120D01*
X0012500Y0175620D01*
X0027500Y0175620D01*
X0027500Y0181870D01*
X0027500Y0179370D02*
X0026250Y0178120D01*
X0026250Y0164370D01*
X0033750Y0164370D01*
X0033750Y0179370D01*
X0027500Y0179370D01*
X0026250Y0173120D02*
X0027500Y0171870D01*
X0027500Y0165620D01*
X0012500Y0165620D01*
X0012500Y0173120D01*
X0026250Y0173120D01*
X0032500Y0170620D02*
X0033750Y0171870D01*
X0040000Y0171870D01*
X0040000Y0156870D01*
X0032500Y0156870D01*
X0032500Y0170620D01*
X0038750Y0163120D02*
X0040000Y0164370D01*
X0046250Y0164370D01*
X0046250Y0149370D01*
X0038750Y0149370D01*
X0038750Y0163120D01*
X0045000Y0156870D02*
X0045000Y0170620D01*
X0046250Y0171870D01*
X0052500Y0171870D01*
X0052500Y0156870D01*
X0045000Y0156870D01*
X0051250Y0165000D02*
X0051250Y0178750D01*
X0052500Y0180000D01*
X0058750Y0180000D01*
X0058750Y0165000D01*
X0051250Y0165000D01*
X0057500Y0165620D02*
X0057500Y0173120D01*
X0071250Y0173120D01*
X0072500Y0171870D01*
X0072500Y0165620D01*
X0057500Y0165620D01*
X0057500Y0163120D02*
X0071250Y0163120D01*
X0072500Y0161870D01*
X0072500Y0155620D01*
X0057500Y0155620D01*
X0057500Y0163120D01*
X0057500Y0153120D02*
X0071250Y0153120D01*
X0072500Y0151870D01*
X0072500Y0145620D01*
X0057500Y0145620D01*
X0057500Y0153120D01*
X0057500Y0143120D02*
X0071250Y0143120D01*
X0072500Y0141870D01*
X0072500Y0135620D01*
X0057500Y0135620D01*
X0057500Y0143120D01*
X0057500Y0133120D02*
X0071250Y0133120D01*
X0072500Y0131870D01*
X0072500Y0125620D01*
X0057500Y0125620D01*
X0057500Y0133120D01*
X0057500Y0123120D02*
X0071250Y0123120D01*
X0072500Y0121870D01*
X0072500Y0115620D01*
X0057500Y0115620D01*
X0057500Y0123120D01*
X0057500Y0113120D02*
X0071250Y0113120D01*
X0072500Y0111870D01*
X0072500Y0105620D01*
X0057500Y0105620D01*
X0057500Y0113120D01*
X0027500Y0111870D02*
X0027500Y0105620D01*
X0012500Y0105620D01*
X0012500Y0113120D01*
X0026250Y0113120D01*
X0027500Y0111870D01*
X0027500Y0115620D02*
X0012500Y0115620D01*
X0012500Y0123120D01*
X0026250Y0123120D01*
X0027500Y0121870D01*
X0027500Y0115620D01*
X0027500Y0125620D02*
X0012500Y0125620D01*
X0012500Y0133120D01*
X0026250Y0133120D01*
X0027500Y0131870D01*
X0027500Y0125620D01*
X0027500Y0135620D02*
X0012500Y0135620D01*
X0012500Y0143120D01*
X0026250Y0143120D01*
X0027500Y0141870D01*
X0027500Y0135620D01*
X0027500Y0145620D02*
X0012500Y0145620D01*
X0012500Y0153120D01*
X0026250Y0153120D01*
X0027500Y0151870D01*
X0027500Y0145620D01*
X0027500Y0155620D02*
X0012500Y0155620D01*
X0012500Y0163120D01*
X0026250Y0163120D01*
X0027500Y0161870D01*
X0027500Y0155620D01*
X0057500Y0175620D02*
X0057500Y0183120D01*
X0071250Y0183120D01*
X0072500Y0181870D01*
X0072500Y0175620D01*
X0057500Y0175620D01*
D15*
X0052060Y0179500D02*
X0052060Y0180490D01*
X0050070Y0182470D01*
X0049080Y0182470D01*
X0048090Y0181480D01*
X0048090Y0180490D01*
X0050070Y0178510D01*
X0051060Y0178510D01*
X0052060Y0179500D01*
X0052340Y0182750D02*
X0054320Y0184730D01*
X0055310Y0182750D02*
X0052340Y0185720D01*
X0052340Y0182750D01*
X0048300Y0177730D02*
X0046320Y0179710D01*
X0044340Y0177730D02*
X0046320Y0175750D01*
X0048300Y0175750D01*
X0048300Y0177730D01*
X0040650Y0178010D02*
X0040160Y0177510D01*
X0039170Y0177510D01*
X0039170Y0176520D01*
X0038670Y0176030D01*
X0037680Y0176030D01*
X0036690Y0177020D01*
X0036690Y0178010D01*
X0035420Y0179280D02*
X0037400Y0181260D01*
X0037400Y0182260D01*
X0036410Y0183250D01*
X0035420Y0183250D01*
X0033440Y0181260D01*
X0033440Y0180270D01*
X0034430Y0179280D01*
X0035420Y0179280D01*
X0038670Y0179990D02*
X0039660Y0179990D01*
X0040650Y0179000D01*
X0040650Y0178010D01*
X0039170Y0177510D02*
X0038670Y0178010D01*
X0032660Y0183030D02*
X0034640Y0185020D01*
X0032660Y0183030D02*
X0030680Y0183030D01*
X0030680Y0185020D01*
X0032660Y0187000D01*
X0052270Y0164280D02*
X0052270Y0161480D01*
X0054370Y0161480D01*
X0053670Y0162880D01*
X0053670Y0163580D01*
X0054370Y0164280D01*
X0055770Y0164280D01*
X0056470Y0163580D01*
X0056470Y0162180D01*
X0055770Y0161480D01*
X0055770Y0159680D02*
X0052970Y0159680D01*
X0052270Y0158980D01*
X0052270Y0157580D01*
X0052970Y0156880D01*
X0055770Y0156880D01*
X0056470Y0157580D01*
X0056470Y0158980D01*
X0055770Y0159680D01*
X0055070Y0155070D02*
X0052270Y0155070D01*
X0052270Y0152270D02*
X0055070Y0152270D01*
X0056470Y0153670D01*
X0055070Y0155070D01*
X0055070Y0146780D02*
X0054370Y0146080D01*
X0054370Y0143980D01*
X0055770Y0143980D01*
X0056470Y0144680D01*
X0056470Y0146080D01*
X0055770Y0146780D01*
X0055070Y0146780D01*
X0052970Y0145380D02*
X0054370Y0143980D01*
X0052970Y0145380D02*
X0052270Y0146780D01*
X0052970Y0142180D02*
X0052270Y0141480D01*
X0052270Y0140080D01*
X0052970Y0139380D01*
X0055770Y0139380D01*
X0056470Y0140080D01*
X0056470Y0141480D01*
X0055770Y0142180D01*
X0052970Y0142180D01*
X0052270Y0137570D02*
X0055070Y0137570D01*
X0056470Y0136170D01*
X0055070Y0134770D01*
X0052270Y0134770D01*
X0052270Y0118030D02*
X0052970Y0118030D01*
X0055770Y0115230D01*
X0056470Y0115230D01*
X0055770Y0113430D02*
X0052970Y0113430D01*
X0052270Y0112730D01*
X0052270Y0111330D01*
X0052970Y0110630D01*
X0055770Y0110630D01*
X0056470Y0111330D01*
X0056470Y0112730D01*
X0055770Y0113430D01*
X0052270Y0115230D02*
X0052270Y0118030D01*
X0052270Y0108820D02*
X0055070Y0108820D01*
X0056470Y0107420D01*
X0055070Y0106020D01*
X0052270Y0106020D01*
X0032720Y0106400D02*
X0031320Y0107800D01*
X0028520Y0107800D01*
X0028520Y0109600D02*
X0028520Y0111000D01*
X0028520Y0110300D02*
X0032720Y0110300D01*
X0032720Y0109600D02*
X0032720Y0111000D01*
X0032720Y0112670D02*
X0028520Y0112670D01*
X0032720Y0115470D01*
X0028520Y0115470D01*
X0028520Y0123460D02*
X0031320Y0123460D01*
X0032720Y0124860D01*
X0031320Y0126260D01*
X0028520Y0126260D01*
X0029220Y0128060D02*
X0032020Y0128060D01*
X0032720Y0128760D01*
X0032720Y0130170D01*
X0032020Y0130870D01*
X0029220Y0130870D01*
X0028520Y0130170D01*
X0028520Y0128760D01*
X0029220Y0128060D01*
X0029920Y0132670D02*
X0028520Y0134070D01*
X0032720Y0134070D01*
X0032720Y0132670D02*
X0032720Y0135470D01*
X0031450Y0150710D02*
X0028640Y0150710D01*
X0028640Y0153510D02*
X0031450Y0153510D01*
X0032850Y0152110D01*
X0031450Y0150710D01*
X0032150Y0155310D02*
X0029340Y0155310D01*
X0028640Y0156010D01*
X0028640Y0157420D01*
X0029340Y0158120D01*
X0032150Y0158120D01*
X0032850Y0157420D01*
X0032850Y0156010D01*
X0032150Y0155310D01*
X0032850Y0159920D02*
X0030040Y0162720D01*
X0029340Y0162720D01*
X0028640Y0162020D01*
X0028640Y0160620D01*
X0029340Y0159920D01*
X0032850Y0159920D02*
X0032850Y0162720D01*
X0032720Y0106400D02*
X0031320Y0104990D01*
X0028520Y0104990D01*
D15*
X0010400Y0102100D02*
X0010400Y0187900D01*
X0010400Y0187900D02*
X0075400Y0187900D01*
X0075400Y0102100D01*
X0010400Y0102100D01*
X0082500Y0102500D02*
G75*
%LPD*%
D17*
X0082500Y0102500D02*
X0082500Y0187500D01*
X0147500Y0187500D01*
X0147500Y0102500D01*
X0082500Y0102500D01*
D11*
X0084370Y0122500D02*
X0084320Y0121710D01*
X0084300Y0120920D01*
X0084320Y0120130D01*
X0084380Y0119340D01*
X0084470Y0118550D01*
X0084600Y0117770D01*
X0084770Y0117000D01*
X0084980Y0116240D01*
X0085220Y0115480D01*
X0085490Y0114740D01*
X0085810Y0114020D01*
X0086150Y0113310D01*
X0086530Y0112610D01*
X0086940Y0111940D01*
X0087390Y0111280D01*
X0087860Y0110650D01*
X0088360Y0110040D01*
X0088890Y0109450D01*
X0089450Y0108890D01*
X0090040Y0108360D01*
X0090650Y0107860D01*
X0091280Y0107390D01*
X0091940Y0106940D01*
X0092610Y0106530D01*
X0093310Y0106150D01*
X0094020Y0105810D01*
X0094740Y0105490D01*
X0095480Y0105220D01*
X0096240Y0104980D01*
X0097000Y0104770D01*
X0097770Y0104600D01*
X0098550Y0104470D01*
X0099340Y0104380D01*
X0100130Y0104320D01*
X0100920Y0104300D01*
X0101710Y0104320D01*
X0102500Y0104370D01*
X0127500Y0104370D01*
X0127490Y0104370D02*
X0128290Y0104330D01*
X0129090Y0104320D01*
X0129890Y0104360D01*
X0130690Y0104430D01*
X0131480Y0104550D01*
X0132260Y0104700D01*
X0133040Y0104890D01*
X0133800Y0105120D01*
X0134560Y0105390D01*
X0135300Y0105690D01*
X0136020Y0106030D01*
X0136730Y0106400D01*
X0137410Y0106800D01*
X0138080Y0107240D01*
X0138730Y0107720D01*
X0139350Y0108220D01*
X0139940Y0108750D01*
X0140510Y0109310D01*
X0141050Y0109900D01*
X0141560Y0110520D01*
X0142050Y0111150D01*
X0142490Y0111810D01*
X0142910Y0112500D01*
X0143290Y0113200D01*
X0143640Y0113920D01*
X0143950Y0114650D01*
X0144230Y0115400D01*
X0144470Y0116170D01*
X0144670Y0116940D01*
X0144830Y0117720D01*
X0144960Y0118510D01*
X0145040Y0119310D01*
X0145090Y0120100D01*
X0145100Y0120900D01*
X0145070Y0121700D01*
X0145000Y0122500D01*
X0145000Y0168750D01*
X0145030Y0169530D01*
X0145020Y0170320D01*
X0144970Y0171100D01*
X0144880Y0171880D01*
X0144750Y0172660D01*
X0144590Y0173420D01*
X0144390Y0174180D01*
X0144150Y0174930D01*
X0143880Y0175670D01*
X0143570Y0176390D01*
X0143220Y0177100D01*
X0142840Y0177780D01*
X0142430Y0178450D01*
X0141990Y0179100D01*
X0141510Y0179730D01*
X0141010Y0180330D01*
X0140470Y0180900D01*
X0139910Y0181450D01*
X0139320Y0181970D01*
X0138710Y0182460D01*
X0138070Y0182930D01*
X0137420Y0183350D01*
X0136740Y0183750D01*
X0136040Y0184110D01*
X0135330Y0184440D01*
X0134600Y0184740D01*
X0133860Y0184990D01*
X0133110Y0185220D01*
X0132340Y0185400D01*
X0131570Y0185550D01*
X0130790Y0185660D01*
X0130010Y0185730D01*
X0129230Y0185760D01*
X0128440Y0185750D01*
X0127660Y0185710D01*
X0126880Y0185620D01*
X0126870Y0185620D02*
X0102500Y0185620D01*
X0101680Y0185650D01*
X0100860Y0185640D01*
X0100050Y0185590D01*
X0099230Y0185510D01*
X0098420Y0185380D01*
X0097620Y0185220D01*
X0096830Y0185020D01*
X0096050Y0184780D01*
X0095280Y0184500D01*
X0094520Y0184190D01*
X0093780Y0183850D01*
X0093050Y0183460D01*
X0092350Y0183050D01*
X0091670Y0182600D01*
X0091000Y0182120D01*
X0090370Y0181600D01*
X0089750Y0181060D01*
X0089170Y0180490D01*
X0088610Y0179890D01*
X0088080Y0179270D01*
X0087580Y0178620D01*
X0087110Y0177950D01*
X0086670Y0177260D01*
X0086270Y0176550D01*
X0085900Y0175820D01*
X0085570Y0175070D01*
X0085270Y0174310D01*
X0085010Y0173530D01*
X0084790Y0172740D01*
X0084600Y0171950D01*
X0084450Y0171140D01*
X0084340Y0170330D01*
X0084270Y0169510D01*
X0084240Y0168700D01*
X0084250Y0167880D01*
X0084300Y0167060D01*
X0084380Y0166250D01*
X0084370Y0166250D02*
X0084370Y0122500D01*
X0101250Y0131870D02*
X0101250Y0157500D01*
X0101360Y0158220D01*
X0101490Y0158950D01*
X0101670Y0159660D01*
X0101890Y0160360D01*
X0102140Y0161050D01*
X0102420Y0161730D01*
X0102750Y0162380D01*
X0103110Y0163030D01*
X0103500Y0163650D01*
X0103920Y0164250D01*
X0104380Y0164820D01*
X0104860Y0165370D01*
X0105370Y0165900D01*
X0105910Y0166400D01*
X0106480Y0166860D01*
X0107070Y0167300D01*
X0107680Y0167710D01*
X0108320Y0168080D01*
X0108970Y0168420D01*
X0109640Y0168720D01*
X0110320Y0168980D01*
X0111020Y0169210D01*
X0111730Y0169410D01*
X0112440Y0169560D01*
X0113170Y0169680D01*
X0113900Y0169760D01*
X0114630Y0169800D01*
X0115370Y0169800D01*
X0116100Y0169760D01*
X0116830Y0169680D01*
X0117560Y0169560D01*
X0118270Y0169410D01*
X0118980Y0169210D01*
X0119680Y0168980D01*
X0120360Y0168720D01*
X0121030Y0168420D01*
X0121680Y0168080D01*
X0122320Y0167710D01*
X0122930Y0167300D01*
X0123520Y0166860D01*
X0124090Y0166400D01*
X0124630Y0165900D01*
X0125140Y0165370D01*
X0125620Y0164820D01*
X0126080Y0164250D01*
X0126500Y0163650D01*
X0126890Y0163030D01*
X0127250Y0162380D01*
X0127580Y0161730D01*
X0127860Y0161050D01*
X0128110Y0160360D01*
X0128330Y0159660D01*
X0128510Y0158950D01*
X0128640Y0158220D01*
X0128750Y0157500D01*
X0128750Y0131870D01*
X0128640Y0131150D01*
X0128510Y0130420D01*
X0128330Y0129710D01*
X0128110Y0129010D01*
X0127860Y0128320D01*
X0127580Y0127640D01*
X0127250Y0126990D01*
X0126890Y0126340D01*
X0126500Y0125720D01*
X0126080Y0125120D01*
X0125620Y0124550D01*
X0125140Y0124000D01*
X0124630Y0123470D01*
X0124090Y0122970D01*
X0123520Y0122510D01*
X0122930Y0122070D01*
X0122320Y0121660D01*
X0121680Y0121290D01*
X0121030Y0120950D01*
X0120360Y0120650D01*
X0119680Y0120390D01*
X0118980Y0120160D01*
X0118270Y0119960D01*
X0117560Y0119810D01*
X0116830Y0119690D01*
X0116100Y0119610D01*
X0115370Y0119570D01*
X0114630Y0119570D01*
X0113900Y0119610D01*
X0113170Y0119690D01*
X0112440Y0119810D01*
X0111730Y0119960D01*
X0111020Y0120160D01*
X0110320Y0120390D01*
X0109640Y0120650D01*
X0108970Y0120950D01*
X0108320Y0121290D01*
X0107680Y0121660D01*
X0107070Y0122070D01*
X0106480Y0122510D01*
X0105910Y0122970D01*
X0105370Y0123470D01*
X0104860Y0124000D01*
X0104380Y0124550D01*
X0103920Y0125120D01*
X0103500Y0125720D01*
X0103110Y0126340D01*
X0102750Y0126990D01*
X0102420Y0127640D01*
X0102140Y0128320D01*
X0101890Y0129010D01*
X0101670Y0129710D01*
X0101490Y0130420D01*
X0101360Y0131150D01*
X0101250Y0131870D01*
D13*
X0100000Y0133750D02*
X0086250Y0133750D01*
X0085000Y0135000D01*
X0085000Y0141250D01*
X0100000Y0141250D01*
X0100000Y0133750D01*
X0100000Y0126250D01*
X0086250Y0126250D01*
X0085000Y0127500D01*
X0085000Y0133750D01*
X0100000Y0133750D01*
X0098370Y0127620D02*
X0102120Y0121120D01*
X0090210Y0114250D01*
X0088500Y0114710D01*
X0085380Y0120120D01*
X0098370Y0127620D01*
X0099870Y0122120D02*
X0106370Y0118370D01*
X0099490Y0106460D01*
X0097790Y0106000D01*
X0092370Y0109130D01*
X0099870Y0122120D01*
X0104370Y0118750D02*
X0111870Y0118750D01*
X0111870Y0105000D01*
X0110620Y0103750D01*
X0104370Y0103750D01*
X0104370Y0118750D01*
X0111250Y0118750D02*
X0118750Y0118750D01*
X0118750Y0105000D01*
X0117500Y0103750D01*
X0111250Y0103750D01*
X0111250Y0118750D01*
X0118120Y0118750D02*
X0125620Y0118750D01*
X0125620Y0105000D01*
X0124370Y0103750D01*
X0118120Y0103750D01*
X0118120Y0118750D01*
X0123620Y0118370D02*
X0130120Y0122120D01*
X0136990Y0110210D01*
X0136540Y0108500D01*
X0131120Y0105380D01*
X0123620Y0118370D01*
X0127880Y0121120D02*
X0131630Y0127620D01*
X0143530Y0120740D01*
X0143990Y0119040D01*
X0140870Y0113620D01*
X0127880Y0121120D01*
X0130000Y0126250D02*
X0130000Y0133750D01*
X0143750Y0133750D01*
X0145000Y0132500D01*
X0145000Y0126250D01*
X0130000Y0126250D01*
X0130000Y0133750D02*
X0130000Y0141250D01*
X0130000Y0148750D01*
X0130000Y0156250D01*
X0143750Y0156250D01*
X0145000Y0155000D01*
X0145000Y0148750D01*
X0130000Y0148750D01*
X0143750Y0148750D01*
X0145000Y0147500D01*
X0145000Y0141250D01*
X0130000Y0141250D01*
X0143750Y0141250D01*
X0145000Y0140000D01*
X0145000Y0133750D01*
X0130000Y0133750D01*
X0130000Y0156250D02*
X0130000Y0163750D01*
X0143750Y0163750D01*
X0145000Y0162500D01*
X0145000Y0156250D01*
X0130000Y0156250D01*
X0131630Y0161750D02*
X0127880Y0168240D01*
X0139780Y0175120D01*
X0141490Y0174660D01*
X0144620Y0169250D01*
X0131630Y0161750D01*
X0130120Y0167250D02*
X0123620Y0171000D01*
X0130500Y0182910D01*
X0132210Y0183370D01*
X0137620Y0180240D01*
X0130120Y0167250D01*
X0125620Y0171250D02*
X0118120Y0171250D01*
X0118120Y0185000D01*
X0119370Y0186250D01*
X0125620Y0186250D01*
X0125620Y0171250D01*
X0118750Y0171250D02*
X0111250Y0171250D01*
X0111250Y0185000D01*
X0112500Y0186250D01*
X0118750Y0186250D01*
X0118750Y0171250D01*
X0111870Y0171250D02*
X0104370Y0171250D01*
X0104370Y0185000D01*
X0105620Y0186250D01*
X0111870Y0186250D01*
X0111870Y0171250D01*
X0106370Y0171000D02*
X0099870Y0167250D01*
X0093000Y0179160D01*
X0093460Y0180870D01*
X0098870Y0183990D01*
X0106370Y0171000D01*
X0102120Y0168240D02*
X0098370Y0161750D01*
X0086460Y0168620D01*
X0086000Y0170330D01*
X0089130Y0175740D01*
X0102120Y0168240D01*
X0100000Y0163750D02*
X0100000Y0156250D01*
X0086250Y0156250D01*
X0085000Y0157500D01*
X0085000Y0163750D01*
X0100000Y0163750D01*
X0100000Y0156250D02*
X0100000Y0148750D01*
X0100000Y0141250D01*
X0086250Y0141250D01*
X0085000Y0142500D01*
X0085000Y0148750D01*
X0100000Y0148750D01*
X0086250Y0148750D01*
X0085000Y0150000D01*
X0085000Y0156250D01*
X0100000Y0156250D01*
D15*
X0100340Y0155550D02*
X0099640Y0154850D01*
X0099640Y0153450D01*
X0100340Y0152750D01*
X0103150Y0152750D01*
X0103850Y0153450D01*
X0103850Y0154850D01*
X0103150Y0155550D01*
X0100340Y0155550D01*
X0100340Y0157350D02*
X0099640Y0158060D01*
X0099640Y0159460D01*
X0100340Y0160160D01*
X0101040Y0160160D01*
X0103850Y0157350D01*
X0103850Y0160160D01*
X0102450Y0150950D02*
X0099640Y0150950D01*
X0099640Y0148150D02*
X0102450Y0148150D01*
X0103850Y0149550D01*
X0102450Y0150950D01*
X0104600Y0139280D02*
X0104600Y0136480D01*
X0104600Y0137880D02*
X0100390Y0137880D01*
X0101790Y0136480D01*
X0101090Y0134680D02*
X0100390Y0133980D01*
X0100390Y0132580D01*
X0101090Y0131880D01*
X0103900Y0131880D01*
X0104600Y0132580D01*
X0104600Y0133980D01*
X0103900Y0134680D01*
X0101090Y0134680D01*
X0100390Y0130070D02*
X0103200Y0130070D01*
X0104600Y0128670D01*
X0103200Y0127270D01*
X0100390Y0127270D01*
X0110620Y0123350D02*
X0110620Y0120550D01*
X0112020Y0119150D01*
X0113420Y0120550D01*
X0113420Y0123350D01*
X0115220Y0123350D02*
X0116620Y0123350D01*
X0115920Y0123350D02*
X0115920Y0119150D01*
X0115220Y0119150D02*
X0116620Y0119150D01*
X0118290Y0119150D02*
X0118290Y0123350D01*
X0121100Y0119150D01*
X0121100Y0123350D01*
X0125390Y0133520D02*
X0128200Y0133520D01*
X0129600Y0134920D01*
X0128200Y0136320D01*
X0125390Y0136320D01*
X0126090Y0138130D02*
X0128900Y0138130D01*
X0129600Y0138830D01*
X0129600Y0140230D01*
X0128900Y0140930D01*
X0126090Y0140930D01*
X0125390Y0140230D01*
X0125390Y0138830D01*
X0126090Y0138130D01*
X0127490Y0142730D02*
X0127490Y0144830D01*
X0128200Y0145530D01*
X0128900Y0145530D01*
X0129600Y0144830D01*
X0129600Y0143430D01*
X0128900Y0142730D01*
X0127490Y0142730D01*
X0126090Y0144130D01*
X0125390Y0145530D01*
X0142770Y0166900D02*
X0145570Y0166900D01*
X0146970Y0168300D01*
X0145570Y0169700D01*
X0142770Y0169700D01*
X0143470Y0171500D02*
X0146270Y0171500D01*
X0146970Y0172200D01*
X0146970Y0173600D01*
X0146270Y0174300D01*
X0143470Y0174300D01*
X0142770Y0173600D01*
X0142770Y0172200D01*
X0143470Y0171500D01*
X0142770Y0176100D02*
X0144870Y0176100D01*
X0144170Y0177510D01*
X0144170Y0178210D01*
X0144870Y0178910D01*
X0146270Y0178910D01*
X0146970Y0178210D01*
X0146970Y0176810D01*
X0146270Y0176100D01*
X0142770Y0176100D02*
X0142770Y0178910D01*
X0142330Y0182900D02*
X0142330Y0187100D01*
X0140230Y0185000D01*
X0143030Y0185000D01*
X0138430Y0183600D02*
X0138430Y0186400D01*
X0137730Y0187100D01*
X0136330Y0187100D01*
X0135630Y0186400D01*
X0135630Y0183600D01*
X0136330Y0182900D01*
X0137730Y0182900D01*
X0138430Y0183600D01*
X0133820Y0184300D02*
X0133820Y0187100D01*
X0131020Y0187100D02*
X0131020Y0184300D01*
X0132420Y0182900D01*
X0133820Y0184300D01*
X0096440Y0184650D02*
X0096190Y0183700D01*
X0094970Y0183000D01*
X0094020Y0183250D01*
X0092460Y0182350D02*
X0091060Y0184780D01*
X0090100Y0185040D01*
X0088890Y0184340D01*
X0088630Y0183380D01*
X0090030Y0180950D01*
X0090990Y0180700D01*
X0092200Y0181400D01*
X0092460Y0182350D01*
X0094530Y0185170D02*
X0095140Y0185520D01*
X0096090Y0185260D01*
X0096440Y0184650D01*
X0095140Y0185520D02*
X0095390Y0186480D01*
X0095040Y0187080D01*
X0094090Y0187340D01*
X0092870Y0186640D01*
X0092620Y0185680D01*
X0086720Y0183080D02*
X0088120Y0180660D01*
X0087610Y0178740D01*
X0085690Y0179260D01*
X0084290Y0181680D01*
X0085020Y0107230D02*
X0085020Y0104420D01*
X0086420Y0103020D01*
X0087820Y0104420D01*
X0087820Y0107230D01*
X0089630Y0106520D02*
X0089630Y0103720D01*
X0090330Y0103020D01*
X0091730Y0103020D01*
X0092430Y0103720D01*
X0092430Y0106520D01*
X0091730Y0107230D01*
X0090330Y0107230D01*
X0089630Y0106520D01*
X0094230Y0106520D02*
X0094230Y0105820D01*
X0094930Y0105120D01*
X0096330Y0105120D01*
X0097030Y0104420D01*
X0097030Y0103720D01*
X0096330Y0103020D01*
X0094930Y0103020D01*
X0094230Y0103720D01*
X0094230Y0104420D01*
X0094930Y0105120D01*
X0096330Y0105120D02*
X0097030Y0105820D01*
X0097030Y0106520D01*
X0096330Y0107230D01*
X0094930Y0107230D01*
X0094230Y0106520D01*
X0134460Y0106980D02*
X0134460Y0104170D01*
X0135860Y0102770D01*
X0137260Y0104170D01*
X0137260Y0106980D01*
X0139060Y0106270D02*
X0139060Y0103470D01*
X0139760Y0102770D01*
X0141170Y0102770D01*
X0141870Y0103470D01*
X0141870Y0106270D01*
X0141170Y0106980D01*
X0139760Y0106980D01*
X0139060Y0106270D01*
X0143670Y0106980D02*
X0146470Y0106980D01*
X0146470Y0106270D01*
X0143670Y0103470D01*
X0143670Y0102770D01*
D15*
X0082100Y0102100D02*
X0082100Y0187900D01*
X0147900Y0187900D01*
X0147900Y0102100D01*
X0082100Y0102100D01*
X0155000Y0102500D02*
G75*
%LPD*%
D17*
X0155000Y0102500D02*
X0155000Y0187500D01*
X0220000Y0187500D01*
X0220000Y0102500D01*
X0155000Y0102500D01*
D11*
X0157500Y0122500D02*
X0157500Y0185000D01*
X0172500Y0185000D01*
X0172500Y0132500D01*
X0157490Y0122500D02*
X0157420Y0121700D01*
X0157390Y0120900D01*
X0157400Y0120100D01*
X0157450Y0119310D01*
X0157530Y0118510D01*
X0157660Y0117720D01*
X0157820Y0116940D01*
X0158020Y0116170D01*
X0158260Y0115400D01*
X0158540Y0114650D01*
X0158850Y0113920D01*
X0159200Y0113200D01*
X0159580Y0112500D01*
X0160000Y0111810D01*
X0160440Y0111150D01*
X0160930Y0110520D01*
X0161440Y0109900D01*
X0161980Y0109310D01*
X0162550Y0108750D01*
X0163140Y0108220D01*
X0163760Y0107720D01*
X0164410Y0107240D01*
X0165080Y0106800D01*
X0165760Y0106400D01*
X0166470Y0106030D01*
X0167190Y0105690D01*
X0167930Y0105390D01*
X0168690Y0105120D01*
X0169450Y0104890D01*
X0170230Y0104700D01*
X0171010Y0104550D01*
X0171800Y0104430D01*
X0172600Y0104360D01*
X0173400Y0104320D01*
X0174200Y0104330D01*
X0175000Y0104370D01*
X0200000Y0104370D01*
X0199990Y0104370D02*
X0200790Y0104330D01*
X0201590Y0104320D01*
X0202390Y0104360D01*
X0203190Y0104430D01*
X0203980Y0104550D01*
X0204760Y0104700D01*
X0205540Y0104890D01*
X0206300Y0105120D01*
X0207060Y0105390D01*
X0207800Y0105690D01*
X0208520Y0106030D01*
X0209230Y0106400D01*
X0209910Y0106800D01*
X0210580Y0107240D01*
X0211230Y0107720D01*
X0211850Y0108220D01*
X0212440Y0108750D01*
X0213010Y0109310D01*
X0213550Y0109900D01*
X0214060Y0110520D01*
X0214550Y0111150D01*
X0214990Y0111810D01*
X0215410Y0112500D01*
X0215790Y0113200D01*
X0216140Y0113920D01*
X0216450Y0114650D01*
X0216730Y0115400D01*
X0216970Y0116170D01*
X0217170Y0116940D01*
X0217330Y0117720D01*
X0217460Y0118510D01*
X0217540Y0119310D01*
X0217590Y0120100D01*
X0217600Y0120900D01*
X0217570Y0121700D01*
X0217500Y0122500D01*
X0217500Y0185000D01*
X0202500Y0185000D01*
X0202500Y0131870D01*
X0202380Y0131120D01*
X0202220Y0130380D01*
X0202030Y0129640D01*
X0201800Y0128920D01*
X0201530Y0128200D01*
X0201230Y0127510D01*
X0200900Y0126820D01*
X0200530Y0126160D01*
X0200120Y0125520D01*
X0199690Y0124890D01*
X0199220Y0124290D01*
X0198720Y0123720D01*
X0198200Y0123170D01*
X0197650Y0122640D01*
X0197070Y0122150D01*
X0196470Y0121680D01*
X0195850Y0121250D01*
X0195200Y0120840D01*
X0194540Y0120480D01*
X0193860Y0120140D01*
X0193160Y0119840D01*
X0192450Y0119570D01*
X0191720Y0119340D01*
X0190990Y0119150D01*
X0190240Y0119000D01*
X0189490Y0118880D01*
X0188730Y0118800D01*
X0187980Y0118760D01*
X0187220Y0118750D01*
X0186460Y0118790D01*
X0185700Y0118860D01*
X0184950Y0118970D01*
X0184200Y0119120D01*
X0183460Y0119310D01*
X0182740Y0119530D01*
X0182020Y0119790D01*
X0181320Y0120080D01*
X0180640Y0120410D01*
X0179970Y0120780D01*
X0179320Y0121180D01*
X0178690Y0121600D01*
X0178090Y0122060D01*
X0177510Y0122550D01*
X0176950Y0123070D01*
X0176420Y0123620D01*
X0175920Y0124190D01*
X0175450Y0124790D01*
X0175010Y0125410D01*
X0174600Y0126050D01*
X0174230Y0126710D01*
X0173880Y0127390D01*
X0173570Y0128080D01*
X0173300Y0128790D01*
X0173070Y0129510D01*
X0172870Y0130250D01*
X0172700Y0130990D01*
X0172580Y0131740D01*
X0172490Y0132500D01*
D13*
X0172500Y0135000D02*
X0171250Y0136250D01*
X0157500Y0136250D01*
X0157500Y0128750D01*
X0172500Y0128750D01*
X0172500Y0135000D01*
X0172500Y0136870D02*
X0157500Y0136870D01*
X0157500Y0144370D01*
X0171250Y0144370D01*
X0172500Y0143120D01*
X0172500Y0136870D01*
X0170870Y0128410D02*
X0169160Y0128870D01*
X0157250Y0121990D01*
X0161000Y0115500D01*
X0173990Y0123000D01*
X0170870Y0128410D01*
X0172830Y0122740D02*
X0171120Y0122280D01*
X0164250Y0110380D01*
X0170740Y0106630D01*
X0178240Y0119620D01*
X0172830Y0122740D01*
X0176870Y0118750D02*
X0175620Y0117500D01*
X0175620Y0103750D01*
X0183120Y0103750D01*
X0183120Y0118750D01*
X0176870Y0118750D01*
X0183750Y0117500D02*
X0185000Y0118750D01*
X0191250Y0118750D01*
X0191250Y0103750D01*
X0183750Y0103750D01*
X0183750Y0117500D01*
X0191870Y0117500D02*
X0193120Y0118750D01*
X0199370Y0118750D01*
X0199370Y0103750D01*
X0191870Y0103750D01*
X0191870Y0117500D01*
X0197370Y0118530D02*
X0197830Y0120240D01*
X0203240Y0123370D01*
X0210740Y0110380D01*
X0204250Y0106630D01*
X0197370Y0118530D01*
X0202250Y0122370D02*
X0201790Y0124080D01*
X0204920Y0129490D01*
X0217910Y0121990D01*
X0214160Y0115500D01*
X0202250Y0122370D01*
X0203750Y0128750D02*
X0202500Y0130000D01*
X0202500Y0136250D01*
X0217500Y0136250D01*
X0217500Y0128750D01*
X0203750Y0128750D01*
X0203750Y0136870D02*
X0202500Y0138120D01*
X0202500Y0144370D01*
X0217500Y0144370D01*
X0217500Y0136870D01*
X0203750Y0136870D01*
X0203750Y0145000D02*
X0202500Y0146250D01*
X0202500Y0152500D01*
X0217500Y0152500D01*
X0217500Y0145000D01*
X0203750Y0145000D01*
X0203750Y0153120D02*
X0202500Y0154370D01*
X0202500Y0160620D01*
X0217500Y0160620D01*
X0217500Y0153120D01*
X0203750Y0153120D01*
X0203750Y0161250D02*
X0202500Y0162500D01*
X0202500Y0168750D01*
X0217500Y0168750D01*
X0217500Y0161250D01*
X0203750Y0161250D01*
X0203750Y0169370D02*
X0202500Y0170620D01*
X0202500Y0176870D01*
X0217500Y0176870D01*
X0217500Y0169370D01*
X0203750Y0169370D01*
X0203750Y0177500D02*
X0202500Y0178750D01*
X0202500Y0185000D01*
X0217500Y0185000D01*
X0217500Y0177500D01*
X0203750Y0177500D01*
X0172500Y0177500D02*
X0157500Y0177500D01*
X0157500Y0185000D01*
X0171250Y0185000D01*
X0172500Y0183750D01*
X0172500Y0177500D01*
X0171250Y0176870D02*
X0172500Y0175620D01*
X0172500Y0169370D01*
X0157500Y0169370D01*
X0157500Y0176870D01*
X0171250Y0176870D01*
X0171250Y0168750D02*
X0172500Y0167500D01*
X0172500Y0161250D01*
X0157500Y0161250D01*
X0157500Y0168750D01*
X0171250Y0168750D01*
X0171250Y0160620D02*
X0172500Y0159370D01*
X0172500Y0153120D01*
X0157500Y0153120D01*
X0157500Y0160620D01*
X0171250Y0160620D01*
X0171250Y0152500D02*
X0172500Y0151250D01*
X0172500Y0145000D01*
X0157500Y0145000D01*
X0157500Y0152500D01*
X0171250Y0152500D01*
D15*
X0173640Y0151640D02*
X0176450Y0151640D01*
X0177850Y0150240D01*
X0176450Y0148830D01*
X0173640Y0148830D01*
X0174340Y0153440D02*
X0173640Y0154140D01*
X0173640Y0155540D01*
X0174340Y0156240D01*
X0177150Y0156240D01*
X0177850Y0155540D01*
X0177850Y0154140D01*
X0177150Y0153440D01*
X0174340Y0153440D01*
X0174340Y0158040D02*
X0173640Y0158740D01*
X0173640Y0160140D01*
X0174340Y0160850D01*
X0175040Y0160850D01*
X0177850Y0158040D01*
X0177850Y0160850D01*
X0176240Y0172520D02*
X0173430Y0172520D01*
X0173430Y0175320D02*
X0176240Y0175320D01*
X0177640Y0173920D01*
X0176240Y0172520D01*
X0176940Y0177130D02*
X0174130Y0177130D01*
X0173430Y0177830D01*
X0173430Y0179230D01*
X0174130Y0179930D01*
X0176940Y0179930D01*
X0177640Y0179230D01*
X0177640Y0177830D01*
X0176940Y0177130D01*
X0176940Y0181730D02*
X0177640Y0182430D01*
X0177640Y0183830D01*
X0176940Y0184530D01*
X0176240Y0184530D01*
X0175540Y0183830D01*
X0175540Y0183130D01*
X0175540Y0183830D02*
X0174840Y0184530D01*
X0174130Y0184530D01*
X0173430Y0183830D01*
X0173430Y0182430D01*
X0174130Y0181730D01*
X0197890Y0170460D02*
X0199990Y0168350D01*
X0199990Y0171160D01*
X0197890Y0170460D02*
X0202100Y0170460D01*
X0201400Y0166550D02*
X0198590Y0166550D01*
X0197890Y0165850D01*
X0197890Y0164450D01*
X0198590Y0163750D01*
X0201400Y0163750D01*
X0202100Y0164450D01*
X0202100Y0165850D01*
X0201400Y0166550D01*
X0200700Y0161950D02*
X0197890Y0161950D01*
X0197890Y0159150D02*
X0200700Y0159150D01*
X0202100Y0160550D01*
X0200700Y0161950D01*
X0201270Y0147030D02*
X0199870Y0147030D01*
X0199170Y0146330D01*
X0199170Y0145630D01*
X0199870Y0144230D01*
X0197770Y0144230D01*
X0197770Y0147030D01*
X0201270Y0147030D02*
X0201970Y0146330D01*
X0201970Y0144930D01*
X0201270Y0144230D01*
X0201270Y0142430D02*
X0198470Y0142430D01*
X0197770Y0141730D01*
X0197770Y0140330D01*
X0198470Y0139630D01*
X0201270Y0139630D01*
X0201970Y0140330D01*
X0201970Y0141730D01*
X0201270Y0142430D01*
X0200570Y0137820D02*
X0197770Y0137820D01*
X0197770Y0135020D02*
X0200570Y0135020D01*
X0201970Y0136420D01*
X0200570Y0137820D01*
X0200070Y0131590D02*
X0199580Y0130100D01*
X0199580Y0128120D01*
X0201070Y0129600D01*
X0202060Y0129600D01*
X0202550Y0129110D01*
X0202550Y0128120D01*
X0201560Y0127130D01*
X0200570Y0127130D01*
X0199580Y0128120D01*
X0199300Y0125850D02*
X0197310Y0127830D01*
X0196320Y0127830D01*
X0195330Y0126840D01*
X0195330Y0125850D01*
X0197310Y0123870D01*
X0198310Y0123870D01*
X0199300Y0124860D01*
X0199300Y0125850D01*
X0195550Y0123090D02*
X0195550Y0121110D01*
X0193560Y0121110D01*
X0191580Y0123090D01*
X0190160Y0122770D02*
X0190160Y0123480D01*
X0187350Y0123480D01*
X0185550Y0122770D02*
X0184850Y0123480D01*
X0183450Y0123480D01*
X0182750Y0122770D01*
X0182750Y0119970D01*
X0183450Y0119270D01*
X0184850Y0119270D01*
X0185550Y0119970D01*
X0185550Y0122770D01*
X0187350Y0119970D02*
X0187350Y0119270D01*
X0187350Y0119970D02*
X0190160Y0122770D01*
X0193560Y0125070D02*
X0195550Y0123090D01*
X0180950Y0123480D02*
X0180950Y0120670D01*
X0179550Y0119270D01*
X0178150Y0120670D01*
X0178150Y0123480D01*
X0176320Y0127830D02*
X0177720Y0129240D01*
X0176320Y0130640D01*
X0173520Y0130640D01*
X0174220Y0132440D02*
X0177020Y0132440D01*
X0177720Y0133140D01*
X0177720Y0134540D01*
X0177020Y0135240D01*
X0174220Y0135240D01*
X0173520Y0134540D01*
X0173520Y0133140D01*
X0174220Y0132440D01*
X0173520Y0127830D02*
X0176320Y0127830D01*
X0174920Y0137040D02*
X0173520Y0138440D01*
X0177720Y0138440D01*
X0177720Y0137040D02*
X0177720Y0139850D01*
X0160070Y0114000D02*
X0158090Y0112020D01*
X0158090Y0110040D01*
X0160070Y0110040D01*
X0162050Y0112020D01*
X0163320Y0110740D02*
X0164310Y0109750D01*
X0163820Y0110250D02*
X0160850Y0107280D01*
X0160350Y0107770D02*
X0161340Y0106780D01*
X0162520Y0105600D02*
X0165490Y0108570D01*
X0164500Y0103620D01*
X0167480Y0106590D01*
D15*
X0154600Y0102100D02*
X0154600Y0187900D01*
X0220400Y0187900D01*
X0220400Y0102100D01*
X0154600Y0102100D01*
X0227500Y0102500D02*
G75*
%LPD*%
D17*
X0227500Y0102500D02*
X0227500Y0187500D01*
X0292500Y0187500D01*
X0292500Y0102500D01*
X0227500Y0102500D01*
D11*
X0231250Y0118750D02*
X0244330Y0105670D01*
X0247450Y0104370D02*
X0272540Y0104370D01*
X0275670Y0105670D02*
X0288790Y0118790D01*
X0289370Y0120190D02*
X0289370Y0133700D01*
X0287570Y0138050D02*
X0274730Y0150890D01*
X0272350Y0151870D02*
X0252970Y0151870D01*
X0251100Y0152650D02*
X0245310Y0158440D01*
X0244370Y0160690D02*
X0244370Y0163110D01*
X0245700Y0166330D02*
X0250590Y0171210D01*
X0252180Y0171870D02*
X0267020Y0171870D01*
X0268900Y0171100D02*
X0277500Y0162500D01*
X0277860Y0162120D01*
X0278250Y0161770D01*
X0278670Y0161450D01*
X0279100Y0161160D01*
X0279560Y0160910D01*
X0280030Y0160690D01*
X0280520Y0160500D01*
X0281020Y0160350D01*
X0281530Y0160240D01*
X0282050Y0160160D01*
X0282570Y0160120D01*
X0283090Y0160130D01*
X0283620Y0160160D01*
X0284130Y0160240D01*
X0284640Y0160360D01*
X0285140Y0160510D01*
X0285630Y0160700D01*
X0286100Y0160920D01*
X0286560Y0161180D01*
X0286990Y0161470D01*
X0287410Y0161790D01*
X0287800Y0162140D01*
X0288160Y0162520D01*
X0288490Y0162920D01*
X0288790Y0163350D01*
X0289060Y0163790D01*
X0289300Y0164260D01*
X0289500Y0164740D01*
X0289670Y0165240D01*
X0289800Y0165740D01*
X0289890Y0166260D01*
X0289940Y0166780D01*
X0289960Y0167300D01*
X0289940Y0167820D01*
X0289880Y0168340D01*
X0289780Y0168860D01*
X0289640Y0169360D01*
X0289470Y0169860D01*
X0289260Y0170340D01*
X0289020Y0170800D01*
X0288750Y0171240D01*
X0288750Y0171250D02*
X0276030Y0183960D01*
X0272030Y0185620D02*
X0249000Y0185620D01*
X0243230Y0183230D02*
X0232360Y0173610D01*
X0229370Y0168170D02*
X0229370Y0156130D01*
X0231250Y0151250D02*
X0245070Y0139290D01*
X0248750Y0137500D02*
X0265000Y0137500D01*
X0270000Y0136250D02*
X0272500Y0133750D01*
X0274370Y0128050D02*
X0274370Y0126130D01*
X0274380Y0126130D02*
X0274370Y0125640D01*
X0274330Y0125160D01*
X0274260Y0124670D01*
X0274150Y0124200D01*
X0274010Y0123730D01*
X0273830Y0123270D01*
X0273630Y0122830D01*
X0273390Y0122400D01*
X0273120Y0122000D01*
X0272830Y0121610D01*
X0272500Y0121240D01*
X0267500Y0118750D02*
X0253750Y0118750D01*
X0248750Y0121250D02*
X0242500Y0127500D01*
X0242500Y0127490D02*
X0242140Y0127870D01*
X0241750Y0128220D01*
X0241330Y0128540D01*
X0240900Y0128830D01*
X0240440Y0129080D01*
X0239970Y0129300D01*
X0239480Y0129490D01*
X0238980Y0129640D01*
X0238470Y0129750D01*
X0237950Y0129830D01*
X0237430Y0129870D01*
X0236910Y0129860D01*
X0236380Y0129830D01*
X0235870Y0129750D01*
X0235360Y0129630D01*
X0234860Y0129480D01*
X0234370Y0129290D01*
X0233900Y0129070D01*
X0233440Y0128810D01*
X0233010Y0128520D01*
X0232590Y0128200D01*
X0232200Y0127850D01*
X0231840Y0127470D01*
X0231510Y0127070D01*
X0231210Y0126640D01*
X0230940Y0126200D01*
X0230700Y0125730D01*
X0230500Y0125250D01*
X0230330Y0124750D01*
X0230200Y0124250D01*
X0230110Y0123730D01*
X0230060Y0123210D01*
X0230040Y0122690D01*
X0230060Y0122170D01*
X0230120Y0121650D01*
X0230220Y0121130D01*
X0230360Y0120630D01*
X0230530Y0120130D01*
X0230740Y0119650D01*
X0230980Y0119190D01*
X0231250Y0118750D01*
X0244320Y0105660D02*
X0244610Y0105400D01*
X0244910Y0105170D01*
X0245240Y0104960D01*
X0245580Y0104780D01*
X0245940Y0104640D01*
X0246310Y0104520D01*
X0246680Y0104440D01*
X0247060Y0104390D01*
X0247450Y0104370D01*
X0253740Y0118750D02*
X0253220Y0118800D01*
X0252710Y0118900D01*
X0252210Y0119020D01*
X0251710Y0119190D01*
X0251230Y0119390D01*
X0250760Y0119620D01*
X0250320Y0119890D01*
X0249890Y0120180D01*
X0249480Y0120510D01*
X0249100Y0120870D01*
X0248750Y0121250D01*
X0274370Y0128060D02*
X0274390Y0128610D01*
X0274370Y0129170D01*
X0274310Y0129730D01*
X0274220Y0130280D01*
X0274080Y0130820D01*
X0273910Y0131350D01*
X0273690Y0131870D01*
X0273440Y0132370D01*
X0273160Y0132850D01*
X0272840Y0133310D01*
X0272490Y0133750D01*
X0270000Y0136250D02*
X0269600Y0136520D01*
X0269190Y0136760D01*
X0268760Y0136980D01*
X0268310Y0137160D01*
X0267850Y0137310D01*
X0267390Y0137420D01*
X0266910Y0137510D01*
X0266440Y0137560D01*
X0265960Y0137570D01*
X0265480Y0137550D01*
X0265000Y0137500D01*
X0272350Y0151880D02*
X0272680Y0151860D01*
X0273010Y0151820D01*
X0273330Y0151730D01*
X0273640Y0151620D01*
X0273940Y0151480D01*
X0274220Y0151310D01*
X0274490Y0151120D01*
X0274730Y0150890D01*
X0287580Y0138060D02*
X0287900Y0137700D01*
X0288200Y0137320D01*
X0288470Y0136920D01*
X0288710Y0136500D01*
X0288910Y0136060D01*
X0289080Y0135600D01*
X0289210Y0135140D01*
X0289300Y0134660D01*
X0289360Y0134180D01*
X0289380Y0133700D01*
X0289380Y0120190D02*
X0289360Y0119930D01*
X0289310Y0119680D01*
X0289230Y0119430D01*
X0289110Y0119200D01*
X0288970Y0118980D01*
X0288800Y0118790D01*
X0275670Y0105660D02*
X0275380Y0105400D01*
X0275080Y0105170D01*
X0274750Y0104960D01*
X0274410Y0104780D01*
X0274050Y0104640D01*
X0273680Y0104520D01*
X0273310Y0104440D01*
X0272930Y0104390D01*
X0272540Y0104370D01*
X0267500Y0118740D02*
X0267980Y0118770D01*
X0268450Y0118840D01*
X0268930Y0118940D01*
X0269390Y0119070D01*
X0269840Y0119240D01*
X0270280Y0119440D01*
X0270700Y0119670D01*
X0271100Y0119930D01*
X0271490Y0120220D01*
X0271850Y0120540D01*
X0272190Y0120880D01*
X0272500Y0121240D01*
X0248750Y0137500D02*
X0248330Y0137540D01*
X0247920Y0137620D01*
X0247510Y0137730D01*
X0247120Y0137860D01*
X0246730Y0138030D01*
X0246360Y0138230D01*
X0246010Y0138460D01*
X0245680Y0138710D01*
X0245370Y0138990D01*
X0245080Y0139300D01*
X0251100Y0152650D02*
X0251320Y0152450D01*
X0251560Y0152280D01*
X0251820Y0152130D01*
X0252090Y0152020D01*
X0252380Y0151940D01*
X0252670Y0151890D01*
X0252970Y0151870D01*
X0245300Y0158430D02*
X0245090Y0158670D01*
X0244910Y0158920D01*
X0244750Y0159190D01*
X0244610Y0159470D01*
X0244510Y0159760D01*
X0244430Y0160070D01*
X0244390Y0160380D01*
X0244370Y0160690D01*
X0244370Y0163110D02*
X0244390Y0163510D01*
X0244440Y0163900D01*
X0244530Y0164290D01*
X0244640Y0164670D01*
X0244800Y0165030D01*
X0244980Y0165380D01*
X0245190Y0165720D01*
X0245430Y0166030D01*
X0245700Y0166330D01*
X0250590Y0171210D02*
X0250810Y0171410D01*
X0251050Y0171570D01*
X0251320Y0171700D01*
X0251600Y0171790D01*
X0251890Y0171850D01*
X0252180Y0171870D01*
X0249000Y0185620D02*
X0248470Y0185600D01*
X0247940Y0185550D01*
X0247410Y0185460D01*
X0246890Y0185340D01*
X0246380Y0185190D01*
X0245880Y0185000D01*
X0245400Y0184780D01*
X0244920Y0184530D01*
X0244470Y0184250D01*
X0244040Y0183940D01*
X0243630Y0183600D01*
X0243240Y0183230D01*
X0232350Y0173610D02*
X0231950Y0173260D01*
X0231570Y0172890D01*
X0231220Y0172490D01*
X0230890Y0172080D01*
X0230590Y0171640D01*
X0230320Y0171180D01*
X0230080Y0170710D01*
X0229870Y0170220D01*
X0229700Y0169720D01*
X0229550Y0169210D01*
X0229440Y0168690D01*
X0229370Y0168160D01*
X0229370Y0156130D02*
X0229380Y0155640D01*
X0229420Y0155160D01*
X0229490Y0154670D01*
X0229600Y0154200D01*
X0229740Y0153730D01*
X0229920Y0153270D01*
X0230120Y0152830D01*
X0230360Y0152400D01*
X0230630Y0152000D01*
X0230920Y0151610D01*
X0231250Y0151240D01*
X0267020Y0171870D02*
X0267320Y0171850D01*
X0267610Y0171800D01*
X0267900Y0171720D01*
X0268170Y0171610D01*
X0268430Y0171460D01*
X0268670Y0171290D01*
X0268890Y0171090D01*
X0276030Y0183960D02*
X0275710Y0184260D01*
X0275360Y0184540D01*
X0274990Y0184790D01*
X0274600Y0185000D01*
X0274200Y0185190D01*
X0273780Y0185340D01*
X0273350Y0185460D01*
X0272920Y0185550D01*
X0272470Y0185600D01*
X0272030Y0185620D01*
D13*
X0277500Y0183120D02*
X0278750Y0181870D01*
X0278750Y0175620D01*
X0263750Y0175620D01*
X0263750Y0183120D01*
X0277500Y0183120D01*
X0283120Y0177500D02*
X0284370Y0176250D01*
X0284370Y0170000D01*
X0269370Y0170000D01*
X0269370Y0177500D01*
X0283120Y0177500D01*
X0288750Y0170620D02*
X0275000Y0170620D01*
X0275000Y0163120D01*
X0290000Y0163120D01*
X0290000Y0169370D01*
X0288750Y0170620D01*
X0278010Y0148750D02*
X0279260Y0147500D01*
X0279260Y0141250D01*
X0264260Y0141250D01*
X0264260Y0148750D01*
X0278010Y0148750D01*
X0284630Y0141980D02*
X0270880Y0141980D01*
X0270880Y0134480D01*
X0285880Y0134480D01*
X0285880Y0140730D01*
X0284630Y0141980D01*
X0288750Y0134370D02*
X0290000Y0133120D01*
X0290000Y0126870D01*
X0275000Y0126870D01*
X0275000Y0134370D01*
X0288750Y0134370D01*
X0288750Y0127500D02*
X0290000Y0126250D01*
X0290000Y0120000D01*
X0275000Y0120000D01*
X0275000Y0127500D01*
X0288750Y0127500D01*
X0283750Y0120620D02*
X0285000Y0119370D01*
X0285000Y0113120D01*
X0270000Y0113120D01*
X0270000Y0120620D01*
X0283750Y0120620D01*
X0277500Y0114370D02*
X0278750Y0113120D01*
X0278750Y0106870D01*
X0263750Y0106870D01*
X0263750Y0114370D01*
X0277500Y0114370D01*
X0264370Y0118750D02*
X0264370Y0103750D01*
X0256870Y0103750D01*
X0256870Y0117500D01*
X0258120Y0118750D01*
X0264370Y0118750D01*
X0257500Y0113120D02*
X0256250Y0114370D01*
X0242500Y0114370D01*
X0242500Y0106870D01*
X0257500Y0106870D01*
X0257500Y0113120D01*
X0250000Y0113120D02*
X0235000Y0113120D01*
X0235000Y0120620D01*
X0248750Y0120620D01*
X0250000Y0119370D01*
X0250000Y0113120D01*
X0243750Y0119370D02*
X0228750Y0119370D01*
X0228750Y0126870D01*
X0242500Y0126870D01*
X0243750Y0125620D01*
X0243750Y0119370D01*
X0256870Y0137500D02*
X0256870Y0151250D01*
X0258120Y0152500D01*
X0264370Y0152500D01*
X0264370Y0137500D01*
X0256870Y0137500D01*
X0257310Y0141320D02*
X0242310Y0141320D01*
X0242310Y0148820D01*
X0256060Y0148820D01*
X0257310Y0147570D01*
X0257310Y0141320D01*
X0249260Y0147860D02*
X0234260Y0147860D01*
X0234260Y0155360D01*
X0248010Y0155360D01*
X0249260Y0154110D01*
X0249260Y0147860D01*
X0244370Y0155000D02*
X0229370Y0155000D01*
X0229370Y0162500D01*
X0243120Y0162500D01*
X0244370Y0161250D01*
X0244370Y0155000D01*
X0244370Y0163120D02*
X0229370Y0163120D01*
X0229370Y0170620D01*
X0243120Y0170620D01*
X0244370Y0169370D01*
X0244370Y0163120D01*
X0250620Y0170000D02*
X0235620Y0170000D01*
X0235620Y0177500D01*
X0249370Y0177500D01*
X0250620Y0176250D01*
X0250620Y0170000D01*
X0256870Y0171870D02*
X0256870Y0185620D01*
X0258120Y0186870D01*
X0264370Y0186870D01*
X0264370Y0171870D01*
X0256870Y0171870D01*
X0257500Y0175620D02*
X0242500Y0175620D01*
X0242500Y0183120D01*
X0256250Y0183120D01*
X0257500Y0181870D01*
X0257500Y0175620D01*
D15*
X0254140Y0182270D02*
X0252740Y0182270D01*
X0252040Y0182970D01*
X0252040Y0184370D01*
X0254140Y0184370D01*
X0254850Y0183670D01*
X0254850Y0182970D01*
X0254140Y0182270D01*
X0252040Y0184370D02*
X0253440Y0185770D01*
X0254850Y0186480D01*
X0250240Y0185770D02*
X0250240Y0182970D01*
X0249540Y0182270D01*
X0248140Y0182270D01*
X0247440Y0182970D01*
X0247440Y0185770D01*
X0248140Y0186480D01*
X0249540Y0186480D01*
X0250240Y0185770D01*
X0245640Y0186480D02*
X0245640Y0183670D01*
X0244240Y0182270D01*
X0242830Y0183670D01*
X0242830Y0186480D01*
X0247830Y0167100D02*
X0247830Y0164300D01*
X0249240Y0162900D01*
X0250640Y0164300D01*
X0250640Y0167100D01*
X0252440Y0166400D02*
X0252440Y0163600D01*
X0253140Y0162900D01*
X0254540Y0162900D01*
X0255240Y0163600D01*
X0255240Y0166400D01*
X0254540Y0167100D01*
X0253140Y0167100D01*
X0252440Y0166400D01*
X0257040Y0167100D02*
X0257040Y0165000D01*
X0258440Y0165700D01*
X0259140Y0165700D01*
X0259850Y0165000D01*
X0259850Y0163600D01*
X0259140Y0162900D01*
X0257740Y0162900D01*
X0257040Y0163600D01*
X0257040Y0167100D02*
X0259850Y0167100D01*
X0259630Y0156290D02*
X0258930Y0155590D01*
X0258930Y0152790D01*
X0259630Y0152090D01*
X0261040Y0152090D01*
X0261740Y0152790D01*
X0261740Y0155590D01*
X0261040Y0156290D01*
X0259630Y0156290D01*
X0257130Y0156290D02*
X0257130Y0153490D01*
X0255730Y0152090D01*
X0254330Y0153490D01*
X0254330Y0156290D01*
X0263540Y0154190D02*
X0266340Y0154190D01*
X0265640Y0152090D02*
X0265640Y0156290D01*
X0263540Y0154190D01*
X0276930Y0151890D02*
X0276930Y0149910D01*
X0278910Y0149910D01*
X0280890Y0151890D01*
X0278910Y0153870D02*
X0276930Y0151890D01*
X0279690Y0148140D02*
X0279690Y0147150D01*
X0280680Y0146160D01*
X0281670Y0146160D01*
X0283650Y0148140D01*
X0283650Y0149130D01*
X0282660Y0150120D01*
X0281670Y0150120D01*
X0279690Y0148140D01*
X0282940Y0144880D02*
X0282940Y0143890D01*
X0283930Y0142900D01*
X0284920Y0142900D01*
X0285420Y0143400D01*
X0285420Y0144390D01*
X0284920Y0144880D01*
X0285420Y0144390D02*
X0286410Y0144390D01*
X0286900Y0144880D01*
X0286900Y0145870D01*
X0285910Y0146870D01*
X0284920Y0146870D01*
X0262190Y0123980D02*
X0262190Y0119770D01*
X0260790Y0119770D02*
X0263600Y0119770D01*
X0260790Y0122570D02*
X0262190Y0123980D01*
X0258990Y0123270D02*
X0258990Y0120470D01*
X0258290Y0119770D01*
X0256890Y0119770D01*
X0256190Y0120470D01*
X0256190Y0123270D01*
X0256890Y0123980D01*
X0258290Y0123980D01*
X0258990Y0123270D01*
X0254390Y0123980D02*
X0254390Y0121170D01*
X0252990Y0119770D01*
X0251580Y0121170D01*
X0251580Y0123980D01*
X0243600Y0128520D02*
X0243600Y0132730D01*
X0240790Y0132730D02*
X0240790Y0128520D01*
X0239120Y0128520D02*
X0237720Y0128520D01*
X0238420Y0128520D02*
X0238420Y0132730D01*
X0237720Y0132730D02*
X0239120Y0132730D01*
X0240790Y0132730D02*
X0243600Y0128520D01*
X0235920Y0129920D02*
X0235920Y0132730D01*
X0235920Y0129920D02*
X0234520Y0128520D01*
X0233120Y0129920D01*
X0233120Y0132730D01*
X0279430Y0107990D02*
X0281410Y0106010D01*
X0283390Y0106010D01*
X0283390Y0107990D01*
X0281410Y0109970D01*
X0283180Y0110750D02*
X0283180Y0111740D01*
X0284170Y0112730D01*
X0285160Y0112730D01*
X0287140Y0110750D01*
X0287140Y0109760D01*
X0286150Y0108770D01*
X0285160Y0108770D01*
X0283180Y0110750D01*
X0286440Y0114010D02*
X0286440Y0115000D01*
X0287430Y0115990D01*
X0288420Y0115990D01*
X0288910Y0115490D01*
X0288910Y0111530D01*
X0290890Y0113510D01*
X0286270Y0175340D02*
X0286770Y0175840D01*
X0290730Y0175840D01*
X0291230Y0176330D01*
X0289240Y0178310D01*
X0287470Y0179090D02*
X0287470Y0180080D01*
X0286480Y0181070D01*
X0285490Y0181070D01*
X0283510Y0179090D01*
X0283510Y0178100D01*
X0284500Y0177110D01*
X0285490Y0177110D01*
X0287470Y0179090D01*
X0284710Y0182840D02*
X0282730Y0180860D01*
X0280750Y0180860D01*
X0280750Y0182840D01*
X0282730Y0184820D01*
D15*
X0227100Y0102100D02*
X0227100Y0187900D01*
X0292900Y0187900D01*
X0292900Y0102100D01*
X0227100Y0102100D01*
X0300000Y0102500D02*
G75*
%LPD*%
D17*
X0300000Y0102500D02*
X0300000Y0187500D01*
X0365000Y0187500D01*
X0365000Y0102500D01*
X0300000Y0102500D01*
D11*
X0308750Y0104370D02*
X0356500Y0104370D01*
X0356940Y0104390D01*
X0357390Y0104440D01*
X0357820Y0104530D01*
X0358250Y0104660D01*
X0358660Y0104820D01*
X0359060Y0105020D01*
X0359440Y0105250D01*
X0359800Y0105500D01*
X0360140Y0105790D01*
X0360460Y0106110D01*
X0360750Y0106450D01*
X0361000Y0106810D01*
X0361230Y0107190D01*
X0361430Y0107590D01*
X0361590Y0108000D01*
X0361720Y0108430D01*
X0361810Y0108860D01*
X0361860Y0109310D01*
X0361880Y0109750D01*
X0361870Y0109750D02*
X0361870Y0114000D01*
X0361880Y0114000D02*
X0361860Y0114440D01*
X0361810Y0114890D01*
X0361720Y0115320D01*
X0361590Y0115750D01*
X0361430Y0116160D01*
X0361230Y0116560D01*
X0361000Y0116940D01*
X0360750Y0117300D01*
X0360460Y0117640D01*
X0360140Y0117960D01*
X0359800Y0118250D01*
X0359440Y0118500D01*
X0359060Y0118730D01*
X0358660Y0118930D01*
X0358250Y0119090D01*
X0357820Y0119220D01*
X0357390Y0119310D01*
X0356940Y0119360D01*
X0356500Y0119380D01*
X0356500Y0119370D02*
X0321870Y0119370D01*
X0321540Y0119390D01*
X0321220Y0119440D01*
X0320900Y0119520D01*
X0320600Y0119640D01*
X0320310Y0119790D01*
X0320030Y0119970D01*
X0319780Y0120170D01*
X0319540Y0120410D01*
X0319340Y0120660D01*
X0319160Y0120940D01*
X0319010Y0121230D01*
X0318890Y0121530D01*
X0318810Y0121850D01*
X0318760Y0122170D01*
X0318740Y0122500D01*
X0318750Y0122500D02*
X0318750Y0135000D01*
X0318740Y0135000D02*
X0318760Y0135330D01*
X0318810Y0135650D01*
X0318890Y0135970D01*
X0319010Y0136270D01*
X0319160Y0136570D01*
X0319340Y0136840D01*
X0319540Y0137090D01*
X0319780Y0137330D01*
X0320030Y0137530D01*
X0320310Y0137710D01*
X0320600Y0137860D01*
X0320900Y0137980D01*
X0321220Y0138060D01*
X0321540Y0138110D01*
X0321870Y0138130D01*
X0321870Y0138120D02*
X0334000Y0138120D01*
X0334440Y0138140D01*
X0334890Y0138190D01*
X0335320Y0138280D01*
X0335750Y0138410D01*
X0336160Y0138570D01*
X0336560Y0138770D01*
X0336940Y0139000D01*
X0337300Y0139250D01*
X0337640Y0139540D01*
X0337960Y0139860D01*
X0338250Y0140200D01*
X0338500Y0140560D01*
X0338730Y0140940D01*
X0338930Y0141340D01*
X0339090Y0141750D01*
X0339220Y0142180D01*
X0339310Y0142610D01*
X0339360Y0143060D01*
X0339380Y0143500D01*
X0339370Y0143500D02*
X0339370Y0147110D01*
X0339350Y0147520D01*
X0339300Y0147940D01*
X0339210Y0148340D01*
X0339080Y0148740D01*
X0338920Y0149120D01*
X0338730Y0149490D01*
X0338510Y0149840D01*
X0338260Y0150170D01*
X0337980Y0150480D01*
X0337670Y0150760D01*
X0337340Y0151010D01*
X0336990Y0151230D01*
X0336620Y0151420D01*
X0336240Y0151580D01*
X0335840Y0151710D01*
X0335440Y0151800D01*
X0335020Y0151850D01*
X0334610Y0151870D01*
X0321770Y0151870D01*
X0321770Y0151880D02*
X0321390Y0151900D01*
X0321010Y0151960D01*
X0320650Y0152060D01*
X0320290Y0152190D01*
X0319950Y0152370D01*
X0319630Y0152580D01*
X0319330Y0152810D01*
X0319060Y0153080D01*
X0318830Y0153380D01*
X0318620Y0153700D01*
X0318440Y0154040D01*
X0318310Y0154400D01*
X0318210Y0154760D01*
X0318150Y0155140D01*
X0318130Y0155520D01*
X0318120Y0155520D02*
X0318120Y0167240D01*
X0318140Y0167630D01*
X0318200Y0168020D01*
X0318290Y0168400D01*
X0318420Y0168770D01*
X0318590Y0169130D01*
X0318790Y0169460D01*
X0319030Y0169780D01*
X0319290Y0170070D01*
X0319580Y0170330D01*
X0319900Y0170570D01*
X0320230Y0170770D01*
X0320590Y0170940D01*
X0320960Y0171070D01*
X0321340Y0171160D01*
X0321730Y0171220D01*
X0322120Y0171240D01*
X0322120Y0171250D02*
X0355230Y0171250D01*
X0355730Y0171270D01*
X0356220Y0171320D01*
X0356710Y0171420D01*
X0357190Y0171540D01*
X0357660Y0171710D01*
X0358110Y0171910D01*
X0358550Y0172140D01*
X0358970Y0172400D01*
X0359370Y0172700D01*
X0359750Y0173020D01*
X0360100Y0173370D01*
X0360420Y0173750D01*
X0360720Y0174150D01*
X0360980Y0174570D01*
X0361210Y0175010D01*
X0361410Y0175460D01*
X0361580Y0175930D01*
X0361700Y0176410D01*
X0361800Y0176900D01*
X0361850Y0177390D01*
X0361870Y0177890D01*
X0361870Y0179490D01*
X0361850Y0180000D01*
X0361790Y0180500D01*
X0361700Y0180990D01*
X0361570Y0181480D01*
X0361400Y0181960D01*
X0361200Y0182420D01*
X0360960Y0182870D01*
X0360700Y0183300D01*
X0360400Y0183700D01*
X0360070Y0184090D01*
X0359710Y0184450D01*
X0359320Y0184780D01*
X0358920Y0185080D01*
X0358490Y0185340D01*
X0358040Y0185580D01*
X0357580Y0185780D01*
X0357100Y0185950D01*
X0356610Y0186080D01*
X0356120Y0186170D01*
X0355620Y0186230D01*
X0355110Y0186250D01*
X0308750Y0186250D01*
X0308260Y0186230D01*
X0307770Y0186170D01*
X0307290Y0186080D01*
X0306820Y0185940D01*
X0306360Y0185770D01*
X0305910Y0185570D01*
X0305480Y0185330D01*
X0305080Y0185060D01*
X0304690Y0184750D01*
X0304330Y0184420D01*
X0304000Y0184060D01*
X0303690Y0183670D01*
X0303420Y0183270D01*
X0303180Y0182840D01*
X0302980Y0182390D01*
X0302810Y0181930D01*
X0302670Y0181460D01*
X0302580Y0180980D01*
X0302520Y0180490D01*
X0302500Y0180000D01*
X0302500Y0111250D01*
X0302500Y0111240D02*
X0302490Y0110750D01*
X0302520Y0110260D01*
X0302590Y0109770D01*
X0302700Y0109290D01*
X0302840Y0108820D01*
X0303010Y0108360D01*
X0303220Y0107920D01*
X0303460Y0107490D01*
X0303730Y0107080D01*
X0304040Y0106700D01*
X0304370Y0106330D01*
X0304720Y0105990D01*
X0305100Y0105680D01*
X0305510Y0105400D01*
X0305930Y0105150D01*
X0306370Y0104940D01*
X0306830Y0104750D01*
X0307300Y0104600D01*
X0307770Y0104490D01*
X0308260Y0104410D01*
X0308750Y0104370D01*
D13*
X0307500Y0103750D02*
X0307500Y0117500D01*
X0308750Y0118750D01*
X0315000Y0118750D01*
X0315000Y0103750D01*
X0307500Y0103750D01*
X0316250Y0103750D02*
X0316250Y0117500D01*
X0317500Y0118750D01*
X0302500Y0118750D01*
X0302500Y0126250D01*
X0316250Y0126250D01*
X0317500Y0125000D01*
X0317500Y0118750D01*
X0323750Y0118750D01*
X0323750Y0103750D01*
X0316250Y0103750D01*
X0325000Y0103750D02*
X0325000Y0117500D01*
X0326250Y0118750D01*
X0332500Y0118750D01*
X0332500Y0103750D01*
X0325000Y0103750D01*
X0333750Y0103750D02*
X0333750Y0117500D01*
X0335000Y0118750D01*
X0341250Y0118750D01*
X0341250Y0103750D01*
X0333750Y0103750D01*
X0342500Y0103750D02*
X0342500Y0117500D01*
X0343750Y0118750D01*
X0350000Y0118750D01*
X0350000Y0103750D01*
X0342500Y0103750D01*
X0351250Y0103750D02*
X0351250Y0117500D01*
X0352500Y0118750D01*
X0358750Y0118750D01*
X0358750Y0103750D01*
X0351250Y0103750D01*
X0317500Y0126250D02*
X0302500Y0126250D01*
X0302500Y0133750D01*
X0316250Y0133750D01*
X0317500Y0132500D01*
X0317500Y0126250D01*
X0317500Y0133750D02*
X0302500Y0133750D01*
X0302500Y0141250D01*
X0302500Y0148750D01*
X0316250Y0148750D01*
X0317500Y0147500D01*
X0317500Y0141250D01*
X0302500Y0141250D01*
X0316250Y0141250D01*
X0317500Y0140000D01*
X0317500Y0133750D01*
X0313120Y0141250D02*
X0313120Y0148750D01*
X0326870Y0148750D01*
X0328120Y0147500D01*
X0328120Y0141250D01*
X0313120Y0141250D01*
X0317500Y0148750D02*
X0302500Y0148750D01*
X0302500Y0156250D01*
X0316250Y0156250D01*
X0317500Y0155000D01*
X0317500Y0148750D01*
X0323120Y0148750D02*
X0336870Y0148750D01*
X0338120Y0147500D01*
X0338120Y0141250D01*
X0323120Y0141250D01*
X0323120Y0148750D01*
X0317500Y0156250D02*
X0302500Y0156250D01*
X0302500Y0163750D01*
X0316250Y0163750D01*
X0317500Y0162500D01*
X0317500Y0156250D01*
X0317500Y0163750D02*
X0302500Y0163750D01*
X0302500Y0171250D01*
X0316250Y0171250D01*
X0317500Y0170000D01*
X0317500Y0163750D01*
X0315000Y0171250D02*
X0315000Y0185000D01*
X0316250Y0186250D01*
X0322500Y0186250D01*
X0322500Y0171250D01*
X0315000Y0171250D01*
X0313750Y0171250D02*
X0306250Y0171250D01*
X0306250Y0185000D01*
X0307500Y0186250D01*
X0313750Y0186250D01*
X0313750Y0171250D01*
X0323750Y0171250D02*
X0323750Y0185000D01*
X0325000Y0186250D01*
X0331250Y0186250D01*
X0331250Y0171250D01*
X0323750Y0171250D01*
X0332500Y0171250D02*
X0332500Y0185000D01*
X0333750Y0186250D01*
X0340000Y0186250D01*
X0340000Y0171250D01*
X0332500Y0171250D01*
X0341250Y0171250D02*
X0341250Y0185000D01*
X0342500Y0186250D01*
X0348750Y0186250D01*
X0348750Y0171250D01*
X0341250Y0171250D01*
X0350000Y0171250D02*
X0350000Y0185000D01*
X0351250Y0186250D01*
X0357500Y0186250D01*
X0357500Y0171250D01*
X0350000Y0171250D01*
D15*
X0350700Y0170230D02*
X0350700Y0167420D01*
X0349300Y0166020D01*
X0347900Y0167420D01*
X0347900Y0170230D01*
X0352500Y0169520D02*
X0352500Y0166720D01*
X0353200Y0166020D01*
X0354600Y0166020D01*
X0355300Y0166720D01*
X0355300Y0169520D01*
X0354600Y0170230D01*
X0353200Y0170230D01*
X0352500Y0169520D01*
X0357100Y0168120D02*
X0357100Y0166720D01*
X0357810Y0166020D01*
X0359210Y0166020D01*
X0359910Y0166720D01*
X0359910Y0167420D01*
X0359210Y0168120D01*
X0357100Y0168120D01*
X0358510Y0169520D01*
X0359910Y0170230D01*
X0340970Y0151410D02*
X0343770Y0148600D01*
X0344470Y0148600D01*
X0343770Y0146800D02*
X0340970Y0146800D01*
X0340270Y0146100D01*
X0340270Y0144700D01*
X0340970Y0144000D01*
X0343770Y0144000D01*
X0344470Y0144700D01*
X0344470Y0146100D01*
X0343770Y0146800D01*
X0340270Y0148600D02*
X0340270Y0151410D01*
X0340970Y0151410D01*
X0340270Y0142200D02*
X0343070Y0142200D01*
X0344470Y0140800D01*
X0343070Y0139400D01*
X0340270Y0139400D01*
X0336330Y0124730D02*
X0334930Y0124730D01*
X0334230Y0124020D01*
X0336330Y0124730D02*
X0337030Y0124020D01*
X0337030Y0123320D01*
X0334230Y0120520D01*
X0337030Y0120520D01*
X0339770Y0121800D02*
X0341170Y0120400D01*
X0342570Y0121800D01*
X0342570Y0124600D01*
X0344380Y0123900D02*
X0344380Y0121100D01*
X0345080Y0120400D01*
X0346480Y0120400D01*
X0347180Y0121100D01*
X0347180Y0123900D01*
X0346480Y0124600D01*
X0345080Y0124600D01*
X0344380Y0123900D01*
X0339770Y0124600D02*
X0339770Y0121800D01*
X0332430Y0121220D02*
X0331730Y0120520D01*
X0330330Y0120520D01*
X0329630Y0121220D01*
X0329630Y0124020D01*
X0330330Y0124730D01*
X0331730Y0124730D01*
X0332430Y0124020D01*
X0332430Y0121220D01*
X0327820Y0121920D02*
X0327820Y0124730D01*
X0325020Y0124730D02*
X0325020Y0121920D01*
X0326420Y0120520D01*
X0327820Y0121920D01*
X0324470Y0126420D02*
X0323070Y0127820D01*
X0320270Y0127820D01*
X0320970Y0129630D02*
X0323770Y0129630D01*
X0324470Y0130330D01*
X0324470Y0131730D01*
X0323770Y0132430D01*
X0320970Y0132430D01*
X0320270Y0131730D01*
X0320270Y0130330D01*
X0320970Y0129630D01*
X0320270Y0125020D02*
X0323070Y0125020D01*
X0324470Y0126420D01*
X0323770Y0134230D02*
X0324470Y0134930D01*
X0324470Y0136330D01*
X0323770Y0137030D01*
X0323070Y0137030D01*
X0322370Y0136330D01*
X0322370Y0135630D01*
X0322370Y0136330D02*
X0321670Y0137030D01*
X0320970Y0137030D01*
X0320270Y0136330D01*
X0320270Y0134930D01*
X0320970Y0134230D01*
X0320390Y0157900D02*
X0323200Y0157900D01*
X0324600Y0159300D01*
X0323200Y0160700D01*
X0320390Y0160700D01*
X0321090Y0162500D02*
X0323900Y0162500D01*
X0324600Y0163200D01*
X0324600Y0164600D01*
X0323900Y0165300D01*
X0321090Y0165300D01*
X0320390Y0164600D01*
X0320390Y0163200D01*
X0321090Y0162500D01*
X0322490Y0167100D02*
X0322490Y0169910D01*
X0320390Y0169210D02*
X0322490Y0167100D01*
X0320390Y0169210D02*
X0324600Y0169210D01*
X0326650Y0170230D02*
X0326650Y0167420D01*
X0328050Y0166020D01*
X0329450Y0167420D01*
X0329450Y0170230D01*
X0331250Y0169520D02*
X0331250Y0166720D01*
X0331950Y0166020D01*
X0333350Y0166020D01*
X0334050Y0166720D01*
X0334050Y0169520D01*
X0333350Y0170230D01*
X0331950Y0170230D01*
X0331250Y0169520D01*
X0335850Y0170230D02*
X0335850Y0168120D01*
X0337260Y0168820D01*
X0337960Y0168820D01*
X0338660Y0168120D01*
X0338660Y0166720D01*
X0337960Y0166020D01*
X0336560Y0166020D01*
X0335850Y0166720D01*
X0335850Y0170230D02*
X0338660Y0170230D01*
X0350380Y0124600D02*
X0350380Y0120400D01*
X0348980Y0120400D02*
X0351780Y0120400D01*
X0353520Y0121800D02*
X0354920Y0120400D01*
X0356320Y0121800D01*
X0356320Y0124600D01*
X0358130Y0124600D02*
X0359530Y0124600D01*
X0358830Y0124600D02*
X0358830Y0120400D01*
X0358130Y0120400D02*
X0359530Y0120400D01*
X0361190Y0120400D02*
X0361190Y0124600D01*
X0364000Y0120400D01*
X0364000Y0124600D01*
X0353520Y0124600D02*
X0353520Y0121800D01*
X0350380Y0124600D02*
X0348980Y0123200D01*
D15*
X0299600Y0102100D02*
X0299600Y0187900D01*
X0364600Y0187900D01*
X0364600Y0102100D01*
X0364600Y0102100D02*
X0299600Y0102100D01*
X0010000Y0195000D02*
G75*
%LPD*%
D17*
X0010000Y0195000D02*
X0010000Y0280000D01*
X0075000Y0280000D01*
X0075000Y0195000D01*
X0010000Y0195000D01*
D11*
X0012500Y0205500D02*
X0012500Y0270210D01*
X0012520Y0270730D01*
X0012570Y0271250D01*
X0012670Y0271760D01*
X0012800Y0272260D01*
X0012960Y0272760D01*
X0013160Y0273240D01*
X0013390Y0273700D01*
X0013660Y0274150D01*
X0013950Y0274580D01*
X0014280Y0274980D01*
X0014640Y0275360D01*
X0015020Y0275720D01*
X0015420Y0276050D01*
X0015850Y0276340D01*
X0016300Y0276610D01*
X0016760Y0276840D01*
X0017240Y0277040D01*
X0017740Y0277200D01*
X0018240Y0277330D01*
X0018750Y0277430D01*
X0019270Y0277480D01*
X0019790Y0277500D01*
X0022930Y0277500D01*
X0023430Y0277480D01*
X0023940Y0277430D01*
X0024430Y0277340D01*
X0024920Y0277210D01*
X0025400Y0277050D01*
X0025870Y0276860D01*
X0026320Y0276640D01*
X0026750Y0276380D01*
X0027170Y0276090D01*
X0027560Y0275770D01*
X0027930Y0275430D01*
X0028270Y0275060D01*
X0028590Y0274670D01*
X0028880Y0274250D01*
X0029140Y0273820D01*
X0029360Y0273370D01*
X0029550Y0272900D01*
X0029710Y0272420D01*
X0029840Y0271930D01*
X0029930Y0271440D01*
X0029980Y0270930D01*
X0030000Y0270430D01*
X0030000Y0236250D01*
X0029990Y0236250D02*
X0030010Y0235890D01*
X0030070Y0235530D01*
X0030160Y0235190D01*
X0030290Y0234850D01*
X0030460Y0234530D01*
X0030660Y0234230D01*
X0030890Y0233950D01*
X0031150Y0233700D01*
X0031440Y0233480D01*
X0031740Y0233290D01*
X0032070Y0233140D01*
X0032410Y0233020D01*
X0032760Y0232930D01*
X0033120Y0232890D01*
X0033480Y0232880D01*
X0033840Y0232910D01*
X0034190Y0232980D01*
X0034540Y0233090D01*
X0034870Y0233240D01*
X0035180Y0233410D01*
X0035470Y0233630D01*
X0035740Y0233870D01*
X0041170Y0239300D01*
X0041370Y0239480D01*
X0041600Y0239620D01*
X0041840Y0239730D01*
X0042100Y0239810D01*
X0042370Y0239850D01*
X0042630Y0239850D01*
X0042900Y0239810D01*
X0043160Y0239730D01*
X0043400Y0239620D01*
X0043630Y0239480D01*
X0043830Y0239300D01*
X0043820Y0239300D02*
X0049970Y0233150D01*
X0050190Y0232940D01*
X0050440Y0232770D01*
X0050710Y0232630D01*
X0050990Y0232520D01*
X0051290Y0232440D01*
X0051590Y0232400D01*
X0051890Y0232390D01*
X0052190Y0232420D01*
X0052490Y0232490D01*
X0052780Y0232590D01*
X0053050Y0232720D01*
X0053310Y0232880D01*
X0053540Y0233080D01*
X0053750Y0233290D01*
X0053940Y0233540D01*
X0054090Y0233800D01*
X0054210Y0234080D01*
X0054300Y0234370D01*
X0054350Y0234670D01*
X0054370Y0234970D01*
X0054370Y0269090D01*
X0054390Y0269640D01*
X0054440Y0270190D01*
X0054530Y0270730D01*
X0054660Y0271270D01*
X0054820Y0271790D01*
X0055010Y0272310D01*
X0055240Y0272810D01*
X0055500Y0273300D01*
X0055790Y0273760D01*
X0056110Y0274210D01*
X0056460Y0274640D01*
X0056830Y0275040D01*
X0057230Y0275410D01*
X0057660Y0275760D01*
X0058110Y0276080D01*
X0058580Y0276370D01*
X0059060Y0276630D01*
X0059560Y0276860D01*
X0060080Y0277050D01*
X0060600Y0277210D01*
X0061140Y0277340D01*
X0061680Y0277430D01*
X0062230Y0277480D01*
X0062780Y0277500D01*
X0063460Y0277500D01*
X0064010Y0277480D01*
X0064560Y0277430D01*
X0065100Y0277340D01*
X0065640Y0277210D01*
X0066160Y0277050D01*
X0066680Y0276860D01*
X0067180Y0276630D01*
X0067670Y0276370D01*
X0068130Y0276080D01*
X0068580Y0275760D01*
X0069010Y0275410D01*
X0069410Y0275040D01*
X0069780Y0274640D01*
X0070130Y0274210D01*
X0070450Y0273760D01*
X0070740Y0273300D01*
X0071000Y0272810D01*
X0071230Y0272310D01*
X0071420Y0271790D01*
X0071580Y0271270D01*
X0071710Y0270730D01*
X0071800Y0270190D01*
X0071850Y0269640D01*
X0071870Y0269090D01*
X0071870Y0205230D01*
X0071850Y0204680D01*
X0071790Y0204130D01*
X0071690Y0203590D01*
X0071560Y0203050D01*
X0071380Y0202530D01*
X0071170Y0202020D01*
X0070920Y0201530D01*
X0070640Y0201050D01*
X0070330Y0200600D01*
X0069980Y0200170D01*
X0069610Y0199760D01*
X0069200Y0199390D01*
X0068770Y0199040D01*
X0068320Y0198730D01*
X0067840Y0198450D01*
X0067350Y0198200D01*
X0066840Y0197990D01*
X0066320Y0197810D01*
X0065780Y0197680D01*
X0065240Y0197580D01*
X0064690Y0197520D01*
X0064140Y0197500D01*
X0061390Y0197500D01*
X0057940Y0198930D02*
X0042680Y0214190D01*
X0042690Y0214200D02*
X0042590Y0214270D01*
X0042480Y0214330D01*
X0042360Y0214370D01*
X0042240Y0214380D01*
X0041610Y0214110D02*
X0026830Y0199330D01*
X0022410Y0197500D02*
X0020500Y0197500D01*
X0022410Y0197500D02*
X0022900Y0197520D01*
X0023390Y0197580D01*
X0023870Y0197670D01*
X0024340Y0197810D01*
X0024800Y0197980D01*
X0025250Y0198180D01*
X0025680Y0198420D01*
X0026080Y0198690D01*
X0026470Y0199000D01*
X0026830Y0199330D01*
X0020500Y0197500D02*
X0019950Y0197520D01*
X0019410Y0197570D01*
X0018870Y0197670D01*
X0018340Y0197800D01*
X0017820Y0197960D01*
X0017310Y0198160D01*
X0016820Y0198400D01*
X0016340Y0198660D01*
X0015890Y0198960D01*
X0015450Y0199290D01*
X0015040Y0199650D01*
X0014650Y0200040D01*
X0014290Y0200450D01*
X0013960Y0200890D01*
X0013660Y0201340D01*
X0013400Y0201820D01*
X0013160Y0202310D01*
X0012960Y0202820D01*
X0012800Y0203340D01*
X0012670Y0203870D01*
X0012570Y0204410D01*
X0012520Y0204950D01*
X0012500Y0205500D01*
X0041620Y0214110D02*
X0041750Y0214220D01*
X0041900Y0214300D01*
X0042070Y0214350D01*
X0042240Y0214370D01*
X0057940Y0198930D02*
X0058250Y0198640D01*
X0058590Y0198380D01*
X0058950Y0198150D01*
X0059330Y0197960D01*
X0059720Y0197790D01*
X0060130Y0197670D01*
X0060540Y0197570D01*
X0060960Y0197520D01*
X0061390Y0197500D01*
D13*
X0056250Y0198750D02*
X0056250Y0206250D01*
X0070000Y0206250D01*
X0071250Y0205000D01*
X0071250Y0198750D01*
X0056250Y0198750D01*
X0056250Y0204370D02*
X0057500Y0205620D01*
X0057500Y0219370D01*
X0050000Y0219370D01*
X0050000Y0204370D01*
X0056250Y0204370D01*
X0056250Y0208750D02*
X0056250Y0216250D01*
X0070000Y0216250D01*
X0071250Y0215000D01*
X0071250Y0208750D01*
X0056250Y0208750D01*
X0050620Y0214370D02*
X0051870Y0215620D01*
X0051870Y0229370D01*
X0044370Y0229370D01*
X0044370Y0214370D01*
X0050620Y0214370D01*
X0056250Y0218750D02*
X0056250Y0226250D01*
X0070000Y0226250D01*
X0071250Y0225000D01*
X0071250Y0218750D01*
X0056250Y0218750D01*
X0056250Y0228750D02*
X0056250Y0236250D01*
X0070000Y0236250D01*
X0071250Y0235000D01*
X0071250Y0228750D01*
X0056250Y0228750D01*
X0056250Y0238750D02*
X0056250Y0246250D01*
X0070000Y0246250D01*
X0071250Y0245000D01*
X0071250Y0238750D01*
X0056250Y0238750D01*
X0056250Y0248750D02*
X0056250Y0256250D01*
X0070000Y0256250D01*
X0071250Y0255000D01*
X0071250Y0248750D01*
X0056250Y0248750D01*
X0056250Y0258750D02*
X0056250Y0266250D01*
X0070000Y0266250D01*
X0071250Y0265000D01*
X0071250Y0258750D01*
X0056250Y0258750D01*
X0056250Y0268750D02*
X0056250Y0276250D01*
X0070000Y0276250D01*
X0071250Y0275000D01*
X0071250Y0268750D01*
X0056250Y0268750D01*
X0046250Y0238120D02*
X0038750Y0238120D01*
X0038750Y0223120D01*
X0045000Y0223120D01*
X0046250Y0224370D01*
X0046250Y0238120D01*
X0040000Y0229370D02*
X0040000Y0215620D01*
X0038750Y0214370D01*
X0032500Y0214370D01*
X0032500Y0229370D01*
X0040000Y0229370D01*
X0034370Y0219370D02*
X0034370Y0205620D01*
X0033120Y0204370D01*
X0026870Y0204370D01*
X0026870Y0219370D01*
X0034370Y0219370D01*
X0028120Y0218750D02*
X0013120Y0218750D01*
X0013120Y0226250D01*
X0026870Y0226250D01*
X0028120Y0225000D01*
X0028120Y0218750D01*
X0026870Y0216250D02*
X0028120Y0215000D01*
X0028120Y0208750D01*
X0013120Y0208750D01*
X0013120Y0216250D01*
X0026870Y0216250D01*
X0026870Y0206250D02*
X0028120Y0205000D01*
X0028120Y0198750D01*
X0013120Y0198750D01*
X0013120Y0206250D01*
X0026870Y0206250D01*
X0028120Y0228750D02*
X0013120Y0228750D01*
X0013120Y0236250D01*
X0026870Y0236250D01*
X0028120Y0235000D01*
X0028120Y0228750D01*
X0028120Y0238750D02*
X0013120Y0238750D01*
X0013120Y0246250D01*
X0026870Y0246250D01*
X0028120Y0245000D01*
X0028120Y0238750D01*
X0028120Y0248750D02*
X0013120Y0248750D01*
X0013120Y0256250D01*
X0026870Y0256250D01*
X0028120Y0255000D01*
X0028120Y0248750D01*
X0028120Y0258750D02*
X0013120Y0258750D01*
X0013120Y0266250D01*
X0026870Y0266250D01*
X0028120Y0265000D01*
X0028120Y0258750D01*
X0028120Y0268750D02*
X0013120Y0268750D01*
X0013120Y0276250D01*
X0026870Y0276250D01*
X0028120Y0275000D01*
X0028120Y0268750D01*
D15*
X0030520Y0268720D02*
X0030520Y0270120D01*
X0030520Y0269420D02*
X0034720Y0269420D01*
X0034720Y0268720D02*
X0034720Y0270120D01*
X0034720Y0271790D02*
X0030520Y0271790D01*
X0034720Y0274600D01*
X0030520Y0274600D01*
X0030520Y0266920D02*
X0033320Y0266920D01*
X0034720Y0265520D01*
X0033320Y0264120D01*
X0030520Y0264120D01*
X0034720Y0258350D02*
X0034720Y0255540D01*
X0034720Y0256940D02*
X0030520Y0256940D01*
X0031920Y0255540D01*
X0031220Y0253740D02*
X0030520Y0253040D01*
X0030520Y0251640D01*
X0031220Y0250940D01*
X0034020Y0250940D01*
X0034720Y0251640D01*
X0034720Y0253040D01*
X0034020Y0253740D01*
X0031220Y0253740D01*
X0030520Y0249140D02*
X0033320Y0249140D01*
X0034720Y0247740D01*
X0033320Y0246330D01*
X0030520Y0246330D01*
X0029420Y0232720D02*
X0028720Y0232720D01*
X0028020Y0232020D01*
X0028020Y0230620D01*
X0028720Y0229920D01*
X0028720Y0228120D02*
X0028020Y0227420D01*
X0028020Y0226010D01*
X0028720Y0225310D01*
X0031520Y0225310D01*
X0032220Y0226010D01*
X0032220Y0227420D01*
X0031520Y0228120D01*
X0028720Y0228120D01*
X0032220Y0229920D02*
X0029420Y0232720D01*
X0032220Y0232720D02*
X0032220Y0229920D01*
X0030820Y0223510D02*
X0028020Y0223510D01*
X0028020Y0220710D02*
X0030820Y0220710D01*
X0032220Y0222110D01*
X0030820Y0223510D01*
X0037170Y0208860D02*
X0038160Y0208860D01*
X0038650Y0208360D01*
X0038650Y0207370D01*
X0039640Y0207370D01*
X0040140Y0206870D01*
X0040140Y0205880D01*
X0039150Y0204890D01*
X0038160Y0204890D01*
X0036880Y0203620D02*
X0034900Y0205600D01*
X0033910Y0205600D01*
X0032920Y0204610D01*
X0032920Y0203620D01*
X0034900Y0201640D01*
X0035890Y0201640D01*
X0036880Y0202630D01*
X0036880Y0203620D01*
X0036180Y0206870D02*
X0036180Y0207860D01*
X0037170Y0208860D01*
X0038650Y0207370D02*
X0038160Y0206870D01*
X0043070Y0207670D02*
X0045050Y0207670D01*
X0047030Y0209650D01*
X0047810Y0207880D02*
X0045830Y0205900D01*
X0045830Y0204910D01*
X0046820Y0203920D01*
X0047810Y0203920D01*
X0049790Y0205900D01*
X0049790Y0206890D01*
X0048800Y0207880D01*
X0047810Y0207880D01*
X0045050Y0211630D02*
X0043070Y0209650D01*
X0043070Y0207670D01*
X0050070Y0203630D02*
X0052060Y0201650D01*
X0053050Y0203630D02*
X0050070Y0203630D01*
X0050070Y0200660D02*
X0053050Y0203630D01*
X0052140Y0220020D02*
X0054950Y0220020D01*
X0056350Y0221420D01*
X0054950Y0222820D01*
X0052140Y0222820D01*
X0052840Y0224630D02*
X0055650Y0224630D01*
X0056350Y0225330D01*
X0056350Y0226730D01*
X0055650Y0227430D01*
X0052840Y0227430D01*
X0052140Y0226730D01*
X0052140Y0225330D01*
X0052840Y0224630D01*
X0052140Y0229230D02*
X0054240Y0229230D01*
X0053540Y0230630D01*
X0053540Y0231330D01*
X0054240Y0232030D01*
X0055650Y0232030D01*
X0056350Y0231330D01*
X0056350Y0229930D01*
X0055650Y0229230D01*
X0052140Y0229230D02*
X0052140Y0232030D01*
X0053070Y0237520D02*
X0050270Y0237520D01*
X0053070Y0237520D02*
X0054470Y0238920D01*
X0053070Y0240320D01*
X0050270Y0240320D01*
X0050970Y0242130D02*
X0050270Y0242830D01*
X0050270Y0244230D01*
X0050970Y0244930D01*
X0053770Y0244930D01*
X0054470Y0244230D01*
X0054470Y0242830D01*
X0053770Y0242130D01*
X0050970Y0242130D01*
X0052370Y0246730D02*
X0052370Y0248830D01*
X0053070Y0249530D01*
X0053770Y0249530D01*
X0054470Y0248830D01*
X0054470Y0247430D01*
X0053770Y0246730D01*
X0052370Y0246730D01*
X0050970Y0248130D01*
X0050270Y0249530D01*
X0049020Y0262520D02*
X0051820Y0262520D01*
X0053220Y0263920D01*
X0051820Y0265320D01*
X0049020Y0265320D01*
X0049720Y0267130D02*
X0052520Y0267130D01*
X0053220Y0267830D01*
X0053220Y0269230D01*
X0052520Y0269930D01*
X0049720Y0269930D01*
X0049020Y0269230D01*
X0049020Y0267830D01*
X0049720Y0267130D01*
X0049020Y0271730D02*
X0049020Y0274530D01*
X0049720Y0274530D01*
X0052520Y0271730D01*
X0053220Y0271730D01*
X0031150Y0202840D02*
X0033130Y0200860D01*
X0033130Y0198880D01*
X0031150Y0198880D01*
X0029170Y0200860D01*
D15*
X0010400Y0194600D02*
X0010400Y0280400D01*
X0010400Y0280400D02*
X0075400Y0280400D01*
X0075400Y0194600D01*
X0010400Y0194600D01*
X0082500Y0195000D02*
G75*
%LPD*%
D17*
X0082500Y0195000D02*
X0082500Y0280000D01*
X0147500Y0280000D01*
X0147500Y0195000D01*
X0082500Y0195000D01*
D11*
X0097500Y0198010D02*
X0097500Y0209480D01*
X0097490Y0209480D02*
X0097510Y0209730D01*
X0097560Y0209980D01*
X0097650Y0210220D01*
X0097770Y0210440D01*
X0097920Y0210640D01*
X0098100Y0210820D01*
X0098300Y0210970D01*
X0098520Y0211090D01*
X0098760Y0211180D01*
X0099010Y0211230D01*
X0099260Y0211250D01*
X0105730Y0211250D01*
X0105730Y0211240D02*
X0105980Y0211260D01*
X0106230Y0211310D01*
X0106470Y0211400D01*
X0106690Y0211520D01*
X0106890Y0211670D01*
X0107070Y0211850D01*
X0107220Y0212050D01*
X0107340Y0212270D01*
X0107430Y0212510D01*
X0107480Y0212760D01*
X0107500Y0213010D01*
X0107500Y0261980D01*
X0107480Y0262230D01*
X0107430Y0262480D01*
X0107340Y0262720D01*
X0107220Y0262940D01*
X0107070Y0263140D01*
X0106890Y0263320D01*
X0106690Y0263470D01*
X0106470Y0263590D01*
X0106230Y0263680D01*
X0105980Y0263730D01*
X0105730Y0263750D01*
X0100000Y0263750D01*
X0099700Y0263770D01*
X0099400Y0263820D01*
X0099110Y0263910D01*
X0098840Y0264040D01*
X0098580Y0264190D01*
X0098340Y0264380D01*
X0098130Y0264590D01*
X0097940Y0264830D01*
X0097790Y0265090D01*
X0097660Y0265360D01*
X0097570Y0265650D01*
X0097520Y0265950D01*
X0097500Y0266250D01*
X0097500Y0276980D01*
X0097490Y0276980D02*
X0097510Y0277230D01*
X0097560Y0277480D01*
X0097650Y0277720D01*
X0097770Y0277940D01*
X0097920Y0278140D01*
X0098100Y0278320D01*
X0098300Y0278470D01*
X0098520Y0278590D01*
X0098760Y0278680D01*
X0099010Y0278730D01*
X0099260Y0278750D01*
X0130730Y0278750D01*
X0130980Y0278730D01*
X0131230Y0278680D01*
X0131470Y0278590D01*
X0131690Y0278470D01*
X0131890Y0278320D01*
X0132070Y0278140D01*
X0132220Y0277940D01*
X0132340Y0277720D01*
X0132430Y0277480D01*
X0132480Y0277230D01*
X0132500Y0276980D01*
X0132500Y0265000D01*
X0132480Y0264800D01*
X0132440Y0264610D01*
X0132360Y0264430D01*
X0132260Y0264270D01*
X0132130Y0264120D01*
X0131980Y0263990D01*
X0131820Y0263890D01*
X0131640Y0263810D01*
X0131450Y0263770D01*
X0131250Y0263750D01*
X0124260Y0263750D01*
X0124010Y0263730D01*
X0123760Y0263680D01*
X0123520Y0263590D01*
X0123300Y0263470D01*
X0123100Y0263320D01*
X0122920Y0263140D01*
X0122770Y0262940D01*
X0122650Y0262720D01*
X0122560Y0262480D01*
X0122510Y0262230D01*
X0122490Y0261980D01*
X0122500Y0261980D02*
X0122500Y0213010D01*
X0122490Y0213010D02*
X0122510Y0212760D01*
X0122560Y0212510D01*
X0122650Y0212270D01*
X0122770Y0212050D01*
X0122920Y0211850D01*
X0123100Y0211670D01*
X0123300Y0211520D01*
X0123520Y0211400D01*
X0123760Y0211310D01*
X0124010Y0211260D01*
X0124260Y0211240D01*
X0124260Y0211250D02*
X0130730Y0211250D01*
X0130980Y0211230D01*
X0131230Y0211180D01*
X0131470Y0211090D01*
X0131690Y0210970D01*
X0131890Y0210820D01*
X0132070Y0210640D01*
X0132220Y0210440D01*
X0132340Y0210220D01*
X0132430Y0209980D01*
X0132480Y0209730D01*
X0132500Y0209480D01*
X0132500Y0198010D01*
X0132480Y0197760D01*
X0132430Y0197510D01*
X0132340Y0197270D01*
X0132220Y0197050D01*
X0132070Y0196850D01*
X0131890Y0196670D01*
X0131690Y0196520D01*
X0131470Y0196400D01*
X0131230Y0196310D01*
X0130980Y0196260D01*
X0130730Y0196240D01*
X0130730Y0196250D02*
X0099260Y0196250D01*
X0099260Y0196240D02*
X0099010Y0196260D01*
X0098760Y0196310D01*
X0098520Y0196400D01*
X0098300Y0196520D01*
X0098100Y0196670D01*
X0097920Y0196850D01*
X0097770Y0197050D01*
X0097650Y0197270D01*
X0097560Y0197510D01*
X0097510Y0197760D01*
X0097490Y0198010D01*
D13*
X0097500Y0196250D02*
X0097500Y0210000D01*
X0098750Y0211250D01*
X0105000Y0211250D01*
X0105000Y0196250D01*
X0097500Y0196250D01*
X0106870Y0196250D02*
X0106870Y0210000D01*
X0108120Y0211250D01*
X0114370Y0211250D01*
X0114370Y0196250D01*
X0106870Y0196250D01*
X0115620Y0196250D02*
X0115620Y0210000D01*
X0116870Y0211250D01*
X0123120Y0211250D01*
X0123120Y0196250D01*
X0115620Y0196250D01*
X0125000Y0196250D02*
X0125000Y0210000D01*
X0126250Y0211250D01*
X0132500Y0211250D01*
X0132500Y0196250D01*
X0125000Y0196250D01*
X0122500Y0210000D02*
X0107500Y0210000D01*
X0107500Y0217500D01*
X0121250Y0217500D01*
X0122500Y0216250D01*
X0122500Y0210000D01*
X0122500Y0218120D02*
X0107500Y0218120D01*
X0107500Y0225620D01*
X0121250Y0225620D01*
X0122500Y0224370D01*
X0122500Y0218120D01*
X0122500Y0226250D02*
X0107500Y0226250D01*
X0107500Y0233750D01*
X0121250Y0233750D01*
X0122500Y0232500D01*
X0122500Y0226250D01*
X0122500Y0233750D02*
X0107500Y0233750D01*
X0107500Y0241250D01*
X0121250Y0241250D01*
X0122500Y0240000D01*
X0122500Y0233750D01*
X0122500Y0241870D02*
X0107500Y0241870D01*
X0107500Y0249370D01*
X0121250Y0249370D01*
X0122500Y0248120D01*
X0122500Y0241870D01*
X0122500Y0250000D02*
X0107500Y0250000D01*
X0107500Y0257500D01*
X0121250Y0257500D01*
X0122500Y0256250D01*
X0122500Y0250000D01*
X0122500Y0257500D02*
X0107500Y0257500D01*
X0107500Y0265000D01*
X0121250Y0265000D01*
X0122500Y0263750D01*
X0122500Y0257500D01*
X0123120Y0263750D02*
X0115620Y0263750D01*
X0115620Y0277500D01*
X0116870Y0278750D01*
X0123120Y0278750D01*
X0123120Y0263750D01*
X0125000Y0263750D02*
X0125000Y0277500D01*
X0126250Y0278750D01*
X0132500Y0278750D01*
X0132500Y0263750D01*
X0125000Y0263750D01*
X0114370Y0263750D02*
X0106870Y0263750D01*
X0106870Y0277500D01*
X0108120Y0278750D01*
X0114370Y0278750D01*
X0114370Y0263750D01*
X0105000Y0263750D02*
X0097500Y0263750D01*
X0097500Y0277500D01*
X0098750Y0278750D01*
X0105000Y0278750D01*
X0105000Y0263750D01*
D15*
X0097100Y0266800D02*
X0095700Y0268200D01*
X0092890Y0268200D01*
X0093590Y0270000D02*
X0096400Y0270000D01*
X0097100Y0270700D01*
X0097100Y0272100D01*
X0096400Y0272800D01*
X0093590Y0272800D01*
X0092890Y0272100D01*
X0092890Y0270700D01*
X0093590Y0270000D01*
X0094990Y0274600D02*
X0094990Y0277410D01*
X0092890Y0276710D02*
X0094990Y0274600D01*
X0092890Y0276710D02*
X0097100Y0276710D01*
X0097100Y0266800D02*
X0095700Y0265400D01*
X0092890Y0265400D01*
X0123720Y0227720D02*
X0123020Y0227020D01*
X0123020Y0225620D01*
X0123720Y0224920D01*
X0123720Y0223120D02*
X0123020Y0222420D01*
X0123020Y0221010D01*
X0123720Y0220310D01*
X0126520Y0220310D01*
X0127220Y0221010D01*
X0127220Y0222420D01*
X0126520Y0223120D01*
X0123720Y0223120D01*
X0127220Y0224920D02*
X0124420Y0227720D01*
X0123720Y0227720D01*
X0127220Y0227720D02*
X0127220Y0224920D01*
X0125820Y0218510D02*
X0123020Y0218510D01*
X0123020Y0215710D02*
X0125820Y0215710D01*
X0127220Y0217110D01*
X0125820Y0218510D01*
X0132630Y0208370D02*
X0136840Y0208370D01*
X0132630Y0205570D01*
X0136840Y0205570D01*
X0136840Y0203900D02*
X0136840Y0202500D01*
X0136840Y0203200D02*
X0132630Y0203200D01*
X0132630Y0202500D02*
X0132630Y0203900D01*
X0132630Y0200700D02*
X0135440Y0200700D01*
X0136840Y0199300D01*
X0135440Y0197900D01*
X0132630Y0197900D01*
X0107410Y0211650D02*
X0104600Y0211650D01*
X0106010Y0211650D02*
X0106010Y0215850D01*
X0104600Y0214450D01*
X0102800Y0215150D02*
X0102800Y0212350D01*
X0102100Y0211650D01*
X0100700Y0211650D01*
X0100000Y0212350D01*
X0100000Y0215150D01*
X0100700Y0215850D01*
X0102100Y0215850D01*
X0102800Y0215150D01*
X0098200Y0215850D02*
X0098200Y0213050D01*
X0096800Y0211650D01*
X0095400Y0213050D01*
X0095400Y0215850D01*
X0123430Y0239400D02*
X0126240Y0239400D01*
X0127640Y0240800D01*
X0126240Y0242200D01*
X0123430Y0242200D01*
X0124130Y0244000D02*
X0126940Y0244000D01*
X0127640Y0244700D01*
X0127640Y0246100D01*
X0126940Y0246800D01*
X0124130Y0246800D01*
X0123430Y0246100D01*
X0123430Y0244700D01*
X0124130Y0244000D01*
X0124130Y0248610D02*
X0123430Y0249310D01*
X0123430Y0250710D01*
X0124130Y0251410D01*
X0124840Y0251410D01*
X0125540Y0250710D01*
X0126240Y0251410D01*
X0126940Y0251410D01*
X0127640Y0250710D01*
X0127640Y0249310D01*
X0126940Y0248610D01*
X0125540Y0250010D02*
X0125540Y0250710D01*
X0133020Y0263830D02*
X0135820Y0263830D01*
X0137220Y0265240D01*
X0135820Y0266640D01*
X0133020Y0266640D01*
X0133720Y0268440D02*
X0136520Y0268440D01*
X0137220Y0269140D01*
X0137220Y0270540D01*
X0136520Y0271240D01*
X0133720Y0271240D01*
X0133020Y0270540D01*
X0133020Y0269140D01*
X0133720Y0268440D01*
X0133020Y0273040D02*
X0135120Y0273040D01*
X0134420Y0274440D01*
X0134420Y0275140D01*
X0135120Y0275850D01*
X0136520Y0275850D01*
X0137220Y0275140D01*
X0137220Y0273740D01*
X0136520Y0273040D01*
X0133020Y0273040D02*
X0133020Y0275850D01*
D15*
X0082100Y0194600D02*
X0082100Y0280400D01*
X0147900Y0280400D01*
X0147900Y0194600D01*
X0082100Y0194600D01*
X0155000Y0195000D02*
G75*
%LPD*%
D17*
X0155000Y0195000D02*
X0155000Y0280000D01*
X0220000Y0280000D01*
X0220000Y0195000D01*
X0155000Y0195000D01*
D11*
X0157500Y0199040D02*
X0157500Y0277500D01*
X0169700Y0277500D01*
X0170010Y0277480D01*
X0170320Y0277430D01*
X0170620Y0277340D01*
X0170910Y0277220D01*
X0171190Y0277070D01*
X0171450Y0276890D01*
X0171680Y0276680D01*
X0171890Y0276450D01*
X0172070Y0276190D01*
X0172220Y0275910D01*
X0172340Y0275620D01*
X0172430Y0275320D01*
X0172480Y0275010D01*
X0172500Y0274700D01*
X0172500Y0214040D01*
X0172490Y0214040D02*
X0172510Y0213730D01*
X0172560Y0213420D01*
X0172650Y0213120D01*
X0172770Y0212830D01*
X0172920Y0212550D01*
X0173100Y0212290D01*
X0173310Y0212060D01*
X0173540Y0211850D01*
X0173800Y0211670D01*
X0174080Y0211520D01*
X0174370Y0211400D01*
X0174670Y0211310D01*
X0174980Y0211260D01*
X0175290Y0211240D01*
X0175290Y0211250D02*
X0214480Y0211250D01*
X0214730Y0211230D01*
X0214980Y0211180D01*
X0215220Y0211090D01*
X0215440Y0210970D01*
X0215640Y0210820D01*
X0215820Y0210640D01*
X0215970Y0210440D01*
X0216090Y0210220D01*
X0216180Y0209980D01*
X0216230Y0209730D01*
X0216250Y0209480D01*
X0216250Y0198750D01*
X0216230Y0198450D01*
X0216180Y0198150D01*
X0216090Y0197860D01*
X0215960Y0197590D01*
X0215810Y0197330D01*
X0215620Y0197090D01*
X0215410Y0196880D01*
X0215170Y0196690D01*
X0214910Y0196540D01*
X0214640Y0196410D01*
X0214350Y0196320D01*
X0214050Y0196270D01*
X0213750Y0196250D01*
X0160290Y0196250D01*
X0160290Y0196240D02*
X0159980Y0196260D01*
X0159670Y0196310D01*
X0159370Y0196400D01*
X0159080Y0196520D01*
X0158800Y0196670D01*
X0158540Y0196850D01*
X0158310Y0197060D01*
X0158100Y0197290D01*
X0157920Y0197550D01*
X0157770Y0197830D01*
X0157650Y0198120D01*
X0157560Y0198420D01*
X0157510Y0198730D01*
X0157490Y0199040D01*
D13*
X0160000Y0196250D02*
X0160000Y0210000D01*
X0161250Y0211250D01*
X0167500Y0211250D01*
X0167500Y0196250D01*
X0160000Y0196250D01*
X0168120Y0196250D02*
X0168120Y0210000D01*
X0169370Y0211250D01*
X0175620Y0211250D01*
X0175620Y0196250D01*
X0168120Y0196250D01*
X0176250Y0196250D02*
X0176250Y0210000D01*
X0177500Y0211250D01*
X0183750Y0211250D01*
X0183750Y0196250D01*
X0176250Y0196250D01*
X0184370Y0196250D02*
X0184370Y0210000D01*
X0185620Y0211250D01*
X0191870Y0211250D01*
X0191870Y0196250D01*
X0184370Y0196250D01*
X0192500Y0196250D02*
X0192500Y0210000D01*
X0193750Y0211250D01*
X0200000Y0211250D01*
X0200000Y0196250D01*
X0192500Y0196250D01*
X0200620Y0196250D02*
X0200620Y0210000D01*
X0201870Y0211250D01*
X0208120Y0211250D01*
X0208120Y0196250D01*
X0200620Y0196250D01*
X0208750Y0196250D02*
X0208750Y0210000D01*
X0210000Y0211250D01*
X0216250Y0211250D01*
X0216250Y0196250D01*
X0208750Y0196250D01*
X0172500Y0210620D02*
X0157500Y0210620D01*
X0157500Y0218120D01*
X0171250Y0218120D01*
X0172500Y0216870D01*
X0172500Y0210620D01*
X0172500Y0218750D02*
X0157500Y0218750D01*
X0157500Y0226250D01*
X0171250Y0226250D01*
X0172500Y0225000D01*
X0172500Y0218750D01*
X0172500Y0226870D02*
X0157500Y0226870D01*
X0157500Y0234370D01*
X0171250Y0234370D01*
X0172500Y0233120D01*
X0172500Y0226870D01*
X0172500Y0235000D02*
X0157500Y0235000D01*
X0157500Y0242500D01*
X0171250Y0242500D01*
X0172500Y0241250D01*
X0172500Y0235000D01*
X0172500Y0243120D02*
X0157500Y0243120D01*
X0157500Y0250620D01*
X0171250Y0250620D01*
X0172500Y0249370D01*
X0172500Y0243120D01*
X0172500Y0251250D02*
X0157500Y0251250D01*
X0157500Y0258750D01*
X0171250Y0258750D01*
X0172500Y0257500D01*
X0172500Y0251250D01*
X0172500Y0259370D02*
X0157500Y0259370D01*
X0157500Y0266870D01*
X0171250Y0266870D01*
X0172500Y0265620D01*
X0172500Y0259370D01*
X0172500Y0267500D02*
X0157500Y0267500D01*
X0157500Y0275000D01*
X0171250Y0275000D01*
X0172500Y0273750D01*
X0172500Y0267500D01*
D15*
X0172890Y0266890D02*
X0175700Y0266890D01*
X0177100Y0265490D01*
X0175700Y0264080D01*
X0172890Y0264080D01*
X0173590Y0268690D02*
X0176400Y0268690D01*
X0177100Y0269390D01*
X0177100Y0270790D01*
X0176400Y0271490D01*
X0173590Y0271490D01*
X0172890Y0270790D01*
X0172890Y0269390D01*
X0173590Y0268690D01*
X0172890Y0273290D02*
X0174990Y0273290D01*
X0174290Y0274690D01*
X0174290Y0275390D01*
X0174990Y0276100D01*
X0176400Y0276100D01*
X0177100Y0275390D01*
X0177100Y0273990D01*
X0176400Y0273290D01*
X0172890Y0273290D02*
X0172890Y0276100D01*
X0174990Y0252350D02*
X0174990Y0249540D01*
X0172890Y0251640D01*
X0177100Y0251640D01*
X0176400Y0247740D02*
X0173590Y0247740D01*
X0172890Y0247040D01*
X0172890Y0245640D01*
X0173590Y0244940D01*
X0176400Y0244940D01*
X0177100Y0245640D01*
X0177100Y0247040D01*
X0176400Y0247740D01*
X0175700Y0243140D02*
X0172890Y0243140D01*
X0172890Y0240330D02*
X0175700Y0240330D01*
X0177100Y0241740D01*
X0175700Y0243140D01*
X0175700Y0229850D02*
X0176400Y0229850D01*
X0177100Y0229140D01*
X0177100Y0227740D01*
X0176400Y0227040D01*
X0174990Y0228440D02*
X0174990Y0229140D01*
X0175700Y0229850D01*
X0174990Y0229140D02*
X0174290Y0229850D01*
X0173590Y0229850D01*
X0172890Y0229140D01*
X0172890Y0227740D01*
X0173590Y0227040D01*
X0173590Y0225240D02*
X0172890Y0224540D01*
X0172890Y0223140D01*
X0173590Y0222440D01*
X0176400Y0222440D01*
X0177100Y0223140D01*
X0177100Y0224540D01*
X0176400Y0225240D01*
X0173590Y0225240D01*
X0172890Y0220640D02*
X0175700Y0220640D01*
X0177100Y0219240D01*
X0175700Y0217830D01*
X0172890Y0217830D01*
X0173770Y0215980D02*
X0173770Y0213170D01*
X0175170Y0211770D01*
X0176570Y0213170D01*
X0176570Y0215980D01*
X0178380Y0215270D02*
X0178380Y0212470D01*
X0179080Y0211770D01*
X0180480Y0211770D01*
X0181180Y0212470D01*
X0181180Y0215270D01*
X0180480Y0215980D01*
X0179080Y0215980D01*
X0178380Y0215270D01*
X0182980Y0215270D02*
X0183680Y0215980D01*
X0185080Y0215980D01*
X0185780Y0215270D01*
X0185780Y0214570D01*
X0182980Y0211770D01*
X0185780Y0211770D01*
X0190400Y0213050D02*
X0191800Y0211650D01*
X0193200Y0213050D01*
X0193200Y0215850D01*
X0195000Y0215150D02*
X0195000Y0212350D01*
X0195700Y0211650D01*
X0197100Y0211650D01*
X0197800Y0212350D01*
X0197800Y0215150D01*
X0197100Y0215850D01*
X0195700Y0215850D01*
X0195000Y0215150D01*
X0190400Y0215850D02*
X0190400Y0213050D01*
X0199600Y0214450D02*
X0201010Y0215850D01*
X0201010Y0211650D01*
X0202410Y0211650D02*
X0199600Y0211650D01*
X0206750Y0213520D02*
X0208160Y0212120D01*
X0209560Y0213520D01*
X0209560Y0216320D01*
X0211360Y0216320D02*
X0212760Y0216320D01*
X0212060Y0216320D02*
X0212060Y0212120D01*
X0211360Y0212120D02*
X0212760Y0212120D01*
X0214430Y0212120D02*
X0214430Y0216320D01*
X0217230Y0212120D01*
X0217230Y0216320D01*
X0206750Y0216320D02*
X0206750Y0213520D01*
D15*
X0154600Y0194600D02*
X0154600Y0280400D01*
X0220400Y0280400D01*
X0220400Y0194600D01*
X0154600Y0194600D01*
X0227500Y0195000D02*
G75*
%LPD*%
D17*
X0227500Y0195000D02*
X0227500Y0280000D01*
X0292500Y0280000D01*
X0292500Y0195000D01*
X0227500Y0195000D01*
D11*
X0230000Y0196250D02*
X0269800Y0196250D01*
X0276530Y0199030D02*
X0287680Y0210180D01*
X0290000Y0215770D02*
X0290000Y0258030D01*
X0285950Y0267790D02*
X0278820Y0274920D01*
X0269590Y0278750D02*
X0230000Y0278750D01*
X0230000Y0196250D01*
X0246250Y0213750D02*
X0259210Y0213750D01*
X0269090Y0217840D02*
X0270090Y0218840D01*
X0273750Y0227670D02*
X0273750Y0246090D01*
X0269220Y0257030D02*
X0267370Y0258870D01*
X0278820Y0274930D02*
X0278320Y0275400D01*
X0277800Y0275840D01*
X0277260Y0276260D01*
X0276700Y0276640D01*
X0276110Y0277000D01*
X0275510Y0277330D01*
X0274900Y0277620D01*
X0274270Y0277880D01*
X0273620Y0278110D01*
X0272970Y0278310D01*
X0272300Y0278460D01*
X0271630Y0278590D01*
X0270950Y0278680D01*
X0270270Y0278730D01*
X0269590Y0278750D01*
X0258620Y0262500D02*
X0246250Y0262500D01*
X0246250Y0213750D01*
X0259210Y0213740D02*
X0259940Y0213760D01*
X0260670Y0213820D01*
X0261400Y0213910D01*
X0262120Y0214050D01*
X0262830Y0214220D01*
X0263530Y0214420D01*
X0264220Y0214670D01*
X0264900Y0214950D01*
X0265560Y0215260D01*
X0266200Y0215610D01*
X0266820Y0216000D01*
X0267430Y0216410D01*
X0268010Y0216860D01*
X0268560Y0217330D01*
X0269100Y0217830D01*
X0270090Y0218830D02*
X0270540Y0219310D01*
X0270960Y0219800D01*
X0271360Y0220320D01*
X0271730Y0220860D01*
X0272080Y0221420D01*
X0272390Y0222000D01*
X0272670Y0222590D01*
X0272920Y0223190D01*
X0273140Y0223810D01*
X0273320Y0224430D01*
X0273480Y0225070D01*
X0273600Y0225710D01*
X0273680Y0226360D01*
X0273730Y0227020D01*
X0273750Y0227670D01*
X0290000Y0215770D02*
X0289980Y0215250D01*
X0289930Y0214740D01*
X0289850Y0214230D01*
X0289730Y0213720D01*
X0289580Y0213230D01*
X0289400Y0212740D01*
X0289180Y0212270D01*
X0288940Y0211810D01*
X0288670Y0211380D01*
X0288370Y0210950D01*
X0288040Y0210550D01*
X0287680Y0210180D01*
X0276530Y0199040D02*
X0276110Y0198640D01*
X0275670Y0198280D01*
X0275210Y0197940D01*
X0274730Y0197620D01*
X0274220Y0197340D01*
X0273710Y0197090D01*
X0273180Y0196870D01*
X0272630Y0196680D01*
X0272080Y0196530D01*
X0271520Y0196410D01*
X0270950Y0196320D01*
X0270370Y0196270D01*
X0269800Y0196250D01*
X0273750Y0246090D02*
X0273730Y0246850D01*
X0273680Y0247610D01*
X0273580Y0248360D01*
X0273450Y0249110D01*
X0273290Y0249850D01*
X0273080Y0250580D01*
X0272850Y0251300D01*
X0272570Y0252010D01*
X0272270Y0252700D01*
X0271920Y0253380D01*
X0271550Y0254040D01*
X0271140Y0254680D01*
X0270710Y0255300D01*
X0270240Y0255900D01*
X0269750Y0256470D01*
X0269220Y0257020D01*
X0285960Y0267800D02*
X0286450Y0267270D01*
X0286920Y0266720D01*
X0287360Y0266150D01*
X0287770Y0265550D01*
X0288150Y0264930D01*
X0288490Y0264300D01*
X0288810Y0263650D01*
X0289080Y0262980D01*
X0289320Y0262300D01*
X0289530Y0261600D01*
X0289700Y0260900D01*
X0289830Y0260190D01*
X0289920Y0259470D01*
X0289980Y0258750D01*
X0290000Y0258030D01*
X0267370Y0258870D02*
X0266860Y0259340D01*
X0266330Y0259790D01*
X0265780Y0260210D01*
X0265200Y0260590D01*
X0264600Y0260950D01*
X0263990Y0261260D01*
X0263350Y0261550D01*
X0262710Y0261800D01*
X0262040Y0262010D01*
X0261370Y0262180D01*
X0260690Y0262320D01*
X0260000Y0262410D01*
X0259310Y0262470D01*
X0258620Y0262490D01*
D13*
X0255000Y0263750D02*
X0255000Y0277500D01*
X0256250Y0278750D01*
X0262500Y0278750D01*
X0262500Y0263750D01*
X0255000Y0263750D01*
X0252500Y0263750D02*
X0245000Y0263750D01*
X0245000Y0277500D01*
X0246250Y0278750D01*
X0252500Y0278750D01*
X0252500Y0263750D01*
X0245000Y0261870D02*
X0243750Y0263120D01*
X0230000Y0263120D01*
X0230000Y0255620D01*
X0245000Y0255620D01*
X0245000Y0261870D01*
X0245000Y0266870D02*
X0230000Y0266870D01*
X0230000Y0274370D01*
X0243750Y0274370D01*
X0245000Y0273120D01*
X0245000Y0266870D01*
X0243750Y0251870D02*
X0245000Y0250620D01*
X0245000Y0244370D01*
X0230000Y0244370D01*
X0230000Y0251870D01*
X0243750Y0251870D01*
X0243750Y0240620D02*
X0245000Y0239370D01*
X0245000Y0233120D01*
X0230000Y0233120D01*
X0230000Y0240620D01*
X0243750Y0240620D01*
X0243120Y0229370D02*
X0244370Y0228120D01*
X0244370Y0221870D01*
X0229370Y0221870D01*
X0229370Y0229370D01*
X0243120Y0229370D01*
X0243120Y0218120D02*
X0244370Y0216870D01*
X0244370Y0210620D01*
X0229370Y0210620D01*
X0229370Y0218120D01*
X0243120Y0218120D01*
X0245000Y0211250D02*
X0252500Y0211250D01*
X0252500Y0197500D01*
X0251250Y0196250D01*
X0245000Y0196250D01*
X0245000Y0211250D01*
X0243750Y0207500D02*
X0245000Y0206250D01*
X0245000Y0200000D01*
X0230000Y0200000D01*
X0230000Y0207500D01*
X0243750Y0207500D01*
X0255000Y0211250D02*
X0255000Y0196250D01*
X0261250Y0196250D01*
X0262500Y0197500D01*
X0262500Y0211250D01*
X0255000Y0211250D01*
X0262610Y0209510D02*
X0269400Y0212680D01*
X0275210Y0200220D01*
X0274610Y0198560D01*
X0268950Y0195910D01*
X0262610Y0209510D01*
X0267670Y0211400D02*
X0272970Y0216700D01*
X0282690Y0206980D01*
X0282690Y0205210D01*
X0278270Y0200790D01*
X0267670Y0211400D01*
X0272710Y0215770D02*
X0275880Y0222560D01*
X0288340Y0216750D01*
X0288940Y0215090D01*
X0286300Y0209430D01*
X0272710Y0215770D01*
X0275000Y0220620D02*
X0275000Y0228120D01*
X0288750Y0228120D01*
X0290000Y0226870D01*
X0290000Y0220620D01*
X0275000Y0220620D01*
X0275000Y0228750D02*
X0275000Y0236250D01*
X0288750Y0236250D01*
X0290000Y0235000D01*
X0290000Y0228750D01*
X0275000Y0228750D01*
X0275000Y0236870D02*
X0275000Y0244370D01*
X0288750Y0244370D01*
X0290000Y0243120D01*
X0290000Y0236870D01*
X0275000Y0236870D01*
X0275000Y0245000D02*
X0275000Y0252500D01*
X0288750Y0252500D01*
X0290000Y0251250D01*
X0290000Y0245000D01*
X0275000Y0245000D01*
X0276030Y0251430D02*
X0272860Y0258230D01*
X0285330Y0264040D01*
X0286990Y0263430D01*
X0289630Y0257770D01*
X0276030Y0251430D01*
X0274220Y0257670D02*
X0268920Y0262970D01*
X0278640Y0272690D01*
X0280410Y0272690D01*
X0284830Y0268270D01*
X0274220Y0257670D01*
X0270430Y0262410D02*
X0263180Y0264350D01*
X0266740Y0277630D01*
X0268270Y0278510D01*
X0274310Y0276900D01*
X0270430Y0262410D01*
D15*
X0267290Y0262300D02*
X0267290Y0261600D01*
X0266590Y0260900D01*
X0267290Y0260200D01*
X0267290Y0259500D01*
X0266590Y0258800D01*
X0265190Y0258800D01*
X0264490Y0259500D01*
X0265890Y0260900D02*
X0266590Y0260900D01*
X0267290Y0262300D02*
X0266590Y0263000D01*
X0265190Y0263000D01*
X0264490Y0262300D01*
X0262690Y0262300D02*
X0262690Y0259500D01*
X0261990Y0258800D01*
X0260590Y0258800D01*
X0259880Y0259500D01*
X0259880Y0262300D01*
X0260590Y0263000D01*
X0261990Y0263000D01*
X0262690Y0262300D01*
X0258080Y0263000D02*
X0258080Y0260200D01*
X0256680Y0258800D01*
X0255280Y0260200D01*
X0255280Y0263000D01*
X0250350Y0262100D02*
X0250350Y0259290D01*
X0247540Y0262100D01*
X0246840Y0262100D01*
X0246140Y0261390D01*
X0246140Y0259990D01*
X0246840Y0259290D01*
X0246840Y0257490D02*
X0246140Y0256790D01*
X0246140Y0255390D01*
X0246840Y0254690D01*
X0249650Y0254690D01*
X0250350Y0255390D01*
X0250350Y0256790D01*
X0249650Y0257490D01*
X0246840Y0257490D01*
X0246140Y0252890D02*
X0248950Y0252890D01*
X0250350Y0251490D01*
X0248950Y0250080D01*
X0246140Y0250080D01*
X0250850Y0232410D02*
X0250850Y0229600D01*
X0250850Y0231010D02*
X0246640Y0231010D01*
X0248040Y0229600D01*
X0247340Y0227800D02*
X0246640Y0227100D01*
X0246640Y0225700D01*
X0247340Y0225000D01*
X0250150Y0225000D01*
X0250850Y0225700D01*
X0250850Y0227100D01*
X0250150Y0227800D01*
X0247340Y0227800D01*
X0246640Y0223200D02*
X0249450Y0223200D01*
X0250850Y0221800D01*
X0249450Y0220400D01*
X0246640Y0220400D01*
X0245960Y0215850D02*
X0245960Y0213050D01*
X0247360Y0211650D01*
X0248760Y0213050D01*
X0248760Y0215850D01*
X0250560Y0215150D02*
X0250560Y0212350D01*
X0251260Y0211650D01*
X0252670Y0211650D01*
X0253370Y0212350D01*
X0253370Y0215150D01*
X0252670Y0215850D01*
X0251260Y0215850D01*
X0250560Y0215150D01*
X0255170Y0215850D02*
X0257970Y0215850D01*
X0257970Y0215150D01*
X0255170Y0212350D01*
X0255170Y0211650D01*
X0261840Y0213350D02*
X0263820Y0211370D01*
X0265800Y0211370D01*
X0265800Y0213350D01*
X0263820Y0215330D01*
X0265590Y0216110D02*
X0267570Y0214130D01*
X0268560Y0214130D01*
X0269560Y0215120D01*
X0269560Y0216110D01*
X0267570Y0218090D01*
X0266580Y0218090D01*
X0265590Y0217100D01*
X0265590Y0216110D01*
X0269840Y0218380D02*
X0269840Y0220360D01*
X0270330Y0221840D01*
X0271320Y0219860D02*
X0269840Y0218380D01*
X0270830Y0217390D01*
X0271820Y0217390D01*
X0272810Y0218380D01*
X0272810Y0219370D01*
X0272320Y0219860D01*
X0271320Y0219860D01*
X0272570Y0227210D02*
X0269770Y0227210D01*
X0272570Y0227210D02*
X0273970Y0228610D01*
X0272570Y0230010D01*
X0269770Y0230010D01*
X0270470Y0231810D02*
X0273270Y0231810D01*
X0273970Y0232510D01*
X0273970Y0233920D01*
X0273270Y0234620D01*
X0270470Y0234620D01*
X0269770Y0233920D01*
X0269770Y0232510D01*
X0270470Y0231810D01*
X0269770Y0236420D02*
X0271870Y0236420D01*
X0271170Y0237820D01*
X0271170Y0238520D01*
X0271870Y0239220D01*
X0273270Y0239220D01*
X0273970Y0238520D01*
X0273970Y0237120D01*
X0273270Y0236420D01*
X0269770Y0236420D02*
X0269770Y0239220D01*
X0288120Y0265110D02*
X0291100Y0268080D01*
X0288120Y0268080D01*
X0290110Y0266100D01*
X0287840Y0270340D02*
X0287840Y0271330D01*
X0286850Y0272320D01*
X0285860Y0272320D01*
X0283880Y0270340D01*
X0283880Y0269350D01*
X0284870Y0268360D01*
X0285860Y0268360D01*
X0287840Y0270340D01*
X0285080Y0274090D02*
X0283100Y0272110D01*
X0281120Y0272110D01*
X0281120Y0274090D01*
X0283100Y0276070D01*
X0241100Y0200850D02*
X0241100Y0196650D01*
X0238290Y0200850D01*
X0238290Y0196650D01*
X0236620Y0196650D02*
X0235220Y0196650D01*
X0235920Y0196650D02*
X0235920Y0200850D01*
X0235220Y0200850D02*
X0236620Y0200850D01*
X0233420Y0200850D02*
X0233420Y0198050D01*
X0232020Y0196650D01*
X0230620Y0198050D01*
X0230620Y0200850D01*
D15*
X0227100Y0194600D02*
X0227100Y0280400D01*
X0292900Y0280400D01*
X0292900Y0194600D01*
X0227100Y0194600D01*
X0010000Y0287500D02*
G75*
%LPD*%
D17*
X0010000Y0287500D02*
X0010000Y0372500D01*
X0075000Y0372500D01*
X0075000Y0287500D01*
X0010000Y0287500D01*
D11*
X0013120Y0290620D02*
X0026610Y0290620D01*
X0026610Y0290630D02*
X0026780Y0290650D01*
X0026950Y0290700D01*
X0027100Y0290780D01*
X0027230Y0290890D01*
X0027340Y0291020D01*
X0027420Y0291170D01*
X0027470Y0291340D01*
X0027490Y0291510D01*
X0027500Y0291510D02*
X0027500Y0341430D01*
X0027520Y0341720D01*
X0027580Y0342010D01*
X0027670Y0342290D01*
X0027800Y0342560D01*
X0027960Y0342800D01*
X0028160Y0343020D01*
X0028380Y0343220D01*
X0028630Y0343380D01*
X0028890Y0343510D01*
X0029170Y0343600D01*
X0029460Y0343660D01*
X0029750Y0343680D01*
X0030040Y0343660D01*
X0030330Y0343600D01*
X0030610Y0343510D01*
X0030880Y0343380D01*
X0031120Y0343220D01*
X0031340Y0343020D01*
X0040290Y0334080D01*
X0040530Y0333860D01*
X0040800Y0333660D01*
X0041080Y0333500D01*
X0041380Y0333370D01*
X0041690Y0333270D01*
X0042010Y0333200D01*
X0042340Y0333160D01*
X0042660Y0333160D01*
X0042990Y0333200D01*
X0043310Y0333270D01*
X0043620Y0333370D01*
X0043920Y0333500D01*
X0044200Y0333660D01*
X0044470Y0333860D01*
X0044710Y0334080D01*
X0053650Y0343020D01*
X0053870Y0343220D01*
X0054110Y0343380D01*
X0054380Y0343510D01*
X0054660Y0343600D01*
X0054950Y0343660D01*
X0055240Y0343680D01*
X0055530Y0343660D01*
X0055820Y0343600D01*
X0056100Y0343510D01*
X0056360Y0343380D01*
X0056610Y0343220D01*
X0056830Y0343020D01*
X0057030Y0342800D01*
X0057190Y0342560D01*
X0057320Y0342290D01*
X0057410Y0342010D01*
X0057470Y0341720D01*
X0057490Y0341430D01*
X0057500Y0341430D02*
X0057500Y0291250D01*
X0057490Y0291250D02*
X0057510Y0291110D01*
X0057550Y0290980D01*
X0057630Y0290860D01*
X0057730Y0290760D01*
X0057850Y0290680D01*
X0057980Y0290640D01*
X0058120Y0290620D01*
X0071610Y0290620D01*
X0071610Y0290630D02*
X0071780Y0290650D01*
X0071950Y0290700D01*
X0072100Y0290780D01*
X0072230Y0290890D01*
X0072340Y0291020D01*
X0072420Y0291170D01*
X0072470Y0291340D01*
X0072490Y0291510D01*
X0072500Y0291510D02*
X0072500Y0366720D01*
X0072480Y0366940D01*
X0072430Y0367150D01*
X0072350Y0367360D01*
X0072230Y0367540D01*
X0072090Y0367710D01*
X0071920Y0367850D01*
X0071740Y0367970D01*
X0071530Y0368050D01*
X0071320Y0368100D01*
X0071100Y0368120D01*
X0057130Y0368120D01*
X0054550Y0367050D02*
X0045290Y0357790D01*
X0045290Y0357800D02*
X0045010Y0357540D01*
X0044690Y0357310D01*
X0044360Y0357110D01*
X0044010Y0356940D01*
X0043650Y0356810D01*
X0043270Y0356720D01*
X0042890Y0356660D01*
X0042500Y0356640D01*
X0042110Y0356660D01*
X0041730Y0356720D01*
X0041350Y0356810D01*
X0040990Y0356940D01*
X0040640Y0357110D01*
X0040310Y0357310D01*
X0039990Y0357540D01*
X0039710Y0357800D01*
X0039700Y0357790D02*
X0030440Y0367050D01*
X0027860Y0368120D02*
X0013120Y0368120D01*
X0013120Y0368130D02*
X0012980Y0368110D01*
X0012850Y0368070D01*
X0012730Y0367990D01*
X0012630Y0367890D01*
X0012550Y0367770D01*
X0012510Y0367640D01*
X0012490Y0367500D01*
X0012500Y0367500D02*
X0012500Y0291250D01*
X0012490Y0291250D02*
X0012510Y0291110D01*
X0012550Y0290980D01*
X0012630Y0290860D01*
X0012730Y0290760D01*
X0012850Y0290680D01*
X0012980Y0290640D01*
X0013120Y0290620D01*
X0056250Y0343750D02*
X0056250Y0343930D01*
X0054560Y0367050D02*
X0054820Y0367290D01*
X0055110Y0367510D01*
X0055410Y0367690D01*
X0055740Y0367840D01*
X0056070Y0367960D01*
X0056420Y0368050D01*
X0056770Y0368100D01*
X0057130Y0368120D01*
X0030430Y0367050D02*
X0030170Y0367290D01*
X0029880Y0367510D01*
X0029580Y0367690D01*
X0029250Y0367840D01*
X0028920Y0367960D01*
X0028570Y0368050D01*
X0028220Y0368100D01*
X0027860Y0368120D01*
D13*
X0027500Y0366870D02*
X0026250Y0368120D01*
X0012500Y0368120D01*
X0012500Y0360620D01*
X0027500Y0360620D01*
X0027500Y0366870D01*
X0027500Y0364370D02*
X0026250Y0363120D01*
X0026250Y0349370D01*
X0033750Y0349370D01*
X0033750Y0364370D01*
X0027500Y0364370D01*
X0026250Y0358120D02*
X0027500Y0356870D01*
X0027500Y0350620D01*
X0012500Y0350620D01*
X0012500Y0358120D01*
X0026250Y0358120D01*
X0032500Y0355620D02*
X0033750Y0356870D01*
X0040000Y0356870D01*
X0040000Y0341870D01*
X0032500Y0341870D01*
X0032500Y0355620D01*
X0038750Y0348120D02*
X0040000Y0349370D01*
X0046250Y0349370D01*
X0046250Y0334370D01*
X0038750Y0334370D01*
X0038750Y0348120D01*
X0045000Y0341870D02*
X0045000Y0355620D01*
X0046250Y0356870D01*
X0052500Y0356870D01*
X0052500Y0341870D01*
X0045000Y0341870D01*
X0051250Y0350000D02*
X0051250Y0363750D01*
X0052500Y0365000D01*
X0058750Y0365000D01*
X0058750Y0350000D01*
X0051250Y0350000D01*
X0057500Y0350620D02*
X0057500Y0358120D01*
X0071250Y0358120D01*
X0072500Y0356870D01*
X0072500Y0350620D01*
X0057500Y0350620D01*
X0057500Y0348120D02*
X0071250Y0348120D01*
X0072500Y0346870D01*
X0072500Y0340620D01*
X0057500Y0340620D01*
X0057500Y0348120D01*
X0057500Y0338120D02*
X0071250Y0338120D01*
X0072500Y0336870D01*
X0072500Y0330620D01*
X0057500Y0330620D01*
X0057500Y0338120D01*
X0057500Y0328120D02*
X0071250Y0328120D01*
X0072500Y0326870D01*
X0072500Y0320620D01*
X0057500Y0320620D01*
X0057500Y0328120D01*
X0057500Y0318120D02*
X0071250Y0318120D01*
X0072500Y0316870D01*
X0072500Y0310620D01*
X0057500Y0310620D01*
X0057500Y0318120D01*
X0057500Y0308120D02*
X0071250Y0308120D01*
X0072500Y0306870D01*
X0072500Y0300620D01*
X0057500Y0300620D01*
X0057500Y0308120D01*
X0057500Y0298120D02*
X0071250Y0298120D01*
X0072500Y0296870D01*
X0072500Y0290620D01*
X0057500Y0290620D01*
X0057500Y0298120D01*
X0027500Y0296870D02*
X0027500Y0290620D01*
X0012500Y0290620D01*
X0012500Y0298120D01*
X0026250Y0298120D01*
X0027500Y0296870D01*
X0027500Y0300620D02*
X0012500Y0300620D01*
X0012500Y0308120D01*
X0026250Y0308120D01*
X0027500Y0306870D01*
X0027500Y0300620D01*
X0027500Y0310620D02*
X0012500Y0310620D01*
X0012500Y0318120D01*
X0026250Y0318120D01*
X0027500Y0316870D01*
X0027500Y0310620D01*
X0027500Y0320620D02*
X0012500Y0320620D01*
X0012500Y0328120D01*
X0026250Y0328120D01*
X0027500Y0326870D01*
X0027500Y0320620D01*
X0027500Y0330620D02*
X0012500Y0330620D01*
X0012500Y0338120D01*
X0026250Y0338120D01*
X0027500Y0336870D01*
X0027500Y0330620D01*
X0027500Y0340620D02*
X0012500Y0340620D01*
X0012500Y0348120D01*
X0026250Y0348120D01*
X0027500Y0346870D01*
X0027500Y0340620D01*
X0057500Y0360620D02*
X0057500Y0368120D01*
X0071250Y0368120D01*
X0072500Y0366870D01*
X0072500Y0360620D01*
X0057500Y0360620D01*
D15*
X0052060Y0364500D02*
X0052060Y0365490D01*
X0050070Y0367470D01*
X0049080Y0367470D01*
X0048090Y0366480D01*
X0048090Y0365490D01*
X0050070Y0363510D01*
X0051060Y0363510D01*
X0052060Y0364500D01*
X0052340Y0367750D02*
X0054320Y0369730D01*
X0055310Y0367750D02*
X0052340Y0370720D01*
X0052340Y0367750D01*
X0048300Y0362730D02*
X0046320Y0364710D01*
X0044340Y0362730D02*
X0046320Y0360750D01*
X0048300Y0360750D01*
X0048300Y0362730D01*
X0040650Y0363010D02*
X0040160Y0362510D01*
X0039170Y0362510D01*
X0039170Y0361520D01*
X0038670Y0361030D01*
X0037680Y0361030D01*
X0036690Y0362020D01*
X0036690Y0363010D01*
X0035420Y0364280D02*
X0037400Y0366260D01*
X0037400Y0367260D01*
X0036410Y0368250D01*
X0035420Y0368250D01*
X0033440Y0366260D01*
X0033440Y0365270D01*
X0034430Y0364280D01*
X0035420Y0364280D01*
X0038670Y0364990D02*
X0039660Y0364990D01*
X0040650Y0364000D01*
X0040650Y0363010D01*
X0039170Y0362510D02*
X0038670Y0363010D01*
X0032660Y0368030D02*
X0034640Y0370020D01*
X0032660Y0368030D02*
X0030680Y0368030D01*
X0030680Y0370020D01*
X0032660Y0372000D01*
X0052270Y0349280D02*
X0052270Y0346480D01*
X0054370Y0346480D01*
X0053670Y0347880D01*
X0053670Y0348580D01*
X0054370Y0349280D01*
X0055770Y0349280D01*
X0056470Y0348580D01*
X0056470Y0347180D01*
X0055770Y0346480D01*
X0055770Y0344680D02*
X0052970Y0344680D01*
X0052270Y0343980D01*
X0052270Y0342580D01*
X0052970Y0341880D01*
X0055770Y0341880D01*
X0056470Y0342580D01*
X0056470Y0343980D01*
X0055770Y0344680D01*
X0055070Y0340070D02*
X0052270Y0340070D01*
X0052270Y0337270D02*
X0055070Y0337270D01*
X0056470Y0338670D01*
X0055070Y0340070D01*
X0055070Y0331780D02*
X0054370Y0331080D01*
X0054370Y0328980D01*
X0055770Y0328980D01*
X0056470Y0329680D01*
X0056470Y0331080D01*
X0055770Y0331780D01*
X0055070Y0331780D01*
X0052970Y0330380D02*
X0054370Y0328980D01*
X0052970Y0330380D02*
X0052270Y0331780D01*
X0052970Y0327180D02*
X0052270Y0326480D01*
X0052270Y0325080D01*
X0052970Y0324380D01*
X0055770Y0324380D01*
X0056470Y0325080D01*
X0056470Y0326480D01*
X0055770Y0327180D01*
X0052970Y0327180D01*
X0052270Y0322570D02*
X0055070Y0322570D01*
X0056470Y0321170D01*
X0055070Y0319770D01*
X0052270Y0319770D01*
X0052270Y0303030D02*
X0052970Y0303030D01*
X0055770Y0300230D01*
X0056470Y0300230D01*
X0055770Y0298430D02*
X0052970Y0298430D01*
X0052270Y0297730D01*
X0052270Y0296330D01*
X0052970Y0295630D01*
X0055770Y0295630D01*
X0056470Y0296330D01*
X0056470Y0297730D01*
X0055770Y0298430D01*
X0052270Y0300230D02*
X0052270Y0303030D01*
X0052270Y0293820D02*
X0055070Y0293820D01*
X0056470Y0292420D01*
X0055070Y0291020D01*
X0052270Y0291020D01*
X0032720Y0291400D02*
X0031320Y0292800D01*
X0028520Y0292800D01*
X0028520Y0294600D02*
X0028520Y0296000D01*
X0028520Y0295300D02*
X0032720Y0295300D01*
X0032720Y0294600D02*
X0032720Y0296000D01*
X0032720Y0297670D02*
X0028520Y0297670D01*
X0032720Y0300470D01*
X0028520Y0300470D01*
X0028520Y0308460D02*
X0031320Y0308460D01*
X0032720Y0309860D01*
X0031320Y0311260D01*
X0028520Y0311260D01*
X0029220Y0313060D02*
X0032020Y0313060D01*
X0032720Y0313760D01*
X0032720Y0315170D01*
X0032020Y0315870D01*
X0029220Y0315870D01*
X0028520Y0315170D01*
X0028520Y0313760D01*
X0029220Y0313060D01*
X0029920Y0317670D02*
X0028520Y0319070D01*
X0032720Y0319070D01*
X0032720Y0317670D02*
X0032720Y0320470D01*
X0031450Y0335710D02*
X0028640Y0335710D01*
X0028640Y0338510D02*
X0031450Y0338510D01*
X0032850Y0337110D01*
X0031450Y0335710D01*
X0032150Y0340310D02*
X0029340Y0340310D01*
X0028640Y0341010D01*
X0028640Y0342420D01*
X0029340Y0343120D01*
X0032150Y0343120D01*
X0032850Y0342420D01*
X0032850Y0341010D01*
X0032150Y0340310D01*
X0032850Y0344920D02*
X0030040Y0347720D01*
X0029340Y0347720D01*
X0028640Y0347020D01*
X0028640Y0345620D01*
X0029340Y0344920D01*
X0032850Y0344920D02*
X0032850Y0347720D01*
X0032720Y0291400D02*
X0031320Y0289990D01*
X0028520Y0289990D01*
D15*
X0010400Y0287100D02*
X0010400Y0372100D01*
X0010400Y0372100D02*
X0075400Y0372100D01*
X0075400Y0372100D02*
X0075400Y0287100D01*
X0010400Y0287100D01*
X0082500Y0287500D02*
G75*
%LPD*%
D17*
X0082500Y0287500D02*
X0082500Y0372500D01*
X0147500Y0372500D01*
X0147500Y0287500D01*
X0082500Y0287500D01*
D11*
X0084370Y0307500D02*
X0084320Y0306710D01*
X0084300Y0305920D01*
X0084320Y0305130D01*
X0084380Y0304340D01*
X0084470Y0303550D01*
X0084600Y0302770D01*
X0084770Y0302000D01*
X0084980Y0301240D01*
X0085220Y0300480D01*
X0085490Y0299740D01*
X0085810Y0299020D01*
X0086150Y0298310D01*
X0086530Y0297610D01*
X0086940Y0296940D01*
X0087390Y0296280D01*
X0087860Y0295650D01*
X0088360Y0295040D01*
X0088890Y0294450D01*
X0089450Y0293890D01*
X0090040Y0293360D01*
X0090650Y0292860D01*
X0091280Y0292390D01*
X0091940Y0291940D01*
X0092610Y0291530D01*
X0093310Y0291150D01*
X0094020Y0290810D01*
X0094740Y0290490D01*
X0095480Y0290220D01*
X0096240Y0289980D01*
X0097000Y0289770D01*
X0097770Y0289600D01*
X0098550Y0289470D01*
X0099340Y0289380D01*
X0100130Y0289320D01*
X0100920Y0289300D01*
X0101710Y0289320D01*
X0102500Y0289370D01*
X0127500Y0289370D01*
X0127490Y0289370D02*
X0128290Y0289330D01*
X0129090Y0289320D01*
X0129890Y0289360D01*
X0130690Y0289430D01*
X0131480Y0289550D01*
X0132260Y0289700D01*
X0133040Y0289890D01*
X0133800Y0290120D01*
X0134560Y0290390D01*
X0135300Y0290690D01*
X0136020Y0291030D01*
X0136730Y0291400D01*
X0137410Y0291800D01*
X0138080Y0292240D01*
X0138730Y0292720D01*
X0139350Y0293220D01*
X0139940Y0293750D01*
X0140510Y0294310D01*
X0141050Y0294900D01*
X0141560Y0295520D01*
X0142050Y0296150D01*
X0142490Y0296810D01*
X0142910Y0297500D01*
X0143290Y0298200D01*
X0143640Y0298920D01*
X0143950Y0299650D01*
X0144230Y0300400D01*
X0144470Y0301170D01*
X0144670Y0301940D01*
X0144830Y0302720D01*
X0144960Y0303510D01*
X0145040Y0304310D01*
X0145090Y0305100D01*
X0145100Y0305900D01*
X0145070Y0306700D01*
X0145000Y0307500D01*
X0145000Y0353750D01*
X0145030Y0354530D01*
X0145020Y0355320D01*
X0144970Y0356100D01*
X0144880Y0356880D01*
X0144750Y0357660D01*
X0144590Y0358420D01*
X0144390Y0359180D01*
X0144150Y0359930D01*
X0143880Y0360670D01*
X0143570Y0361390D01*
X0143220Y0362100D01*
X0142840Y0362780D01*
X0142430Y0363450D01*
X0141990Y0364100D01*
X0141510Y0364730D01*
X0141010Y0365330D01*
X0140470Y0365900D01*
X0139910Y0366450D01*
X0139320Y0366970D01*
X0138710Y0367460D01*
X0138070Y0367930D01*
X0137420Y0368350D01*
X0136740Y0368750D01*
X0136040Y0369110D01*
X0135330Y0369440D01*
X0134600Y0369740D01*
X0133860Y0369990D01*
X0133110Y0370220D01*
X0132340Y0370400D01*
X0131570Y0370550D01*
X0130790Y0370660D01*
X0130010Y0370730D01*
X0129230Y0370760D01*
X0128440Y0370750D01*
X0127660Y0370710D01*
X0126880Y0370620D01*
X0126870Y0370620D02*
X0102500Y0370620D01*
X0101680Y0370650D01*
X0100860Y0370640D01*
X0100050Y0370590D01*
X0099230Y0370510D01*
X0098420Y0370380D01*
X0097620Y0370220D01*
X0096830Y0370020D01*
X0096050Y0369780D01*
X0095280Y0369500D01*
X0094520Y0369190D01*
X0093780Y0368850D01*
X0093050Y0368460D01*
X0092350Y0368050D01*
X0091670Y0367600D01*
X0091000Y0367120D01*
X0090370Y0366600D01*
X0089750Y0366060D01*
X0089170Y0365490D01*
X0088610Y0364890D01*
X0088080Y0364270D01*
X0087580Y0363620D01*
X0087110Y0362950D01*
X0086670Y0362260D01*
X0086270Y0361550D01*
X0085900Y0360820D01*
X0085570Y0360070D01*
X0085270Y0359310D01*
X0085010Y0358530D01*
X0084790Y0357740D01*
X0084600Y0356950D01*
X0084450Y0356140D01*
X0084340Y0355330D01*
X0084270Y0354510D01*
X0084240Y0353700D01*
X0084250Y0352880D01*
X0084300Y0352060D01*
X0084380Y0351250D01*
X0084370Y0351250D02*
X0084370Y0307500D01*
X0101250Y0316870D02*
X0101250Y0342500D01*
X0101360Y0343220D01*
X0101490Y0343950D01*
X0101670Y0344660D01*
X0101890Y0345360D01*
X0102140Y0346050D01*
X0102420Y0346730D01*
X0102750Y0347380D01*
X0103110Y0348030D01*
X0103500Y0348650D01*
X0103920Y0349250D01*
X0104380Y0349820D01*
X0104860Y0350370D01*
X0105370Y0350900D01*
X0105910Y0351400D01*
X0106480Y0351860D01*
X0107070Y0352300D01*
X0107680Y0352710D01*
X0108320Y0353080D01*
X0108970Y0353420D01*
X0109640Y0353720D01*
X0110320Y0353980D01*
X0111020Y0354210D01*
X0111730Y0354410D01*
X0112440Y0354560D01*
X0113170Y0354680D01*
X0113900Y0354760D01*
X0114630Y0354800D01*
X0115370Y0354800D01*
X0116100Y0354760D01*
X0116830Y0354680D01*
X0117560Y0354560D01*
X0118270Y0354410D01*
X0118980Y0354210D01*
X0119680Y0353980D01*
X0120360Y0353720D01*
X0121030Y0353420D01*
X0121680Y0353080D01*
X0122320Y0352710D01*
X0122930Y0352300D01*
X0123520Y0351860D01*
X0124090Y0351400D01*
X0124630Y0350900D01*
X0125140Y0350370D01*
X0125620Y0349820D01*
X0126080Y0349250D01*
X0126500Y0348650D01*
X0126890Y0348030D01*
X0127250Y0347380D01*
X0127580Y0346730D01*
X0127860Y0346050D01*
X0128110Y0345360D01*
X0128330Y0344660D01*
X0128510Y0343950D01*
X0128640Y0343220D01*
X0128750Y0342500D01*
X0128750Y0316870D01*
X0128640Y0316150D01*
X0128510Y0315420D01*
X0128330Y0314710D01*
X0128110Y0314010D01*
X0127860Y0313320D01*
X0127580Y0312640D01*
X0127250Y0311990D01*
X0126890Y0311340D01*
X0126500Y0310720D01*
X0126080Y0310120D01*
X0125620Y0309550D01*
X0125140Y0309000D01*
X0124630Y0308470D01*
X0124090Y0307970D01*
X0123520Y0307510D01*
X0122930Y0307070D01*
X0122320Y0306660D01*
X0121680Y0306290D01*
X0121030Y0305950D01*
X0120360Y0305650D01*
X0119680Y0305390D01*
X0118980Y0305160D01*
X0118270Y0304960D01*
X0117560Y0304810D01*
X0116830Y0304690D01*
X0116100Y0304610D01*
X0115370Y0304570D01*
X0114630Y0304570D01*
X0113900Y0304610D01*
X0113170Y0304690D01*
X0112440Y0304810D01*
X0111730Y0304960D01*
X0111020Y0305160D01*
X0110320Y0305390D01*
X0109640Y0305650D01*
X0108970Y0305950D01*
X0108320Y0306290D01*
X0107680Y0306660D01*
X0107070Y0307070D01*
X0106480Y0307510D01*
X0105910Y0307970D01*
X0105370Y0308470D01*
X0104860Y0309000D01*
X0104380Y0309550D01*
X0103920Y0310120D01*
X0103500Y0310720D01*
X0103110Y0311340D01*
X0102750Y0311990D01*
X0102420Y0312640D01*
X0102140Y0313320D01*
X0101890Y0314010D01*
X0101670Y0314710D01*
X0101490Y0315420D01*
X0101360Y0316150D01*
X0101250Y0316870D01*
D13*
X0100000Y0318750D02*
X0086250Y0318750D01*
X0085000Y0320000D01*
X0085000Y0326250D01*
X0100000Y0326250D01*
X0100000Y0318750D01*
X0100000Y0311250D01*
X0086250Y0311250D01*
X0085000Y0312500D01*
X0085000Y0318750D01*
X0100000Y0318750D01*
X0098370Y0312620D02*
X0102120Y0306120D01*
X0090210Y0299250D01*
X0088500Y0299710D01*
X0085380Y0305120D01*
X0098370Y0312620D01*
X0099870Y0307120D02*
X0106370Y0303370D01*
X0099490Y0291460D01*
X0097790Y0291000D01*
X0092370Y0294130D01*
X0099870Y0307120D01*
X0104370Y0303750D02*
X0111870Y0303750D01*
X0111870Y0290000D01*
X0110620Y0288750D01*
X0104370Y0288750D01*
X0104370Y0303750D01*
X0111250Y0303750D02*
X0118750Y0303750D01*
X0118750Y0290000D01*
X0117500Y0288750D01*
X0111250Y0288750D01*
X0111250Y0303750D01*
X0118120Y0303750D02*
X0125620Y0303750D01*
X0125620Y0290000D01*
X0124370Y0288750D01*
X0118120Y0288750D01*
X0118120Y0303750D01*
X0123620Y0303370D02*
X0130120Y0307120D01*
X0136990Y0295210D01*
X0136540Y0293500D01*
X0131120Y0290380D01*
X0123620Y0303370D01*
X0127880Y0306120D02*
X0131630Y0312620D01*
X0143530Y0305740D01*
X0143990Y0304040D01*
X0140870Y0298620D01*
X0127880Y0306120D01*
X0130000Y0311250D02*
X0130000Y0318750D01*
X0143750Y0318750D01*
X0145000Y0317500D01*
X0145000Y0311250D01*
X0130000Y0311250D01*
X0130000Y0318750D02*
X0130000Y0326250D01*
X0130000Y0333750D01*
X0130000Y0341250D01*
X0143750Y0341250D01*
X0145000Y0340000D01*
X0145000Y0333750D01*
X0130000Y0333750D01*
X0143750Y0333750D01*
X0145000Y0332500D01*
X0145000Y0326250D01*
X0130000Y0326250D01*
X0143750Y0326250D01*
X0145000Y0325000D01*
X0145000Y0318750D01*
X0130000Y0318750D01*
X0130000Y0341250D02*
X0130000Y0348750D01*
X0143750Y0348750D01*
X0145000Y0347500D01*
X0145000Y0341250D01*
X0130000Y0341250D01*
X0131630Y0346750D02*
X0127880Y0353240D01*
X0139780Y0360120D01*
X0141490Y0359660D01*
X0144620Y0354250D01*
X0131630Y0346750D01*
X0130120Y0352250D02*
X0123620Y0356000D01*
X0130500Y0367910D01*
X0132210Y0368370D01*
X0137620Y0365240D01*
X0130120Y0352250D01*
X0125620Y0356250D02*
X0118120Y0356250D01*
X0118120Y0370000D01*
X0119370Y0371250D01*
X0125620Y0371250D01*
X0125620Y0356250D01*
X0118750Y0356250D02*
X0111250Y0356250D01*
X0111250Y0370000D01*
X0112500Y0371250D01*
X0118750Y0371250D01*
X0118750Y0356250D01*
X0111870Y0356250D02*
X0104370Y0356250D01*
X0104370Y0370000D01*
X0105620Y0371250D01*
X0111870Y0371250D01*
X0111870Y0356250D01*
X0106370Y0356000D02*
X0099870Y0352250D01*
X0093000Y0364160D01*
X0093460Y0365870D01*
X0098870Y0368990D01*
X0106370Y0356000D01*
X0102120Y0353240D02*
X0098370Y0346750D01*
X0086460Y0353620D01*
X0086000Y0355330D01*
X0089130Y0360740D01*
X0102120Y0353240D01*
X0100000Y0348750D02*
X0100000Y0341250D01*
X0086250Y0341250D01*
X0085000Y0342500D01*
X0085000Y0348750D01*
X0100000Y0348750D01*
X0100000Y0341250D02*
X0100000Y0333750D01*
X0100000Y0326250D01*
X0086250Y0326250D01*
X0085000Y0327500D01*
X0085000Y0333750D01*
X0100000Y0333750D01*
X0086250Y0333750D01*
X0085000Y0335000D01*
X0085000Y0341250D01*
X0100000Y0341250D01*
D15*
X0100340Y0340550D02*
X0099640Y0339850D01*
X0099640Y0338450D01*
X0100340Y0337750D01*
X0103150Y0337750D01*
X0103850Y0338450D01*
X0103850Y0339850D01*
X0103150Y0340550D01*
X0100340Y0340550D01*
X0100340Y0342350D02*
X0099640Y0343060D01*
X0099640Y0344460D01*
X0100340Y0345160D01*
X0101040Y0345160D01*
X0103850Y0342350D01*
X0103850Y0345160D01*
X0102450Y0335950D02*
X0099640Y0335950D01*
X0099640Y0333150D02*
X0102450Y0333150D01*
X0103850Y0334550D01*
X0102450Y0335950D01*
X0104600Y0324280D02*
X0104600Y0321480D01*
X0104600Y0322880D02*
X0100390Y0322880D01*
X0101790Y0321480D01*
X0101090Y0319680D02*
X0100390Y0318980D01*
X0100390Y0317580D01*
X0101090Y0316880D01*
X0103900Y0316880D01*
X0104600Y0317580D01*
X0104600Y0318980D01*
X0103900Y0319680D01*
X0101090Y0319680D01*
X0100390Y0315070D02*
X0103200Y0315070D01*
X0104600Y0313670D01*
X0103200Y0312270D01*
X0100390Y0312270D01*
X0110620Y0308350D02*
X0110620Y0305550D01*
X0112020Y0304150D01*
X0113420Y0305550D01*
X0113420Y0308350D01*
X0115220Y0308350D02*
X0116620Y0308350D01*
X0115920Y0308350D02*
X0115920Y0304150D01*
X0115220Y0304150D02*
X0116620Y0304150D01*
X0118290Y0304150D02*
X0118290Y0308350D01*
X0121100Y0304150D01*
X0121100Y0308350D01*
X0125390Y0318520D02*
X0128200Y0318520D01*
X0129600Y0319920D01*
X0128200Y0321320D01*
X0125390Y0321320D01*
X0126090Y0323130D02*
X0128900Y0323130D01*
X0129600Y0323830D01*
X0129600Y0325230D01*
X0128900Y0325930D01*
X0126090Y0325930D01*
X0125390Y0325230D01*
X0125390Y0323830D01*
X0126090Y0323130D01*
X0127490Y0327730D02*
X0127490Y0329830D01*
X0128200Y0330530D01*
X0128900Y0330530D01*
X0129600Y0329830D01*
X0129600Y0328430D01*
X0128900Y0327730D01*
X0127490Y0327730D01*
X0126090Y0329130D01*
X0125390Y0330530D01*
X0142770Y0351900D02*
X0145570Y0351900D01*
X0146970Y0353300D01*
X0145570Y0354700D01*
X0142770Y0354700D01*
X0143470Y0356500D02*
X0146270Y0356500D01*
X0146970Y0357200D01*
X0146970Y0358600D01*
X0146270Y0359300D01*
X0143470Y0359300D01*
X0142770Y0358600D01*
X0142770Y0357200D01*
X0143470Y0356500D01*
X0142770Y0361100D02*
X0144870Y0361100D01*
X0144170Y0362510D01*
X0144170Y0363210D01*
X0144870Y0363910D01*
X0146270Y0363910D01*
X0146970Y0363210D01*
X0146970Y0361810D01*
X0146270Y0361100D01*
X0142770Y0361100D02*
X0142770Y0363910D01*
X0142330Y0367900D02*
X0142330Y0372100D01*
X0140230Y0370000D01*
X0143030Y0370000D01*
X0138430Y0368600D02*
X0138430Y0371400D01*
X0137730Y0372100D01*
X0136330Y0372100D01*
X0135630Y0371400D01*
X0135630Y0368600D01*
X0136330Y0367900D01*
X0137730Y0367900D01*
X0138430Y0368600D01*
X0133820Y0369300D02*
X0133820Y0372100D01*
X0131020Y0372100D02*
X0131020Y0369300D01*
X0132420Y0367900D01*
X0133820Y0369300D01*
X0096440Y0369650D02*
X0096190Y0368700D01*
X0094970Y0368000D01*
X0094020Y0368250D01*
X0092460Y0367350D02*
X0091060Y0369780D01*
X0090100Y0370040D01*
X0088890Y0369340D01*
X0088630Y0368380D01*
X0090030Y0365950D01*
X0090990Y0365700D01*
X0092200Y0366400D01*
X0092460Y0367350D01*
X0094530Y0370170D02*
X0095140Y0370520D01*
X0096090Y0370260D01*
X0096440Y0369650D01*
X0095140Y0370520D02*
X0095390Y0371480D01*
X0095040Y0372080D01*
X0094090Y0372340D01*
X0092870Y0371640D01*
X0092620Y0370680D01*
X0086720Y0368080D02*
X0088120Y0365660D01*
X0087610Y0363740D01*
X0085690Y0364260D01*
X0084290Y0366680D01*
X0085020Y0292230D02*
X0085020Y0289420D01*
X0086420Y0288020D01*
X0087820Y0289420D01*
X0087820Y0292230D01*
X0089630Y0291520D02*
X0089630Y0288720D01*
X0090330Y0288020D01*
X0091730Y0288020D01*
X0092430Y0288720D01*
X0092430Y0291520D01*
X0091730Y0292230D01*
X0090330Y0292230D01*
X0089630Y0291520D01*
X0094230Y0291520D02*
X0094230Y0290820D01*
X0094930Y0290120D01*
X0096330Y0290120D01*
X0097030Y0289420D01*
X0097030Y0288720D01*
X0096330Y0288020D01*
X0094930Y0288020D01*
X0094230Y0288720D01*
X0094230Y0289420D01*
X0094930Y0290120D01*
X0096330Y0290120D02*
X0097030Y0290820D01*
X0097030Y0291520D01*
X0096330Y0292230D01*
X0094930Y0292230D01*
X0094230Y0291520D01*
X0134460Y0291980D02*
X0134460Y0289170D01*
X0135860Y0287770D01*
X0137260Y0289170D01*
X0137260Y0291980D01*
X0139060Y0291270D02*
X0139060Y0288470D01*
X0139760Y0287770D01*
X0141170Y0287770D01*
X0141870Y0288470D01*
X0141870Y0291270D01*
X0141170Y0291980D01*
X0139760Y0291980D01*
X0139060Y0291270D01*
X0143670Y0291980D02*
X0146470Y0291980D01*
X0146470Y0291270D01*
X0143670Y0288470D01*
X0143670Y0287770D01*
D15*
X0082100Y0287100D02*
X0082100Y0372100D01*
X0147900Y0372100D01*
X0147900Y0372100D02*
X0147900Y0287100D01*
X0082100Y0287100D01*
X0155000Y0287500D02*
G75*
%LPD*%
D17*
X0155000Y0287500D02*
X0155000Y0372500D01*
X0220000Y0372500D01*
X0220000Y0287500D01*
X0155000Y0287500D01*
D11*
X0157500Y0307500D02*
X0157500Y0370000D01*
X0172500Y0370000D01*
X0172500Y0317500D01*
X0157490Y0307500D02*
X0157420Y0306700D01*
X0157390Y0305900D01*
X0157400Y0305100D01*
X0157450Y0304310D01*
X0157530Y0303510D01*
X0157660Y0302720D01*
X0157820Y0301940D01*
X0158020Y0301170D01*
X0158260Y0300400D01*
X0158540Y0299650D01*
X0158850Y0298920D01*
X0159200Y0298200D01*
X0159580Y0297500D01*
X0160000Y0296810D01*
X0160440Y0296150D01*
X0160930Y0295520D01*
X0161440Y0294900D01*
X0161980Y0294310D01*
X0162550Y0293750D01*
X0163140Y0293220D01*
X0163760Y0292720D01*
X0164410Y0292240D01*
X0165080Y0291800D01*
X0165760Y0291400D01*
X0166470Y0291030D01*
X0167190Y0290690D01*
X0167930Y0290390D01*
X0168690Y0290120D01*
X0169450Y0289890D01*
X0170230Y0289700D01*
X0171010Y0289550D01*
X0171800Y0289430D01*
X0172600Y0289360D01*
X0173400Y0289320D01*
X0174200Y0289330D01*
X0175000Y0289370D01*
X0200000Y0289370D01*
X0199990Y0289370D02*
X0200790Y0289330D01*
X0201590Y0289320D01*
X0202390Y0289360D01*
X0203190Y0289430D01*
X0203980Y0289550D01*
X0204760Y0289700D01*
X0205540Y0289890D01*
X0206300Y0290120D01*
X0207060Y0290390D01*
X0207800Y0290690D01*
X0208520Y0291030D01*
X0209230Y0291400D01*
X0209910Y0291800D01*
X0210580Y0292240D01*
X0211230Y0292720D01*
X0211850Y0293220D01*
X0212440Y0293750D01*
X0213010Y0294310D01*
X0213550Y0294900D01*
X0214060Y0295520D01*
X0214550Y0296150D01*
X0214990Y0296810D01*
X0215410Y0297500D01*
X0215790Y0298200D01*
X0216140Y0298920D01*
X0216450Y0299650D01*
X0216730Y0300400D01*
X0216970Y0301170D01*
X0217170Y0301940D01*
X0217330Y0302720D01*
X0217460Y0303510D01*
X0217540Y0304310D01*
X0217590Y0305100D01*
X0217600Y0305900D01*
X0217570Y0306700D01*
X0217500Y0307500D01*
X0217500Y0370000D01*
X0202500Y0370000D01*
X0202500Y0316870D01*
X0202380Y0316120D01*
X0202220Y0315380D01*
X0202030Y0314640D01*
X0201800Y0313920D01*
X0201530Y0313200D01*
X0201230Y0312510D01*
X0200900Y0311820D01*
X0200530Y0311160D01*
X0200120Y0310520D01*
X0199690Y0309890D01*
X0199220Y0309290D01*
X0198720Y0308720D01*
X0198200Y0308170D01*
X0197650Y0307640D01*
X0197070Y0307150D01*
X0196470Y0306680D01*
X0195850Y0306250D01*
X0195200Y0305840D01*
X0194540Y0305480D01*
X0193860Y0305140D01*
X0193160Y0304840D01*
X0192450Y0304570D01*
X0191720Y0304340D01*
X0190990Y0304150D01*
X0190240Y0304000D01*
X0189490Y0303880D01*
X0188730Y0303800D01*
X0187980Y0303760D01*
X0187220Y0303750D01*
X0186460Y0303790D01*
X0185700Y0303860D01*
X0184950Y0303970D01*
X0184200Y0304120D01*
X0183460Y0304310D01*
X0182740Y0304530D01*
X0182020Y0304790D01*
X0181320Y0305080D01*
X0180640Y0305410D01*
X0179970Y0305780D01*
X0179320Y0306180D01*
X0178690Y0306600D01*
X0178090Y0307060D01*
X0177510Y0307550D01*
X0176950Y0308070D01*
X0176420Y0308620D01*
X0175920Y0309190D01*
X0175450Y0309790D01*
X0175010Y0310410D01*
X0174600Y0311050D01*
X0174230Y0311710D01*
X0173880Y0312390D01*
X0173570Y0313080D01*
X0173300Y0313790D01*
X0173070Y0314510D01*
X0172870Y0315250D01*
X0172700Y0315990D01*
X0172580Y0316740D01*
X0172490Y0317500D01*
D13*
X0172500Y0320000D02*
X0171250Y0321250D01*
X0157500Y0321250D01*
X0157500Y0313750D01*
X0172500Y0313750D01*
X0172500Y0320000D01*
X0172500Y0321870D02*
X0157500Y0321870D01*
X0157500Y0329370D01*
X0171250Y0329370D01*
X0172500Y0328120D01*
X0172500Y0321870D01*
X0170870Y0313410D02*
X0169160Y0313870D01*
X0157250Y0306990D01*
X0161000Y0300500D01*
X0173990Y0308000D01*
X0170870Y0313410D01*
X0172830Y0307740D02*
X0171120Y0307280D01*
X0164250Y0295380D01*
X0170740Y0291630D01*
X0178240Y0304620D01*
X0172830Y0307740D01*
X0176870Y0303750D02*
X0175620Y0302500D01*
X0175620Y0288750D01*
X0183120Y0288750D01*
X0183120Y0303750D01*
X0176870Y0303750D01*
X0183750Y0302500D02*
X0185000Y0303750D01*
X0191250Y0303750D01*
X0191250Y0288750D01*
X0183750Y0288750D01*
X0183750Y0302500D01*
X0191870Y0302500D02*
X0193120Y0303750D01*
X0199370Y0303750D01*
X0199370Y0288750D01*
X0191870Y0288750D01*
X0191870Y0302500D01*
X0197370Y0303530D02*
X0197830Y0305240D01*
X0203240Y0308370D01*
X0210740Y0295380D01*
X0204250Y0291630D01*
X0197370Y0303530D01*
X0202250Y0307370D02*
X0201790Y0309080D01*
X0204920Y0314490D01*
X0217910Y0306990D01*
X0214160Y0300500D01*
X0202250Y0307370D01*
X0203750Y0313750D02*
X0202500Y0315000D01*
X0202500Y0321250D01*
X0217500Y0321250D01*
X0217500Y0313750D01*
X0203750Y0313750D01*
X0203750Y0321870D02*
X0202500Y0323120D01*
X0202500Y0329370D01*
X0217500Y0329370D01*
X0217500Y0321870D01*
X0203750Y0321870D01*
X0203750Y0330000D02*
X0202500Y0331250D01*
X0202500Y0337500D01*
X0217500Y0337500D01*
X0217500Y0330000D01*
X0203750Y0330000D01*
X0203750Y0338120D02*
X0202500Y0339370D01*
X0202500Y0345620D01*
X0217500Y0345620D01*
X0217500Y0338120D01*
X0203750Y0338120D01*
X0203750Y0346250D02*
X0202500Y0347500D01*
X0202500Y0353750D01*
X0217500Y0353750D01*
X0217500Y0346250D01*
X0203750Y0346250D01*
X0203750Y0354370D02*
X0202500Y0355620D01*
X0202500Y0361870D01*
X0217500Y0361870D01*
X0217500Y0354370D01*
X0203750Y0354370D01*
X0203750Y0362500D02*
X0202500Y0363750D01*
X0202500Y0370000D01*
X0217500Y0370000D01*
X0217500Y0362500D01*
X0203750Y0362500D01*
X0172500Y0362500D02*
X0157500Y0362500D01*
X0157500Y0370000D01*
X0171250Y0370000D01*
X0172500Y0368750D01*
X0172500Y0362500D01*
X0171250Y0361870D02*
X0172500Y0360620D01*
X0172500Y0354370D01*
X0157500Y0354370D01*
X0157500Y0361870D01*
X0171250Y0361870D01*
X0171250Y0353750D02*
X0172500Y0352500D01*
X0172500Y0346250D01*
X0157500Y0346250D01*
X0157500Y0353750D01*
X0171250Y0353750D01*
X0171250Y0345620D02*
X0172500Y0344370D01*
X0172500Y0338120D01*
X0157500Y0338120D01*
X0157500Y0345620D01*
X0171250Y0345620D01*
X0171250Y0337500D02*
X0172500Y0336250D01*
X0172500Y0330000D01*
X0157500Y0330000D01*
X0157500Y0337500D01*
X0171250Y0337500D01*
D15*
X0173640Y0336640D02*
X0176450Y0336640D01*
X0177850Y0335240D01*
X0176450Y0333830D01*
X0173640Y0333830D01*
X0174340Y0338440D02*
X0173640Y0339140D01*
X0173640Y0340540D01*
X0174340Y0341240D01*
X0177150Y0341240D01*
X0177850Y0340540D01*
X0177850Y0339140D01*
X0177150Y0338440D01*
X0174340Y0338440D01*
X0174340Y0343040D02*
X0173640Y0343740D01*
X0173640Y0345140D01*
X0174340Y0345850D01*
X0175040Y0345850D01*
X0177850Y0343040D01*
X0177850Y0345850D01*
X0176240Y0357520D02*
X0173430Y0357520D01*
X0173430Y0360320D02*
X0176240Y0360320D01*
X0177640Y0358920D01*
X0176240Y0357520D01*
X0176940Y0362130D02*
X0174130Y0362130D01*
X0173430Y0362830D01*
X0173430Y0364230D01*
X0174130Y0364930D01*
X0176940Y0364930D01*
X0177640Y0364230D01*
X0177640Y0362830D01*
X0176940Y0362130D01*
X0176940Y0366730D02*
X0177640Y0367430D01*
X0177640Y0368830D01*
X0176940Y0369530D01*
X0176240Y0369530D01*
X0175540Y0368830D01*
X0175540Y0368130D01*
X0175540Y0368830D02*
X0174840Y0369530D01*
X0174130Y0369530D01*
X0173430Y0368830D01*
X0173430Y0367430D01*
X0174130Y0366730D01*
X0197890Y0355460D02*
X0199990Y0353350D01*
X0199990Y0356160D01*
X0197890Y0355460D02*
X0202100Y0355460D01*
X0201400Y0351550D02*
X0198590Y0351550D01*
X0197890Y0350850D01*
X0197890Y0349450D01*
X0198590Y0348750D01*
X0201400Y0348750D01*
X0202100Y0349450D01*
X0202100Y0350850D01*
X0201400Y0351550D01*
X0200700Y0346950D02*
X0197890Y0346950D01*
X0197890Y0344150D02*
X0200700Y0344150D01*
X0202100Y0345550D01*
X0200700Y0346950D01*
X0201270Y0332030D02*
X0199870Y0332030D01*
X0199170Y0331330D01*
X0199170Y0330630D01*
X0199870Y0329230D01*
X0197770Y0329230D01*
X0197770Y0332030D01*
X0201270Y0332030D02*
X0201970Y0331330D01*
X0201970Y0329930D01*
X0201270Y0329230D01*
X0201270Y0327430D02*
X0198470Y0327430D01*
X0197770Y0326730D01*
X0197770Y0325330D01*
X0198470Y0324630D01*
X0201270Y0324630D01*
X0201970Y0325330D01*
X0201970Y0326730D01*
X0201270Y0327430D01*
X0200570Y0322820D02*
X0197770Y0322820D01*
X0197770Y0320020D02*
X0200570Y0320020D01*
X0201970Y0321420D01*
X0200570Y0322820D01*
X0200070Y0316590D02*
X0199580Y0315100D01*
X0199580Y0313120D01*
X0201070Y0314600D01*
X0202060Y0314600D01*
X0202550Y0314110D01*
X0202550Y0313120D01*
X0201560Y0312130D01*
X0200570Y0312130D01*
X0199580Y0313120D01*
X0199300Y0310850D02*
X0197310Y0312830D01*
X0196320Y0312830D01*
X0195330Y0311840D01*
X0195330Y0310850D01*
X0197310Y0308870D01*
X0198310Y0308870D01*
X0199300Y0309860D01*
X0199300Y0310850D01*
X0195550Y0308090D02*
X0195550Y0306110D01*
X0193560Y0306110D01*
X0191580Y0308090D01*
X0190160Y0307770D02*
X0190160Y0308480D01*
X0187350Y0308480D01*
X0185550Y0307770D02*
X0184850Y0308480D01*
X0183450Y0308480D01*
X0182750Y0307770D01*
X0182750Y0304970D01*
X0183450Y0304270D01*
X0184850Y0304270D01*
X0185550Y0304970D01*
X0185550Y0307770D01*
X0187350Y0304970D02*
X0187350Y0304270D01*
X0187350Y0304970D02*
X0190160Y0307770D01*
X0193560Y0310070D02*
X0195550Y0308090D01*
X0180950Y0308480D02*
X0180950Y0305670D01*
X0179550Y0304270D01*
X0178150Y0305670D01*
X0178150Y0308480D01*
X0176320Y0312830D02*
X0177720Y0314240D01*
X0176320Y0315640D01*
X0173520Y0315640D01*
X0174220Y0317440D02*
X0177020Y0317440D01*
X0177720Y0318140D01*
X0177720Y0319540D01*
X0177020Y0320240D01*
X0174220Y0320240D01*
X0173520Y0319540D01*
X0173520Y0318140D01*
X0174220Y0317440D01*
X0173520Y0312830D02*
X0176320Y0312830D01*
X0174920Y0322040D02*
X0173520Y0323440D01*
X0177720Y0323440D01*
X0177720Y0322040D02*
X0177720Y0324850D01*
X0160070Y0299000D02*
X0158090Y0297020D01*
X0158090Y0295040D01*
X0160070Y0295040D01*
X0162050Y0297020D01*
X0163320Y0295740D02*
X0164310Y0294750D01*
X0163820Y0295250D02*
X0160850Y0292280D01*
X0160350Y0292770D02*
X0161340Y0291780D01*
X0162520Y0290600D02*
X0165490Y0293570D01*
X0164500Y0288620D01*
X0167480Y0291590D01*
D15*
X0154600Y0287100D02*
X0154600Y0372100D01*
X0220400Y0372100D01*
X0220400Y0372100D02*
X0220400Y0287100D01*
X0154600Y0287100D01*
X0227500Y0287500D02*
G75*
%LPD*%
D17*
X0227500Y0287500D02*
X0227500Y0372500D01*
X0292500Y0372500D01*
X0292500Y0287500D01*
X0227500Y0287500D01*
D11*
X0231250Y0303750D02*
X0244330Y0290670D01*
X0247450Y0289370D02*
X0272540Y0289370D01*
X0275670Y0290670D02*
X0288790Y0303790D01*
X0289370Y0305190D02*
X0289370Y0318700D01*
X0287570Y0323050D02*
X0274730Y0335890D01*
X0272350Y0336870D02*
X0252970Y0336870D01*
X0251100Y0337650D02*
X0245310Y0343440D01*
X0244370Y0345690D02*
X0244370Y0348110D01*
X0245700Y0351330D02*
X0250590Y0356210D01*
X0252180Y0356870D02*
X0267020Y0356870D01*
X0268900Y0356100D02*
X0277500Y0347500D01*
X0277860Y0347120D01*
X0278250Y0346770D01*
X0278670Y0346450D01*
X0279100Y0346160D01*
X0279560Y0345910D01*
X0280030Y0345690D01*
X0280520Y0345500D01*
X0281020Y0345350D01*
X0281530Y0345240D01*
X0282050Y0345160D01*
X0282570Y0345120D01*
X0283090Y0345130D01*
X0283620Y0345160D01*
X0284130Y0345240D01*
X0284640Y0345360D01*
X0285140Y0345510D01*
X0285630Y0345700D01*
X0286100Y0345920D01*
X0286560Y0346180D01*
X0286990Y0346470D01*
X0287410Y0346790D01*
X0287800Y0347140D01*
X0288160Y0347520D01*
X0288490Y0347920D01*
X0288790Y0348350D01*
X0289060Y0348790D01*
X0289300Y0349260D01*
X0289500Y0349740D01*
X0289670Y0350240D01*
X0289800Y0350740D01*
X0289890Y0351260D01*
X0289940Y0351780D01*
X0289960Y0352300D01*
X0289940Y0352820D01*
X0289880Y0353340D01*
X0289780Y0353860D01*
X0289640Y0354360D01*
X0289470Y0354860D01*
X0289260Y0355340D01*
X0289020Y0355800D01*
X0288750Y0356240D01*
X0288750Y0356250D02*
X0276030Y0368960D01*
X0272030Y0370620D02*
X0249000Y0370620D01*
X0243230Y0368230D02*
X0232360Y0358610D01*
X0229370Y0353170D02*
X0229370Y0341130D01*
X0231250Y0336250D02*
X0245070Y0324290D01*
X0248750Y0322500D02*
X0265000Y0322500D01*
X0270000Y0321250D02*
X0272500Y0318750D01*
X0274370Y0313050D02*
X0274370Y0311130D01*
X0274380Y0311130D02*
X0274370Y0310640D01*
X0274330Y0310160D01*
X0274260Y0309670D01*
X0274150Y0309200D01*
X0274010Y0308730D01*
X0273830Y0308270D01*
X0273630Y0307830D01*
X0273390Y0307400D01*
X0273120Y0307000D01*
X0272830Y0306610D01*
X0272500Y0306240D01*
X0267500Y0303750D02*
X0253750Y0303750D01*
X0248750Y0306250D02*
X0242500Y0312500D01*
X0242500Y0312490D02*
X0242140Y0312870D01*
X0241750Y0313220D01*
X0241330Y0313540D01*
X0240900Y0313830D01*
X0240440Y0314080D01*
X0239970Y0314300D01*
X0239480Y0314490D01*
X0238980Y0314640D01*
X0238470Y0314750D01*
X0237950Y0314830D01*
X0237430Y0314870D01*
X0236910Y0314860D01*
X0236380Y0314830D01*
X0235870Y0314750D01*
X0235360Y0314630D01*
X0234860Y0314480D01*
X0234370Y0314290D01*
X0233900Y0314070D01*
X0233440Y0313810D01*
X0233010Y0313520D01*
X0232590Y0313200D01*
X0232200Y0312850D01*
X0231840Y0312470D01*
X0231510Y0312070D01*
X0231210Y0311640D01*
X0230940Y0311200D01*
X0230700Y0310730D01*
X0230500Y0310250D01*
X0230330Y0309750D01*
X0230200Y0309250D01*
X0230110Y0308730D01*
X0230060Y0308210D01*
X0230040Y0307690D01*
X0230060Y0307170D01*
X0230120Y0306650D01*
X0230220Y0306130D01*
X0230360Y0305630D01*
X0230530Y0305130D01*
X0230740Y0304650D01*
X0230980Y0304190D01*
X0231250Y0303750D01*
X0244320Y0290660D02*
X0244610Y0290400D01*
X0244910Y0290170D01*
X0245240Y0289960D01*
X0245580Y0289780D01*
X0245940Y0289640D01*
X0246310Y0289520D01*
X0246680Y0289440D01*
X0247060Y0289390D01*
X0247450Y0289370D01*
X0253740Y0303750D02*
X0253220Y0303800D01*
X0252710Y0303900D01*
X0252210Y0304020D01*
X0251710Y0304190D01*
X0251230Y0304390D01*
X0250760Y0304620D01*
X0250320Y0304890D01*
X0249890Y0305180D01*
X0249480Y0305510D01*
X0249100Y0305870D01*
X0248750Y0306250D01*
X0274370Y0313060D02*
X0274390Y0313610D01*
X0274370Y0314170D01*
X0274310Y0314730D01*
X0274220Y0315280D01*
X0274080Y0315820D01*
X0273910Y0316350D01*
X0273690Y0316870D01*
X0273440Y0317370D01*
X0273160Y0317850D01*
X0272840Y0318310D01*
X0272490Y0318750D01*
X0270000Y0321250D02*
X0269600Y0321520D01*
X0269190Y0321760D01*
X0268760Y0321980D01*
X0268310Y0322160D01*
X0267850Y0322310D01*
X0267390Y0322420D01*
X0266910Y0322510D01*
X0266440Y0322560D01*
X0265960Y0322570D01*
X0265480Y0322550D01*
X0265000Y0322500D01*
X0272350Y0336880D02*
X0272680Y0336860D01*
X0273010Y0336820D01*
X0273330Y0336730D01*
X0273640Y0336620D01*
X0273940Y0336480D01*
X0274220Y0336310D01*
X0274490Y0336120D01*
X0274730Y0335890D01*
X0287580Y0323060D02*
X0287900Y0322700D01*
X0288200Y0322320D01*
X0288470Y0321920D01*
X0288710Y0321500D01*
X0288910Y0321060D01*
X0289080Y0320600D01*
X0289210Y0320140D01*
X0289300Y0319660D01*
X0289360Y0319180D01*
X0289380Y0318700D01*
X0289380Y0305190D02*
X0289360Y0304930D01*
X0289310Y0304680D01*
X0289230Y0304430D01*
X0289110Y0304200D01*
X0288970Y0303980D01*
X0288800Y0303790D01*
X0275670Y0290660D02*
X0275380Y0290400D01*
X0275080Y0290170D01*
X0274750Y0289960D01*
X0274410Y0289780D01*
X0274050Y0289640D01*
X0273680Y0289520D01*
X0273310Y0289440D01*
X0272930Y0289390D01*
X0272540Y0289370D01*
X0267500Y0303740D02*
X0267980Y0303770D01*
X0268450Y0303840D01*
X0268930Y0303940D01*
X0269390Y0304070D01*
X0269840Y0304240D01*
X0270280Y0304440D01*
X0270700Y0304670D01*
X0271100Y0304930D01*
X0271490Y0305220D01*
X0271850Y0305540D01*
X0272190Y0305880D01*
X0272500Y0306240D01*
X0248750Y0322500D02*
X0248330Y0322540D01*
X0247920Y0322620D01*
X0247510Y0322730D01*
X0247120Y0322860D01*
X0246730Y0323030D01*
X0246360Y0323230D01*
X0246010Y0323460D01*
X0245680Y0323710D01*
X0245370Y0323990D01*
X0245080Y0324300D01*
X0251100Y0337650D02*
X0251320Y0337450D01*
X0251560Y0337280D01*
X0251820Y0337130D01*
X0252090Y0337020D01*
X0252380Y0336940D01*
X0252670Y0336890D01*
X0252970Y0336870D01*
X0245300Y0343430D02*
X0245090Y0343670D01*
X0244910Y0343920D01*
X0244750Y0344190D01*
X0244610Y0344470D01*
X0244510Y0344760D01*
X0244430Y0345070D01*
X0244390Y0345380D01*
X0244370Y0345690D01*
X0244370Y0348110D02*
X0244390Y0348510D01*
X0244440Y0348900D01*
X0244530Y0349290D01*
X0244640Y0349670D01*
X0244800Y0350030D01*
X0244980Y0350380D01*
X0245190Y0350720D01*
X0245430Y0351030D01*
X0245700Y0351330D01*
X0250590Y0356210D02*
X0250810Y0356410D01*
X0251050Y0356570D01*
X0251320Y0356700D01*
X0251600Y0356790D01*
X0251890Y0356850D01*
X0252180Y0356870D01*
X0249000Y0370620D02*
X0248470Y0370600D01*
X0247940Y0370550D01*
X0247410Y0370460D01*
X0246890Y0370340D01*
X0246380Y0370190D01*
X0245880Y0370000D01*
X0245400Y0369780D01*
X0244920Y0369530D01*
X0244470Y0369250D01*
X0244040Y0368940D01*
X0243630Y0368600D01*
X0243240Y0368230D01*
X0232350Y0358610D02*
X0231950Y0358260D01*
X0231570Y0357890D01*
X0231220Y0357490D01*
X0230890Y0357080D01*
X0230590Y0356640D01*
X0230320Y0356180D01*
X0230080Y0355710D01*
X0229870Y0355220D01*
X0229700Y0354720D01*
X0229550Y0354210D01*
X0229440Y0353690D01*
X0229370Y0353160D01*
X0229370Y0341130D02*
X0229380Y0340640D01*
X0229420Y0340160D01*
X0229490Y0339670D01*
X0229600Y0339200D01*
X0229740Y0338730D01*
X0229920Y0338270D01*
X0230120Y0337830D01*
X0230360Y0337400D01*
X0230630Y0337000D01*
X0230920Y0336610D01*
X0231250Y0336240D01*
X0267020Y0356870D02*
X0267320Y0356850D01*
X0267610Y0356800D01*
X0267900Y0356720D01*
X0268170Y0356610D01*
X0268430Y0356460D01*
X0268670Y0356290D01*
X0268890Y0356090D01*
X0276030Y0368960D02*
X0275710Y0369260D01*
X0275360Y0369540D01*
X0274990Y0369790D01*
X0274600Y0370000D01*
X0274200Y0370190D01*
X0273780Y0370340D01*
X0273350Y0370460D01*
X0272920Y0370550D01*
X0272470Y0370600D01*
X0272030Y0370620D01*
D13*
X0277500Y0368120D02*
X0278750Y0366870D01*
X0278750Y0360620D01*
X0263750Y0360620D01*
X0263750Y0368120D01*
X0277500Y0368120D01*
X0283120Y0362500D02*
X0284370Y0361250D01*
X0284370Y0355000D01*
X0269370Y0355000D01*
X0269370Y0362500D01*
X0283120Y0362500D01*
X0288750Y0355620D02*
X0275000Y0355620D01*
X0275000Y0348120D01*
X0290000Y0348120D01*
X0290000Y0354370D01*
X0288750Y0355620D01*
X0278010Y0333750D02*
X0279260Y0332500D01*
X0279260Y0326250D01*
X0264260Y0326250D01*
X0264260Y0333750D01*
X0278010Y0333750D01*
X0284630Y0326980D02*
X0270880Y0326980D01*
X0270880Y0319480D01*
X0285880Y0319480D01*
X0285880Y0325730D01*
X0284630Y0326980D01*
X0288750Y0319370D02*
X0290000Y0318120D01*
X0290000Y0311870D01*
X0275000Y0311870D01*
X0275000Y0319370D01*
X0288750Y0319370D01*
X0288750Y0312500D02*
X0290000Y0311250D01*
X0290000Y0305000D01*
X0275000Y0305000D01*
X0275000Y0312500D01*
X0288750Y0312500D01*
X0283750Y0305620D02*
X0285000Y0304370D01*
X0285000Y0298120D01*
X0270000Y0298120D01*
X0270000Y0305620D01*
X0283750Y0305620D01*
X0277500Y0299370D02*
X0278750Y0298120D01*
X0278750Y0291870D01*
X0263750Y0291870D01*
X0263750Y0299370D01*
X0277500Y0299370D01*
X0264370Y0303750D02*
X0264370Y0288750D01*
X0256870Y0288750D01*
X0256870Y0302500D01*
X0258120Y0303750D01*
X0264370Y0303750D01*
X0257500Y0298120D02*
X0256250Y0299370D01*
X0242500Y0299370D01*
X0242500Y0291870D01*
X0257500Y0291870D01*
X0257500Y0298120D01*
X0250000Y0298120D02*
X0235000Y0298120D01*
X0235000Y0305620D01*
X0248750Y0305620D01*
X0250000Y0304370D01*
X0250000Y0298120D01*
X0243750Y0304370D02*
X0228750Y0304370D01*
X0228750Y0311870D01*
X0242500Y0311870D01*
X0243750Y0310620D01*
X0243750Y0304370D01*
X0256870Y0322500D02*
X0256870Y0336250D01*
X0258120Y0337500D01*
X0264370Y0337500D01*
X0264370Y0322500D01*
X0256870Y0322500D01*
X0257310Y0326320D02*
X0242310Y0326320D01*
X0242310Y0333820D01*
X0256060Y0333820D01*
X0257310Y0332570D01*
X0257310Y0326320D01*
X0249260Y0332860D02*
X0234260Y0332860D01*
X0234260Y0340360D01*
X0248010Y0340360D01*
X0249260Y0339110D01*
X0249260Y0332860D01*
X0244370Y0340000D02*
X0229370Y0340000D01*
X0229370Y0347500D01*
X0243120Y0347500D01*
X0244370Y0346250D01*
X0244370Y0340000D01*
X0244370Y0348120D02*
X0229370Y0348120D01*
X0229370Y0355620D01*
X0243120Y0355620D01*
X0244370Y0354370D01*
X0244370Y0348120D01*
X0250620Y0355000D02*
X0235620Y0355000D01*
X0235620Y0362500D01*
X0249370Y0362500D01*
X0250620Y0361250D01*
X0250620Y0355000D01*
X0256870Y0356870D02*
X0256870Y0370620D01*
X0258120Y0371870D01*
X0264370Y0371870D01*
X0264370Y0356870D01*
X0256870Y0356870D01*
X0257500Y0360620D02*
X0242500Y0360620D01*
X0242500Y0368120D01*
X0256250Y0368120D01*
X0257500Y0366870D01*
X0257500Y0360620D01*
D15*
X0254140Y0367270D02*
X0252740Y0367270D01*
X0252040Y0367970D01*
X0252040Y0369370D01*
X0254140Y0369370D01*
X0254850Y0368670D01*
X0254850Y0367970D01*
X0254140Y0367270D01*
X0252040Y0369370D02*
X0253440Y0370770D01*
X0254850Y0371480D01*
X0250240Y0370770D02*
X0250240Y0367970D01*
X0249540Y0367270D01*
X0248140Y0367270D01*
X0247440Y0367970D01*
X0247440Y0370770D01*
X0248140Y0371480D01*
X0249540Y0371480D01*
X0250240Y0370770D01*
X0245640Y0371480D02*
X0245640Y0368670D01*
X0244240Y0367270D01*
X0242830Y0368670D01*
X0242830Y0371480D01*
X0247830Y0352100D02*
X0247830Y0349300D01*
X0249240Y0347900D01*
X0250640Y0349300D01*
X0250640Y0352100D01*
X0252440Y0351400D02*
X0252440Y0348600D01*
X0253140Y0347900D01*
X0254540Y0347900D01*
X0255240Y0348600D01*
X0255240Y0351400D01*
X0254540Y0352100D01*
X0253140Y0352100D01*
X0252440Y0351400D01*
X0257040Y0352100D02*
X0257040Y0350000D01*
X0258440Y0350700D01*
X0259140Y0350700D01*
X0259850Y0350000D01*
X0259850Y0348600D01*
X0259140Y0347900D01*
X0257740Y0347900D01*
X0257040Y0348600D01*
X0257040Y0352100D02*
X0259850Y0352100D01*
X0259630Y0341290D02*
X0258930Y0340590D01*
X0258930Y0337790D01*
X0259630Y0337090D01*
X0261040Y0337090D01*
X0261740Y0337790D01*
X0261740Y0340590D01*
X0261040Y0341290D01*
X0259630Y0341290D01*
X0257130Y0341290D02*
X0257130Y0338490D01*
X0255730Y0337090D01*
X0254330Y0338490D01*
X0254330Y0341290D01*
X0263540Y0339190D02*
X0266340Y0339190D01*
X0265640Y0337090D02*
X0265640Y0341290D01*
X0263540Y0339190D01*
X0276930Y0336890D02*
X0276930Y0334910D01*
X0278910Y0334910D01*
X0280890Y0336890D01*
X0278910Y0338870D02*
X0276930Y0336890D01*
X0279690Y0333140D02*
X0279690Y0332150D01*
X0280680Y0331160D01*
X0281670Y0331160D01*
X0283650Y0333140D01*
X0283650Y0334130D01*
X0282660Y0335120D01*
X0281670Y0335120D01*
X0279690Y0333140D01*
X0282940Y0329880D02*
X0282940Y0328890D01*
X0283930Y0327900D01*
X0284920Y0327900D01*
X0285420Y0328400D01*
X0285420Y0329390D01*
X0284920Y0329880D01*
X0285420Y0329390D02*
X0286410Y0329390D01*
X0286900Y0329880D01*
X0286900Y0330870D01*
X0285910Y0331870D01*
X0284920Y0331870D01*
X0262190Y0308980D02*
X0262190Y0304770D01*
X0260790Y0304770D02*
X0263600Y0304770D01*
X0260790Y0307570D02*
X0262190Y0308980D01*
X0258990Y0308270D02*
X0258990Y0305470D01*
X0258290Y0304770D01*
X0256890Y0304770D01*
X0256190Y0305470D01*
X0256190Y0308270D01*
X0256890Y0308980D01*
X0258290Y0308980D01*
X0258990Y0308270D01*
X0254390Y0308980D02*
X0254390Y0306170D01*
X0252990Y0304770D01*
X0251580Y0306170D01*
X0251580Y0308980D01*
X0243600Y0313520D02*
X0243600Y0317730D01*
X0240790Y0317730D02*
X0240790Y0313520D01*
X0239120Y0313520D02*
X0237720Y0313520D01*
X0238420Y0313520D02*
X0238420Y0317730D01*
X0237720Y0317730D02*
X0239120Y0317730D01*
X0240790Y0317730D02*
X0243600Y0313520D01*
X0235920Y0314920D02*
X0235920Y0317730D01*
X0235920Y0314920D02*
X0234520Y0313520D01*
X0233120Y0314920D01*
X0233120Y0317730D01*
X0279430Y0292990D02*
X0281410Y0291010D01*
X0283390Y0291010D01*
X0283390Y0292990D01*
X0281410Y0294970D01*
X0283180Y0295750D02*
X0283180Y0296740D01*
X0284170Y0297730D01*
X0285160Y0297730D01*
X0287140Y0295750D01*
X0287140Y0294760D01*
X0286150Y0293770D01*
X0285160Y0293770D01*
X0283180Y0295750D01*
X0286440Y0299010D02*
X0286440Y0300000D01*
X0287430Y0300990D01*
X0288420Y0300990D01*
X0288910Y0300490D01*
X0288910Y0296530D01*
X0290890Y0298510D01*
X0286270Y0360340D02*
X0286770Y0360840D01*
X0290730Y0360840D01*
X0291230Y0361330D01*
X0289240Y0363310D01*
X0287470Y0364090D02*
X0287470Y0365080D01*
X0286480Y0366070D01*
X0285490Y0366070D01*
X0283510Y0364090D01*
X0283510Y0363100D01*
X0284500Y0362110D01*
X0285490Y0362110D01*
X0287470Y0364090D01*
X0284710Y0367840D02*
X0282730Y0365860D01*
X0280750Y0365860D01*
X0280750Y0367840D01*
X0282730Y0369820D01*
D15*
X0227100Y0287100D02*
X0227100Y0372100D01*
X0292900Y0372100D01*
X0292900Y0372100D02*
X0292900Y0287100D01*
X0227100Y0287100D01*
X0300000Y0287500D02*
G75*
%LPD*%
D17*
X0300000Y0287500D02*
X0300000Y0372500D01*
X0365000Y0372500D01*
X0365000Y0287500D01*
X0300000Y0287500D01*
D11*
X0308750Y0289370D02*
X0356500Y0289370D01*
X0356940Y0289390D01*
X0357390Y0289440D01*
X0357820Y0289530D01*
X0358250Y0289660D01*
X0358660Y0289820D01*
X0359060Y0290020D01*
X0359440Y0290250D01*
X0359800Y0290500D01*
X0360140Y0290790D01*
X0360460Y0291110D01*
X0360750Y0291450D01*
X0361000Y0291810D01*
X0361230Y0292190D01*
X0361430Y0292590D01*
X0361590Y0293000D01*
X0361720Y0293430D01*
X0361810Y0293860D01*
X0361860Y0294310D01*
X0361880Y0294750D01*
X0361870Y0294750D02*
X0361870Y0299000D01*
X0361880Y0299000D02*
X0361860Y0299440D01*
X0361810Y0299890D01*
X0361720Y0300320D01*
X0361590Y0300750D01*
X0361430Y0301160D01*
X0361230Y0301560D01*
X0361000Y0301940D01*
X0360750Y0302300D01*
X0360460Y0302640D01*
X0360140Y0302960D01*
X0359800Y0303250D01*
X0359440Y0303500D01*
X0359060Y0303730D01*
X0358660Y0303930D01*
X0358250Y0304090D01*
X0357820Y0304220D01*
X0357390Y0304310D01*
X0356940Y0304360D01*
X0356500Y0304380D01*
X0356500Y0304370D02*
X0321870Y0304370D01*
X0321540Y0304390D01*
X0321220Y0304440D01*
X0320900Y0304520D01*
X0320600Y0304640D01*
X0320310Y0304790D01*
X0320030Y0304970D01*
X0319780Y0305170D01*
X0319540Y0305410D01*
X0319340Y0305660D01*
X0319160Y0305940D01*
X0319010Y0306230D01*
X0318890Y0306530D01*
X0318810Y0306850D01*
X0318760Y0307170D01*
X0318740Y0307500D01*
X0318750Y0307500D02*
X0318750Y0320000D01*
X0318740Y0320000D02*
X0318760Y0320330D01*
X0318810Y0320650D01*
X0318890Y0320970D01*
X0319010Y0321270D01*
X0319160Y0321570D01*
X0319340Y0321840D01*
X0319540Y0322090D01*
X0319780Y0322330D01*
X0320030Y0322530D01*
X0320310Y0322710D01*
X0320600Y0322860D01*
X0320900Y0322980D01*
X0321220Y0323060D01*
X0321540Y0323110D01*
X0321870Y0323130D01*
X0321870Y0323120D02*
X0334000Y0323120D01*
X0334440Y0323140D01*
X0334890Y0323190D01*
X0335320Y0323280D01*
X0335750Y0323410D01*
X0336160Y0323570D01*
X0336560Y0323770D01*
X0336940Y0324000D01*
X0337300Y0324250D01*
X0337640Y0324540D01*
X0337960Y0324860D01*
X0338250Y0325200D01*
X0338500Y0325560D01*
X0338730Y0325940D01*
X0338930Y0326340D01*
X0339090Y0326750D01*
X0339220Y0327180D01*
X0339310Y0327610D01*
X0339360Y0328060D01*
X0339380Y0328500D01*
X0339370Y0328500D02*
X0339370Y0332110D01*
X0339350Y0332520D01*
X0339300Y0332940D01*
X0339210Y0333340D01*
X0339080Y0333740D01*
X0338920Y0334120D01*
X0338730Y0334490D01*
X0338510Y0334840D01*
X0338260Y0335170D01*
X0337980Y0335480D01*
X0337670Y0335760D01*
X0337340Y0336010D01*
X0336990Y0336230D01*
X0336620Y0336420D01*
X0336240Y0336580D01*
X0335840Y0336710D01*
X0335440Y0336800D01*
X0335020Y0336850D01*
X0334610Y0336870D01*
X0321770Y0336870D01*
X0321770Y0336880D02*
X0321390Y0336900D01*
X0321010Y0336960D01*
X0320650Y0337060D01*
X0320290Y0337190D01*
X0319950Y0337370D01*
X0319630Y0337580D01*
X0319330Y0337810D01*
X0319060Y0338080D01*
X0318830Y0338380D01*
X0318620Y0338700D01*
X0318440Y0339040D01*
X0318310Y0339400D01*
X0318210Y0339760D01*
X0318150Y0340140D01*
X0318130Y0340520D01*
X0318120Y0340520D02*
X0318120Y0352240D01*
X0318140Y0352630D01*
X0318200Y0353020D01*
X0318290Y0353400D01*
X0318420Y0353770D01*
X0318590Y0354130D01*
X0318790Y0354460D01*
X0319030Y0354780D01*
X0319290Y0355070D01*
X0319580Y0355330D01*
X0319900Y0355570D01*
X0320230Y0355770D01*
X0320590Y0355940D01*
X0320960Y0356070D01*
X0321340Y0356160D01*
X0321730Y0356220D01*
X0322120Y0356240D01*
X0322120Y0356250D02*
X0355230Y0356250D01*
X0355730Y0356270D01*
X0356220Y0356320D01*
X0356710Y0356420D01*
X0357190Y0356540D01*
X0357660Y0356710D01*
X0358110Y0356910D01*
X0358550Y0357140D01*
X0358970Y0357400D01*
X0359370Y0357700D01*
X0359750Y0358020D01*
X0360100Y0358370D01*
X0360420Y0358750D01*
X0360720Y0359150D01*
X0360980Y0359570D01*
X0361210Y0360010D01*
X0361410Y0360460D01*
X0361580Y0360930D01*
X0361700Y0361410D01*
X0361800Y0361900D01*
X0361850Y0362390D01*
X0361870Y0362890D01*
X0361870Y0364490D01*
X0361850Y0365000D01*
X0361790Y0365500D01*
X0361700Y0365990D01*
X0361570Y0366480D01*
X0361400Y0366960D01*
X0361200Y0367420D01*
X0360960Y0367870D01*
X0360700Y0368300D01*
X0360400Y0368700D01*
X0360070Y0369090D01*
X0359710Y0369450D01*
X0359320Y0369780D01*
X0358920Y0370080D01*
X0358490Y0370340D01*
X0358040Y0370580D01*
X0357580Y0370780D01*
X0357100Y0370950D01*
X0356610Y0371080D01*
X0356120Y0371170D01*
X0355620Y0371230D01*
X0355110Y0371250D01*
X0308750Y0371250D01*
X0308260Y0371230D01*
X0307770Y0371170D01*
X0307290Y0371080D01*
X0306820Y0370940D01*
X0306360Y0370770D01*
X0305910Y0370570D01*
X0305480Y0370330D01*
X0305080Y0370060D01*
X0304690Y0369750D01*
X0304330Y0369420D01*
X0304000Y0369060D01*
X0303690Y0368670D01*
X0303420Y0368270D01*
X0303180Y0367840D01*
X0302980Y0367390D01*
X0302810Y0366930D01*
X0302670Y0366460D01*
X0302580Y0365980D01*
X0302520Y0365490D01*
X0302500Y0365000D01*
X0302500Y0296250D01*
X0302500Y0296240D02*
X0302490Y0295750D01*
X0302520Y0295260D01*
X0302590Y0294770D01*
X0302700Y0294290D01*
X0302840Y0293820D01*
X0303010Y0293360D01*
X0303220Y0292920D01*
X0303460Y0292490D01*
X0303730Y0292080D01*
X0304040Y0291700D01*
X0304370Y0291330D01*
X0304720Y0290990D01*
X0305100Y0290680D01*
X0305510Y0290400D01*
X0305930Y0290150D01*
X0306370Y0289940D01*
X0306830Y0289750D01*
X0307300Y0289600D01*
X0307770Y0289490D01*
X0308260Y0289410D01*
X0308750Y0289370D01*
D13*
X0307500Y0288750D02*
X0307500Y0302500D01*
X0308750Y0303750D01*
X0315000Y0303750D01*
X0315000Y0288750D01*
X0307500Y0288750D01*
X0316250Y0288750D02*
X0316250Y0302500D01*
X0317500Y0303750D01*
X0302500Y0303750D01*
X0302500Y0311250D01*
X0316250Y0311250D01*
X0317500Y0310000D01*
X0317500Y0303750D01*
X0323750Y0303750D01*
X0323750Y0288750D01*
X0316250Y0288750D01*
X0325000Y0288750D02*
X0325000Y0302500D01*
X0326250Y0303750D01*
X0332500Y0303750D01*
X0332500Y0288750D01*
X0325000Y0288750D01*
X0333750Y0288750D02*
X0333750Y0302500D01*
X0335000Y0303750D01*
X0341250Y0303750D01*
X0341250Y0288750D01*
X0333750Y0288750D01*
X0342500Y0288750D02*
X0342500Y0302500D01*
X0343750Y0303750D01*
X0350000Y0303750D01*
X0350000Y0288750D01*
X0342500Y0288750D01*
X0351250Y0288750D02*
X0351250Y0302500D01*
X0352500Y0303750D01*
X0358750Y0303750D01*
X0358750Y0288750D01*
X0351250Y0288750D01*
X0317500Y0311250D02*
X0302500Y0311250D01*
X0302500Y0318750D01*
X0316250Y0318750D01*
X0317500Y0317500D01*
X0317500Y0311250D01*
X0317500Y0318750D02*
X0302500Y0318750D01*
X0302500Y0326250D01*
X0302500Y0333750D01*
X0316250Y0333750D01*
X0317500Y0332500D01*
X0317500Y0326250D01*
X0302500Y0326250D01*
X0316250Y0326250D01*
X0317500Y0325000D01*
X0317500Y0318750D01*
X0313120Y0326250D02*
X0313120Y0333750D01*
X0326870Y0333750D01*
X0328120Y0332500D01*
X0328120Y0326250D01*
X0313120Y0326250D01*
X0317500Y0333750D02*
X0302500Y0333750D01*
X0302500Y0341250D01*
X0316250Y0341250D01*
X0317500Y0340000D01*
X0317500Y0333750D01*
X0323120Y0333750D02*
X0336870Y0333750D01*
X0338120Y0332500D01*
X0338120Y0326250D01*
X0323120Y0326250D01*
X0323120Y0333750D01*
X0317500Y0341250D02*
X0302500Y0341250D01*
X0302500Y0348750D01*
X0316250Y0348750D01*
X0317500Y0347500D01*
X0317500Y0341250D01*
X0317500Y0348750D02*
X0302500Y0348750D01*
X0302500Y0356250D01*
X0316250Y0356250D01*
X0317500Y0355000D01*
X0317500Y0348750D01*
X0315000Y0356250D02*
X0315000Y0370000D01*
X0316250Y0371250D01*
X0322500Y0371250D01*
X0322500Y0356250D01*
X0315000Y0356250D01*
X0313750Y0356250D02*
X0306250Y0356250D01*
X0306250Y0370000D01*
X0307500Y0371250D01*
X0313750Y0371250D01*
X0313750Y0356250D01*
X0323750Y0356250D02*
X0323750Y0370000D01*
X0325000Y0371250D01*
X0331250Y0371250D01*
X0331250Y0356250D01*
X0323750Y0356250D01*
X0332500Y0356250D02*
X0332500Y0370000D01*
X0333750Y0371250D01*
X0340000Y0371250D01*
X0340000Y0356250D01*
X0332500Y0356250D01*
X0341250Y0356250D02*
X0341250Y0370000D01*
X0342500Y0371250D01*
X0348750Y0371250D01*
X0348750Y0356250D01*
X0341250Y0356250D01*
X0350000Y0356250D02*
X0350000Y0370000D01*
X0351250Y0371250D01*
X0357500Y0371250D01*
X0357500Y0356250D01*
X0350000Y0356250D01*
D15*
X0350700Y0355230D02*
X0350700Y0352420D01*
X0349300Y0351020D01*
X0347900Y0352420D01*
X0347900Y0355230D01*
X0352500Y0354520D02*
X0352500Y0351720D01*
X0353200Y0351020D01*
X0354600Y0351020D01*
X0355300Y0351720D01*
X0355300Y0354520D01*
X0354600Y0355230D01*
X0353200Y0355230D01*
X0352500Y0354520D01*
X0357100Y0353120D02*
X0357100Y0351720D01*
X0357810Y0351020D01*
X0359210Y0351020D01*
X0359910Y0351720D01*
X0359910Y0352420D01*
X0359210Y0353120D01*
X0357100Y0353120D01*
X0358510Y0354520D01*
X0359910Y0355230D01*
X0340970Y0336410D02*
X0343770Y0333600D01*
X0344470Y0333600D01*
X0343770Y0331800D02*
X0340970Y0331800D01*
X0340270Y0331100D01*
X0340270Y0329700D01*
X0340970Y0329000D01*
X0343770Y0329000D01*
X0344470Y0329700D01*
X0344470Y0331100D01*
X0343770Y0331800D01*
X0340270Y0333600D02*
X0340270Y0336410D01*
X0340970Y0336410D01*
X0340270Y0327200D02*
X0343070Y0327200D01*
X0344470Y0325800D01*
X0343070Y0324400D01*
X0340270Y0324400D01*
X0336330Y0309730D02*
X0334930Y0309730D01*
X0334230Y0309020D01*
X0336330Y0309730D02*
X0337030Y0309020D01*
X0337030Y0308320D01*
X0334230Y0305520D01*
X0337030Y0305520D01*
X0339770Y0306800D02*
X0341170Y0305400D01*
X0342570Y0306800D01*
X0342570Y0309600D01*
X0344380Y0308900D02*
X0344380Y0306100D01*
X0345080Y0305400D01*
X0346480Y0305400D01*
X0347180Y0306100D01*
X0347180Y0308900D01*
X0346480Y0309600D01*
X0345080Y0309600D01*
X0344380Y0308900D01*
X0339770Y0309600D02*
X0339770Y0306800D01*
X0332430Y0306220D02*
X0331730Y0305520D01*
X0330330Y0305520D01*
X0329630Y0306220D01*
X0329630Y0309020D01*
X0330330Y0309730D01*
X0331730Y0309730D01*
X0332430Y0309020D01*
X0332430Y0306220D01*
X0327820Y0306920D02*
X0327820Y0309730D01*
X0325020Y0309730D02*
X0325020Y0306920D01*
X0326420Y0305520D01*
X0327820Y0306920D01*
X0324470Y0311420D02*
X0323070Y0312820D01*
X0320270Y0312820D01*
X0320970Y0314630D02*
X0323770Y0314630D01*
X0324470Y0315330D01*
X0324470Y0316730D01*
X0323770Y0317430D01*
X0320970Y0317430D01*
X0320270Y0316730D01*
X0320270Y0315330D01*
X0320970Y0314630D01*
X0320270Y0310020D02*
X0323070Y0310020D01*
X0324470Y0311420D01*
X0323770Y0319230D02*
X0324470Y0319930D01*
X0324470Y0321330D01*
X0323770Y0322030D01*
X0323070Y0322030D01*
X0322370Y0321330D01*
X0322370Y0320630D01*
X0322370Y0321330D02*
X0321670Y0322030D01*
X0320970Y0322030D01*
X0320270Y0321330D01*
X0320270Y0319930D01*
X0320970Y0319230D01*
X0320390Y0342900D02*
X0323200Y0342900D01*
X0324600Y0344300D01*
X0323200Y0345700D01*
X0320390Y0345700D01*
X0321090Y0347500D02*
X0323900Y0347500D01*
X0324600Y0348200D01*
X0324600Y0349600D01*
X0323900Y0350300D01*
X0321090Y0350300D01*
X0320390Y0349600D01*
X0320390Y0348200D01*
X0321090Y0347500D01*
X0322490Y0352100D02*
X0322490Y0354910D01*
X0320390Y0354210D02*
X0322490Y0352100D01*
X0320390Y0354210D02*
X0324600Y0354210D01*
X0326650Y0355230D02*
X0326650Y0352420D01*
X0328050Y0351020D01*
X0329450Y0352420D01*
X0329450Y0355230D01*
X0331250Y0354520D02*
X0331250Y0351720D01*
X0331950Y0351020D01*
X0333350Y0351020D01*
X0334050Y0351720D01*
X0334050Y0354520D01*
X0333350Y0355230D01*
X0331950Y0355230D01*
X0331250Y0354520D01*
X0335850Y0355230D02*
X0335850Y0353120D01*
X0337260Y0353820D01*
X0337960Y0353820D01*
X0338660Y0353120D01*
X0338660Y0351720D01*
X0337960Y0351020D01*
X0336560Y0351020D01*
X0335850Y0351720D01*
X0335850Y0355230D02*
X0338660Y0355230D01*
X0350380Y0309600D02*
X0350380Y0305400D01*
X0348980Y0305400D02*
X0351780Y0305400D01*
X0353520Y0306800D02*
X0354920Y0305400D01*
X0356320Y0306800D01*
X0356320Y0309600D01*
X0358130Y0309600D02*
X0359530Y0309600D01*
X0358830Y0309600D02*
X0358830Y0305400D01*
X0358130Y0305400D02*
X0359530Y0305400D01*
X0361190Y0305400D02*
X0361190Y0309600D01*
X0364000Y0305400D01*
X0364000Y0309600D01*
X0353520Y0309600D02*
X0353520Y0306800D01*
X0350380Y0309600D02*
X0348980Y0308200D01*
D15*
X0299600Y0287100D02*
X0299600Y0372100D01*
X0364600Y0372100D01*
X0364600Y0372100D02*
X0364600Y0287100D01*
X0364600Y0287100D02*
X0299600Y0287100D01*
M02*
