G75*
G70*
%OFA0B0*%
%FSLAX25Y25*%
%IPPOS*%
%LPD*%
%AMOC8*
5,1,8,0,0,1.08239X$1,22.5*
%
%ADD10C,0.03970*%
%ADD14C,0.03170*%
%ADD16C,0.00600*%
%ADD17C,0.00000*%
X0010000Y0010000D02*
G75*
%LPD*%
D17*
X0010000Y0010000D02*
X0010000Y0095000D01*
X0075000Y0095000D01*
X0075000Y0010000D01*
X0010000Y0010000D01*
D10*
X0030000Y0019370D03*
X0033750Y0023120D03*
X0025000Y0034370D03*
X0025000Y0040620D03*
X0045000Y0029370D03*
X0048750Y0029370D03*
X0068120Y0030620D03*
X0068120Y0024370D03*
X0068120Y0054370D03*
X0068120Y0060620D03*
X0068120Y0084370D03*
X0068120Y0090620D03*
X0025000Y0070620D03*
X0025000Y0064370D03*
X0016250Y0084370D03*
X0016250Y0090620D03*
D14*
X0020000Y0057500D03*
X0036250Y0044370D03*
X0042500Y0046250D03*
X0036250Y0036250D03*
X0030620Y0027500D03*
X0025620Y0020000D03*
X0020000Y0027500D03*
D16*
X0022740Y0027500D01*
X0036250Y0041010D01*
X0036250Y0044370D01*
X0042500Y0042500D02*
X0042500Y0046250D01*
X0042500Y0042500D02*
X0036250Y0036250D01*
X0030620Y0027500D02*
X0025620Y0022500D01*
X0025620Y0020000D01*
X0020000Y0027500D02*
X0020000Y0057500D01*
X0020000Y0080620D01*
X0016250Y0084370D01*
X0082500Y0010000D02*
G75*
%LPD*%
D17*
X0082500Y0010000D02*
X0082500Y0095000D01*
X0147500Y0095000D01*
X0147500Y0010000D01*
X0082500Y0010000D01*
D10*
X0107500Y0023120D03*
X0113750Y0023120D03*
X0119370Y0033750D03*
X0119370Y0040000D03*
X0119370Y0057500D03*
X0119370Y0063750D03*
X0125620Y0090620D03*
X0131870Y0090620D03*
X0104370Y0090620D03*
X0098120Y0090620D03*
X0125620Y0014370D03*
X0131870Y0014370D03*
D14*
X0114370Y0045000D03*
X0114370Y0068750D03*
X0115620Y0076250D03*
X0110620Y0085620D03*
X0101250Y0085620D03*
X0101250Y0018120D03*
D16*
X0121870Y0018120D01*
X0117500Y0022500D01*
X0117500Y0025000D01*
X0114370Y0028120D01*
X0114370Y0045000D01*
X0114370Y0068750D01*
X0110620Y0072500D01*
X0110620Y0085620D01*
X0108750Y0088750D02*
X0112500Y0088750D01*
X0115620Y0085620D01*
X0115620Y0076250D01*
X0106870Y0086870D02*
X0108750Y0088750D01*
X0106870Y0086870D02*
X0102500Y0086870D01*
X0101250Y0085620D01*
X0121870Y0018120D02*
X0122500Y0017500D01*
X0125620Y0014370D01*
X0155000Y0010000D02*
G75*
%LPD*%
D17*
X0155000Y0010000D02*
X0155000Y0095000D01*
X0220000Y0095000D01*
X0220000Y0010000D01*
X0155000Y0010000D01*
D10*
X0168750Y0023120D03*
X0175000Y0023120D03*
X0169370Y0034370D03*
X0169370Y0040620D03*
X0169370Y0058750D03*
X0169370Y0065000D03*
X0169370Y0083120D03*
X0169370Y0089370D03*
X0193120Y0023750D03*
X0199370Y0023750D03*
X0209370Y0014370D03*
X0215620Y0014370D03*
D14*
X0212500Y0018120D03*
X0188120Y0018120D03*
X0163750Y0018120D03*
X0164370Y0045620D03*
X0164370Y0070000D03*
D16*
X0164370Y0045620D01*
X0164370Y0018750D01*
X0163750Y0018120D01*
X0188120Y0018120D01*
X0212500Y0018120D01*
X0227500Y0010000D02*
G75*
%LPD*%
D17*
X0227500Y0010000D02*
X0227500Y0095000D01*
X0292500Y0095000D01*
X0292500Y0010000D01*
X0227500Y0010000D01*
D10*
X0232500Y0015000D03*
X0232500Y0022500D03*
X0245620Y0013750D03*
X0251870Y0013750D03*
X0241870Y0037500D03*
X0241870Y0043750D03*
X0241870Y0071250D03*
X0241870Y0077500D03*
X0255620Y0091250D03*
X0261870Y0091250D03*
X0285000Y0078120D03*
X0288120Y0072500D03*
X0286870Y0050620D03*
X0286870Y0044370D03*
X0281250Y0022500D03*
X0276870Y0017500D03*
D14*
X0268750Y0020000D03*
X0281870Y0039370D03*
X0281870Y0063750D03*
X0264370Y0083120D03*
X0236870Y0085620D03*
X0236870Y0051870D03*
D16*
X0236870Y0026870D01*
X0232500Y0022500D01*
X0236870Y0051870D02*
X0236870Y0085620D01*
X0245000Y0085620D01*
X0247500Y0083120D01*
X0264370Y0083120D01*
X0271250Y0083120D01*
X0281870Y0072500D01*
X0281870Y0063750D01*
X0281870Y0039370D01*
X0281870Y0035620D01*
X0268750Y0022500D01*
X0268750Y0020000D01*
X0010000Y0102500D02*
G75*
%LPD*%
D17*
X0010000Y0102500D02*
X0010000Y0187500D01*
X0075000Y0187500D01*
X0075000Y0102500D01*
X0010000Y0102500D01*
D10*
X0016250Y0106250D03*
X0016250Y0112500D03*
X0023750Y0126250D03*
X0023750Y0132500D03*
X0023750Y0156250D03*
X0023750Y0162500D03*
X0029370Y0179370D03*
X0033120Y0179370D03*
X0046250Y0171870D03*
X0050000Y0171870D03*
X0068750Y0172500D03*
X0068750Y0166250D03*
X0068750Y0142500D03*
X0068750Y0136250D03*
X0068750Y0112500D03*
X0068750Y0106250D03*
D14*
X0064370Y0129370D03*
X0042500Y0156250D03*
X0036250Y0156870D03*
X0036250Y0165000D03*
X0019370Y0169370D03*
X0019370Y0139370D03*
X0055000Y0171870D03*
X0064370Y0159370D03*
D16*
X0064370Y0129370D01*
X0043750Y0153750D02*
X0055000Y0165000D01*
X0055000Y0171870D01*
X0064370Y0162500D01*
X0064370Y0159370D01*
X0043750Y0153750D02*
X0039370Y0153750D01*
X0036250Y0156870D01*
X0036250Y0160240D01*
X0027110Y0169370D01*
X0019370Y0169370D01*
X0019370Y0139370D01*
X0019370Y0115620D01*
X0016250Y0112500D01*
X0042500Y0156250D02*
X0042500Y0158750D01*
X0036250Y0165000D01*
X0082500Y0102500D02*
G75*
%LPD*%
D17*
X0082500Y0102500D02*
X0082500Y0187500D01*
X0147500Y0187500D01*
X0147500Y0102500D01*
X0082500Y0102500D01*
D10*
X0101250Y0106250D03*
X0105000Y0106250D03*
X0106250Y0120620D03*
X0103120Y0120620D03*
X0085620Y0126870D03*
X0085620Y0131870D03*
X0085620Y0150000D03*
X0085620Y0155000D03*
X0094370Y0177500D03*
X0100000Y0181250D03*
X0125000Y0183120D03*
X0128750Y0183120D03*
X0144370Y0163120D03*
X0144370Y0157500D03*
X0144370Y0139370D03*
X0144370Y0135620D03*
X0135620Y0111250D03*
X0130000Y0108120D03*
D16*
X0125000Y0111870D02*
X0136870Y0123750D01*
X0136870Y0130000D01*
X0136870Y0152500D01*
X0136870Y0168750D01*
X0130620Y0175000D01*
X0127500Y0178120D01*
X0108120Y0178120D01*
X0106870Y0178120D01*
X0093120Y0164370D01*
X0093120Y0160000D01*
X0093120Y0137500D01*
X0093120Y0128120D01*
X0100620Y0120620D01*
X0103120Y0120620D01*
X0121870Y0111870D02*
X0125000Y0111870D01*
D14*
X0121870Y0111870D03*
X0136870Y0130000D03*
X0136870Y0152500D03*
X0130620Y0175000D03*
X0108120Y0178120D03*
X0093120Y0160000D03*
X0093120Y0137500D03*
X0155000Y0102500D02*
G75*
%LPD*%
D17*
X0155000Y0102500D02*
X0155000Y0187500D01*
X0220000Y0187500D01*
X0220000Y0102500D01*
X0155000Y0102500D01*
D10*
X0166250Y0112500D03*
X0171870Y0109370D03*
X0176250Y0112500D03*
X0182500Y0115620D03*
X0167500Y0129370D03*
X0169370Y0135620D03*
X0169370Y0153750D03*
X0169370Y0160000D03*
X0169370Y0178120D03*
X0169370Y0184370D03*
X0205620Y0168120D03*
X0205620Y0161870D03*
X0205620Y0143750D03*
X0205620Y0137500D03*
X0205620Y0118750D03*
X0200620Y0114370D03*
D14*
X0195620Y0110620D03*
X0210620Y0132500D03*
X0210620Y0156870D03*
X0210620Y0181250D03*
X0164370Y0165000D03*
X0164370Y0140620D03*
D16*
X0164370Y0124370D01*
X0166250Y0122500D01*
X0166250Y0112500D01*
X0171870Y0109370D02*
X0195620Y0109370D01*
X0195620Y0110620D01*
X0201870Y0110620D01*
X0210620Y0119370D01*
X0210620Y0132500D01*
X0210620Y0156870D01*
X0210620Y0181250D01*
X0164370Y0165000D02*
X0164370Y0140620D01*
X0227500Y0102500D02*
G75*
%LPD*%
D17*
X0227500Y0102500D02*
X0227500Y0187500D01*
X0292500Y0187500D01*
X0292500Y0102500D01*
X0227500Y0102500D01*
D10*
X0231250Y0119370D03*
X0231250Y0126870D03*
X0251870Y0113750D03*
X0255620Y0113750D03*
X0254370Y0141870D03*
X0254370Y0148120D03*
X0244370Y0163750D03*
X0244370Y0166870D03*
X0257500Y0184370D03*
X0263750Y0184370D03*
X0286870Y0170000D03*
X0286870Y0163750D03*
X0285620Y0140000D03*
X0285620Y0136250D03*
X0285000Y0118120D03*
X0285000Y0115000D03*
D16*
X0277500Y0115000D02*
X0277500Y0122880D01*
X0278360Y0123750D01*
X0281870Y0123750D01*
X0281870Y0134370D01*
X0271250Y0145000D01*
X0248750Y0145000D01*
X0242500Y0151250D01*
X0241250Y0151250D01*
X0241250Y0172500D01*
X0242500Y0173750D01*
X0243120Y0173750D01*
X0248750Y0179370D01*
X0270620Y0179370D01*
X0231250Y0126870D02*
X0247500Y0110620D01*
X0260620Y0110620D01*
X0273120Y0110620D01*
X0277500Y0115000D01*
D14*
X0281870Y0123750D03*
X0271250Y0145000D03*
X0242500Y0173750D03*
X0241250Y0151250D03*
X0270620Y0179370D03*
X0260620Y0110620D03*
X0300000Y0102500D02*
G75*
%LPD*%
D17*
X0300000Y0102500D02*
X0300000Y0187500D01*
X0365000Y0187500D01*
X0365000Y0102500D01*
X0300000Y0102500D01*
D10*
X0308120Y0115620D03*
X0314370Y0115620D03*
X0317500Y0135620D03*
X0317500Y0139370D03*
X0335620Y0141870D03*
X0335620Y0148120D03*
X0317500Y0165620D03*
X0317500Y0169370D03*
X0325000Y0183120D03*
X0330620Y0183120D03*
X0350620Y0183120D03*
X0356870Y0183120D03*
X0340620Y0115000D03*
X0334370Y0115000D03*
X0351870Y0106870D03*
X0358120Y0106870D03*
D14*
X0328750Y0110000D03*
X0308750Y0122500D03*
X0308750Y0152500D03*
X0310000Y0177500D03*
X0336250Y0177500D03*
D16*
X0310000Y0177500D01*
X0310000Y0153750D01*
X0308750Y0152500D01*
X0308750Y0122500D01*
X0311250Y0120000D01*
X0311250Y0113750D01*
X0315000Y0110000D01*
X0328750Y0110000D01*
X0348750Y0110000D01*
X0351870Y0106870D01*
X0010000Y0195000D02*
G75*
%LPD*%
D17*
X0010000Y0195000D02*
X0010000Y0280000D01*
X0075000Y0280000D01*
X0075000Y0195000D01*
X0010000Y0195000D01*
D10*
X0030000Y0204370D03*
X0033750Y0208120D03*
X0025000Y0219370D03*
X0025000Y0225620D03*
X0045000Y0214370D03*
X0048750Y0214370D03*
X0068120Y0215620D03*
X0068120Y0209370D03*
X0068120Y0239370D03*
X0068120Y0245620D03*
X0068120Y0269370D03*
X0068120Y0275620D03*
X0025000Y0255620D03*
X0025000Y0249370D03*
X0016250Y0269370D03*
X0016250Y0275620D03*
D14*
X0020000Y0242500D03*
X0036250Y0229370D03*
X0042500Y0231250D03*
X0036250Y0221250D03*
X0030620Y0212500D03*
X0025620Y0205000D03*
X0020000Y0212500D03*
D16*
X0022740Y0212500D01*
X0036250Y0226010D01*
X0036250Y0229370D01*
X0042500Y0227500D02*
X0042500Y0231250D01*
X0042500Y0227500D02*
X0036250Y0221250D01*
X0030620Y0212500D02*
X0025620Y0207500D01*
X0025620Y0205000D01*
X0020000Y0212500D02*
X0020000Y0242500D01*
X0020000Y0265620D01*
X0016250Y0269370D01*
X0082500Y0195000D02*
G75*
%LPD*%
D17*
X0082500Y0195000D02*
X0082500Y0280000D01*
X0147500Y0280000D01*
X0147500Y0195000D01*
X0082500Y0195000D01*
D10*
X0107500Y0208120D03*
X0113750Y0208120D03*
X0119370Y0218750D03*
X0119370Y0225000D03*
X0119370Y0242500D03*
X0119370Y0248750D03*
X0125620Y0275620D03*
X0131870Y0275620D03*
X0104370Y0275620D03*
X0098120Y0275620D03*
X0125620Y0199370D03*
X0131870Y0199370D03*
D14*
X0114370Y0230000D03*
X0114370Y0253750D03*
X0115620Y0261250D03*
X0110620Y0270620D03*
X0101250Y0270620D03*
X0101250Y0203120D03*
D16*
X0121870Y0203120D01*
X0117500Y0207500D01*
X0117500Y0210000D01*
X0114370Y0213120D01*
X0114370Y0230000D01*
X0114370Y0253750D01*
X0110620Y0257500D01*
X0110620Y0270620D01*
X0108750Y0273750D02*
X0112500Y0273750D01*
X0115620Y0270620D01*
X0115620Y0261250D01*
X0106870Y0271870D02*
X0108750Y0273750D01*
X0106870Y0271870D02*
X0102500Y0271870D01*
X0101250Y0270620D01*
X0121870Y0203120D02*
X0122500Y0202500D01*
X0125620Y0199370D01*
X0155000Y0195000D02*
G75*
%LPD*%
D17*
X0155000Y0195000D02*
X0155000Y0280000D01*
X0220000Y0280000D01*
X0220000Y0195000D01*
X0155000Y0195000D01*
D10*
X0168750Y0208120D03*
X0175000Y0208120D03*
X0169370Y0219370D03*
X0169370Y0225620D03*
X0169370Y0243750D03*
X0169370Y0250000D03*
X0169370Y0268120D03*
X0169370Y0274370D03*
X0193120Y0208750D03*
X0199370Y0208750D03*
X0209370Y0199370D03*
X0215620Y0199370D03*
D14*
X0212500Y0203120D03*
X0188120Y0203120D03*
X0163750Y0203120D03*
X0164370Y0230620D03*
X0164370Y0255000D03*
D16*
X0164370Y0230620D01*
X0164370Y0203750D01*
X0163750Y0203120D01*
X0188120Y0203120D01*
X0212500Y0203120D01*
X0227500Y0195000D02*
G75*
%LPD*%
D17*
X0227500Y0195000D02*
X0227500Y0280000D01*
X0292500Y0280000D01*
X0292500Y0195000D01*
X0227500Y0195000D01*
D10*
X0232500Y0200000D03*
X0232500Y0207500D03*
X0245620Y0198750D03*
X0251870Y0198750D03*
X0241870Y0222500D03*
X0241870Y0228750D03*
X0241870Y0256250D03*
X0241870Y0262500D03*
X0255620Y0276250D03*
X0261870Y0276250D03*
X0285000Y0263120D03*
X0288120Y0257500D03*
X0286870Y0235620D03*
X0286870Y0229370D03*
X0281250Y0207500D03*
X0276870Y0202500D03*
D14*
X0268750Y0205000D03*
X0281870Y0224370D03*
X0281870Y0248750D03*
X0264370Y0268120D03*
X0236870Y0270620D03*
X0236870Y0236870D03*
D16*
X0236870Y0211870D01*
X0232500Y0207500D01*
X0236870Y0236870D02*
X0236870Y0270620D01*
X0245000Y0270620D01*
X0247500Y0268120D01*
X0264370Y0268120D01*
X0271250Y0268120D01*
X0281870Y0257500D01*
X0281870Y0248750D01*
X0281870Y0224370D01*
X0281870Y0220620D01*
X0268750Y0207500D01*
X0268750Y0205000D01*
X0010000Y0287500D02*
G75*
%LPD*%
D17*
X0010000Y0287500D02*
X0010000Y0372500D01*
X0075000Y0372500D01*
X0075000Y0287500D01*
X0010000Y0287500D01*
D10*
X0016250Y0291250D03*
X0016250Y0297500D03*
X0023750Y0311250D03*
X0023750Y0317500D03*
X0023750Y0341250D03*
X0023750Y0347500D03*
X0029370Y0364370D03*
X0033120Y0364370D03*
X0046250Y0356870D03*
X0050000Y0356870D03*
X0068750Y0357500D03*
X0068750Y0351250D03*
X0068750Y0327500D03*
X0068750Y0321250D03*
X0068750Y0297500D03*
X0068750Y0291250D03*
D14*
X0064370Y0314370D03*
X0042500Y0341250D03*
X0036250Y0341870D03*
X0036250Y0350000D03*
X0019370Y0354370D03*
X0019370Y0324370D03*
X0055000Y0356870D03*
X0064370Y0344370D03*
D16*
X0064370Y0314370D01*
X0043750Y0338750D02*
X0055000Y0350000D01*
X0055000Y0356870D01*
X0064370Y0347500D01*
X0064370Y0344370D01*
X0043750Y0338750D02*
X0039370Y0338750D01*
X0036250Y0341870D01*
X0036250Y0345240D01*
X0027110Y0354370D01*
X0019370Y0354370D01*
X0019370Y0324370D01*
X0019370Y0300620D01*
X0016250Y0297500D01*
X0042500Y0341250D02*
X0042500Y0343750D01*
X0036250Y0350000D01*
X0082500Y0287500D02*
G75*
%LPD*%
D17*
X0082500Y0287500D02*
X0082500Y0372500D01*
X0147500Y0372500D01*
X0147500Y0287500D01*
X0082500Y0287500D01*
D10*
X0101250Y0291250D03*
X0105000Y0291250D03*
X0106250Y0305620D03*
X0103120Y0305620D03*
X0085620Y0311870D03*
X0085620Y0316870D03*
X0085620Y0335000D03*
X0085620Y0340000D03*
X0094370Y0362500D03*
X0100000Y0366250D03*
X0125000Y0368120D03*
X0128750Y0368120D03*
X0144370Y0348120D03*
X0144370Y0342500D03*
X0144370Y0324370D03*
X0144370Y0320620D03*
X0135620Y0296250D03*
X0130000Y0293120D03*
D16*
X0125000Y0296870D02*
X0136870Y0308750D01*
X0136870Y0315000D01*
X0136870Y0337500D01*
X0136870Y0353750D01*
X0130620Y0360000D01*
X0127500Y0363120D01*
X0108120Y0363120D01*
X0106870Y0363120D01*
X0093120Y0349370D01*
X0093120Y0345000D01*
X0093120Y0322500D01*
X0093120Y0313120D01*
X0100620Y0305620D01*
X0103120Y0305620D01*
X0121870Y0296870D02*
X0125000Y0296870D01*
D14*
X0121870Y0296870D03*
X0136870Y0315000D03*
X0136870Y0337500D03*
X0130620Y0360000D03*
X0108120Y0363120D03*
X0093120Y0345000D03*
X0093120Y0322500D03*
X0155000Y0287500D02*
G75*
%LPD*%
D17*
X0155000Y0287500D02*
X0155000Y0372500D01*
X0220000Y0372500D01*
X0220000Y0287500D01*
X0155000Y0287500D01*
D10*
X0166250Y0297500D03*
X0171870Y0294370D03*
X0176250Y0297500D03*
X0182500Y0300620D03*
X0167500Y0314370D03*
X0169370Y0320620D03*
X0169370Y0338750D03*
X0169370Y0345000D03*
X0169370Y0363120D03*
X0169370Y0369370D03*
X0205620Y0353120D03*
X0205620Y0346870D03*
X0205620Y0328750D03*
X0205620Y0322500D03*
X0205620Y0303750D03*
X0200620Y0299370D03*
D14*
X0195620Y0295620D03*
X0210620Y0317500D03*
X0210620Y0341870D03*
X0210620Y0366250D03*
X0164370Y0350000D03*
X0164370Y0325620D03*
D16*
X0164370Y0309370D01*
X0166250Y0307500D01*
X0166250Y0297500D01*
X0171870Y0294370D02*
X0195620Y0294370D01*
X0195620Y0295620D01*
X0201870Y0295620D01*
X0210620Y0304370D01*
X0210620Y0317500D01*
X0210620Y0341870D01*
X0210620Y0366250D01*
X0164370Y0350000D02*
X0164370Y0325620D01*
X0227500Y0287500D02*
G75*
%LPD*%
D17*
X0227500Y0287500D02*
X0227500Y0372500D01*
X0292500Y0372500D01*
X0292500Y0287500D01*
X0227500Y0287500D01*
D10*
X0231250Y0304370D03*
X0231250Y0311870D03*
X0251870Y0298750D03*
X0255620Y0298750D03*
X0254370Y0326870D03*
X0254370Y0333120D03*
X0244370Y0348750D03*
X0244370Y0351870D03*
X0257500Y0369370D03*
X0263750Y0369370D03*
X0286870Y0355000D03*
X0286870Y0348750D03*
X0285620Y0325000D03*
X0285620Y0321250D03*
X0285000Y0303120D03*
X0285000Y0300000D03*
D16*
X0277500Y0300000D02*
X0277500Y0307880D01*
X0278360Y0308750D01*
X0281870Y0308750D01*
X0281870Y0319370D01*
X0271250Y0330000D01*
X0248750Y0330000D01*
X0242500Y0336250D01*
X0241250Y0336250D01*
X0241250Y0357500D01*
X0242500Y0358750D01*
X0243120Y0358750D01*
X0248750Y0364370D01*
X0270620Y0364370D01*
X0231250Y0311870D02*
X0247500Y0295620D01*
X0260620Y0295620D01*
X0273120Y0295620D01*
X0277500Y0300000D01*
D14*
X0281870Y0308750D03*
X0271250Y0330000D03*
X0242500Y0358750D03*
X0241250Y0336250D03*
X0270620Y0364370D03*
X0260620Y0295620D03*
X0300000Y0287500D02*
G75*
%LPD*%
D17*
X0300000Y0287500D02*
X0300000Y0372500D01*
X0365000Y0372500D01*
X0365000Y0287500D01*
X0300000Y0287500D01*
D10*
X0308120Y0300620D03*
X0314370Y0300620D03*
X0317500Y0320620D03*
X0317500Y0324370D03*
X0335620Y0326870D03*
X0335620Y0333120D03*
X0317500Y0350620D03*
X0317500Y0354370D03*
X0325000Y0368120D03*
X0330620Y0368120D03*
X0350620Y0368120D03*
X0356870Y0368120D03*
X0340620Y0300000D03*
X0334370Y0300000D03*
X0351870Y0291870D03*
X0358120Y0291870D03*
D14*
X0328750Y0295000D03*
X0308750Y0307500D03*
X0308750Y0337500D03*
X0310000Y0362500D03*
X0336250Y0362500D03*
D16*
X0310000Y0362500D01*
X0310000Y0338750D01*
X0308750Y0337500D01*
X0308750Y0307500D01*
X0311250Y0305000D01*
X0311250Y0298750D01*
X0315000Y0295000D01*
X0328750Y0295000D01*
X0348750Y0295000D01*
X0351870Y0291870D01*
M02*
