G75*
G70*
%OFA0B0*%
%FSLAX25Y25*%
%IPPOS*%
%LPD*%
%AMOC8*
5,1,8,0,0,1.08239X$1,22.5*
%
%ADD12C,0.04370*%
%ADD17C,0.00000*%
X0010000Y0010000D02*
G75*
%LPD*%
D17*
X0010000Y0010000D02*
X0010000Y0095000D01*
X0075000Y0095000D01*
X0075000Y0010000D01*
X0010000Y0010000D01*
D12*
X0030000Y0019370D03*
X0033750Y0023120D03*
X0025000Y0034370D03*
X0025000Y0040620D03*
X0045000Y0029370D03*
X0048750Y0029370D03*
X0068120Y0030620D03*
X0068120Y0024370D03*
X0068120Y0054370D03*
X0068120Y0060620D03*
X0068120Y0084370D03*
X0068120Y0090620D03*
X0025000Y0070620D03*
X0025000Y0064370D03*
X0016250Y0084370D03*
X0016250Y0090620D03*
X0082500Y0010000D02*
G75*
%LPD*%
D17*
X0082500Y0010000D02*
X0082500Y0095000D01*
X0147500Y0095000D01*
X0147500Y0010000D01*
X0082500Y0010000D01*
D12*
X0107500Y0023120D03*
X0113750Y0023120D03*
X0119370Y0033750D03*
X0119370Y0040000D03*
X0119370Y0057500D03*
X0119370Y0063750D03*
X0125620Y0090620D03*
X0131870Y0090620D03*
X0104370Y0090620D03*
X0098120Y0090620D03*
X0125620Y0014370D03*
X0131870Y0014370D03*
X0155000Y0010000D02*
G75*
%LPD*%
D17*
X0155000Y0010000D02*
X0155000Y0095000D01*
X0220000Y0095000D01*
X0220000Y0010000D01*
X0155000Y0010000D01*
D12*
X0168750Y0023120D03*
X0175000Y0023120D03*
X0169370Y0034370D03*
X0169370Y0040620D03*
X0169370Y0058750D03*
X0169370Y0065000D03*
X0169370Y0083120D03*
X0169370Y0089370D03*
X0193120Y0023750D03*
X0199370Y0023750D03*
X0209370Y0014370D03*
X0215620Y0014370D03*
X0227500Y0010000D02*
G75*
%LPD*%
D17*
X0227500Y0010000D02*
X0227500Y0095000D01*
X0292500Y0095000D01*
X0292500Y0010000D01*
X0227500Y0010000D01*
D12*
X0232500Y0015000D03*
X0232500Y0022500D03*
X0245620Y0013750D03*
X0251870Y0013750D03*
X0241870Y0037500D03*
X0241870Y0043750D03*
X0241870Y0071250D03*
X0241870Y0077500D03*
X0255620Y0091250D03*
X0261870Y0091250D03*
X0285000Y0078120D03*
X0288120Y0072500D03*
X0286870Y0050620D03*
X0286870Y0044370D03*
X0281250Y0022500D03*
X0276870Y0017500D03*
X0010000Y0102500D02*
G75*
%LPD*%
D17*
X0010000Y0102500D02*
X0010000Y0187500D01*
X0075000Y0187500D01*
X0075000Y0102500D01*
X0010000Y0102500D01*
D12*
X0016250Y0106250D03*
X0016250Y0112500D03*
X0023750Y0126250D03*
X0023750Y0132500D03*
X0023750Y0156250D03*
X0023750Y0162500D03*
X0029370Y0179370D03*
X0033120Y0179370D03*
X0046250Y0171870D03*
X0050000Y0171870D03*
X0068750Y0172500D03*
X0068750Y0166250D03*
X0068750Y0142500D03*
X0068750Y0136250D03*
X0068750Y0112500D03*
X0068750Y0106250D03*
X0082500Y0102500D02*
G75*
%LPD*%
D17*
X0082500Y0102500D02*
X0082500Y0187500D01*
X0147500Y0187500D01*
X0147500Y0102500D01*
X0082500Y0102500D01*
D12*
X0101250Y0106250D03*
X0105000Y0106250D03*
X0106250Y0120620D03*
X0103120Y0120620D03*
X0085620Y0126870D03*
X0085620Y0131870D03*
X0085620Y0150000D03*
X0085620Y0155000D03*
X0094370Y0177500D03*
X0100000Y0181250D03*
X0125000Y0183120D03*
X0128750Y0183120D03*
X0144370Y0163120D03*
X0144370Y0157500D03*
X0144370Y0139370D03*
X0144370Y0135620D03*
X0135620Y0111250D03*
X0130000Y0108120D03*
X0155000Y0102500D02*
G75*
%LPD*%
D17*
X0155000Y0102500D02*
X0155000Y0187500D01*
X0220000Y0187500D01*
X0220000Y0102500D01*
X0155000Y0102500D01*
D12*
X0166250Y0112500D03*
X0171870Y0109370D03*
X0176250Y0112500D03*
X0182500Y0115620D03*
X0167500Y0129370D03*
X0169370Y0135620D03*
X0169370Y0153750D03*
X0169370Y0160000D03*
X0169370Y0178120D03*
X0169370Y0184370D03*
X0205620Y0168120D03*
X0205620Y0161870D03*
X0205620Y0143750D03*
X0205620Y0137500D03*
X0205620Y0118750D03*
X0200620Y0114370D03*
X0227500Y0102500D02*
G75*
%LPD*%
D17*
X0227500Y0102500D02*
X0227500Y0187500D01*
X0292500Y0187500D01*
X0292500Y0102500D01*
X0227500Y0102500D01*
D12*
X0231250Y0119370D03*
X0231250Y0126870D03*
X0251870Y0113750D03*
X0255620Y0113750D03*
X0254370Y0141870D03*
X0254370Y0148120D03*
X0244370Y0163750D03*
X0244370Y0166870D03*
X0257500Y0184370D03*
X0263750Y0184370D03*
X0286870Y0170000D03*
X0286870Y0163750D03*
X0285620Y0140000D03*
X0285620Y0136250D03*
X0285000Y0118120D03*
X0285000Y0115000D03*
X0300000Y0102500D02*
G75*
%LPD*%
D17*
X0300000Y0102500D02*
X0300000Y0187500D01*
X0365000Y0187500D01*
X0365000Y0102500D01*
X0300000Y0102500D01*
D12*
X0308120Y0115620D03*
X0314370Y0115620D03*
X0317500Y0135620D03*
X0317500Y0139370D03*
X0335620Y0141870D03*
X0335620Y0148120D03*
X0317500Y0165620D03*
X0317500Y0169370D03*
X0325000Y0183120D03*
X0330620Y0183120D03*
X0350620Y0183120D03*
X0356870Y0183120D03*
X0340620Y0115000D03*
X0334370Y0115000D03*
X0351870Y0106870D03*
X0358120Y0106870D03*
X0010000Y0195000D02*
G75*
%LPD*%
D17*
X0010000Y0195000D02*
X0010000Y0280000D01*
X0075000Y0280000D01*
X0075000Y0195000D01*
X0010000Y0195000D01*
D12*
X0030000Y0204370D03*
X0033750Y0208120D03*
X0025000Y0219370D03*
X0025000Y0225620D03*
X0045000Y0214370D03*
X0048750Y0214370D03*
X0068120Y0215620D03*
X0068120Y0209370D03*
X0068120Y0239370D03*
X0068120Y0245620D03*
X0068120Y0269370D03*
X0068120Y0275620D03*
X0025000Y0255620D03*
X0025000Y0249370D03*
X0016250Y0269370D03*
X0016250Y0275620D03*
X0082500Y0195000D02*
G75*
%LPD*%
D17*
X0082500Y0195000D02*
X0082500Y0280000D01*
X0147500Y0280000D01*
X0147500Y0195000D01*
X0082500Y0195000D01*
D12*
X0107500Y0208120D03*
X0113750Y0208120D03*
X0119370Y0218750D03*
X0119370Y0225000D03*
X0119370Y0242500D03*
X0119370Y0248750D03*
X0125620Y0275620D03*
X0131870Y0275620D03*
X0104370Y0275620D03*
X0098120Y0275620D03*
X0125620Y0199370D03*
X0131870Y0199370D03*
X0155000Y0195000D02*
G75*
%LPD*%
D17*
X0155000Y0195000D02*
X0155000Y0280000D01*
X0220000Y0280000D01*
X0220000Y0195000D01*
X0155000Y0195000D01*
D12*
X0168750Y0208120D03*
X0175000Y0208120D03*
X0169370Y0219370D03*
X0169370Y0225620D03*
X0169370Y0243750D03*
X0169370Y0250000D03*
X0169370Y0268120D03*
X0169370Y0274370D03*
X0193120Y0208750D03*
X0199370Y0208750D03*
X0209370Y0199370D03*
X0215620Y0199370D03*
X0227500Y0195000D02*
G75*
%LPD*%
D17*
X0227500Y0195000D02*
X0227500Y0280000D01*
X0292500Y0280000D01*
X0292500Y0195000D01*
X0227500Y0195000D01*
D12*
X0232500Y0200000D03*
X0232500Y0207500D03*
X0245620Y0198750D03*
X0251870Y0198750D03*
X0241870Y0222500D03*
X0241870Y0228750D03*
X0241870Y0256250D03*
X0241870Y0262500D03*
X0255620Y0276250D03*
X0261870Y0276250D03*
X0285000Y0263120D03*
X0288120Y0257500D03*
X0286870Y0235620D03*
X0286870Y0229370D03*
X0281250Y0207500D03*
X0276870Y0202500D03*
X0010000Y0287500D02*
G75*
%LPD*%
D17*
X0010000Y0287500D02*
X0010000Y0372500D01*
X0075000Y0372500D01*
X0075000Y0287500D01*
X0010000Y0287500D01*
D12*
X0016250Y0291250D03*
X0016250Y0297500D03*
X0023750Y0311250D03*
X0023750Y0317500D03*
X0023750Y0341250D03*
X0023750Y0347500D03*
X0029370Y0364370D03*
X0033120Y0364370D03*
X0046250Y0356870D03*
X0050000Y0356870D03*
X0068750Y0357500D03*
X0068750Y0351250D03*
X0068750Y0327500D03*
X0068750Y0321250D03*
X0068750Y0297500D03*
X0068750Y0291250D03*
X0082500Y0287500D02*
G75*
%LPD*%
D17*
X0082500Y0287500D02*
X0082500Y0372500D01*
X0147500Y0372500D01*
X0147500Y0287500D01*
X0082500Y0287500D01*
D12*
X0101250Y0291250D03*
X0105000Y0291250D03*
X0106250Y0305620D03*
X0103120Y0305620D03*
X0085620Y0311870D03*
X0085620Y0316870D03*
X0085620Y0335000D03*
X0085620Y0340000D03*
X0094370Y0362500D03*
X0100000Y0366250D03*
X0125000Y0368120D03*
X0128750Y0368120D03*
X0144370Y0348120D03*
X0144370Y0342500D03*
X0144370Y0324370D03*
X0144370Y0320620D03*
X0135620Y0296250D03*
X0130000Y0293120D03*
X0155000Y0287500D02*
G75*
%LPD*%
D17*
X0155000Y0287500D02*
X0155000Y0372500D01*
X0220000Y0372500D01*
X0220000Y0287500D01*
X0155000Y0287500D01*
D12*
X0166250Y0297500D03*
X0171870Y0294370D03*
X0176250Y0297500D03*
X0182500Y0300620D03*
X0167500Y0314370D03*
X0169370Y0320620D03*
X0169370Y0338750D03*
X0169370Y0345000D03*
X0169370Y0363120D03*
X0169370Y0369370D03*
X0205620Y0353120D03*
X0205620Y0346870D03*
X0205620Y0328750D03*
X0205620Y0322500D03*
X0205620Y0303750D03*
X0200620Y0299370D03*
X0227500Y0287500D02*
G75*
%LPD*%
D17*
X0227500Y0287500D02*
X0227500Y0372500D01*
X0292500Y0372500D01*
X0292500Y0287500D01*
X0227500Y0287500D01*
D12*
X0231250Y0304370D03*
X0231250Y0311870D03*
X0251870Y0298750D03*
X0255620Y0298750D03*
X0254370Y0326870D03*
X0254370Y0333120D03*
X0244370Y0348750D03*
X0244370Y0351870D03*
X0257500Y0369370D03*
X0263750Y0369370D03*
X0286870Y0355000D03*
X0286870Y0348750D03*
X0285620Y0325000D03*
X0285620Y0321250D03*
X0285000Y0303120D03*
X0285000Y0300000D03*
X0300000Y0287500D02*
G75*
%LPD*%
D17*
X0300000Y0287500D02*
X0300000Y0372500D01*
X0365000Y0372500D01*
X0365000Y0287500D01*
X0300000Y0287500D01*
D12*
X0308120Y0300620D03*
X0314370Y0300620D03*
X0317500Y0320620D03*
X0317500Y0324370D03*
X0335620Y0326870D03*
X0335620Y0333120D03*
X0317500Y0350620D03*
X0317500Y0354370D03*
X0325000Y0368120D03*
X0330620Y0368120D03*
X0350620Y0368120D03*
X0356870Y0368120D03*
X0340620Y0300000D03*
X0334370Y0300000D03*
X0351870Y0291870D03*
X0358120Y0291870D03*
M02*
