G75*
G70*
%OFA0B0*%
%FSLAX25Y25*%
%IPPOS*%
%LPD*%
%AMOC8*
5,1,8,0,0,1.08239X$1,22.5*
%
%ADD10C,0.03970*%
%ADD14C,0.03170*%
%ADD16C,0.00600*%
%ADD17C,0.00000*%
%ADD19R,0.04720X0.04720*%
X0010000Y0010000D02*
G75*
%LPD*%
D17*
X0010000Y0010000D02*
X0010000Y0095000D01*
X0075000Y0095000D01*
X0075000Y0010000D01*
X0010000Y0010000D01*
D19*
X0016490Y0017500D03*
X0024760Y0017500D03*
X0030620Y0022740D03*
X0024760Y0027500D03*
X0030620Y0031010D03*
X0036250Y0032740D03*
X0036250Y0041010D03*
X0042500Y0041490D03*
X0048120Y0041010D03*
X0048120Y0032740D03*
X0053750Y0031010D03*
X0059610Y0027500D03*
X0053750Y0022740D03*
X0059610Y0017500D03*
X0067880Y0017500D03*
X0067880Y0027500D03*
X0067880Y0037500D03*
X0059610Y0037500D03*
X0059610Y0047500D03*
X0067880Y0047500D03*
X0067880Y0057500D03*
X0059610Y0057500D03*
X0059610Y0067500D03*
X0067880Y0067500D03*
X0067880Y0077500D03*
X0059610Y0077500D03*
X0059610Y0087500D03*
X0067880Y0087500D03*
X0042500Y0049760D03*
X0024760Y0047500D03*
X0016490Y0047500D03*
X0016490Y0057500D03*
X0024760Y0057500D03*
X0024760Y0067500D03*
X0016490Y0067500D03*
X0016490Y0077500D03*
X0024760Y0077500D03*
X0024760Y0087500D03*
X0016490Y0087500D03*
X0016490Y0037500D03*
X0024760Y0037500D03*
X0016490Y0027500D03*
D10*
X0025000Y0034370D03*
X0025000Y0040620D03*
X0033750Y0023120D03*
X0030000Y0019370D03*
X0045000Y0029370D03*
X0048750Y0029370D03*
X0068120Y0030620D03*
X0068120Y0024370D03*
X0068120Y0054370D03*
X0068120Y0060620D03*
X0068120Y0084370D03*
X0068120Y0090620D03*
X0025000Y0070620D03*
X0025000Y0064370D03*
X0016250Y0084370D03*
X0016250Y0090620D03*
D16*
X0016490Y0090380D01*
X0016490Y0087500D01*
X0016490Y0084610D01*
X0016250Y0084370D01*
X0016490Y0079230D02*
X0024760Y0087500D01*
X0016490Y0079230D02*
X0016490Y0077500D01*
X0016490Y0069230D02*
X0024760Y0077500D01*
X0025000Y0070620D02*
X0024760Y0070380D01*
X0024760Y0067500D01*
X0024760Y0064610D01*
X0025000Y0064370D01*
X0024760Y0057500D02*
X0016490Y0049230D01*
X0016490Y0047500D01*
X0016490Y0039230D02*
X0024760Y0047500D01*
X0025000Y0040620D02*
X0024760Y0040380D01*
X0024760Y0037500D01*
X0024760Y0034610D01*
X0025000Y0034370D01*
X0030620Y0031250D02*
X0030620Y0031010D01*
X0030620Y0027500D01*
X0031010Y0023120D02*
X0030620Y0022740D01*
X0030000Y0022110D01*
X0030000Y0019370D01*
X0031010Y0023120D02*
X0033750Y0023120D01*
X0025620Y0020000D02*
X0025620Y0018360D01*
X0024760Y0017500D01*
X0025000Y0017500D01*
X0016490Y0017500D02*
X0016490Y0019230D01*
X0024760Y0027500D01*
X0020000Y0027500D02*
X0016490Y0027500D01*
X0016250Y0027500D01*
X0016490Y0037500D02*
X0016490Y0039230D01*
X0016490Y0057500D02*
X0020000Y0057500D01*
X0016490Y0067500D02*
X0016490Y0069230D01*
X0036250Y0044370D02*
X0036250Y0041010D01*
X0040380Y0036870D01*
X0050620Y0036870D01*
X0053750Y0033750D01*
X0053750Y0031010D01*
X0053750Y0031630D01*
X0059610Y0037500D01*
X0059610Y0037880D01*
X0056250Y0041250D01*
X0056250Y0064130D01*
X0059610Y0067500D01*
X0067880Y0067500D02*
X0067880Y0069230D01*
X0059610Y0077500D01*
X0067880Y0077500D02*
X0067880Y0079230D01*
X0059610Y0087500D01*
X0067880Y0087500D02*
X0067880Y0084610D01*
X0068120Y0084370D01*
X0067880Y0087500D02*
X0067880Y0090380D01*
X0068120Y0090620D01*
X0068120Y0060620D02*
X0067880Y0060380D01*
X0067880Y0057500D01*
X0067880Y0054610D01*
X0068120Y0054370D01*
X0067880Y0049230D02*
X0059610Y0057500D01*
X0059610Y0047500D02*
X0067880Y0039230D01*
X0067880Y0037500D01*
X0068120Y0030620D02*
X0067880Y0030380D01*
X0067880Y0027500D01*
X0067880Y0024610D01*
X0068120Y0024370D01*
X0067880Y0017500D02*
X0059610Y0025760D01*
X0059610Y0027500D01*
X0054370Y0022740D02*
X0059610Y0017500D01*
X0054370Y0022740D02*
X0053750Y0022740D01*
X0048750Y0029370D02*
X0045000Y0029370D01*
X0048120Y0030000D02*
X0048120Y0032740D01*
X0048120Y0030000D02*
X0048750Y0029370D01*
X0048120Y0041010D02*
X0047640Y0041490D01*
X0042500Y0041490D01*
X0042500Y0046250D02*
X0042500Y0049760D01*
X0036250Y0036250D02*
X0036250Y0032740D01*
X0067880Y0047500D02*
X0067880Y0049230D01*
D14*
X0042500Y0046250D03*
X0036250Y0044370D03*
X0036250Y0036250D03*
X0030620Y0027500D03*
X0025620Y0020000D03*
X0020000Y0027500D03*
X0020000Y0057500D03*
X0082500Y0010000D02*
G75*
%LPD*%
D17*
X0082500Y0010000D02*
X0082500Y0095000D01*
X0147500Y0095000D01*
X0147500Y0010000D01*
X0082500Y0010000D01*
D19*
X0101250Y0014610D03*
X0101250Y0022880D03*
X0110620Y0022880D03*
X0110860Y0028750D03*
X0110860Y0036870D03*
X0110860Y0045000D03*
X0110860Y0052500D03*
X0110860Y0060620D03*
X0110860Y0068750D03*
X0110860Y0076250D03*
X0110620Y0082110D03*
X0110620Y0090380D03*
X0119370Y0090380D03*
X0119370Y0082110D03*
X0119130Y0076250D03*
X0119130Y0068750D03*
X0119130Y0060620D03*
X0119130Y0052500D03*
X0119130Y0045000D03*
X0119130Y0036870D03*
X0119130Y0028750D03*
X0119370Y0022880D03*
X0119370Y0014610D03*
X0110620Y0014610D03*
X0128750Y0014610D03*
X0128750Y0022880D03*
X0128750Y0082110D03*
X0128750Y0090380D03*
X0101250Y0090380D03*
X0101250Y0082110D03*
D10*
X0104370Y0090620D03*
X0098120Y0090620D03*
X0119370Y0063750D03*
X0119370Y0057500D03*
X0119370Y0040000D03*
X0119370Y0033750D03*
X0113750Y0023120D03*
X0107500Y0023120D03*
X0125620Y0014370D03*
X0131870Y0014370D03*
X0131870Y0090620D03*
X0125620Y0090620D03*
D16*
X0128510Y0090620D01*
X0128750Y0090380D01*
X0128990Y0090620D01*
X0131870Y0090620D01*
X0128750Y0082110D02*
X0120480Y0090380D01*
X0119370Y0090380D01*
X0111100Y0090380D02*
X0119370Y0082110D01*
X0119130Y0076250D02*
X0115620Y0076250D01*
X0110860Y0076250D02*
X0118360Y0068750D01*
X0119130Y0068750D01*
X0119370Y0063750D02*
X0119370Y0060860D01*
X0119130Y0060620D01*
X0119370Y0060380D01*
X0119370Y0057500D01*
X0119130Y0052500D02*
X0118990Y0052500D01*
X0110860Y0060620D01*
X0110860Y0052500D02*
X0118360Y0045000D01*
X0119130Y0045000D01*
X0119370Y0040000D02*
X0119370Y0037110D01*
X0119130Y0036870D01*
X0119370Y0036630D01*
X0119370Y0033750D01*
X0119130Y0028750D02*
X0118990Y0028750D01*
X0110860Y0036870D01*
X0110860Y0028750D02*
X0108750Y0028750D01*
X0102880Y0022880D01*
X0101250Y0022880D01*
X0101250Y0018120D02*
X0101250Y0014610D01*
X0107500Y0023120D02*
X0110380Y0023120D01*
X0110620Y0022880D01*
X0110860Y0023120D01*
X0113750Y0023120D01*
X0119370Y0022880D02*
X0111100Y0014610D01*
X0110620Y0014610D01*
X0119370Y0014610D02*
X0120480Y0014610D01*
X0128750Y0022880D01*
X0128750Y0014610D02*
X0128990Y0014370D01*
X0131870Y0014370D01*
X0128750Y0014610D02*
X0128510Y0014370D01*
X0125620Y0014370D01*
X0114370Y0045000D02*
X0110860Y0045000D01*
X0110860Y0068750D02*
X0114370Y0068750D01*
X0110620Y0082110D02*
X0110620Y0085620D01*
X0110620Y0090380D02*
X0111100Y0090380D01*
X0104370Y0090620D02*
X0101490Y0090620D01*
X0101250Y0090380D01*
X0101010Y0090620D01*
X0098120Y0090620D01*
X0101250Y0085620D02*
X0101250Y0082110D01*
D14*
X0101250Y0085620D03*
X0110620Y0085620D03*
X0115620Y0076250D03*
X0114370Y0068750D03*
X0114370Y0045000D03*
X0101250Y0018120D03*
X0155000Y0010000D02*
G75*
%LPD*%
D17*
X0155000Y0010000D02*
X0155000Y0095000D01*
X0220000Y0095000D01*
X0220000Y0010000D01*
X0155000Y0010000D01*
D19*
X0163750Y0014610D03*
X0171870Y0014610D03*
X0180000Y0014610D03*
X0180000Y0022880D03*
X0171870Y0022880D03*
X0169130Y0029370D03*
X0163750Y0022880D03*
X0160860Y0029370D03*
X0160860Y0037500D03*
X0160860Y0045620D03*
X0160860Y0053750D03*
X0160860Y0061870D03*
X0160860Y0070000D03*
X0160860Y0078120D03*
X0160860Y0086250D03*
X0169130Y0086250D03*
X0169130Y0078120D03*
X0169130Y0070000D03*
X0169130Y0061870D03*
X0169130Y0053750D03*
X0169130Y0045620D03*
X0169130Y0037500D03*
X0188120Y0022880D03*
X0196250Y0022880D03*
X0204370Y0022880D03*
X0204370Y0014610D03*
X0196250Y0014610D03*
X0188120Y0014610D03*
X0212500Y0014610D03*
X0212500Y0022880D03*
D10*
X0215620Y0014370D03*
X0209370Y0014370D03*
X0199370Y0023750D03*
X0193120Y0023750D03*
X0175000Y0023120D03*
X0168750Y0023120D03*
X0169370Y0034370D03*
X0169370Y0040620D03*
X0169370Y0058750D03*
X0169370Y0065000D03*
X0169370Y0083120D03*
X0169370Y0089370D03*
D16*
X0169130Y0089370D01*
X0169130Y0086250D01*
X0169130Y0083120D01*
X0169370Y0083120D01*
X0169130Y0078120D02*
X0161010Y0086250D01*
X0160860Y0086250D01*
X0160860Y0078120D02*
X0161010Y0078120D01*
X0169130Y0070000D01*
X0169130Y0065000D02*
X0169130Y0061870D01*
X0169130Y0058750D01*
X0169370Y0058750D01*
X0169130Y0053750D02*
X0161010Y0061870D01*
X0160860Y0061870D01*
X0160860Y0053750D02*
X0161010Y0053750D01*
X0169130Y0045620D01*
X0169130Y0040620D02*
X0169130Y0037500D01*
X0169130Y0034370D01*
X0169370Y0034370D01*
X0169130Y0029370D02*
X0161010Y0037500D01*
X0160860Y0037500D01*
X0160860Y0045620D02*
X0164370Y0045620D01*
X0169130Y0040620D02*
X0169370Y0040620D01*
X0160860Y0029370D02*
X0160860Y0027880D01*
X0163750Y0025000D01*
X0163750Y0022880D01*
X0163750Y0018120D02*
X0163750Y0014610D01*
X0171870Y0014610D02*
X0171870Y0014760D01*
X0180000Y0022880D01*
X0175000Y0023120D02*
X0171870Y0023120D01*
X0171870Y0022880D01*
X0171870Y0023120D02*
X0168750Y0023120D01*
X0180000Y0014760D02*
X0188120Y0022880D01*
X0188120Y0018120D02*
X0188120Y0014610D01*
X0196250Y0014610D02*
X0196250Y0014760D01*
X0204370Y0022880D01*
X0199370Y0023750D02*
X0196250Y0023750D01*
X0196250Y0022880D01*
X0196250Y0023750D02*
X0193120Y0023750D01*
X0204370Y0014760D02*
X0212500Y0022880D01*
X0212500Y0018120D02*
X0212500Y0014610D01*
X0212500Y0014370D01*
X0209370Y0014370D01*
X0212500Y0014370D02*
X0215620Y0014370D01*
X0204370Y0014610D02*
X0204370Y0014760D01*
X0180000Y0014610D02*
X0180000Y0014760D01*
X0169370Y0065000D02*
X0169130Y0065000D01*
X0164370Y0070000D02*
X0160860Y0070000D01*
D14*
X0164370Y0070000D03*
X0164370Y0045620D03*
X0163750Y0018120D03*
X0188120Y0018120D03*
X0212500Y0018120D03*
X0227500Y0010000D02*
G75*
%LPD*%
D17*
X0227500Y0010000D02*
X0227500Y0095000D01*
X0292500Y0095000D01*
X0292500Y0010000D01*
X0227500Y0010000D01*
D19*
X0233360Y0018750D03*
X0241630Y0018750D03*
X0248750Y0022880D03*
X0248750Y0014610D03*
X0258750Y0014610D03*
X0258750Y0022880D03*
X0241010Y0029370D03*
X0232740Y0029370D03*
X0232740Y0040620D03*
X0241010Y0040620D03*
X0241630Y0051870D03*
X0233360Y0051870D03*
X0233360Y0063120D03*
X0241630Y0063120D03*
X0241630Y0074370D03*
X0233360Y0074370D03*
X0233360Y0085620D03*
X0241630Y0085620D03*
X0248750Y0082110D03*
X0248750Y0090380D03*
X0258750Y0090380D03*
X0258750Y0082110D03*
X0278360Y0063750D03*
X0278360Y0055620D03*
X0278360Y0047500D03*
X0278360Y0039370D03*
X0286630Y0039370D03*
X0286630Y0047500D03*
X0286630Y0055620D03*
X0286630Y0063750D03*
D19*
G36*
X0276360Y0068120D02*
X0274370Y0072390D01*
X0278640Y0074380D01*
X0280630Y0070110D01*
X0276360Y0068120D01*
G37*
G36*
X0273950Y0074370D02*
X0270620Y0077700D01*
X0273950Y0081030D01*
X0277280Y0077700D01*
X0273950Y0074370D01*
G37*
G36*
X0269340Y0078740D02*
X0264790Y0079970D01*
X0266020Y0084520D01*
X0270570Y0083290D01*
X0269340Y0078740D01*
G37*
G36*
X0271480Y0086720D02*
X0266930Y0087950D01*
X0268160Y0092500D01*
X0272710Y0091270D01*
X0271480Y0086720D01*
G37*
G36*
X0279790Y0080210D02*
X0276460Y0083540D01*
X0279790Y0086870D01*
X0283120Y0083540D01*
X0279790Y0080210D01*
G37*
G36*
X0283850Y0071610D02*
X0281860Y0075880D01*
X0286130Y0077870D01*
X0288120Y0073600D01*
X0283850Y0071610D01*
G37*
G36*
X0274210Y0031600D02*
X0276200Y0035870D01*
X0280470Y0033880D01*
X0278480Y0029610D01*
X0274210Y0031600D01*
G37*
G36*
X0269370Y0026670D02*
X0272700Y0030000D01*
X0276030Y0026670D01*
X0272700Y0023340D01*
X0269370Y0026670D01*
G37*
G36*
X0264300Y0024180D02*
X0268570Y0026170D01*
X0270560Y0021900D01*
X0266290Y0019910D01*
X0264300Y0024180D01*
G37*
G36*
X0267790Y0016690D02*
X0272060Y0018680D01*
X0274050Y0014410D01*
X0269780Y0012420D01*
X0267790Y0016690D01*
G37*
G36*
X0275210Y0020820D02*
X0278540Y0024150D01*
X0281870Y0020820D01*
X0278540Y0017490D01*
X0275210Y0020820D01*
G37*
G36*
X0281710Y0028110D02*
X0283700Y0032380D01*
X0287970Y0030390D01*
X0285980Y0026120D01*
X0281710Y0028110D01*
G37*
D10*
X0281250Y0022500D03*
X0276870Y0017500D03*
X0251870Y0013750D03*
X0245620Y0013750D03*
X0232500Y0015000D03*
X0232500Y0022500D03*
X0241870Y0037500D03*
X0241870Y0043750D03*
X0241870Y0071250D03*
X0241870Y0077500D03*
X0255620Y0091250D03*
X0261870Y0091250D03*
X0285000Y0078120D03*
X0288120Y0072500D03*
X0286870Y0050620D03*
X0286870Y0044370D03*
D16*
X0286870Y0047260D01*
X0286630Y0047500D01*
X0286870Y0047740D01*
X0286870Y0050620D01*
X0286630Y0055620D02*
X0278510Y0047500D01*
X0278360Y0047500D01*
X0278360Y0055620D02*
X0278510Y0055620D01*
X0286630Y0063750D01*
X0281870Y0063750D02*
X0278360Y0063750D01*
X0277500Y0071250D02*
X0277500Y0071250D01*
X0277500Y0075000D01*
X0279790Y0077290D01*
X0279790Y0083540D01*
X0285000Y0078120D02*
X0285000Y0074750D01*
X0284990Y0074740D01*
X0287240Y0072500D01*
X0288120Y0072500D01*
X0273950Y0077700D02*
X0272500Y0079150D01*
X0272500Y0085000D01*
X0269820Y0087680D01*
X0269820Y0089610D01*
X0266180Y0083120D02*
X0264370Y0083120D01*
X0266180Y0083120D02*
X0267680Y0081630D01*
X0258750Y0082110D02*
X0250480Y0090380D01*
X0248750Y0090380D01*
X0245240Y0085620D02*
X0248750Y0082110D01*
X0245240Y0085620D02*
X0241630Y0085620D01*
X0236870Y0085620D02*
X0233360Y0085620D01*
X0241870Y0077500D02*
X0241870Y0074610D01*
X0241630Y0074370D01*
X0241870Y0074130D01*
X0241870Y0071250D01*
X0241630Y0063120D02*
X0233360Y0071390D01*
X0233360Y0074370D01*
X0233360Y0063120D02*
X0233360Y0060140D01*
X0241630Y0051870D01*
X0236870Y0051870D02*
X0233360Y0051870D01*
X0241870Y0043750D02*
X0241870Y0041490D01*
X0241010Y0040620D01*
X0241870Y0039760D01*
X0241870Y0037500D01*
X0241010Y0029370D02*
X0232740Y0037640D01*
X0232740Y0040620D01*
X0232740Y0029370D02*
X0232740Y0027640D01*
X0241630Y0018750D01*
X0245620Y0013750D02*
X0247880Y0013750D01*
X0248750Y0014610D01*
X0249610Y0013750D01*
X0251870Y0013750D01*
X0258750Y0014610D02*
X0250480Y0022880D01*
X0248750Y0022880D01*
X0258750Y0022880D02*
X0262110Y0022880D01*
X0263750Y0021250D01*
X0263750Y0017500D01*
X0266250Y0015000D01*
X0270370Y0015000D01*
X0270920Y0015550D01*
X0268750Y0020000D02*
X0267430Y0021320D01*
X0267430Y0023040D01*
X0272700Y0026670D02*
X0282260Y0026670D01*
X0284840Y0029250D01*
X0280000Y0032740D02*
X0286630Y0039370D01*
X0281870Y0039370D02*
X0278360Y0039370D01*
X0277340Y0032740D02*
X0280000Y0032740D01*
X0280220Y0022500D02*
X0278540Y0020820D01*
X0276870Y0019150D01*
X0276870Y0017500D01*
X0280220Y0022500D02*
X0281250Y0022500D01*
X0233360Y0022500D02*
X0233360Y0018750D01*
X0233360Y0015000D01*
X0232500Y0015000D01*
X0232500Y0022500D02*
X0233360Y0022500D01*
X0258750Y0090380D02*
X0257880Y0091250D01*
X0255620Y0091250D01*
X0258750Y0090380D02*
X0259610Y0091250D01*
X0261870Y0091250D01*
D14*
X0264370Y0083120D03*
X0281870Y0063750D03*
X0281870Y0039370D03*
X0268750Y0020000D03*
X0236870Y0051870D03*
X0236870Y0085620D03*
X0010000Y0102500D02*
G75*
%LPD*%
D17*
X0010000Y0102500D02*
X0010000Y0187500D01*
X0075000Y0187500D01*
X0075000Y0102500D01*
X0010000Y0102500D01*
D19*
X0015860Y0109370D03*
X0024130Y0109370D03*
X0024130Y0119370D03*
X0015860Y0119370D03*
X0015860Y0129370D03*
X0024130Y0129370D03*
X0024130Y0139370D03*
X0015860Y0139370D03*
X0015860Y0149370D03*
X0024130Y0149370D03*
X0024130Y0159370D03*
X0015860Y0159370D03*
X0015860Y0169370D03*
X0024130Y0169370D03*
X0030000Y0167740D03*
X0036250Y0168510D03*
X0030000Y0176010D03*
X0024130Y0179370D03*
X0015860Y0179370D03*
X0036250Y0160240D03*
X0042500Y0161010D03*
X0048750Y0160240D03*
X0048750Y0168510D03*
X0055000Y0168360D03*
X0060860Y0169370D03*
X0055000Y0176630D03*
X0060860Y0179370D03*
X0069130Y0179370D03*
X0069130Y0169370D03*
X0069130Y0159370D03*
X0060860Y0159370D03*
X0060860Y0149370D03*
X0069130Y0149370D03*
X0069130Y0139370D03*
X0060860Y0139370D03*
X0060860Y0129370D03*
X0069130Y0129370D03*
X0069130Y0119370D03*
X0060860Y0119370D03*
X0060860Y0109370D03*
X0069130Y0109370D03*
X0042500Y0152740D03*
D10*
X0023750Y0156250D03*
X0023750Y0162500D03*
X0029370Y0179370D03*
X0033120Y0179370D03*
X0046250Y0171870D03*
X0050000Y0171870D03*
X0068750Y0172500D03*
X0068750Y0166250D03*
X0068750Y0142500D03*
X0068750Y0136250D03*
X0068750Y0112500D03*
X0068750Y0106250D03*
X0023750Y0126250D03*
X0023750Y0132500D03*
X0016250Y0112500D03*
X0016250Y0106250D03*
D16*
X0016250Y0108990D01*
X0015860Y0109370D01*
X0016250Y0109760D01*
X0016250Y0112500D01*
X0015860Y0117640D02*
X0024130Y0109370D01*
X0015860Y0117640D02*
X0015860Y0119370D01*
X0015860Y0127640D02*
X0024130Y0119370D01*
X0023750Y0126250D02*
X0023750Y0128990D01*
X0024130Y0129370D01*
X0023750Y0129760D01*
X0023750Y0132500D01*
X0024130Y0139370D02*
X0015860Y0147640D01*
X0015860Y0149370D01*
X0015860Y0157640D02*
X0024130Y0149370D01*
X0023750Y0156250D02*
X0023750Y0158990D01*
X0024130Y0159370D01*
X0023750Y0159760D01*
X0023750Y0162500D01*
X0030000Y0167740D02*
X0030000Y0170000D01*
X0024130Y0175860D01*
X0024130Y0179370D01*
X0029370Y0179370D02*
X0029370Y0176630D01*
X0030000Y0176010D01*
X0033120Y0179130D01*
X0033120Y0179370D01*
X0024130Y0169370D02*
X0015860Y0177640D01*
X0015860Y0179370D01*
X0015860Y0169370D02*
X0019370Y0169370D01*
X0015860Y0159370D02*
X0015860Y0157640D01*
X0015860Y0139370D02*
X0019370Y0139370D01*
X0015860Y0129370D02*
X0015860Y0127640D01*
X0042500Y0152740D02*
X0042500Y0156250D01*
X0042500Y0161010D02*
X0047980Y0161010D01*
X0048750Y0160240D01*
X0048750Y0168510D02*
X0050000Y0169760D01*
X0050000Y0171870D01*
X0048750Y0168510D02*
X0046250Y0171010D01*
X0046250Y0171870D01*
X0055000Y0171870D02*
X0055000Y0168360D01*
X0060860Y0169370D02*
X0060860Y0171100D01*
X0069130Y0179370D01*
X0068750Y0172500D02*
X0068750Y0169760D01*
X0069130Y0169370D01*
X0068750Y0168990D01*
X0068750Y0166250D01*
X0069130Y0159370D02*
X0060860Y0151100D01*
X0060860Y0149370D01*
X0060860Y0141100D02*
X0069130Y0149370D01*
X0068750Y0142500D02*
X0068750Y0139760D01*
X0069130Y0139370D01*
X0068750Y0138990D01*
X0068750Y0136250D01*
X0069130Y0129370D02*
X0060860Y0121100D01*
X0060860Y0119370D01*
X0060860Y0111100D02*
X0069130Y0119370D01*
X0068750Y0112500D02*
X0068750Y0109760D01*
X0069130Y0109370D01*
X0068750Y0108990D01*
X0068750Y0106250D01*
X0060860Y0109370D02*
X0060860Y0111100D01*
X0060860Y0129370D02*
X0064370Y0129370D01*
X0060860Y0139370D02*
X0060860Y0141100D01*
X0060860Y0159370D02*
X0064370Y0159370D01*
X0055000Y0176630D02*
X0057740Y0179370D01*
X0060860Y0179370D01*
X0036250Y0168510D02*
X0036250Y0165000D01*
X0036250Y0160240D02*
X0036250Y0156870D01*
D14*
X0036250Y0156870D03*
X0042500Y0156250D03*
X0036250Y0165000D03*
X0019370Y0169370D03*
X0019370Y0139370D03*
X0055000Y0171870D03*
X0064370Y0159370D03*
X0064370Y0129370D03*
X0082500Y0102500D02*
G75*
%LPD*%
D17*
X0082500Y0102500D02*
X0082500Y0187500D01*
X0147500Y0187500D01*
X0147500Y0102500D01*
X0082500Y0102500D01*
D19*
X0108120Y0107110D03*
X0115000Y0107110D03*
X0121870Y0107110D03*
X0121870Y0115380D03*
X0115000Y0115380D03*
X0108120Y0115380D03*
X0096630Y0130000D03*
X0096630Y0137500D03*
X0096630Y0145000D03*
X0096630Y0152500D03*
X0096630Y0160000D03*
X0088360Y0160000D03*
X0088360Y0152500D03*
X0088360Y0145000D03*
X0088360Y0137500D03*
X0088360Y0130000D03*
X0108120Y0174610D03*
X0115000Y0174610D03*
X0121870Y0174610D03*
X0121870Y0182880D03*
X0115000Y0182880D03*
X0108120Y0182880D03*
X0133360Y0160000D03*
X0133360Y0152500D03*
X0133360Y0145000D03*
X0133360Y0137500D03*
X0133360Y0130000D03*
X0141630Y0130000D03*
X0141630Y0137500D03*
X0141630Y0145000D03*
X0141630Y0152500D03*
X0141630Y0160000D03*
D19*
G36*
X0131810Y0163460D02*
X0129450Y0167540D01*
X0133530Y0169900D01*
X0135890Y0165820D01*
X0131810Y0163460D01*
G37*
G36*
X0129410Y0168820D02*
X0125330Y0171180D01*
X0127690Y0175260D01*
X0131770Y0172900D01*
X0129410Y0168820D01*
G37*
G36*
X0138970Y0167590D02*
X0136610Y0171670D01*
X0140690Y0174030D01*
X0143050Y0169950D01*
X0138970Y0167590D01*
G37*
G36*
X0133550Y0175980D02*
X0129470Y0178340D01*
X0131830Y0182420D01*
X0135910Y0180060D01*
X0133550Y0175980D01*
G37*
G36*
X0104660Y0171180D02*
X0100580Y0168820D01*
X0098220Y0172900D01*
X0102300Y0175260D01*
X0104660Y0171180D01*
G37*
G36*
X0100550Y0167540D02*
X0098190Y0163460D01*
X0094110Y0165820D01*
X0096470Y0169900D01*
X0100550Y0167540D01*
G37*
G36*
X0093390Y0171670D02*
X0091030Y0167590D01*
X0086950Y0169950D01*
X0089310Y0174030D01*
X0093390Y0171670D01*
G37*
G36*
X0100520Y0178340D02*
X0096440Y0175980D01*
X0094080Y0180060D01*
X0098160Y0182420D01*
X0100520Y0178340D01*
G37*
G36*
X0098190Y0125910D02*
X0100550Y0121830D01*
X0096470Y0119470D01*
X0094110Y0123550D01*
X0098190Y0125910D01*
G37*
G36*
X0100580Y0120550D02*
X0104660Y0118190D01*
X0102300Y0114110D01*
X0098220Y0116470D01*
X0100580Y0120550D01*
G37*
G36*
X0096440Y0113390D02*
X0100520Y0111030D01*
X0098160Y0106950D01*
X0094080Y0109310D01*
X0096440Y0113390D01*
G37*
G36*
X0091030Y0121770D02*
X0093390Y0117690D01*
X0089310Y0115330D01*
X0086950Y0119410D01*
X0091030Y0121770D01*
G37*
G36*
X0125330Y0118190D02*
X0129410Y0120550D01*
X0131770Y0116470D01*
X0127690Y0114110D01*
X0125330Y0118190D01*
G37*
G36*
X0129450Y0121830D02*
X0131810Y0125910D01*
X0135890Y0123550D01*
X0133530Y0119470D01*
X0129450Y0121830D01*
G37*
G36*
X0136610Y0117690D02*
X0138970Y0121770D01*
X0143050Y0119410D01*
X0140690Y0115330D01*
X0136610Y0117690D01*
G37*
G36*
X0129470Y0111030D02*
X0133550Y0113390D01*
X0135910Y0109310D01*
X0131830Y0106950D01*
X0129470Y0111030D01*
G37*
D10*
X0130000Y0108120D03*
X0135620Y0111250D03*
X0144370Y0135620D03*
X0144370Y0139370D03*
X0144370Y0157500D03*
X0144370Y0163120D03*
X0128750Y0183120D03*
X0125000Y0183120D03*
X0100000Y0181250D03*
X0094370Y0177500D03*
X0085620Y0155000D03*
X0085620Y0150000D03*
X0085620Y0131870D03*
X0085620Y0126870D03*
X0103120Y0120620D03*
X0106250Y0120620D03*
X0105000Y0106250D03*
X0101250Y0106250D03*
D16*
X0105000Y0106250D01*
X0105860Y0107110D01*
X0108120Y0107110D01*
X0108120Y0113990D02*
X0115000Y0107110D01*
X0121870Y0107110D02*
X0115000Y0113990D01*
X0115000Y0115380D01*
X0108120Y0115380D02*
X0108120Y0113990D01*
X0106250Y0120620D02*
X0103120Y0120620D01*
X0103120Y0119010D01*
X0101440Y0117330D01*
X0097330Y0118580D02*
X0096250Y0117500D01*
X0096250Y0111220D01*
X0097300Y0110170D01*
X0097330Y0118580D02*
X0097330Y0122690D01*
X0090170Y0123530D02*
X0096630Y0130000D01*
X0090170Y0123530D02*
X0090170Y0118550D01*
X0085620Y0126870D02*
X0085620Y0127260D01*
X0088360Y0130000D01*
X0086490Y0131870D01*
X0085620Y0131870D01*
X0088360Y0137500D02*
X0089130Y0137500D01*
X0096630Y0145000D01*
X0089130Y0145000D02*
X0096630Y0152500D01*
X0096630Y0160000D02*
X0093120Y0160000D01*
X0088360Y0160000D02*
X0095050Y0166680D01*
X0097330Y0166680D01*
X0101440Y0172040D02*
X0091390Y0172040D01*
X0090170Y0170810D01*
X0094370Y0177500D02*
X0095600Y0177500D01*
X0097300Y0179200D01*
X0099350Y0181250D01*
X0100000Y0181250D01*
X0108120Y0181490D02*
X0109760Y0181490D01*
X0115000Y0176250D01*
X0115000Y0174610D01*
X0121870Y0174610D02*
X0115000Y0181490D01*
X0115000Y0182880D01*
X0108120Y0182880D02*
X0108120Y0181490D01*
X0108120Y0178120D02*
X0108120Y0174610D01*
X0121870Y0182880D02*
X0122110Y0183120D01*
X0125000Y0183120D01*
X0128750Y0183120D01*
X0132690Y0179200D02*
X0132690Y0177300D01*
X0135000Y0175000D01*
X0135000Y0169010D01*
X0132670Y0166680D01*
X0128550Y0172040D02*
X0128550Y0172930D01*
X0130620Y0175000D01*
X0139830Y0170810D02*
X0140000Y0170640D01*
X0140000Y0166250D01*
X0133750Y0160000D01*
X0133360Y0160000D01*
X0133360Y0152500D02*
X0136870Y0152500D01*
X0141630Y0152500D02*
X0134130Y0145000D01*
X0133360Y0145000D01*
X0140860Y0145000D02*
X0133360Y0137500D01*
X0133360Y0130000D02*
X0136870Y0130000D01*
X0141630Y0130000D02*
X0134320Y0122690D01*
X0132670Y0122690D01*
X0128550Y0117330D02*
X0138600Y0117330D01*
X0139830Y0118550D01*
X0135620Y0111250D02*
X0133770Y0111250D01*
X0132690Y0110170D01*
X0130640Y0108120D01*
X0130000Y0108120D01*
X0121870Y0111870D02*
X0121870Y0115380D01*
X0143510Y0135620D02*
X0141630Y0137500D01*
X0143510Y0139370D01*
X0144370Y0139370D01*
X0144370Y0135620D02*
X0143510Y0135620D01*
X0141630Y0145000D02*
X0140860Y0145000D01*
X0144130Y0157500D02*
X0141630Y0160000D01*
X0144370Y0162740D01*
X0144370Y0163120D01*
X0144370Y0157500D02*
X0144130Y0157500D01*
X0096630Y0137500D02*
X0093120Y0137500D01*
X0089130Y0145000D02*
X0088360Y0145000D01*
X0085860Y0150000D02*
X0085620Y0150000D01*
X0085860Y0150000D02*
X0088360Y0152500D01*
X0085860Y0155000D01*
X0085620Y0155000D01*
D14*
X0093120Y0160000D03*
X0108120Y0178120D03*
X0130620Y0175000D03*
X0136870Y0152500D03*
X0136870Y0130000D03*
X0121870Y0111870D03*
X0093120Y0137500D03*
X0155000Y0102500D02*
G75*
%LPD*%
D17*
X0155000Y0102500D02*
X0155000Y0187500D01*
X0220000Y0187500D01*
X0220000Y0102500D01*
X0155000Y0102500D01*
D19*
X0179370Y0107110D03*
X0187500Y0107110D03*
X0187500Y0115380D03*
X0179370Y0115380D03*
X0169130Y0132500D03*
X0169130Y0140620D03*
X0169130Y0148750D03*
X0169130Y0156870D03*
X0169130Y0165000D03*
X0169130Y0173120D03*
X0169130Y0181250D03*
X0160860Y0181250D03*
X0160860Y0173120D03*
X0160860Y0165000D03*
X0160860Y0156870D03*
X0160860Y0148750D03*
X0160860Y0140620D03*
X0160860Y0132500D03*
X0195620Y0115380D03*
X0195620Y0107110D03*
X0205860Y0132500D03*
X0205860Y0140620D03*
X0205860Y0148750D03*
X0205860Y0156870D03*
X0205860Y0165000D03*
X0205860Y0173120D03*
X0205860Y0181250D03*
X0214130Y0181250D03*
X0214130Y0173120D03*
X0214130Y0165000D03*
X0214130Y0156870D03*
X0214130Y0148750D03*
X0214130Y0140620D03*
X0214130Y0132500D03*
D19*
G36*
X0209180Y0125420D02*
X0206820Y0121340D01*
X0202740Y0123700D01*
X0205100Y0127780D01*
X0209180Y0125420D01*
G37*
G36*
X0216340Y0121290D02*
X0213980Y0117210D01*
X0209900Y0119570D01*
X0212260Y0123650D01*
X0216340Y0121290D01*
G37*
G36*
X0209030Y0110560D02*
X0204950Y0108200D01*
X0202590Y0112280D01*
X0206670Y0114640D01*
X0209030Y0110560D01*
G37*
G36*
X0204900Y0117720D02*
X0200820Y0115360D01*
X0198460Y0119440D01*
X0202540Y0121800D01*
X0204900Y0117720D01*
G37*
G36*
X0174170Y0115360D02*
X0170090Y0117720D01*
X0172450Y0121800D01*
X0176530Y0119440D01*
X0174170Y0115360D01*
G37*
G36*
X0170040Y0108200D02*
X0165960Y0110560D01*
X0168320Y0114640D01*
X0172400Y0112280D01*
X0170040Y0108200D01*
G37*
G36*
X0161180Y0117210D02*
X0158820Y0121290D01*
X0162900Y0123650D01*
X0165260Y0119570D01*
X0161180Y0117210D01*
G37*
G36*
X0168340Y0121340D02*
X0165980Y0125420D01*
X0170060Y0127780D01*
X0172420Y0123700D01*
X0168340Y0121340D01*
G37*
D10*
X0167500Y0129370D03*
X0169370Y0135620D03*
X0169370Y0153750D03*
X0169370Y0160000D03*
X0169370Y0178120D03*
X0169370Y0184370D03*
X0205620Y0168120D03*
X0205620Y0161870D03*
X0205620Y0143750D03*
X0205620Y0137500D03*
X0205620Y0118750D03*
X0200620Y0114370D03*
X0182500Y0115620D03*
X0176250Y0112500D03*
X0171870Y0109370D03*
X0166250Y0112500D03*
D16*
X0167330Y0111420D01*
X0169180Y0111420D01*
X0169830Y0111420D01*
X0171870Y0109370D01*
X0176250Y0112500D02*
X0176490Y0112500D01*
X0179370Y0115380D01*
X0182260Y0115380D01*
X0182500Y0115620D01*
X0187500Y0115380D02*
X0179370Y0107260D01*
X0179370Y0107110D01*
X0187500Y0107110D02*
X0195620Y0115240D01*
X0195620Y0115380D01*
X0200620Y0114370D02*
X0200620Y0117520D01*
X0201680Y0118580D01*
X0201850Y0118750D01*
X0205620Y0118750D01*
X0208750Y0116250D02*
X0208750Y0121780D01*
X0205960Y0124560D01*
X0213120Y0120430D02*
X0213750Y0121060D01*
X0213750Y0124370D01*
X0205860Y0132260D01*
X0205860Y0132500D01*
X0210620Y0132500D02*
X0214130Y0132500D01*
X0214130Y0133360D01*
X0214130Y0140620D02*
X0206010Y0148750D01*
X0205860Y0148750D01*
X0205620Y0143750D02*
X0205620Y0140860D01*
X0205860Y0140620D01*
X0205620Y0140380D01*
X0205620Y0137500D01*
X0214130Y0148750D02*
X0206010Y0156870D01*
X0205860Y0156870D01*
X0210620Y0156870D02*
X0214130Y0156870D01*
X0214130Y0165000D02*
X0206010Y0173120D01*
X0205860Y0173120D01*
X0205620Y0168120D02*
X0205620Y0165240D01*
X0205860Y0165000D01*
X0205620Y0164760D01*
X0205620Y0161870D01*
X0214130Y0173120D02*
X0206010Y0181250D01*
X0205860Y0181250D01*
X0210620Y0181250D02*
X0214130Y0181250D01*
X0169370Y0181490D02*
X0169130Y0181250D01*
X0169370Y0181010D01*
X0169370Y0178120D01*
X0169370Y0181490D02*
X0169370Y0184370D01*
X0160860Y0181250D02*
X0168990Y0173120D01*
X0169130Y0173120D01*
X0169130Y0165000D02*
X0168990Y0165000D01*
X0160860Y0173120D01*
X0160860Y0165000D02*
X0164370Y0165000D01*
X0169370Y0160000D02*
X0169370Y0157110D01*
X0169130Y0156870D01*
X0169370Y0156630D01*
X0169370Y0153750D01*
X0169130Y0148750D02*
X0168990Y0148750D01*
X0160860Y0156870D01*
X0160860Y0148750D02*
X0168990Y0140620D01*
X0169130Y0140620D01*
X0169370Y0135620D02*
X0169370Y0132740D01*
X0169130Y0132500D01*
X0167500Y0130860D01*
X0167500Y0129370D01*
X0166680Y0124560D02*
X0161250Y0130000D01*
X0161250Y0132110D01*
X0160860Y0132500D01*
X0160860Y0140620D02*
X0164370Y0140620D01*
X0166680Y0124560D02*
X0169200Y0124560D01*
X0173310Y0118580D02*
X0163890Y0118580D01*
X0162040Y0120430D01*
X0195620Y0110620D02*
X0195620Y0107110D01*
X0205810Y0111420D02*
X0205810Y0113310D01*
X0208750Y0116250D01*
D14*
X0195620Y0110620D03*
X0210620Y0132500D03*
X0210620Y0156870D03*
X0210620Y0181250D03*
X0164370Y0165000D03*
X0164370Y0140620D03*
X0227500Y0102500D02*
G75*
%LPD*%
D17*
X0227500Y0102500D02*
X0227500Y0187500D01*
X0292500Y0187500D01*
X0292500Y0102500D01*
X0227500Y0102500D01*
D19*
X0238360Y0116870D03*
X0240380Y0123120D03*
X0246630Y0116870D03*
X0245860Y0110620D03*
X0254130Y0110620D03*
X0260620Y0107110D03*
X0267110Y0110620D03*
X0260620Y0115380D03*
X0273360Y0116870D03*
X0275380Y0110620D03*
X0281630Y0116870D03*
X0278360Y0123750D03*
X0278360Y0130620D03*
X0274250Y0138230D03*
X0275900Y0145000D03*
X0282510Y0138230D03*
X0286630Y0130620D03*
X0286630Y0123750D03*
X0267630Y0145000D03*
X0260620Y0149130D03*
X0253950Y0145070D03*
X0260620Y0140860D03*
X0245680Y0145070D03*
X0245900Y0151610D03*
X0237630Y0151610D03*
X0241010Y0158750D03*
X0241010Y0166870D03*
X0238990Y0173750D03*
X0245860Y0179370D03*
X0247260Y0173750D03*
X0254130Y0179370D03*
X0260620Y0175240D03*
X0267110Y0179370D03*
X0272740Y0173750D03*
X0275380Y0179370D03*
X0281010Y0173750D03*
X0278360Y0166870D03*
X0286630Y0166870D03*
X0260620Y0183510D03*
X0232740Y0166870D03*
X0232740Y0158750D03*
X0232110Y0123120D03*
D10*
X0231250Y0119370D03*
X0231250Y0126870D03*
X0251870Y0113750D03*
X0255620Y0113750D03*
X0254370Y0141870D03*
X0254370Y0148120D03*
X0244370Y0163750D03*
X0244370Y0166870D03*
X0257500Y0184370D03*
X0263750Y0184370D03*
X0286870Y0170000D03*
X0286870Y0163750D03*
X0285620Y0140000D03*
X0285620Y0136250D03*
X0285000Y0118120D03*
X0285000Y0115000D03*
D16*
X0285000Y0118120D01*
X0283750Y0116870D01*
X0281630Y0116870D01*
X0281870Y0123750D02*
X0278360Y0123750D01*
X0278360Y0130620D02*
X0279760Y0130620D01*
X0286630Y0123750D01*
X0286630Y0130620D02*
X0286010Y0131250D01*
X0283750Y0131250D01*
X0280620Y0134370D01*
X0278120Y0134370D01*
X0275510Y0136980D01*
X0275510Y0137600D01*
X0274250Y0138230D01*
X0275900Y0145000D02*
X0272150Y0148750D01*
X0265000Y0148750D01*
X0264370Y0148120D01*
X0264370Y0145620D01*
X0260620Y0141870D01*
X0260620Y0140860D01*
X0254370Y0141870D02*
X0254370Y0144650D01*
X0253950Y0145070D01*
X0254370Y0145500D01*
X0254370Y0148120D01*
X0252500Y0151250D02*
X0257500Y0151250D01*
X0259610Y0149130D01*
X0260620Y0149130D01*
X0267630Y0145000D02*
X0271250Y0145000D01*
X0282510Y0138230D02*
X0283640Y0138230D01*
X0285620Y0136250D01*
X0285620Y0140000D01*
X0286870Y0163750D02*
X0286870Y0166630D01*
X0286630Y0166870D01*
X0286870Y0167110D01*
X0286870Y0170000D01*
X0281010Y0173750D02*
X0278360Y0171100D01*
X0278360Y0166870D01*
X0272740Y0173750D02*
X0272740Y0176730D01*
X0275380Y0179370D01*
X0270620Y0179370D02*
X0267110Y0179370D01*
X0265620Y0177880D01*
X0260620Y0175240D02*
X0256490Y0179370D01*
X0254130Y0179370D01*
X0257500Y0184370D02*
X0260380Y0184370D01*
X0260620Y0183510D01*
X0261490Y0184370D01*
X0263750Y0184370D01*
X0260860Y0184370D02*
X0260620Y0183510D01*
X0247260Y0179370D02*
X0247260Y0173750D01*
X0242500Y0173750D02*
X0238990Y0173750D01*
X0241010Y0166870D02*
X0244370Y0166870D01*
X0244370Y0163750D01*
X0241010Y0158750D02*
X0232880Y0166870D01*
X0232740Y0166870D01*
X0232740Y0158750D02*
X0233750Y0158750D01*
X0237500Y0155000D01*
X0242510Y0155000D01*
X0245900Y0151610D01*
X0241250Y0151250D02*
X0240880Y0151610D01*
X0237630Y0151610D01*
X0245680Y0145070D02*
X0248200Y0145070D01*
X0250000Y0146870D01*
X0250000Y0148750D01*
X0252500Y0151250D01*
X0231250Y0126870D02*
X0231250Y0123990D01*
X0232110Y0123120D01*
X0231250Y0122260D01*
X0231250Y0119370D01*
X0238360Y0121100D02*
X0238360Y0116870D01*
X0238360Y0121100D02*
X0240380Y0121100D01*
X0240380Y0123120D01*
X0246630Y0116870D02*
X0246630Y0111390D01*
X0245860Y0110620D01*
X0251870Y0112880D02*
X0254130Y0110620D01*
X0251870Y0112880D02*
X0251870Y0113750D01*
X0255620Y0113750D01*
X0260620Y0115380D02*
X0262350Y0115380D01*
X0267110Y0110620D01*
X0260620Y0110620D02*
X0260620Y0107110D01*
X0273360Y0112640D02*
X0275380Y0110620D01*
X0273360Y0112640D02*
X0273360Y0116870D01*
X0247260Y0179370D02*
X0245860Y0179370D01*
D14*
X0242500Y0173750D03*
X0241250Y0151250D03*
X0270620Y0179370D03*
X0271250Y0145000D03*
X0281870Y0123750D03*
X0260620Y0110620D03*
X0300000Y0102500D02*
G75*
%LPD*%
D17*
X0300000Y0102500D02*
X0300000Y0187500D01*
X0365000Y0187500D01*
X0365000Y0102500D01*
X0300000Y0102500D01*
D19*
X0311250Y0107110D03*
X0311250Y0115380D03*
X0314130Y0122500D03*
X0314130Y0130000D03*
X0314130Y0137500D03*
X0314130Y0145000D03*
X0316490Y0145000D03*
X0314130Y0152500D03*
X0314130Y0160000D03*
X0314130Y0167500D03*
X0310000Y0174610D03*
X0305860Y0167500D03*
X0305860Y0160000D03*
X0305860Y0152500D03*
X0305860Y0145000D03*
X0305860Y0137500D03*
X0305860Y0130000D03*
X0305860Y0122500D03*
X0320000Y0115380D03*
X0320000Y0107110D03*
X0328750Y0107110D03*
X0328750Y0115380D03*
X0337500Y0115380D03*
X0337500Y0107110D03*
X0346250Y0107110D03*
X0346250Y0115380D03*
X0355000Y0115380D03*
X0355000Y0107110D03*
X0334760Y0145000D03*
X0326490Y0145000D03*
X0324760Y0145000D03*
X0327500Y0174610D03*
X0327500Y0182880D03*
X0318750Y0182880D03*
X0318750Y0174610D03*
X0310000Y0182880D03*
X0336250Y0182880D03*
X0336250Y0174610D03*
X0345000Y0174610D03*
X0345000Y0182880D03*
X0353750Y0182880D03*
X0353750Y0174610D03*
D10*
X0356870Y0183120D03*
X0350620Y0183120D03*
X0330620Y0183120D03*
X0325000Y0183120D03*
X0317500Y0169370D03*
X0317500Y0165620D03*
X0335620Y0148120D03*
X0335620Y0141870D03*
X0317500Y0139370D03*
X0317500Y0135620D03*
X0314370Y0115620D03*
X0308120Y0115620D03*
X0334370Y0115000D03*
X0340620Y0115000D03*
X0351870Y0106870D03*
X0358120Y0106870D03*
D16*
X0355240Y0106870D01*
X0355000Y0107110D01*
X0354760Y0106870D01*
X0351870Y0106870D01*
X0346730Y0107110D02*
X0355000Y0115380D01*
X0346250Y0115380D02*
X0337980Y0107110D01*
X0337500Y0107110D01*
X0337880Y0115000D02*
X0337500Y0115380D01*
X0337110Y0115000D01*
X0334370Y0115000D01*
X0337880Y0115000D02*
X0340620Y0115000D01*
X0346250Y0107110D02*
X0346730Y0107110D01*
X0328750Y0107110D02*
X0328750Y0110000D01*
X0328750Y0115380D02*
X0320480Y0107110D01*
X0320000Y0107110D01*
X0311730Y0107110D02*
X0320000Y0115380D01*
X0314370Y0115620D02*
X0311490Y0115620D01*
X0311250Y0115380D01*
X0311010Y0115620D01*
X0308120Y0115620D01*
X0308750Y0122500D02*
X0305860Y0122500D01*
X0305860Y0130000D02*
X0306630Y0130000D01*
X0314130Y0122500D01*
X0314130Y0130000D02*
X0306630Y0137500D01*
X0305860Y0137500D01*
X0305860Y0145000D02*
X0305860Y0152500D01*
X0308750Y0152500D01*
X0314130Y0152500D02*
X0306630Y0160000D01*
X0305860Y0160000D01*
X0305860Y0167500D02*
X0306630Y0167500D01*
X0314130Y0160000D01*
X0316010Y0165620D02*
X0314130Y0167500D01*
X0316010Y0165620D02*
X0317500Y0165620D01*
X0317500Y0169370D01*
X0318750Y0174610D02*
X0310480Y0182880D01*
X0310000Y0182880D01*
X0310000Y0177500D02*
X0310000Y0174610D01*
X0318750Y0182880D02*
X0319230Y0182880D01*
X0327500Y0174610D01*
X0327500Y0182880D02*
X0327740Y0183120D01*
X0330620Y0183120D01*
X0327500Y0182880D02*
X0327260Y0183120D01*
X0325000Y0183120D01*
X0336250Y0182880D02*
X0336730Y0182880D01*
X0345000Y0174610D01*
X0345000Y0182880D02*
X0345480Y0182880D01*
X0353750Y0174610D01*
X0353750Y0182880D02*
X0353990Y0183120D01*
X0356870Y0183120D01*
X0353750Y0182880D02*
X0353510Y0183120D01*
X0350620Y0183120D01*
X0336250Y0177500D02*
X0336250Y0174610D01*
X0335620Y0148120D02*
X0335620Y0141870D01*
X0334760Y0145000D02*
X0335620Y0145860D01*
X0335620Y0148120D01*
X0326490Y0145000D02*
X0324760Y0145000D01*
X0317500Y0139370D02*
X0317500Y0135620D01*
X0316010Y0135620D01*
X0314130Y0137500D01*
X0314130Y0145000D02*
X0316490Y0145000D01*
X0311730Y0107110D02*
X0311250Y0107110D01*
D14*
X0308750Y0122500D03*
X0328750Y0110000D03*
X0308750Y0152500D03*
X0310000Y0177500D03*
X0336250Y0177500D03*
X0010000Y0195000D02*
G75*
%LPD*%
D17*
X0010000Y0195000D02*
X0010000Y0280000D01*
X0075000Y0280000D01*
X0075000Y0195000D01*
X0010000Y0195000D01*
D19*
X0016490Y0202500D03*
X0024760Y0202500D03*
X0030620Y0207740D03*
X0024760Y0212500D03*
X0030620Y0216010D03*
X0036250Y0217740D03*
X0036250Y0226010D03*
X0042500Y0226490D03*
X0048120Y0226010D03*
X0048120Y0217740D03*
X0053750Y0216010D03*
X0059610Y0212500D03*
X0053750Y0207740D03*
X0059610Y0202500D03*
X0067880Y0202500D03*
X0067880Y0212500D03*
X0067880Y0222500D03*
X0059610Y0222500D03*
X0059610Y0232500D03*
X0067880Y0232500D03*
X0067880Y0242500D03*
X0059610Y0242500D03*
X0059610Y0252500D03*
X0067880Y0252500D03*
X0067880Y0262500D03*
X0059610Y0262500D03*
X0059610Y0272500D03*
X0067880Y0272500D03*
X0042500Y0234760D03*
X0024760Y0232500D03*
X0016490Y0232500D03*
X0016490Y0242500D03*
X0024760Y0242500D03*
X0024760Y0252500D03*
X0016490Y0252500D03*
X0016490Y0262500D03*
X0024760Y0262500D03*
X0024760Y0272500D03*
X0016490Y0272500D03*
X0016490Y0222500D03*
X0024760Y0222500D03*
X0016490Y0212500D03*
D10*
X0025000Y0219370D03*
X0025000Y0225620D03*
X0033750Y0208120D03*
X0030000Y0204370D03*
X0045000Y0214370D03*
X0048750Y0214370D03*
X0068120Y0215620D03*
X0068120Y0209370D03*
X0068120Y0239370D03*
X0068120Y0245620D03*
X0068120Y0269370D03*
X0068120Y0275620D03*
X0025000Y0255620D03*
X0025000Y0249370D03*
X0016250Y0269370D03*
X0016250Y0275620D03*
D16*
X0016490Y0275380D01*
X0016490Y0272500D01*
X0016490Y0269610D01*
X0016250Y0269370D01*
X0016490Y0264230D02*
X0024760Y0272500D01*
X0016490Y0264230D02*
X0016490Y0262500D01*
X0016490Y0254230D02*
X0024760Y0262500D01*
X0025000Y0255620D02*
X0024760Y0255380D01*
X0024760Y0252500D01*
X0024760Y0249610D01*
X0025000Y0249370D01*
X0024760Y0242500D02*
X0016490Y0234230D01*
X0016490Y0232500D01*
X0016490Y0224230D02*
X0024760Y0232500D01*
X0025000Y0225620D02*
X0024760Y0225380D01*
X0024760Y0222500D01*
X0024760Y0219610D01*
X0025000Y0219370D01*
X0030620Y0216250D02*
X0030620Y0216010D01*
X0030620Y0212500D01*
X0031010Y0208120D02*
X0030620Y0207740D01*
X0030000Y0207110D01*
X0030000Y0204370D01*
X0031010Y0208120D02*
X0033750Y0208120D01*
X0025620Y0205000D02*
X0025620Y0203360D01*
X0024760Y0202500D01*
X0025000Y0202500D01*
X0016490Y0202500D02*
X0016490Y0204230D01*
X0024760Y0212500D01*
X0020000Y0212500D02*
X0016490Y0212500D01*
X0016250Y0212500D01*
X0016490Y0222500D02*
X0016490Y0224230D01*
X0016490Y0242500D02*
X0020000Y0242500D01*
X0016490Y0252500D02*
X0016490Y0254230D01*
X0036250Y0229370D02*
X0036250Y0226010D01*
X0040380Y0221870D01*
X0050620Y0221870D01*
X0053750Y0218750D01*
X0053750Y0216010D01*
X0053750Y0216630D01*
X0059610Y0222500D01*
X0059610Y0222880D01*
X0056250Y0226250D01*
X0056250Y0249130D01*
X0059610Y0252500D01*
X0067880Y0252500D02*
X0067880Y0254230D01*
X0059610Y0262500D01*
X0067880Y0262500D02*
X0067880Y0264230D01*
X0059610Y0272500D01*
X0067880Y0272500D02*
X0067880Y0269610D01*
X0068120Y0269370D01*
X0067880Y0272500D02*
X0067880Y0275380D01*
X0068120Y0275620D01*
X0068120Y0245620D02*
X0067880Y0245380D01*
X0067880Y0242500D01*
X0067880Y0239610D01*
X0068120Y0239370D01*
X0067880Y0234230D02*
X0059610Y0242500D01*
X0059610Y0232500D02*
X0067880Y0224230D01*
X0067880Y0222500D01*
X0068120Y0215620D02*
X0067880Y0215380D01*
X0067880Y0212500D01*
X0067880Y0209610D01*
X0068120Y0209370D01*
X0067880Y0202500D02*
X0059610Y0210760D01*
X0059610Y0212500D01*
X0054370Y0207740D02*
X0059610Y0202500D01*
X0054370Y0207740D02*
X0053750Y0207740D01*
X0048750Y0214370D02*
X0045000Y0214370D01*
X0048120Y0215000D02*
X0048120Y0217740D01*
X0048120Y0215000D02*
X0048750Y0214370D01*
X0048120Y0226010D02*
X0047640Y0226490D01*
X0042500Y0226490D01*
X0042500Y0231250D02*
X0042500Y0234760D01*
X0036250Y0221250D02*
X0036250Y0217740D01*
X0067880Y0232500D02*
X0067880Y0234230D01*
D14*
X0042500Y0231250D03*
X0036250Y0229370D03*
X0036250Y0221250D03*
X0030620Y0212500D03*
X0025620Y0205000D03*
X0020000Y0212500D03*
X0020000Y0242500D03*
X0082500Y0195000D02*
G75*
%LPD*%
D17*
X0082500Y0195000D02*
X0082500Y0280000D01*
X0147500Y0280000D01*
X0147500Y0195000D01*
X0082500Y0195000D01*
D19*
X0101250Y0199610D03*
X0101250Y0207880D03*
X0110620Y0207880D03*
X0110860Y0213750D03*
X0110860Y0221870D03*
X0110860Y0230000D03*
X0110860Y0237500D03*
X0110860Y0245620D03*
X0110860Y0253750D03*
X0110860Y0261250D03*
X0110620Y0267110D03*
X0110620Y0275380D03*
X0119370Y0275380D03*
X0119370Y0267110D03*
X0119130Y0261250D03*
X0119130Y0253750D03*
X0119130Y0245620D03*
X0119130Y0237500D03*
X0119130Y0230000D03*
X0119130Y0221870D03*
X0119130Y0213750D03*
X0119370Y0207880D03*
X0119370Y0199610D03*
X0110620Y0199610D03*
X0128750Y0199610D03*
X0128750Y0207880D03*
X0128750Y0267110D03*
X0128750Y0275380D03*
X0101250Y0275380D03*
X0101250Y0267110D03*
D10*
X0104370Y0275620D03*
X0098120Y0275620D03*
X0119370Y0248750D03*
X0119370Y0242500D03*
X0119370Y0225000D03*
X0119370Y0218750D03*
X0113750Y0208120D03*
X0107500Y0208120D03*
X0125620Y0199370D03*
X0131870Y0199370D03*
X0131870Y0275620D03*
X0125620Y0275620D03*
D16*
X0128510Y0275620D01*
X0128750Y0275380D01*
X0128990Y0275620D01*
X0131870Y0275620D01*
X0128750Y0267110D02*
X0120480Y0275380D01*
X0119370Y0275380D01*
X0111100Y0275380D02*
X0119370Y0267110D01*
X0119130Y0261250D02*
X0115620Y0261250D01*
X0110860Y0261250D02*
X0118360Y0253750D01*
X0119130Y0253750D01*
X0119370Y0248750D02*
X0119370Y0245860D01*
X0119130Y0245620D01*
X0119370Y0245380D01*
X0119370Y0242500D01*
X0119130Y0237500D02*
X0118990Y0237500D01*
X0110860Y0245620D01*
X0110860Y0237500D02*
X0118360Y0230000D01*
X0119130Y0230000D01*
X0119370Y0225000D02*
X0119370Y0222110D01*
X0119130Y0221870D01*
X0119370Y0221630D01*
X0119370Y0218750D01*
X0119130Y0213750D02*
X0118990Y0213750D01*
X0110860Y0221870D01*
X0110860Y0213750D02*
X0108750Y0213750D01*
X0102880Y0207880D01*
X0101250Y0207880D01*
X0101250Y0203120D02*
X0101250Y0199610D01*
X0107500Y0208120D02*
X0110380Y0208120D01*
X0110620Y0207880D01*
X0110860Y0208120D01*
X0113750Y0208120D01*
X0119370Y0207880D02*
X0111100Y0199610D01*
X0110620Y0199610D01*
X0119370Y0199610D02*
X0120480Y0199610D01*
X0128750Y0207880D01*
X0128750Y0199610D02*
X0128990Y0199370D01*
X0131870Y0199370D01*
X0128750Y0199610D02*
X0128510Y0199370D01*
X0125620Y0199370D01*
X0114370Y0230000D02*
X0110860Y0230000D01*
X0110860Y0253750D02*
X0114370Y0253750D01*
X0110620Y0267110D02*
X0110620Y0270620D01*
X0110620Y0275380D02*
X0111100Y0275380D01*
X0104370Y0275620D02*
X0101490Y0275620D01*
X0101250Y0275380D01*
X0101010Y0275620D01*
X0098120Y0275620D01*
X0101250Y0270620D02*
X0101250Y0267110D01*
D14*
X0101250Y0270620D03*
X0110620Y0270620D03*
X0115620Y0261250D03*
X0114370Y0253750D03*
X0114370Y0230000D03*
X0101250Y0203120D03*
X0155000Y0195000D02*
G75*
%LPD*%
D17*
X0155000Y0195000D02*
X0155000Y0280000D01*
X0220000Y0280000D01*
X0220000Y0195000D01*
X0155000Y0195000D01*
D19*
X0163750Y0199610D03*
X0171870Y0199610D03*
X0180000Y0199610D03*
X0180000Y0207880D03*
X0171870Y0207880D03*
X0169130Y0214370D03*
X0163750Y0207880D03*
X0160860Y0214370D03*
X0160860Y0222500D03*
X0160860Y0230620D03*
X0160860Y0238750D03*
X0160860Y0246870D03*
X0160860Y0255000D03*
X0160860Y0263120D03*
X0160860Y0271250D03*
X0169130Y0271250D03*
X0169130Y0263120D03*
X0169130Y0255000D03*
X0169130Y0246870D03*
X0169130Y0238750D03*
X0169130Y0230620D03*
X0169130Y0222500D03*
X0188120Y0207880D03*
X0196250Y0207880D03*
X0204370Y0207880D03*
X0204370Y0199610D03*
X0196250Y0199610D03*
X0188120Y0199610D03*
X0212500Y0199610D03*
X0212500Y0207880D03*
D10*
X0215620Y0199370D03*
X0209370Y0199370D03*
X0199370Y0208750D03*
X0193120Y0208750D03*
X0175000Y0208120D03*
X0168750Y0208120D03*
X0169370Y0219370D03*
X0169370Y0225620D03*
X0169370Y0243750D03*
X0169370Y0250000D03*
X0169370Y0268120D03*
X0169370Y0274370D03*
D16*
X0169130Y0274370D01*
X0169130Y0271250D01*
X0169130Y0268120D01*
X0169370Y0268120D01*
X0169130Y0263120D02*
X0161010Y0271250D01*
X0160860Y0271250D01*
X0160860Y0263120D02*
X0161010Y0263120D01*
X0169130Y0255000D01*
X0169130Y0250000D02*
X0169130Y0246870D01*
X0169130Y0243750D01*
X0169370Y0243750D01*
X0169130Y0238750D02*
X0161010Y0246870D01*
X0160860Y0246870D01*
X0160860Y0238750D02*
X0161010Y0238750D01*
X0169130Y0230620D01*
X0169130Y0225620D02*
X0169130Y0222500D01*
X0169130Y0219370D01*
X0169370Y0219370D01*
X0169130Y0214370D02*
X0161010Y0222500D01*
X0160860Y0222500D01*
X0160860Y0230620D02*
X0164370Y0230620D01*
X0169130Y0225620D02*
X0169370Y0225620D01*
X0160860Y0214370D02*
X0160860Y0212880D01*
X0163750Y0210000D01*
X0163750Y0207880D01*
X0163750Y0203120D02*
X0163750Y0199610D01*
X0171870Y0199610D02*
X0171870Y0199760D01*
X0180000Y0207880D01*
X0175000Y0208120D02*
X0171870Y0208120D01*
X0171870Y0207880D01*
X0171870Y0208120D02*
X0168750Y0208120D01*
X0180000Y0199760D02*
X0188120Y0207880D01*
X0188120Y0203120D02*
X0188120Y0199610D01*
X0196250Y0199610D02*
X0196250Y0199760D01*
X0204370Y0207880D01*
X0199370Y0208750D02*
X0196250Y0208750D01*
X0196250Y0207880D01*
X0196250Y0208750D02*
X0193120Y0208750D01*
X0204370Y0199760D02*
X0212500Y0207880D01*
X0212500Y0203120D02*
X0212500Y0199610D01*
X0212500Y0199370D01*
X0209370Y0199370D01*
X0212500Y0199370D02*
X0215620Y0199370D01*
X0204370Y0199610D02*
X0204370Y0199760D01*
X0180000Y0199610D02*
X0180000Y0199760D01*
X0169370Y0250000D02*
X0169130Y0250000D01*
X0164370Y0255000D02*
X0160860Y0255000D01*
D14*
X0164370Y0255000D03*
X0164370Y0230620D03*
X0163750Y0203120D03*
X0188120Y0203120D03*
X0212500Y0203120D03*
X0227500Y0195000D02*
G75*
%LPD*%
D17*
X0227500Y0195000D02*
X0227500Y0280000D01*
X0292500Y0280000D01*
X0292500Y0195000D01*
X0227500Y0195000D01*
D19*
X0233360Y0203750D03*
X0241630Y0203750D03*
X0248750Y0207880D03*
X0248750Y0199610D03*
X0258750Y0199610D03*
X0258750Y0207880D03*
X0241010Y0214370D03*
X0232740Y0214370D03*
X0232740Y0225620D03*
X0241010Y0225620D03*
X0241630Y0236870D03*
X0233360Y0236870D03*
X0233360Y0248120D03*
X0241630Y0248120D03*
X0241630Y0259370D03*
X0233360Y0259370D03*
X0233360Y0270620D03*
X0241630Y0270620D03*
X0248750Y0267110D03*
X0248750Y0275380D03*
X0258750Y0275380D03*
X0258750Y0267110D03*
X0278360Y0248750D03*
X0278360Y0240620D03*
X0278360Y0232500D03*
X0278360Y0224370D03*
X0286630Y0224370D03*
X0286630Y0232500D03*
X0286630Y0240620D03*
X0286630Y0248750D03*
D19*
G36*
X0276360Y0253120D02*
X0274370Y0257390D01*
X0278640Y0259380D01*
X0280630Y0255110D01*
X0276360Y0253120D01*
G37*
G36*
X0273950Y0259370D02*
X0270620Y0262700D01*
X0273950Y0266030D01*
X0277280Y0262700D01*
X0273950Y0259370D01*
G37*
G36*
X0269340Y0263740D02*
X0264790Y0264970D01*
X0266020Y0269520D01*
X0270570Y0268290D01*
X0269340Y0263740D01*
G37*
G36*
X0271480Y0271720D02*
X0266930Y0272950D01*
X0268160Y0277500D01*
X0272710Y0276270D01*
X0271480Y0271720D01*
G37*
G36*
X0279790Y0265210D02*
X0276460Y0268540D01*
X0279790Y0271870D01*
X0283120Y0268540D01*
X0279790Y0265210D01*
G37*
G36*
X0283850Y0256610D02*
X0281860Y0260880D01*
X0286130Y0262870D01*
X0288120Y0258600D01*
X0283850Y0256610D01*
G37*
G36*
X0274210Y0216600D02*
X0276200Y0220870D01*
X0280470Y0218880D01*
X0278480Y0214610D01*
X0274210Y0216600D01*
G37*
G36*
X0269370Y0211670D02*
X0272700Y0215000D01*
X0276030Y0211670D01*
X0272700Y0208340D01*
X0269370Y0211670D01*
G37*
G36*
X0264300Y0209180D02*
X0268570Y0211170D01*
X0270560Y0206900D01*
X0266290Y0204910D01*
X0264300Y0209180D01*
G37*
G36*
X0267790Y0201690D02*
X0272060Y0203680D01*
X0274050Y0199410D01*
X0269780Y0197420D01*
X0267790Y0201690D01*
G37*
G36*
X0275210Y0205820D02*
X0278540Y0209150D01*
X0281870Y0205820D01*
X0278540Y0202490D01*
X0275210Y0205820D01*
G37*
G36*
X0281710Y0213110D02*
X0283700Y0217380D01*
X0287970Y0215390D01*
X0285980Y0211120D01*
X0281710Y0213110D01*
G37*
D10*
X0281250Y0207500D03*
X0276870Y0202500D03*
X0251870Y0198750D03*
X0245620Y0198750D03*
X0232500Y0200000D03*
X0232500Y0207500D03*
X0241870Y0222500D03*
X0241870Y0228750D03*
X0241870Y0256250D03*
X0241870Y0262500D03*
X0255620Y0276250D03*
X0261870Y0276250D03*
X0285000Y0263120D03*
X0288120Y0257500D03*
X0286870Y0235620D03*
X0286870Y0229370D03*
D16*
X0286870Y0232260D01*
X0286630Y0232500D01*
X0286870Y0232740D01*
X0286870Y0235620D01*
X0286630Y0240620D02*
X0278510Y0232500D01*
X0278360Y0232500D01*
X0278360Y0240620D02*
X0278510Y0240620D01*
X0286630Y0248750D01*
X0281870Y0248750D02*
X0278360Y0248750D01*
X0277500Y0256250D02*
X0277500Y0256250D01*
X0277500Y0260000D01*
X0279790Y0262290D01*
X0279790Y0268540D01*
X0285000Y0263120D02*
X0285000Y0259750D01*
X0284990Y0259740D01*
X0287240Y0257500D01*
X0288120Y0257500D01*
X0273950Y0262700D02*
X0272500Y0264150D01*
X0272500Y0270000D01*
X0269820Y0272680D01*
X0269820Y0274610D01*
X0266180Y0268120D02*
X0264370Y0268120D01*
X0266180Y0268120D02*
X0267680Y0266630D01*
X0258750Y0267110D02*
X0250480Y0275380D01*
X0248750Y0275380D01*
X0245240Y0270620D02*
X0248750Y0267110D01*
X0245240Y0270620D02*
X0241630Y0270620D01*
X0236870Y0270620D02*
X0233360Y0270620D01*
X0241870Y0262500D02*
X0241870Y0259610D01*
X0241630Y0259370D01*
X0241870Y0259130D01*
X0241870Y0256250D01*
X0241630Y0248120D02*
X0233360Y0256390D01*
X0233360Y0259370D01*
X0233360Y0248120D02*
X0233360Y0245140D01*
X0241630Y0236870D01*
X0236870Y0236870D02*
X0233360Y0236870D01*
X0241870Y0228750D02*
X0241870Y0226490D01*
X0241010Y0225620D01*
X0241870Y0224760D01*
X0241870Y0222500D01*
X0241010Y0214370D02*
X0232740Y0222640D01*
X0232740Y0225620D01*
X0232740Y0214370D02*
X0232740Y0212640D01*
X0241630Y0203750D01*
X0245620Y0198750D02*
X0247880Y0198750D01*
X0248750Y0199610D01*
X0249610Y0198750D01*
X0251870Y0198750D01*
X0258750Y0199610D02*
X0250480Y0207880D01*
X0248750Y0207880D01*
X0258750Y0207880D02*
X0262110Y0207880D01*
X0263750Y0206250D01*
X0263750Y0202500D01*
X0266250Y0200000D01*
X0270370Y0200000D01*
X0270920Y0200550D01*
X0268750Y0205000D02*
X0267430Y0206320D01*
X0267430Y0208040D01*
X0272700Y0211670D02*
X0282260Y0211670D01*
X0284840Y0214250D01*
X0280000Y0217740D02*
X0286630Y0224370D01*
X0281870Y0224370D02*
X0278360Y0224370D01*
X0277340Y0217740D02*
X0280000Y0217740D01*
X0280220Y0207500D02*
X0278540Y0205820D01*
X0276870Y0204150D01*
X0276870Y0202500D01*
X0280220Y0207500D02*
X0281250Y0207500D01*
X0233360Y0207500D02*
X0233360Y0203750D01*
X0233360Y0200000D01*
X0232500Y0200000D01*
X0232500Y0207500D02*
X0233360Y0207500D01*
X0258750Y0275380D02*
X0257880Y0276250D01*
X0255620Y0276250D01*
X0258750Y0275380D02*
X0259610Y0276250D01*
X0261870Y0276250D01*
D14*
X0264370Y0268120D03*
X0281870Y0248750D03*
X0281870Y0224370D03*
X0268750Y0205000D03*
X0236870Y0236870D03*
X0236870Y0270620D03*
X0010000Y0287500D02*
G75*
%LPD*%
D17*
X0010000Y0287500D02*
X0010000Y0372500D01*
X0075000Y0372500D01*
X0075000Y0287500D01*
X0010000Y0287500D01*
D19*
X0015860Y0294370D03*
X0024130Y0294370D03*
X0024130Y0304370D03*
X0015860Y0304370D03*
X0015860Y0314370D03*
X0024130Y0314370D03*
X0024130Y0324370D03*
X0015860Y0324370D03*
X0015860Y0334370D03*
X0024130Y0334370D03*
X0024130Y0344370D03*
X0015860Y0344370D03*
X0015860Y0354370D03*
X0024130Y0354370D03*
X0030000Y0352740D03*
X0036250Y0353510D03*
X0030000Y0361010D03*
X0024130Y0364370D03*
X0015860Y0364370D03*
X0036250Y0345240D03*
X0042500Y0346010D03*
X0048750Y0345240D03*
X0048750Y0353510D03*
X0055000Y0353360D03*
X0060860Y0354370D03*
X0055000Y0361630D03*
X0060860Y0364370D03*
X0069130Y0364370D03*
X0069130Y0354370D03*
X0069130Y0344370D03*
X0060860Y0344370D03*
X0060860Y0334370D03*
X0069130Y0334370D03*
X0069130Y0324370D03*
X0060860Y0324370D03*
X0060860Y0314370D03*
X0069130Y0314370D03*
X0069130Y0304370D03*
X0060860Y0304370D03*
X0060860Y0294370D03*
X0069130Y0294370D03*
X0042500Y0337740D03*
D10*
X0023750Y0341250D03*
X0023750Y0347500D03*
X0029370Y0364370D03*
X0033120Y0364370D03*
X0046250Y0356870D03*
X0050000Y0356870D03*
X0068750Y0357500D03*
X0068750Y0351250D03*
X0068750Y0327500D03*
X0068750Y0321250D03*
X0068750Y0297500D03*
X0068750Y0291250D03*
X0023750Y0311250D03*
X0023750Y0317500D03*
X0016250Y0297500D03*
X0016250Y0291250D03*
D16*
X0016250Y0293990D01*
X0015860Y0294370D01*
X0016250Y0294760D01*
X0016250Y0297500D01*
X0015860Y0302640D02*
X0024130Y0294370D01*
X0015860Y0302640D02*
X0015860Y0304370D01*
X0015860Y0312640D02*
X0024130Y0304370D01*
X0023750Y0311250D02*
X0023750Y0313990D01*
X0024130Y0314370D01*
X0023750Y0314760D01*
X0023750Y0317500D01*
X0024130Y0324370D02*
X0015860Y0332640D01*
X0015860Y0334370D01*
X0015860Y0342640D02*
X0024130Y0334370D01*
X0023750Y0341250D02*
X0023750Y0343990D01*
X0024130Y0344370D01*
X0023750Y0344760D01*
X0023750Y0347500D01*
X0030000Y0352740D02*
X0030000Y0355000D01*
X0024130Y0360860D01*
X0024130Y0364370D01*
X0029370Y0364370D02*
X0029370Y0361630D01*
X0030000Y0361010D01*
X0033120Y0364130D01*
X0033120Y0364370D01*
X0024130Y0354370D02*
X0015860Y0362640D01*
X0015860Y0364370D01*
X0015860Y0354370D02*
X0019370Y0354370D01*
X0015860Y0344370D02*
X0015860Y0342640D01*
X0015860Y0324370D02*
X0019370Y0324370D01*
X0015860Y0314370D02*
X0015860Y0312640D01*
X0042500Y0337740D02*
X0042500Y0341250D01*
X0042500Y0346010D02*
X0047980Y0346010D01*
X0048750Y0345240D01*
X0048750Y0353510D02*
X0050000Y0354760D01*
X0050000Y0356870D01*
X0048750Y0353510D02*
X0046250Y0356010D01*
X0046250Y0356870D01*
X0055000Y0356870D02*
X0055000Y0353360D01*
X0060860Y0354370D02*
X0060860Y0356100D01*
X0069130Y0364370D01*
X0068750Y0357500D02*
X0068750Y0354760D01*
X0069130Y0354370D01*
X0068750Y0353990D01*
X0068750Y0351250D01*
X0069130Y0344370D02*
X0060860Y0336100D01*
X0060860Y0334370D01*
X0060860Y0326100D02*
X0069130Y0334370D01*
X0068750Y0327500D02*
X0068750Y0324760D01*
X0069130Y0324370D01*
X0068750Y0323990D01*
X0068750Y0321250D01*
X0069130Y0314370D02*
X0060860Y0306100D01*
X0060860Y0304370D01*
X0060860Y0296100D02*
X0069130Y0304370D01*
X0068750Y0297500D02*
X0068750Y0294760D01*
X0069130Y0294370D01*
X0068750Y0293990D01*
X0068750Y0291250D01*
X0060860Y0294370D02*
X0060860Y0296100D01*
X0060860Y0314370D02*
X0064370Y0314370D01*
X0060860Y0324370D02*
X0060860Y0326100D01*
X0060860Y0344370D02*
X0064370Y0344370D01*
X0055000Y0361630D02*
X0057740Y0364370D01*
X0060860Y0364370D01*
X0036250Y0353510D02*
X0036250Y0350000D01*
X0036250Y0345240D02*
X0036250Y0341870D01*
D14*
X0036250Y0341870D03*
X0042500Y0341250D03*
X0036250Y0350000D03*
X0019370Y0354370D03*
X0019370Y0324370D03*
X0055000Y0356870D03*
X0064370Y0344370D03*
X0064370Y0314370D03*
X0082500Y0287500D02*
G75*
%LPD*%
D17*
X0082500Y0287500D02*
X0082500Y0372500D01*
X0147500Y0372500D01*
X0147500Y0287500D01*
X0082500Y0287500D01*
D19*
X0108120Y0292110D03*
X0115000Y0292110D03*
X0121870Y0292110D03*
X0121870Y0300380D03*
X0115000Y0300380D03*
X0108120Y0300380D03*
X0096630Y0315000D03*
X0096630Y0322500D03*
X0096630Y0330000D03*
X0096630Y0337500D03*
X0096630Y0345000D03*
X0088360Y0345000D03*
X0088360Y0337500D03*
X0088360Y0330000D03*
X0088360Y0322500D03*
X0088360Y0315000D03*
X0108120Y0359610D03*
X0115000Y0359610D03*
X0121870Y0359610D03*
X0121870Y0367880D03*
X0115000Y0367880D03*
X0108120Y0367880D03*
X0133360Y0345000D03*
X0133360Y0337500D03*
X0133360Y0330000D03*
X0133360Y0322500D03*
X0133360Y0315000D03*
X0141630Y0315000D03*
X0141630Y0322500D03*
X0141630Y0330000D03*
X0141630Y0337500D03*
X0141630Y0345000D03*
D19*
G36*
X0131810Y0348460D02*
X0129450Y0352540D01*
X0133530Y0354900D01*
X0135890Y0350820D01*
X0131810Y0348460D01*
G37*
G36*
X0129410Y0353820D02*
X0125330Y0356180D01*
X0127690Y0360260D01*
X0131770Y0357900D01*
X0129410Y0353820D01*
G37*
G36*
X0138970Y0352590D02*
X0136610Y0356670D01*
X0140690Y0359030D01*
X0143050Y0354950D01*
X0138970Y0352590D01*
G37*
G36*
X0133550Y0360980D02*
X0129470Y0363340D01*
X0131830Y0367420D01*
X0135910Y0365060D01*
X0133550Y0360980D01*
G37*
G36*
X0104660Y0356180D02*
X0100580Y0353820D01*
X0098220Y0357900D01*
X0102300Y0360260D01*
X0104660Y0356180D01*
G37*
G36*
X0100550Y0352540D02*
X0098190Y0348460D01*
X0094110Y0350820D01*
X0096470Y0354900D01*
X0100550Y0352540D01*
G37*
G36*
X0093390Y0356670D02*
X0091030Y0352590D01*
X0086950Y0354950D01*
X0089310Y0359030D01*
X0093390Y0356670D01*
G37*
G36*
X0100520Y0363340D02*
X0096440Y0360980D01*
X0094080Y0365060D01*
X0098160Y0367420D01*
X0100520Y0363340D01*
G37*
G36*
X0098190Y0310910D02*
X0100550Y0306830D01*
X0096470Y0304470D01*
X0094110Y0308550D01*
X0098190Y0310910D01*
G37*
G36*
X0100580Y0305550D02*
X0104660Y0303190D01*
X0102300Y0299110D01*
X0098220Y0301470D01*
X0100580Y0305550D01*
G37*
G36*
X0096440Y0298390D02*
X0100520Y0296030D01*
X0098160Y0291950D01*
X0094080Y0294310D01*
X0096440Y0298390D01*
G37*
G36*
X0091030Y0306770D02*
X0093390Y0302690D01*
X0089310Y0300330D01*
X0086950Y0304410D01*
X0091030Y0306770D01*
G37*
G36*
X0125330Y0303190D02*
X0129410Y0305550D01*
X0131770Y0301470D01*
X0127690Y0299110D01*
X0125330Y0303190D01*
G37*
G36*
X0129450Y0306830D02*
X0131810Y0310910D01*
X0135890Y0308550D01*
X0133530Y0304470D01*
X0129450Y0306830D01*
G37*
G36*
X0136610Y0302690D02*
X0138970Y0306770D01*
X0143050Y0304410D01*
X0140690Y0300330D01*
X0136610Y0302690D01*
G37*
G36*
X0129470Y0296030D02*
X0133550Y0298390D01*
X0135910Y0294310D01*
X0131830Y0291950D01*
X0129470Y0296030D01*
G37*
D10*
X0130000Y0293120D03*
X0135620Y0296250D03*
X0144370Y0320620D03*
X0144370Y0324370D03*
X0144370Y0342500D03*
X0144370Y0348120D03*
X0128750Y0368120D03*
X0125000Y0368120D03*
X0100000Y0366250D03*
X0094370Y0362500D03*
X0085620Y0340000D03*
X0085620Y0335000D03*
X0085620Y0316870D03*
X0085620Y0311870D03*
X0103120Y0305620D03*
X0106250Y0305620D03*
X0105000Y0291250D03*
X0101250Y0291250D03*
D16*
X0105000Y0291250D01*
X0105860Y0292110D01*
X0108120Y0292110D01*
X0108120Y0298990D02*
X0115000Y0292110D01*
X0121870Y0292110D02*
X0115000Y0298990D01*
X0115000Y0300380D01*
X0108120Y0300380D02*
X0108120Y0298990D01*
X0106250Y0305620D02*
X0103120Y0305620D01*
X0103120Y0304010D01*
X0101440Y0302330D01*
X0097330Y0303580D02*
X0096250Y0302500D01*
X0096250Y0296220D01*
X0097300Y0295170D01*
X0097330Y0303580D02*
X0097330Y0307690D01*
X0090170Y0308530D02*
X0096630Y0315000D01*
X0090170Y0308530D02*
X0090170Y0303550D01*
X0085620Y0311870D02*
X0085620Y0312260D01*
X0088360Y0315000D01*
X0086490Y0316870D01*
X0085620Y0316870D01*
X0088360Y0322500D02*
X0089130Y0322500D01*
X0096630Y0330000D01*
X0089130Y0330000D02*
X0096630Y0337500D01*
X0096630Y0345000D02*
X0093120Y0345000D01*
X0088360Y0345000D02*
X0095050Y0351680D01*
X0097330Y0351680D01*
X0101440Y0357040D02*
X0091390Y0357040D01*
X0090170Y0355810D01*
X0094370Y0362500D02*
X0095600Y0362500D01*
X0097300Y0364200D01*
X0099350Y0366250D01*
X0100000Y0366250D01*
X0108120Y0366490D02*
X0109760Y0366490D01*
X0115000Y0361250D01*
X0115000Y0359610D01*
X0121870Y0359610D02*
X0115000Y0366490D01*
X0115000Y0367880D01*
X0108120Y0367880D02*
X0108120Y0366490D01*
X0108120Y0363120D02*
X0108120Y0359610D01*
X0121870Y0367880D02*
X0122110Y0368120D01*
X0125000Y0368120D01*
X0128750Y0368120D01*
X0132690Y0364200D02*
X0132690Y0362300D01*
X0135000Y0360000D01*
X0135000Y0354010D01*
X0132670Y0351680D01*
X0128550Y0357040D02*
X0128550Y0357930D01*
X0130620Y0360000D01*
X0139830Y0355810D02*
X0140000Y0355640D01*
X0140000Y0351250D01*
X0133750Y0345000D01*
X0133360Y0345000D01*
X0133360Y0337500D02*
X0136870Y0337500D01*
X0141630Y0337500D02*
X0134130Y0330000D01*
X0133360Y0330000D01*
X0140860Y0330000D02*
X0133360Y0322500D01*
X0133360Y0315000D02*
X0136870Y0315000D01*
X0141630Y0315000D02*
X0134320Y0307690D01*
X0132670Y0307690D01*
X0128550Y0302330D02*
X0138600Y0302330D01*
X0139830Y0303550D01*
X0135620Y0296250D02*
X0133770Y0296250D01*
X0132690Y0295170D01*
X0130640Y0293120D01*
X0130000Y0293120D01*
X0121870Y0296870D02*
X0121870Y0300380D01*
X0143510Y0320620D02*
X0141630Y0322500D01*
X0143510Y0324370D01*
X0144370Y0324370D01*
X0144370Y0320620D02*
X0143510Y0320620D01*
X0141630Y0330000D02*
X0140860Y0330000D01*
X0144130Y0342500D02*
X0141630Y0345000D01*
X0144370Y0347740D01*
X0144370Y0348120D01*
X0144370Y0342500D02*
X0144130Y0342500D01*
X0096630Y0322500D02*
X0093120Y0322500D01*
X0089130Y0330000D02*
X0088360Y0330000D01*
X0085860Y0335000D02*
X0085620Y0335000D01*
X0085860Y0335000D02*
X0088360Y0337500D01*
X0085860Y0340000D01*
X0085620Y0340000D01*
D14*
X0093120Y0345000D03*
X0108120Y0363120D03*
X0130620Y0360000D03*
X0136870Y0337500D03*
X0136870Y0315000D03*
X0121870Y0296870D03*
X0093120Y0322500D03*
X0155000Y0287500D02*
G75*
%LPD*%
D17*
X0155000Y0287500D02*
X0155000Y0372500D01*
X0220000Y0372500D01*
X0220000Y0287500D01*
X0155000Y0287500D01*
D19*
X0179370Y0292110D03*
X0187500Y0292110D03*
X0187500Y0300380D03*
X0179370Y0300380D03*
X0169130Y0317500D03*
X0169130Y0325620D03*
X0169130Y0333750D03*
X0169130Y0341870D03*
X0169130Y0350000D03*
X0169130Y0358120D03*
X0169130Y0366250D03*
X0160860Y0366250D03*
X0160860Y0358120D03*
X0160860Y0350000D03*
X0160860Y0341870D03*
X0160860Y0333750D03*
X0160860Y0325620D03*
X0160860Y0317500D03*
X0195620Y0300380D03*
X0195620Y0292110D03*
X0205860Y0317500D03*
X0205860Y0325620D03*
X0205860Y0333750D03*
X0205860Y0341870D03*
X0205860Y0350000D03*
X0205860Y0358120D03*
X0205860Y0366250D03*
X0214130Y0366250D03*
X0214130Y0358120D03*
X0214130Y0350000D03*
X0214130Y0341870D03*
X0214130Y0333750D03*
X0214130Y0325620D03*
X0214130Y0317500D03*
D19*
G36*
X0209180Y0310420D02*
X0206820Y0306340D01*
X0202740Y0308700D01*
X0205100Y0312780D01*
X0209180Y0310420D01*
G37*
G36*
X0216340Y0306290D02*
X0213980Y0302210D01*
X0209900Y0304570D01*
X0212260Y0308650D01*
X0216340Y0306290D01*
G37*
G36*
X0209030Y0295560D02*
X0204950Y0293200D01*
X0202590Y0297280D01*
X0206670Y0299640D01*
X0209030Y0295560D01*
G37*
G36*
X0204900Y0302720D02*
X0200820Y0300360D01*
X0198460Y0304440D01*
X0202540Y0306800D01*
X0204900Y0302720D01*
G37*
G36*
X0174170Y0300360D02*
X0170090Y0302720D01*
X0172450Y0306800D01*
X0176530Y0304440D01*
X0174170Y0300360D01*
G37*
G36*
X0170040Y0293200D02*
X0165960Y0295560D01*
X0168320Y0299640D01*
X0172400Y0297280D01*
X0170040Y0293200D01*
G37*
G36*
X0161180Y0302210D02*
X0158820Y0306290D01*
X0162900Y0308650D01*
X0165260Y0304570D01*
X0161180Y0302210D01*
G37*
G36*
X0168340Y0306340D02*
X0165980Y0310420D01*
X0170060Y0312780D01*
X0172420Y0308700D01*
X0168340Y0306340D01*
G37*
D10*
X0167500Y0314370D03*
X0169370Y0320620D03*
X0169370Y0338750D03*
X0169370Y0345000D03*
X0169370Y0363120D03*
X0169370Y0369370D03*
X0205620Y0353120D03*
X0205620Y0346870D03*
X0205620Y0328750D03*
X0205620Y0322500D03*
X0205620Y0303750D03*
X0200620Y0299370D03*
X0182500Y0300620D03*
X0176250Y0297500D03*
X0171870Y0294370D03*
X0166250Y0297500D03*
D16*
X0167330Y0296420D01*
X0169180Y0296420D01*
X0169830Y0296420D01*
X0171870Y0294370D01*
X0176250Y0297500D02*
X0176490Y0297500D01*
X0179370Y0300380D01*
X0182260Y0300380D01*
X0182500Y0300620D01*
X0187500Y0300380D02*
X0179370Y0292260D01*
X0179370Y0292110D01*
X0187500Y0292110D02*
X0195620Y0300240D01*
X0195620Y0300380D01*
X0200620Y0299370D02*
X0200620Y0302520D01*
X0201680Y0303580D01*
X0201850Y0303750D01*
X0205620Y0303750D01*
X0208750Y0301250D02*
X0208750Y0306780D01*
X0205960Y0309560D01*
X0213120Y0305430D02*
X0213750Y0306060D01*
X0213750Y0309370D01*
X0205860Y0317260D01*
X0205860Y0317500D01*
X0210620Y0317500D02*
X0214130Y0317500D01*
X0214130Y0318360D01*
X0214130Y0325620D02*
X0206010Y0333750D01*
X0205860Y0333750D01*
X0205620Y0328750D02*
X0205620Y0325860D01*
X0205860Y0325620D01*
X0205620Y0325380D01*
X0205620Y0322500D01*
X0214130Y0333750D02*
X0206010Y0341870D01*
X0205860Y0341870D01*
X0210620Y0341870D02*
X0214130Y0341870D01*
X0214130Y0350000D02*
X0206010Y0358120D01*
X0205860Y0358120D01*
X0205620Y0353120D02*
X0205620Y0350240D01*
X0205860Y0350000D01*
X0205620Y0349760D01*
X0205620Y0346870D01*
X0214130Y0358120D02*
X0206010Y0366250D01*
X0205860Y0366250D01*
X0210620Y0366250D02*
X0214130Y0366250D01*
X0169370Y0366490D02*
X0169130Y0366250D01*
X0169370Y0366010D01*
X0169370Y0363120D01*
X0169370Y0366490D02*
X0169370Y0369370D01*
X0160860Y0366250D02*
X0168990Y0358120D01*
X0169130Y0358120D01*
X0169130Y0350000D02*
X0168990Y0350000D01*
X0160860Y0358120D01*
X0160860Y0350000D02*
X0164370Y0350000D01*
X0169370Y0345000D02*
X0169370Y0342110D01*
X0169130Y0341870D01*
X0169370Y0341630D01*
X0169370Y0338750D01*
X0169130Y0333750D02*
X0168990Y0333750D01*
X0160860Y0341870D01*
X0160860Y0333750D02*
X0168990Y0325620D01*
X0169130Y0325620D01*
X0169370Y0320620D02*
X0169370Y0317740D01*
X0169130Y0317500D01*
X0167500Y0315860D01*
X0167500Y0314370D01*
X0166680Y0309560D02*
X0161250Y0315000D01*
X0161250Y0317110D01*
X0160860Y0317500D01*
X0160860Y0325620D02*
X0164370Y0325620D01*
X0166680Y0309560D02*
X0169200Y0309560D01*
X0173310Y0303580D02*
X0163890Y0303580D01*
X0162040Y0305430D01*
X0195620Y0295620D02*
X0195620Y0292110D01*
X0205810Y0296420D02*
X0205810Y0298310D01*
X0208750Y0301250D01*
D14*
X0195620Y0295620D03*
X0210620Y0317500D03*
X0210620Y0341870D03*
X0210620Y0366250D03*
X0164370Y0350000D03*
X0164370Y0325620D03*
X0227500Y0287500D02*
G75*
%LPD*%
D17*
X0227500Y0287500D02*
X0227500Y0372500D01*
X0292500Y0372500D01*
X0292500Y0287500D01*
X0227500Y0287500D01*
D19*
X0238360Y0301870D03*
X0240380Y0308120D03*
X0246630Y0301870D03*
X0245860Y0295620D03*
X0254130Y0295620D03*
X0260620Y0292110D03*
X0267110Y0295620D03*
X0260620Y0300380D03*
X0273360Y0301870D03*
X0275380Y0295620D03*
X0281630Y0301870D03*
X0278360Y0308750D03*
X0278360Y0315620D03*
X0274250Y0323230D03*
X0275900Y0330000D03*
X0282510Y0323230D03*
X0286630Y0315620D03*
X0286630Y0308750D03*
X0267630Y0330000D03*
X0260620Y0334130D03*
X0253950Y0330070D03*
X0260620Y0325860D03*
X0245680Y0330070D03*
X0245900Y0336610D03*
X0237630Y0336610D03*
X0241010Y0343750D03*
X0241010Y0351870D03*
X0238990Y0358750D03*
X0245860Y0364370D03*
X0247260Y0358750D03*
X0254130Y0364370D03*
X0260620Y0360240D03*
X0267110Y0364370D03*
X0272740Y0358750D03*
X0275380Y0364370D03*
X0281010Y0358750D03*
X0278360Y0351870D03*
X0286630Y0351870D03*
X0260620Y0368510D03*
X0232740Y0351870D03*
X0232740Y0343750D03*
X0232110Y0308120D03*
D10*
X0231250Y0304370D03*
X0231250Y0311870D03*
X0251870Y0298750D03*
X0255620Y0298750D03*
X0254370Y0326870D03*
X0254370Y0333120D03*
X0244370Y0348750D03*
X0244370Y0351870D03*
X0257500Y0369370D03*
X0263750Y0369370D03*
X0286870Y0355000D03*
X0286870Y0348750D03*
X0285620Y0325000D03*
X0285620Y0321250D03*
X0285000Y0303120D03*
X0285000Y0300000D03*
D16*
X0285000Y0303120D01*
X0283750Y0301870D01*
X0281630Y0301870D01*
X0281870Y0308750D02*
X0278360Y0308750D01*
X0278360Y0315620D02*
X0279760Y0315620D01*
X0286630Y0308750D01*
X0286630Y0315620D02*
X0286010Y0316250D01*
X0283750Y0316250D01*
X0280620Y0319370D01*
X0278120Y0319370D01*
X0275510Y0321980D01*
X0275510Y0322600D01*
X0274250Y0323230D01*
X0275900Y0330000D02*
X0272150Y0333750D01*
X0265000Y0333750D01*
X0264370Y0333120D01*
X0264370Y0330620D01*
X0260620Y0326870D01*
X0260620Y0325860D01*
X0254370Y0326870D02*
X0254370Y0329650D01*
X0253950Y0330070D01*
X0254370Y0330500D01*
X0254370Y0333120D01*
X0252500Y0336250D02*
X0257500Y0336250D01*
X0259610Y0334130D01*
X0260620Y0334130D01*
X0267630Y0330000D02*
X0271250Y0330000D01*
X0282510Y0323230D02*
X0283640Y0323230D01*
X0285620Y0321250D01*
X0285620Y0325000D01*
X0286870Y0348750D02*
X0286870Y0351630D01*
X0286630Y0351870D01*
X0286870Y0352110D01*
X0286870Y0355000D01*
X0281010Y0358750D02*
X0278360Y0356100D01*
X0278360Y0351870D01*
X0272740Y0358750D02*
X0272740Y0361730D01*
X0275380Y0364370D01*
X0270620Y0364370D02*
X0267110Y0364370D01*
X0265620Y0362880D01*
X0260620Y0360240D02*
X0256490Y0364370D01*
X0254130Y0364370D01*
X0257500Y0369370D02*
X0260380Y0369370D01*
X0260620Y0368510D01*
X0261490Y0369370D01*
X0263750Y0369370D01*
X0260860Y0369370D02*
X0260620Y0368510D01*
X0247260Y0364370D02*
X0247260Y0358750D01*
X0242500Y0358750D02*
X0238990Y0358750D01*
X0241010Y0351870D02*
X0244370Y0351870D01*
X0244370Y0348750D01*
X0241010Y0343750D02*
X0232880Y0351870D01*
X0232740Y0351870D01*
X0232740Y0343750D02*
X0233750Y0343750D01*
X0237500Y0340000D01*
X0242510Y0340000D01*
X0245900Y0336610D01*
X0241250Y0336250D02*
X0240880Y0336610D01*
X0237630Y0336610D01*
X0245680Y0330070D02*
X0248200Y0330070D01*
X0250000Y0331870D01*
X0250000Y0333750D01*
X0252500Y0336250D01*
X0231250Y0311870D02*
X0231250Y0308990D01*
X0232110Y0308120D01*
X0231250Y0307260D01*
X0231250Y0304370D01*
X0238360Y0306100D02*
X0238360Y0301870D01*
X0238360Y0306100D02*
X0240380Y0306100D01*
X0240380Y0308120D01*
X0246630Y0301870D02*
X0246630Y0296390D01*
X0245860Y0295620D01*
X0251870Y0297880D02*
X0254130Y0295620D01*
X0251870Y0297880D02*
X0251870Y0298750D01*
X0255620Y0298750D01*
X0260620Y0300380D02*
X0262350Y0300380D01*
X0267110Y0295620D01*
X0260620Y0295620D02*
X0260620Y0292110D01*
X0273360Y0297640D02*
X0275380Y0295620D01*
X0273360Y0297640D02*
X0273360Y0301870D01*
X0247260Y0364370D02*
X0245860Y0364370D01*
D14*
X0242500Y0358750D03*
X0241250Y0336250D03*
X0270620Y0364370D03*
X0271250Y0330000D03*
X0281870Y0308750D03*
X0260620Y0295620D03*
X0300000Y0287500D02*
G75*
%LPD*%
D17*
X0300000Y0287500D02*
X0300000Y0372500D01*
X0365000Y0372500D01*
X0365000Y0287500D01*
X0300000Y0287500D01*
D19*
X0311250Y0292110D03*
X0311250Y0300380D03*
X0314130Y0307500D03*
X0314130Y0315000D03*
X0314130Y0322500D03*
X0314130Y0330000D03*
X0316490Y0330000D03*
X0314130Y0337500D03*
X0314130Y0345000D03*
X0314130Y0352500D03*
X0310000Y0359610D03*
X0305860Y0352500D03*
X0305860Y0345000D03*
X0305860Y0337500D03*
X0305860Y0330000D03*
X0305860Y0322500D03*
X0305860Y0315000D03*
X0305860Y0307500D03*
X0320000Y0300380D03*
X0320000Y0292110D03*
X0328750Y0292110D03*
X0328750Y0300380D03*
X0337500Y0300380D03*
X0337500Y0292110D03*
X0346250Y0292110D03*
X0346250Y0300380D03*
X0355000Y0300380D03*
X0355000Y0292110D03*
X0334760Y0330000D03*
X0326490Y0330000D03*
X0324760Y0330000D03*
X0327500Y0359610D03*
X0327500Y0367880D03*
X0318750Y0367880D03*
X0318750Y0359610D03*
X0310000Y0367880D03*
X0336250Y0367880D03*
X0336250Y0359610D03*
X0345000Y0359610D03*
X0345000Y0367880D03*
X0353750Y0367880D03*
X0353750Y0359610D03*
D10*
X0356870Y0368120D03*
X0350620Y0368120D03*
X0330620Y0368120D03*
X0325000Y0368120D03*
X0317500Y0354370D03*
X0317500Y0350620D03*
X0335620Y0333120D03*
X0335620Y0326870D03*
X0317500Y0324370D03*
X0317500Y0320620D03*
X0314370Y0300620D03*
X0308120Y0300620D03*
X0334370Y0300000D03*
X0340620Y0300000D03*
X0351870Y0291870D03*
X0358120Y0291870D03*
D16*
X0355240Y0291870D01*
X0355000Y0292110D01*
X0354760Y0291870D01*
X0351870Y0291870D01*
X0346730Y0292110D02*
X0355000Y0300380D01*
X0346250Y0300380D02*
X0337980Y0292110D01*
X0337500Y0292110D01*
X0337880Y0300000D02*
X0337500Y0300380D01*
X0337110Y0300000D01*
X0334370Y0300000D01*
X0337880Y0300000D02*
X0340620Y0300000D01*
X0346250Y0292110D02*
X0346730Y0292110D01*
X0328750Y0292110D02*
X0328750Y0295000D01*
X0328750Y0300380D02*
X0320480Y0292110D01*
X0320000Y0292110D01*
X0311730Y0292110D02*
X0320000Y0300380D01*
X0314370Y0300620D02*
X0311490Y0300620D01*
X0311250Y0300380D01*
X0311010Y0300620D01*
X0308120Y0300620D01*
X0308750Y0307500D02*
X0305860Y0307500D01*
X0305860Y0315000D02*
X0306630Y0315000D01*
X0314130Y0307500D01*
X0314130Y0315000D02*
X0306630Y0322500D01*
X0305860Y0322500D01*
X0305860Y0330000D02*
X0305860Y0337500D01*
X0308750Y0337500D01*
X0314130Y0337500D02*
X0306630Y0345000D01*
X0305860Y0345000D01*
X0305860Y0352500D02*
X0306630Y0352500D01*
X0314130Y0345000D01*
X0316010Y0350620D02*
X0314130Y0352500D01*
X0316010Y0350620D02*
X0317500Y0350620D01*
X0317500Y0354370D01*
X0318750Y0359610D02*
X0310480Y0367880D01*
X0310000Y0367880D01*
X0310000Y0362500D02*
X0310000Y0359610D01*
X0318750Y0367880D02*
X0319230Y0367880D01*
X0327500Y0359610D01*
X0327500Y0367880D02*
X0327740Y0368120D01*
X0330620Y0368120D01*
X0327500Y0367880D02*
X0327260Y0368120D01*
X0325000Y0368120D01*
X0336250Y0367880D02*
X0336730Y0367880D01*
X0345000Y0359610D01*
X0345000Y0367880D02*
X0345480Y0367880D01*
X0353750Y0359610D01*
X0353750Y0367880D02*
X0353990Y0368120D01*
X0356870Y0368120D01*
X0353750Y0367880D02*
X0353510Y0368120D01*
X0350620Y0368120D01*
X0336250Y0362500D02*
X0336250Y0359610D01*
X0335620Y0333120D02*
X0335620Y0326870D01*
X0334760Y0330000D02*
X0335620Y0330860D01*
X0335620Y0333120D01*
X0326490Y0330000D02*
X0324760Y0330000D01*
X0317500Y0324370D02*
X0317500Y0320620D01*
X0316010Y0320620D01*
X0314130Y0322500D01*
X0314130Y0330000D02*
X0316490Y0330000D01*
X0311730Y0292110D02*
X0311250Y0292110D01*
D14*
X0308750Y0307500D03*
X0328750Y0295000D03*
X0308750Y0337500D03*
X0310000Y0362500D03*
X0336250Y0362500D03*
M02*
