G75*
G70*
%OFA0B0*%
%FSLAX25Y25*%
%IPPOS*%
%LPD*%
%AMOC8*
5,1,8,0,0,1.08239X$1,22.5*
%
%ADD12C,0.04370*%
%ADD17C,0.00000*%
X0010000Y0010000D02*
G75*
%LPD*%
D17*
X0010000Y0010000D02*
X0010000Y0095000D01*
X0075000Y0095000D01*
X0075000Y0010000D01*
X0010000Y0010000D01*
D12*
X0037500Y0030000D03*
X0037500Y0036250D03*
X0046870Y0018750D03*
X0046870Y0013120D03*
X0037500Y0056250D03*
X0037500Y0062500D03*
X0033120Y0078120D03*
X0029370Y0078120D03*
X0036870Y0089370D03*
X0040000Y0089370D03*
X0051870Y0078120D03*
X0055000Y0078120D03*
X0082500Y0010000D02*
G75*
%LPD*%
D17*
X0082500Y0010000D02*
X0082500Y0095000D01*
X0147500Y0095000D01*
X0147500Y0010000D01*
X0082500Y0010000D01*
D12*
X0101250Y0013750D03*
X0105000Y0013750D03*
X0106250Y0028120D03*
X0103120Y0028120D03*
X0085620Y0034370D03*
X0085620Y0039370D03*
X0085620Y0057500D03*
X0085620Y0062500D03*
X0094370Y0085000D03*
X0100000Y0088750D03*
X0125000Y0090620D03*
X0128750Y0090620D03*
X0144370Y0070620D03*
X0144370Y0065000D03*
X0144370Y0046870D03*
X0144370Y0043120D03*
X0135620Y0018750D03*
X0130000Y0015620D03*
X0155000Y0010000D02*
G75*
%LPD*%
D17*
X0155000Y0010000D02*
X0155000Y0095000D01*
X0220000Y0095000D01*
X0220000Y0010000D01*
X0155000Y0010000D01*
D12*
X0160000Y0013120D03*
X0160000Y0019370D03*
X0169370Y0029370D03*
X0174370Y0033750D03*
X0177500Y0032500D03*
X0169370Y0035620D03*
X0172500Y0055000D03*
X0172500Y0058750D03*
X0171250Y0076870D03*
X0175000Y0076870D03*
X0180000Y0091870D03*
X0185000Y0091870D03*
X0205620Y0087500D03*
X0210620Y0083750D03*
X0215620Y0061250D03*
X0215000Y0055620D03*
X0198750Y0035620D03*
X0193750Y0034370D03*
X0010000Y0102500D02*
G75*
%LPD*%
D17*
X0010000Y0102500D02*
X0010000Y0187500D01*
X0075000Y0187500D01*
X0075000Y0102500D01*
X0010000Y0102500D01*
D12*
X0013750Y0119370D03*
X0013750Y0126870D03*
X0034370Y0113750D03*
X0038120Y0113750D03*
X0036870Y0141870D03*
X0036870Y0148120D03*
X0026870Y0163750D03*
X0026870Y0166870D03*
X0040000Y0184370D03*
X0046250Y0184370D03*
X0069370Y0170000D03*
X0069370Y0163750D03*
X0068120Y0140000D03*
X0068120Y0136250D03*
X0067500Y0118120D03*
X0067500Y0115000D03*
X0082500Y0102500D02*
G75*
%LPD*%
D17*
X0082500Y0102500D02*
X0082500Y0187500D01*
X0147500Y0187500D01*
X0147500Y0102500D01*
X0082500Y0102500D01*
D12*
X0087500Y0105620D03*
X0087500Y0111870D03*
X0096870Y0121870D03*
X0101870Y0126250D03*
X0105000Y0125000D03*
X0096870Y0128120D03*
X0100000Y0147500D03*
X0100000Y0151250D03*
X0098750Y0169370D03*
X0102500Y0169370D03*
X0107500Y0184370D03*
X0112500Y0184370D03*
X0133120Y0180000D03*
X0138120Y0176250D03*
X0143120Y0153750D03*
X0142500Y0148120D03*
X0126250Y0128120D03*
X0121250Y0126870D03*
X0155000Y0102500D02*
G75*
%LPD*%
D17*
X0155000Y0102500D02*
X0155000Y0187500D01*
X0220000Y0187500D01*
X0220000Y0102500D01*
X0155000Y0102500D01*
D12*
X0180000Y0115620D03*
X0186250Y0115620D03*
X0191870Y0126250D03*
X0191870Y0132500D03*
X0191870Y0150000D03*
X0191870Y0156250D03*
X0198120Y0183120D03*
X0204370Y0183120D03*
X0176870Y0183120D03*
X0170620Y0183120D03*
X0198120Y0106870D03*
X0204370Y0106870D03*
X0227500Y0102500D02*
G75*
%LPD*%
D17*
X0227500Y0102500D02*
X0227500Y0187500D01*
X0292500Y0187500D01*
X0292500Y0102500D01*
X0227500Y0102500D01*
D12*
X0233750Y0106250D03*
X0233750Y0112500D03*
X0241250Y0126250D03*
X0241250Y0132500D03*
X0241250Y0156250D03*
X0241250Y0162500D03*
X0247500Y0170000D03*
X0250620Y0166250D03*
X0266250Y0143750D03*
X0269370Y0140000D03*
X0286250Y0142500D03*
X0286250Y0136250D03*
X0286250Y0112500D03*
X0286250Y0106250D03*
X0286250Y0166250D03*
X0286250Y0173750D03*
X0010000Y0195000D02*
G75*
%LPD*%
D17*
X0010000Y0195000D02*
X0010000Y0280000D01*
X0075000Y0280000D01*
X0075000Y0195000D01*
X0010000Y0195000D01*
D12*
X0037500Y0215000D03*
X0037500Y0221250D03*
X0046870Y0203750D03*
X0046870Y0198120D03*
X0037500Y0241250D03*
X0037500Y0247500D03*
X0033120Y0263120D03*
X0029370Y0263120D03*
X0036870Y0274370D03*
X0040000Y0274370D03*
X0051870Y0263120D03*
X0055000Y0263120D03*
X0082500Y0195000D02*
G75*
%LPD*%
D17*
X0082500Y0195000D02*
X0082500Y0280000D01*
X0147500Y0280000D01*
X0147500Y0195000D01*
X0082500Y0195000D01*
D12*
X0101250Y0198750D03*
X0105000Y0198750D03*
X0106250Y0213120D03*
X0103120Y0213120D03*
X0085620Y0219370D03*
X0085620Y0224370D03*
X0085620Y0242500D03*
X0085620Y0247500D03*
X0094370Y0270000D03*
X0100000Y0273750D03*
X0125000Y0275620D03*
X0128750Y0275620D03*
X0144370Y0255620D03*
X0144370Y0250000D03*
X0144370Y0231870D03*
X0144370Y0228120D03*
X0135620Y0203750D03*
X0130000Y0200620D03*
X0155000Y0195000D02*
G75*
%LPD*%
D17*
X0155000Y0195000D02*
X0155000Y0280000D01*
X0220000Y0280000D01*
X0220000Y0195000D01*
X0155000Y0195000D01*
D12*
X0160000Y0198120D03*
X0160000Y0204370D03*
X0169370Y0214370D03*
X0174370Y0218750D03*
X0177500Y0217500D03*
X0169370Y0220620D03*
X0172500Y0240000D03*
X0172500Y0243750D03*
X0171250Y0261870D03*
X0175000Y0261870D03*
X0180000Y0276870D03*
X0185000Y0276870D03*
X0205620Y0272500D03*
X0210620Y0268750D03*
X0215620Y0246250D03*
X0215000Y0240620D03*
X0198750Y0220620D03*
X0193750Y0219370D03*
X0010000Y0287500D02*
G75*
%LPD*%
D17*
X0010000Y0287500D02*
X0010000Y0372500D01*
X0075000Y0372500D01*
X0075000Y0287500D01*
X0010000Y0287500D01*
D12*
X0013750Y0304370D03*
X0013750Y0311870D03*
X0034370Y0298750D03*
X0038120Y0298750D03*
X0036870Y0326870D03*
X0036870Y0333120D03*
X0026870Y0348750D03*
X0026870Y0351870D03*
X0040000Y0369370D03*
X0046250Y0369370D03*
X0069370Y0355000D03*
X0069370Y0348750D03*
X0068120Y0325000D03*
X0068120Y0321250D03*
X0067500Y0303120D03*
X0067500Y0300000D03*
X0082500Y0287500D02*
G75*
%LPD*%
D17*
X0082500Y0287500D02*
X0082500Y0372500D01*
X0147500Y0372500D01*
X0147500Y0287500D01*
X0082500Y0287500D01*
D12*
X0087500Y0290620D03*
X0087500Y0296870D03*
X0096870Y0306870D03*
X0101870Y0311250D03*
X0105000Y0310000D03*
X0096870Y0313120D03*
X0100000Y0332500D03*
X0100000Y0336250D03*
X0098750Y0354370D03*
X0102500Y0354370D03*
X0107500Y0369370D03*
X0112500Y0369370D03*
X0133120Y0365000D03*
X0138120Y0361250D03*
X0143120Y0338750D03*
X0142500Y0333120D03*
X0126250Y0313120D03*
X0121250Y0311870D03*
X0155000Y0287500D02*
G75*
%LPD*%
D17*
X0155000Y0287500D02*
X0155000Y0372500D01*
X0220000Y0372500D01*
X0220000Y0287500D01*
X0155000Y0287500D01*
D12*
X0180000Y0300620D03*
X0186250Y0300620D03*
X0191870Y0311250D03*
X0191870Y0317500D03*
X0191870Y0335000D03*
X0191870Y0341250D03*
X0198120Y0368120D03*
X0204370Y0368120D03*
X0176870Y0368120D03*
X0170620Y0368120D03*
X0198120Y0291870D03*
X0204370Y0291870D03*
X0227500Y0287500D02*
G75*
%LPD*%
D17*
X0227500Y0287500D02*
X0227500Y0372500D01*
X0292500Y0372500D01*
X0292500Y0287500D01*
X0227500Y0287500D01*
D12*
X0233750Y0291250D03*
X0233750Y0297500D03*
X0241250Y0311250D03*
X0241250Y0317500D03*
X0241250Y0341250D03*
X0241250Y0347500D03*
X0247500Y0355000D03*
X0250620Y0351250D03*
X0266250Y0328750D03*
X0269370Y0325000D03*
X0286250Y0327500D03*
X0286250Y0321250D03*
X0286250Y0297500D03*
X0286250Y0291250D03*
X0286250Y0351250D03*
X0286250Y0358750D03*
M02*
