G75*
G70*
%OFA0B0*%
%FSLAX25Y25*%
%IPPOS*%
%LPD*%
%AMOC8*
5,1,8,0,0,1.08239X$1,22.5*
%
%ADD12C,0.04370*%
%ADD17C,0.00000*%
%ADD20R,0.05120X0.05120*%
X0010000Y0010000D02*
G75*
%LPD*%
D17*
X0010000Y0010000D02*
X0010000Y0095000D01*
X0075000Y0095000D01*
X0075000Y0010000D01*
X0010000Y0010000D01*
D20*
X0038360Y0015620D03*
X0046630Y0015620D03*
X0046010Y0024370D03*
X0037740Y0024370D03*
X0038360Y0033120D03*
X0046630Y0033120D03*
X0046630Y0041870D03*
X0038360Y0041870D03*
X0038360Y0050620D03*
X0046630Y0050620D03*
X0046630Y0059370D03*
X0038360Y0059370D03*
X0038360Y0068120D03*
X0046630Y0068120D03*
X0046630Y0076870D03*
X0052500Y0081490D03*
X0046630Y0085620D03*
X0052500Y0089760D03*
X0060000Y0089760D03*
X0067500Y0089760D03*
X0067500Y0081490D03*
X0060000Y0081490D03*
X0038360Y0085620D03*
X0031870Y0081490D03*
X0038360Y0076870D03*
X0031870Y0089760D03*
X0024370Y0089760D03*
X0016870Y0089760D03*
X0016870Y0081490D03*
X0024370Y0081490D03*
D12*
X0029370Y0078120D03*
X0033120Y0078120D03*
X0036870Y0089370D03*
X0040000Y0089370D03*
X0051870Y0078120D03*
X0055000Y0078120D03*
X0037500Y0062500D03*
X0037500Y0056250D03*
X0037500Y0036250D03*
X0037500Y0030000D03*
X0046870Y0018750D03*
X0046870Y0013120D03*
X0082500Y0010000D02*
G75*
%LPD*%
D17*
X0082500Y0010000D02*
X0082500Y0095000D01*
X0147500Y0095000D01*
X0147500Y0010000D01*
X0082500Y0010000D01*
D20*
X0108120Y0014610D03*
X0115000Y0014610D03*
X0121870Y0014610D03*
X0121870Y0022880D03*
X0115000Y0022880D03*
X0108120Y0022880D03*
X0096630Y0037500D03*
X0096630Y0045000D03*
X0096630Y0052500D03*
X0096630Y0060000D03*
X0096630Y0067500D03*
X0088360Y0067500D03*
X0088360Y0060000D03*
X0088360Y0052500D03*
X0088360Y0045000D03*
X0088360Y0037500D03*
X0108120Y0082110D03*
X0115000Y0082110D03*
X0121870Y0082110D03*
X0121870Y0090380D03*
X0115000Y0090380D03*
X0108120Y0090380D03*
X0133360Y0067500D03*
X0133360Y0060000D03*
X0133360Y0052500D03*
X0133360Y0045000D03*
X0133360Y0037500D03*
X0141630Y0037500D03*
X0141630Y0045000D03*
X0141630Y0052500D03*
X0141630Y0060000D03*
X0141630Y0067500D03*
D20*
G36*
X0131740Y0070690D02*
X0129180Y0075110D01*
X0133600Y0077670D01*
X0136160Y0073250D01*
X0131740Y0070690D01*
G37*
G36*
X0129480Y0076050D02*
X0125060Y0078610D01*
X0127620Y0083030D01*
X0132040Y0080470D01*
X0129480Y0076050D01*
G37*
G36*
X0138900Y0074820D02*
X0136340Y0079240D01*
X0140760Y0081800D01*
X0143320Y0077380D01*
X0138900Y0074820D01*
G37*
G36*
X0133620Y0083210D02*
X0129200Y0085770D01*
X0131760Y0090190D01*
X0136180Y0087630D01*
X0133620Y0083210D01*
G37*
G36*
X0104930Y0078610D02*
X0100510Y0076050D01*
X0097950Y0080470D01*
X0102370Y0083030D01*
X0104930Y0078610D01*
G37*
G36*
X0100820Y0075110D02*
X0098260Y0070690D01*
X0093840Y0073250D01*
X0096400Y0077670D01*
X0100820Y0075110D01*
G37*
G36*
X0093660Y0079240D02*
X0091100Y0074820D01*
X0086680Y0077380D01*
X0089240Y0081800D01*
X0093660Y0079240D01*
G37*
G36*
X0100790Y0085770D02*
X0096370Y0083210D01*
X0093810Y0087630D01*
X0098230Y0090190D01*
X0100790Y0085770D01*
G37*
G36*
X0098260Y0033680D02*
X0100820Y0029260D01*
X0096400Y0026700D01*
X0093840Y0031120D01*
X0098260Y0033680D01*
G37*
G36*
X0091100Y0029540D02*
X0093660Y0025120D01*
X0089240Y0022560D01*
X0086680Y0026980D01*
X0091100Y0029540D01*
G37*
G36*
X0100510Y0028320D02*
X0104930Y0025760D01*
X0102370Y0021340D01*
X0097950Y0023900D01*
X0100510Y0028320D01*
G37*
G36*
X0096370Y0021160D02*
X0100790Y0018600D01*
X0098230Y0014180D01*
X0093810Y0016740D01*
X0096370Y0021160D01*
G37*
G36*
X0125060Y0025760D02*
X0129480Y0028320D01*
X0132040Y0023900D01*
X0127620Y0021340D01*
X0125060Y0025760D01*
G37*
G36*
X0129180Y0029260D02*
X0131740Y0033680D01*
X0136160Y0031120D01*
X0133600Y0026700D01*
X0129180Y0029260D01*
G37*
G36*
X0136340Y0025120D02*
X0138900Y0029540D01*
X0143320Y0026980D01*
X0140760Y0022560D01*
X0136340Y0025120D01*
G37*
G36*
X0129200Y0018600D02*
X0133620Y0021160D01*
X0136180Y0016740D01*
X0131760Y0014180D01*
X0129200Y0018600D01*
G37*
D12*
X0130000Y0015620D03*
X0135620Y0018750D03*
X0144370Y0043120D03*
X0144370Y0046870D03*
X0144370Y0065000D03*
X0144370Y0070620D03*
X0128750Y0090620D03*
X0125000Y0090620D03*
X0100000Y0088750D03*
X0094370Y0085000D03*
X0085620Y0062500D03*
X0085620Y0057500D03*
X0085620Y0039370D03*
X0085620Y0034370D03*
X0103120Y0028120D03*
X0106250Y0028120D03*
X0105000Y0013750D03*
X0101250Y0013750D03*
X0155000Y0010000D02*
G75*
%LPD*%
D17*
X0155000Y0010000D02*
X0155000Y0095000D01*
X0220000Y0095000D01*
X0220000Y0010000D01*
X0155000Y0010000D01*
D20*
X0160860Y0016250D03*
X0160860Y0024370D03*
X0160860Y0032500D03*
X0160860Y0040620D03*
X0160860Y0048750D03*
X0160860Y0056870D03*
X0160860Y0064370D03*
X0160860Y0071870D03*
X0160860Y0080000D03*
X0160860Y0087500D03*
X0169130Y0087500D03*
X0175000Y0090380D03*
X0182500Y0090380D03*
X0190000Y0090380D03*
X0190000Y0082110D03*
X0182500Y0082110D03*
X0175000Y0082110D03*
X0169130Y0080000D03*
X0169130Y0071870D03*
X0169130Y0064370D03*
X0169130Y0056870D03*
X0169130Y0048750D03*
X0175000Y0045380D03*
X0181250Y0045380D03*
X0187500Y0045380D03*
X0187500Y0037110D03*
X0181250Y0037110D03*
X0175000Y0037110D03*
X0169130Y0040620D03*
X0169130Y0032500D03*
X0169130Y0024370D03*
X0169130Y0016250D03*
X0205860Y0058750D03*
X0205860Y0066250D03*
X0214130Y0066250D03*
X0214130Y0058750D03*
D20*
G36*
X0201680Y0051130D02*
X0204240Y0055550D01*
X0208660Y0052990D01*
X0206100Y0048570D01*
X0201680Y0051130D01*
G37*
G36*
X0196580Y0048490D02*
X0200760Y0051430D01*
X0203700Y0047250D01*
X0199520Y0044310D01*
X0196580Y0048490D01*
G37*
G36*
X0191340Y0047840D02*
X0196370Y0048730D01*
X0197260Y0043700D01*
X0192230Y0042810D01*
X0191340Y0047840D01*
G37*
G36*
X0192780Y0039700D02*
X0197810Y0040590D01*
X0198700Y0035560D01*
X0193670Y0034670D01*
X0192780Y0039700D01*
G37*
G36*
X0201320Y0041710D02*
X0205500Y0044650D01*
X0208440Y0040470D01*
X0204260Y0037530D01*
X0201320Y0041710D01*
G37*
G36*
X0208840Y0047000D02*
X0211400Y0051420D01*
X0215820Y0048860D01*
X0213260Y0044440D01*
X0208840Y0047000D01*
G37*
G36*
X0204630Y0069210D02*
X0202070Y0073630D01*
X0206490Y0076190D01*
X0209050Y0071770D01*
X0204630Y0069210D01*
G37*
G36*
X0203020Y0074450D02*
X0198840Y0077390D01*
X0201780Y0081570D01*
X0205960Y0078630D01*
X0203020Y0074450D01*
G37*
G36*
X0198800Y0078610D02*
X0193860Y0079930D01*
X0195180Y0084870D01*
X0200120Y0083550D01*
X0198800Y0078610D01*
G37*
G36*
X0207760Y0081220D02*
X0203580Y0084160D01*
X0206520Y0088340D01*
X0210700Y0085400D01*
X0207760Y0081220D01*
G37*
G36*
X0211790Y0073340D02*
X0209230Y0077760D01*
X0213650Y0080320D01*
X0216210Y0075900D01*
X0211790Y0073340D01*
G37*
G36*
X0200940Y0086590D02*
X0196000Y0087910D01*
X0197320Y0092850D01*
X0202260Y0091530D01*
X0200940Y0086590D01*
G37*
D12*
X0205620Y0087500D03*
X0210620Y0083750D03*
X0215620Y0061250D03*
X0215000Y0055620D03*
X0198750Y0035620D03*
X0193750Y0034370D03*
X0177500Y0032500D03*
X0174370Y0033750D03*
X0169370Y0035620D03*
X0169370Y0029370D03*
X0160000Y0019370D03*
X0160000Y0013120D03*
X0172500Y0055000D03*
X0172500Y0058750D03*
X0171250Y0076870D03*
X0175000Y0076870D03*
X0180000Y0091870D03*
X0185000Y0091870D03*
X0010000Y0102500D02*
G75*
%LPD*%
D17*
X0010000Y0102500D02*
X0010000Y0187500D01*
X0075000Y0187500D01*
X0075000Y0102500D01*
X0010000Y0102500D01*
D20*
X0020860Y0116870D03*
X0022880Y0123120D03*
X0029130Y0116870D03*
X0028360Y0110620D03*
X0036630Y0110620D03*
X0043120Y0107110D03*
X0049610Y0110620D03*
X0043120Y0115380D03*
X0055860Y0116870D03*
X0057880Y0110620D03*
X0064130Y0116870D03*
X0060860Y0123750D03*
X0060860Y0130620D03*
X0056750Y0138230D03*
X0058400Y0145000D03*
X0065010Y0138230D03*
X0069130Y0130620D03*
X0069130Y0123750D03*
X0050130Y0145000D03*
X0043120Y0149130D03*
X0036450Y0145070D03*
X0043120Y0140860D03*
X0028180Y0145070D03*
X0028400Y0151610D03*
X0020130Y0151610D03*
X0023510Y0158750D03*
X0023510Y0166870D03*
X0021490Y0173750D03*
X0028360Y0179370D03*
X0029760Y0173750D03*
X0036630Y0179370D03*
X0043120Y0175240D03*
X0049610Y0179370D03*
X0055240Y0173750D03*
X0057880Y0179370D03*
X0063510Y0173750D03*
X0060860Y0166870D03*
X0069130Y0166870D03*
X0043120Y0183510D03*
X0015240Y0166870D03*
X0015240Y0158750D03*
X0014610Y0123120D03*
D12*
X0013750Y0119370D03*
X0013750Y0126870D03*
X0034370Y0113750D03*
X0038120Y0113750D03*
X0036870Y0141870D03*
X0036870Y0148120D03*
X0026870Y0163750D03*
X0026870Y0166870D03*
X0040000Y0184370D03*
X0046250Y0184370D03*
X0069370Y0170000D03*
X0069370Y0163750D03*
X0068120Y0140000D03*
X0068120Y0136250D03*
X0067500Y0118120D03*
X0067500Y0115000D03*
X0082500Y0102500D02*
G75*
%LPD*%
D17*
X0082500Y0102500D02*
X0082500Y0187500D01*
X0147500Y0187500D01*
X0147500Y0102500D01*
X0082500Y0102500D01*
D20*
X0088360Y0108750D03*
X0088360Y0116870D03*
X0088360Y0125000D03*
X0088360Y0133120D03*
X0088360Y0141250D03*
X0088360Y0149370D03*
X0088360Y0156870D03*
X0088360Y0164370D03*
X0088360Y0172500D03*
X0088360Y0180000D03*
X0096630Y0180000D03*
X0102500Y0182880D03*
X0110000Y0182880D03*
X0117500Y0182880D03*
X0117500Y0174610D03*
X0110000Y0174610D03*
X0102500Y0174610D03*
X0096630Y0172500D03*
X0096630Y0164370D03*
X0096630Y0156870D03*
X0096630Y0149370D03*
X0096630Y0141250D03*
X0102500Y0137880D03*
X0108750Y0137880D03*
X0115000Y0137880D03*
X0115000Y0129610D03*
X0108750Y0129610D03*
X0102500Y0129610D03*
X0096630Y0133120D03*
X0096630Y0125000D03*
X0096630Y0116870D03*
X0096630Y0108750D03*
X0133360Y0151250D03*
X0133360Y0158750D03*
X0141630Y0158750D03*
X0141630Y0151250D03*
D20*
G36*
X0129180Y0143630D02*
X0131740Y0148050D01*
X0136160Y0145490D01*
X0133600Y0141070D01*
X0129180Y0143630D01*
G37*
G36*
X0124080Y0140990D02*
X0128260Y0143930D01*
X0131200Y0139750D01*
X0127020Y0136810D01*
X0124080Y0140990D01*
G37*
G36*
X0118840Y0140340D02*
X0123870Y0141230D01*
X0124760Y0136200D01*
X0119730Y0135310D01*
X0118840Y0140340D01*
G37*
G36*
X0120280Y0132200D02*
X0125310Y0133090D01*
X0126200Y0128060D01*
X0121170Y0127170D01*
X0120280Y0132200D01*
G37*
G36*
X0128820Y0134210D02*
X0133000Y0137150D01*
X0135940Y0132970D01*
X0131760Y0130030D01*
X0128820Y0134210D01*
G37*
G36*
X0136340Y0139500D02*
X0138900Y0143920D01*
X0143320Y0141360D01*
X0140760Y0136940D01*
X0136340Y0139500D01*
G37*
G36*
X0132130Y0161710D02*
X0129570Y0166130D01*
X0133990Y0168690D01*
X0136550Y0164270D01*
X0132130Y0161710D01*
G37*
G36*
X0130520Y0166950D02*
X0126340Y0169890D01*
X0129280Y0174070D01*
X0133460Y0171130D01*
X0130520Y0166950D01*
G37*
G36*
X0126300Y0171110D02*
X0121360Y0172430D01*
X0122680Y0177370D01*
X0127620Y0176050D01*
X0126300Y0171110D01*
G37*
G36*
X0135260Y0173720D02*
X0131080Y0176660D01*
X0134020Y0180840D01*
X0138200Y0177900D01*
X0135260Y0173720D01*
G37*
G36*
X0139290Y0165840D02*
X0136730Y0170260D01*
X0141150Y0172820D01*
X0143710Y0168400D01*
X0139290Y0165840D01*
G37*
G36*
X0128440Y0179090D02*
X0123500Y0180410D01*
X0124820Y0185350D01*
X0129760Y0184030D01*
X0128440Y0179090D01*
G37*
D12*
X0133120Y0180000D03*
X0138120Y0176250D03*
X0143120Y0153750D03*
X0142500Y0148120D03*
X0126250Y0128120D03*
X0121250Y0126870D03*
X0105000Y0125000D03*
X0101870Y0126250D03*
X0096870Y0128120D03*
X0096870Y0121870D03*
X0087500Y0111870D03*
X0087500Y0105620D03*
X0100000Y0147500D03*
X0100000Y0151250D03*
X0098750Y0169370D03*
X0102500Y0169370D03*
X0107500Y0184370D03*
X0112500Y0184370D03*
X0155000Y0102500D02*
G75*
%LPD*%
D17*
X0155000Y0102500D02*
X0155000Y0187500D01*
X0220000Y0187500D01*
X0220000Y0102500D01*
X0155000Y0102500D01*
D20*
X0173750Y0107110D03*
X0173750Y0115380D03*
X0183120Y0115380D03*
X0183360Y0121250D03*
X0183360Y0129370D03*
X0183360Y0137500D03*
X0183360Y0145000D03*
X0183360Y0153120D03*
X0183360Y0161250D03*
X0183360Y0168750D03*
X0183120Y0174610D03*
X0183120Y0182880D03*
X0191870Y0182880D03*
X0191870Y0174610D03*
X0191630Y0168750D03*
X0191630Y0161250D03*
X0191630Y0153120D03*
X0191630Y0145000D03*
X0191630Y0137500D03*
X0191630Y0129370D03*
X0191630Y0121250D03*
X0191870Y0115380D03*
X0191870Y0107110D03*
X0183120Y0107110D03*
X0201250Y0107110D03*
X0201250Y0115380D03*
X0201250Y0174610D03*
X0201250Y0182880D03*
X0173750Y0182880D03*
X0173750Y0174610D03*
D12*
X0176870Y0183120D03*
X0170620Y0183120D03*
X0191870Y0156250D03*
X0191870Y0150000D03*
X0191870Y0132500D03*
X0191870Y0126250D03*
X0186250Y0115620D03*
X0180000Y0115620D03*
X0198120Y0106870D03*
X0204370Y0106870D03*
X0204370Y0183120D03*
X0198120Y0183120D03*
X0227500Y0102500D02*
G75*
%LPD*%
D17*
X0227500Y0102500D02*
X0227500Y0187500D01*
X0292500Y0187500D01*
X0292500Y0102500D01*
X0227500Y0102500D01*
D20*
X0233360Y0109370D03*
X0241630Y0109370D03*
X0241630Y0119370D03*
X0233360Y0119370D03*
X0233360Y0129370D03*
X0241630Y0129370D03*
X0241630Y0139370D03*
X0233360Y0139370D03*
X0233360Y0149370D03*
X0241630Y0149370D03*
X0247500Y0158360D03*
X0253750Y0157880D03*
X0253750Y0149610D03*
X0260000Y0149130D03*
X0260000Y0140860D03*
X0266250Y0140380D03*
X0266250Y0132110D03*
X0272500Y0130380D03*
X0278360Y0129370D03*
X0272500Y0122110D03*
X0278360Y0119370D03*
X0286630Y0119370D03*
X0286630Y0129370D03*
X0286630Y0139370D03*
X0278360Y0139370D03*
X0278360Y0149370D03*
X0286630Y0149370D03*
X0286630Y0159370D03*
X0278360Y0159370D03*
X0278360Y0170000D03*
X0286630Y0170000D03*
X0286630Y0179370D03*
X0278360Y0179370D03*
X0247500Y0166630D03*
X0241630Y0170000D03*
X0233360Y0170000D03*
X0233360Y0179370D03*
X0241630Y0179370D03*
X0241630Y0159370D03*
X0233360Y0159370D03*
X0278360Y0109370D03*
X0286630Y0109370D03*
D12*
X0286250Y0106250D03*
X0286250Y0112500D03*
X0286250Y0136250D03*
X0286250Y0142500D03*
X0269370Y0140000D03*
X0266250Y0143750D03*
X0250620Y0166250D03*
X0247500Y0170000D03*
X0241250Y0162500D03*
X0241250Y0156250D03*
X0241250Y0132500D03*
X0241250Y0126250D03*
X0233750Y0112500D03*
X0233750Y0106250D03*
X0286250Y0166250D03*
X0286250Y0173750D03*
X0010000Y0195000D02*
G75*
%LPD*%
D17*
X0010000Y0195000D02*
X0010000Y0280000D01*
X0075000Y0280000D01*
X0075000Y0195000D01*
X0010000Y0195000D01*
D20*
X0038360Y0200620D03*
X0046630Y0200620D03*
X0046010Y0209370D03*
X0037740Y0209370D03*
X0038360Y0218120D03*
X0046630Y0218120D03*
X0046630Y0226870D03*
X0038360Y0226870D03*
X0038360Y0235620D03*
X0046630Y0235620D03*
X0046630Y0244370D03*
X0038360Y0244370D03*
X0038360Y0253120D03*
X0046630Y0253120D03*
X0046630Y0261870D03*
X0052500Y0266490D03*
X0046630Y0270620D03*
X0052500Y0274760D03*
X0060000Y0274760D03*
X0067500Y0274760D03*
X0067500Y0266490D03*
X0060000Y0266490D03*
X0038360Y0270620D03*
X0031870Y0266490D03*
X0038360Y0261870D03*
X0031870Y0274760D03*
X0024370Y0274760D03*
X0016870Y0274760D03*
X0016870Y0266490D03*
X0024370Y0266490D03*
D12*
X0029370Y0263120D03*
X0033120Y0263120D03*
X0036870Y0274370D03*
X0040000Y0274370D03*
X0051870Y0263120D03*
X0055000Y0263120D03*
X0037500Y0247500D03*
X0037500Y0241250D03*
X0037500Y0221250D03*
X0037500Y0215000D03*
X0046870Y0203750D03*
X0046870Y0198120D03*
X0082500Y0195000D02*
G75*
%LPD*%
D17*
X0082500Y0195000D02*
X0082500Y0280000D01*
X0147500Y0280000D01*
X0147500Y0195000D01*
X0082500Y0195000D01*
D20*
X0108120Y0199610D03*
X0115000Y0199610D03*
X0121870Y0199610D03*
X0121870Y0207880D03*
X0115000Y0207880D03*
X0108120Y0207880D03*
X0096630Y0222500D03*
X0096630Y0230000D03*
X0096630Y0237500D03*
X0096630Y0245000D03*
X0096630Y0252500D03*
X0088360Y0252500D03*
X0088360Y0245000D03*
X0088360Y0237500D03*
X0088360Y0230000D03*
X0088360Y0222500D03*
X0108120Y0267110D03*
X0115000Y0267110D03*
X0121870Y0267110D03*
X0121870Y0275380D03*
X0115000Y0275380D03*
X0108120Y0275380D03*
X0133360Y0252500D03*
X0133360Y0245000D03*
X0133360Y0237500D03*
X0133360Y0230000D03*
X0133360Y0222500D03*
X0141630Y0222500D03*
X0141630Y0230000D03*
X0141630Y0237500D03*
X0141630Y0245000D03*
X0141630Y0252500D03*
D20*
G36*
X0131740Y0255690D02*
X0129180Y0260110D01*
X0133600Y0262670D01*
X0136160Y0258250D01*
X0131740Y0255690D01*
G37*
G36*
X0129480Y0261050D02*
X0125060Y0263610D01*
X0127620Y0268030D01*
X0132040Y0265470D01*
X0129480Y0261050D01*
G37*
G36*
X0138900Y0259820D02*
X0136340Y0264240D01*
X0140760Y0266800D01*
X0143320Y0262380D01*
X0138900Y0259820D01*
G37*
G36*
X0133620Y0268210D02*
X0129200Y0270770D01*
X0131760Y0275190D01*
X0136180Y0272630D01*
X0133620Y0268210D01*
G37*
G36*
X0104930Y0263610D02*
X0100510Y0261050D01*
X0097950Y0265470D01*
X0102370Y0268030D01*
X0104930Y0263610D01*
G37*
G36*
X0100820Y0260110D02*
X0098260Y0255690D01*
X0093840Y0258250D01*
X0096400Y0262670D01*
X0100820Y0260110D01*
G37*
G36*
X0093660Y0264240D02*
X0091100Y0259820D01*
X0086680Y0262380D01*
X0089240Y0266800D01*
X0093660Y0264240D01*
G37*
G36*
X0100790Y0270770D02*
X0096370Y0268210D01*
X0093810Y0272630D01*
X0098230Y0275190D01*
X0100790Y0270770D01*
G37*
G36*
X0098260Y0218680D02*
X0100820Y0214260D01*
X0096400Y0211700D01*
X0093840Y0216120D01*
X0098260Y0218680D01*
G37*
G36*
X0091100Y0214540D02*
X0093660Y0210120D01*
X0089240Y0207560D01*
X0086680Y0211980D01*
X0091100Y0214540D01*
G37*
G36*
X0100510Y0213320D02*
X0104930Y0210760D01*
X0102370Y0206340D01*
X0097950Y0208900D01*
X0100510Y0213320D01*
G37*
G36*
X0096370Y0206160D02*
X0100790Y0203600D01*
X0098230Y0199180D01*
X0093810Y0201740D01*
X0096370Y0206160D01*
G37*
G36*
X0125060Y0210760D02*
X0129480Y0213320D01*
X0132040Y0208900D01*
X0127620Y0206340D01*
X0125060Y0210760D01*
G37*
G36*
X0129180Y0214260D02*
X0131740Y0218680D01*
X0136160Y0216120D01*
X0133600Y0211700D01*
X0129180Y0214260D01*
G37*
G36*
X0136340Y0210120D02*
X0138900Y0214540D01*
X0143320Y0211980D01*
X0140760Y0207560D01*
X0136340Y0210120D01*
G37*
G36*
X0129200Y0203600D02*
X0133620Y0206160D01*
X0136180Y0201740D01*
X0131760Y0199180D01*
X0129200Y0203600D01*
G37*
D12*
X0130000Y0200620D03*
X0135620Y0203750D03*
X0144370Y0228120D03*
X0144370Y0231870D03*
X0144370Y0250000D03*
X0144370Y0255620D03*
X0128750Y0275620D03*
X0125000Y0275620D03*
X0100000Y0273750D03*
X0094370Y0270000D03*
X0085620Y0247500D03*
X0085620Y0242500D03*
X0085620Y0224370D03*
X0085620Y0219370D03*
X0103120Y0213120D03*
X0106250Y0213120D03*
X0105000Y0198750D03*
X0101250Y0198750D03*
X0155000Y0195000D02*
G75*
%LPD*%
D17*
X0155000Y0195000D02*
X0155000Y0280000D01*
X0220000Y0280000D01*
X0220000Y0195000D01*
X0155000Y0195000D01*
D20*
X0160860Y0201250D03*
X0160860Y0209370D03*
X0160860Y0217500D03*
X0160860Y0225620D03*
X0160860Y0233750D03*
X0160860Y0241870D03*
X0160860Y0249370D03*
X0160860Y0256870D03*
X0160860Y0265000D03*
X0160860Y0272500D03*
X0169130Y0272500D03*
X0175000Y0275380D03*
X0182500Y0275380D03*
X0190000Y0275380D03*
X0190000Y0267110D03*
X0182500Y0267110D03*
X0175000Y0267110D03*
X0169130Y0265000D03*
X0169130Y0256870D03*
X0169130Y0249370D03*
X0169130Y0241870D03*
X0169130Y0233750D03*
X0175000Y0230380D03*
X0181250Y0230380D03*
X0187500Y0230380D03*
X0187500Y0222110D03*
X0181250Y0222110D03*
X0175000Y0222110D03*
X0169130Y0225620D03*
X0169130Y0217500D03*
X0169130Y0209370D03*
X0169130Y0201250D03*
X0205860Y0243750D03*
X0205860Y0251250D03*
X0214130Y0251250D03*
X0214130Y0243750D03*
D20*
G36*
X0201680Y0236130D02*
X0204240Y0240550D01*
X0208660Y0237990D01*
X0206100Y0233570D01*
X0201680Y0236130D01*
G37*
G36*
X0196580Y0233490D02*
X0200760Y0236430D01*
X0203700Y0232250D01*
X0199520Y0229310D01*
X0196580Y0233490D01*
G37*
G36*
X0191340Y0232840D02*
X0196370Y0233730D01*
X0197260Y0228700D01*
X0192230Y0227810D01*
X0191340Y0232840D01*
G37*
G36*
X0192780Y0224700D02*
X0197810Y0225590D01*
X0198700Y0220560D01*
X0193670Y0219670D01*
X0192780Y0224700D01*
G37*
G36*
X0201320Y0226710D02*
X0205500Y0229650D01*
X0208440Y0225470D01*
X0204260Y0222530D01*
X0201320Y0226710D01*
G37*
G36*
X0208840Y0232000D02*
X0211400Y0236420D01*
X0215820Y0233860D01*
X0213260Y0229440D01*
X0208840Y0232000D01*
G37*
G36*
X0204630Y0254210D02*
X0202070Y0258630D01*
X0206490Y0261190D01*
X0209050Y0256770D01*
X0204630Y0254210D01*
G37*
G36*
X0203020Y0259450D02*
X0198840Y0262390D01*
X0201780Y0266570D01*
X0205960Y0263630D01*
X0203020Y0259450D01*
G37*
G36*
X0198800Y0263610D02*
X0193860Y0264930D01*
X0195180Y0269870D01*
X0200120Y0268550D01*
X0198800Y0263610D01*
G37*
G36*
X0207760Y0266220D02*
X0203580Y0269160D01*
X0206520Y0273340D01*
X0210700Y0270400D01*
X0207760Y0266220D01*
G37*
G36*
X0211790Y0258340D02*
X0209230Y0262760D01*
X0213650Y0265320D01*
X0216210Y0260900D01*
X0211790Y0258340D01*
G37*
G36*
X0200940Y0271590D02*
X0196000Y0272910D01*
X0197320Y0277850D01*
X0202260Y0276530D01*
X0200940Y0271590D01*
G37*
D12*
X0205620Y0272500D03*
X0210620Y0268750D03*
X0215620Y0246250D03*
X0215000Y0240620D03*
X0198750Y0220620D03*
X0193750Y0219370D03*
X0177500Y0217500D03*
X0174370Y0218750D03*
X0169370Y0220620D03*
X0169370Y0214370D03*
X0160000Y0204370D03*
X0160000Y0198120D03*
X0172500Y0240000D03*
X0172500Y0243750D03*
X0171250Y0261870D03*
X0175000Y0261870D03*
X0180000Y0276870D03*
X0185000Y0276870D03*
X0010000Y0287500D02*
G75*
%LPD*%
D17*
X0010000Y0287500D02*
X0010000Y0372500D01*
X0075000Y0372500D01*
X0075000Y0287500D01*
X0010000Y0287500D01*
D20*
X0020860Y0301870D03*
X0022880Y0308120D03*
X0029130Y0301870D03*
X0028360Y0295620D03*
X0036630Y0295620D03*
X0043120Y0292110D03*
X0049610Y0295620D03*
X0043120Y0300380D03*
X0055860Y0301870D03*
X0057880Y0295620D03*
X0064130Y0301870D03*
X0060860Y0308750D03*
X0060860Y0315620D03*
X0056750Y0323230D03*
X0058400Y0330000D03*
X0065010Y0323230D03*
X0069130Y0315620D03*
X0069130Y0308750D03*
X0050130Y0330000D03*
X0043120Y0334130D03*
X0036450Y0330070D03*
X0043120Y0325860D03*
X0028180Y0330070D03*
X0028400Y0336610D03*
X0020130Y0336610D03*
X0023510Y0343750D03*
X0023510Y0351870D03*
X0021490Y0358750D03*
X0028360Y0364370D03*
X0029760Y0358750D03*
X0036630Y0364370D03*
X0043120Y0360240D03*
X0049610Y0364370D03*
X0055240Y0358750D03*
X0057880Y0364370D03*
X0063510Y0358750D03*
X0060860Y0351870D03*
X0069130Y0351870D03*
X0043120Y0368510D03*
X0015240Y0351870D03*
X0015240Y0343750D03*
X0014610Y0308120D03*
D12*
X0013750Y0304370D03*
X0013750Y0311870D03*
X0034370Y0298750D03*
X0038120Y0298750D03*
X0036870Y0326870D03*
X0036870Y0333120D03*
X0026870Y0348750D03*
X0026870Y0351870D03*
X0040000Y0369370D03*
X0046250Y0369370D03*
X0069370Y0355000D03*
X0069370Y0348750D03*
X0068120Y0325000D03*
X0068120Y0321250D03*
X0067500Y0303120D03*
X0067500Y0300000D03*
X0082500Y0287500D02*
G75*
%LPD*%
D17*
X0082500Y0287500D02*
X0082500Y0372500D01*
X0147500Y0372500D01*
X0147500Y0287500D01*
X0082500Y0287500D01*
D20*
X0088360Y0293750D03*
X0088360Y0301870D03*
X0088360Y0310000D03*
X0088360Y0318120D03*
X0088360Y0326250D03*
X0088360Y0334370D03*
X0088360Y0341870D03*
X0088360Y0349370D03*
X0088360Y0357500D03*
X0088360Y0365000D03*
X0096630Y0365000D03*
X0102500Y0367880D03*
X0110000Y0367880D03*
X0117500Y0367880D03*
X0117500Y0359610D03*
X0110000Y0359610D03*
X0102500Y0359610D03*
X0096630Y0357500D03*
X0096630Y0349370D03*
X0096630Y0341870D03*
X0096630Y0334370D03*
X0096630Y0326250D03*
X0102500Y0322880D03*
X0108750Y0322880D03*
X0115000Y0322880D03*
X0115000Y0314610D03*
X0108750Y0314610D03*
X0102500Y0314610D03*
X0096630Y0318120D03*
X0096630Y0310000D03*
X0096630Y0301870D03*
X0096630Y0293750D03*
X0133360Y0336250D03*
X0133360Y0343750D03*
X0141630Y0343750D03*
X0141630Y0336250D03*
D20*
G36*
X0129180Y0328630D02*
X0131740Y0333050D01*
X0136160Y0330490D01*
X0133600Y0326070D01*
X0129180Y0328630D01*
G37*
G36*
X0124080Y0325990D02*
X0128260Y0328930D01*
X0131200Y0324750D01*
X0127020Y0321810D01*
X0124080Y0325990D01*
G37*
G36*
X0118840Y0325340D02*
X0123870Y0326230D01*
X0124760Y0321200D01*
X0119730Y0320310D01*
X0118840Y0325340D01*
G37*
G36*
X0120280Y0317200D02*
X0125310Y0318090D01*
X0126200Y0313060D01*
X0121170Y0312170D01*
X0120280Y0317200D01*
G37*
G36*
X0128820Y0319210D02*
X0133000Y0322150D01*
X0135940Y0317970D01*
X0131760Y0315030D01*
X0128820Y0319210D01*
G37*
G36*
X0136340Y0324500D02*
X0138900Y0328920D01*
X0143320Y0326360D01*
X0140760Y0321940D01*
X0136340Y0324500D01*
G37*
G36*
X0132130Y0346710D02*
X0129570Y0351130D01*
X0133990Y0353690D01*
X0136550Y0349270D01*
X0132130Y0346710D01*
G37*
G36*
X0130520Y0351950D02*
X0126340Y0354890D01*
X0129280Y0359070D01*
X0133460Y0356130D01*
X0130520Y0351950D01*
G37*
G36*
X0126300Y0356110D02*
X0121360Y0357430D01*
X0122680Y0362370D01*
X0127620Y0361050D01*
X0126300Y0356110D01*
G37*
G36*
X0135260Y0358720D02*
X0131080Y0361660D01*
X0134020Y0365840D01*
X0138200Y0362900D01*
X0135260Y0358720D01*
G37*
G36*
X0139290Y0350840D02*
X0136730Y0355260D01*
X0141150Y0357820D01*
X0143710Y0353400D01*
X0139290Y0350840D01*
G37*
G36*
X0128440Y0364090D02*
X0123500Y0365410D01*
X0124820Y0370350D01*
X0129760Y0369030D01*
X0128440Y0364090D01*
G37*
D12*
X0133120Y0365000D03*
X0138120Y0361250D03*
X0143120Y0338750D03*
X0142500Y0333120D03*
X0126250Y0313120D03*
X0121250Y0311870D03*
X0105000Y0310000D03*
X0101870Y0311250D03*
X0096870Y0313120D03*
X0096870Y0306870D03*
X0087500Y0296870D03*
X0087500Y0290620D03*
X0100000Y0332500D03*
X0100000Y0336250D03*
X0098750Y0354370D03*
X0102500Y0354370D03*
X0107500Y0369370D03*
X0112500Y0369370D03*
X0155000Y0287500D02*
G75*
%LPD*%
D17*
X0155000Y0287500D02*
X0155000Y0372500D01*
X0220000Y0372500D01*
X0220000Y0287500D01*
X0155000Y0287500D01*
D20*
X0173750Y0292110D03*
X0173750Y0300380D03*
X0183120Y0300380D03*
X0183360Y0306250D03*
X0183360Y0314370D03*
X0183360Y0322500D03*
X0183360Y0330000D03*
X0183360Y0338120D03*
X0183360Y0346250D03*
X0183360Y0353750D03*
X0183120Y0359610D03*
X0183120Y0367880D03*
X0191870Y0367880D03*
X0191870Y0359610D03*
X0191630Y0353750D03*
X0191630Y0346250D03*
X0191630Y0338120D03*
X0191630Y0330000D03*
X0191630Y0322500D03*
X0191630Y0314370D03*
X0191630Y0306250D03*
X0191870Y0300380D03*
X0191870Y0292110D03*
X0183120Y0292110D03*
X0201250Y0292110D03*
X0201250Y0300380D03*
X0201250Y0359610D03*
X0201250Y0367880D03*
X0173750Y0367880D03*
X0173750Y0359610D03*
D12*
X0176870Y0368120D03*
X0170620Y0368120D03*
X0191870Y0341250D03*
X0191870Y0335000D03*
X0191870Y0317500D03*
X0191870Y0311250D03*
X0186250Y0300620D03*
X0180000Y0300620D03*
X0198120Y0291870D03*
X0204370Y0291870D03*
X0204370Y0368120D03*
X0198120Y0368120D03*
X0227500Y0287500D02*
G75*
%LPD*%
D17*
X0227500Y0287500D02*
X0227500Y0372500D01*
X0292500Y0372500D01*
X0292500Y0287500D01*
X0227500Y0287500D01*
D20*
X0233360Y0294370D03*
X0241630Y0294370D03*
X0241630Y0304370D03*
X0233360Y0304370D03*
X0233360Y0314370D03*
X0241630Y0314370D03*
X0241630Y0324370D03*
X0233360Y0324370D03*
X0233360Y0334370D03*
X0241630Y0334370D03*
X0247500Y0343360D03*
X0253750Y0342880D03*
X0253750Y0334610D03*
X0260000Y0334130D03*
X0260000Y0325860D03*
X0266250Y0325380D03*
X0266250Y0317110D03*
X0272500Y0315380D03*
X0278360Y0314370D03*
X0272500Y0307110D03*
X0278360Y0304370D03*
X0286630Y0304370D03*
X0286630Y0314370D03*
X0286630Y0324370D03*
X0278360Y0324370D03*
X0278360Y0334370D03*
X0286630Y0334370D03*
X0286630Y0344370D03*
X0278360Y0344370D03*
X0278360Y0355000D03*
X0286630Y0355000D03*
X0286630Y0364370D03*
X0278360Y0364370D03*
X0247500Y0351630D03*
X0241630Y0355000D03*
X0233360Y0355000D03*
X0233360Y0364370D03*
X0241630Y0364370D03*
X0241630Y0344370D03*
X0233360Y0344370D03*
X0278360Y0294370D03*
X0286630Y0294370D03*
D12*
X0286250Y0291250D03*
X0286250Y0297500D03*
X0286250Y0321250D03*
X0286250Y0327500D03*
X0269370Y0325000D03*
X0266250Y0328750D03*
X0250620Y0351250D03*
X0247500Y0355000D03*
X0241250Y0347500D03*
X0241250Y0341250D03*
X0241250Y0317500D03*
X0241250Y0311250D03*
X0233750Y0297500D03*
X0233750Y0291250D03*
X0286250Y0351250D03*
X0286250Y0358750D03*
M02*
