G75*
G70*
%OFA0B0*%
%FSLAX25Y25*%
%IPPOS*%
%LPD*%
%AMOC8*
5,1,8,0,0,1.08239X$1,22.5*
%
%ADD11C,0.01000*%
%ADD13C,0.00400*%
%ADD15C,0.00800*%
%ADD17C,0.00000*%
X0010000Y0010000D02*
G75*
%LPD*%
D17*
X0010000Y0010000D02*
X0010000Y0095000D01*
X0075000Y0095000D01*
X0075000Y0010000D01*
X0010000Y0010000D01*
D11*
X0034370Y0011250D02*
X0050620Y0011250D01*
X0050620Y0077500D01*
X0071870Y0077500D01*
X0071870Y0093120D01*
X0013120Y0093120D01*
X0013120Y0077500D01*
X0034370Y0077500D01*
X0034370Y0011250D01*
D13*
X0036250Y0011870D02*
X0035000Y0013120D01*
X0035000Y0019370D01*
X0050000Y0019370D01*
X0050000Y0011870D01*
X0036250Y0011870D01*
X0035620Y0020620D02*
X0034370Y0021870D01*
X0034370Y0028120D01*
X0049370Y0028120D01*
X0049370Y0020620D01*
X0035620Y0020620D01*
X0036250Y0029370D02*
X0035000Y0030620D01*
X0035000Y0036870D01*
X0050000Y0036870D01*
X0050000Y0029370D01*
X0036250Y0029370D01*
X0036250Y0038120D02*
X0035000Y0039370D01*
X0035000Y0045620D01*
X0050000Y0045620D01*
X0050000Y0038120D01*
X0036250Y0038120D01*
X0036250Y0046870D02*
X0035000Y0048120D01*
X0035000Y0054370D01*
X0050000Y0054370D01*
X0050000Y0046870D01*
X0036250Y0046870D01*
X0036250Y0055620D02*
X0035000Y0056870D01*
X0035000Y0063120D01*
X0050000Y0063120D01*
X0050000Y0055620D01*
X0036250Y0055620D01*
X0036250Y0064370D02*
X0035000Y0065620D01*
X0035000Y0071870D01*
X0050000Y0071870D01*
X0050000Y0064370D01*
X0036250Y0064370D01*
X0036250Y0073120D02*
X0035000Y0074370D01*
X0035000Y0080620D01*
X0050000Y0080620D01*
X0050000Y0073120D01*
X0036250Y0073120D01*
X0034370Y0078120D02*
X0035620Y0079370D01*
X0035620Y0093120D01*
X0028120Y0093120D01*
X0028120Y0079370D01*
X0026870Y0078120D01*
X0020620Y0078120D01*
X0020620Y0093120D01*
X0020620Y0079370D01*
X0019370Y0078120D01*
X0013120Y0078120D01*
X0013120Y0093120D01*
X0020620Y0093120D01*
X0028120Y0093120D01*
X0028120Y0078120D01*
X0034370Y0078120D01*
X0036250Y0081870D02*
X0035000Y0083120D01*
X0035000Y0089370D01*
X0050000Y0089370D01*
X0050000Y0081870D01*
X0036250Y0081870D01*
X0048750Y0078120D02*
X0048750Y0093120D01*
X0056250Y0093120D01*
X0063750Y0093120D01*
X0071250Y0093120D01*
X0071250Y0079370D01*
X0070000Y0078120D01*
X0063750Y0078120D01*
X0063750Y0093120D01*
X0063750Y0079370D01*
X0062500Y0078120D01*
X0056250Y0078120D01*
X0056250Y0093120D01*
X0056250Y0079370D01*
X0055000Y0078120D01*
X0048750Y0078120D01*
D15*
X0052270Y0075850D02*
X0052270Y0073050D01*
X0053670Y0071650D01*
X0055070Y0073050D01*
X0055070Y0075850D01*
X0056880Y0075150D02*
X0056880Y0072350D01*
X0057580Y0071650D01*
X0058980Y0071650D01*
X0059680Y0072350D01*
X0059680Y0075150D01*
X0058980Y0075850D01*
X0057580Y0075850D01*
X0056880Y0075150D01*
X0061480Y0075850D02*
X0061480Y0073750D01*
X0062880Y0074450D01*
X0063580Y0074450D01*
X0064280Y0073750D01*
X0064280Y0072350D01*
X0063580Y0071650D01*
X0062180Y0071650D01*
X0061480Y0072350D01*
X0061480Y0075850D02*
X0064280Y0075850D01*
X0047410Y0089220D02*
X0046710Y0088520D01*
X0045310Y0088520D01*
X0044600Y0089220D01*
X0046010Y0090620D02*
X0046710Y0090620D01*
X0047410Y0091320D01*
X0047410Y0092020D01*
X0046710Y0092730D01*
X0045310Y0092730D01*
X0044600Y0092020D01*
X0046710Y0090620D02*
X0047410Y0089920D01*
X0047410Y0089220D01*
X0042800Y0089220D02*
X0042100Y0088520D01*
X0040700Y0088520D01*
X0040000Y0089220D01*
X0040000Y0092020D01*
X0040700Y0092730D01*
X0042100Y0092730D01*
X0042800Y0092020D01*
X0042800Y0089220D01*
X0038200Y0089920D02*
X0038200Y0092730D01*
X0035400Y0092730D02*
X0035400Y0089920D01*
X0036800Y0088520D01*
X0038200Y0089920D01*
X0031710Y0075850D02*
X0029600Y0073750D01*
X0032410Y0073750D01*
X0031710Y0071650D02*
X0031710Y0075850D01*
X0027800Y0075150D02*
X0027800Y0072350D01*
X0027100Y0071650D01*
X0025700Y0071650D01*
X0025000Y0072350D01*
X0025000Y0075150D01*
X0025700Y0075850D01*
X0027100Y0075850D01*
X0027800Y0075150D01*
X0023200Y0075850D02*
X0023200Y0073050D01*
X0021800Y0071650D01*
X0020400Y0073050D01*
X0020400Y0075850D01*
X0029220Y0066160D02*
X0028520Y0065460D01*
X0028520Y0064060D01*
X0029220Y0063350D01*
X0029220Y0061550D02*
X0028520Y0060850D01*
X0028520Y0059450D01*
X0029220Y0058750D01*
X0032020Y0058750D01*
X0032720Y0059450D01*
X0032720Y0060850D01*
X0032020Y0061550D01*
X0029220Y0061550D01*
X0032720Y0063350D02*
X0029920Y0066160D01*
X0029220Y0066160D01*
X0032720Y0066160D02*
X0032720Y0063350D01*
X0031320Y0056950D02*
X0028520Y0056950D01*
X0028520Y0054150D02*
X0031320Y0054150D01*
X0032720Y0055550D01*
X0031320Y0056950D01*
X0032720Y0039910D02*
X0032720Y0037100D01*
X0032720Y0038510D02*
X0028520Y0038510D01*
X0029920Y0037100D01*
X0029220Y0035300D02*
X0028520Y0034600D01*
X0028520Y0033200D01*
X0029220Y0032500D01*
X0032020Y0032500D01*
X0032720Y0033200D01*
X0032720Y0034600D01*
X0032020Y0035300D01*
X0029220Y0035300D01*
X0028520Y0030700D02*
X0031320Y0030700D01*
X0032720Y0029300D01*
X0031320Y0027900D01*
X0028520Y0027900D01*
X0051770Y0022100D02*
X0055970Y0022100D01*
X0051770Y0019290D01*
X0055970Y0019290D01*
X0055970Y0017620D02*
X0055970Y0016220D01*
X0055970Y0016920D02*
X0051770Y0016920D01*
X0051770Y0016220D02*
X0051770Y0017620D01*
X0051770Y0014420D02*
X0054570Y0014420D01*
X0055970Y0013020D01*
X0054570Y0011620D01*
X0051770Y0011620D01*
D15*
X0010400Y0010400D02*
X0010400Y0095400D01*
X0010400Y0095400D02*
X0075400Y0095400D01*
X0075400Y0010400D01*
X0010400Y0010400D01*
X0082500Y0010000D02*
G75*
%LPD*%
D17*
X0082500Y0010000D02*
X0082500Y0095000D01*
X0147500Y0095000D01*
X0147500Y0010000D01*
X0082500Y0010000D01*
D11*
X0084370Y0030000D02*
X0084320Y0029210D01*
X0084300Y0028420D01*
X0084320Y0027630D01*
X0084380Y0026840D01*
X0084470Y0026050D01*
X0084600Y0025270D01*
X0084770Y0024500D01*
X0084980Y0023740D01*
X0085220Y0022980D01*
X0085490Y0022240D01*
X0085810Y0021520D01*
X0086150Y0020810D01*
X0086530Y0020110D01*
X0086940Y0019440D01*
X0087390Y0018780D01*
X0087860Y0018150D01*
X0088360Y0017540D01*
X0088890Y0016950D01*
X0089450Y0016390D01*
X0090040Y0015860D01*
X0090650Y0015360D01*
X0091280Y0014890D01*
X0091940Y0014440D01*
X0092610Y0014030D01*
X0093310Y0013650D01*
X0094020Y0013310D01*
X0094740Y0012990D01*
X0095480Y0012720D01*
X0096240Y0012480D01*
X0097000Y0012270D01*
X0097770Y0012100D01*
X0098550Y0011970D01*
X0099340Y0011880D01*
X0100130Y0011820D01*
X0100920Y0011800D01*
X0101710Y0011820D01*
X0102500Y0011870D01*
X0127500Y0011870D01*
X0127490Y0011870D02*
X0128290Y0011830D01*
X0129090Y0011820D01*
X0129890Y0011860D01*
X0130690Y0011930D01*
X0131480Y0012050D01*
X0132260Y0012200D01*
X0133040Y0012390D01*
X0133800Y0012620D01*
X0134560Y0012890D01*
X0135300Y0013190D01*
X0136020Y0013530D01*
X0136730Y0013900D01*
X0137410Y0014300D01*
X0138080Y0014740D01*
X0138730Y0015220D01*
X0139350Y0015720D01*
X0139940Y0016250D01*
X0140510Y0016810D01*
X0141050Y0017400D01*
X0141560Y0018020D01*
X0142050Y0018650D01*
X0142490Y0019310D01*
X0142910Y0020000D01*
X0143290Y0020700D01*
X0143640Y0021420D01*
X0143950Y0022150D01*
X0144230Y0022900D01*
X0144470Y0023670D01*
X0144670Y0024440D01*
X0144830Y0025220D01*
X0144960Y0026010D01*
X0145040Y0026810D01*
X0145090Y0027600D01*
X0145100Y0028400D01*
X0145070Y0029200D01*
X0145000Y0030000D01*
X0145000Y0076250D01*
X0145030Y0077030D01*
X0145020Y0077820D01*
X0144970Y0078600D01*
X0144880Y0079380D01*
X0144750Y0080160D01*
X0144590Y0080920D01*
X0144390Y0081680D01*
X0144150Y0082430D01*
X0143880Y0083170D01*
X0143570Y0083890D01*
X0143220Y0084600D01*
X0142840Y0085280D01*
X0142430Y0085950D01*
X0141990Y0086600D01*
X0141510Y0087230D01*
X0141010Y0087830D01*
X0140470Y0088400D01*
X0139910Y0088950D01*
X0139320Y0089470D01*
X0138710Y0089960D01*
X0138070Y0090430D01*
X0137420Y0090850D01*
X0136740Y0091250D01*
X0136040Y0091610D01*
X0135330Y0091940D01*
X0134600Y0092240D01*
X0133860Y0092490D01*
X0133110Y0092720D01*
X0132340Y0092900D01*
X0131570Y0093050D01*
X0130790Y0093160D01*
X0130010Y0093230D01*
X0129230Y0093260D01*
X0128440Y0093250D01*
X0127660Y0093210D01*
X0126880Y0093120D01*
X0126870Y0093120D02*
X0102500Y0093120D01*
X0101680Y0093150D01*
X0100860Y0093140D01*
X0100050Y0093090D01*
X0099230Y0093010D01*
X0098420Y0092880D01*
X0097620Y0092720D01*
X0096830Y0092520D01*
X0096050Y0092280D01*
X0095280Y0092000D01*
X0094520Y0091690D01*
X0093780Y0091350D01*
X0093050Y0090960D01*
X0092350Y0090550D01*
X0091670Y0090100D01*
X0091000Y0089620D01*
X0090370Y0089100D01*
X0089750Y0088560D01*
X0089170Y0087990D01*
X0088610Y0087390D01*
X0088080Y0086770D01*
X0087580Y0086120D01*
X0087110Y0085450D01*
X0086670Y0084760D01*
X0086270Y0084050D01*
X0085900Y0083320D01*
X0085570Y0082570D01*
X0085270Y0081810D01*
X0085010Y0081030D01*
X0084790Y0080240D01*
X0084600Y0079450D01*
X0084450Y0078640D01*
X0084340Y0077830D01*
X0084270Y0077010D01*
X0084240Y0076200D01*
X0084250Y0075380D01*
X0084300Y0074560D01*
X0084380Y0073750D01*
X0084370Y0073750D02*
X0084370Y0030000D01*
X0101250Y0039370D02*
X0101250Y0065000D01*
X0101360Y0065720D01*
X0101490Y0066450D01*
X0101670Y0067160D01*
X0101890Y0067860D01*
X0102140Y0068550D01*
X0102420Y0069230D01*
X0102750Y0069880D01*
X0103110Y0070530D01*
X0103500Y0071150D01*
X0103920Y0071750D01*
X0104380Y0072320D01*
X0104860Y0072870D01*
X0105370Y0073400D01*
X0105910Y0073900D01*
X0106480Y0074360D01*
X0107070Y0074800D01*
X0107680Y0075210D01*
X0108320Y0075580D01*
X0108970Y0075920D01*
X0109640Y0076220D01*
X0110320Y0076480D01*
X0111020Y0076710D01*
X0111730Y0076910D01*
X0112440Y0077060D01*
X0113170Y0077180D01*
X0113900Y0077260D01*
X0114630Y0077300D01*
X0115370Y0077300D01*
X0116100Y0077260D01*
X0116830Y0077180D01*
X0117560Y0077060D01*
X0118270Y0076910D01*
X0118980Y0076710D01*
X0119680Y0076480D01*
X0120360Y0076220D01*
X0121030Y0075920D01*
X0121680Y0075580D01*
X0122320Y0075210D01*
X0122930Y0074800D01*
X0123520Y0074360D01*
X0124090Y0073900D01*
X0124630Y0073400D01*
X0125140Y0072870D01*
X0125620Y0072320D01*
X0126080Y0071750D01*
X0126500Y0071150D01*
X0126890Y0070530D01*
X0127250Y0069880D01*
X0127580Y0069230D01*
X0127860Y0068550D01*
X0128110Y0067860D01*
X0128330Y0067160D01*
X0128510Y0066450D01*
X0128640Y0065720D01*
X0128750Y0065000D01*
X0128750Y0039370D01*
X0128640Y0038650D01*
X0128510Y0037920D01*
X0128330Y0037210D01*
X0128110Y0036510D01*
X0127860Y0035820D01*
X0127580Y0035140D01*
X0127250Y0034490D01*
X0126890Y0033840D01*
X0126500Y0033220D01*
X0126080Y0032620D01*
X0125620Y0032050D01*
X0125140Y0031500D01*
X0124630Y0030970D01*
X0124090Y0030470D01*
X0123520Y0030010D01*
X0122930Y0029570D01*
X0122320Y0029160D01*
X0121680Y0028790D01*
X0121030Y0028450D01*
X0120360Y0028150D01*
X0119680Y0027890D01*
X0118980Y0027660D01*
X0118270Y0027460D01*
X0117560Y0027310D01*
X0116830Y0027190D01*
X0116100Y0027110D01*
X0115370Y0027070D01*
X0114630Y0027070D01*
X0113900Y0027110D01*
X0113170Y0027190D01*
X0112440Y0027310D01*
X0111730Y0027460D01*
X0111020Y0027660D01*
X0110320Y0027890D01*
X0109640Y0028150D01*
X0108970Y0028450D01*
X0108320Y0028790D01*
X0107680Y0029160D01*
X0107070Y0029570D01*
X0106480Y0030010D01*
X0105910Y0030470D01*
X0105370Y0030970D01*
X0104860Y0031500D01*
X0104380Y0032050D01*
X0103920Y0032620D01*
X0103500Y0033220D01*
X0103110Y0033840D01*
X0102750Y0034490D01*
X0102420Y0035140D01*
X0102140Y0035820D01*
X0101890Y0036510D01*
X0101670Y0037210D01*
X0101490Y0037920D01*
X0101360Y0038650D01*
X0101250Y0039370D01*
D13*
X0100000Y0041250D02*
X0086250Y0041250D01*
X0085000Y0042500D01*
X0085000Y0048750D01*
X0100000Y0048750D01*
X0100000Y0041250D01*
X0100000Y0033750D01*
X0086250Y0033750D01*
X0085000Y0035000D01*
X0085000Y0041250D01*
X0100000Y0041250D01*
X0098370Y0035120D02*
X0102120Y0028620D01*
X0090210Y0021750D01*
X0088500Y0022210D01*
X0085380Y0027620D01*
X0098370Y0035120D01*
X0099870Y0029620D02*
X0106370Y0025870D01*
X0099490Y0013960D01*
X0097790Y0013500D01*
X0092370Y0016630D01*
X0099870Y0029620D01*
X0104370Y0026250D02*
X0111870Y0026250D01*
X0111870Y0012500D01*
X0110620Y0011250D01*
X0104370Y0011250D01*
X0104370Y0026250D01*
X0111250Y0026250D02*
X0118750Y0026250D01*
X0118750Y0012500D01*
X0117500Y0011250D01*
X0111250Y0011250D01*
X0111250Y0026250D01*
X0118120Y0026250D02*
X0125620Y0026250D01*
X0125620Y0012500D01*
X0124370Y0011250D01*
X0118120Y0011250D01*
X0118120Y0026250D01*
X0123620Y0025870D02*
X0130120Y0029620D01*
X0136990Y0017710D01*
X0136540Y0016000D01*
X0131120Y0012880D01*
X0123620Y0025870D01*
X0127880Y0028620D02*
X0131630Y0035120D01*
X0143530Y0028240D01*
X0143990Y0026540D01*
X0140870Y0021120D01*
X0127880Y0028620D01*
X0130000Y0033750D02*
X0130000Y0041250D01*
X0143750Y0041250D01*
X0145000Y0040000D01*
X0145000Y0033750D01*
X0130000Y0033750D01*
X0130000Y0041250D02*
X0130000Y0048750D01*
X0130000Y0056250D01*
X0130000Y0063750D01*
X0143750Y0063750D01*
X0145000Y0062500D01*
X0145000Y0056250D01*
X0130000Y0056250D01*
X0143750Y0056250D01*
X0145000Y0055000D01*
X0145000Y0048750D01*
X0130000Y0048750D01*
X0143750Y0048750D01*
X0145000Y0047500D01*
X0145000Y0041250D01*
X0130000Y0041250D01*
X0130000Y0063750D02*
X0130000Y0071250D01*
X0143750Y0071250D01*
X0145000Y0070000D01*
X0145000Y0063750D01*
X0130000Y0063750D01*
X0131630Y0069250D02*
X0127880Y0075740D01*
X0139780Y0082620D01*
X0141490Y0082160D01*
X0144620Y0076750D01*
X0131630Y0069250D01*
X0130120Y0074750D02*
X0123620Y0078500D01*
X0130500Y0090410D01*
X0132210Y0090870D01*
X0137620Y0087740D01*
X0130120Y0074750D01*
X0125620Y0078750D02*
X0118120Y0078750D01*
X0118120Y0092500D01*
X0119370Y0093750D01*
X0125620Y0093750D01*
X0125620Y0078750D01*
X0118750Y0078750D02*
X0111250Y0078750D01*
X0111250Y0092500D01*
X0112500Y0093750D01*
X0118750Y0093750D01*
X0118750Y0078750D01*
X0111870Y0078750D02*
X0104370Y0078750D01*
X0104370Y0092500D01*
X0105620Y0093750D01*
X0111870Y0093750D01*
X0111870Y0078750D01*
X0106370Y0078500D02*
X0099870Y0074750D01*
X0093000Y0086660D01*
X0093460Y0088370D01*
X0098870Y0091490D01*
X0106370Y0078500D01*
X0102120Y0075740D02*
X0098370Y0069250D01*
X0086460Y0076120D01*
X0086000Y0077830D01*
X0089130Y0083240D01*
X0102120Y0075740D01*
X0100000Y0071250D02*
X0100000Y0063750D01*
X0086250Y0063750D01*
X0085000Y0065000D01*
X0085000Y0071250D01*
X0100000Y0071250D01*
X0100000Y0063750D02*
X0100000Y0056250D01*
X0100000Y0048750D01*
X0086250Y0048750D01*
X0085000Y0050000D01*
X0085000Y0056250D01*
X0100000Y0056250D01*
X0086250Y0056250D01*
X0085000Y0057500D01*
X0085000Y0063750D01*
X0100000Y0063750D01*
D15*
X0100340Y0063050D02*
X0099640Y0062350D01*
X0099640Y0060950D01*
X0100340Y0060250D01*
X0103150Y0060250D01*
X0103850Y0060950D01*
X0103850Y0062350D01*
X0103150Y0063050D01*
X0100340Y0063050D01*
X0100340Y0064850D02*
X0099640Y0065560D01*
X0099640Y0066960D01*
X0100340Y0067660D01*
X0101040Y0067660D01*
X0103850Y0064850D01*
X0103850Y0067660D01*
X0102450Y0058450D02*
X0099640Y0058450D01*
X0099640Y0055650D02*
X0102450Y0055650D01*
X0103850Y0057050D01*
X0102450Y0058450D01*
X0104600Y0046780D02*
X0104600Y0043980D01*
X0104600Y0045380D02*
X0100390Y0045380D01*
X0101790Y0043980D01*
X0101090Y0042180D02*
X0100390Y0041480D01*
X0100390Y0040080D01*
X0101090Y0039380D01*
X0103900Y0039380D01*
X0104600Y0040080D01*
X0104600Y0041480D01*
X0103900Y0042180D01*
X0101090Y0042180D01*
X0100390Y0037570D02*
X0103200Y0037570D01*
X0104600Y0036170D01*
X0103200Y0034770D01*
X0100390Y0034770D01*
X0110620Y0030850D02*
X0110620Y0028050D01*
X0112020Y0026650D01*
X0113420Y0028050D01*
X0113420Y0030850D01*
X0115220Y0030850D02*
X0116620Y0030850D01*
X0115920Y0030850D02*
X0115920Y0026650D01*
X0115220Y0026650D02*
X0116620Y0026650D01*
X0118290Y0026650D02*
X0118290Y0030850D01*
X0121100Y0026650D01*
X0121100Y0030850D01*
X0125390Y0041020D02*
X0128200Y0041020D01*
X0129600Y0042420D01*
X0128200Y0043820D01*
X0125390Y0043820D01*
X0126090Y0045630D02*
X0128900Y0045630D01*
X0129600Y0046330D01*
X0129600Y0047730D01*
X0128900Y0048430D01*
X0126090Y0048430D01*
X0125390Y0047730D01*
X0125390Y0046330D01*
X0126090Y0045630D01*
X0127490Y0050230D02*
X0127490Y0052330D01*
X0128200Y0053030D01*
X0128900Y0053030D01*
X0129600Y0052330D01*
X0129600Y0050930D01*
X0128900Y0050230D01*
X0127490Y0050230D01*
X0126090Y0051630D01*
X0125390Y0053030D01*
X0142770Y0074400D02*
X0145570Y0074400D01*
X0146970Y0075800D01*
X0145570Y0077200D01*
X0142770Y0077200D01*
X0143470Y0079000D02*
X0146270Y0079000D01*
X0146970Y0079700D01*
X0146970Y0081100D01*
X0146270Y0081800D01*
X0143470Y0081800D01*
X0142770Y0081100D01*
X0142770Y0079700D01*
X0143470Y0079000D01*
X0142770Y0083600D02*
X0144870Y0083600D01*
X0144170Y0085010D01*
X0144170Y0085710D01*
X0144870Y0086410D01*
X0146270Y0086410D01*
X0146970Y0085710D01*
X0146970Y0084310D01*
X0146270Y0083600D01*
X0142770Y0083600D02*
X0142770Y0086410D01*
X0142330Y0090400D02*
X0142330Y0094600D01*
X0140230Y0092500D01*
X0143030Y0092500D01*
X0138430Y0091100D02*
X0138430Y0093900D01*
X0137730Y0094600D01*
X0136330Y0094600D01*
X0135630Y0093900D01*
X0135630Y0091100D01*
X0136330Y0090400D01*
X0137730Y0090400D01*
X0138430Y0091100D01*
X0133820Y0091800D02*
X0133820Y0094600D01*
X0131020Y0094600D02*
X0131020Y0091800D01*
X0132420Y0090400D01*
X0133820Y0091800D01*
X0096440Y0092150D02*
X0096190Y0091200D01*
X0094970Y0090500D01*
X0094020Y0090750D01*
X0092460Y0089850D02*
X0091060Y0092280D01*
X0090100Y0092540D01*
X0088890Y0091840D01*
X0088630Y0090880D01*
X0090030Y0088450D01*
X0090990Y0088200D01*
X0092200Y0088900D01*
X0092460Y0089850D01*
X0094530Y0092670D02*
X0095140Y0093020D01*
X0096090Y0092760D01*
X0096440Y0092150D01*
X0095140Y0093020D02*
X0095390Y0093980D01*
X0095040Y0094580D01*
X0094090Y0094840D01*
X0092870Y0094140D01*
X0092620Y0093180D01*
X0086720Y0090580D02*
X0088120Y0088160D01*
X0087610Y0086240D01*
X0085690Y0086760D01*
X0084290Y0089180D01*
X0085020Y0014730D02*
X0085020Y0011920D01*
X0086420Y0010520D01*
X0087820Y0011920D01*
X0087820Y0014730D01*
X0089630Y0014020D02*
X0089630Y0011220D01*
X0090330Y0010520D01*
X0091730Y0010520D01*
X0092430Y0011220D01*
X0092430Y0014020D01*
X0091730Y0014730D01*
X0090330Y0014730D01*
X0089630Y0014020D01*
X0094230Y0014020D02*
X0094230Y0013320D01*
X0094930Y0012620D01*
X0096330Y0012620D01*
X0097030Y0011920D01*
X0097030Y0011220D01*
X0096330Y0010520D01*
X0094930Y0010520D01*
X0094230Y0011220D01*
X0094230Y0011920D01*
X0094930Y0012620D01*
X0096330Y0012620D02*
X0097030Y0013320D01*
X0097030Y0014020D01*
X0096330Y0014730D01*
X0094930Y0014730D01*
X0094230Y0014020D01*
X0134460Y0014480D02*
X0134460Y0011670D01*
X0135860Y0010270D01*
X0137260Y0011670D01*
X0137260Y0014480D01*
X0139060Y0013770D02*
X0139060Y0010970D01*
X0139760Y0010270D01*
X0141170Y0010270D01*
X0141870Y0010970D01*
X0141870Y0013770D01*
X0141170Y0014480D01*
X0139760Y0014480D01*
X0139060Y0013770D01*
X0143670Y0014480D02*
X0146470Y0014480D01*
X0146470Y0013770D01*
X0143670Y0010970D01*
X0143670Y0010270D01*
D15*
X0082100Y0010400D02*
X0082100Y0095400D01*
X0147900Y0095400D01*
X0147900Y0010400D01*
X0082100Y0010400D01*
X0155000Y0010000D02*
G75*
%LPD*%
D17*
X0155000Y0010000D02*
X0155000Y0095000D01*
X0220000Y0095000D01*
X0220000Y0010000D01*
X0155000Y0010000D01*
D11*
X0158120Y0012500D02*
X0158120Y0093120D01*
X0198750Y0093120D01*
X0218120Y0070000D02*
X0218120Y0052500D01*
X0196870Y0033750D02*
X0173120Y0033750D01*
X0173120Y0012500D01*
X0158120Y0012500D01*
X0196870Y0033750D02*
X0197860Y0033910D01*
X0198840Y0034100D01*
X0199810Y0034330D01*
X0200780Y0034600D01*
X0201730Y0034910D01*
X0202670Y0035250D01*
X0203600Y0035630D01*
X0204510Y0036050D01*
X0205400Y0036500D01*
X0206270Y0036980D01*
X0207130Y0037510D01*
X0207960Y0038060D01*
X0208780Y0038640D01*
X0209560Y0039260D01*
X0210330Y0039910D01*
X0211070Y0040590D01*
X0211780Y0041290D01*
X0212460Y0042020D01*
X0213110Y0042780D01*
X0213730Y0043570D01*
X0214330Y0044370D01*
X0214880Y0045200D01*
X0215410Y0046060D01*
X0215900Y0046930D01*
X0216360Y0047820D01*
X0216790Y0048720D01*
X0217170Y0049650D01*
X0217520Y0050590D01*
X0217840Y0051540D01*
X0218110Y0052500D01*
X0218120Y0070000D02*
X0217990Y0071020D01*
X0217810Y0072040D01*
X0217610Y0073050D01*
X0217360Y0074050D01*
X0217070Y0075040D01*
X0216750Y0076020D01*
X0216390Y0076990D01*
X0216000Y0077940D01*
X0215560Y0078880D01*
X0215100Y0079800D01*
X0214600Y0080700D01*
X0214060Y0081580D01*
X0213490Y0082440D01*
X0212890Y0083280D01*
X0212260Y0084090D01*
X0211600Y0084880D01*
X0210900Y0085650D01*
X0210180Y0086390D01*
X0209440Y0087100D01*
X0208660Y0087780D01*
X0207860Y0088430D01*
X0207040Y0089050D01*
X0206190Y0089640D01*
X0205320Y0090200D01*
X0204440Y0090720D01*
X0203530Y0091210D01*
X0202600Y0091660D01*
X0201660Y0092080D01*
X0200700Y0092460D01*
X0199730Y0092810D01*
X0198750Y0093120D01*
X0174940Y0063750D02*
X0174960Y0064470D01*
X0175020Y0065190D01*
X0175120Y0065900D01*
X0175250Y0066610D01*
X0175430Y0067310D01*
X0175640Y0067990D01*
X0175890Y0068670D01*
X0176180Y0069330D01*
X0176500Y0069970D01*
X0176860Y0070600D01*
X0177250Y0071200D01*
X0177670Y0071790D01*
X0178130Y0072340D01*
X0178610Y0072880D01*
X0179120Y0073380D01*
X0179660Y0073860D01*
X0180230Y0074310D01*
X0180820Y0074720D01*
X0181430Y0075100D01*
X0182060Y0075450D01*
X0182700Y0075770D01*
X0183370Y0076040D01*
X0184050Y0076280D01*
X0184740Y0076490D01*
X0185440Y0076650D01*
X0186150Y0076780D01*
X0186860Y0076870D01*
X0187580Y0076920D01*
X0188300Y0076930D01*
X0189020Y0076900D01*
X0189740Y0076830D01*
X0190450Y0076720D01*
X0191150Y0076580D01*
X0191850Y0076390D01*
X0192530Y0076170D01*
X0193210Y0075910D01*
X0193860Y0075610D01*
X0194500Y0075280D01*
X0195120Y0074920D01*
X0195720Y0074520D01*
X0196300Y0074090D01*
X0196850Y0073620D01*
X0197380Y0073130D01*
X0197870Y0072610D01*
X0198340Y0072070D01*
X0198780Y0071500D01*
X0199190Y0070900D01*
X0199560Y0070290D01*
X0199900Y0069650D01*
X0200210Y0069000D01*
X0200480Y0068330D01*
X0200710Y0067650D01*
X0200900Y0066960D01*
X0201060Y0066260D01*
X0201180Y0065540D01*
X0201260Y0064830D01*
X0201300Y0064110D01*
X0201300Y0063390D01*
X0201260Y0062670D01*
X0201180Y0061960D01*
X0201060Y0061240D01*
X0200900Y0060540D01*
X0200710Y0059850D01*
X0200480Y0059170D01*
X0200210Y0058500D01*
X0199900Y0057850D01*
X0199560Y0057210D01*
X0199190Y0056600D01*
X0198780Y0056000D01*
X0198340Y0055430D01*
X0197870Y0054890D01*
X0197380Y0054370D01*
X0196850Y0053880D01*
X0196300Y0053410D01*
X0195720Y0052980D01*
X0195120Y0052580D01*
X0194500Y0052220D01*
X0193860Y0051890D01*
X0193210Y0051590D01*
X0192530Y0051330D01*
X0191850Y0051110D01*
X0191150Y0050920D01*
X0190450Y0050780D01*
X0189740Y0050670D01*
X0189020Y0050600D01*
X0188300Y0050570D01*
X0187580Y0050580D01*
X0186860Y0050630D01*
X0186150Y0050720D01*
X0185440Y0050850D01*
X0184740Y0051010D01*
X0184050Y0051220D01*
X0183370Y0051460D01*
X0182700Y0051730D01*
X0182060Y0052050D01*
X0181430Y0052400D01*
X0180820Y0052780D01*
X0180230Y0053190D01*
X0179660Y0053640D01*
X0179120Y0054120D01*
X0178610Y0054620D01*
X0178130Y0055160D01*
X0177670Y0055710D01*
X0177250Y0056300D01*
X0176860Y0056900D01*
X0176500Y0057530D01*
X0176180Y0058170D01*
X0175890Y0058830D01*
X0175640Y0059510D01*
X0175430Y0060190D01*
X0175250Y0060890D01*
X0175120Y0061600D01*
X0175020Y0062310D01*
X0174960Y0063030D01*
X0174940Y0063750D01*
D13*
X0172500Y0061250D02*
X0157500Y0061250D01*
X0157500Y0067500D01*
X0171870Y0067500D01*
X0172500Y0066870D01*
X0172500Y0061250D01*
X0171870Y0060000D02*
X0172500Y0059370D01*
X0172500Y0053750D01*
X0157500Y0053750D01*
X0157500Y0060000D01*
X0171870Y0060000D01*
X0171870Y0051870D02*
X0172500Y0051250D01*
X0172500Y0045620D01*
X0157500Y0045620D01*
X0157500Y0051870D01*
X0171870Y0051870D01*
X0171870Y0048750D02*
X0178120Y0048750D01*
X0178120Y0034370D01*
X0177500Y0033750D01*
X0171870Y0033750D01*
X0171870Y0048750D01*
X0171870Y0043750D02*
X0172500Y0043120D01*
X0172500Y0037500D01*
X0157500Y0037500D01*
X0157500Y0043750D01*
X0171870Y0043750D01*
X0178120Y0048750D02*
X0184370Y0048750D01*
X0184370Y0034370D01*
X0183750Y0033750D01*
X0178120Y0033750D01*
X0178120Y0048750D01*
X0184370Y0048750D02*
X0190620Y0048750D01*
X0190620Y0034370D01*
X0190000Y0033750D01*
X0184370Y0033750D01*
X0184370Y0048750D01*
X0190640Y0048540D02*
X0196790Y0049630D01*
X0199290Y0035470D01*
X0198780Y0034750D01*
X0193240Y0033770D01*
X0190640Y0048540D01*
X0195640Y0048830D02*
X0200760Y0052420D01*
X0209010Y0040640D01*
X0208860Y0039770D01*
X0204250Y0036540D01*
X0195640Y0048830D01*
X0200690Y0051040D02*
X0203810Y0056450D01*
X0216260Y0049270D01*
X0216490Y0048410D01*
X0213680Y0043540D01*
X0200690Y0051040D01*
X0202500Y0055620D02*
X0202500Y0061870D01*
X0216870Y0061870D01*
X0217500Y0061250D01*
X0217500Y0055620D01*
X0202500Y0055620D01*
X0202500Y0063120D02*
X0202500Y0069370D01*
X0216870Y0069370D01*
X0217500Y0068750D01*
X0217500Y0063120D01*
X0202500Y0063120D01*
X0204210Y0068310D02*
X0201090Y0073720D01*
X0213530Y0080910D01*
X0214390Y0080680D01*
X0217200Y0075810D01*
X0204210Y0068310D01*
X0203030Y0073460D02*
X0197910Y0077040D01*
X0206160Y0088820D01*
X0207030Y0088970D01*
X0211630Y0085750D01*
X0203030Y0073460D01*
X0199140Y0077670D02*
X0193100Y0079290D01*
X0196820Y0093180D01*
X0197580Y0093620D01*
X0203020Y0092160D01*
X0199140Y0077670D01*
X0193120Y0078750D02*
X0186870Y0078750D01*
X0186870Y0093120D01*
X0187500Y0093750D01*
X0193120Y0093750D01*
X0193120Y0078750D01*
X0185620Y0078750D02*
X0179370Y0078750D01*
X0179370Y0093120D01*
X0180000Y0093750D01*
X0185620Y0093750D01*
X0185620Y0078750D01*
X0178120Y0078750D02*
X0171870Y0078750D01*
X0171870Y0093120D01*
X0172500Y0093750D01*
X0178120Y0093750D01*
X0178120Y0078750D01*
X0172500Y0076870D02*
X0157500Y0076870D01*
X0157500Y0083120D01*
X0171870Y0083120D01*
X0172500Y0082500D01*
X0172500Y0076870D01*
X0171870Y0075000D02*
X0172500Y0074370D01*
X0172500Y0068750D01*
X0157500Y0068750D01*
X0157500Y0075000D01*
X0171870Y0075000D01*
X0172500Y0084370D02*
X0157500Y0084370D01*
X0157500Y0090620D01*
X0171870Y0090620D01*
X0172500Y0090000D01*
X0172500Y0084370D01*
X0171870Y0035620D02*
X0157500Y0035620D01*
X0157500Y0029370D01*
X0172500Y0029370D01*
X0172500Y0035000D01*
X0171870Y0035620D01*
X0171870Y0027500D02*
X0172500Y0026870D01*
X0172500Y0021250D01*
X0157500Y0021250D01*
X0157500Y0027500D01*
X0171870Y0027500D01*
X0171870Y0019370D02*
X0172500Y0018750D01*
X0172500Y0013120D01*
X0157500Y0013120D01*
X0157500Y0019370D01*
X0171870Y0019370D01*
D15*
X0174400Y0017230D02*
X0174400Y0014420D01*
X0175800Y0013020D01*
X0177200Y0014420D01*
X0177200Y0017230D01*
X0179000Y0017230D02*
X0180400Y0017230D01*
X0179700Y0017230D02*
X0179700Y0013020D01*
X0179000Y0013020D02*
X0180400Y0013020D01*
X0182070Y0013020D02*
X0182070Y0017230D01*
X0184870Y0013020D01*
X0184870Y0017230D01*
X0185010Y0021770D02*
X0185010Y0025980D01*
X0183600Y0024570D01*
X0181800Y0025270D02*
X0181100Y0025980D01*
X0179700Y0025980D01*
X0179000Y0025270D01*
X0179000Y0022470D01*
X0179700Y0021770D01*
X0181100Y0021770D01*
X0181800Y0022470D01*
X0181800Y0025270D01*
X0183600Y0021770D02*
X0186410Y0021770D01*
X0186730Y0028650D02*
X0185330Y0028650D01*
X0184630Y0029350D01*
X0184630Y0032150D01*
X0185330Y0032850D01*
X0186730Y0032850D01*
X0187430Y0032150D01*
X0187430Y0029350D01*
X0186730Y0028650D01*
X0189230Y0029350D02*
X0189230Y0030050D01*
X0189930Y0030750D01*
X0191330Y0030750D01*
X0192030Y0030050D01*
X0192030Y0029350D01*
X0191330Y0028650D01*
X0189930Y0028650D01*
X0189230Y0029350D01*
X0189930Y0030750D02*
X0189230Y0031450D01*
X0189230Y0032150D01*
X0189930Y0032850D01*
X0191330Y0032850D01*
X0192030Y0032150D01*
X0192030Y0031450D01*
X0191330Y0030750D01*
X0194400Y0029420D02*
X0195800Y0028020D01*
X0197200Y0029420D01*
X0197200Y0032230D01*
X0199000Y0031520D02*
X0199000Y0028720D01*
X0199700Y0028020D01*
X0201100Y0028020D01*
X0201800Y0028720D01*
X0201800Y0031520D01*
X0201100Y0032230D01*
X0199700Y0032230D01*
X0199000Y0031520D01*
X0194400Y0032230D02*
X0194400Y0029420D01*
X0203600Y0028720D02*
X0203600Y0028020D01*
X0203600Y0028720D02*
X0206410Y0031520D01*
X0206410Y0032230D01*
X0203600Y0032230D01*
X0208280Y0036400D02*
X0210260Y0034420D01*
X0212240Y0034420D01*
X0212240Y0036400D01*
X0210260Y0038380D01*
X0212030Y0039160D02*
X0214010Y0037180D01*
X0215000Y0037180D01*
X0215990Y0038170D01*
X0215990Y0039160D01*
X0214010Y0041140D01*
X0213020Y0041140D01*
X0212030Y0040150D01*
X0212030Y0039160D01*
X0216280Y0041430D02*
X0217760Y0042910D01*
X0218750Y0042910D01*
X0219250Y0042420D01*
X0219250Y0041430D01*
X0218260Y0040430D01*
X0217270Y0040430D01*
X0216280Y0041430D01*
X0216280Y0043410D01*
X0216770Y0044890D01*
X0189520Y0074020D02*
X0189520Y0078230D01*
X0187420Y0076120D01*
X0190220Y0076120D01*
X0185620Y0074720D02*
X0185620Y0077520D01*
X0184920Y0078230D01*
X0183510Y0078230D01*
X0182810Y0077520D01*
X0182810Y0074720D01*
X0183510Y0074020D01*
X0184920Y0074020D01*
X0185620Y0074720D01*
X0181010Y0075420D02*
X0181010Y0078230D01*
X0178210Y0078230D02*
X0178210Y0075420D01*
X0179610Y0074020D01*
X0181010Y0075420D01*
X0176970Y0073830D02*
X0176970Y0072430D01*
X0176270Y0071730D01*
X0176970Y0073830D02*
X0176270Y0074530D01*
X0175570Y0074530D01*
X0174870Y0073830D01*
X0174870Y0073130D01*
X0174870Y0073830D02*
X0174170Y0074530D01*
X0173470Y0074530D01*
X0172770Y0073830D01*
X0172770Y0072430D01*
X0173470Y0071730D01*
X0173470Y0069930D02*
X0172770Y0069230D01*
X0172770Y0067830D01*
X0173470Y0067130D01*
X0176270Y0067130D01*
X0176970Y0067830D01*
X0176970Y0069230D01*
X0176270Y0069930D01*
X0173470Y0069930D01*
X0172770Y0065320D02*
X0175570Y0065320D01*
X0176970Y0063920D01*
X0175570Y0062520D01*
X0172770Y0062520D01*
X0175020Y0054100D02*
X0175020Y0051300D01*
X0176420Y0049900D01*
X0177820Y0051300D01*
X0177820Y0054100D01*
X0179630Y0053400D02*
X0179630Y0050600D01*
X0180330Y0049900D01*
X0181730Y0049900D01*
X0182430Y0050600D01*
X0182430Y0053400D01*
X0181730Y0054100D01*
X0180330Y0054100D01*
X0179630Y0053400D01*
X0184230Y0053400D02*
X0184930Y0054100D01*
X0186330Y0054100D01*
X0187030Y0053400D01*
X0187030Y0052700D01*
X0184230Y0049900D01*
X0187030Y0049900D01*
X0182820Y0032850D02*
X0182820Y0030050D01*
X0181420Y0028650D01*
X0180020Y0030050D01*
X0180020Y0032850D01*
X0177200Y0025980D02*
X0177200Y0023170D01*
X0175800Y0021770D01*
X0174400Y0023170D01*
X0174400Y0025980D01*
X0214150Y0083840D02*
X0213160Y0084830D01*
X0213160Y0085820D01*
X0214150Y0086810D02*
X0215640Y0086310D01*
X0216130Y0085820D01*
X0216130Y0084830D01*
X0215140Y0083840D01*
X0214150Y0083840D01*
X0214150Y0086810D02*
X0215640Y0088300D01*
X0217620Y0086310D01*
X0213870Y0089070D02*
X0213870Y0090060D01*
X0212880Y0091060D01*
X0211890Y0091060D01*
X0209910Y0089070D01*
X0209910Y0088080D01*
X0210900Y0087090D01*
X0211890Y0087090D01*
X0213870Y0089070D01*
X0211110Y0092820D02*
X0209130Y0090840D01*
X0207150Y0090840D01*
X0207150Y0092820D01*
X0209130Y0094810D01*
D15*
X0154600Y0010400D02*
X0154600Y0095400D01*
X0220400Y0095400D01*
X0220400Y0010400D01*
X0154600Y0010400D01*
X0010000Y0102500D02*
G75*
%LPD*%
D17*
X0010000Y0102500D02*
X0010000Y0187500D01*
X0075000Y0187500D01*
X0075000Y0102500D01*
X0010000Y0102500D01*
D11*
X0013750Y0118750D02*
X0026830Y0105670D01*
X0029950Y0104370D02*
X0055040Y0104370D01*
X0058170Y0105670D02*
X0071290Y0118790D01*
X0071870Y0120190D02*
X0071870Y0133700D01*
X0070070Y0138050D02*
X0057230Y0150890D01*
X0054850Y0151870D02*
X0035470Y0151870D01*
X0033600Y0152650D02*
X0027810Y0158440D01*
X0026870Y0160690D02*
X0026870Y0163110D01*
X0028200Y0166330D02*
X0033090Y0171210D01*
X0034680Y0171870D02*
X0049520Y0171870D01*
X0051400Y0171100D02*
X0060000Y0162500D01*
X0060360Y0162120D01*
X0060750Y0161770D01*
X0061170Y0161450D01*
X0061600Y0161160D01*
X0062060Y0160910D01*
X0062530Y0160690D01*
X0063020Y0160500D01*
X0063520Y0160350D01*
X0064030Y0160240D01*
X0064550Y0160160D01*
X0065070Y0160120D01*
X0065590Y0160130D01*
X0066120Y0160160D01*
X0066630Y0160240D01*
X0067140Y0160360D01*
X0067640Y0160510D01*
X0068130Y0160700D01*
X0068600Y0160920D01*
X0069060Y0161180D01*
X0069490Y0161470D01*
X0069910Y0161790D01*
X0070300Y0162140D01*
X0070660Y0162520D01*
X0070990Y0162920D01*
X0071290Y0163350D01*
X0071560Y0163790D01*
X0071800Y0164260D01*
X0072000Y0164740D01*
X0072170Y0165240D01*
X0072300Y0165740D01*
X0072390Y0166260D01*
X0072440Y0166780D01*
X0072460Y0167300D01*
X0072440Y0167820D01*
X0072380Y0168340D01*
X0072280Y0168860D01*
X0072140Y0169360D01*
X0071970Y0169860D01*
X0071760Y0170340D01*
X0071520Y0170800D01*
X0071250Y0171240D01*
X0071250Y0171250D02*
X0058530Y0183960D01*
X0054530Y0185620D02*
X0031500Y0185620D01*
X0025730Y0183230D02*
X0014860Y0173610D01*
X0011870Y0168170D02*
X0011870Y0156130D01*
X0013750Y0151250D02*
X0027570Y0139290D01*
X0031250Y0137500D02*
X0047500Y0137500D01*
X0052500Y0136250D02*
X0055000Y0133750D01*
X0056870Y0128050D02*
X0056870Y0126130D01*
X0056880Y0126130D02*
X0056870Y0125640D01*
X0056830Y0125160D01*
X0056760Y0124670D01*
X0056650Y0124200D01*
X0056510Y0123730D01*
X0056330Y0123270D01*
X0056130Y0122830D01*
X0055890Y0122400D01*
X0055620Y0122000D01*
X0055330Y0121610D01*
X0055000Y0121240D01*
X0050000Y0118750D02*
X0036250Y0118750D01*
X0031250Y0121250D02*
X0025000Y0127500D01*
X0025000Y0127490D02*
X0024640Y0127870D01*
X0024250Y0128220D01*
X0023830Y0128540D01*
X0023400Y0128830D01*
X0022940Y0129080D01*
X0022470Y0129300D01*
X0021980Y0129490D01*
X0021480Y0129640D01*
X0020970Y0129750D01*
X0020450Y0129830D01*
X0019930Y0129870D01*
X0019410Y0129860D01*
X0018880Y0129830D01*
X0018370Y0129750D01*
X0017860Y0129630D01*
X0017360Y0129480D01*
X0016870Y0129290D01*
X0016400Y0129070D01*
X0015940Y0128810D01*
X0015510Y0128520D01*
X0015090Y0128200D01*
X0014700Y0127850D01*
X0014340Y0127470D01*
X0014010Y0127070D01*
X0013710Y0126640D01*
X0013440Y0126200D01*
X0013200Y0125730D01*
X0013000Y0125250D01*
X0012830Y0124750D01*
X0012700Y0124250D01*
X0012610Y0123730D01*
X0012560Y0123210D01*
X0012540Y0122690D01*
X0012560Y0122170D01*
X0012620Y0121650D01*
X0012720Y0121130D01*
X0012860Y0120630D01*
X0013030Y0120130D01*
X0013240Y0119650D01*
X0013480Y0119190D01*
X0013750Y0118750D01*
X0026820Y0105660D02*
X0027110Y0105400D01*
X0027410Y0105170D01*
X0027740Y0104960D01*
X0028080Y0104780D01*
X0028440Y0104640D01*
X0028810Y0104520D01*
X0029180Y0104440D01*
X0029560Y0104390D01*
X0029950Y0104370D01*
X0036240Y0118750D02*
X0035720Y0118800D01*
X0035210Y0118900D01*
X0034710Y0119020D01*
X0034210Y0119190D01*
X0033730Y0119390D01*
X0033260Y0119620D01*
X0032820Y0119890D01*
X0032390Y0120180D01*
X0031980Y0120510D01*
X0031600Y0120870D01*
X0031250Y0121250D01*
X0056870Y0128060D02*
X0056890Y0128610D01*
X0056870Y0129170D01*
X0056810Y0129730D01*
X0056720Y0130280D01*
X0056580Y0130820D01*
X0056410Y0131350D01*
X0056190Y0131870D01*
X0055940Y0132370D01*
X0055660Y0132850D01*
X0055340Y0133310D01*
X0054990Y0133750D01*
X0052500Y0136250D02*
X0052100Y0136520D01*
X0051690Y0136760D01*
X0051260Y0136980D01*
X0050810Y0137160D01*
X0050350Y0137310D01*
X0049890Y0137420D01*
X0049410Y0137510D01*
X0048940Y0137560D01*
X0048460Y0137570D01*
X0047980Y0137550D01*
X0047500Y0137500D01*
X0054850Y0151880D02*
X0055180Y0151860D01*
X0055510Y0151820D01*
X0055830Y0151730D01*
X0056140Y0151620D01*
X0056440Y0151480D01*
X0056720Y0151310D01*
X0056990Y0151120D01*
X0057230Y0150890D01*
X0070080Y0138060D02*
X0070400Y0137700D01*
X0070700Y0137320D01*
X0070970Y0136920D01*
X0071210Y0136500D01*
X0071410Y0136060D01*
X0071580Y0135600D01*
X0071710Y0135140D01*
X0071800Y0134660D01*
X0071860Y0134180D01*
X0071880Y0133700D01*
X0071880Y0120190D02*
X0071860Y0119930D01*
X0071810Y0119680D01*
X0071730Y0119430D01*
X0071610Y0119200D01*
X0071470Y0118980D01*
X0071300Y0118790D01*
X0058170Y0105660D02*
X0057880Y0105400D01*
X0057580Y0105170D01*
X0057250Y0104960D01*
X0056910Y0104780D01*
X0056550Y0104640D01*
X0056180Y0104520D01*
X0055810Y0104440D01*
X0055430Y0104390D01*
X0055040Y0104370D01*
X0050000Y0118740D02*
X0050480Y0118770D01*
X0050950Y0118840D01*
X0051430Y0118940D01*
X0051890Y0119070D01*
X0052340Y0119240D01*
X0052780Y0119440D01*
X0053200Y0119670D01*
X0053600Y0119930D01*
X0053990Y0120220D01*
X0054350Y0120540D01*
X0054690Y0120880D01*
X0055000Y0121240D01*
X0031250Y0137500D02*
X0030830Y0137540D01*
X0030420Y0137620D01*
X0030010Y0137730D01*
X0029620Y0137860D01*
X0029230Y0138030D01*
X0028860Y0138230D01*
X0028510Y0138460D01*
X0028180Y0138710D01*
X0027870Y0138990D01*
X0027580Y0139300D01*
X0033600Y0152650D02*
X0033820Y0152450D01*
X0034060Y0152280D01*
X0034320Y0152130D01*
X0034590Y0152020D01*
X0034880Y0151940D01*
X0035170Y0151890D01*
X0035470Y0151870D01*
X0027800Y0158430D02*
X0027590Y0158670D01*
X0027410Y0158920D01*
X0027250Y0159190D01*
X0027110Y0159470D01*
X0027010Y0159760D01*
X0026930Y0160070D01*
X0026890Y0160380D01*
X0026870Y0160690D01*
X0026870Y0163110D02*
X0026890Y0163510D01*
X0026940Y0163900D01*
X0027030Y0164290D01*
X0027140Y0164670D01*
X0027300Y0165030D01*
X0027480Y0165380D01*
X0027690Y0165720D01*
X0027930Y0166030D01*
X0028200Y0166330D01*
X0033090Y0171210D02*
X0033310Y0171410D01*
X0033550Y0171570D01*
X0033820Y0171700D01*
X0034100Y0171790D01*
X0034390Y0171850D01*
X0034680Y0171870D01*
X0031500Y0185620D02*
X0030970Y0185600D01*
X0030440Y0185550D01*
X0029910Y0185460D01*
X0029390Y0185340D01*
X0028880Y0185190D01*
X0028380Y0185000D01*
X0027900Y0184780D01*
X0027420Y0184530D01*
X0026970Y0184250D01*
X0026540Y0183940D01*
X0026130Y0183600D01*
X0025740Y0183230D01*
X0014850Y0173610D02*
X0014450Y0173260D01*
X0014070Y0172890D01*
X0013720Y0172490D01*
X0013390Y0172080D01*
X0013090Y0171640D01*
X0012820Y0171180D01*
X0012580Y0170710D01*
X0012370Y0170220D01*
X0012200Y0169720D01*
X0012050Y0169210D01*
X0011940Y0168690D01*
X0011870Y0168160D01*
X0011870Y0156130D02*
X0011880Y0155640D01*
X0011920Y0155160D01*
X0011990Y0154670D01*
X0012100Y0154200D01*
X0012240Y0153730D01*
X0012420Y0153270D01*
X0012620Y0152830D01*
X0012860Y0152400D01*
X0013130Y0152000D01*
X0013420Y0151610D01*
X0013750Y0151240D01*
X0049520Y0171870D02*
X0049820Y0171850D01*
X0050110Y0171800D01*
X0050400Y0171720D01*
X0050670Y0171610D01*
X0050930Y0171460D01*
X0051170Y0171290D01*
X0051390Y0171090D01*
X0058530Y0183960D02*
X0058210Y0184260D01*
X0057860Y0184540D01*
X0057490Y0184790D01*
X0057100Y0185000D01*
X0056700Y0185190D01*
X0056280Y0185340D01*
X0055850Y0185460D01*
X0055420Y0185550D01*
X0054970Y0185600D01*
X0054530Y0185620D01*
D13*
X0060000Y0183120D02*
X0061250Y0181870D01*
X0061250Y0175620D01*
X0046250Y0175620D01*
X0046250Y0183120D01*
X0060000Y0183120D01*
X0065620Y0177500D02*
X0066870Y0176250D01*
X0066870Y0170000D01*
X0051870Y0170000D01*
X0051870Y0177500D01*
X0065620Y0177500D01*
X0071250Y0170620D02*
X0057500Y0170620D01*
X0057500Y0163120D01*
X0072500Y0163120D01*
X0072500Y0169370D01*
X0071250Y0170620D01*
X0060510Y0148750D02*
X0061760Y0147500D01*
X0061760Y0141250D01*
X0046760Y0141250D01*
X0046760Y0148750D01*
X0060510Y0148750D01*
X0067130Y0141980D02*
X0053380Y0141980D01*
X0053380Y0134480D01*
X0068380Y0134480D01*
X0068380Y0140730D01*
X0067130Y0141980D01*
X0071250Y0134370D02*
X0072500Y0133120D01*
X0072500Y0126870D01*
X0057500Y0126870D01*
X0057500Y0134370D01*
X0071250Y0134370D01*
X0071250Y0127500D02*
X0072500Y0126250D01*
X0072500Y0120000D01*
X0057500Y0120000D01*
X0057500Y0127500D01*
X0071250Y0127500D01*
X0066250Y0120620D02*
X0067500Y0119370D01*
X0067500Y0113120D01*
X0052500Y0113120D01*
X0052500Y0120620D01*
X0066250Y0120620D01*
X0060000Y0114370D02*
X0061250Y0113120D01*
X0061250Y0106870D01*
X0046250Y0106870D01*
X0046250Y0114370D01*
X0060000Y0114370D01*
X0046870Y0118750D02*
X0046870Y0103750D01*
X0039370Y0103750D01*
X0039370Y0117500D01*
X0040620Y0118750D01*
X0046870Y0118750D01*
X0040000Y0113120D02*
X0038750Y0114370D01*
X0025000Y0114370D01*
X0025000Y0106870D01*
X0040000Y0106870D01*
X0040000Y0113120D01*
X0032500Y0113120D02*
X0017500Y0113120D01*
X0017500Y0120620D01*
X0031250Y0120620D01*
X0032500Y0119370D01*
X0032500Y0113120D01*
X0026250Y0119370D02*
X0011250Y0119370D01*
X0011250Y0126870D01*
X0025000Y0126870D01*
X0026250Y0125620D01*
X0026250Y0119370D01*
X0039370Y0137500D02*
X0039370Y0151250D01*
X0040620Y0152500D01*
X0046870Y0152500D01*
X0046870Y0137500D01*
X0039370Y0137500D01*
X0039810Y0141320D02*
X0024810Y0141320D01*
X0024810Y0148820D01*
X0038560Y0148820D01*
X0039810Y0147570D01*
X0039810Y0141320D01*
X0031760Y0147860D02*
X0016760Y0147860D01*
X0016760Y0155360D01*
X0030510Y0155360D01*
X0031760Y0154110D01*
X0031760Y0147860D01*
X0026870Y0155000D02*
X0011870Y0155000D01*
X0011870Y0162500D01*
X0025620Y0162500D01*
X0026870Y0161250D01*
X0026870Y0155000D01*
X0026870Y0163120D02*
X0011870Y0163120D01*
X0011870Y0170620D01*
X0025620Y0170620D01*
X0026870Y0169370D01*
X0026870Y0163120D01*
X0033120Y0170000D02*
X0018120Y0170000D01*
X0018120Y0177500D01*
X0031870Y0177500D01*
X0033120Y0176250D01*
X0033120Y0170000D01*
X0039370Y0171870D02*
X0039370Y0185620D01*
X0040620Y0186870D01*
X0046870Y0186870D01*
X0046870Y0171870D01*
X0039370Y0171870D01*
X0040000Y0175620D02*
X0025000Y0175620D01*
X0025000Y0183120D01*
X0038750Y0183120D01*
X0040000Y0181870D01*
X0040000Y0175620D01*
D15*
X0036640Y0182270D02*
X0035240Y0182270D01*
X0034540Y0182970D01*
X0034540Y0184370D01*
X0036640Y0184370D01*
X0037350Y0183670D01*
X0037350Y0182970D01*
X0036640Y0182270D01*
X0034540Y0184370D02*
X0035940Y0185770D01*
X0037350Y0186480D01*
X0032740Y0185770D02*
X0032740Y0182970D01*
X0032040Y0182270D01*
X0030640Y0182270D01*
X0029940Y0182970D01*
X0029940Y0185770D01*
X0030640Y0186480D01*
X0032040Y0186480D01*
X0032740Y0185770D01*
X0028140Y0186480D02*
X0028140Y0183670D01*
X0026740Y0182270D01*
X0025330Y0183670D01*
X0025330Y0186480D01*
X0030330Y0167100D02*
X0030330Y0164300D01*
X0031740Y0162900D01*
X0033140Y0164300D01*
X0033140Y0167100D01*
X0034940Y0166400D02*
X0034940Y0163600D01*
X0035640Y0162900D01*
X0037040Y0162900D01*
X0037740Y0163600D01*
X0037740Y0166400D01*
X0037040Y0167100D01*
X0035640Y0167100D01*
X0034940Y0166400D01*
X0039540Y0167100D02*
X0039540Y0165000D01*
X0040940Y0165700D01*
X0041640Y0165700D01*
X0042350Y0165000D01*
X0042350Y0163600D01*
X0041640Y0162900D01*
X0040240Y0162900D01*
X0039540Y0163600D01*
X0039540Y0167100D02*
X0042350Y0167100D01*
X0042130Y0156290D02*
X0041430Y0155590D01*
X0041430Y0152790D01*
X0042130Y0152090D01*
X0043540Y0152090D01*
X0044240Y0152790D01*
X0044240Y0155590D01*
X0043540Y0156290D01*
X0042130Y0156290D01*
X0039630Y0156290D02*
X0039630Y0153490D01*
X0038230Y0152090D01*
X0036830Y0153490D01*
X0036830Y0156290D01*
X0046040Y0154190D02*
X0048840Y0154190D01*
X0048140Y0152090D02*
X0048140Y0156290D01*
X0046040Y0154190D01*
X0059430Y0151890D02*
X0059430Y0149910D01*
X0061410Y0149910D01*
X0063390Y0151890D01*
X0061410Y0153870D02*
X0059430Y0151890D01*
X0062190Y0148140D02*
X0062190Y0147150D01*
X0063180Y0146160D01*
X0064170Y0146160D01*
X0066150Y0148140D01*
X0066150Y0149130D01*
X0065160Y0150120D01*
X0064170Y0150120D01*
X0062190Y0148140D01*
X0065440Y0144880D02*
X0065440Y0143890D01*
X0066430Y0142900D01*
X0067420Y0142900D01*
X0067920Y0143400D01*
X0067920Y0144390D01*
X0067420Y0144880D01*
X0067920Y0144390D02*
X0068910Y0144390D01*
X0069400Y0144880D01*
X0069400Y0145870D01*
X0068410Y0146870D01*
X0067420Y0146870D01*
X0044690Y0123980D02*
X0044690Y0119770D01*
X0043290Y0119770D02*
X0046100Y0119770D01*
X0043290Y0122570D02*
X0044690Y0123980D01*
X0041490Y0123270D02*
X0041490Y0120470D01*
X0040790Y0119770D01*
X0039390Y0119770D01*
X0038690Y0120470D01*
X0038690Y0123270D01*
X0039390Y0123980D01*
X0040790Y0123980D01*
X0041490Y0123270D01*
X0036890Y0123980D02*
X0036890Y0121170D01*
X0035490Y0119770D01*
X0034080Y0121170D01*
X0034080Y0123980D01*
X0026100Y0128520D02*
X0026100Y0132730D01*
X0023290Y0132730D02*
X0023290Y0128520D01*
X0021620Y0128520D02*
X0020220Y0128520D01*
X0020920Y0128520D02*
X0020920Y0132730D01*
X0020220Y0132730D02*
X0021620Y0132730D01*
X0023290Y0132730D02*
X0026100Y0128520D01*
X0018420Y0129920D02*
X0018420Y0132730D01*
X0018420Y0129920D02*
X0017020Y0128520D01*
X0015620Y0129920D01*
X0015620Y0132730D01*
X0061930Y0107990D02*
X0063910Y0106010D01*
X0065890Y0106010D01*
X0065890Y0107990D01*
X0063910Y0109970D01*
X0065680Y0110750D02*
X0065680Y0111740D01*
X0066670Y0112730D01*
X0067660Y0112730D01*
X0069640Y0110750D01*
X0069640Y0109760D01*
X0068650Y0108770D01*
X0067660Y0108770D01*
X0065680Y0110750D01*
X0068940Y0114010D02*
X0068940Y0115000D01*
X0069930Y0115990D01*
X0070920Y0115990D01*
X0071410Y0115490D01*
X0071410Y0111530D01*
X0073390Y0113510D01*
X0068770Y0175340D02*
X0069270Y0175840D01*
X0073230Y0175840D01*
X0073730Y0176330D01*
X0071740Y0178310D01*
X0069970Y0179090D02*
X0069970Y0180080D01*
X0068980Y0181070D01*
X0067990Y0181070D01*
X0066010Y0179090D01*
X0066010Y0178100D01*
X0067000Y0177110D01*
X0067990Y0177110D01*
X0069970Y0179090D01*
X0067210Y0182840D02*
X0065230Y0180860D01*
X0063250Y0180860D01*
X0063250Y0182840D01*
X0065230Y0184820D01*
D15*
X0010400Y0102100D02*
X0010400Y0187900D01*
X0010400Y0187900D02*
X0075400Y0187900D01*
X0075400Y0102100D01*
X0010400Y0102100D01*
X0082500Y0102500D02*
G75*
%LPD*%
D17*
X0082500Y0102500D02*
X0082500Y0187500D01*
X0147500Y0187500D01*
X0147500Y0102500D01*
X0082500Y0102500D01*
D11*
X0085620Y0105000D02*
X0085620Y0185620D01*
X0126250Y0185620D01*
X0145620Y0162500D02*
X0145620Y0145000D01*
X0124370Y0126250D02*
X0100620Y0126250D01*
X0100620Y0105000D01*
X0085620Y0105000D01*
X0124370Y0126250D02*
X0125360Y0126410D01*
X0126340Y0126600D01*
X0127310Y0126830D01*
X0128280Y0127100D01*
X0129230Y0127410D01*
X0130170Y0127750D01*
X0131100Y0128130D01*
X0132010Y0128550D01*
X0132900Y0129000D01*
X0133770Y0129480D01*
X0134630Y0130010D01*
X0135460Y0130560D01*
X0136280Y0131140D01*
X0137060Y0131760D01*
X0137830Y0132410D01*
X0138570Y0133090D01*
X0139280Y0133790D01*
X0139960Y0134520D01*
X0140610Y0135280D01*
X0141230Y0136070D01*
X0141830Y0136870D01*
X0142380Y0137700D01*
X0142910Y0138560D01*
X0143400Y0139430D01*
X0143860Y0140320D01*
X0144290Y0141220D01*
X0144670Y0142150D01*
X0145020Y0143090D01*
X0145340Y0144040D01*
X0145610Y0145000D01*
X0145620Y0162500D02*
X0145490Y0163520D01*
X0145310Y0164540D01*
X0145110Y0165550D01*
X0144860Y0166550D01*
X0144570Y0167540D01*
X0144250Y0168520D01*
X0143890Y0169490D01*
X0143500Y0170440D01*
X0143060Y0171380D01*
X0142600Y0172300D01*
X0142100Y0173200D01*
X0141560Y0174080D01*
X0140990Y0174940D01*
X0140390Y0175780D01*
X0139760Y0176590D01*
X0139100Y0177380D01*
X0138400Y0178150D01*
X0137680Y0178890D01*
X0136940Y0179600D01*
X0136160Y0180280D01*
X0135360Y0180930D01*
X0134540Y0181550D01*
X0133690Y0182140D01*
X0132820Y0182700D01*
X0131940Y0183220D01*
X0131030Y0183710D01*
X0130100Y0184160D01*
X0129160Y0184580D01*
X0128200Y0184960D01*
X0127230Y0185310D01*
X0126250Y0185620D01*
X0102440Y0156250D02*
X0102460Y0156970D01*
X0102520Y0157690D01*
X0102620Y0158400D01*
X0102750Y0159110D01*
X0102930Y0159810D01*
X0103140Y0160490D01*
X0103390Y0161170D01*
X0103680Y0161830D01*
X0104000Y0162470D01*
X0104360Y0163100D01*
X0104750Y0163700D01*
X0105170Y0164290D01*
X0105630Y0164840D01*
X0106110Y0165380D01*
X0106620Y0165880D01*
X0107160Y0166360D01*
X0107730Y0166810D01*
X0108320Y0167220D01*
X0108930Y0167600D01*
X0109560Y0167950D01*
X0110200Y0168270D01*
X0110870Y0168540D01*
X0111550Y0168780D01*
X0112240Y0168990D01*
X0112940Y0169150D01*
X0113650Y0169280D01*
X0114360Y0169370D01*
X0115080Y0169420D01*
X0115800Y0169430D01*
X0116520Y0169400D01*
X0117240Y0169330D01*
X0117950Y0169220D01*
X0118650Y0169080D01*
X0119350Y0168890D01*
X0120030Y0168670D01*
X0120710Y0168410D01*
X0121360Y0168110D01*
X0122000Y0167780D01*
X0122620Y0167420D01*
X0123220Y0167020D01*
X0123800Y0166590D01*
X0124350Y0166120D01*
X0124880Y0165630D01*
X0125370Y0165110D01*
X0125840Y0164570D01*
X0126280Y0164000D01*
X0126690Y0163400D01*
X0127060Y0162790D01*
X0127400Y0162150D01*
X0127710Y0161500D01*
X0127980Y0160830D01*
X0128210Y0160150D01*
X0128400Y0159460D01*
X0128560Y0158760D01*
X0128680Y0158040D01*
X0128760Y0157330D01*
X0128800Y0156610D01*
X0128800Y0155890D01*
X0128760Y0155170D01*
X0128680Y0154460D01*
X0128560Y0153740D01*
X0128400Y0153040D01*
X0128210Y0152350D01*
X0127980Y0151670D01*
X0127710Y0151000D01*
X0127400Y0150350D01*
X0127060Y0149710D01*
X0126690Y0149100D01*
X0126280Y0148500D01*
X0125840Y0147930D01*
X0125370Y0147390D01*
X0124880Y0146870D01*
X0124350Y0146380D01*
X0123800Y0145910D01*
X0123220Y0145480D01*
X0122620Y0145080D01*
X0122000Y0144720D01*
X0121360Y0144390D01*
X0120710Y0144090D01*
X0120030Y0143830D01*
X0119350Y0143610D01*
X0118650Y0143420D01*
X0117950Y0143280D01*
X0117240Y0143170D01*
X0116520Y0143100D01*
X0115800Y0143070D01*
X0115080Y0143080D01*
X0114360Y0143130D01*
X0113650Y0143220D01*
X0112940Y0143350D01*
X0112240Y0143510D01*
X0111550Y0143720D01*
X0110870Y0143960D01*
X0110200Y0144230D01*
X0109560Y0144550D01*
X0108930Y0144900D01*
X0108320Y0145280D01*
X0107730Y0145690D01*
X0107160Y0146140D01*
X0106620Y0146620D01*
X0106110Y0147120D01*
X0105630Y0147660D01*
X0105170Y0148210D01*
X0104750Y0148800D01*
X0104360Y0149400D01*
X0104000Y0150030D01*
X0103680Y0150670D01*
X0103390Y0151330D01*
X0103140Y0152010D01*
X0102930Y0152690D01*
X0102750Y0153390D01*
X0102620Y0154100D01*
X0102520Y0154810D01*
X0102460Y0155530D01*
X0102440Y0156250D01*
D13*
X0100000Y0153750D02*
X0085000Y0153750D01*
X0085000Y0160000D01*
X0099370Y0160000D01*
X0100000Y0159370D01*
X0100000Y0153750D01*
X0099370Y0152500D02*
X0100000Y0151870D01*
X0100000Y0146250D01*
X0085000Y0146250D01*
X0085000Y0152500D01*
X0099370Y0152500D01*
X0099370Y0144370D02*
X0100000Y0143750D01*
X0100000Y0138120D01*
X0085000Y0138120D01*
X0085000Y0144370D01*
X0099370Y0144370D01*
X0099370Y0141250D02*
X0105620Y0141250D01*
X0105620Y0126870D01*
X0105000Y0126250D01*
X0099370Y0126250D01*
X0099370Y0141250D01*
X0099370Y0136250D02*
X0100000Y0135620D01*
X0100000Y0130000D01*
X0085000Y0130000D01*
X0085000Y0136250D01*
X0099370Y0136250D01*
X0105620Y0141250D02*
X0111870Y0141250D01*
X0111870Y0126870D01*
X0111250Y0126250D01*
X0105620Y0126250D01*
X0105620Y0141250D01*
X0111870Y0141250D02*
X0118120Y0141250D01*
X0118120Y0126870D01*
X0117500Y0126250D01*
X0111870Y0126250D01*
X0111870Y0141250D01*
X0118140Y0141040D02*
X0124290Y0142130D01*
X0126790Y0127970D01*
X0126280Y0127250D01*
X0120740Y0126270D01*
X0118140Y0141040D01*
X0123140Y0141330D02*
X0128260Y0144920D01*
X0136510Y0133140D01*
X0136360Y0132270D01*
X0131750Y0129040D01*
X0123140Y0141330D01*
X0128190Y0143540D02*
X0131310Y0148950D01*
X0143760Y0141770D01*
X0143990Y0140910D01*
X0141180Y0136040D01*
X0128190Y0143540D01*
X0130000Y0148120D02*
X0130000Y0154370D01*
X0144370Y0154370D01*
X0145000Y0153750D01*
X0145000Y0148120D01*
X0130000Y0148120D01*
X0130000Y0155620D02*
X0130000Y0161870D01*
X0144370Y0161870D01*
X0145000Y0161250D01*
X0145000Y0155620D01*
X0130000Y0155620D01*
X0131710Y0160810D02*
X0128590Y0166220D01*
X0141030Y0173410D01*
X0141890Y0173180D01*
X0144700Y0168310D01*
X0131710Y0160810D01*
X0130530Y0165960D02*
X0125410Y0169540D01*
X0133660Y0181320D01*
X0134530Y0181470D01*
X0139130Y0178250D01*
X0130530Y0165960D01*
X0126640Y0170170D02*
X0120600Y0171790D01*
X0124320Y0185680D01*
X0125080Y0186120D01*
X0130520Y0184660D01*
X0126640Y0170170D01*
X0120620Y0171250D02*
X0114370Y0171250D01*
X0114370Y0185620D01*
X0115000Y0186250D01*
X0120620Y0186250D01*
X0120620Y0171250D01*
X0113120Y0171250D02*
X0106870Y0171250D01*
X0106870Y0185620D01*
X0107500Y0186250D01*
X0113120Y0186250D01*
X0113120Y0171250D01*
X0105620Y0171250D02*
X0099370Y0171250D01*
X0099370Y0185620D01*
X0100000Y0186250D01*
X0105620Y0186250D01*
X0105620Y0171250D01*
X0100000Y0169370D02*
X0085000Y0169370D01*
X0085000Y0175620D01*
X0099370Y0175620D01*
X0100000Y0175000D01*
X0100000Y0169370D01*
X0099370Y0167500D02*
X0100000Y0166870D01*
X0100000Y0161250D01*
X0085000Y0161250D01*
X0085000Y0167500D01*
X0099370Y0167500D01*
X0100000Y0176870D02*
X0085000Y0176870D01*
X0085000Y0183120D01*
X0099370Y0183120D01*
X0100000Y0182500D01*
X0100000Y0176870D01*
X0099370Y0128120D02*
X0085000Y0128120D01*
X0085000Y0121870D01*
X0100000Y0121870D01*
X0100000Y0127500D01*
X0099370Y0128120D01*
X0099370Y0120000D02*
X0100000Y0119370D01*
X0100000Y0113750D01*
X0085000Y0113750D01*
X0085000Y0120000D01*
X0099370Y0120000D01*
X0099370Y0111870D02*
X0100000Y0111250D01*
X0100000Y0105620D01*
X0085000Y0105620D01*
X0085000Y0111870D01*
X0099370Y0111870D01*
D15*
X0101900Y0109730D02*
X0101900Y0106920D01*
X0103300Y0105520D01*
X0104700Y0106920D01*
X0104700Y0109730D01*
X0106500Y0109730D02*
X0107900Y0109730D01*
X0107200Y0109730D02*
X0107200Y0105520D01*
X0106500Y0105520D02*
X0107900Y0105520D01*
X0109570Y0105520D02*
X0109570Y0109730D01*
X0112370Y0105520D01*
X0112370Y0109730D01*
X0112510Y0114270D02*
X0112510Y0118480D01*
X0111100Y0117070D01*
X0109300Y0117770D02*
X0108600Y0118480D01*
X0107200Y0118480D01*
X0106500Y0117770D01*
X0106500Y0114970D01*
X0107200Y0114270D01*
X0108600Y0114270D01*
X0109300Y0114970D01*
X0109300Y0117770D01*
X0111100Y0114270D02*
X0113910Y0114270D01*
X0114230Y0121150D02*
X0112830Y0121150D01*
X0112130Y0121850D01*
X0112130Y0124650D01*
X0112830Y0125350D01*
X0114230Y0125350D01*
X0114930Y0124650D01*
X0114930Y0121850D01*
X0114230Y0121150D01*
X0116730Y0121850D02*
X0116730Y0122550D01*
X0117430Y0123250D01*
X0118830Y0123250D01*
X0119530Y0122550D01*
X0119530Y0121850D01*
X0118830Y0121150D01*
X0117430Y0121150D01*
X0116730Y0121850D01*
X0117430Y0123250D02*
X0116730Y0123950D01*
X0116730Y0124650D01*
X0117430Y0125350D01*
X0118830Y0125350D01*
X0119530Y0124650D01*
X0119530Y0123950D01*
X0118830Y0123250D01*
X0121900Y0121920D02*
X0123300Y0120520D01*
X0124700Y0121920D01*
X0124700Y0124730D01*
X0126500Y0124020D02*
X0126500Y0121220D01*
X0127200Y0120520D01*
X0128600Y0120520D01*
X0129300Y0121220D01*
X0129300Y0124020D01*
X0128600Y0124730D01*
X0127200Y0124730D01*
X0126500Y0124020D01*
X0121900Y0124730D02*
X0121900Y0121920D01*
X0131100Y0121220D02*
X0131100Y0120520D01*
X0131100Y0121220D02*
X0133910Y0124020D01*
X0133910Y0124730D01*
X0131100Y0124730D01*
X0135780Y0128900D02*
X0137760Y0126920D01*
X0139740Y0126920D01*
X0139740Y0128900D01*
X0137760Y0130880D01*
X0139530Y0131660D02*
X0141510Y0129680D01*
X0142500Y0129680D01*
X0143490Y0130670D01*
X0143490Y0131660D01*
X0141510Y0133640D01*
X0140520Y0133640D01*
X0139530Y0132650D01*
X0139530Y0131660D01*
X0143780Y0133930D02*
X0145260Y0135410D01*
X0146250Y0135410D01*
X0146750Y0134920D01*
X0146750Y0133930D01*
X0145760Y0132930D01*
X0144770Y0132930D01*
X0143780Y0133930D01*
X0143780Y0135910D01*
X0144270Y0137390D01*
X0117020Y0166520D02*
X0117020Y0170730D01*
X0114920Y0168620D01*
X0117720Y0168620D01*
X0113120Y0167220D02*
X0113120Y0170020D01*
X0112420Y0170730D01*
X0111010Y0170730D01*
X0110310Y0170020D01*
X0110310Y0167220D01*
X0111010Y0166520D01*
X0112420Y0166520D01*
X0113120Y0167220D01*
X0108510Y0167920D02*
X0108510Y0170730D01*
X0105710Y0170730D02*
X0105710Y0167920D01*
X0107110Y0166520D01*
X0108510Y0167920D01*
X0104470Y0166330D02*
X0104470Y0164930D01*
X0103770Y0164230D01*
X0104470Y0166330D02*
X0103770Y0167030D01*
X0103070Y0167030D01*
X0102370Y0166330D01*
X0102370Y0165630D01*
X0102370Y0166330D02*
X0101670Y0167030D01*
X0100970Y0167030D01*
X0100270Y0166330D01*
X0100270Y0164930D01*
X0100970Y0164230D01*
X0100970Y0162430D02*
X0100270Y0161730D01*
X0100270Y0160330D01*
X0100970Y0159630D01*
X0103770Y0159630D01*
X0104470Y0160330D01*
X0104470Y0161730D01*
X0103770Y0162430D01*
X0100970Y0162430D01*
X0100270Y0157820D02*
X0103070Y0157820D01*
X0104470Y0156420D01*
X0103070Y0155020D01*
X0100270Y0155020D01*
X0102520Y0146600D02*
X0102520Y0143800D01*
X0103920Y0142400D01*
X0105320Y0143800D01*
X0105320Y0146600D01*
X0107130Y0145900D02*
X0107130Y0143100D01*
X0107830Y0142400D01*
X0109230Y0142400D01*
X0109930Y0143100D01*
X0109930Y0145900D01*
X0109230Y0146600D01*
X0107830Y0146600D01*
X0107130Y0145900D01*
X0111730Y0145900D02*
X0112430Y0146600D01*
X0113830Y0146600D01*
X0114530Y0145900D01*
X0114530Y0145200D01*
X0111730Y0142400D01*
X0114530Y0142400D01*
X0110320Y0125350D02*
X0110320Y0122550D01*
X0108920Y0121150D01*
X0107520Y0122550D01*
X0107520Y0125350D01*
X0104700Y0118480D02*
X0104700Y0115670D01*
X0103300Y0114270D01*
X0101900Y0115670D01*
X0101900Y0118480D01*
X0141650Y0176340D02*
X0140660Y0177330D01*
X0140660Y0178320D01*
X0141650Y0179310D02*
X0143140Y0178810D01*
X0143630Y0178320D01*
X0143630Y0177330D01*
X0142640Y0176340D01*
X0141650Y0176340D01*
X0141650Y0179310D02*
X0143140Y0180800D01*
X0145120Y0178810D01*
X0141370Y0181570D02*
X0141370Y0182560D01*
X0140380Y0183560D01*
X0139390Y0183560D01*
X0137410Y0181570D01*
X0137410Y0180580D01*
X0138400Y0179590D01*
X0139390Y0179590D01*
X0141370Y0181570D01*
X0138610Y0185320D02*
X0136630Y0183340D01*
X0134650Y0183340D01*
X0134650Y0185320D01*
X0136630Y0187310D01*
D15*
X0082100Y0102100D02*
X0082100Y0187900D01*
X0147900Y0187900D01*
X0147900Y0102100D01*
X0082100Y0102100D01*
X0155000Y0102500D02*
G75*
%LPD*%
D17*
X0155000Y0102500D02*
X0155000Y0187500D01*
X0220000Y0187500D01*
X0220000Y0102500D01*
X0155000Y0102500D01*
D11*
X0170000Y0105510D02*
X0170000Y0116980D01*
X0169990Y0116980D02*
X0170010Y0117230D01*
X0170060Y0117480D01*
X0170150Y0117720D01*
X0170270Y0117940D01*
X0170420Y0118140D01*
X0170600Y0118320D01*
X0170800Y0118470D01*
X0171020Y0118590D01*
X0171260Y0118680D01*
X0171510Y0118730D01*
X0171760Y0118750D01*
X0178230Y0118750D01*
X0178230Y0118740D02*
X0178480Y0118760D01*
X0178730Y0118810D01*
X0178970Y0118900D01*
X0179190Y0119020D01*
X0179390Y0119170D01*
X0179570Y0119350D01*
X0179720Y0119550D01*
X0179840Y0119770D01*
X0179930Y0120010D01*
X0179980Y0120260D01*
X0180000Y0120510D01*
X0180000Y0169480D01*
X0179980Y0169730D01*
X0179930Y0169980D01*
X0179840Y0170220D01*
X0179720Y0170440D01*
X0179570Y0170640D01*
X0179390Y0170820D01*
X0179190Y0170970D01*
X0178970Y0171090D01*
X0178730Y0171180D01*
X0178480Y0171230D01*
X0178230Y0171250D01*
X0172500Y0171250D01*
X0172200Y0171270D01*
X0171900Y0171320D01*
X0171610Y0171410D01*
X0171340Y0171540D01*
X0171080Y0171690D01*
X0170840Y0171880D01*
X0170630Y0172090D01*
X0170440Y0172330D01*
X0170290Y0172590D01*
X0170160Y0172860D01*
X0170070Y0173150D01*
X0170020Y0173450D01*
X0170000Y0173750D01*
X0170000Y0184480D01*
X0169990Y0184480D02*
X0170010Y0184730D01*
X0170060Y0184980D01*
X0170150Y0185220D01*
X0170270Y0185440D01*
X0170420Y0185640D01*
X0170600Y0185820D01*
X0170800Y0185970D01*
X0171020Y0186090D01*
X0171260Y0186180D01*
X0171510Y0186230D01*
X0171760Y0186250D01*
X0203230Y0186250D01*
X0203480Y0186230D01*
X0203730Y0186180D01*
X0203970Y0186090D01*
X0204190Y0185970D01*
X0204390Y0185820D01*
X0204570Y0185640D01*
X0204720Y0185440D01*
X0204840Y0185220D01*
X0204930Y0184980D01*
X0204980Y0184730D01*
X0205000Y0184480D01*
X0205000Y0172500D01*
X0204980Y0172300D01*
X0204940Y0172110D01*
X0204860Y0171930D01*
X0204760Y0171770D01*
X0204630Y0171620D01*
X0204480Y0171490D01*
X0204320Y0171390D01*
X0204140Y0171310D01*
X0203950Y0171270D01*
X0203750Y0171250D01*
X0196760Y0171250D01*
X0196510Y0171230D01*
X0196260Y0171180D01*
X0196020Y0171090D01*
X0195800Y0170970D01*
X0195600Y0170820D01*
X0195420Y0170640D01*
X0195270Y0170440D01*
X0195150Y0170220D01*
X0195060Y0169980D01*
X0195010Y0169730D01*
X0194990Y0169480D01*
X0195000Y0169480D02*
X0195000Y0120510D01*
X0194990Y0120510D02*
X0195010Y0120260D01*
X0195060Y0120010D01*
X0195150Y0119770D01*
X0195270Y0119550D01*
X0195420Y0119350D01*
X0195600Y0119170D01*
X0195800Y0119020D01*
X0196020Y0118900D01*
X0196260Y0118810D01*
X0196510Y0118760D01*
X0196760Y0118740D01*
X0196760Y0118750D02*
X0203230Y0118750D01*
X0203480Y0118730D01*
X0203730Y0118680D01*
X0203970Y0118590D01*
X0204190Y0118470D01*
X0204390Y0118320D01*
X0204570Y0118140D01*
X0204720Y0117940D01*
X0204840Y0117720D01*
X0204930Y0117480D01*
X0204980Y0117230D01*
X0205000Y0116980D01*
X0205000Y0105510D01*
X0204980Y0105260D01*
X0204930Y0105010D01*
X0204840Y0104770D01*
X0204720Y0104550D01*
X0204570Y0104350D01*
X0204390Y0104170D01*
X0204190Y0104020D01*
X0203970Y0103900D01*
X0203730Y0103810D01*
X0203480Y0103760D01*
X0203230Y0103740D01*
X0203230Y0103750D02*
X0171760Y0103750D01*
X0171760Y0103740D02*
X0171510Y0103760D01*
X0171260Y0103810D01*
X0171020Y0103900D01*
X0170800Y0104020D01*
X0170600Y0104170D01*
X0170420Y0104350D01*
X0170270Y0104550D01*
X0170150Y0104770D01*
X0170060Y0105010D01*
X0170010Y0105260D01*
X0169990Y0105510D01*
D13*
X0170000Y0103750D02*
X0170000Y0117500D01*
X0171250Y0118750D01*
X0177500Y0118750D01*
X0177500Y0103750D01*
X0170000Y0103750D01*
X0179370Y0103750D02*
X0179370Y0117500D01*
X0180620Y0118750D01*
X0186870Y0118750D01*
X0186870Y0103750D01*
X0179370Y0103750D01*
X0188120Y0103750D02*
X0188120Y0117500D01*
X0189370Y0118750D01*
X0195620Y0118750D01*
X0195620Y0103750D01*
X0188120Y0103750D01*
X0197500Y0103750D02*
X0197500Y0117500D01*
X0198750Y0118750D01*
X0205000Y0118750D01*
X0205000Y0103750D01*
X0197500Y0103750D01*
X0195000Y0117500D02*
X0180000Y0117500D01*
X0180000Y0125000D01*
X0193750Y0125000D01*
X0195000Y0123750D01*
X0195000Y0117500D01*
X0195000Y0125620D02*
X0180000Y0125620D01*
X0180000Y0133120D01*
X0193750Y0133120D01*
X0195000Y0131870D01*
X0195000Y0125620D01*
X0195000Y0133750D02*
X0180000Y0133750D01*
X0180000Y0141250D01*
X0193750Y0141250D01*
X0195000Y0140000D01*
X0195000Y0133750D01*
X0195000Y0141250D02*
X0180000Y0141250D01*
X0180000Y0148750D01*
X0193750Y0148750D01*
X0195000Y0147500D01*
X0195000Y0141250D01*
X0195000Y0149370D02*
X0180000Y0149370D01*
X0180000Y0156870D01*
X0193750Y0156870D01*
X0195000Y0155620D01*
X0195000Y0149370D01*
X0195000Y0157500D02*
X0180000Y0157500D01*
X0180000Y0165000D01*
X0193750Y0165000D01*
X0195000Y0163750D01*
X0195000Y0157500D01*
X0195000Y0165000D02*
X0180000Y0165000D01*
X0180000Y0172500D01*
X0193750Y0172500D01*
X0195000Y0171250D01*
X0195000Y0165000D01*
X0195620Y0171250D02*
X0188120Y0171250D01*
X0188120Y0185000D01*
X0189370Y0186250D01*
X0195620Y0186250D01*
X0195620Y0171250D01*
X0197500Y0171250D02*
X0197500Y0185000D01*
X0198750Y0186250D01*
X0205000Y0186250D01*
X0205000Y0171250D01*
X0197500Y0171250D01*
X0186870Y0171250D02*
X0179370Y0171250D01*
X0179370Y0185000D01*
X0180620Y0186250D01*
X0186870Y0186250D01*
X0186870Y0171250D01*
X0177500Y0171250D02*
X0170000Y0171250D01*
X0170000Y0185000D01*
X0171250Y0186250D01*
X0177500Y0186250D01*
X0177500Y0171250D01*
D15*
X0169600Y0174300D02*
X0168200Y0175700D01*
X0165390Y0175700D01*
X0166090Y0177500D02*
X0168900Y0177500D01*
X0169600Y0178200D01*
X0169600Y0179600D01*
X0168900Y0180300D01*
X0166090Y0180300D01*
X0165390Y0179600D01*
X0165390Y0178200D01*
X0166090Y0177500D01*
X0167490Y0182100D02*
X0167490Y0184910D01*
X0165390Y0184210D02*
X0167490Y0182100D01*
X0165390Y0184210D02*
X0169600Y0184210D01*
X0169600Y0174300D02*
X0168200Y0172900D01*
X0165390Y0172900D01*
X0196220Y0135220D02*
X0195520Y0134520D01*
X0195520Y0133120D01*
X0196220Y0132420D01*
X0196220Y0130620D02*
X0195520Y0129920D01*
X0195520Y0128510D01*
X0196220Y0127810D01*
X0199020Y0127810D01*
X0199720Y0128510D01*
X0199720Y0129920D01*
X0199020Y0130620D01*
X0196220Y0130620D01*
X0199720Y0132420D02*
X0196920Y0135220D01*
X0196220Y0135220D01*
X0199720Y0135220D02*
X0199720Y0132420D01*
X0198320Y0126010D02*
X0195520Y0126010D01*
X0195520Y0123210D02*
X0198320Y0123210D01*
X0199720Y0124610D01*
X0198320Y0126010D01*
X0205130Y0115870D02*
X0209340Y0115870D01*
X0205130Y0113070D01*
X0209340Y0113070D01*
X0209340Y0111400D02*
X0209340Y0110000D01*
X0209340Y0110700D02*
X0205130Y0110700D01*
X0205130Y0110000D02*
X0205130Y0111400D01*
X0205130Y0108200D02*
X0207940Y0108200D01*
X0209340Y0106800D01*
X0207940Y0105400D01*
X0205130Y0105400D01*
X0179910Y0119150D02*
X0177100Y0119150D01*
X0178510Y0119150D02*
X0178510Y0123350D01*
X0177100Y0121950D01*
X0175300Y0122650D02*
X0175300Y0119850D01*
X0174600Y0119150D01*
X0173200Y0119150D01*
X0172500Y0119850D01*
X0172500Y0122650D01*
X0173200Y0123350D01*
X0174600Y0123350D01*
X0175300Y0122650D01*
X0170700Y0123350D02*
X0170700Y0120550D01*
X0169300Y0119150D01*
X0167900Y0120550D01*
X0167900Y0123350D01*
X0195930Y0146900D02*
X0198740Y0146900D01*
X0200140Y0148300D01*
X0198740Y0149700D01*
X0195930Y0149700D01*
X0196630Y0151500D02*
X0199440Y0151500D01*
X0200140Y0152200D01*
X0200140Y0153600D01*
X0199440Y0154300D01*
X0196630Y0154300D01*
X0195930Y0153600D01*
X0195930Y0152200D01*
X0196630Y0151500D01*
X0196630Y0156110D02*
X0195930Y0156810D01*
X0195930Y0158210D01*
X0196630Y0158910D01*
X0197340Y0158910D01*
X0198040Y0158210D01*
X0198740Y0158910D01*
X0199440Y0158910D01*
X0200140Y0158210D01*
X0200140Y0156810D01*
X0199440Y0156110D01*
X0198040Y0157510D02*
X0198040Y0158210D01*
X0205520Y0171330D02*
X0208320Y0171330D01*
X0209720Y0172740D01*
X0208320Y0174140D01*
X0205520Y0174140D01*
X0206220Y0175940D02*
X0209020Y0175940D01*
X0209720Y0176640D01*
X0209720Y0178040D01*
X0209020Y0178740D01*
X0206220Y0178740D01*
X0205520Y0178040D01*
X0205520Y0176640D01*
X0206220Y0175940D01*
X0205520Y0180540D02*
X0207620Y0180540D01*
X0206920Y0181940D01*
X0206920Y0182640D01*
X0207620Y0183350D01*
X0209020Y0183350D01*
X0209720Y0182640D01*
X0209720Y0181240D01*
X0209020Y0180540D01*
X0205520Y0180540D02*
X0205520Y0183350D01*
D15*
X0154600Y0102100D02*
X0154600Y0187900D01*
X0220400Y0187900D01*
X0220400Y0102100D01*
X0154600Y0102100D01*
X0227500Y0102500D02*
G75*
%LPD*%
D17*
X0227500Y0102500D02*
X0227500Y0187500D01*
X0292500Y0187500D01*
X0292500Y0102500D01*
X0227500Y0102500D01*
D11*
X0231390Y0105620D02*
X0243600Y0105620D01*
X0243820Y0105640D01*
X0244030Y0105690D01*
X0244240Y0105770D01*
X0244420Y0105890D01*
X0244590Y0106030D01*
X0244730Y0106200D01*
X0244850Y0106380D01*
X0244930Y0106590D01*
X0244980Y0106800D01*
X0245000Y0107020D01*
X0245000Y0152330D01*
X0244990Y0152330D02*
X0245010Y0152470D01*
X0245060Y0152610D01*
X0245140Y0152730D01*
X0245240Y0152830D01*
X0245370Y0152910D01*
X0245510Y0152950D01*
X0245650Y0152960D01*
X0245800Y0152940D01*
X0245930Y0152880D01*
X0246050Y0152790D01*
X0246140Y0152680D01*
X0274320Y0111000D01*
X0275000Y0108790D02*
X0275000Y0106250D01*
X0275020Y0106050D01*
X0275060Y0105860D01*
X0275140Y0105680D01*
X0275240Y0105520D01*
X0275370Y0105370D01*
X0275520Y0105240D01*
X0275680Y0105140D01*
X0275860Y0105060D01*
X0276050Y0105020D01*
X0276250Y0105000D01*
X0288230Y0105000D01*
X0288230Y0104990D02*
X0288480Y0105010D01*
X0288730Y0105060D01*
X0288970Y0105150D01*
X0289190Y0105270D01*
X0289390Y0105420D01*
X0289570Y0105600D01*
X0289720Y0105800D01*
X0289840Y0106020D01*
X0289930Y0106260D01*
X0289980Y0106510D01*
X0290000Y0106760D01*
X0290000Y0181720D01*
X0289980Y0181940D01*
X0289930Y0182150D01*
X0289850Y0182360D01*
X0289730Y0182540D01*
X0289590Y0182710D01*
X0289420Y0182850D01*
X0289240Y0182970D01*
X0289030Y0183050D01*
X0288820Y0183100D01*
X0288600Y0183120D01*
X0276390Y0183120D01*
X0276170Y0183100D01*
X0275960Y0183050D01*
X0275750Y0182970D01*
X0275570Y0182850D01*
X0275400Y0182710D01*
X0275260Y0182540D01*
X0275140Y0182360D01*
X0275060Y0182150D01*
X0275010Y0181940D01*
X0274990Y0181720D01*
X0275000Y0181720D02*
X0275000Y0137710D01*
X0274980Y0137560D01*
X0274930Y0137430D01*
X0274850Y0137310D01*
X0274750Y0137200D01*
X0274620Y0137130D01*
X0274480Y0137090D01*
X0274330Y0137080D01*
X0274190Y0137110D01*
X0274060Y0137160D01*
X0273940Y0137250D01*
X0273840Y0137360D01*
X0273850Y0137370D02*
X0244410Y0182110D01*
X0242530Y0183120D02*
X0231390Y0183120D01*
X0231170Y0183100D01*
X0230960Y0183050D01*
X0230750Y0182970D01*
X0230570Y0182850D01*
X0230400Y0182710D01*
X0230260Y0182540D01*
X0230140Y0182360D01*
X0230060Y0182150D01*
X0230010Y0181940D01*
X0229990Y0181720D01*
X0230000Y0181720D02*
X0230000Y0107020D01*
X0229990Y0107020D02*
X0230010Y0106800D01*
X0230060Y0106590D01*
X0230140Y0106380D01*
X0230260Y0106200D01*
X0230400Y0106030D01*
X0230570Y0105890D01*
X0230750Y0105770D01*
X0230960Y0105690D01*
X0231170Y0105640D01*
X0231390Y0105620D01*
X0274310Y0111000D02*
X0274520Y0110670D01*
X0274680Y0110310D01*
X0274820Y0109950D01*
X0274910Y0109570D01*
X0274970Y0109180D01*
X0274990Y0108790D01*
X0244410Y0182110D02*
X0244240Y0182330D01*
X0244050Y0182530D01*
X0243830Y0182700D01*
X0243600Y0182850D01*
X0243350Y0182970D01*
X0243080Y0183050D01*
X0242810Y0183100D01*
X0242530Y0183120D01*
D13*
X0243750Y0183120D02*
X0245000Y0181870D01*
X0245000Y0175620D01*
X0230000Y0175620D01*
X0230000Y0183120D01*
X0243750Y0183120D01*
X0243750Y0173750D02*
X0245000Y0172500D01*
X0245000Y0166250D01*
X0230000Y0166250D01*
X0230000Y0173750D01*
X0243750Y0173750D01*
X0245000Y0170000D02*
X0243750Y0168750D01*
X0243750Y0155000D01*
X0251250Y0155000D01*
X0251250Y0170000D01*
X0245000Y0170000D01*
X0243750Y0163120D02*
X0245000Y0161870D01*
X0245000Y0155620D01*
X0230000Y0155620D01*
X0230000Y0163120D01*
X0243750Y0163120D01*
X0250000Y0160000D02*
X0251250Y0161250D01*
X0257500Y0161250D01*
X0257500Y0146250D01*
X0250000Y0146250D01*
X0250000Y0160000D01*
X0243750Y0153120D02*
X0245000Y0151870D01*
X0245000Y0145620D01*
X0230000Y0145620D01*
X0230000Y0153120D01*
X0243750Y0153120D01*
X0243750Y0143120D02*
X0245000Y0141870D01*
X0245000Y0135620D01*
X0230000Y0135620D01*
X0230000Y0143120D01*
X0243750Y0143120D01*
X0243750Y0133120D02*
X0245000Y0131870D01*
X0245000Y0125620D01*
X0230000Y0125620D01*
X0230000Y0133120D01*
X0243750Y0133120D01*
X0243750Y0123120D02*
X0245000Y0121870D01*
X0245000Y0115620D01*
X0230000Y0115620D01*
X0230000Y0123120D01*
X0243750Y0123120D01*
X0243750Y0113120D02*
X0245000Y0111870D01*
X0245000Y0105620D01*
X0230000Y0105620D01*
X0230000Y0113120D01*
X0243750Y0113120D01*
X0262500Y0128750D02*
X0262500Y0142500D01*
X0263750Y0143750D01*
X0270000Y0143750D01*
X0270000Y0128750D01*
X0262500Y0128750D01*
X0268750Y0132500D02*
X0270000Y0133750D01*
X0276250Y0133750D01*
X0276250Y0118750D01*
X0268750Y0118750D01*
X0268750Y0132500D01*
X0263750Y0137500D02*
X0256250Y0137500D01*
X0256250Y0151250D01*
X0257500Y0152500D01*
X0263750Y0152500D01*
X0263750Y0137500D01*
X0275000Y0135620D02*
X0275000Y0143120D01*
X0288750Y0143120D01*
X0290000Y0141870D01*
X0290000Y0135620D01*
X0275000Y0135620D01*
X0275000Y0133120D02*
X0288750Y0133120D01*
X0290000Y0131870D01*
X0290000Y0125620D01*
X0275000Y0125620D01*
X0275000Y0133120D01*
X0275000Y0123120D02*
X0288750Y0123120D01*
X0290000Y0121870D01*
X0290000Y0115620D01*
X0275000Y0115620D01*
X0275000Y0123120D01*
X0275000Y0113120D02*
X0288750Y0113120D01*
X0290000Y0111870D01*
X0290000Y0105620D01*
X0275000Y0105620D01*
X0275000Y0113120D01*
X0275000Y0145620D02*
X0275000Y0153120D01*
X0288750Y0153120D01*
X0290000Y0151870D01*
X0290000Y0145620D01*
X0275000Y0145620D01*
X0275000Y0155620D02*
X0275000Y0163120D01*
X0288750Y0163120D01*
X0290000Y0161870D01*
X0290000Y0155620D01*
X0275000Y0155620D01*
X0275000Y0166250D02*
X0275000Y0173750D01*
X0288750Y0173750D01*
X0290000Y0172500D01*
X0290000Y0166250D01*
X0275000Y0166250D01*
X0275000Y0175620D02*
X0275000Y0183120D01*
X0288750Y0183120D01*
X0290000Y0181870D01*
X0290000Y0175620D01*
X0275000Y0175620D01*
D15*
X0274600Y0174830D02*
X0274600Y0173430D01*
X0273900Y0172730D01*
X0272490Y0172730D02*
X0271790Y0174130D01*
X0271790Y0174830D01*
X0272490Y0175530D01*
X0273900Y0175530D01*
X0274600Y0174830D01*
X0272490Y0172730D02*
X0270390Y0172730D01*
X0270390Y0175530D01*
X0271090Y0170930D02*
X0270390Y0170230D01*
X0270390Y0168830D01*
X0271090Y0168130D01*
X0273900Y0168130D01*
X0274600Y0168830D01*
X0274600Y0170230D01*
X0273900Y0170930D01*
X0271090Y0170930D01*
X0270390Y0166320D02*
X0273200Y0166320D01*
X0274600Y0164920D01*
X0273200Y0163520D01*
X0270390Y0163520D01*
X0265930Y0157800D02*
X0263500Y0156400D01*
X0262990Y0154490D01*
X0264900Y0153970D01*
X0267330Y0155370D01*
X0267620Y0153460D02*
X0265200Y0152060D01*
X0264940Y0151110D01*
X0265640Y0149890D01*
X0266600Y0149640D01*
X0269030Y0151040D01*
X0269280Y0151990D01*
X0268580Y0153210D01*
X0267620Y0153460D01*
X0268710Y0148780D02*
X0270110Y0146350D01*
X0271020Y0146160D02*
X0271720Y0144760D01*
X0273120Y0143350D01*
X0273120Y0145460D01*
X0273820Y0146160D01*
X0274520Y0146160D01*
X0275220Y0145460D01*
X0275220Y0144060D01*
X0274520Y0143350D01*
X0273120Y0143350D01*
X0274520Y0141550D02*
X0271720Y0141550D01*
X0271020Y0140850D01*
X0271020Y0139450D01*
X0271720Y0138750D01*
X0274520Y0138750D01*
X0275220Y0139450D01*
X0275220Y0140850D01*
X0274520Y0141550D01*
X0273820Y0136950D02*
X0271020Y0136950D01*
X0273820Y0136950D02*
X0275220Y0135550D01*
X0273820Y0134150D01*
X0271020Y0134150D01*
X0267940Y0145900D02*
X0271580Y0148010D01*
X0268710Y0148780D01*
X0255710Y0166110D02*
X0255110Y0165760D01*
X0254150Y0166010D01*
X0253450Y0167230D01*
X0253710Y0168180D01*
X0252810Y0169750D02*
X0251850Y0170000D01*
X0251150Y0171220D01*
X0251400Y0172170D01*
X0253830Y0173570D01*
X0254790Y0173320D01*
X0255490Y0172100D01*
X0255230Y0171150D01*
X0252810Y0169750D01*
X0256130Y0169590D02*
X0257090Y0169330D01*
X0257790Y0168120D01*
X0257530Y0167160D01*
X0256930Y0166810D01*
X0255970Y0167070D01*
X0255710Y0166110D01*
X0255970Y0167070D02*
X0255620Y0167670D01*
X0251110Y0174080D02*
X0249200Y0174600D01*
X0249710Y0176510D01*
X0252140Y0177910D01*
X0253540Y0175480D02*
X0251110Y0174080D01*
X0248850Y0155160D02*
X0248850Y0152350D01*
X0246040Y0155160D01*
X0245340Y0155160D01*
X0244640Y0154460D01*
X0244640Y0153060D01*
X0245340Y0152350D01*
X0245340Y0150550D02*
X0244640Y0149850D01*
X0244640Y0148450D01*
X0245340Y0147750D01*
X0248150Y0147750D01*
X0248850Y0148450D01*
X0248850Y0149850D01*
X0248150Y0150550D01*
X0245340Y0150550D01*
X0244640Y0145950D02*
X0247450Y0145950D01*
X0248850Y0144550D01*
X0247450Y0143150D01*
X0244640Y0143150D01*
X0249600Y0136100D02*
X0249600Y0133290D01*
X0249600Y0134690D02*
X0245390Y0134690D01*
X0246790Y0133290D01*
X0246090Y0131490D02*
X0245390Y0130790D01*
X0245390Y0129390D01*
X0246090Y0128690D01*
X0248900Y0128690D01*
X0249600Y0129390D01*
X0249600Y0130790D01*
X0248900Y0131490D01*
X0246090Y0131490D01*
X0245390Y0126890D02*
X0248200Y0126890D01*
X0249600Y0125490D01*
X0248200Y0124080D01*
X0245390Y0124080D01*
X0244770Y0115470D02*
X0248970Y0115470D01*
X0244770Y0112670D01*
X0248970Y0112670D01*
X0248970Y0111000D02*
X0248970Y0109600D01*
X0248970Y0110300D02*
X0244770Y0110300D01*
X0244770Y0109600D02*
X0244770Y0111000D01*
X0244770Y0107800D02*
X0247570Y0107800D01*
X0248970Y0106400D01*
X0247570Y0104990D01*
X0244770Y0104990D01*
X0270390Y0104770D02*
X0273200Y0104770D01*
X0274600Y0106170D01*
X0273200Y0107570D01*
X0270390Y0107570D01*
X0271090Y0109380D02*
X0273900Y0109380D01*
X0274600Y0110080D01*
X0274600Y0111480D01*
X0273900Y0112180D01*
X0271090Y0112180D01*
X0270390Y0111480D01*
X0270390Y0110080D01*
X0271090Y0109380D01*
X0270390Y0113980D02*
X0270390Y0116780D01*
X0271090Y0116780D01*
X0273900Y0113980D01*
X0274600Y0113980D01*
D15*
X0227100Y0102100D02*
X0227100Y0187900D01*
X0292100Y0187900D01*
X0292100Y0102100D01*
X0292100Y0102100D02*
X0227100Y0102100D01*
X0010000Y0195000D02*
G75*
%LPD*%
D17*
X0010000Y0195000D02*
X0010000Y0280000D01*
X0075000Y0280000D01*
X0075000Y0195000D01*
X0010000Y0195000D01*
D11*
X0034370Y0196250D02*
X0050620Y0196250D01*
X0050620Y0262500D01*
X0071870Y0262500D01*
X0071870Y0278120D01*
X0013120Y0278120D01*
X0013120Y0262500D01*
X0034370Y0262500D01*
X0034370Y0196250D01*
D13*
X0036250Y0196870D02*
X0035000Y0198120D01*
X0035000Y0204370D01*
X0050000Y0204370D01*
X0050000Y0196870D01*
X0036250Y0196870D01*
X0035620Y0205620D02*
X0034370Y0206870D01*
X0034370Y0213120D01*
X0049370Y0213120D01*
X0049370Y0205620D01*
X0035620Y0205620D01*
X0036250Y0214370D02*
X0035000Y0215620D01*
X0035000Y0221870D01*
X0050000Y0221870D01*
X0050000Y0214370D01*
X0036250Y0214370D01*
X0036250Y0223120D02*
X0035000Y0224370D01*
X0035000Y0230620D01*
X0050000Y0230620D01*
X0050000Y0223120D01*
X0036250Y0223120D01*
X0036250Y0231870D02*
X0035000Y0233120D01*
X0035000Y0239370D01*
X0050000Y0239370D01*
X0050000Y0231870D01*
X0036250Y0231870D01*
X0036250Y0240620D02*
X0035000Y0241870D01*
X0035000Y0248120D01*
X0050000Y0248120D01*
X0050000Y0240620D01*
X0036250Y0240620D01*
X0036250Y0249370D02*
X0035000Y0250620D01*
X0035000Y0256870D01*
X0050000Y0256870D01*
X0050000Y0249370D01*
X0036250Y0249370D01*
X0036250Y0258120D02*
X0035000Y0259370D01*
X0035000Y0265620D01*
X0050000Y0265620D01*
X0050000Y0258120D01*
X0036250Y0258120D01*
X0034370Y0263120D02*
X0035620Y0264370D01*
X0035620Y0278120D01*
X0028120Y0278120D01*
X0028120Y0264370D01*
X0026870Y0263120D01*
X0020620Y0263120D01*
X0020620Y0278120D01*
X0020620Y0264370D01*
X0019370Y0263120D01*
X0013120Y0263120D01*
X0013120Y0278120D01*
X0020620Y0278120D01*
X0028120Y0278120D01*
X0028120Y0263120D01*
X0034370Y0263120D01*
X0036250Y0266870D02*
X0035000Y0268120D01*
X0035000Y0274370D01*
X0050000Y0274370D01*
X0050000Y0266870D01*
X0036250Y0266870D01*
X0048750Y0263120D02*
X0048750Y0278120D01*
X0056250Y0278120D01*
X0063750Y0278120D01*
X0071250Y0278120D01*
X0071250Y0264370D01*
X0070000Y0263120D01*
X0063750Y0263120D01*
X0063750Y0278120D01*
X0063750Y0264370D01*
X0062500Y0263120D01*
X0056250Y0263120D01*
X0056250Y0278120D01*
X0056250Y0264370D01*
X0055000Y0263120D01*
X0048750Y0263120D01*
D15*
X0052270Y0260850D02*
X0052270Y0258050D01*
X0053670Y0256650D01*
X0055070Y0258050D01*
X0055070Y0260850D01*
X0056880Y0260150D02*
X0056880Y0257350D01*
X0057580Y0256650D01*
X0058980Y0256650D01*
X0059680Y0257350D01*
X0059680Y0260150D01*
X0058980Y0260850D01*
X0057580Y0260850D01*
X0056880Y0260150D01*
X0061480Y0260850D02*
X0061480Y0258750D01*
X0062880Y0259450D01*
X0063580Y0259450D01*
X0064280Y0258750D01*
X0064280Y0257350D01*
X0063580Y0256650D01*
X0062180Y0256650D01*
X0061480Y0257350D01*
X0061480Y0260850D02*
X0064280Y0260850D01*
X0047410Y0274220D02*
X0046710Y0273520D01*
X0045310Y0273520D01*
X0044600Y0274220D01*
X0046010Y0275620D02*
X0046710Y0275620D01*
X0047410Y0276320D01*
X0047410Y0277020D01*
X0046710Y0277730D01*
X0045310Y0277730D01*
X0044600Y0277020D01*
X0046710Y0275620D02*
X0047410Y0274920D01*
X0047410Y0274220D01*
X0042800Y0274220D02*
X0042100Y0273520D01*
X0040700Y0273520D01*
X0040000Y0274220D01*
X0040000Y0277020D01*
X0040700Y0277730D01*
X0042100Y0277730D01*
X0042800Y0277020D01*
X0042800Y0274220D01*
X0038200Y0274920D02*
X0038200Y0277730D01*
X0035400Y0277730D02*
X0035400Y0274920D01*
X0036800Y0273520D01*
X0038200Y0274920D01*
X0031710Y0260850D02*
X0029600Y0258750D01*
X0032410Y0258750D01*
X0031710Y0256650D02*
X0031710Y0260850D01*
X0027800Y0260150D02*
X0027800Y0257350D01*
X0027100Y0256650D01*
X0025700Y0256650D01*
X0025000Y0257350D01*
X0025000Y0260150D01*
X0025700Y0260850D01*
X0027100Y0260850D01*
X0027800Y0260150D01*
X0023200Y0260850D02*
X0023200Y0258050D01*
X0021800Y0256650D01*
X0020400Y0258050D01*
X0020400Y0260850D01*
X0029220Y0251160D02*
X0028520Y0250460D01*
X0028520Y0249060D01*
X0029220Y0248350D01*
X0029220Y0246550D02*
X0028520Y0245850D01*
X0028520Y0244450D01*
X0029220Y0243750D01*
X0032020Y0243750D01*
X0032720Y0244450D01*
X0032720Y0245850D01*
X0032020Y0246550D01*
X0029220Y0246550D01*
X0032720Y0248350D02*
X0029920Y0251160D01*
X0029220Y0251160D01*
X0032720Y0251160D02*
X0032720Y0248350D01*
X0031320Y0241950D02*
X0028520Y0241950D01*
X0028520Y0239150D02*
X0031320Y0239150D01*
X0032720Y0240550D01*
X0031320Y0241950D01*
X0032720Y0224910D02*
X0032720Y0222100D01*
X0032720Y0223510D02*
X0028520Y0223510D01*
X0029920Y0222100D01*
X0029220Y0220300D02*
X0028520Y0219600D01*
X0028520Y0218200D01*
X0029220Y0217500D01*
X0032020Y0217500D01*
X0032720Y0218200D01*
X0032720Y0219600D01*
X0032020Y0220300D01*
X0029220Y0220300D01*
X0028520Y0215700D02*
X0031320Y0215700D01*
X0032720Y0214300D01*
X0031320Y0212900D01*
X0028520Y0212900D01*
X0051770Y0207100D02*
X0055970Y0207100D01*
X0051770Y0204290D01*
X0055970Y0204290D01*
X0055970Y0202620D02*
X0055970Y0201220D01*
X0055970Y0201920D02*
X0051770Y0201920D01*
X0051770Y0201220D02*
X0051770Y0202620D01*
X0051770Y0199420D02*
X0054570Y0199420D01*
X0055970Y0198020D01*
X0054570Y0196620D01*
X0051770Y0196620D01*
D15*
X0010400Y0194600D02*
X0010400Y0280400D01*
X0010400Y0280400D02*
X0075400Y0280400D01*
X0075400Y0194600D01*
X0010400Y0194600D01*
X0082500Y0195000D02*
G75*
%LPD*%
D17*
X0082500Y0195000D02*
X0082500Y0280000D01*
X0147500Y0280000D01*
X0147500Y0195000D01*
X0082500Y0195000D01*
D11*
X0084370Y0215000D02*
X0084320Y0214210D01*
X0084300Y0213420D01*
X0084320Y0212630D01*
X0084380Y0211840D01*
X0084470Y0211050D01*
X0084600Y0210270D01*
X0084770Y0209500D01*
X0084980Y0208740D01*
X0085220Y0207980D01*
X0085490Y0207240D01*
X0085810Y0206520D01*
X0086150Y0205810D01*
X0086530Y0205110D01*
X0086940Y0204440D01*
X0087390Y0203780D01*
X0087860Y0203150D01*
X0088360Y0202540D01*
X0088890Y0201950D01*
X0089450Y0201390D01*
X0090040Y0200860D01*
X0090650Y0200360D01*
X0091280Y0199890D01*
X0091940Y0199440D01*
X0092610Y0199030D01*
X0093310Y0198650D01*
X0094020Y0198310D01*
X0094740Y0197990D01*
X0095480Y0197720D01*
X0096240Y0197480D01*
X0097000Y0197270D01*
X0097770Y0197100D01*
X0098550Y0196970D01*
X0099340Y0196880D01*
X0100130Y0196820D01*
X0100920Y0196800D01*
X0101710Y0196820D01*
X0102500Y0196870D01*
X0127500Y0196870D01*
X0127490Y0196870D02*
X0128290Y0196830D01*
X0129090Y0196820D01*
X0129890Y0196860D01*
X0130690Y0196930D01*
X0131480Y0197050D01*
X0132260Y0197200D01*
X0133040Y0197390D01*
X0133800Y0197620D01*
X0134560Y0197890D01*
X0135300Y0198190D01*
X0136020Y0198530D01*
X0136730Y0198900D01*
X0137410Y0199300D01*
X0138080Y0199740D01*
X0138730Y0200220D01*
X0139350Y0200720D01*
X0139940Y0201250D01*
X0140510Y0201810D01*
X0141050Y0202400D01*
X0141560Y0203020D01*
X0142050Y0203650D01*
X0142490Y0204310D01*
X0142910Y0205000D01*
X0143290Y0205700D01*
X0143640Y0206420D01*
X0143950Y0207150D01*
X0144230Y0207900D01*
X0144470Y0208670D01*
X0144670Y0209440D01*
X0144830Y0210220D01*
X0144960Y0211010D01*
X0145040Y0211810D01*
X0145090Y0212600D01*
X0145100Y0213400D01*
X0145070Y0214200D01*
X0145000Y0215000D01*
X0145000Y0261250D01*
X0145030Y0262030D01*
X0145020Y0262820D01*
X0144970Y0263600D01*
X0144880Y0264380D01*
X0144750Y0265160D01*
X0144590Y0265920D01*
X0144390Y0266680D01*
X0144150Y0267430D01*
X0143880Y0268170D01*
X0143570Y0268890D01*
X0143220Y0269600D01*
X0142840Y0270280D01*
X0142430Y0270950D01*
X0141990Y0271600D01*
X0141510Y0272230D01*
X0141010Y0272830D01*
X0140470Y0273400D01*
X0139910Y0273950D01*
X0139320Y0274470D01*
X0138710Y0274960D01*
X0138070Y0275430D01*
X0137420Y0275850D01*
X0136740Y0276250D01*
X0136040Y0276610D01*
X0135330Y0276940D01*
X0134600Y0277240D01*
X0133860Y0277490D01*
X0133110Y0277720D01*
X0132340Y0277900D01*
X0131570Y0278050D01*
X0130790Y0278160D01*
X0130010Y0278230D01*
X0129230Y0278260D01*
X0128440Y0278250D01*
X0127660Y0278210D01*
X0126880Y0278120D01*
X0126870Y0278120D02*
X0102500Y0278120D01*
X0101680Y0278150D01*
X0100860Y0278140D01*
X0100050Y0278090D01*
X0099230Y0278010D01*
X0098420Y0277880D01*
X0097620Y0277720D01*
X0096830Y0277520D01*
X0096050Y0277280D01*
X0095280Y0277000D01*
X0094520Y0276690D01*
X0093780Y0276350D01*
X0093050Y0275960D01*
X0092350Y0275550D01*
X0091670Y0275100D01*
X0091000Y0274620D01*
X0090370Y0274100D01*
X0089750Y0273560D01*
X0089170Y0272990D01*
X0088610Y0272390D01*
X0088080Y0271770D01*
X0087580Y0271120D01*
X0087110Y0270450D01*
X0086670Y0269760D01*
X0086270Y0269050D01*
X0085900Y0268320D01*
X0085570Y0267570D01*
X0085270Y0266810D01*
X0085010Y0266030D01*
X0084790Y0265240D01*
X0084600Y0264450D01*
X0084450Y0263640D01*
X0084340Y0262830D01*
X0084270Y0262010D01*
X0084240Y0261200D01*
X0084250Y0260380D01*
X0084300Y0259560D01*
X0084380Y0258750D01*
X0084370Y0258750D02*
X0084370Y0215000D01*
X0101250Y0224370D02*
X0101250Y0250000D01*
X0101360Y0250720D01*
X0101490Y0251450D01*
X0101670Y0252160D01*
X0101890Y0252860D01*
X0102140Y0253550D01*
X0102420Y0254230D01*
X0102750Y0254880D01*
X0103110Y0255530D01*
X0103500Y0256150D01*
X0103920Y0256750D01*
X0104380Y0257320D01*
X0104860Y0257870D01*
X0105370Y0258400D01*
X0105910Y0258900D01*
X0106480Y0259360D01*
X0107070Y0259800D01*
X0107680Y0260210D01*
X0108320Y0260580D01*
X0108970Y0260920D01*
X0109640Y0261220D01*
X0110320Y0261480D01*
X0111020Y0261710D01*
X0111730Y0261910D01*
X0112440Y0262060D01*
X0113170Y0262180D01*
X0113900Y0262260D01*
X0114630Y0262300D01*
X0115370Y0262300D01*
X0116100Y0262260D01*
X0116830Y0262180D01*
X0117560Y0262060D01*
X0118270Y0261910D01*
X0118980Y0261710D01*
X0119680Y0261480D01*
X0120360Y0261220D01*
X0121030Y0260920D01*
X0121680Y0260580D01*
X0122320Y0260210D01*
X0122930Y0259800D01*
X0123520Y0259360D01*
X0124090Y0258900D01*
X0124630Y0258400D01*
X0125140Y0257870D01*
X0125620Y0257320D01*
X0126080Y0256750D01*
X0126500Y0256150D01*
X0126890Y0255530D01*
X0127250Y0254880D01*
X0127580Y0254230D01*
X0127860Y0253550D01*
X0128110Y0252860D01*
X0128330Y0252160D01*
X0128510Y0251450D01*
X0128640Y0250720D01*
X0128750Y0250000D01*
X0128750Y0224370D01*
X0128640Y0223650D01*
X0128510Y0222920D01*
X0128330Y0222210D01*
X0128110Y0221510D01*
X0127860Y0220820D01*
X0127580Y0220140D01*
X0127250Y0219490D01*
X0126890Y0218840D01*
X0126500Y0218220D01*
X0126080Y0217620D01*
X0125620Y0217050D01*
X0125140Y0216500D01*
X0124630Y0215970D01*
X0124090Y0215470D01*
X0123520Y0215010D01*
X0122930Y0214570D01*
X0122320Y0214160D01*
X0121680Y0213790D01*
X0121030Y0213450D01*
X0120360Y0213150D01*
X0119680Y0212890D01*
X0118980Y0212660D01*
X0118270Y0212460D01*
X0117560Y0212310D01*
X0116830Y0212190D01*
X0116100Y0212110D01*
X0115370Y0212070D01*
X0114630Y0212070D01*
X0113900Y0212110D01*
X0113170Y0212190D01*
X0112440Y0212310D01*
X0111730Y0212460D01*
X0111020Y0212660D01*
X0110320Y0212890D01*
X0109640Y0213150D01*
X0108970Y0213450D01*
X0108320Y0213790D01*
X0107680Y0214160D01*
X0107070Y0214570D01*
X0106480Y0215010D01*
X0105910Y0215470D01*
X0105370Y0215970D01*
X0104860Y0216500D01*
X0104380Y0217050D01*
X0103920Y0217620D01*
X0103500Y0218220D01*
X0103110Y0218840D01*
X0102750Y0219490D01*
X0102420Y0220140D01*
X0102140Y0220820D01*
X0101890Y0221510D01*
X0101670Y0222210D01*
X0101490Y0222920D01*
X0101360Y0223650D01*
X0101250Y0224370D01*
D13*
X0100000Y0226250D02*
X0086250Y0226250D01*
X0085000Y0227500D01*
X0085000Y0233750D01*
X0100000Y0233750D01*
X0100000Y0226250D01*
X0100000Y0218750D01*
X0086250Y0218750D01*
X0085000Y0220000D01*
X0085000Y0226250D01*
X0100000Y0226250D01*
X0098370Y0220120D02*
X0102120Y0213620D01*
X0090210Y0206750D01*
X0088500Y0207210D01*
X0085380Y0212620D01*
X0098370Y0220120D01*
X0099870Y0214620D02*
X0106370Y0210870D01*
X0099490Y0198960D01*
X0097790Y0198500D01*
X0092370Y0201630D01*
X0099870Y0214620D01*
X0104370Y0211250D02*
X0111870Y0211250D01*
X0111870Y0197500D01*
X0110620Y0196250D01*
X0104370Y0196250D01*
X0104370Y0211250D01*
X0111250Y0211250D02*
X0118750Y0211250D01*
X0118750Y0197500D01*
X0117500Y0196250D01*
X0111250Y0196250D01*
X0111250Y0211250D01*
X0118120Y0211250D02*
X0125620Y0211250D01*
X0125620Y0197500D01*
X0124370Y0196250D01*
X0118120Y0196250D01*
X0118120Y0211250D01*
X0123620Y0210870D02*
X0130120Y0214620D01*
X0136990Y0202710D01*
X0136540Y0201000D01*
X0131120Y0197880D01*
X0123620Y0210870D01*
X0127880Y0213620D02*
X0131630Y0220120D01*
X0143530Y0213240D01*
X0143990Y0211540D01*
X0140870Y0206120D01*
X0127880Y0213620D01*
X0130000Y0218750D02*
X0130000Y0226250D01*
X0143750Y0226250D01*
X0145000Y0225000D01*
X0145000Y0218750D01*
X0130000Y0218750D01*
X0130000Y0226250D02*
X0130000Y0233750D01*
X0130000Y0241250D01*
X0130000Y0248750D01*
X0143750Y0248750D01*
X0145000Y0247500D01*
X0145000Y0241250D01*
X0130000Y0241250D01*
X0143750Y0241250D01*
X0145000Y0240000D01*
X0145000Y0233750D01*
X0130000Y0233750D01*
X0143750Y0233750D01*
X0145000Y0232500D01*
X0145000Y0226250D01*
X0130000Y0226250D01*
X0130000Y0248750D02*
X0130000Y0256250D01*
X0143750Y0256250D01*
X0145000Y0255000D01*
X0145000Y0248750D01*
X0130000Y0248750D01*
X0131630Y0254250D02*
X0127880Y0260740D01*
X0139780Y0267620D01*
X0141490Y0267160D01*
X0144620Y0261750D01*
X0131630Y0254250D01*
X0130120Y0259750D02*
X0123620Y0263500D01*
X0130500Y0275410D01*
X0132210Y0275870D01*
X0137620Y0272740D01*
X0130120Y0259750D01*
X0125620Y0263750D02*
X0118120Y0263750D01*
X0118120Y0277500D01*
X0119370Y0278750D01*
X0125620Y0278750D01*
X0125620Y0263750D01*
X0118750Y0263750D02*
X0111250Y0263750D01*
X0111250Y0277500D01*
X0112500Y0278750D01*
X0118750Y0278750D01*
X0118750Y0263750D01*
X0111870Y0263750D02*
X0104370Y0263750D01*
X0104370Y0277500D01*
X0105620Y0278750D01*
X0111870Y0278750D01*
X0111870Y0263750D01*
X0106370Y0263500D02*
X0099870Y0259750D01*
X0093000Y0271660D01*
X0093460Y0273370D01*
X0098870Y0276490D01*
X0106370Y0263500D01*
X0102120Y0260740D02*
X0098370Y0254250D01*
X0086460Y0261120D01*
X0086000Y0262830D01*
X0089130Y0268240D01*
X0102120Y0260740D01*
X0100000Y0256250D02*
X0100000Y0248750D01*
X0086250Y0248750D01*
X0085000Y0250000D01*
X0085000Y0256250D01*
X0100000Y0256250D01*
X0100000Y0248750D02*
X0100000Y0241250D01*
X0100000Y0233750D01*
X0086250Y0233750D01*
X0085000Y0235000D01*
X0085000Y0241250D01*
X0100000Y0241250D01*
X0086250Y0241250D01*
X0085000Y0242500D01*
X0085000Y0248750D01*
X0100000Y0248750D01*
D15*
X0100340Y0248050D02*
X0099640Y0247350D01*
X0099640Y0245950D01*
X0100340Y0245250D01*
X0103150Y0245250D01*
X0103850Y0245950D01*
X0103850Y0247350D01*
X0103150Y0248050D01*
X0100340Y0248050D01*
X0100340Y0249850D02*
X0099640Y0250560D01*
X0099640Y0251960D01*
X0100340Y0252660D01*
X0101040Y0252660D01*
X0103850Y0249850D01*
X0103850Y0252660D01*
X0102450Y0243450D02*
X0099640Y0243450D01*
X0099640Y0240650D02*
X0102450Y0240650D01*
X0103850Y0242050D01*
X0102450Y0243450D01*
X0104600Y0231780D02*
X0104600Y0228980D01*
X0104600Y0230380D02*
X0100390Y0230380D01*
X0101790Y0228980D01*
X0101090Y0227180D02*
X0100390Y0226480D01*
X0100390Y0225080D01*
X0101090Y0224380D01*
X0103900Y0224380D01*
X0104600Y0225080D01*
X0104600Y0226480D01*
X0103900Y0227180D01*
X0101090Y0227180D01*
X0100390Y0222570D02*
X0103200Y0222570D01*
X0104600Y0221170D01*
X0103200Y0219770D01*
X0100390Y0219770D01*
X0110620Y0215850D02*
X0110620Y0213050D01*
X0112020Y0211650D01*
X0113420Y0213050D01*
X0113420Y0215850D01*
X0115220Y0215850D02*
X0116620Y0215850D01*
X0115920Y0215850D02*
X0115920Y0211650D01*
X0115220Y0211650D02*
X0116620Y0211650D01*
X0118290Y0211650D02*
X0118290Y0215850D01*
X0121100Y0211650D01*
X0121100Y0215850D01*
X0125390Y0226020D02*
X0128200Y0226020D01*
X0129600Y0227420D01*
X0128200Y0228820D01*
X0125390Y0228820D01*
X0126090Y0230630D02*
X0128900Y0230630D01*
X0129600Y0231330D01*
X0129600Y0232730D01*
X0128900Y0233430D01*
X0126090Y0233430D01*
X0125390Y0232730D01*
X0125390Y0231330D01*
X0126090Y0230630D01*
X0127490Y0235230D02*
X0127490Y0237330D01*
X0128200Y0238030D01*
X0128900Y0238030D01*
X0129600Y0237330D01*
X0129600Y0235930D01*
X0128900Y0235230D01*
X0127490Y0235230D01*
X0126090Y0236630D01*
X0125390Y0238030D01*
X0142770Y0259400D02*
X0145570Y0259400D01*
X0146970Y0260800D01*
X0145570Y0262200D01*
X0142770Y0262200D01*
X0143470Y0264000D02*
X0146270Y0264000D01*
X0146970Y0264700D01*
X0146970Y0266100D01*
X0146270Y0266800D01*
X0143470Y0266800D01*
X0142770Y0266100D01*
X0142770Y0264700D01*
X0143470Y0264000D01*
X0142770Y0268600D02*
X0144870Y0268600D01*
X0144170Y0270010D01*
X0144170Y0270710D01*
X0144870Y0271410D01*
X0146270Y0271410D01*
X0146970Y0270710D01*
X0146970Y0269310D01*
X0146270Y0268600D01*
X0142770Y0268600D02*
X0142770Y0271410D01*
X0142330Y0275400D02*
X0142330Y0279600D01*
X0140230Y0277500D01*
X0143030Y0277500D01*
X0138430Y0276100D02*
X0138430Y0278900D01*
X0137730Y0279600D01*
X0136330Y0279600D01*
X0135630Y0278900D01*
X0135630Y0276100D01*
X0136330Y0275400D01*
X0137730Y0275400D01*
X0138430Y0276100D01*
X0133820Y0276800D02*
X0133820Y0279600D01*
X0131020Y0279600D02*
X0131020Y0276800D01*
X0132420Y0275400D01*
X0133820Y0276800D01*
X0096440Y0277150D02*
X0096190Y0276200D01*
X0094970Y0275500D01*
X0094020Y0275750D01*
X0092460Y0274850D02*
X0091060Y0277280D01*
X0090100Y0277540D01*
X0088890Y0276840D01*
X0088630Y0275880D01*
X0090030Y0273450D01*
X0090990Y0273200D01*
X0092200Y0273900D01*
X0092460Y0274850D01*
X0094530Y0277670D02*
X0095140Y0278020D01*
X0096090Y0277760D01*
X0096440Y0277150D01*
X0095140Y0278020D02*
X0095390Y0278980D01*
X0095040Y0279580D01*
X0094090Y0279840D01*
X0092870Y0279140D01*
X0092620Y0278180D01*
X0086720Y0275580D02*
X0088120Y0273160D01*
X0087610Y0271240D01*
X0085690Y0271760D01*
X0084290Y0274180D01*
X0085020Y0199730D02*
X0085020Y0196920D01*
X0086420Y0195520D01*
X0087820Y0196920D01*
X0087820Y0199730D01*
X0089630Y0199020D02*
X0089630Y0196220D01*
X0090330Y0195520D01*
X0091730Y0195520D01*
X0092430Y0196220D01*
X0092430Y0199020D01*
X0091730Y0199730D01*
X0090330Y0199730D01*
X0089630Y0199020D01*
X0094230Y0199020D02*
X0094230Y0198320D01*
X0094930Y0197620D01*
X0096330Y0197620D01*
X0097030Y0196920D01*
X0097030Y0196220D01*
X0096330Y0195520D01*
X0094930Y0195520D01*
X0094230Y0196220D01*
X0094230Y0196920D01*
X0094930Y0197620D01*
X0096330Y0197620D02*
X0097030Y0198320D01*
X0097030Y0199020D01*
X0096330Y0199730D01*
X0094930Y0199730D01*
X0094230Y0199020D01*
X0134460Y0199480D02*
X0134460Y0196670D01*
X0135860Y0195270D01*
X0137260Y0196670D01*
X0137260Y0199480D01*
X0139060Y0198770D02*
X0139060Y0195970D01*
X0139760Y0195270D01*
X0141170Y0195270D01*
X0141870Y0195970D01*
X0141870Y0198770D01*
X0141170Y0199480D01*
X0139760Y0199480D01*
X0139060Y0198770D01*
X0143670Y0199480D02*
X0146470Y0199480D01*
X0146470Y0198770D01*
X0143670Y0195970D01*
X0143670Y0195270D01*
D15*
X0082100Y0194600D02*
X0082100Y0280400D01*
X0147900Y0280400D01*
X0147900Y0194600D01*
X0082100Y0194600D01*
X0155000Y0195000D02*
G75*
%LPD*%
D17*
X0155000Y0195000D02*
X0155000Y0280000D01*
X0220000Y0280000D01*
X0220000Y0195000D01*
X0155000Y0195000D01*
D11*
X0158120Y0197500D02*
X0158120Y0278120D01*
X0198750Y0278120D01*
X0218120Y0255000D02*
X0218120Y0237500D01*
X0196870Y0218750D02*
X0173120Y0218750D01*
X0173120Y0197500D01*
X0158120Y0197500D01*
X0196870Y0218750D02*
X0197860Y0218910D01*
X0198840Y0219100D01*
X0199810Y0219330D01*
X0200780Y0219600D01*
X0201730Y0219910D01*
X0202670Y0220250D01*
X0203600Y0220630D01*
X0204510Y0221050D01*
X0205400Y0221500D01*
X0206270Y0221980D01*
X0207130Y0222510D01*
X0207960Y0223060D01*
X0208780Y0223640D01*
X0209560Y0224260D01*
X0210330Y0224910D01*
X0211070Y0225590D01*
X0211780Y0226290D01*
X0212460Y0227020D01*
X0213110Y0227780D01*
X0213730Y0228570D01*
X0214330Y0229370D01*
X0214880Y0230200D01*
X0215410Y0231060D01*
X0215900Y0231930D01*
X0216360Y0232820D01*
X0216790Y0233720D01*
X0217170Y0234650D01*
X0217520Y0235590D01*
X0217840Y0236540D01*
X0218110Y0237500D01*
X0218120Y0255000D02*
X0217990Y0256020D01*
X0217810Y0257040D01*
X0217610Y0258050D01*
X0217360Y0259050D01*
X0217070Y0260040D01*
X0216750Y0261020D01*
X0216390Y0261990D01*
X0216000Y0262940D01*
X0215560Y0263880D01*
X0215100Y0264800D01*
X0214600Y0265700D01*
X0214060Y0266580D01*
X0213490Y0267440D01*
X0212890Y0268280D01*
X0212260Y0269090D01*
X0211600Y0269880D01*
X0210900Y0270650D01*
X0210180Y0271390D01*
X0209440Y0272100D01*
X0208660Y0272780D01*
X0207860Y0273430D01*
X0207040Y0274050D01*
X0206190Y0274640D01*
X0205320Y0275200D01*
X0204440Y0275720D01*
X0203530Y0276210D01*
X0202600Y0276660D01*
X0201660Y0277080D01*
X0200700Y0277460D01*
X0199730Y0277810D01*
X0198750Y0278120D01*
X0174940Y0248750D02*
X0174960Y0249470D01*
X0175020Y0250190D01*
X0175120Y0250900D01*
X0175250Y0251610D01*
X0175430Y0252310D01*
X0175640Y0252990D01*
X0175890Y0253670D01*
X0176180Y0254330D01*
X0176500Y0254970D01*
X0176860Y0255600D01*
X0177250Y0256200D01*
X0177670Y0256790D01*
X0178130Y0257340D01*
X0178610Y0257880D01*
X0179120Y0258380D01*
X0179660Y0258860D01*
X0180230Y0259310D01*
X0180820Y0259720D01*
X0181430Y0260100D01*
X0182060Y0260450D01*
X0182700Y0260770D01*
X0183370Y0261040D01*
X0184050Y0261280D01*
X0184740Y0261490D01*
X0185440Y0261650D01*
X0186150Y0261780D01*
X0186860Y0261870D01*
X0187580Y0261920D01*
X0188300Y0261930D01*
X0189020Y0261900D01*
X0189740Y0261830D01*
X0190450Y0261720D01*
X0191150Y0261580D01*
X0191850Y0261390D01*
X0192530Y0261170D01*
X0193210Y0260910D01*
X0193860Y0260610D01*
X0194500Y0260280D01*
X0195120Y0259920D01*
X0195720Y0259520D01*
X0196300Y0259090D01*
X0196850Y0258620D01*
X0197380Y0258130D01*
X0197870Y0257610D01*
X0198340Y0257070D01*
X0198780Y0256500D01*
X0199190Y0255900D01*
X0199560Y0255290D01*
X0199900Y0254650D01*
X0200210Y0254000D01*
X0200480Y0253330D01*
X0200710Y0252650D01*
X0200900Y0251960D01*
X0201060Y0251260D01*
X0201180Y0250540D01*
X0201260Y0249830D01*
X0201300Y0249110D01*
X0201300Y0248390D01*
X0201260Y0247670D01*
X0201180Y0246960D01*
X0201060Y0246240D01*
X0200900Y0245540D01*
X0200710Y0244850D01*
X0200480Y0244170D01*
X0200210Y0243500D01*
X0199900Y0242850D01*
X0199560Y0242210D01*
X0199190Y0241600D01*
X0198780Y0241000D01*
X0198340Y0240430D01*
X0197870Y0239890D01*
X0197380Y0239370D01*
X0196850Y0238880D01*
X0196300Y0238410D01*
X0195720Y0237980D01*
X0195120Y0237580D01*
X0194500Y0237220D01*
X0193860Y0236890D01*
X0193210Y0236590D01*
X0192530Y0236330D01*
X0191850Y0236110D01*
X0191150Y0235920D01*
X0190450Y0235780D01*
X0189740Y0235670D01*
X0189020Y0235600D01*
X0188300Y0235570D01*
X0187580Y0235580D01*
X0186860Y0235630D01*
X0186150Y0235720D01*
X0185440Y0235850D01*
X0184740Y0236010D01*
X0184050Y0236220D01*
X0183370Y0236460D01*
X0182700Y0236730D01*
X0182060Y0237050D01*
X0181430Y0237400D01*
X0180820Y0237780D01*
X0180230Y0238190D01*
X0179660Y0238640D01*
X0179120Y0239120D01*
X0178610Y0239620D01*
X0178130Y0240160D01*
X0177670Y0240710D01*
X0177250Y0241300D01*
X0176860Y0241900D01*
X0176500Y0242530D01*
X0176180Y0243170D01*
X0175890Y0243830D01*
X0175640Y0244510D01*
X0175430Y0245190D01*
X0175250Y0245890D01*
X0175120Y0246600D01*
X0175020Y0247310D01*
X0174960Y0248030D01*
X0174940Y0248750D01*
D13*
X0172500Y0246250D02*
X0157500Y0246250D01*
X0157500Y0252500D01*
X0171870Y0252500D01*
X0172500Y0251870D01*
X0172500Y0246250D01*
X0171870Y0245000D02*
X0172500Y0244370D01*
X0172500Y0238750D01*
X0157500Y0238750D01*
X0157500Y0245000D01*
X0171870Y0245000D01*
X0171870Y0236870D02*
X0172500Y0236250D01*
X0172500Y0230620D01*
X0157500Y0230620D01*
X0157500Y0236870D01*
X0171870Y0236870D01*
X0171870Y0233750D02*
X0178120Y0233750D01*
X0178120Y0219370D01*
X0177500Y0218750D01*
X0171870Y0218750D01*
X0171870Y0233750D01*
X0171870Y0228750D02*
X0172500Y0228120D01*
X0172500Y0222500D01*
X0157500Y0222500D01*
X0157500Y0228750D01*
X0171870Y0228750D01*
X0178120Y0233750D02*
X0184370Y0233750D01*
X0184370Y0219370D01*
X0183750Y0218750D01*
X0178120Y0218750D01*
X0178120Y0233750D01*
X0184370Y0233750D02*
X0190620Y0233750D01*
X0190620Y0219370D01*
X0190000Y0218750D01*
X0184370Y0218750D01*
X0184370Y0233750D01*
X0190640Y0233540D02*
X0196790Y0234630D01*
X0199290Y0220470D01*
X0198780Y0219750D01*
X0193240Y0218770D01*
X0190640Y0233540D01*
X0195640Y0233830D02*
X0200760Y0237420D01*
X0209010Y0225640D01*
X0208860Y0224770D01*
X0204250Y0221540D01*
X0195640Y0233830D01*
X0200690Y0236040D02*
X0203810Y0241450D01*
X0216260Y0234270D01*
X0216490Y0233410D01*
X0213680Y0228540D01*
X0200690Y0236040D01*
X0202500Y0240620D02*
X0202500Y0246870D01*
X0216870Y0246870D01*
X0217500Y0246250D01*
X0217500Y0240620D01*
X0202500Y0240620D01*
X0202500Y0248120D02*
X0202500Y0254370D01*
X0216870Y0254370D01*
X0217500Y0253750D01*
X0217500Y0248120D01*
X0202500Y0248120D01*
X0204210Y0253310D02*
X0201090Y0258720D01*
X0213530Y0265910D01*
X0214390Y0265680D01*
X0217200Y0260810D01*
X0204210Y0253310D01*
X0203030Y0258460D02*
X0197910Y0262040D01*
X0206160Y0273820D01*
X0207030Y0273970D01*
X0211630Y0270750D01*
X0203030Y0258460D01*
X0199140Y0262670D02*
X0193100Y0264290D01*
X0196820Y0278180D01*
X0197580Y0278620D01*
X0203020Y0277160D01*
X0199140Y0262670D01*
X0193120Y0263750D02*
X0186870Y0263750D01*
X0186870Y0278120D01*
X0187500Y0278750D01*
X0193120Y0278750D01*
X0193120Y0263750D01*
X0185620Y0263750D02*
X0179370Y0263750D01*
X0179370Y0278120D01*
X0180000Y0278750D01*
X0185620Y0278750D01*
X0185620Y0263750D01*
X0178120Y0263750D02*
X0171870Y0263750D01*
X0171870Y0278120D01*
X0172500Y0278750D01*
X0178120Y0278750D01*
X0178120Y0263750D01*
X0172500Y0261870D02*
X0157500Y0261870D01*
X0157500Y0268120D01*
X0171870Y0268120D01*
X0172500Y0267500D01*
X0172500Y0261870D01*
X0171870Y0260000D02*
X0172500Y0259370D01*
X0172500Y0253750D01*
X0157500Y0253750D01*
X0157500Y0260000D01*
X0171870Y0260000D01*
X0172500Y0269370D02*
X0157500Y0269370D01*
X0157500Y0275620D01*
X0171870Y0275620D01*
X0172500Y0275000D01*
X0172500Y0269370D01*
X0171870Y0220620D02*
X0157500Y0220620D01*
X0157500Y0214370D01*
X0172500Y0214370D01*
X0172500Y0220000D01*
X0171870Y0220620D01*
X0171870Y0212500D02*
X0172500Y0211870D01*
X0172500Y0206250D01*
X0157500Y0206250D01*
X0157500Y0212500D01*
X0171870Y0212500D01*
X0171870Y0204370D02*
X0172500Y0203750D01*
X0172500Y0198120D01*
X0157500Y0198120D01*
X0157500Y0204370D01*
X0171870Y0204370D01*
D15*
X0174400Y0202230D02*
X0174400Y0199420D01*
X0175800Y0198020D01*
X0177200Y0199420D01*
X0177200Y0202230D01*
X0179000Y0202230D02*
X0180400Y0202230D01*
X0179700Y0202230D02*
X0179700Y0198020D01*
X0179000Y0198020D02*
X0180400Y0198020D01*
X0182070Y0198020D02*
X0182070Y0202230D01*
X0184870Y0198020D01*
X0184870Y0202230D01*
X0185010Y0206770D02*
X0185010Y0210980D01*
X0183600Y0209570D01*
X0181800Y0210270D02*
X0181100Y0210980D01*
X0179700Y0210980D01*
X0179000Y0210270D01*
X0179000Y0207470D01*
X0179700Y0206770D01*
X0181100Y0206770D01*
X0181800Y0207470D01*
X0181800Y0210270D01*
X0183600Y0206770D02*
X0186410Y0206770D01*
X0186730Y0213650D02*
X0185330Y0213650D01*
X0184630Y0214350D01*
X0184630Y0217150D01*
X0185330Y0217850D01*
X0186730Y0217850D01*
X0187430Y0217150D01*
X0187430Y0214350D01*
X0186730Y0213650D01*
X0189230Y0214350D02*
X0189230Y0215050D01*
X0189930Y0215750D01*
X0191330Y0215750D01*
X0192030Y0215050D01*
X0192030Y0214350D01*
X0191330Y0213650D01*
X0189930Y0213650D01*
X0189230Y0214350D01*
X0189930Y0215750D02*
X0189230Y0216450D01*
X0189230Y0217150D01*
X0189930Y0217850D01*
X0191330Y0217850D01*
X0192030Y0217150D01*
X0192030Y0216450D01*
X0191330Y0215750D01*
X0194400Y0214420D02*
X0195800Y0213020D01*
X0197200Y0214420D01*
X0197200Y0217230D01*
X0199000Y0216520D02*
X0199000Y0213720D01*
X0199700Y0213020D01*
X0201100Y0213020D01*
X0201800Y0213720D01*
X0201800Y0216520D01*
X0201100Y0217230D01*
X0199700Y0217230D01*
X0199000Y0216520D01*
X0194400Y0217230D02*
X0194400Y0214420D01*
X0203600Y0213720D02*
X0203600Y0213020D01*
X0203600Y0213720D02*
X0206410Y0216520D01*
X0206410Y0217230D01*
X0203600Y0217230D01*
X0208280Y0221400D02*
X0210260Y0219420D01*
X0212240Y0219420D01*
X0212240Y0221400D01*
X0210260Y0223380D01*
X0212030Y0224160D02*
X0214010Y0222180D01*
X0215000Y0222180D01*
X0215990Y0223170D01*
X0215990Y0224160D01*
X0214010Y0226140D01*
X0213020Y0226140D01*
X0212030Y0225150D01*
X0212030Y0224160D01*
X0216280Y0226430D02*
X0217760Y0227910D01*
X0218750Y0227910D01*
X0219250Y0227420D01*
X0219250Y0226430D01*
X0218260Y0225430D01*
X0217270Y0225430D01*
X0216280Y0226430D01*
X0216280Y0228410D01*
X0216770Y0229890D01*
X0189520Y0259020D02*
X0189520Y0263230D01*
X0187420Y0261120D01*
X0190220Y0261120D01*
X0185620Y0259720D02*
X0185620Y0262520D01*
X0184920Y0263230D01*
X0183510Y0263230D01*
X0182810Y0262520D01*
X0182810Y0259720D01*
X0183510Y0259020D01*
X0184920Y0259020D01*
X0185620Y0259720D01*
X0181010Y0260420D02*
X0181010Y0263230D01*
X0178210Y0263230D02*
X0178210Y0260420D01*
X0179610Y0259020D01*
X0181010Y0260420D01*
X0176970Y0258830D02*
X0176970Y0257430D01*
X0176270Y0256730D01*
X0176970Y0258830D02*
X0176270Y0259530D01*
X0175570Y0259530D01*
X0174870Y0258830D01*
X0174870Y0258130D01*
X0174870Y0258830D02*
X0174170Y0259530D01*
X0173470Y0259530D01*
X0172770Y0258830D01*
X0172770Y0257430D01*
X0173470Y0256730D01*
X0173470Y0254930D02*
X0172770Y0254230D01*
X0172770Y0252830D01*
X0173470Y0252130D01*
X0176270Y0252130D01*
X0176970Y0252830D01*
X0176970Y0254230D01*
X0176270Y0254930D01*
X0173470Y0254930D01*
X0172770Y0250320D02*
X0175570Y0250320D01*
X0176970Y0248920D01*
X0175570Y0247520D01*
X0172770Y0247520D01*
X0175020Y0239100D02*
X0175020Y0236300D01*
X0176420Y0234900D01*
X0177820Y0236300D01*
X0177820Y0239100D01*
X0179630Y0238400D02*
X0179630Y0235600D01*
X0180330Y0234900D01*
X0181730Y0234900D01*
X0182430Y0235600D01*
X0182430Y0238400D01*
X0181730Y0239100D01*
X0180330Y0239100D01*
X0179630Y0238400D01*
X0184230Y0238400D02*
X0184930Y0239100D01*
X0186330Y0239100D01*
X0187030Y0238400D01*
X0187030Y0237700D01*
X0184230Y0234900D01*
X0187030Y0234900D01*
X0182820Y0217850D02*
X0182820Y0215050D01*
X0181420Y0213650D01*
X0180020Y0215050D01*
X0180020Y0217850D01*
X0177200Y0210980D02*
X0177200Y0208170D01*
X0175800Y0206770D01*
X0174400Y0208170D01*
X0174400Y0210980D01*
X0214150Y0268840D02*
X0213160Y0269830D01*
X0213160Y0270820D01*
X0214150Y0271810D02*
X0215640Y0271310D01*
X0216130Y0270820D01*
X0216130Y0269830D01*
X0215140Y0268840D01*
X0214150Y0268840D01*
X0214150Y0271810D02*
X0215640Y0273300D01*
X0217620Y0271310D01*
X0213870Y0274070D02*
X0213870Y0275060D01*
X0212880Y0276060D01*
X0211890Y0276060D01*
X0209910Y0274070D01*
X0209910Y0273080D01*
X0210900Y0272090D01*
X0211890Y0272090D01*
X0213870Y0274070D01*
X0211110Y0277820D02*
X0209130Y0275840D01*
X0207150Y0275840D01*
X0207150Y0277820D01*
X0209130Y0279810D01*
D15*
X0154600Y0194600D02*
X0154600Y0280400D01*
X0220400Y0280400D01*
X0220400Y0194600D01*
X0154600Y0194600D01*
X0010000Y0287500D02*
G75*
%LPD*%
D17*
X0010000Y0287500D02*
X0010000Y0372500D01*
X0075000Y0372500D01*
X0075000Y0287500D01*
X0010000Y0287500D01*
D11*
X0013750Y0303750D02*
X0026830Y0290670D01*
X0029950Y0289370D02*
X0055040Y0289370D01*
X0058170Y0290670D02*
X0071290Y0303790D01*
X0071870Y0305190D02*
X0071870Y0318700D01*
X0070070Y0323050D02*
X0057230Y0335890D01*
X0054850Y0336870D02*
X0035470Y0336870D01*
X0033600Y0337650D02*
X0027810Y0343440D01*
X0026870Y0345690D02*
X0026870Y0348110D01*
X0028200Y0351330D02*
X0033090Y0356210D01*
X0034680Y0356870D02*
X0049520Y0356870D01*
X0051400Y0356100D02*
X0060000Y0347500D01*
X0060360Y0347120D01*
X0060750Y0346770D01*
X0061170Y0346450D01*
X0061600Y0346160D01*
X0062060Y0345910D01*
X0062530Y0345690D01*
X0063020Y0345500D01*
X0063520Y0345350D01*
X0064030Y0345240D01*
X0064550Y0345160D01*
X0065070Y0345120D01*
X0065590Y0345130D01*
X0066120Y0345160D01*
X0066630Y0345240D01*
X0067140Y0345360D01*
X0067640Y0345510D01*
X0068130Y0345700D01*
X0068600Y0345920D01*
X0069060Y0346180D01*
X0069490Y0346470D01*
X0069910Y0346790D01*
X0070300Y0347140D01*
X0070660Y0347520D01*
X0070990Y0347920D01*
X0071290Y0348350D01*
X0071560Y0348790D01*
X0071800Y0349260D01*
X0072000Y0349740D01*
X0072170Y0350240D01*
X0072300Y0350740D01*
X0072390Y0351260D01*
X0072440Y0351780D01*
X0072460Y0352300D01*
X0072440Y0352820D01*
X0072380Y0353340D01*
X0072280Y0353860D01*
X0072140Y0354360D01*
X0071970Y0354860D01*
X0071760Y0355340D01*
X0071520Y0355800D01*
X0071250Y0356240D01*
X0071250Y0356250D02*
X0058530Y0368960D01*
X0054530Y0370620D02*
X0031500Y0370620D01*
X0025730Y0368230D02*
X0014860Y0358610D01*
X0011870Y0353170D02*
X0011870Y0341130D01*
X0013750Y0336250D02*
X0027570Y0324290D01*
X0031250Y0322500D02*
X0047500Y0322500D01*
X0052500Y0321250D02*
X0055000Y0318750D01*
X0056870Y0313050D02*
X0056870Y0311130D01*
X0056880Y0311130D02*
X0056870Y0310640D01*
X0056830Y0310160D01*
X0056760Y0309670D01*
X0056650Y0309200D01*
X0056510Y0308730D01*
X0056330Y0308270D01*
X0056130Y0307830D01*
X0055890Y0307400D01*
X0055620Y0307000D01*
X0055330Y0306610D01*
X0055000Y0306240D01*
X0050000Y0303750D02*
X0036250Y0303750D01*
X0031250Y0306250D02*
X0025000Y0312500D01*
X0025000Y0312490D02*
X0024640Y0312870D01*
X0024250Y0313220D01*
X0023830Y0313540D01*
X0023400Y0313830D01*
X0022940Y0314080D01*
X0022470Y0314300D01*
X0021980Y0314490D01*
X0021480Y0314640D01*
X0020970Y0314750D01*
X0020450Y0314830D01*
X0019930Y0314870D01*
X0019410Y0314860D01*
X0018880Y0314830D01*
X0018370Y0314750D01*
X0017860Y0314630D01*
X0017360Y0314480D01*
X0016870Y0314290D01*
X0016400Y0314070D01*
X0015940Y0313810D01*
X0015510Y0313520D01*
X0015090Y0313200D01*
X0014700Y0312850D01*
X0014340Y0312470D01*
X0014010Y0312070D01*
X0013710Y0311640D01*
X0013440Y0311200D01*
X0013200Y0310730D01*
X0013000Y0310250D01*
X0012830Y0309750D01*
X0012700Y0309250D01*
X0012610Y0308730D01*
X0012560Y0308210D01*
X0012540Y0307690D01*
X0012560Y0307170D01*
X0012620Y0306650D01*
X0012720Y0306130D01*
X0012860Y0305630D01*
X0013030Y0305130D01*
X0013240Y0304650D01*
X0013480Y0304190D01*
X0013750Y0303750D01*
X0026820Y0290660D02*
X0027110Y0290400D01*
X0027410Y0290170D01*
X0027740Y0289960D01*
X0028080Y0289780D01*
X0028440Y0289640D01*
X0028810Y0289520D01*
X0029180Y0289440D01*
X0029560Y0289390D01*
X0029950Y0289370D01*
X0036240Y0303750D02*
X0035720Y0303800D01*
X0035210Y0303900D01*
X0034710Y0304020D01*
X0034210Y0304190D01*
X0033730Y0304390D01*
X0033260Y0304620D01*
X0032820Y0304890D01*
X0032390Y0305180D01*
X0031980Y0305510D01*
X0031600Y0305870D01*
X0031250Y0306250D01*
X0056870Y0313060D02*
X0056890Y0313610D01*
X0056870Y0314170D01*
X0056810Y0314730D01*
X0056720Y0315280D01*
X0056580Y0315820D01*
X0056410Y0316350D01*
X0056190Y0316870D01*
X0055940Y0317370D01*
X0055660Y0317850D01*
X0055340Y0318310D01*
X0054990Y0318750D01*
X0052500Y0321250D02*
X0052100Y0321520D01*
X0051690Y0321760D01*
X0051260Y0321980D01*
X0050810Y0322160D01*
X0050350Y0322310D01*
X0049890Y0322420D01*
X0049410Y0322510D01*
X0048940Y0322560D01*
X0048460Y0322570D01*
X0047980Y0322550D01*
X0047500Y0322500D01*
X0054850Y0336880D02*
X0055180Y0336860D01*
X0055510Y0336820D01*
X0055830Y0336730D01*
X0056140Y0336620D01*
X0056440Y0336480D01*
X0056720Y0336310D01*
X0056990Y0336120D01*
X0057230Y0335890D01*
X0070080Y0323060D02*
X0070400Y0322700D01*
X0070700Y0322320D01*
X0070970Y0321920D01*
X0071210Y0321500D01*
X0071410Y0321060D01*
X0071580Y0320600D01*
X0071710Y0320140D01*
X0071800Y0319660D01*
X0071860Y0319180D01*
X0071880Y0318700D01*
X0071880Y0305190D02*
X0071860Y0304930D01*
X0071810Y0304680D01*
X0071730Y0304430D01*
X0071610Y0304200D01*
X0071470Y0303980D01*
X0071300Y0303790D01*
X0058170Y0290660D02*
X0057880Y0290400D01*
X0057580Y0290170D01*
X0057250Y0289960D01*
X0056910Y0289780D01*
X0056550Y0289640D01*
X0056180Y0289520D01*
X0055810Y0289440D01*
X0055430Y0289390D01*
X0055040Y0289370D01*
X0050000Y0303740D02*
X0050480Y0303770D01*
X0050950Y0303840D01*
X0051430Y0303940D01*
X0051890Y0304070D01*
X0052340Y0304240D01*
X0052780Y0304440D01*
X0053200Y0304670D01*
X0053600Y0304930D01*
X0053990Y0305220D01*
X0054350Y0305540D01*
X0054690Y0305880D01*
X0055000Y0306240D01*
X0031250Y0322500D02*
X0030830Y0322540D01*
X0030420Y0322620D01*
X0030010Y0322730D01*
X0029620Y0322860D01*
X0029230Y0323030D01*
X0028860Y0323230D01*
X0028510Y0323460D01*
X0028180Y0323710D01*
X0027870Y0323990D01*
X0027580Y0324300D01*
X0033600Y0337650D02*
X0033820Y0337450D01*
X0034060Y0337280D01*
X0034320Y0337130D01*
X0034590Y0337020D01*
X0034880Y0336940D01*
X0035170Y0336890D01*
X0035470Y0336870D01*
X0027800Y0343430D02*
X0027590Y0343670D01*
X0027410Y0343920D01*
X0027250Y0344190D01*
X0027110Y0344470D01*
X0027010Y0344760D01*
X0026930Y0345070D01*
X0026890Y0345380D01*
X0026870Y0345690D01*
X0026870Y0348110D02*
X0026890Y0348510D01*
X0026940Y0348900D01*
X0027030Y0349290D01*
X0027140Y0349670D01*
X0027300Y0350030D01*
X0027480Y0350380D01*
X0027690Y0350720D01*
X0027930Y0351030D01*
X0028200Y0351330D01*
X0033090Y0356210D02*
X0033310Y0356410D01*
X0033550Y0356570D01*
X0033820Y0356700D01*
X0034100Y0356790D01*
X0034390Y0356850D01*
X0034680Y0356870D01*
X0031500Y0370620D02*
X0030970Y0370600D01*
X0030440Y0370550D01*
X0029910Y0370460D01*
X0029390Y0370340D01*
X0028880Y0370190D01*
X0028380Y0370000D01*
X0027900Y0369780D01*
X0027420Y0369530D01*
X0026970Y0369250D01*
X0026540Y0368940D01*
X0026130Y0368600D01*
X0025740Y0368230D01*
X0014850Y0358610D02*
X0014450Y0358260D01*
X0014070Y0357890D01*
X0013720Y0357490D01*
X0013390Y0357080D01*
X0013090Y0356640D01*
X0012820Y0356180D01*
X0012580Y0355710D01*
X0012370Y0355220D01*
X0012200Y0354720D01*
X0012050Y0354210D01*
X0011940Y0353690D01*
X0011870Y0353160D01*
X0011870Y0341130D02*
X0011880Y0340640D01*
X0011920Y0340160D01*
X0011990Y0339670D01*
X0012100Y0339200D01*
X0012240Y0338730D01*
X0012420Y0338270D01*
X0012620Y0337830D01*
X0012860Y0337400D01*
X0013130Y0337000D01*
X0013420Y0336610D01*
X0013750Y0336240D01*
X0049520Y0356870D02*
X0049820Y0356850D01*
X0050110Y0356800D01*
X0050400Y0356720D01*
X0050670Y0356610D01*
X0050930Y0356460D01*
X0051170Y0356290D01*
X0051390Y0356090D01*
X0058530Y0368960D02*
X0058210Y0369260D01*
X0057860Y0369540D01*
X0057490Y0369790D01*
X0057100Y0370000D01*
X0056700Y0370190D01*
X0056280Y0370340D01*
X0055850Y0370460D01*
X0055420Y0370550D01*
X0054970Y0370600D01*
X0054530Y0370620D01*
D13*
X0060000Y0368120D02*
X0061250Y0366870D01*
X0061250Y0360620D01*
X0046250Y0360620D01*
X0046250Y0368120D01*
X0060000Y0368120D01*
X0065620Y0362500D02*
X0066870Y0361250D01*
X0066870Y0355000D01*
X0051870Y0355000D01*
X0051870Y0362500D01*
X0065620Y0362500D01*
X0071250Y0355620D02*
X0057500Y0355620D01*
X0057500Y0348120D01*
X0072500Y0348120D01*
X0072500Y0354370D01*
X0071250Y0355620D01*
X0060510Y0333750D02*
X0061760Y0332500D01*
X0061760Y0326250D01*
X0046760Y0326250D01*
X0046760Y0333750D01*
X0060510Y0333750D01*
X0067130Y0326980D02*
X0053380Y0326980D01*
X0053380Y0319480D01*
X0068380Y0319480D01*
X0068380Y0325730D01*
X0067130Y0326980D01*
X0071250Y0319370D02*
X0072500Y0318120D01*
X0072500Y0311870D01*
X0057500Y0311870D01*
X0057500Y0319370D01*
X0071250Y0319370D01*
X0071250Y0312500D02*
X0072500Y0311250D01*
X0072500Y0305000D01*
X0057500Y0305000D01*
X0057500Y0312500D01*
X0071250Y0312500D01*
X0066250Y0305620D02*
X0067500Y0304370D01*
X0067500Y0298120D01*
X0052500Y0298120D01*
X0052500Y0305620D01*
X0066250Y0305620D01*
X0060000Y0299370D02*
X0061250Y0298120D01*
X0061250Y0291870D01*
X0046250Y0291870D01*
X0046250Y0299370D01*
X0060000Y0299370D01*
X0046870Y0303750D02*
X0046870Y0288750D01*
X0039370Y0288750D01*
X0039370Y0302500D01*
X0040620Y0303750D01*
X0046870Y0303750D01*
X0040000Y0298120D02*
X0038750Y0299370D01*
X0025000Y0299370D01*
X0025000Y0291870D01*
X0040000Y0291870D01*
X0040000Y0298120D01*
X0032500Y0298120D02*
X0017500Y0298120D01*
X0017500Y0305620D01*
X0031250Y0305620D01*
X0032500Y0304370D01*
X0032500Y0298120D01*
X0026250Y0304370D02*
X0011250Y0304370D01*
X0011250Y0311870D01*
X0025000Y0311870D01*
X0026250Y0310620D01*
X0026250Y0304370D01*
X0039370Y0322500D02*
X0039370Y0336250D01*
X0040620Y0337500D01*
X0046870Y0337500D01*
X0046870Y0322500D01*
X0039370Y0322500D01*
X0039810Y0326320D02*
X0024810Y0326320D01*
X0024810Y0333820D01*
X0038560Y0333820D01*
X0039810Y0332570D01*
X0039810Y0326320D01*
X0031760Y0332860D02*
X0016760Y0332860D01*
X0016760Y0340360D01*
X0030510Y0340360D01*
X0031760Y0339110D01*
X0031760Y0332860D01*
X0026870Y0340000D02*
X0011870Y0340000D01*
X0011870Y0347500D01*
X0025620Y0347500D01*
X0026870Y0346250D01*
X0026870Y0340000D01*
X0026870Y0348120D02*
X0011870Y0348120D01*
X0011870Y0355620D01*
X0025620Y0355620D01*
X0026870Y0354370D01*
X0026870Y0348120D01*
X0033120Y0355000D02*
X0018120Y0355000D01*
X0018120Y0362500D01*
X0031870Y0362500D01*
X0033120Y0361250D01*
X0033120Y0355000D01*
X0039370Y0356870D02*
X0039370Y0370620D01*
X0040620Y0371870D01*
X0046870Y0371870D01*
X0046870Y0356870D01*
X0039370Y0356870D01*
X0040000Y0360620D02*
X0025000Y0360620D01*
X0025000Y0368120D01*
X0038750Y0368120D01*
X0040000Y0366870D01*
X0040000Y0360620D01*
D15*
X0036640Y0367270D02*
X0035240Y0367270D01*
X0034540Y0367970D01*
X0034540Y0369370D01*
X0036640Y0369370D01*
X0037350Y0368670D01*
X0037350Y0367970D01*
X0036640Y0367270D01*
X0034540Y0369370D02*
X0035940Y0370770D01*
X0037350Y0371480D01*
X0032740Y0370770D02*
X0032740Y0367970D01*
X0032040Y0367270D01*
X0030640Y0367270D01*
X0029940Y0367970D01*
X0029940Y0370770D01*
X0030640Y0371480D01*
X0032040Y0371480D01*
X0032740Y0370770D01*
X0028140Y0371480D02*
X0028140Y0368670D01*
X0026740Y0367270D01*
X0025330Y0368670D01*
X0025330Y0371480D01*
X0030330Y0352100D02*
X0030330Y0349300D01*
X0031740Y0347900D01*
X0033140Y0349300D01*
X0033140Y0352100D01*
X0034940Y0351400D02*
X0034940Y0348600D01*
X0035640Y0347900D01*
X0037040Y0347900D01*
X0037740Y0348600D01*
X0037740Y0351400D01*
X0037040Y0352100D01*
X0035640Y0352100D01*
X0034940Y0351400D01*
X0039540Y0352100D02*
X0039540Y0350000D01*
X0040940Y0350700D01*
X0041640Y0350700D01*
X0042350Y0350000D01*
X0042350Y0348600D01*
X0041640Y0347900D01*
X0040240Y0347900D01*
X0039540Y0348600D01*
X0039540Y0352100D02*
X0042350Y0352100D01*
X0042130Y0341290D02*
X0041430Y0340590D01*
X0041430Y0337790D01*
X0042130Y0337090D01*
X0043540Y0337090D01*
X0044240Y0337790D01*
X0044240Y0340590D01*
X0043540Y0341290D01*
X0042130Y0341290D01*
X0039630Y0341290D02*
X0039630Y0338490D01*
X0038230Y0337090D01*
X0036830Y0338490D01*
X0036830Y0341290D01*
X0046040Y0339190D02*
X0048840Y0339190D01*
X0048140Y0337090D02*
X0048140Y0341290D01*
X0046040Y0339190D01*
X0059430Y0336890D02*
X0059430Y0334910D01*
X0061410Y0334910D01*
X0063390Y0336890D01*
X0061410Y0338870D02*
X0059430Y0336890D01*
X0062190Y0333140D02*
X0062190Y0332150D01*
X0063180Y0331160D01*
X0064170Y0331160D01*
X0066150Y0333140D01*
X0066150Y0334130D01*
X0065160Y0335120D01*
X0064170Y0335120D01*
X0062190Y0333140D01*
X0065440Y0329880D02*
X0065440Y0328890D01*
X0066430Y0327900D01*
X0067420Y0327900D01*
X0067920Y0328400D01*
X0067920Y0329390D01*
X0067420Y0329880D01*
X0067920Y0329390D02*
X0068910Y0329390D01*
X0069400Y0329880D01*
X0069400Y0330870D01*
X0068410Y0331870D01*
X0067420Y0331870D01*
X0044690Y0308980D02*
X0044690Y0304770D01*
X0043290Y0304770D02*
X0046100Y0304770D01*
X0043290Y0307570D02*
X0044690Y0308980D01*
X0041490Y0308270D02*
X0041490Y0305470D01*
X0040790Y0304770D01*
X0039390Y0304770D01*
X0038690Y0305470D01*
X0038690Y0308270D01*
X0039390Y0308980D01*
X0040790Y0308980D01*
X0041490Y0308270D01*
X0036890Y0308980D02*
X0036890Y0306170D01*
X0035490Y0304770D01*
X0034080Y0306170D01*
X0034080Y0308980D01*
X0026100Y0313520D02*
X0026100Y0317730D01*
X0023290Y0317730D02*
X0023290Y0313520D01*
X0021620Y0313520D02*
X0020220Y0313520D01*
X0020920Y0313520D02*
X0020920Y0317730D01*
X0020220Y0317730D02*
X0021620Y0317730D01*
X0023290Y0317730D02*
X0026100Y0313520D01*
X0018420Y0314920D02*
X0018420Y0317730D01*
X0018420Y0314920D02*
X0017020Y0313520D01*
X0015620Y0314920D01*
X0015620Y0317730D01*
X0061930Y0292990D02*
X0063910Y0291010D01*
X0065890Y0291010D01*
X0065890Y0292990D01*
X0063910Y0294970D01*
X0065680Y0295750D02*
X0065680Y0296740D01*
X0066670Y0297730D01*
X0067660Y0297730D01*
X0069640Y0295750D01*
X0069640Y0294760D01*
X0068650Y0293770D01*
X0067660Y0293770D01*
X0065680Y0295750D01*
X0068940Y0299010D02*
X0068940Y0300000D01*
X0069930Y0300990D01*
X0070920Y0300990D01*
X0071410Y0300490D01*
X0071410Y0296530D01*
X0073390Y0298510D01*
X0068770Y0360340D02*
X0069270Y0360840D01*
X0073230Y0360840D01*
X0073730Y0361330D01*
X0071740Y0363310D01*
X0069970Y0364090D02*
X0069970Y0365080D01*
X0068980Y0366070D01*
X0067990Y0366070D01*
X0066010Y0364090D01*
X0066010Y0363100D01*
X0067000Y0362110D01*
X0067990Y0362110D01*
X0069970Y0364090D01*
X0067210Y0367840D02*
X0065230Y0365860D01*
X0063250Y0365860D01*
X0063250Y0367840D01*
X0065230Y0369820D01*
D15*
X0010400Y0287100D02*
X0010400Y0372100D01*
X0010400Y0372100D02*
X0075400Y0372100D01*
X0075400Y0372100D02*
X0075400Y0287100D01*
X0010400Y0287100D01*
X0082500Y0287500D02*
G75*
%LPD*%
D17*
X0082500Y0287500D02*
X0082500Y0372500D01*
X0147500Y0372500D01*
X0147500Y0287500D01*
X0082500Y0287500D01*
D11*
X0085620Y0290000D02*
X0085620Y0370620D01*
X0126250Y0370620D01*
X0145620Y0347500D02*
X0145620Y0330000D01*
X0124370Y0311250D02*
X0100620Y0311250D01*
X0100620Y0290000D01*
X0085620Y0290000D01*
X0124370Y0311250D02*
X0125360Y0311410D01*
X0126340Y0311600D01*
X0127310Y0311830D01*
X0128280Y0312100D01*
X0129230Y0312410D01*
X0130170Y0312750D01*
X0131100Y0313130D01*
X0132010Y0313550D01*
X0132900Y0314000D01*
X0133770Y0314480D01*
X0134630Y0315010D01*
X0135460Y0315560D01*
X0136280Y0316140D01*
X0137060Y0316760D01*
X0137830Y0317410D01*
X0138570Y0318090D01*
X0139280Y0318790D01*
X0139960Y0319520D01*
X0140610Y0320280D01*
X0141230Y0321070D01*
X0141830Y0321870D01*
X0142380Y0322700D01*
X0142910Y0323560D01*
X0143400Y0324430D01*
X0143860Y0325320D01*
X0144290Y0326220D01*
X0144670Y0327150D01*
X0145020Y0328090D01*
X0145340Y0329040D01*
X0145610Y0330000D01*
X0145620Y0347500D02*
X0145490Y0348520D01*
X0145310Y0349540D01*
X0145110Y0350550D01*
X0144860Y0351550D01*
X0144570Y0352540D01*
X0144250Y0353520D01*
X0143890Y0354490D01*
X0143500Y0355440D01*
X0143060Y0356380D01*
X0142600Y0357300D01*
X0142100Y0358200D01*
X0141560Y0359080D01*
X0140990Y0359940D01*
X0140390Y0360780D01*
X0139760Y0361590D01*
X0139100Y0362380D01*
X0138400Y0363150D01*
X0137680Y0363890D01*
X0136940Y0364600D01*
X0136160Y0365280D01*
X0135360Y0365930D01*
X0134540Y0366550D01*
X0133690Y0367140D01*
X0132820Y0367700D01*
X0131940Y0368220D01*
X0131030Y0368710D01*
X0130100Y0369160D01*
X0129160Y0369580D01*
X0128200Y0369960D01*
X0127230Y0370310D01*
X0126250Y0370620D01*
X0102440Y0341250D02*
X0102460Y0341970D01*
X0102520Y0342690D01*
X0102620Y0343400D01*
X0102750Y0344110D01*
X0102930Y0344810D01*
X0103140Y0345490D01*
X0103390Y0346170D01*
X0103680Y0346830D01*
X0104000Y0347470D01*
X0104360Y0348100D01*
X0104750Y0348700D01*
X0105170Y0349290D01*
X0105630Y0349840D01*
X0106110Y0350380D01*
X0106620Y0350880D01*
X0107160Y0351360D01*
X0107730Y0351810D01*
X0108320Y0352220D01*
X0108930Y0352600D01*
X0109560Y0352950D01*
X0110200Y0353270D01*
X0110870Y0353540D01*
X0111550Y0353780D01*
X0112240Y0353990D01*
X0112940Y0354150D01*
X0113650Y0354280D01*
X0114360Y0354370D01*
X0115080Y0354420D01*
X0115800Y0354430D01*
X0116520Y0354400D01*
X0117240Y0354330D01*
X0117950Y0354220D01*
X0118650Y0354080D01*
X0119350Y0353890D01*
X0120030Y0353670D01*
X0120710Y0353410D01*
X0121360Y0353110D01*
X0122000Y0352780D01*
X0122620Y0352420D01*
X0123220Y0352020D01*
X0123800Y0351590D01*
X0124350Y0351120D01*
X0124880Y0350630D01*
X0125370Y0350110D01*
X0125840Y0349570D01*
X0126280Y0349000D01*
X0126690Y0348400D01*
X0127060Y0347790D01*
X0127400Y0347150D01*
X0127710Y0346500D01*
X0127980Y0345830D01*
X0128210Y0345150D01*
X0128400Y0344460D01*
X0128560Y0343760D01*
X0128680Y0343040D01*
X0128760Y0342330D01*
X0128800Y0341610D01*
X0128800Y0340890D01*
X0128760Y0340170D01*
X0128680Y0339460D01*
X0128560Y0338740D01*
X0128400Y0338040D01*
X0128210Y0337350D01*
X0127980Y0336670D01*
X0127710Y0336000D01*
X0127400Y0335350D01*
X0127060Y0334710D01*
X0126690Y0334100D01*
X0126280Y0333500D01*
X0125840Y0332930D01*
X0125370Y0332390D01*
X0124880Y0331870D01*
X0124350Y0331380D01*
X0123800Y0330910D01*
X0123220Y0330480D01*
X0122620Y0330080D01*
X0122000Y0329720D01*
X0121360Y0329390D01*
X0120710Y0329090D01*
X0120030Y0328830D01*
X0119350Y0328610D01*
X0118650Y0328420D01*
X0117950Y0328280D01*
X0117240Y0328170D01*
X0116520Y0328100D01*
X0115800Y0328070D01*
X0115080Y0328080D01*
X0114360Y0328130D01*
X0113650Y0328220D01*
X0112940Y0328350D01*
X0112240Y0328510D01*
X0111550Y0328720D01*
X0110870Y0328960D01*
X0110200Y0329230D01*
X0109560Y0329550D01*
X0108930Y0329900D01*
X0108320Y0330280D01*
X0107730Y0330690D01*
X0107160Y0331140D01*
X0106620Y0331620D01*
X0106110Y0332120D01*
X0105630Y0332660D01*
X0105170Y0333210D01*
X0104750Y0333800D01*
X0104360Y0334400D01*
X0104000Y0335030D01*
X0103680Y0335670D01*
X0103390Y0336330D01*
X0103140Y0337010D01*
X0102930Y0337690D01*
X0102750Y0338390D01*
X0102620Y0339100D01*
X0102520Y0339810D01*
X0102460Y0340530D01*
X0102440Y0341250D01*
D13*
X0100000Y0338750D02*
X0085000Y0338750D01*
X0085000Y0345000D01*
X0099370Y0345000D01*
X0100000Y0344370D01*
X0100000Y0338750D01*
X0099370Y0337500D02*
X0100000Y0336870D01*
X0100000Y0331250D01*
X0085000Y0331250D01*
X0085000Y0337500D01*
X0099370Y0337500D01*
X0099370Y0329370D02*
X0100000Y0328750D01*
X0100000Y0323120D01*
X0085000Y0323120D01*
X0085000Y0329370D01*
X0099370Y0329370D01*
X0099370Y0326250D02*
X0105620Y0326250D01*
X0105620Y0311870D01*
X0105000Y0311250D01*
X0099370Y0311250D01*
X0099370Y0326250D01*
X0099370Y0321250D02*
X0100000Y0320620D01*
X0100000Y0315000D01*
X0085000Y0315000D01*
X0085000Y0321250D01*
X0099370Y0321250D01*
X0105620Y0326250D02*
X0111870Y0326250D01*
X0111870Y0311870D01*
X0111250Y0311250D01*
X0105620Y0311250D01*
X0105620Y0326250D01*
X0111870Y0326250D02*
X0118120Y0326250D01*
X0118120Y0311870D01*
X0117500Y0311250D01*
X0111870Y0311250D01*
X0111870Y0326250D01*
X0118140Y0326040D02*
X0124290Y0327130D01*
X0126790Y0312970D01*
X0126280Y0312250D01*
X0120740Y0311270D01*
X0118140Y0326040D01*
X0123140Y0326330D02*
X0128260Y0329920D01*
X0136510Y0318140D01*
X0136360Y0317270D01*
X0131750Y0314040D01*
X0123140Y0326330D01*
X0128190Y0328540D02*
X0131310Y0333950D01*
X0143760Y0326770D01*
X0143990Y0325910D01*
X0141180Y0321040D01*
X0128190Y0328540D01*
X0130000Y0333120D02*
X0130000Y0339370D01*
X0144370Y0339370D01*
X0145000Y0338750D01*
X0145000Y0333120D01*
X0130000Y0333120D01*
X0130000Y0340620D02*
X0130000Y0346870D01*
X0144370Y0346870D01*
X0145000Y0346250D01*
X0145000Y0340620D01*
X0130000Y0340620D01*
X0131710Y0345810D02*
X0128590Y0351220D01*
X0141030Y0358410D01*
X0141890Y0358180D01*
X0144700Y0353310D01*
X0131710Y0345810D01*
X0130530Y0350960D02*
X0125410Y0354540D01*
X0133660Y0366320D01*
X0134530Y0366470D01*
X0139130Y0363250D01*
X0130530Y0350960D01*
X0126640Y0355170D02*
X0120600Y0356790D01*
X0124320Y0370680D01*
X0125080Y0371120D01*
X0130520Y0369660D01*
X0126640Y0355170D01*
X0120620Y0356250D02*
X0114370Y0356250D01*
X0114370Y0370620D01*
X0115000Y0371250D01*
X0120620Y0371250D01*
X0120620Y0356250D01*
X0113120Y0356250D02*
X0106870Y0356250D01*
X0106870Y0370620D01*
X0107500Y0371250D01*
X0113120Y0371250D01*
X0113120Y0356250D01*
X0105620Y0356250D02*
X0099370Y0356250D01*
X0099370Y0370620D01*
X0100000Y0371250D01*
X0105620Y0371250D01*
X0105620Y0356250D01*
X0100000Y0354370D02*
X0085000Y0354370D01*
X0085000Y0360620D01*
X0099370Y0360620D01*
X0100000Y0360000D01*
X0100000Y0354370D01*
X0099370Y0352500D02*
X0100000Y0351870D01*
X0100000Y0346250D01*
X0085000Y0346250D01*
X0085000Y0352500D01*
X0099370Y0352500D01*
X0100000Y0361870D02*
X0085000Y0361870D01*
X0085000Y0368120D01*
X0099370Y0368120D01*
X0100000Y0367500D01*
X0100000Y0361870D01*
X0099370Y0313120D02*
X0085000Y0313120D01*
X0085000Y0306870D01*
X0100000Y0306870D01*
X0100000Y0312500D01*
X0099370Y0313120D01*
X0099370Y0305000D02*
X0100000Y0304370D01*
X0100000Y0298750D01*
X0085000Y0298750D01*
X0085000Y0305000D01*
X0099370Y0305000D01*
X0099370Y0296870D02*
X0100000Y0296250D01*
X0100000Y0290620D01*
X0085000Y0290620D01*
X0085000Y0296870D01*
X0099370Y0296870D01*
D15*
X0101900Y0294730D02*
X0101900Y0291920D01*
X0103300Y0290520D01*
X0104700Y0291920D01*
X0104700Y0294730D01*
X0106500Y0294730D02*
X0107900Y0294730D01*
X0107200Y0294730D02*
X0107200Y0290520D01*
X0106500Y0290520D02*
X0107900Y0290520D01*
X0109570Y0290520D02*
X0109570Y0294730D01*
X0112370Y0290520D01*
X0112370Y0294730D01*
X0112510Y0299270D02*
X0112510Y0303480D01*
X0111100Y0302070D01*
X0109300Y0302770D02*
X0108600Y0303480D01*
X0107200Y0303480D01*
X0106500Y0302770D01*
X0106500Y0299970D01*
X0107200Y0299270D01*
X0108600Y0299270D01*
X0109300Y0299970D01*
X0109300Y0302770D01*
X0111100Y0299270D02*
X0113910Y0299270D01*
X0114230Y0306150D02*
X0112830Y0306150D01*
X0112130Y0306850D01*
X0112130Y0309650D01*
X0112830Y0310350D01*
X0114230Y0310350D01*
X0114930Y0309650D01*
X0114930Y0306850D01*
X0114230Y0306150D01*
X0116730Y0306850D02*
X0116730Y0307550D01*
X0117430Y0308250D01*
X0118830Y0308250D01*
X0119530Y0307550D01*
X0119530Y0306850D01*
X0118830Y0306150D01*
X0117430Y0306150D01*
X0116730Y0306850D01*
X0117430Y0308250D02*
X0116730Y0308950D01*
X0116730Y0309650D01*
X0117430Y0310350D01*
X0118830Y0310350D01*
X0119530Y0309650D01*
X0119530Y0308950D01*
X0118830Y0308250D01*
X0121900Y0306920D02*
X0123300Y0305520D01*
X0124700Y0306920D01*
X0124700Y0309730D01*
X0126500Y0309020D02*
X0126500Y0306220D01*
X0127200Y0305520D01*
X0128600Y0305520D01*
X0129300Y0306220D01*
X0129300Y0309020D01*
X0128600Y0309730D01*
X0127200Y0309730D01*
X0126500Y0309020D01*
X0121900Y0309730D02*
X0121900Y0306920D01*
X0131100Y0306220D02*
X0131100Y0305520D01*
X0131100Y0306220D02*
X0133910Y0309020D01*
X0133910Y0309730D01*
X0131100Y0309730D01*
X0135780Y0313900D02*
X0137760Y0311920D01*
X0139740Y0311920D01*
X0139740Y0313900D01*
X0137760Y0315880D01*
X0139530Y0316660D02*
X0141510Y0314680D01*
X0142500Y0314680D01*
X0143490Y0315670D01*
X0143490Y0316660D01*
X0141510Y0318640D01*
X0140520Y0318640D01*
X0139530Y0317650D01*
X0139530Y0316660D01*
X0143780Y0318930D02*
X0145260Y0320410D01*
X0146250Y0320410D01*
X0146750Y0319920D01*
X0146750Y0318930D01*
X0145760Y0317930D01*
X0144770Y0317930D01*
X0143780Y0318930D01*
X0143780Y0320910D01*
X0144270Y0322390D01*
X0117020Y0351520D02*
X0117020Y0355730D01*
X0114920Y0353620D01*
X0117720Y0353620D01*
X0113120Y0352220D02*
X0113120Y0355020D01*
X0112420Y0355730D01*
X0111010Y0355730D01*
X0110310Y0355020D01*
X0110310Y0352220D01*
X0111010Y0351520D01*
X0112420Y0351520D01*
X0113120Y0352220D01*
X0108510Y0352920D02*
X0108510Y0355730D01*
X0105710Y0355730D02*
X0105710Y0352920D01*
X0107110Y0351520D01*
X0108510Y0352920D01*
X0104470Y0351330D02*
X0104470Y0349930D01*
X0103770Y0349230D01*
X0104470Y0351330D02*
X0103770Y0352030D01*
X0103070Y0352030D01*
X0102370Y0351330D01*
X0102370Y0350630D01*
X0102370Y0351330D02*
X0101670Y0352030D01*
X0100970Y0352030D01*
X0100270Y0351330D01*
X0100270Y0349930D01*
X0100970Y0349230D01*
X0100970Y0347430D02*
X0100270Y0346730D01*
X0100270Y0345330D01*
X0100970Y0344630D01*
X0103770Y0344630D01*
X0104470Y0345330D01*
X0104470Y0346730D01*
X0103770Y0347430D01*
X0100970Y0347430D01*
X0100270Y0342820D02*
X0103070Y0342820D01*
X0104470Y0341420D01*
X0103070Y0340020D01*
X0100270Y0340020D01*
X0102520Y0331600D02*
X0102520Y0328800D01*
X0103920Y0327400D01*
X0105320Y0328800D01*
X0105320Y0331600D01*
X0107130Y0330900D02*
X0107130Y0328100D01*
X0107830Y0327400D01*
X0109230Y0327400D01*
X0109930Y0328100D01*
X0109930Y0330900D01*
X0109230Y0331600D01*
X0107830Y0331600D01*
X0107130Y0330900D01*
X0111730Y0330900D02*
X0112430Y0331600D01*
X0113830Y0331600D01*
X0114530Y0330900D01*
X0114530Y0330200D01*
X0111730Y0327400D01*
X0114530Y0327400D01*
X0110320Y0310350D02*
X0110320Y0307550D01*
X0108920Y0306150D01*
X0107520Y0307550D01*
X0107520Y0310350D01*
X0104700Y0303480D02*
X0104700Y0300670D01*
X0103300Y0299270D01*
X0101900Y0300670D01*
X0101900Y0303480D01*
X0141650Y0361340D02*
X0140660Y0362330D01*
X0140660Y0363320D01*
X0141650Y0364310D02*
X0143140Y0363810D01*
X0143630Y0363320D01*
X0143630Y0362330D01*
X0142640Y0361340D01*
X0141650Y0361340D01*
X0141650Y0364310D02*
X0143140Y0365800D01*
X0145120Y0363810D01*
X0141370Y0366570D02*
X0141370Y0367560D01*
X0140380Y0368560D01*
X0139390Y0368560D01*
X0137410Y0366570D01*
X0137410Y0365580D01*
X0138400Y0364590D01*
X0139390Y0364590D01*
X0141370Y0366570D01*
X0138610Y0370320D02*
X0136630Y0368340D01*
X0134650Y0368340D01*
X0134650Y0370320D01*
X0136630Y0372310D01*
D15*
X0082100Y0287100D02*
X0082100Y0372100D01*
X0147900Y0372100D01*
X0147900Y0372100D02*
X0147900Y0287100D01*
X0082100Y0287100D01*
X0155000Y0287500D02*
G75*
%LPD*%
D17*
X0155000Y0287500D02*
X0155000Y0372500D01*
X0220000Y0372500D01*
X0220000Y0287500D01*
X0155000Y0287500D01*
D11*
X0170000Y0290510D02*
X0170000Y0301980D01*
X0169990Y0301980D02*
X0170010Y0302230D01*
X0170060Y0302480D01*
X0170150Y0302720D01*
X0170270Y0302940D01*
X0170420Y0303140D01*
X0170600Y0303320D01*
X0170800Y0303470D01*
X0171020Y0303590D01*
X0171260Y0303680D01*
X0171510Y0303730D01*
X0171760Y0303750D01*
X0178230Y0303750D01*
X0178230Y0303740D02*
X0178480Y0303760D01*
X0178730Y0303810D01*
X0178970Y0303900D01*
X0179190Y0304020D01*
X0179390Y0304170D01*
X0179570Y0304350D01*
X0179720Y0304550D01*
X0179840Y0304770D01*
X0179930Y0305010D01*
X0179980Y0305260D01*
X0180000Y0305510D01*
X0180000Y0354480D01*
X0179980Y0354730D01*
X0179930Y0354980D01*
X0179840Y0355220D01*
X0179720Y0355440D01*
X0179570Y0355640D01*
X0179390Y0355820D01*
X0179190Y0355970D01*
X0178970Y0356090D01*
X0178730Y0356180D01*
X0178480Y0356230D01*
X0178230Y0356250D01*
X0172500Y0356250D01*
X0172200Y0356270D01*
X0171900Y0356320D01*
X0171610Y0356410D01*
X0171340Y0356540D01*
X0171080Y0356690D01*
X0170840Y0356880D01*
X0170630Y0357090D01*
X0170440Y0357330D01*
X0170290Y0357590D01*
X0170160Y0357860D01*
X0170070Y0358150D01*
X0170020Y0358450D01*
X0170000Y0358750D01*
X0170000Y0369480D01*
X0169990Y0369480D02*
X0170010Y0369730D01*
X0170060Y0369980D01*
X0170150Y0370220D01*
X0170270Y0370440D01*
X0170420Y0370640D01*
X0170600Y0370820D01*
X0170800Y0370970D01*
X0171020Y0371090D01*
X0171260Y0371180D01*
X0171510Y0371230D01*
X0171760Y0371250D01*
X0203230Y0371250D01*
X0203480Y0371230D01*
X0203730Y0371180D01*
X0203970Y0371090D01*
X0204190Y0370970D01*
X0204390Y0370820D01*
X0204570Y0370640D01*
X0204720Y0370440D01*
X0204840Y0370220D01*
X0204930Y0369980D01*
X0204980Y0369730D01*
X0205000Y0369480D01*
X0205000Y0357500D01*
X0204980Y0357300D01*
X0204940Y0357110D01*
X0204860Y0356930D01*
X0204760Y0356770D01*
X0204630Y0356620D01*
X0204480Y0356490D01*
X0204320Y0356390D01*
X0204140Y0356310D01*
X0203950Y0356270D01*
X0203750Y0356250D01*
X0196760Y0356250D01*
X0196510Y0356230D01*
X0196260Y0356180D01*
X0196020Y0356090D01*
X0195800Y0355970D01*
X0195600Y0355820D01*
X0195420Y0355640D01*
X0195270Y0355440D01*
X0195150Y0355220D01*
X0195060Y0354980D01*
X0195010Y0354730D01*
X0194990Y0354480D01*
X0195000Y0354480D02*
X0195000Y0305510D01*
X0194990Y0305510D02*
X0195010Y0305260D01*
X0195060Y0305010D01*
X0195150Y0304770D01*
X0195270Y0304550D01*
X0195420Y0304350D01*
X0195600Y0304170D01*
X0195800Y0304020D01*
X0196020Y0303900D01*
X0196260Y0303810D01*
X0196510Y0303760D01*
X0196760Y0303740D01*
X0196760Y0303750D02*
X0203230Y0303750D01*
X0203480Y0303730D01*
X0203730Y0303680D01*
X0203970Y0303590D01*
X0204190Y0303470D01*
X0204390Y0303320D01*
X0204570Y0303140D01*
X0204720Y0302940D01*
X0204840Y0302720D01*
X0204930Y0302480D01*
X0204980Y0302230D01*
X0205000Y0301980D01*
X0205000Y0290510D01*
X0204980Y0290260D01*
X0204930Y0290010D01*
X0204840Y0289770D01*
X0204720Y0289550D01*
X0204570Y0289350D01*
X0204390Y0289170D01*
X0204190Y0289020D01*
X0203970Y0288900D01*
X0203730Y0288810D01*
X0203480Y0288760D01*
X0203230Y0288740D01*
X0203230Y0288750D02*
X0171760Y0288750D01*
X0171760Y0288740D02*
X0171510Y0288760D01*
X0171260Y0288810D01*
X0171020Y0288900D01*
X0170800Y0289020D01*
X0170600Y0289170D01*
X0170420Y0289350D01*
X0170270Y0289550D01*
X0170150Y0289770D01*
X0170060Y0290010D01*
X0170010Y0290260D01*
X0169990Y0290510D01*
D13*
X0170000Y0288750D02*
X0170000Y0302500D01*
X0171250Y0303750D01*
X0177500Y0303750D01*
X0177500Y0288750D01*
X0170000Y0288750D01*
X0179370Y0288750D02*
X0179370Y0302500D01*
X0180620Y0303750D01*
X0186870Y0303750D01*
X0186870Y0288750D01*
X0179370Y0288750D01*
X0188120Y0288750D02*
X0188120Y0302500D01*
X0189370Y0303750D01*
X0195620Y0303750D01*
X0195620Y0288750D01*
X0188120Y0288750D01*
X0197500Y0288750D02*
X0197500Y0302500D01*
X0198750Y0303750D01*
X0205000Y0303750D01*
X0205000Y0288750D01*
X0197500Y0288750D01*
X0195000Y0302500D02*
X0180000Y0302500D01*
X0180000Y0310000D01*
X0193750Y0310000D01*
X0195000Y0308750D01*
X0195000Y0302500D01*
X0195000Y0310620D02*
X0180000Y0310620D01*
X0180000Y0318120D01*
X0193750Y0318120D01*
X0195000Y0316870D01*
X0195000Y0310620D01*
X0195000Y0318750D02*
X0180000Y0318750D01*
X0180000Y0326250D01*
X0193750Y0326250D01*
X0195000Y0325000D01*
X0195000Y0318750D01*
X0195000Y0326250D02*
X0180000Y0326250D01*
X0180000Y0333750D01*
X0193750Y0333750D01*
X0195000Y0332500D01*
X0195000Y0326250D01*
X0195000Y0334370D02*
X0180000Y0334370D01*
X0180000Y0341870D01*
X0193750Y0341870D01*
X0195000Y0340620D01*
X0195000Y0334370D01*
X0195000Y0342500D02*
X0180000Y0342500D01*
X0180000Y0350000D01*
X0193750Y0350000D01*
X0195000Y0348750D01*
X0195000Y0342500D01*
X0195000Y0350000D02*
X0180000Y0350000D01*
X0180000Y0357500D01*
X0193750Y0357500D01*
X0195000Y0356250D01*
X0195000Y0350000D01*
X0195620Y0356250D02*
X0188120Y0356250D01*
X0188120Y0370000D01*
X0189370Y0371250D01*
X0195620Y0371250D01*
X0195620Y0356250D01*
X0197500Y0356250D02*
X0197500Y0370000D01*
X0198750Y0371250D01*
X0205000Y0371250D01*
X0205000Y0356250D01*
X0197500Y0356250D01*
X0186870Y0356250D02*
X0179370Y0356250D01*
X0179370Y0370000D01*
X0180620Y0371250D01*
X0186870Y0371250D01*
X0186870Y0356250D01*
X0177500Y0356250D02*
X0170000Y0356250D01*
X0170000Y0370000D01*
X0171250Y0371250D01*
X0177500Y0371250D01*
X0177500Y0356250D01*
D15*
X0169600Y0359300D02*
X0168200Y0360700D01*
X0165390Y0360700D01*
X0166090Y0362500D02*
X0168900Y0362500D01*
X0169600Y0363200D01*
X0169600Y0364600D01*
X0168900Y0365300D01*
X0166090Y0365300D01*
X0165390Y0364600D01*
X0165390Y0363200D01*
X0166090Y0362500D01*
X0167490Y0367100D02*
X0167490Y0369910D01*
X0165390Y0369210D02*
X0167490Y0367100D01*
X0165390Y0369210D02*
X0169600Y0369210D01*
X0169600Y0359300D02*
X0168200Y0357900D01*
X0165390Y0357900D01*
X0196220Y0320220D02*
X0195520Y0319520D01*
X0195520Y0318120D01*
X0196220Y0317420D01*
X0196220Y0315620D02*
X0195520Y0314920D01*
X0195520Y0313510D01*
X0196220Y0312810D01*
X0199020Y0312810D01*
X0199720Y0313510D01*
X0199720Y0314920D01*
X0199020Y0315620D01*
X0196220Y0315620D01*
X0199720Y0317420D02*
X0196920Y0320220D01*
X0196220Y0320220D01*
X0199720Y0320220D02*
X0199720Y0317420D01*
X0198320Y0311010D02*
X0195520Y0311010D01*
X0195520Y0308210D02*
X0198320Y0308210D01*
X0199720Y0309610D01*
X0198320Y0311010D01*
X0205130Y0300870D02*
X0209340Y0300870D01*
X0205130Y0298070D01*
X0209340Y0298070D01*
X0209340Y0296400D02*
X0209340Y0295000D01*
X0209340Y0295700D02*
X0205130Y0295700D01*
X0205130Y0295000D02*
X0205130Y0296400D01*
X0205130Y0293200D02*
X0207940Y0293200D01*
X0209340Y0291800D01*
X0207940Y0290400D01*
X0205130Y0290400D01*
X0179910Y0304150D02*
X0177100Y0304150D01*
X0178510Y0304150D02*
X0178510Y0308350D01*
X0177100Y0306950D01*
X0175300Y0307650D02*
X0175300Y0304850D01*
X0174600Y0304150D01*
X0173200Y0304150D01*
X0172500Y0304850D01*
X0172500Y0307650D01*
X0173200Y0308350D01*
X0174600Y0308350D01*
X0175300Y0307650D01*
X0170700Y0308350D02*
X0170700Y0305550D01*
X0169300Y0304150D01*
X0167900Y0305550D01*
X0167900Y0308350D01*
X0195930Y0331900D02*
X0198740Y0331900D01*
X0200140Y0333300D01*
X0198740Y0334700D01*
X0195930Y0334700D01*
X0196630Y0336500D02*
X0199440Y0336500D01*
X0200140Y0337200D01*
X0200140Y0338600D01*
X0199440Y0339300D01*
X0196630Y0339300D01*
X0195930Y0338600D01*
X0195930Y0337200D01*
X0196630Y0336500D01*
X0196630Y0341110D02*
X0195930Y0341810D01*
X0195930Y0343210D01*
X0196630Y0343910D01*
X0197340Y0343910D01*
X0198040Y0343210D01*
X0198740Y0343910D01*
X0199440Y0343910D01*
X0200140Y0343210D01*
X0200140Y0341810D01*
X0199440Y0341110D01*
X0198040Y0342510D02*
X0198040Y0343210D01*
X0205520Y0356330D02*
X0208320Y0356330D01*
X0209720Y0357740D01*
X0208320Y0359140D01*
X0205520Y0359140D01*
X0206220Y0360940D02*
X0209020Y0360940D01*
X0209720Y0361640D01*
X0209720Y0363040D01*
X0209020Y0363740D01*
X0206220Y0363740D01*
X0205520Y0363040D01*
X0205520Y0361640D01*
X0206220Y0360940D01*
X0205520Y0365540D02*
X0207620Y0365540D01*
X0206920Y0366940D01*
X0206920Y0367640D01*
X0207620Y0368350D01*
X0209020Y0368350D01*
X0209720Y0367640D01*
X0209720Y0366240D01*
X0209020Y0365540D01*
X0205520Y0365540D02*
X0205520Y0368350D01*
D15*
X0154600Y0287100D02*
X0154600Y0372100D01*
X0220400Y0372100D01*
X0220400Y0372100D02*
X0220400Y0287100D01*
X0154600Y0287100D01*
X0227500Y0287500D02*
G75*
%LPD*%
D17*
X0227500Y0287500D02*
X0227500Y0372500D01*
X0292500Y0372500D01*
X0292500Y0287500D01*
X0227500Y0287500D01*
D11*
X0231390Y0290620D02*
X0243600Y0290620D01*
X0243820Y0290640D01*
X0244030Y0290690D01*
X0244240Y0290770D01*
X0244420Y0290890D01*
X0244590Y0291030D01*
X0244730Y0291200D01*
X0244850Y0291380D01*
X0244930Y0291590D01*
X0244980Y0291800D01*
X0245000Y0292020D01*
X0245000Y0337330D01*
X0244990Y0337330D02*
X0245010Y0337470D01*
X0245060Y0337610D01*
X0245140Y0337730D01*
X0245240Y0337830D01*
X0245370Y0337910D01*
X0245510Y0337950D01*
X0245650Y0337960D01*
X0245800Y0337940D01*
X0245930Y0337880D01*
X0246050Y0337790D01*
X0246140Y0337680D01*
X0274320Y0296000D01*
X0275000Y0293790D02*
X0275000Y0291250D01*
X0275020Y0291050D01*
X0275060Y0290860D01*
X0275140Y0290680D01*
X0275240Y0290520D01*
X0275370Y0290370D01*
X0275520Y0290240D01*
X0275680Y0290140D01*
X0275860Y0290060D01*
X0276050Y0290020D01*
X0276250Y0290000D01*
X0288230Y0290000D01*
X0288230Y0289990D02*
X0288480Y0290010D01*
X0288730Y0290060D01*
X0288970Y0290150D01*
X0289190Y0290270D01*
X0289390Y0290420D01*
X0289570Y0290600D01*
X0289720Y0290800D01*
X0289840Y0291020D01*
X0289930Y0291260D01*
X0289980Y0291510D01*
X0290000Y0291760D01*
X0290000Y0366720D01*
X0289980Y0366940D01*
X0289930Y0367150D01*
X0289850Y0367360D01*
X0289730Y0367540D01*
X0289590Y0367710D01*
X0289420Y0367850D01*
X0289240Y0367970D01*
X0289030Y0368050D01*
X0288820Y0368100D01*
X0288600Y0368120D01*
X0276390Y0368120D01*
X0276170Y0368100D01*
X0275960Y0368050D01*
X0275750Y0367970D01*
X0275570Y0367850D01*
X0275400Y0367710D01*
X0275260Y0367540D01*
X0275140Y0367360D01*
X0275060Y0367150D01*
X0275010Y0366940D01*
X0274990Y0366720D01*
X0275000Y0366720D02*
X0275000Y0322710D01*
X0274980Y0322560D01*
X0274930Y0322430D01*
X0274850Y0322310D01*
X0274750Y0322200D01*
X0274620Y0322130D01*
X0274480Y0322090D01*
X0274330Y0322080D01*
X0274190Y0322110D01*
X0274060Y0322160D01*
X0273940Y0322250D01*
X0273840Y0322360D01*
X0273850Y0322370D02*
X0244410Y0367110D01*
X0242530Y0368120D02*
X0231390Y0368120D01*
X0231170Y0368100D01*
X0230960Y0368050D01*
X0230750Y0367970D01*
X0230570Y0367850D01*
X0230400Y0367710D01*
X0230260Y0367540D01*
X0230140Y0367360D01*
X0230060Y0367150D01*
X0230010Y0366940D01*
X0229990Y0366720D01*
X0230000Y0366720D02*
X0230000Y0292020D01*
X0229990Y0292020D02*
X0230010Y0291800D01*
X0230060Y0291590D01*
X0230140Y0291380D01*
X0230260Y0291200D01*
X0230400Y0291030D01*
X0230570Y0290890D01*
X0230750Y0290770D01*
X0230960Y0290690D01*
X0231170Y0290640D01*
X0231390Y0290620D01*
X0274310Y0296000D02*
X0274520Y0295670D01*
X0274680Y0295310D01*
X0274820Y0294950D01*
X0274910Y0294570D01*
X0274970Y0294180D01*
X0274990Y0293790D01*
X0244410Y0367110D02*
X0244240Y0367330D01*
X0244050Y0367530D01*
X0243830Y0367700D01*
X0243600Y0367850D01*
X0243350Y0367970D01*
X0243080Y0368050D01*
X0242810Y0368100D01*
X0242530Y0368120D01*
D13*
X0243750Y0368120D02*
X0245000Y0366870D01*
X0245000Y0360620D01*
X0230000Y0360620D01*
X0230000Y0368120D01*
X0243750Y0368120D01*
X0243750Y0358750D02*
X0245000Y0357500D01*
X0245000Y0351250D01*
X0230000Y0351250D01*
X0230000Y0358750D01*
X0243750Y0358750D01*
X0245000Y0355000D02*
X0243750Y0353750D01*
X0243750Y0340000D01*
X0251250Y0340000D01*
X0251250Y0355000D01*
X0245000Y0355000D01*
X0243750Y0348120D02*
X0245000Y0346870D01*
X0245000Y0340620D01*
X0230000Y0340620D01*
X0230000Y0348120D01*
X0243750Y0348120D01*
X0250000Y0345000D02*
X0251250Y0346250D01*
X0257500Y0346250D01*
X0257500Y0331250D01*
X0250000Y0331250D01*
X0250000Y0345000D01*
X0243750Y0338120D02*
X0245000Y0336870D01*
X0245000Y0330620D01*
X0230000Y0330620D01*
X0230000Y0338120D01*
X0243750Y0338120D01*
X0243750Y0328120D02*
X0245000Y0326870D01*
X0245000Y0320620D01*
X0230000Y0320620D01*
X0230000Y0328120D01*
X0243750Y0328120D01*
X0243750Y0318120D02*
X0245000Y0316870D01*
X0245000Y0310620D01*
X0230000Y0310620D01*
X0230000Y0318120D01*
X0243750Y0318120D01*
X0243750Y0308120D02*
X0245000Y0306870D01*
X0245000Y0300620D01*
X0230000Y0300620D01*
X0230000Y0308120D01*
X0243750Y0308120D01*
X0243750Y0298120D02*
X0245000Y0296870D01*
X0245000Y0290620D01*
X0230000Y0290620D01*
X0230000Y0298120D01*
X0243750Y0298120D01*
X0262500Y0313750D02*
X0262500Y0327500D01*
X0263750Y0328750D01*
X0270000Y0328750D01*
X0270000Y0313750D01*
X0262500Y0313750D01*
X0268750Y0317500D02*
X0270000Y0318750D01*
X0276250Y0318750D01*
X0276250Y0303750D01*
X0268750Y0303750D01*
X0268750Y0317500D01*
X0263750Y0322500D02*
X0256250Y0322500D01*
X0256250Y0336250D01*
X0257500Y0337500D01*
X0263750Y0337500D01*
X0263750Y0322500D01*
X0275000Y0320620D02*
X0275000Y0328120D01*
X0288750Y0328120D01*
X0290000Y0326870D01*
X0290000Y0320620D01*
X0275000Y0320620D01*
X0275000Y0318120D02*
X0288750Y0318120D01*
X0290000Y0316870D01*
X0290000Y0310620D01*
X0275000Y0310620D01*
X0275000Y0318120D01*
X0275000Y0308120D02*
X0288750Y0308120D01*
X0290000Y0306870D01*
X0290000Y0300620D01*
X0275000Y0300620D01*
X0275000Y0308120D01*
X0275000Y0298120D02*
X0288750Y0298120D01*
X0290000Y0296870D01*
X0290000Y0290620D01*
X0275000Y0290620D01*
X0275000Y0298120D01*
X0275000Y0330620D02*
X0275000Y0338120D01*
X0288750Y0338120D01*
X0290000Y0336870D01*
X0290000Y0330620D01*
X0275000Y0330620D01*
X0275000Y0340620D02*
X0275000Y0348120D01*
X0288750Y0348120D01*
X0290000Y0346870D01*
X0290000Y0340620D01*
X0275000Y0340620D01*
X0275000Y0351250D02*
X0275000Y0358750D01*
X0288750Y0358750D01*
X0290000Y0357500D01*
X0290000Y0351250D01*
X0275000Y0351250D01*
X0275000Y0360620D02*
X0275000Y0368120D01*
X0288750Y0368120D01*
X0290000Y0366870D01*
X0290000Y0360620D01*
X0275000Y0360620D01*
D15*
X0274600Y0359830D02*
X0274600Y0358430D01*
X0273900Y0357730D01*
X0272490Y0357730D02*
X0271790Y0359130D01*
X0271790Y0359830D01*
X0272490Y0360530D01*
X0273900Y0360530D01*
X0274600Y0359830D01*
X0272490Y0357730D02*
X0270390Y0357730D01*
X0270390Y0360530D01*
X0271090Y0355930D02*
X0270390Y0355230D01*
X0270390Y0353830D01*
X0271090Y0353130D01*
X0273900Y0353130D01*
X0274600Y0353830D01*
X0274600Y0355230D01*
X0273900Y0355930D01*
X0271090Y0355930D01*
X0270390Y0351320D02*
X0273200Y0351320D01*
X0274600Y0349920D01*
X0273200Y0348520D01*
X0270390Y0348520D01*
X0265930Y0342800D02*
X0263500Y0341400D01*
X0262990Y0339490D01*
X0264900Y0338970D01*
X0267330Y0340370D01*
X0267620Y0338460D02*
X0265200Y0337060D01*
X0264940Y0336110D01*
X0265640Y0334890D01*
X0266600Y0334640D01*
X0269030Y0336040D01*
X0269280Y0336990D01*
X0268580Y0338210D01*
X0267620Y0338460D01*
X0268710Y0333780D02*
X0270110Y0331350D01*
X0271020Y0331160D02*
X0271720Y0329760D01*
X0273120Y0328350D01*
X0273120Y0330460D01*
X0273820Y0331160D01*
X0274520Y0331160D01*
X0275220Y0330460D01*
X0275220Y0329060D01*
X0274520Y0328350D01*
X0273120Y0328350D01*
X0274520Y0326550D02*
X0271720Y0326550D01*
X0271020Y0325850D01*
X0271020Y0324450D01*
X0271720Y0323750D01*
X0274520Y0323750D01*
X0275220Y0324450D01*
X0275220Y0325850D01*
X0274520Y0326550D01*
X0273820Y0321950D02*
X0271020Y0321950D01*
X0273820Y0321950D02*
X0275220Y0320550D01*
X0273820Y0319150D01*
X0271020Y0319150D01*
X0267940Y0330900D02*
X0271580Y0333010D01*
X0268710Y0333780D01*
X0255710Y0351110D02*
X0255110Y0350760D01*
X0254150Y0351010D01*
X0253450Y0352230D01*
X0253710Y0353180D01*
X0252810Y0354750D02*
X0251850Y0355000D01*
X0251150Y0356220D01*
X0251400Y0357170D01*
X0253830Y0358570D01*
X0254790Y0358320D01*
X0255490Y0357100D01*
X0255230Y0356150D01*
X0252810Y0354750D01*
X0256130Y0354590D02*
X0257090Y0354330D01*
X0257790Y0353120D01*
X0257530Y0352160D01*
X0256930Y0351810D01*
X0255970Y0352070D01*
X0255710Y0351110D01*
X0255970Y0352070D02*
X0255620Y0352670D01*
X0251110Y0359080D02*
X0249200Y0359600D01*
X0249710Y0361510D01*
X0252140Y0362910D01*
X0253540Y0360480D02*
X0251110Y0359080D01*
X0248850Y0340160D02*
X0248850Y0337350D01*
X0246040Y0340160D01*
X0245340Y0340160D01*
X0244640Y0339460D01*
X0244640Y0338060D01*
X0245340Y0337350D01*
X0245340Y0335550D02*
X0244640Y0334850D01*
X0244640Y0333450D01*
X0245340Y0332750D01*
X0248150Y0332750D01*
X0248850Y0333450D01*
X0248850Y0334850D01*
X0248150Y0335550D01*
X0245340Y0335550D01*
X0244640Y0330950D02*
X0247450Y0330950D01*
X0248850Y0329550D01*
X0247450Y0328150D01*
X0244640Y0328150D01*
X0249600Y0321100D02*
X0249600Y0318290D01*
X0249600Y0319690D02*
X0245390Y0319690D01*
X0246790Y0318290D01*
X0246090Y0316490D02*
X0245390Y0315790D01*
X0245390Y0314390D01*
X0246090Y0313690D01*
X0248900Y0313690D01*
X0249600Y0314390D01*
X0249600Y0315790D01*
X0248900Y0316490D01*
X0246090Y0316490D01*
X0245390Y0311890D02*
X0248200Y0311890D01*
X0249600Y0310490D01*
X0248200Y0309080D01*
X0245390Y0309080D01*
X0244770Y0300470D02*
X0248970Y0300470D01*
X0244770Y0297670D01*
X0248970Y0297670D01*
X0248970Y0296000D02*
X0248970Y0294600D01*
X0248970Y0295300D02*
X0244770Y0295300D01*
X0244770Y0294600D02*
X0244770Y0296000D01*
X0244770Y0292800D02*
X0247570Y0292800D01*
X0248970Y0291400D01*
X0247570Y0289990D01*
X0244770Y0289990D01*
X0270390Y0289770D02*
X0273200Y0289770D01*
X0274600Y0291170D01*
X0273200Y0292570D01*
X0270390Y0292570D01*
X0271090Y0294380D02*
X0273900Y0294380D01*
X0274600Y0295080D01*
X0274600Y0296480D01*
X0273900Y0297180D01*
X0271090Y0297180D01*
X0270390Y0296480D01*
X0270390Y0295080D01*
X0271090Y0294380D01*
X0270390Y0298980D02*
X0270390Y0301780D01*
X0271090Y0301780D01*
X0273900Y0298980D01*
X0274600Y0298980D01*
D15*
X0227100Y0287100D02*
X0227100Y0372100D01*
X0292100Y0372100D01*
X0292100Y0372100D02*
X0292100Y0287100D01*
X0292100Y0287100D02*
X0227100Y0287100D01*
M02*
