G75*
G70*
%OFA0B0*%
%FSLAX25Y25*%
%IPPOS*%
%LPD*%
%AMOC8*
5,1,8,0,0,1.08239X$1,22.5*
%
%ADD10C,0.03970*%
%ADD14C,0.03170*%
%ADD16C,0.00600*%
%ADD17C,0.00000*%
X0010000Y0010000D02*
G75*
%LPD*%
D17*
X0010000Y0010000D02*
X0010000Y0095000D01*
X0075000Y0095000D01*
X0075000Y0010000D01*
X0010000Y0010000D01*
D10*
X0037500Y0030000D03*
X0037500Y0036250D03*
X0046870Y0018750D03*
X0046870Y0013120D03*
X0037500Y0056250D03*
X0037500Y0062500D03*
X0033120Y0078120D03*
X0029370Y0078120D03*
X0036870Y0089370D03*
X0040000Y0089370D03*
X0051870Y0078120D03*
X0055000Y0078120D03*
D14*
X0043120Y0068120D03*
X0043120Y0041870D03*
X0067500Y0086250D03*
X0016870Y0086250D03*
D16*
X0033750Y0086250D01*
X0043120Y0076870D01*
X0052500Y0086250D01*
X0067500Y0086250D01*
X0043120Y0076870D02*
X0043120Y0068120D01*
X0043120Y0041870D01*
X0043120Y0022500D01*
X0046870Y0018750D01*
X0082500Y0010000D02*
G75*
%LPD*%
D17*
X0082500Y0010000D02*
X0082500Y0095000D01*
X0147500Y0095000D01*
X0147500Y0010000D01*
X0082500Y0010000D01*
D10*
X0101250Y0013750D03*
X0105000Y0013750D03*
X0106250Y0028120D03*
X0103120Y0028120D03*
X0085620Y0034370D03*
X0085620Y0039370D03*
X0085620Y0057500D03*
X0085620Y0062500D03*
X0094370Y0085000D03*
X0100000Y0088750D03*
X0125000Y0090620D03*
X0128750Y0090620D03*
X0144370Y0070620D03*
X0144370Y0065000D03*
X0144370Y0046870D03*
X0144370Y0043120D03*
X0135620Y0018750D03*
X0130000Y0015620D03*
D16*
X0125000Y0019370D02*
X0136870Y0031250D01*
X0136870Y0037500D01*
X0136870Y0060000D01*
X0136870Y0076250D01*
X0130620Y0082500D01*
X0127500Y0085620D01*
X0108120Y0085620D01*
X0106870Y0085620D01*
X0093120Y0071870D01*
X0093120Y0067500D01*
X0093120Y0045000D01*
X0093120Y0035620D01*
X0100620Y0028120D01*
X0103120Y0028120D01*
X0121870Y0019370D02*
X0125000Y0019370D01*
D14*
X0121870Y0019370D03*
X0136870Y0037500D03*
X0136870Y0060000D03*
X0130620Y0082500D03*
X0108120Y0085620D03*
X0093120Y0067500D03*
X0093120Y0045000D03*
X0155000Y0010000D02*
G75*
%LPD*%
D17*
X0155000Y0010000D02*
X0155000Y0095000D01*
X0220000Y0095000D01*
X0220000Y0010000D01*
X0155000Y0010000D01*
D10*
X0160000Y0013120D03*
X0160000Y0019370D03*
X0169370Y0029370D03*
X0174370Y0033750D03*
X0177500Y0032500D03*
X0169370Y0035620D03*
X0172500Y0055000D03*
X0172500Y0058750D03*
X0171250Y0076870D03*
X0175000Y0076870D03*
X0180000Y0091870D03*
X0185000Y0091870D03*
X0205620Y0087500D03*
X0210620Y0083750D03*
X0215620Y0061250D03*
X0215000Y0055620D03*
X0198750Y0035620D03*
X0193750Y0034370D03*
D14*
X0188750Y0041870D03*
X0208750Y0051250D03*
X0208750Y0074370D03*
X0188750Y0085620D03*
X0164370Y0087500D03*
X0164370Y0064370D03*
X0164370Y0040620D03*
D16*
X0164370Y0064370D01*
X0164370Y0087500D01*
X0165000Y0087500D01*
X0166870Y0085620D01*
X0188750Y0085620D01*
X0197500Y0085620D01*
X0208750Y0074370D01*
X0208750Y0051250D01*
X0199370Y0041870D01*
X0188750Y0041870D01*
X0208120Y0051870D02*
X0208750Y0051250D01*
X0164370Y0040620D02*
X0164370Y0023750D01*
X0160000Y0019370D01*
X0010000Y0102500D02*
G75*
%LPD*%
D17*
X0010000Y0102500D02*
X0010000Y0187500D01*
X0075000Y0187500D01*
X0075000Y0102500D01*
X0010000Y0102500D01*
D10*
X0013750Y0119370D03*
X0013750Y0126870D03*
X0034370Y0113750D03*
X0038120Y0113750D03*
X0036870Y0141870D03*
X0036870Y0148120D03*
X0026870Y0163750D03*
X0026870Y0166870D03*
X0040000Y0184370D03*
X0046250Y0184370D03*
X0069370Y0170000D03*
X0069370Y0163750D03*
X0068120Y0140000D03*
X0068120Y0136250D03*
X0067500Y0118120D03*
X0067500Y0115000D03*
D16*
X0060000Y0115000D02*
X0060000Y0122880D01*
X0060860Y0123750D01*
X0064370Y0123750D01*
X0064370Y0134370D01*
X0053750Y0145000D01*
X0031250Y0145000D01*
X0025000Y0151250D01*
X0023750Y0151250D01*
X0023750Y0172500D01*
X0025000Y0173750D01*
X0025620Y0173750D01*
X0031250Y0179370D01*
X0053120Y0179370D01*
X0013750Y0126870D02*
X0030000Y0110620D01*
X0043120Y0110620D01*
X0055620Y0110620D01*
X0060000Y0115000D01*
D14*
X0064370Y0123750D03*
X0053750Y0145000D03*
X0025000Y0173750D03*
X0023750Y0151250D03*
X0053120Y0179370D03*
X0043120Y0110620D03*
X0082500Y0102500D02*
G75*
%LPD*%
D17*
X0082500Y0102500D02*
X0082500Y0187500D01*
X0147500Y0187500D01*
X0147500Y0102500D01*
X0082500Y0102500D01*
D10*
X0087500Y0105620D03*
X0087500Y0111870D03*
X0096870Y0121870D03*
X0101870Y0126250D03*
X0105000Y0125000D03*
X0096870Y0128120D03*
X0100000Y0147500D03*
X0100000Y0151250D03*
X0098750Y0169370D03*
X0102500Y0169370D03*
X0107500Y0184370D03*
X0112500Y0184370D03*
X0133120Y0180000D03*
X0138120Y0176250D03*
X0143120Y0153750D03*
X0142500Y0148120D03*
X0126250Y0128120D03*
X0121250Y0126870D03*
D14*
X0116250Y0134370D03*
X0136250Y0143750D03*
X0136250Y0166870D03*
X0116250Y0178120D03*
X0091870Y0180000D03*
X0091870Y0156870D03*
X0091870Y0133120D03*
D16*
X0091870Y0156870D01*
X0091870Y0180000D01*
X0092500Y0180000D01*
X0094370Y0178120D01*
X0116250Y0178120D01*
X0125000Y0178120D01*
X0136250Y0166870D01*
X0136250Y0143750D01*
X0126870Y0134370D01*
X0116250Y0134370D01*
X0135620Y0144370D02*
X0136250Y0143750D01*
X0091870Y0133120D02*
X0091870Y0116250D01*
X0087500Y0111870D01*
X0155000Y0102500D02*
G75*
%LPD*%
D17*
X0155000Y0102500D02*
X0155000Y0187500D01*
X0220000Y0187500D01*
X0220000Y0102500D01*
X0155000Y0102500D01*
D10*
X0180000Y0115620D03*
X0186250Y0115620D03*
X0191870Y0126250D03*
X0191870Y0132500D03*
X0191870Y0150000D03*
X0191870Y0156250D03*
X0198120Y0183120D03*
X0204370Y0183120D03*
X0176870Y0183120D03*
X0170620Y0183120D03*
X0198120Y0106870D03*
X0204370Y0106870D03*
D14*
X0186870Y0137500D03*
X0186870Y0161250D03*
X0188120Y0168750D03*
X0183120Y0178120D03*
X0173750Y0178120D03*
X0173750Y0110620D03*
D16*
X0194370Y0110620D01*
X0190000Y0115000D01*
X0190000Y0117500D01*
X0186870Y0120620D01*
X0186870Y0137500D01*
X0186870Y0161250D01*
X0183120Y0165000D01*
X0183120Y0178120D01*
X0181250Y0181250D02*
X0185000Y0181250D01*
X0188120Y0178120D01*
X0188120Y0168750D01*
X0179370Y0179370D02*
X0181250Y0181250D01*
X0179370Y0179370D02*
X0175000Y0179370D01*
X0173750Y0178120D01*
X0194370Y0110620D02*
X0195000Y0110000D01*
X0198120Y0106870D01*
X0227500Y0102500D02*
G75*
%LPD*%
D17*
X0227500Y0102500D02*
X0227500Y0187500D01*
X0292500Y0187500D01*
X0292500Y0102500D01*
X0227500Y0102500D01*
D10*
X0233750Y0106250D03*
X0233750Y0112500D03*
X0241250Y0126250D03*
X0241250Y0132500D03*
X0241250Y0156250D03*
X0241250Y0162500D03*
X0247500Y0170000D03*
X0250620Y0166250D03*
X0266250Y0143750D03*
X0269370Y0140000D03*
X0286250Y0142500D03*
X0286250Y0136250D03*
X0286250Y0112500D03*
X0286250Y0106250D03*
X0286250Y0166250D03*
X0286250Y0173750D03*
D14*
X0281870Y0179370D03*
X0281870Y0159370D03*
X0260000Y0152500D03*
X0253750Y0154370D03*
X0253750Y0146250D03*
X0260000Y0144370D03*
X0266250Y0135620D03*
X0272500Y0126870D03*
X0272500Y0118750D03*
X0281870Y0129370D03*
X0247500Y0161870D03*
X0236870Y0170000D03*
X0238120Y0179370D03*
X0236870Y0139370D03*
D16*
X0236870Y0170000D01*
X0239370Y0170000D01*
X0244370Y0165000D01*
X0244370Y0160000D01*
X0253750Y0150620D01*
X0253750Y0146250D01*
X0261870Y0138120D01*
X0261870Y0132740D01*
X0272500Y0122110D01*
X0272500Y0118750D01*
X0281870Y0128120D01*
X0281870Y0129370D01*
X0281870Y0159370D01*
X0263120Y0149370D02*
X0263120Y0138750D01*
X0266250Y0135620D01*
X0260000Y0144370D02*
X0256250Y0148120D01*
X0256250Y0151870D01*
X0253750Y0154370D01*
X0260000Y0152500D02*
X0263120Y0149370D01*
X0247500Y0161870D02*
X0247500Y0165620D01*
X0241870Y0171250D01*
X0241870Y0179370D01*
X0238120Y0179370D01*
X0236870Y0139370D02*
X0236870Y0115620D01*
X0233750Y0112500D01*
X0272500Y0126870D02*
X0275620Y0126870D01*
X0278750Y0130000D01*
X0278750Y0179370D01*
X0281870Y0179370D01*
X0010000Y0195000D02*
G75*
%LPD*%
D17*
X0010000Y0195000D02*
X0010000Y0280000D01*
X0075000Y0280000D01*
X0075000Y0195000D01*
X0010000Y0195000D01*
D10*
X0037500Y0215000D03*
X0037500Y0221250D03*
X0046870Y0203750D03*
X0046870Y0198120D03*
X0037500Y0241250D03*
X0037500Y0247500D03*
X0033120Y0263120D03*
X0029370Y0263120D03*
X0036870Y0274370D03*
X0040000Y0274370D03*
X0051870Y0263120D03*
X0055000Y0263120D03*
D14*
X0043120Y0253120D03*
X0043120Y0226870D03*
X0067500Y0271250D03*
X0016870Y0271250D03*
D16*
X0033750Y0271250D01*
X0043120Y0261870D01*
X0052500Y0271250D01*
X0067500Y0271250D01*
X0043120Y0261870D02*
X0043120Y0253120D01*
X0043120Y0226870D01*
X0043120Y0207500D01*
X0046870Y0203750D01*
X0082500Y0195000D02*
G75*
%LPD*%
D17*
X0082500Y0195000D02*
X0082500Y0280000D01*
X0147500Y0280000D01*
X0147500Y0195000D01*
X0082500Y0195000D01*
D10*
X0101250Y0198750D03*
X0105000Y0198750D03*
X0106250Y0213120D03*
X0103120Y0213120D03*
X0085620Y0219370D03*
X0085620Y0224370D03*
X0085620Y0242500D03*
X0085620Y0247500D03*
X0094370Y0270000D03*
X0100000Y0273750D03*
X0125000Y0275620D03*
X0128750Y0275620D03*
X0144370Y0255620D03*
X0144370Y0250000D03*
X0144370Y0231870D03*
X0144370Y0228120D03*
X0135620Y0203750D03*
X0130000Y0200620D03*
D16*
X0125000Y0204370D02*
X0136870Y0216250D01*
X0136870Y0222500D01*
X0136870Y0245000D01*
X0136870Y0261250D01*
X0130620Y0267500D01*
X0127500Y0270620D01*
X0108120Y0270620D01*
X0106870Y0270620D01*
X0093120Y0256870D01*
X0093120Y0252500D01*
X0093120Y0230000D01*
X0093120Y0220620D01*
X0100620Y0213120D01*
X0103120Y0213120D01*
X0121870Y0204370D02*
X0125000Y0204370D01*
D14*
X0121870Y0204370D03*
X0136870Y0222500D03*
X0136870Y0245000D03*
X0130620Y0267500D03*
X0108120Y0270620D03*
X0093120Y0252500D03*
X0093120Y0230000D03*
X0155000Y0195000D02*
G75*
%LPD*%
D17*
X0155000Y0195000D02*
X0155000Y0280000D01*
X0220000Y0280000D01*
X0220000Y0195000D01*
X0155000Y0195000D01*
D10*
X0160000Y0198120D03*
X0160000Y0204370D03*
X0169370Y0214370D03*
X0174370Y0218750D03*
X0177500Y0217500D03*
X0169370Y0220620D03*
X0172500Y0240000D03*
X0172500Y0243750D03*
X0171250Y0261870D03*
X0175000Y0261870D03*
X0180000Y0276870D03*
X0185000Y0276870D03*
X0205620Y0272500D03*
X0210620Y0268750D03*
X0215620Y0246250D03*
X0215000Y0240620D03*
X0198750Y0220620D03*
X0193750Y0219370D03*
D14*
X0188750Y0226870D03*
X0208750Y0236250D03*
X0208750Y0259370D03*
X0188750Y0270620D03*
X0164370Y0272500D03*
X0164370Y0249370D03*
X0164370Y0225620D03*
D16*
X0164370Y0249370D01*
X0164370Y0272500D01*
X0165000Y0272500D01*
X0166870Y0270620D01*
X0188750Y0270620D01*
X0197500Y0270620D01*
X0208750Y0259370D01*
X0208750Y0236250D01*
X0199370Y0226870D01*
X0188750Y0226870D01*
X0208120Y0236870D02*
X0208750Y0236250D01*
X0164370Y0225620D02*
X0164370Y0208750D01*
X0160000Y0204370D01*
X0010000Y0287500D02*
G75*
%LPD*%
D17*
X0010000Y0287500D02*
X0010000Y0372500D01*
X0075000Y0372500D01*
X0075000Y0287500D01*
X0010000Y0287500D01*
D10*
X0013750Y0304370D03*
X0013750Y0311870D03*
X0034370Y0298750D03*
X0038120Y0298750D03*
X0036870Y0326870D03*
X0036870Y0333120D03*
X0026870Y0348750D03*
X0026870Y0351870D03*
X0040000Y0369370D03*
X0046250Y0369370D03*
X0069370Y0355000D03*
X0069370Y0348750D03*
X0068120Y0325000D03*
X0068120Y0321250D03*
X0067500Y0303120D03*
X0067500Y0300000D03*
D16*
X0060000Y0300000D02*
X0060000Y0307880D01*
X0060860Y0308750D01*
X0064370Y0308750D01*
X0064370Y0319370D01*
X0053750Y0330000D01*
X0031250Y0330000D01*
X0025000Y0336250D01*
X0023750Y0336250D01*
X0023750Y0357500D01*
X0025000Y0358750D01*
X0025620Y0358750D01*
X0031250Y0364370D01*
X0053120Y0364370D01*
X0013750Y0311870D02*
X0030000Y0295620D01*
X0043120Y0295620D01*
X0055620Y0295620D01*
X0060000Y0300000D01*
D14*
X0064370Y0308750D03*
X0053750Y0330000D03*
X0025000Y0358750D03*
X0023750Y0336250D03*
X0053120Y0364370D03*
X0043120Y0295620D03*
X0082500Y0287500D02*
G75*
%LPD*%
D17*
X0082500Y0287500D02*
X0082500Y0372500D01*
X0147500Y0372500D01*
X0147500Y0287500D01*
X0082500Y0287500D01*
D10*
X0087500Y0290620D03*
X0087500Y0296870D03*
X0096870Y0306870D03*
X0101870Y0311250D03*
X0105000Y0310000D03*
X0096870Y0313120D03*
X0100000Y0332500D03*
X0100000Y0336250D03*
X0098750Y0354370D03*
X0102500Y0354370D03*
X0107500Y0369370D03*
X0112500Y0369370D03*
X0133120Y0365000D03*
X0138120Y0361250D03*
X0143120Y0338750D03*
X0142500Y0333120D03*
X0126250Y0313120D03*
X0121250Y0311870D03*
D14*
X0116250Y0319370D03*
X0136250Y0328750D03*
X0136250Y0351870D03*
X0116250Y0363120D03*
X0091870Y0365000D03*
X0091870Y0341870D03*
X0091870Y0318120D03*
D16*
X0091870Y0341870D01*
X0091870Y0365000D01*
X0092500Y0365000D01*
X0094370Y0363120D01*
X0116250Y0363120D01*
X0125000Y0363120D01*
X0136250Y0351870D01*
X0136250Y0328750D01*
X0126870Y0319370D01*
X0116250Y0319370D01*
X0135620Y0329370D02*
X0136250Y0328750D01*
X0091870Y0318120D02*
X0091870Y0301250D01*
X0087500Y0296870D01*
X0155000Y0287500D02*
G75*
%LPD*%
D17*
X0155000Y0287500D02*
X0155000Y0372500D01*
X0220000Y0372500D01*
X0220000Y0287500D01*
X0155000Y0287500D01*
D10*
X0180000Y0300620D03*
X0186250Y0300620D03*
X0191870Y0311250D03*
X0191870Y0317500D03*
X0191870Y0335000D03*
X0191870Y0341250D03*
X0198120Y0368120D03*
X0204370Y0368120D03*
X0176870Y0368120D03*
X0170620Y0368120D03*
X0198120Y0291870D03*
X0204370Y0291870D03*
D14*
X0186870Y0322500D03*
X0186870Y0346250D03*
X0188120Y0353750D03*
X0183120Y0363120D03*
X0173750Y0363120D03*
X0173750Y0295620D03*
D16*
X0194370Y0295620D01*
X0190000Y0300000D01*
X0190000Y0302500D01*
X0186870Y0305620D01*
X0186870Y0322500D01*
X0186870Y0346250D01*
X0183120Y0350000D01*
X0183120Y0363120D01*
X0181250Y0366250D02*
X0185000Y0366250D01*
X0188120Y0363120D01*
X0188120Y0353750D01*
X0179370Y0364370D02*
X0181250Y0366250D01*
X0179370Y0364370D02*
X0175000Y0364370D01*
X0173750Y0363120D01*
X0194370Y0295620D02*
X0195000Y0295000D01*
X0198120Y0291870D01*
X0227500Y0287500D02*
G75*
%LPD*%
D17*
X0227500Y0287500D02*
X0227500Y0372500D01*
X0292500Y0372500D01*
X0292500Y0287500D01*
X0227500Y0287500D01*
D10*
X0233750Y0291250D03*
X0233750Y0297500D03*
X0241250Y0311250D03*
X0241250Y0317500D03*
X0241250Y0341250D03*
X0241250Y0347500D03*
X0247500Y0355000D03*
X0250620Y0351250D03*
X0266250Y0328750D03*
X0269370Y0325000D03*
X0286250Y0327500D03*
X0286250Y0321250D03*
X0286250Y0297500D03*
X0286250Y0291250D03*
X0286250Y0351250D03*
X0286250Y0358750D03*
D14*
X0281870Y0364370D03*
X0281870Y0344370D03*
X0260000Y0337500D03*
X0253750Y0339370D03*
X0253750Y0331250D03*
X0260000Y0329370D03*
X0266250Y0320620D03*
X0272500Y0311870D03*
X0272500Y0303750D03*
X0281870Y0314370D03*
X0247500Y0346870D03*
X0236870Y0355000D03*
X0238120Y0364370D03*
X0236870Y0324370D03*
D16*
X0236870Y0355000D01*
X0239370Y0355000D01*
X0244370Y0350000D01*
X0244370Y0345000D01*
X0253750Y0335620D01*
X0253750Y0331250D01*
X0261870Y0323120D01*
X0261870Y0317740D01*
X0272500Y0307110D01*
X0272500Y0303750D01*
X0281870Y0313120D01*
X0281870Y0314370D01*
X0281870Y0344370D01*
X0263120Y0334370D02*
X0263120Y0323750D01*
X0266250Y0320620D01*
X0260000Y0329370D02*
X0256250Y0333120D01*
X0256250Y0336870D01*
X0253750Y0339370D01*
X0260000Y0337500D02*
X0263120Y0334370D01*
X0247500Y0346870D02*
X0247500Y0350620D01*
X0241870Y0356250D01*
X0241870Y0364370D01*
X0238120Y0364370D01*
X0236870Y0324370D02*
X0236870Y0300620D01*
X0233750Y0297500D01*
X0272500Y0311870D02*
X0275620Y0311870D01*
X0278750Y0315000D01*
X0278750Y0364370D01*
X0281870Y0364370D01*
M02*
