%
T01C0.021650
X3750Y3000
X3750Y3625
X4312Y4187
X3750Y5625
X3750Y6250
X4312Y6812
X5187Y7812
X5500Y7812
X6750Y8625
X4000Y8937
X3687Y8937
X3312Y7812
X2937Y7812
X1687Y8625
X4687Y1875
X4687Y1312
X10125Y1375
X10500Y1375
X10625Y2812
X10312Y2812
X9312Y4500
X8562Y3937
X8562Y3437
X8562Y5750
X8562Y6250
X9312Y6750
X9437Y8500
X10000Y8875
X10812Y8562
X12500Y9062
X12875Y9062
X13062Y8250
X14437Y7062
X14437Y6500
X13687Y6000
X14437Y4687
X14437Y4312
X13687Y3750
X13562Y1875
X13000Y1562
X12187Y1937
X16000Y1312
X16000Y1937
X16937Y2937
X17437Y3375
X17750Y3250
X16937Y3562
X16437Y4062
X17250Y5500
X17250Y5875
X16437Y6437
X17125Y7687
X17500Y7687
X16437Y8750
X18000Y9187
X18500Y9187
X18875Y8562
X20562Y8750
X21062Y8375
X20875Y7437
X21562Y6125
X21500Y5562
X20875Y5125
X19875Y3562
X19375Y3437
X18875Y4187
X1375Y11937
X1375Y12687
X3437Y11375
X3812Y11375
X4312Y11062
X6437Y12375
X6750Y11812
X6750Y11500
X6812Y13625
X6812Y14000
X5375Y14500
X3687Y14812
X3687Y14187
X2375Y15125
X2687Y16375
X2687Y16687
X2500Y17375
X4000Y18437
X4625Y18437
X5312Y17937
X6937Y17000
X6937Y16375
X8750Y10562
X8750Y11187
X9687Y12187
X10187Y12625
X10500Y12500
X9687Y12812
X9187Y13312
X10000Y14750
X10000Y15125
X9187Y15687
X9875Y16937
X10250Y16937
X9187Y18000
X10750Y18437
X11250Y18437
X11625Y17812
X13312Y18000
X13812Y17625
X13625Y16687
X14312Y15375
X14250Y14812
X13625Y14375
X12625Y12812
X12125Y12687
X11625Y13437
X17375Y11062
X18000Y11562
X18625Y11562
X19187Y12625
X19187Y13250
X18687Y13750
X19187Y15000
X19187Y15625
X18687Y16125
X18812Y16875
X18312Y17812
X17687Y18312
X17375Y17812
X17062Y18312
X19812Y18312
X20437Y18312
X20437Y10687
X19812Y10687
X23375Y10625
X23375Y11250
X24125Y12625
X24125Y13250
X23687Y13937
X24125Y15625
X24125Y16250
X24750Y16187
X25062Y16625
X24750Y17000
X23812Y17937
X23687Y17000
X25375Y15437
X26000Y15250
X25375Y14625
X26000Y14437
X26625Y14375
X26937Y14000
X26625Y13562
X27250Y12687
X27250Y11875
X28187Y12937
X28625Y13625
X28625Y14250
X28187Y15937
X28625Y16625
X28625Y17375
X28187Y17937
X28625Y11250
X28625Y10625
X3750Y21500
X3750Y22125
X4312Y22687
X3750Y24125
X3750Y24750
X4312Y25312
X5187Y26312
X5500Y26312
X6750Y27125
X4000Y27437
X3687Y27437
X3312Y26312
X2937Y26312
X1687Y27125
X4687Y20375
X4687Y19812
X10125Y19875
X10500Y19875
X10625Y21312
X10312Y21312
X9312Y23000
X8562Y22437
X8562Y21937
X8562Y24250
X8562Y24750
X9312Y25250
X9437Y27000
X10000Y27375
X10812Y27062
X12500Y27562
X12875Y27562
X13062Y26750
X14437Y25562
X14437Y25000
X13687Y24500
X14437Y23187
X14437Y22812
X13687Y22250
X13562Y20375
X13000Y20062
X12187Y20437
X16000Y19812
X16000Y20437
X16937Y21437
X17437Y21875
X17750Y21750
X16937Y22062
X16437Y22562
X17250Y24000
X17250Y24375
X16437Y24937
X17125Y26187
X17500Y26187
X16437Y27250
X18000Y27687
X18500Y27687
X18875Y27062
X20562Y27250
X21062Y26875
X20875Y25937
X21562Y24625
X21500Y24062
X20875Y23625
X19875Y22062
X19375Y21937
X18875Y22687
X1375Y30437
X1375Y31187
X3437Y29875
X3812Y29875
X4312Y29562
X6437Y30875
X6750Y30312
X6750Y30000
X6812Y32125
X6812Y32500
X5375Y33000
X3687Y33312
X3687Y32687
X2375Y33625
X2687Y34875
X2687Y35187
X2500Y35875
X4000Y36937
X4625Y36937
X5312Y36437
X6937Y35500
X6937Y34875
X8750Y29062
X8750Y29687
X9687Y30687
X10187Y31125
X10500Y31000
X9687Y31312
X9187Y31812
X10000Y33250
X10000Y33625
X9187Y34187
X9875Y35437
X10250Y35437
X9187Y36500
X10750Y36937
X11250Y36937
X11625Y36312
X13312Y36500
X13812Y36125
X13625Y35187
X14312Y33875
X14250Y33312
X13625Y32875
X12625Y31312
X12125Y31187
X11625Y31937
X17375Y29562
X18000Y30062
X18625Y30062
X19187Y31125
X19187Y31750
X18687Y32250
X19187Y33500
X19187Y34125
X18687Y34625
X18812Y35375
X18312Y36312
X17687Y36812
X17375Y36312
X17062Y36812
X19812Y36812
X20437Y36812
X20437Y29187
X19812Y29187
X23375Y29125
X23375Y29750
X24125Y31125
X24125Y31750
X23687Y32437
X24125Y34125
X24125Y34750
X24750Y34687
X25062Y35125
X24750Y35500
X23812Y36437
X23687Y35500
X25375Y33937
X26000Y33750
X25375Y33125
X26000Y32937
X26625Y32875
X26937Y32500
X26625Y32062
X27250Y31187
X27250Y30375
X28187Y31437
X28625Y32125
X28625Y32750
X28187Y34437
X28625Y35125
X28625Y35875
X28187Y36437
X28625Y29750
X28625Y29125
M30
