G75*
%MOIN*%
%OFA0B0*%
%FSLAX24Y24*%
%IPPOS*%
%LPD*%
%AMOC8*
5,1,8,0,0,1.08239X$1,22.5*
%
%ADD10C,0.0000*%
%ADD11R,0.0472X0.0472*%
%ADD12R,0.0472X0.0472*%
D10*
X002392Y002517D02*
X002392Y011017D01*
X008892Y011017D01*
X008892Y002517D01*
X002392Y002517D01*
D11*
X002978Y003142D03*
X002978Y003954D03*
X002978Y004767D03*
X002978Y005579D03*
X002978Y006392D03*
X002978Y007204D03*
X002978Y007954D03*
X002978Y008704D03*
X002978Y009517D03*
X002978Y010267D03*
X003805Y010267D03*
X004392Y010555D03*
X005142Y010555D03*
X005892Y010555D03*
X005892Y009728D03*
X005142Y009728D03*
X004392Y009728D03*
X003805Y009517D03*
X003805Y008704D03*
X003805Y007954D03*
X003805Y007204D03*
X003805Y006392D03*
X004392Y006055D03*
X005017Y006055D03*
X005642Y006055D03*
X005642Y005228D03*
X005017Y005228D03*
X004392Y005228D03*
X003805Y005579D03*
X003805Y004767D03*
X003805Y003954D03*
X003805Y003142D03*
X007478Y007392D03*
X007478Y008142D03*
X008305Y008142D03*
X008305Y007392D03*
D12*
G36*
X007087Y006637D02*
X007323Y007045D01*
X007731Y006809D01*
X007495Y006401D01*
X007087Y006637D01*
G37*
G36*
X006578Y006361D02*
X006963Y006632D01*
X007234Y006247D01*
X006849Y005976D01*
X006578Y006361D01*
G37*
G36*
X006049Y006285D02*
X006513Y006367D01*
X006595Y005903D01*
X006131Y005821D01*
X006049Y006285D01*
G37*
G36*
X006193Y005471D02*
X006657Y005553D01*
X006739Y005089D01*
X006275Y005007D01*
X006193Y005471D01*
G37*
G36*
X007052Y005683D02*
X007437Y005954D01*
X007708Y005569D01*
X007323Y005298D01*
X007052Y005683D01*
G37*
G36*
X007803Y006224D02*
X008039Y006632D01*
X008447Y006396D01*
X008211Y005988D01*
X007803Y006224D01*
G37*
G36*
X007362Y008465D02*
X007126Y008873D01*
X007534Y009109D01*
X007770Y008701D01*
X007362Y008465D01*
G37*
G36*
X007189Y008990D02*
X006804Y009261D01*
X007075Y009646D01*
X007460Y009375D01*
X007189Y008990D01*
G37*
G36*
X006757Y009402D02*
X006302Y009525D01*
X006425Y009980D01*
X006880Y009857D01*
X006757Y009402D01*
G37*
G36*
X007663Y009667D02*
X007278Y009938D01*
X007549Y010323D01*
X007934Y010052D01*
X007663Y009667D01*
G37*
G36*
X008078Y008878D02*
X007842Y009286D01*
X008250Y009522D01*
X008486Y009114D01*
X008078Y008878D01*
G37*
G36*
X006971Y010200D02*
X006516Y010323D01*
X006639Y010778D01*
X007094Y010655D01*
X006971Y010200D01*
G37*
M02*
