G75*
%MOIN*%
%OFA0B0*%
%FSLAX24Y24*%
%IPPOS*%
%LPD*%
%AMOC8*
5,1,8,0,0,1.08239X$1,22.5*
%
%ADD10C,0.0100*%
%ADD11R,0.0472X0.0472*%
%ADD12R,0.0472X0.0472*%
%ADD13C,0.0397*%
%ADD14C,0.0060*%
%ADD15C,0.0317*%
D10*
X002392Y002454D02*
X002392Y011142D01*
X006892Y011142D01*
X008954Y008517D02*
X008954Y006829D01*
X006579Y004392D02*
X004392Y004392D01*
X004392Y002454D01*
X002392Y002454D01*
X006580Y004392D02*
X006686Y004416D01*
X006792Y004445D01*
X006896Y004477D01*
X006999Y004513D01*
X007101Y004553D01*
X007202Y004596D01*
X007301Y004643D01*
X007398Y004693D01*
X007493Y004747D01*
X007586Y004804D01*
X007677Y004864D01*
X007766Y004928D01*
X007853Y004994D01*
X007937Y005064D01*
X008019Y005137D01*
X008098Y005212D01*
X008174Y005290D01*
X008248Y005371D01*
X008318Y005455D01*
X008386Y005541D01*
X008450Y005629D01*
X008511Y005720D01*
X008569Y005813D01*
X008624Y005907D01*
X008675Y006004D01*
X008723Y006102D01*
X008767Y006202D01*
X008808Y006304D01*
X008844Y006407D01*
X008878Y006511D01*
X008907Y006616D01*
X008933Y006722D01*
X008955Y006829D01*
X008954Y008516D02*
X008944Y008623D01*
X008930Y008729D01*
X008912Y008835D01*
X008890Y008940D01*
X008865Y009044D01*
X008836Y009148D01*
X008803Y009250D01*
X008767Y009351D01*
X008727Y009450D01*
X008684Y009548D01*
X008637Y009645D01*
X008587Y009739D01*
X008533Y009832D01*
X008476Y009923D01*
X008416Y010012D01*
X008353Y010099D01*
X008287Y010183D01*
X008217Y010265D01*
X008145Y010344D01*
X008070Y010421D01*
X007993Y010495D01*
X007913Y010566D01*
X007830Y010635D01*
X007745Y010700D01*
X007658Y010762D01*
X007568Y010821D01*
X007477Y010877D01*
X007383Y010930D01*
X007288Y010979D01*
X007191Y011025D01*
X007093Y011067D01*
X006993Y011106D01*
X006891Y011141D01*
X004504Y007892D02*
X004506Y007961D01*
X004512Y008030D01*
X004522Y008098D01*
X004536Y008166D01*
X004553Y008233D01*
X004575Y008299D01*
X004600Y008363D01*
X004629Y008426D01*
X004662Y008487D01*
X004698Y008546D01*
X004737Y008603D01*
X004780Y008657D01*
X004825Y008709D01*
X004874Y008759D01*
X004925Y008805D01*
X004979Y008848D01*
X005036Y008889D01*
X005094Y008925D01*
X005155Y008959D01*
X005217Y008989D01*
X005281Y009015D01*
X005346Y009037D01*
X005413Y009056D01*
X005481Y009071D01*
X005549Y009082D01*
X005618Y009089D01*
X005687Y009092D01*
X005756Y009091D01*
X005825Y009086D01*
X005893Y009077D01*
X005961Y009064D01*
X006028Y009047D01*
X006095Y009027D01*
X006159Y009002D01*
X006222Y008974D01*
X006284Y008943D01*
X006343Y008907D01*
X006401Y008869D01*
X006456Y008827D01*
X006509Y008782D01*
X006559Y008734D01*
X006606Y008684D01*
X006650Y008630D01*
X006691Y008575D01*
X006729Y008517D01*
X006763Y008457D01*
X006794Y008395D01*
X006821Y008331D01*
X006844Y008266D01*
X006864Y008200D01*
X006880Y008132D01*
X006892Y008064D01*
X006900Y007996D01*
X006904Y007927D01*
X006904Y007857D01*
X006900Y007788D01*
X006892Y007720D01*
X006880Y007652D01*
X006864Y007584D01*
X006844Y007518D01*
X006821Y007453D01*
X006794Y007389D01*
X006763Y007327D01*
X006729Y007267D01*
X006691Y007209D01*
X006650Y007154D01*
X006606Y007100D01*
X006559Y007050D01*
X006509Y007002D01*
X006456Y006957D01*
X006401Y006915D01*
X006343Y006877D01*
X006284Y006841D01*
X006222Y006810D01*
X006159Y006782D01*
X006095Y006757D01*
X006028Y006737D01*
X005961Y006720D01*
X005893Y006707D01*
X005825Y006698D01*
X005756Y006693D01*
X005687Y006692D01*
X005618Y006695D01*
X005549Y006702D01*
X005481Y006713D01*
X005413Y006728D01*
X005346Y006747D01*
X005281Y006769D01*
X005217Y006795D01*
X005155Y006825D01*
X005094Y006859D01*
X005036Y006895D01*
X004979Y006936D01*
X004925Y006979D01*
X004874Y007025D01*
X004825Y007075D01*
X004780Y007127D01*
X004737Y007181D01*
X004698Y007238D01*
X004662Y007297D01*
X004629Y007358D01*
X004600Y007421D01*
X004575Y007485D01*
X004553Y007551D01*
X004536Y007618D01*
X004522Y007686D01*
X004512Y007754D01*
X004506Y007823D01*
X004504Y007892D01*
D11*
X003805Y007954D03*
X003805Y007204D03*
X003805Y006392D03*
X004392Y006055D03*
X005017Y006055D03*
X005642Y006055D03*
X005642Y005228D03*
X005017Y005228D03*
X004392Y005228D03*
X003805Y005579D03*
X003805Y004767D03*
X003805Y003954D03*
X003805Y003142D03*
X002978Y003142D03*
X002978Y003954D03*
X002978Y004767D03*
X002978Y005579D03*
X002978Y006392D03*
X002978Y007204D03*
X002978Y007954D03*
X002978Y008704D03*
X002978Y009517D03*
X002978Y010267D03*
X003805Y010267D03*
X004392Y010555D03*
X005142Y010555D03*
X005892Y010555D03*
X005892Y009728D03*
X005142Y009728D03*
X004392Y009728D03*
X003805Y009517D03*
X003805Y008704D03*
X007478Y008142D03*
X007478Y007392D03*
X008305Y007392D03*
X008305Y008142D03*
D12*
G36*
X008078Y008878D02*
X007842Y009286D01*
X008250Y009522D01*
X008486Y009114D01*
X008078Y008878D01*
G37*
G36*
X007362Y008465D02*
X007126Y008873D01*
X007534Y009109D01*
X007770Y008701D01*
X007362Y008465D01*
G37*
G36*
X007189Y008990D02*
X006804Y009261D01*
X007075Y009646D01*
X007460Y009375D01*
X007189Y008990D01*
G37*
G36*
X006757Y009402D02*
X006302Y009525D01*
X006425Y009980D01*
X006880Y009857D01*
X006757Y009402D01*
G37*
G36*
X007663Y009667D02*
X007278Y009938D01*
X007549Y010323D01*
X007934Y010052D01*
X007663Y009667D01*
G37*
G36*
X006971Y010200D02*
X006516Y010323D01*
X006639Y010778D01*
X007094Y010655D01*
X006971Y010200D01*
G37*
G36*
X007087Y006637D02*
X007323Y007045D01*
X007731Y006809D01*
X007495Y006401D01*
X007087Y006637D01*
G37*
G36*
X006578Y006361D02*
X006963Y006632D01*
X007234Y006247D01*
X006849Y005976D01*
X006578Y006361D01*
G37*
G36*
X006049Y006285D02*
X006513Y006367D01*
X006595Y005903D01*
X006131Y005821D01*
X006049Y006285D01*
G37*
G36*
X006193Y005471D02*
X006657Y005553D01*
X006739Y005089D01*
X006275Y005007D01*
X006193Y005471D01*
G37*
G36*
X007052Y005683D02*
X007437Y005954D01*
X007708Y005569D01*
X007323Y005298D01*
X007052Y005683D01*
G37*
G36*
X007803Y006224D02*
X008039Y006632D01*
X008447Y006396D01*
X008211Y005988D01*
X007803Y006224D01*
G37*
D13*
X008392Y007079D03*
X008454Y007642D03*
X007954Y009892D03*
X007454Y010267D03*
X005392Y010704D03*
X004892Y010704D03*
X004392Y009204D03*
X004017Y009204D03*
X004142Y007392D03*
X004142Y007017D03*
X003829Y005079D03*
X004329Y004892D03*
X004642Y004767D03*
X003829Y004454D03*
X002892Y003454D03*
X002892Y002829D03*
X006267Y004954D03*
X006767Y005079D03*
D14*
X006566Y005280D01*
X006466Y005280D01*
X006466Y005153D01*
X006267Y004954D01*
X005642Y005228D02*
X005642Y005430D01*
X005017Y006055D01*
X005017Y005430D02*
X004392Y006055D01*
X005017Y005430D02*
X005017Y005228D01*
X004642Y004767D02*
X004517Y004892D01*
X004329Y004892D01*
X004392Y004954D01*
X004392Y005228D01*
X003829Y005079D02*
X003829Y004791D01*
X003805Y004767D01*
X003829Y004743D01*
X003829Y004454D01*
X003805Y003954D02*
X002993Y004767D01*
X002978Y004767D01*
X002978Y005579D02*
X002829Y005579D01*
X002978Y005579D02*
X003329Y005579D01*
X003805Y005579D02*
X002993Y006392D01*
X002978Y006392D01*
X002978Y007204D02*
X002993Y007204D01*
X003805Y006392D01*
X004142Y007017D02*
X004142Y007392D01*
X003993Y007392D01*
X003805Y007204D01*
X003805Y007954D02*
X003055Y008704D01*
X002978Y008704D01*
X002978Y007954D02*
X003329Y007954D01*
X003805Y008704D02*
X002993Y009517D01*
X002978Y009517D01*
X002978Y010267D02*
X003329Y010267D01*
X003805Y010267D02*
X003853Y010267D01*
X004392Y009728D01*
X004392Y009204D02*
X004017Y009204D01*
X003805Y009416D01*
X003805Y009517D01*
X004392Y010478D02*
X005142Y009728D01*
X005767Y009728D02*
X005767Y010079D01*
X005892Y010390D02*
X006591Y009691D01*
X007079Y009371D02*
X007079Y010079D01*
X006805Y010354D01*
X006805Y010489D01*
X007454Y010267D02*
X007454Y010147D01*
X007606Y009995D01*
X007710Y009892D01*
X007954Y009892D01*
X008164Y009200D02*
X008164Y008789D01*
X008017Y008642D01*
X007978Y008642D01*
X007478Y008142D01*
X007448Y008761D02*
X007448Y008787D01*
X007600Y008787D01*
X007767Y008954D01*
X007132Y009318D02*
X007079Y009371D01*
X005892Y009728D02*
X005767Y009728D01*
X005892Y010390D02*
X005892Y010555D01*
X005392Y010704D02*
X005291Y010704D01*
X005142Y010555D01*
X004993Y010704D01*
X004892Y010704D01*
X004392Y010555D02*
X004392Y010478D01*
X007478Y007392D02*
X008228Y008142D01*
X008305Y008142D01*
X008454Y007642D02*
X008454Y007541D01*
X008305Y007392D01*
X008392Y007305D01*
X008392Y007079D01*
X007767Y006642D02*
X007622Y006723D01*
X007409Y006723D01*
X007685Y006310D02*
X007642Y006267D01*
X006942Y006267D01*
X006906Y006304D01*
X006322Y006094D02*
X006790Y005626D01*
X007380Y005626D01*
X007685Y006310D02*
X008125Y006310D01*
X005767Y005704D02*
X005642Y005829D01*
X005642Y006055D01*
X002993Y003954D02*
X003805Y003142D01*
X002978Y003142D02*
X002892Y003055D01*
X002892Y002829D01*
X002978Y003142D02*
X002892Y003228D01*
X002892Y003454D01*
X002829Y003454D01*
X002978Y003954D02*
X002993Y003954D01*
D15*
X003329Y005579D03*
X003329Y007954D03*
X003329Y010267D03*
X005767Y010079D03*
X007767Y008954D03*
X007767Y006642D03*
X005767Y005704D03*
M02*
