G75*
%MOIN*%
%OFA0B0*%
%FSLAX24Y24*%
%IPPOS*%
%LPD*%
%AMOC8*
5,1,8,0,0,1.08239X$1,22.5*
%
%ADD10C,0.0100*%
%ADD11R,0.0512X0.0512*%
%ADD12R,0.0512X0.0512*%
%ADD13C,0.0437*%
D10*
X002329Y004017D02*
X002329Y008954D01*
X002325Y009041D01*
X002326Y009129D01*
X002330Y009216D01*
X002338Y009303D01*
X002349Y009390D01*
X002365Y009476D01*
X002384Y009561D01*
X002407Y009646D01*
X002433Y009729D01*
X002463Y009811D01*
X002497Y009892D01*
X002534Y009971D01*
X002575Y010048D01*
X002619Y010124D01*
X002666Y010197D01*
X002716Y010269D01*
X002770Y010338D01*
X002826Y010405D01*
X002886Y010469D01*
X002948Y010531D01*
X003012Y010590D01*
X003079Y010646D01*
X003149Y010699D01*
X003221Y010749D01*
X003295Y010795D01*
X003370Y010839D01*
X003448Y010879D01*
X003527Y010916D01*
X003608Y010949D01*
X003691Y010979D01*
X003774Y011005D01*
X003859Y011027D01*
X003944Y011046D01*
X004030Y011061D01*
X004117Y011072D01*
X004204Y011079D01*
X006892Y011079D01*
X006891Y011079D02*
X006979Y011080D01*
X007066Y011077D01*
X007153Y011070D01*
X007240Y011059D01*
X007326Y011045D01*
X007411Y011027D01*
X007496Y011005D01*
X007579Y010980D01*
X007662Y010951D01*
X007743Y010918D01*
X007822Y010882D01*
X007900Y010842D01*
X007976Y010799D01*
X008050Y010753D01*
X008122Y010704D01*
X008192Y010651D01*
X008259Y010596D01*
X008324Y010537D01*
X008386Y010476D01*
X008446Y010412D01*
X008503Y010346D01*
X008556Y010277D01*
X008607Y010206D01*
X008655Y010133D01*
X008699Y010058D01*
X008740Y009981D01*
X008778Y009902D01*
X008812Y009822D01*
X008843Y009740D01*
X008870Y009657D01*
X008893Y009573D01*
X008913Y009488D01*
X008929Y009402D01*
X008941Y009316D01*
X008949Y009229D01*
X008954Y009142D01*
X008954Y004517D01*
X008955Y004517D02*
X008959Y004430D01*
X008958Y004343D01*
X008954Y004256D01*
X008946Y004169D01*
X008934Y004083D01*
X008918Y003997D01*
X008899Y003912D01*
X008875Y003828D01*
X008848Y003745D01*
X008817Y003664D01*
X008783Y003584D01*
X008745Y003505D01*
X008703Y003429D01*
X008658Y003354D01*
X008610Y003281D01*
X008559Y003211D01*
X008504Y003143D01*
X008447Y003078D01*
X008386Y003015D01*
X008323Y002955D01*
X008257Y002898D01*
X008189Y002844D01*
X008118Y002792D01*
X008045Y002745D01*
X007971Y002700D01*
X007894Y002659D01*
X007815Y002622D01*
X007735Y002588D01*
X007653Y002557D01*
X007570Y002530D01*
X007486Y002507D01*
X007401Y002488D01*
X007315Y002473D01*
X007229Y002462D01*
X007142Y002454D01*
X007204Y002454D02*
X004204Y002454D01*
X004122Y002449D01*
X004040Y002447D01*
X003958Y002449D01*
X003876Y002456D01*
X003795Y002466D01*
X003714Y002480D01*
X003633Y002498D01*
X003554Y002519D01*
X003476Y002545D01*
X003399Y002574D01*
X003324Y002606D01*
X003250Y002642D01*
X003178Y002682D01*
X003108Y002725D01*
X003040Y002772D01*
X002975Y002821D01*
X002912Y002874D01*
X002851Y002929D01*
X002793Y002988D01*
X002738Y003049D01*
X002686Y003112D01*
X002638Y003178D01*
X002592Y003246D01*
X002549Y003317D01*
X002510Y003389D01*
X002475Y003463D01*
X002443Y003539D01*
X002414Y003616D01*
X002390Y003694D01*
X002369Y003774D01*
X002352Y003854D01*
X002338Y003935D01*
X002329Y004017D01*
X004392Y005767D02*
X004392Y007892D01*
X004403Y007961D01*
X004418Y008028D01*
X004437Y008095D01*
X004459Y008161D01*
X004485Y008225D01*
X004514Y008288D01*
X004547Y008349D01*
X004583Y008408D01*
X004623Y008465D01*
X004665Y008520D01*
X004710Y008572D01*
X004759Y008622D01*
X004810Y008669D01*
X004863Y008713D01*
X004919Y008754D01*
X004977Y008792D01*
X005037Y008827D01*
X005098Y008858D01*
X005162Y008886D01*
X005227Y008911D01*
X005293Y008932D01*
X005360Y008949D01*
X005428Y008962D01*
X005496Y008972D01*
X005566Y008978D01*
X005635Y008980D01*
X005704Y008978D01*
X005773Y008973D01*
X005842Y008963D01*
X005910Y008950D01*
X005977Y008933D01*
X006043Y008913D01*
X006108Y008889D01*
X006172Y008861D01*
X006234Y008830D01*
X006294Y008795D01*
X006352Y008758D01*
X006408Y008717D01*
X006462Y008673D01*
X006513Y008626D01*
X006561Y008577D01*
X006607Y008524D01*
X006650Y008470D01*
X006689Y008413D01*
X006726Y008354D01*
X006759Y008293D01*
X006789Y008231D01*
X006815Y008167D01*
X006838Y008101D01*
X006857Y008034D01*
X006872Y007967D01*
X006884Y007898D01*
X006891Y007830D01*
X006892Y007829D02*
X006892Y005704D01*
X006891Y005704D02*
X006880Y005635D01*
X006865Y005568D01*
X006846Y005501D01*
X006824Y005435D01*
X006798Y005371D01*
X006769Y005308D01*
X006736Y005247D01*
X006700Y005188D01*
X006660Y005131D01*
X006618Y005076D01*
X006573Y005024D01*
X006524Y004974D01*
X006473Y004927D01*
X006420Y004883D01*
X006364Y004842D01*
X006306Y004804D01*
X006246Y004769D01*
X006185Y004738D01*
X006121Y004710D01*
X006056Y004685D01*
X005990Y004664D01*
X005923Y004647D01*
X005855Y004634D01*
X005787Y004624D01*
X005717Y004618D01*
X005648Y004616D01*
X005579Y004618D01*
X005510Y004623D01*
X005441Y004633D01*
X005373Y004646D01*
X005306Y004663D01*
X005240Y004683D01*
X005175Y004707D01*
X005111Y004735D01*
X005049Y004766D01*
X004989Y004801D01*
X004931Y004838D01*
X004875Y004879D01*
X004821Y004923D01*
X004770Y004970D01*
X004722Y005019D01*
X004676Y005072D01*
X004633Y005126D01*
X004594Y005183D01*
X004557Y005242D01*
X004524Y005303D01*
X004494Y005365D01*
X004468Y005429D01*
X004445Y005495D01*
X004426Y005562D01*
X004411Y005629D01*
X004399Y005698D01*
X004392Y005766D01*
D11*
X003805Y006017D03*
X003805Y006767D03*
X003805Y007517D03*
X003805Y008267D03*
X002978Y008267D03*
X002978Y007517D03*
X002978Y006767D03*
X002978Y006017D03*
X002978Y005267D03*
X003805Y005267D03*
X004954Y003805D03*
X005642Y003805D03*
X006329Y003805D03*
X006329Y002978D03*
X005642Y002978D03*
X004954Y002978D03*
X007478Y005267D03*
X007478Y006017D03*
X007478Y006767D03*
X007478Y007517D03*
X007478Y008267D03*
X008305Y008267D03*
X008305Y007517D03*
X008305Y006767D03*
X008305Y006017D03*
X008305Y005267D03*
X006329Y009728D03*
X005642Y009728D03*
X004954Y009728D03*
X004954Y010555D03*
X005642Y010555D03*
X006329Y010555D03*
D12*
G36*
X007504Y009838D02*
X007062Y010094D01*
X007318Y010536D01*
X007760Y010280D01*
X007504Y009838D01*
G37*
G36*
X007090Y009122D02*
X006648Y009378D01*
X006904Y009820D01*
X007346Y009564D01*
X007090Y009122D01*
G37*
G36*
X007316Y008586D02*
X007060Y009028D01*
X007502Y009284D01*
X007758Y008842D01*
X007316Y008586D01*
G37*
G36*
X008032Y008999D02*
X007776Y009441D01*
X008218Y009697D01*
X008474Y009255D01*
X008032Y008999D01*
G37*
G36*
X004635Y009378D02*
X004193Y009122D01*
X003937Y009564D01*
X004379Y009820D01*
X004635Y009378D01*
G37*
G36*
X004224Y009028D02*
X003968Y008586D01*
X003526Y008842D01*
X003782Y009284D01*
X004224Y009028D01*
G37*
G36*
X003508Y009441D02*
X003252Y008999D01*
X002810Y009255D01*
X003066Y009697D01*
X003508Y009441D01*
G37*
G36*
X004221Y010094D02*
X003779Y009838D01*
X003523Y010280D01*
X003965Y010536D01*
X004221Y010094D01*
G37*
G36*
X003968Y004885D02*
X004224Y004443D01*
X003782Y004187D01*
X003526Y004629D01*
X003968Y004885D01*
G37*
G36*
X003252Y004471D02*
X003508Y004029D01*
X003066Y003773D01*
X002810Y004215D01*
X003252Y004471D01*
G37*
G36*
X004193Y004349D02*
X004635Y004093D01*
X004379Y003651D01*
X003937Y003907D01*
X004193Y004349D01*
G37*
G36*
X003779Y003633D02*
X004221Y003377D01*
X003965Y002935D01*
X003523Y003191D01*
X003779Y003633D01*
G37*
G36*
X006648Y004093D02*
X007090Y004349D01*
X007346Y003907D01*
X006904Y003651D01*
X006648Y004093D01*
G37*
G36*
X007060Y004443D02*
X007316Y004885D01*
X007758Y004629D01*
X007502Y004187D01*
X007060Y004443D01*
G37*
G36*
X007776Y004029D02*
X008032Y004471D01*
X008474Y004215D01*
X008218Y003773D01*
X007776Y004029D01*
G37*
G36*
X007062Y003377D02*
X007504Y003633D01*
X007760Y003191D01*
X007318Y002935D01*
X007062Y003377D01*
G37*
D13*
X007142Y003079D03*
X007704Y003392D03*
X008579Y005829D03*
X008579Y006204D03*
X008579Y008017D03*
X008579Y008579D03*
X007017Y010579D03*
X006642Y010579D03*
X004142Y010392D03*
X003579Y010017D03*
X002704Y007767D03*
X002704Y007267D03*
X002704Y005454D03*
X002704Y004954D03*
X004454Y004329D03*
X004767Y004329D03*
X004642Y002892D03*
X004267Y002892D03*
M02*
