G75*
%MOIN*%
%OFA0B0*%
%FSLAX24Y24*%
%IPPOS*%
%LPD*%
%AMOC8*
5,1,8,0,0,1.08239X$1,22.5*
%
%ADD10C,0.0000*%
%ADD11C,0.0100*%
%ADD12C,0.0040*%
%ADD13C,0.0080*%
D10*
X001267Y002517D02*
X001267Y011017D01*
X007767Y011017D01*
X007767Y002517D01*
X001267Y002517D01*
D11*
X002767Y002818D02*
X002767Y003965D01*
X002766Y003965D02*
X002768Y003990D01*
X002773Y004015D01*
X002782Y004039D01*
X002794Y004061D01*
X002809Y004081D01*
X002827Y004099D01*
X002847Y004114D01*
X002869Y004126D01*
X002893Y004135D01*
X002918Y004140D01*
X002943Y004142D01*
X003590Y004142D01*
X003590Y004141D02*
X003615Y004143D01*
X003640Y004148D01*
X003664Y004157D01*
X003686Y004169D01*
X003706Y004184D01*
X003724Y004202D01*
X003739Y004222D01*
X003751Y004244D01*
X003760Y004268D01*
X003765Y004293D01*
X003767Y004318D01*
X003767Y009215D01*
X003765Y009240D01*
X003760Y009265D01*
X003751Y009289D01*
X003739Y009311D01*
X003724Y009331D01*
X003706Y009349D01*
X003686Y009364D01*
X003664Y009376D01*
X003640Y009385D01*
X003615Y009390D01*
X003590Y009392D01*
X003017Y009392D01*
X002987Y009394D01*
X002957Y009399D01*
X002928Y009408D01*
X002901Y009421D01*
X002875Y009436D01*
X002851Y009455D01*
X002830Y009476D01*
X002811Y009500D01*
X002796Y009526D01*
X002783Y009553D01*
X002774Y009582D01*
X002769Y009612D01*
X002767Y009642D01*
X002767Y010715D01*
X002766Y010715D02*
X002768Y010740D01*
X002773Y010765D01*
X002782Y010789D01*
X002794Y010811D01*
X002809Y010831D01*
X002827Y010849D01*
X002847Y010864D01*
X002869Y010876D01*
X002893Y010885D01*
X002918Y010890D01*
X002943Y010892D01*
X006090Y010892D01*
X006115Y010890D01*
X006140Y010885D01*
X006164Y010876D01*
X006186Y010864D01*
X006206Y010849D01*
X006224Y010831D01*
X006239Y010811D01*
X006251Y010789D01*
X006260Y010765D01*
X006265Y010740D01*
X006267Y010715D01*
X006267Y009517D01*
X006265Y009497D01*
X006261Y009478D01*
X006253Y009460D01*
X006243Y009444D01*
X006230Y009429D01*
X006215Y009416D01*
X006199Y009406D01*
X006181Y009398D01*
X006162Y009394D01*
X006142Y009392D01*
X005443Y009392D01*
X005418Y009390D01*
X005393Y009385D01*
X005369Y009376D01*
X005347Y009364D01*
X005327Y009349D01*
X005309Y009331D01*
X005294Y009311D01*
X005282Y009289D01*
X005273Y009265D01*
X005268Y009240D01*
X005266Y009215D01*
X005267Y009215D02*
X005267Y004318D01*
X005266Y004318D02*
X005268Y004293D01*
X005273Y004268D01*
X005282Y004244D01*
X005294Y004222D01*
X005309Y004202D01*
X005327Y004184D01*
X005347Y004169D01*
X005369Y004157D01*
X005393Y004148D01*
X005418Y004143D01*
X005443Y004141D01*
X005443Y004142D02*
X006090Y004142D01*
X006115Y004140D01*
X006140Y004135D01*
X006164Y004126D01*
X006186Y004114D01*
X006206Y004099D01*
X006224Y004081D01*
X006239Y004061D01*
X006251Y004039D01*
X006260Y004015D01*
X006265Y003990D01*
X006267Y003965D01*
X006267Y002818D01*
X006265Y002793D01*
X006260Y002768D01*
X006251Y002744D01*
X006239Y002722D01*
X006224Y002702D01*
X006206Y002684D01*
X006186Y002669D01*
X006164Y002657D01*
X006140Y002648D01*
X006115Y002643D01*
X006090Y002641D01*
X006090Y002642D02*
X002943Y002642D01*
X002943Y002641D02*
X002918Y002643D01*
X002893Y002648D01*
X002869Y002657D01*
X002847Y002669D01*
X002827Y002684D01*
X002809Y002702D01*
X002794Y002722D01*
X002782Y002744D01*
X002773Y002768D01*
X002768Y002793D01*
X002766Y002818D01*
D12*
X002767Y002642D02*
X002767Y004017D01*
X002892Y004142D01*
X003517Y004142D01*
X003517Y002642D01*
X002767Y002642D01*
X003704Y002642D02*
X003704Y004017D01*
X003829Y004142D01*
X004454Y004142D01*
X004454Y002642D01*
X003704Y002642D01*
X004579Y002642D02*
X004579Y004017D01*
X004704Y004142D01*
X005329Y004142D01*
X005329Y002642D01*
X004579Y002642D01*
X005517Y002642D02*
X005517Y004017D01*
X005642Y004142D01*
X006267Y004142D01*
X006267Y002642D01*
X005517Y002642D01*
X005267Y004017D02*
X003767Y004017D01*
X003767Y004767D01*
X005142Y004767D01*
X005267Y004642D01*
X005267Y004017D01*
X005267Y004829D02*
X003767Y004829D01*
X003767Y005579D01*
X005142Y005579D01*
X005267Y005454D01*
X005267Y004829D01*
X005267Y005642D02*
X003767Y005642D01*
X003767Y006392D01*
X005142Y006392D01*
X005267Y006267D01*
X005267Y005642D01*
X005267Y006392D02*
X003767Y006392D01*
X003767Y007142D01*
X005142Y007142D01*
X005267Y007017D01*
X005267Y006392D01*
X005267Y007204D02*
X003767Y007204D01*
X003767Y007954D01*
X005142Y007954D01*
X005267Y007829D01*
X005267Y007204D01*
X005267Y008017D02*
X003767Y008017D01*
X003767Y008767D01*
X005142Y008767D01*
X005267Y008642D01*
X005267Y008017D01*
X005267Y008767D02*
X003767Y008767D01*
X003767Y009517D01*
X005142Y009517D01*
X005267Y009392D01*
X005267Y008767D01*
X005329Y009392D02*
X004579Y009392D01*
X004579Y010767D01*
X004704Y010892D01*
X005329Y010892D01*
X005329Y009392D01*
X005517Y009392D02*
X005517Y010767D01*
X005642Y010892D01*
X006267Y010892D01*
X006267Y009392D01*
X005517Y009392D01*
X004454Y009392D02*
X003704Y009392D01*
X003704Y010767D01*
X003829Y010892D01*
X004454Y010892D01*
X004454Y009392D01*
X003517Y009392D02*
X002767Y009392D01*
X002767Y010767D01*
X002892Y010892D01*
X003517Y010892D01*
X003517Y009392D01*
D13*
X002727Y009697D02*
X002587Y009837D01*
X002306Y009837D01*
X002376Y010017D02*
X002657Y010017D01*
X002727Y010087D01*
X002727Y010227D01*
X002657Y010297D01*
X002376Y010297D01*
X002306Y010227D01*
X002306Y010087D01*
X002376Y010017D01*
X002516Y010477D02*
X002516Y010758D01*
X002306Y010688D02*
X002516Y010477D01*
X002306Y010688D02*
X002727Y010688D01*
X002727Y009697D02*
X002587Y009557D01*
X002306Y009557D01*
X005389Y005789D02*
X005319Y005719D01*
X005319Y005579D01*
X005389Y005509D01*
X005389Y005329D02*
X005319Y005259D01*
X005319Y005118D01*
X005389Y005048D01*
X005669Y005048D01*
X005739Y005118D01*
X005739Y005259D01*
X005669Y005329D01*
X005389Y005329D01*
X005739Y005509D02*
X005459Y005789D01*
X005389Y005789D01*
X005739Y005789D02*
X005739Y005509D01*
X005599Y004868D02*
X005319Y004868D01*
X005319Y004588D02*
X005599Y004588D01*
X005739Y004728D01*
X005599Y004868D01*
X006280Y003854D02*
X006701Y003854D01*
X006280Y003574D01*
X006701Y003574D01*
X006701Y003407D02*
X006701Y003267D01*
X006701Y003337D02*
X006280Y003337D01*
X006280Y003267D02*
X006280Y003407D01*
X006280Y003087D02*
X006561Y003087D01*
X006701Y002947D01*
X006561Y002807D01*
X006280Y002807D01*
X003758Y004182D02*
X003477Y004182D01*
X003618Y004182D02*
X003618Y004602D01*
X003477Y004462D01*
X003297Y004532D02*
X003297Y004252D01*
X003227Y004182D01*
X003087Y004182D01*
X003017Y004252D01*
X003017Y004532D01*
X003087Y004602D01*
X003227Y004602D01*
X003297Y004532D01*
X002837Y004602D02*
X002837Y004322D01*
X002697Y004182D01*
X002557Y004322D01*
X002557Y004602D01*
X005360Y006957D02*
X005641Y006957D01*
X005781Y007097D01*
X005641Y007237D01*
X005360Y007237D01*
X005430Y007417D02*
X005711Y007417D01*
X005781Y007487D01*
X005781Y007627D01*
X005711Y007697D01*
X005430Y007697D01*
X005360Y007627D01*
X005360Y007487D01*
X005430Y007417D01*
X005430Y007878D02*
X005360Y007948D01*
X005360Y008088D01*
X005430Y008158D01*
X005501Y008158D01*
X005571Y008088D01*
X005641Y008158D01*
X005711Y008158D01*
X005781Y008088D01*
X005781Y007948D01*
X005711Y007878D01*
X005571Y008018D02*
X005571Y008088D01*
X006319Y009400D02*
X006599Y009400D01*
X006739Y009541D01*
X006599Y009681D01*
X006319Y009681D01*
X006389Y009861D02*
X006669Y009861D01*
X006739Y009931D01*
X006739Y010071D01*
X006669Y010141D01*
X006389Y010141D01*
X006319Y010071D01*
X006319Y009931D01*
X006389Y009861D01*
X006319Y010321D02*
X006529Y010321D01*
X006459Y010461D01*
X006459Y010531D01*
X006529Y010602D01*
X006669Y010602D01*
X006739Y010531D01*
X006739Y010391D01*
X006669Y010321D01*
X006319Y010321D02*
X006319Y010602D01*
M02*
