G75*
%MOIN*%
%OFA0B0*%
%FSLAX24Y24*%
%IPPOS*%
%LPD*%
%AMOC8*
5,1,8,0,0,1.08239X$1,22.5*
%
%ADD10C,0.0000*%
%ADD11R,0.0472X0.0472*%
%ADD12C,0.0397*%
%ADD13C,0.0060*%
%ADD14C,0.0317*%
D10*
X001267Y002517D02*
X001267Y011017D01*
X007767Y011017D01*
X007767Y002517D01*
X001267Y002517D01*
D11*
X003142Y002978D03*
X003142Y003805D03*
X004079Y003805D03*
X004103Y004392D03*
X004103Y005204D03*
X004103Y006017D03*
X004103Y006767D03*
X004103Y007579D03*
X004103Y008392D03*
X004103Y009142D03*
X004079Y009728D03*
X004079Y010555D03*
X004954Y010555D03*
X004954Y009728D03*
X004930Y009142D03*
X004930Y008392D03*
X004930Y007579D03*
X004930Y006767D03*
X004930Y006017D03*
X004930Y005204D03*
X004930Y004392D03*
X004954Y003805D03*
X004954Y002978D03*
X004079Y002978D03*
X005892Y002978D03*
X005892Y003805D03*
X005892Y009728D03*
X005892Y010555D03*
X003142Y010555D03*
X003142Y009728D03*
D12*
X003454Y010579D03*
X002829Y010579D03*
X004954Y007892D03*
X004954Y007267D03*
X004954Y005517D03*
X004954Y004892D03*
X004392Y003829D03*
X003767Y003829D03*
X005579Y002954D03*
X006204Y002954D03*
X006204Y010579D03*
X005579Y010579D03*
D13*
X005868Y010579D01*
X005892Y010555D01*
X005916Y010579D01*
X006204Y010579D01*
X005892Y009728D02*
X005065Y010555D01*
X004954Y010555D01*
X004127Y010555D02*
X004954Y009728D01*
X004930Y009142D02*
X004579Y009142D01*
X004103Y009142D02*
X004853Y008392D01*
X004930Y008392D01*
X004954Y007892D02*
X004954Y007603D01*
X004930Y007579D01*
X004954Y007555D01*
X004954Y007267D01*
X004930Y006767D02*
X004916Y006767D01*
X004103Y007579D01*
X004103Y006767D02*
X004853Y006017D01*
X004930Y006017D01*
X004954Y005517D02*
X004954Y005228D01*
X004930Y005204D01*
X004954Y005180D01*
X004954Y004892D01*
X004930Y004392D02*
X004916Y004392D01*
X004103Y005204D01*
X004103Y004392D02*
X003892Y004392D01*
X003305Y003805D01*
X003142Y003805D01*
X003142Y003329D02*
X003142Y002978D01*
X003767Y003829D02*
X004055Y003829D01*
X004079Y003805D01*
X004103Y003829D01*
X004392Y003829D01*
X004954Y003805D02*
X004127Y002978D01*
X004079Y002978D01*
X004954Y002978D02*
X005065Y002978D01*
X005892Y003805D01*
X005892Y002978D02*
X005916Y002954D01*
X006204Y002954D01*
X005892Y002978D02*
X005868Y002954D01*
X005579Y002954D01*
X004454Y006017D02*
X004103Y006017D01*
X004103Y008392D02*
X004454Y008392D01*
X004079Y009728D02*
X004079Y010079D01*
X004079Y010555D02*
X004127Y010555D01*
X003454Y010579D02*
X003166Y010579D01*
X003142Y010555D01*
X003118Y010579D01*
X002829Y010579D01*
X003142Y010079D02*
X003142Y009728D01*
D14*
X003142Y010079D03*
X004079Y010079D03*
X004579Y009142D03*
X004454Y008392D03*
X004454Y006017D03*
X003142Y003329D03*
M02*
