G75*
%MOIN*%
%OFA0B0*%
%FSLAX24Y24*%
%IPPOS*%
%LPD*%
%AMOC8*
5,1,8,0,0,1.08239X$1,22.5*
%
%ADD10C,0.0000*%
%ADD11R,0.0512X0.0512*%
%ADD12R,0.0512X0.0512*%
%ADD13C,0.0437*%
D10*
X002392Y002517D02*
X002392Y011017D01*
X008892Y011017D01*
X008892Y002517D01*
X002392Y002517D01*
D11*
X004392Y004166D03*
X005017Y004430D03*
X004392Y004993D03*
X003805Y006204D03*
X003805Y006892D03*
X003805Y007579D03*
X003805Y008267D03*
X003805Y008954D03*
X003805Y009642D03*
X003805Y010329D03*
X002978Y010329D03*
X002978Y009642D03*
X002978Y008954D03*
X002978Y008267D03*
X002978Y007579D03*
X002978Y006892D03*
X002978Y006204D03*
X005017Y003603D03*
X005642Y003805D03*
X006267Y003603D03*
X006892Y004166D03*
X006267Y004430D03*
X006892Y004993D03*
X007478Y006204D03*
X007478Y006892D03*
X007478Y007579D03*
X007478Y008267D03*
X007478Y008954D03*
X007478Y009642D03*
X007478Y010329D03*
X008305Y010329D03*
X008305Y009642D03*
X008305Y008954D03*
X008305Y008267D03*
X008305Y007579D03*
X008305Y006892D03*
X008305Y006204D03*
X005642Y002978D03*
D12*
G36*
X007633Y005629D02*
X007377Y005187D01*
X006935Y005443D01*
X007191Y005885D01*
X007633Y005629D01*
G37*
G36*
X008349Y005215D02*
X008093Y004773D01*
X007651Y005029D01*
X007907Y005471D01*
X008349Y005215D01*
G37*
G36*
X003907Y005187D02*
X003651Y005629D01*
X004093Y005885D01*
X004349Y005443D01*
X003907Y005187D01*
G37*
G36*
X003191Y004773D02*
X002935Y005215D01*
X003377Y005471D01*
X003633Y005029D01*
X003191Y004773D01*
G37*
D13*
X004579Y005329D03*
X004954Y005329D03*
X006017Y004767D03*
X006392Y004767D03*
X007017Y006079D03*
X007079Y006392D03*
X007142Y008079D03*
X007142Y008454D03*
X007142Y010142D03*
X007142Y010517D03*
X004142Y009142D03*
X004142Y008767D03*
X004142Y007079D03*
X004142Y006704D03*
X005329Y002954D03*
X005954Y002954D03*
M02*
