G75*
%MOIN*%
%OFA0B0*%
%FSLAX24Y24*%
%IPPOS*%
%LPD*%
%AMOC8*
5,1,8,0,0,1.08239X$1,22.5*
%
%ADD10C,0.0000*%
%ADD11C,0.0100*%
%ADD12C,0.0040*%
%ADD13C,0.0080*%
D10*
X002392Y002517D02*
X002392Y011017D01*
X008892Y011017D01*
X008892Y002517D01*
X002392Y002517D01*
D11*
X002793Y005116D02*
X005185Y002724D01*
X005382Y002642D02*
X005943Y002642D01*
X006068Y002693D02*
X008495Y005120D01*
X008642Y005474D02*
X008642Y010479D01*
X008641Y010479D02*
X008639Y010506D01*
X008634Y010533D01*
X008626Y010559D01*
X008615Y010584D01*
X008601Y010607D01*
X008584Y010628D01*
X008565Y010647D01*
X008544Y010664D01*
X008521Y010678D01*
X008496Y010689D01*
X008470Y010697D01*
X008443Y010702D01*
X008416Y010704D01*
X007367Y010704D01*
X007340Y010702D01*
X007313Y010697D01*
X007287Y010689D01*
X007262Y010678D01*
X007239Y010664D01*
X007218Y010647D01*
X007199Y010628D01*
X007182Y010607D01*
X007168Y010584D01*
X007157Y010559D01*
X007149Y010533D01*
X007144Y010506D01*
X007142Y010479D01*
X007142Y006276D01*
X006959Y005834D02*
X005907Y004782D01*
X005880Y004757D01*
X005850Y004735D01*
X005819Y004716D01*
X005786Y004701D01*
X005751Y004688D01*
X005715Y004679D01*
X005679Y004674D01*
X005642Y004672D01*
X005605Y004674D01*
X005569Y004679D01*
X005533Y004688D01*
X005498Y004701D01*
X005465Y004716D01*
X005434Y004735D01*
X005404Y004757D01*
X005377Y004782D01*
X004364Y005794D01*
X004142Y006332D02*
X004142Y010479D01*
X004141Y010479D02*
X004139Y010506D01*
X004134Y010533D01*
X004126Y010559D01*
X004115Y010584D01*
X004101Y010607D01*
X004084Y010628D01*
X004065Y010647D01*
X004044Y010664D01*
X004021Y010678D01*
X003996Y010689D01*
X003970Y010697D01*
X003943Y010702D01*
X003916Y010704D01*
X002867Y010704D01*
X002840Y010702D01*
X002813Y010697D01*
X002787Y010689D01*
X002762Y010678D01*
X002739Y010664D01*
X002718Y010647D01*
X002699Y010628D01*
X002682Y010607D01*
X002668Y010584D01*
X002657Y010559D01*
X002649Y010533D01*
X002644Y010506D01*
X002642Y010479D01*
X002642Y005480D01*
X002644Y005440D01*
X002648Y005399D01*
X002656Y005360D01*
X002667Y005321D01*
X002681Y005283D01*
X002698Y005246D01*
X002718Y005211D01*
X002740Y005177D01*
X002765Y005146D01*
X002793Y005116D01*
X004365Y005795D02*
X004328Y005834D01*
X004294Y005877D01*
X004263Y005921D01*
X004235Y005968D01*
X004211Y006016D01*
X004190Y006066D01*
X004173Y006118D01*
X004159Y006170D01*
X004150Y006224D01*
X004144Y006278D01*
X004142Y006332D01*
X006959Y005834D02*
X006992Y005870D01*
X007023Y005909D01*
X007050Y005949D01*
X007074Y005992D01*
X007094Y006037D01*
X007111Y006083D01*
X007125Y006130D01*
X007134Y006178D01*
X007140Y006227D01*
X007142Y006276D01*
X008642Y005474D02*
X008640Y005430D01*
X008634Y005387D01*
X008625Y005345D01*
X008612Y005303D01*
X008595Y005263D01*
X008575Y005224D01*
X008552Y005187D01*
X008525Y005153D01*
X008496Y005120D01*
X006068Y002693D02*
X006051Y002678D01*
X006031Y002665D01*
X006011Y002654D01*
X005989Y002647D01*
X005966Y002643D01*
X005943Y002641D01*
X005382Y002641D02*
X005351Y002643D01*
X005320Y002648D01*
X005290Y002657D01*
X005261Y002669D01*
X005233Y002684D01*
X005207Y002702D01*
X005184Y002723D01*
D12*
X005267Y002642D02*
X005267Y004017D01*
X005392Y004142D01*
X006017Y004142D01*
X006017Y002642D01*
X005267Y002642D01*
X005392Y003267D02*
X004642Y003267D01*
X004642Y004642D01*
X004767Y004767D01*
X005392Y004767D01*
X005392Y003267D01*
X005892Y003267D02*
X005892Y004642D01*
X006017Y004767D01*
X006642Y004767D01*
X006642Y003267D01*
X005892Y003267D01*
X006517Y003829D02*
X006517Y005204D01*
X006642Y005329D01*
X007267Y005329D01*
X007267Y003829D01*
X006517Y003829D01*
X006913Y005317D02*
X006867Y005488D01*
X007180Y006029D01*
X008479Y005279D01*
X008104Y004629D01*
X006913Y005317D01*
X007267Y005829D02*
X007142Y005954D01*
X007142Y006579D01*
X008642Y006579D01*
X008642Y005829D01*
X007267Y005829D01*
X007267Y006517D02*
X007142Y006642D01*
X007142Y007267D01*
X008642Y007267D01*
X008642Y006517D01*
X007267Y006517D01*
X007267Y007204D02*
X007142Y007329D01*
X007142Y007954D01*
X008642Y007954D01*
X008642Y007204D01*
X007267Y007204D01*
X007267Y007892D02*
X007142Y008017D01*
X007142Y008642D01*
X008642Y008642D01*
X008642Y007892D01*
X007267Y007892D01*
X007267Y008579D02*
X007142Y008704D01*
X007142Y009329D01*
X008642Y009329D01*
X008642Y008579D01*
X007267Y008579D01*
X007267Y009267D02*
X007142Y009392D01*
X007142Y010017D01*
X008642Y010017D01*
X008642Y009267D01*
X007267Y009267D01*
X007267Y009954D02*
X007142Y010079D01*
X007142Y010704D01*
X008642Y010704D01*
X008642Y009954D01*
X007267Y009954D01*
X004142Y009954D02*
X002642Y009954D01*
X002642Y010704D01*
X004017Y010704D01*
X004142Y010579D01*
X004142Y009954D01*
X004142Y009892D02*
X004017Y010017D01*
X002642Y010017D01*
X002642Y009267D01*
X004142Y009267D01*
X004142Y009892D01*
X004017Y009329D02*
X004142Y009204D01*
X004142Y008579D01*
X002642Y008579D01*
X002642Y009329D01*
X004017Y009329D01*
X004017Y008642D02*
X004142Y008517D01*
X004142Y007892D01*
X002642Y007892D01*
X002642Y008642D01*
X004017Y008642D01*
X004017Y007954D02*
X004142Y007829D01*
X004142Y007204D01*
X002642Y007204D01*
X002642Y007954D01*
X004017Y007954D01*
X004017Y007267D02*
X004142Y007142D01*
X004142Y006517D01*
X002642Y006517D01*
X002642Y007267D01*
X004017Y007267D01*
X004017Y006579D02*
X004142Y006454D01*
X004142Y005829D01*
X002642Y005829D01*
X002642Y006579D01*
X004017Y006579D01*
X003995Y005966D02*
X004166Y005921D01*
X004479Y005379D01*
X003180Y004629D01*
X002805Y005279D01*
X003995Y005966D01*
X004142Y005329D02*
X004017Y005204D01*
X004017Y003829D01*
X004767Y003829D01*
X004767Y005329D01*
X004142Y005329D01*
D13*
X004735Y005918D02*
X004933Y005918D01*
X005131Y006116D01*
X004933Y006314D02*
X004735Y006116D01*
X004735Y005918D01*
X005011Y005741D02*
X005011Y005642D01*
X005110Y005542D01*
X005209Y005542D01*
X005407Y005741D01*
X005407Y005840D01*
X005308Y005939D01*
X005209Y005939D01*
X005011Y005741D01*
X005287Y005366D02*
X005485Y005167D01*
X005460Y005165D02*
X005658Y004967D01*
X005856Y004967D01*
X005856Y005165D01*
X005658Y005363D01*
X005835Y005441D02*
X006033Y005243D01*
X006132Y005243D01*
X006231Y005342D01*
X006231Y005441D01*
X006033Y005639D01*
X005934Y005639D01*
X005835Y005540D01*
X005835Y005441D01*
X005683Y005564D02*
X005386Y005266D01*
X005485Y005564D02*
X005683Y005564D01*
X006111Y005816D02*
X006309Y006015D01*
X006359Y005965D01*
X006359Y005569D01*
X006408Y005519D01*
X006369Y005994D02*
X006649Y005994D01*
X006789Y006134D01*
X006649Y006274D01*
X006369Y006274D01*
X006439Y006455D02*
X006719Y006455D01*
X006789Y006525D01*
X006789Y006665D01*
X006719Y006735D01*
X006439Y006735D01*
X006369Y006665D01*
X006369Y006525D01*
X006439Y006455D01*
X006579Y006915D02*
X006579Y007125D01*
X006649Y007195D01*
X006719Y007195D01*
X006789Y007125D01*
X006789Y006985D01*
X006719Y006915D01*
X006579Y006915D01*
X006439Y007055D01*
X006369Y007195D01*
X006481Y007707D02*
X006762Y007707D01*
X006902Y007847D01*
X006762Y007987D01*
X006481Y007987D01*
X006551Y008167D02*
X006832Y008167D01*
X006902Y008237D01*
X006902Y008377D01*
X006832Y008447D01*
X006551Y008447D01*
X006481Y008377D01*
X006481Y008237D01*
X006551Y008167D01*
X006481Y008627D02*
X006691Y008627D01*
X006621Y008768D01*
X006621Y008838D01*
X006691Y008908D01*
X006832Y008908D01*
X006902Y008838D01*
X006902Y008698D01*
X006832Y008627D01*
X006481Y008627D02*
X006481Y008908D01*
X006494Y009432D02*
X006774Y009432D01*
X006914Y009572D01*
X006774Y009712D01*
X006494Y009712D01*
X006564Y009892D02*
X006844Y009892D01*
X006914Y009962D01*
X006914Y010102D01*
X006844Y010172D01*
X006564Y010172D01*
X006494Y010102D01*
X006494Y009962D01*
X006564Y009892D01*
X006704Y010352D02*
X006704Y010633D01*
X006914Y010563D02*
X006494Y010563D01*
X006704Y010352D01*
X004820Y009423D02*
X004820Y009283D01*
X004750Y009213D01*
X004610Y009353D02*
X004610Y009423D01*
X004680Y009493D01*
X004750Y009493D01*
X004820Y009423D01*
X004610Y009423D02*
X004540Y009493D01*
X004470Y009493D01*
X004400Y009423D01*
X004400Y009283D01*
X004470Y009213D01*
X004470Y009033D02*
X004400Y008963D01*
X004400Y008823D01*
X004470Y008753D01*
X004750Y008753D01*
X004820Y008823D01*
X004820Y008963D01*
X004750Y009033D01*
X004470Y009033D01*
X004400Y008572D02*
X004680Y008572D01*
X004820Y008432D01*
X004680Y008292D01*
X004400Y008292D01*
X004514Y007602D02*
X004444Y007531D01*
X004444Y007391D01*
X004514Y007321D01*
X004514Y007141D02*
X004444Y007071D01*
X004444Y006931D01*
X004514Y006861D01*
X004794Y006861D01*
X004864Y006931D01*
X004864Y007071D01*
X004794Y007141D01*
X004514Y007141D01*
X004864Y007321D02*
X004584Y007602D01*
X004514Y007602D01*
X004864Y007602D02*
X004864Y007321D01*
X004724Y006681D02*
X004444Y006681D01*
X004724Y006681D02*
X004864Y006541D01*
X004724Y006400D01*
X004444Y006400D01*
X004105Y003722D02*
X003906Y003524D01*
X003906Y003325D01*
X004105Y003325D01*
X004303Y003524D01*
X004430Y003396D02*
X004529Y003297D01*
X004480Y003347D02*
X004182Y003049D01*
X004133Y003099D02*
X004232Y003000D01*
X004350Y002882D02*
X004647Y003179D01*
X004548Y002684D01*
X004845Y002981D01*
M02*
