G75*
%MOIN*%
%OFA0B0*%
%FSLAX24Y24*%
%IPPOS*%
%LPD*%
%AMOC8*
5,1,8,0,0,1.08239X$1,22.5*
%
%ADD10C,0.0000*%
%ADD11R,0.0472X0.0472*%
D10*
X002392Y002517D02*
X002392Y011017D01*
X008892Y011017D01*
X008892Y002517D01*
X002392Y002517D01*
D11*
X003517Y002978D03*
X003517Y003805D03*
X003805Y004517D03*
X003805Y005267D03*
X003805Y006017D03*
X003805Y006767D03*
X004041Y006767D03*
X003805Y007517D03*
X003805Y008267D03*
X003805Y009017D03*
X003392Y009728D03*
X002978Y009017D03*
X002978Y008267D03*
X002978Y007517D03*
X002978Y006767D03*
X002978Y006017D03*
X002978Y005267D03*
X002978Y004517D03*
X004392Y003805D03*
X004392Y002978D03*
X005267Y002978D03*
X005267Y003805D03*
X006142Y003805D03*
X006142Y002978D03*
X007017Y002978D03*
X007017Y003805D03*
X007892Y003805D03*
X007892Y002978D03*
X005868Y006767D03*
X005041Y006767D03*
X004868Y006767D03*
X005142Y009728D03*
X005142Y010555D03*
X004267Y010555D03*
X004267Y009728D03*
X003392Y010555D03*
X006017Y010555D03*
X006017Y009728D03*
X006892Y009728D03*
X006892Y010555D03*
X007767Y010555D03*
X007767Y009728D03*
M02*
