G75*
%MOIN*%
%OFA0B0*%
%FSLAX24Y24*%
%IPPOS*%
%LPD*%
%AMOC8*
5,1,8,0,0,1.08239X$1,22.5*
%
%ADD10C,0.0000*%
%ADD11C,0.0100*%
%ADD12C,0.0040*%
%ADD13C,0.0080*%
D10*
X002392Y002517D02*
X002392Y011017D01*
X008892Y011017D01*
X008892Y002517D01*
X002392Y002517D01*
D11*
X003267Y002704D02*
X008042Y002704D01*
X008086Y002706D01*
X008131Y002711D01*
X008174Y002720D01*
X008217Y002733D01*
X008258Y002749D01*
X008298Y002769D01*
X008336Y002792D01*
X008372Y002817D01*
X008406Y002846D01*
X008438Y002878D01*
X008467Y002912D01*
X008492Y002948D01*
X008515Y002986D01*
X008535Y003026D01*
X008551Y003067D01*
X008564Y003110D01*
X008573Y003153D01*
X008578Y003198D01*
X008580Y003242D01*
X008579Y003242D02*
X008579Y003667D01*
X008580Y003667D02*
X008578Y003711D01*
X008573Y003756D01*
X008564Y003799D01*
X008551Y003842D01*
X008535Y003883D01*
X008515Y003923D01*
X008492Y003961D01*
X008467Y003997D01*
X008438Y004031D01*
X008406Y004063D01*
X008372Y004092D01*
X008336Y004117D01*
X008298Y004140D01*
X008258Y004160D01*
X008217Y004176D01*
X008174Y004189D01*
X008131Y004198D01*
X008086Y004203D01*
X008042Y004205D01*
X008042Y004204D02*
X004579Y004204D01*
X004546Y004206D01*
X004514Y004211D01*
X004482Y004219D01*
X004452Y004231D01*
X004423Y004246D01*
X004395Y004264D01*
X004370Y004284D01*
X004346Y004308D01*
X004326Y004333D01*
X004308Y004361D01*
X004293Y004390D01*
X004281Y004420D01*
X004273Y004452D01*
X004268Y004484D01*
X004266Y004517D01*
X004267Y004517D02*
X004267Y005767D01*
X004266Y005767D02*
X004268Y005800D01*
X004273Y005832D01*
X004281Y005864D01*
X004293Y005894D01*
X004308Y005924D01*
X004326Y005951D01*
X004346Y005976D01*
X004370Y006000D01*
X004395Y006020D01*
X004423Y006038D01*
X004452Y006053D01*
X004482Y006065D01*
X004514Y006073D01*
X004546Y006078D01*
X004579Y006080D01*
X004579Y006079D02*
X005792Y006079D01*
X005836Y006081D01*
X005881Y006086D01*
X005924Y006095D01*
X005967Y006108D01*
X006008Y006124D01*
X006048Y006144D01*
X006086Y006167D01*
X006122Y006192D01*
X006156Y006221D01*
X006188Y006253D01*
X006217Y006287D01*
X006242Y006323D01*
X006265Y006361D01*
X006285Y006401D01*
X006301Y006442D01*
X006314Y006485D01*
X006323Y006528D01*
X006328Y006573D01*
X006330Y006617D01*
X006329Y006617D02*
X006329Y006978D01*
X006327Y007019D01*
X006322Y007061D01*
X006313Y007101D01*
X006300Y007141D01*
X006284Y007179D01*
X006265Y007216D01*
X006243Y007251D01*
X006218Y007284D01*
X006190Y007315D01*
X006159Y007343D01*
X006126Y007368D01*
X006091Y007390D01*
X006054Y007409D01*
X006016Y007425D01*
X005976Y007438D01*
X005936Y007447D01*
X005894Y007452D01*
X005853Y007454D01*
X004569Y007454D01*
X004569Y007455D02*
X004531Y007457D01*
X004493Y007463D01*
X004457Y007473D01*
X004421Y007486D01*
X004387Y007504D01*
X004355Y007525D01*
X004325Y007548D01*
X004298Y007575D01*
X004275Y007605D01*
X004254Y007637D01*
X004236Y007671D01*
X004223Y007707D01*
X004213Y007743D01*
X004207Y007781D01*
X004205Y007819D01*
X004204Y007819D02*
X004204Y008991D01*
X004206Y009030D01*
X004212Y009069D01*
X004221Y009107D01*
X004234Y009144D01*
X004251Y009180D01*
X004271Y009213D01*
X004295Y009245D01*
X004321Y009274D01*
X004350Y009300D01*
X004382Y009324D01*
X004415Y009344D01*
X004451Y009361D01*
X004488Y009374D01*
X004526Y009383D01*
X004565Y009389D01*
X004604Y009391D01*
X004604Y009392D02*
X007915Y009392D01*
X007965Y009394D01*
X008014Y009399D01*
X008063Y009409D01*
X008111Y009421D01*
X008158Y009438D01*
X008203Y009458D01*
X008247Y009481D01*
X008289Y009507D01*
X008329Y009537D01*
X008367Y009569D01*
X008402Y009604D01*
X008434Y009642D01*
X008464Y009682D01*
X008490Y009724D01*
X008513Y009768D01*
X008533Y009813D01*
X008550Y009860D01*
X008562Y009908D01*
X008572Y009957D01*
X008577Y010006D01*
X008579Y010056D01*
X008579Y010216D01*
X008577Y010267D01*
X008571Y010317D01*
X008562Y010366D01*
X008549Y010415D01*
X008532Y010463D01*
X008512Y010509D01*
X008488Y010554D01*
X008462Y010597D01*
X008432Y010637D01*
X008399Y010676D01*
X008363Y010712D01*
X008324Y010745D01*
X008284Y010775D01*
X008241Y010801D01*
X008196Y010825D01*
X008150Y010845D01*
X008102Y010862D01*
X008053Y010875D01*
X008004Y010884D01*
X007954Y010890D01*
X007903Y010892D01*
X003267Y010892D01*
X003218Y010890D01*
X003169Y010884D01*
X003121Y010875D01*
X003074Y010861D01*
X003028Y010844D01*
X002983Y010824D01*
X002940Y010800D01*
X002900Y010773D01*
X002861Y010742D01*
X002825Y010709D01*
X002792Y010673D01*
X002761Y010634D01*
X002734Y010594D01*
X002710Y010551D01*
X002690Y010506D01*
X002673Y010460D01*
X002659Y010413D01*
X002650Y010365D01*
X002644Y010316D01*
X002642Y010267D01*
X002642Y003392D01*
X002642Y003391D02*
X002641Y003342D01*
X002644Y003293D01*
X002651Y003244D01*
X002662Y003196D01*
X002676Y003149D01*
X002693Y003103D01*
X002714Y003059D01*
X002738Y003016D01*
X002765Y002975D01*
X002796Y002937D01*
X002829Y002900D01*
X002864Y002866D01*
X002902Y002835D01*
X002943Y002807D01*
X002985Y002782D01*
X003029Y002761D01*
X003075Y002742D01*
X003122Y002727D01*
X003169Y002716D01*
X003218Y002708D01*
X003267Y002704D01*
D12*
X003142Y002642D02*
X003142Y004017D01*
X003267Y004142D01*
X003892Y004142D01*
X003892Y002642D01*
X003142Y002642D01*
X004017Y002642D02*
X004017Y004017D01*
X004142Y004142D01*
X002642Y004142D01*
X002642Y004892D01*
X004017Y004892D01*
X004142Y004767D01*
X004142Y004142D01*
X004767Y004142D01*
X004767Y002642D01*
X004017Y002642D01*
X004892Y002642D02*
X004892Y004017D01*
X005017Y004142D01*
X005642Y004142D01*
X005642Y002642D01*
X004892Y002642D01*
X005767Y002642D02*
X005767Y004017D01*
X005892Y004142D01*
X006517Y004142D01*
X006517Y002642D01*
X005767Y002642D01*
X006642Y002642D02*
X006642Y004017D01*
X006767Y004142D01*
X007392Y004142D01*
X007392Y002642D01*
X006642Y002642D01*
X007517Y002642D02*
X007517Y004017D01*
X007642Y004142D01*
X008267Y004142D01*
X008267Y002642D01*
X007517Y002642D01*
X004142Y004892D02*
X002642Y004892D01*
X002642Y005642D01*
X004017Y005642D01*
X004142Y005517D01*
X004142Y004892D01*
X004142Y005642D02*
X002642Y005642D01*
X002642Y006392D01*
X002642Y007142D01*
X004017Y007142D01*
X004142Y007017D01*
X004142Y006392D01*
X002642Y006392D01*
X004017Y006392D01*
X004142Y006267D01*
X004142Y005642D01*
X003704Y006392D02*
X003704Y007142D01*
X005079Y007142D01*
X005204Y007017D01*
X005204Y006392D01*
X003704Y006392D01*
X004142Y007142D02*
X002642Y007142D01*
X002642Y007892D01*
X004017Y007892D01*
X004142Y007767D01*
X004142Y007142D01*
X004704Y007142D02*
X006079Y007142D01*
X006204Y007017D01*
X006204Y006392D01*
X004704Y006392D01*
X004704Y007142D01*
X004142Y007892D02*
X002642Y007892D01*
X002642Y008642D01*
X004017Y008642D01*
X004142Y008517D01*
X004142Y007892D01*
X004142Y008642D02*
X002642Y008642D01*
X002642Y009392D01*
X004017Y009392D01*
X004142Y009267D01*
X004142Y008642D01*
X003892Y009392D02*
X003892Y010767D01*
X004017Y010892D01*
X004642Y010892D01*
X004642Y009392D01*
X003892Y009392D01*
X003767Y009392D02*
X003017Y009392D01*
X003017Y010767D01*
X003142Y010892D01*
X003767Y010892D01*
X003767Y009392D01*
X004767Y009392D02*
X004767Y010767D01*
X004892Y010892D01*
X005517Y010892D01*
X005517Y009392D01*
X004767Y009392D01*
X005642Y009392D02*
X005642Y010767D01*
X005767Y010892D01*
X006392Y010892D01*
X006392Y009392D01*
X005642Y009392D01*
X006517Y009392D02*
X006517Y010767D01*
X006642Y010892D01*
X007267Y010892D01*
X007267Y009392D01*
X006517Y009392D01*
X007392Y009392D02*
X007392Y010767D01*
X007517Y010892D01*
X008142Y010892D01*
X008142Y009392D01*
X007392Y009392D01*
D13*
X007462Y009290D02*
X007462Y009009D01*
X007322Y008869D01*
X007182Y009009D01*
X007182Y009290D01*
X007642Y009219D02*
X007642Y008939D01*
X007712Y008869D01*
X007852Y008869D01*
X007922Y008939D01*
X007922Y009219D01*
X007852Y009290D01*
X007712Y009290D01*
X007642Y009219D01*
X008102Y009079D02*
X008102Y008939D01*
X008173Y008869D01*
X008313Y008869D01*
X008383Y008939D01*
X008383Y009009D01*
X008313Y009079D01*
X008102Y009079D01*
X008243Y009219D01*
X008383Y009290D01*
X006489Y007408D02*
X006769Y007127D01*
X006839Y007127D01*
X006769Y006947D02*
X006489Y006947D01*
X006419Y006877D01*
X006419Y006737D01*
X006489Y006667D01*
X006769Y006667D01*
X006839Y006737D01*
X006839Y006877D01*
X006769Y006947D01*
X006419Y007127D02*
X006419Y007408D01*
X006489Y007408D01*
X006419Y006487D02*
X006699Y006487D01*
X006839Y006347D01*
X006699Y006207D01*
X006419Y006207D01*
X006025Y004740D02*
X005885Y004740D01*
X005815Y004669D01*
X006025Y004740D02*
X006095Y004669D01*
X006095Y004599D01*
X005815Y004319D01*
X006095Y004319D01*
X006369Y004447D02*
X006509Y004307D01*
X006649Y004447D01*
X006649Y004727D01*
X006830Y004657D02*
X006830Y004377D01*
X006900Y004307D01*
X007040Y004307D01*
X007110Y004377D01*
X007110Y004657D01*
X007040Y004727D01*
X006900Y004727D01*
X006830Y004657D01*
X006369Y004727D02*
X006369Y004447D01*
X005635Y004389D02*
X005565Y004319D01*
X005425Y004319D01*
X005355Y004389D01*
X005355Y004669D01*
X005425Y004740D01*
X005565Y004740D01*
X005635Y004669D01*
X005635Y004389D01*
X005174Y004459D02*
X005174Y004740D01*
X004894Y004740D02*
X004894Y004459D01*
X005034Y004319D01*
X005174Y004459D01*
X004839Y004909D02*
X004699Y005049D01*
X004419Y005049D01*
X004489Y005230D02*
X004769Y005230D01*
X004839Y005300D01*
X004839Y005440D01*
X004769Y005510D01*
X004489Y005510D01*
X004419Y005440D01*
X004419Y005300D01*
X004489Y005230D01*
X004419Y004769D02*
X004699Y004769D01*
X004839Y004909D01*
X004769Y005690D02*
X004839Y005760D01*
X004839Y005900D01*
X004769Y005970D01*
X004699Y005970D01*
X004629Y005900D01*
X004629Y005830D01*
X004629Y005900D02*
X004559Y005970D01*
X004489Y005970D01*
X004419Y005900D01*
X004419Y005760D01*
X004489Y005690D01*
X004431Y008057D02*
X004712Y008057D01*
X004852Y008197D01*
X004712Y008337D01*
X004431Y008337D01*
X004501Y008517D02*
X004782Y008517D01*
X004852Y008587D01*
X004852Y008727D01*
X004782Y008797D01*
X004501Y008797D01*
X004431Y008727D01*
X004431Y008587D01*
X004501Y008517D01*
X004641Y008977D02*
X004641Y009258D01*
X004431Y009188D02*
X004641Y008977D01*
X004431Y009188D02*
X004852Y009188D01*
X005057Y009290D02*
X005057Y009009D01*
X005197Y008869D01*
X005337Y009009D01*
X005337Y009290D01*
X005517Y009219D02*
X005517Y008939D01*
X005587Y008869D01*
X005727Y008869D01*
X005797Y008939D01*
X005797Y009219D01*
X005727Y009290D01*
X005587Y009290D01*
X005517Y009219D01*
X005977Y009290D02*
X005977Y009079D01*
X006118Y009149D01*
X006188Y009149D01*
X006258Y009079D01*
X006258Y008939D01*
X006188Y008869D01*
X006048Y008869D01*
X005977Y008939D01*
X005977Y009290D02*
X006258Y009290D01*
X007430Y004727D02*
X007430Y004307D01*
X007290Y004307D02*
X007570Y004307D01*
X007744Y004447D02*
X007884Y004307D01*
X008024Y004447D01*
X008024Y004727D01*
X008205Y004727D02*
X008345Y004727D01*
X008275Y004727D02*
X008275Y004307D01*
X008205Y004307D02*
X008345Y004307D01*
X008511Y004307D02*
X008511Y004727D01*
X008792Y004307D01*
X008792Y004727D01*
X007744Y004727D02*
X007744Y004447D01*
X007430Y004727D02*
X007290Y004587D01*
M02*
