G75*
%MOIN*%
%OFA0B0*%
%FSLAX24Y24*%
%IPPOS*%
%LPD*%
%AMOC8*
5,1,8,0,0,1.08239X$1,22.5*
%
%ADD10C,0.0000*%
%ADD11R,0.0472X0.0472*%
%ADD12C,0.0397*%
%ADD13C,0.0060*%
%ADD14C,0.0317*%
D10*
X002392Y002517D02*
X002392Y011017D01*
X008892Y011017D01*
X008892Y002517D01*
X002392Y002517D01*
D11*
X003267Y002978D03*
X004079Y002978D03*
X004892Y002978D03*
X004892Y003805D03*
X004079Y003805D03*
X003805Y004454D03*
X003267Y003805D03*
X002978Y004454D03*
X002978Y005267D03*
X002978Y006079D03*
X002978Y006892D03*
X002978Y007704D03*
X002978Y008517D03*
X002978Y009329D03*
X002978Y010142D03*
X003805Y010142D03*
X003805Y009329D03*
X003805Y008517D03*
X003805Y007704D03*
X003805Y006892D03*
X003805Y006079D03*
X003805Y005267D03*
X005704Y003805D03*
X006517Y003805D03*
X007329Y003805D03*
X007329Y002978D03*
X006517Y002978D03*
X005704Y002978D03*
X008142Y002978D03*
X008142Y003805D03*
D12*
X008454Y002954D03*
X007829Y002954D03*
X006829Y003892D03*
X006204Y003892D03*
X004392Y003829D03*
X003767Y003829D03*
X003829Y004954D03*
X003829Y005579D03*
X003829Y007392D03*
X003829Y008017D03*
X003829Y009829D03*
X003829Y010454D03*
D13*
X003805Y010454D01*
X003805Y010142D01*
X003805Y009829D01*
X003829Y009829D01*
X003805Y009329D02*
X002993Y010142D01*
X002978Y010142D01*
X002978Y009329D02*
X002993Y009329D01*
X003805Y008517D01*
X003805Y008017D02*
X003805Y007704D01*
X003805Y007392D01*
X003829Y007392D01*
X003805Y006892D02*
X002993Y007704D01*
X002978Y007704D01*
X002978Y006892D02*
X002993Y006892D01*
X003805Y006079D01*
X003805Y005579D02*
X003805Y005267D01*
X003805Y004954D01*
X003829Y004954D01*
X003805Y004454D02*
X002993Y005267D01*
X002978Y005267D01*
X002978Y006079D02*
X003329Y006079D01*
X003805Y005579D02*
X003829Y005579D01*
X002978Y004454D02*
X002978Y004305D01*
X003267Y004017D01*
X003267Y003805D01*
X003267Y003329D02*
X003267Y002978D01*
X004079Y002978D02*
X004079Y002993D01*
X004892Y003805D01*
X004392Y003829D02*
X004079Y003829D01*
X004079Y003805D01*
X004079Y003829D02*
X003767Y003829D01*
X004892Y002993D02*
X005704Y003805D01*
X005704Y003329D02*
X005704Y002978D01*
X006517Y002978D02*
X006517Y002993D01*
X007329Y003805D01*
X006829Y003892D02*
X006517Y003892D01*
X006517Y003805D01*
X006517Y003892D02*
X006204Y003892D01*
X007329Y002993D02*
X008142Y003805D01*
X008142Y003329D02*
X008142Y002978D01*
X008142Y002954D01*
X007829Y002954D01*
X008142Y002954D02*
X008454Y002954D01*
X007329Y002978D02*
X007329Y002993D01*
X004892Y002978D02*
X004892Y002993D01*
X003829Y008017D02*
X003805Y008017D01*
X003329Y008517D02*
X002978Y008517D01*
D14*
X003329Y008517D03*
X003329Y006079D03*
X003267Y003329D03*
X005704Y003329D03*
X008142Y003329D03*
M02*
