G75*
%MOIN*%
%OFA0B0*%
%FSLAX24Y24*%
%IPPOS*%
%LPD*%
%AMOC8*
5,1,8,0,0,1.08239X$1,22.5*
%
%ADD10C,0.0000*%
%ADD11C,0.0397*%
%ADD12C,0.0317*%
%ADD13C,0.0060*%
D10*
X001267Y002517D02*
X001267Y011017D01*
X007767Y011017D01*
X007767Y002517D01*
X001267Y002517D01*
D11*
X003767Y003829D03*
X004392Y003829D03*
X004954Y004892D03*
X004954Y005517D03*
X004954Y007267D03*
X004954Y007892D03*
X005579Y010579D03*
X006204Y010579D03*
X003454Y010579D03*
X002829Y010579D03*
X005579Y002954D03*
X006204Y002954D03*
D12*
X004454Y006017D03*
X004454Y008392D03*
X004579Y009142D03*
X004079Y010079D03*
X003142Y010079D03*
X003142Y003329D03*
D13*
X005204Y003329D01*
X004767Y003767D01*
X004767Y004017D01*
X004454Y004329D01*
X004454Y006017D01*
X004454Y008392D01*
X004079Y008767D01*
X004079Y010079D01*
X003892Y010392D02*
X004267Y010392D01*
X004579Y010079D01*
X004579Y009142D01*
X003704Y010204D02*
X003892Y010392D01*
X003704Y010204D02*
X003267Y010204D01*
X003142Y010079D01*
X005204Y003329D02*
X005267Y003267D01*
X005579Y002954D01*
M02*
