G75*
%MOIN*%
%OFA0B0*%
%FSLAX24Y24*%
%IPPOS*%
%LPD*%
%AMOC8*
5,1,8,0,0,1.08239X$1,22.5*
%
%ADD10C,0.0000*%
%ADD11R,0.0472X0.0472*%
%ADD12R,0.0472X0.0472*%
D10*
X002392Y002517D02*
X002392Y011017D01*
X008892Y011017D01*
X008892Y002517D01*
X002392Y002517D01*
D11*
X002978Y003392D03*
X003805Y003392D03*
X004517Y003805D03*
X004517Y002978D03*
X005517Y002978D03*
X005517Y003805D03*
X003743Y004454D03*
X002916Y004454D03*
X002916Y005579D03*
X003743Y005579D03*
X003805Y006704D03*
X002978Y006704D03*
X002978Y007829D03*
X003805Y007829D03*
X003805Y008954D03*
X002978Y008954D03*
X002978Y010079D03*
X003805Y010079D03*
X004517Y009728D03*
X004517Y010555D03*
X005517Y010555D03*
X005517Y009728D03*
X007478Y007892D03*
X007478Y007079D03*
X007478Y006267D03*
X007478Y005454D03*
X008305Y005454D03*
X008305Y006267D03*
X008305Y007079D03*
X008305Y007892D03*
D12*
G36*
X007278Y008329D02*
X007079Y008756D01*
X007506Y008955D01*
X007705Y008528D01*
X007278Y008329D01*
G37*
G36*
X007037Y008954D02*
X006704Y009287D01*
X007037Y009620D01*
X007370Y009287D01*
X007037Y008954D01*
G37*
G36*
X006576Y009391D02*
X006121Y009514D01*
X006244Y009969D01*
X006699Y009846D01*
X006576Y009391D01*
G37*
G36*
X006790Y010189D02*
X006335Y010312D01*
X006458Y010767D01*
X006913Y010644D01*
X006790Y010189D01*
G37*
G36*
X007621Y009538D02*
X007288Y009871D01*
X007621Y010204D01*
X007954Y009871D01*
X007621Y009538D01*
G37*
G36*
X008027Y008678D02*
X007828Y009105D01*
X008255Y009304D01*
X008454Y008877D01*
X008027Y008678D01*
G37*
G36*
X007063Y004677D02*
X007262Y005104D01*
X007689Y004905D01*
X007490Y004478D01*
X007063Y004677D01*
G37*
G36*
X006579Y004184D02*
X006912Y004517D01*
X007245Y004184D01*
X006912Y003851D01*
X006579Y004184D01*
G37*
G36*
X006072Y003935D02*
X006499Y004134D01*
X006698Y003707D01*
X006271Y003508D01*
X006072Y003935D01*
G37*
G36*
X006421Y003186D02*
X006848Y003385D01*
X007047Y002958D01*
X006620Y002759D01*
X006421Y003186D01*
G37*
G36*
X007163Y003599D02*
X007496Y003932D01*
X007829Y003599D01*
X007496Y003266D01*
X007163Y003599D01*
G37*
G36*
X007813Y004328D02*
X008012Y004755D01*
X008439Y004556D01*
X008240Y004129D01*
X007813Y004328D01*
G37*
M02*
