G75*
G70*
%OFA0B0*%
%FSLAX24Y24*%
%IPPOS*%
%LPD*%
%AMOC8*
5,1,8,0,0,1.08239X$1,22.5*
%
%ADD10C,0.0000*%
%ADD11C,0.0040*%
%ADD12C,0.0060*%
%ADD13C,0.0070*%
%ADD14C,0.0050*%
%ADD15C,0.0160*%
%ADD16C,0.0059*%
%ADD17C,0.0030*%
%ADD18R,0.0300X0.1500*%
%ADD19C,0.0080*%
%ADD20C,0.0100*%
%ADD21R,0.0750X0.0600*%
%ADD22C,0.0240*%
D10*
X000101Y001310D02*
X000101Y033560D01*
X040101Y033560D01*
X040101Y001310D01*
X000101Y001310D01*
X000971Y002810D02*
X001009Y003025D01*
X001118Y003215D01*
X001286Y003356D01*
X001492Y003430D01*
X001710Y003430D01*
X001916Y003356D01*
X002084Y003215D01*
X002193Y003025D01*
X002231Y002810D01*
X002193Y002595D01*
X002084Y002405D01*
X001916Y002264D01*
X001710Y002190D01*
X001492Y002190D01*
X001286Y002264D01*
X001118Y002405D01*
X001009Y002595D01*
X000971Y002810D01*
X000971Y031810D02*
X001009Y032025D01*
X001118Y032215D01*
X001286Y032356D01*
X001492Y032430D01*
X001710Y032430D01*
X001916Y032356D01*
X002084Y032215D01*
X002193Y032025D01*
X002231Y031810D01*
X002193Y031595D01*
X002084Y031405D01*
X001916Y031264D01*
X001710Y031190D01*
X001492Y031190D01*
X001286Y031264D01*
X001118Y031405D01*
X001009Y031595D01*
X000971Y031810D01*
X037971Y031810D02*
X038009Y032025D01*
X038118Y032215D01*
X038286Y032356D01*
X038492Y032430D01*
X038710Y032430D01*
X038916Y032356D01*
X039084Y032215D01*
X039193Y032025D01*
X039231Y031810D01*
X039193Y031595D01*
X039084Y031405D01*
X038916Y031264D01*
X038710Y031190D01*
X038492Y031190D01*
X038286Y031264D01*
X038118Y031405D01*
X038009Y031595D01*
X037971Y031810D01*
X037971Y002810D02*
X038009Y003025D01*
X038118Y003215D01*
X038286Y003356D01*
X038492Y003430D01*
X038710Y003430D01*
X038916Y003356D01*
X039084Y003215D01*
X039193Y003025D01*
X039231Y002810D01*
X039193Y002595D01*
X039084Y002405D01*
X038916Y002264D01*
X038710Y002190D01*
X038492Y002190D01*
X038286Y002264D01*
X038118Y002405D01*
X038009Y002595D01*
X037971Y002810D01*
D11*
X034090Y003520D02*
X033903Y003520D01*
X033996Y003520D02*
X033996Y003800D01*
X033903Y003707D01*
X032712Y003707D02*
X032712Y003754D01*
X032665Y003800D01*
X032572Y003800D01*
X032525Y003754D01*
X032712Y003707D02*
X032525Y003520D01*
X032712Y003520D01*
X031340Y003520D02*
X031153Y003520D01*
X031246Y003520D02*
X031246Y003800D01*
X031153Y003707D01*
X029962Y003707D02*
X029775Y003520D01*
X029962Y003520D01*
X029962Y003707D02*
X029962Y003754D01*
X029915Y003800D01*
X029822Y003800D01*
X029775Y003754D01*
X028590Y003520D02*
X028403Y003520D01*
X028496Y003520D02*
X028496Y003800D01*
X028403Y003707D01*
X027212Y003707D02*
X027025Y003520D01*
X027212Y003520D01*
X027212Y003707D02*
X027212Y003754D01*
X027165Y003800D01*
X027072Y003800D01*
X027025Y003754D01*
X025840Y003520D02*
X025653Y003520D01*
X025746Y003520D02*
X025746Y003800D01*
X025653Y003707D01*
X024462Y003707D02*
X024462Y003754D01*
X024415Y003800D01*
X024322Y003800D01*
X024275Y003754D01*
X024462Y003707D02*
X024275Y003520D01*
X024462Y003520D01*
X023090Y003520D02*
X022903Y003520D01*
X022996Y003520D02*
X022996Y003800D01*
X022903Y003707D01*
X021712Y003707D02*
X021525Y003520D01*
X021712Y003520D01*
X021712Y003707D02*
X021712Y003754D01*
X021665Y003800D01*
X021572Y003800D01*
X021525Y003754D01*
X020340Y003520D02*
X020153Y003520D01*
X020246Y003520D02*
X020246Y003800D01*
X020153Y003707D01*
X018962Y003707D02*
X018775Y003520D01*
X018962Y003520D01*
X018962Y003707D02*
X018962Y003754D01*
X018915Y003800D01*
X018822Y003800D01*
X018775Y003754D01*
X017590Y003520D02*
X017403Y003520D01*
X017496Y003520D02*
X017496Y003800D01*
X017403Y003707D01*
X016212Y003707D02*
X016212Y003754D01*
X016165Y003800D01*
X016072Y003800D01*
X016025Y003754D01*
X016212Y003707D02*
X016025Y003520D01*
X016212Y003520D01*
X014840Y003520D02*
X014653Y003520D01*
X014746Y003520D02*
X014746Y003800D01*
X014653Y003707D01*
X013462Y003707D02*
X013275Y003520D01*
X013462Y003520D01*
X013462Y003707D02*
X013462Y003754D01*
X013415Y003800D01*
X013322Y003800D01*
X013275Y003754D01*
X020870Y010909D02*
X021331Y010909D01*
X021177Y010909D02*
X020870Y011216D01*
X020947Y011370D02*
X020870Y011447D01*
X020870Y011600D01*
X020947Y011677D01*
X021024Y011677D01*
X021101Y011600D01*
X021177Y011677D01*
X021254Y011677D01*
X021331Y011600D01*
X021331Y011447D01*
X021254Y011370D01*
X021331Y011216D02*
X021101Y010986D01*
X021101Y011523D02*
X021101Y011600D01*
X026370Y011600D02*
X026601Y011370D01*
X026601Y011677D01*
X026831Y011600D02*
X026370Y011600D01*
X026370Y011216D02*
X026677Y010909D01*
X026601Y010986D02*
X026831Y011216D01*
X026831Y010909D02*
X026370Y010909D01*
X021681Y017747D02*
X021604Y017747D01*
X021297Y018054D01*
X021220Y018054D01*
X021220Y017747D01*
X021451Y018207D02*
X021451Y018514D01*
X021681Y018438D02*
X021220Y018438D01*
X021451Y018207D01*
X021220Y018668D02*
X021681Y018668D01*
X021681Y018975D01*
X021604Y019128D02*
X021681Y019205D01*
X021681Y019358D01*
X021604Y019435D01*
X021527Y019435D01*
X021451Y019358D01*
X021451Y019205D01*
X021374Y019128D01*
X021297Y019128D01*
X021220Y019205D01*
X021220Y019358D01*
X021297Y019435D01*
X021297Y019589D02*
X021220Y019665D01*
X021220Y019819D01*
X021297Y019895D01*
X021374Y019895D01*
X021451Y019819D01*
X021527Y019895D01*
X021604Y019895D01*
X021681Y019819D01*
X021681Y019665D01*
X021604Y019589D01*
X021451Y019742D02*
X021451Y019819D01*
X021604Y020049D02*
X021297Y020356D01*
X021220Y020356D01*
X021220Y020049D01*
X021604Y020049D02*
X021681Y020049D01*
X021451Y020509D02*
X021451Y020816D01*
X021681Y020739D02*
X021220Y020739D01*
X021451Y020509D01*
X021681Y020970D02*
X021220Y020970D01*
X021681Y021276D01*
X021220Y021276D01*
X021168Y022730D02*
X021015Y022730D01*
X020938Y022807D01*
X020785Y022807D02*
X020708Y022730D01*
X020554Y022730D01*
X020478Y022807D01*
X020478Y023114D01*
X020554Y023191D01*
X020708Y023191D01*
X020785Y023114D01*
X020938Y023114D02*
X020938Y023037D01*
X021015Y022960D01*
X021245Y022960D01*
X021245Y022807D02*
X021245Y023114D01*
X021168Y023191D01*
X021015Y023191D01*
X020938Y023114D01*
X021245Y022807D02*
X021168Y022730D01*
X020324Y022730D02*
X020171Y022730D01*
X020247Y022730D02*
X020247Y023191D01*
X020171Y023191D02*
X020324Y023191D01*
X015681Y021276D02*
X015220Y021276D01*
X015220Y020970D02*
X015681Y021276D01*
X015681Y020970D02*
X015220Y020970D01*
X015220Y020739D02*
X015451Y020509D01*
X015451Y020816D01*
X015681Y020739D02*
X015220Y020739D01*
X015220Y020356D02*
X015297Y020356D01*
X015604Y020049D01*
X015681Y020049D01*
X015604Y019895D02*
X015681Y019819D01*
X015681Y019665D01*
X015604Y019589D01*
X015604Y019435D02*
X015681Y019358D01*
X015681Y019205D01*
X015604Y019128D01*
X015681Y018975D02*
X015681Y018668D01*
X015220Y018668D01*
X015220Y018438D02*
X015451Y018207D01*
X015451Y018514D01*
X015681Y018438D02*
X015220Y018438D01*
X015220Y018054D02*
X015297Y018054D01*
X015604Y017747D01*
X015681Y017747D01*
X015220Y017747D02*
X015220Y018054D01*
X015297Y019128D02*
X015374Y019128D01*
X015451Y019205D01*
X015451Y019358D01*
X015527Y019435D01*
X015604Y019435D01*
X015297Y019435D02*
X015220Y019358D01*
X015220Y019205D01*
X015297Y019128D01*
X015297Y019589D02*
X015220Y019665D01*
X015220Y019819D01*
X015297Y019895D01*
X015374Y019895D01*
X015451Y019819D01*
X015527Y019895D01*
X015604Y019895D01*
X015451Y019819D02*
X015451Y019742D01*
X015220Y020049D02*
X015220Y020356D01*
X015245Y022730D02*
X014938Y022730D01*
X015245Y023037D01*
X015245Y023114D01*
X015168Y023191D01*
X015015Y023191D01*
X014938Y023114D01*
X014785Y023114D02*
X014708Y023191D01*
X014554Y023191D01*
X014478Y023114D01*
X014478Y022807D01*
X014554Y022730D01*
X014708Y022730D01*
X014785Y022807D01*
X014324Y022730D02*
X014171Y022730D01*
X014247Y022730D02*
X014247Y023191D01*
X014171Y023191D02*
X014324Y023191D01*
X009681Y021276D02*
X009220Y021276D01*
X009220Y020970D02*
X009681Y021276D01*
X009681Y020970D02*
X009220Y020970D01*
X009220Y020739D02*
X009451Y020509D01*
X009451Y020816D01*
X009681Y020739D02*
X009220Y020739D01*
X009220Y020356D02*
X009297Y020356D01*
X009604Y020049D01*
X009681Y020049D01*
X009604Y019895D02*
X009681Y019819D01*
X009681Y019665D01*
X009604Y019589D01*
X009604Y019435D02*
X009681Y019358D01*
X009681Y019205D01*
X009604Y019128D01*
X009681Y018975D02*
X009681Y018668D01*
X009220Y018668D01*
X009220Y018438D02*
X009451Y018207D01*
X009451Y018514D01*
X009681Y018438D02*
X009220Y018438D01*
X009220Y018054D02*
X009297Y018054D01*
X009604Y017747D01*
X009681Y017747D01*
X009220Y017747D02*
X009220Y018054D01*
X009297Y019128D02*
X009374Y019128D01*
X009451Y019205D01*
X009451Y019358D01*
X009527Y019435D01*
X009604Y019435D01*
X009297Y019435D02*
X009220Y019358D01*
X009220Y019205D01*
X009297Y019128D01*
X009297Y019589D02*
X009220Y019665D01*
X009220Y019819D01*
X009297Y019895D01*
X009374Y019895D01*
X009451Y019819D01*
X009527Y019895D01*
X009604Y019895D01*
X009451Y019819D02*
X009451Y019742D01*
X009220Y020049D02*
X009220Y020356D01*
X009245Y022730D02*
X008938Y022730D01*
X009091Y022730D02*
X009091Y023191D01*
X008938Y023037D01*
X008785Y023114D02*
X008708Y023191D01*
X008554Y023191D01*
X008478Y023114D01*
X008478Y022807D01*
X008554Y022730D01*
X008708Y022730D01*
X008785Y022807D01*
X008324Y022730D02*
X008171Y022730D01*
X008247Y022730D02*
X008247Y023191D01*
X008171Y023191D02*
X008324Y023191D01*
X008340Y033020D02*
X008153Y033020D01*
X008246Y033020D02*
X008246Y033300D01*
X008153Y033207D01*
X006962Y033207D02*
X006962Y033254D01*
X006915Y033300D01*
X006822Y033300D01*
X006775Y033254D01*
X006962Y033207D02*
X006775Y033020D01*
X006962Y033020D01*
X005590Y033020D02*
X005403Y033020D01*
X005496Y033020D02*
X005496Y033300D01*
X005403Y033207D01*
X004212Y033207D02*
X004212Y033254D01*
X004165Y033300D01*
X004072Y033300D01*
X004025Y033254D01*
X004212Y033207D02*
X004025Y033020D01*
X004212Y033020D01*
X009525Y033020D02*
X009712Y033207D01*
X009712Y033254D01*
X009665Y033300D01*
X009572Y033300D01*
X009525Y033254D01*
X009525Y033020D02*
X009712Y033020D01*
X010903Y033020D02*
X011090Y033020D01*
X010996Y033020D02*
X010996Y033300D01*
X010903Y033207D01*
X012275Y033254D02*
X012322Y033300D01*
X012415Y033300D01*
X012462Y033254D01*
X012462Y033207D01*
X012275Y033020D01*
X012462Y033020D01*
X013653Y033020D02*
X013840Y033020D01*
X013746Y033020D02*
X013746Y033300D01*
X013653Y033207D01*
X015025Y033254D02*
X015072Y033300D01*
X015165Y033300D01*
X015212Y033254D01*
X015212Y033207D01*
X015025Y033020D01*
X015212Y033020D01*
X016403Y033020D02*
X016590Y033020D01*
X016496Y033020D02*
X016496Y033300D01*
X016403Y033207D01*
X017775Y033254D02*
X017822Y033300D01*
X017915Y033300D01*
X017962Y033254D01*
X017962Y033207D01*
X017775Y033020D01*
X017962Y033020D01*
X019153Y033020D02*
X019340Y033020D01*
X019246Y033020D02*
X019246Y033300D01*
X019153Y033207D01*
X020525Y033254D02*
X020572Y033300D01*
X020665Y033300D01*
X020712Y033254D01*
X020712Y033207D01*
X020525Y033020D01*
X020712Y033020D01*
X021903Y033020D02*
X022090Y033020D01*
X021996Y033020D02*
X021996Y033300D01*
X021903Y033207D01*
X023275Y033254D02*
X023322Y033300D01*
X023415Y033300D01*
X023462Y033254D01*
X023462Y033207D01*
X023275Y033020D01*
X023462Y033020D01*
X024653Y033020D02*
X024840Y033020D01*
X024746Y033020D02*
X024746Y033300D01*
X024653Y033207D01*
X026025Y033254D02*
X026072Y033300D01*
X026165Y033300D01*
X026212Y033254D01*
X026212Y033207D01*
X026025Y033020D01*
X026212Y033020D01*
X027403Y033020D02*
X027590Y033020D01*
X027496Y033020D02*
X027496Y033300D01*
X027403Y033207D01*
X028775Y033254D02*
X028822Y033300D01*
X028915Y033300D01*
X028962Y033254D01*
X028962Y033207D01*
X028775Y033020D01*
X028962Y033020D01*
X030153Y033020D02*
X030340Y033020D01*
X030246Y033020D02*
X030246Y033300D01*
X030153Y033207D01*
X031525Y033254D02*
X031572Y033300D01*
X031665Y033300D01*
X031712Y033254D01*
X031712Y033207D01*
X031525Y033020D01*
X031712Y033020D01*
X032903Y033020D02*
X033090Y033020D01*
X032996Y033020D02*
X032996Y033300D01*
X032903Y033207D01*
X034275Y033254D02*
X034322Y033300D01*
X034415Y033300D01*
X034462Y033254D01*
X034462Y033207D01*
X034275Y033020D01*
X034462Y033020D01*
X035653Y033020D02*
X035840Y033020D01*
X035746Y033020D02*
X035746Y033300D01*
X035653Y033207D01*
X039560Y029272D02*
X039560Y029178D01*
X039607Y029131D01*
X039560Y029272D02*
X039607Y029318D01*
X039654Y029318D01*
X039841Y029131D01*
X039841Y029318D01*
X039841Y027940D02*
X039841Y027753D01*
X039841Y027847D02*
X039560Y027847D01*
X039654Y027753D01*
X037891Y023799D02*
X037891Y023612D01*
X037891Y023706D02*
X037611Y023706D01*
X037704Y023612D01*
X037704Y022421D02*
X037657Y022421D01*
X037611Y022375D01*
X037611Y022281D01*
X037657Y022234D01*
X037704Y022421D02*
X037891Y022234D01*
X037891Y022421D01*
X037891Y021049D02*
X037891Y020862D01*
X037891Y020956D02*
X037611Y020956D01*
X037704Y020862D01*
X037704Y019671D02*
X037657Y019671D01*
X037611Y019625D01*
X037611Y019531D01*
X037657Y019484D01*
X037704Y019671D02*
X037891Y019484D01*
X037891Y019671D01*
X037891Y018299D02*
X037891Y018112D01*
X037891Y018206D02*
X037611Y018206D01*
X037704Y018112D01*
X037704Y016921D02*
X037657Y016921D01*
X037611Y016875D01*
X037611Y016781D01*
X037657Y016734D01*
X037704Y016921D02*
X037891Y016734D01*
X037891Y016921D01*
X037891Y015549D02*
X037891Y015362D01*
X037891Y015456D02*
X037611Y015456D01*
X037704Y015362D01*
X037704Y014171D02*
X037657Y014171D01*
X037611Y014125D01*
X037611Y014031D01*
X037657Y013984D01*
X037704Y014171D02*
X037891Y013984D01*
X037891Y014171D01*
X033181Y018208D02*
X033104Y018208D01*
X032797Y018514D01*
X032720Y018514D01*
X032720Y018208D01*
X032951Y018668D02*
X032951Y018975D01*
X032874Y019128D02*
X032951Y019205D01*
X032951Y019358D01*
X033027Y019435D01*
X033104Y019435D01*
X033181Y019358D01*
X033181Y019205D01*
X033104Y019128D01*
X032874Y019128D02*
X032797Y019128D01*
X032720Y019205D01*
X032720Y019358D01*
X032797Y019435D01*
X032797Y019589D02*
X032720Y019665D01*
X032720Y019819D01*
X032797Y019895D01*
X032874Y019895D01*
X033181Y019589D01*
X033181Y019895D01*
X032951Y020049D02*
X032951Y020356D01*
X032951Y020509D02*
X032951Y020816D01*
X033181Y020739D02*
X032720Y020739D01*
X032951Y020509D01*
X033181Y020279D02*
X032720Y020279D01*
X032951Y020049D01*
X033181Y020970D02*
X032720Y020970D01*
X033181Y021277D01*
X032720Y021277D01*
X032668Y022730D02*
X032515Y022730D01*
X032438Y022807D01*
X032438Y022960D02*
X032591Y023037D01*
X032668Y023037D01*
X032745Y022960D01*
X032745Y022807D01*
X032668Y022730D01*
X032438Y022960D02*
X032438Y023191D01*
X032745Y023191D01*
X032285Y023114D02*
X032208Y023191D01*
X032054Y023191D01*
X031978Y023114D01*
X031978Y022807D01*
X032054Y022730D01*
X032208Y022730D01*
X032285Y022807D01*
X031824Y022730D02*
X031671Y022730D01*
X031747Y022730D02*
X031747Y023191D01*
X031671Y023191D02*
X031824Y023191D01*
X027681Y021277D02*
X027220Y021277D01*
X027220Y020970D02*
X027681Y021277D01*
X027681Y020970D02*
X027220Y020970D01*
X027220Y020739D02*
X027451Y020509D01*
X027451Y020816D01*
X027681Y020739D02*
X027220Y020739D01*
X027451Y020356D02*
X027451Y020049D01*
X027220Y020279D01*
X027681Y020279D01*
X027681Y019895D02*
X027681Y019589D01*
X027374Y019895D01*
X027297Y019895D01*
X027220Y019819D01*
X027220Y019665D01*
X027297Y019589D01*
X027297Y019435D02*
X027220Y019358D01*
X027220Y019205D01*
X027297Y019128D01*
X027374Y019128D01*
X027451Y019205D01*
X027451Y019358D01*
X027527Y019435D01*
X027604Y019435D01*
X027681Y019358D01*
X027681Y019205D01*
X027604Y019128D01*
X027451Y018975D02*
X027451Y018668D01*
X027220Y018898D01*
X027681Y018898D01*
X027297Y018514D02*
X027220Y018514D01*
X027220Y018208D01*
X027297Y018514D02*
X027604Y018208D01*
X027681Y018208D01*
X027168Y022730D02*
X027245Y022807D01*
X027245Y022884D01*
X027168Y022960D01*
X026938Y022960D01*
X026938Y022807D01*
X027015Y022730D01*
X027168Y022730D01*
X026938Y022960D02*
X027091Y023114D01*
X027245Y023191D01*
X026785Y023114D02*
X026708Y023191D01*
X026554Y023191D01*
X026478Y023114D01*
X026478Y022807D01*
X026554Y022730D01*
X026708Y022730D01*
X026785Y022807D01*
X026324Y022730D02*
X026171Y022730D01*
X026247Y022730D02*
X026247Y023191D01*
X026171Y023191D02*
X026324Y023191D01*
X032720Y018898D02*
X032951Y018668D01*
X033181Y018898D02*
X032720Y018898D01*
D12*
X036101Y018310D02*
X036139Y018501D01*
X036247Y018664D01*
X036410Y018772D01*
X036601Y018810D01*
X036792Y018772D01*
X036955Y018664D01*
X037063Y018501D01*
X037101Y018310D01*
X037063Y018119D01*
X036955Y017956D01*
X036792Y017848D01*
X036601Y017810D01*
X036410Y017848D01*
X036247Y017956D01*
X036139Y018119D01*
X036101Y018310D01*
X036101Y017060D02*
X036139Y017251D01*
X036247Y017414D01*
X036410Y017522D01*
X036601Y017560D01*
X036792Y017522D01*
X036955Y017414D01*
X037063Y017251D01*
X037101Y017060D01*
X037063Y016869D01*
X036955Y016706D01*
X036792Y016598D01*
X036601Y016560D01*
X036410Y016598D01*
X036247Y016706D01*
X036139Y016869D01*
X036101Y017060D01*
X036101Y015560D02*
X036139Y015751D01*
X036247Y015914D01*
X036410Y016022D01*
X036601Y016060D01*
X036792Y016022D01*
X036955Y015914D01*
X037063Y015751D01*
X037101Y015560D01*
X037063Y015369D01*
X036955Y015206D01*
X036792Y015098D01*
X036601Y015060D01*
X036410Y015098D01*
X036247Y015206D01*
X036139Y015369D01*
X036101Y015560D01*
X036101Y014310D02*
X036139Y014501D01*
X036247Y014664D01*
X036410Y014772D01*
X036601Y014810D01*
X036792Y014772D01*
X036955Y014664D01*
X037063Y014501D01*
X037101Y014310D01*
X037063Y014119D01*
X036955Y013956D01*
X036792Y013848D01*
X036601Y013810D01*
X036410Y013848D01*
X036247Y013956D01*
X036139Y014119D01*
X036101Y014310D01*
X033751Y012560D02*
X031951Y012560D01*
X031951Y022560D01*
X032451Y022560D01*
X032453Y022521D01*
X032459Y022482D01*
X032468Y022444D01*
X032481Y022407D01*
X032498Y022371D01*
X032518Y022338D01*
X032542Y022306D01*
X032568Y022277D01*
X032597Y022251D01*
X032629Y022227D01*
X032662Y022207D01*
X032698Y022190D01*
X032735Y022177D01*
X032773Y022168D01*
X032812Y022162D01*
X032851Y022160D01*
X032890Y022162D01*
X032929Y022168D01*
X032967Y022177D01*
X033004Y022190D01*
X033040Y022207D01*
X033073Y022227D01*
X033105Y022251D01*
X033134Y022277D01*
X033160Y022306D01*
X033184Y022338D01*
X033204Y022371D01*
X033221Y022407D01*
X033234Y022444D01*
X033243Y022482D01*
X033249Y022521D01*
X033251Y022560D01*
X033751Y022560D01*
X033751Y012560D01*
X032601Y009810D02*
X032639Y010001D01*
X032747Y010164D01*
X032910Y010272D01*
X033101Y010310D01*
X033292Y010272D01*
X033455Y010164D01*
X033563Y010001D01*
X033601Y009810D01*
X033563Y009619D01*
X033455Y009456D01*
X033292Y009348D01*
X033101Y009310D01*
X032910Y009348D01*
X032747Y009456D01*
X032639Y009619D01*
X032601Y009810D01*
X031601Y009810D02*
X031639Y010001D01*
X031747Y010164D01*
X031910Y010272D01*
X032101Y010310D01*
X032292Y010272D01*
X032455Y010164D01*
X032563Y010001D01*
X032601Y009810D01*
X032563Y009619D01*
X032455Y009456D01*
X032292Y009348D01*
X032101Y009310D01*
X031910Y009348D01*
X031747Y009456D01*
X031639Y009619D01*
X031601Y009810D01*
X030601Y009810D02*
X030639Y010001D01*
X030747Y010164D01*
X030910Y010272D01*
X031101Y010310D01*
X031292Y010272D01*
X031455Y010164D01*
X031563Y010001D01*
X031601Y009810D01*
X031563Y009619D01*
X031455Y009456D01*
X031292Y009348D01*
X031101Y009310D01*
X030910Y009348D01*
X030747Y009456D01*
X030639Y009619D01*
X030601Y009810D01*
X029601Y009810D02*
X029639Y010001D01*
X029747Y010164D01*
X029910Y010272D01*
X030101Y010310D01*
X030292Y010272D01*
X030455Y010164D01*
X030563Y010001D01*
X030601Y009810D01*
X030563Y009619D01*
X030455Y009456D01*
X030292Y009348D01*
X030101Y009310D01*
X029910Y009348D01*
X029747Y009456D01*
X029639Y009619D01*
X029601Y009810D01*
X029601Y009110D02*
X030851Y009110D01*
X030851Y008860D01*
X032351Y008860D01*
X032351Y009110D01*
X030851Y009110D01*
X030851Y008610D02*
X030851Y008010D01*
X032351Y008010D01*
X032351Y008610D01*
X030851Y008610D01*
X030851Y007610D02*
X030851Y007010D01*
X032351Y007010D01*
X032351Y007610D01*
X030851Y007610D01*
X030851Y006610D02*
X030851Y006010D01*
X032351Y006010D01*
X032351Y006610D01*
X030851Y006610D01*
X030851Y005610D02*
X030851Y005010D01*
X032351Y005010D01*
X032351Y005610D01*
X030851Y005610D01*
X029601Y004810D02*
X029601Y004510D01*
X033601Y004510D01*
X033601Y004810D01*
X035351Y004810D02*
X035351Y004510D01*
X039351Y004510D01*
X039351Y004810D01*
X038101Y005010D02*
X036601Y005010D01*
X036601Y005610D01*
X038101Y005610D01*
X038101Y005010D01*
X038101Y006010D02*
X036601Y006010D01*
X036601Y006610D01*
X038101Y006610D01*
X038101Y006010D01*
X038101Y007010D02*
X036601Y007010D01*
X036601Y007610D01*
X038101Y007610D01*
X038101Y007010D01*
X038101Y008010D02*
X036601Y008010D01*
X036601Y008610D01*
X038101Y008610D01*
X038101Y008010D01*
X038101Y008860D02*
X036601Y008860D01*
X036601Y009110D01*
X035351Y009110D01*
X035351Y008810D01*
X035351Y009810D02*
X035389Y010001D01*
X035497Y010164D01*
X035660Y010272D01*
X035851Y010310D01*
X036042Y010272D01*
X036205Y010164D01*
X036313Y010001D01*
X036351Y009810D01*
X036313Y009619D01*
X036205Y009456D01*
X036042Y009348D01*
X035851Y009310D01*
X035660Y009348D01*
X035497Y009456D01*
X035389Y009619D01*
X035351Y009810D01*
X036601Y009110D02*
X038101Y009110D01*
X038101Y008860D01*
X038101Y009110D02*
X039351Y009110D01*
X039351Y008810D01*
X038351Y009810D02*
X038389Y010001D01*
X038497Y010164D01*
X038660Y010272D01*
X038851Y010310D01*
X039042Y010272D01*
X039205Y010164D01*
X039313Y010001D01*
X039351Y009810D01*
X039313Y009619D01*
X039205Y009456D01*
X039042Y009348D01*
X038851Y009310D01*
X038660Y009348D01*
X038497Y009456D01*
X038389Y009619D01*
X038351Y009810D01*
X037351Y009810D02*
X037389Y010001D01*
X037497Y010164D01*
X037660Y010272D01*
X037851Y010310D01*
X038042Y010272D01*
X038205Y010164D01*
X038313Y010001D01*
X038351Y009810D01*
X038313Y009619D01*
X038205Y009456D01*
X038042Y009348D01*
X037851Y009310D01*
X037660Y009348D01*
X037497Y009456D01*
X037389Y009619D01*
X037351Y009810D01*
X036351Y009810D02*
X036389Y010001D01*
X036497Y010164D01*
X036660Y010272D01*
X036851Y010310D01*
X037042Y010272D01*
X037205Y010164D01*
X037313Y010001D01*
X037351Y009810D01*
X037313Y009619D01*
X037205Y009456D01*
X037042Y009348D01*
X036851Y009310D01*
X036660Y009348D01*
X036497Y009456D01*
X036389Y009619D01*
X036351Y009810D01*
X033601Y009110D02*
X033601Y008810D01*
X033601Y009110D02*
X032351Y009110D01*
X029601Y009110D02*
X029601Y008810D01*
X029101Y008310D02*
X029101Y007810D01*
X028851Y007560D01*
X028351Y007560D01*
X028101Y007810D01*
X028101Y008310D01*
X028351Y008560D01*
X028851Y008560D01*
X029101Y008310D01*
X028851Y007560D02*
X028351Y007560D01*
X028101Y007310D01*
X028101Y006810D01*
X028351Y006560D01*
X028101Y006310D01*
X028101Y005810D01*
X028351Y005560D01*
X028851Y005560D01*
X029101Y005810D01*
X029101Y006310D01*
X028851Y006560D01*
X028351Y006560D01*
X028851Y006560D01*
X029101Y006810D01*
X029101Y007310D01*
X028851Y007560D01*
X028851Y005560D02*
X028351Y005560D01*
X028101Y005310D01*
X028101Y004810D01*
X028351Y004560D01*
X028851Y004560D01*
X029101Y004810D01*
X029101Y005310D01*
X028851Y005560D01*
X023601Y005310D02*
X023601Y004810D01*
X023351Y004560D01*
X022851Y004560D01*
X022601Y004810D01*
X022601Y005310D01*
X022851Y005560D01*
X022601Y005810D01*
X022601Y006310D01*
X022851Y006560D01*
X023351Y006560D01*
X023601Y006310D01*
X023601Y005810D01*
X023351Y005560D01*
X022851Y005560D01*
X023351Y005560D01*
X023601Y005310D01*
X023351Y006560D02*
X022851Y006560D01*
X022601Y006810D01*
X022601Y007310D01*
X022851Y007560D01*
X023351Y007560D01*
X023601Y007810D01*
X023601Y008310D01*
X023351Y008560D01*
X022851Y008560D01*
X022601Y008310D01*
X022601Y007810D01*
X022851Y007560D01*
X023351Y007560D01*
X023601Y007310D01*
X023601Y006810D01*
X023351Y006560D01*
X022251Y012560D02*
X020451Y012560D01*
X020451Y022560D01*
X020951Y022560D01*
X020953Y022521D01*
X020959Y022482D01*
X020968Y022444D01*
X020981Y022407D01*
X020998Y022371D01*
X021018Y022338D01*
X021042Y022306D01*
X021068Y022277D01*
X021097Y022251D01*
X021129Y022227D01*
X021162Y022207D01*
X021198Y022190D01*
X021235Y022177D01*
X021273Y022168D01*
X021312Y022162D01*
X021351Y022160D01*
X021390Y022162D01*
X021429Y022168D01*
X021467Y022177D01*
X021504Y022190D01*
X021540Y022207D01*
X021573Y022227D01*
X021605Y022251D01*
X021634Y022277D01*
X021660Y022306D01*
X021684Y022338D01*
X021704Y022371D01*
X021721Y022407D01*
X021734Y022444D01*
X021743Y022482D01*
X021749Y022521D01*
X021751Y022560D01*
X022251Y022560D01*
X022251Y012560D01*
X026451Y012560D02*
X028251Y012560D01*
X028251Y022560D01*
X027751Y022560D01*
X027749Y022521D01*
X027743Y022482D01*
X027734Y022444D01*
X027721Y022407D01*
X027704Y022371D01*
X027684Y022338D01*
X027660Y022306D01*
X027634Y022277D01*
X027605Y022251D01*
X027573Y022227D01*
X027540Y022207D01*
X027504Y022190D01*
X027467Y022177D01*
X027429Y022168D01*
X027390Y022162D01*
X027351Y022160D01*
X027312Y022162D01*
X027273Y022168D01*
X027235Y022177D01*
X027198Y022190D01*
X027162Y022207D01*
X027129Y022227D01*
X027097Y022251D01*
X027068Y022277D01*
X027042Y022306D01*
X027018Y022338D01*
X026998Y022371D01*
X026981Y022407D01*
X026968Y022444D01*
X026959Y022482D01*
X026953Y022521D01*
X026951Y022560D01*
X026451Y022560D01*
X026451Y012560D01*
X016251Y012560D02*
X014451Y012560D01*
X014451Y022560D01*
X014951Y022560D01*
X014953Y022521D01*
X014959Y022482D01*
X014968Y022444D01*
X014981Y022407D01*
X014998Y022371D01*
X015018Y022338D01*
X015042Y022306D01*
X015068Y022277D01*
X015097Y022251D01*
X015129Y022227D01*
X015162Y022207D01*
X015198Y022190D01*
X015235Y022177D01*
X015273Y022168D01*
X015312Y022162D01*
X015351Y022160D01*
X015390Y022162D01*
X015429Y022168D01*
X015467Y022177D01*
X015504Y022190D01*
X015540Y022207D01*
X015573Y022227D01*
X015605Y022251D01*
X015634Y022277D01*
X015660Y022306D01*
X015684Y022338D01*
X015704Y022371D01*
X015721Y022407D01*
X015734Y022444D01*
X015743Y022482D01*
X015749Y022521D01*
X015751Y022560D01*
X016251Y022560D01*
X016251Y012560D01*
X016251Y011560D02*
X015751Y011560D01*
X015749Y011521D01*
X015743Y011482D01*
X015734Y011444D01*
X015721Y011407D01*
X015704Y011371D01*
X015684Y011338D01*
X015660Y011306D01*
X015634Y011277D01*
X015605Y011251D01*
X015573Y011227D01*
X015540Y011207D01*
X015504Y011190D01*
X015467Y011177D01*
X015429Y011168D01*
X015390Y011162D01*
X015351Y011160D01*
X015312Y011162D01*
X015273Y011168D01*
X015235Y011177D01*
X015198Y011190D01*
X015162Y011207D01*
X015129Y011227D01*
X015097Y011251D01*
X015068Y011277D01*
X015042Y011306D01*
X015018Y011338D01*
X014998Y011371D01*
X014981Y011407D01*
X014968Y011444D01*
X014959Y011482D01*
X014953Y011521D01*
X014951Y011560D01*
X014451Y011560D01*
X014451Y008560D01*
X016251Y008560D01*
X016251Y011560D01*
X011601Y010060D02*
X011639Y010251D01*
X011747Y010414D01*
X011910Y010522D01*
X012101Y010560D01*
X012292Y010522D01*
X012455Y010414D01*
X012563Y010251D01*
X012601Y010060D01*
X012563Y009869D01*
X012455Y009706D01*
X012292Y009598D01*
X012101Y009560D01*
X011910Y009598D01*
X011747Y009706D01*
X011639Y009869D01*
X011601Y010060D01*
X009351Y011060D02*
X009389Y011251D01*
X009497Y011414D01*
X009660Y011522D01*
X009851Y011560D01*
X010042Y011522D01*
X010205Y011414D01*
X010313Y011251D01*
X010351Y011060D01*
X010313Y010869D01*
X010205Y010706D01*
X010042Y010598D01*
X009851Y010560D01*
X009660Y010598D01*
X009497Y010706D01*
X009389Y010869D01*
X009351Y011060D01*
X006851Y010560D02*
X006888Y010830D01*
X006997Y011080D01*
X007168Y011291D01*
X007391Y011448D01*
X007648Y011539D01*
X007919Y011558D01*
X008186Y011502D01*
X008428Y011377D01*
X008627Y011191D01*
X008768Y010958D01*
X008842Y010696D01*
X008842Y010424D01*
X008768Y010162D01*
X008627Y009929D01*
X008428Y009743D01*
X008186Y009618D01*
X007919Y009562D01*
X007648Y009581D01*
X007391Y009672D01*
X007168Y009829D01*
X006997Y010040D01*
X006888Y010290D01*
X006851Y010560D01*
X008451Y012560D02*
X010251Y012560D01*
X010251Y022560D01*
X009751Y022560D01*
X009749Y022521D01*
X009743Y022482D01*
X009734Y022444D01*
X009721Y022407D01*
X009704Y022371D01*
X009684Y022338D01*
X009660Y022306D01*
X009634Y022277D01*
X009605Y022251D01*
X009573Y022227D01*
X009540Y022207D01*
X009504Y022190D01*
X009467Y022177D01*
X009429Y022168D01*
X009390Y022162D01*
X009351Y022160D01*
X009312Y022162D01*
X009273Y022168D01*
X009235Y022177D01*
X009198Y022190D01*
X009162Y022207D01*
X009129Y022227D01*
X009097Y022251D01*
X009068Y022277D01*
X009042Y022306D01*
X009018Y022338D01*
X008998Y022371D01*
X008981Y022407D01*
X008968Y022444D01*
X008959Y022482D01*
X008953Y022521D01*
X008951Y022560D01*
X008451Y022560D01*
X008451Y012560D01*
X004251Y013560D02*
X003751Y013560D01*
X003749Y013521D01*
X003743Y013482D01*
X003734Y013444D01*
X003721Y013407D01*
X003704Y013371D01*
X003684Y013338D01*
X003660Y013306D01*
X003634Y013277D01*
X003605Y013251D01*
X003573Y013227D01*
X003540Y013207D01*
X003504Y013190D01*
X003467Y013177D01*
X003429Y013168D01*
X003390Y013162D01*
X003351Y013160D01*
X003312Y013162D01*
X003273Y013168D01*
X003235Y013177D01*
X003198Y013190D01*
X003162Y013207D01*
X003129Y013227D01*
X003097Y013251D01*
X003068Y013277D01*
X003042Y013306D01*
X003018Y013338D01*
X002998Y013371D01*
X002981Y013407D01*
X002968Y013444D01*
X002959Y013482D01*
X002953Y013521D01*
X002951Y013560D01*
X002451Y013560D01*
X002451Y005560D01*
X004251Y005560D01*
X004251Y013560D01*
X004226Y014560D02*
X004226Y023560D01*
X003601Y023560D01*
X003599Y023530D01*
X003594Y023500D01*
X003585Y023471D01*
X003572Y023444D01*
X003557Y023418D01*
X003538Y023394D01*
X003517Y023373D01*
X003493Y023354D01*
X003467Y023339D01*
X003440Y023326D01*
X003411Y023317D01*
X003381Y023312D01*
X003351Y023310D01*
X003321Y023312D01*
X003291Y023317D01*
X003262Y023326D01*
X003235Y023339D01*
X003209Y023354D01*
X003185Y023373D01*
X003164Y023394D01*
X003145Y023418D01*
X003130Y023444D01*
X003117Y023471D01*
X003108Y023500D01*
X003103Y023530D01*
X003101Y023560D01*
X002476Y023560D01*
X002476Y014560D01*
X004226Y014560D01*
X009351Y008560D02*
X009389Y008751D01*
X009497Y008914D01*
X009660Y009022D01*
X009851Y009060D01*
X010042Y009022D01*
X010205Y008914D01*
X010313Y008751D01*
X010351Y008560D01*
X010313Y008369D01*
X010205Y008206D01*
X010042Y008098D01*
X009851Y008060D01*
X009660Y008098D01*
X009497Y008206D01*
X009389Y008369D01*
X009351Y008560D01*
X006851Y008060D02*
X006888Y008330D01*
X006997Y008580D01*
X007168Y008791D01*
X007391Y008948D01*
X007648Y009039D01*
X007919Y009058D01*
X008186Y009002D01*
X008428Y008877D01*
X008627Y008691D01*
X008768Y008458D01*
X008842Y008196D01*
X008842Y007924D01*
X008768Y007662D01*
X008627Y007429D01*
X008428Y007243D01*
X008186Y007118D01*
X007919Y007062D01*
X007648Y007081D01*
X007391Y007172D01*
X007168Y007329D01*
X006997Y007540D01*
X006888Y007790D01*
X006851Y008060D01*
X006851Y005560D02*
X006888Y005830D01*
X006997Y006080D01*
X007168Y006291D01*
X007391Y006448D01*
X007648Y006539D01*
X007919Y006558D01*
X008186Y006502D01*
X008428Y006377D01*
X008627Y006191D01*
X008768Y005958D01*
X008842Y005696D01*
X008842Y005424D01*
X008768Y005162D01*
X008627Y004929D01*
X008428Y004743D01*
X008186Y004618D01*
X007919Y004562D01*
X007648Y004581D01*
X007391Y004672D01*
X007168Y004829D01*
X006997Y005040D01*
X006888Y005290D01*
X006851Y005560D01*
X007601Y004360D02*
X007601Y003660D01*
X007601Y001960D01*
X007601Y001410D01*
X003601Y001410D01*
X003601Y001960D01*
X003601Y003660D01*
X007601Y003660D01*
X007601Y004360D02*
X003601Y004360D01*
X003601Y004010D01*
X003601Y003660D01*
X003401Y003610D01*
X003401Y004060D01*
X003601Y004010D01*
X004411Y004010D02*
X004443Y004118D01*
X004528Y004192D01*
X004639Y004208D01*
X004742Y004161D01*
X004803Y004066D01*
X004803Y003954D01*
X004742Y003859D01*
X004639Y003812D01*
X004528Y003828D01*
X004443Y003902D01*
X004411Y004010D01*
X006391Y004010D02*
X006423Y004118D01*
X006508Y004192D01*
X006619Y004208D01*
X006722Y004161D01*
X006783Y004066D01*
X006783Y003954D01*
X006722Y003859D01*
X006619Y003812D01*
X006508Y003828D01*
X006423Y003902D01*
X006391Y004010D01*
X007601Y001960D02*
X003601Y001960D01*
X008351Y002810D02*
X008389Y003001D01*
X008497Y003164D01*
X008660Y003272D01*
X008851Y003310D01*
X009042Y003272D01*
X009205Y003164D01*
X009313Y003001D01*
X009351Y002810D01*
X009313Y002619D01*
X009205Y002456D01*
X009042Y002348D01*
X008851Y002310D01*
X008660Y002348D01*
X008497Y002456D01*
X008389Y002619D01*
X008351Y002810D01*
X009851Y003310D02*
X009888Y003580D01*
X009997Y003830D01*
X010168Y004041D01*
X010391Y004198D01*
X010648Y004289D01*
X010919Y004308D01*
X011186Y004252D01*
X011428Y004127D01*
X011627Y003941D01*
X011768Y003708D01*
X011842Y003446D01*
X011842Y003174D01*
X011768Y002912D01*
X011627Y002679D01*
X011428Y002493D01*
X011186Y002368D01*
X010919Y002312D01*
X010648Y002331D01*
X010391Y002422D01*
X010168Y002579D01*
X009997Y002790D01*
X009888Y003040D01*
X009851Y003310D01*
X009351Y006060D02*
X009389Y006251D01*
X009497Y006414D01*
X009660Y006522D01*
X009851Y006560D01*
X010042Y006522D01*
X010205Y006414D01*
X010313Y006251D01*
X010351Y006060D01*
X010313Y005869D01*
X010205Y005706D01*
X010042Y005598D01*
X009851Y005560D01*
X009660Y005598D01*
X009497Y005706D01*
X009389Y005869D01*
X009351Y006060D01*
X011601Y006060D02*
X011639Y006251D01*
X011747Y006414D01*
X011910Y006522D01*
X012101Y006560D01*
X012292Y006522D01*
X012455Y006414D01*
X012563Y006251D01*
X012601Y006060D01*
X012563Y005869D01*
X012455Y005706D01*
X012292Y005598D01*
X012101Y005560D01*
X011910Y005598D01*
X011747Y005706D01*
X011639Y005869D01*
X011601Y006060D01*
X014451Y004560D02*
X016251Y004560D01*
X016251Y007560D01*
X015751Y007560D01*
X015749Y007521D01*
X015743Y007482D01*
X015734Y007444D01*
X015721Y007407D01*
X015704Y007371D01*
X015684Y007338D01*
X015660Y007306D01*
X015634Y007277D01*
X015605Y007251D01*
X015573Y007227D01*
X015540Y007207D01*
X015504Y007190D01*
X015467Y007177D01*
X015429Y007168D01*
X015390Y007162D01*
X015351Y007160D01*
X015312Y007162D01*
X015273Y007168D01*
X015235Y007177D01*
X015198Y007190D01*
X015162Y007207D01*
X015129Y007227D01*
X015097Y007251D01*
X015068Y007277D01*
X015042Y007306D01*
X015018Y007338D01*
X014998Y007371D01*
X014981Y007407D01*
X014968Y007444D01*
X014959Y007482D01*
X014953Y007521D01*
X014951Y007560D01*
X014451Y007560D01*
X014451Y004560D01*
X036101Y019810D02*
X036139Y020001D01*
X036247Y020164D01*
X036410Y020272D01*
X036601Y020310D01*
X036792Y020272D01*
X036955Y020164D01*
X037063Y020001D01*
X037101Y019810D01*
X037063Y019619D01*
X036955Y019456D01*
X036792Y019348D01*
X036601Y019310D01*
X036410Y019348D01*
X036247Y019456D01*
X036139Y019619D01*
X036101Y019810D01*
X036101Y021060D02*
X036139Y021251D01*
X036247Y021414D01*
X036410Y021522D01*
X036601Y021560D01*
X036792Y021522D01*
X036955Y021414D01*
X037063Y021251D01*
X037101Y021060D01*
X037063Y020869D01*
X036955Y020706D01*
X036792Y020598D01*
X036601Y020560D01*
X036410Y020598D01*
X036247Y020706D01*
X036139Y020869D01*
X036101Y021060D01*
X036101Y022560D02*
X036139Y022751D01*
X036247Y022914D01*
X036410Y023022D01*
X036601Y023060D01*
X036792Y023022D01*
X036955Y022914D01*
X037063Y022751D01*
X037101Y022560D01*
X037063Y022369D01*
X036955Y022206D01*
X036792Y022098D01*
X036601Y022060D01*
X036410Y022098D01*
X036247Y022206D01*
X036139Y022369D01*
X036101Y022560D01*
X036101Y023810D02*
X036139Y024001D01*
X036247Y024164D01*
X036410Y024272D01*
X036601Y024310D01*
X036792Y024272D01*
X036955Y024164D01*
X037063Y024001D01*
X037101Y023810D01*
X037063Y023619D01*
X036955Y023456D01*
X036792Y023348D01*
X036601Y023310D01*
X036410Y023348D01*
X036247Y023456D01*
X036139Y023619D01*
X036101Y023810D01*
X035101Y025160D02*
X035101Y027460D01*
X026101Y027460D01*
X026101Y026710D01*
X026140Y026708D01*
X026179Y026702D01*
X026217Y026693D01*
X026254Y026680D01*
X026290Y026663D01*
X026323Y026643D01*
X026355Y026619D01*
X026384Y026593D01*
X026410Y026564D01*
X026434Y026532D01*
X026454Y026499D01*
X026471Y026463D01*
X026484Y026426D01*
X026493Y026388D01*
X026499Y026349D01*
X026501Y026310D01*
X026499Y026271D01*
X026493Y026232D01*
X026484Y026194D01*
X026471Y026157D01*
X026454Y026121D01*
X026434Y026088D01*
X026410Y026056D01*
X026384Y026027D01*
X026355Y026001D01*
X026323Y025977D01*
X026290Y025957D01*
X026254Y025940D01*
X026217Y025927D01*
X026179Y025918D01*
X026140Y025912D01*
X026101Y025910D01*
X026101Y025160D01*
X035101Y025160D01*
X035101Y029560D02*
X035139Y029751D01*
X035247Y029914D01*
X035410Y030022D01*
X035601Y030060D01*
X035792Y030022D01*
X035955Y029914D01*
X036063Y029751D01*
X036101Y029560D01*
X036063Y029369D01*
X035955Y029206D01*
X035792Y029098D01*
X035601Y029060D01*
X035410Y029098D01*
X035247Y029206D01*
X035139Y029369D01*
X035101Y029560D01*
X033851Y029560D02*
X033889Y029751D01*
X033997Y029914D01*
X034160Y030022D01*
X034351Y030060D01*
X034542Y030022D01*
X034705Y029914D01*
X034813Y029751D01*
X034851Y029560D01*
X034813Y029369D01*
X034705Y029206D01*
X034542Y029098D01*
X034351Y029060D01*
X034160Y029098D01*
X033997Y029206D01*
X033889Y029369D01*
X033851Y029560D01*
X032351Y029560D02*
X032389Y029751D01*
X032497Y029914D01*
X032660Y030022D01*
X032851Y030060D01*
X033042Y030022D01*
X033205Y029914D01*
X033313Y029751D01*
X033351Y029560D01*
X033313Y029369D01*
X033205Y029206D01*
X033042Y029098D01*
X032851Y029060D01*
X032660Y029098D01*
X032497Y029206D01*
X032389Y029369D01*
X032351Y029560D01*
X031101Y029560D02*
X031139Y029751D01*
X031247Y029914D01*
X031410Y030022D01*
X031601Y030060D01*
X031792Y030022D01*
X031955Y029914D01*
X032063Y029751D01*
X032101Y029560D01*
X032063Y029369D01*
X031955Y029206D01*
X031792Y029098D01*
X031601Y029060D01*
X031410Y029098D01*
X031247Y029206D01*
X031139Y029369D01*
X031101Y029560D01*
X023601Y029310D02*
X023639Y029501D01*
X023747Y029664D01*
X023910Y029772D01*
X024101Y029810D01*
X024292Y029772D01*
X024455Y029664D01*
X024563Y029501D01*
X024601Y029310D01*
X024563Y029119D01*
X024455Y028956D01*
X024292Y028848D01*
X024101Y028810D01*
X023910Y028848D01*
X023747Y028956D01*
X023639Y029119D01*
X023601Y029310D01*
X022351Y029310D02*
X022389Y029501D01*
X022497Y029664D01*
X022660Y029772D01*
X022851Y029810D01*
X023042Y029772D01*
X023205Y029664D01*
X023313Y029501D01*
X023351Y029310D01*
X023313Y029119D01*
X023205Y028956D01*
X023042Y028848D01*
X022851Y028810D01*
X022660Y028848D01*
X022497Y028956D01*
X022389Y029119D01*
X022351Y029310D01*
X021101Y029310D02*
X021139Y029501D01*
X021247Y029664D01*
X021410Y029772D01*
X021601Y029810D01*
X021792Y029772D01*
X021955Y029664D01*
X022063Y029501D01*
X022101Y029310D01*
X022063Y029119D01*
X021955Y028956D01*
X021792Y028848D01*
X021601Y028810D01*
X021410Y028848D01*
X021247Y028956D01*
X021139Y029119D01*
X021101Y029310D01*
X019851Y029310D02*
X019889Y029501D01*
X019997Y029664D01*
X020160Y029772D01*
X020351Y029810D01*
X020542Y029772D01*
X020705Y029664D01*
X020813Y029501D01*
X020851Y029310D01*
X020813Y029119D01*
X020705Y028956D01*
X020542Y028848D01*
X020351Y028810D01*
X020160Y028848D01*
X019997Y028956D01*
X019889Y029119D01*
X019851Y029310D01*
X018601Y029310D02*
X018639Y029501D01*
X018747Y029664D01*
X018910Y029772D01*
X019101Y029810D01*
X019292Y029772D01*
X019455Y029664D01*
X019563Y029501D01*
X019601Y029310D01*
X019563Y029119D01*
X019455Y028956D01*
X019292Y028848D01*
X019101Y028810D01*
X018910Y028848D01*
X018747Y028956D01*
X018639Y029119D01*
X018601Y029310D01*
X017351Y029310D02*
X017389Y029501D01*
X017497Y029664D01*
X017660Y029772D01*
X017851Y029810D01*
X018042Y029772D01*
X018205Y029664D01*
X018313Y029501D01*
X018351Y029310D01*
X018313Y029119D01*
X018205Y028956D01*
X018042Y028848D01*
X017851Y028810D01*
X017660Y028848D01*
X017497Y028956D01*
X017389Y029119D01*
X017351Y029310D01*
X016101Y029310D02*
X016139Y029501D01*
X016247Y029664D01*
X016410Y029772D01*
X016601Y029810D01*
X016792Y029772D01*
X016955Y029664D01*
X017063Y029501D01*
X017101Y029310D01*
X017063Y029119D01*
X016955Y028956D01*
X016792Y028848D01*
X016601Y028810D01*
X016410Y028848D01*
X016247Y028956D01*
X016139Y029119D01*
X016101Y029310D01*
X014851Y029310D02*
X014889Y029501D01*
X014997Y029664D01*
X015160Y029772D01*
X015351Y029810D01*
X015542Y029772D01*
X015705Y029664D01*
X015813Y029501D01*
X015851Y029310D01*
X015813Y029119D01*
X015705Y028956D01*
X015542Y028848D01*
X015351Y028810D01*
X015160Y028848D01*
X014997Y028956D01*
X014889Y029119D01*
X014851Y029310D01*
X012851Y029310D02*
X012889Y029501D01*
X012997Y029664D01*
X013160Y029772D01*
X013351Y029810D01*
X013542Y029772D01*
X013705Y029664D01*
X013813Y029501D01*
X013851Y029310D01*
X013813Y029119D01*
X013705Y028956D01*
X013542Y028848D01*
X013351Y028810D01*
X013160Y028848D01*
X012997Y028956D01*
X012889Y029119D01*
X012851Y029310D01*
X011601Y029310D02*
X011639Y029501D01*
X011747Y029664D01*
X011910Y029772D01*
X012101Y029810D01*
X012292Y029772D01*
X012455Y029664D01*
X012563Y029501D01*
X012601Y029310D01*
X012563Y029119D01*
X012455Y028956D01*
X012292Y028848D01*
X012101Y028810D01*
X011910Y028848D01*
X011747Y028956D01*
X011639Y029119D01*
X011601Y029310D01*
X010351Y029310D02*
X010389Y029501D01*
X010497Y029664D01*
X010660Y029772D01*
X010851Y029810D01*
X011042Y029772D01*
X011205Y029664D01*
X011313Y029501D01*
X011351Y029310D01*
X011313Y029119D01*
X011205Y028956D01*
X011042Y028848D01*
X010851Y028810D01*
X010660Y028848D01*
X010497Y028956D01*
X010389Y029119D01*
X010351Y029310D01*
X009101Y029310D02*
X009139Y029501D01*
X009247Y029664D01*
X009410Y029772D01*
X009601Y029810D01*
X009792Y029772D01*
X009955Y029664D01*
X010063Y029501D01*
X010101Y029310D01*
X010063Y029119D01*
X009955Y028956D01*
X009792Y028848D01*
X009601Y028810D01*
X009410Y028848D01*
X009247Y028956D01*
X009139Y029119D01*
X009101Y029310D01*
X007851Y029310D02*
X007889Y029501D01*
X007997Y029664D01*
X008160Y029772D01*
X008351Y029810D01*
X008542Y029772D01*
X008705Y029664D01*
X008813Y029501D01*
X008851Y029310D01*
X008813Y029119D01*
X008705Y028956D01*
X008542Y028848D01*
X008351Y028810D01*
X008160Y028848D01*
X007997Y028956D01*
X007889Y029119D01*
X007851Y029310D01*
X006601Y029310D02*
X006639Y029501D01*
X006747Y029664D01*
X006910Y029772D01*
X007101Y029810D01*
X007292Y029772D01*
X007455Y029664D01*
X007563Y029501D01*
X007601Y029310D01*
X007563Y029119D01*
X007455Y028956D01*
X007292Y028848D01*
X007101Y028810D01*
X006910Y028848D01*
X006747Y028956D01*
X006639Y029119D01*
X006601Y029310D01*
X005351Y029310D02*
X005389Y029501D01*
X005497Y029664D01*
X005660Y029772D01*
X005851Y029810D01*
X006042Y029772D01*
X006205Y029664D01*
X006313Y029501D01*
X006351Y029310D01*
X006313Y029119D01*
X006205Y028956D01*
X006042Y028848D01*
X005851Y028810D01*
X005660Y028848D01*
X005497Y028956D01*
X005389Y029119D01*
X005351Y029310D01*
X004101Y029310D02*
X004139Y029501D01*
X004247Y029664D01*
X004410Y029772D01*
X004601Y029810D01*
X004792Y029772D01*
X004955Y029664D01*
X005063Y029501D01*
X005101Y029310D01*
X005063Y029119D01*
X004955Y028956D01*
X004792Y028848D01*
X004601Y028810D01*
X004410Y028848D01*
X004247Y028956D01*
X004139Y029119D01*
X004101Y029310D01*
X004351Y027460D02*
X004351Y026710D01*
X004390Y026708D01*
X004429Y026702D01*
X004467Y026693D01*
X004504Y026680D01*
X004540Y026663D01*
X004573Y026643D01*
X004605Y026619D01*
X004634Y026593D01*
X004660Y026564D01*
X004684Y026532D01*
X004704Y026499D01*
X004721Y026463D01*
X004734Y026426D01*
X004743Y026388D01*
X004749Y026349D01*
X004751Y026310D01*
X004749Y026271D01*
X004743Y026232D01*
X004734Y026194D01*
X004721Y026157D01*
X004704Y026121D01*
X004684Y026088D01*
X004660Y026056D01*
X004634Y026027D01*
X004605Y026001D01*
X004573Y025977D01*
X004540Y025957D01*
X004504Y025940D01*
X004467Y025927D01*
X004429Y025918D01*
X004390Y025912D01*
X004351Y025910D01*
X004351Y025160D01*
X013351Y025160D01*
X013351Y027460D01*
X004351Y027460D01*
X001351Y028310D02*
X001389Y028501D01*
X001497Y028664D01*
X001660Y028772D01*
X001851Y028810D01*
X002042Y028772D01*
X002205Y028664D01*
X002313Y028501D01*
X002351Y028310D01*
X002313Y028119D01*
X002205Y027956D01*
X002042Y027848D01*
X001851Y027810D01*
X001660Y027848D01*
X001497Y027956D01*
X001389Y028119D01*
X001351Y028310D01*
X001351Y029310D02*
X001389Y029501D01*
X001497Y029664D01*
X001660Y029772D01*
X001851Y029810D01*
X002042Y029772D01*
X002205Y029664D01*
X002313Y029501D01*
X002351Y029310D01*
X002313Y029119D01*
X002205Y028956D01*
X002042Y028848D01*
X001851Y028810D01*
X001660Y028848D01*
X001497Y028956D01*
X001389Y029119D01*
X001351Y029310D01*
X014851Y027460D02*
X014851Y026710D01*
X014890Y026708D01*
X014929Y026702D01*
X014967Y026693D01*
X015004Y026680D01*
X015040Y026663D01*
X015073Y026643D01*
X015105Y026619D01*
X015134Y026593D01*
X015160Y026564D01*
X015184Y026532D01*
X015204Y026499D01*
X015221Y026463D01*
X015234Y026426D01*
X015243Y026388D01*
X015249Y026349D01*
X015251Y026310D01*
X015249Y026271D01*
X015243Y026232D01*
X015234Y026194D01*
X015221Y026157D01*
X015204Y026121D01*
X015184Y026088D01*
X015160Y026056D01*
X015134Y026027D01*
X015105Y026001D01*
X015073Y025977D01*
X015040Y025957D01*
X015004Y025940D01*
X014967Y025927D01*
X014929Y025918D01*
X014890Y025912D01*
X014851Y025910D01*
X014851Y025160D01*
X023851Y025160D01*
X023851Y027460D01*
X014851Y027460D01*
D13*
X015340Y030098D02*
X015760Y030729D01*
X015984Y030518D02*
X016194Y030729D01*
X016194Y030098D01*
X015984Y030098D02*
X016405Y030098D01*
X016629Y030203D02*
X016734Y030098D01*
X016944Y030098D01*
X017049Y030203D01*
X017049Y030623D01*
X016944Y030729D01*
X016734Y030729D01*
X016629Y030623D01*
X016629Y030518D01*
X016734Y030413D01*
X017049Y030413D01*
X015760Y030098D02*
X015340Y030729D01*
X014299Y030413D02*
X013879Y030413D01*
X014194Y030729D01*
X014194Y030098D01*
X013655Y030098D02*
X013234Y030729D01*
X013655Y030729D02*
X013234Y030098D01*
X011549Y030203D02*
X011444Y030098D01*
X011234Y030098D01*
X011129Y030203D01*
X010905Y030098D02*
X010484Y030729D01*
X010905Y030729D02*
X010484Y030098D01*
X011129Y030623D02*
X011234Y030729D01*
X011444Y030729D01*
X011549Y030623D01*
X011549Y030518D01*
X011444Y030413D01*
X011549Y030308D01*
X011549Y030203D01*
X011444Y030413D02*
X011339Y030413D01*
X008799Y030518D02*
X008799Y030623D01*
X008694Y030729D01*
X008484Y030729D01*
X008379Y030623D01*
X008155Y030729D02*
X007734Y030098D01*
X008155Y030098D02*
X007734Y030729D01*
X008379Y030098D02*
X008799Y030518D01*
X008799Y030098D02*
X008379Y030098D01*
X006049Y030098D02*
X005629Y030098D01*
X005839Y030098D02*
X005839Y030729D01*
X005629Y030518D01*
X005405Y030729D02*
X004984Y030098D01*
X005405Y030098D02*
X004984Y030729D01*
X003775Y024396D02*
X003565Y024396D01*
X003460Y024291D01*
X003236Y024291D02*
X003131Y024396D01*
X002921Y024396D01*
X002815Y024291D01*
X002815Y023870D01*
X002921Y023765D01*
X003131Y023765D01*
X003236Y023870D01*
X003460Y023870D02*
X003565Y023765D01*
X003775Y023765D01*
X003880Y023870D01*
X003880Y023975D01*
X003775Y024080D01*
X003670Y024080D01*
X003775Y024080D02*
X003880Y024186D01*
X003880Y024291D01*
X003775Y024396D01*
X002596Y024396D02*
X002386Y024396D01*
X002491Y024396D02*
X002491Y023765D01*
X002386Y023765D02*
X002596Y023765D01*
X003140Y022871D02*
X003351Y022871D01*
X003456Y022766D01*
X003456Y022451D01*
X003666Y022451D02*
X003035Y022451D01*
X003035Y022766D01*
X003140Y022871D01*
X003140Y022226D02*
X003245Y022226D01*
X003351Y022121D01*
X003351Y021911D01*
X003245Y021806D01*
X003140Y021806D01*
X003035Y021911D01*
X003035Y022121D01*
X003140Y022226D01*
X003351Y022121D02*
X003456Y022226D01*
X003561Y022226D01*
X003666Y022121D01*
X003666Y021911D01*
X003561Y021806D01*
X003456Y021806D01*
X003351Y021911D01*
X003245Y021582D02*
X003140Y021582D01*
X003035Y021477D01*
X003035Y021267D01*
X003140Y021161D01*
X003035Y020937D02*
X003140Y020727D01*
X003351Y020517D01*
X003351Y020832D01*
X003456Y020937D01*
X003561Y020937D01*
X003666Y020832D01*
X003666Y020622D01*
X003561Y020517D01*
X003351Y020517D01*
X003035Y020293D02*
X003035Y019872D01*
X003666Y019872D01*
X003561Y019648D02*
X003456Y019648D01*
X003351Y019543D01*
X003351Y019228D01*
X003561Y019228D01*
X003666Y019333D01*
X003666Y019543D01*
X003561Y019648D01*
X003351Y019872D02*
X003351Y020083D01*
X003035Y019648D02*
X003140Y019438D01*
X003351Y019228D01*
X003666Y019004D02*
X003666Y018583D01*
X003666Y018794D02*
X003035Y018794D01*
X003245Y018583D01*
X003140Y018359D02*
X003035Y018254D01*
X003035Y018044D01*
X003140Y017939D01*
X003561Y017939D01*
X003666Y018044D01*
X003666Y018254D01*
X003561Y018359D01*
X003666Y017719D02*
X003666Y017509D01*
X003666Y017614D02*
X003035Y017614D01*
X003035Y017509D02*
X003035Y017719D01*
X003140Y017285D02*
X003351Y017285D01*
X003456Y017180D01*
X003456Y016865D01*
X003666Y016865D02*
X003035Y016865D01*
X003035Y017180D01*
X003140Y017285D01*
X003666Y021161D02*
X003245Y021582D01*
X003666Y021582D02*
X003666Y021161D01*
X018734Y030098D02*
X019155Y030729D01*
X019379Y030729D02*
X019379Y030413D01*
X019589Y030518D01*
X019694Y030518D01*
X019799Y030413D01*
X019799Y030203D01*
X019694Y030098D01*
X019484Y030098D01*
X019379Y030203D01*
X019155Y030098D02*
X018734Y030729D01*
X019379Y030729D02*
X019799Y030729D01*
X021484Y030729D02*
X021905Y030098D01*
X022129Y030203D02*
X022234Y030098D01*
X022444Y030098D01*
X022549Y030203D01*
X022549Y030308D01*
X022444Y030413D01*
X022129Y030413D01*
X022129Y030203D01*
X022129Y030413D02*
X022339Y030623D01*
X022549Y030729D01*
X021905Y030729D02*
X021484Y030098D01*
X024234Y030098D02*
X024655Y030729D01*
X024879Y030729D02*
X025299Y030729D01*
X025299Y030623D01*
X024879Y030203D01*
X024879Y030098D01*
X024655Y030098D02*
X024234Y030729D01*
X026984Y030729D02*
X027405Y030098D01*
X027629Y030203D02*
X027629Y030308D01*
X027734Y030413D01*
X027944Y030413D01*
X028049Y030308D01*
X028049Y030203D01*
X027944Y030098D01*
X027734Y030098D01*
X027629Y030203D01*
X027734Y030413D02*
X027629Y030518D01*
X027629Y030623D01*
X027734Y030729D01*
X027944Y030729D01*
X028049Y030623D01*
X028049Y030518D01*
X027944Y030413D01*
X027405Y030729D02*
X026984Y030098D01*
X029090Y030098D02*
X029510Y030729D01*
X029734Y030518D02*
X029944Y030729D01*
X029944Y030098D01*
X029734Y030098D02*
X030155Y030098D01*
X030379Y030203D02*
X030379Y030308D01*
X030484Y030413D01*
X030694Y030413D01*
X030799Y030308D01*
X030799Y030203D01*
X030694Y030098D01*
X030484Y030098D01*
X030379Y030203D01*
X030484Y030413D02*
X030379Y030518D01*
X030379Y030623D01*
X030484Y030729D01*
X030694Y030729D01*
X030799Y030623D01*
X030799Y030518D01*
X030694Y030413D01*
X031840Y030098D02*
X032260Y030729D01*
X032484Y030623D02*
X032589Y030729D01*
X032799Y030729D01*
X032905Y030623D01*
X032905Y030518D01*
X032484Y030098D01*
X032905Y030098D01*
X033129Y030098D02*
X033549Y030518D01*
X033549Y030623D01*
X033444Y030729D01*
X033234Y030729D01*
X033129Y030623D01*
X033129Y030098D02*
X033549Y030098D01*
X034590Y030098D02*
X035010Y030729D01*
X035234Y030623D02*
X035339Y030729D01*
X035549Y030729D01*
X035655Y030623D01*
X035655Y030518D01*
X035234Y030098D01*
X035655Y030098D01*
X035879Y030203D02*
X035984Y030098D01*
X036194Y030098D01*
X036299Y030203D01*
X036299Y030308D01*
X036194Y030413D01*
X036089Y030413D01*
X036194Y030413D02*
X036299Y030518D01*
X036299Y030623D01*
X036194Y030729D01*
X035984Y030729D01*
X035879Y030623D01*
X035010Y030098D02*
X034590Y030729D01*
X032260Y030098D02*
X031840Y030729D01*
X029510Y030098D02*
X029090Y030729D01*
X036638Y028917D02*
X036743Y028707D01*
X036953Y028497D01*
X036953Y028812D01*
X037058Y028917D01*
X037163Y028917D01*
X037269Y028812D01*
X037269Y028602D01*
X037163Y028497D01*
X036953Y028497D01*
X036848Y028273D02*
X036743Y028273D01*
X036638Y028167D01*
X036638Y027957D01*
X036743Y027852D01*
X036638Y027628D02*
X037269Y027208D01*
X037269Y027628D02*
X036638Y027208D01*
X037269Y027852D02*
X036848Y028273D01*
X037269Y028273D02*
X037269Y027852D01*
X040353Y027764D02*
X040878Y027764D01*
X040983Y027869D01*
X040983Y028079D01*
X040878Y028184D01*
X040353Y028184D01*
X040353Y028408D02*
X040353Y028829D01*
X040353Y028618D02*
X040983Y028618D01*
X040878Y029053D02*
X040983Y029158D01*
X040983Y029368D01*
X040878Y029473D01*
X040773Y029473D01*
X040668Y029368D01*
X040668Y029263D01*
X040668Y029368D02*
X040563Y029473D01*
X040458Y029473D01*
X040353Y029368D01*
X040353Y029158D01*
X040458Y029053D01*
X041088Y029697D02*
X041088Y030118D01*
X040983Y030342D02*
X040353Y030342D01*
X040353Y030762D01*
X040353Y030986D02*
X040353Y031301D01*
X040458Y031407D01*
X040563Y031407D01*
X040668Y031301D01*
X040668Y030986D01*
X040983Y030986D02*
X040983Y031301D01*
X040878Y031407D01*
X040773Y031407D01*
X040668Y031301D01*
X040983Y030986D02*
X040353Y030986D01*
X040668Y030552D02*
X040668Y030342D01*
X041088Y031631D02*
X041088Y032051D01*
X040878Y032275D02*
X040983Y032380D01*
X040983Y032591D01*
X040878Y032696D01*
X040983Y032920D02*
X040353Y032920D01*
X040983Y033340D01*
X040353Y033340D01*
X040353Y033564D02*
X040353Y033985D01*
X040353Y033775D02*
X040983Y033775D01*
X040983Y034209D02*
X040353Y034209D01*
X040353Y034524D01*
X040458Y034629D01*
X040668Y034629D01*
X040773Y034524D01*
X040773Y034209D01*
X040773Y034419D02*
X040983Y034629D01*
X040983Y034853D02*
X040983Y035274D01*
X040983Y034853D02*
X040353Y034853D01*
X040458Y032696D02*
X040353Y032591D01*
X040353Y032380D01*
X040458Y032275D01*
X040878Y032275D01*
X040878Y027539D02*
X040458Y027539D01*
X040353Y027434D01*
X040353Y027224D01*
X040458Y027119D01*
X040878Y027119D01*
X040983Y027224D01*
X040983Y027434D01*
X040878Y027539D01*
X040708Y024259D02*
X040603Y024259D01*
X040498Y024153D01*
X040498Y023838D01*
X040708Y023838D01*
X040813Y023943D01*
X040813Y024153D01*
X040708Y024259D01*
X040288Y024048D02*
X040498Y023838D01*
X040288Y024048D02*
X040183Y024259D01*
X040183Y023404D02*
X040813Y023404D01*
X040813Y023194D02*
X040813Y023614D01*
X040393Y023194D02*
X040183Y023404D01*
X040183Y022970D02*
X040813Y022549D01*
X040813Y022970D02*
X040183Y022549D01*
X040183Y021509D02*
X040183Y021088D01*
X040498Y021088D01*
X040393Y021298D01*
X040393Y021403D01*
X040498Y021509D01*
X040708Y021509D01*
X040813Y021403D01*
X040813Y021193D01*
X040708Y021088D01*
X040813Y020864D02*
X040813Y020444D01*
X040813Y020654D02*
X040183Y020654D01*
X040393Y020444D01*
X040183Y020220D02*
X040813Y019799D01*
X040813Y020220D02*
X040183Y019799D01*
X040498Y018759D02*
X040498Y018338D01*
X040183Y018653D01*
X040813Y018653D01*
X040813Y018114D02*
X040813Y017694D01*
X040813Y017904D02*
X040183Y017904D01*
X040393Y017694D01*
X040183Y017470D02*
X040813Y017049D01*
X040813Y017470D02*
X040183Y017049D01*
X040288Y016009D02*
X040393Y016009D01*
X040498Y015903D01*
X040603Y016009D01*
X040708Y016009D01*
X040813Y015903D01*
X040813Y015693D01*
X040708Y015588D01*
X040813Y015364D02*
X040813Y014944D01*
X040813Y015154D02*
X040183Y015154D01*
X040393Y014944D01*
X040183Y014720D02*
X040813Y014299D01*
X040813Y014720D02*
X040183Y014299D01*
X040288Y015588D02*
X040183Y015693D01*
X040183Y015903D01*
X040288Y016009D01*
X040498Y015903D02*
X040498Y015798D01*
X034549Y001229D02*
X034129Y001229D01*
X034129Y000913D01*
X034339Y001018D01*
X034444Y001018D01*
X034549Y000913D01*
X034549Y000703D01*
X034444Y000598D01*
X034234Y000598D01*
X034129Y000703D01*
X033905Y000598D02*
X033484Y000598D01*
X033905Y001018D01*
X033905Y001123D01*
X033799Y001229D01*
X033589Y001229D01*
X033484Y001123D01*
X033260Y001229D02*
X032840Y000598D01*
X033260Y000598D02*
X032840Y001229D01*
X031799Y000913D02*
X031379Y000913D01*
X031694Y001229D01*
X031694Y000598D01*
X031155Y000598D02*
X030734Y000598D01*
X031155Y001018D01*
X031155Y001123D01*
X031049Y001229D01*
X030839Y001229D01*
X030734Y001123D01*
X030510Y001229D02*
X030090Y000598D01*
X030510Y000598D02*
X030090Y001229D01*
X029049Y001123D02*
X029049Y000703D01*
X028944Y000598D01*
X028734Y000598D01*
X028629Y000703D01*
X029049Y001123D01*
X028944Y001229D01*
X028734Y001229D01*
X028629Y001123D01*
X028629Y000703D01*
X028405Y000598D02*
X027984Y000598D01*
X028194Y000598D02*
X028194Y001229D01*
X027984Y001018D01*
X027760Y001229D02*
X027340Y000598D01*
X027760Y000598D02*
X027340Y001229D01*
X026299Y001123D02*
X026299Y000703D01*
X026194Y000598D01*
X025984Y000598D01*
X025879Y000703D01*
X025984Y000913D02*
X026299Y000913D01*
X026299Y001123D02*
X026194Y001229D01*
X025984Y001229D01*
X025879Y001123D01*
X025879Y001018D01*
X025984Y000913D01*
X025655Y000598D02*
X025234Y001229D01*
X025655Y001229D02*
X025234Y000598D01*
X023549Y000703D02*
X023444Y000598D01*
X023234Y000598D01*
X023129Y000703D01*
X023549Y001123D01*
X023549Y000703D01*
X023129Y000703D02*
X023129Y001123D01*
X023234Y001229D01*
X023444Y001229D01*
X023549Y001123D01*
X022905Y001123D02*
X022905Y001018D01*
X022484Y000598D01*
X022905Y000598D01*
X022905Y001123D02*
X022799Y001229D01*
X022589Y001229D01*
X022484Y001123D01*
X022260Y001229D02*
X021840Y000598D01*
X022260Y000598D02*
X021840Y001229D01*
X020799Y001123D02*
X020799Y001018D01*
X020379Y000598D01*
X020799Y000598D01*
X020799Y001123D02*
X020694Y001229D01*
X020484Y001229D01*
X020379Y001123D01*
X019944Y001229D02*
X019944Y000598D01*
X019734Y000598D02*
X020155Y000598D01*
X019734Y001018D02*
X019944Y001229D01*
X019510Y001229D02*
X019090Y000598D01*
X019510Y000598D02*
X019090Y001229D01*
X018049Y000598D02*
X017629Y000598D01*
X017839Y000598D02*
X017839Y001229D01*
X017629Y001018D01*
X017405Y001018D02*
X017405Y001123D01*
X017299Y001229D01*
X017089Y001229D01*
X016984Y001123D01*
X016760Y001229D02*
X016340Y000598D01*
X016760Y000598D02*
X016340Y001229D01*
X016984Y000598D02*
X017405Y001018D01*
X017405Y000598D02*
X016984Y000598D01*
X015299Y000598D02*
X014879Y000598D01*
X015089Y000598D02*
X015089Y001229D01*
X014879Y001018D01*
X014655Y000598D02*
X014234Y000598D01*
X014444Y000598D02*
X014444Y001229D01*
X014234Y001018D01*
X014010Y001229D02*
X013590Y000598D01*
X014010Y000598D02*
X013590Y001229D01*
X005345Y005121D02*
X004925Y004700D01*
X004925Y004595D01*
X004701Y004595D02*
X004280Y004595D01*
X004490Y004595D02*
X004490Y005226D01*
X004280Y005016D01*
X004056Y005226D02*
X003636Y004595D01*
X004056Y004595D02*
X003636Y005226D01*
X004925Y005226D02*
X005345Y005226D01*
X005345Y005121D01*
D14*
X007975Y004386D02*
X008126Y004236D01*
X008160Y004175D02*
X008085Y004100D01*
X008085Y003950D01*
X008160Y003875D01*
X008201Y003776D02*
X008201Y004076D01*
X008236Y004175D02*
X008160Y004175D01*
X008236Y004175D02*
X008536Y003875D01*
X008536Y004175D01*
X008426Y004236D02*
X008426Y004536D01*
X008426Y004386D02*
X007975Y004386D01*
X007975Y004001D02*
X008201Y003776D01*
X008160Y003715D02*
X008085Y003640D01*
X008085Y003414D01*
X008536Y003414D01*
X008536Y003640D01*
X008461Y003715D01*
X008160Y003715D01*
X008201Y003615D02*
X008276Y003540D01*
X008276Y003315D01*
X008426Y003315D02*
X007975Y003315D01*
X007975Y003540D01*
X008050Y003615D01*
X008201Y003615D01*
X008276Y003465D02*
X008426Y003615D01*
X008536Y003254D02*
X008536Y002954D01*
X008085Y002954D01*
X008085Y003254D01*
X008311Y003104D02*
X008311Y002954D01*
X008536Y002794D02*
X008536Y002494D01*
X008085Y002494D01*
X007975Y004001D02*
X008426Y004001D01*
X008536Y004994D02*
X008085Y004994D01*
X008536Y004994D02*
X008536Y005294D01*
X008536Y005454D02*
X008085Y005454D01*
X008085Y005754D01*
X008085Y005914D02*
X008085Y006140D01*
X008160Y006215D01*
X008461Y006215D01*
X008536Y006140D01*
X008536Y005914D01*
X008085Y005914D01*
X008311Y005604D02*
X008311Y005454D01*
X008536Y005454D02*
X008536Y005754D01*
X008461Y006375D02*
X008536Y006450D01*
X008536Y006600D01*
X008461Y006675D01*
X008386Y006675D01*
X008311Y006600D01*
X008311Y006525D01*
X008311Y006600D02*
X008236Y006675D01*
X008160Y006675D01*
X008085Y006600D01*
X008085Y006450D01*
X008160Y006375D01*
X008085Y007494D02*
X008536Y007494D01*
X008536Y007794D01*
X008536Y007954D02*
X008085Y007954D01*
X008085Y008254D01*
X008085Y008414D02*
X008085Y008640D01*
X008160Y008715D01*
X008461Y008715D01*
X008536Y008640D01*
X008536Y008414D01*
X008085Y008414D01*
X008311Y008104D02*
X008311Y007954D01*
X008536Y007954D02*
X008536Y008254D01*
X008311Y008875D02*
X008311Y009175D01*
X008536Y009100D02*
X008085Y009100D01*
X008311Y008875D01*
X010275Y009224D02*
X010275Y009449D01*
X010350Y009524D01*
X010501Y009524D01*
X010576Y009449D01*
X010576Y009224D01*
X010726Y009224D02*
X010275Y009224D01*
X010576Y009374D02*
X010726Y009524D01*
X010726Y009684D02*
X010426Y009985D01*
X010350Y009985D01*
X010275Y009910D01*
X010275Y009759D01*
X010350Y009684D01*
X010726Y009684D02*
X010726Y009985D01*
X010501Y010145D02*
X010275Y010370D01*
X010726Y010370D01*
X010501Y010445D02*
X010501Y010145D01*
X011225Y010565D02*
X011225Y010790D01*
X011300Y010865D01*
X011451Y010865D01*
X011526Y010790D01*
X011526Y010565D01*
X011676Y010565D02*
X011225Y010565D01*
X011526Y010715D02*
X011676Y010865D01*
X011451Y011026D02*
X011451Y011326D01*
X011601Y011486D02*
X011676Y011561D01*
X011676Y011711D01*
X011601Y011786D01*
X011526Y011786D01*
X011451Y011711D01*
X011451Y011636D01*
X011451Y011711D02*
X011376Y011786D01*
X011300Y011786D01*
X011225Y011711D01*
X011225Y011561D01*
X011300Y011486D01*
X011225Y011251D02*
X011451Y011026D01*
X011676Y011251D02*
X011225Y011251D01*
X014226Y011685D02*
X014226Y012136D01*
X014301Y011910D02*
X014526Y011685D01*
X014686Y011685D02*
X014986Y011685D01*
X014836Y011685D02*
X014836Y012136D01*
X014686Y011985D01*
X014526Y012136D02*
X014226Y011835D01*
X015576Y010875D02*
X015576Y010575D01*
X015576Y010725D02*
X015125Y010725D01*
X015276Y010575D01*
X015200Y010415D02*
X015125Y010340D01*
X015125Y010189D01*
X015200Y010114D01*
X015501Y010114D01*
X015576Y010189D01*
X015576Y010340D01*
X015501Y010415D01*
X015200Y010415D01*
X015200Y009954D02*
X015125Y009879D01*
X015125Y009729D01*
X015200Y009654D01*
X015276Y009654D01*
X015351Y009729D01*
X015351Y009879D01*
X015426Y009954D01*
X015501Y009954D01*
X015576Y009879D01*
X015576Y009729D01*
X015501Y009654D01*
X015576Y009497D02*
X015576Y009347D01*
X015576Y009422D02*
X015125Y009422D01*
X015125Y009347D02*
X015125Y009497D01*
X014911Y008136D02*
X014761Y008136D01*
X014686Y008061D01*
X014526Y008136D02*
X014226Y007835D01*
X014301Y007910D02*
X014526Y007685D01*
X014686Y007685D02*
X014986Y007985D01*
X014986Y008061D01*
X014911Y008136D01*
X014986Y007685D02*
X014686Y007685D01*
X014226Y007685D02*
X014226Y008136D01*
X015200Y006875D02*
X015125Y006800D01*
X015125Y006650D01*
X015200Y006575D01*
X015200Y006415D02*
X015125Y006340D01*
X015125Y006189D01*
X015200Y006114D01*
X015501Y006114D01*
X015576Y006189D01*
X015576Y006340D01*
X015501Y006415D01*
X015200Y006415D01*
X015576Y006575D02*
X015276Y006875D01*
X015200Y006875D01*
X015576Y006875D02*
X015576Y006575D01*
X015501Y005954D02*
X015576Y005879D01*
X015576Y005729D01*
X015501Y005654D01*
X015351Y005729D02*
X015351Y005879D01*
X015426Y005954D01*
X015501Y005954D01*
X015351Y005729D02*
X015276Y005654D01*
X015200Y005654D01*
X015125Y005729D01*
X015125Y005879D01*
X015200Y005954D01*
X015125Y005497D02*
X015125Y005347D01*
X015125Y005422D02*
X015576Y005422D01*
X015576Y005347D02*
X015576Y005497D01*
X015612Y002560D02*
X015649Y002759D01*
X015756Y002931D01*
X015917Y003052D01*
X016111Y003108D01*
X016313Y003089D01*
X016493Y002999D01*
X016630Y002850D01*
X016703Y002661D01*
X016703Y002459D01*
X016630Y002270D01*
X016493Y002121D01*
X016313Y002031D01*
X016111Y002012D01*
X015917Y002068D01*
X015756Y002189D01*
X015649Y002361D01*
X015612Y002560D01*
X014240Y002560D02*
X014277Y002759D01*
X014384Y002931D01*
X014545Y003052D01*
X014739Y003108D01*
X014941Y003089D01*
X015121Y002999D01*
X015258Y002850D01*
X015331Y002661D01*
X015331Y002459D01*
X015258Y002270D01*
X015121Y002121D01*
X014941Y002031D01*
X014739Y002012D01*
X014545Y002068D01*
X014384Y002189D01*
X014277Y002361D01*
X014240Y002560D01*
X012862Y002560D02*
X012899Y002759D01*
X013006Y002931D01*
X013167Y003052D01*
X013361Y003108D01*
X013563Y003089D01*
X013743Y002999D01*
X013880Y002850D01*
X013953Y002661D01*
X013953Y002459D01*
X013880Y002270D01*
X013743Y002121D01*
X013563Y002031D01*
X013361Y002012D01*
X013167Y002068D01*
X013006Y002189D01*
X012899Y002361D01*
X012862Y002560D01*
X011536Y001925D02*
X011536Y001625D01*
X011536Y001775D02*
X011085Y001775D01*
X011236Y001625D01*
X011160Y001465D02*
X011461Y001465D01*
X011536Y001390D01*
X011536Y001164D01*
X011085Y001164D01*
X011085Y001390D01*
X011160Y001465D01*
X011085Y001004D02*
X011085Y000704D01*
X011536Y000704D01*
X011536Y001004D01*
X011311Y000854D02*
X011311Y000704D01*
X011536Y000544D02*
X011536Y000244D01*
X011085Y000244D01*
X010726Y004224D02*
X010275Y004224D01*
X010275Y004449D01*
X010350Y004524D01*
X010501Y004524D01*
X010576Y004449D01*
X010576Y004224D01*
X010576Y004374D02*
X010726Y004524D01*
X010501Y004684D02*
X010275Y004910D01*
X010726Y004910D01*
X010726Y005145D02*
X010426Y005445D01*
X010350Y005445D01*
X010275Y005370D01*
X010275Y005220D01*
X010350Y005145D01*
X010501Y004985D02*
X010501Y004684D01*
X010726Y005145D02*
X010726Y005445D01*
X011225Y006565D02*
X011225Y006790D01*
X011300Y006865D01*
X011451Y006865D01*
X011526Y006790D01*
X011526Y006565D01*
X011676Y006565D02*
X011225Y006565D01*
X011526Y006715D02*
X011676Y006865D01*
X011451Y007026D02*
X011451Y007326D01*
X011451Y007486D02*
X011451Y007786D01*
X011676Y007711D02*
X011225Y007711D01*
X011451Y007486D01*
X011676Y007251D02*
X011225Y007251D01*
X011451Y007026D01*
X010726Y007024D02*
X010576Y006874D01*
X010576Y006949D02*
X010576Y006724D01*
X010726Y006724D02*
X010275Y006724D01*
X010275Y006949D01*
X010350Y007024D01*
X010501Y007024D01*
X010576Y006949D01*
X010726Y007184D02*
X010426Y007485D01*
X010350Y007485D01*
X010275Y007410D01*
X010275Y007259D01*
X010350Y007184D01*
X010726Y007184D02*
X010726Y007485D01*
X010651Y007645D02*
X010726Y007720D01*
X010726Y007870D01*
X010651Y007945D01*
X010576Y007945D01*
X010501Y007870D01*
X010501Y007795D01*
X010501Y007870D02*
X010426Y007945D01*
X010350Y007945D01*
X010275Y007870D01*
X010275Y007720D01*
X010350Y007645D01*
X003576Y008852D02*
X003501Y008852D01*
X003200Y009152D01*
X003125Y009152D01*
X003125Y008852D01*
X003351Y009312D02*
X003125Y009538D01*
X003576Y009538D01*
X003576Y009773D02*
X003125Y009773D01*
X003351Y009613D02*
X003351Y009312D01*
X003576Y009773D02*
X003576Y010073D01*
X003501Y010233D02*
X003576Y010308D01*
X003576Y010458D01*
X003501Y010533D01*
X003426Y010533D01*
X003351Y010458D01*
X003351Y010308D01*
X003276Y010233D01*
X003200Y010233D01*
X003125Y010308D01*
X003125Y010458D01*
X003200Y010533D01*
X003276Y010694D02*
X003125Y010844D01*
X003576Y010844D01*
X003576Y010694D02*
X003576Y010994D01*
X003501Y011154D02*
X003576Y011229D01*
X003576Y011379D01*
X003501Y011454D01*
X003426Y011454D01*
X003351Y011379D01*
X003351Y011304D01*
X003351Y011379D02*
X003276Y011454D01*
X003200Y011454D01*
X003125Y011379D01*
X003125Y011229D01*
X003200Y011154D01*
X003200Y011614D02*
X003276Y011614D01*
X003351Y011689D01*
X003351Y011839D01*
X003426Y011914D01*
X003501Y011914D01*
X003576Y011839D01*
X003576Y011689D01*
X003501Y011614D01*
X003426Y011614D01*
X003351Y011689D01*
X003351Y011839D02*
X003276Y011914D01*
X003200Y011914D01*
X003125Y011839D01*
X003125Y011689D01*
X003200Y011614D01*
X003125Y012075D02*
X003576Y012375D01*
X003125Y012375D01*
X003125Y012075D02*
X003576Y012075D01*
X003218Y013735D02*
X003218Y014186D01*
X002993Y013960D01*
X003293Y013960D01*
X002833Y013810D02*
X002758Y013735D01*
X002608Y013735D01*
X002533Y013810D01*
X002533Y014111D01*
X002608Y014186D01*
X002758Y014186D01*
X002833Y014111D01*
X002376Y014186D02*
X002226Y014186D01*
X002301Y014186D02*
X002301Y013735D01*
X002226Y013735D02*
X002376Y013735D01*
X003775Y025135D02*
X003775Y025285D01*
X003775Y025210D02*
X004226Y025210D01*
X004226Y025135D02*
X004226Y025285D01*
X004151Y025442D02*
X003850Y025442D01*
X003775Y025517D01*
X003775Y025667D01*
X003850Y025742D01*
X003775Y025902D02*
X003775Y026203D01*
X003850Y026203D01*
X004151Y025902D01*
X004226Y025902D01*
X004151Y025742D02*
X004226Y025667D01*
X004226Y025517D01*
X004151Y025442D01*
X005126Y026085D02*
X005351Y026085D01*
X005426Y026160D01*
X005426Y026461D01*
X005351Y026536D01*
X005126Y026536D01*
X005126Y026085D01*
X005586Y026085D02*
X005586Y026536D01*
X005811Y026536D01*
X005886Y026461D01*
X005886Y026310D01*
X005811Y026235D01*
X005586Y026235D01*
X005736Y026235D02*
X005886Y026085D01*
X006046Y026085D02*
X006197Y026085D01*
X006122Y026085D02*
X006122Y026536D01*
X006197Y026536D02*
X006046Y026536D01*
X006353Y026536D02*
X006353Y026235D01*
X006504Y026085D01*
X006654Y026235D01*
X006654Y026536D01*
X006814Y026536D02*
X006814Y026085D01*
X007114Y026085D01*
X007274Y026085D02*
X007274Y026536D01*
X007499Y026536D01*
X007574Y026461D01*
X007574Y026310D01*
X007499Y026235D01*
X007274Y026235D01*
X007424Y026235D02*
X007574Y026085D01*
X007734Y026085D02*
X008035Y026085D01*
X007885Y026085D02*
X007885Y026536D01*
X007734Y026385D01*
X007114Y026536D02*
X006814Y026536D01*
X006814Y026310D02*
X006964Y026310D01*
X003577Y028735D02*
X003276Y028735D01*
X003577Y029035D01*
X003577Y029111D01*
X003502Y029186D01*
X003352Y029186D01*
X003276Y029111D01*
X003116Y029186D02*
X002816Y029186D01*
X002816Y028960D01*
X002966Y029035D01*
X003041Y029035D01*
X003116Y028960D01*
X003116Y028810D01*
X003041Y028735D01*
X002891Y028735D01*
X002816Y028810D01*
X002656Y028735D02*
X002506Y028885D01*
X002581Y028885D02*
X002356Y028885D01*
X002356Y028735D02*
X002356Y029186D01*
X002581Y029186D01*
X002656Y029111D01*
X002656Y028960D01*
X002581Y028885D01*
X002656Y029735D02*
X002506Y029885D01*
X002581Y029885D02*
X002356Y029885D01*
X002356Y029735D02*
X002356Y030186D01*
X002581Y030186D01*
X002656Y030111D01*
X002656Y029960D01*
X002581Y029885D01*
X002816Y029810D02*
X002891Y029735D01*
X003041Y029735D01*
X003116Y029810D01*
X003116Y029960D01*
X003041Y030035D01*
X002966Y030035D01*
X002816Y029960D01*
X002816Y030186D01*
X003116Y030186D01*
X003276Y030035D02*
X003427Y030186D01*
X003427Y029735D01*
X003577Y029735D02*
X003276Y029735D01*
X003725Y029815D02*
X003725Y030040D01*
X003800Y030115D01*
X003951Y030115D01*
X004026Y030040D01*
X004026Y029815D01*
X004176Y029815D02*
X003725Y029815D01*
X004026Y029965D02*
X004176Y030115D01*
X004101Y030276D02*
X004176Y030351D01*
X004176Y030501D01*
X004101Y030576D01*
X004026Y030576D01*
X003951Y030501D01*
X003951Y030351D01*
X003876Y030276D01*
X003800Y030276D01*
X003725Y030351D01*
X003725Y030501D01*
X003800Y030576D01*
X003876Y030576D01*
X003951Y030501D01*
X003951Y030351D02*
X004026Y030276D01*
X004101Y030276D01*
X004975Y030276D02*
X004975Y030576D01*
X005050Y030576D01*
X005351Y030276D01*
X005426Y030276D01*
X005426Y030115D02*
X005276Y029965D01*
X005276Y030040D02*
X005276Y029815D01*
X005426Y029815D02*
X004975Y029815D01*
X004975Y030040D01*
X005050Y030115D01*
X005201Y030115D01*
X005276Y030040D01*
X006225Y030040D02*
X006300Y030115D01*
X006451Y030115D01*
X006526Y030040D01*
X006526Y029815D01*
X006676Y029815D02*
X006225Y029815D01*
X006225Y030040D01*
X006526Y029965D02*
X006676Y030115D01*
X006601Y030276D02*
X006676Y030351D01*
X006676Y030501D01*
X006601Y030576D01*
X006526Y030576D01*
X006451Y030501D01*
X006451Y030276D01*
X006601Y030276D01*
X006451Y030276D02*
X006300Y030426D01*
X006225Y030576D01*
X007475Y030576D02*
X007475Y030276D01*
X007701Y030276D01*
X007626Y030426D01*
X007626Y030501D01*
X007701Y030576D01*
X007851Y030576D01*
X007926Y030501D01*
X007926Y030351D01*
X007851Y030276D01*
X007926Y030115D02*
X007776Y029965D01*
X007776Y030040D02*
X007776Y029815D01*
X007926Y029815D02*
X007475Y029815D01*
X007475Y030040D01*
X007550Y030115D01*
X007701Y030115D01*
X007776Y030040D01*
X008725Y030040D02*
X008800Y030115D01*
X008951Y030115D01*
X009026Y030040D01*
X009026Y029815D01*
X009176Y029815D02*
X008725Y029815D01*
X008725Y030040D01*
X009026Y029965D02*
X009176Y030115D01*
X008951Y030276D02*
X008951Y030576D01*
X009176Y030501D02*
X008725Y030501D01*
X008951Y030276D01*
X009975Y030351D02*
X009975Y030501D01*
X010050Y030576D01*
X010126Y030576D01*
X010201Y030501D01*
X010276Y030576D01*
X010351Y030576D01*
X010426Y030501D01*
X010426Y030351D01*
X010351Y030276D01*
X010426Y030115D02*
X010276Y029965D01*
X010276Y030040D02*
X010276Y029815D01*
X010426Y029815D02*
X009975Y029815D01*
X009975Y030040D01*
X010050Y030115D01*
X010201Y030115D01*
X010276Y030040D01*
X010050Y030276D02*
X009975Y030351D01*
X010201Y030426D02*
X010201Y030501D01*
X011225Y030501D02*
X011225Y030351D01*
X011300Y030276D01*
X011300Y030115D02*
X011451Y030115D01*
X011526Y030040D01*
X011526Y029815D01*
X011676Y029815D02*
X011225Y029815D01*
X011225Y030040D01*
X011300Y030115D01*
X011526Y029965D02*
X011676Y030115D01*
X011676Y030276D02*
X011376Y030576D01*
X011300Y030576D01*
X011225Y030501D01*
X011676Y030576D02*
X011676Y030276D01*
X012475Y030426D02*
X012926Y030426D01*
X012926Y030276D02*
X012926Y030576D01*
X012626Y030276D02*
X012475Y030426D01*
X012550Y030115D02*
X012701Y030115D01*
X012776Y030040D01*
X012776Y029815D01*
X012926Y029815D02*
X012475Y029815D01*
X012475Y030040D01*
X012550Y030115D01*
X012776Y029965D02*
X012926Y030115D01*
X014475Y030040D02*
X014550Y030115D01*
X014701Y030115D01*
X014776Y030040D01*
X014776Y029815D01*
X014926Y029815D02*
X014475Y029815D01*
X014475Y030040D01*
X014626Y030276D02*
X014475Y030426D01*
X014926Y030426D01*
X014926Y030276D02*
X014926Y030576D01*
X014851Y030736D02*
X014926Y030811D01*
X014926Y030961D01*
X014851Y031036D01*
X014776Y031036D01*
X014701Y030961D01*
X014701Y030736D01*
X014851Y030736D01*
X014701Y030736D02*
X014550Y030886D01*
X014475Y031036D01*
X014926Y030115D02*
X014776Y029965D01*
X015725Y030040D02*
X015800Y030115D01*
X015951Y030115D01*
X016026Y030040D01*
X016026Y029815D01*
X016176Y029815D02*
X015725Y029815D01*
X015725Y030040D01*
X015876Y030276D02*
X015725Y030426D01*
X016176Y030426D01*
X016176Y030276D02*
X016176Y030576D01*
X016101Y030736D02*
X016176Y030811D01*
X016176Y030961D01*
X016101Y031036D01*
X015951Y031036D01*
X015876Y030961D01*
X015876Y030886D01*
X015951Y030736D01*
X015725Y030736D01*
X015725Y031036D01*
X016176Y030115D02*
X016026Y029965D01*
X016975Y030040D02*
X017050Y030115D01*
X017201Y030115D01*
X017276Y030040D01*
X017276Y029815D01*
X017426Y029815D02*
X016975Y029815D01*
X016975Y030040D01*
X017126Y030276D02*
X016975Y030426D01*
X017426Y030426D01*
X017426Y030276D02*
X017426Y030576D01*
X017201Y030736D02*
X017201Y031036D01*
X017426Y030961D02*
X016975Y030961D01*
X017201Y030736D01*
X017426Y030115D02*
X017276Y029965D01*
X018225Y030040D02*
X018300Y030115D01*
X018451Y030115D01*
X018526Y030040D01*
X018526Y029815D01*
X018676Y029815D02*
X018225Y029815D01*
X018225Y030040D01*
X018376Y030276D02*
X018225Y030426D01*
X018676Y030426D01*
X018676Y030276D02*
X018676Y030576D01*
X018601Y030736D02*
X018676Y030811D01*
X018676Y030961D01*
X018601Y031036D01*
X018526Y031036D01*
X018451Y030961D01*
X018451Y030886D01*
X018451Y030961D02*
X018376Y031036D01*
X018300Y031036D01*
X018225Y030961D01*
X018225Y030811D01*
X018300Y030736D01*
X018676Y030115D02*
X018526Y029965D01*
X019475Y030040D02*
X019550Y030115D01*
X019701Y030115D01*
X019776Y030040D01*
X019776Y029815D01*
X019926Y029815D02*
X019475Y029815D01*
X019475Y030040D01*
X019626Y030276D02*
X019475Y030426D01*
X019926Y030426D01*
X019926Y030276D02*
X019926Y030576D01*
X019926Y030736D02*
X019626Y031036D01*
X019550Y031036D01*
X019475Y030961D01*
X019475Y030811D01*
X019550Y030736D01*
X019926Y030736D02*
X019926Y031036D01*
X020725Y030886D02*
X020876Y030736D01*
X020725Y030886D02*
X021176Y030886D01*
X021176Y030736D02*
X021176Y031036D01*
X021176Y030576D02*
X021176Y030276D01*
X021176Y030426D02*
X020725Y030426D01*
X020876Y030276D01*
X020951Y030115D02*
X021026Y030040D01*
X021026Y029815D01*
X021176Y029815D02*
X020725Y029815D01*
X020725Y030040D01*
X020800Y030115D01*
X020951Y030115D01*
X021026Y029965D02*
X021176Y030115D01*
X021975Y030040D02*
X022050Y030115D01*
X022201Y030115D01*
X022276Y030040D01*
X022276Y029815D01*
X022426Y029815D02*
X021975Y029815D01*
X021975Y030040D01*
X022126Y030276D02*
X021975Y030426D01*
X022426Y030426D01*
X022426Y030276D02*
X022426Y030576D01*
X022351Y030736D02*
X022050Y031036D01*
X022351Y031036D01*
X022426Y030961D01*
X022426Y030811D01*
X022351Y030736D01*
X022050Y030736D01*
X021975Y030811D01*
X021975Y030961D01*
X022050Y031036D01*
X022426Y030115D02*
X022276Y029965D01*
X023225Y030040D02*
X023300Y030115D01*
X023451Y030115D01*
X023526Y030040D01*
X023526Y029815D01*
X023676Y029815D02*
X023225Y029815D01*
X023225Y030040D01*
X023300Y030276D02*
X023376Y030276D01*
X023451Y030351D01*
X023451Y030576D01*
X023601Y030576D02*
X023300Y030576D01*
X023225Y030501D01*
X023225Y030351D01*
X023300Y030276D01*
X023601Y030276D02*
X023676Y030351D01*
X023676Y030501D01*
X023601Y030576D01*
X023676Y030115D02*
X023526Y029965D01*
X022862Y032060D02*
X022899Y032259D01*
X023006Y032431D01*
X023167Y032552D01*
X023361Y032608D01*
X023563Y032589D01*
X023743Y032499D01*
X023880Y032350D01*
X023953Y032161D01*
X023953Y031959D01*
X023880Y031770D01*
X023743Y031621D01*
X023563Y031531D01*
X023361Y031512D01*
X023167Y031568D01*
X023006Y031689D01*
X022899Y031861D01*
X022862Y032060D01*
X021490Y032060D02*
X021527Y032259D01*
X021634Y032431D01*
X021795Y032552D01*
X021989Y032608D01*
X022191Y032589D01*
X022371Y032499D01*
X022508Y032350D01*
X022581Y032161D01*
X022581Y031959D01*
X022508Y031770D01*
X022371Y031621D01*
X022191Y031531D01*
X021989Y031512D01*
X021795Y031568D01*
X021634Y031689D01*
X021527Y031861D01*
X021490Y032060D01*
X020112Y032060D02*
X020149Y032259D01*
X020256Y032431D01*
X020417Y032552D01*
X020611Y032608D01*
X020813Y032589D01*
X020993Y032499D01*
X021130Y032350D01*
X021203Y032161D01*
X021203Y031959D01*
X021130Y031770D01*
X020993Y031621D01*
X020813Y031531D01*
X020611Y031512D01*
X020417Y031568D01*
X020256Y031689D01*
X020149Y031861D01*
X020112Y032060D01*
X018740Y032060D02*
X018777Y032259D01*
X018884Y032431D01*
X019045Y032552D01*
X019239Y032608D01*
X019441Y032589D01*
X019621Y032499D01*
X019758Y032350D01*
X019831Y032161D01*
X019831Y031959D01*
X019758Y031770D01*
X019621Y031621D01*
X019441Y031531D01*
X019239Y031512D01*
X019045Y031568D01*
X018884Y031689D01*
X018777Y031861D01*
X018740Y032060D01*
X017362Y032060D02*
X017399Y032259D01*
X017506Y032431D01*
X017667Y032552D01*
X017861Y032608D01*
X018063Y032589D01*
X018243Y032499D01*
X018380Y032350D01*
X018453Y032161D01*
X018453Y031959D01*
X018380Y031770D01*
X018243Y031621D01*
X018063Y031531D01*
X017861Y031512D01*
X017667Y031568D01*
X017506Y031689D01*
X017399Y031861D01*
X017362Y032060D01*
X015990Y032060D02*
X016027Y032259D01*
X016134Y032431D01*
X016295Y032552D01*
X016489Y032608D01*
X016691Y032589D01*
X016871Y032499D01*
X017008Y032350D01*
X017081Y032161D01*
X017081Y031959D01*
X017008Y031770D01*
X016871Y031621D01*
X016691Y031531D01*
X016489Y031512D01*
X016295Y031568D01*
X016134Y031689D01*
X016027Y031861D01*
X015990Y032060D01*
X014612Y032060D02*
X014649Y032259D01*
X014756Y032431D01*
X014917Y032552D01*
X015111Y032608D01*
X015313Y032589D01*
X015493Y032499D01*
X015630Y032350D01*
X015703Y032161D01*
X015703Y031959D01*
X015630Y031770D01*
X015493Y031621D01*
X015313Y031531D01*
X015111Y031512D01*
X014917Y031568D01*
X014756Y031689D01*
X014649Y031861D01*
X014612Y032060D01*
X013240Y032060D02*
X013277Y032259D01*
X013384Y032431D01*
X013545Y032552D01*
X013739Y032608D01*
X013941Y032589D01*
X014121Y032499D01*
X014258Y032350D01*
X014331Y032161D01*
X014331Y031959D01*
X014258Y031770D01*
X014121Y031621D01*
X013941Y031531D01*
X013739Y031512D01*
X013545Y031568D01*
X013384Y031689D01*
X013277Y031861D01*
X013240Y032060D01*
X011862Y032060D02*
X011899Y032259D01*
X012006Y032431D01*
X012167Y032552D01*
X012361Y032608D01*
X012563Y032589D01*
X012743Y032499D01*
X012880Y032350D01*
X012953Y032161D01*
X012953Y031959D01*
X012880Y031770D01*
X012743Y031621D01*
X012563Y031531D01*
X012361Y031512D01*
X012167Y031568D01*
X012006Y031689D01*
X011899Y031861D01*
X011862Y032060D01*
X010490Y032060D02*
X010527Y032259D01*
X010634Y032431D01*
X010795Y032552D01*
X010989Y032608D01*
X011191Y032589D01*
X011371Y032499D01*
X011508Y032350D01*
X011581Y032161D01*
X011581Y031959D01*
X011508Y031770D01*
X011371Y031621D01*
X011191Y031531D01*
X010989Y031512D01*
X010795Y031568D01*
X010634Y031689D01*
X010527Y031861D01*
X010490Y032060D01*
X009112Y032060D02*
X009149Y032259D01*
X009256Y032431D01*
X009417Y032552D01*
X009611Y032608D01*
X009813Y032589D01*
X009993Y032499D01*
X010130Y032350D01*
X010203Y032161D01*
X010203Y031959D01*
X010130Y031770D01*
X009993Y031621D01*
X009813Y031531D01*
X009611Y031512D01*
X009417Y031568D01*
X009256Y031689D01*
X009149Y031861D01*
X009112Y032060D01*
X007740Y032060D02*
X007777Y032259D01*
X007884Y032431D01*
X008045Y032552D01*
X008239Y032608D01*
X008441Y032589D01*
X008621Y032499D01*
X008758Y032350D01*
X008831Y032161D01*
X008831Y031959D01*
X008758Y031770D01*
X008621Y031621D01*
X008441Y031531D01*
X008239Y031512D01*
X008045Y031568D01*
X007884Y031689D01*
X007777Y031861D01*
X007740Y032060D01*
X006362Y032060D02*
X006399Y032259D01*
X006506Y032431D01*
X006667Y032552D01*
X006861Y032608D01*
X007063Y032589D01*
X007243Y032499D01*
X007380Y032350D01*
X007453Y032161D01*
X007453Y031959D01*
X007380Y031770D01*
X007243Y031621D01*
X007063Y031531D01*
X006861Y031512D01*
X006667Y031568D01*
X006506Y031689D01*
X006399Y031861D01*
X006362Y032060D01*
X004990Y032060D02*
X005027Y032259D01*
X005134Y032431D01*
X005295Y032552D01*
X005489Y032608D01*
X005691Y032589D01*
X005871Y032499D01*
X006008Y032350D01*
X006081Y032161D01*
X006081Y031959D01*
X006008Y031770D01*
X005871Y031621D01*
X005691Y031531D01*
X005489Y031512D01*
X005295Y031568D01*
X005134Y031689D01*
X005027Y031861D01*
X004990Y032060D01*
X003612Y032060D02*
X003649Y032259D01*
X003756Y032431D01*
X003917Y032552D01*
X004111Y032608D01*
X004313Y032589D01*
X004493Y032499D01*
X004630Y032350D01*
X004703Y032161D01*
X004703Y031959D01*
X004630Y031770D01*
X004493Y031621D01*
X004313Y031531D01*
X004111Y031512D01*
X003917Y031568D01*
X003756Y031689D01*
X003649Y031861D01*
X003612Y032060D01*
X014275Y026128D02*
X014350Y026203D01*
X014426Y026203D01*
X014501Y026128D01*
X014501Y025978D01*
X014426Y025902D01*
X014350Y025902D01*
X014275Y025978D01*
X014275Y026128D01*
X014501Y026128D02*
X014576Y026203D01*
X014651Y026203D01*
X014726Y026128D01*
X014726Y025978D01*
X014651Y025902D01*
X014576Y025902D01*
X014501Y025978D01*
X014651Y025742D02*
X014726Y025667D01*
X014726Y025517D01*
X014651Y025442D01*
X014350Y025442D01*
X014275Y025517D01*
X014275Y025667D01*
X014350Y025742D01*
X014275Y025285D02*
X014275Y025135D01*
X014275Y025210D02*
X014726Y025210D01*
X014726Y025135D02*
X014726Y025285D01*
X015626Y026085D02*
X015851Y026085D01*
X015926Y026160D01*
X015926Y026461D01*
X015851Y026536D01*
X015626Y026536D01*
X015626Y026085D01*
X016086Y026085D02*
X016086Y026536D01*
X016311Y026536D01*
X016386Y026461D01*
X016386Y026310D01*
X016311Y026235D01*
X016086Y026235D01*
X016236Y026235D02*
X016386Y026085D01*
X016546Y026085D02*
X016697Y026085D01*
X016622Y026085D02*
X016622Y026536D01*
X016697Y026536D02*
X016546Y026536D01*
X016853Y026536D02*
X016853Y026235D01*
X017004Y026085D01*
X017154Y026235D01*
X017154Y026536D01*
X017314Y026536D02*
X017314Y026085D01*
X017614Y026085D01*
X017774Y026085D02*
X017774Y026536D01*
X017999Y026536D01*
X018074Y026461D01*
X018074Y026310D01*
X017999Y026235D01*
X017774Y026235D01*
X017924Y026235D02*
X018074Y026085D01*
X018234Y026085D02*
X018535Y026385D01*
X018535Y026461D01*
X018460Y026536D01*
X018309Y026536D01*
X018234Y026461D01*
X018234Y026085D02*
X018535Y026085D01*
X017614Y026536D02*
X017314Y026536D01*
X017314Y026310D02*
X017464Y026310D01*
X019776Y029965D02*
X019926Y030115D01*
X024240Y032060D02*
X024277Y032259D01*
X024384Y032431D01*
X024545Y032552D01*
X024739Y032608D01*
X024941Y032589D01*
X025121Y032499D01*
X025258Y032350D01*
X025331Y032161D01*
X025331Y031959D01*
X025258Y031770D01*
X025121Y031621D01*
X024941Y031531D01*
X024739Y031512D01*
X024545Y031568D01*
X024384Y031689D01*
X024277Y031861D01*
X024240Y032060D01*
X025612Y032060D02*
X025649Y032259D01*
X025756Y032431D01*
X025917Y032552D01*
X026111Y032608D01*
X026313Y032589D01*
X026493Y032499D01*
X026630Y032350D01*
X026703Y032161D01*
X026703Y031959D01*
X026630Y031770D01*
X026493Y031621D01*
X026313Y031531D01*
X026111Y031512D01*
X025917Y031568D01*
X025756Y031689D01*
X025649Y031861D01*
X025612Y032060D01*
X026990Y032060D02*
X027027Y032259D01*
X027134Y032431D01*
X027295Y032552D01*
X027489Y032608D01*
X027691Y032589D01*
X027871Y032499D01*
X028008Y032350D01*
X028081Y032161D01*
X028081Y031959D01*
X028008Y031770D01*
X027871Y031621D01*
X027691Y031531D01*
X027489Y031512D01*
X027295Y031568D01*
X027134Y031689D01*
X027027Y031861D01*
X026990Y032060D01*
X028362Y032060D02*
X028399Y032259D01*
X028506Y032431D01*
X028667Y032552D01*
X028861Y032608D01*
X029063Y032589D01*
X029243Y032499D01*
X029380Y032350D01*
X029453Y032161D01*
X029453Y031959D01*
X029380Y031770D01*
X029243Y031621D01*
X029063Y031531D01*
X028861Y031512D01*
X028667Y031568D01*
X028506Y031689D01*
X028399Y031861D01*
X028362Y032060D01*
X029740Y032060D02*
X029777Y032259D01*
X029884Y032431D01*
X030045Y032552D01*
X030239Y032608D01*
X030441Y032589D01*
X030621Y032499D01*
X030758Y032350D01*
X030831Y032161D01*
X030831Y031959D01*
X030758Y031770D01*
X030621Y031621D01*
X030441Y031531D01*
X030239Y031512D01*
X030045Y031568D01*
X029884Y031689D01*
X029777Y031861D01*
X029740Y032060D01*
X030725Y031211D02*
X030725Y031061D01*
X030800Y030986D01*
X031101Y030986D01*
X030800Y031286D01*
X031101Y031286D01*
X031176Y031211D01*
X031176Y031061D01*
X031101Y030986D01*
X031176Y030826D02*
X031176Y030526D01*
X030876Y030826D01*
X030800Y030826D01*
X030725Y030751D01*
X030725Y030601D01*
X030800Y030526D01*
X030800Y030365D02*
X030951Y030365D01*
X031026Y030290D01*
X031026Y030065D01*
X031176Y030065D02*
X030725Y030065D01*
X030725Y030290D01*
X030800Y030365D01*
X031026Y030215D02*
X031176Y030365D01*
X031975Y030290D02*
X031975Y030065D01*
X032426Y030065D01*
X032276Y030065D02*
X032276Y030290D01*
X032201Y030365D01*
X032050Y030365D01*
X031975Y030290D01*
X032126Y030526D02*
X031975Y030676D01*
X032426Y030676D01*
X032426Y030526D02*
X032426Y030826D01*
X032351Y030986D02*
X032426Y031061D01*
X032426Y031211D01*
X032351Y031286D01*
X032050Y031286D01*
X031975Y031211D01*
X031975Y031061D01*
X032050Y030986D01*
X032126Y030986D01*
X032201Y031061D01*
X032201Y031286D01*
X031112Y032060D02*
X031149Y032259D01*
X031256Y032431D01*
X031417Y032552D01*
X031611Y032608D01*
X031813Y032589D01*
X031993Y032499D01*
X032130Y032350D01*
X032203Y032161D01*
X032203Y031959D01*
X032130Y031770D01*
X031993Y031621D01*
X031813Y031531D01*
X031611Y031512D01*
X031417Y031568D01*
X031256Y031689D01*
X031149Y031861D01*
X031112Y032060D01*
X030800Y031286D02*
X030725Y031211D01*
X032276Y030215D02*
X032426Y030365D01*
X033475Y030290D02*
X033475Y030065D01*
X033926Y030065D01*
X033776Y030065D02*
X033776Y030290D01*
X033701Y030365D01*
X033550Y030365D01*
X033475Y030290D01*
X033626Y030526D02*
X033475Y030676D01*
X033926Y030676D01*
X033926Y030526D02*
X033926Y030826D01*
X033851Y030986D02*
X033926Y031061D01*
X033926Y031211D01*
X033851Y031286D01*
X033776Y031286D01*
X033701Y031211D01*
X033701Y031061D01*
X033626Y030986D01*
X033550Y030986D01*
X033475Y031061D01*
X033475Y031211D01*
X033550Y031286D01*
X033626Y031286D01*
X033701Y031211D01*
X033701Y031061D02*
X033776Y030986D01*
X033851Y030986D01*
X033926Y030365D02*
X033776Y030215D01*
X034725Y030290D02*
X034725Y030065D01*
X035176Y030065D01*
X035026Y030065D02*
X035026Y030290D01*
X034951Y030365D01*
X034800Y030365D01*
X034725Y030290D01*
X034876Y030526D02*
X034725Y030676D01*
X035176Y030676D01*
X035176Y030526D02*
X035176Y030826D01*
X035176Y030986D02*
X035101Y030986D01*
X034800Y031286D01*
X034725Y031286D01*
X034725Y030986D01*
X035176Y030365D02*
X035026Y030215D01*
X033862Y032060D02*
X033899Y032259D01*
X034006Y032431D01*
X034167Y032552D01*
X034361Y032608D01*
X034563Y032589D01*
X034743Y032499D01*
X034880Y032350D01*
X034953Y032161D01*
X034953Y031959D01*
X034880Y031770D01*
X034743Y031621D01*
X034563Y031531D01*
X034361Y031512D01*
X034167Y031568D01*
X034006Y031689D01*
X033899Y031861D01*
X033862Y032060D01*
X032490Y032060D02*
X032527Y032259D01*
X032634Y032431D01*
X032795Y032552D01*
X032989Y032608D01*
X033191Y032589D01*
X033371Y032499D01*
X033508Y032350D01*
X033581Y032161D01*
X033581Y031959D01*
X033508Y031770D01*
X033371Y031621D01*
X033191Y031531D01*
X032989Y031512D01*
X032795Y031568D01*
X032634Y031689D01*
X032527Y031861D01*
X032490Y032060D01*
X035240Y032060D02*
X035277Y032259D01*
X035384Y032431D01*
X035545Y032552D01*
X035739Y032608D01*
X035941Y032589D01*
X036121Y032499D01*
X036258Y032350D01*
X036331Y032161D01*
X036331Y031959D01*
X036258Y031770D01*
X036121Y031621D01*
X035941Y031531D01*
X035739Y031512D01*
X035545Y031568D01*
X035384Y031689D01*
X035277Y031861D01*
X035240Y032060D01*
X038051Y029249D02*
X038088Y029448D01*
X038195Y029620D01*
X038356Y029741D01*
X038550Y029797D01*
X038752Y029778D01*
X038932Y029688D01*
X039069Y029539D01*
X039142Y029350D01*
X039142Y029148D01*
X039069Y028959D01*
X038932Y028810D01*
X038752Y028720D01*
X038550Y028701D01*
X038356Y028757D01*
X038195Y028878D01*
X038088Y029050D01*
X038051Y029249D01*
X038051Y027871D02*
X038088Y028070D01*
X038195Y028242D01*
X038356Y028363D01*
X038550Y028419D01*
X038752Y028400D01*
X038932Y028310D01*
X039069Y028161D01*
X039142Y027972D01*
X039142Y027770D01*
X039069Y027581D01*
X038932Y027432D01*
X038752Y027342D01*
X038550Y027323D01*
X038356Y027379D01*
X038195Y027500D01*
X038088Y027672D01*
X038051Y027871D01*
X038301Y023749D02*
X038338Y023948D01*
X038445Y024120D01*
X038606Y024241D01*
X038800Y024297D01*
X039002Y024278D01*
X039182Y024188D01*
X039319Y024039D01*
X039392Y023850D01*
X039392Y023648D01*
X039319Y023459D01*
X039182Y023310D01*
X039002Y023220D01*
X038800Y023201D01*
X038606Y023257D01*
X038445Y023378D01*
X038338Y023550D01*
X038301Y023749D01*
X038301Y022371D02*
X038338Y022570D01*
X038445Y022742D01*
X038606Y022863D01*
X038800Y022919D01*
X039002Y022900D01*
X039182Y022810D01*
X039319Y022661D01*
X039392Y022472D01*
X039392Y022270D01*
X039319Y022081D01*
X039182Y021932D01*
X039002Y021842D01*
X038800Y021823D01*
X038606Y021879D01*
X038445Y022000D01*
X038338Y022172D01*
X038301Y022371D01*
X038301Y020999D02*
X038338Y021198D01*
X038445Y021370D01*
X038606Y021491D01*
X038800Y021547D01*
X039002Y021528D01*
X039182Y021438D01*
X039319Y021289D01*
X039392Y021100D01*
X039392Y020898D01*
X039319Y020709D01*
X039182Y020560D01*
X039002Y020470D01*
X038800Y020451D01*
X038606Y020507D01*
X038445Y020628D01*
X038338Y020800D01*
X038301Y020999D01*
X038301Y019621D02*
X038338Y019820D01*
X038445Y019992D01*
X038606Y020113D01*
X038800Y020169D01*
X039002Y020150D01*
X039182Y020060D01*
X039319Y019911D01*
X039392Y019722D01*
X039392Y019520D01*
X039319Y019331D01*
X039182Y019182D01*
X039002Y019092D01*
X038800Y019073D01*
X038606Y019129D01*
X038445Y019250D01*
X038338Y019422D01*
X038301Y019621D01*
X038301Y018249D02*
X038338Y018448D01*
X038445Y018620D01*
X038606Y018741D01*
X038800Y018797D01*
X039002Y018778D01*
X039182Y018688D01*
X039319Y018539D01*
X039392Y018350D01*
X039392Y018148D01*
X039319Y017959D01*
X039182Y017810D01*
X039002Y017720D01*
X038800Y017701D01*
X038606Y017757D01*
X038445Y017878D01*
X038338Y018050D01*
X038301Y018249D01*
X038301Y016871D02*
X038338Y017070D01*
X038445Y017242D01*
X038606Y017363D01*
X038800Y017419D01*
X039002Y017400D01*
X039182Y017310D01*
X039319Y017161D01*
X039392Y016972D01*
X039392Y016770D01*
X039319Y016581D01*
X039182Y016432D01*
X039002Y016342D01*
X038800Y016323D01*
X038606Y016379D01*
X038445Y016500D01*
X038338Y016672D01*
X038301Y016871D01*
X038301Y015499D02*
X038338Y015698D01*
X038445Y015870D01*
X038606Y015991D01*
X038800Y016047D01*
X039002Y016028D01*
X039182Y015938D01*
X039319Y015789D01*
X039392Y015600D01*
X039392Y015398D01*
X039319Y015209D01*
X039182Y015060D01*
X039002Y014970D01*
X038800Y014951D01*
X038606Y015007D01*
X038445Y015128D01*
X038338Y015300D01*
X038301Y015499D01*
X038301Y014121D02*
X038338Y014320D01*
X038445Y014492D01*
X038606Y014613D01*
X038800Y014669D01*
X039002Y014650D01*
X039182Y014560D01*
X039319Y014411D01*
X039392Y014222D01*
X039392Y014020D01*
X039319Y013831D01*
X039182Y013682D01*
X039002Y013592D01*
X038800Y013573D01*
X038606Y013629D01*
X038445Y013750D01*
X038338Y013922D01*
X038301Y014121D01*
X035986Y013811D02*
X035986Y013510D01*
X035911Y013435D01*
X035760Y013435D01*
X035685Y013510D01*
X035525Y013510D02*
X035450Y013435D01*
X035300Y013435D01*
X035225Y013510D01*
X035065Y013435D02*
X034915Y013585D01*
X034990Y013585D02*
X034765Y013585D01*
X034765Y013435D02*
X034765Y013886D01*
X034990Y013886D01*
X035065Y013811D01*
X035065Y013660D01*
X034990Y013585D01*
X035225Y013811D02*
X035300Y013886D01*
X035450Y013886D01*
X035525Y013811D01*
X035525Y013735D01*
X035450Y013660D01*
X035525Y013585D01*
X035525Y013510D01*
X035450Y013660D02*
X035375Y013660D01*
X035685Y013735D02*
X035760Y013660D01*
X035986Y013660D01*
X035986Y013811D02*
X035911Y013886D01*
X035760Y013886D01*
X035685Y013811D01*
X035685Y013735D01*
X035760Y014685D02*
X035685Y014760D01*
X035986Y015061D01*
X035986Y014760D01*
X035911Y014685D01*
X035760Y014685D01*
X035685Y014760D02*
X035685Y015061D01*
X035760Y015136D01*
X035911Y015136D01*
X035986Y015061D01*
X035525Y014910D02*
X035225Y014910D01*
X035450Y015136D01*
X035450Y014685D01*
X035065Y014685D02*
X034915Y014835D01*
X034990Y014835D02*
X034765Y014835D01*
X034765Y014685D02*
X034765Y015136D01*
X034990Y015136D01*
X035065Y015061D01*
X035065Y014910D01*
X034990Y014835D01*
X035065Y016185D02*
X034915Y016335D01*
X034990Y016335D02*
X034765Y016335D01*
X034765Y016185D02*
X034765Y016636D01*
X034990Y016636D01*
X035065Y016561D01*
X035065Y016410D01*
X034990Y016335D01*
X035225Y016410D02*
X035450Y016636D01*
X035450Y016185D01*
X035525Y016410D02*
X035225Y016410D01*
X035685Y016410D02*
X035835Y016485D01*
X035911Y016485D01*
X035986Y016410D01*
X035986Y016260D01*
X035911Y016185D01*
X035760Y016185D01*
X035685Y016260D01*
X035685Y016410D02*
X035685Y016636D01*
X035986Y016636D01*
X035911Y017435D02*
X035986Y017510D01*
X035986Y017585D01*
X035911Y017660D01*
X035685Y017660D01*
X035685Y017510D01*
X035760Y017435D01*
X035911Y017435D01*
X035685Y017660D02*
X035835Y017811D01*
X035986Y017886D01*
X035525Y017660D02*
X035225Y017660D01*
X035450Y017886D01*
X035450Y017435D01*
X035065Y017435D02*
X034915Y017585D01*
X034990Y017585D02*
X034765Y017585D01*
X034765Y017435D02*
X034765Y017886D01*
X034990Y017886D01*
X035065Y017811D01*
X035065Y017660D01*
X034990Y017585D01*
X035065Y018935D02*
X034915Y019085D01*
X034990Y019085D02*
X034765Y019085D01*
X034765Y018935D02*
X034765Y019386D01*
X034990Y019386D01*
X035065Y019311D01*
X035065Y019160D01*
X034990Y019085D01*
X035225Y019010D02*
X035300Y018935D01*
X035450Y018935D01*
X035525Y019010D01*
X035525Y019160D01*
X035450Y019235D01*
X035375Y019235D01*
X035225Y019160D01*
X035225Y019386D01*
X035525Y019386D01*
X035685Y019311D02*
X035760Y019386D01*
X035911Y019386D01*
X035986Y019311D01*
X035685Y019010D01*
X035760Y018935D01*
X035911Y018935D01*
X035986Y019010D01*
X035986Y019311D01*
X035685Y019311D02*
X035685Y019010D01*
X035760Y020185D02*
X035911Y020185D01*
X035986Y020260D01*
X035986Y020561D01*
X035911Y020636D01*
X035760Y020636D01*
X035685Y020561D01*
X035685Y020485D01*
X035760Y020410D01*
X035986Y020410D01*
X035760Y020185D02*
X035685Y020260D01*
X035525Y020410D02*
X035225Y020410D01*
X035450Y020636D01*
X035450Y020185D01*
X035065Y020185D02*
X034915Y020335D01*
X034990Y020335D02*
X034765Y020335D01*
X034765Y020185D02*
X034765Y020636D01*
X034990Y020636D01*
X035065Y020561D01*
X035065Y020410D01*
X034990Y020335D01*
X035065Y021685D02*
X034915Y021835D01*
X034990Y021835D02*
X034765Y021835D01*
X034765Y021685D02*
X034765Y022136D01*
X034990Y022136D01*
X035065Y022061D01*
X035065Y021910D01*
X034990Y021835D01*
X035225Y021910D02*
X035525Y021910D01*
X035685Y021835D02*
X035760Y021910D01*
X035911Y021910D01*
X035986Y021835D01*
X035986Y021760D01*
X035911Y021685D01*
X035760Y021685D01*
X035685Y021760D01*
X035685Y021835D01*
X035760Y021910D02*
X035685Y021985D01*
X035685Y022061D01*
X035760Y022136D01*
X035911Y022136D01*
X035986Y022061D01*
X035986Y021985D01*
X035911Y021910D01*
X035450Y021685D02*
X035450Y022136D01*
X035225Y021910D01*
X035065Y022935D02*
X034915Y023085D01*
X034990Y023085D02*
X034765Y023085D01*
X034765Y022935D02*
X034765Y023386D01*
X034990Y023386D01*
X035065Y023311D01*
X035065Y023160D01*
X034990Y023085D01*
X035225Y023160D02*
X035450Y023386D01*
X035450Y022935D01*
X035685Y022935D02*
X035685Y023010D01*
X035986Y023311D01*
X035986Y023386D01*
X035685Y023386D01*
X035525Y023160D02*
X035225Y023160D01*
X029785Y026160D02*
X029710Y026085D01*
X029559Y026085D01*
X029484Y026160D01*
X029324Y026085D02*
X029174Y026235D01*
X029249Y026235D02*
X029024Y026235D01*
X029024Y026085D02*
X029024Y026536D01*
X029249Y026536D01*
X029324Y026461D01*
X029324Y026310D01*
X029249Y026235D01*
X029484Y026461D02*
X029559Y026536D01*
X029710Y026536D01*
X029785Y026461D01*
X029785Y026385D01*
X029710Y026310D01*
X029785Y026235D01*
X029785Y026160D01*
X029710Y026310D02*
X029635Y026310D01*
X028864Y026085D02*
X028564Y026085D01*
X028564Y026536D01*
X028864Y026536D01*
X028714Y026310D02*
X028564Y026310D01*
X028404Y026235D02*
X028254Y026085D01*
X028103Y026235D01*
X028103Y026536D01*
X027947Y026536D02*
X027796Y026536D01*
X027872Y026536D02*
X027872Y026085D01*
X027947Y026085D02*
X027796Y026085D01*
X027636Y026085D02*
X027486Y026235D01*
X027561Y026235D02*
X027336Y026235D01*
X027336Y026085D02*
X027336Y026536D01*
X027561Y026536D01*
X027636Y026461D01*
X027636Y026310D01*
X027561Y026235D01*
X027176Y026160D02*
X027101Y026085D01*
X026876Y026085D01*
X026876Y026536D01*
X027101Y026536D01*
X027176Y026461D01*
X027176Y026160D01*
X025976Y026203D02*
X025976Y025902D01*
X025976Y026053D02*
X025525Y026053D01*
X025676Y025902D01*
X025600Y025742D02*
X025525Y025667D01*
X025525Y025517D01*
X025600Y025442D01*
X025901Y025442D01*
X025976Y025517D01*
X025976Y025667D01*
X025901Y025742D01*
X025976Y025285D02*
X025976Y025135D01*
X025976Y025210D02*
X025525Y025210D01*
X025525Y025135D02*
X025525Y025285D01*
X025600Y026363D02*
X025525Y026438D01*
X025525Y026588D01*
X025600Y026663D01*
X025901Y026363D01*
X025976Y026438D01*
X025976Y026588D01*
X025901Y026663D01*
X025600Y026663D01*
X025600Y026363D02*
X025901Y026363D01*
X028404Y026235D02*
X028404Y026536D01*
X029676Y011536D02*
X029676Y011236D01*
X029676Y011386D02*
X029225Y011386D01*
X029376Y011236D01*
X029376Y011076D02*
X029300Y011076D01*
X029225Y011001D01*
X029225Y010851D01*
X029300Y010776D01*
X029300Y010615D02*
X029451Y010615D01*
X029526Y010540D01*
X029526Y010315D01*
X029676Y010315D02*
X029225Y010315D01*
X029225Y010540D01*
X029300Y010615D01*
X029526Y010465D02*
X029676Y010615D01*
X029601Y010776D02*
X029676Y010851D01*
X029676Y011001D01*
X029601Y011076D01*
X029526Y011076D01*
X029451Y011001D01*
X029451Y010926D01*
X029451Y011001D02*
X029376Y011076D01*
X030225Y011001D02*
X030300Y011076D01*
X030376Y011076D01*
X030451Y011001D01*
X030526Y011076D01*
X030601Y011076D01*
X030676Y011001D01*
X030676Y010851D01*
X030601Y010776D01*
X030676Y010615D02*
X030526Y010465D01*
X030526Y010540D02*
X030526Y010315D01*
X030676Y010315D02*
X030225Y010315D01*
X030225Y010540D01*
X030300Y010615D01*
X030451Y010615D01*
X030526Y010540D01*
X030300Y010776D02*
X030225Y010851D01*
X030225Y011001D01*
X030451Y011001D02*
X030451Y010926D01*
X030300Y011236D02*
X030225Y011311D01*
X030225Y011461D01*
X030300Y011536D01*
X030376Y011536D01*
X030676Y011236D01*
X030676Y011536D01*
X031225Y011461D02*
X031225Y011311D01*
X031300Y011236D01*
X031300Y011076D02*
X031376Y011076D01*
X031451Y011001D01*
X031526Y011076D01*
X031601Y011076D01*
X031676Y011001D01*
X031676Y010851D01*
X031601Y010776D01*
X031676Y010615D02*
X031526Y010465D01*
X031526Y010540D02*
X031526Y010315D01*
X031676Y010315D02*
X031225Y010315D01*
X031225Y010540D01*
X031300Y010615D01*
X031451Y010615D01*
X031526Y010540D01*
X031300Y010776D02*
X031225Y010851D01*
X031225Y011001D01*
X031300Y011076D01*
X031451Y011001D02*
X031451Y010926D01*
X031601Y011236D02*
X031676Y011311D01*
X031676Y011461D01*
X031601Y011536D01*
X031526Y011536D01*
X031451Y011461D01*
X031451Y011386D01*
X031451Y011461D02*
X031376Y011536D01*
X031300Y011536D01*
X031225Y011461D01*
X032225Y011461D02*
X032451Y011236D01*
X032451Y011536D01*
X032676Y011461D02*
X032225Y011461D01*
X032300Y011076D02*
X032225Y011001D01*
X032225Y010851D01*
X032300Y010776D01*
X032300Y010615D02*
X032225Y010540D01*
X032225Y010315D01*
X032676Y010315D01*
X032526Y010315D02*
X032526Y010540D01*
X032451Y010615D01*
X032300Y010615D01*
X032526Y010465D02*
X032676Y010615D01*
X032601Y010776D02*
X032676Y010851D01*
X032676Y011001D01*
X032601Y011076D01*
X032526Y011076D01*
X032451Y011001D01*
X032451Y010926D01*
X032451Y011001D02*
X032376Y011076D01*
X032300Y011076D01*
X033850Y008975D02*
X033775Y008900D01*
X033775Y008750D01*
X033850Y008675D01*
X033850Y008515D02*
X033775Y008440D01*
X033775Y008290D01*
X033850Y008214D01*
X033926Y008214D01*
X034001Y008290D01*
X034001Y008440D01*
X034076Y008515D01*
X034151Y008515D01*
X034226Y008440D01*
X034226Y008290D01*
X034151Y008214D01*
X034226Y008675D02*
X033926Y008975D01*
X033850Y008975D01*
X034226Y008975D02*
X034226Y008675D01*
X034975Y010315D02*
X034975Y010540D01*
X035050Y010615D01*
X035201Y010615D01*
X035276Y010540D01*
X035276Y010315D01*
X035426Y010315D02*
X034975Y010315D01*
X035276Y010465D02*
X035426Y010615D01*
X035351Y010776D02*
X035426Y010851D01*
X035426Y011001D01*
X035351Y011076D01*
X035276Y011076D01*
X035201Y011001D01*
X035201Y010926D01*
X035201Y011001D02*
X035126Y011076D01*
X035050Y011076D01*
X034975Y011001D01*
X034975Y010851D01*
X035050Y010776D01*
X035050Y011236D02*
X035126Y011236D01*
X035201Y011311D01*
X035201Y011461D01*
X035276Y011536D01*
X035351Y011536D01*
X035426Y011461D01*
X035426Y011311D01*
X035351Y011236D01*
X035276Y011236D01*
X035201Y011311D01*
X035201Y011461D02*
X035126Y011536D01*
X035050Y011536D01*
X034975Y011461D01*
X034975Y011311D01*
X035050Y011236D01*
X035975Y011236D02*
X035975Y011536D01*
X036050Y011536D01*
X036351Y011236D01*
X036426Y011236D01*
X036351Y011076D02*
X036426Y011001D01*
X036426Y010851D01*
X036351Y010776D01*
X036426Y010615D02*
X036276Y010465D01*
X036276Y010540D02*
X036276Y010315D01*
X036426Y010315D02*
X035975Y010315D01*
X035975Y010540D01*
X036050Y010615D01*
X036201Y010615D01*
X036276Y010540D01*
X036050Y010776D02*
X035975Y010851D01*
X035975Y011001D01*
X036050Y011076D01*
X036126Y011076D01*
X036201Y011001D01*
X036276Y011076D01*
X036351Y011076D01*
X036201Y011001D02*
X036201Y010926D01*
X036975Y011001D02*
X037050Y011076D01*
X037126Y011076D01*
X037201Y011001D01*
X037276Y011076D01*
X037351Y011076D01*
X037426Y011001D01*
X037426Y010851D01*
X037351Y010776D01*
X037426Y010615D02*
X037276Y010465D01*
X037276Y010540D02*
X037276Y010315D01*
X037426Y010315D02*
X036975Y010315D01*
X036975Y010540D01*
X037050Y010615D01*
X037201Y010615D01*
X037276Y010540D01*
X037050Y010776D02*
X036975Y010851D01*
X036975Y011001D01*
X037201Y011001D02*
X037201Y010926D01*
X037201Y011236D02*
X037201Y011461D01*
X037276Y011536D01*
X037351Y011536D01*
X037426Y011461D01*
X037426Y011311D01*
X037351Y011236D01*
X037201Y011236D01*
X037050Y011386D01*
X036975Y011536D01*
X037975Y011536D02*
X037975Y011236D01*
X038201Y011236D01*
X038126Y011386D01*
X038126Y011461D01*
X038201Y011536D01*
X038351Y011536D01*
X038426Y011461D01*
X038426Y011311D01*
X038351Y011236D01*
X038351Y011076D02*
X038426Y011001D01*
X038426Y010851D01*
X038351Y010776D01*
X038426Y010615D02*
X038276Y010465D01*
X038276Y010540D02*
X038276Y010315D01*
X038426Y010315D02*
X037975Y010315D01*
X037975Y010540D01*
X038050Y010615D01*
X038201Y010615D01*
X038276Y010540D01*
X038050Y010776D02*
X037975Y010851D01*
X037975Y011001D01*
X038050Y011076D01*
X038126Y011076D01*
X038201Y011001D01*
X038276Y011076D01*
X038351Y011076D01*
X038201Y011001D02*
X038201Y010926D01*
X039976Y008975D02*
X039976Y008675D01*
X039976Y008825D02*
X039525Y008825D01*
X039676Y008675D01*
X039600Y008515D02*
X039525Y008440D01*
X039525Y008290D01*
X039600Y008214D01*
X039676Y008214D01*
X039751Y008290D01*
X039751Y008440D01*
X039826Y008515D01*
X039901Y008515D01*
X039976Y008440D01*
X039976Y008290D01*
X039901Y008214D01*
X033490Y002560D02*
X033527Y002759D01*
X033634Y002931D01*
X033795Y003052D01*
X033989Y003108D01*
X034191Y003089D01*
X034371Y002999D01*
X034508Y002850D01*
X034581Y002661D01*
X034581Y002459D01*
X034508Y002270D01*
X034371Y002121D01*
X034191Y002031D01*
X033989Y002012D01*
X033795Y002068D01*
X033634Y002189D01*
X033527Y002361D01*
X033490Y002560D01*
X032112Y002560D02*
X032149Y002759D01*
X032256Y002931D01*
X032417Y003052D01*
X032611Y003108D01*
X032813Y003089D01*
X032993Y002999D01*
X033130Y002850D01*
X033203Y002661D01*
X033203Y002459D01*
X033130Y002270D01*
X032993Y002121D01*
X032813Y002031D01*
X032611Y002012D01*
X032417Y002068D01*
X032256Y002189D01*
X032149Y002361D01*
X032112Y002560D01*
X030740Y002560D02*
X030777Y002759D01*
X030884Y002931D01*
X031045Y003052D01*
X031239Y003108D01*
X031441Y003089D01*
X031621Y002999D01*
X031758Y002850D01*
X031831Y002661D01*
X031831Y002459D01*
X031758Y002270D01*
X031621Y002121D01*
X031441Y002031D01*
X031239Y002012D01*
X031045Y002068D01*
X030884Y002189D01*
X030777Y002361D01*
X030740Y002560D01*
X029362Y002560D02*
X029399Y002759D01*
X029506Y002931D01*
X029667Y003052D01*
X029861Y003108D01*
X030063Y003089D01*
X030243Y002999D01*
X030380Y002850D01*
X030453Y002661D01*
X030453Y002459D01*
X030380Y002270D01*
X030243Y002121D01*
X030063Y002031D01*
X029861Y002012D01*
X029667Y002068D01*
X029506Y002189D01*
X029399Y002361D01*
X029362Y002560D01*
X027990Y002560D02*
X028027Y002759D01*
X028134Y002931D01*
X028295Y003052D01*
X028489Y003108D01*
X028691Y003089D01*
X028871Y002999D01*
X029008Y002850D01*
X029081Y002661D01*
X029081Y002459D01*
X029008Y002270D01*
X028871Y002121D01*
X028691Y002031D01*
X028489Y002012D01*
X028295Y002068D01*
X028134Y002189D01*
X028027Y002361D01*
X027990Y002560D01*
X026612Y002560D02*
X026649Y002759D01*
X026756Y002931D01*
X026917Y003052D01*
X027111Y003108D01*
X027313Y003089D01*
X027493Y002999D01*
X027630Y002850D01*
X027703Y002661D01*
X027703Y002459D01*
X027630Y002270D01*
X027493Y002121D01*
X027313Y002031D01*
X027111Y002012D01*
X026917Y002068D01*
X026756Y002189D01*
X026649Y002361D01*
X026612Y002560D01*
X025240Y002560D02*
X025277Y002759D01*
X025384Y002931D01*
X025545Y003052D01*
X025739Y003108D01*
X025941Y003089D01*
X026121Y002999D01*
X026258Y002850D01*
X026331Y002661D01*
X026331Y002459D01*
X026258Y002270D01*
X026121Y002121D01*
X025941Y002031D01*
X025739Y002012D01*
X025545Y002068D01*
X025384Y002189D01*
X025277Y002361D01*
X025240Y002560D01*
X023862Y002560D02*
X023899Y002759D01*
X024006Y002931D01*
X024167Y003052D01*
X024361Y003108D01*
X024563Y003089D01*
X024743Y002999D01*
X024880Y002850D01*
X024953Y002661D01*
X024953Y002459D01*
X024880Y002270D01*
X024743Y002121D01*
X024563Y002031D01*
X024361Y002012D01*
X024167Y002068D01*
X024006Y002189D01*
X023899Y002361D01*
X023862Y002560D01*
X022490Y002560D02*
X022527Y002759D01*
X022634Y002931D01*
X022795Y003052D01*
X022989Y003108D01*
X023191Y003089D01*
X023371Y002999D01*
X023508Y002850D01*
X023581Y002661D01*
X023581Y002459D01*
X023508Y002270D01*
X023371Y002121D01*
X023191Y002031D01*
X022989Y002012D01*
X022795Y002068D01*
X022634Y002189D01*
X022527Y002361D01*
X022490Y002560D01*
X021112Y002560D02*
X021149Y002759D01*
X021256Y002931D01*
X021417Y003052D01*
X021611Y003108D01*
X021813Y003089D01*
X021993Y002999D01*
X022130Y002850D01*
X022203Y002661D01*
X022203Y002459D01*
X022130Y002270D01*
X021993Y002121D01*
X021813Y002031D01*
X021611Y002012D01*
X021417Y002068D01*
X021256Y002189D01*
X021149Y002361D01*
X021112Y002560D01*
X019740Y002560D02*
X019777Y002759D01*
X019884Y002931D01*
X020045Y003052D01*
X020239Y003108D01*
X020441Y003089D01*
X020621Y002999D01*
X020758Y002850D01*
X020831Y002661D01*
X020831Y002459D01*
X020758Y002270D01*
X020621Y002121D01*
X020441Y002031D01*
X020239Y002012D01*
X020045Y002068D01*
X019884Y002189D01*
X019777Y002361D01*
X019740Y002560D01*
X018362Y002560D02*
X018399Y002759D01*
X018506Y002931D01*
X018667Y003052D01*
X018861Y003108D01*
X019063Y003089D01*
X019243Y002999D01*
X019380Y002850D01*
X019453Y002661D01*
X019453Y002459D01*
X019380Y002270D01*
X019243Y002121D01*
X019063Y002031D01*
X018861Y002012D01*
X018667Y002068D01*
X018506Y002189D01*
X018399Y002361D01*
X018362Y002560D01*
X016990Y002560D02*
X017027Y002759D01*
X017134Y002931D01*
X017295Y003052D01*
X017489Y003108D01*
X017691Y003089D01*
X017871Y002999D01*
X018008Y002850D01*
X018081Y002661D01*
X018081Y002459D01*
X018008Y002270D01*
X017871Y002121D01*
X017691Y002031D01*
X017489Y002012D01*
X017295Y002068D01*
X017134Y002189D01*
X017027Y002361D01*
X016990Y002560D01*
X021905Y005705D02*
X021905Y005855D01*
X021905Y005780D02*
X022281Y005780D01*
X022356Y005705D01*
X022356Y005630D01*
X022281Y005555D01*
X022596Y005880D02*
X022671Y005805D01*
X022746Y005805D01*
X022821Y005880D01*
X022821Y006256D01*
X022746Y006256D02*
X022896Y006256D01*
X023056Y006256D02*
X023281Y006256D01*
X023356Y006181D01*
X023356Y006030D01*
X023281Y005955D01*
X023056Y005955D01*
X023056Y005805D02*
X023056Y006256D01*
X023516Y006181D02*
X023592Y006256D01*
X023742Y006256D01*
X023817Y006181D01*
X023817Y006105D01*
X023516Y005805D01*
X023817Y005805D01*
X022356Y006016D02*
X021905Y006016D01*
X021905Y006241D01*
X021980Y006316D01*
X022131Y006316D01*
X022206Y006241D01*
X022206Y006016D01*
X022281Y006476D02*
X022356Y006551D01*
X022356Y006701D01*
X022281Y006776D01*
X022206Y006776D01*
X022131Y006701D01*
X022131Y006626D01*
X022131Y006701D02*
X022056Y006776D01*
X021980Y006776D01*
X021905Y006701D01*
X021905Y006551D01*
X021980Y006476D01*
X022671Y007805D02*
X022746Y007805D01*
X022821Y007880D01*
X022821Y008256D01*
X022746Y008256D02*
X022896Y008256D01*
X023056Y008256D02*
X023281Y008256D01*
X023356Y008181D01*
X023356Y008030D01*
X023281Y007955D01*
X023056Y007955D01*
X023056Y007805D02*
X023056Y008256D01*
X023516Y008105D02*
X023667Y008256D01*
X023667Y007805D01*
X023817Y007805D02*
X023516Y007805D01*
X022671Y007805D02*
X022596Y007880D01*
X022671Y008805D02*
X022746Y008805D01*
X022821Y008880D01*
X022821Y009256D01*
X022746Y009256D02*
X022896Y009256D01*
X023056Y009256D02*
X023281Y009256D01*
X023356Y009181D01*
X023356Y009030D01*
X023281Y008955D01*
X023056Y008955D01*
X023056Y008805D02*
X023056Y009256D01*
X023516Y009030D02*
X023817Y009030D01*
X023742Y008805D02*
X023742Y009256D01*
X023516Y009030D01*
X022671Y008805D02*
X022596Y008880D01*
X028096Y008880D02*
X028171Y008805D01*
X028246Y008805D01*
X028321Y008880D01*
X028321Y009256D01*
X028246Y009256D02*
X028396Y009256D01*
X028556Y009256D02*
X028556Y008805D01*
X028556Y008955D02*
X028781Y008955D01*
X028856Y009030D01*
X028856Y009181D01*
X028781Y009256D01*
X028556Y009256D01*
X029016Y009181D02*
X029016Y009105D01*
X029092Y009030D01*
X029242Y009030D01*
X029317Y008955D01*
X029317Y008880D01*
X029242Y008805D01*
X029092Y008805D01*
X029016Y008880D01*
X029016Y008955D01*
X029092Y009030D01*
X029242Y009030D02*
X029317Y009105D01*
X029317Y009181D01*
X029242Y009256D01*
X029092Y009256D01*
X029016Y009181D01*
X029016Y008256D02*
X029016Y008030D01*
X029167Y008105D01*
X029242Y008105D01*
X029317Y008030D01*
X029317Y007880D01*
X029242Y007805D01*
X029092Y007805D01*
X029016Y007880D01*
X028856Y008030D02*
X028781Y007955D01*
X028556Y007955D01*
X028556Y007805D02*
X028556Y008256D01*
X028781Y008256D01*
X028856Y008181D01*
X028856Y008030D01*
X029016Y008256D02*
X029317Y008256D01*
X028396Y008256D02*
X028246Y008256D01*
X028321Y008256D02*
X028321Y007880D01*
X028246Y007805D01*
X028171Y007805D01*
X028096Y007880D01*
X028246Y007256D02*
X028396Y007256D01*
X028321Y007256D02*
X028321Y006880D01*
X028246Y006805D01*
X028171Y006805D01*
X028096Y006880D01*
X028556Y006805D02*
X028556Y007256D01*
X028781Y007256D01*
X028856Y007181D01*
X028856Y007030D01*
X028781Y006955D01*
X028556Y006955D01*
X029016Y006880D02*
X029317Y007181D01*
X029317Y007256D01*
X029016Y007256D01*
X029016Y006880D02*
X029016Y006805D01*
X028781Y006256D02*
X028856Y006181D01*
X028856Y006030D01*
X028781Y005955D01*
X028556Y005955D01*
X028556Y005805D02*
X028556Y006256D01*
X028781Y006256D01*
X029016Y006030D02*
X029242Y006030D01*
X029317Y005955D01*
X029317Y005880D01*
X029242Y005805D01*
X029092Y005805D01*
X029016Y005880D01*
X029016Y006030D01*
X029167Y006181D01*
X029317Y006256D01*
X028396Y006256D02*
X028246Y006256D01*
X028321Y006256D02*
X028321Y005880D01*
X028246Y005805D01*
X028171Y005805D01*
X028096Y005880D01*
D15*
X027556Y002856D02*
X026768Y002265D01*
X026183Y002856D02*
X025396Y002265D01*
X024806Y002856D02*
X024018Y002265D01*
X023433Y002856D02*
X022646Y002265D01*
X022056Y002856D02*
X021268Y002265D01*
X020683Y002856D02*
X019896Y002265D01*
X019306Y002856D02*
X018518Y002265D01*
X017933Y002856D02*
X017146Y002265D01*
X016556Y002856D02*
X015768Y002265D01*
X015183Y002856D02*
X014396Y002265D01*
X013806Y002856D02*
X013018Y002265D01*
X028146Y002265D02*
X028933Y002856D01*
X029518Y002265D02*
X030306Y002856D01*
X030896Y002265D02*
X031683Y002856D01*
X032268Y002265D02*
X033056Y002856D01*
X033646Y002265D02*
X034433Y002856D01*
X039146Y013728D02*
X038556Y014515D01*
X039146Y015106D02*
X038556Y015893D01*
X039146Y016478D02*
X038556Y017265D01*
X039146Y017856D02*
X038556Y018643D01*
X039146Y019228D02*
X038556Y020015D01*
X039146Y020606D02*
X038556Y021393D01*
X039146Y021978D02*
X038556Y022765D01*
X039146Y023356D02*
X038556Y024143D01*
X038896Y027478D02*
X038306Y028265D01*
X038896Y028856D02*
X038306Y029643D01*
X036183Y032356D02*
X035396Y031765D01*
X034806Y032356D02*
X034018Y031765D01*
X033433Y032356D02*
X032646Y031765D01*
X032056Y032356D02*
X031268Y031765D01*
X030683Y032356D02*
X029896Y031765D01*
X029306Y032356D02*
X028518Y031765D01*
X027933Y032356D02*
X027146Y031765D01*
X026556Y032356D02*
X025768Y031765D01*
X025183Y032356D02*
X024396Y031765D01*
X023806Y032356D02*
X023018Y031765D01*
X022433Y032356D02*
X021646Y031765D01*
X021056Y032356D02*
X020268Y031765D01*
X019683Y032356D02*
X018896Y031765D01*
X018306Y032356D02*
X017518Y031765D01*
X016933Y032356D02*
X016146Y031765D01*
X015556Y032356D02*
X014768Y031765D01*
X014183Y032356D02*
X013396Y031765D01*
X012806Y032356D02*
X012018Y031765D01*
X011433Y032356D02*
X010646Y031765D01*
X010056Y032356D02*
X009268Y031765D01*
X008683Y032356D02*
X007896Y031765D01*
X007306Y032356D02*
X006518Y031765D01*
X005933Y032356D02*
X005146Y031765D01*
X004556Y032356D02*
X003768Y031765D01*
D16*
X003473Y031273D02*
X006229Y031273D01*
X006229Y030997D01*
X003473Y030997D01*
X003473Y031273D01*
X003473Y032887D01*
X003473Y033399D01*
X006229Y033399D01*
X006229Y032887D01*
X003473Y032887D01*
X003473Y033399D02*
X003473Y033556D01*
X006229Y033556D01*
X006229Y033399D01*
X006223Y033399D02*
X006223Y032887D01*
X008979Y032887D01*
X008979Y031273D01*
X006223Y031273D01*
X006223Y032887D01*
X006229Y032887D02*
X006229Y031273D01*
X006223Y031273D02*
X006223Y030997D01*
X008979Y030997D01*
X008979Y031273D01*
X008973Y031273D02*
X011729Y031273D01*
X011729Y030997D01*
X008973Y030997D01*
X008973Y031273D01*
X008973Y032887D01*
X008973Y033399D01*
X011729Y033399D01*
X011729Y032887D01*
X008973Y032887D01*
X008979Y032887D02*
X008979Y033399D01*
X006223Y033399D01*
X006223Y033556D01*
X008979Y033556D01*
X008979Y033399D01*
X008973Y033399D02*
X008973Y033556D01*
X011729Y033556D01*
X011729Y033399D01*
X011723Y033399D02*
X011723Y032887D01*
X014479Y032887D01*
X014479Y031273D01*
X011723Y031273D01*
X011723Y032887D01*
X011729Y032887D02*
X011729Y031273D01*
X011723Y031273D02*
X011723Y030997D01*
X014479Y030997D01*
X014479Y031273D01*
X014473Y031273D02*
X017229Y031273D01*
X017229Y030997D01*
X014473Y030997D01*
X014473Y031273D01*
X014473Y032887D01*
X014473Y033399D01*
X017229Y033399D01*
X017229Y032887D01*
X014473Y032887D01*
X014479Y032887D02*
X014479Y033399D01*
X011723Y033399D01*
X011723Y033556D01*
X014479Y033556D01*
X014479Y033399D01*
X014473Y033399D02*
X014473Y033556D01*
X017229Y033556D01*
X017229Y033399D01*
X017223Y033399D02*
X017223Y032887D01*
X019979Y032887D01*
X019979Y031273D01*
X017223Y031273D01*
X017223Y032887D01*
X017229Y032887D02*
X017229Y031273D01*
X017223Y031273D02*
X017223Y030997D01*
X019979Y030997D01*
X019979Y031273D01*
X019973Y031273D02*
X022729Y031273D01*
X022729Y030997D01*
X019973Y030997D01*
X019973Y031273D01*
X019973Y032887D01*
X019973Y033399D01*
X022729Y033399D01*
X022729Y032887D01*
X019973Y032887D01*
X019979Y032887D02*
X019979Y033399D01*
X017223Y033399D01*
X017223Y033556D01*
X019979Y033556D01*
X019979Y033399D01*
X019973Y033399D02*
X019973Y033556D01*
X022729Y033556D01*
X022729Y033399D01*
X022723Y033399D02*
X022723Y032887D01*
X025479Y032887D01*
X025479Y031273D01*
X022723Y031273D01*
X022723Y032887D01*
X022729Y032887D02*
X022729Y031273D01*
X022723Y031273D02*
X022723Y030997D01*
X025479Y030997D01*
X025479Y031273D01*
X025473Y031273D02*
X028229Y031273D01*
X028229Y030997D01*
X025473Y030997D01*
X025473Y031273D01*
X025473Y032887D01*
X025473Y033399D01*
X028229Y033399D01*
X028229Y032887D01*
X025473Y032887D01*
X025479Y032887D02*
X025479Y033399D01*
X022723Y033399D01*
X022723Y033556D01*
X025479Y033556D01*
X025479Y033399D01*
X025473Y033399D02*
X025473Y033556D01*
X028229Y033556D01*
X028229Y033399D01*
X028223Y033399D02*
X028223Y032887D01*
X030979Y032887D01*
X030979Y031273D01*
X028223Y031273D01*
X028223Y032887D01*
X028229Y032887D02*
X028229Y031273D01*
X028223Y031273D02*
X028223Y030997D01*
X030979Y030997D01*
X030979Y031273D01*
X030973Y031273D02*
X033729Y031273D01*
X033729Y030997D01*
X030973Y030997D01*
X030973Y031273D01*
X030973Y032887D01*
X030973Y033399D01*
X033729Y033399D01*
X033729Y032887D01*
X030973Y032887D01*
X030979Y032887D02*
X030979Y033399D01*
X028223Y033399D01*
X028223Y033556D01*
X030979Y033556D01*
X030979Y033399D01*
X030973Y033399D02*
X030973Y033556D01*
X033729Y033556D01*
X033729Y033399D01*
X033723Y033399D02*
X033723Y032887D01*
X036479Y032887D01*
X036479Y031273D01*
X033723Y031273D01*
X033723Y032887D01*
X033729Y032887D02*
X033729Y031273D01*
X033723Y031273D02*
X033723Y030997D01*
X036479Y030997D01*
X036479Y031273D01*
X036479Y032887D02*
X036479Y033399D01*
X033723Y033399D01*
X033723Y033556D01*
X036479Y033556D01*
X036479Y033399D01*
X037538Y029938D02*
X037813Y029938D01*
X037813Y027182D01*
X037538Y027182D01*
X037538Y029938D01*
X037813Y029938D02*
X039428Y029938D01*
X039939Y029938D01*
X039939Y027182D01*
X039428Y027182D01*
X039428Y029938D01*
X039939Y029938D02*
X040097Y029938D01*
X040097Y027182D01*
X039939Y027182D01*
X039428Y027182D02*
X037813Y027182D01*
X038024Y024438D02*
X037512Y024438D01*
X037512Y021682D01*
X038024Y021682D01*
X038024Y024438D01*
X039638Y024438D01*
X039638Y021682D01*
X038024Y021682D01*
X038024Y021688D02*
X038024Y018932D01*
X037512Y018932D01*
X037512Y021688D01*
X038024Y021688D01*
X039638Y021688D01*
X039638Y018932D01*
X038024Y018932D01*
X038024Y018938D02*
X038024Y016182D01*
X037512Y016182D01*
X037512Y018938D01*
X038024Y018938D01*
X039638Y018938D01*
X039638Y016182D01*
X038024Y016182D01*
X038024Y016188D02*
X038024Y013432D01*
X037512Y013432D01*
X037512Y016188D01*
X038024Y016188D01*
X039638Y016188D01*
X039638Y013432D01*
X038024Y013432D01*
X037512Y013432D02*
X037355Y013432D01*
X037355Y016188D01*
X037512Y016188D01*
X037512Y016182D02*
X037355Y016182D01*
X037355Y018938D01*
X037512Y018938D01*
X037512Y018932D02*
X037355Y018932D01*
X037355Y021688D01*
X037512Y021688D01*
X037512Y021682D02*
X037355Y021682D01*
X037355Y024438D01*
X037512Y024438D01*
X039638Y024438D02*
X039914Y024438D01*
X039914Y021682D01*
X039638Y021682D01*
X039638Y021688D02*
X039914Y021688D01*
X039914Y018932D01*
X039638Y018932D01*
X039638Y018938D02*
X039914Y018938D01*
X039914Y016182D01*
X039638Y016182D01*
X039638Y016188D02*
X039914Y016188D01*
X039914Y013432D01*
X039638Y013432D01*
X034729Y004056D02*
X031973Y004056D01*
X031973Y003899D01*
X031973Y003387D01*
X034729Y003387D01*
X034729Y001773D01*
X031973Y001773D01*
X031973Y003387D01*
X031979Y003387D02*
X029223Y003387D01*
X029223Y003899D01*
X031979Y003899D01*
X031979Y003387D01*
X031979Y001773D01*
X029223Y001773D01*
X029223Y003387D01*
X029229Y003387D02*
X026473Y003387D01*
X026473Y003899D01*
X029229Y003899D01*
X029229Y003387D01*
X029229Y001773D01*
X026473Y001773D01*
X026473Y003387D01*
X026479Y003387D02*
X023723Y003387D01*
X023723Y003899D01*
X026479Y003899D01*
X026479Y003387D01*
X026479Y001773D01*
X023723Y001773D01*
X023723Y003387D01*
X023729Y003387D02*
X020973Y003387D01*
X020973Y003899D01*
X023729Y003899D01*
X023729Y003387D01*
X023729Y001773D01*
X020973Y001773D01*
X020973Y003387D01*
X020979Y003387D02*
X018223Y003387D01*
X018223Y003899D01*
X020979Y003899D01*
X020979Y003387D01*
X020979Y001773D01*
X018223Y001773D01*
X018223Y003387D01*
X018229Y003387D02*
X015473Y003387D01*
X015473Y003899D01*
X018229Y003899D01*
X018229Y003387D01*
X018229Y001773D01*
X015473Y001773D01*
X015473Y003387D01*
X015479Y003387D02*
X012723Y003387D01*
X012723Y003899D01*
X015479Y003899D01*
X015479Y003387D01*
X015479Y001773D01*
X012723Y001773D01*
X012723Y003387D01*
X012723Y003899D02*
X012723Y004056D01*
X015479Y004056D01*
X015479Y003899D01*
X015473Y003899D02*
X015473Y004056D01*
X018229Y004056D01*
X018229Y003899D01*
X018223Y003899D02*
X018223Y004056D01*
X020979Y004056D01*
X020979Y003899D01*
X020973Y003899D02*
X020973Y004056D01*
X023729Y004056D01*
X023729Y003899D01*
X023723Y003899D02*
X023723Y004056D01*
X026479Y004056D01*
X026479Y003899D01*
X026473Y003899D02*
X026473Y004056D01*
X029229Y004056D01*
X029229Y003899D01*
X029223Y003899D02*
X029223Y004056D01*
X031979Y004056D01*
X031979Y003899D01*
X031973Y003899D02*
X034729Y003899D01*
X034729Y003387D01*
X034729Y003899D02*
X034729Y004056D01*
X034729Y001773D02*
X034729Y001497D01*
X031973Y001497D01*
X031973Y001773D01*
X031979Y001773D02*
X031979Y001497D01*
X029223Y001497D01*
X029223Y001773D01*
X029229Y001773D02*
X029229Y001497D01*
X026473Y001497D01*
X026473Y001773D01*
X026479Y001773D02*
X026479Y001497D01*
X023723Y001497D01*
X023723Y001773D01*
X023729Y001773D02*
X023729Y001497D01*
X020973Y001497D01*
X020973Y001773D01*
X020979Y001773D02*
X020979Y001497D01*
X018223Y001497D01*
X018223Y001773D01*
X018229Y001773D02*
X018229Y001497D01*
X015473Y001497D01*
X015473Y001773D01*
X015479Y001773D02*
X015479Y001497D01*
X012723Y001497D01*
X012723Y001773D01*
D17*
X011498Y001865D02*
X011401Y001962D01*
X011449Y001962D02*
X011304Y001962D01*
X011304Y001865D02*
X011304Y002155D01*
X011449Y002155D01*
X011498Y002107D01*
X011498Y002010D01*
X011449Y001962D01*
X011203Y001865D02*
X011010Y001865D01*
X011010Y002155D01*
X011203Y002155D01*
X011106Y002010D02*
X011010Y002010D01*
X010909Y001865D02*
X010909Y002155D01*
X010715Y002155D02*
X010715Y001865D01*
X010812Y001962D01*
X010909Y001865D01*
X010614Y001914D02*
X010614Y002107D01*
X010566Y002155D01*
X010469Y002155D01*
X010420Y002107D01*
X010420Y001914D01*
X010469Y001865D01*
X010566Y001865D01*
X010614Y001914D01*
X010319Y002010D02*
X010271Y001962D01*
X010126Y001962D01*
X010126Y001865D02*
X010126Y002155D01*
X010271Y002155D01*
X010319Y002107D01*
X010319Y002010D01*
X009466Y003305D02*
X009272Y003499D01*
X009224Y003499D01*
X009176Y003450D01*
X009176Y003354D01*
X009224Y003305D01*
X009466Y003305D02*
X009466Y003499D01*
X009466Y003600D02*
X009272Y003793D01*
X009224Y003793D01*
X009176Y003745D01*
X009176Y003648D01*
X009224Y003600D01*
X009466Y003600D02*
X009466Y003793D01*
X009417Y003895D02*
X009224Y004088D01*
X009417Y004088D01*
X009466Y004040D01*
X009466Y003943D01*
X009417Y003895D01*
X009224Y003895D01*
X009176Y003943D01*
X009176Y004040D01*
X009224Y004088D01*
X009284Y004711D02*
X009236Y004760D01*
X009236Y004856D01*
X009284Y004905D01*
X009332Y004905D01*
X009526Y004711D01*
X009526Y004905D01*
X009526Y005006D02*
X009332Y005199D01*
X009284Y005199D01*
X009236Y005151D01*
X009236Y005054D01*
X009284Y005006D01*
X009526Y005006D02*
X009526Y005199D01*
X009477Y005301D02*
X009526Y005349D01*
X009526Y005446D01*
X009477Y005494D01*
X009284Y005494D01*
X009477Y005301D01*
X009284Y005301D01*
X009236Y005349D01*
X009236Y005446D01*
X009284Y005494D01*
X009284Y007211D02*
X009236Y007260D01*
X009236Y007356D01*
X009284Y007405D01*
X009332Y007405D01*
X009526Y007211D01*
X009526Y007405D01*
X009526Y007506D02*
X009332Y007699D01*
X009284Y007699D01*
X009236Y007651D01*
X009236Y007554D01*
X009284Y007506D01*
X009526Y007506D02*
X009526Y007699D01*
X009477Y007801D02*
X009526Y007849D01*
X009526Y007946D01*
X009477Y007994D01*
X009284Y007994D01*
X009477Y007801D01*
X009284Y007801D01*
X009236Y007849D01*
X009236Y007946D01*
X009284Y007994D01*
X009284Y009711D02*
X009236Y009760D01*
X009236Y009856D01*
X009284Y009905D01*
X009332Y009905D01*
X009526Y009711D01*
X009526Y009905D01*
X009526Y010006D02*
X009332Y010199D01*
X009284Y010199D01*
X009236Y010151D01*
X009236Y010054D01*
X009284Y010006D01*
X009526Y010006D02*
X009526Y010199D01*
X009477Y010301D02*
X009526Y010349D01*
X009526Y010446D01*
X009477Y010494D01*
X009284Y010494D01*
X009477Y010301D01*
X009284Y010301D01*
X009236Y010349D01*
X009236Y010446D01*
X009284Y010494D01*
X006546Y010525D02*
X006497Y010573D01*
X006256Y010573D01*
X006256Y010675D02*
X006546Y010868D01*
X006256Y010868D01*
X006256Y010675D02*
X006546Y010675D01*
X006546Y010525D02*
X006546Y010428D01*
X006497Y010380D01*
X006256Y010380D01*
X006304Y010279D02*
X006401Y010279D01*
X006449Y010230D01*
X006449Y010085D01*
X006546Y010085D02*
X006256Y010085D01*
X006256Y010230D01*
X006304Y010279D01*
X006449Y010182D02*
X006546Y010279D01*
X006546Y011264D02*
X006352Y011457D01*
X006304Y011457D01*
X006256Y011409D01*
X006256Y011312D01*
X006304Y011264D01*
X006546Y011264D02*
X006546Y011457D01*
X006546Y008957D02*
X006546Y008764D01*
X006546Y008861D02*
X006256Y008861D01*
X006352Y008764D01*
X006256Y008368D02*
X006546Y008368D01*
X006256Y008175D01*
X006546Y008175D01*
X006497Y008073D02*
X006256Y008073D01*
X006256Y007880D02*
X006497Y007880D01*
X006546Y007928D01*
X006546Y008025D01*
X006497Y008073D01*
X006546Y007779D02*
X006449Y007682D01*
X006449Y007730D02*
X006449Y007585D01*
X006546Y007585D02*
X006256Y007585D01*
X006256Y007730D01*
X006304Y007779D01*
X006401Y007779D01*
X006449Y007730D01*
X006449Y006502D02*
X006497Y006502D01*
X006546Y006454D01*
X006546Y006357D01*
X006497Y006308D01*
X006497Y006207D02*
X006256Y006207D01*
X006304Y006308D02*
X006352Y006308D01*
X006401Y006357D01*
X006401Y006454D01*
X006449Y006502D01*
X006304Y006502D02*
X006256Y006454D01*
X006256Y006357D01*
X006304Y006308D01*
X006497Y006207D02*
X006546Y006159D01*
X006546Y006062D01*
X006497Y006014D01*
X006256Y006014D01*
X006256Y005913D02*
X006256Y005719D01*
X006256Y005816D02*
X006546Y005816D01*
X006546Y005618D02*
X006352Y005618D01*
X006256Y005521D01*
X006352Y005425D01*
X006546Y005425D01*
X006401Y005425D02*
X006401Y005618D01*
X006256Y005323D02*
X006256Y005130D01*
X006256Y005227D02*
X006546Y005227D01*
X006497Y005029D02*
X006546Y004980D01*
X006546Y004884D01*
X006497Y004835D01*
X006401Y004884D02*
X006401Y004980D01*
X006449Y005029D01*
X006497Y005029D01*
X006401Y004884D02*
X006352Y004835D01*
X006304Y004835D01*
X006256Y004884D01*
X006256Y004980D01*
X006304Y005029D01*
X004988Y004817D02*
X004988Y004720D01*
X004939Y004672D01*
X004794Y004672D01*
X004794Y004575D02*
X004794Y004865D01*
X004939Y004865D01*
X004988Y004817D01*
X004891Y004672D02*
X004988Y004575D01*
X004693Y004575D02*
X004500Y004575D01*
X004500Y004865D01*
X004693Y004865D01*
X004596Y004720D02*
X004500Y004720D01*
X004399Y004575D02*
X004399Y004865D01*
X004205Y004865D02*
X004205Y004575D01*
X004302Y004672D01*
X004399Y004575D01*
X004104Y004624D02*
X004104Y004817D01*
X004056Y004865D01*
X003959Y004865D01*
X003910Y004817D01*
X003910Y004624D01*
X003959Y004575D01*
X004056Y004575D01*
X004104Y004624D01*
X003809Y004720D02*
X003761Y004672D01*
X003616Y004672D01*
X003616Y004575D02*
X003616Y004865D01*
X003761Y004865D01*
X003809Y004817D01*
X003809Y004720D01*
X012426Y006604D02*
X012474Y006555D01*
X012426Y006604D02*
X012426Y006700D01*
X012474Y006749D01*
X012522Y006749D01*
X012716Y006555D01*
X012716Y006749D01*
X012716Y006850D02*
X012522Y007043D01*
X012474Y007043D01*
X012426Y006995D01*
X012426Y006898D01*
X012474Y006850D01*
X012716Y006850D02*
X012716Y007043D01*
X012667Y007145D02*
X012474Y007338D01*
X012667Y007338D01*
X012716Y007290D01*
X012716Y007193D01*
X012667Y007145D01*
X012474Y007145D01*
X012426Y007193D01*
X012426Y007290D01*
X012474Y007338D01*
X012474Y010555D02*
X012426Y010604D01*
X012426Y010700D01*
X012474Y010749D01*
X012522Y010749D01*
X012716Y010555D01*
X012716Y010749D01*
X012716Y010850D02*
X012522Y011043D01*
X012474Y011043D01*
X012426Y010995D01*
X012426Y010898D01*
X012474Y010850D01*
X012716Y010850D02*
X012716Y011043D01*
X012667Y011145D02*
X012474Y011338D01*
X012667Y011338D01*
X012716Y011290D01*
X012716Y011193D01*
X012667Y011145D01*
X012474Y011145D01*
X012426Y011193D01*
X012426Y011290D01*
X012474Y011338D01*
X018866Y008115D02*
X018866Y007825D01*
X018866Y007922D02*
X019011Y007922D01*
X019059Y007970D01*
X019059Y008067D01*
X019011Y008115D01*
X018866Y008115D01*
X018963Y007922D02*
X019059Y007825D01*
X019160Y007825D02*
X019354Y007825D01*
X019257Y007825D02*
X019257Y008115D01*
X019160Y008019D01*
X019455Y007777D02*
X019649Y007777D01*
X019750Y007874D02*
X019798Y007825D01*
X019895Y007825D01*
X019943Y007874D01*
X020044Y007874D02*
X020093Y007825D01*
X020189Y007825D01*
X020238Y007874D01*
X020238Y008067D01*
X020189Y008115D01*
X020093Y008115D01*
X020044Y008067D01*
X020044Y007874D01*
X019943Y008067D02*
X019895Y008115D01*
X019798Y008115D01*
X019750Y008067D01*
X019750Y007874D01*
X020339Y007825D02*
X020339Y008115D01*
X020436Y008019D01*
X020532Y008115D01*
X020532Y007825D01*
X020634Y007825D02*
X020634Y008115D01*
X020730Y008019D01*
X020827Y008115D01*
X020827Y007825D01*
X020928Y007874D02*
X020977Y007825D01*
X021073Y007825D01*
X021122Y007874D01*
X021122Y008067D01*
X021073Y008115D01*
X020977Y008115D01*
X020928Y008067D01*
X020928Y007874D01*
X021223Y007825D02*
X021223Y008115D01*
X021416Y007825D01*
X021416Y008115D01*
X021518Y008067D02*
X021566Y008115D01*
X021663Y008115D01*
X021711Y008067D01*
X021711Y008019D01*
X021518Y007825D01*
X021711Y007825D01*
X021689Y007615D02*
X021593Y007615D01*
X021544Y007567D01*
X021544Y007374D01*
X021593Y007325D01*
X021689Y007325D01*
X021738Y007374D01*
X021839Y007325D02*
X022032Y007325D01*
X021936Y007325D02*
X021936Y007615D01*
X021839Y007519D01*
X021738Y007567D02*
X021689Y007615D01*
X021443Y007615D02*
X021443Y007325D01*
X021250Y007615D01*
X021250Y007325D01*
X021149Y007277D02*
X020955Y007277D01*
X020854Y007325D02*
X020660Y007325D01*
X020757Y007325D02*
X020757Y007615D01*
X020660Y007519D01*
X020559Y007567D02*
X020559Y007470D01*
X020511Y007422D01*
X020366Y007422D01*
X020463Y007422D02*
X020559Y007325D01*
X020366Y007325D02*
X020366Y007615D01*
X020511Y007615D01*
X020559Y007567D01*
X020156Y008584D02*
X020156Y008729D01*
X020107Y008778D01*
X019914Y008778D01*
X019866Y008729D01*
X019866Y008584D01*
X020156Y008584D01*
X020107Y008879D02*
X020156Y008927D01*
X020156Y009024D01*
X020107Y009072D01*
X020059Y009072D01*
X020011Y009024D01*
X020011Y008927D01*
X019962Y008879D01*
X019914Y008879D01*
X019866Y008927D01*
X019866Y009024D01*
X019914Y009072D01*
X019914Y009173D02*
X019866Y009222D01*
X019866Y009319D01*
X019914Y009367D01*
X019962Y009367D01*
X020156Y009173D01*
X020156Y009367D01*
X020156Y009565D02*
X020011Y009565D01*
X019914Y009661D01*
X019866Y009661D01*
X020011Y009565D02*
X019914Y009468D01*
X019866Y009468D01*
X020011Y009763D02*
X020011Y009956D01*
X019962Y010057D02*
X020011Y010106D01*
X020011Y010202D01*
X020059Y010251D01*
X020107Y010251D01*
X020156Y010202D01*
X020156Y010106D01*
X020107Y010057D01*
X019962Y010057D02*
X019914Y010057D01*
X019866Y010106D01*
X019866Y010202D01*
X019914Y010251D01*
X020011Y010352D02*
X020011Y010545D01*
X020156Y010647D02*
X020156Y010792D01*
X020107Y010840D01*
X019914Y010840D01*
X019866Y010792D01*
X019866Y010647D01*
X020156Y010647D01*
X020107Y010941D02*
X020156Y010990D01*
X020156Y011086D01*
X020107Y011135D01*
X020107Y011236D02*
X020156Y011284D01*
X020156Y011381D01*
X020107Y011429D01*
X020011Y011429D01*
X019962Y011381D01*
X019962Y011333D01*
X020011Y011236D01*
X019866Y011236D01*
X019866Y011429D01*
X019866Y011531D02*
X020059Y011531D01*
X020156Y011627D01*
X020059Y011724D01*
X019866Y011724D01*
X019914Y011135D02*
X019866Y011086D01*
X019866Y010990D01*
X019914Y010941D01*
X020107Y010941D01*
X024491Y008365D02*
X024491Y008075D01*
X024491Y008172D02*
X024636Y008172D01*
X024684Y008220D01*
X024684Y008317D01*
X024636Y008365D01*
X024491Y008365D01*
X024588Y008172D02*
X024684Y008075D01*
X024785Y008075D02*
X024979Y008269D01*
X024979Y008317D01*
X024931Y008365D01*
X024834Y008365D01*
X024785Y008317D01*
X024785Y008075D02*
X024979Y008075D01*
X025080Y008027D02*
X025274Y008027D01*
X025375Y008124D02*
X025423Y008075D01*
X025520Y008075D01*
X025568Y008124D01*
X025669Y008124D02*
X025669Y008317D01*
X025718Y008365D01*
X025814Y008365D01*
X025863Y008317D01*
X025863Y008124D01*
X025814Y008075D01*
X025718Y008075D01*
X025669Y008124D01*
X025568Y008317D02*
X025520Y008365D01*
X025423Y008365D01*
X025375Y008317D01*
X025375Y008124D01*
X025366Y008584D02*
X025366Y008729D01*
X025414Y008778D01*
X025607Y008778D01*
X025656Y008729D01*
X025656Y008584D01*
X025366Y008584D01*
X025414Y008879D02*
X025462Y008879D01*
X025511Y008927D01*
X025511Y009024D01*
X025559Y009072D01*
X025607Y009072D01*
X025656Y009024D01*
X025656Y008927D01*
X025607Y008879D01*
X025414Y008879D02*
X025366Y008927D01*
X025366Y009024D01*
X025414Y009072D01*
X025414Y009173D02*
X025366Y009222D01*
X025366Y009319D01*
X025414Y009367D01*
X025462Y009367D01*
X025656Y009173D01*
X025656Y009367D01*
X025656Y009565D02*
X025511Y009565D01*
X025414Y009661D01*
X025366Y009661D01*
X025511Y009565D02*
X025414Y009468D01*
X025366Y009468D01*
X025511Y009763D02*
X025511Y009956D01*
X025462Y010057D02*
X025511Y010106D01*
X025511Y010202D01*
X025559Y010251D01*
X025607Y010251D01*
X025656Y010202D01*
X025656Y010106D01*
X025607Y010057D01*
X025462Y010057D02*
X025414Y010057D01*
X025366Y010106D01*
X025366Y010202D01*
X025414Y010251D01*
X025511Y010352D02*
X025511Y010545D01*
X025366Y010647D02*
X025656Y010647D01*
X025656Y010792D01*
X025607Y010840D01*
X025414Y010840D01*
X025366Y010792D01*
X025366Y010647D01*
X025414Y010941D02*
X025607Y010941D01*
X025656Y010990D01*
X025656Y011086D01*
X025607Y011135D01*
X025607Y011236D02*
X025656Y011284D01*
X025656Y011381D01*
X025607Y011429D01*
X025511Y011429D01*
X025462Y011381D01*
X025462Y011333D01*
X025511Y011236D01*
X025366Y011236D01*
X025366Y011429D01*
X025366Y011531D02*
X025559Y011531D01*
X025656Y011627D01*
X025559Y011724D01*
X025366Y011724D01*
X025414Y011135D02*
X025366Y011086D01*
X025366Y010990D01*
X025414Y010941D01*
X025964Y008365D02*
X026061Y008269D01*
X026157Y008365D01*
X026157Y008075D01*
X026259Y008075D02*
X026259Y008365D01*
X026355Y008269D01*
X026452Y008365D01*
X026452Y008075D01*
X026553Y008124D02*
X026553Y008317D01*
X026602Y008365D01*
X026698Y008365D01*
X026747Y008317D01*
X026747Y008124D01*
X026698Y008075D01*
X026602Y008075D01*
X026553Y008124D01*
X026848Y008075D02*
X026848Y008365D01*
X027041Y008075D01*
X027041Y008365D01*
X027143Y008317D02*
X027191Y008365D01*
X027288Y008365D01*
X027336Y008317D01*
X027336Y008269D01*
X027143Y008075D01*
X027336Y008075D01*
X027387Y007865D02*
X027339Y007817D01*
X027387Y007865D02*
X027484Y007865D01*
X027532Y007817D01*
X027532Y007769D01*
X027339Y007575D01*
X027532Y007575D01*
X027238Y007624D02*
X027189Y007575D01*
X027093Y007575D01*
X027044Y007624D01*
X027044Y007817D01*
X027093Y007865D01*
X027189Y007865D01*
X027238Y007817D01*
X026943Y007865D02*
X026943Y007575D01*
X026750Y007865D01*
X026750Y007575D01*
X026649Y007527D02*
X026455Y007527D01*
X026354Y007575D02*
X026160Y007575D01*
X026354Y007769D01*
X026354Y007817D01*
X026306Y007865D01*
X026209Y007865D01*
X026160Y007817D01*
X026059Y007817D02*
X026059Y007720D01*
X026011Y007672D01*
X025866Y007672D01*
X025963Y007672D02*
X026059Y007575D01*
X025866Y007575D02*
X025866Y007865D01*
X026011Y007865D01*
X026059Y007817D01*
X025964Y008075D02*
X025964Y008365D01*
X026011Y006115D02*
X026059Y006067D01*
X026059Y005970D01*
X026011Y005922D01*
X025866Y005922D01*
X025963Y005922D02*
X026059Y005825D01*
X026160Y005825D02*
X026354Y006019D01*
X026354Y006067D01*
X026306Y006115D01*
X026209Y006115D01*
X026160Y006067D01*
X026011Y006115D02*
X025866Y006115D01*
X025866Y005825D01*
X025866Y005615D02*
X026011Y005615D01*
X026059Y005567D01*
X026059Y005470D01*
X026011Y005422D01*
X025866Y005422D01*
X025963Y005422D02*
X026059Y005325D01*
X026160Y005325D02*
X026354Y005519D01*
X026354Y005567D01*
X026306Y005615D01*
X026209Y005615D01*
X026160Y005567D01*
X026160Y005325D02*
X026354Y005325D01*
X026455Y005277D02*
X026649Y005277D01*
X026750Y005325D02*
X026750Y005615D01*
X026943Y005325D01*
X026943Y005615D01*
X027044Y005567D02*
X027044Y005374D01*
X027093Y005325D01*
X027189Y005325D01*
X027238Y005374D01*
X027238Y005567D01*
X027189Y005615D01*
X027093Y005615D01*
X027044Y005567D01*
X027093Y005825D02*
X027189Y005825D01*
X027238Y005874D01*
X027339Y005825D02*
X027532Y005825D01*
X027436Y005825D02*
X027436Y006115D01*
X027339Y006019D01*
X027238Y006067D02*
X027189Y006115D01*
X027093Y006115D01*
X027044Y006067D01*
X027044Y005874D01*
X027093Y005825D01*
X026943Y005825D02*
X026943Y006115D01*
X026750Y006115D02*
X026750Y005825D01*
X026649Y005777D02*
X026455Y005777D01*
X026354Y005825D02*
X026160Y005825D01*
X025866Y005615D02*
X025866Y005325D01*
X025808Y004198D02*
X025808Y003908D01*
X025711Y003908D02*
X025905Y003908D01*
X025711Y004101D02*
X025808Y004198D01*
X025610Y004198D02*
X025610Y003908D01*
X025416Y004198D01*
X025416Y003908D01*
X025317Y003908D02*
X025220Y003908D01*
X025268Y003908D02*
X025268Y004198D01*
X025220Y004198D02*
X025317Y004198D01*
X025119Y003860D02*
X024925Y003860D01*
X024824Y003956D02*
X024824Y004053D01*
X024727Y004053D01*
X024631Y003956D02*
X024679Y003908D01*
X024776Y003908D01*
X024824Y003956D01*
X024631Y003956D02*
X024631Y004150D01*
X024679Y004198D01*
X024776Y004198D01*
X024824Y004150D01*
X024531Y004198D02*
X024434Y004198D01*
X024483Y004198D02*
X024483Y003908D01*
X024531Y003908D02*
X024434Y003908D01*
X024333Y003956D02*
X024285Y003908D01*
X024188Y003908D01*
X024140Y003956D01*
X024188Y004053D02*
X024285Y004053D01*
X024333Y004005D01*
X024333Y003956D01*
X024188Y004053D02*
X024140Y004101D01*
X024140Y004150D01*
X024188Y004198D01*
X024285Y004198D01*
X024333Y004150D01*
X022913Y003908D02*
X022720Y003908D01*
X022817Y003908D02*
X022817Y004198D01*
X022720Y004101D01*
X022619Y003860D02*
X022425Y003860D01*
X022324Y003956D02*
X022324Y004150D01*
X022276Y004198D01*
X022179Y004198D01*
X022131Y004150D01*
X022131Y003956D01*
X022179Y003908D01*
X022276Y003908D01*
X022324Y003956D01*
X022030Y003956D02*
X021981Y003908D01*
X021884Y003908D01*
X021836Y003956D01*
X021884Y004053D02*
X021981Y004053D01*
X022030Y004005D01*
X022030Y003956D01*
X021884Y004053D02*
X021836Y004101D01*
X021836Y004150D01*
X021884Y004198D01*
X021981Y004198D01*
X022030Y004150D01*
X021736Y004198D02*
X021640Y004198D01*
X021688Y004198D02*
X021688Y003908D01*
X021640Y003908D02*
X021736Y003908D01*
X020458Y003908D02*
X020265Y003908D01*
X020361Y003908D02*
X020361Y004198D01*
X020265Y004101D01*
X020163Y004198D02*
X020163Y003908D01*
X019970Y004198D01*
X019970Y003908D01*
X019870Y003908D02*
X019774Y003908D01*
X019822Y003908D02*
X019822Y004198D01*
X019774Y004198D02*
X019870Y004198D01*
X019672Y003860D02*
X019479Y003860D01*
X019378Y003956D02*
X019329Y003908D01*
X019233Y003908D01*
X019184Y003956D01*
X019184Y004150D01*
X019233Y004198D01*
X019329Y004198D01*
X019378Y004150D01*
X019083Y004101D02*
X019083Y003908D01*
X019083Y004053D02*
X018890Y004053D01*
X018890Y004101D02*
X018986Y004198D01*
X019083Y004101D01*
X018890Y004101D02*
X018890Y003908D01*
X017413Y003908D02*
X017220Y003908D01*
X017413Y004101D01*
X017413Y004150D01*
X017365Y004198D01*
X017268Y004198D01*
X017220Y004150D01*
X017119Y003860D02*
X016925Y003860D01*
X016824Y003956D02*
X016776Y003908D01*
X016679Y003908D01*
X016631Y003956D01*
X016631Y004150D01*
X016679Y004198D01*
X016776Y004198D01*
X016824Y004150D01*
X016824Y003956D01*
X016530Y003956D02*
X016481Y003908D01*
X016384Y003908D01*
X016336Y003956D01*
X016384Y004053D02*
X016481Y004053D01*
X016530Y004005D01*
X016530Y003956D01*
X016384Y004053D02*
X016336Y004101D01*
X016336Y004150D01*
X016384Y004198D01*
X016481Y004198D01*
X016530Y004150D01*
X016236Y004198D02*
X016140Y004198D01*
X016188Y004198D02*
X016188Y003908D01*
X016140Y003908D02*
X016236Y003908D01*
X014958Y003908D02*
X014765Y003908D01*
X014958Y004101D01*
X014958Y004150D01*
X014910Y004198D01*
X014813Y004198D01*
X014765Y004150D01*
X014663Y004198D02*
X014663Y003908D01*
X014470Y004198D01*
X014470Y003908D01*
X014370Y003908D02*
X014274Y003908D01*
X014322Y003908D02*
X014322Y004198D01*
X014274Y004198D02*
X014370Y004198D01*
X014172Y003860D02*
X013979Y003860D01*
X013878Y003956D02*
X013829Y003908D01*
X013733Y003908D01*
X013684Y003956D01*
X013684Y004150D01*
X013733Y004198D01*
X013829Y004198D01*
X013878Y004150D01*
X013583Y004101D02*
X013583Y003908D01*
X013583Y004053D02*
X013390Y004053D01*
X013390Y004101D02*
X013486Y004198D01*
X013583Y004101D01*
X013390Y004101D02*
X013390Y003908D01*
X020366Y005325D02*
X020366Y005615D01*
X020511Y005615D01*
X020559Y005567D01*
X020559Y005470D01*
X020511Y005422D01*
X020366Y005422D01*
X020463Y005422D02*
X020559Y005325D01*
X020660Y005325D02*
X020854Y005325D01*
X020757Y005325D02*
X020757Y005615D01*
X020660Y005519D01*
X020660Y005825D02*
X020854Y005825D01*
X020757Y005825D02*
X020757Y006115D01*
X020660Y006019D01*
X020559Y006067D02*
X020559Y005970D01*
X020511Y005922D01*
X020366Y005922D01*
X020463Y005922D02*
X020559Y005825D01*
X020366Y005825D02*
X020366Y006115D01*
X020511Y006115D01*
X020559Y006067D01*
X020955Y005777D02*
X021149Y005777D01*
X021250Y005825D02*
X021250Y006115D01*
X021443Y005825D01*
X021443Y006115D01*
X021544Y006067D02*
X021544Y005874D01*
X021593Y005825D01*
X021689Y005825D01*
X021738Y005874D01*
X021839Y005825D02*
X022032Y006019D01*
X022032Y006067D01*
X021984Y006115D01*
X021887Y006115D01*
X021839Y006067D01*
X021738Y006067D02*
X021689Y006115D01*
X021593Y006115D01*
X021544Y006067D01*
X021839Y005825D02*
X022032Y005825D01*
X021984Y005615D02*
X021887Y005615D01*
X021839Y005567D01*
X021738Y005567D02*
X021689Y005615D01*
X021593Y005615D01*
X021544Y005567D01*
X021544Y005374D01*
X021593Y005325D01*
X021689Y005325D01*
X021738Y005374D01*
X021738Y005567D01*
X021984Y005615D02*
X022032Y005567D01*
X022032Y005519D01*
X021839Y005325D01*
X022032Y005325D01*
X021443Y005325D02*
X021443Y005615D01*
X021250Y005615D02*
X021443Y005325D01*
X021250Y005325D02*
X021250Y005615D01*
X021149Y005277D02*
X020955Y005277D01*
X026640Y004150D02*
X026640Y004101D01*
X026688Y004053D01*
X026785Y004053D01*
X026833Y004005D01*
X026833Y003956D01*
X026785Y003908D01*
X026688Y003908D01*
X026640Y003956D01*
X026640Y004150D02*
X026688Y004198D01*
X026785Y004198D01*
X026833Y004150D01*
X026934Y004198D02*
X027031Y004198D01*
X026983Y004198D02*
X026983Y003908D01*
X027031Y003908D02*
X026934Y003908D01*
X027131Y003956D02*
X027179Y003908D01*
X027276Y003908D01*
X027324Y003956D01*
X027324Y004053D01*
X027227Y004053D01*
X027131Y004150D02*
X027131Y003956D01*
X027131Y004150D02*
X027179Y004198D01*
X027276Y004198D01*
X027324Y004150D01*
X027425Y003860D02*
X027619Y003860D01*
X027720Y003956D02*
X027768Y003908D01*
X027865Y003908D01*
X027913Y003956D01*
X027913Y004150D01*
X027865Y004198D01*
X027768Y004198D01*
X027720Y004150D01*
X027720Y003956D01*
X028015Y003956D02*
X028063Y003908D01*
X028160Y003908D01*
X028208Y003956D01*
X028208Y004198D01*
X028309Y004198D02*
X028503Y004198D01*
X028406Y004198D02*
X028406Y003908D01*
X028604Y003908D02*
X028797Y003908D01*
X028701Y003908D02*
X028701Y004198D01*
X028604Y004101D01*
X028015Y004198D02*
X028015Y003956D01*
X027532Y005325D02*
X027339Y005325D01*
X027532Y005519D01*
X027532Y005567D01*
X027484Y005615D01*
X027387Y005615D01*
X027339Y005567D01*
X026943Y005825D02*
X026750Y006115D01*
X029216Y008652D02*
X029312Y008749D01*
X029216Y008845D01*
X029506Y008845D01*
X029457Y008947D02*
X029506Y008995D01*
X029506Y009092D01*
X029457Y009140D01*
X029264Y009140D01*
X029216Y009092D01*
X029216Y008995D01*
X029264Y008947D01*
X029457Y008947D01*
X029506Y009241D02*
X029216Y009241D01*
X029216Y009386D01*
X029264Y009435D01*
X029457Y009435D01*
X029506Y009386D01*
X029506Y009241D01*
X029506Y009536D02*
X029216Y009536D01*
X029216Y009729D01*
X029264Y009831D02*
X029216Y009879D01*
X029216Y009976D01*
X029264Y010024D01*
X029312Y010024D01*
X029506Y009831D01*
X029506Y010024D01*
X029506Y009729D02*
X029506Y009536D01*
X029361Y009536D02*
X029361Y009633D01*
X029506Y008652D02*
X029216Y008652D01*
X030571Y010305D02*
X030571Y010499D01*
X030667Y010600D02*
X030667Y010648D01*
X030716Y010648D01*
X030716Y010600D01*
X030667Y010600D01*
X030667Y010747D02*
X030474Y010941D01*
X030426Y010941D01*
X030426Y010747D01*
X030667Y010747D02*
X030716Y010747D01*
X030716Y011042D02*
X030426Y011042D01*
X030571Y011090D02*
X030716Y011235D01*
X030619Y011042D02*
X030426Y011235D01*
X030426Y010450D02*
X030571Y010305D01*
X030716Y010450D02*
X030426Y010450D01*
X031426Y010450D02*
X031571Y010305D01*
X031571Y010499D01*
X031667Y010600D02*
X031667Y010648D01*
X031716Y010648D01*
X031716Y010600D01*
X031667Y010600D01*
X031667Y010747D02*
X031716Y010747D01*
X031667Y010747D02*
X031474Y010941D01*
X031426Y010941D01*
X031426Y010747D01*
X031426Y011042D02*
X031716Y011042D01*
X031619Y011042D02*
X031426Y011235D01*
X031571Y011090D02*
X031716Y011235D01*
X032426Y011235D02*
X032619Y011042D01*
X032571Y011090D02*
X032716Y011235D01*
X032716Y011042D02*
X032426Y011042D01*
X032426Y010941D02*
X032474Y010941D01*
X032667Y010747D01*
X032716Y010747D01*
X032716Y010648D02*
X032716Y010600D01*
X032667Y010600D01*
X032667Y010648D01*
X032716Y010648D01*
X032716Y010450D02*
X032426Y010450D01*
X032571Y010305D01*
X032571Y010499D01*
X032426Y010747D02*
X032426Y010941D01*
X031716Y010450D02*
X031426Y010450D01*
X033426Y010450D02*
X033571Y010305D01*
X033571Y010499D01*
X033667Y010600D02*
X033667Y010648D01*
X033716Y010648D01*
X033716Y010600D01*
X033667Y010600D01*
X033667Y010747D02*
X033474Y010941D01*
X033426Y010941D01*
X033426Y010747D01*
X033667Y010747D02*
X033716Y010747D01*
X033716Y011042D02*
X033426Y011042D01*
X033571Y011090D02*
X033716Y011235D01*
X033619Y011042D02*
X033426Y011235D01*
X033426Y010450D02*
X033716Y010450D01*
X034966Y010177D02*
X035256Y010177D01*
X035256Y010081D02*
X035256Y010274D01*
X035062Y010081D02*
X034966Y010177D01*
X034966Y009979D02*
X034966Y009786D01*
X035256Y009786D01*
X035256Y009979D01*
X035111Y009883D02*
X035111Y009786D01*
X035207Y009685D02*
X035014Y009685D01*
X034966Y009636D01*
X034966Y009491D01*
X035256Y009491D01*
X035256Y009636D01*
X035207Y009685D01*
X035207Y009390D02*
X035014Y009390D01*
X034966Y009342D01*
X034966Y009245D01*
X035014Y009197D01*
X035207Y009197D01*
X035256Y009245D01*
X035256Y009342D01*
X035207Y009390D01*
X035256Y009095D02*
X034966Y009095D01*
X035062Y008999D01*
X034966Y008902D01*
X035256Y008902D01*
X036321Y010305D02*
X036321Y010499D01*
X036417Y010600D02*
X036417Y010648D01*
X036466Y010648D01*
X036466Y010600D01*
X036417Y010600D01*
X036417Y010747D02*
X036224Y010941D01*
X036176Y010941D01*
X036176Y010747D01*
X036417Y010747D02*
X036466Y010747D01*
X036466Y011042D02*
X036176Y011042D01*
X036321Y011090D02*
X036466Y011235D01*
X036369Y011042D02*
X036176Y011235D01*
X036176Y010450D02*
X036321Y010305D01*
X036466Y010450D02*
X036176Y010450D01*
X037176Y010450D02*
X037321Y010305D01*
X037321Y010499D01*
X037417Y010600D02*
X037417Y010648D01*
X037466Y010648D01*
X037466Y010600D01*
X037417Y010600D01*
X037417Y010747D02*
X037466Y010747D01*
X037417Y010747D02*
X037224Y010941D01*
X037176Y010941D01*
X037176Y010747D01*
X037176Y011042D02*
X037466Y011042D01*
X037369Y011042D02*
X037176Y011235D01*
X037321Y011090D02*
X037466Y011235D01*
X038176Y011235D02*
X038369Y011042D01*
X038321Y011090D02*
X038466Y011235D01*
X038466Y011042D02*
X038176Y011042D01*
X038176Y010941D02*
X038224Y010941D01*
X038417Y010747D01*
X038466Y010747D01*
X038466Y010648D02*
X038417Y010648D01*
X038417Y010600D01*
X038466Y010600D01*
X038466Y010648D01*
X038466Y010450D02*
X038176Y010450D01*
X038321Y010305D01*
X038321Y010499D01*
X038176Y010747D02*
X038176Y010941D01*
X037466Y010450D02*
X037176Y010450D01*
X039176Y010450D02*
X039321Y010305D01*
X039321Y010499D01*
X039417Y010600D02*
X039417Y010648D01*
X039466Y010648D01*
X039466Y010600D01*
X039417Y010600D01*
X039417Y010747D02*
X039224Y010941D01*
X039176Y010941D01*
X039176Y010747D01*
X039417Y010747D02*
X039466Y010747D01*
X039466Y011042D02*
X039176Y011042D01*
X039321Y011090D02*
X039466Y011235D01*
X039369Y011042D02*
X039176Y011235D01*
X039176Y010450D02*
X039466Y010450D01*
X037238Y014516D02*
X037238Y014612D01*
X037238Y014564D02*
X036948Y014564D01*
X036948Y014516D02*
X036948Y014612D01*
X036948Y014712D02*
X037238Y014906D01*
X036948Y014906D01*
X037045Y015007D02*
X036948Y015103D01*
X037238Y015103D01*
X037238Y015007D02*
X037238Y015200D01*
X037238Y014712D02*
X036948Y014712D01*
X036035Y014635D02*
X035889Y014780D01*
X035841Y014732D02*
X036035Y014925D01*
X035841Y014925D02*
X035841Y014635D01*
X035740Y014877D02*
X035546Y014684D01*
X035546Y014635D01*
X035448Y014635D02*
X035399Y014635D01*
X035399Y014684D01*
X035448Y014684D01*
X035448Y014635D01*
X035250Y014635D02*
X035250Y014925D01*
X035105Y014780D01*
X035298Y014780D01*
X035546Y014925D02*
X035740Y014925D01*
X035740Y014877D01*
X035841Y015885D02*
X035841Y016175D01*
X035740Y016175D02*
X035740Y016127D01*
X035546Y015934D01*
X035546Y015885D01*
X035448Y015885D02*
X035399Y015885D01*
X035399Y015934D01*
X035448Y015934D01*
X035448Y015885D01*
X035250Y015885D02*
X035250Y016175D01*
X035105Y016030D01*
X035298Y016030D01*
X035546Y016175D02*
X035740Y016175D01*
X035889Y016030D02*
X036035Y015885D01*
X035841Y015982D02*
X036035Y016175D01*
X036035Y017385D02*
X035889Y017530D01*
X035841Y017482D02*
X036035Y017675D01*
X035841Y017675D02*
X035841Y017385D01*
X035740Y017627D02*
X035546Y017434D01*
X035546Y017385D01*
X035448Y017385D02*
X035399Y017385D01*
X035399Y017434D01*
X035448Y017434D01*
X035448Y017385D01*
X035250Y017385D02*
X035250Y017675D01*
X035105Y017530D01*
X035298Y017530D01*
X035546Y017675D02*
X035740Y017675D01*
X035740Y017627D01*
X035841Y018635D02*
X035841Y018925D01*
X035740Y018925D02*
X035740Y018877D01*
X035546Y018684D01*
X035546Y018635D01*
X035448Y018635D02*
X035399Y018635D01*
X035399Y018684D01*
X035448Y018684D01*
X035448Y018635D01*
X035250Y018635D02*
X035250Y018925D01*
X035105Y018780D01*
X035298Y018780D01*
X035546Y018925D02*
X035740Y018925D01*
X035889Y018780D02*
X036035Y018635D01*
X035841Y018732D02*
X036035Y018925D01*
X036997Y017950D02*
X036948Y017902D01*
X036948Y017805D01*
X036997Y017757D01*
X036948Y017656D02*
X037238Y017656D01*
X036948Y017462D01*
X037238Y017462D01*
X037238Y017362D02*
X037238Y017266D01*
X037238Y017314D02*
X036948Y017314D01*
X036948Y017266D02*
X036948Y017362D01*
X037238Y017757D02*
X037045Y017950D01*
X036997Y017950D01*
X037238Y017950D02*
X037238Y017757D01*
X037238Y019766D02*
X037238Y019862D01*
X037238Y019814D02*
X036948Y019814D01*
X036948Y019766D02*
X036948Y019862D01*
X036948Y019962D02*
X037238Y020156D01*
X036948Y020156D01*
X036997Y020257D02*
X036948Y020305D01*
X036948Y020402D01*
X036997Y020450D01*
X037045Y020450D01*
X037093Y020402D01*
X037142Y020450D01*
X037190Y020450D01*
X037238Y020402D01*
X037238Y020305D01*
X037190Y020257D01*
X037093Y020353D02*
X037093Y020402D01*
X037238Y019962D02*
X036948Y019962D01*
X036035Y020135D02*
X035889Y020280D01*
X035841Y020232D02*
X036035Y020425D01*
X035841Y020425D02*
X035841Y020135D01*
X035740Y020377D02*
X035546Y020184D01*
X035546Y020135D01*
X035448Y020135D02*
X035399Y020135D01*
X035399Y020184D01*
X035448Y020184D01*
X035448Y020135D01*
X035250Y020135D02*
X035250Y020425D01*
X035105Y020280D01*
X035298Y020280D01*
X035546Y020425D02*
X035740Y020425D01*
X035740Y020377D01*
X035841Y021385D02*
X035841Y021675D01*
X035740Y021675D02*
X035740Y021627D01*
X035546Y021434D01*
X035546Y021385D01*
X035448Y021385D02*
X035399Y021385D01*
X035399Y021434D01*
X035448Y021434D01*
X035448Y021385D01*
X035250Y021385D02*
X035250Y021675D01*
X035105Y021530D01*
X035298Y021530D01*
X035546Y021675D02*
X035740Y021675D01*
X035889Y021530D02*
X036035Y021385D01*
X035841Y021482D02*
X036035Y021675D01*
X036035Y022885D02*
X035889Y023030D01*
X035841Y022982D02*
X036035Y023175D01*
X035841Y023175D02*
X035841Y022885D01*
X035740Y023127D02*
X035546Y022934D01*
X035546Y022885D01*
X035448Y022885D02*
X035399Y022885D01*
X035399Y022934D01*
X035448Y022934D01*
X035448Y022885D01*
X035250Y022885D02*
X035250Y023175D01*
X035105Y023030D01*
X035298Y023030D01*
X035546Y023175D02*
X035740Y023175D01*
X035740Y023127D01*
X035841Y024135D02*
X035841Y024425D01*
X035740Y024425D02*
X035740Y024377D01*
X035546Y024184D01*
X035546Y024135D01*
X035448Y024135D02*
X035399Y024135D01*
X035399Y024184D01*
X035448Y024184D01*
X035448Y024135D01*
X035250Y024135D02*
X035250Y024425D01*
X035105Y024280D01*
X035298Y024280D01*
X035546Y024425D02*
X035740Y024425D01*
X035889Y024280D02*
X036035Y024135D01*
X035841Y024232D02*
X036035Y024425D01*
X036948Y023402D02*
X037093Y023257D01*
X037093Y023450D01*
X037238Y023402D02*
X036948Y023402D01*
X036948Y023156D02*
X037238Y023156D01*
X036948Y022962D01*
X037238Y022962D01*
X037238Y022862D02*
X037238Y022766D01*
X037238Y022814D02*
X036948Y022814D01*
X036948Y022766D02*
X036948Y022862D01*
X036216Y030055D02*
X036022Y030249D01*
X035974Y030249D01*
X035926Y030200D01*
X035926Y030104D01*
X035974Y030055D01*
X036216Y030055D02*
X036216Y030249D01*
X036216Y030350D02*
X036022Y030543D01*
X035974Y030543D01*
X035926Y030495D01*
X035926Y030398D01*
X035974Y030350D01*
X036216Y030350D02*
X036216Y030543D01*
X036167Y030645D02*
X035974Y030838D01*
X036167Y030838D01*
X036216Y030790D01*
X036216Y030693D01*
X036167Y030645D01*
X035974Y030645D01*
X035926Y030693D01*
X035926Y030790D01*
X035974Y030838D01*
X035491Y030914D02*
X035297Y030721D01*
X035346Y030673D01*
X035442Y030673D01*
X035491Y030721D01*
X035491Y030914D01*
X035442Y030963D01*
X035346Y030963D01*
X035297Y030914D01*
X035297Y030721D01*
X035196Y030673D02*
X035003Y030673D01*
X034966Y030693D02*
X034917Y030645D01*
X034724Y030838D01*
X034917Y030838D01*
X034966Y030790D01*
X034966Y030693D01*
X034917Y030645D02*
X034724Y030645D01*
X034676Y030693D01*
X034676Y030790D01*
X034724Y030838D01*
X034708Y030963D02*
X034901Y030963D01*
X034805Y030963D02*
X034805Y030673D01*
X034772Y030543D02*
X034724Y030543D01*
X034676Y030495D01*
X034676Y030398D01*
X034724Y030350D01*
X034724Y030249D02*
X034676Y030200D01*
X034676Y030104D01*
X034724Y030055D01*
X034724Y030249D02*
X034772Y030249D01*
X034966Y030055D01*
X034966Y030249D01*
X034966Y030350D02*
X034772Y030543D01*
X034966Y030543D02*
X034966Y030350D01*
X035099Y030673D02*
X035099Y030963D01*
X035003Y030866D01*
X034607Y030963D02*
X034607Y030721D01*
X034558Y030673D01*
X034462Y030673D01*
X034413Y030721D01*
X034413Y030963D01*
X034312Y030914D02*
X034312Y030721D01*
X034264Y030673D01*
X034167Y030673D01*
X034119Y030721D01*
X034119Y030914D01*
X034167Y030963D01*
X034264Y030963D01*
X034312Y030914D01*
X033466Y030790D02*
X033466Y030693D01*
X033417Y030645D01*
X033224Y030838D01*
X033417Y030838D01*
X033466Y030790D01*
X033417Y030645D02*
X033224Y030645D01*
X033176Y030693D01*
X033176Y030790D01*
X033224Y030838D01*
X033224Y030543D02*
X033176Y030495D01*
X033176Y030398D01*
X033224Y030350D01*
X033224Y030249D02*
X033176Y030200D01*
X033176Y030104D01*
X033224Y030055D01*
X033224Y030249D02*
X033272Y030249D01*
X033466Y030055D01*
X033466Y030249D01*
X033466Y030350D02*
X033272Y030543D01*
X033224Y030543D01*
X033466Y030543D02*
X033466Y030350D01*
X032741Y030721D02*
X032741Y030914D01*
X032692Y030963D01*
X032596Y030963D01*
X032547Y030914D01*
X032547Y030866D01*
X032596Y030818D01*
X032741Y030818D01*
X032741Y030721D02*
X032692Y030673D01*
X032596Y030673D01*
X032547Y030721D01*
X032349Y030673D02*
X032349Y030963D01*
X032253Y030963D02*
X032446Y030963D01*
X032216Y030790D02*
X032216Y030693D01*
X032167Y030645D01*
X031974Y030838D01*
X032167Y030838D01*
X032216Y030790D01*
X032151Y030721D02*
X032151Y030963D01*
X031958Y030963D02*
X031958Y030721D01*
X032006Y030673D01*
X032103Y030673D01*
X032151Y030721D01*
X032167Y030645D02*
X031974Y030645D01*
X031926Y030693D01*
X031926Y030790D01*
X031974Y030838D01*
X031857Y030914D02*
X031808Y030963D01*
X031712Y030963D01*
X031663Y030914D01*
X031663Y030721D01*
X031712Y030673D01*
X031808Y030673D01*
X031857Y030721D01*
X031857Y030914D01*
X031974Y030543D02*
X031926Y030495D01*
X031926Y030398D01*
X031974Y030350D01*
X031974Y030249D02*
X031926Y030200D01*
X031926Y030104D01*
X031974Y030055D01*
X031974Y030249D02*
X032022Y030249D01*
X032216Y030055D01*
X032216Y030249D01*
X032216Y030350D02*
X032022Y030543D01*
X031974Y030543D01*
X032216Y030543D02*
X032216Y030350D01*
X031241Y030673D02*
X031047Y030673D01*
X031047Y030963D01*
X030946Y030914D02*
X030946Y030818D01*
X030898Y030769D01*
X030753Y030769D01*
X030849Y030769D02*
X030946Y030673D01*
X030753Y030673D02*
X030753Y030963D01*
X030898Y030963D01*
X030946Y030914D01*
X030651Y030963D02*
X030458Y030963D01*
X030555Y030963D02*
X030555Y030673D01*
X030357Y030673D02*
X030357Y030963D01*
X030163Y030963D02*
X030163Y030673D01*
X030062Y030721D02*
X030014Y030673D01*
X029917Y030673D01*
X029869Y030721D01*
X029869Y030914D01*
X029917Y030963D01*
X030014Y030963D01*
X030062Y030914D01*
X030163Y030963D02*
X030357Y030673D01*
X029767Y030624D02*
X029574Y030624D01*
X029473Y030721D02*
X029424Y030673D01*
X029279Y030673D01*
X029279Y030963D01*
X029424Y030963D01*
X029473Y030914D01*
X029473Y030866D01*
X029424Y030818D01*
X029279Y030818D01*
X029424Y030818D02*
X029473Y030769D01*
X029473Y030721D01*
X029178Y030963D02*
X028985Y030963D01*
X028985Y030673D01*
X028884Y030624D02*
X028690Y030624D01*
X028589Y030673D02*
X028395Y030673D01*
X028589Y030866D01*
X028589Y030914D01*
X028541Y030963D01*
X028444Y030963D01*
X028395Y030914D01*
X028294Y030963D02*
X028101Y030963D01*
X028197Y030963D02*
X028197Y030673D01*
X028000Y030721D02*
X028000Y030963D01*
X027806Y030963D02*
X027806Y030721D01*
X027854Y030673D01*
X027951Y030673D01*
X028000Y030721D01*
X027705Y030721D02*
X027705Y030914D01*
X027657Y030963D01*
X027560Y030963D01*
X027511Y030914D01*
X027511Y030721D01*
X027560Y030673D01*
X027657Y030673D01*
X027705Y030721D01*
X027241Y030721D02*
X027192Y030673D01*
X027096Y030673D01*
X027047Y030721D01*
X027047Y030769D01*
X027096Y030818D01*
X027192Y030818D01*
X027241Y030769D01*
X027241Y030721D01*
X027192Y030818D02*
X027241Y030866D01*
X027241Y030914D01*
X027192Y030963D01*
X027096Y030963D01*
X027047Y030914D01*
X027047Y030866D01*
X027096Y030818D01*
X026946Y030963D02*
X026753Y030963D01*
X026849Y030963D02*
X026849Y030673D01*
X026651Y030721D02*
X026651Y030963D01*
X026458Y030963D02*
X026458Y030721D01*
X026506Y030673D01*
X026603Y030673D01*
X026651Y030721D01*
X026357Y030721D02*
X026357Y030914D01*
X026308Y030963D01*
X026212Y030963D01*
X026163Y030914D01*
X026163Y030721D01*
X026212Y030673D01*
X026308Y030673D01*
X026357Y030721D01*
X024716Y030540D02*
X024716Y030443D01*
X024667Y030395D01*
X024474Y030588D01*
X024667Y030588D01*
X024716Y030540D01*
X024667Y030395D02*
X024474Y030395D01*
X024426Y030443D01*
X024426Y030540D01*
X024474Y030588D01*
X024297Y030673D02*
X024297Y030721D01*
X024491Y030914D01*
X024491Y030963D01*
X024297Y030963D01*
X024196Y030963D02*
X024003Y030963D01*
X024099Y030963D02*
X024099Y030673D01*
X023901Y030721D02*
X023901Y030963D01*
X023708Y030963D02*
X023708Y030721D01*
X023756Y030673D01*
X023853Y030673D01*
X023901Y030721D01*
X023607Y030721D02*
X023607Y030914D01*
X023558Y030963D01*
X023462Y030963D01*
X023413Y030914D01*
X023413Y030721D01*
X023462Y030673D01*
X023558Y030673D01*
X023607Y030721D01*
X023466Y030540D02*
X023466Y030443D01*
X023417Y030395D01*
X023224Y030588D01*
X023417Y030588D01*
X023466Y030540D01*
X023417Y030395D02*
X023224Y030395D01*
X023176Y030443D01*
X023176Y030540D01*
X023224Y030588D01*
X023224Y030293D02*
X023176Y030245D01*
X023176Y030148D01*
X023224Y030100D01*
X023224Y029999D02*
X023176Y029950D01*
X023176Y029854D01*
X023224Y029805D01*
X023224Y029999D02*
X023272Y029999D01*
X023466Y029805D01*
X023466Y029999D01*
X023466Y030100D02*
X023272Y030293D01*
X023224Y030293D01*
X023466Y030293D02*
X023466Y030100D01*
X024426Y030148D02*
X024474Y030100D01*
X024426Y030148D02*
X024426Y030245D01*
X024474Y030293D01*
X024522Y030293D01*
X024716Y030100D01*
X024716Y030293D01*
X024716Y029999D02*
X024716Y029805D01*
X024522Y029999D01*
X024474Y029999D01*
X024426Y029950D01*
X024426Y029854D01*
X024474Y029805D01*
X022216Y029805D02*
X022022Y029999D01*
X021974Y029999D01*
X021926Y029950D01*
X021926Y029854D01*
X021974Y029805D01*
X022216Y029805D02*
X022216Y029999D01*
X022216Y030100D02*
X022022Y030293D01*
X021974Y030293D01*
X021926Y030245D01*
X021926Y030148D01*
X021974Y030100D01*
X022216Y030100D02*
X022216Y030293D01*
X022167Y030395D02*
X021974Y030588D01*
X022167Y030588D01*
X022216Y030540D01*
X022216Y030443D01*
X022167Y030395D01*
X021974Y030395D01*
X021926Y030443D01*
X021926Y030540D01*
X021974Y030588D01*
X021741Y030721D02*
X021741Y030769D01*
X021692Y030818D01*
X021547Y030818D01*
X021547Y030721D01*
X021596Y030673D01*
X021692Y030673D01*
X021741Y030721D01*
X021644Y030914D02*
X021547Y030818D01*
X021644Y030914D02*
X021741Y030963D01*
X021446Y030963D02*
X021253Y030963D01*
X021349Y030963D02*
X021349Y030673D01*
X021151Y030721D02*
X021151Y030963D01*
X020958Y030963D02*
X020958Y030721D01*
X021006Y030673D01*
X021103Y030673D01*
X021151Y030721D01*
X020966Y030540D02*
X020966Y030443D01*
X020917Y030395D01*
X020724Y030588D01*
X020917Y030588D01*
X020966Y030540D01*
X020917Y030395D02*
X020724Y030395D01*
X020676Y030443D01*
X020676Y030540D01*
X020724Y030588D01*
X020712Y030673D02*
X020808Y030673D01*
X020857Y030721D01*
X020857Y030914D01*
X020808Y030963D01*
X020712Y030963D01*
X020663Y030914D01*
X020663Y030721D01*
X020712Y030673D01*
X020724Y030293D02*
X020676Y030245D01*
X020676Y030148D01*
X020724Y030100D01*
X020724Y029999D02*
X020676Y029950D01*
X020676Y029854D01*
X020724Y029805D01*
X020724Y029999D02*
X020772Y029999D01*
X020966Y029805D01*
X020966Y029999D01*
X020966Y030100D02*
X020772Y030293D01*
X020724Y030293D01*
X020966Y030293D02*
X020966Y030100D01*
X019716Y030100D02*
X019522Y030293D01*
X019474Y030293D01*
X019426Y030245D01*
X019426Y030148D01*
X019474Y030100D01*
X019474Y029999D02*
X019426Y029950D01*
X019426Y029854D01*
X019474Y029805D01*
X019474Y029999D02*
X019522Y029999D01*
X019716Y029805D01*
X019716Y029999D01*
X019716Y030100D02*
X019716Y030293D01*
X019667Y030395D02*
X019474Y030588D01*
X019667Y030588D01*
X019716Y030540D01*
X019716Y030443D01*
X019667Y030395D01*
X019474Y030395D01*
X019426Y030443D01*
X019426Y030540D01*
X019474Y030588D01*
X018991Y030721D02*
X018942Y030673D01*
X018846Y030673D01*
X018797Y030721D01*
X018797Y030818D02*
X018894Y030866D01*
X018942Y030866D01*
X018991Y030818D01*
X018991Y030721D01*
X018797Y030818D02*
X018797Y030963D01*
X018991Y030963D01*
X018696Y030963D02*
X018503Y030963D01*
X018599Y030963D02*
X018599Y030673D01*
X018466Y030540D02*
X018466Y030443D01*
X018417Y030395D01*
X018224Y030588D01*
X018417Y030588D01*
X018466Y030540D01*
X018417Y030395D02*
X018224Y030395D01*
X018176Y030443D01*
X018176Y030540D01*
X018224Y030588D01*
X018256Y030673D02*
X018353Y030673D01*
X018401Y030721D01*
X018401Y030963D01*
X018208Y030963D02*
X018208Y030721D01*
X018256Y030673D01*
X018107Y030721D02*
X018107Y030914D01*
X018058Y030963D01*
X017962Y030963D01*
X017913Y030914D01*
X017913Y030721D01*
X017962Y030673D01*
X018058Y030673D01*
X018107Y030721D01*
X018224Y030293D02*
X018176Y030245D01*
X018176Y030148D01*
X018224Y030100D01*
X018224Y029999D02*
X018176Y029950D01*
X018176Y029854D01*
X018224Y029805D01*
X018224Y029999D02*
X018272Y029999D01*
X018466Y029805D01*
X018466Y029999D01*
X018466Y030100D02*
X018272Y030293D01*
X018224Y030293D01*
X018466Y030293D02*
X018466Y030100D01*
X017216Y030100D02*
X017022Y030293D01*
X016974Y030293D01*
X016926Y030245D01*
X016926Y030148D01*
X016974Y030100D01*
X016974Y029999D02*
X016926Y029950D01*
X016926Y029854D01*
X016974Y029805D01*
X016974Y029999D02*
X017022Y029999D01*
X017216Y029805D01*
X017216Y029999D01*
X017216Y030100D02*
X017216Y030293D01*
X017167Y030395D02*
X016974Y030588D01*
X017167Y030588D01*
X017216Y030540D01*
X017216Y030443D01*
X017167Y030395D01*
X016974Y030395D01*
X016926Y030443D01*
X016926Y030540D01*
X016974Y030588D01*
X016946Y030673D02*
X016849Y030769D01*
X016898Y030769D02*
X016753Y030769D01*
X016753Y030673D02*
X016753Y030963D01*
X016898Y030963D01*
X016946Y030914D01*
X016946Y030818D01*
X016898Y030769D01*
X017047Y030673D02*
X017047Y030963D01*
X017047Y030673D02*
X017241Y030673D01*
X016651Y030963D02*
X016458Y030963D01*
X016555Y030963D02*
X016555Y030673D01*
X016357Y030673D02*
X016357Y030963D01*
X016163Y030963D02*
X016357Y030673D01*
X016163Y030673D02*
X016163Y030963D01*
X016062Y030914D02*
X016014Y030963D01*
X015917Y030963D01*
X015869Y030914D01*
X015869Y030721D01*
X015917Y030673D01*
X016014Y030673D01*
X016062Y030721D01*
X015917Y030588D02*
X015966Y030540D01*
X015966Y030443D01*
X015917Y030395D01*
X015724Y030588D01*
X015917Y030588D01*
X015767Y030624D02*
X015574Y030624D01*
X015676Y030540D02*
X015724Y030588D01*
X015676Y030540D02*
X015676Y030443D01*
X015724Y030395D01*
X015917Y030395D01*
X015966Y030293D02*
X015966Y030100D01*
X015772Y030293D01*
X015724Y030293D01*
X015676Y030245D01*
X015676Y030148D01*
X015724Y030100D01*
X015724Y029999D02*
X015676Y029950D01*
X015676Y029854D01*
X015724Y029805D01*
X015724Y029999D02*
X015772Y029999D01*
X015966Y029805D01*
X015966Y029999D01*
X015424Y030673D02*
X015279Y030673D01*
X015279Y030963D01*
X015424Y030963D01*
X015473Y030914D01*
X015473Y030866D01*
X015424Y030818D01*
X015279Y030818D01*
X015424Y030818D02*
X015473Y030769D01*
X015473Y030721D01*
X015424Y030673D01*
X015081Y030818D02*
X014985Y030818D01*
X014985Y030963D02*
X015178Y030963D01*
X014985Y030963D02*
X014985Y030673D01*
X014884Y030624D02*
X014690Y030624D01*
X014589Y030673D02*
X014395Y030673D01*
X014492Y030673D02*
X014492Y030963D01*
X014395Y030866D01*
X014294Y030963D02*
X014101Y030963D01*
X014197Y030963D02*
X014197Y030673D01*
X014000Y030721D02*
X014000Y030963D01*
X013806Y030963D02*
X013806Y030721D01*
X013854Y030673D01*
X013951Y030673D01*
X014000Y030721D01*
X013917Y030588D02*
X013966Y030540D01*
X013966Y030443D01*
X013917Y030395D01*
X013724Y030588D01*
X013917Y030588D01*
X013724Y030588D02*
X013676Y030540D01*
X013676Y030443D01*
X013724Y030395D01*
X013917Y030395D01*
X013966Y030293D02*
X013966Y030100D01*
X013772Y030293D01*
X013724Y030293D01*
X013676Y030245D01*
X013676Y030148D01*
X013724Y030100D01*
X013724Y029999D02*
X013676Y029950D01*
X013676Y029854D01*
X013724Y029805D01*
X013724Y029999D02*
X013772Y029999D01*
X013966Y029805D01*
X013966Y029999D01*
X013657Y030673D02*
X013560Y030673D01*
X013511Y030721D01*
X013511Y030914D01*
X013560Y030963D01*
X013657Y030963D01*
X013705Y030914D01*
X013705Y030721D01*
X013657Y030673D01*
X012991Y030818D02*
X012797Y030818D01*
X012942Y030963D01*
X012942Y030673D01*
X012716Y030540D02*
X012716Y030443D01*
X012667Y030395D01*
X012474Y030588D01*
X012667Y030588D01*
X012716Y030540D01*
X012667Y030395D02*
X012474Y030395D01*
X012426Y030443D01*
X012426Y030540D01*
X012474Y030588D01*
X012353Y030673D02*
X012401Y030721D01*
X012401Y030963D01*
X012503Y030963D02*
X012696Y030963D01*
X012599Y030963D02*
X012599Y030673D01*
X012353Y030673D02*
X012256Y030673D01*
X012208Y030721D01*
X012208Y030963D01*
X012107Y030914D02*
X012058Y030963D01*
X011962Y030963D01*
X011913Y030914D01*
X011913Y030721D01*
X011962Y030673D01*
X012058Y030673D01*
X012107Y030721D01*
X012107Y030914D01*
X012474Y030293D02*
X012426Y030245D01*
X012426Y030148D01*
X012474Y030100D01*
X012474Y029999D02*
X012426Y029950D01*
X012426Y029854D01*
X012474Y029805D01*
X012474Y029999D02*
X012522Y029999D01*
X012716Y029805D01*
X012716Y029999D01*
X012716Y030100D02*
X012522Y030293D01*
X012474Y030293D01*
X012716Y030293D02*
X012716Y030100D01*
X011466Y030100D02*
X011272Y030293D01*
X011224Y030293D01*
X011176Y030245D01*
X011176Y030148D01*
X011224Y030100D01*
X011224Y029999D02*
X011176Y029950D01*
X011176Y029854D01*
X011224Y029805D01*
X011224Y029999D02*
X011272Y029999D01*
X011466Y029805D01*
X011466Y029999D01*
X011466Y030100D02*
X011466Y030293D01*
X011417Y030395D02*
X011224Y030588D01*
X011417Y030588D01*
X011466Y030540D01*
X011466Y030443D01*
X011417Y030395D01*
X011224Y030395D01*
X011176Y030443D01*
X011176Y030540D01*
X011224Y030588D01*
X010741Y030721D02*
X010692Y030673D01*
X010596Y030673D01*
X010547Y030721D01*
X010644Y030818D02*
X010692Y030818D01*
X010741Y030769D01*
X010741Y030721D01*
X010692Y030818D02*
X010741Y030866D01*
X010741Y030914D01*
X010692Y030963D01*
X010596Y030963D01*
X010547Y030914D01*
X010446Y030963D02*
X010253Y030963D01*
X010349Y030963D02*
X010349Y030673D01*
X010216Y030540D02*
X010216Y030443D01*
X010167Y030395D01*
X009974Y030588D01*
X010167Y030588D01*
X010216Y030540D01*
X010167Y030395D02*
X009974Y030395D01*
X009926Y030443D01*
X009926Y030540D01*
X009974Y030588D01*
X010006Y030673D02*
X010103Y030673D01*
X010151Y030721D01*
X010151Y030963D01*
X009958Y030963D02*
X009958Y030721D01*
X010006Y030673D01*
X009857Y030721D02*
X009857Y030914D01*
X009808Y030963D01*
X009712Y030963D01*
X009663Y030914D01*
X009663Y030721D01*
X009712Y030673D01*
X009808Y030673D01*
X009857Y030721D01*
X009974Y030293D02*
X009926Y030245D01*
X009926Y030148D01*
X009974Y030100D01*
X009974Y029999D02*
X009926Y029950D01*
X009926Y029854D01*
X009974Y029805D01*
X009974Y029999D02*
X010022Y029999D01*
X010216Y029805D01*
X010216Y029999D01*
X010216Y030100D02*
X010022Y030293D01*
X009974Y030293D01*
X010216Y030293D02*
X010216Y030100D01*
X008966Y030100D02*
X008772Y030293D01*
X008724Y030293D01*
X008676Y030245D01*
X008676Y030148D01*
X008724Y030100D01*
X008724Y029999D02*
X008676Y029950D01*
X008676Y029854D01*
X008724Y029805D01*
X008724Y029999D02*
X008772Y029999D01*
X008966Y029805D01*
X008966Y029999D01*
X008966Y030100D02*
X008966Y030293D01*
X008917Y030395D02*
X008724Y030588D01*
X008917Y030588D01*
X008966Y030540D01*
X008966Y030443D01*
X008917Y030395D01*
X008724Y030395D01*
X008676Y030443D01*
X008676Y030540D01*
X008724Y030588D01*
X007991Y030673D02*
X007797Y030673D01*
X007991Y030866D01*
X007991Y030914D01*
X007942Y030963D01*
X007846Y030963D01*
X007797Y030914D01*
X007696Y030963D02*
X007503Y030963D01*
X007599Y030963D02*
X007599Y030673D01*
X007667Y030588D02*
X007716Y030540D01*
X007716Y030443D01*
X007667Y030395D01*
X007474Y030588D01*
X007667Y030588D01*
X007474Y030588D02*
X007426Y030540D01*
X007426Y030443D01*
X007474Y030395D01*
X007667Y030395D01*
X007716Y030293D02*
X007716Y030100D01*
X007522Y030293D01*
X007474Y030293D01*
X007426Y030245D01*
X007426Y030148D01*
X007474Y030100D01*
X007474Y029999D02*
X007426Y029950D01*
X007426Y029854D01*
X007474Y029805D01*
X007474Y029999D02*
X007522Y029999D01*
X007716Y029805D01*
X007716Y029999D01*
X007353Y030673D02*
X007401Y030721D01*
X007401Y030963D01*
X007208Y030963D02*
X007208Y030721D01*
X007256Y030673D01*
X007353Y030673D01*
X007107Y030721D02*
X007107Y030914D01*
X007058Y030963D01*
X006962Y030963D01*
X006913Y030914D01*
X006913Y030721D01*
X006962Y030673D01*
X007058Y030673D01*
X007107Y030721D01*
X006466Y030540D02*
X006466Y030443D01*
X006417Y030395D01*
X006224Y030588D01*
X006417Y030588D01*
X006466Y030540D01*
X006417Y030395D02*
X006224Y030395D01*
X006176Y030443D01*
X006176Y030540D01*
X006224Y030588D01*
X006224Y030293D02*
X006176Y030245D01*
X006176Y030148D01*
X006224Y030100D01*
X006224Y029999D02*
X006176Y029950D01*
X006176Y029854D01*
X006224Y029805D01*
X006224Y029999D02*
X006272Y029999D01*
X006466Y029805D01*
X006466Y029999D01*
X006466Y030100D02*
X006272Y030293D01*
X006224Y030293D01*
X006466Y030293D02*
X006466Y030100D01*
X005216Y030100D02*
X005022Y030293D01*
X004974Y030293D01*
X004926Y030245D01*
X004926Y030148D01*
X004974Y030100D01*
X004974Y029999D02*
X004926Y029950D01*
X004926Y029854D01*
X004974Y029805D01*
X004974Y029999D02*
X005022Y029999D01*
X005216Y029805D01*
X005216Y029999D01*
X005216Y030100D02*
X005216Y030293D01*
X005167Y030395D02*
X004974Y030588D01*
X005167Y030588D01*
X005216Y030540D01*
X005216Y030443D01*
X005167Y030395D01*
X004974Y030395D01*
X004926Y030443D01*
X004926Y030540D01*
X004974Y030588D01*
X005047Y030673D02*
X005241Y030673D01*
X005144Y030673D02*
X005144Y030963D01*
X005047Y030866D01*
X004946Y030963D02*
X004753Y030963D01*
X004849Y030963D02*
X004849Y030673D01*
X004651Y030721D02*
X004651Y030963D01*
X004458Y030963D02*
X004458Y030721D01*
X004506Y030673D01*
X004603Y030673D01*
X004651Y030721D01*
X004357Y030721D02*
X004357Y030914D01*
X004308Y030963D01*
X004212Y030963D01*
X004163Y030914D01*
X004163Y030721D01*
X004212Y030673D01*
X004308Y030673D01*
X004357Y030721D01*
X003276Y028985D02*
X003082Y028792D01*
X003131Y028840D02*
X003276Y028695D01*
X003082Y028695D02*
X003082Y028985D01*
X002981Y028985D02*
X002981Y028937D01*
X002788Y028744D01*
X002788Y028695D01*
X002689Y028695D02*
X002640Y028695D01*
X002640Y028744D01*
X002689Y028744D01*
X002689Y028695D01*
X002491Y028695D02*
X002491Y028985D01*
X002346Y028840D01*
X002539Y028840D01*
X002788Y028985D02*
X002981Y028985D01*
X002981Y027985D02*
X002788Y027985D01*
X002981Y027985D02*
X002981Y027937D01*
X002788Y027744D01*
X002788Y027695D01*
X002689Y027695D02*
X002640Y027695D01*
X002640Y027744D01*
X002689Y027744D01*
X002689Y027695D01*
X002491Y027695D02*
X002491Y027985D01*
X002346Y027840D01*
X002539Y027840D01*
X003082Y027792D02*
X003276Y027985D01*
X003082Y027985D02*
X003082Y027695D01*
X003131Y027840D02*
X003276Y027695D01*
X028985Y030818D02*
X029081Y030818D01*
X029774Y004213D02*
X029726Y004164D01*
X029726Y004116D01*
X029774Y004068D01*
X029871Y004068D01*
X029919Y004019D01*
X029919Y003971D01*
X029871Y003923D01*
X029774Y003923D01*
X029726Y003971D01*
X029774Y004213D02*
X029871Y004213D01*
X029919Y004164D01*
X030020Y004213D02*
X030117Y004213D01*
X030069Y004213D02*
X030069Y003923D01*
X030117Y003923D02*
X030020Y003923D01*
X030217Y003971D02*
X030265Y003923D01*
X030362Y003923D01*
X030410Y003971D01*
X030410Y004068D01*
X030314Y004068D01*
X030410Y004164D02*
X030362Y004213D01*
X030265Y004213D01*
X030217Y004164D01*
X030217Y003971D01*
X030512Y003874D02*
X030705Y003874D01*
X030806Y003923D02*
X030903Y003923D01*
X030855Y003923D02*
X030855Y004213D01*
X030903Y004213D02*
X030806Y004213D01*
X031003Y004213D02*
X031196Y003923D01*
X031196Y004213D01*
X031297Y004164D02*
X031346Y004213D01*
X031442Y004213D01*
X031491Y004164D01*
X031491Y004116D01*
X031297Y003923D01*
X031491Y003923D01*
X031003Y003923D02*
X031003Y004213D01*
X032333Y004164D02*
X032333Y004116D01*
X032381Y004068D01*
X032478Y004068D01*
X032526Y004019D01*
X032526Y003971D01*
X032478Y003923D01*
X032381Y003923D01*
X032333Y003971D01*
X032333Y004164D02*
X032381Y004213D01*
X032478Y004213D01*
X032526Y004164D01*
X032628Y004213D02*
X032724Y004213D01*
X032676Y004213D02*
X032676Y003923D01*
X032628Y003923D02*
X032724Y003923D01*
X032824Y003971D02*
X032872Y003923D01*
X032969Y003923D01*
X033017Y003971D01*
X033017Y004068D01*
X032921Y004068D01*
X033017Y004164D02*
X032969Y004213D01*
X032872Y004213D01*
X032824Y004164D01*
X032824Y003971D01*
X033119Y003874D02*
X033312Y003874D01*
X033413Y003971D02*
X033462Y003923D01*
X033558Y003923D01*
X033607Y003971D01*
X033607Y004164D01*
X033558Y004213D01*
X033462Y004213D01*
X033413Y004164D01*
X033413Y003971D01*
X033708Y003971D02*
X033756Y003923D01*
X033853Y003923D01*
X033901Y003971D01*
X033901Y004213D01*
X034003Y004213D02*
X034196Y004213D01*
X034099Y004213D02*
X034099Y003923D01*
X034297Y003923D02*
X034491Y004116D01*
X034491Y004164D01*
X034442Y004213D01*
X034346Y004213D01*
X034297Y004164D01*
X034297Y003923D02*
X034491Y003923D01*
X033708Y003971D02*
X033708Y004213D01*
D18*
X005601Y002810D03*
D19*
X007101Y004560D02*
X008601Y004560D01*
X010101Y002310D02*
X011601Y002310D01*
X008601Y007060D02*
X007101Y007060D01*
X007101Y009560D02*
X008601Y009560D01*
X018441Y012208D02*
X018441Y004413D01*
X022260Y004413D01*
X022260Y012208D01*
X018441Y012208D01*
X023941Y012208D02*
X027760Y012208D01*
X027760Y004413D01*
X023941Y004413D01*
X023941Y012208D01*
D20*
X011601Y002310D02*
X011655Y002353D01*
X011707Y002399D01*
X011756Y002448D01*
X011803Y002500D01*
X011846Y002554D01*
X011887Y002610D01*
X011924Y002669D01*
X011958Y002729D01*
X011988Y002792D01*
X012015Y002855D01*
X012039Y002921D01*
X012059Y002987D01*
X012075Y003055D01*
X012087Y003123D01*
X012095Y003192D01*
X012100Y003261D01*
X012101Y003331D01*
X012098Y003400D01*
X012091Y003469D01*
X012080Y003537D01*
X012066Y003605D01*
X012047Y003672D01*
X012025Y003738D01*
X012000Y003803D01*
X011971Y003866D01*
X011938Y003927D01*
X011902Y003986D01*
X011863Y004043D01*
X011821Y004099D01*
X011776Y004151D01*
X011728Y004201D01*
X011677Y004248D01*
X011623Y004293D01*
X011568Y004334D01*
X011510Y004372D01*
X011450Y004407D01*
X011388Y004439D01*
X011325Y004467D01*
X011260Y004491D01*
X011194Y004512D01*
X011126Y004529D01*
X011058Y004543D01*
X010989Y004552D01*
X010920Y004558D01*
X010851Y004560D01*
X010782Y004558D01*
X010713Y004552D01*
X010644Y004543D01*
X010576Y004529D01*
X010508Y004512D01*
X010442Y004491D01*
X010377Y004467D01*
X010314Y004439D01*
X010252Y004407D01*
X010192Y004372D01*
X010134Y004334D01*
X010079Y004293D01*
X010025Y004248D01*
X009974Y004201D01*
X009926Y004151D01*
X009881Y004099D01*
X009839Y004043D01*
X009800Y003986D01*
X009764Y003927D01*
X009731Y003866D01*
X009702Y003803D01*
X009677Y003738D01*
X009655Y003672D01*
X009636Y003605D01*
X009622Y003537D01*
X009611Y003469D01*
X009604Y003400D01*
X009601Y003331D01*
X009602Y003261D01*
X009607Y003192D01*
X009615Y003123D01*
X009627Y003055D01*
X009643Y002987D01*
X009663Y002921D01*
X009687Y002855D01*
X009714Y002792D01*
X009744Y002729D01*
X009778Y002669D01*
X009815Y002610D01*
X009856Y002554D01*
X009899Y002500D01*
X009946Y002448D01*
X009995Y002399D01*
X010047Y002353D01*
X010101Y002310D01*
X008601Y004560D02*
X008655Y004603D01*
X008707Y004649D01*
X008756Y004698D01*
X008803Y004750D01*
X008846Y004804D01*
X008887Y004860D01*
X008924Y004919D01*
X008958Y004979D01*
X008988Y005042D01*
X009015Y005105D01*
X009039Y005171D01*
X009059Y005237D01*
X009075Y005305D01*
X009087Y005373D01*
X009095Y005442D01*
X009100Y005511D01*
X009101Y005581D01*
X009098Y005650D01*
X009091Y005719D01*
X009080Y005787D01*
X009066Y005855D01*
X009047Y005922D01*
X009025Y005988D01*
X009000Y006053D01*
X008971Y006116D01*
X008938Y006177D01*
X008902Y006236D01*
X008863Y006293D01*
X008821Y006349D01*
X008776Y006401D01*
X008728Y006451D01*
X008677Y006498D01*
X008623Y006543D01*
X008568Y006584D01*
X008510Y006622D01*
X008450Y006657D01*
X008388Y006689D01*
X008325Y006717D01*
X008260Y006741D01*
X008194Y006762D01*
X008126Y006779D01*
X008058Y006793D01*
X007989Y006802D01*
X007920Y006808D01*
X007851Y006810D01*
X007782Y006808D01*
X007713Y006802D01*
X007644Y006793D01*
X007576Y006779D01*
X007508Y006762D01*
X007442Y006741D01*
X007377Y006717D01*
X007314Y006689D01*
X007252Y006657D01*
X007192Y006622D01*
X007134Y006584D01*
X007079Y006543D01*
X007025Y006498D01*
X006974Y006451D01*
X006926Y006401D01*
X006881Y006349D01*
X006839Y006293D01*
X006800Y006236D01*
X006764Y006177D01*
X006731Y006116D01*
X006702Y006053D01*
X006677Y005988D01*
X006655Y005922D01*
X006636Y005855D01*
X006622Y005787D01*
X006611Y005719D01*
X006604Y005650D01*
X006601Y005581D01*
X006602Y005511D01*
X006607Y005442D01*
X006615Y005373D01*
X006627Y005305D01*
X006643Y005237D01*
X006663Y005171D01*
X006687Y005105D01*
X006714Y005042D01*
X006744Y004979D01*
X006778Y004919D01*
X006815Y004860D01*
X006856Y004804D01*
X006899Y004750D01*
X006946Y004698D01*
X006995Y004649D01*
X007047Y004603D01*
X007101Y004560D01*
X007101Y007060D02*
X007047Y007103D01*
X006995Y007149D01*
X006946Y007198D01*
X006899Y007250D01*
X006856Y007304D01*
X006815Y007360D01*
X006778Y007419D01*
X006744Y007479D01*
X006714Y007542D01*
X006687Y007605D01*
X006663Y007671D01*
X006643Y007737D01*
X006627Y007805D01*
X006615Y007873D01*
X006607Y007942D01*
X006602Y008011D01*
X006601Y008081D01*
X006604Y008150D01*
X006611Y008219D01*
X006622Y008287D01*
X006636Y008355D01*
X006655Y008422D01*
X006677Y008488D01*
X006702Y008553D01*
X006731Y008616D01*
X006764Y008677D01*
X006800Y008736D01*
X006839Y008793D01*
X006881Y008849D01*
X006926Y008901D01*
X006974Y008951D01*
X007025Y008998D01*
X007079Y009043D01*
X007134Y009084D01*
X007192Y009122D01*
X007252Y009157D01*
X007314Y009189D01*
X007377Y009217D01*
X007442Y009241D01*
X007508Y009262D01*
X007576Y009279D01*
X007644Y009293D01*
X007713Y009302D01*
X007782Y009308D01*
X007851Y009310D01*
X007920Y009308D01*
X007989Y009302D01*
X008058Y009293D01*
X008126Y009279D01*
X008194Y009262D01*
X008260Y009241D01*
X008325Y009217D01*
X008388Y009189D01*
X008450Y009157D01*
X008510Y009122D01*
X008568Y009084D01*
X008623Y009043D01*
X008677Y008998D01*
X008728Y008951D01*
X008776Y008901D01*
X008821Y008849D01*
X008863Y008793D01*
X008902Y008736D01*
X008938Y008677D01*
X008971Y008616D01*
X009000Y008553D01*
X009025Y008488D01*
X009047Y008422D01*
X009066Y008355D01*
X009080Y008287D01*
X009091Y008219D01*
X009098Y008150D01*
X009101Y008081D01*
X009100Y008011D01*
X009095Y007942D01*
X009087Y007873D01*
X009075Y007805D01*
X009059Y007737D01*
X009039Y007671D01*
X009015Y007605D01*
X008988Y007542D01*
X008958Y007479D01*
X008924Y007419D01*
X008887Y007360D01*
X008846Y007304D01*
X008803Y007250D01*
X008756Y007198D01*
X008707Y007149D01*
X008655Y007103D01*
X008601Y007060D01*
X008601Y009560D02*
X008655Y009603D01*
X008707Y009649D01*
X008756Y009698D01*
X008803Y009750D01*
X008846Y009804D01*
X008887Y009860D01*
X008924Y009919D01*
X008958Y009979D01*
X008988Y010042D01*
X009015Y010105D01*
X009039Y010171D01*
X009059Y010237D01*
X009075Y010305D01*
X009087Y010373D01*
X009095Y010442D01*
X009100Y010511D01*
X009101Y010581D01*
X009098Y010650D01*
X009091Y010719D01*
X009080Y010787D01*
X009066Y010855D01*
X009047Y010922D01*
X009025Y010988D01*
X009000Y011053D01*
X008971Y011116D01*
X008938Y011177D01*
X008902Y011236D01*
X008863Y011293D01*
X008821Y011349D01*
X008776Y011401D01*
X008728Y011451D01*
X008677Y011498D01*
X008623Y011543D01*
X008568Y011584D01*
X008510Y011622D01*
X008450Y011657D01*
X008388Y011689D01*
X008325Y011717D01*
X008260Y011741D01*
X008194Y011762D01*
X008126Y011779D01*
X008058Y011793D01*
X007989Y011802D01*
X007920Y011808D01*
X007851Y011810D01*
X007782Y011808D01*
X007713Y011802D01*
X007644Y011793D01*
X007576Y011779D01*
X007508Y011762D01*
X007442Y011741D01*
X007377Y011717D01*
X007314Y011689D01*
X007252Y011657D01*
X007192Y011622D01*
X007134Y011584D01*
X007079Y011543D01*
X007025Y011498D01*
X006974Y011451D01*
X006926Y011401D01*
X006881Y011349D01*
X006839Y011293D01*
X006800Y011236D01*
X006764Y011177D01*
X006731Y011116D01*
X006702Y011053D01*
X006677Y010988D01*
X006655Y010922D01*
X006636Y010855D01*
X006622Y010787D01*
X006611Y010719D01*
X006604Y010650D01*
X006601Y010581D01*
X006602Y010511D01*
X006607Y010442D01*
X006615Y010373D01*
X006627Y010305D01*
X006643Y010237D01*
X006663Y010171D01*
X006687Y010105D01*
X006714Y010042D01*
X006744Y009979D01*
X006778Y009919D01*
X006815Y009860D01*
X006856Y009804D01*
X006899Y009750D01*
X006946Y009698D01*
X006995Y009649D01*
X007047Y009603D01*
X007101Y009560D01*
D21*
X031226Y008310D03*
X031226Y007310D03*
X031226Y006310D03*
X031226Y005310D03*
X036976Y005310D03*
X036976Y006310D03*
X036976Y007310D03*
X036976Y008310D03*
D22*
X036851Y010210D02*
X036851Y010410D01*
X037851Y010410D02*
X037851Y010210D01*
X038851Y010210D02*
X038851Y010410D01*
X035851Y010410D02*
X035851Y010210D01*
X033101Y010210D02*
X033101Y010410D01*
X032101Y010410D02*
X032101Y010210D01*
X031101Y010210D02*
X031101Y010410D01*
X030101Y010410D02*
X030101Y010210D01*
X036001Y014310D02*
X036201Y014310D01*
X036201Y015560D02*
X036001Y015560D01*
X036001Y017060D02*
X036201Y017060D01*
X036201Y018310D02*
X036001Y018310D01*
X036001Y019810D02*
X036201Y019810D01*
X036201Y021060D02*
X036001Y021060D01*
X036001Y022560D02*
X036201Y022560D01*
X036201Y023810D02*
X036001Y023810D01*
X035601Y029960D02*
X035601Y030160D01*
X034351Y030160D02*
X034351Y029960D01*
X032851Y029960D02*
X032851Y030160D01*
X031601Y030160D02*
X031601Y029960D01*
X024101Y029910D02*
X024101Y029710D01*
X022851Y029710D02*
X022851Y029910D01*
X021601Y029910D02*
X021601Y029710D01*
X020351Y029710D02*
X020351Y029910D01*
X019101Y029910D02*
X019101Y029710D01*
X017851Y029710D02*
X017851Y029910D01*
X016601Y029910D02*
X016601Y029710D01*
X015351Y029710D02*
X015351Y029910D01*
X013351Y029910D02*
X013351Y029710D01*
X012101Y029710D02*
X012101Y029910D01*
X010851Y029910D02*
X010851Y029710D01*
X009601Y029710D02*
X009601Y029910D01*
X008351Y029910D02*
X008351Y029710D01*
X007101Y029710D02*
X007101Y029910D01*
X005851Y029910D02*
X005851Y029710D01*
X004601Y029710D02*
X004601Y029910D01*
X002451Y029310D02*
X002251Y029310D01*
X002251Y028310D02*
X002451Y028310D01*
X009851Y010660D02*
X009851Y010460D01*
X012101Y010460D02*
X012101Y010660D01*
X009851Y008160D02*
X009851Y007960D01*
X012101Y006660D02*
X012101Y006460D01*
X009851Y005660D02*
X009851Y005460D01*
X008851Y003410D02*
X008851Y003210D01*
M02*
