G75*
%MOIN*%
%OFA0B0*%
%FSLAX24Y24*%
%IPPOS*%
%LPD*%
%AMOC8*
5,1,8,0,0,1.08239X$1,22.5*
%
%ADD10C,0.0000*%
%ADD11C,0.0397*%
%ADD12C,0.0317*%
%ADD13C,0.0060*%
D10*
X002392Y002517D02*
X002392Y011017D01*
X008892Y011017D01*
X008892Y002517D01*
X002392Y002517D01*
D11*
X004204Y004204D03*
X004579Y004204D03*
X003267Y004892D03*
X003267Y005267D03*
X005392Y007017D03*
X005392Y007392D03*
X005517Y009454D03*
X005892Y009454D03*
X007267Y009454D03*
X007267Y009079D03*
X003454Y009454D03*
X003079Y009454D03*
X006267Y004079D03*
X006767Y004079D03*
X007767Y003267D03*
X008329Y003267D03*
D12*
X008017Y004142D03*
X007267Y003329D03*
X005767Y003329D03*
X004017Y005079D03*
X004579Y005767D03*
X005017Y005454D03*
X005517Y006392D03*
X006142Y007204D03*
X006704Y007892D03*
X007142Y007579D03*
X007517Y008579D03*
X008017Y009267D03*
X007642Y010079D03*
X006704Y008579D03*
X004892Y010204D03*
X004642Y006517D03*
X003204Y004392D03*
X003517Y003329D03*
D13*
X003517Y003954D01*
X005017Y005454D01*
X007142Y007579D01*
X008267Y008704D01*
X008267Y009454D01*
X007642Y010079D01*
X007517Y010204D01*
X004892Y010204D01*
X006704Y009454D02*
X006704Y008579D01*
X006704Y007892D02*
X007392Y008579D01*
X007517Y008579D01*
X008017Y009267D02*
X007454Y009829D01*
X007079Y009829D01*
X006704Y009454D01*
X006142Y007204D02*
X005579Y006642D01*
X005142Y006642D01*
X005017Y006517D01*
X004642Y006517D01*
X005267Y006392D02*
X005517Y006392D01*
X005267Y006392D02*
X004642Y005767D01*
X004579Y005767D01*
X004017Y005079D02*
X003954Y005079D01*
X003267Y004392D01*
X003204Y004392D01*
X003517Y003329D02*
X005767Y003329D01*
X006017Y003079D01*
X007642Y003079D01*
X007767Y003204D01*
X007767Y003267D01*
X007267Y003329D02*
X007267Y003392D01*
X008017Y004142D01*
M02*
