G75*
%MOIN*%
%OFA0B0*%
%FSLAX24Y24*%
%IPPOS*%
%LPD*%
%AMOC8*
5,1,8,0,0,1.08239X$1,22.5*
%
%ADD10C,0.0000*%
%ADD11R,0.0472X0.0472*%
%ADD12C,0.0397*%
%ADD13C,0.0060*%
%ADD14C,0.0317*%
D10*
X002392Y002517D02*
X002392Y011017D01*
X008892Y011017D01*
X008892Y002517D01*
X002392Y002517D01*
D11*
X003517Y002978D03*
X004267Y002978D03*
X005017Y002978D03*
X005767Y002978D03*
X006517Y002978D03*
X007267Y002978D03*
X008017Y002978D03*
X008017Y003805D03*
X007267Y003805D03*
X006517Y003805D03*
X005767Y003805D03*
X005017Y003805D03*
X004267Y003805D03*
X003680Y004392D03*
X003517Y003805D03*
X002853Y004392D03*
X003541Y005079D03*
X004228Y005767D03*
X004368Y005079D03*
X005055Y005767D03*
X004978Y006517D03*
X005666Y007204D03*
X005805Y006517D03*
X006493Y007204D03*
X006353Y007892D03*
X007041Y008579D03*
X007180Y007892D03*
X007868Y008579D03*
X007541Y009267D03*
X008368Y009267D03*
X007993Y010079D03*
X007166Y010079D03*
X006517Y009728D03*
X005704Y009728D03*
X005704Y010555D03*
X006517Y010555D03*
X004892Y010555D03*
X004079Y010555D03*
X003267Y010555D03*
X003267Y009728D03*
X004079Y009728D03*
X004892Y009728D03*
D12*
X005517Y009454D03*
X005892Y009454D03*
X007267Y009454D03*
X007267Y009079D03*
X005392Y007392D03*
X005392Y007017D03*
X003267Y005267D03*
X003267Y004892D03*
X004204Y004204D03*
X004579Y004204D03*
X006267Y004079D03*
X006767Y004079D03*
X007767Y003267D03*
X008329Y003267D03*
X003454Y009454D03*
X003079Y009454D03*
D13*
X003079Y009541D01*
X003267Y009728D01*
X003454Y009541D01*
X003454Y009454D01*
X004079Y009728D02*
X003267Y010541D01*
X003267Y010555D01*
X004079Y010555D02*
X004079Y010541D01*
X004892Y009728D01*
X004892Y010204D02*
X004892Y010555D01*
X005704Y010555D02*
X005704Y010541D01*
X006517Y009728D01*
X005892Y009541D02*
X005892Y009454D01*
X005892Y009541D02*
X005704Y009728D01*
X005517Y009541D01*
X005517Y009454D01*
X006517Y010555D02*
X006690Y010555D01*
X007166Y010079D01*
X007642Y010079D02*
X007993Y010079D01*
X007353Y009454D02*
X007267Y009454D01*
X007353Y009454D02*
X007541Y009267D01*
X007353Y009079D01*
X007267Y009079D01*
X007041Y008579D02*
X006704Y008579D01*
X006704Y007892D02*
X006353Y007892D01*
X006493Y007204D02*
X006142Y007204D01*
X005666Y007204D02*
X005478Y007392D01*
X005392Y007392D01*
X005666Y007204D02*
X005478Y007017D01*
X005392Y007017D01*
X004978Y006517D02*
X004642Y006517D01*
X004579Y005767D02*
X004228Y005767D01*
X004368Y005079D02*
X004017Y005079D01*
X003541Y005079D02*
X003353Y005267D01*
X003267Y005267D01*
X003541Y005079D02*
X003353Y004892D01*
X003267Y004892D01*
X003204Y004392D02*
X002853Y004392D01*
X003517Y003805D02*
X003680Y003968D01*
X003680Y004392D01*
X004204Y004204D02*
X004579Y004204D01*
X004267Y004142D02*
X004204Y004204D01*
X004267Y004142D02*
X004267Y003805D01*
X004267Y003055D02*
X005017Y003805D01*
X005017Y003055D02*
X005767Y003805D01*
X005767Y003329D02*
X005767Y002978D01*
X006517Y002978D02*
X006517Y003055D01*
X007267Y003805D01*
X007267Y003329D02*
X007267Y002978D01*
X007767Y003267D02*
X008017Y003017D01*
X008017Y002978D01*
X008305Y003267D01*
X008329Y003267D01*
X008017Y003805D02*
X008017Y004142D01*
X006767Y004079D02*
X006517Y003829D01*
X006517Y003805D01*
X006267Y004055D01*
X006267Y004079D01*
X005017Y003055D02*
X005017Y002978D01*
X004267Y002978D02*
X004267Y003055D01*
X003517Y002978D02*
X003517Y003329D01*
X005017Y005454D02*
X005055Y005493D01*
X005055Y005767D01*
X005517Y006392D02*
X005680Y006392D01*
X005805Y006517D01*
X007142Y007579D02*
X007180Y007618D01*
X007180Y007892D01*
X007517Y008579D02*
X007868Y008579D01*
X008017Y009267D02*
X008368Y009267D01*
D14*
X008017Y009267D03*
X007517Y008579D03*
X006704Y008579D03*
X006704Y007892D03*
X007142Y007579D03*
X006142Y007204D03*
X005517Y006392D03*
X004642Y006517D03*
X004579Y005767D03*
X005017Y005454D03*
X004017Y005079D03*
X003204Y004392D03*
X003517Y003329D03*
X005767Y003329D03*
X007267Y003329D03*
X008017Y004142D03*
X007642Y010079D03*
X004892Y010204D03*
M02*
