G75*
%MOIN*%
%OFA0B0*%
%FSLAX24Y24*%
%IPPOS*%
%LPD*%
%AMOC8*
5,1,8,0,0,1.08239X$1,22.5*
%
%ADD10C,0.0000*%
%ADD11R,0.0512X0.0512*%
%ADD12C,0.0437*%
D10*
X002392Y002517D02*
X002392Y011017D01*
X008892Y011017D01*
X008892Y002517D01*
X002392Y002517D01*
D11*
X002978Y003142D03*
X003805Y003142D03*
X003805Y004017D03*
X002978Y004017D03*
X002978Y004892D03*
X003805Y004892D03*
X003805Y005767D03*
X002978Y005767D03*
X002978Y006642D03*
X003805Y006642D03*
X004517Y006353D03*
X005329Y006353D03*
X006079Y006353D03*
X006829Y006353D03*
X007166Y005704D03*
X007993Y005704D03*
X007603Y004954D03*
X007993Y004079D03*
X007166Y004079D03*
X006579Y003743D03*
X006579Y002916D03*
X005642Y002916D03*
X005642Y003743D03*
X004704Y003743D03*
X004704Y002916D03*
X008430Y004954D03*
X006829Y007180D03*
X006806Y007793D03*
X006079Y007180D03*
X005329Y007180D03*
X004517Y007180D03*
X003805Y007517D03*
X002978Y007517D03*
X002978Y008392D03*
X003805Y008392D03*
X003805Y009267D03*
X004410Y009721D03*
X004410Y010547D03*
X005329Y010555D03*
X005329Y009728D03*
X006204Y009728D03*
X006791Y009454D03*
X007291Y008642D03*
X008118Y008642D03*
X007618Y009454D03*
X006204Y010555D03*
X007633Y007793D03*
X002978Y009267D03*
D12*
X004079Y010579D03*
X004767Y010579D03*
X002954Y007829D03*
X002954Y007204D03*
X004204Y007079D03*
X004829Y007204D03*
X002954Y005204D03*
X002954Y004579D03*
X003892Y003454D03*
X004392Y003767D03*
X005017Y003767D03*
X003892Y002829D03*
X007142Y003767D03*
X007142Y004392D03*
X007204Y006829D03*
X007204Y007204D03*
X007642Y009142D03*
X007642Y009829D03*
M02*
