G75*
%MOIN*%
%OFA0B0*%
%FSLAX24Y24*%
%IPPOS*%
%LPD*%
%AMOC8*
5,1,8,0,0,1.08239X$1,22.5*
%
%ADD10C,0.0000*%
%ADD11C,0.0100*%
%ADD12C,0.0040*%
%ADD13C,0.0080*%
D10*
X002392Y002517D02*
X002392Y011017D01*
X008892Y011017D01*
X008892Y002517D01*
X002392Y002517D01*
D11*
X002642Y002998D02*
X002642Y010091D01*
X002644Y010146D01*
X002649Y010200D01*
X002659Y010254D01*
X002672Y010307D01*
X002688Y010359D01*
X002708Y010410D01*
X002732Y010459D01*
X002758Y010507D01*
X002788Y010552D01*
X002821Y010596D01*
X002857Y010637D01*
X002896Y010676D01*
X002937Y010712D01*
X002981Y010745D01*
X003026Y010775D01*
X003074Y010801D01*
X003123Y010825D01*
X003174Y010845D01*
X003226Y010861D01*
X003279Y010874D01*
X003333Y010884D01*
X003387Y010889D01*
X003442Y010891D01*
X003442Y010892D02*
X006560Y010892D01*
X007126Y010657D02*
X008102Y009681D01*
X008454Y008831D02*
X008454Y008152D01*
X008049Y007174D02*
X007811Y006936D01*
X007811Y006935D02*
X007790Y006911D01*
X007771Y006886D01*
X007756Y006858D01*
X007744Y006828D01*
X007735Y006798D01*
X007730Y006767D01*
X007728Y006735D01*
X007730Y006703D01*
X007735Y006672D01*
X007744Y006642D01*
X007756Y006612D01*
X007771Y006584D01*
X007790Y006559D01*
X007811Y006535D01*
X008540Y005806D01*
X008767Y005259D02*
X008767Y004787D01*
X008767Y005259D02*
X008765Y005310D01*
X008760Y005360D01*
X008752Y005410D01*
X008741Y005459D01*
X008726Y005507D01*
X008708Y005555D01*
X008687Y005601D01*
X008663Y005646D01*
X008637Y005688D01*
X008607Y005730D01*
X008575Y005769D01*
X008541Y005806D01*
X008766Y004787D02*
X008764Y004721D01*
X008759Y004656D01*
X008751Y004591D01*
X008739Y004526D01*
X008723Y004462D01*
X008705Y004399D01*
X008683Y004337D01*
X008657Y004276D01*
X008629Y004217D01*
X008598Y004159D01*
X008563Y004103D01*
X008526Y004049D01*
X008486Y003997D01*
X008443Y003947D01*
X008398Y003899D01*
X008399Y003899D02*
X007382Y002882D01*
X006651Y002579D02*
X003061Y002579D01*
X003022Y002581D01*
X002984Y002586D01*
X002946Y002595D01*
X002910Y002607D01*
X002874Y002623D01*
X002840Y002642D01*
X002808Y002664D01*
X002779Y002688D01*
X002751Y002716D01*
X002727Y002745D01*
X002705Y002777D01*
X002686Y002811D01*
X002670Y002847D01*
X002658Y002883D01*
X002649Y002921D01*
X002644Y002959D01*
X002642Y002998D01*
X004142Y004778D02*
X004142Y005288D01*
X004144Y005340D01*
X004149Y005392D01*
X004159Y005443D01*
X004172Y005493D01*
X004188Y005543D01*
X004208Y005591D01*
X004231Y005637D01*
X004258Y005682D01*
X004287Y005725D01*
X004320Y005765D01*
X004356Y005803D01*
X004394Y005839D01*
X004434Y005872D01*
X004477Y005901D01*
X004522Y005928D01*
X004568Y005951D01*
X004616Y005971D01*
X004666Y005987D01*
X004716Y006000D01*
X004767Y006010D01*
X004819Y006015D01*
X004871Y006017D01*
X005849Y006017D01*
X006562Y005721D02*
X006901Y005382D01*
X006900Y005382D02*
X006926Y005354D01*
X006949Y005322D01*
X006969Y005289D01*
X006986Y005254D01*
X006999Y005218D01*
X007008Y005180D01*
X007014Y005142D01*
X007016Y005103D01*
X006867Y004742D02*
X006413Y004288D01*
X005909Y004079D02*
X004840Y004079D01*
X004790Y004081D01*
X004741Y004086D01*
X004691Y004095D01*
X004643Y004107D01*
X004596Y004123D01*
X004550Y004142D01*
X004505Y004165D01*
X004462Y004190D01*
X004421Y004218D01*
X004382Y004250D01*
X004346Y004284D01*
X004312Y004320D01*
X004280Y004359D01*
X004252Y004400D01*
X004227Y004443D01*
X004204Y004488D01*
X004185Y004534D01*
X004169Y004581D01*
X004157Y004629D01*
X004148Y004679D01*
X004143Y004728D01*
X004141Y004778D01*
X005849Y006017D02*
X005910Y006015D01*
X005971Y006010D01*
X006031Y006000D01*
X006090Y005988D01*
X006149Y005971D01*
X006206Y005951D01*
X006263Y005928D01*
X006317Y005902D01*
X006370Y005872D01*
X006422Y005839D01*
X006471Y005802D01*
X006517Y005763D01*
X006562Y005722D01*
X007017Y005103D02*
X007015Y005059D01*
X007009Y005014D01*
X007000Y004971D01*
X006986Y004929D01*
X006969Y004887D01*
X006949Y004848D01*
X006925Y004810D01*
X006898Y004775D01*
X006868Y004742D01*
X006413Y004288D02*
X006376Y004253D01*
X006336Y004221D01*
X006294Y004192D01*
X006251Y004166D01*
X006205Y004143D01*
X006158Y004124D01*
X006110Y004108D01*
X006061Y004095D01*
X006010Y004086D01*
X005960Y004081D01*
X005909Y004079D01*
X006651Y002579D02*
X006713Y002581D01*
X006776Y002587D01*
X006838Y002596D01*
X006899Y002609D01*
X006959Y002626D01*
X007018Y002646D01*
X007076Y002670D01*
X007132Y002698D01*
X007186Y002728D01*
X007239Y002762D01*
X007289Y002799D01*
X007337Y002839D01*
X007383Y002882D01*
X005679Y007517D02*
X004815Y007517D01*
X004765Y007519D01*
X004715Y007525D01*
X004665Y007534D01*
X004617Y007547D01*
X004569Y007564D01*
X004523Y007584D01*
X004478Y007607D01*
X004436Y007634D01*
X004395Y007664D01*
X004357Y007697D01*
X004322Y007732D01*
X004289Y007770D01*
X004259Y007811D01*
X004232Y007854D01*
X004209Y007898D01*
X004189Y007944D01*
X004172Y007992D01*
X004159Y008040D01*
X004150Y008090D01*
X004144Y008140D01*
X004142Y008190D01*
X004142Y008663D01*
X004144Y008715D01*
X004149Y008767D01*
X004159Y008818D01*
X004172Y008868D01*
X004188Y008918D01*
X004208Y008966D01*
X004231Y009012D01*
X004258Y009057D01*
X004287Y009100D01*
X004320Y009140D01*
X004356Y009178D01*
X004394Y009214D01*
X004434Y009247D01*
X004477Y009276D01*
X004522Y009303D01*
X004568Y009326D01*
X004616Y009346D01*
X004666Y009362D01*
X004716Y009375D01*
X004767Y009385D01*
X004819Y009390D01*
X004871Y009392D01*
X005877Y009392D01*
X006222Y009249D02*
X006370Y009101D01*
X006222Y009249D02*
X006191Y009278D01*
X006157Y009304D01*
X006121Y009327D01*
X006083Y009346D01*
X006044Y009363D01*
X006003Y009375D01*
X005962Y009385D01*
X005920Y009390D01*
X005877Y009392D01*
X006560Y010891D02*
X006612Y010889D01*
X006664Y010884D01*
X006716Y010876D01*
X006767Y010864D01*
X006817Y010849D01*
X006866Y010830D01*
X006914Y010808D01*
X006960Y010784D01*
X007004Y010756D01*
X007047Y010726D01*
X007087Y010692D01*
X007126Y010657D01*
X008102Y009681D02*
X008148Y009632D01*
X008192Y009580D01*
X008232Y009527D01*
X008270Y009471D01*
X008304Y009412D01*
X008335Y009353D01*
X008363Y009291D01*
X008387Y009228D01*
X008407Y009164D01*
X008424Y009098D01*
X008437Y009032D01*
X008446Y008966D01*
X008452Y008898D01*
X008454Y008831D01*
X008454Y008152D02*
X008452Y008080D01*
X008446Y008007D01*
X008437Y007936D01*
X008424Y007864D01*
X008407Y007794D01*
X008386Y007725D01*
X008362Y007656D01*
X008334Y007589D01*
X008303Y007524D01*
X008269Y007460D01*
X008231Y007399D01*
X008190Y007339D01*
X008146Y007282D01*
X008099Y007227D01*
X008049Y007174D01*
X006472Y008034D02*
X006149Y007711D01*
X006114Y007679D01*
X006077Y007649D01*
X006038Y007622D01*
X005997Y007598D01*
X005955Y007577D01*
X005911Y007559D01*
X005866Y007544D01*
X005820Y007532D01*
X005773Y007524D01*
X005726Y007519D01*
X005679Y007517D01*
X006642Y008444D02*
X006640Y008505D01*
X006634Y008565D01*
X006624Y008625D01*
X006610Y008684D01*
X006593Y008743D01*
X006571Y008800D01*
X006546Y008855D01*
X006518Y008909D01*
X006485Y008960D01*
X006450Y009010D01*
X006411Y009057D01*
X006370Y009101D01*
X006642Y008444D02*
X006640Y008398D01*
X006635Y008353D01*
X006626Y008309D01*
X006614Y008265D01*
X006598Y008222D01*
X006579Y008181D01*
X006557Y008141D01*
X006531Y008103D01*
X006503Y008067D01*
X006472Y008034D01*
D12*
X006469Y008168D02*
X007844Y008168D01*
X007969Y008043D01*
X007969Y007418D01*
X006469Y007418D01*
X006469Y008168D01*
X006954Y008267D02*
X006954Y009017D01*
X008329Y009017D01*
X008454Y008892D01*
X008454Y008267D01*
X006954Y008267D01*
X007204Y007517D02*
X006579Y007517D01*
X006454Y007392D01*
X006454Y006017D01*
X005704Y006017D01*
X005704Y007392D01*
X005829Y007517D01*
X006454Y007517D01*
X006454Y006017D01*
X007204Y006017D01*
X007204Y007517D01*
X006829Y006079D02*
X008329Y006079D01*
X008329Y005329D01*
X006954Y005329D01*
X006829Y005454D01*
X006829Y006079D01*
X007267Y005329D02*
X008767Y005329D01*
X008767Y004579D01*
X007392Y004579D01*
X007267Y004704D01*
X007267Y005329D01*
X006829Y004454D02*
X008329Y004454D01*
X008329Y003704D01*
X006954Y003704D01*
X006829Y003829D01*
X006829Y004454D01*
X006954Y004079D02*
X006954Y002579D01*
X006204Y002579D01*
X006204Y003954D01*
X006329Y004079D01*
X006954Y004079D01*
X006017Y004079D02*
X006017Y002579D01*
X005267Y002579D01*
X005267Y003954D01*
X005392Y004079D01*
X006017Y004079D01*
X005079Y004079D02*
X005079Y002579D01*
X004329Y002579D01*
X004329Y003954D01*
X004454Y004079D01*
X005079Y004079D01*
X004142Y004392D02*
X004142Y003642D01*
X002767Y003642D01*
X002642Y003767D01*
X002642Y004392D01*
X004142Y004392D01*
X004142Y004517D02*
X002767Y004517D01*
X002642Y004642D01*
X002642Y005267D01*
X004142Y005267D01*
X004142Y004517D01*
X004142Y005392D02*
X002767Y005392D01*
X002642Y005517D01*
X002642Y006142D01*
X004142Y006142D01*
X004142Y005392D01*
X004142Y006017D02*
X004142Y007392D01*
X004267Y007517D01*
X004892Y007517D01*
X004892Y006017D01*
X004142Y006017D01*
X004142Y006267D02*
X002767Y006267D01*
X002642Y006392D01*
X002642Y007017D01*
X004142Y007017D01*
X004142Y006267D01*
X004954Y006017D02*
X004954Y007392D01*
X005079Y007517D01*
X005704Y007517D01*
X005704Y006017D01*
X004954Y006017D01*
X004142Y007142D02*
X002767Y007142D01*
X002642Y007267D01*
X002642Y007892D01*
X004142Y007892D01*
X004142Y007142D01*
X004142Y008017D02*
X002767Y008017D01*
X002642Y008142D01*
X002642Y008767D01*
X004142Y008767D01*
X004142Y008017D01*
X004142Y008892D02*
X002767Y008892D01*
X002642Y009017D01*
X002642Y009642D01*
X004142Y009642D01*
X004142Y008892D01*
X004035Y009384D02*
X004035Y010759D01*
X004160Y010884D01*
X004785Y010884D01*
X004785Y009384D01*
X004035Y009384D01*
X004954Y009392D02*
X004954Y010767D01*
X005079Y010892D01*
X005704Y010892D01*
X005704Y009392D01*
X004954Y009392D01*
X005829Y009392D02*
X005829Y010767D01*
X005954Y010892D01*
X006579Y010892D01*
X006579Y009392D01*
X005829Y009392D01*
X006454Y009079D02*
X006454Y009829D01*
X007829Y009829D01*
X007954Y009704D01*
X007954Y009079D01*
X006454Y009079D01*
X004142Y003517D02*
X002642Y003517D01*
X002642Y002892D01*
X002767Y002767D01*
X004142Y002767D01*
X004142Y003517D01*
D13*
X004534Y004194D02*
X004674Y004334D01*
X004674Y004615D01*
X004855Y004544D02*
X004855Y004264D01*
X004925Y004194D01*
X005065Y004194D01*
X005135Y004264D01*
X005135Y004544D01*
X005065Y004615D01*
X004925Y004615D01*
X004855Y004544D01*
X004845Y004807D02*
X004705Y004807D01*
X004775Y004807D02*
X004775Y005227D01*
X004705Y005227D02*
X004845Y005227D01*
X005011Y005227D02*
X005292Y004807D01*
X005292Y005227D01*
X005305Y005432D02*
X005305Y005852D01*
X005165Y005712D01*
X004985Y005782D02*
X004985Y005502D01*
X004915Y005432D01*
X004775Y005432D01*
X004705Y005502D01*
X004705Y005782D01*
X004775Y005852D01*
X004915Y005852D01*
X004985Y005782D01*
X005165Y005432D02*
X005445Y005432D01*
X005525Y005559D02*
X005666Y005419D01*
X005806Y005559D01*
X005806Y005840D01*
X005986Y005769D02*
X005986Y005489D01*
X006056Y005419D01*
X006196Y005419D01*
X006266Y005489D01*
X006266Y005769D01*
X006196Y005840D01*
X006056Y005840D01*
X005986Y005769D01*
X006446Y005840D02*
X006446Y005629D01*
X006586Y005699D01*
X006656Y005699D01*
X006727Y005629D01*
X006727Y005489D01*
X006656Y005419D01*
X006516Y005419D01*
X006446Y005489D01*
X006446Y005840D02*
X006727Y005840D01*
X006696Y004965D02*
X006977Y004965D01*
X006977Y004894D01*
X006696Y004614D01*
X006696Y004544D01*
X006516Y004614D02*
X006516Y004894D01*
X006446Y004965D01*
X006306Y004965D01*
X006236Y004894D01*
X006236Y004614D01*
X006306Y004544D01*
X006446Y004544D01*
X006516Y004614D01*
X006056Y004684D02*
X006056Y004965D01*
X005775Y004965D02*
X005775Y004684D01*
X005916Y004544D01*
X006056Y004684D01*
X005595Y004544D02*
X005595Y004474D01*
X005525Y004404D01*
X005385Y004404D01*
X005315Y004474D01*
X005315Y004544D01*
X005385Y004615D01*
X005525Y004615D01*
X005595Y004544D01*
X005525Y004404D02*
X005595Y004334D01*
X005595Y004264D01*
X005525Y004194D01*
X005385Y004194D01*
X005315Y004264D01*
X005315Y004334D01*
X005385Y004404D01*
X005011Y004807D02*
X005011Y005227D01*
X004524Y005227D02*
X004524Y004947D01*
X004384Y004807D01*
X004244Y004947D01*
X004244Y005227D01*
X004384Y005432D02*
X004524Y005572D01*
X004524Y005852D01*
X004244Y005852D02*
X004244Y005572D01*
X004384Y005432D01*
X004394Y004615D02*
X004394Y004334D01*
X004534Y004194D01*
X005525Y005559D02*
X005525Y005840D01*
X005500Y007682D02*
X005360Y007682D01*
X005290Y007752D01*
X005290Y007892D01*
X005500Y007892D01*
X005570Y007822D01*
X005570Y007752D01*
X005500Y007682D01*
X005290Y007892D02*
X005430Y008032D01*
X005570Y008102D01*
X005595Y008257D02*
X005315Y008257D01*
X005595Y008537D01*
X005595Y008607D01*
X005525Y008677D01*
X005385Y008677D01*
X005315Y008607D01*
X005135Y008607D02*
X005135Y008327D01*
X005065Y008257D01*
X004925Y008257D01*
X004855Y008327D01*
X004855Y008607D01*
X004925Y008677D01*
X005065Y008677D01*
X005135Y008607D01*
X005000Y008846D02*
X004860Y008846D01*
X004790Y008916D01*
X004790Y009197D01*
X004860Y009267D01*
X005000Y009267D01*
X005070Y009197D01*
X005070Y008916D01*
X005000Y008846D01*
X005250Y008916D02*
X005320Y008846D01*
X005461Y008846D01*
X005531Y008916D01*
X005531Y008986D01*
X005461Y009056D01*
X005390Y009056D01*
X005461Y009056D02*
X005531Y009127D01*
X005531Y009197D01*
X005461Y009267D01*
X005320Y009267D01*
X005250Y009197D01*
X004674Y008677D02*
X004674Y008397D01*
X004534Y008257D01*
X004394Y008397D01*
X004394Y008677D01*
X004470Y008846D02*
X004610Y008986D01*
X004610Y009267D01*
X004330Y009267D02*
X004330Y008986D01*
X004470Y008846D01*
X004369Y008102D02*
X004369Y007822D01*
X004509Y007682D01*
X004649Y007822D01*
X004649Y008102D01*
X004830Y008032D02*
X004830Y007752D01*
X004900Y007682D01*
X005040Y007682D01*
X005110Y007752D01*
X005110Y008032D01*
X005040Y008102D01*
X004900Y008102D01*
X004830Y008032D01*
X005869Y007994D02*
X006149Y007994D01*
X006289Y008134D01*
X006149Y008274D01*
X005869Y008274D01*
X005939Y008455D02*
X005869Y008525D01*
X005869Y008665D01*
X005939Y008735D01*
X006219Y008735D01*
X006289Y008665D01*
X006289Y008525D01*
X006219Y008455D01*
X005939Y008455D01*
X006079Y008915D02*
X006079Y009195D01*
X006289Y009125D02*
X005869Y009125D01*
X006079Y008915D01*
M02*
