%
M48
M72
T01C0.0197
%
T01
X3892Y2829
X3892Y3454
X4392Y3767
X5017Y3767
X6579Y3267
X7142Y3767
X7142Y4392
X7642Y5704
X7204Y6829
X7204Y7204
X6079Y6704
X4829Y7204
X4204Y7079
X2954Y7204
X2954Y7829
X3454Y8392
X5329Y10079
X4767Y10579
X4079Y10579
X7642Y9829
X7642Y9142
X7642Y8642
X3454Y5767
X2954Y5204
X2954Y4579
M30
