<?xml version="1.0" encoding="UTF-8" standalone="no"?>
<svg
   xmlns:dc="http://purl.org/dc/elements/1.1/"
   xmlns:cc="http://creativecommons.org/ns#"
   xmlns:rdf="http://www.w3.org/1999/02/22-rdf-syntax-ns#"
   xmlns:svg="http://www.w3.org/2000/svg"
   xmlns="http://www.w3.org/2000/svg"
   xmlns:sodipodi="http://sodipodi.sourceforge.net/DTD/sodipodi-0.dtd"
   xmlns:inkscape="http://www.inkscape.org/namespaces/inkscape"
   width="3.61556in"
   height="3.9548611111111107in"
   viewBox="0 0 3.61556 3.9548611111111107"
   id="svg12097"
   version="1.1"
   inkscape:version="0.48.5 r10040"
   sodipodi:docname="power_tower_mc_ink.svg">
  <metadata
     id="metadata12255">
    <rdf:RDF>
      <cc:Work
         rdf:about="">
        <dc:format>image/svg+xml</dc:format>
        <dc:type
           rdf:resource="http://purl.org/dc/dcmitype/StillImage" />
      </cc:Work>
    </rdf:RDF>
  </metadata>
  <defs
     id="defs12253" />
  <sodipodi:namedview
     pagecolor="#ffffff"
     bordercolor="#666666"
     borderopacity="1"
     objecttolerance="10"
     gridtolerance="10"
     guidetolerance="10"
     inkscape:pageopacity="0"
     inkscape:pageshadow="2"
     inkscape:window-width="1440"
     inkscape:window-height="811"
     id="namedview12251"
     showgrid="false"
     inkscape:zoom="5.6568542"
     inkscape:cx="74.542717"
     inkscape:cy="103.14149"
     inkscape:window-x="0"
     inkscape:window-y="0"
     inkscape:window-maximized="1"
     inkscape:current-layer="svg12097" />
  <path
     id="path0"
     d="M3.61556 3.9236111111111107 L0.03879100000000002 3.9236111111111107 L0.03879100000000002 0.18440711111111074 L3.61556 0.18440711111111074 L3.61556 3.9236111111111107 Z"
     stroke-width="0.02"
     stroke="black"
     fill="none" />
  <path
     id="path2"
     d="m 0.063748,3.0297851 0,0.868815 0.200032,0 0,-0.193793 0.2187505,0 C 0.6013923,3.6807554 0.69917745,3.5805654 0.71999798,3.4611003 L 0.719944,3.2923721 C 0.71231048,3.1741728 0.62682735,3.0651925 0.51372599,3.0298377 z"
     inkscape:connector-curvature="0"
     style="fill:none;stroke:#000000;stroke-width:0.02"
     sodipodi:nodetypes="ccccccccc" />
  <path
     style="fill:none;stroke:#000000;stroke-width:0.02"
     d="m 0.275174,3.3617081 c -0.002678,-0.040974 0.0175062,-0.082429 0.0514803,-0.1055071 0.0342469,-0.024199 0.0814156,-0.028178 0.11921466,-0.01 0.0376966,0.017222 0.0646666,0.055304 0.0684846,0.096566 0.004875,0.043712 -0.0167918,0.089071 -0.0539798,0.1126036 -0.0359876,0.023973 -0.0851764,0.02589 -0.12288717,0.00472 C 0.30153033,3.44094 0.27721409,3.4023665 0.275174,3.3617081 z"
     id="path5"
     inkscape:connector-curvature="0" />
  <path
     style="fill:none;stroke:#000000;stroke-width:0.02"
     d="m 1.4351436,3.1425355 c 0.018906,0.034638 0.02469,0.074691 0.022801,0.1137094 0,0.1451371 0,0.2902741 5.87e-5,0.4353947 C 1.467362,3.7944287 1.38038,3.8946111 1.279875,3.8978995 1.1734432,3.8978961 1.0638126,3.897835 0.9543276,3.898036 0.876911,3.893596 0.80828205,3.830609 0.79707336,3.7539113 c -0.003667,-0.040567 -6.0228e-4,-0.081594 -0.001609,-0.1223408 2.377e-4,-0.1372928 -4.5138e-4,-0.274659 2.9925e-4,-0.4119051 0.005321,-0.086565 0.0735694,-0.1639391 0.15866194,-0.1803921 0.0402548,-0.00755 0.0815575,-0.00224 0.12226865,-0.00383 0.058365,0 0.1167308,0 0.175042,-8.1e-6 0.074963,-0.0032 0.1492711,0.040247 0.1834074,0.1071003 z"
     id="path6"
     inkscape:connector-curvature="0"
     sodipodi:nodetypes="cccccccccccc" />
  <path
     style="fill:none;stroke:#000000;stroke-width:0.02"
     d="M 1.16514,3.6757733 C 1.116553,3.6918473 1.0592487,3.6743333 1.028179,3.6336093 1.009235,3.6098003 0.9995929,3.5789903 1.00177,3.5486263 c 1.107e-4,-0.06519 -2.212e-4,-0.1304144 1.657e-4,-0.1955825 0.00639,-0.049937 0.046046,-0.093074 0.095039,-0.1042468 0.05048,-0.012873 0.1073988,0.00986 0.135032,0.054042 0.011175,0.017123 0.017965,0.037052 0.019726,0.057496 5.76e-5,0.070909 5.76e-5,0.1417455 3.6e-6,0.2125825 -0.00595,0.047233 -0.041117,0.088909 -0.086596,0.1028562 z"
     id="path10"
     inkscape:connector-curvature="0"
     sodipodi:nodetypes="ccccccccc" />
  <path
     style="fill:none;stroke:#000000;stroke-width:0.02"
     d="m 1.533563,3.8131921 c 1.086e-4,-0.2383333 -2.173e-4,-0.4766745 1.63e-4,-0.7150029 0.00189,-0.027431 0.026418,-0.049993 0.053934,-0.04964 0.032833,2.005e-4 0.065694,-5.472e-4 0.098486,3.324e-4 0.026655,0.00337 0.048244,0.02825 0.047487,0.055152 -1.509e-4,0.1169187 -2.16e-5,0.2338417 -1.224e-4,0.3507673 -0.00133,0.013712 0.00623,0.027688 0.018456,0.034043 0.012402,0.00676 0.029083,0.00512 0.039465,-0.0046 0.01805,-0.02214 0.035994,-0.04438 0.054111,-0.066457 0.00612,-0.00614 0.01654,-0.007 0.023625,-0.00198 0.00105,5.343e-4 0.00178,0.0015 0.00263,0.00223 0.019227,0.023287 0.037924,0.047106 0.057566,0.07008 0.013536,0.012614 0.038112,0.00741 0.045194,-0.00973 0.00494,-0.011557 0.00182,-0.024534 0.0027,-0.036731 0,-0.1134214 0,-0.2268429 5.95e-5,-0.3402591 -5.323e-4,-0.028449 0.024515,-0.053314 0.052858,-0.052846 l 0.094282,7.5e-6 c 0.031958,9.256e-4 0.057137,0.032475 0.052788,0.063792 0,0.2362732 0,0.4725463 3.5e-6,0.70889 0.0016,0.017231 -0.00347,0.034896 -0.013709,0.04873 -0.011826,0.015948 -0.030476,0.026693 -0.050299,0.028433 -0.028152,2.113e-4 -0.056327,3.02e-5 -0.084537,7.89e-5 C 2.003913,3.8949757 1.980686,3.8815017 1.965123,3.8619897 1.932454,3.8225471 1.899406,3.7834111 1.866618,3.7440321 c -9.119e-4,-6.528e-4 -0.00181,-0.00138 -0.00291,-0.00163 -4.965e-4,-1.87e-4 -0.00105,-1.348e-4 -0.00157,-1.604e-4 -0.00435,-8.107e-4 -0.00882,1.893e-4 -0.012477,0.00266 -0.030414,0.036629 -0.060827,0.073258 -0.09124,0.1098871 -0.018124,0.023906 -0.046033,0.039916 -0.07575,0.043762 -0.029845,-0.00117 -0.058616,0.00328 -0.092027,-0.00277 -0.033411,-0.00605 -0.061163,-0.045068 -0.057081,-0.082591 z"
     id="path21"
     inkscape:connector-curvature="0"
     sodipodi:nodetypes="ccccccccccccccccccccccccccccccc" />
  <path
     style="fill:none;stroke:#000000;stroke-width:0.02"
     d="M 2.8428905,3.7173424 C 2.7291139,3.7172121 2.6153251,3.7174304 2.50157,3.7171771 2.480353,3.7153271 2.463339,3.6947781 2.465378,3.6735921 c 1.823e-4,-0.036017 -3.639e-4,-0.07209 2.718e-4,-0.1080723 0.00216,-0.015123 0.017842,-0.025637 0.032687,-0.023205 0.048165,0 0.09633,0 0.1445039,-5.28e-5 0.013604,0.00185 0.027422,-0.00876 0.028708,-0.022515 l -5.4e-5,-0.079859 C 2.673541,3.4226511 2.659827,3.4063161 2.642718,3.4048461 l -0.15346,-6.1e-5 0,-1.08e-4 c -0.016131,-0.00133 -0.026664,-0.01815 -0.023872,-0.033471 3.399e-4,-0.035844 -6.786e-4,-0.071769 5.065e-4,-0.1075639 0.00263,-0.021313 0.024247,-0.03645 0.045176,-0.033831 0.098409,-1.138e-4 0.1968525,2.275e-4 0.2952402,-1.706e-4 0.037442,-0.00435 0.06755,-0.039924 0.065796,-0.077547 -0.00175,-0.020596 0.00292,-0.042574 -0.00753,-0.061624 -0.01093,-0.023417 -0.034803,-0.039957 -0.060595,-0.041904 l -0.4886044,-9.3e-6 c -0.038677,0.00245 -0.068198,0.041304 -0.062504,0.079187 2.817e-4,0.2344118 -5.632e-4,0.4688724 4.22e-4,0.7032538 0.00293,0.040643 0.043011,0.072008 0.08309,0.067505 0.1708945,0 0.3417889,0 0.5126836,4.9e-5 0.011661,1.2e-4 0.022936,-0.0075 0.026867,-0.018543 0.00311,-0.00793 0.00156,-0.016629 0.00194,-0.02493 0,-0.036366 0,-0.072732 -5.34e-5,-0.1090408 -0.00138,-0.01707 -0.017915,-0.030668 -0.03493,-0.028695 z"
     id="path23"
     inkscape:connector-curvature="0"
     sodipodi:nodetypes="ccccccccccccccccccccccccccc" />
  <path
     style="fill:none;stroke:#000000;stroke-width:0.02"
     d="m 3.1530537,3.8528081 c 1.434e-4,-0.040563 -2.876e-4,-0.081139 2.17e-4,-0.121693 0.0017,-0.027323 0.026078,-0.050792 0.053488,-0.051208 0.015201,3.669e-4 0.030717,-0.0016 0.045668,0.00182 0.01176,0.00327 0.022315,0.010392 0.029845,0.020049 l 0.1303253,0.170344 c 0.00868,0.014483 0.024186,0.024558 0.040908,0.026426 0.034754,-5.13e-5 0.069575,2.65e-4 0.1043752,-1.05e-4 0.01751,-9.26e-4 0.032555,-0.016678 0.032624,-0.034219 -4.88e-5,-0.02613 3.261e-4,-0.052275 -2.091e-4,-0.078399 -0.0014,-0.03261 -0.015194,-0.064522 -0.037891,-0.087909 -0.01931,-0.01936 -0.03063,-0.046402 -0.030595,-0.073831 1.858e-4,-0.032798 0.01406,-0.065031 0.037438,-0.087946 0.018435,-0.018513 0.02993,-0.043838 0.03116,-0.070023 3.26e-4,-0.070443 4.74e-5,-0.1408937 8.61e-5,-0.2113397 4.606e-4,-0.032751 -0.016431,-0.063421 -0.040785,-0.084525 -0.032079,-0.031322 -0.062637,-0.06428 -0.095741,-0.094502 -0.0306,-0.02518 -0.070964,-0.035881 -0.1101593,-0.033429 -0.077744,3.158e-4 -0.1555131,-6.379e-4 -0.233241,4.88e-4 -0.066705,0.00436 -0.1277653,0.051822 -0.1485186,0.1153483 -0.0057,0.016645 -0.00861,0.034171 -0.00903,0.051749 1.94e-4,0.2207854 -2.362e-4,0.4416497 2.645e-4,0.6623805 0.00194,0.013761 0.013794,0.025066 0.027674,0.026267 0.044686,-7.99e-5 0.092843,3.065e-4 0.1262853,-8.588e-4 0.033442,-0.00117 0.047877,-0.02272 0.045812,-0.044884 z"
     id="path32"
     inkscape:connector-curvature="0"
     sodipodi:nodetypes="ccccccccccccccccccccccccc" />
  <path
     style="fill:none;stroke:#000000;stroke-width:0.02"
     d="m 3.158257,3.3741861 c -0.00266,-0.041219 0.017809,-0.082887 0.052095,-0.1059266 0.035108,-0.024374 0.083483,-0.027792 0.1215051,-0.00814 0.036039,0.017612 0.061529,0.054475 0.065533,0.094364 0.00486,0.041869 -0.014443,0.085424 -0.048783,0.1098939 -0.032941,0.024231 -0.078509,0.029799 -0.1162094,0.013834 -0.039401,-0.015759 -0.068556,-0.053951 -0.073389,-0.096114 -3.753e-4,-0.00262 -4.825e-4,-0.00528 -7.509e-4,-0.00791 z"
     id="path41"
     inkscape:connector-curvature="0" />
  <path
     id="path42"
     d="M0.28879099999999996 2.304796111111111 L0.28879099999999996 2.9548071111111107 L0.4887699999999999 2.9548071111111107 L0.4887699999999999 2.304796111111111 L0.7137589999999999 2.304796111111111 L0.7137589999999999 2.092285111111111 L0.063748 2.092285111111111 L0.063748 2.304796111111111 L0.28879099999999996 2.304796111111111 Z"
     stroke-width="0.02"
     stroke="black"
     fill="none" />
  <path
     style="fill:none;stroke:#000000;stroke-width:0.02"
     d="M 1.2735519,2.9541055 C 1.1662267,2.9539423 1.055703,2.9543561 0.94536594,2.9540149 0.86100416,2.9481702 0.78812723,2.8715819 0.789171,2.7866234 0.7893954,2.6163071 0.78873621,2.4459178 0.78947451,2.2756477 c 0.00551,-0.090477 0.0800011,-0.170196 0.16978149,-0.1822256 0.0517564,-0.00409 0.1039319,-7.679e-4 0.1558568,-0.00185 0.054333,0.00103 0.108874,-0.00214 0.1630674,0.00175 0.09135,0.010468 0.167768,0.091459 0.1729668,0.1832501 0.00114,0.1570333 1.641e-4,0.3141402 5.55e-4,0.4711995 0.00929,0.1029262 -0.077469,0.2029282 -0.1781501,0.2063338 z"
     id="path43"
     inkscape:connector-curvature="0"
     sodipodi:nodetypes="cccccccccc" />
  <path
     style="fill:none;stroke:#000000;stroke-width:0.02"
     d="m 0.99561477,2.4092725 c 0.006418,-0.0492 0.0449262,-0.091896 0.0930357,-0.1037498 0.050071,-0.01363 0.1071769,0.00788 0.1356192,0.051334 0.011992,0.017636 0.019405,0.038361 0.021159,0.059691 -1.063e-4,0.071244 2.551e-4,0.1424659 -1.663e-4,0.2136203 -0.00631,0.047204 -0.041869,0.088548 -0.087456,0.1021495 C 1.1090835,2.7479637 1.051931,2.7299477 1.0212254,2.6889477 1.006521,2.6699952 0.99737548,2.6468002 0.9954395,2.6228236 0.99555768,2.5516121 0.99521375,2.480412 0.99561477,2.4092725 z"
     id="path45"
     inkscape:connector-curvature="0"
     sodipodi:nodetypes="ccccccccc" />
  <path
     style="fill:none;stroke:#000000;stroke-width:0.02"
     d="m 1.586711,2.9527481 c -0.03724,-0.0078 -0.063533,-0.04584 -0.059433,-0.083378 1.086e-4,-0.2383153 -2.173e-4,-0.4766385 1.63e-4,-0.7149489 0.00186,-0.027405 0.026434,-0.050023 0.053929,-0.049641 0.032828,1.777e-4 0.065687,-5.705e-4 0.098479,3.094e-4 0.027295,0.00341 0.049121,0.029498 0.047423,0.056981 -4.71e-5,0.1163099 -6.7e-6,0.232621 -6.66e-5,0.3489371 -0.00129,0.013157 0.00561,0.026507 0.016977,0.033205 0.011875,0.00724 0.028086,0.0065 0.039067,-0.00214 0.0038,-0.00315 0.0064,-0.00757 0.00971,-0.01125 0.015449,-0.018951 0.030782,-0.038013 0.046303,-0.056894 0.00712,-0.00705 0.019299,-0.0069 0.026245,2.483e-4 0.019224,0.023316 0.03792,0.047155 0.057564,0.070146 0.013555,0.01259 0.0381,0.0074 0.045204,-0.00972 0.00494,-0.011866 0.00184,-0.025105 0.00271,-0.037593 0,-0.1131343 0,-0.2262685 4.95e-5,-0.3394028 -5.404e-4,-0.028444 0.024506,-0.053304 0.052843,-0.052841 l 0.094288,-2e-6 c 0.031958,9.089e-4 0.057122,0.032488 0.052788,0.063791 0,0.2362735 0,0.472547 3.9e-6,0.7088788 0.00319,0.031266 -0.016603,0.062488 -0.046105,0.073064 -0.033251,0.00843 -0.068334,0.00236 -0.1024449,0.0042 C 1.997423,2.9512094 1.974112,2.9374844 1.958502,2.9178124 1.925931,2.8784931 1.892966,2.8394901 1.8602975,2.8002386 1.8594286,2.7994782 1.858432,2.7988341 1.854975,2.7981721 1.851518,2.79751 1.847028,2.79872 1.843368,2.80111 1.813069,2.8376021 1.782769,2.8740951 1.752469,2.9105871 c -0.018149,0.024118 -0.046212,0.04023 -0.076091,0.044166 -0.029843,-0.00116 -0.060081,0.00229 -0.089667,-0.002 z"
     id="path57"
     inkscape:connector-curvature="0"
     sodipodi:nodetypes="cccccccccccccccccccccccccccccc" />
  <path
     style="fill:none;stroke:#000000;stroke-width:0.02"
     d="m 2.8715292,2.8022463 c -0.00138,-0.017079 -0.017891,-0.030685 -0.034926,-0.028698 -0.1137821,-1.3e-4 -0.2275709,9.02e-5 -0.341326,-1.654e-4 -0.021226,-0.00186 -0.038221,-0.022398 -0.036242,-0.043586 1.985e-4,-0.036014 -3.962e-4,-0.072094 2.959e-4,-0.1080668 0.00219,-0.015125 0.017856,-0.025658 0.032716,-0.02321 0.048165,0 0.09633,0 0.1445022,-5.21e-5 0.013735,0.00211 0.027281,-0.00895 0.028702,-0.022504 l -4.9e-5,-0.07987 C 2.667258,2.4788361 2.653506,2.4624711 2.636395,2.4610481 L 2.482964,2.4609376 c -0.016141,-0.00136 -0.026657,-0.018175 -0.023922,-0.033504 2.602e-4,-0.035473 -5.197e-4,-0.070998 3.885e-4,-0.106439 0.00207,-0.021806 0.023995,-0.037684 0.045348,-0.034967 0.098409,-1.138e-4 0.1968518,2.275e-4 0.2952391,-1.706e-4 0.037857,-0.00439 0.06808,-0.040724 0.065773,-0.078714 -0.00162,-0.020229 0.00274,-0.041784 -0.00749,-0.060492 -0.010928,-0.023394 -0.034829,-0.039956 -0.06061,-0.041888 l -0.4886088,1.3e-6 c -0.038699,0.00242 -0.068185,0.041335 -0.062494,0.079206 2.675e-4,0.2344138 -5.349e-4,0.4688698 4.008e-4,0.7032573 0.00297,0.040642 0.043051,0.071956 0.083121,0.067483 0.1708945,0 0.3417889,0 0.5126733,4.89e-5 0.019167,6.106e-4 0.03191,-0.019171 0.030372,-0.047294 -0.00154,-0.028123 -0.00159,-0.066698 -0.00163,-0.105219 z"
     id="path58"
     inkscape:connector-curvature="0"
     sodipodi:nodetypes="ccccccccccccccccccccccccc" />
  <path
     style="fill:none;stroke:#000000;stroke-width:0.02"
     d="m 3.5529617,2.592346 c -0.023377,0.022884 -0.0373,0.055138 -0.037447,0.087943 -2.5e-5,0.027438 0.01127,0.05447 0.030597,0.073837 0.022826,0.023521 0.036638,0.05565 0.037918,0.088446 4.63e-4,0.025942 1.703e-4,0.051905 1.646e-4,0.07785 -8.3e-5,0.017545 -0.015088,0.033302 -0.032608,0.034227 -0.0348,3.7e-4 -0.069621,5.37e-5 -0.1043747,1.045e-4 -0.016717,-0.00188 -0.0323,-0.011903 -0.04091,-0.026471 -0.035835,-0.046774 -0.071602,-0.093549 -0.1073693,-0.1403253 -0.011893,-0.013993 -0.020745,-0.031059 -0.03575,-0.042076 -0.016875,-0.01274 -0.038748,-0.00954 -0.058471,-0.00988 -0.028514,-0.00159 -0.055481,0.021767 -0.057621,0.050299 -8.078e-4,0.040194 -1.191e-4,0.080447 -3.48e-4,0.1206628 0.00264,0.02226 -0.014063,0.044794 -0.036549,0.047474 -0.045132,8.648e-4 -0.090361,1.243e-4 -0.1355377,3.171e-4 -0.013928,-0.00119 -0.025724,-0.012489 -0.027664,-0.026272 -5.018e-4,-0.2207276 -7.07e-5,-0.441589 -2.539e-4,-0.6623735 -0.00138,-0.091009 0.083149,-0.1716031 0.1737579,-0.1675731 0.073913,1.05e-5 0.1477742,1.05e-5 0.2216352,1.05e-5 0.03887,-0.0021 0.078499,0.010212 0.1081992,0.035625 0.032527,0.030741 0.06346,0.063167 0.095357,0.094573 0.023454,0.020585 0.038802,0.05073 0.038514,0.082238 -2.81e-5,0.069834 2.2e-4,0.1396735 -2.733e-4,0.1880043 -4.933e-4,0.048331 -0.012093,0.074423 -0.030966,0.09336 z"
     id="path75"
     inkscape:connector-curvature="0"
     sodipodi:nodetypes="cccccccccccccccccccccccc" />
  <path
     style="fill:none;stroke:#000000;stroke-width:0.02"
     d="m 3.151964,2.4303931 c -0.00267,-0.041219 0.017803,-0.082882 0.052085,-0.1059266 0.034903,-0.024246 0.082924,-0.027759 0.1208477,-0.00847 0.036612,0.017594 0.062448,0.055032 0.066318,0.095425 0.00481,0.043721 -0.016822,0.089086 -0.054032,0.1126165 -0.032987,0.021928 -0.076951,0.025484 -0.1131664,0.00954 -0.039833,-0.016872 -0.068596,-0.056782 -0.071773,-0.099954 -9.3e-5,-0.00108 -1.876e-4,-0.00215 -2.796e-4,-0.00323 z"
     id="path77"
     inkscape:connector-curvature="0" />
  <path
     id="path79"
     d="m 0.063748,1.1476781 0,0.868815 0.200032,0 0,-0.193793 0.2187505,0 C 0.60140414,1.7986552 0.69917813,1.6984656 0.71999799,1.578993 L 0.719944,1.4102646 c -0.007921,-0.1186623 -0.09274,-0.2267421 -0.206218,-0.262533 z"
     inkscape:connector-curvature="0"
     style="fill:none;stroke:#000000;stroke-width:0.02"
     sodipodi:nodetypes="ccccccccc" />
  <path
     style="fill:none;stroke:#000000;stroke-width:0.02"
     d="m 0.275174,1.4796011 c -0.002679,-0.040971 0.0175146,-0.082419 0.0514803,-0.1054971 0.0342431,-0.024212 0.0814088,-0.028142 0.11921466,-0.01001 0.0379308,0.017338 0.0649602,0.055771 0.0685665,0.097307 0.004587,0.043746 -0.0173458,0.088961 -0.054677,0.1122755 -0.0327162,0.021433 -0.076017,0.024942 -0.11188013,0.00943 -0.039896,-0.01667 -0.0689772,-0.056356 -0.0723618,-0.099524 -1.1329e-4,-0.00133 -2.3229e-4,-0.00265 -3.4248e-4,-0.00398 z"
     id="path82"
     inkscape:connector-curvature="0" />
  <path
     style="fill:none;stroke:#000000;stroke-width:0.02"
     d="M 1.2774421,2.0157858 C 1.1702041,2.0158059 1.0622018,2.0156937 0.95433518,2.0159562 0.87762771,2.0114876 0.80944089,1.9496721 0.79740898,1.8738 0.79307098,1.836087 0.79661338,1.79781 0.79546398,1.759872 0.79569727,1.6191218 0.79501937,1.4782988 0.7957617,1.3375952 c 0.005298,-0.086572 0.0735471,-0.163971 0.15864916,-0.1804137 0.0401933,-0.00751 0.081415,-0.00227 0.12205804,-0.00383 0.05844,0 0.1168807,0 0.1752671,-1.57e-5 0.074969,-0.00319 0.149307,0.040228 0.1834212,0.1071154 0.018892,0.034619 0.024675,0.074649 0.022788,0.1136467 0,0.1451371 0,0.2902741 5.84e-5,0.4354147 0.00911,0.1032471 -0.077243,0.2025331 -0.1805615,0.2062732 z"
     id="path84"
     inkscape:connector-curvature="0"
     sodipodi:nodetypes="cccccccccccc" />
  <path
     style="fill:none;stroke:#000000;stroke-width:0.02"
     d="m 1.251736,1.6908091 c -0.00597,0.047602 -0.041679,0.089489 -0.087604,0.1031737 -0.048723,0.015726 -0.105864,-0.00235 -0.1366098,-0.043304 -0.014657,-0.018962 -0.023866,-0.04214 -0.025742,-0.066112 1.2e-4,-0.071233 -2.117e-4,-0.1424493 1.751e-4,-0.2136094 0.0064,-0.049938 0.046056,-0.093056 0.095039,-0.1042467 0.050146,-0.012759 0.1066642,0.00954 0.1344654,0.053206 0.011522,0.017303 0.018501,0.037561 0.020282,0.058326 4.74e-5,0.070893 4.74e-5,0.1417294 -6.6e-6,0.2125661 z"
     id="path87"
     inkscape:connector-curvature="0"
     sodipodi:nodetypes="ccccccccc" />
  <path
     style="fill:none;stroke:#000000;stroke-width:0.02"
     d="m 1.750158,1.6056891 c 0.01253,0.00799 0.030393,0.00665 0.041274,-0.00355 0.018053,-0.022137 0.035989,-0.044385 0.054115,-0.066453 0.00623,-0.00624 0.01684,-0.00702 0.023925,-0.00177 8.781e-4,5.483e-4 0.00157,0.00137 0.00232,0.00201 0.01923,0.023289 0.037927,0.047108 0.057569,0.070082 0.013751,0.012833 0.038849,0.00721 0.045532,-0.010455 0.00445,-0.011713 0.00152,-0.024619 0.00236,-0.03686 0,-0.1131332 0,-0.2262663 6.05e-5,-0.3394002 -5.173e-4,-0.02844 0.024496,-0.053302 0.05286,-0.052842 l 0.094282,-1.5e-6 c 0.0322,9.445e-4 0.057316,0.032862 0.052788,0.064344 -1.834e-4,0.2411995 3.651e-4,0.4824918 -2.71e-4,0.7236333 -0.00391,0.037665 -0.041258,0.066654 -0.078692,0.061943 -0.023178,0 -0.046357,0 -0.069579,-3e-7 C 2.006266,2.0132177 1.985136,2.0018477 1.969788,1.9852987 1.937606,1.9468149 1.905389,1.9083259 1.873184,1.8698489 c -0.00356,-0.00328 -0.00563,-0.00935 -0.011043,-0.00972 -0.00435,-8.1e-4 -0.00882,1.9e-4 -0.01248,0.00266 -0.0303,0.036492 -0.060599,0.072985 -0.090899,0.1094772 -0.018147,0.024111 -0.046179,0.040337 -0.076091,0.044172 -0.029845,-0.00117 -0.060089,0.0023 -0.089674,-0.00201 -0.037249,-0.00773 -0.063519,-0.04582 -0.059434,-0.08333 1.086e-4,-0.2383333 -2.173e-4,-0.4766745 1.63e-4,-0.7150029 0.00189,-0.027402 0.026438,-0.050003 0.053934,-0.049644 0.032833,1.96e-4 0.065694,-5.517e-4 0.098486,3.279e-4 0.02697,0.00339 0.048705,0.028866 0.047465,0.056066 -9.92e-5,0.1166145 -1.42e-5,0.2332316 -1.003e-4,0.349851 -0.00125,0.013001 0.00543,0.026288 0.016647,0.032993 z"
     id="path90"
     inkscape:connector-curvature="0"
     sodipodi:nodetypes="ccccccccccccccccccccccccccccc" />
  <path
     id="path105"
     d="m 2.315375,1.1664496 c -0.0387,0.00245 -0.068217,0.041349 -0.062504,0.079246 2.817e-4,0.2343938 -5.632e-4,0.4688364 4.22e-4,0.7031998 0.00295,0.041581 0.044521,0.072748 0.085222,0.067504 0.1701837,0 0.3403673,0 0.5105515,4.66e-5 0.019382,6.656e-4 0.031975,-0.019448 0.028782,-0.037193 5.88e-5,-0.038459 1.02e-5,-0.076919 -2.74e-5,-0.1153229 -0.00138,-0.016961 -0.017886,-0.030792 -0.034934,-0.028701 -0.1137735,-8.79e-5 -0.2275559,2.22e-5 -0.3413165,-1.05e-4 -0.021189,-0.00196 -0.03825,-0.022411 -0.036192,-0.04363 1.778e-4,-0.036 -3.561e-4,-0.072053 2.676e-4,-0.1080189 0.00212,-0.015156 0.017841,-0.025659 0.032691,-0.02325 0.048165,0 0.09633,0 0.1445037,-6.15e-5 0.013592,0.00184 0.027422,-0.00875 0.028703,-0.022519 L 2.671495,1.5577797 C 2.673555,1.5405387 2.659832,1.5242007 2.642718,1.5227339 2.591215,1.522529 2.5396307,1.5229763 2.488142,1.5224545 c -0.015631,-0.002 -0.025427,-0.018426 -0.022756,-0.033366 3.4e-4,-0.035844 -6.788e-4,-0.071769 5.066e-4,-0.1075638 0.00263,-0.021333 0.02425,-0.036393 0.045176,-0.033832 0.098409,-1.137e-4 0.1968521,2.273e-4 0.2952396,-1.704e-4 0.03787,-0.00435 0.068108,-0.040713 0.065773,-0.078704 -0.00164,-0.020228 0.00279,-0.041802 -0.00751,-0.060492 -0.010944,-0.023416 -0.034812,-0.039908 -0.060594,-0.04188 z"
     inkscape:connector-curvature="0"
     style="fill:none;stroke:#000000;stroke-width:0.02"
     sodipodi:nodetypes="ccccccccccccccccccccccccc" />
  <path
     style="fill:none;stroke:#000000;stroke-width:0.02"
     d="M 3.453968,1.1936441 C 3.42374,1.1688061 3.383957,1.1579031 3.3452031,1.1602041 c -0.078209,3.166e-4 -0.1564428,-6.393e-4 -0.2346354,4.89e-4 -0.067172,0.0044 -0.1285985,0.052516 -0.1489648,0.1166688 -0.00541,0.016253 -0.00818,0.033312 -0.00858,0.050431 1.926e-4,0.2208058 -2.376e-4,0.4416868 2.631e-4,0.6624348 0.00197,0.013726 0.013818,0.025012 0.027674,0.026207 0.044686,-6.99e-5 0.089406,3.165e-4 0.1340746,-1.341e-4 0.022225,-0.00186 0.04009,-0.023434 0.03802,-0.045599 1.435e-4,-0.040561 -2.877e-4,-0.081136 2.17e-4,-0.121689 0.0017,-0.027052 0.025574,-0.050315 0.052689,-0.051164 0.015213,2.646e-4 0.030699,-0.00153 0.045703,0.00159 0.01207,0.00315 0.022917,0.010377 0.030609,0.020234 0.04343,0.056811 0.08685,0.113578 0.1303279,0.1703486 1.609e-4,1.619e-4 2.651e-4,3.201e-4 3.692e-4,4.784e-4 0.0087,0.014185 0.023948,0.024165 0.040536,0.025939 0.034754,-5.08e-5 0.069575,2.655e-4 0.1043752,-1.045e-4 0.017722,-9.046e-4 0.032832,-0.017028 0.032648,-0.03476 -1.204e-4,-0.02613 3.517e-4,-0.052276 -2.62e-4,-0.078399 -0.00151,-0.032426 -0.015293,-0.064098 -0.037862,-0.087364 -0.019337,-0.01931 -0.030598,-0.046388 -0.030595,-0.073779 6.49e-5,-0.034223 0.015419,-0.067664 0.040269,-0.090931 0.019901,-0.021283 0.030048,-0.050761 0.028473,-0.079774 0,-0.066199 0,-0.1323977 -5.54e-5,-0.1986013 4.66e-4,-0.032768 -0.016424,-0.063465 -0.044645,-0.089683 C 3.51763,1.2568241 3.487072,1.2238661 3.453968,1.1936441 z"
     id="path114"
     inkscape:connector-curvature="0"
     sodipodi:nodetypes="cccccccccccccccccccccccccc" />
  <path
     style="fill:none;stroke:#000000;stroke-width:0.02"
     d="m 3.158257,1.4920791 c -0.00278,-0.042812 0.019476,-0.086153 0.056142,-0.1085147 0.035268,-0.022595 0.082531,-0.024436 0.1194322,-0.00459 0.035014,0.017986 0.059613,0.054225 0.063555,0.093378 0.00515,0.043927 -0.016447,0.089736 -0.05391,0.1133562 C 3.307099,1.610003 3.2572,1.6116407 3.219318,1.5897568 3.183987,1.5703456 3.160368,1.5322999 3.158257,1.4920791 z"
     id="path115"
     inkscape:connector-curvature="0" />
  <path
     id="path116"
     d="M0.28879099999999996 0.4226891111111106 L0.28879099999999996 1.0727001111111107 L0.4887699999999999 1.0727001111111107 L0.4887699999999999 0.4226891111111106 L0.7137589999999999 0.4226891111111106 L0.7137589999999999 0.21017811111111095 L0.063748 0.21017811111111095 L0.063748 0.4226891111111106 L0.28879099999999996 0.4226891111111106 Z"
     stroke-width="0.02"
     stroke="black"
     fill="none" />
  <path
     style="fill:none;stroke:#000000;stroke-width:0.02"
     d="M 1.2735524,1.0719966 C 1.1662267,1.0718353 1.055703,1.0722491 0.94536594,1.0719079 0.86099349,1.0660849 0.78812934,0.98947675 0.789171,0.90452144 c 2.2438e-4,-0.17031469 -4.3475e-4,-0.3407023 3.0349e-4,-0.51097079 0.005536,-0.091233 0.081303,-0.17150125 0.17199569,-0.1825263 0.057758,-0.003399 0.11584952,-5.7627e-4 0.17373902,-0.001501 0.049056,0.001251 0.098413,-0.002684 0.1472571,0.002316 0.091129,0.0124442 0.1658562,0.095157 0.1689298,0.18709315 5.572e-4,0.15558129 7.98e-5,0.31119511 3.059e-4,0.46678885 0.00913,0.10322812 -0.077291,0.20248195 -0.1781496,0.20627525 z"
     id="path117"
     inkscape:connector-curvature="0"
     sodipodi:nodetypes="cccccccccc" />
  <path
     style="fill:none;stroke:#000000;stroke-width:0.02"
     d="m 1.245388,0.53439711 c -1.022e-4,0.0712162 2.781e-4,0.14247371 -1.255e-4,0.21366412 -0.00632,0.0475764 -0.042423,0.0891435 -0.088466,0.10247082 -0.048512,0.0150719 -0.1050289,-0.002957 -0.1355545,-0.0436386 -0.018546,-0.0236838 -0.0279209,-0.0541304 -0.0258056,-0.0841464 1.155e-4,-0.065189 -2.3088e-4,-0.13041596 1.7298e-4,-0.1955813 0.006441,-0.0495623 0.0454903,-0.0925108 0.0940698,-0.10398625 0.050191,-0.0132667 0.1070745,0.008795 0.1351852,0.0524443 0.011617,0.0174527 0.018856,0.0378956 0.020524,0.0587733 z"
     id="path119"
     inkscape:connector-curvature="0" />
  <path
     style="fill:none;stroke:#000000;stroke-width:0.02"
     d="m 1.752469,1.0284831 c 0.0303,-0.0364927 0.060599,-0.0729855 0.090899,-0.10947819 0.00366,-0.002469 0.00813,-0.003469 0.011661,-0.002855 0.00353,6.1355e-4 0.0044,0.001347 0.00527,0.001983 0.032668,0.0392519 0.065634,0.0782541 0.098205,0.11757378 0.015597,0.019695 0.038925,0.033372 0.063904,0.03688 0.03411,-0.00182 0.069184,0.00422 0.1024399,-0.00417 0.029507,-0.010575 0.049309,-0.041807 0.046109,-0.0730752 -3.4e-6,-0.23632935 -3.4e-6,-0.47260286 -3.4e-6,-0.70887636 0.00434,-0.0313126 -0.020831,-0.0628709 -0.052788,-0.0638035 l -0.094287,-6e-8 c -0.028341,-4.489e-4 -0.05338,0.0243919 -0.052847,0.0528429 -5.38e-5,0.11284467 -5.38e-5,0.22568952 -5.38e-5,0.33853438 -8.3e-4,0.0125195 0.00206,0.0256677 -0.00235,0.0376821 -0.00669,0.0176663 -0.031787,0.0233506 -0.045559,0.0105023 -0.01964,-0.022978 -0.03834,-0.0467952 -0.057563,-0.0700964 -8.4e-4,-7.35e-4 -0.00157,-0.001708 -0.00262,-0.002241 -0.00698,-0.004923 -0.01721,-0.004202 -0.02335,0.001734 -0.0145,0.0174271 -0.028654,0.0351793 -0.04302,0.0527313 -0.00428,0.004998 -0.00809,0.0104764 -0.01266,0.0151684 -0.010996,0.009037 -0.027581,0.009975 -0.03967,0.002584 -0.011368,-0.006691 -0.018268,-0.0200444 -0.016978,-0.0331919 5.99e-5,-0.11631124 1.94e-5,-0.23262332 6.66e-5,-0.3489342 0.0017,-0.0274824 -0.02012,-0.0535918 -0.047423,-0.0569898 C 1.647057,0.22210223 1.614198,0.22285038 1.58137,0.22265051 1.553866,0.2222935 1.529311,0.2448617 1.527441,0.2722869 c -3.803e-4,0.2383294 -5.44e-5,0.47667158 -1.63e-4,0.7150059 -0.00408,0.0375283 0.022201,0.0755583 0.059433,0.0833483 0.029585,0.00429 0.059824,8.4e-4 0.089667,0.002 0.029899,-0.00387 0.057929,-0.020069 0.076091,-0.044162 z"
     id="path129"
     inkscape:connector-curvature="0"
     sodipodi:nodetypes="ccccccccccccccccccccccccccccccc" />
  <path
     id="path139"
     d="m 2.309082,0.22265611 c -0.038699,0.002421 -0.068182,0.0413159 -0.062494,0.0791888 2.675e-4,0.23441416 -5.349e-4,0.46887044 4.008e-4,0.70325829 0.00298,0.040639 0.043033,0.071996 0.083121,0.067493 0.1708945,0 0.3417889,0 0.5126733,5.2e-5 0.01238,1.68e-4 0.024171,-0.00851 0.027529,-0.020472 0.00226,-0.00812 8.938e-4,-0.016677 0.00127,-0.024993 0,-0.0357008 0,-0.0714015 -5.4e-5,-0.10704614 C 2.870384,0.90699171 2.860205,0.89535241 2.847384,0.89220971 2.843874,0.89137348 2.840204,0.89110871 2.8366,0.8914386 2.7228209,0.89131114 2.6090321,0.89152942 2.495277,0.89127611 c -0.02123,-0.001857 -0.038225,-0.022392 -0.036242,-0.043582 1.966e-4,-0.035996 -3.936e-4,-0.0720582 2.958e-4,-0.10801286 0.00213,-0.0151629 0.017864,-0.0256706 0.032716,-0.0232642 0.048165,0 0.09633,0 0.1445023,-5.447e-5 0.013787,0.001854 0.027223,-0.008746 0.028704,-0.022515 2.5e-6,-0.0265842 2.5e-6,-0.0532228 -5.13e-5,-0.0798615 0.00214,-0.0170242 -0.01177,-0.0338063 -0.028809,-0.0350475 -0.051106,-5.448e-5 -0.1022674,-5.448e-5 -0.1534286,-1.0847e-4 -0.016155,-0.001359 -0.026651,-0.0181967 -0.023922,-0.033524 2.603e-4,-0.0354718 -5.199e-4,-0.070995 3.886e-4,-0.10643498 0.00209,-0.0217941 0.023995,-0.0376728 0.045347,-0.034954 0.098409,-1.1379e-4 0.1968518,2.2752e-4 0.2952391,-1.7055e-4 0.038548,-0.004422 0.069065,-0.0420576 0.065657,-0.080661 -0.00123,-0.0196015 0.00253,-0.0404565 -0.00739,-0.0585382 -0.010926,-0.0234082 -0.034813,-0.0399544 -0.060597,-0.0418912 z"
     inkscape:connector-curvature="0"
     style="fill:none;stroke:#000000;stroke-width:0.02"
     sodipodi:nodetypes="ccccccccccccccccccccccccccc" />
  <path
     style="fill:none;stroke:#000000;stroke-width:0.02"
     d="m 2.947108,1.0471462 c 0.00223,0.013426 0.013927,0.024367 0.027548,0.02551 0.046735,-8.187e-4 0.093771,0.00177 0.140305,-0.00126 0.024481,-0.00568 0.035431,-0.032404 0.031781,-0.055446 8.323e-4,-0.0391326 -0.00167,-0.0785075 0.00125,-0.11749227 0.0052,-0.029862 0.03653,-0.0487003 0.06563,-0.0445663 0.02313,-0.001893 0.047683,0.001903 0.062356,0.0219728 0.04343,0.0568211 0.086851,0.11358845 0.13033,0.17035377 0.00865,0.014506 0.024191,0.024563 0.040904,0.026432 0.036982,-8.342e-4 0.074338,0.00182 0.1111784,-0.00129 0.021804,-0.00524 0.028774,-0.029573 0.025864,-0.049374 C 3.583996,0.97916601 3.589234,0.93259041 3.56396,0.89501811 3.5588,0.88676311 3.552901,0.87894161 3.546111,0.87201561 3.526768,0.85264811 3.515482,0.82561531 3.515515,0.79817711 c 1.49e-4,-0.0327934 0.014054,-0.0650572 0.037444,-0.087945 0.016653,-0.0167424 0.027772,-0.039066 0.030482,-0.062608 0.00188,-0.0728372 2.86e-4,-0.1458073 7.595e-4,-0.218696 C 3.585367,0.39123941 3.561955,0.35917741 3.534681,0.33562741 3.502594,0.30535851 3.474018,0.27107121 3.43938,0.24369081 3.405798,0.21865501 3.362753,0.21416691 3.3221837,0.21641711 c -0.067212,0 -0.134424,0 -0.2016883,0 -0.078966,-0.002781 -0.1540676,0.0563854 -0.1697458,0.13377953 -0.00257,0.0110855 -0.00367,0.0224516 -0.00401,0.0338095 C 2.946999,0.60503955 2.9463338,0.826179 2.947108,1.0471462 z"
     id="path149"
     inkscape:connector-curvature="0"
     sodipodi:nodetypes="cccccccccccccccccccccccc" />
  <path
     style="fill:none;stroke:#000000;stroke-width:0.02"
     d="m 3.151964,0.54828511 c -0.00505,-0.0623486 0.046211,-0.12206372 0.1086571,-0.12631092 0.062269,-0.007415 0.1238753,0.0420246 0.130241,0.10439859 0.00938,0.0620164 -0.038038,0.12507191 -0.1001511,0.13351233 -0.062297,0.0115399 -0.127609,-0.0348589 -0.1370527,-0.0975375 -8.336e-4,-0.004659 -0.00138,-0.009341 -0.00169,-0.0140625 z"
     id="path151"
     inkscape:connector-curvature="0" />
</svg>
