%
T01C0.019700
X2125Y1375
X6625Y1375
X8125Y1375
X12625Y1375
X14125Y1375
X18625Y1375
X20125Y1375
X24625Y1375
X26125Y1375
X30625Y1375
X32125Y1375
X36625Y1375
X2125Y3871
X6625Y3871
X8125Y3871
X12625Y3871
X14125Y3871
X18625Y3871
X20125Y3871
X24625Y3871
X26125Y3871
X30625Y3871
X32125Y3871
X36625Y3871
X2125Y6367
X6625Y6367
X8125Y6367
X12625Y6367
X14125Y6367
X18625Y6367
X20125Y6367
X24625Y6367
X26125Y6367
X30625Y6367
X32125Y6367
X36625Y6367
X2125Y8863
X6625Y8863
X8125Y8863
X12625Y8863
X14125Y8863
X18625Y8863
X20125Y8863
X24625Y8863
X26125Y8863
X30625Y8863
X32125Y8863
X36625Y8863
X2125Y11359
X6625Y11359
X8125Y11359
X12625Y11359
X14125Y11359
X18625Y11359
X20125Y11359
X24625Y11359
X26125Y11359
X30625Y11359
X32125Y11359
X36625Y11359
X2125Y13855
X6625Y13855
X8125Y13855
X12625Y13855
X14125Y13855
X18625Y13855
X20125Y13855
X24625Y13855
X26125Y13855
X30625Y13855
X32125Y13855
X36625Y13855
X2125Y16351
X6625Y16351
X8125Y16351
X12625Y16351
X14125Y16351
X18625Y16351
X20125Y16351
X24625Y16351
X26125Y16351
X30625Y16351
X32125Y16351
X36625Y16351
X2125Y18847
X6625Y18847
X8125Y18847
X12625Y18847
X14125Y18847
X18625Y18847
X20125Y18847
X24625Y18847
X26125Y18847
X30625Y18847
X32125Y18847
X36625Y18847
X2125Y21343
X6625Y21343
X8125Y21343
X12625Y21343
X14125Y21343
X18625Y21343
X20125Y21343
X24625Y21343
X26125Y21343
X30625Y21343
X32125Y21343
X36625Y21343
X2125Y23839
X6625Y23839
X8125Y23839
X12625Y23839
X14125Y23839
X18625Y23839
X20125Y23839
X24625Y23839
X26125Y23839
X30625Y23839
X32125Y23839
X36625Y23839
X2125Y26335
X6625Y26335
X8125Y26335
X12625Y26335
X14125Y26335
X18625Y26335
X20125Y26335
X24625Y26335
X26125Y26335
X30625Y26335
X32125Y26335
X36625Y26335
X2125Y28831
X6625Y28831
X8125Y28831
X12625Y28831
X14125Y28831
X18625Y28831
X20125Y28831
X24625Y28831
X26125Y28831
X30625Y28831
X32125Y28831
X36625Y28831
X2125Y31327
X6625Y31327
X8125Y31327
X12625Y31327
X14125Y31327
X18625Y31327
X20125Y31327
X24625Y31327
X26125Y31327
X30625Y31327
X32125Y31327
X36625Y31327
X2125Y33823
X6625Y33823
X8125Y33823
X12625Y33823
X14125Y33823
X18625Y33823
X20125Y33823
X24625Y33823
X26125Y33823
X30625Y33823
X32125Y33823
X36625Y33823
X2125Y36319
X6625Y36319
X8125Y36319
X12625Y36319
X14125Y36319
X18625Y36319
X20125Y36319
X24625Y36319
X26125Y36319
X30625Y36319
X32125Y36319
X36625Y36319
X2125Y38815
X6625Y38815
X8125Y38815
X12625Y38815
X14125Y38815
X18625Y38815
X20125Y38815
X24625Y38815
X26125Y38815
X30625Y38815
X32125Y38815
X36625Y38815
M30
