G75*
G70*
%OFA0B0*%
%FSLAX25Y25*%
%IPPOS*%
%LPD*%
%AMOC8*
5,1,8,0,0,1.08239X$1,22.5*
%
%ADD11C,0.01000*%
X0010000Y0010000D02*
G75*
%LPD*%
D11*
X0010000Y0010000D02*
X0010000Y0027460D01*
X0372500Y0027460D01*
X0372500Y0010000D01*
X0010000Y0010000D01*
X0010000Y0034960D02*
G75*
%LPD*%
D11*
X0010000Y0034960D02*
X0010000Y0052420D01*
X0372500Y0052420D01*
X0372500Y0034960D01*
X0010000Y0034960D01*
X0010000Y0059920D02*
G75*
%LPD*%
D11*
X0010000Y0059920D02*
X0010000Y0077380D01*
X0372500Y0077380D01*
X0372500Y0059920D01*
X0010000Y0059920D01*
X0010000Y0084880D02*
G75*
%LPD*%
D11*
X0010000Y0084880D02*
X0010000Y0102340D01*
X0372500Y0102340D01*
X0372500Y0084880D01*
X0010000Y0084880D01*
X0010000Y0109840D02*
G75*
%LPD*%
D11*
X0010000Y0109840D02*
X0010000Y0127300D01*
X0372500Y0127300D01*
X0372500Y0109840D01*
X0010000Y0109840D01*
X0010000Y0134800D02*
G75*
%LPD*%
D11*
X0010000Y0134800D02*
X0010000Y0152260D01*
X0372500Y0152260D01*
X0372500Y0134800D01*
X0010000Y0134800D01*
X0010000Y0159760D02*
G75*
%LPD*%
D11*
X0010000Y0159760D02*
X0010000Y0177220D01*
X0372500Y0177220D01*
X0372500Y0159760D01*
X0010000Y0159760D01*
X0010000Y0184720D02*
G75*
%LPD*%
D11*
X0010000Y0184720D02*
X0010000Y0202180D01*
X0372500Y0202180D01*
X0372500Y0184720D01*
X0010000Y0184720D01*
X0010000Y0209680D02*
G75*
%LPD*%
D11*
X0010000Y0209680D02*
X0010000Y0227140D01*
X0372500Y0227140D01*
X0372500Y0209680D01*
X0010000Y0209680D01*
X0010000Y0234640D02*
G75*
%LPD*%
D11*
X0010000Y0234640D02*
X0010000Y0252100D01*
X0372500Y0252100D01*
X0372500Y0234640D01*
X0010000Y0234640D01*
X0010000Y0259600D02*
G75*
%LPD*%
D11*
X0010000Y0259600D02*
X0010000Y0277060D01*
X0372500Y0277060D01*
X0372500Y0259600D01*
X0010000Y0259600D01*
X0010000Y0284560D02*
G75*
%LPD*%
D11*
X0010000Y0284560D02*
X0010000Y0302020D01*
X0372500Y0302020D01*
X0372500Y0284560D01*
X0010000Y0284560D01*
X0010000Y0309520D02*
G75*
%LPD*%
D11*
X0010000Y0309520D02*
X0010000Y0326980D01*
X0372500Y0326980D01*
X0372500Y0309520D01*
X0010000Y0309520D01*
X0010000Y0334480D02*
G75*
%LPD*%
D11*
X0010000Y0334480D02*
X0010000Y0351940D01*
X0372500Y0351940D01*
X0372500Y0334480D01*
X0010000Y0334480D01*
X0010000Y0359440D02*
G75*
%LPD*%
D11*
X0010000Y0359440D02*
X0010000Y0376900D01*
X0372500Y0376900D01*
X0372500Y0359440D01*
X0010000Y0359440D01*
X0010000Y0384400D02*
G75*
%LPD*%
D11*
X0010000Y0384400D02*
X0010000Y0401860D01*
X0372500Y0401860D01*
X0372500Y0384400D01*
X0010000Y0384400D01*
M02*
