G75*
G70*
%OFA0B0*%
%FSLAX25Y25*%
%IPPOS*%
%LPD*%
%AMOC8*
5,1,8,0,0,1.08239X$1,22.5*
%
%ADD11C,0.01000*%
%ADD14C,0.03170*%
%ADD15C,0.00600*%
%ADD17R,0.03150X0.04720*%
%ADD21R,0.05910X0.05910*%
X0010000Y0010000D02*
G75*
%LPD*%
D11*
X0010000Y0010000D02*
X0010000Y0027460D01*
X0372500Y0027460D01*
X0372500Y0010000D01*
X0010000Y0010000D01*
D17*
X0022710Y0018750D03*
X0029790Y0018750D03*
X0082710Y0018750D03*
X0089790Y0018750D03*
X0142710Y0018750D03*
X0149790Y0018750D03*
X0202710Y0018750D03*
X0209790Y0018750D03*
X0262710Y0018750D03*
X0269790Y0018750D03*
X0322710Y0018750D03*
X0329790Y0018750D03*
D21*
X0306250Y0018750D03*
X0246250Y0018750D03*
X0186250Y0018750D03*
X0126250Y0018750D03*
X0066250Y0018750D03*
X0016250Y0018750D03*
X0366250Y0018750D03*
D15*
X0366250Y0013750D01*
X0322710Y0015210D02*
X0321250Y0013750D01*
X0306250Y0013750D02*
X0306250Y0018750D01*
X0322710Y0018750D02*
X0322710Y0015210D01*
X0262710Y0015210D02*
X0261250Y0013750D01*
X0246250Y0013750D02*
X0246250Y0018750D01*
X0262710Y0018750D02*
X0262710Y0015210D01*
X0202710Y0015210D02*
X0201250Y0013750D01*
X0186250Y0013750D02*
X0186250Y0018750D01*
X0202710Y0018750D02*
X0202710Y0015210D01*
X0209790Y0018750D02*
X0209790Y0019790D01*
X0211250Y0023750D01*
X0264790Y0023750D01*
X0269790Y0018750D01*
X0269790Y0019790D01*
X0273750Y0023750D01*
X0324790Y0023750D01*
X0329790Y0018750D01*
X0209790Y0018750D02*
X0204790Y0023750D01*
X0153750Y0023750D01*
X0149790Y0019790D01*
X0149790Y0018750D01*
X0144790Y0023750D01*
X0091250Y0023750D01*
X0089790Y0019790D01*
X0089790Y0018750D01*
X0084790Y0023750D01*
X0033750Y0023750D01*
X0029790Y0019790D01*
X0029790Y0018750D01*
X0024790Y0023750D01*
X0018750Y0023750D01*
X0016250Y0021250D01*
X0016250Y0018750D01*
X0022710Y0018750D02*
X0022710Y0015210D01*
X0021250Y0013750D01*
X0066250Y0013750D02*
X0066250Y0018750D01*
X0082710Y0018750D02*
X0082710Y0015210D01*
X0081250Y0013750D01*
X0126250Y0013750D02*
X0126250Y0018750D01*
X0142710Y0018750D02*
X0142710Y0015210D01*
X0141250Y0013750D01*
D14*
X0141250Y0013750D03*
X0126250Y0013750D03*
X0081250Y0013750D03*
X0066250Y0013750D03*
X0021250Y0013750D03*
X0186250Y0013750D03*
X0201250Y0013750D03*
X0246250Y0013750D03*
X0261250Y0013750D03*
X0306250Y0013750D03*
X0321250Y0013750D03*
X0366250Y0013750D03*
X0010000Y0034960D02*
G75*
%LPD*%
D11*
X0010000Y0034960D02*
X0010000Y0052420D01*
X0372500Y0052420D01*
X0372500Y0034960D01*
X0010000Y0034960D01*
D17*
X0022710Y0043710D03*
X0029790Y0043710D03*
X0082710Y0043710D03*
X0089790Y0043710D03*
X0142710Y0043710D03*
X0149790Y0043710D03*
X0202710Y0043710D03*
X0209790Y0043710D03*
X0262710Y0043710D03*
X0269790Y0043710D03*
X0322710Y0043710D03*
X0329790Y0043710D03*
D21*
X0306250Y0043710D03*
X0246250Y0043710D03*
X0186250Y0043710D03*
X0126250Y0043710D03*
X0066250Y0043710D03*
X0016250Y0043710D03*
X0366250Y0043710D03*
D15*
X0366250Y0038710D01*
X0322710Y0040170D02*
X0321250Y0038710D01*
X0306250Y0038710D02*
X0306250Y0043710D01*
X0322710Y0043710D02*
X0322710Y0040170D01*
X0262710Y0040170D02*
X0261250Y0038710D01*
X0246250Y0038710D02*
X0246250Y0043710D01*
X0262710Y0043710D02*
X0262710Y0040170D01*
X0202710Y0040170D02*
X0201250Y0038710D01*
X0186250Y0038710D02*
X0186250Y0043710D01*
X0202710Y0043710D02*
X0202710Y0040170D01*
X0209790Y0043710D02*
X0209790Y0044750D01*
X0211250Y0048710D01*
X0264790Y0048710D01*
X0269790Y0043710D01*
X0269790Y0044750D01*
X0273750Y0048710D01*
X0324790Y0048710D01*
X0329790Y0043710D01*
X0209790Y0043710D02*
X0204790Y0048710D01*
X0153750Y0048710D01*
X0149790Y0044750D01*
X0149790Y0043710D01*
X0144790Y0048710D01*
X0091250Y0048710D01*
X0089790Y0044750D01*
X0089790Y0043710D01*
X0084790Y0048710D01*
X0033750Y0048710D01*
X0029790Y0044750D01*
X0029790Y0043710D01*
X0024790Y0048710D01*
X0018750Y0048710D01*
X0016250Y0046210D01*
X0016250Y0043710D01*
X0022710Y0043710D02*
X0022710Y0040170D01*
X0021250Y0038710D01*
X0066250Y0038710D02*
X0066250Y0043710D01*
X0082710Y0043710D02*
X0082710Y0040170D01*
X0081250Y0038710D01*
X0126250Y0038710D02*
X0126250Y0043710D01*
X0142710Y0043710D02*
X0142710Y0040170D01*
X0141250Y0038710D01*
D14*
X0141250Y0038710D03*
X0126250Y0038710D03*
X0081250Y0038710D03*
X0066250Y0038710D03*
X0021250Y0038710D03*
X0186250Y0038710D03*
X0201250Y0038710D03*
X0246250Y0038710D03*
X0261250Y0038710D03*
X0306250Y0038710D03*
X0321250Y0038710D03*
X0366250Y0038710D03*
X0010000Y0059920D02*
G75*
%LPD*%
D11*
X0010000Y0059920D02*
X0010000Y0077380D01*
X0372500Y0077380D01*
X0372500Y0059920D01*
X0010000Y0059920D01*
D17*
X0022710Y0068670D03*
X0029790Y0068670D03*
X0082710Y0068670D03*
X0089790Y0068670D03*
X0142710Y0068670D03*
X0149790Y0068670D03*
X0202710Y0068670D03*
X0209790Y0068670D03*
X0262710Y0068670D03*
X0269790Y0068670D03*
X0322710Y0068670D03*
X0329790Y0068670D03*
D21*
X0306250Y0068670D03*
X0246250Y0068670D03*
X0186250Y0068670D03*
X0126250Y0068670D03*
X0066250Y0068670D03*
X0016250Y0068670D03*
X0366250Y0068670D03*
D15*
X0366250Y0063670D01*
X0322710Y0065130D02*
X0321250Y0063670D01*
X0306250Y0063670D02*
X0306250Y0068670D01*
X0322710Y0068670D02*
X0322710Y0065130D01*
X0262710Y0065130D02*
X0261250Y0063670D01*
X0246250Y0063670D02*
X0246250Y0068670D01*
X0262710Y0068670D02*
X0262710Y0065130D01*
X0202710Y0065130D02*
X0201250Y0063670D01*
X0186250Y0063670D02*
X0186250Y0068670D01*
X0202710Y0068670D02*
X0202710Y0065130D01*
X0209790Y0068670D02*
X0209790Y0069710D01*
X0211250Y0073670D01*
X0264790Y0073670D01*
X0269790Y0068670D01*
X0269790Y0069710D01*
X0273750Y0073670D01*
X0324790Y0073670D01*
X0329790Y0068670D01*
X0209790Y0068670D02*
X0204790Y0073670D01*
X0153750Y0073670D01*
X0149790Y0069710D01*
X0149790Y0068670D01*
X0144790Y0073670D01*
X0091250Y0073670D01*
X0089790Y0069710D01*
X0089790Y0068670D01*
X0084790Y0073670D01*
X0033750Y0073670D01*
X0029790Y0069710D01*
X0029790Y0068670D01*
X0024790Y0073670D01*
X0018750Y0073670D01*
X0016250Y0071170D01*
X0016250Y0068670D01*
X0022710Y0068670D02*
X0022710Y0065130D01*
X0021250Y0063670D01*
X0066250Y0063670D02*
X0066250Y0068670D01*
X0082710Y0068670D02*
X0082710Y0065130D01*
X0081250Y0063670D01*
X0126250Y0063670D02*
X0126250Y0068670D01*
X0142710Y0068670D02*
X0142710Y0065130D01*
X0141250Y0063670D01*
D14*
X0141250Y0063670D03*
X0126250Y0063670D03*
X0081250Y0063670D03*
X0066250Y0063670D03*
X0021250Y0063670D03*
X0186250Y0063670D03*
X0201250Y0063670D03*
X0246250Y0063670D03*
X0261250Y0063670D03*
X0306250Y0063670D03*
X0321250Y0063670D03*
X0366250Y0063670D03*
X0010000Y0084880D02*
G75*
%LPD*%
D11*
X0010000Y0084880D02*
X0010000Y0102340D01*
X0372500Y0102340D01*
X0372500Y0084880D01*
X0010000Y0084880D01*
D17*
X0022710Y0093630D03*
X0029790Y0093630D03*
X0082710Y0093630D03*
X0089790Y0093630D03*
X0142710Y0093630D03*
X0149790Y0093630D03*
X0202710Y0093630D03*
X0209790Y0093630D03*
X0262710Y0093630D03*
X0269790Y0093630D03*
X0322710Y0093630D03*
X0329790Y0093630D03*
D21*
X0306250Y0093630D03*
X0246250Y0093630D03*
X0186250Y0093630D03*
X0126250Y0093630D03*
X0066250Y0093630D03*
X0016250Y0093630D03*
X0366250Y0093630D03*
D15*
X0366250Y0088630D01*
X0322710Y0090090D02*
X0321250Y0088630D01*
X0306250Y0088630D02*
X0306250Y0093630D01*
X0322710Y0093630D02*
X0322710Y0090090D01*
X0262710Y0090090D02*
X0261250Y0088630D01*
X0246250Y0088630D02*
X0246250Y0093630D01*
X0262710Y0093630D02*
X0262710Y0090090D01*
X0202710Y0090090D02*
X0201250Y0088630D01*
X0186250Y0088630D02*
X0186250Y0093630D01*
X0202710Y0093630D02*
X0202710Y0090090D01*
X0209790Y0093630D02*
X0209790Y0094670D01*
X0211250Y0098630D01*
X0264790Y0098630D01*
X0269790Y0093630D01*
X0269790Y0094670D01*
X0273750Y0098630D01*
X0324790Y0098630D01*
X0329790Y0093630D01*
X0209790Y0093630D02*
X0204790Y0098630D01*
X0153750Y0098630D01*
X0149790Y0094670D01*
X0149790Y0093630D01*
X0144790Y0098630D01*
X0091250Y0098630D01*
X0089790Y0094670D01*
X0089790Y0093630D01*
X0084790Y0098630D01*
X0033750Y0098630D01*
X0029790Y0094670D01*
X0029790Y0093630D01*
X0024790Y0098630D01*
X0018750Y0098630D01*
X0016250Y0096130D01*
X0016250Y0093630D01*
X0022710Y0093630D02*
X0022710Y0090090D01*
X0021250Y0088630D01*
X0066250Y0088630D02*
X0066250Y0093630D01*
X0082710Y0093630D02*
X0082710Y0090090D01*
X0081250Y0088630D01*
X0126250Y0088630D02*
X0126250Y0093630D01*
X0142710Y0093630D02*
X0142710Y0090090D01*
X0141250Y0088630D01*
D14*
X0141250Y0088630D03*
X0126250Y0088630D03*
X0081250Y0088630D03*
X0066250Y0088630D03*
X0021250Y0088630D03*
X0186250Y0088630D03*
X0201250Y0088630D03*
X0246250Y0088630D03*
X0261250Y0088630D03*
X0306250Y0088630D03*
X0321250Y0088630D03*
X0366250Y0088630D03*
X0010000Y0109840D02*
G75*
%LPD*%
D11*
X0010000Y0109840D02*
X0010000Y0127300D01*
X0372500Y0127300D01*
X0372500Y0109840D01*
X0010000Y0109840D01*
D17*
X0022710Y0118590D03*
X0029790Y0118590D03*
X0082710Y0118590D03*
X0089790Y0118590D03*
X0142710Y0118590D03*
X0149790Y0118590D03*
X0202710Y0118590D03*
X0209790Y0118590D03*
X0262710Y0118590D03*
X0269790Y0118590D03*
X0322710Y0118590D03*
X0329790Y0118590D03*
D21*
X0306250Y0118590D03*
X0246250Y0118590D03*
X0186250Y0118590D03*
X0126250Y0118590D03*
X0066250Y0118590D03*
X0016250Y0118590D03*
X0366250Y0118590D03*
D15*
X0366250Y0113590D01*
X0322710Y0115050D02*
X0321250Y0113590D01*
X0306250Y0113590D02*
X0306250Y0118590D01*
X0322710Y0118590D02*
X0322710Y0115050D01*
X0262710Y0115050D02*
X0261250Y0113590D01*
X0246250Y0113590D02*
X0246250Y0118590D01*
X0262710Y0118590D02*
X0262710Y0115050D01*
X0202710Y0115050D02*
X0201250Y0113590D01*
X0186250Y0113590D02*
X0186250Y0118590D01*
X0202710Y0118590D02*
X0202710Y0115050D01*
X0209790Y0118590D02*
X0209790Y0119630D01*
X0211250Y0123590D01*
X0264790Y0123590D01*
X0269790Y0118590D01*
X0269790Y0119630D01*
X0273750Y0123590D01*
X0324790Y0123590D01*
X0329790Y0118590D01*
X0209790Y0118590D02*
X0204790Y0123590D01*
X0153750Y0123590D01*
X0149790Y0119630D01*
X0149790Y0118590D01*
X0144790Y0123590D01*
X0091250Y0123590D01*
X0089790Y0119630D01*
X0089790Y0118590D01*
X0084790Y0123590D01*
X0033750Y0123590D01*
X0029790Y0119630D01*
X0029790Y0118590D01*
X0024790Y0123590D01*
X0018750Y0123590D01*
X0016250Y0121090D01*
X0016250Y0118590D01*
X0022710Y0118590D02*
X0022710Y0115050D01*
X0021250Y0113590D01*
X0066250Y0113590D02*
X0066250Y0118590D01*
X0082710Y0118590D02*
X0082710Y0115050D01*
X0081250Y0113590D01*
X0126250Y0113590D02*
X0126250Y0118590D01*
X0142710Y0118590D02*
X0142710Y0115050D01*
X0141250Y0113590D01*
D14*
X0141250Y0113590D03*
X0126250Y0113590D03*
X0081250Y0113590D03*
X0066250Y0113590D03*
X0021250Y0113590D03*
X0186250Y0113590D03*
X0201250Y0113590D03*
X0246250Y0113590D03*
X0261250Y0113590D03*
X0306250Y0113590D03*
X0321250Y0113590D03*
X0366250Y0113590D03*
X0010000Y0134800D02*
G75*
%LPD*%
D11*
X0010000Y0134800D02*
X0010000Y0152260D01*
X0372500Y0152260D01*
X0372500Y0134800D01*
X0010000Y0134800D01*
D17*
X0022710Y0143550D03*
X0029790Y0143550D03*
X0082710Y0143550D03*
X0089790Y0143550D03*
X0142710Y0143550D03*
X0149790Y0143550D03*
X0202710Y0143550D03*
X0209790Y0143550D03*
X0262710Y0143550D03*
X0269790Y0143550D03*
X0322710Y0143550D03*
X0329790Y0143550D03*
D21*
X0306250Y0143550D03*
X0246250Y0143550D03*
X0186250Y0143550D03*
X0126250Y0143550D03*
X0066250Y0143550D03*
X0016250Y0143550D03*
X0366250Y0143550D03*
D15*
X0366250Y0138550D01*
X0322710Y0140010D02*
X0321250Y0138550D01*
X0306250Y0138550D02*
X0306250Y0143550D01*
X0322710Y0143550D02*
X0322710Y0140010D01*
X0262710Y0140010D02*
X0261250Y0138550D01*
X0246250Y0138550D02*
X0246250Y0143550D01*
X0262710Y0143550D02*
X0262710Y0140010D01*
X0202710Y0140010D02*
X0201250Y0138550D01*
X0186250Y0138550D02*
X0186250Y0143550D01*
X0202710Y0143550D02*
X0202710Y0140010D01*
X0209790Y0143550D02*
X0209790Y0144590D01*
X0211250Y0148550D01*
X0264790Y0148550D01*
X0269790Y0143550D01*
X0269790Y0144590D01*
X0273750Y0148550D01*
X0324790Y0148550D01*
X0329790Y0143550D01*
X0209790Y0143550D02*
X0204790Y0148550D01*
X0153750Y0148550D01*
X0149790Y0144590D01*
X0149790Y0143550D01*
X0144790Y0148550D01*
X0091250Y0148550D01*
X0089790Y0144590D01*
X0089790Y0143550D01*
X0084790Y0148550D01*
X0033750Y0148550D01*
X0029790Y0144590D01*
X0029790Y0143550D01*
X0024790Y0148550D01*
X0018750Y0148550D01*
X0016250Y0146050D01*
X0016250Y0143550D01*
X0022710Y0143550D02*
X0022710Y0140010D01*
X0021250Y0138550D01*
X0066250Y0138550D02*
X0066250Y0143550D01*
X0082710Y0143550D02*
X0082710Y0140010D01*
X0081250Y0138550D01*
X0126250Y0138550D02*
X0126250Y0143550D01*
X0142710Y0143550D02*
X0142710Y0140010D01*
X0141250Y0138550D01*
D14*
X0141250Y0138550D03*
X0126250Y0138550D03*
X0081250Y0138550D03*
X0066250Y0138550D03*
X0021250Y0138550D03*
X0186250Y0138550D03*
X0201250Y0138550D03*
X0246250Y0138550D03*
X0261250Y0138550D03*
X0306250Y0138550D03*
X0321250Y0138550D03*
X0366250Y0138550D03*
X0010000Y0159760D02*
G75*
%LPD*%
D11*
X0010000Y0159760D02*
X0010000Y0177220D01*
X0372500Y0177220D01*
X0372500Y0159760D01*
X0010000Y0159760D01*
D17*
X0022710Y0168510D03*
X0029790Y0168510D03*
X0082710Y0168510D03*
X0089790Y0168510D03*
X0142710Y0168510D03*
X0149790Y0168510D03*
X0202710Y0168510D03*
X0209790Y0168510D03*
X0262710Y0168510D03*
X0269790Y0168510D03*
X0322710Y0168510D03*
X0329790Y0168510D03*
D21*
X0306250Y0168510D03*
X0246250Y0168510D03*
X0186250Y0168510D03*
X0126250Y0168510D03*
X0066250Y0168510D03*
X0016250Y0168510D03*
X0366250Y0168510D03*
D15*
X0366250Y0163510D01*
X0322710Y0164970D02*
X0321250Y0163510D01*
X0306250Y0163510D02*
X0306250Y0168510D01*
X0322710Y0168510D02*
X0322710Y0164970D01*
X0262710Y0164970D02*
X0261250Y0163510D01*
X0246250Y0163510D02*
X0246250Y0168510D01*
X0262710Y0168510D02*
X0262710Y0164970D01*
X0202710Y0164970D02*
X0201250Y0163510D01*
X0186250Y0163510D02*
X0186250Y0168510D01*
X0202710Y0168510D02*
X0202710Y0164970D01*
X0209790Y0168510D02*
X0209790Y0169550D01*
X0211250Y0173510D01*
X0264790Y0173510D01*
X0269790Y0168510D01*
X0269790Y0169550D01*
X0273750Y0173510D01*
X0324790Y0173510D01*
X0329790Y0168510D01*
X0209790Y0168510D02*
X0204790Y0173510D01*
X0153750Y0173510D01*
X0149790Y0169550D01*
X0149790Y0168510D01*
X0144790Y0173510D01*
X0091250Y0173510D01*
X0089790Y0169550D01*
X0089790Y0168510D01*
X0084790Y0173510D01*
X0033750Y0173510D01*
X0029790Y0169550D01*
X0029790Y0168510D01*
X0024790Y0173510D01*
X0018750Y0173510D01*
X0016250Y0171010D01*
X0016250Y0168510D01*
X0022710Y0168510D02*
X0022710Y0164970D01*
X0021250Y0163510D01*
X0066250Y0163510D02*
X0066250Y0168510D01*
X0082710Y0168510D02*
X0082710Y0164970D01*
X0081250Y0163510D01*
X0126250Y0163510D02*
X0126250Y0168510D01*
X0142710Y0168510D02*
X0142710Y0164970D01*
X0141250Y0163510D01*
D14*
X0141250Y0163510D03*
X0126250Y0163510D03*
X0081250Y0163510D03*
X0066250Y0163510D03*
X0021250Y0163510D03*
X0186250Y0163510D03*
X0201250Y0163510D03*
X0246250Y0163510D03*
X0261250Y0163510D03*
X0306250Y0163510D03*
X0321250Y0163510D03*
X0366250Y0163510D03*
X0010000Y0184720D02*
G75*
%LPD*%
D11*
X0010000Y0184720D02*
X0010000Y0202180D01*
X0372500Y0202180D01*
X0372500Y0184720D01*
X0010000Y0184720D01*
D17*
X0022710Y0193470D03*
X0029790Y0193470D03*
X0082710Y0193470D03*
X0089790Y0193470D03*
X0142710Y0193470D03*
X0149790Y0193470D03*
X0202710Y0193470D03*
X0209790Y0193470D03*
X0262710Y0193470D03*
X0269790Y0193470D03*
X0322710Y0193470D03*
X0329790Y0193470D03*
D21*
X0306250Y0193470D03*
X0246250Y0193470D03*
X0186250Y0193470D03*
X0126250Y0193470D03*
X0066250Y0193470D03*
X0016250Y0193470D03*
X0366250Y0193470D03*
D15*
X0366250Y0188470D01*
X0322710Y0189930D02*
X0321250Y0188470D01*
X0306250Y0188470D02*
X0306250Y0193470D01*
X0322710Y0193470D02*
X0322710Y0189930D01*
X0262710Y0189930D02*
X0261250Y0188470D01*
X0246250Y0188470D02*
X0246250Y0193470D01*
X0262710Y0193470D02*
X0262710Y0189930D01*
X0202710Y0189930D02*
X0201250Y0188470D01*
X0186250Y0188470D02*
X0186250Y0193470D01*
X0202710Y0193470D02*
X0202710Y0189930D01*
X0209790Y0193470D02*
X0209790Y0194510D01*
X0211250Y0198470D01*
X0264790Y0198470D01*
X0269790Y0193470D01*
X0269790Y0194510D01*
X0273750Y0198470D01*
X0324790Y0198470D01*
X0329790Y0193470D01*
X0209790Y0193470D02*
X0204790Y0198470D01*
X0153750Y0198470D01*
X0149790Y0194510D01*
X0149790Y0193470D01*
X0144790Y0198470D01*
X0091250Y0198470D01*
X0089790Y0194510D01*
X0089790Y0193470D01*
X0084790Y0198470D01*
X0033750Y0198470D01*
X0029790Y0194510D01*
X0029790Y0193470D01*
X0024790Y0198470D01*
X0018750Y0198470D01*
X0016250Y0195970D01*
X0016250Y0193470D01*
X0022710Y0193470D02*
X0022710Y0189930D01*
X0021250Y0188470D01*
X0066250Y0188470D02*
X0066250Y0193470D01*
X0082710Y0193470D02*
X0082710Y0189930D01*
X0081250Y0188470D01*
X0126250Y0188470D02*
X0126250Y0193470D01*
X0142710Y0193470D02*
X0142710Y0189930D01*
X0141250Y0188470D01*
D14*
X0141250Y0188470D03*
X0126250Y0188470D03*
X0081250Y0188470D03*
X0066250Y0188470D03*
X0021250Y0188470D03*
X0186250Y0188470D03*
X0201250Y0188470D03*
X0246250Y0188470D03*
X0261250Y0188470D03*
X0306250Y0188470D03*
X0321250Y0188470D03*
X0366250Y0188470D03*
X0010000Y0209680D02*
G75*
%LPD*%
D11*
X0010000Y0209680D02*
X0010000Y0227140D01*
X0372500Y0227140D01*
X0372500Y0209680D01*
X0010000Y0209680D01*
D17*
X0022710Y0218430D03*
X0029790Y0218430D03*
X0082710Y0218430D03*
X0089790Y0218430D03*
X0142710Y0218430D03*
X0149790Y0218430D03*
X0202710Y0218430D03*
X0209790Y0218430D03*
X0262710Y0218430D03*
X0269790Y0218430D03*
X0322710Y0218430D03*
X0329790Y0218430D03*
D21*
X0306250Y0218430D03*
X0246250Y0218430D03*
X0186250Y0218430D03*
X0126250Y0218430D03*
X0066250Y0218430D03*
X0016250Y0218430D03*
X0366250Y0218430D03*
D15*
X0366250Y0213430D01*
X0322710Y0214890D02*
X0321250Y0213430D01*
X0306250Y0213430D02*
X0306250Y0218430D01*
X0322710Y0218430D02*
X0322710Y0214890D01*
X0262710Y0214890D02*
X0261250Y0213430D01*
X0246250Y0213430D02*
X0246250Y0218430D01*
X0262710Y0218430D02*
X0262710Y0214890D01*
X0202710Y0214890D02*
X0201250Y0213430D01*
X0186250Y0213430D02*
X0186250Y0218430D01*
X0202710Y0218430D02*
X0202710Y0214890D01*
X0209790Y0218430D02*
X0209790Y0219470D01*
X0211250Y0223430D01*
X0264790Y0223430D01*
X0269790Y0218430D01*
X0269790Y0219470D01*
X0273750Y0223430D01*
X0324790Y0223430D01*
X0329790Y0218430D01*
X0209790Y0218430D02*
X0204790Y0223430D01*
X0153750Y0223430D01*
X0149790Y0219470D01*
X0149790Y0218430D01*
X0144790Y0223430D01*
X0091250Y0223430D01*
X0089790Y0219470D01*
X0089790Y0218430D01*
X0084790Y0223430D01*
X0033750Y0223430D01*
X0029790Y0219470D01*
X0029790Y0218430D01*
X0024790Y0223430D01*
X0018750Y0223430D01*
X0016250Y0220930D01*
X0016250Y0218430D01*
X0022710Y0218430D02*
X0022710Y0214890D01*
X0021250Y0213430D01*
X0066250Y0213430D02*
X0066250Y0218430D01*
X0082710Y0218430D02*
X0082710Y0214890D01*
X0081250Y0213430D01*
X0126250Y0213430D02*
X0126250Y0218430D01*
X0142710Y0218430D02*
X0142710Y0214890D01*
X0141250Y0213430D01*
D14*
X0141250Y0213430D03*
X0126250Y0213430D03*
X0081250Y0213430D03*
X0066250Y0213430D03*
X0021250Y0213430D03*
X0186250Y0213430D03*
X0201250Y0213430D03*
X0246250Y0213430D03*
X0261250Y0213430D03*
X0306250Y0213430D03*
X0321250Y0213430D03*
X0366250Y0213430D03*
X0010000Y0234640D02*
G75*
%LPD*%
D11*
X0010000Y0234640D02*
X0010000Y0252100D01*
X0372500Y0252100D01*
X0372500Y0234640D01*
X0010000Y0234640D01*
D17*
X0022710Y0243390D03*
X0029790Y0243390D03*
X0082710Y0243390D03*
X0089790Y0243390D03*
X0142710Y0243390D03*
X0149790Y0243390D03*
X0202710Y0243390D03*
X0209790Y0243390D03*
X0262710Y0243390D03*
X0269790Y0243390D03*
X0322710Y0243390D03*
X0329790Y0243390D03*
D21*
X0306250Y0243390D03*
X0246250Y0243390D03*
X0186250Y0243390D03*
X0126250Y0243390D03*
X0066250Y0243390D03*
X0016250Y0243390D03*
X0366250Y0243390D03*
D15*
X0366250Y0238390D01*
X0322710Y0239850D02*
X0321250Y0238390D01*
X0306250Y0238390D02*
X0306250Y0243390D01*
X0322710Y0243390D02*
X0322710Y0239850D01*
X0262710Y0239850D02*
X0261250Y0238390D01*
X0246250Y0238390D02*
X0246250Y0243390D01*
X0262710Y0243390D02*
X0262710Y0239850D01*
X0202710Y0239850D02*
X0201250Y0238390D01*
X0186250Y0238390D02*
X0186250Y0243390D01*
X0202710Y0243390D02*
X0202710Y0239850D01*
X0209790Y0243390D02*
X0209790Y0244430D01*
X0211250Y0248390D01*
X0264790Y0248390D01*
X0269790Y0243390D01*
X0269790Y0244430D01*
X0273750Y0248390D01*
X0324790Y0248390D01*
X0329790Y0243390D01*
X0209790Y0243390D02*
X0204790Y0248390D01*
X0153750Y0248390D01*
X0149790Y0244430D01*
X0149790Y0243390D01*
X0144790Y0248390D01*
X0091250Y0248390D01*
X0089790Y0244430D01*
X0089790Y0243390D01*
X0084790Y0248390D01*
X0033750Y0248390D01*
X0029790Y0244430D01*
X0029790Y0243390D01*
X0024790Y0248390D01*
X0018750Y0248390D01*
X0016250Y0245890D01*
X0016250Y0243390D01*
X0022710Y0243390D02*
X0022710Y0239850D01*
X0021250Y0238390D01*
X0066250Y0238390D02*
X0066250Y0243390D01*
X0082710Y0243390D02*
X0082710Y0239850D01*
X0081250Y0238390D01*
X0126250Y0238390D02*
X0126250Y0243390D01*
X0142710Y0243390D02*
X0142710Y0239850D01*
X0141250Y0238390D01*
D14*
X0141250Y0238390D03*
X0126250Y0238390D03*
X0081250Y0238390D03*
X0066250Y0238390D03*
X0021250Y0238390D03*
X0186250Y0238390D03*
X0201250Y0238390D03*
X0246250Y0238390D03*
X0261250Y0238390D03*
X0306250Y0238390D03*
X0321250Y0238390D03*
X0366250Y0238390D03*
X0010000Y0259600D02*
G75*
%LPD*%
D11*
X0010000Y0259600D02*
X0010000Y0277060D01*
X0372500Y0277060D01*
X0372500Y0259600D01*
X0010000Y0259600D01*
D17*
X0022710Y0268350D03*
X0029790Y0268350D03*
X0082710Y0268350D03*
X0089790Y0268350D03*
X0142710Y0268350D03*
X0149790Y0268350D03*
X0202710Y0268350D03*
X0209790Y0268350D03*
X0262710Y0268350D03*
X0269790Y0268350D03*
X0322710Y0268350D03*
X0329790Y0268350D03*
D21*
X0306250Y0268350D03*
X0246250Y0268350D03*
X0186250Y0268350D03*
X0126250Y0268350D03*
X0066250Y0268350D03*
X0016250Y0268350D03*
X0366250Y0268350D03*
D15*
X0366250Y0263350D01*
X0322710Y0264810D02*
X0321250Y0263350D01*
X0306250Y0263350D02*
X0306250Y0268350D01*
X0322710Y0268350D02*
X0322710Y0264810D01*
X0262710Y0264810D02*
X0261250Y0263350D01*
X0246250Y0263350D02*
X0246250Y0268350D01*
X0262710Y0268350D02*
X0262710Y0264810D01*
X0202710Y0264810D02*
X0201250Y0263350D01*
X0186250Y0263350D02*
X0186250Y0268350D01*
X0202710Y0268350D02*
X0202710Y0264810D01*
X0209790Y0268350D02*
X0209790Y0269390D01*
X0211250Y0273350D01*
X0264790Y0273350D01*
X0269790Y0268350D01*
X0269790Y0269390D01*
X0273750Y0273350D01*
X0324790Y0273350D01*
X0329790Y0268350D01*
X0209790Y0268350D02*
X0204790Y0273350D01*
X0153750Y0273350D01*
X0149790Y0269390D01*
X0149790Y0268350D01*
X0144790Y0273350D01*
X0091250Y0273350D01*
X0089790Y0269390D01*
X0089790Y0268350D01*
X0084790Y0273350D01*
X0033750Y0273350D01*
X0029790Y0269390D01*
X0029790Y0268350D01*
X0024790Y0273350D01*
X0018750Y0273350D01*
X0016250Y0270850D01*
X0016250Y0268350D01*
X0022710Y0268350D02*
X0022710Y0264810D01*
X0021250Y0263350D01*
X0066250Y0263350D02*
X0066250Y0268350D01*
X0082710Y0268350D02*
X0082710Y0264810D01*
X0081250Y0263350D01*
X0126250Y0263350D02*
X0126250Y0268350D01*
X0142710Y0268350D02*
X0142710Y0264810D01*
X0141250Y0263350D01*
D14*
X0141250Y0263350D03*
X0126250Y0263350D03*
X0081250Y0263350D03*
X0066250Y0263350D03*
X0021250Y0263350D03*
X0186250Y0263350D03*
X0201250Y0263350D03*
X0246250Y0263350D03*
X0261250Y0263350D03*
X0306250Y0263350D03*
X0321250Y0263350D03*
X0366250Y0263350D03*
X0010000Y0284560D02*
G75*
%LPD*%
D11*
X0010000Y0284560D02*
X0010000Y0302020D01*
X0372500Y0302020D01*
X0372500Y0284560D01*
X0010000Y0284560D01*
D17*
X0022710Y0293310D03*
X0029790Y0293310D03*
X0082710Y0293310D03*
X0089790Y0293310D03*
X0142710Y0293310D03*
X0149790Y0293310D03*
X0202710Y0293310D03*
X0209790Y0293310D03*
X0262710Y0293310D03*
X0269790Y0293310D03*
X0322710Y0293310D03*
X0329790Y0293310D03*
D21*
X0306250Y0293310D03*
X0246250Y0293310D03*
X0186250Y0293310D03*
X0126250Y0293310D03*
X0066250Y0293310D03*
X0016250Y0293310D03*
X0366250Y0293310D03*
D15*
X0366250Y0288310D01*
X0322710Y0289770D02*
X0321250Y0288310D01*
X0306250Y0288310D02*
X0306250Y0293310D01*
X0322710Y0293310D02*
X0322710Y0289770D01*
X0262710Y0289770D02*
X0261250Y0288310D01*
X0246250Y0288310D02*
X0246250Y0293310D01*
X0262710Y0293310D02*
X0262710Y0289770D01*
X0202710Y0289770D02*
X0201250Y0288310D01*
X0186250Y0288310D02*
X0186250Y0293310D01*
X0202710Y0293310D02*
X0202710Y0289770D01*
X0209790Y0293310D02*
X0209790Y0294350D01*
X0211250Y0298310D01*
X0264790Y0298310D01*
X0269790Y0293310D01*
X0269790Y0294350D01*
X0273750Y0298310D01*
X0324790Y0298310D01*
X0329790Y0293310D01*
X0209790Y0293310D02*
X0204790Y0298310D01*
X0153750Y0298310D01*
X0149790Y0294350D01*
X0149790Y0293310D01*
X0144790Y0298310D01*
X0091250Y0298310D01*
X0089790Y0294350D01*
X0089790Y0293310D01*
X0084790Y0298310D01*
X0033750Y0298310D01*
X0029790Y0294350D01*
X0029790Y0293310D01*
X0024790Y0298310D01*
X0018750Y0298310D01*
X0016250Y0295810D01*
X0016250Y0293310D01*
X0022710Y0293310D02*
X0022710Y0289770D01*
X0021250Y0288310D01*
X0066250Y0288310D02*
X0066250Y0293310D01*
X0082710Y0293310D02*
X0082710Y0289770D01*
X0081250Y0288310D01*
X0126250Y0288310D02*
X0126250Y0293310D01*
X0142710Y0293310D02*
X0142710Y0289770D01*
X0141250Y0288310D01*
D14*
X0141250Y0288310D03*
X0126250Y0288310D03*
X0081250Y0288310D03*
X0066250Y0288310D03*
X0021250Y0288310D03*
X0186250Y0288310D03*
X0201250Y0288310D03*
X0246250Y0288310D03*
X0261250Y0288310D03*
X0306250Y0288310D03*
X0321250Y0288310D03*
X0366250Y0288310D03*
X0010000Y0309520D02*
G75*
%LPD*%
D11*
X0010000Y0309520D02*
X0010000Y0326980D01*
X0372500Y0326980D01*
X0372500Y0309520D01*
X0010000Y0309520D01*
D17*
X0022710Y0318270D03*
X0029790Y0318270D03*
X0082710Y0318270D03*
X0089790Y0318270D03*
X0142710Y0318270D03*
X0149790Y0318270D03*
X0202710Y0318270D03*
X0209790Y0318270D03*
X0262710Y0318270D03*
X0269790Y0318270D03*
X0322710Y0318270D03*
X0329790Y0318270D03*
D21*
X0306250Y0318270D03*
X0246250Y0318270D03*
X0186250Y0318270D03*
X0126250Y0318270D03*
X0066250Y0318270D03*
X0016250Y0318270D03*
X0366250Y0318270D03*
D15*
X0366250Y0313270D01*
X0322710Y0314730D02*
X0321250Y0313270D01*
X0306250Y0313270D02*
X0306250Y0318270D01*
X0322710Y0318270D02*
X0322710Y0314730D01*
X0262710Y0314730D02*
X0261250Y0313270D01*
X0246250Y0313270D02*
X0246250Y0318270D01*
X0262710Y0318270D02*
X0262710Y0314730D01*
X0202710Y0314730D02*
X0201250Y0313270D01*
X0186250Y0313270D02*
X0186250Y0318270D01*
X0202710Y0318270D02*
X0202710Y0314730D01*
X0209790Y0318270D02*
X0209790Y0319310D01*
X0211250Y0323270D01*
X0264790Y0323270D01*
X0269790Y0318270D01*
X0269790Y0319310D01*
X0273750Y0323270D01*
X0324790Y0323270D01*
X0329790Y0318270D01*
X0209790Y0318270D02*
X0204790Y0323270D01*
X0153750Y0323270D01*
X0149790Y0319310D01*
X0149790Y0318270D01*
X0144790Y0323270D01*
X0091250Y0323270D01*
X0089790Y0319310D01*
X0089790Y0318270D01*
X0084790Y0323270D01*
X0033750Y0323270D01*
X0029790Y0319310D01*
X0029790Y0318270D01*
X0024790Y0323270D01*
X0018750Y0323270D01*
X0016250Y0320770D01*
X0016250Y0318270D01*
X0022710Y0318270D02*
X0022710Y0314730D01*
X0021250Y0313270D01*
X0066250Y0313270D02*
X0066250Y0318270D01*
X0082710Y0318270D02*
X0082710Y0314730D01*
X0081250Y0313270D01*
X0126250Y0313270D02*
X0126250Y0318270D01*
X0142710Y0318270D02*
X0142710Y0314730D01*
X0141250Y0313270D01*
D14*
X0141250Y0313270D03*
X0126250Y0313270D03*
X0081250Y0313270D03*
X0066250Y0313270D03*
X0021250Y0313270D03*
X0186250Y0313270D03*
X0201250Y0313270D03*
X0246250Y0313270D03*
X0261250Y0313270D03*
X0306250Y0313270D03*
X0321250Y0313270D03*
X0366250Y0313270D03*
X0010000Y0334480D02*
G75*
%LPD*%
D11*
X0010000Y0334480D02*
X0010000Y0351940D01*
X0372500Y0351940D01*
X0372500Y0334480D01*
X0010000Y0334480D01*
D17*
X0022710Y0343230D03*
X0029790Y0343230D03*
X0082710Y0343230D03*
X0089790Y0343230D03*
X0142710Y0343230D03*
X0149790Y0343230D03*
X0202710Y0343230D03*
X0209790Y0343230D03*
X0262710Y0343230D03*
X0269790Y0343230D03*
X0322710Y0343230D03*
X0329790Y0343230D03*
D21*
X0306250Y0343230D03*
X0246250Y0343230D03*
X0186250Y0343230D03*
X0126250Y0343230D03*
X0066250Y0343230D03*
X0016250Y0343230D03*
X0366250Y0343230D03*
D15*
X0366250Y0338230D01*
X0322710Y0339690D02*
X0321250Y0338230D01*
X0306250Y0338230D02*
X0306250Y0343230D01*
X0322710Y0343230D02*
X0322710Y0339690D01*
X0262710Y0339690D02*
X0261250Y0338230D01*
X0246250Y0338230D02*
X0246250Y0343230D01*
X0262710Y0343230D02*
X0262710Y0339690D01*
X0202710Y0339690D02*
X0201250Y0338230D01*
X0186250Y0338230D02*
X0186250Y0343230D01*
X0202710Y0343230D02*
X0202710Y0339690D01*
X0209790Y0343230D02*
X0209790Y0344270D01*
X0211250Y0348230D01*
X0264790Y0348230D01*
X0269790Y0343230D01*
X0269790Y0344270D01*
X0273750Y0348230D01*
X0324790Y0348230D01*
X0329790Y0343230D01*
X0209790Y0343230D02*
X0204790Y0348230D01*
X0153750Y0348230D01*
X0149790Y0344270D01*
X0149790Y0343230D01*
X0144790Y0348230D01*
X0091250Y0348230D01*
X0089790Y0344270D01*
X0089790Y0343230D01*
X0084790Y0348230D01*
X0033750Y0348230D01*
X0029790Y0344270D01*
X0029790Y0343230D01*
X0024790Y0348230D01*
X0018750Y0348230D01*
X0016250Y0345730D01*
X0016250Y0343230D01*
X0022710Y0343230D02*
X0022710Y0339690D01*
X0021250Y0338230D01*
X0066250Y0338230D02*
X0066250Y0343230D01*
X0082710Y0343230D02*
X0082710Y0339690D01*
X0081250Y0338230D01*
X0126250Y0338230D02*
X0126250Y0343230D01*
X0142710Y0343230D02*
X0142710Y0339690D01*
X0141250Y0338230D01*
D14*
X0141250Y0338230D03*
X0126250Y0338230D03*
X0081250Y0338230D03*
X0066250Y0338230D03*
X0021250Y0338230D03*
X0186250Y0338230D03*
X0201250Y0338230D03*
X0246250Y0338230D03*
X0261250Y0338230D03*
X0306250Y0338230D03*
X0321250Y0338230D03*
X0366250Y0338230D03*
X0010000Y0359440D02*
G75*
%LPD*%
D11*
X0010000Y0359440D02*
X0010000Y0376900D01*
X0372500Y0376900D01*
X0372500Y0359440D01*
X0010000Y0359440D01*
D17*
X0022710Y0368190D03*
X0029790Y0368190D03*
X0082710Y0368190D03*
X0089790Y0368190D03*
X0142710Y0368190D03*
X0149790Y0368190D03*
X0202710Y0368190D03*
X0209790Y0368190D03*
X0262710Y0368190D03*
X0269790Y0368190D03*
X0322710Y0368190D03*
X0329790Y0368190D03*
D21*
X0306250Y0368190D03*
X0246250Y0368190D03*
X0186250Y0368190D03*
X0126250Y0368190D03*
X0066250Y0368190D03*
X0016250Y0368190D03*
X0366250Y0368190D03*
D15*
X0366250Y0363190D01*
X0322710Y0364650D02*
X0321250Y0363190D01*
X0306250Y0363190D02*
X0306250Y0368190D01*
X0322710Y0368190D02*
X0322710Y0364650D01*
X0262710Y0364650D02*
X0261250Y0363190D01*
X0246250Y0363190D02*
X0246250Y0368190D01*
X0262710Y0368190D02*
X0262710Y0364650D01*
X0202710Y0364650D02*
X0201250Y0363190D01*
X0186250Y0363190D02*
X0186250Y0368190D01*
X0202710Y0368190D02*
X0202710Y0364650D01*
X0209790Y0368190D02*
X0209790Y0369230D01*
X0211250Y0373190D01*
X0264790Y0373190D01*
X0269790Y0368190D01*
X0269790Y0369230D01*
X0273750Y0373190D01*
X0324790Y0373190D01*
X0329790Y0368190D01*
X0209790Y0368190D02*
X0204790Y0373190D01*
X0153750Y0373190D01*
X0149790Y0369230D01*
X0149790Y0368190D01*
X0144790Y0373190D01*
X0091250Y0373190D01*
X0089790Y0369230D01*
X0089790Y0368190D01*
X0084790Y0373190D01*
X0033750Y0373190D01*
X0029790Y0369230D01*
X0029790Y0368190D01*
X0024790Y0373190D01*
X0018750Y0373190D01*
X0016250Y0370690D01*
X0016250Y0368190D01*
X0022710Y0368190D02*
X0022710Y0364650D01*
X0021250Y0363190D01*
X0066250Y0363190D02*
X0066250Y0368190D01*
X0082710Y0368190D02*
X0082710Y0364650D01*
X0081250Y0363190D01*
X0126250Y0363190D02*
X0126250Y0368190D01*
X0142710Y0368190D02*
X0142710Y0364650D01*
X0141250Y0363190D01*
D14*
X0141250Y0363190D03*
X0126250Y0363190D03*
X0081250Y0363190D03*
X0066250Y0363190D03*
X0021250Y0363190D03*
X0186250Y0363190D03*
X0201250Y0363190D03*
X0246250Y0363190D03*
X0261250Y0363190D03*
X0306250Y0363190D03*
X0321250Y0363190D03*
X0366250Y0363190D03*
X0010000Y0384400D02*
G75*
%LPD*%
D11*
X0010000Y0384400D02*
X0010000Y0401860D01*
X0372500Y0401860D01*
X0372500Y0384400D01*
X0010000Y0384400D01*
D17*
X0022710Y0393150D03*
X0029790Y0393150D03*
X0082710Y0393150D03*
X0089790Y0393150D03*
X0142710Y0393150D03*
X0149790Y0393150D03*
X0202710Y0393150D03*
X0209790Y0393150D03*
X0262710Y0393150D03*
X0269790Y0393150D03*
X0322710Y0393150D03*
X0329790Y0393150D03*
D21*
X0306250Y0393150D03*
X0246250Y0393150D03*
X0186250Y0393150D03*
X0126250Y0393150D03*
X0066250Y0393150D03*
X0016250Y0393150D03*
X0366250Y0393150D03*
D15*
X0366250Y0388150D01*
X0322710Y0389610D02*
X0321250Y0388150D01*
X0306250Y0388150D02*
X0306250Y0393150D01*
X0322710Y0393150D02*
X0322710Y0389610D01*
X0262710Y0389610D02*
X0261250Y0388150D01*
X0246250Y0388150D02*
X0246250Y0393150D01*
X0262710Y0393150D02*
X0262710Y0389610D01*
X0202710Y0389610D02*
X0201250Y0388150D01*
X0186250Y0388150D02*
X0186250Y0393150D01*
X0202710Y0393150D02*
X0202710Y0389610D01*
X0209790Y0393150D02*
X0209790Y0394190D01*
X0211250Y0398150D01*
X0264790Y0398150D01*
X0269790Y0393150D01*
X0269790Y0394190D01*
X0273750Y0398150D01*
X0324790Y0398150D01*
X0329790Y0393150D01*
X0209790Y0393150D02*
X0204790Y0398150D01*
X0153750Y0398150D01*
X0149790Y0394190D01*
X0149790Y0393150D01*
X0144790Y0398150D01*
X0091250Y0398150D01*
X0089790Y0394190D01*
X0089790Y0393150D01*
X0084790Y0398150D01*
X0033750Y0398150D01*
X0029790Y0394190D01*
X0029790Y0393150D01*
X0024790Y0398150D01*
X0018750Y0398150D01*
X0016250Y0395650D01*
X0016250Y0393150D01*
X0022710Y0393150D02*
X0022710Y0389610D01*
X0021250Y0388150D01*
X0066250Y0388150D02*
X0066250Y0393150D01*
X0082710Y0393150D02*
X0082710Y0389610D01*
X0081250Y0388150D01*
X0126250Y0388150D02*
X0126250Y0393150D01*
X0142710Y0393150D02*
X0142710Y0389610D01*
X0141250Y0388150D01*
D14*
X0141250Y0388150D03*
X0126250Y0388150D03*
X0081250Y0388150D03*
X0066250Y0388150D03*
X0021250Y0388150D03*
X0186250Y0388150D03*
X0201250Y0388150D03*
X0246250Y0388150D03*
X0261250Y0388150D03*
X0306250Y0388150D03*
X0321250Y0388150D03*
X0366250Y0388150D03*
M02*
