G75*
%MOIN*%
%OFA0B0*%
%FSLAX24Y24*%
%IPPOS*%
%LPD*%
%AMOC8*
5,1,8,0,0,1.08239X$1,22.5*
%
%ADD10C,0.0000*%
%ADD11C,0.0397*%
%ADD12C,0.0060*%
%ADD13C,0.0317*%
D10*
X002392Y002517D02*
X002392Y011017D01*
X008892Y011017D01*
X008892Y002517D01*
X002392Y002517D01*
D11*
X003892Y002829D03*
X003892Y003454D03*
X004392Y003767D03*
X005017Y003767D03*
X002954Y004579D03*
X002954Y005204D03*
X004204Y007079D03*
X004829Y007204D03*
X002954Y007204D03*
X002954Y007829D03*
X004079Y010579D03*
X004767Y010579D03*
X007642Y009829D03*
X007642Y009142D03*
X007204Y007204D03*
X007204Y006829D03*
X007142Y004392D03*
X007142Y003767D03*
D12*
X006892Y004079D02*
X007454Y004079D01*
X007642Y004267D01*
X007642Y005704D01*
X007454Y005704D01*
X006454Y006704D01*
X006079Y006704D01*
X007642Y008267D01*
X007642Y008642D01*
X006204Y010079D01*
X005329Y010079D01*
X004517Y010079D01*
X003454Y009017D01*
X003454Y008392D01*
X003454Y005767D01*
X003454Y003892D01*
X003892Y003454D01*
X006579Y003267D02*
X006579Y003767D01*
X006892Y004079D01*
D13*
X006579Y003267D03*
X007642Y005704D03*
X006079Y006704D03*
X007642Y008642D03*
X005329Y010079D03*
X003454Y008392D03*
X003454Y005767D03*
M02*
