G75*
%MOIN*%
%OFA0B0*%
%FSLAX24Y24*%
%IPPOS*%
%LPD*%
%AMOC8*
5,1,8,0,0,1.08239X$1,22.5*
%
%ADD10C,0.0000*%
%ADD11R,0.0472X0.0472*%
%ADD12C,0.0397*%
%ADD13C,0.0060*%
%ADD14C,0.0317*%
D10*
X002392Y002517D02*
X002392Y011017D01*
X008892Y011017D01*
X008892Y002517D01*
X002392Y002517D01*
D11*
X002978Y003142D03*
X003805Y003142D03*
X003805Y004017D03*
X002978Y004017D03*
X002978Y004892D03*
X003805Y004892D03*
X003805Y005767D03*
X002978Y005767D03*
X002978Y006642D03*
X003805Y006642D03*
X004517Y006353D03*
X005329Y006353D03*
X006079Y006353D03*
X006829Y006353D03*
X007166Y005704D03*
X007993Y005704D03*
X007603Y004954D03*
X007993Y004079D03*
X007166Y004079D03*
X006579Y003743D03*
X006579Y002916D03*
X005642Y002916D03*
X005642Y003743D03*
X004704Y003743D03*
X004704Y002916D03*
X008430Y004954D03*
X006829Y007180D03*
X006806Y007793D03*
X006079Y007180D03*
X005329Y007180D03*
X004517Y007180D03*
X003805Y007517D03*
X002978Y007517D03*
X002978Y008392D03*
X003805Y008392D03*
X003805Y009267D03*
X004410Y009721D03*
X004410Y010547D03*
X005329Y010555D03*
X005329Y009728D03*
X006204Y009728D03*
X006791Y009454D03*
X007291Y008642D03*
X008118Y008642D03*
X007618Y009454D03*
X006204Y010555D03*
X007633Y007793D03*
X002978Y009267D03*
D12*
X004079Y010579D03*
X004767Y010579D03*
X002954Y007829D03*
X002954Y007204D03*
X004204Y007079D03*
X004829Y007204D03*
X002954Y005204D03*
X002954Y004579D03*
X003892Y003454D03*
X004392Y003767D03*
X005017Y003767D03*
X003892Y002829D03*
X007142Y003767D03*
X007142Y004392D03*
X007204Y006829D03*
X007204Y007204D03*
X007642Y009142D03*
X007642Y009829D03*
D13*
X007642Y009478D01*
X007618Y009454D01*
X007642Y009430D01*
X007642Y009142D01*
X007642Y008642D02*
X007291Y008642D01*
X007218Y008204D02*
X006806Y007793D01*
X007218Y008204D02*
X007704Y008204D01*
X008118Y008618D01*
X008118Y008642D01*
X007633Y007793D02*
X007633Y007633D01*
X007517Y007517D01*
X007517Y006642D01*
X007204Y006329D01*
X006853Y006329D01*
X006829Y006353D01*
X007204Y006829D02*
X007204Y007204D01*
X006853Y007204D01*
X006829Y007180D01*
X006079Y007180D02*
X006079Y007103D01*
X005329Y006353D01*
X006079Y006353D02*
X006079Y006704D01*
X005329Y007166D02*
X004517Y006353D01*
X004416Y007079D02*
X004204Y007079D01*
X004416Y007079D02*
X004517Y007180D01*
X004541Y007204D01*
X004829Y007204D01*
X005329Y007180D02*
X005329Y007166D01*
X003805Y007517D02*
X002978Y006690D01*
X002978Y006642D01*
X002954Y007204D02*
X002954Y007493D01*
X002978Y007517D01*
X002954Y007541D01*
X002954Y007829D01*
X002978Y008392D02*
X002978Y008440D01*
X003805Y009267D01*
X003392Y009642D02*
X004331Y009642D01*
X004410Y009721D01*
X004410Y010547D02*
X004442Y010579D01*
X004767Y010579D01*
X004410Y010547D02*
X004378Y010579D01*
X004079Y010579D01*
X003392Y009642D02*
X003017Y009267D01*
X002978Y009267D01*
X003454Y008392D02*
X003805Y008392D01*
X005329Y009728D02*
X005329Y010079D01*
X005329Y010555D02*
X005377Y010555D01*
X006204Y009728D01*
X006579Y009666D02*
X006791Y009454D01*
X006579Y009666D02*
X006579Y010392D01*
X006416Y010555D01*
X006204Y010555D01*
X003805Y006642D02*
X002978Y005815D01*
X002978Y005767D01*
X003454Y005767D02*
X003805Y005767D01*
X003805Y004892D02*
X002978Y004065D01*
X002978Y004017D01*
X002954Y004579D02*
X002954Y004868D01*
X002978Y004892D01*
X002954Y004916D01*
X002954Y005204D01*
X003805Y004017D02*
X002978Y003190D01*
X002978Y003142D01*
X003805Y003142D02*
X003892Y003228D01*
X003892Y003454D01*
X003805Y003142D02*
X003892Y003055D01*
X003892Y002829D01*
X004704Y002916D02*
X005531Y003743D01*
X005642Y003743D01*
X005017Y003767D02*
X004728Y003767D01*
X004704Y003743D01*
X004680Y003767D01*
X004392Y003767D01*
X005642Y002916D02*
X006468Y003743D01*
X006579Y003743D01*
X006579Y003267D02*
X006579Y002916D01*
X007142Y003767D02*
X007142Y004055D01*
X007166Y004079D01*
X007142Y004103D01*
X007142Y004392D01*
X007603Y004805D02*
X007954Y004454D01*
X007954Y004118D01*
X007993Y004079D01*
X007603Y004805D02*
X007603Y004954D01*
X007517Y005329D02*
X008055Y005329D01*
X008430Y004954D01*
X007993Y005704D02*
X007642Y005704D01*
X007517Y005329D02*
X007166Y005680D01*
X007166Y005704D01*
D14*
X007642Y005704D03*
X006079Y006704D03*
X007642Y008642D03*
X005329Y010079D03*
X003454Y008392D03*
X003454Y005767D03*
X006579Y003267D03*
M02*
