G75*
%MOIN*%
%OFA0B0*%
%FSLAX24Y24*%
%IPPOS*%
%LPD*%
%AMOC8*
5,1,8,0,0,1.08239X$1,22.5*
%
%ADD10C,0.0000*%
%ADD11C,0.0100*%
%ADD12C,0.0040*%
%ADD13C,0.0080*%
D10*
X002392Y002642D02*
X002392Y011142D01*
X008767Y011142D01*
X008767Y002642D01*
X002392Y002642D01*
D11*
X002642Y003297D02*
X002642Y010091D01*
X002644Y010146D01*
X002649Y010200D01*
X002659Y010254D01*
X002672Y010307D01*
X002688Y010359D01*
X002708Y010410D01*
X002732Y010459D01*
X002758Y010507D01*
X002788Y010552D01*
X002821Y010596D01*
X002857Y010637D01*
X002896Y010676D01*
X002937Y010712D01*
X002981Y010745D01*
X003026Y010775D01*
X003074Y010801D01*
X003123Y010825D01*
X003174Y010845D01*
X003226Y010861D01*
X003279Y010874D01*
X003333Y010884D01*
X003387Y010889D01*
X003442Y010891D01*
X003442Y010892D02*
X006767Y010892D01*
X007642Y010517D02*
X008267Y009829D01*
X008579Y008954D02*
X008579Y006892D01*
X008329Y006392D02*
X007240Y005303D01*
X007226Y005286D01*
X007214Y005268D01*
X007206Y005247D01*
X007201Y005226D01*
X007199Y005204D01*
X007201Y005182D01*
X007206Y005161D01*
X007214Y005140D01*
X007226Y005122D01*
X007240Y005105D01*
X008392Y003954D01*
X008392Y003955D02*
X008423Y003911D01*
X008451Y003866D01*
X008475Y003819D01*
X008496Y003769D01*
X008513Y003719D01*
X008526Y003667D01*
X008535Y003615D01*
X008541Y003562D01*
X008542Y003508D01*
X008539Y003455D01*
X008533Y003402D01*
X008522Y003350D01*
X008508Y003299D01*
X008489Y003248D01*
X008468Y003200D01*
X008442Y003153D01*
X008413Y003108D01*
X008381Y003066D01*
X008346Y003026D01*
X008308Y002988D01*
X008267Y002954D01*
X008223Y002923D01*
X008178Y002895D01*
X008131Y002871D01*
X008081Y002850D01*
X008031Y002833D01*
X007979Y002820D01*
X007927Y002811D01*
X007874Y002805D01*
X007820Y002804D01*
X007767Y002807D01*
X007714Y002813D01*
X007662Y002824D01*
X007611Y002838D01*
X007560Y002857D01*
X007512Y002878D01*
X007465Y002904D01*
X007420Y002933D01*
X007378Y002965D01*
X007338Y003000D01*
X007300Y003038D01*
X007266Y003079D01*
X007267Y003079D02*
X005360Y004986D01*
X005135Y005079D02*
X004444Y005079D01*
X004406Y005077D01*
X004368Y005071D01*
X004332Y005061D01*
X004296Y005048D01*
X004262Y005030D01*
X004230Y005009D01*
X004200Y004986D01*
X004173Y004959D01*
X004150Y004929D01*
X004129Y004897D01*
X004111Y004863D01*
X004098Y004827D01*
X004088Y004791D01*
X004082Y004753D01*
X004080Y004715D01*
X004079Y004715D02*
X004079Y003267D01*
X004080Y003263D02*
X004078Y003220D01*
X004072Y003177D01*
X004063Y003134D01*
X004050Y003093D01*
X004033Y003053D01*
X004013Y003014D01*
X003990Y002978D01*
X003964Y002944D01*
X003934Y002912D01*
X003902Y002882D01*
X003868Y002856D01*
X003831Y002833D01*
X003793Y002813D01*
X003753Y002796D01*
X003712Y002783D01*
X003669Y002774D01*
X003626Y002768D01*
X003583Y002766D01*
X003579Y002767D02*
X003204Y002767D01*
X003172Y002767D02*
X003128Y002769D01*
X003085Y002774D01*
X003042Y002783D01*
X003000Y002796D01*
X002959Y002812D01*
X002920Y002831D01*
X002882Y002853D01*
X002846Y002879D01*
X002813Y002907D01*
X002782Y002938D01*
X002754Y002971D01*
X002728Y003007D01*
X002706Y003045D01*
X002687Y003084D01*
X002671Y003125D01*
X002658Y003167D01*
X002649Y003210D01*
X002644Y003253D01*
X002642Y003297D01*
X005135Y005079D02*
X005166Y005077D01*
X005197Y005073D01*
X005228Y005065D01*
X005257Y005055D01*
X005285Y005041D01*
X005312Y005025D01*
X005337Y005007D01*
X005361Y004986D01*
X008329Y006392D02*
X008366Y006423D01*
X008401Y006456D01*
X008433Y006492D01*
X008462Y006531D01*
X008488Y006571D01*
X008512Y006613D01*
X008531Y006657D01*
X008548Y006702D01*
X008561Y006749D01*
X008571Y006796D01*
X008577Y006844D01*
X008579Y006892D01*
X008580Y008954D02*
X008585Y009018D01*
X008586Y009082D01*
X008583Y009146D01*
X008577Y009210D01*
X008566Y009273D01*
X008552Y009336D01*
X008534Y009397D01*
X008513Y009458D01*
X008488Y009517D01*
X008459Y009574D01*
X008427Y009629D01*
X008392Y009683D01*
X008353Y009734D01*
X008311Y009783D01*
X008267Y009829D01*
X007641Y010517D02*
X007597Y010565D01*
X007550Y010611D01*
X007500Y010653D01*
X007447Y010693D01*
X007392Y010729D01*
X007336Y010762D01*
X007277Y010792D01*
X007217Y010817D01*
X007155Y010840D01*
X007092Y010858D01*
X007028Y010873D01*
X006963Y010883D01*
X006898Y010890D01*
X006832Y010893D01*
X006766Y010892D01*
X004233Y007892D02*
X004235Y007965D01*
X004241Y008038D01*
X004251Y008110D01*
X004264Y008181D01*
X004282Y008252D01*
X004303Y008322D01*
X004329Y008390D01*
X004357Y008457D01*
X004390Y008522D01*
X004426Y008586D01*
X004465Y008647D01*
X004507Y008707D01*
X004553Y008763D01*
X004602Y008818D01*
X004653Y008869D01*
X004708Y008918D01*
X004764Y008964D01*
X004824Y009006D01*
X004885Y009045D01*
X004949Y009081D01*
X005014Y009114D01*
X005081Y009142D01*
X005149Y009168D01*
X005219Y009189D01*
X005290Y009207D01*
X005361Y009220D01*
X005433Y009230D01*
X005506Y009236D01*
X005579Y009238D01*
X005652Y009236D01*
X005725Y009230D01*
X005797Y009220D01*
X005868Y009207D01*
X005939Y009189D01*
X006009Y009168D01*
X006077Y009142D01*
X006144Y009114D01*
X006209Y009081D01*
X006273Y009045D01*
X006334Y009006D01*
X006394Y008964D01*
X006450Y008918D01*
X006505Y008869D01*
X006556Y008818D01*
X006605Y008763D01*
X006651Y008707D01*
X006693Y008647D01*
X006732Y008586D01*
X006768Y008522D01*
X006801Y008457D01*
X006829Y008390D01*
X006855Y008322D01*
X006876Y008252D01*
X006894Y008181D01*
X006907Y008110D01*
X006917Y008038D01*
X006923Y007965D01*
X006925Y007892D01*
X006923Y007819D01*
X006917Y007746D01*
X006907Y007674D01*
X006894Y007603D01*
X006876Y007532D01*
X006855Y007462D01*
X006829Y007394D01*
X006801Y007327D01*
X006768Y007262D01*
X006732Y007198D01*
X006693Y007137D01*
X006651Y007077D01*
X006605Y007021D01*
X006556Y006966D01*
X006505Y006915D01*
X006450Y006866D01*
X006394Y006820D01*
X006334Y006778D01*
X006273Y006739D01*
X006209Y006703D01*
X006144Y006670D01*
X006077Y006642D01*
X006009Y006616D01*
X005939Y006595D01*
X005868Y006577D01*
X005797Y006564D01*
X005725Y006554D01*
X005652Y006548D01*
X005579Y006546D01*
X005506Y006548D01*
X005433Y006554D01*
X005361Y006564D01*
X005290Y006577D01*
X005219Y006595D01*
X005149Y006616D01*
X005081Y006642D01*
X005014Y006670D01*
X004949Y006703D01*
X004885Y006739D01*
X004824Y006778D01*
X004764Y006820D01*
X004708Y006866D01*
X004653Y006915D01*
X004602Y006966D01*
X004553Y007021D01*
X004507Y007077D01*
X004465Y007137D01*
X004426Y007198D01*
X004390Y007262D01*
X004357Y007327D01*
X004329Y007394D01*
X004303Y007462D01*
X004282Y007532D01*
X004264Y007603D01*
X004251Y007674D01*
X004241Y007746D01*
X004235Y007819D01*
X004233Y007892D01*
D12*
X004142Y007767D02*
X002642Y007767D01*
X002642Y008517D01*
X004017Y008517D01*
X004142Y008392D01*
X004142Y007767D01*
X004017Y007704D02*
X004142Y007579D01*
X004142Y006954D01*
X002642Y006954D01*
X002642Y007704D01*
X004017Y007704D01*
X004017Y006892D02*
X004142Y006767D01*
X004142Y006142D01*
X002642Y006142D01*
X002642Y006892D01*
X004017Y006892D01*
X004142Y006392D02*
X004017Y006267D01*
X004017Y004892D01*
X004767Y004892D01*
X004767Y006267D01*
X004892Y006392D01*
X005517Y006392D01*
X005517Y004892D01*
X005517Y006267D01*
X005642Y006392D01*
X006267Y006392D01*
X006267Y004892D01*
X005517Y004892D01*
X004767Y004892D01*
X004767Y006392D01*
X004142Y006392D01*
X004017Y006079D02*
X004142Y005954D01*
X004142Y005329D01*
X002642Y005329D01*
X002642Y006079D01*
X004017Y006079D01*
X004017Y005267D02*
X004142Y005142D01*
X004142Y004517D01*
X002642Y004517D01*
X002642Y005267D01*
X004017Y005267D01*
X004017Y004454D02*
X004142Y004329D01*
X004142Y003704D01*
X002642Y003704D01*
X002642Y004454D01*
X004017Y004454D01*
X004017Y003642D02*
X004142Y003517D01*
X004142Y002892D01*
X002642Y002892D01*
X002642Y003642D01*
X004017Y003642D01*
X006142Y004517D02*
X006142Y005267D01*
X007517Y005267D01*
X007642Y005142D01*
X007642Y004517D01*
X006142Y004517D01*
X006517Y004454D02*
X007892Y004454D01*
X008017Y004329D01*
X008017Y003704D01*
X006517Y003704D01*
X006517Y004454D01*
X006142Y005267D02*
X006142Y006017D01*
X007517Y006017D01*
X007642Y005892D01*
X007642Y005267D01*
X006142Y005267D01*
X006579Y005954D02*
X006579Y006704D01*
X007954Y006704D01*
X008079Y006579D01*
X008079Y005954D01*
X006579Y005954D01*
X007079Y006704D02*
X007079Y007454D01*
X008454Y007454D01*
X008579Y007329D01*
X008579Y006704D01*
X007079Y006704D01*
X007079Y007517D02*
X007079Y008267D01*
X008454Y008267D01*
X008579Y008142D01*
X008579Y007517D01*
X007079Y007517D01*
X007247Y008093D02*
X006872Y008743D01*
X008063Y009430D01*
X008234Y009385D01*
X008546Y008843D01*
X007247Y008093D01*
X007064Y008710D02*
X006534Y009241D01*
X007506Y010213D01*
X007683Y010213D01*
X008125Y009771D01*
X007064Y008710D01*
X006829Y009392D02*
X006079Y009392D01*
X006079Y010767D01*
X006204Y010892D01*
X006829Y010892D01*
X006829Y009392D01*
X005954Y009392D02*
X005204Y009392D01*
X005204Y010767D01*
X005329Y010892D01*
X005954Y010892D01*
X005954Y009392D01*
X005079Y009392D02*
X004329Y009392D01*
X004329Y010767D01*
X004454Y010892D01*
X005079Y010892D01*
X005079Y009392D01*
X004392Y009579D02*
X002892Y009579D01*
X002892Y010329D01*
X004267Y010329D01*
X004392Y010204D01*
X004392Y009579D01*
X004142Y009267D02*
X004017Y009392D01*
X002642Y009392D01*
X002642Y008642D01*
X004142Y008642D01*
X004142Y009267D01*
X007079Y003642D02*
X008454Y003642D01*
X008579Y003517D01*
X008579Y002892D01*
X007079Y002892D01*
X007079Y003642D01*
D13*
X007992Y004461D02*
X007992Y004560D01*
X008191Y004758D01*
X008290Y004758D01*
X008389Y004659D01*
X008389Y004560D01*
X008191Y004362D01*
X008092Y004362D01*
X007992Y004461D01*
X007915Y004737D02*
X007716Y004737D01*
X007716Y004935D01*
X007915Y005133D01*
X008113Y004935D02*
X007915Y004737D01*
X007992Y005306D02*
X007794Y005306D01*
X007596Y005504D01*
X007794Y005702D02*
X007992Y005504D01*
X007992Y005306D01*
X008169Y005582D02*
X008268Y005582D01*
X008367Y005681D01*
X008367Y005780D01*
X008169Y005978D01*
X008070Y005978D01*
X007971Y005879D01*
X007971Y005780D01*
X008169Y005582D01*
X008494Y005907D02*
X008594Y005907D01*
X008693Y006006D01*
X008693Y006105D01*
X008643Y006155D01*
X008544Y006155D01*
X008395Y006006D01*
X008494Y005907D01*
X008395Y006006D02*
X008395Y006204D01*
X008445Y006353D01*
X006989Y007103D02*
X006849Y007243D01*
X006569Y007243D01*
X006639Y007423D02*
X006919Y007423D01*
X006989Y007493D01*
X006989Y007634D01*
X006919Y007704D01*
X006639Y007704D01*
X006569Y007634D01*
X006569Y007493D01*
X006639Y007423D01*
X006569Y006963D02*
X006849Y006963D01*
X006989Y007103D01*
X006919Y007884D02*
X006989Y007954D01*
X006989Y008094D01*
X006919Y008164D01*
X006779Y008164D01*
X006709Y008094D01*
X006709Y008024D01*
X006779Y007884D01*
X006569Y007884D01*
X006569Y008164D01*
X006205Y006788D02*
X005925Y006788D01*
X005745Y006718D02*
X005675Y006788D01*
X005535Y006788D01*
X005465Y006718D01*
X005465Y006437D01*
X005535Y006367D01*
X005675Y006367D01*
X005745Y006437D01*
X005745Y006718D01*
X005925Y006437D02*
X005925Y006367D01*
X005925Y006437D02*
X006205Y006718D01*
X006205Y006788D01*
X005284Y006788D02*
X005284Y006507D01*
X005144Y006367D01*
X005004Y006507D01*
X005004Y006788D01*
X004802Y006978D02*
X004662Y007118D01*
X004381Y007118D01*
X004451Y007298D02*
X004732Y007298D01*
X004802Y007368D01*
X004802Y007509D01*
X004732Y007579D01*
X004451Y007579D01*
X004381Y007509D01*
X004381Y007368D01*
X004451Y007298D01*
X004381Y006838D02*
X004662Y006838D01*
X004802Y006978D01*
X004802Y007759D02*
X004521Y008039D01*
X004451Y008039D01*
X004381Y007969D01*
X004381Y007829D01*
X004451Y007759D01*
X004802Y007759D02*
X004802Y008039D01*
X003781Y010419D02*
X003641Y010419D01*
X003571Y010489D01*
X003391Y010489D02*
X003391Y010769D01*
X003321Y010840D01*
X003181Y010840D01*
X003111Y010769D01*
X003111Y010489D01*
X003181Y010419D01*
X003321Y010419D01*
X003391Y010489D01*
X003571Y010769D02*
X003641Y010840D01*
X003781Y010840D01*
X003852Y010769D01*
X003852Y010699D01*
X003781Y010629D01*
X003852Y010559D01*
X003852Y010489D01*
X003781Y010419D01*
X003781Y010629D02*
X003711Y010629D01*
X002931Y010559D02*
X002931Y010840D01*
X002650Y010840D02*
X002650Y010559D01*
X002791Y010419D01*
X002931Y010559D01*
X007071Y010459D02*
X007211Y010319D01*
X007351Y010459D01*
X007351Y010740D01*
X007531Y010669D02*
X007531Y010389D01*
X007601Y010319D01*
X007742Y010319D01*
X007812Y010389D01*
X007812Y010669D01*
X007742Y010740D01*
X007601Y010740D01*
X007531Y010669D01*
X007992Y010529D02*
X008272Y010529D01*
X008202Y010319D02*
X008202Y010740D01*
X007992Y010529D01*
X007071Y010459D02*
X007071Y010740D01*
X005393Y004865D02*
X005393Y004444D01*
X005533Y004444D02*
X005252Y004444D01*
X005072Y004514D02*
X005072Y004794D01*
X005002Y004865D01*
X004862Y004865D01*
X004792Y004794D01*
X004792Y004514D01*
X004862Y004444D01*
X005002Y004444D01*
X005072Y004514D01*
X005252Y004724D02*
X005393Y004865D01*
X004612Y004865D02*
X004612Y004584D01*
X004472Y004444D01*
X004332Y004584D01*
X004332Y004865D01*
X004169Y004004D02*
X004589Y004004D01*
X004169Y003724D01*
X004589Y003724D01*
X004589Y003557D02*
X004589Y003417D01*
X004589Y003487D02*
X004169Y003487D01*
X004169Y003417D02*
X004169Y003557D01*
X004169Y003237D02*
X004449Y003237D01*
X004589Y003097D01*
X004449Y002957D01*
X004169Y002957D01*
X008318Y004135D02*
X008318Y004235D01*
X008368Y004284D01*
X008467Y004284D01*
X008566Y004185D01*
X008566Y004086D01*
X008516Y004036D01*
X008417Y004036D01*
X008318Y004135D01*
X008467Y004284D02*
X008467Y004383D01*
X008516Y004433D01*
X008615Y004433D01*
X008714Y004334D01*
X008714Y004235D01*
X008665Y004185D01*
X008566Y004185D01*
M02*
