G75*
%MOIN*%
%OFA0B0*%
%FSLAX24Y24*%
%IPPOS*%
%LPD*%
%AMOC8*
5,1,8,0,0,1.08239X$1,22.5*
%
%ADD10C,0.0000*%
%ADD11R,0.0472X0.0472*%
%ADD12R,0.0472X0.0472*%
%ADD13C,0.0397*%
%ADD14C,0.0060*%
%ADD15C,0.0317*%
D10*
X002392Y002642D02*
X002392Y011142D01*
X008767Y011142D01*
X008767Y002642D01*
X002392Y002642D01*
D11*
X002978Y003267D03*
X002978Y004079D03*
X002978Y004892D03*
X002978Y005704D03*
X002978Y006517D03*
X002978Y007329D03*
X002978Y008142D03*
X003805Y008142D03*
X003805Y007329D03*
X003805Y006517D03*
X004392Y006055D03*
X003805Y005704D03*
X004392Y005228D03*
X003805Y004892D03*
X003805Y004079D03*
X003805Y003267D03*
X005142Y005228D03*
X005892Y005228D03*
X006478Y004892D03*
X006478Y005642D03*
X005892Y006055D03*
X005142Y006055D03*
X006916Y006329D03*
X007305Y005642D03*
X007305Y004892D03*
X007680Y004079D03*
X006853Y004079D03*
X007416Y003267D03*
X008243Y003267D03*
X007743Y006329D03*
X007416Y007079D03*
X007416Y007892D03*
X008243Y007892D03*
X008243Y007079D03*
X006454Y009728D03*
X006454Y010555D03*
X005579Y010555D03*
X005579Y009728D03*
X004704Y009728D03*
X004055Y009954D03*
X004704Y010555D03*
X003228Y009954D03*
X002978Y009017D03*
X003805Y009017D03*
D12*
G36*
X007037Y008881D02*
X006704Y009214D01*
X007037Y009547D01*
X007370Y009214D01*
X007037Y008881D01*
G37*
G36*
X007265Y008265D02*
X007029Y008673D01*
X007437Y008909D01*
X007673Y008501D01*
X007265Y008265D01*
G37*
G36*
X007981Y008678D02*
X007745Y009086D01*
X008153Y009322D01*
X008389Y008914D01*
X007981Y008678D01*
G37*
G36*
X007621Y009465D02*
X007288Y009798D01*
X007621Y010131D01*
X007954Y009798D01*
X007621Y009465D01*
G37*
D13*
X006767Y010579D03*
X006142Y010579D03*
X004079Y010329D03*
X004079Y009642D03*
X004079Y007642D03*
X004079Y007017D03*
X004329Y006454D03*
X004704Y006454D03*
X003829Y005204D03*
X003829Y004579D03*
X002829Y003579D03*
X002829Y002954D03*
X007704Y003767D03*
X007704Y004392D03*
X007704Y005392D03*
X007704Y005767D03*
X008267Y007579D03*
X008267Y008204D03*
D14*
X008243Y008180D01*
X008243Y007892D01*
X008243Y007603D01*
X008267Y007579D01*
X008243Y007079D02*
X008079Y007079D01*
X008079Y006892D01*
X007892Y006704D01*
X007291Y006704D01*
X006916Y006329D01*
X007430Y005767D02*
X007305Y005642D01*
X007430Y005767D02*
X007704Y005767D01*
X007704Y005392D01*
X007305Y004892D02*
X007305Y003791D01*
X007416Y003680D01*
X007416Y003267D01*
X007704Y003767D02*
X007680Y003791D01*
X007680Y004079D01*
X007680Y004368D01*
X007704Y004392D01*
X006853Y004079D02*
X006517Y004079D01*
X006416Y004829D02*
X005892Y004829D01*
X005892Y005228D01*
X006416Y004829D02*
X006478Y004892D01*
X006478Y005642D02*
X006829Y005642D01*
X005892Y006055D02*
X005142Y005305D01*
X005142Y005228D01*
X004392Y005228D02*
X004392Y005305D01*
X005142Y006055D01*
X004704Y006454D02*
X004329Y006454D01*
X004392Y006392D01*
X004392Y006055D01*
X003805Y005704D02*
X002993Y006517D01*
X002978Y006517D01*
X002978Y007329D02*
X002993Y007329D01*
X003805Y006517D01*
X004079Y007017D02*
X004079Y007055D01*
X003805Y007329D01*
X004079Y007603D01*
X004079Y007642D01*
X003805Y008142D02*
X003805Y008190D01*
X002978Y009017D01*
X003805Y009017D02*
X003805Y009377D01*
X003228Y009954D01*
X004055Y009954D02*
X004079Y009978D01*
X004079Y010329D01*
X004079Y009642D01*
X004704Y009728D02*
X004704Y010079D01*
X004704Y009728D02*
X004743Y009728D01*
X004752Y010430D02*
X004877Y010430D01*
X005579Y009728D01*
X005627Y010430D02*
X005752Y010430D01*
X006454Y009728D01*
X007037Y009224D02*
X007267Y009454D01*
X007037Y009224D02*
X007037Y009214D01*
X007621Y008857D02*
X007351Y008587D01*
X007621Y008857D02*
X007621Y009798D01*
X008067Y009000D02*
X008067Y008543D01*
X007416Y007892D01*
X007416Y007079D02*
X007767Y007079D01*
X007416Y007079D02*
X007416Y007041D01*
X007743Y006329D02*
X008079Y006329D01*
X007954Y003267D02*
X008243Y003267D01*
X003805Y003267D02*
X002993Y004079D01*
X002978Y004079D01*
X002829Y003579D02*
X002829Y003416D01*
X002978Y003267D01*
X002829Y003118D01*
X002829Y002954D01*
X003805Y004079D02*
X003180Y004704D01*
X003180Y004892D01*
X002978Y004892D01*
X003041Y005642D02*
X002978Y005704D01*
X003041Y005642D02*
X003329Y005642D01*
X003805Y005180D02*
X003829Y005204D01*
X003805Y005180D02*
X003805Y004892D01*
X003805Y004603D01*
X003829Y004579D01*
X003329Y008142D02*
X002978Y008142D01*
X004752Y010430D02*
X004704Y010555D01*
X005579Y010555D02*
X005627Y010430D01*
X006142Y010579D02*
X006430Y010579D01*
X006454Y010555D01*
X006478Y010579D01*
X006767Y010579D01*
X006454Y010555D02*
X006430Y010454D01*
D15*
X007267Y009454D03*
X007767Y007079D03*
X008079Y006329D03*
X006829Y005642D03*
X005892Y004829D03*
X006517Y004079D03*
X007954Y003267D03*
X003329Y005642D03*
X003329Y008142D03*
X004704Y010079D03*
M02*
