G75*
%MOIN*%
%OFA0B0*%
%FSLAX24Y24*%
%IPPOS*%
%LPD*%
%AMOC8*
5,1,8,0,0,1.08239X$1,22.5*
%
%ADD10C,0.0000*%
%ADD11R,0.0472X0.0472*%
%ADD12R,0.0472X0.0472*%
%ADD13C,0.0397*%
%ADD14C,0.0060*%
%ADD15C,0.0317*%
D10*
X002392Y002517D02*
X002392Y011017D01*
X008892Y011017D01*
X008892Y002517D01*
X002392Y002517D01*
D11*
X004392Y004166D03*
X005017Y004430D03*
X004392Y004993D03*
X003805Y006204D03*
X003805Y006892D03*
X003805Y007579D03*
X003805Y008267D03*
X003805Y008954D03*
X003805Y009642D03*
X003805Y010329D03*
X002978Y010329D03*
X002978Y009642D03*
X002978Y008954D03*
X002978Y008267D03*
X002978Y007579D03*
X002978Y006892D03*
X002978Y006204D03*
X005017Y003603D03*
X005642Y003805D03*
X006267Y003603D03*
X006892Y004166D03*
X006267Y004430D03*
X006892Y004993D03*
X007478Y006204D03*
X007478Y006892D03*
X007478Y007579D03*
X007478Y008267D03*
X007478Y008954D03*
X007478Y009642D03*
X007478Y010329D03*
X008305Y010329D03*
X008305Y009642D03*
X008305Y008954D03*
X008305Y008267D03*
X008305Y007579D03*
X008305Y006892D03*
X008305Y006204D03*
X005642Y002978D03*
D12*
G36*
X007606Y005622D02*
X007370Y005214D01*
X006962Y005450D01*
X007198Y005858D01*
X007606Y005622D01*
G37*
G36*
X008322Y005208D02*
X008086Y004800D01*
X007678Y005036D01*
X007914Y005444D01*
X008322Y005208D01*
G37*
G36*
X003914Y005214D02*
X003678Y005622D01*
X004086Y005858D01*
X004322Y005450D01*
X003914Y005214D01*
G37*
G36*
X003198Y004800D02*
X002962Y005208D01*
X003370Y005444D01*
X003606Y005036D01*
X003198Y004800D01*
G37*
D13*
X004579Y005329D03*
X004954Y005329D03*
X006017Y004767D03*
X006392Y004767D03*
X007017Y006079D03*
X007079Y006392D03*
X007142Y008079D03*
X007142Y008454D03*
X007142Y010142D03*
X007142Y010517D03*
X004142Y009142D03*
X004142Y008767D03*
X004142Y007079D03*
X004142Y006704D03*
X005329Y002954D03*
X005954Y002954D03*
D14*
X005666Y002954D01*
X005642Y002978D01*
X005618Y002954D01*
X005329Y002954D01*
X005440Y003603D02*
X005017Y003603D01*
X005440Y003603D02*
X005642Y003805D01*
X006267Y003954D02*
X006267Y003603D01*
X006892Y004166D02*
X007284Y004558D01*
X007284Y005536D01*
X007704Y005267D02*
X007848Y005122D01*
X008000Y005122D01*
X007353Y006079D02*
X007478Y006204D01*
X007392Y006291D01*
X007392Y006392D01*
X007079Y006392D01*
X007017Y006079D02*
X007353Y006079D01*
X007478Y006892D02*
X007618Y006892D01*
X008305Y006204D01*
X008305Y006892D02*
X008079Y006892D01*
X007541Y007430D01*
X007478Y007430D01*
X007478Y007579D01*
X007291Y008079D02*
X007142Y008079D01*
X007291Y008079D02*
X007478Y008267D01*
X007291Y008454D01*
X007142Y008454D01*
X007478Y008954D02*
X007618Y008954D01*
X008305Y008267D01*
X008305Y008954D02*
X008243Y009017D01*
X008017Y009017D01*
X007478Y009555D01*
X007478Y009642D01*
X007291Y010142D02*
X007142Y010142D01*
X007291Y010142D02*
X007478Y010329D01*
X007291Y010517D01*
X007142Y010517D01*
X007954Y010329D02*
X008305Y010329D01*
X008305Y009642D02*
X007954Y009642D01*
X007954Y007579D02*
X008305Y007579D01*
X006892Y004993D02*
X006892Y004642D01*
X006392Y004555D02*
X006267Y004430D01*
X006017Y004680D01*
X006017Y004767D01*
X006392Y004767D02*
X006392Y004555D01*
X005017Y004430D02*
X004752Y004166D01*
X004392Y004166D01*
X004392Y004993D02*
X004579Y005180D01*
X004579Y005329D01*
X004954Y005329D01*
X004000Y005536D02*
X003769Y005767D01*
X003517Y005767D01*
X003079Y006204D01*
X002978Y006204D01*
X002978Y006892D02*
X003118Y006892D01*
X003805Y006204D01*
X003993Y006704D02*
X003805Y006892D01*
X003993Y007079D01*
X004142Y007079D01*
X004142Y006704D02*
X003993Y006704D01*
X003805Y007579D02*
X003118Y008267D01*
X002978Y008267D01*
X002978Y008954D02*
X003118Y008954D01*
X003805Y008267D01*
X003993Y008767D02*
X003805Y008954D01*
X003993Y009142D01*
X004142Y009142D01*
X004142Y008767D02*
X003993Y008767D01*
X003805Y009642D02*
X003618Y009829D01*
X003517Y009829D01*
X003017Y010329D01*
X002978Y010329D01*
X003454Y010329D02*
X003805Y010329D01*
X003329Y009642D02*
X002978Y009642D01*
X002978Y007579D02*
X003329Y007579D01*
X003579Y005267D02*
X003435Y005122D01*
X003284Y005122D01*
D15*
X003579Y005267D03*
X003329Y007579D03*
X003329Y009642D03*
X003454Y010329D03*
X007954Y010329D03*
X007954Y009642D03*
X007954Y007579D03*
X007704Y005267D03*
X006892Y004642D03*
X006267Y003954D03*
M02*
