G75*
%MOIN*%
%OFA0B0*%
%FSLAX24Y24*%
%IPPOS*%
%LPD*%
%AMOC8*
5,1,8,0,0,1.08239X$1,22.5*
%
%ADD10C,0.0000*%
%ADD11R,0.0472X0.0472*%
%ADD12R,0.0472X0.0472*%
D10*
X002392Y002517D02*
X002392Y011017D01*
X008892Y011017D01*
X008892Y002517D01*
X002392Y002517D01*
D11*
X004392Y004166D03*
X005017Y004430D03*
X004392Y004993D03*
X003805Y006204D03*
X003805Y006892D03*
X003805Y007579D03*
X003805Y008267D03*
X003805Y008954D03*
X003805Y009642D03*
X003805Y010329D03*
X002978Y010329D03*
X002978Y009642D03*
X002978Y008954D03*
X002978Y008267D03*
X002978Y007579D03*
X002978Y006892D03*
X002978Y006204D03*
X005017Y003603D03*
X005642Y003805D03*
X006267Y003603D03*
X006892Y004166D03*
X006267Y004430D03*
X006892Y004993D03*
X007478Y006204D03*
X007478Y006892D03*
X007478Y007579D03*
X007478Y008267D03*
X007478Y008954D03*
X007478Y009642D03*
X007478Y010329D03*
X008305Y010329D03*
X008305Y009642D03*
X008305Y008954D03*
X008305Y008267D03*
X008305Y007579D03*
X008305Y006892D03*
X008305Y006204D03*
X005642Y002978D03*
D12*
G36*
X007606Y005622D02*
X007370Y005214D01*
X006962Y005450D01*
X007198Y005858D01*
X007606Y005622D01*
G37*
G36*
X008322Y005208D02*
X008086Y004800D01*
X007678Y005036D01*
X007914Y005444D01*
X008322Y005208D01*
G37*
G36*
X003914Y005214D02*
X003678Y005622D01*
X004086Y005858D01*
X004322Y005450D01*
X003914Y005214D01*
G37*
G36*
X003198Y004800D02*
X002962Y005208D01*
X003370Y005444D01*
X003606Y005036D01*
X003198Y004800D01*
G37*
M02*
