G75*
G70*
%OFA0B0*%
%FSLAX25Y25*%
%IPPOS*%
%LPD*%
%AMOC8*
5,1,8,0,0,1.08239X$1,22.5*
%
%ADD14C,0.00800*%
%ADD16C,0.00000*%
X0010000Y0010000D02*
G75*
%LPD*%
D16*
X0010000Y0010000D02*
X0010000Y0095000D01*
X0075000Y0095000D01*
X0075000Y0010000D01*
X0010000Y0010000D01*
D14*
X0010400Y0010400D02*
X0010400Y0095400D01*
X0010400Y0095400D02*
X0075400Y0095400D01*
X0075400Y0010400D01*
X0010400Y0010400D01*
X0082500Y0010000D02*
G75*
%LPD*%
D16*
X0082500Y0010000D02*
X0082500Y0095000D01*
X0147500Y0095000D01*
X0147500Y0010000D01*
X0082500Y0010000D01*
D14*
X0082100Y0010400D02*
X0082100Y0095400D01*
X0147900Y0095400D01*
X0147900Y0010400D01*
X0082100Y0010400D01*
X0155000Y0010000D02*
G75*
%LPD*%
D16*
X0155000Y0010000D02*
X0155000Y0094750D01*
X0219010Y0094750D01*
X0219010Y0010000D01*
X0155000Y0010000D01*
D14*
X0154600Y0010400D02*
X0154600Y0095150D01*
X0219410Y0095150D01*
X0219410Y0010400D01*
X0154600Y0010400D01*
X0226510Y0010000D02*
G75*
%LPD*%
D16*
X0226510Y0010000D02*
X0226510Y0095000D01*
X0291510Y0095000D01*
X0291510Y0010000D01*
X0226510Y0010000D01*
D14*
X0226110Y0010400D02*
X0226110Y0095400D01*
X0291910Y0095400D01*
X0291910Y0010400D01*
X0226110Y0010400D01*
X0299010Y0010000D02*
G75*
%LPD*%
D16*
X0299010Y0010000D02*
X0299010Y0095000D01*
X0362760Y0095000D01*
X0362760Y0010000D01*
X0299010Y0010000D01*
D14*
X0298610Y0010400D02*
X0298610Y0095400D01*
X0363160Y0095400D01*
X0363160Y0010400D01*
X0298610Y0010400D01*
X0010000Y0102500D02*
G75*
%LPD*%
D16*
X0010000Y0102500D02*
X0010000Y0187250D01*
X0075260Y0187250D01*
X0075260Y0102500D01*
X0010000Y0102500D01*
D14*
X0010400Y0102100D02*
X0010400Y0187650D01*
X0010400Y0187650D02*
X0075660Y0187650D01*
X0075660Y0102100D01*
X0010400Y0102100D01*
X0082760Y0102500D02*
G75*
%LPD*%
D16*
X0082760Y0102500D02*
X0082760Y0187500D01*
X0147760Y0187500D01*
X0147760Y0102500D01*
X0082760Y0102500D01*
D14*
X0082360Y0102100D02*
X0082360Y0187900D01*
X0148160Y0187900D01*
X0148160Y0102100D01*
X0082360Y0102100D01*
X0155260Y0102500D02*
G75*
%LPD*%
D16*
X0155260Y0102500D02*
X0155260Y0187250D01*
X0219270Y0187250D01*
X0219270Y0102500D01*
X0155260Y0102500D01*
D14*
X0154860Y0102100D02*
X0154860Y0187650D01*
X0219670Y0187650D01*
X0219670Y0102100D01*
X0154860Y0102100D01*
X0226770Y0102500D02*
G75*
%LPD*%
D16*
X0226770Y0102500D02*
X0226770Y0187500D01*
X0291770Y0187500D01*
X0291770Y0102500D01*
X0226770Y0102500D01*
D14*
X0226370Y0102100D02*
X0226370Y0187900D01*
X0292170Y0187900D01*
X0292170Y0102100D01*
X0226370Y0102100D01*
X0299270Y0102500D02*
G75*
%LPD*%
D16*
X0299270Y0102500D02*
X0299270Y0187500D01*
X0363020Y0187500D01*
X0363020Y0102500D01*
X0299270Y0102500D01*
D14*
X0298870Y0102100D02*
X0298870Y0187900D01*
X0362620Y0187900D01*
X0362620Y0102100D01*
X0362620Y0102100D02*
X0298870Y0102100D01*
X0010000Y0195000D02*
G75*
%LPD*%
D16*
X0010000Y0195000D02*
X0010000Y0280000D01*
X0075000Y0280000D01*
X0075000Y0195000D01*
X0010000Y0195000D01*
D14*
X0010400Y0194600D02*
X0010400Y0280400D01*
X0010400Y0280400D02*
X0075400Y0280400D01*
X0075400Y0194600D01*
X0010400Y0194600D01*
X0082500Y0195000D02*
G75*
%LPD*%
D16*
X0082500Y0195000D02*
X0082500Y0280000D01*
X0147500Y0280000D01*
X0147500Y0195000D01*
X0082500Y0195000D01*
D14*
X0082100Y0194600D02*
X0082100Y0280400D01*
X0147900Y0280400D01*
X0147900Y0194600D01*
X0082100Y0194600D01*
X0155000Y0195000D02*
G75*
%LPD*%
D16*
X0155000Y0195000D02*
X0155000Y0279750D01*
X0219010Y0279750D01*
X0219010Y0195000D01*
X0155000Y0195000D01*
D14*
X0154600Y0194600D02*
X0154600Y0280150D01*
X0219410Y0280150D01*
X0219410Y0194600D01*
X0154600Y0194600D01*
X0226510Y0195000D02*
G75*
%LPD*%
D16*
X0226510Y0195000D02*
X0226510Y0280000D01*
X0291510Y0280000D01*
X0291510Y0195000D01*
X0226510Y0195000D01*
D14*
X0226110Y0194600D02*
X0226110Y0280400D01*
X0291910Y0280400D01*
X0291910Y0194600D01*
X0226110Y0194600D01*
X0299010Y0195000D02*
G75*
%LPD*%
D16*
X0299010Y0195000D02*
X0299010Y0280000D01*
X0362760Y0280000D01*
X0362760Y0195000D01*
X0299010Y0195000D01*
D14*
X0298610Y0194600D02*
X0298610Y0280400D01*
X0363160Y0280400D01*
X0363160Y0194600D01*
X0298610Y0194600D01*
X0010000Y0287500D02*
G75*
%LPD*%
D16*
X0010000Y0287500D02*
X0010000Y0372250D01*
X0075260Y0372250D01*
X0075260Y0287500D01*
X0010000Y0287500D01*
D14*
X0010400Y0287100D02*
X0010400Y0372650D01*
X0010400Y0372650D02*
X0075660Y0372650D01*
X0075660Y0287100D01*
X0010400Y0287100D01*
X0082760Y0287500D02*
G75*
%LPD*%
D16*
X0082760Y0287500D02*
X0082760Y0372500D01*
X0147760Y0372500D01*
X0147760Y0287500D01*
X0082760Y0287500D01*
D14*
X0082360Y0287100D02*
X0082360Y0372100D01*
X0148160Y0372100D01*
X0148160Y0372100D02*
X0148160Y0287100D01*
X0082360Y0287100D01*
X0155260Y0287500D02*
G75*
%LPD*%
D16*
X0155260Y0287500D02*
X0155260Y0372250D01*
X0219270Y0372250D01*
X0219270Y0287500D01*
X0155260Y0287500D01*
D14*
X0154860Y0287100D02*
X0154860Y0372650D01*
X0219670Y0372650D01*
X0219670Y0287100D01*
X0154860Y0287100D01*
X0226770Y0287500D02*
G75*
%LPD*%
D16*
X0226770Y0287500D02*
X0226770Y0372500D01*
X0291770Y0372500D01*
X0291770Y0287500D01*
X0226770Y0287500D01*
D14*
X0226370Y0287100D02*
X0226370Y0372100D01*
X0292170Y0372100D01*
X0292170Y0372100D02*
X0292170Y0287100D01*
X0226370Y0287100D01*
X0299270Y0287500D02*
G75*
%LPD*%
D16*
X0299270Y0287500D02*
X0299270Y0372500D01*
X0363020Y0372500D01*
X0363020Y0287500D01*
X0299270Y0287500D01*
D14*
X0298870Y0287100D02*
X0298870Y0372100D01*
X0362620Y0372100D01*
X0362620Y0372100D02*
X0362620Y0287100D01*
X0362620Y0287100D02*
X0298870Y0287100D01*
M02*
