G75*
G70*
%OFA0B0*%
%FSLAX25Y25*%
%IPPOS*%
%LPD*%
%AMOC8*
5,1,8,0,0,1.08239X$1,22.5*
%
%ADD16C,0.00000*%
X0010000Y0010000D02*
G75*
%LPD*%
D16*
X0010000Y0010000D02*
X0010000Y0095000D01*
X0075000Y0095000D01*
X0075000Y0010000D01*
X0010000Y0010000D01*
X0082500Y0010000D02*
G75*
%LPD*%
D16*
X0082500Y0010000D02*
X0082500Y0095000D01*
X0147500Y0095000D01*
X0147500Y0010000D01*
X0082500Y0010000D01*
X0155000Y0010000D02*
G75*
%LPD*%
D16*
X0155000Y0010000D02*
X0155000Y0094750D01*
X0219010Y0094750D01*
X0219010Y0010000D01*
X0155000Y0010000D01*
X0226510Y0010000D02*
G75*
%LPD*%
D16*
X0226510Y0010000D02*
X0226510Y0095000D01*
X0291510Y0095000D01*
X0291510Y0010000D01*
X0226510Y0010000D01*
X0299010Y0010000D02*
G75*
%LPD*%
D16*
X0299010Y0010000D02*
X0299010Y0095000D01*
X0362760Y0095000D01*
X0362760Y0010000D01*
X0299010Y0010000D01*
X0010000Y0102500D02*
G75*
%LPD*%
D16*
X0010000Y0102500D02*
X0010000Y0187250D01*
X0075260Y0187250D01*
X0075260Y0102500D01*
X0010000Y0102500D01*
X0082760Y0102500D02*
G75*
%LPD*%
D16*
X0082760Y0102500D02*
X0082760Y0187500D01*
X0147760Y0187500D01*
X0147760Y0102500D01*
X0082760Y0102500D01*
X0155260Y0102500D02*
G75*
%LPD*%
D16*
X0155260Y0102500D02*
X0155260Y0187250D01*
X0219270Y0187250D01*
X0219270Y0102500D01*
X0155260Y0102500D01*
X0226770Y0102500D02*
G75*
%LPD*%
D16*
X0226770Y0102500D02*
X0226770Y0187500D01*
X0291770Y0187500D01*
X0291770Y0102500D01*
X0226770Y0102500D01*
X0299270Y0102500D02*
G75*
%LPD*%
D16*
X0299270Y0102500D02*
X0299270Y0187500D01*
X0363020Y0187500D01*
X0363020Y0102500D01*
X0299270Y0102500D01*
X0010000Y0195000D02*
G75*
%LPD*%
D16*
X0010000Y0195000D02*
X0010000Y0280000D01*
X0075000Y0280000D01*
X0075000Y0195000D01*
X0010000Y0195000D01*
X0082500Y0195000D02*
G75*
%LPD*%
D16*
X0082500Y0195000D02*
X0082500Y0280000D01*
X0147500Y0280000D01*
X0147500Y0195000D01*
X0082500Y0195000D01*
X0155000Y0195000D02*
G75*
%LPD*%
D16*
X0155000Y0195000D02*
X0155000Y0279750D01*
X0219010Y0279750D01*
X0219010Y0195000D01*
X0155000Y0195000D01*
X0226510Y0195000D02*
G75*
%LPD*%
D16*
X0226510Y0195000D02*
X0226510Y0280000D01*
X0291510Y0280000D01*
X0291510Y0195000D01*
X0226510Y0195000D01*
X0299010Y0195000D02*
G75*
%LPD*%
D16*
X0299010Y0195000D02*
X0299010Y0280000D01*
X0362760Y0280000D01*
X0362760Y0195000D01*
X0299010Y0195000D01*
X0010000Y0287500D02*
G75*
%LPD*%
D16*
X0010000Y0287500D02*
X0010000Y0372250D01*
X0075260Y0372250D01*
X0075260Y0287500D01*
X0010000Y0287500D01*
X0082760Y0287500D02*
G75*
%LPD*%
D16*
X0082760Y0287500D02*
X0082760Y0372500D01*
X0147760Y0372500D01*
X0147760Y0287500D01*
X0082760Y0287500D01*
X0155260Y0287500D02*
G75*
%LPD*%
D16*
X0155260Y0287500D02*
X0155260Y0372250D01*
X0219270Y0372250D01*
X0219270Y0287500D01*
X0155260Y0287500D01*
X0226770Y0287500D02*
G75*
%LPD*%
D16*
X0226770Y0287500D02*
X0226770Y0372500D01*
X0291770Y0372500D01*
X0291770Y0287500D01*
X0226770Y0287500D01*
X0299270Y0287500D02*
G75*
%LPD*%
D16*
X0299270Y0287500D02*
X0299270Y0372500D01*
X0363020Y0372500D01*
X0363020Y0287500D01*
X0299270Y0287500D01*
M02*
