G75*
G70*
%OFA0B0*%
%FSLAX25Y25*%
%IPPOS*%
%LPD*%
%AMOC8*
5,1,8,0,0,1.08239X$1,22.5*
%
%ADD11C,0.01000*%
%ADD13C,0.00400*%
%ADD14C,0.00800*%
%ADD16C,0.00000*%
X0010000Y0010000D02*
G75*
%LPD*%
D16*
X0010000Y0010000D02*
X0010000Y0095000D01*
X0075000Y0095000D01*
X0075000Y0010000D01*
X0010000Y0010000D01*
D11*
X0012500Y0012500D02*
X0012500Y0092500D01*
X0055000Y0092500D01*
X0072500Y0070000D02*
X0072500Y0052500D01*
X0057500Y0035000D02*
X0030000Y0035000D01*
X0030000Y0012500D01*
X0012500Y0012500D01*
X0057500Y0035000D02*
X0058360Y0035260D01*
X0059220Y0035560D01*
X0060050Y0035900D01*
X0060880Y0036270D01*
X0061690Y0036680D01*
X0062470Y0037130D01*
X0063240Y0037610D01*
X0063990Y0038120D01*
X0064710Y0038660D01*
X0065410Y0039240D01*
X0066080Y0039840D01*
X0066730Y0040480D01*
X0067350Y0041140D01*
X0067940Y0041820D01*
X0068500Y0042540D01*
X0069020Y0043270D01*
X0069520Y0044030D01*
X0069980Y0044810D01*
X0070410Y0045610D01*
X0070800Y0046420D01*
X0071150Y0047250D01*
X0071470Y0048100D01*
X0071750Y0048960D01*
X0072000Y0049830D01*
X0072200Y0050710D01*
X0072370Y0051600D01*
X0072500Y0052500D01*
X0072490Y0069990D02*
X0072400Y0071000D01*
X0072270Y0072000D01*
X0072090Y0072990D01*
X0071880Y0073970D01*
X0071640Y0074950D01*
X0071350Y0075910D01*
X0071020Y0076870D01*
X0070660Y0077810D01*
X0070270Y0078730D01*
X0069830Y0079640D01*
X0069360Y0080530D01*
X0068860Y0081400D01*
X0068320Y0082260D01*
X0067750Y0083090D01*
X0067150Y0083890D01*
X0066510Y0084670D01*
X0065850Y0085430D01*
X0065160Y0086160D01*
X0064440Y0086870D01*
X0063690Y0087540D01*
X0062910Y0088180D01*
X0062120Y0088800D01*
X0061290Y0089380D01*
X0060450Y0089930D01*
X0059580Y0090440D01*
X0058700Y0090920D01*
X0057800Y0091370D01*
X0056880Y0091780D01*
X0055940Y0092150D01*
X0054990Y0092490D01*
X0030000Y0062500D02*
X0030020Y0063200D01*
X0030080Y0063900D01*
X0030180Y0064590D01*
X0030310Y0065280D01*
X0030490Y0065960D01*
X0030700Y0066630D01*
X0030950Y0067280D01*
X0031240Y0067920D01*
X0031560Y0068550D01*
X0031920Y0069150D01*
X0032310Y0069730D01*
X0032730Y0070290D01*
X0033180Y0070830D01*
X0033660Y0071340D01*
X0034170Y0071820D01*
X0034710Y0072270D01*
X0035270Y0072690D01*
X0035850Y0073080D01*
X0036450Y0073440D01*
X0037080Y0073760D01*
X0037720Y0074050D01*
X0038370Y0074300D01*
X0039040Y0074510D01*
X0039720Y0074690D01*
X0040410Y0074820D01*
X0041100Y0074920D01*
X0041800Y0074980D01*
X0042500Y0075000D01*
X0043200Y0074980D01*
X0043900Y0074920D01*
X0044590Y0074820D01*
X0045280Y0074690D01*
X0045960Y0074510D01*
X0046630Y0074300D01*
X0047280Y0074050D01*
X0047920Y0073760D01*
X0048550Y0073440D01*
X0049150Y0073080D01*
X0049730Y0072690D01*
X0050290Y0072270D01*
X0050830Y0071820D01*
X0051340Y0071340D01*
X0051820Y0070830D01*
X0052270Y0070290D01*
X0052690Y0069730D01*
X0053080Y0069150D01*
X0053440Y0068550D01*
X0053760Y0067920D01*
X0054050Y0067280D01*
X0054300Y0066630D01*
X0054510Y0065960D01*
X0054690Y0065280D01*
X0054820Y0064590D01*
X0054920Y0063900D01*
X0054980Y0063200D01*
X0055000Y0062500D01*
X0054980Y0061800D01*
X0054920Y0061100D01*
X0054820Y0060410D01*
X0054690Y0059720D01*
X0054510Y0059040D01*
X0054300Y0058370D01*
X0054050Y0057720D01*
X0053760Y0057080D01*
X0053440Y0056450D01*
X0053080Y0055850D01*
X0052690Y0055270D01*
X0052270Y0054710D01*
X0051820Y0054170D01*
X0051340Y0053660D01*
X0050830Y0053180D01*
X0050290Y0052730D01*
X0049730Y0052310D01*
X0049150Y0051920D01*
X0048550Y0051560D01*
X0047920Y0051240D01*
X0047280Y0050950D01*
X0046630Y0050700D01*
X0045960Y0050490D01*
X0045280Y0050310D01*
X0044590Y0050180D01*
X0043900Y0050080D01*
X0043200Y0050020D01*
X0042500Y0050000D01*
X0041800Y0050020D01*
X0041100Y0050080D01*
X0040410Y0050180D01*
X0039720Y0050310D01*
X0039040Y0050490D01*
X0038370Y0050700D01*
X0037720Y0050950D01*
X0037080Y0051240D01*
X0036450Y0051560D01*
X0035850Y0051920D01*
X0035270Y0052310D01*
X0034710Y0052730D01*
X0034170Y0053180D01*
X0033660Y0053660D01*
X0033180Y0054170D01*
X0032730Y0054710D01*
X0032310Y0055270D01*
X0031920Y0055850D01*
X0031560Y0056450D01*
X0031240Y0057080D01*
X0030950Y0057720D01*
X0030700Y0058370D01*
X0030490Y0059040D01*
X0030310Y0059720D01*
X0030180Y0060410D01*
X0030080Y0061100D01*
X0030020Y0061800D01*
X0030000Y0062500D01*
D13*
X0023750Y0061250D02*
X0016250Y0061250D01*
X0016250Y0075000D01*
X0016250Y0088750D01*
X0017500Y0090000D01*
X0023750Y0090000D01*
X0023750Y0075000D01*
X0016250Y0075000D01*
X0017500Y0076250D01*
X0023750Y0076250D01*
X0023750Y0061250D01*
X0023750Y0058750D02*
X0023750Y0043750D01*
X0016250Y0043750D01*
X0016250Y0057500D01*
X0017500Y0058750D01*
X0023750Y0058750D01*
X0023750Y0052500D02*
X0016250Y0052500D01*
X0016250Y0066250D01*
X0017500Y0067500D01*
X0023750Y0067500D01*
X0023750Y0052500D01*
X0022500Y0046870D02*
X0037500Y0046870D01*
X0037500Y0039370D01*
X0023750Y0039370D01*
X0022500Y0040620D01*
X0022500Y0046870D01*
X0023750Y0045000D02*
X0023750Y0030000D01*
X0016250Y0030000D01*
X0016250Y0043750D01*
X0017500Y0045000D01*
X0023750Y0045000D01*
X0031250Y0046870D02*
X0031250Y0040620D01*
X0032500Y0039370D01*
X0046250Y0039370D01*
X0046250Y0046870D01*
X0031250Y0046870D01*
X0040000Y0046870D02*
X0040000Y0040620D01*
X0041250Y0039370D01*
X0055000Y0039370D01*
X0055000Y0046870D01*
X0040000Y0046870D01*
X0054370Y0053750D02*
X0054370Y0038750D01*
X0060620Y0038750D01*
X0061870Y0040000D01*
X0061870Y0053750D01*
X0054370Y0053750D01*
X0060620Y0053120D02*
X0060620Y0068120D01*
X0068120Y0068120D01*
X0068120Y0054370D01*
X0066870Y0053120D01*
X0060620Y0053120D01*
X0060620Y0059370D02*
X0068120Y0059370D01*
X0068120Y0045620D01*
X0066870Y0044370D01*
X0060620Y0044370D01*
X0060620Y0059370D01*
X0060620Y0066870D02*
X0060620Y0081870D01*
X0068120Y0081870D01*
X0068120Y0068120D01*
X0066870Y0066870D01*
X0060620Y0066870D01*
X0062020Y0073920D02*
X0051420Y0084520D01*
X0056720Y0089830D01*
X0066440Y0080100D01*
X0066440Y0078340D01*
X0062020Y0073920D01*
X0057500Y0081870D02*
X0042500Y0081870D01*
X0042500Y0089370D01*
X0056250Y0089370D01*
X0057500Y0088120D01*
X0057500Y0081870D01*
X0043750Y0081870D02*
X0028750Y0081870D01*
X0028750Y0089370D01*
X0042500Y0089370D01*
X0043750Y0088120D01*
X0043750Y0081870D01*
X0035000Y0081870D02*
X0020000Y0081870D01*
X0020000Y0089370D01*
X0033750Y0089370D01*
X0035000Y0088120D01*
X0035000Y0081870D01*
X0023750Y0036250D02*
X0017500Y0036250D01*
X0016250Y0035000D01*
X0016250Y0021250D01*
X0023750Y0021250D01*
X0023750Y0036250D01*
X0023750Y0027500D02*
X0017500Y0027500D01*
X0016250Y0026250D01*
X0016250Y0012500D01*
X0023750Y0012500D01*
X0023750Y0027500D01*
D14*
X0016600Y0027550D02*
X0012390Y0027550D01*
X0012390Y0026850D02*
X0012390Y0028250D01*
X0012390Y0029920D02*
X0016600Y0032720D01*
X0012390Y0032720D01*
X0012390Y0029920D02*
X0016600Y0029920D01*
X0016600Y0028250D02*
X0016600Y0026850D01*
X0015200Y0025050D02*
X0012390Y0025050D01*
X0015200Y0025050D02*
X0016600Y0023650D01*
X0015200Y0022240D01*
X0012390Y0022240D01*
X0012390Y0045080D02*
X0015200Y0045080D01*
X0016600Y0046490D01*
X0015200Y0047890D01*
X0012390Y0047890D01*
X0013090Y0049690D02*
X0015900Y0049690D01*
X0016600Y0050390D01*
X0016600Y0051790D01*
X0015900Y0052490D01*
X0013090Y0052490D01*
X0012390Y0051790D01*
X0012390Y0050390D01*
X0013090Y0049690D01*
X0013790Y0054290D02*
X0012390Y0055690D01*
X0016600Y0055690D01*
X0016600Y0054290D02*
X0016600Y0057100D01*
X0024020Y0056730D02*
X0024020Y0055330D01*
X0024720Y0054630D01*
X0027520Y0054630D01*
X0028220Y0055330D01*
X0028220Y0056730D01*
X0027520Y0057430D01*
X0024720Y0057430D01*
X0024020Y0056730D01*
X0026120Y0059230D02*
X0026120Y0061330D01*
X0026820Y0062030D01*
X0027520Y0062030D01*
X0028220Y0061330D01*
X0028220Y0059930D01*
X0027520Y0059230D01*
X0026120Y0059230D01*
X0024720Y0060630D01*
X0024020Y0062030D01*
X0024020Y0052820D02*
X0026820Y0052820D01*
X0028220Y0051420D01*
X0026820Y0050020D01*
X0024020Y0050020D01*
X0041330Y0039480D02*
X0041330Y0036670D01*
X0042740Y0035270D01*
X0044140Y0036670D01*
X0044140Y0039480D01*
X0045940Y0038770D02*
X0045940Y0035970D01*
X0046640Y0035270D01*
X0048040Y0035270D01*
X0048740Y0035970D01*
X0048740Y0038770D01*
X0048040Y0039480D01*
X0046640Y0039480D01*
X0045940Y0038770D01*
X0050540Y0039480D02*
X0050540Y0037370D01*
X0051940Y0038070D01*
X0052640Y0038070D01*
X0053350Y0037370D01*
X0053350Y0035970D01*
X0052640Y0035270D01*
X0051240Y0035270D01*
X0050540Y0035970D01*
X0050540Y0039480D02*
X0053350Y0039480D01*
X0055890Y0065650D02*
X0058700Y0065650D01*
X0060100Y0067050D01*
X0058700Y0068450D01*
X0055890Y0068450D01*
X0056590Y0070250D02*
X0059400Y0070250D01*
X0060100Y0070950D01*
X0060100Y0072350D01*
X0059400Y0073050D01*
X0056590Y0073050D01*
X0055890Y0072350D01*
X0055890Y0070950D01*
X0056590Y0070250D01*
X0057990Y0074850D02*
X0057990Y0077660D01*
X0055890Y0076960D02*
X0057990Y0074850D01*
X0055890Y0076960D02*
X0060100Y0076960D01*
X0043970Y0078470D02*
X0043270Y0077770D01*
X0041870Y0077770D01*
X0041170Y0078470D01*
X0039370Y0078470D02*
X0039370Y0081270D01*
X0038670Y0081980D01*
X0037260Y0081980D01*
X0036560Y0081270D01*
X0036560Y0078470D01*
X0037260Y0077770D01*
X0038670Y0077770D01*
X0039370Y0078470D01*
X0041170Y0081270D02*
X0041870Y0081980D01*
X0043270Y0081980D01*
X0043970Y0081270D01*
X0043970Y0080570D01*
X0043270Y0079870D01*
X0043970Y0079170D01*
X0043970Y0078470D01*
X0043270Y0079870D02*
X0042570Y0079870D01*
X0034760Y0079170D02*
X0034760Y0081980D01*
X0031960Y0081980D02*
X0031960Y0079170D01*
X0033360Y0077770D01*
X0034760Y0079170D01*
X0016600Y0078360D02*
X0015200Y0079760D01*
X0012390Y0079760D01*
X0013090Y0081560D02*
X0015900Y0081560D01*
X0016600Y0082260D01*
X0016600Y0083670D01*
X0015900Y0084370D01*
X0013090Y0084370D01*
X0012390Y0083670D01*
X0012390Y0082260D01*
X0013090Y0081560D01*
X0013090Y0086170D02*
X0012390Y0086870D01*
X0012390Y0088270D01*
X0013090Y0088970D01*
X0013790Y0088970D01*
X0016600Y0086170D01*
X0016600Y0088970D01*
X0016600Y0078360D02*
X0015200Y0076960D01*
X0012390Y0076960D01*
D14*
X0010400Y0010400D02*
X0010400Y0095400D01*
X0010400Y0095400D02*
X0075400Y0095400D01*
X0075400Y0010400D01*
X0010400Y0010400D01*
X0082500Y0010000D02*
G75*
%LPD*%
D16*
X0082500Y0010000D02*
X0082500Y0095000D01*
X0147500Y0095000D01*
X0147500Y0010000D01*
X0082500Y0010000D01*
D11*
X0084370Y0030000D02*
X0084370Y0073750D01*
X0084380Y0073750D02*
X0084300Y0074560D01*
X0084250Y0075380D01*
X0084240Y0076200D01*
X0084270Y0077010D01*
X0084340Y0077830D01*
X0084450Y0078640D01*
X0084600Y0079450D01*
X0084790Y0080240D01*
X0085010Y0081030D01*
X0085270Y0081810D01*
X0085570Y0082570D01*
X0085900Y0083320D01*
X0086270Y0084050D01*
X0086670Y0084760D01*
X0087110Y0085450D01*
X0087580Y0086120D01*
X0088080Y0086770D01*
X0088610Y0087390D01*
X0089170Y0087990D01*
X0089750Y0088560D01*
X0090370Y0089100D01*
X0091000Y0089620D01*
X0091670Y0090100D01*
X0092350Y0090550D01*
X0093050Y0090960D01*
X0093780Y0091350D01*
X0094520Y0091690D01*
X0095280Y0092000D01*
X0096050Y0092280D01*
X0096830Y0092520D01*
X0097620Y0092720D01*
X0098420Y0092880D01*
X0099230Y0093010D01*
X0100050Y0093090D01*
X0100860Y0093140D01*
X0101680Y0093150D01*
X0102500Y0093120D01*
X0126870Y0093120D01*
X0126880Y0093120D02*
X0127660Y0093210D01*
X0128440Y0093250D01*
X0129230Y0093260D01*
X0130010Y0093230D01*
X0130790Y0093160D01*
X0131570Y0093050D01*
X0132340Y0092900D01*
X0133110Y0092720D01*
X0133860Y0092490D01*
X0134600Y0092240D01*
X0135330Y0091940D01*
X0136040Y0091610D01*
X0136740Y0091250D01*
X0137420Y0090850D01*
X0138070Y0090430D01*
X0138710Y0089960D01*
X0139320Y0089470D01*
X0139910Y0088950D01*
X0140470Y0088400D01*
X0141010Y0087830D01*
X0141510Y0087230D01*
X0141990Y0086600D01*
X0142430Y0085950D01*
X0142840Y0085280D01*
X0143220Y0084600D01*
X0143570Y0083890D01*
X0143880Y0083170D01*
X0144150Y0082430D01*
X0144390Y0081680D01*
X0144590Y0080920D01*
X0144750Y0080160D01*
X0144880Y0079380D01*
X0144970Y0078600D01*
X0145020Y0077820D01*
X0145030Y0077030D01*
X0145000Y0076250D01*
X0145000Y0030000D01*
X0145070Y0029200D01*
X0145100Y0028400D01*
X0145090Y0027600D01*
X0145040Y0026810D01*
X0144960Y0026010D01*
X0144830Y0025220D01*
X0144670Y0024440D01*
X0144470Y0023670D01*
X0144230Y0022900D01*
X0143950Y0022150D01*
X0143640Y0021420D01*
X0143290Y0020700D01*
X0142910Y0020000D01*
X0142490Y0019310D01*
X0142050Y0018650D01*
X0141560Y0018020D01*
X0141050Y0017400D01*
X0140510Y0016810D01*
X0139940Y0016250D01*
X0139350Y0015720D01*
X0138730Y0015220D01*
X0138080Y0014740D01*
X0137410Y0014300D01*
X0136730Y0013900D01*
X0136020Y0013530D01*
X0135300Y0013190D01*
X0134560Y0012890D01*
X0133800Y0012620D01*
X0133040Y0012390D01*
X0132260Y0012200D01*
X0131480Y0012050D01*
X0130690Y0011930D01*
X0129890Y0011860D01*
X0129090Y0011820D01*
X0128290Y0011830D01*
X0127490Y0011870D01*
X0127500Y0011870D02*
X0102500Y0011870D01*
X0101710Y0011820D01*
X0100920Y0011800D01*
X0100130Y0011820D01*
X0099340Y0011880D01*
X0098550Y0011970D01*
X0097770Y0012100D01*
X0097000Y0012270D01*
X0096240Y0012480D01*
X0095480Y0012720D01*
X0094740Y0012990D01*
X0094020Y0013310D01*
X0093310Y0013650D01*
X0092610Y0014030D01*
X0091940Y0014440D01*
X0091280Y0014890D01*
X0090650Y0015360D01*
X0090040Y0015860D01*
X0089450Y0016390D01*
X0088890Y0016950D01*
X0088360Y0017540D01*
X0087860Y0018150D01*
X0087390Y0018780D01*
X0086940Y0019440D01*
X0086530Y0020110D01*
X0086150Y0020810D01*
X0085810Y0021520D01*
X0085490Y0022240D01*
X0085220Y0022980D01*
X0084980Y0023740D01*
X0084770Y0024500D01*
X0084600Y0025270D01*
X0084470Y0026050D01*
X0084380Y0026840D01*
X0084320Y0027630D01*
X0084300Y0028420D01*
X0084320Y0029210D01*
X0084370Y0030000D01*
X0103120Y0040620D02*
X0103120Y0064370D01*
X0103210Y0065030D01*
X0103340Y0065690D01*
X0103510Y0066330D01*
X0103710Y0066970D01*
X0103950Y0067590D01*
X0104230Y0068190D01*
X0104540Y0068780D01*
X0104880Y0069350D01*
X0105260Y0069900D01*
X0105660Y0070430D01*
X0106100Y0070940D01*
X0106560Y0071410D01*
X0107050Y0071870D01*
X0107560Y0072290D01*
X0108100Y0072680D01*
X0108660Y0073040D01*
X0109240Y0073370D01*
X0109840Y0073660D01*
X0110450Y0073920D01*
X0111080Y0074150D01*
X0111720Y0074340D01*
X0112360Y0074490D01*
X0113020Y0074600D01*
X0113680Y0074680D01*
X0114350Y0074720D01*
X0115010Y0074720D01*
X0115680Y0074680D01*
X0116340Y0074600D01*
X0117000Y0074490D01*
X0117640Y0074340D01*
X0118280Y0074150D01*
X0118910Y0073920D01*
X0119520Y0073660D01*
X0120120Y0073370D01*
X0120700Y0073040D01*
X0121260Y0072680D01*
X0121800Y0072290D01*
X0122310Y0071870D01*
X0122800Y0071410D01*
X0123260Y0070940D01*
X0123700Y0070430D01*
X0124100Y0069900D01*
X0124480Y0069350D01*
X0124820Y0068780D01*
X0125130Y0068190D01*
X0125410Y0067590D01*
X0125650Y0066970D01*
X0125850Y0066330D01*
X0126020Y0065690D01*
X0126150Y0065030D01*
X0126240Y0064370D01*
X0126250Y0064370D02*
X0126250Y0040620D01*
X0126240Y0040630D02*
X0126150Y0039970D01*
X0126020Y0039310D01*
X0125850Y0038670D01*
X0125650Y0038030D01*
X0125410Y0037410D01*
X0125130Y0036810D01*
X0124820Y0036220D01*
X0124480Y0035650D01*
X0124100Y0035100D01*
X0123700Y0034570D01*
X0123260Y0034060D01*
X0122800Y0033590D01*
X0122310Y0033130D01*
X0121800Y0032710D01*
X0121260Y0032320D01*
X0120700Y0031960D01*
X0120120Y0031630D01*
X0119520Y0031340D01*
X0118910Y0031080D01*
X0118280Y0030850D01*
X0117640Y0030660D01*
X0117000Y0030510D01*
X0116340Y0030400D01*
X0115680Y0030320D01*
X0115010Y0030280D01*
X0114350Y0030280D01*
X0113680Y0030320D01*
X0113020Y0030400D01*
X0112360Y0030510D01*
X0111720Y0030660D01*
X0111080Y0030850D01*
X0110450Y0031080D01*
X0109840Y0031340D01*
X0109240Y0031630D01*
X0108660Y0031960D01*
X0108100Y0032320D01*
X0107560Y0032710D01*
X0107050Y0033130D01*
X0106560Y0033590D01*
X0106100Y0034060D01*
X0105660Y0034570D01*
X0105260Y0035100D01*
X0104880Y0035650D01*
X0104540Y0036220D01*
X0104230Y0036810D01*
X0103950Y0037410D01*
X0103710Y0038030D01*
X0103510Y0038670D01*
X0103340Y0039310D01*
X0103210Y0039970D01*
X0103120Y0040630D01*
D13*
X0096250Y0040000D02*
X0096250Y0025000D01*
X0088750Y0025000D01*
X0088750Y0038750D01*
X0090000Y0040000D01*
X0096250Y0040000D01*
X0096250Y0033750D02*
X0088750Y0033750D01*
X0088750Y0047500D01*
X0088750Y0061250D01*
X0090000Y0062500D01*
X0096250Y0062500D01*
X0096250Y0047500D01*
X0088750Y0047500D01*
X0090000Y0048750D01*
X0096250Y0048750D01*
X0096250Y0033750D01*
X0096870Y0032500D02*
X0095620Y0031250D01*
X0095620Y0017500D01*
X0103120Y0017500D01*
X0103120Y0032500D01*
X0096870Y0032500D01*
X0103120Y0027500D02*
X0104370Y0028750D01*
X0110620Y0028750D01*
X0110620Y0013750D01*
X0110620Y0027500D01*
X0111870Y0028750D01*
X0118120Y0028750D01*
X0118120Y0013750D01*
X0118120Y0027500D01*
X0119370Y0028750D01*
X0125620Y0028750D01*
X0125620Y0013750D01*
X0118120Y0013750D01*
X0110620Y0013750D01*
X0103120Y0013750D01*
X0103120Y0027500D01*
X0125620Y0031250D02*
X0125620Y0017500D01*
X0133120Y0017500D01*
X0133120Y0032500D01*
X0126870Y0032500D01*
X0125620Y0031250D01*
X0132500Y0033750D02*
X0132500Y0048750D01*
X0140000Y0048750D01*
X0140000Y0035000D01*
X0138750Y0033750D01*
X0132500Y0033750D01*
X0132500Y0040000D02*
X0140000Y0040000D01*
X0140000Y0026250D01*
X0138750Y0025000D01*
X0132500Y0025000D01*
X0132500Y0040000D01*
X0132500Y0047500D02*
X0132500Y0062500D01*
X0140000Y0062500D01*
X0140000Y0048750D01*
X0138750Y0047500D01*
X0132500Y0047500D01*
X0132500Y0056250D02*
X0132500Y0071250D01*
X0140000Y0071250D01*
X0140000Y0057500D01*
X0138750Y0056250D01*
X0132500Y0056250D01*
X0132500Y0065000D02*
X0132500Y0080000D01*
X0140000Y0080000D01*
X0140000Y0066250D01*
X0138750Y0065000D01*
X0132500Y0065000D01*
X0133750Y0072500D02*
X0126250Y0072500D01*
X0126250Y0086250D01*
X0127500Y0087500D01*
X0133750Y0087500D01*
X0133750Y0072500D01*
X0127500Y0076250D02*
X0120000Y0076250D01*
X0120000Y0090000D01*
X0121250Y0091250D01*
X0121250Y0076250D01*
X0113750Y0076250D01*
X0113750Y0090000D01*
X0115000Y0091250D01*
X0121250Y0091250D01*
X0127500Y0091250D01*
X0127500Y0076250D01*
X0115000Y0076250D02*
X0115000Y0091250D01*
X0108750Y0091250D01*
X0108750Y0076250D01*
X0101250Y0076250D01*
X0101250Y0090000D01*
X0102500Y0091250D01*
X0108750Y0091250D01*
X0107500Y0090000D01*
X0107500Y0076250D01*
X0115000Y0076250D01*
X0102500Y0072500D02*
X0095000Y0072500D01*
X0095000Y0086250D01*
X0096250Y0087500D01*
X0102500Y0087500D01*
X0102500Y0072500D01*
X0096250Y0071250D02*
X0096250Y0056250D01*
X0088750Y0056250D01*
X0088750Y0070000D01*
X0090000Y0071250D01*
X0096250Y0071250D01*
X0096250Y0065000D02*
X0088750Y0065000D01*
X0088750Y0078750D01*
X0090000Y0080000D01*
X0096250Y0080000D01*
X0096250Y0065000D01*
D14*
X0097270Y0059130D02*
X0101470Y0059130D01*
X0101470Y0057730D02*
X0101470Y0060530D01*
X0098670Y0057730D02*
X0097270Y0059130D01*
X0097970Y0055930D02*
X0097270Y0055230D01*
X0097270Y0053830D01*
X0097970Y0053130D01*
X0100770Y0053130D01*
X0101470Y0053830D01*
X0101470Y0055230D01*
X0100770Y0055930D01*
X0097970Y0055930D01*
X0097270Y0051320D02*
X0100070Y0051320D01*
X0101470Y0049920D01*
X0100070Y0048520D01*
X0097270Y0048520D01*
X0099020Y0045780D02*
X0099720Y0045780D01*
X0102520Y0042980D01*
X0103220Y0042980D01*
X0102520Y0041180D02*
X0099720Y0041180D01*
X0099020Y0040480D01*
X0099020Y0039080D01*
X0099720Y0038380D01*
X0102520Y0038380D01*
X0103220Y0039080D01*
X0103220Y0040480D01*
X0102520Y0041180D01*
X0099020Y0042980D02*
X0099020Y0045780D01*
X0099020Y0036570D02*
X0101820Y0036570D01*
X0103220Y0035170D01*
X0101820Y0033770D01*
X0099020Y0033770D01*
X0093220Y0024870D02*
X0089020Y0024870D01*
X0089020Y0022070D02*
X0093220Y0024870D01*
X0093220Y0022070D02*
X0089020Y0022070D01*
X0089020Y0020400D02*
X0089020Y0019000D01*
X0089020Y0019700D02*
X0093220Y0019700D01*
X0093220Y0019000D02*
X0093220Y0020400D01*
X0091820Y0017200D02*
X0089020Y0017200D01*
X0091820Y0017200D02*
X0093220Y0015800D01*
X0091820Y0014400D01*
X0089020Y0014400D01*
X0127270Y0036020D02*
X0130070Y0036020D01*
X0131470Y0037420D01*
X0130070Y0038820D01*
X0127270Y0038820D01*
X0127970Y0040630D02*
X0130770Y0040630D01*
X0131470Y0041330D01*
X0131470Y0042730D01*
X0130770Y0043430D01*
X0127970Y0043430D01*
X0127270Y0042730D01*
X0127270Y0041330D01*
X0127970Y0040630D01*
X0129370Y0045230D02*
X0129370Y0047330D01*
X0130070Y0048030D01*
X0130770Y0048030D01*
X0131470Y0047330D01*
X0131470Y0045930D01*
X0130770Y0045230D01*
X0129370Y0045230D01*
X0127970Y0046630D01*
X0127270Y0048030D01*
X0127140Y0056900D02*
X0129950Y0056900D01*
X0131350Y0058300D01*
X0129950Y0059700D01*
X0127140Y0059700D01*
X0127840Y0061500D02*
X0130650Y0061500D01*
X0131350Y0062200D01*
X0131350Y0063600D01*
X0130650Y0064300D01*
X0127840Y0064300D01*
X0127140Y0063600D01*
X0127140Y0062200D01*
X0127840Y0061500D01*
X0127140Y0066100D02*
X0129240Y0066100D01*
X0128540Y0067510D01*
X0128540Y0068210D01*
X0129240Y0068910D01*
X0130650Y0068910D01*
X0131350Y0068210D01*
X0131350Y0066810D01*
X0130650Y0066100D01*
X0127140Y0066100D02*
X0127140Y0068910D01*
X0135390Y0080330D02*
X0138200Y0080330D01*
X0139600Y0081740D01*
X0138200Y0083140D01*
X0135390Y0083140D01*
X0136090Y0084940D02*
X0135390Y0085640D01*
X0135390Y0087040D01*
X0136090Y0087740D01*
X0138900Y0087740D01*
X0139600Y0087040D01*
X0139600Y0085640D01*
X0138900Y0084940D01*
X0136090Y0084940D01*
X0137490Y0089540D02*
X0137490Y0092350D01*
X0135390Y0091640D02*
X0139600Y0091640D01*
X0137490Y0089540D02*
X0135390Y0091640D01*
X0128030Y0091720D02*
X0127330Y0091020D01*
X0125930Y0091020D01*
X0125230Y0091720D01*
X0123430Y0091720D02*
X0123430Y0094520D01*
X0122957Y0095000D01*
X0122730Y0095230D02*
X0121103Y0095000D02*
X0120630Y0094520D01*
X0120630Y0091720D01*
X0121330Y0091020D01*
X0122730Y0091020D01*
X0123430Y0091720D01*
X0125230Y0094520D02*
X0125703Y0095000D01*
X0125930Y0095230D02*
X0127557Y0095000D02*
X0128030Y0094520D01*
X0128030Y0093820D01*
X0127330Y0093120D01*
X0128030Y0092420D01*
X0128030Y0091720D01*
X0127330Y0093120D02*
X0126630Y0093120D01*
X0118820Y0092420D02*
X0118820Y0095000D01*
X0118820Y0095230D02*
X0116020Y0095000D02*
X0116020Y0092420D01*
X0117420Y0091020D01*
X0118820Y0092420D01*
X0089470Y0081410D02*
X0089470Y0078600D01*
X0086670Y0081410D01*
X0085970Y0081410D01*
X0085270Y0080710D01*
X0085270Y0079310D01*
X0085970Y0078600D01*
X0085970Y0076800D02*
X0085270Y0076100D01*
X0085270Y0074700D01*
X0085970Y0074000D01*
X0088770Y0074000D01*
X0089470Y0074700D01*
X0089470Y0076100D01*
X0088770Y0076800D01*
X0085970Y0076800D01*
X0085270Y0072200D02*
X0088070Y0072200D01*
X0089470Y0070800D01*
X0088070Y0069400D01*
X0085270Y0069400D01*
D14*
X0082100Y0010400D02*
X0082100Y0095400D01*
X0147900Y0095400D01*
X0147900Y0010400D01*
X0082100Y0010400D01*
X0155000Y0010000D02*
G75*
%LPD*%
D16*
X0155000Y0010000D02*
X0155000Y0094750D01*
X0219010Y0094750D01*
X0219010Y0010000D01*
X0155000Y0010000D01*
D11*
X0157500Y0012500D02*
X0170000Y0012500D01*
X0186870Y0029370D01*
X0187500Y0029370D01*
X0204370Y0012500D01*
X0216870Y0012500D01*
X0216870Y0092500D01*
X0199370Y0092500D01*
X0199370Y0042500D01*
X0191250Y0050620D01*
X0183120Y0050620D01*
X0175000Y0042500D01*
X0175000Y0092500D01*
X0157500Y0092500D01*
X0157500Y0012500D01*
D13*
X0162500Y0015000D02*
X0162500Y0030000D01*
X0170000Y0030000D01*
X0170000Y0016250D01*
X0168750Y0015000D01*
X0162500Y0015000D01*
X0170620Y0021250D02*
X0170620Y0036250D01*
X0178120Y0036250D01*
X0178120Y0022500D01*
X0176870Y0021250D01*
X0170620Y0021250D01*
X0168750Y0028750D02*
X0170000Y0030000D01*
X0170000Y0043750D01*
X0162500Y0043750D01*
X0162500Y0028750D01*
X0168750Y0028750D01*
X0168750Y0037500D02*
X0162500Y0037500D01*
X0162500Y0052500D01*
X0170000Y0052500D01*
X0170000Y0038750D01*
X0168750Y0037500D01*
X0168750Y0046250D02*
X0162500Y0046250D01*
X0162500Y0061250D01*
X0170000Y0061250D01*
X0170000Y0047500D01*
X0168750Y0046250D01*
X0178750Y0045000D02*
X0186250Y0045000D01*
X0186250Y0031250D01*
X0185000Y0030000D01*
X0178750Y0030000D01*
X0178750Y0045000D01*
X0186870Y0045000D02*
X0194370Y0045000D01*
X0194370Y0031250D01*
X0193120Y0030000D01*
X0186870Y0030000D01*
X0186870Y0045000D01*
X0195000Y0036250D02*
X0202500Y0036250D01*
X0202500Y0022500D01*
X0201250Y0021250D01*
X0195000Y0021250D01*
X0195000Y0036250D01*
X0204370Y0037500D02*
X0204370Y0052500D01*
X0211870Y0052500D01*
X0211870Y0038750D01*
X0210620Y0037500D01*
X0204370Y0037500D01*
X0204370Y0043750D02*
X0211870Y0043750D01*
X0211870Y0030000D01*
X0210620Y0028750D01*
X0204370Y0028750D01*
X0204370Y0043750D01*
X0204370Y0046250D02*
X0204370Y0061250D01*
X0211870Y0061250D01*
X0210620Y0060000D01*
X0204370Y0060000D01*
X0204370Y0075000D01*
X0211870Y0075000D01*
X0211870Y0061250D01*
X0211870Y0047500D01*
X0210620Y0046250D01*
X0204370Y0046250D01*
X0204370Y0030000D02*
X0211870Y0030000D01*
X0211870Y0016250D01*
X0210620Y0015000D01*
X0204370Y0015000D01*
X0204370Y0030000D01*
X0170000Y0061250D02*
X0168750Y0060000D01*
X0162500Y0060000D01*
X0162500Y0075000D01*
X0170000Y0075000D01*
X0170000Y0061250D01*
X0168750Y0068750D02*
X0170000Y0070000D01*
X0170000Y0083750D01*
X0162500Y0083750D01*
X0162500Y0068750D01*
X0168750Y0068750D01*
X0168750Y0077500D02*
X0162500Y0077500D01*
X0162500Y0092500D01*
X0170000Y0092500D01*
X0170000Y0078750D01*
X0168750Y0077500D01*
X0204370Y0077500D02*
X0204370Y0092500D01*
X0211870Y0092500D01*
X0211870Y0078750D01*
X0210620Y0077500D01*
X0204370Y0077500D01*
X0204370Y0083750D02*
X0211870Y0083750D01*
X0211870Y0070000D01*
X0210620Y0068750D01*
X0204370Y0068750D01*
X0204370Y0083750D01*
D14*
X0202520Y0078280D02*
X0201820Y0078280D01*
X0201120Y0077580D01*
X0201120Y0075480D01*
X0202520Y0075480D01*
X0203220Y0076180D01*
X0203220Y0077580D01*
X0202520Y0078280D01*
X0199720Y0076880D02*
X0201120Y0075480D01*
X0199720Y0076880D02*
X0199020Y0078280D01*
X0199720Y0073680D02*
X0199020Y0072980D01*
X0199020Y0071580D01*
X0199720Y0070880D01*
X0202520Y0070880D01*
X0203220Y0071580D01*
X0203220Y0072980D01*
X0202520Y0073680D01*
X0199720Y0073680D01*
X0199020Y0069070D02*
X0201820Y0069070D01*
X0203220Y0067670D01*
X0201820Y0066270D01*
X0199020Y0066270D01*
X0199640Y0048910D02*
X0199640Y0046100D01*
X0201740Y0046100D01*
X0201040Y0047510D01*
X0201040Y0048210D01*
X0201740Y0048910D01*
X0203150Y0048910D01*
X0203850Y0048210D01*
X0203850Y0046810D01*
X0203150Y0046100D01*
X0203150Y0044300D02*
X0200340Y0044300D01*
X0199640Y0043600D01*
X0199640Y0042200D01*
X0200340Y0041500D01*
X0203150Y0041500D01*
X0203850Y0042200D01*
X0203850Y0043600D01*
X0203150Y0044300D01*
X0202450Y0039700D02*
X0199640Y0039700D01*
X0199640Y0036900D02*
X0202450Y0036900D01*
X0203850Y0038300D01*
X0202450Y0039700D01*
X0192580Y0027850D02*
X0191180Y0027850D01*
X0190480Y0027150D01*
X0191880Y0025750D02*
X0192580Y0025750D01*
X0193280Y0025050D01*
X0193280Y0024350D01*
X0192580Y0023650D01*
X0191180Y0023650D01*
X0190480Y0024350D01*
X0192580Y0025750D02*
X0193280Y0026450D01*
X0193280Y0027150D01*
X0192580Y0027850D01*
X0188680Y0027150D02*
X0188680Y0024350D01*
X0187980Y0023650D01*
X0186580Y0023650D01*
X0185880Y0024350D01*
X0185880Y0027150D01*
X0186580Y0027850D01*
X0187980Y0027850D01*
X0188680Y0027150D01*
X0184070Y0027850D02*
X0184070Y0025050D01*
X0182670Y0023650D01*
X0181270Y0025050D01*
X0181270Y0027850D01*
X0189460Y0019480D02*
X0189460Y0016670D01*
X0190860Y0015270D01*
X0192260Y0016670D01*
X0192260Y0019480D01*
X0194060Y0018770D02*
X0194060Y0015970D01*
X0194760Y0015270D01*
X0196170Y0015270D01*
X0196870Y0015970D01*
X0196870Y0018770D01*
X0196170Y0019480D01*
X0194760Y0019480D01*
X0194060Y0018770D01*
X0198670Y0017370D02*
X0201470Y0017370D01*
X0200770Y0015270D02*
X0200770Y0019480D01*
X0198670Y0017370D01*
X0162220Y0018360D02*
X0160820Y0019760D01*
X0158020Y0019760D01*
X0158720Y0021560D02*
X0158020Y0022260D01*
X0158020Y0023670D01*
X0158720Y0024370D01*
X0161520Y0024370D01*
X0162220Y0023670D01*
X0162220Y0022260D01*
X0161520Y0021560D01*
X0158720Y0021560D01*
X0158720Y0026170D02*
X0158020Y0026870D01*
X0158020Y0028270D01*
X0158720Y0028970D01*
X0159420Y0028970D01*
X0162220Y0026170D01*
X0162220Y0028970D01*
X0162220Y0018360D02*
X0160820Y0016960D01*
X0158020Y0016960D01*
X0158020Y0048830D02*
X0160820Y0048830D01*
X0162220Y0050240D01*
X0160820Y0051640D01*
X0158020Y0051640D01*
X0158720Y0053440D02*
X0161520Y0053440D01*
X0162220Y0054140D01*
X0162220Y0055540D01*
X0161520Y0056240D01*
X0158720Y0056240D01*
X0158020Y0055540D01*
X0158020Y0054140D01*
X0158720Y0053440D01*
X0159420Y0058040D02*
X0158020Y0059440D01*
X0162220Y0059440D01*
X0162220Y0058040D02*
X0162220Y0060850D01*
X0170520Y0075370D02*
X0173320Y0075370D01*
X0174720Y0076770D01*
X0173320Y0078170D01*
X0170520Y0078170D01*
X0170520Y0079970D02*
X0170520Y0081370D01*
X0170520Y0080670D02*
X0174720Y0080670D01*
X0174720Y0079970D02*
X0174720Y0081370D01*
X0174720Y0083040D02*
X0170520Y0083040D01*
X0174720Y0085850D01*
X0170520Y0085850D01*
D14*
X0154600Y0010400D02*
X0154600Y0095150D01*
X0219410Y0095150D01*
X0219410Y0010400D01*
X0154600Y0010400D01*
X0226510Y0010000D02*
G75*
%LPD*%
D16*
X0226510Y0010000D02*
X0226510Y0095000D01*
X0291510Y0095000D01*
X0291510Y0010000D01*
X0226510Y0010000D01*
D11*
X0229010Y0012500D02*
X0287760Y0012500D01*
X0287760Y0030000D01*
X0246510Y0030000D01*
X0246510Y0043750D01*
X0271510Y0043750D01*
X0271510Y0061250D01*
X0246510Y0061250D01*
X0246510Y0075000D01*
X0287760Y0075000D01*
X0287760Y0092500D01*
X0229010Y0092500D01*
X0229010Y0012500D01*
D13*
X0232130Y0017500D02*
X0230880Y0018750D01*
X0230880Y0025000D01*
X0245880Y0025000D01*
X0245880Y0017500D01*
X0232130Y0017500D01*
X0231510Y0020620D02*
X0231510Y0034370D01*
X0231510Y0048120D01*
X0232760Y0049370D01*
X0239010Y0049370D01*
X0239010Y0034370D01*
X0231510Y0034370D01*
X0232760Y0035620D01*
X0239010Y0035620D01*
X0239010Y0020620D01*
X0231510Y0020620D01*
X0239630Y0018750D02*
X0240880Y0017500D01*
X0254630Y0017500D01*
X0254630Y0025000D01*
X0239630Y0025000D01*
X0239630Y0018750D01*
X0253380Y0018750D02*
X0254630Y0017500D01*
X0268380Y0017500D01*
X0268380Y0025000D01*
X0253380Y0025000D01*
X0253380Y0018750D01*
X0262130Y0018750D02*
X0263380Y0017500D01*
X0277130Y0017500D01*
X0277130Y0025000D01*
X0262130Y0025000D01*
X0262130Y0018750D01*
X0270880Y0018750D02*
X0272130Y0017500D01*
X0285880Y0017500D01*
X0285880Y0025000D01*
X0270880Y0025000D01*
X0270880Y0018750D01*
X0270260Y0048750D02*
X0255260Y0048750D01*
X0255260Y0056250D01*
X0269010Y0056250D01*
X0270260Y0055000D01*
X0270260Y0048750D01*
X0261510Y0048750D02*
X0246510Y0048750D01*
X0246510Y0056250D01*
X0260260Y0056250D01*
X0261510Y0055000D01*
X0261510Y0048750D01*
X0252760Y0048750D02*
X0237760Y0048750D01*
X0237760Y0056250D01*
X0251510Y0056250D01*
X0252760Y0055000D01*
X0252760Y0048750D01*
X0239010Y0052500D02*
X0231510Y0052500D01*
X0231510Y0066250D01*
X0231510Y0080000D01*
X0232760Y0081250D01*
X0239010Y0081250D01*
X0239010Y0066250D01*
X0231510Y0066250D01*
X0232760Y0067500D01*
X0239010Y0067500D01*
X0239010Y0052500D01*
X0239010Y0058750D02*
X0239010Y0043750D01*
X0231510Y0043750D01*
X0231510Y0057500D01*
X0232760Y0058750D01*
X0239010Y0058750D01*
X0239010Y0075000D02*
X0231510Y0075000D01*
X0231510Y0088750D01*
X0232760Y0090000D01*
X0239010Y0090000D01*
X0239010Y0075000D01*
X0235880Y0081870D02*
X0235880Y0089370D01*
X0249630Y0089370D01*
X0250880Y0088120D01*
X0250880Y0081870D01*
X0235880Y0081870D01*
X0251510Y0081870D02*
X0251510Y0089370D01*
X0265260Y0089370D01*
X0266510Y0088120D01*
X0266510Y0081870D01*
X0251510Y0081870D01*
X0261510Y0081870D02*
X0261510Y0089370D01*
X0275260Y0089370D01*
X0276510Y0088120D01*
X0276510Y0081870D01*
X0261510Y0081870D01*
X0271510Y0081870D02*
X0271510Y0089370D01*
X0285260Y0089370D01*
X0286510Y0088120D01*
X0286510Y0081870D01*
X0271510Y0081870D01*
D14*
X0270960Y0080850D02*
X0270260Y0080150D01*
X0270260Y0077350D01*
X0270960Y0076650D01*
X0272360Y0076650D01*
X0273060Y0077350D01*
X0273060Y0080150D01*
X0272360Y0080850D01*
X0270960Y0080850D01*
X0268460Y0080850D02*
X0268460Y0078050D01*
X0267060Y0076650D01*
X0265660Y0078050D01*
X0265660Y0080850D01*
X0262670Y0078750D02*
X0259860Y0078750D01*
X0261970Y0080850D01*
X0261970Y0076650D01*
X0258060Y0077350D02*
X0257360Y0076650D01*
X0255960Y0076650D01*
X0255260Y0077350D01*
X0255260Y0080150D01*
X0255960Y0080850D01*
X0257360Y0080850D01*
X0258060Y0080150D01*
X0258060Y0077350D01*
X0253460Y0078050D02*
X0253460Y0080850D01*
X0253460Y0078050D02*
X0252060Y0076650D01*
X0250660Y0078050D01*
X0250660Y0080850D01*
X0244110Y0078210D02*
X0244110Y0076810D01*
X0243410Y0076100D01*
X0243410Y0074300D02*
X0240600Y0074300D01*
X0239900Y0073600D01*
X0239900Y0072200D01*
X0240600Y0071500D01*
X0243410Y0071500D01*
X0244110Y0072200D01*
X0244110Y0073600D01*
X0243410Y0074300D01*
X0240600Y0076100D02*
X0239900Y0076810D01*
X0239900Y0078210D01*
X0240600Y0078910D01*
X0241300Y0078910D01*
X0242000Y0078210D01*
X0242710Y0078910D01*
X0243410Y0078910D01*
X0244110Y0078210D01*
X0242000Y0078210D02*
X0242000Y0077510D01*
X0242710Y0069700D02*
X0239900Y0069700D01*
X0239900Y0066900D02*
X0242710Y0066900D01*
X0244110Y0068300D01*
X0242710Y0069700D01*
X0248780Y0060230D02*
X0248780Y0057420D01*
X0250180Y0056020D01*
X0251580Y0057420D01*
X0251580Y0060230D01*
X0253390Y0059520D02*
X0253390Y0056720D01*
X0254090Y0056020D01*
X0255490Y0056020D01*
X0256190Y0056720D01*
X0256190Y0059520D01*
X0255490Y0060230D01*
X0254090Y0060230D01*
X0253390Y0059520D01*
X0257990Y0058120D02*
X0257990Y0056720D01*
X0258690Y0056020D01*
X0260090Y0056020D01*
X0260790Y0056720D01*
X0260790Y0057420D01*
X0260090Y0058120D01*
X0257990Y0058120D01*
X0259390Y0059520D01*
X0260790Y0060230D01*
X0275570Y0076650D02*
X0274860Y0077350D01*
X0275570Y0076650D02*
X0276970Y0076650D01*
X0277670Y0077350D01*
X0277670Y0078750D01*
X0276970Y0079450D01*
X0276270Y0079450D01*
X0274860Y0078750D01*
X0274860Y0080850D01*
X0277670Y0080850D01*
X0244110Y0047660D02*
X0244110Y0044850D01*
X0241300Y0047660D01*
X0240600Y0047660D01*
X0239900Y0046960D01*
X0239900Y0045560D01*
X0240600Y0044850D01*
X0240600Y0043050D02*
X0239900Y0042350D01*
X0239900Y0040950D01*
X0240600Y0040250D01*
X0243410Y0040250D01*
X0244110Y0040950D01*
X0244110Y0042350D01*
X0243410Y0043050D01*
X0240600Y0043050D01*
X0239900Y0038450D02*
X0242710Y0038450D01*
X0244110Y0037050D01*
X0242710Y0035650D01*
X0239900Y0035650D01*
X0241910Y0028350D02*
X0241910Y0025550D01*
X0243310Y0024150D01*
X0244710Y0025550D01*
X0244710Y0028350D01*
X0246510Y0027650D02*
X0246510Y0024850D01*
X0247210Y0024150D01*
X0248610Y0024150D01*
X0249310Y0024850D01*
X0249310Y0027650D01*
X0248610Y0028350D01*
X0247210Y0028350D01*
X0246510Y0027650D01*
X0251110Y0026950D02*
X0252520Y0028350D01*
X0252520Y0024150D01*
X0253920Y0024150D02*
X0251110Y0024150D01*
X0265660Y0026800D02*
X0267060Y0025400D01*
X0268460Y0026800D01*
X0268460Y0029600D01*
X0270260Y0029600D02*
X0271660Y0029600D01*
X0270960Y0029600D02*
X0270960Y0025400D01*
X0270260Y0025400D02*
X0271660Y0025400D01*
X0273330Y0025400D02*
X0273330Y0029600D01*
X0276130Y0025400D01*
X0276130Y0029600D01*
X0265660Y0029600D02*
X0265660Y0026800D01*
D14*
X0226110Y0010400D02*
X0226110Y0095400D01*
X0291910Y0095400D01*
X0291910Y0010400D01*
X0226110Y0010400D01*
X0299010Y0010000D02*
G75*
%LPD*%
D16*
X0299010Y0010000D02*
X0299010Y0095000D01*
X0362760Y0095000D01*
X0362760Y0010000D01*
X0299010Y0010000D01*
D11*
X0301510Y0011250D02*
X0319010Y0011250D01*
X0319010Y0029370D01*
X0330880Y0029370D01*
X0347130Y0013120D01*
X0347570Y0012720D01*
X0348040Y0012360D01*
X0348530Y0012030D01*
X0349040Y0011730D01*
X0349570Y0011460D01*
X0350120Y0011230D01*
X0350680Y0011030D01*
X0351250Y0010870D01*
X0351830Y0010750D01*
X0352420Y0010670D01*
X0353010Y0010630D01*
X0353600Y0010620D01*
X0354190Y0010660D01*
X0354780Y0010730D01*
X0355360Y0010840D01*
X0355940Y0010990D01*
X0356500Y0011170D01*
X0357050Y0011400D01*
X0357580Y0011650D01*
X0358100Y0011950D01*
X0358600Y0012270D01*
X0359070Y0012630D01*
X0359520Y0013020D01*
X0359940Y0013430D01*
X0360340Y0013870D01*
X0360700Y0014340D01*
X0361030Y0014830D01*
X0361330Y0015340D01*
X0361600Y0015870D01*
X0361830Y0016420D01*
X0362030Y0016980D01*
X0362190Y0017550D01*
X0362310Y0018130D01*
X0362390Y0018720D01*
X0362430Y0019310D01*
X0362440Y0019900D01*
X0362400Y0020490D01*
X0362330Y0021080D01*
X0362220Y0021660D01*
X0362070Y0022240D01*
X0361890Y0022800D01*
X0361660Y0023350D01*
X0361410Y0023880D01*
X0361110Y0024400D01*
X0360790Y0024900D01*
X0360430Y0025370D01*
X0360040Y0025820D01*
X0359630Y0026240D01*
X0359630Y0026250D02*
X0348380Y0037500D01*
X0358380Y0047500D01*
X0360880Y0052500D02*
X0360880Y0073120D01*
X0357760Y0081870D02*
X0351510Y0088750D01*
X0342760Y0092500D02*
X0301510Y0092500D01*
X0301510Y0011250D01*
X0315550Y0066870D02*
X0315570Y0067600D01*
X0315630Y0068330D01*
X0315730Y0069050D01*
X0315860Y0069760D01*
X0316040Y0070470D01*
X0316250Y0071170D01*
X0316510Y0071850D01*
X0316790Y0072520D01*
X0317120Y0073170D01*
X0317480Y0073810D01*
X0317870Y0074420D01*
X0318290Y0075020D01*
X0318750Y0075580D01*
X0319240Y0076130D01*
X0319750Y0076640D01*
X0320300Y0077130D01*
X0320860Y0077590D01*
X0321460Y0078010D01*
X0322070Y0078400D01*
X0322710Y0078760D01*
X0323360Y0079090D01*
X0324030Y0079370D01*
X0324710Y0079630D01*
X0325410Y0079840D01*
X0326120Y0080020D01*
X0326830Y0080150D01*
X0327550Y0080250D01*
X0328280Y0080310D01*
X0329010Y0080330D01*
X0329740Y0080310D01*
X0330470Y0080250D01*
X0331190Y0080150D01*
X0331900Y0080020D01*
X0332610Y0079840D01*
X0333310Y0079630D01*
X0333990Y0079370D01*
X0334660Y0079090D01*
X0335310Y0078760D01*
X0335950Y0078400D01*
X0336560Y0078010D01*
X0337160Y0077590D01*
X0337720Y0077130D01*
X0338270Y0076640D01*
X0338780Y0076130D01*
X0339270Y0075580D01*
X0339730Y0075020D01*
X0340150Y0074420D01*
X0340540Y0073810D01*
X0340900Y0073170D01*
X0341230Y0072520D01*
X0341510Y0071850D01*
X0341770Y0071170D01*
X0341980Y0070470D01*
X0342160Y0069760D01*
X0342290Y0069050D01*
X0342390Y0068330D01*
X0342450Y0067600D01*
X0342470Y0066870D01*
X0342450Y0066140D01*
X0342390Y0065410D01*
X0342290Y0064690D01*
X0342160Y0063980D01*
X0341980Y0063270D01*
X0341770Y0062570D01*
X0341510Y0061890D01*
X0341230Y0061220D01*
X0340900Y0060570D01*
X0340540Y0059930D01*
X0340150Y0059320D01*
X0339730Y0058720D01*
X0339270Y0058160D01*
X0338780Y0057610D01*
X0338270Y0057100D01*
X0337720Y0056610D01*
X0337160Y0056150D01*
X0336560Y0055730D01*
X0335950Y0055340D01*
X0335310Y0054980D01*
X0334660Y0054650D01*
X0333990Y0054370D01*
X0333310Y0054110D01*
X0332610Y0053900D01*
X0331900Y0053720D01*
X0331190Y0053590D01*
X0330470Y0053490D01*
X0329740Y0053430D01*
X0329010Y0053410D01*
X0328280Y0053430D01*
X0327550Y0053490D01*
X0326830Y0053590D01*
X0326120Y0053720D01*
X0325410Y0053900D01*
X0324710Y0054110D01*
X0324030Y0054370D01*
X0323360Y0054650D01*
X0322710Y0054980D01*
X0322070Y0055340D01*
X0321460Y0055730D01*
X0320860Y0056150D01*
X0320300Y0056610D01*
X0319750Y0057100D01*
X0319240Y0057610D01*
X0318750Y0058160D01*
X0318290Y0058720D01*
X0317870Y0059320D01*
X0317480Y0059930D01*
X0317120Y0060570D01*
X0316790Y0061220D01*
X0316510Y0061890D01*
X0316250Y0062570D01*
X0316040Y0063270D01*
X0315860Y0063980D01*
X0315730Y0064690D01*
X0315630Y0065410D01*
X0315570Y0066140D01*
X0315550Y0066870D01*
X0342750Y0092500D02*
X0343410Y0092510D01*
X0344070Y0092480D01*
X0344720Y0092410D01*
X0345370Y0092310D01*
X0346010Y0092160D01*
X0346640Y0091980D01*
X0347260Y0091750D01*
X0347860Y0091500D01*
X0348450Y0091200D01*
X0349010Y0090870D01*
X0349560Y0090510D01*
X0350090Y0090110D01*
X0350590Y0089690D01*
X0351060Y0089230D01*
X0351500Y0088750D01*
X0357760Y0081870D02*
X0358200Y0081410D01*
X0358620Y0080920D01*
X0359010Y0080410D01*
X0359360Y0079870D01*
X0359680Y0079320D01*
X0359970Y0078750D01*
X0360220Y0078160D01*
X0360430Y0077550D01*
X0360610Y0076940D01*
X0360750Y0076310D01*
X0360860Y0075680D01*
X0360920Y0075040D01*
X0360950Y0074400D01*
X0360940Y0073760D01*
X0360890Y0073120D01*
X0360880Y0052500D02*
X0360860Y0052020D01*
X0360800Y0051540D01*
X0360700Y0051070D01*
X0360570Y0050600D01*
X0360400Y0050150D01*
X0360210Y0049710D01*
X0359970Y0049290D01*
X0359710Y0048890D01*
X0359420Y0048500D01*
X0359100Y0048140D01*
X0358750Y0047810D01*
X0358380Y0047500D01*
D13*
X0357760Y0051250D02*
X0342760Y0051250D01*
X0342760Y0058750D01*
X0356510Y0058750D01*
X0357760Y0057500D01*
X0357760Y0051250D01*
X0351510Y0051250D02*
X0351510Y0045000D01*
X0336510Y0045000D01*
X0336510Y0052500D01*
X0350260Y0052500D01*
X0351510Y0051250D01*
X0345260Y0058750D02*
X0345260Y0066250D01*
X0359010Y0066250D01*
X0360260Y0065000D01*
X0360260Y0058750D01*
X0345260Y0058750D01*
X0345260Y0066250D02*
X0345260Y0073750D01*
X0359010Y0073750D01*
X0360260Y0072500D01*
X0360260Y0066250D01*
X0345260Y0066250D01*
X0342760Y0073750D02*
X0342760Y0081250D01*
X0356510Y0081250D01*
X0357760Y0080000D01*
X0357760Y0073750D01*
X0342760Y0073750D01*
X0336510Y0081250D02*
X0321510Y0081250D01*
X0321510Y0088750D01*
X0335260Y0088750D01*
X0349010Y0088750D01*
X0350260Y0087500D01*
X0350260Y0081250D01*
X0335260Y0081250D01*
X0335260Y0088750D01*
X0336510Y0087500D01*
X0336510Y0081250D01*
X0326510Y0081250D02*
X0311510Y0081250D01*
X0311510Y0088750D01*
X0325260Y0088750D01*
X0326510Y0087500D01*
X0326510Y0081250D01*
X0314010Y0075000D02*
X0314010Y0060000D01*
X0306510Y0060000D01*
X0306510Y0073750D01*
X0306510Y0087500D01*
X0307760Y0088750D01*
X0314010Y0088750D01*
X0314010Y0073750D01*
X0306510Y0073750D01*
X0307760Y0075000D01*
X0314010Y0075000D01*
X0314010Y0066250D02*
X0307760Y0066250D01*
X0306510Y0065000D01*
X0306510Y0051250D01*
X0314010Y0051250D01*
X0314010Y0066250D01*
X0314010Y0057500D02*
X0307760Y0057500D01*
X0306510Y0056250D01*
X0306510Y0042500D01*
X0314010Y0042500D01*
X0314010Y0057500D01*
X0322760Y0051870D02*
X0336510Y0051870D01*
X0337760Y0050620D01*
X0337760Y0044370D01*
X0322760Y0044370D01*
X0322760Y0051870D01*
X0317760Y0044370D02*
X0331510Y0044370D01*
X0332760Y0043120D01*
X0332760Y0036870D01*
X0317760Y0036870D01*
X0317760Y0044370D01*
X0314010Y0043750D02*
X0314010Y0028750D01*
X0306510Y0028750D01*
X0306510Y0042500D01*
X0307760Y0043750D01*
X0314010Y0043750D01*
X0314010Y0035000D02*
X0307760Y0035000D01*
X0306510Y0033750D01*
X0306510Y0020000D01*
X0314010Y0020000D01*
X0314010Y0035000D01*
X0314010Y0026250D02*
X0307760Y0026250D01*
X0306510Y0025000D01*
X0306510Y0011250D01*
X0314010Y0011250D01*
X0314010Y0026250D01*
X0324010Y0031250D02*
X0324010Y0038750D01*
X0337760Y0038750D01*
X0339010Y0037500D01*
X0339010Y0031250D01*
X0324010Y0031250D01*
X0332760Y0032500D02*
X0332760Y0025000D01*
X0347760Y0025000D01*
X0347760Y0031250D01*
X0346510Y0032500D01*
X0332760Y0032500D01*
X0340260Y0026250D02*
X0354010Y0026250D01*
X0355260Y0025000D01*
X0355260Y0018750D01*
X0340260Y0018750D01*
X0340260Y0026250D01*
X0346510Y0020000D02*
X0360260Y0020000D01*
X0361510Y0018750D01*
X0361510Y0012500D01*
X0346510Y0012500D01*
X0346510Y0020000D01*
D14*
X0352910Y0025720D02*
X0353400Y0026210D01*
X0357360Y0026210D01*
X0357860Y0026710D01*
X0355880Y0028690D01*
X0354110Y0029470D02*
X0354110Y0030460D01*
X0353120Y0031450D01*
X0352130Y0031450D01*
X0350150Y0029470D01*
X0350150Y0028480D01*
X0351140Y0027490D01*
X0352130Y0027490D01*
X0354110Y0029470D01*
X0351350Y0033220D02*
X0349370Y0031240D01*
X0347390Y0031240D01*
X0347390Y0033220D01*
X0349370Y0035200D01*
X0354530Y0038830D02*
X0357330Y0038830D01*
X0358730Y0040240D01*
X0357330Y0041640D01*
X0354530Y0041640D01*
X0355230Y0043440D02*
X0358030Y0043440D01*
X0358730Y0044140D01*
X0358730Y0045540D01*
X0358030Y0046240D01*
X0355230Y0046240D01*
X0354530Y0045540D01*
X0354530Y0044140D01*
X0355230Y0043440D01*
X0354530Y0048040D02*
X0356630Y0048040D01*
X0355930Y0049440D01*
X0355930Y0050140D01*
X0356630Y0050850D01*
X0358030Y0050850D01*
X0358730Y0050140D01*
X0358730Y0048740D01*
X0358030Y0048040D01*
X0354530Y0048040D02*
X0354530Y0050850D01*
X0344790Y0045350D02*
X0343390Y0044650D01*
X0341990Y0043250D01*
X0344090Y0043250D01*
X0344790Y0042550D01*
X0344790Y0041850D01*
X0344090Y0041150D01*
X0342690Y0041150D01*
X0341990Y0041850D01*
X0341990Y0043250D01*
X0340190Y0041850D02*
X0340190Y0044650D01*
X0339490Y0045350D01*
X0338090Y0045350D01*
X0337390Y0044650D01*
X0337390Y0041850D01*
X0338090Y0041150D01*
X0339490Y0041150D01*
X0340190Y0041850D01*
X0335580Y0042550D02*
X0335580Y0045350D01*
X0332780Y0045350D02*
X0332780Y0042550D01*
X0334180Y0041150D01*
X0335580Y0042550D01*
X0306230Y0045240D02*
X0304830Y0046640D01*
X0302030Y0046640D01*
X0302730Y0048440D02*
X0302030Y0049140D01*
X0302030Y0050540D01*
X0302730Y0051240D01*
X0305530Y0051240D01*
X0306230Y0050540D01*
X0306230Y0049140D01*
X0305530Y0048440D01*
X0302730Y0048440D01*
X0303430Y0053040D02*
X0302030Y0054440D01*
X0306230Y0054440D01*
X0306230Y0053040D02*
X0306230Y0055850D01*
X0306230Y0045240D02*
X0304830Y0043830D01*
X0302030Y0043830D01*
X0302400Y0031120D02*
X0306610Y0031120D01*
X0302400Y0028320D01*
X0306610Y0028320D01*
X0306610Y0026650D02*
X0306610Y0025250D01*
X0306610Y0025950D02*
X0302400Y0025950D01*
X0302400Y0025250D02*
X0302400Y0026650D01*
X0302400Y0023450D02*
X0305210Y0023450D01*
X0306610Y0022050D01*
X0305210Y0020650D01*
X0302400Y0020650D01*
X0302030Y0075080D02*
X0304830Y0075080D01*
X0306230Y0076490D01*
X0304830Y0077890D01*
X0302030Y0077890D01*
X0302730Y0079690D02*
X0305530Y0079690D01*
X0306230Y0080390D01*
X0306230Y0081790D01*
X0305530Y0082490D01*
X0302730Y0082490D01*
X0302030Y0081790D01*
X0302030Y0080390D01*
X0302730Y0079690D01*
X0302730Y0084290D02*
X0302030Y0084990D01*
X0302030Y0086390D01*
X0302730Y0087100D01*
X0303430Y0087100D01*
X0306230Y0084290D01*
X0306230Y0087100D01*
X0314720Y0089170D02*
X0316120Y0087770D01*
X0317520Y0089170D01*
X0317520Y0091980D01*
X0319320Y0091270D02*
X0319320Y0088470D01*
X0320020Y0087770D01*
X0321430Y0087770D01*
X0322130Y0088470D01*
X0322130Y0091270D01*
X0321430Y0091980D01*
X0320020Y0091980D01*
X0319320Y0091270D01*
X0323930Y0091270D02*
X0324630Y0091980D01*
X0326030Y0091980D01*
X0326730Y0091270D01*
X0326730Y0090570D01*
X0326030Y0089870D01*
X0326730Y0089170D01*
X0326730Y0088470D01*
X0326030Y0087770D01*
X0324630Y0087770D01*
X0323930Y0088470D01*
X0325330Y0089870D02*
X0326030Y0089870D01*
X0314720Y0089170D02*
X0314720Y0091980D01*
X0350380Y0086420D02*
X0350380Y0084440D01*
X0352360Y0084440D01*
X0354340Y0086420D01*
X0355120Y0084650D02*
X0353140Y0082670D01*
X0353140Y0081680D01*
X0354130Y0080690D01*
X0355120Y0080690D01*
X0357100Y0082670D01*
X0357100Y0083660D01*
X0356110Y0084650D01*
X0355120Y0084650D01*
X0352360Y0088400D02*
X0350380Y0086420D01*
X0357390Y0080410D02*
X0359370Y0078430D01*
X0360360Y0080410D02*
X0357390Y0080410D01*
X0360360Y0080410D02*
X0357390Y0077430D01*
D14*
X0298610Y0010400D02*
X0298610Y0095400D01*
X0363160Y0095400D01*
X0363160Y0010400D01*
X0298610Y0010400D01*
X0010000Y0102500D02*
G75*
%LPD*%
D16*
X0010000Y0102500D02*
X0010000Y0187250D01*
X0075260Y0187250D01*
X0075260Y0102500D01*
X0010000Y0102500D01*
D11*
X0032500Y0105000D02*
X0051250Y0105000D01*
X0051250Y0167500D01*
X0072500Y0167500D01*
X0072500Y0185000D01*
X0012500Y0185000D01*
X0012500Y0167500D01*
X0032500Y0167500D01*
X0032500Y0105000D01*
D13*
X0034370Y0107500D02*
X0035620Y0106250D01*
X0049370Y0106250D01*
X0049370Y0113750D01*
X0034370Y0113750D01*
X0034370Y0107500D01*
X0035620Y0113750D02*
X0034370Y0115000D01*
X0034370Y0121250D01*
X0049370Y0121250D01*
X0049370Y0113750D01*
X0035620Y0113750D01*
X0035620Y0121250D02*
X0034370Y0122500D01*
X0034370Y0128750D01*
X0049370Y0128750D01*
X0035620Y0128750D01*
X0034370Y0130000D01*
X0034370Y0136250D01*
X0049370Y0136250D01*
X0049370Y0128750D01*
X0049370Y0121250D01*
X0035620Y0121250D01*
X0035620Y0137500D02*
X0034370Y0138750D01*
X0034370Y0145000D01*
X0049370Y0145000D01*
X0049370Y0137500D01*
X0035620Y0137500D01*
X0035620Y0146250D02*
X0034370Y0147500D01*
X0034370Y0153750D01*
X0049370Y0153750D01*
X0049370Y0146250D01*
X0035620Y0146250D01*
X0035620Y0155000D02*
X0034370Y0156250D01*
X0034370Y0162500D01*
X0049370Y0162500D01*
X0049370Y0155000D01*
X0035620Y0155000D01*
X0035620Y0163750D02*
X0034370Y0165000D01*
X0034370Y0171250D01*
X0049370Y0171250D01*
X0049370Y0163750D01*
X0035620Y0163750D01*
X0035620Y0168750D02*
X0028120Y0168750D01*
X0020620Y0168750D01*
X0013120Y0168750D01*
X0013120Y0182500D01*
X0014370Y0183750D01*
X0020620Y0183750D01*
X0020620Y0168750D01*
X0020620Y0182500D01*
X0021870Y0183750D01*
X0028120Y0183750D01*
X0028120Y0168750D01*
X0028120Y0182500D01*
X0029370Y0183750D01*
X0035620Y0183750D01*
X0035620Y0168750D01*
X0035620Y0172500D02*
X0034370Y0173750D01*
X0034370Y0180000D01*
X0049370Y0180000D01*
X0049370Y0172500D01*
X0035620Y0172500D01*
X0048750Y0168750D02*
X0048750Y0182500D01*
X0050000Y0183750D01*
X0056250Y0183750D01*
X0056250Y0168750D01*
X0056250Y0182500D01*
X0057500Y0183750D01*
X0063750Y0183750D01*
X0063750Y0168750D01*
X0063750Y0182500D01*
X0065000Y0183750D01*
X0071250Y0183750D01*
X0071250Y0168750D01*
X0063750Y0168750D01*
X0056250Y0168750D01*
X0048750Y0168750D01*
D14*
X0046960Y0182400D02*
X0045560Y0182400D01*
X0044850Y0183100D01*
X0043050Y0183100D02*
X0043050Y0185900D01*
X0042350Y0186600D01*
X0040950Y0186600D01*
X0040250Y0185900D01*
X0040250Y0183100D01*
X0040950Y0182400D01*
X0042350Y0182400D01*
X0043050Y0183100D01*
X0044850Y0185900D02*
X0045560Y0186600D01*
X0046960Y0186600D01*
X0047660Y0185900D01*
X0047660Y0185200D01*
X0046960Y0184500D01*
X0047660Y0183800D01*
X0047660Y0183100D01*
X0046960Y0182400D01*
X0046960Y0184500D02*
X0046260Y0184500D01*
X0038450Y0183800D02*
X0038450Y0186600D01*
X0038450Y0183800D02*
X0037050Y0182400D01*
X0035650Y0183800D01*
X0035650Y0186600D01*
X0026780Y0185620D02*
X0023980Y0185620D01*
X0025602Y0187250D01*
X0026080Y0187730D02*
X0026080Y0187250D02*
X0026080Y0183520D01*
X0022180Y0184220D02*
X0022180Y0187020D01*
X0021953Y0187250D01*
X0021480Y0187730D02*
X0019607Y0187250D02*
X0019380Y0187020D01*
X0019380Y0184220D01*
X0020080Y0183520D01*
X0021480Y0183520D01*
X0022180Y0184220D01*
X0017570Y0184920D02*
X0017570Y0187250D01*
X0017570Y0187730D02*
X0014770Y0187250D02*
X0014770Y0184920D01*
X0016170Y0183520D01*
X0017570Y0184920D01*
X0027970Y0154280D02*
X0027270Y0153580D01*
X0027270Y0152180D01*
X0027970Y0151480D01*
X0027970Y0149680D02*
X0027270Y0148980D01*
X0027270Y0147580D01*
X0027970Y0146880D01*
X0030770Y0146880D01*
X0031470Y0147580D01*
X0031470Y0148980D01*
X0030770Y0149680D01*
X0027970Y0149680D01*
X0031470Y0151480D02*
X0028670Y0154280D01*
X0027970Y0154280D01*
X0031470Y0154280D02*
X0031470Y0151480D01*
X0030070Y0145070D02*
X0027270Y0145070D01*
X0027270Y0142270D02*
X0030070Y0142270D01*
X0031470Y0143670D01*
X0030070Y0145070D01*
X0032100Y0129280D02*
X0032100Y0126480D01*
X0032100Y0127880D02*
X0027890Y0127880D01*
X0029290Y0126480D01*
X0028590Y0124680D02*
X0027890Y0123980D01*
X0027890Y0122580D01*
X0028590Y0121880D01*
X0031400Y0121880D01*
X0032100Y0122580D01*
X0032100Y0123980D01*
X0031400Y0124680D01*
X0028590Y0124680D01*
X0027890Y0120070D02*
X0030700Y0120070D01*
X0032100Y0118670D01*
X0030700Y0117270D01*
X0027890Y0117270D01*
X0052390Y0114600D02*
X0056600Y0114600D01*
X0052390Y0111790D01*
X0056600Y0111790D01*
X0056600Y0110120D02*
X0056600Y0108720D01*
X0056600Y0109420D02*
X0052390Y0109420D01*
X0052390Y0108720D02*
X0052390Y0110120D01*
X0052390Y0106920D02*
X0055200Y0106920D01*
X0056600Y0105520D01*
X0055200Y0104120D01*
X0052390Y0104120D01*
X0058050Y0183520D02*
X0059450Y0184920D01*
X0059450Y0187250D01*
X0059450Y0187730D02*
X0061250Y0187020D02*
X0061250Y0184220D01*
X0061950Y0183520D01*
X0063350Y0183520D01*
X0064050Y0184220D01*
X0064050Y0187020D01*
X0063823Y0187250D01*
X0063350Y0187730D02*
X0061477Y0187250D02*
X0061250Y0187020D01*
X0065850Y0187250D02*
X0065850Y0185620D01*
X0067260Y0186320D01*
X0067960Y0186320D01*
X0068660Y0185620D01*
X0068660Y0184220D01*
X0067960Y0183520D01*
X0066560Y0183520D01*
X0065850Y0184220D01*
X0058050Y0183520D02*
X0056650Y0184920D01*
X0056650Y0187250D01*
X0056650Y0187730D02*
D14*
X0010400Y0102100D02*
X0010400Y0187650D01*
X0010400Y0187650D02*
X0075660Y0187650D01*
X0075660Y0102100D01*
X0010400Y0102100D01*
X0082760Y0102500D02*
G75*
%LPD*%
D16*
X0082760Y0102500D02*
X0082760Y0187500D01*
X0147760Y0187500D01*
X0147760Y0102500D01*
X0082760Y0102500D01*
D11*
X0084630Y0122500D02*
X0084630Y0166250D01*
X0084640Y0166250D02*
X0084560Y0167060D01*
X0084510Y0167880D01*
X0084500Y0168700D01*
X0084530Y0169510D01*
X0084600Y0170330D01*
X0084710Y0171140D01*
X0084860Y0171950D01*
X0085050Y0172740D01*
X0085270Y0173530D01*
X0085530Y0174310D01*
X0085830Y0175070D01*
X0086160Y0175820D01*
X0086530Y0176550D01*
X0086930Y0177260D01*
X0087370Y0177950D01*
X0087840Y0178620D01*
X0088340Y0179270D01*
X0088870Y0179890D01*
X0089430Y0180490D01*
X0090010Y0181060D01*
X0090630Y0181600D01*
X0091260Y0182120D01*
X0091930Y0182600D01*
X0092610Y0183050D01*
X0093310Y0183460D01*
X0094040Y0183850D01*
X0094780Y0184190D01*
X0095540Y0184500D01*
X0096310Y0184780D01*
X0097090Y0185020D01*
X0097880Y0185220D01*
X0098680Y0185380D01*
X0099490Y0185510D01*
X0100310Y0185590D01*
X0101120Y0185640D01*
X0101940Y0185650D01*
X0102760Y0185620D01*
X0127130Y0185620D01*
X0127140Y0185620D02*
X0127920Y0185710D01*
X0128700Y0185750D01*
X0129490Y0185760D01*
X0130270Y0185730D01*
X0131050Y0185660D01*
X0131830Y0185550D01*
X0132600Y0185400D01*
X0133370Y0185220D01*
X0134120Y0184990D01*
X0134860Y0184740D01*
X0135590Y0184440D01*
X0136300Y0184110D01*
X0137000Y0183750D01*
X0137680Y0183350D01*
X0138330Y0182930D01*
X0138970Y0182460D01*
X0139580Y0181970D01*
X0140170Y0181450D01*
X0140730Y0180900D01*
X0141270Y0180330D01*
X0141770Y0179730D01*
X0142250Y0179100D01*
X0142690Y0178450D01*
X0143100Y0177780D01*
X0143480Y0177100D01*
X0143830Y0176390D01*
X0144140Y0175670D01*
X0144410Y0174930D01*
X0144650Y0174180D01*
X0144850Y0173420D01*
X0145010Y0172660D01*
X0145140Y0171880D01*
X0145230Y0171100D01*
X0145280Y0170320D01*
X0145290Y0169530D01*
X0145260Y0168750D01*
X0145260Y0122500D01*
X0145330Y0121700D01*
X0145360Y0120900D01*
X0145350Y0120100D01*
X0145300Y0119310D01*
X0145220Y0118510D01*
X0145090Y0117720D01*
X0144930Y0116940D01*
X0144730Y0116170D01*
X0144490Y0115400D01*
X0144210Y0114650D01*
X0143900Y0113920D01*
X0143550Y0113200D01*
X0143170Y0112500D01*
X0142750Y0111810D01*
X0142310Y0111150D01*
X0141820Y0110520D01*
X0141310Y0109900D01*
X0140770Y0109310D01*
X0140200Y0108750D01*
X0139610Y0108220D01*
X0138990Y0107720D01*
X0138340Y0107240D01*
X0137670Y0106800D01*
X0136990Y0106400D01*
X0136280Y0106030D01*
X0135560Y0105690D01*
X0134820Y0105390D01*
X0134060Y0105120D01*
X0133300Y0104890D01*
X0132520Y0104700D01*
X0131740Y0104550D01*
X0130950Y0104430D01*
X0130150Y0104360D01*
X0129350Y0104320D01*
X0128550Y0104330D01*
X0127750Y0104370D01*
X0127760Y0104370D02*
X0102760Y0104370D01*
X0101970Y0104320D01*
X0101180Y0104300D01*
X0100390Y0104320D01*
X0099600Y0104380D01*
X0098810Y0104470D01*
X0098030Y0104600D01*
X0097260Y0104770D01*
X0096500Y0104980D01*
X0095740Y0105220D01*
X0095000Y0105490D01*
X0094280Y0105810D01*
X0093570Y0106150D01*
X0092870Y0106530D01*
X0092200Y0106940D01*
X0091540Y0107390D01*
X0090910Y0107860D01*
X0090300Y0108360D01*
X0089710Y0108890D01*
X0089150Y0109450D01*
X0088620Y0110040D01*
X0088120Y0110650D01*
X0087650Y0111280D01*
X0087200Y0111940D01*
X0086790Y0112610D01*
X0086410Y0113310D01*
X0086070Y0114020D01*
X0085750Y0114740D01*
X0085480Y0115480D01*
X0085240Y0116240D01*
X0085030Y0117000D01*
X0084860Y0117770D01*
X0084730Y0118550D01*
X0084640Y0119340D01*
X0084580Y0120130D01*
X0084560Y0120920D01*
X0084580Y0121710D01*
X0084630Y0122500D01*
X0103380Y0133120D02*
X0103380Y0156870D01*
X0103470Y0157530D01*
X0103600Y0158190D01*
X0103770Y0158830D01*
X0103970Y0159470D01*
X0104210Y0160090D01*
X0104490Y0160690D01*
X0104800Y0161280D01*
X0105140Y0161850D01*
X0105520Y0162400D01*
X0105920Y0162930D01*
X0106360Y0163440D01*
X0106820Y0163910D01*
X0107310Y0164370D01*
X0107820Y0164790D01*
X0108360Y0165180D01*
X0108920Y0165540D01*
X0109500Y0165870D01*
X0110100Y0166160D01*
X0110710Y0166420D01*
X0111340Y0166650D01*
X0111980Y0166840D01*
X0112620Y0166990D01*
X0113280Y0167100D01*
X0113940Y0167180D01*
X0114610Y0167220D01*
X0115270Y0167220D01*
X0115940Y0167180D01*
X0116600Y0167100D01*
X0117260Y0166990D01*
X0117900Y0166840D01*
X0118540Y0166650D01*
X0119170Y0166420D01*
X0119780Y0166160D01*
X0120380Y0165870D01*
X0120960Y0165540D01*
X0121520Y0165180D01*
X0122060Y0164790D01*
X0122570Y0164370D01*
X0123060Y0163910D01*
X0123520Y0163440D01*
X0123960Y0162930D01*
X0124360Y0162400D01*
X0124740Y0161850D01*
X0125080Y0161280D01*
X0125390Y0160690D01*
X0125670Y0160090D01*
X0125910Y0159470D01*
X0126110Y0158830D01*
X0126280Y0158190D01*
X0126410Y0157530D01*
X0126500Y0156870D01*
X0126510Y0156870D02*
X0126510Y0133120D01*
X0126500Y0133130D02*
X0126410Y0132470D01*
X0126280Y0131810D01*
X0126110Y0131170D01*
X0125910Y0130530D01*
X0125670Y0129910D01*
X0125390Y0129310D01*
X0125080Y0128720D01*
X0124740Y0128150D01*
X0124360Y0127600D01*
X0123960Y0127070D01*
X0123520Y0126560D01*
X0123060Y0126090D01*
X0122570Y0125630D01*
X0122060Y0125210D01*
X0121520Y0124820D01*
X0120960Y0124460D01*
X0120380Y0124130D01*
X0119780Y0123840D01*
X0119170Y0123580D01*
X0118540Y0123350D01*
X0117900Y0123160D01*
X0117260Y0123010D01*
X0116600Y0122900D01*
X0115940Y0122820D01*
X0115270Y0122780D01*
X0114610Y0122780D01*
X0113940Y0122820D01*
X0113280Y0122900D01*
X0112620Y0123010D01*
X0111980Y0123160D01*
X0111340Y0123350D01*
X0110710Y0123580D01*
X0110100Y0123840D01*
X0109500Y0124130D01*
X0108920Y0124460D01*
X0108360Y0124820D01*
X0107820Y0125210D01*
X0107310Y0125630D01*
X0106820Y0126090D01*
X0106360Y0126560D01*
X0105920Y0127070D01*
X0105520Y0127600D01*
X0105140Y0128150D01*
X0104800Y0128720D01*
X0104490Y0129310D01*
X0104210Y0129910D01*
X0103970Y0130530D01*
X0103770Y0131170D01*
X0103600Y0131810D01*
X0103470Y0132470D01*
X0103380Y0133130D01*
D13*
X0096510Y0132500D02*
X0096510Y0117500D01*
X0089010Y0117500D01*
X0089010Y0131250D01*
X0090260Y0132500D01*
X0096510Y0132500D01*
X0096510Y0126250D02*
X0089010Y0126250D01*
X0089010Y0140000D01*
X0089010Y0153750D01*
X0090260Y0155000D01*
X0096510Y0155000D01*
X0096510Y0140000D01*
X0089010Y0140000D01*
X0090260Y0141250D01*
X0096510Y0141250D01*
X0096510Y0126250D01*
X0097130Y0125000D02*
X0095880Y0123750D01*
X0095880Y0110000D01*
X0103380Y0110000D01*
X0103380Y0125000D01*
X0097130Y0125000D01*
X0103380Y0120000D02*
X0104630Y0121250D01*
X0110880Y0121250D01*
X0110880Y0106250D01*
X0110880Y0120000D01*
X0112130Y0121250D01*
X0118380Y0121250D01*
X0118380Y0106250D01*
X0118380Y0120000D01*
X0119630Y0121250D01*
X0125880Y0121250D01*
X0125880Y0106250D01*
X0118380Y0106250D01*
X0110880Y0106250D01*
X0103380Y0106250D01*
X0103380Y0120000D01*
X0125880Y0123750D02*
X0125880Y0110000D01*
X0133380Y0110000D01*
X0133380Y0125000D01*
X0127130Y0125000D01*
X0125880Y0123750D01*
X0132760Y0126250D02*
X0132760Y0141250D01*
X0140260Y0141250D01*
X0140260Y0127500D01*
X0139010Y0126250D01*
X0132760Y0126250D01*
X0132760Y0132500D02*
X0140260Y0132500D01*
X0140260Y0118750D01*
X0139010Y0117500D01*
X0132760Y0117500D01*
X0132760Y0132500D01*
X0132760Y0140000D02*
X0132760Y0155000D01*
X0140260Y0155000D01*
X0140260Y0141250D01*
X0139010Y0140000D01*
X0132760Y0140000D01*
X0132760Y0148750D02*
X0132760Y0163750D01*
X0140260Y0163750D01*
X0140260Y0150000D01*
X0139010Y0148750D01*
X0132760Y0148750D01*
X0132760Y0157500D02*
X0132760Y0172500D01*
X0140260Y0172500D01*
X0140260Y0158750D01*
X0139010Y0157500D01*
X0132760Y0157500D01*
X0134010Y0165000D02*
X0126510Y0165000D01*
X0126510Y0178750D01*
X0127760Y0180000D01*
X0134010Y0180000D01*
X0134010Y0165000D01*
X0127760Y0168750D02*
X0120260Y0168750D01*
X0120260Y0182500D01*
X0121510Y0183750D01*
X0121510Y0168750D01*
X0114010Y0168750D01*
X0114010Y0182500D01*
X0115260Y0183750D01*
X0121510Y0183750D01*
X0127760Y0183750D01*
X0127760Y0168750D01*
X0115260Y0168750D02*
X0115260Y0183750D01*
X0109010Y0183750D01*
X0109010Y0168750D01*
X0101510Y0168750D01*
X0101510Y0182500D01*
X0102760Y0183750D01*
X0109010Y0183750D01*
X0107760Y0182500D01*
X0107760Y0168750D01*
X0115260Y0168750D01*
X0102760Y0165000D02*
X0095260Y0165000D01*
X0095260Y0178750D01*
X0096510Y0180000D01*
X0102760Y0180000D01*
X0102760Y0165000D01*
X0096510Y0163750D02*
X0096510Y0148750D01*
X0089010Y0148750D01*
X0089010Y0162500D01*
X0090260Y0163750D01*
X0096510Y0163750D01*
X0096510Y0157500D02*
X0089010Y0157500D01*
X0089010Y0171250D01*
X0090260Y0172500D01*
X0096510Y0172500D01*
X0096510Y0157500D01*
D14*
X0097530Y0151630D02*
X0101730Y0151630D01*
X0101730Y0150230D02*
X0101730Y0153030D01*
X0098930Y0150230D02*
X0097530Y0151630D01*
X0098230Y0148430D02*
X0097530Y0147730D01*
X0097530Y0146330D01*
X0098230Y0145630D01*
X0101030Y0145630D01*
X0101730Y0146330D01*
X0101730Y0147730D01*
X0101030Y0148430D01*
X0098230Y0148430D01*
X0097530Y0143820D02*
X0100330Y0143820D01*
X0101730Y0142420D01*
X0100330Y0141020D01*
X0097530Y0141020D01*
X0099280Y0138280D02*
X0099980Y0138280D01*
X0102780Y0135480D01*
X0103480Y0135480D01*
X0102780Y0133680D02*
X0099980Y0133680D01*
X0099280Y0132980D01*
X0099280Y0131580D01*
X0099980Y0130880D01*
X0102780Y0130880D01*
X0103480Y0131580D01*
X0103480Y0132980D01*
X0102780Y0133680D01*
X0099280Y0135480D02*
X0099280Y0138280D01*
X0099280Y0129070D02*
X0102080Y0129070D01*
X0103480Y0127670D01*
X0102080Y0126270D01*
X0099280Y0126270D01*
X0093480Y0117370D02*
X0089280Y0117370D01*
X0089280Y0114570D02*
X0093480Y0117370D01*
X0093480Y0114570D02*
X0089280Y0114570D01*
X0089280Y0112900D02*
X0089280Y0111500D01*
X0089280Y0112200D02*
X0093480Y0112200D01*
X0093480Y0111500D02*
X0093480Y0112900D01*
X0092080Y0109700D02*
X0089280Y0109700D01*
X0092080Y0109700D02*
X0093480Y0108300D01*
X0092080Y0106900D01*
X0089280Y0106900D01*
X0127530Y0128520D02*
X0130330Y0128520D01*
X0131730Y0129920D01*
X0130330Y0131320D01*
X0127530Y0131320D01*
X0128230Y0133130D02*
X0131030Y0133130D01*
X0131730Y0133830D01*
X0131730Y0135230D01*
X0131030Y0135930D01*
X0128230Y0135930D01*
X0127530Y0135230D01*
X0127530Y0133830D01*
X0128230Y0133130D01*
X0129630Y0137730D02*
X0129630Y0139830D01*
X0130330Y0140530D01*
X0131030Y0140530D01*
X0131730Y0139830D01*
X0131730Y0138430D01*
X0131030Y0137730D01*
X0129630Y0137730D01*
X0128230Y0139130D01*
X0127530Y0140530D01*
X0127400Y0149400D02*
X0130210Y0149400D01*
X0131610Y0150800D01*
X0130210Y0152200D01*
X0127400Y0152200D01*
X0128100Y0154000D02*
X0130910Y0154000D01*
X0131610Y0154700D01*
X0131610Y0156100D01*
X0130910Y0156800D01*
X0128100Y0156800D01*
X0127400Y0156100D01*
X0127400Y0154700D01*
X0128100Y0154000D01*
X0127400Y0158600D02*
X0129500Y0158600D01*
X0128800Y0160010D01*
X0128800Y0160710D01*
X0129500Y0161410D01*
X0130910Y0161410D01*
X0131610Y0160710D01*
X0131610Y0159310D01*
X0130910Y0158600D01*
X0127400Y0158600D02*
X0127400Y0161410D01*
X0135650Y0172830D02*
X0138460Y0172830D01*
X0139860Y0174240D01*
X0138460Y0175640D01*
X0135650Y0175640D01*
X0136350Y0177440D02*
X0135650Y0178140D01*
X0135650Y0179540D01*
X0136350Y0180240D01*
X0139160Y0180240D01*
X0139860Y0179540D01*
X0139860Y0178140D01*
X0139160Y0177440D01*
X0136350Y0177440D01*
X0137750Y0182040D02*
X0137750Y0184850D01*
X0135650Y0184140D02*
X0139860Y0184140D01*
X0137750Y0182040D02*
X0135650Y0184140D01*
X0128290Y0184220D02*
X0127590Y0183520D01*
X0126190Y0183520D01*
X0125490Y0184220D01*
X0123690Y0184220D02*
X0123690Y0187020D01*
X0123217Y0187500D01*
X0122990Y0187730D02*
X0121363Y0187500D02*
X0120890Y0187020D01*
X0120890Y0184220D01*
X0121590Y0183520D01*
X0122990Y0183520D01*
X0123690Y0184220D01*
X0125490Y0187020D02*
X0125963Y0187500D01*
X0126190Y0187730D02*
X0127817Y0187500D02*
X0128290Y0187020D01*
X0128290Y0186320D01*
X0127590Y0185620D01*
X0128290Y0184920D01*
X0128290Y0184220D01*
X0127590Y0185620D02*
X0126890Y0185620D01*
X0119080Y0184920D02*
X0119080Y0187500D01*
X0119080Y0187730D02*
X0116280Y0187500D02*
X0116280Y0184920D01*
X0117680Y0183520D01*
X0119080Y0184920D01*
X0089730Y0173910D02*
X0089730Y0171100D01*
X0086930Y0173910D01*
X0086230Y0173910D01*
X0085530Y0173210D01*
X0085530Y0171810D01*
X0086230Y0171100D01*
X0086230Y0169300D02*
X0085530Y0168600D01*
X0085530Y0167200D01*
X0086230Y0166500D01*
X0089030Y0166500D01*
X0089730Y0167200D01*
X0089730Y0168600D01*
X0089030Y0169300D01*
X0086230Y0169300D01*
X0085530Y0164700D02*
X0088330Y0164700D01*
X0089730Y0163300D01*
X0088330Y0161900D01*
X0085530Y0161900D01*
D14*
X0082360Y0102100D02*
X0082360Y0187900D01*
X0148160Y0187900D01*
X0148160Y0102100D01*
X0082360Y0102100D01*
X0155260Y0102500D02*
G75*
%LPD*%
D16*
X0155260Y0102500D02*
X0155260Y0187250D01*
X0219270Y0187250D01*
X0219270Y0102500D01*
X0155260Y0102500D01*
D11*
X0157760Y0105000D02*
X0170260Y0105000D01*
X0187130Y0121870D01*
X0187760Y0121870D01*
X0204630Y0105000D01*
X0217130Y0105000D01*
X0217130Y0185000D01*
X0199630Y0185000D01*
X0199630Y0135000D01*
X0191510Y0143120D01*
X0183380Y0143120D01*
X0175260Y0135000D01*
X0175260Y0185000D01*
X0157760Y0185000D01*
X0157760Y0105000D01*
D13*
X0162760Y0107500D02*
X0162760Y0122500D01*
X0170260Y0122500D01*
X0170260Y0108750D01*
X0169010Y0107500D01*
X0162760Y0107500D01*
X0170880Y0113750D02*
X0170880Y0128750D01*
X0178380Y0128750D01*
X0178380Y0115000D01*
X0177130Y0113750D01*
X0170880Y0113750D01*
X0169010Y0121250D02*
X0170260Y0122500D01*
X0170260Y0136250D01*
X0162760Y0136250D01*
X0162760Y0121250D01*
X0169010Y0121250D01*
X0169010Y0130000D02*
X0162760Y0130000D01*
X0162760Y0145000D01*
X0170260Y0145000D01*
X0170260Y0131250D01*
X0169010Y0130000D01*
X0169010Y0138750D02*
X0162760Y0138750D01*
X0162760Y0153750D01*
X0170260Y0153750D01*
X0170260Y0140000D01*
X0169010Y0138750D01*
X0179010Y0137500D02*
X0186510Y0137500D01*
X0186510Y0123750D01*
X0185260Y0122500D01*
X0179010Y0122500D01*
X0179010Y0137500D01*
X0187130Y0137500D02*
X0194630Y0137500D01*
X0194630Y0123750D01*
X0193380Y0122500D01*
X0187130Y0122500D01*
X0187130Y0137500D01*
X0195260Y0128750D02*
X0202760Y0128750D01*
X0202760Y0115000D01*
X0201510Y0113750D01*
X0195260Y0113750D01*
X0195260Y0128750D01*
X0204630Y0130000D02*
X0204630Y0145000D01*
X0212130Y0145000D01*
X0212130Y0131250D01*
X0210880Y0130000D01*
X0204630Y0130000D01*
X0204630Y0136250D02*
X0212130Y0136250D01*
X0212130Y0122500D01*
X0210880Y0121250D01*
X0204630Y0121250D01*
X0204630Y0136250D01*
X0204630Y0138750D02*
X0204630Y0153750D01*
X0212130Y0153750D01*
X0210880Y0152500D01*
X0204630Y0152500D01*
X0204630Y0167500D01*
X0212130Y0167500D01*
X0212130Y0153750D01*
X0212130Y0140000D01*
X0210880Y0138750D01*
X0204630Y0138750D01*
X0204630Y0122500D02*
X0212130Y0122500D01*
X0212130Y0108750D01*
X0210880Y0107500D01*
X0204630Y0107500D01*
X0204630Y0122500D01*
X0170260Y0153750D02*
X0169010Y0152500D01*
X0162760Y0152500D01*
X0162760Y0167500D01*
X0170260Y0167500D01*
X0170260Y0153750D01*
X0169010Y0161250D02*
X0170260Y0162500D01*
X0170260Y0176250D01*
X0162760Y0176250D01*
X0162760Y0161250D01*
X0169010Y0161250D01*
X0169010Y0170000D02*
X0162760Y0170000D01*
X0162760Y0185000D01*
X0170260Y0185000D01*
X0170260Y0171250D01*
X0169010Y0170000D01*
X0204630Y0170000D02*
X0204630Y0185000D01*
X0212130Y0185000D01*
X0212130Y0171250D01*
X0210880Y0170000D01*
X0204630Y0170000D01*
X0204630Y0176250D02*
X0212130Y0176250D01*
X0212130Y0162500D01*
X0210880Y0161250D01*
X0204630Y0161250D01*
X0204630Y0176250D01*
D14*
X0202780Y0170780D02*
X0202080Y0170780D01*
X0201380Y0170080D01*
X0201380Y0167980D01*
X0202780Y0167980D01*
X0203480Y0168680D01*
X0203480Y0170080D01*
X0202780Y0170780D01*
X0199980Y0169380D02*
X0201380Y0167980D01*
X0199980Y0169380D02*
X0199280Y0170780D01*
X0199980Y0166180D02*
X0199280Y0165480D01*
X0199280Y0164080D01*
X0199980Y0163380D01*
X0202780Y0163380D01*
X0203480Y0164080D01*
X0203480Y0165480D01*
X0202780Y0166180D01*
X0199980Y0166180D01*
X0199280Y0161570D02*
X0202080Y0161570D01*
X0203480Y0160170D01*
X0202080Y0158770D01*
X0199280Y0158770D01*
X0199900Y0141410D02*
X0199900Y0138600D01*
X0202000Y0138600D01*
X0201300Y0140010D01*
X0201300Y0140710D01*
X0202000Y0141410D01*
X0203410Y0141410D01*
X0204110Y0140710D01*
X0204110Y0139310D01*
X0203410Y0138600D01*
X0203410Y0136800D02*
X0200600Y0136800D01*
X0199900Y0136100D01*
X0199900Y0134700D01*
X0200600Y0134000D01*
X0203410Y0134000D01*
X0204110Y0134700D01*
X0204110Y0136100D01*
X0203410Y0136800D01*
X0202710Y0132200D02*
X0199900Y0132200D01*
X0199900Y0129400D02*
X0202710Y0129400D01*
X0204110Y0130800D01*
X0202710Y0132200D01*
X0192840Y0120350D02*
X0191440Y0120350D01*
X0190740Y0119650D01*
X0192140Y0118250D02*
X0192840Y0118250D01*
X0193540Y0117550D01*
X0193540Y0116850D01*
X0192840Y0116150D01*
X0191440Y0116150D01*
X0190740Y0116850D01*
X0192840Y0118250D02*
X0193540Y0118950D01*
X0193540Y0119650D01*
X0192840Y0120350D01*
X0188940Y0119650D02*
X0188940Y0116850D01*
X0188240Y0116150D01*
X0186840Y0116150D01*
X0186140Y0116850D01*
X0186140Y0119650D01*
X0186840Y0120350D01*
X0188240Y0120350D01*
X0188940Y0119650D01*
X0184330Y0120350D02*
X0184330Y0117550D01*
X0182930Y0116150D01*
X0181530Y0117550D01*
X0181530Y0120350D01*
X0189720Y0111980D02*
X0189720Y0109170D01*
X0191120Y0107770D01*
X0192520Y0109170D01*
X0192520Y0111980D01*
X0194320Y0111270D02*
X0194320Y0108470D01*
X0195020Y0107770D01*
X0196430Y0107770D01*
X0197130Y0108470D01*
X0197130Y0111270D01*
X0196430Y0111980D01*
X0195020Y0111980D01*
X0194320Y0111270D01*
X0198930Y0109870D02*
X0201730Y0109870D01*
X0201030Y0107770D02*
X0201030Y0111980D01*
X0198930Y0109870D01*
X0162480Y0110860D02*
X0161080Y0112260D01*
X0158280Y0112260D01*
X0158980Y0114060D02*
X0158280Y0114760D01*
X0158280Y0116170D01*
X0158980Y0116870D01*
X0161780Y0116870D01*
X0162480Y0116170D01*
X0162480Y0114760D01*
X0161780Y0114060D01*
X0158980Y0114060D01*
X0158980Y0118670D02*
X0158280Y0119370D01*
X0158280Y0120770D01*
X0158980Y0121470D01*
X0159680Y0121470D01*
X0162480Y0118670D01*
X0162480Y0121470D01*
X0162480Y0110860D02*
X0161080Y0109460D01*
X0158280Y0109460D01*
X0158280Y0141330D02*
X0161080Y0141330D01*
X0162480Y0142740D01*
X0161080Y0144140D01*
X0158280Y0144140D01*
X0158980Y0145940D02*
X0161780Y0145940D01*
X0162480Y0146640D01*
X0162480Y0148040D01*
X0161780Y0148740D01*
X0158980Y0148740D01*
X0158280Y0148040D01*
X0158280Y0146640D01*
X0158980Y0145940D01*
X0159680Y0150540D02*
X0158280Y0151940D01*
X0162480Y0151940D01*
X0162480Y0150540D02*
X0162480Y0153350D01*
X0170780Y0167870D02*
X0173580Y0167870D01*
X0174980Y0169270D01*
X0173580Y0170670D01*
X0170780Y0170670D01*
X0170780Y0172470D02*
X0170780Y0173870D01*
X0170780Y0173170D02*
X0174980Y0173170D01*
X0174980Y0172470D02*
X0174980Y0173870D01*
X0174980Y0175540D02*
X0170780Y0175540D01*
X0174980Y0178350D01*
X0170780Y0178350D01*
D14*
X0154860Y0102100D02*
X0154860Y0187650D01*
X0219670Y0187650D01*
X0219670Y0102100D01*
X0154860Y0102100D01*
X0226770Y0102500D02*
G75*
%LPD*%
D16*
X0226770Y0102500D02*
X0226770Y0187500D01*
X0291770Y0187500D01*
X0291770Y0102500D01*
X0226770Y0102500D01*
D11*
X0229270Y0105000D02*
X0288020Y0105000D01*
X0288020Y0122500D01*
X0246770Y0122500D01*
X0246770Y0136250D01*
X0271770Y0136250D01*
X0271770Y0153750D01*
X0246770Y0153750D01*
X0246770Y0167500D01*
X0288020Y0167500D01*
X0288020Y0185000D01*
X0229270Y0185000D01*
X0229270Y0105000D01*
D13*
X0232390Y0110000D02*
X0231140Y0111250D01*
X0231140Y0117500D01*
X0246140Y0117500D01*
X0246140Y0110000D01*
X0232390Y0110000D01*
X0231770Y0113120D02*
X0231770Y0126870D01*
X0231770Y0140620D01*
X0233020Y0141870D01*
X0239270Y0141870D01*
X0239270Y0126870D01*
X0231770Y0126870D01*
X0233020Y0128120D01*
X0239270Y0128120D01*
X0239270Y0113120D01*
X0231770Y0113120D01*
X0239890Y0111250D02*
X0241140Y0110000D01*
X0254890Y0110000D01*
X0254890Y0117500D01*
X0239890Y0117500D01*
X0239890Y0111250D01*
X0253640Y0111250D02*
X0254890Y0110000D01*
X0268640Y0110000D01*
X0268640Y0117500D01*
X0253640Y0117500D01*
X0253640Y0111250D01*
X0262390Y0111250D02*
X0263640Y0110000D01*
X0277390Y0110000D01*
X0277390Y0117500D01*
X0262390Y0117500D01*
X0262390Y0111250D01*
X0271140Y0111250D02*
X0272390Y0110000D01*
X0286140Y0110000D01*
X0286140Y0117500D01*
X0271140Y0117500D01*
X0271140Y0111250D01*
X0270520Y0141250D02*
X0255520Y0141250D01*
X0255520Y0148750D01*
X0269270Y0148750D01*
X0270520Y0147500D01*
X0270520Y0141250D01*
X0261770Y0141250D02*
X0246770Y0141250D01*
X0246770Y0148750D01*
X0260520Y0148750D01*
X0261770Y0147500D01*
X0261770Y0141250D01*
X0253020Y0141250D02*
X0238020Y0141250D01*
X0238020Y0148750D01*
X0251770Y0148750D01*
X0253020Y0147500D01*
X0253020Y0141250D01*
X0239270Y0145000D02*
X0231770Y0145000D01*
X0231770Y0158750D01*
X0231770Y0172500D01*
X0233020Y0173750D01*
X0239270Y0173750D01*
X0239270Y0158750D01*
X0231770Y0158750D01*
X0233020Y0160000D01*
X0239270Y0160000D01*
X0239270Y0145000D01*
X0239270Y0151250D02*
X0239270Y0136250D01*
X0231770Y0136250D01*
X0231770Y0150000D01*
X0233020Y0151250D01*
X0239270Y0151250D01*
X0239270Y0167500D02*
X0231770Y0167500D01*
X0231770Y0181250D01*
X0233020Y0182500D01*
X0239270Y0182500D01*
X0239270Y0167500D01*
X0236140Y0174370D02*
X0236140Y0181870D01*
X0249890Y0181870D01*
X0251140Y0180620D01*
X0251140Y0174370D01*
X0236140Y0174370D01*
X0251770Y0174370D02*
X0251770Y0181870D01*
X0265520Y0181870D01*
X0266770Y0180620D01*
X0266770Y0174370D01*
X0251770Y0174370D01*
X0261770Y0174370D02*
X0261770Y0181870D01*
X0275520Y0181870D01*
X0276770Y0180620D01*
X0276770Y0174370D01*
X0261770Y0174370D01*
X0271770Y0174370D02*
X0271770Y0181870D01*
X0285520Y0181870D01*
X0286770Y0180620D01*
X0286770Y0174370D01*
X0271770Y0174370D01*
D14*
X0271220Y0173350D02*
X0270520Y0172650D01*
X0270520Y0169850D01*
X0271220Y0169150D01*
X0272620Y0169150D01*
X0273320Y0169850D01*
X0273320Y0172650D01*
X0272620Y0173350D01*
X0271220Y0173350D01*
X0268720Y0173350D02*
X0268720Y0170550D01*
X0267320Y0169150D01*
X0265920Y0170550D01*
X0265920Y0173350D01*
X0262930Y0171250D02*
X0260120Y0171250D01*
X0262230Y0173350D01*
X0262230Y0169150D01*
X0258320Y0169850D02*
X0257620Y0169150D01*
X0256220Y0169150D01*
X0255520Y0169850D01*
X0255520Y0172650D01*
X0256220Y0173350D01*
X0257620Y0173350D01*
X0258320Y0172650D01*
X0258320Y0169850D01*
X0253720Y0170550D02*
X0253720Y0173350D01*
X0253720Y0170550D02*
X0252320Y0169150D01*
X0250920Y0170550D01*
X0250920Y0173350D01*
X0244370Y0170710D02*
X0244370Y0169310D01*
X0243670Y0168600D01*
X0243670Y0166800D02*
X0240860Y0166800D01*
X0240160Y0166100D01*
X0240160Y0164700D01*
X0240860Y0164000D01*
X0243670Y0164000D01*
X0244370Y0164700D01*
X0244370Y0166100D01*
X0243670Y0166800D01*
X0240860Y0168600D02*
X0240160Y0169310D01*
X0240160Y0170710D01*
X0240860Y0171410D01*
X0241560Y0171410D01*
X0242260Y0170710D01*
X0242970Y0171410D01*
X0243670Y0171410D01*
X0244370Y0170710D01*
X0242260Y0170710D02*
X0242260Y0170010D01*
X0242970Y0162200D02*
X0240160Y0162200D01*
X0240160Y0159400D02*
X0242970Y0159400D01*
X0244370Y0160800D01*
X0242970Y0162200D01*
X0249040Y0152730D02*
X0249040Y0149920D01*
X0250440Y0148520D01*
X0251840Y0149920D01*
X0251840Y0152730D01*
X0253650Y0152020D02*
X0253650Y0149220D01*
X0254350Y0148520D01*
X0255750Y0148520D01*
X0256450Y0149220D01*
X0256450Y0152020D01*
X0255750Y0152730D01*
X0254350Y0152730D01*
X0253650Y0152020D01*
X0258250Y0150620D02*
X0258250Y0149220D01*
X0258950Y0148520D01*
X0260350Y0148520D01*
X0261050Y0149220D01*
X0261050Y0149920D01*
X0260350Y0150620D01*
X0258250Y0150620D01*
X0259650Y0152020D01*
X0261050Y0152730D01*
X0275830Y0169150D02*
X0275120Y0169850D01*
X0275830Y0169150D02*
X0277230Y0169150D01*
X0277930Y0169850D01*
X0277930Y0171250D01*
X0277230Y0171950D01*
X0276530Y0171950D01*
X0275120Y0171250D01*
X0275120Y0173350D01*
X0277930Y0173350D01*
X0244370Y0140160D02*
X0244370Y0137350D01*
X0241560Y0140160D01*
X0240860Y0140160D01*
X0240160Y0139460D01*
X0240160Y0138060D01*
X0240860Y0137350D01*
X0240860Y0135550D02*
X0240160Y0134850D01*
X0240160Y0133450D01*
X0240860Y0132750D01*
X0243670Y0132750D01*
X0244370Y0133450D01*
X0244370Y0134850D01*
X0243670Y0135550D01*
X0240860Y0135550D01*
X0240160Y0130950D02*
X0242970Y0130950D01*
X0244370Y0129550D01*
X0242970Y0128150D01*
X0240160Y0128150D01*
X0242170Y0120850D02*
X0242170Y0118050D01*
X0243570Y0116650D01*
X0244970Y0118050D01*
X0244970Y0120850D01*
X0246770Y0120150D02*
X0246770Y0117350D01*
X0247470Y0116650D01*
X0248870Y0116650D01*
X0249570Y0117350D01*
X0249570Y0120150D01*
X0248870Y0120850D01*
X0247470Y0120850D01*
X0246770Y0120150D01*
X0251370Y0119450D02*
X0252780Y0120850D01*
X0252780Y0116650D01*
X0254180Y0116650D02*
X0251370Y0116650D01*
X0265920Y0119300D02*
X0267320Y0117900D01*
X0268720Y0119300D01*
X0268720Y0122100D01*
X0270520Y0122100D02*
X0271920Y0122100D01*
X0271220Y0122100D02*
X0271220Y0117900D01*
X0270520Y0117900D02*
X0271920Y0117900D01*
X0273590Y0117900D02*
X0273590Y0122100D01*
X0276390Y0117900D01*
X0276390Y0122100D01*
X0265920Y0122100D02*
X0265920Y0119300D01*
D14*
X0226370Y0102100D02*
X0226370Y0187900D01*
X0292170Y0187900D01*
X0292170Y0102100D01*
X0226370Y0102100D01*
X0299270Y0102500D02*
G75*
%LPD*%
D16*
X0299270Y0102500D02*
X0299270Y0187500D01*
X0363020Y0187500D01*
X0363020Y0102500D01*
X0299270Y0102500D01*
D11*
X0301770Y0103750D02*
X0319270Y0103750D01*
X0319270Y0121870D01*
X0331140Y0121870D01*
X0347390Y0105620D01*
X0347830Y0105220D01*
X0348300Y0104860D01*
X0348790Y0104530D01*
X0349300Y0104230D01*
X0349830Y0103960D01*
X0350380Y0103730D01*
X0350940Y0103530D01*
X0351510Y0103370D01*
X0352090Y0103250D01*
X0352680Y0103170D01*
X0353270Y0103130D01*
X0353860Y0103120D01*
X0354450Y0103160D01*
X0355040Y0103230D01*
X0355620Y0103340D01*
X0356200Y0103490D01*
X0356760Y0103670D01*
X0357310Y0103900D01*
X0357840Y0104150D01*
X0358360Y0104450D01*
X0358860Y0104770D01*
X0359330Y0105130D01*
X0359780Y0105520D01*
X0360200Y0105930D01*
X0360600Y0106370D01*
X0360960Y0106840D01*
X0361290Y0107330D01*
X0361590Y0107840D01*
X0361860Y0108370D01*
X0362090Y0108920D01*
X0362290Y0109480D01*
X0362450Y0110050D01*
X0362570Y0110630D01*
X0362650Y0111220D01*
X0362690Y0111810D01*
X0362700Y0112400D01*
X0362660Y0112990D01*
X0362590Y0113580D01*
X0362480Y0114160D01*
X0362330Y0114740D01*
X0362150Y0115300D01*
X0361920Y0115850D01*
X0361670Y0116380D01*
X0361370Y0116900D01*
X0361050Y0117400D01*
X0360690Y0117870D01*
X0360300Y0118320D01*
X0359890Y0118740D01*
X0359890Y0118750D02*
X0348640Y0130000D01*
X0358640Y0140000D01*
X0361140Y0145000D02*
X0361140Y0165620D01*
X0358020Y0174370D02*
X0351770Y0181250D01*
X0343020Y0185000D02*
X0301770Y0185000D01*
X0301770Y0103750D01*
X0315810Y0159370D02*
X0315830Y0160100D01*
X0315890Y0160830D01*
X0315990Y0161550D01*
X0316120Y0162260D01*
X0316300Y0162970D01*
X0316510Y0163670D01*
X0316770Y0164350D01*
X0317050Y0165020D01*
X0317380Y0165670D01*
X0317740Y0166310D01*
X0318130Y0166920D01*
X0318550Y0167520D01*
X0319010Y0168080D01*
X0319500Y0168630D01*
X0320010Y0169140D01*
X0320560Y0169630D01*
X0321120Y0170090D01*
X0321720Y0170510D01*
X0322330Y0170900D01*
X0322970Y0171260D01*
X0323620Y0171590D01*
X0324290Y0171870D01*
X0324970Y0172130D01*
X0325670Y0172340D01*
X0326380Y0172520D01*
X0327090Y0172650D01*
X0327810Y0172750D01*
X0328540Y0172810D01*
X0329270Y0172830D01*
X0330000Y0172810D01*
X0330730Y0172750D01*
X0331450Y0172650D01*
X0332160Y0172520D01*
X0332870Y0172340D01*
X0333570Y0172130D01*
X0334250Y0171870D01*
X0334920Y0171590D01*
X0335570Y0171260D01*
X0336210Y0170900D01*
X0336820Y0170510D01*
X0337420Y0170090D01*
X0337980Y0169630D01*
X0338530Y0169140D01*
X0339040Y0168630D01*
X0339530Y0168080D01*
X0339990Y0167520D01*
X0340410Y0166920D01*
X0340800Y0166310D01*
X0341160Y0165670D01*
X0341490Y0165020D01*
X0341770Y0164350D01*
X0342030Y0163670D01*
X0342240Y0162970D01*
X0342420Y0162260D01*
X0342550Y0161550D01*
X0342650Y0160830D01*
X0342710Y0160100D01*
X0342730Y0159370D01*
X0342710Y0158640D01*
X0342650Y0157910D01*
X0342550Y0157190D01*
X0342420Y0156480D01*
X0342240Y0155770D01*
X0342030Y0155070D01*
X0341770Y0154390D01*
X0341490Y0153720D01*
X0341160Y0153070D01*
X0340800Y0152430D01*
X0340410Y0151820D01*
X0339990Y0151220D01*
X0339530Y0150660D01*
X0339040Y0150110D01*
X0338530Y0149600D01*
X0337980Y0149110D01*
X0337420Y0148650D01*
X0336820Y0148230D01*
X0336210Y0147840D01*
X0335570Y0147480D01*
X0334920Y0147150D01*
X0334250Y0146870D01*
X0333570Y0146610D01*
X0332870Y0146400D01*
X0332160Y0146220D01*
X0331450Y0146090D01*
X0330730Y0145990D01*
X0330000Y0145930D01*
X0329270Y0145910D01*
X0328540Y0145930D01*
X0327810Y0145990D01*
X0327090Y0146090D01*
X0326380Y0146220D01*
X0325670Y0146400D01*
X0324970Y0146610D01*
X0324290Y0146870D01*
X0323620Y0147150D01*
X0322970Y0147480D01*
X0322330Y0147840D01*
X0321720Y0148230D01*
X0321120Y0148650D01*
X0320560Y0149110D01*
X0320010Y0149600D01*
X0319500Y0150110D01*
X0319010Y0150660D01*
X0318550Y0151220D01*
X0318130Y0151820D01*
X0317740Y0152430D01*
X0317380Y0153070D01*
X0317050Y0153720D01*
X0316770Y0154390D01*
X0316510Y0155070D01*
X0316300Y0155770D01*
X0316120Y0156480D01*
X0315990Y0157190D01*
X0315890Y0157910D01*
X0315830Y0158640D01*
X0315810Y0159370D01*
X0343010Y0185000D02*
X0343670Y0185010D01*
X0344330Y0184980D01*
X0344980Y0184910D01*
X0345630Y0184810D01*
X0346270Y0184660D01*
X0346900Y0184480D01*
X0347520Y0184250D01*
X0348120Y0184000D01*
X0348710Y0183700D01*
X0349270Y0183370D01*
X0349820Y0183010D01*
X0350350Y0182610D01*
X0350850Y0182190D01*
X0351320Y0181730D01*
X0351760Y0181250D01*
X0358020Y0174370D02*
X0358460Y0173910D01*
X0358880Y0173420D01*
X0359270Y0172910D01*
X0359620Y0172370D01*
X0359940Y0171820D01*
X0360230Y0171250D01*
X0360480Y0170660D01*
X0360690Y0170050D01*
X0360870Y0169440D01*
X0361010Y0168810D01*
X0361120Y0168180D01*
X0361180Y0167540D01*
X0361210Y0166900D01*
X0361200Y0166260D01*
X0361150Y0165620D01*
X0361140Y0145000D02*
X0361120Y0144520D01*
X0361060Y0144040D01*
X0360960Y0143570D01*
X0360830Y0143100D01*
X0360660Y0142650D01*
X0360470Y0142210D01*
X0360230Y0141790D01*
X0359970Y0141390D01*
X0359680Y0141000D01*
X0359360Y0140640D01*
X0359010Y0140310D01*
X0358640Y0140000D01*
D13*
X0358020Y0143750D02*
X0343020Y0143750D01*
X0343020Y0151250D01*
X0356770Y0151250D01*
X0358020Y0150000D01*
X0358020Y0143750D01*
X0351770Y0143750D02*
X0351770Y0137500D01*
X0336770Y0137500D01*
X0336770Y0145000D01*
X0350520Y0145000D01*
X0351770Y0143750D01*
X0345520Y0151250D02*
X0345520Y0158750D01*
X0359270Y0158750D01*
X0360520Y0157500D01*
X0360520Y0151250D01*
X0345520Y0151250D01*
X0345520Y0158750D02*
X0345520Y0166250D01*
X0359270Y0166250D01*
X0360520Y0165000D01*
X0360520Y0158750D01*
X0345520Y0158750D01*
X0343020Y0166250D02*
X0343020Y0173750D01*
X0356770Y0173750D01*
X0358020Y0172500D01*
X0358020Y0166250D01*
X0343020Y0166250D01*
X0336770Y0173750D02*
X0321770Y0173750D01*
X0321770Y0181250D01*
X0335520Y0181250D01*
X0349270Y0181250D01*
X0350520Y0180000D01*
X0350520Y0173750D01*
X0335520Y0173750D01*
X0335520Y0181250D01*
X0336770Y0180000D01*
X0336770Y0173750D01*
X0326770Y0173750D02*
X0311770Y0173750D01*
X0311770Y0181250D01*
X0325520Y0181250D01*
X0326770Y0180000D01*
X0326770Y0173750D01*
X0314270Y0167500D02*
X0314270Y0152500D01*
X0306770Y0152500D01*
X0306770Y0166250D01*
X0306770Y0180000D01*
X0308020Y0181250D01*
X0314270Y0181250D01*
X0314270Y0166250D01*
X0306770Y0166250D01*
X0308020Y0167500D01*
X0314270Y0167500D01*
X0314270Y0158750D02*
X0308020Y0158750D01*
X0306770Y0157500D01*
X0306770Y0143750D01*
X0314270Y0143750D01*
X0314270Y0158750D01*
X0314270Y0150000D02*
X0308020Y0150000D01*
X0306770Y0148750D01*
X0306770Y0135000D01*
X0314270Y0135000D01*
X0314270Y0150000D01*
X0323020Y0144370D02*
X0336770Y0144370D01*
X0338020Y0143120D01*
X0338020Y0136870D01*
X0323020Y0136870D01*
X0323020Y0144370D01*
X0318020Y0136870D02*
X0331770Y0136870D01*
X0333020Y0135620D01*
X0333020Y0129370D01*
X0318020Y0129370D01*
X0318020Y0136870D01*
X0314270Y0136250D02*
X0314270Y0121250D01*
X0306770Y0121250D01*
X0306770Y0135000D01*
X0308020Y0136250D01*
X0314270Y0136250D01*
X0314270Y0127500D02*
X0308020Y0127500D01*
X0306770Y0126250D01*
X0306770Y0112500D01*
X0314270Y0112500D01*
X0314270Y0127500D01*
X0314270Y0118750D02*
X0308020Y0118750D01*
X0306770Y0117500D01*
X0306770Y0103750D01*
X0314270Y0103750D01*
X0314270Y0118750D01*
X0324270Y0123750D02*
X0324270Y0131250D01*
X0338020Y0131250D01*
X0339270Y0130000D01*
X0339270Y0123750D01*
X0324270Y0123750D01*
X0333020Y0125000D02*
X0333020Y0117500D01*
X0348020Y0117500D01*
X0348020Y0123750D01*
X0346770Y0125000D01*
X0333020Y0125000D01*
X0340520Y0118750D02*
X0354270Y0118750D01*
X0355520Y0117500D01*
X0355520Y0111250D01*
X0340520Y0111250D01*
X0340520Y0118750D01*
X0346770Y0112500D02*
X0360520Y0112500D01*
X0361770Y0111250D01*
X0361770Y0105000D01*
X0346770Y0105000D01*
X0346770Y0112500D01*
D14*
X0353170Y0118220D02*
X0353660Y0118710D01*
X0357620Y0118710D01*
X0358120Y0119210D01*
X0356140Y0121190D01*
X0354370Y0121970D02*
X0354370Y0122960D01*
X0353380Y0123950D01*
X0352390Y0123950D01*
X0350410Y0121970D01*
X0350410Y0120980D01*
X0351400Y0119990D01*
X0352390Y0119990D01*
X0354370Y0121970D01*
X0351610Y0125720D02*
X0349630Y0123740D01*
X0347650Y0123740D01*
X0347650Y0125720D01*
X0349630Y0127700D01*
X0354790Y0131330D02*
X0357590Y0131330D01*
X0358990Y0132740D01*
X0357590Y0134140D01*
X0354790Y0134140D01*
X0355490Y0135940D02*
X0358290Y0135940D01*
X0358990Y0136640D01*
X0358990Y0138040D01*
X0358290Y0138740D01*
X0355490Y0138740D01*
X0354790Y0138040D01*
X0354790Y0136640D01*
X0355490Y0135940D01*
X0354790Y0140540D02*
X0356890Y0140540D01*
X0356190Y0141940D01*
X0356190Y0142640D01*
X0356890Y0143350D01*
X0358290Y0143350D01*
X0358990Y0142640D01*
X0358990Y0141240D01*
X0358290Y0140540D01*
X0354790Y0140540D02*
X0354790Y0143350D01*
X0345050Y0137850D02*
X0343650Y0137150D01*
X0342250Y0135750D01*
X0344350Y0135750D01*
X0345050Y0135050D01*
X0345050Y0134350D01*
X0344350Y0133650D01*
X0342950Y0133650D01*
X0342250Y0134350D01*
X0342250Y0135750D01*
X0340450Y0134350D02*
X0340450Y0137150D01*
X0339750Y0137850D01*
X0338350Y0137850D01*
X0337650Y0137150D01*
X0337650Y0134350D01*
X0338350Y0133650D01*
X0339750Y0133650D01*
X0340450Y0134350D01*
X0335840Y0135050D02*
X0335840Y0137850D01*
X0333040Y0137850D02*
X0333040Y0135050D01*
X0334440Y0133650D01*
X0335840Y0135050D01*
X0306490Y0137740D02*
X0305090Y0139140D01*
X0302290Y0139140D01*
X0302990Y0140940D02*
X0302290Y0141640D01*
X0302290Y0143040D01*
X0302990Y0143740D01*
X0305790Y0143740D01*
X0306490Y0143040D01*
X0306490Y0141640D01*
X0305790Y0140940D01*
X0302990Y0140940D01*
X0303690Y0145540D02*
X0302290Y0146940D01*
X0306490Y0146940D01*
X0306490Y0145540D02*
X0306490Y0148350D01*
X0306490Y0137740D02*
X0305090Y0136330D01*
X0302290Y0136330D01*
X0302660Y0123620D02*
X0306870Y0123620D01*
X0302660Y0120820D01*
X0306870Y0120820D01*
X0306870Y0119150D02*
X0306870Y0117750D01*
X0306870Y0118450D02*
X0302660Y0118450D01*
X0302660Y0117750D02*
X0302660Y0119150D01*
X0302660Y0115950D02*
X0305470Y0115950D01*
X0306870Y0114550D01*
X0305470Y0113150D01*
X0302660Y0113150D01*
X0302290Y0167580D02*
X0305090Y0167580D01*
X0306490Y0168990D01*
X0305090Y0170390D01*
X0302290Y0170390D01*
X0302990Y0172190D02*
X0305790Y0172190D01*
X0306490Y0172890D01*
X0306490Y0174290D01*
X0305790Y0174990D01*
X0302990Y0174990D01*
X0302290Y0174290D01*
X0302290Y0172890D01*
X0302990Y0172190D01*
X0302990Y0176790D02*
X0302290Y0177490D01*
X0302290Y0178890D01*
X0302990Y0179600D01*
X0303690Y0179600D01*
X0306490Y0176790D01*
X0306490Y0179600D01*
X0314980Y0181670D02*
X0316380Y0180270D01*
X0317780Y0181670D01*
X0317780Y0184480D01*
X0319580Y0183770D02*
X0319580Y0180970D01*
X0320280Y0180270D01*
X0321690Y0180270D01*
X0322390Y0180970D01*
X0322390Y0183770D01*
X0321690Y0184480D01*
X0320280Y0184480D01*
X0319580Y0183770D01*
X0324190Y0183770D02*
X0324890Y0184480D01*
X0326290Y0184480D01*
X0326990Y0183770D01*
X0326990Y0183070D01*
X0326290Y0182370D01*
X0326990Y0181670D01*
X0326990Y0180970D01*
X0326290Y0180270D01*
X0324890Y0180270D01*
X0324190Y0180970D01*
X0325590Y0182370D02*
X0326290Y0182370D01*
X0314980Y0181670D02*
X0314980Y0184480D01*
X0350640Y0178920D02*
X0350640Y0176940D01*
X0352620Y0176940D01*
X0354600Y0178920D01*
X0355380Y0177150D02*
X0353400Y0175170D01*
X0353400Y0174180D01*
X0354390Y0173190D01*
X0355380Y0173190D01*
X0357360Y0175170D01*
X0357360Y0176160D01*
X0356370Y0177150D01*
X0355380Y0177150D01*
X0352620Y0180900D02*
X0350640Y0178920D01*
X0357650Y0172910D02*
X0359630Y0170930D01*
X0360620Y0172910D02*
X0357650Y0172910D01*
X0360620Y0172910D02*
X0357650Y0169930D01*
D14*
X0298870Y0102100D02*
X0298870Y0187900D01*
X0362620Y0187900D01*
X0362620Y0102100D01*
X0362620Y0102100D02*
X0298870Y0102100D01*
X0010000Y0195000D02*
G75*
%LPD*%
D16*
X0010000Y0195000D02*
X0010000Y0280000D01*
X0075000Y0280000D01*
X0075000Y0195000D01*
X0010000Y0195000D01*
D11*
X0012500Y0197500D02*
X0012500Y0277500D01*
X0055000Y0277500D01*
X0072500Y0255000D02*
X0072500Y0237500D01*
X0057500Y0220000D02*
X0030000Y0220000D01*
X0030000Y0197500D01*
X0012500Y0197500D01*
X0057500Y0220000D02*
X0058360Y0220260D01*
X0059220Y0220560D01*
X0060050Y0220900D01*
X0060880Y0221270D01*
X0061690Y0221680D01*
X0062470Y0222130D01*
X0063240Y0222610D01*
X0063990Y0223120D01*
X0064710Y0223660D01*
X0065410Y0224240D01*
X0066080Y0224840D01*
X0066730Y0225480D01*
X0067350Y0226140D01*
X0067940Y0226820D01*
X0068500Y0227540D01*
X0069020Y0228270D01*
X0069520Y0229030D01*
X0069980Y0229810D01*
X0070410Y0230610D01*
X0070800Y0231420D01*
X0071150Y0232250D01*
X0071470Y0233100D01*
X0071750Y0233960D01*
X0072000Y0234830D01*
X0072200Y0235710D01*
X0072370Y0236600D01*
X0072500Y0237500D01*
X0072490Y0254990D02*
X0072400Y0256000D01*
X0072270Y0257000D01*
X0072090Y0257990D01*
X0071880Y0258970D01*
X0071640Y0259950D01*
X0071350Y0260910D01*
X0071020Y0261870D01*
X0070660Y0262810D01*
X0070270Y0263730D01*
X0069830Y0264640D01*
X0069360Y0265530D01*
X0068860Y0266400D01*
X0068320Y0267260D01*
X0067750Y0268090D01*
X0067150Y0268890D01*
X0066510Y0269670D01*
X0065850Y0270430D01*
X0065160Y0271160D01*
X0064440Y0271870D01*
X0063690Y0272540D01*
X0062910Y0273180D01*
X0062120Y0273800D01*
X0061290Y0274380D01*
X0060450Y0274930D01*
X0059580Y0275440D01*
X0058700Y0275920D01*
X0057800Y0276370D01*
X0056880Y0276780D01*
X0055940Y0277150D01*
X0054990Y0277490D01*
X0030000Y0247500D02*
X0030020Y0248200D01*
X0030080Y0248900D01*
X0030180Y0249590D01*
X0030310Y0250280D01*
X0030490Y0250960D01*
X0030700Y0251630D01*
X0030950Y0252280D01*
X0031240Y0252920D01*
X0031560Y0253550D01*
X0031920Y0254150D01*
X0032310Y0254730D01*
X0032730Y0255290D01*
X0033180Y0255830D01*
X0033660Y0256340D01*
X0034170Y0256820D01*
X0034710Y0257270D01*
X0035270Y0257690D01*
X0035850Y0258080D01*
X0036450Y0258440D01*
X0037080Y0258760D01*
X0037720Y0259050D01*
X0038370Y0259300D01*
X0039040Y0259510D01*
X0039720Y0259690D01*
X0040410Y0259820D01*
X0041100Y0259920D01*
X0041800Y0259980D01*
X0042500Y0260000D01*
X0043200Y0259980D01*
X0043900Y0259920D01*
X0044590Y0259820D01*
X0045280Y0259690D01*
X0045960Y0259510D01*
X0046630Y0259300D01*
X0047280Y0259050D01*
X0047920Y0258760D01*
X0048550Y0258440D01*
X0049150Y0258080D01*
X0049730Y0257690D01*
X0050290Y0257270D01*
X0050830Y0256820D01*
X0051340Y0256340D01*
X0051820Y0255830D01*
X0052270Y0255290D01*
X0052690Y0254730D01*
X0053080Y0254150D01*
X0053440Y0253550D01*
X0053760Y0252920D01*
X0054050Y0252280D01*
X0054300Y0251630D01*
X0054510Y0250960D01*
X0054690Y0250280D01*
X0054820Y0249590D01*
X0054920Y0248900D01*
X0054980Y0248200D01*
X0055000Y0247500D01*
X0054980Y0246800D01*
X0054920Y0246100D01*
X0054820Y0245410D01*
X0054690Y0244720D01*
X0054510Y0244040D01*
X0054300Y0243370D01*
X0054050Y0242720D01*
X0053760Y0242080D01*
X0053440Y0241450D01*
X0053080Y0240850D01*
X0052690Y0240270D01*
X0052270Y0239710D01*
X0051820Y0239170D01*
X0051340Y0238660D01*
X0050830Y0238180D01*
X0050290Y0237730D01*
X0049730Y0237310D01*
X0049150Y0236920D01*
X0048550Y0236560D01*
X0047920Y0236240D01*
X0047280Y0235950D01*
X0046630Y0235700D01*
X0045960Y0235490D01*
X0045280Y0235310D01*
X0044590Y0235180D01*
X0043900Y0235080D01*
X0043200Y0235020D01*
X0042500Y0235000D01*
X0041800Y0235020D01*
X0041100Y0235080D01*
X0040410Y0235180D01*
X0039720Y0235310D01*
X0039040Y0235490D01*
X0038370Y0235700D01*
X0037720Y0235950D01*
X0037080Y0236240D01*
X0036450Y0236560D01*
X0035850Y0236920D01*
X0035270Y0237310D01*
X0034710Y0237730D01*
X0034170Y0238180D01*
X0033660Y0238660D01*
X0033180Y0239170D01*
X0032730Y0239710D01*
X0032310Y0240270D01*
X0031920Y0240850D01*
X0031560Y0241450D01*
X0031240Y0242080D01*
X0030950Y0242720D01*
X0030700Y0243370D01*
X0030490Y0244040D01*
X0030310Y0244720D01*
X0030180Y0245410D01*
X0030080Y0246100D01*
X0030020Y0246800D01*
X0030000Y0247500D01*
D13*
X0023750Y0246250D02*
X0016250Y0246250D01*
X0016250Y0260000D01*
X0016250Y0273750D01*
X0017500Y0275000D01*
X0023750Y0275000D01*
X0023750Y0260000D01*
X0016250Y0260000D01*
X0017500Y0261250D01*
X0023750Y0261250D01*
X0023750Y0246250D01*
X0023750Y0243750D02*
X0023750Y0228750D01*
X0016250Y0228750D01*
X0016250Y0242500D01*
X0017500Y0243750D01*
X0023750Y0243750D01*
X0023750Y0237500D02*
X0016250Y0237500D01*
X0016250Y0251250D01*
X0017500Y0252500D01*
X0023750Y0252500D01*
X0023750Y0237500D01*
X0022500Y0231870D02*
X0037500Y0231870D01*
X0037500Y0224370D01*
X0023750Y0224370D01*
X0022500Y0225620D01*
X0022500Y0231870D01*
X0023750Y0230000D02*
X0023750Y0215000D01*
X0016250Y0215000D01*
X0016250Y0228750D01*
X0017500Y0230000D01*
X0023750Y0230000D01*
X0031250Y0231870D02*
X0031250Y0225620D01*
X0032500Y0224370D01*
X0046250Y0224370D01*
X0046250Y0231870D01*
X0031250Y0231870D01*
X0040000Y0231870D02*
X0040000Y0225620D01*
X0041250Y0224370D01*
X0055000Y0224370D01*
X0055000Y0231870D01*
X0040000Y0231870D01*
X0054370Y0238750D02*
X0054370Y0223750D01*
X0060620Y0223750D01*
X0061870Y0225000D01*
X0061870Y0238750D01*
X0054370Y0238750D01*
X0060620Y0238120D02*
X0060620Y0253120D01*
X0068120Y0253120D01*
X0068120Y0239370D01*
X0066870Y0238120D01*
X0060620Y0238120D01*
X0060620Y0244370D02*
X0068120Y0244370D01*
X0068120Y0230620D01*
X0066870Y0229370D01*
X0060620Y0229370D01*
X0060620Y0244370D01*
X0060620Y0251870D02*
X0060620Y0266870D01*
X0068120Y0266870D01*
X0068120Y0253120D01*
X0066870Y0251870D01*
X0060620Y0251870D01*
X0062020Y0258920D02*
X0051420Y0269520D01*
X0056720Y0274830D01*
X0066440Y0265100D01*
X0066440Y0263340D01*
X0062020Y0258920D01*
X0057500Y0266870D02*
X0042500Y0266870D01*
X0042500Y0274370D01*
X0056250Y0274370D01*
X0057500Y0273120D01*
X0057500Y0266870D01*
X0043750Y0266870D02*
X0028750Y0266870D01*
X0028750Y0274370D01*
X0042500Y0274370D01*
X0043750Y0273120D01*
X0043750Y0266870D01*
X0035000Y0266870D02*
X0020000Y0266870D01*
X0020000Y0274370D01*
X0033750Y0274370D01*
X0035000Y0273120D01*
X0035000Y0266870D01*
X0023750Y0221250D02*
X0017500Y0221250D01*
X0016250Y0220000D01*
X0016250Y0206250D01*
X0023750Y0206250D01*
X0023750Y0221250D01*
X0023750Y0212500D02*
X0017500Y0212500D01*
X0016250Y0211250D01*
X0016250Y0197500D01*
X0023750Y0197500D01*
X0023750Y0212500D01*
D14*
X0016600Y0212550D02*
X0012390Y0212550D01*
X0012390Y0211850D02*
X0012390Y0213250D01*
X0012390Y0214920D02*
X0016600Y0217720D01*
X0012390Y0217720D01*
X0012390Y0214920D02*
X0016600Y0214920D01*
X0016600Y0213250D02*
X0016600Y0211850D01*
X0015200Y0210050D02*
X0012390Y0210050D01*
X0015200Y0210050D02*
X0016600Y0208650D01*
X0015200Y0207240D01*
X0012390Y0207240D01*
X0012390Y0230080D02*
X0015200Y0230080D01*
X0016600Y0231490D01*
X0015200Y0232890D01*
X0012390Y0232890D01*
X0013090Y0234690D02*
X0015900Y0234690D01*
X0016600Y0235390D01*
X0016600Y0236790D01*
X0015900Y0237490D01*
X0013090Y0237490D01*
X0012390Y0236790D01*
X0012390Y0235390D01*
X0013090Y0234690D01*
X0013790Y0239290D02*
X0012390Y0240690D01*
X0016600Y0240690D01*
X0016600Y0239290D02*
X0016600Y0242100D01*
X0024020Y0241730D02*
X0024020Y0240330D01*
X0024720Y0239630D01*
X0027520Y0239630D01*
X0028220Y0240330D01*
X0028220Y0241730D01*
X0027520Y0242430D01*
X0024720Y0242430D01*
X0024020Y0241730D01*
X0026120Y0244230D02*
X0026120Y0246330D01*
X0026820Y0247030D01*
X0027520Y0247030D01*
X0028220Y0246330D01*
X0028220Y0244930D01*
X0027520Y0244230D01*
X0026120Y0244230D01*
X0024720Y0245630D01*
X0024020Y0247030D01*
X0024020Y0237820D02*
X0026820Y0237820D01*
X0028220Y0236420D01*
X0026820Y0235020D01*
X0024020Y0235020D01*
X0041330Y0224480D02*
X0041330Y0221670D01*
X0042740Y0220270D01*
X0044140Y0221670D01*
X0044140Y0224480D01*
X0045940Y0223770D02*
X0045940Y0220970D01*
X0046640Y0220270D01*
X0048040Y0220270D01*
X0048740Y0220970D01*
X0048740Y0223770D01*
X0048040Y0224480D01*
X0046640Y0224480D01*
X0045940Y0223770D01*
X0050540Y0224480D02*
X0050540Y0222370D01*
X0051940Y0223070D01*
X0052640Y0223070D01*
X0053350Y0222370D01*
X0053350Y0220970D01*
X0052640Y0220270D01*
X0051240Y0220270D01*
X0050540Y0220970D01*
X0050540Y0224480D02*
X0053350Y0224480D01*
X0055890Y0250650D02*
X0058700Y0250650D01*
X0060100Y0252050D01*
X0058700Y0253450D01*
X0055890Y0253450D01*
X0056590Y0255250D02*
X0059400Y0255250D01*
X0060100Y0255950D01*
X0060100Y0257350D01*
X0059400Y0258050D01*
X0056590Y0258050D01*
X0055890Y0257350D01*
X0055890Y0255950D01*
X0056590Y0255250D01*
X0057990Y0259850D02*
X0057990Y0262660D01*
X0055890Y0261960D02*
X0057990Y0259850D01*
X0055890Y0261960D02*
X0060100Y0261960D01*
X0043970Y0263470D02*
X0043270Y0262770D01*
X0041870Y0262770D01*
X0041170Y0263470D01*
X0039370Y0263470D02*
X0039370Y0266270D01*
X0038670Y0266980D01*
X0037260Y0266980D01*
X0036560Y0266270D01*
X0036560Y0263470D01*
X0037260Y0262770D01*
X0038670Y0262770D01*
X0039370Y0263470D01*
X0041170Y0266270D02*
X0041870Y0266980D01*
X0043270Y0266980D01*
X0043970Y0266270D01*
X0043970Y0265570D01*
X0043270Y0264870D01*
X0043970Y0264170D01*
X0043970Y0263470D01*
X0043270Y0264870D02*
X0042570Y0264870D01*
X0034760Y0264170D02*
X0034760Y0266980D01*
X0031960Y0266980D02*
X0031960Y0264170D01*
X0033360Y0262770D01*
X0034760Y0264170D01*
X0016600Y0263360D02*
X0015200Y0264760D01*
X0012390Y0264760D01*
X0013090Y0266560D02*
X0015900Y0266560D01*
X0016600Y0267260D01*
X0016600Y0268670D01*
X0015900Y0269370D01*
X0013090Y0269370D01*
X0012390Y0268670D01*
X0012390Y0267260D01*
X0013090Y0266560D01*
X0013090Y0271170D02*
X0012390Y0271870D01*
X0012390Y0273270D01*
X0013090Y0273970D01*
X0013790Y0273970D01*
X0016600Y0271170D01*
X0016600Y0273970D01*
X0016600Y0263360D02*
X0015200Y0261960D01*
X0012390Y0261960D01*
D14*
X0010400Y0194600D02*
X0010400Y0280400D01*
X0010400Y0280400D02*
X0075400Y0280400D01*
X0075400Y0194600D01*
X0010400Y0194600D01*
X0082500Y0195000D02*
G75*
%LPD*%
D16*
X0082500Y0195000D02*
X0082500Y0280000D01*
X0147500Y0280000D01*
X0147500Y0195000D01*
X0082500Y0195000D01*
D11*
X0084370Y0215000D02*
X0084370Y0258750D01*
X0084380Y0258750D02*
X0084300Y0259560D01*
X0084250Y0260380D01*
X0084240Y0261200D01*
X0084270Y0262010D01*
X0084340Y0262830D01*
X0084450Y0263640D01*
X0084600Y0264450D01*
X0084790Y0265240D01*
X0085010Y0266030D01*
X0085270Y0266810D01*
X0085570Y0267570D01*
X0085900Y0268320D01*
X0086270Y0269050D01*
X0086670Y0269760D01*
X0087110Y0270450D01*
X0087580Y0271120D01*
X0088080Y0271770D01*
X0088610Y0272390D01*
X0089170Y0272990D01*
X0089750Y0273560D01*
X0090370Y0274100D01*
X0091000Y0274620D01*
X0091670Y0275100D01*
X0092350Y0275550D01*
X0093050Y0275960D01*
X0093780Y0276350D01*
X0094520Y0276690D01*
X0095280Y0277000D01*
X0096050Y0277280D01*
X0096830Y0277520D01*
X0097620Y0277720D01*
X0098420Y0277880D01*
X0099230Y0278010D01*
X0100050Y0278090D01*
X0100860Y0278140D01*
X0101680Y0278150D01*
X0102500Y0278120D01*
X0126870Y0278120D01*
X0126880Y0278120D02*
X0127660Y0278210D01*
X0128440Y0278250D01*
X0129230Y0278260D01*
X0130010Y0278230D01*
X0130790Y0278160D01*
X0131570Y0278050D01*
X0132340Y0277900D01*
X0133110Y0277720D01*
X0133860Y0277490D01*
X0134600Y0277240D01*
X0135330Y0276940D01*
X0136040Y0276610D01*
X0136740Y0276250D01*
X0137420Y0275850D01*
X0138070Y0275430D01*
X0138710Y0274960D01*
X0139320Y0274470D01*
X0139910Y0273950D01*
X0140470Y0273400D01*
X0141010Y0272830D01*
X0141510Y0272230D01*
X0141990Y0271600D01*
X0142430Y0270950D01*
X0142840Y0270280D01*
X0143220Y0269600D01*
X0143570Y0268890D01*
X0143880Y0268170D01*
X0144150Y0267430D01*
X0144390Y0266680D01*
X0144590Y0265920D01*
X0144750Y0265160D01*
X0144880Y0264380D01*
X0144970Y0263600D01*
X0145020Y0262820D01*
X0145030Y0262030D01*
X0145000Y0261250D01*
X0145000Y0215000D01*
X0145070Y0214200D01*
X0145100Y0213400D01*
X0145090Y0212600D01*
X0145040Y0211810D01*
X0144960Y0211010D01*
X0144830Y0210220D01*
X0144670Y0209440D01*
X0144470Y0208670D01*
X0144230Y0207900D01*
X0143950Y0207150D01*
X0143640Y0206420D01*
X0143290Y0205700D01*
X0142910Y0205000D01*
X0142490Y0204310D01*
X0142050Y0203650D01*
X0141560Y0203020D01*
X0141050Y0202400D01*
X0140510Y0201810D01*
X0139940Y0201250D01*
X0139350Y0200720D01*
X0138730Y0200220D01*
X0138080Y0199740D01*
X0137410Y0199300D01*
X0136730Y0198900D01*
X0136020Y0198530D01*
X0135300Y0198190D01*
X0134560Y0197890D01*
X0133800Y0197620D01*
X0133040Y0197390D01*
X0132260Y0197200D01*
X0131480Y0197050D01*
X0130690Y0196930D01*
X0129890Y0196860D01*
X0129090Y0196820D01*
X0128290Y0196830D01*
X0127490Y0196870D01*
X0127500Y0196870D02*
X0102500Y0196870D01*
X0101710Y0196820D01*
X0100920Y0196800D01*
X0100130Y0196820D01*
X0099340Y0196880D01*
X0098550Y0196970D01*
X0097770Y0197100D01*
X0097000Y0197270D01*
X0096240Y0197480D01*
X0095480Y0197720D01*
X0094740Y0197990D01*
X0094020Y0198310D01*
X0093310Y0198650D01*
X0092610Y0199030D01*
X0091940Y0199440D01*
X0091280Y0199890D01*
X0090650Y0200360D01*
X0090040Y0200860D01*
X0089450Y0201390D01*
X0088890Y0201950D01*
X0088360Y0202540D01*
X0087860Y0203150D01*
X0087390Y0203780D01*
X0086940Y0204440D01*
X0086530Y0205110D01*
X0086150Y0205810D01*
X0085810Y0206520D01*
X0085490Y0207240D01*
X0085220Y0207980D01*
X0084980Y0208740D01*
X0084770Y0209500D01*
X0084600Y0210270D01*
X0084470Y0211050D01*
X0084380Y0211840D01*
X0084320Y0212630D01*
X0084300Y0213420D01*
X0084320Y0214210D01*
X0084370Y0215000D01*
X0103120Y0225620D02*
X0103120Y0249370D01*
X0103210Y0250030D01*
X0103340Y0250690D01*
X0103510Y0251330D01*
X0103710Y0251970D01*
X0103950Y0252590D01*
X0104230Y0253190D01*
X0104540Y0253780D01*
X0104880Y0254350D01*
X0105260Y0254900D01*
X0105660Y0255430D01*
X0106100Y0255940D01*
X0106560Y0256410D01*
X0107050Y0256870D01*
X0107560Y0257290D01*
X0108100Y0257680D01*
X0108660Y0258040D01*
X0109240Y0258370D01*
X0109840Y0258660D01*
X0110450Y0258920D01*
X0111080Y0259150D01*
X0111720Y0259340D01*
X0112360Y0259490D01*
X0113020Y0259600D01*
X0113680Y0259680D01*
X0114350Y0259720D01*
X0115010Y0259720D01*
X0115680Y0259680D01*
X0116340Y0259600D01*
X0117000Y0259490D01*
X0117640Y0259340D01*
X0118280Y0259150D01*
X0118910Y0258920D01*
X0119520Y0258660D01*
X0120120Y0258370D01*
X0120700Y0258040D01*
X0121260Y0257680D01*
X0121800Y0257290D01*
X0122310Y0256870D01*
X0122800Y0256410D01*
X0123260Y0255940D01*
X0123700Y0255430D01*
X0124100Y0254900D01*
X0124480Y0254350D01*
X0124820Y0253780D01*
X0125130Y0253190D01*
X0125410Y0252590D01*
X0125650Y0251970D01*
X0125850Y0251330D01*
X0126020Y0250690D01*
X0126150Y0250030D01*
X0126240Y0249370D01*
X0126250Y0249370D02*
X0126250Y0225620D01*
X0126240Y0225630D02*
X0126150Y0224970D01*
X0126020Y0224310D01*
X0125850Y0223670D01*
X0125650Y0223030D01*
X0125410Y0222410D01*
X0125130Y0221810D01*
X0124820Y0221220D01*
X0124480Y0220650D01*
X0124100Y0220100D01*
X0123700Y0219570D01*
X0123260Y0219060D01*
X0122800Y0218590D01*
X0122310Y0218130D01*
X0121800Y0217710D01*
X0121260Y0217320D01*
X0120700Y0216960D01*
X0120120Y0216630D01*
X0119520Y0216340D01*
X0118910Y0216080D01*
X0118280Y0215850D01*
X0117640Y0215660D01*
X0117000Y0215510D01*
X0116340Y0215400D01*
X0115680Y0215320D01*
X0115010Y0215280D01*
X0114350Y0215280D01*
X0113680Y0215320D01*
X0113020Y0215400D01*
X0112360Y0215510D01*
X0111720Y0215660D01*
X0111080Y0215850D01*
X0110450Y0216080D01*
X0109840Y0216340D01*
X0109240Y0216630D01*
X0108660Y0216960D01*
X0108100Y0217320D01*
X0107560Y0217710D01*
X0107050Y0218130D01*
X0106560Y0218590D01*
X0106100Y0219060D01*
X0105660Y0219570D01*
X0105260Y0220100D01*
X0104880Y0220650D01*
X0104540Y0221220D01*
X0104230Y0221810D01*
X0103950Y0222410D01*
X0103710Y0223030D01*
X0103510Y0223670D01*
X0103340Y0224310D01*
X0103210Y0224970D01*
X0103120Y0225630D01*
D13*
X0096250Y0225000D02*
X0096250Y0210000D01*
X0088750Y0210000D01*
X0088750Y0223750D01*
X0090000Y0225000D01*
X0096250Y0225000D01*
X0096250Y0218750D02*
X0088750Y0218750D01*
X0088750Y0232500D01*
X0088750Y0246250D01*
X0090000Y0247500D01*
X0096250Y0247500D01*
X0096250Y0232500D01*
X0088750Y0232500D01*
X0090000Y0233750D01*
X0096250Y0233750D01*
X0096250Y0218750D01*
X0096870Y0217500D02*
X0095620Y0216250D01*
X0095620Y0202500D01*
X0103120Y0202500D01*
X0103120Y0217500D01*
X0096870Y0217500D01*
X0103120Y0212500D02*
X0104370Y0213750D01*
X0110620Y0213750D01*
X0110620Y0198750D01*
X0110620Y0212500D01*
X0111870Y0213750D01*
X0118120Y0213750D01*
X0118120Y0198750D01*
X0118120Y0212500D01*
X0119370Y0213750D01*
X0125620Y0213750D01*
X0125620Y0198750D01*
X0118120Y0198750D01*
X0110620Y0198750D01*
X0103120Y0198750D01*
X0103120Y0212500D01*
X0125620Y0216250D02*
X0125620Y0202500D01*
X0133120Y0202500D01*
X0133120Y0217500D01*
X0126870Y0217500D01*
X0125620Y0216250D01*
X0132500Y0218750D02*
X0132500Y0233750D01*
X0140000Y0233750D01*
X0140000Y0220000D01*
X0138750Y0218750D01*
X0132500Y0218750D01*
X0132500Y0225000D02*
X0140000Y0225000D01*
X0140000Y0211250D01*
X0138750Y0210000D01*
X0132500Y0210000D01*
X0132500Y0225000D01*
X0132500Y0232500D02*
X0132500Y0247500D01*
X0140000Y0247500D01*
X0140000Y0233750D01*
X0138750Y0232500D01*
X0132500Y0232500D01*
X0132500Y0241250D02*
X0132500Y0256250D01*
X0140000Y0256250D01*
X0140000Y0242500D01*
X0138750Y0241250D01*
X0132500Y0241250D01*
X0132500Y0250000D02*
X0132500Y0265000D01*
X0140000Y0265000D01*
X0140000Y0251250D01*
X0138750Y0250000D01*
X0132500Y0250000D01*
X0133750Y0257500D02*
X0126250Y0257500D01*
X0126250Y0271250D01*
X0127500Y0272500D01*
X0133750Y0272500D01*
X0133750Y0257500D01*
X0127500Y0261250D02*
X0120000Y0261250D01*
X0120000Y0275000D01*
X0121250Y0276250D01*
X0121250Y0261250D01*
X0113750Y0261250D01*
X0113750Y0275000D01*
X0115000Y0276250D01*
X0121250Y0276250D01*
X0127500Y0276250D01*
X0127500Y0261250D01*
X0115000Y0261250D02*
X0115000Y0276250D01*
X0108750Y0276250D01*
X0108750Y0261250D01*
X0101250Y0261250D01*
X0101250Y0275000D01*
X0102500Y0276250D01*
X0108750Y0276250D01*
X0107500Y0275000D01*
X0107500Y0261250D01*
X0115000Y0261250D01*
X0102500Y0257500D02*
X0095000Y0257500D01*
X0095000Y0271250D01*
X0096250Y0272500D01*
X0102500Y0272500D01*
X0102500Y0257500D01*
X0096250Y0256250D02*
X0096250Y0241250D01*
X0088750Y0241250D01*
X0088750Y0255000D01*
X0090000Y0256250D01*
X0096250Y0256250D01*
X0096250Y0250000D02*
X0088750Y0250000D01*
X0088750Y0263750D01*
X0090000Y0265000D01*
X0096250Y0265000D01*
X0096250Y0250000D01*
D14*
X0097270Y0244130D02*
X0101470Y0244130D01*
X0101470Y0242730D02*
X0101470Y0245530D01*
X0098670Y0242730D02*
X0097270Y0244130D01*
X0097970Y0240930D02*
X0097270Y0240230D01*
X0097270Y0238830D01*
X0097970Y0238130D01*
X0100770Y0238130D01*
X0101470Y0238830D01*
X0101470Y0240230D01*
X0100770Y0240930D01*
X0097970Y0240930D01*
X0097270Y0236320D02*
X0100070Y0236320D01*
X0101470Y0234920D01*
X0100070Y0233520D01*
X0097270Y0233520D01*
X0099020Y0230780D02*
X0099720Y0230780D01*
X0102520Y0227980D01*
X0103220Y0227980D01*
X0102520Y0226180D02*
X0099720Y0226180D01*
X0099020Y0225480D01*
X0099020Y0224080D01*
X0099720Y0223380D01*
X0102520Y0223380D01*
X0103220Y0224080D01*
X0103220Y0225480D01*
X0102520Y0226180D01*
X0099020Y0227980D02*
X0099020Y0230780D01*
X0099020Y0221570D02*
X0101820Y0221570D01*
X0103220Y0220170D01*
X0101820Y0218770D01*
X0099020Y0218770D01*
X0093220Y0209870D02*
X0089020Y0209870D01*
X0089020Y0207070D02*
X0093220Y0209870D01*
X0093220Y0207070D02*
X0089020Y0207070D01*
X0089020Y0205400D02*
X0089020Y0204000D01*
X0089020Y0204700D02*
X0093220Y0204700D01*
X0093220Y0204000D02*
X0093220Y0205400D01*
X0091820Y0202200D02*
X0089020Y0202200D01*
X0091820Y0202200D02*
X0093220Y0200800D01*
X0091820Y0199400D01*
X0089020Y0199400D01*
X0127270Y0221020D02*
X0130070Y0221020D01*
X0131470Y0222420D01*
X0130070Y0223820D01*
X0127270Y0223820D01*
X0127970Y0225630D02*
X0130770Y0225630D01*
X0131470Y0226330D01*
X0131470Y0227730D01*
X0130770Y0228430D01*
X0127970Y0228430D01*
X0127270Y0227730D01*
X0127270Y0226330D01*
X0127970Y0225630D01*
X0129370Y0230230D02*
X0129370Y0232330D01*
X0130070Y0233030D01*
X0130770Y0233030D01*
X0131470Y0232330D01*
X0131470Y0230930D01*
X0130770Y0230230D01*
X0129370Y0230230D01*
X0127970Y0231630D01*
X0127270Y0233030D01*
X0127140Y0241900D02*
X0129950Y0241900D01*
X0131350Y0243300D01*
X0129950Y0244700D01*
X0127140Y0244700D01*
X0127840Y0246500D02*
X0130650Y0246500D01*
X0131350Y0247200D01*
X0131350Y0248600D01*
X0130650Y0249300D01*
X0127840Y0249300D01*
X0127140Y0248600D01*
X0127140Y0247200D01*
X0127840Y0246500D01*
X0127140Y0251100D02*
X0129240Y0251100D01*
X0128540Y0252510D01*
X0128540Y0253210D01*
X0129240Y0253910D01*
X0130650Y0253910D01*
X0131350Y0253210D01*
X0131350Y0251810D01*
X0130650Y0251100D01*
X0127140Y0251100D02*
X0127140Y0253910D01*
X0135390Y0265330D02*
X0138200Y0265330D01*
X0139600Y0266740D01*
X0138200Y0268140D01*
X0135390Y0268140D01*
X0136090Y0269940D02*
X0135390Y0270640D01*
X0135390Y0272040D01*
X0136090Y0272740D01*
X0138900Y0272740D01*
X0139600Y0272040D01*
X0139600Y0270640D01*
X0138900Y0269940D01*
X0136090Y0269940D01*
X0137490Y0274540D02*
X0137490Y0277350D01*
X0135390Y0276640D02*
X0139600Y0276640D01*
X0137490Y0274540D02*
X0135390Y0276640D01*
X0128030Y0276720D02*
X0127330Y0276020D01*
X0125930Y0276020D01*
X0125230Y0276720D01*
X0123430Y0276720D02*
X0123430Y0279520D01*
X0122957Y0280000D01*
X0122730Y0280230D02*
X0121103Y0280000D02*
X0120630Y0279520D01*
X0120630Y0276720D01*
X0121330Y0276020D01*
X0122730Y0276020D01*
X0123430Y0276720D01*
X0125230Y0279520D02*
X0125703Y0280000D01*
X0125930Y0280230D02*
X0127557Y0280000D02*
X0128030Y0279520D01*
X0128030Y0278820D01*
X0127330Y0278120D01*
X0128030Y0277420D01*
X0128030Y0276720D01*
X0127330Y0278120D02*
X0126630Y0278120D01*
X0118820Y0277420D02*
X0118820Y0280000D01*
X0118820Y0280230D02*
X0116020Y0280000D02*
X0116020Y0277420D01*
X0117420Y0276020D01*
X0118820Y0277420D01*
X0089470Y0266410D02*
X0089470Y0263600D01*
X0086670Y0266410D01*
X0085970Y0266410D01*
X0085270Y0265710D01*
X0085270Y0264310D01*
X0085970Y0263600D01*
X0085970Y0261800D02*
X0085270Y0261100D01*
X0085270Y0259700D01*
X0085970Y0259000D01*
X0088770Y0259000D01*
X0089470Y0259700D01*
X0089470Y0261100D01*
X0088770Y0261800D01*
X0085970Y0261800D01*
X0085270Y0257200D02*
X0088070Y0257200D01*
X0089470Y0255800D01*
X0088070Y0254400D01*
X0085270Y0254400D01*
D14*
X0082100Y0194600D02*
X0082100Y0280400D01*
X0147900Y0280400D01*
X0147900Y0194600D01*
X0082100Y0194600D01*
X0155000Y0195000D02*
G75*
%LPD*%
D16*
X0155000Y0195000D02*
X0155000Y0279750D01*
X0219010Y0279750D01*
X0219010Y0195000D01*
X0155000Y0195000D01*
D11*
X0157500Y0197500D02*
X0170000Y0197500D01*
X0186870Y0214370D01*
X0187500Y0214370D01*
X0204370Y0197500D01*
X0216870Y0197500D01*
X0216870Y0277500D01*
X0199370Y0277500D01*
X0199370Y0227500D01*
X0191250Y0235620D01*
X0183120Y0235620D01*
X0175000Y0227500D01*
X0175000Y0277500D01*
X0157500Y0277500D01*
X0157500Y0197500D01*
D13*
X0162500Y0200000D02*
X0162500Y0215000D01*
X0170000Y0215000D01*
X0170000Y0201250D01*
X0168750Y0200000D01*
X0162500Y0200000D01*
X0170620Y0206250D02*
X0170620Y0221250D01*
X0178120Y0221250D01*
X0178120Y0207500D01*
X0176870Y0206250D01*
X0170620Y0206250D01*
X0168750Y0213750D02*
X0170000Y0215000D01*
X0170000Y0228750D01*
X0162500Y0228750D01*
X0162500Y0213750D01*
X0168750Y0213750D01*
X0168750Y0222500D02*
X0162500Y0222500D01*
X0162500Y0237500D01*
X0170000Y0237500D01*
X0170000Y0223750D01*
X0168750Y0222500D01*
X0168750Y0231250D02*
X0162500Y0231250D01*
X0162500Y0246250D01*
X0170000Y0246250D01*
X0170000Y0232500D01*
X0168750Y0231250D01*
X0178750Y0230000D02*
X0186250Y0230000D01*
X0186250Y0216250D01*
X0185000Y0215000D01*
X0178750Y0215000D01*
X0178750Y0230000D01*
X0186870Y0230000D02*
X0194370Y0230000D01*
X0194370Y0216250D01*
X0193120Y0215000D01*
X0186870Y0215000D01*
X0186870Y0230000D01*
X0195000Y0221250D02*
X0202500Y0221250D01*
X0202500Y0207500D01*
X0201250Y0206250D01*
X0195000Y0206250D01*
X0195000Y0221250D01*
X0204370Y0222500D02*
X0204370Y0237500D01*
X0211870Y0237500D01*
X0211870Y0223750D01*
X0210620Y0222500D01*
X0204370Y0222500D01*
X0204370Y0228750D02*
X0211870Y0228750D01*
X0211870Y0215000D01*
X0210620Y0213750D01*
X0204370Y0213750D01*
X0204370Y0228750D01*
X0204370Y0231250D02*
X0204370Y0246250D01*
X0211870Y0246250D01*
X0210620Y0245000D01*
X0204370Y0245000D01*
X0204370Y0260000D01*
X0211870Y0260000D01*
X0211870Y0246250D01*
X0211870Y0232500D01*
X0210620Y0231250D01*
X0204370Y0231250D01*
X0204370Y0215000D02*
X0211870Y0215000D01*
X0211870Y0201250D01*
X0210620Y0200000D01*
X0204370Y0200000D01*
X0204370Y0215000D01*
X0170000Y0246250D02*
X0168750Y0245000D01*
X0162500Y0245000D01*
X0162500Y0260000D01*
X0170000Y0260000D01*
X0170000Y0246250D01*
X0168750Y0253750D02*
X0170000Y0255000D01*
X0170000Y0268750D01*
X0162500Y0268750D01*
X0162500Y0253750D01*
X0168750Y0253750D01*
X0168750Y0262500D02*
X0162500Y0262500D01*
X0162500Y0277500D01*
X0170000Y0277500D01*
X0170000Y0263750D01*
X0168750Y0262500D01*
X0204370Y0262500D02*
X0204370Y0277500D01*
X0211870Y0277500D01*
X0211870Y0263750D01*
X0210620Y0262500D01*
X0204370Y0262500D01*
X0204370Y0268750D02*
X0211870Y0268750D01*
X0211870Y0255000D01*
X0210620Y0253750D01*
X0204370Y0253750D01*
X0204370Y0268750D01*
D14*
X0202520Y0263280D02*
X0201820Y0263280D01*
X0201120Y0262580D01*
X0201120Y0260480D01*
X0202520Y0260480D01*
X0203220Y0261180D01*
X0203220Y0262580D01*
X0202520Y0263280D01*
X0199720Y0261880D02*
X0201120Y0260480D01*
X0199720Y0261880D02*
X0199020Y0263280D01*
X0199720Y0258680D02*
X0199020Y0257980D01*
X0199020Y0256580D01*
X0199720Y0255880D01*
X0202520Y0255880D01*
X0203220Y0256580D01*
X0203220Y0257980D01*
X0202520Y0258680D01*
X0199720Y0258680D01*
X0199020Y0254070D02*
X0201820Y0254070D01*
X0203220Y0252670D01*
X0201820Y0251270D01*
X0199020Y0251270D01*
X0199640Y0233910D02*
X0199640Y0231100D01*
X0201740Y0231100D01*
X0201040Y0232510D01*
X0201040Y0233210D01*
X0201740Y0233910D01*
X0203150Y0233910D01*
X0203850Y0233210D01*
X0203850Y0231810D01*
X0203150Y0231100D01*
X0203150Y0229300D02*
X0200340Y0229300D01*
X0199640Y0228600D01*
X0199640Y0227200D01*
X0200340Y0226500D01*
X0203150Y0226500D01*
X0203850Y0227200D01*
X0203850Y0228600D01*
X0203150Y0229300D01*
X0202450Y0224700D02*
X0199640Y0224700D01*
X0199640Y0221900D02*
X0202450Y0221900D01*
X0203850Y0223300D01*
X0202450Y0224700D01*
X0192580Y0212850D02*
X0191180Y0212850D01*
X0190480Y0212150D01*
X0191880Y0210750D02*
X0192580Y0210750D01*
X0193280Y0210050D01*
X0193280Y0209350D01*
X0192580Y0208650D01*
X0191180Y0208650D01*
X0190480Y0209350D01*
X0192580Y0210750D02*
X0193280Y0211450D01*
X0193280Y0212150D01*
X0192580Y0212850D01*
X0188680Y0212150D02*
X0188680Y0209350D01*
X0187980Y0208650D01*
X0186580Y0208650D01*
X0185880Y0209350D01*
X0185880Y0212150D01*
X0186580Y0212850D01*
X0187980Y0212850D01*
X0188680Y0212150D01*
X0184070Y0212850D02*
X0184070Y0210050D01*
X0182670Y0208650D01*
X0181270Y0210050D01*
X0181270Y0212850D01*
X0189460Y0204480D02*
X0189460Y0201670D01*
X0190860Y0200270D01*
X0192260Y0201670D01*
X0192260Y0204480D01*
X0194060Y0203770D02*
X0194060Y0200970D01*
X0194760Y0200270D01*
X0196170Y0200270D01*
X0196870Y0200970D01*
X0196870Y0203770D01*
X0196170Y0204480D01*
X0194760Y0204480D01*
X0194060Y0203770D01*
X0198670Y0202370D02*
X0201470Y0202370D01*
X0200770Y0200270D02*
X0200770Y0204480D01*
X0198670Y0202370D01*
X0162220Y0203360D02*
X0160820Y0204760D01*
X0158020Y0204760D01*
X0158720Y0206560D02*
X0158020Y0207260D01*
X0158020Y0208670D01*
X0158720Y0209370D01*
X0161520Y0209370D01*
X0162220Y0208670D01*
X0162220Y0207260D01*
X0161520Y0206560D01*
X0158720Y0206560D01*
X0158720Y0211170D02*
X0158020Y0211870D01*
X0158020Y0213270D01*
X0158720Y0213970D01*
X0159420Y0213970D01*
X0162220Y0211170D01*
X0162220Y0213970D01*
X0162220Y0203360D02*
X0160820Y0201960D01*
X0158020Y0201960D01*
X0158020Y0233830D02*
X0160820Y0233830D01*
X0162220Y0235240D01*
X0160820Y0236640D01*
X0158020Y0236640D01*
X0158720Y0238440D02*
X0161520Y0238440D01*
X0162220Y0239140D01*
X0162220Y0240540D01*
X0161520Y0241240D01*
X0158720Y0241240D01*
X0158020Y0240540D01*
X0158020Y0239140D01*
X0158720Y0238440D01*
X0159420Y0243040D02*
X0158020Y0244440D01*
X0162220Y0244440D01*
X0162220Y0243040D02*
X0162220Y0245850D01*
X0170520Y0260370D02*
X0173320Y0260370D01*
X0174720Y0261770D01*
X0173320Y0263170D01*
X0170520Y0263170D01*
X0170520Y0264970D02*
X0170520Y0266370D01*
X0170520Y0265670D02*
X0174720Y0265670D01*
X0174720Y0264970D02*
X0174720Y0266370D01*
X0174720Y0268040D02*
X0170520Y0268040D01*
X0174720Y0270850D01*
X0170520Y0270850D01*
D14*
X0154600Y0194600D02*
X0154600Y0280150D01*
X0219410Y0280150D01*
X0219410Y0194600D01*
X0154600Y0194600D01*
X0226510Y0195000D02*
G75*
%LPD*%
D16*
X0226510Y0195000D02*
X0226510Y0280000D01*
X0291510Y0280000D01*
X0291510Y0195000D01*
X0226510Y0195000D01*
D11*
X0229010Y0197500D02*
X0287760Y0197500D01*
X0287760Y0215000D01*
X0246510Y0215000D01*
X0246510Y0228750D01*
X0271510Y0228750D01*
X0271510Y0246250D01*
X0246510Y0246250D01*
X0246510Y0260000D01*
X0287760Y0260000D01*
X0287760Y0277500D01*
X0229010Y0277500D01*
X0229010Y0197500D01*
D13*
X0232130Y0202500D02*
X0230880Y0203750D01*
X0230880Y0210000D01*
X0245880Y0210000D01*
X0245880Y0202500D01*
X0232130Y0202500D01*
X0231510Y0205620D02*
X0231510Y0219370D01*
X0231510Y0233120D01*
X0232760Y0234370D01*
X0239010Y0234370D01*
X0239010Y0219370D01*
X0231510Y0219370D01*
X0232760Y0220620D01*
X0239010Y0220620D01*
X0239010Y0205620D01*
X0231510Y0205620D01*
X0239630Y0203750D02*
X0240880Y0202500D01*
X0254630Y0202500D01*
X0254630Y0210000D01*
X0239630Y0210000D01*
X0239630Y0203750D01*
X0253380Y0203750D02*
X0254630Y0202500D01*
X0268380Y0202500D01*
X0268380Y0210000D01*
X0253380Y0210000D01*
X0253380Y0203750D01*
X0262130Y0203750D02*
X0263380Y0202500D01*
X0277130Y0202500D01*
X0277130Y0210000D01*
X0262130Y0210000D01*
X0262130Y0203750D01*
X0270880Y0203750D02*
X0272130Y0202500D01*
X0285880Y0202500D01*
X0285880Y0210000D01*
X0270880Y0210000D01*
X0270880Y0203750D01*
X0270260Y0233750D02*
X0255260Y0233750D01*
X0255260Y0241250D01*
X0269010Y0241250D01*
X0270260Y0240000D01*
X0270260Y0233750D01*
X0261510Y0233750D02*
X0246510Y0233750D01*
X0246510Y0241250D01*
X0260260Y0241250D01*
X0261510Y0240000D01*
X0261510Y0233750D01*
X0252760Y0233750D02*
X0237760Y0233750D01*
X0237760Y0241250D01*
X0251510Y0241250D01*
X0252760Y0240000D01*
X0252760Y0233750D01*
X0239010Y0237500D02*
X0231510Y0237500D01*
X0231510Y0251250D01*
X0231510Y0265000D01*
X0232760Y0266250D01*
X0239010Y0266250D01*
X0239010Y0251250D01*
X0231510Y0251250D01*
X0232760Y0252500D01*
X0239010Y0252500D01*
X0239010Y0237500D01*
X0239010Y0243750D02*
X0239010Y0228750D01*
X0231510Y0228750D01*
X0231510Y0242500D01*
X0232760Y0243750D01*
X0239010Y0243750D01*
X0239010Y0260000D02*
X0231510Y0260000D01*
X0231510Y0273750D01*
X0232760Y0275000D01*
X0239010Y0275000D01*
X0239010Y0260000D01*
X0235880Y0266870D02*
X0235880Y0274370D01*
X0249630Y0274370D01*
X0250880Y0273120D01*
X0250880Y0266870D01*
X0235880Y0266870D01*
X0251510Y0266870D02*
X0251510Y0274370D01*
X0265260Y0274370D01*
X0266510Y0273120D01*
X0266510Y0266870D01*
X0251510Y0266870D01*
X0261510Y0266870D02*
X0261510Y0274370D01*
X0275260Y0274370D01*
X0276510Y0273120D01*
X0276510Y0266870D01*
X0261510Y0266870D01*
X0271510Y0266870D02*
X0271510Y0274370D01*
X0285260Y0274370D01*
X0286510Y0273120D01*
X0286510Y0266870D01*
X0271510Y0266870D01*
D14*
X0270960Y0265850D02*
X0270260Y0265150D01*
X0270260Y0262350D01*
X0270960Y0261650D01*
X0272360Y0261650D01*
X0273060Y0262350D01*
X0273060Y0265150D01*
X0272360Y0265850D01*
X0270960Y0265850D01*
X0268460Y0265850D02*
X0268460Y0263050D01*
X0267060Y0261650D01*
X0265660Y0263050D01*
X0265660Y0265850D01*
X0262670Y0263750D02*
X0259860Y0263750D01*
X0261970Y0265850D01*
X0261970Y0261650D01*
X0258060Y0262350D02*
X0257360Y0261650D01*
X0255960Y0261650D01*
X0255260Y0262350D01*
X0255260Y0265150D01*
X0255960Y0265850D01*
X0257360Y0265850D01*
X0258060Y0265150D01*
X0258060Y0262350D01*
X0253460Y0263050D02*
X0253460Y0265850D01*
X0253460Y0263050D02*
X0252060Y0261650D01*
X0250660Y0263050D01*
X0250660Y0265850D01*
X0244110Y0263210D02*
X0244110Y0261810D01*
X0243410Y0261100D01*
X0243410Y0259300D02*
X0240600Y0259300D01*
X0239900Y0258600D01*
X0239900Y0257200D01*
X0240600Y0256500D01*
X0243410Y0256500D01*
X0244110Y0257200D01*
X0244110Y0258600D01*
X0243410Y0259300D01*
X0240600Y0261100D02*
X0239900Y0261810D01*
X0239900Y0263210D01*
X0240600Y0263910D01*
X0241300Y0263910D01*
X0242000Y0263210D01*
X0242710Y0263910D01*
X0243410Y0263910D01*
X0244110Y0263210D01*
X0242000Y0263210D02*
X0242000Y0262510D01*
X0242710Y0254700D02*
X0239900Y0254700D01*
X0239900Y0251900D02*
X0242710Y0251900D01*
X0244110Y0253300D01*
X0242710Y0254700D01*
X0248780Y0245230D02*
X0248780Y0242420D01*
X0250180Y0241020D01*
X0251580Y0242420D01*
X0251580Y0245230D01*
X0253390Y0244520D02*
X0253390Y0241720D01*
X0254090Y0241020D01*
X0255490Y0241020D01*
X0256190Y0241720D01*
X0256190Y0244520D01*
X0255490Y0245230D01*
X0254090Y0245230D01*
X0253390Y0244520D01*
X0257990Y0243120D02*
X0257990Y0241720D01*
X0258690Y0241020D01*
X0260090Y0241020D01*
X0260790Y0241720D01*
X0260790Y0242420D01*
X0260090Y0243120D01*
X0257990Y0243120D01*
X0259390Y0244520D01*
X0260790Y0245230D01*
X0275570Y0261650D02*
X0274860Y0262350D01*
X0275570Y0261650D02*
X0276970Y0261650D01*
X0277670Y0262350D01*
X0277670Y0263750D01*
X0276970Y0264450D01*
X0276270Y0264450D01*
X0274860Y0263750D01*
X0274860Y0265850D01*
X0277670Y0265850D01*
X0244110Y0232660D02*
X0244110Y0229850D01*
X0241300Y0232660D01*
X0240600Y0232660D01*
X0239900Y0231960D01*
X0239900Y0230560D01*
X0240600Y0229850D01*
X0240600Y0228050D02*
X0239900Y0227350D01*
X0239900Y0225950D01*
X0240600Y0225250D01*
X0243410Y0225250D01*
X0244110Y0225950D01*
X0244110Y0227350D01*
X0243410Y0228050D01*
X0240600Y0228050D01*
X0239900Y0223450D02*
X0242710Y0223450D01*
X0244110Y0222050D01*
X0242710Y0220650D01*
X0239900Y0220650D01*
X0241910Y0213350D02*
X0241910Y0210550D01*
X0243310Y0209150D01*
X0244710Y0210550D01*
X0244710Y0213350D01*
X0246510Y0212650D02*
X0246510Y0209850D01*
X0247210Y0209150D01*
X0248610Y0209150D01*
X0249310Y0209850D01*
X0249310Y0212650D01*
X0248610Y0213350D01*
X0247210Y0213350D01*
X0246510Y0212650D01*
X0251110Y0211950D02*
X0252520Y0213350D01*
X0252520Y0209150D01*
X0253920Y0209150D02*
X0251110Y0209150D01*
X0265660Y0211800D02*
X0267060Y0210400D01*
X0268460Y0211800D01*
X0268460Y0214600D01*
X0270260Y0214600D02*
X0271660Y0214600D01*
X0270960Y0214600D02*
X0270960Y0210400D01*
X0270260Y0210400D02*
X0271660Y0210400D01*
X0273330Y0210400D02*
X0273330Y0214600D01*
X0276130Y0210400D01*
X0276130Y0214600D01*
X0265660Y0214600D02*
X0265660Y0211800D01*
D14*
X0226110Y0194600D02*
X0226110Y0280400D01*
X0291910Y0280400D01*
X0291910Y0194600D01*
X0226110Y0194600D01*
X0299010Y0195000D02*
G75*
%LPD*%
D16*
X0299010Y0195000D02*
X0299010Y0280000D01*
X0362760Y0280000D01*
X0362760Y0195000D01*
X0299010Y0195000D01*
D11*
X0301510Y0196250D02*
X0319010Y0196250D01*
X0319010Y0214370D01*
X0330880Y0214370D01*
X0347130Y0198120D01*
X0347570Y0197720D01*
X0348040Y0197360D01*
X0348530Y0197030D01*
X0349040Y0196730D01*
X0349570Y0196460D01*
X0350120Y0196230D01*
X0350680Y0196030D01*
X0351250Y0195870D01*
X0351830Y0195750D01*
X0352420Y0195670D01*
X0353010Y0195630D01*
X0353600Y0195620D01*
X0354190Y0195660D01*
X0354780Y0195730D01*
X0355360Y0195840D01*
X0355940Y0195990D01*
X0356500Y0196170D01*
X0357050Y0196400D01*
X0357580Y0196650D01*
X0358100Y0196950D01*
X0358600Y0197270D01*
X0359070Y0197630D01*
X0359520Y0198020D01*
X0359940Y0198430D01*
X0360340Y0198870D01*
X0360700Y0199340D01*
X0361030Y0199830D01*
X0361330Y0200340D01*
X0361600Y0200870D01*
X0361830Y0201420D01*
X0362030Y0201980D01*
X0362190Y0202550D01*
X0362310Y0203130D01*
X0362390Y0203720D01*
X0362430Y0204310D01*
X0362440Y0204900D01*
X0362400Y0205490D01*
X0362330Y0206080D01*
X0362220Y0206660D01*
X0362070Y0207240D01*
X0361890Y0207800D01*
X0361660Y0208350D01*
X0361410Y0208880D01*
X0361110Y0209400D01*
X0360790Y0209900D01*
X0360430Y0210370D01*
X0360040Y0210820D01*
X0359630Y0211240D01*
X0359630Y0211250D02*
X0348380Y0222500D01*
X0358380Y0232500D01*
X0360880Y0237500D02*
X0360880Y0258120D01*
X0357760Y0266870D02*
X0351510Y0273750D01*
X0342760Y0277500D02*
X0301510Y0277500D01*
X0301510Y0196250D01*
X0315550Y0251870D02*
X0315570Y0252600D01*
X0315630Y0253330D01*
X0315730Y0254050D01*
X0315860Y0254760D01*
X0316040Y0255470D01*
X0316250Y0256170D01*
X0316510Y0256850D01*
X0316790Y0257520D01*
X0317120Y0258170D01*
X0317480Y0258810D01*
X0317870Y0259420D01*
X0318290Y0260020D01*
X0318750Y0260580D01*
X0319240Y0261130D01*
X0319750Y0261640D01*
X0320300Y0262130D01*
X0320860Y0262590D01*
X0321460Y0263010D01*
X0322070Y0263400D01*
X0322710Y0263760D01*
X0323360Y0264090D01*
X0324030Y0264370D01*
X0324710Y0264630D01*
X0325410Y0264840D01*
X0326120Y0265020D01*
X0326830Y0265150D01*
X0327550Y0265250D01*
X0328280Y0265310D01*
X0329010Y0265330D01*
X0329740Y0265310D01*
X0330470Y0265250D01*
X0331190Y0265150D01*
X0331900Y0265020D01*
X0332610Y0264840D01*
X0333310Y0264630D01*
X0333990Y0264370D01*
X0334660Y0264090D01*
X0335310Y0263760D01*
X0335950Y0263400D01*
X0336560Y0263010D01*
X0337160Y0262590D01*
X0337720Y0262130D01*
X0338270Y0261640D01*
X0338780Y0261130D01*
X0339270Y0260580D01*
X0339730Y0260020D01*
X0340150Y0259420D01*
X0340540Y0258810D01*
X0340900Y0258170D01*
X0341230Y0257520D01*
X0341510Y0256850D01*
X0341770Y0256170D01*
X0341980Y0255470D01*
X0342160Y0254760D01*
X0342290Y0254050D01*
X0342390Y0253330D01*
X0342450Y0252600D01*
X0342470Y0251870D01*
X0342450Y0251140D01*
X0342390Y0250410D01*
X0342290Y0249690D01*
X0342160Y0248980D01*
X0341980Y0248270D01*
X0341770Y0247570D01*
X0341510Y0246890D01*
X0341230Y0246220D01*
X0340900Y0245570D01*
X0340540Y0244930D01*
X0340150Y0244320D01*
X0339730Y0243720D01*
X0339270Y0243160D01*
X0338780Y0242610D01*
X0338270Y0242100D01*
X0337720Y0241610D01*
X0337160Y0241150D01*
X0336560Y0240730D01*
X0335950Y0240340D01*
X0335310Y0239980D01*
X0334660Y0239650D01*
X0333990Y0239370D01*
X0333310Y0239110D01*
X0332610Y0238900D01*
X0331900Y0238720D01*
X0331190Y0238590D01*
X0330470Y0238490D01*
X0329740Y0238430D01*
X0329010Y0238410D01*
X0328280Y0238430D01*
X0327550Y0238490D01*
X0326830Y0238590D01*
X0326120Y0238720D01*
X0325410Y0238900D01*
X0324710Y0239110D01*
X0324030Y0239370D01*
X0323360Y0239650D01*
X0322710Y0239980D01*
X0322070Y0240340D01*
X0321460Y0240730D01*
X0320860Y0241150D01*
X0320300Y0241610D01*
X0319750Y0242100D01*
X0319240Y0242610D01*
X0318750Y0243160D01*
X0318290Y0243720D01*
X0317870Y0244320D01*
X0317480Y0244930D01*
X0317120Y0245570D01*
X0316790Y0246220D01*
X0316510Y0246890D01*
X0316250Y0247570D01*
X0316040Y0248270D01*
X0315860Y0248980D01*
X0315730Y0249690D01*
X0315630Y0250410D01*
X0315570Y0251140D01*
X0315550Y0251870D01*
X0342750Y0277500D02*
X0343410Y0277510D01*
X0344070Y0277480D01*
X0344720Y0277410D01*
X0345370Y0277310D01*
X0346010Y0277160D01*
X0346640Y0276980D01*
X0347260Y0276750D01*
X0347860Y0276500D01*
X0348450Y0276200D01*
X0349010Y0275870D01*
X0349560Y0275510D01*
X0350090Y0275110D01*
X0350590Y0274690D01*
X0351060Y0274230D01*
X0351500Y0273750D01*
X0357760Y0266870D02*
X0358200Y0266410D01*
X0358620Y0265920D01*
X0359010Y0265410D01*
X0359360Y0264870D01*
X0359680Y0264320D01*
X0359970Y0263750D01*
X0360220Y0263160D01*
X0360430Y0262550D01*
X0360610Y0261940D01*
X0360750Y0261310D01*
X0360860Y0260680D01*
X0360920Y0260040D01*
X0360950Y0259400D01*
X0360940Y0258760D01*
X0360890Y0258120D01*
X0360880Y0237500D02*
X0360860Y0237020D01*
X0360800Y0236540D01*
X0360700Y0236070D01*
X0360570Y0235600D01*
X0360400Y0235150D01*
X0360210Y0234710D01*
X0359970Y0234290D01*
X0359710Y0233890D01*
X0359420Y0233500D01*
X0359100Y0233140D01*
X0358750Y0232810D01*
X0358380Y0232500D01*
D13*
X0357760Y0236250D02*
X0342760Y0236250D01*
X0342760Y0243750D01*
X0356510Y0243750D01*
X0357760Y0242500D01*
X0357760Y0236250D01*
X0351510Y0236250D02*
X0351510Y0230000D01*
X0336510Y0230000D01*
X0336510Y0237500D01*
X0350260Y0237500D01*
X0351510Y0236250D01*
X0345260Y0243750D02*
X0345260Y0251250D01*
X0359010Y0251250D01*
X0360260Y0250000D01*
X0360260Y0243750D01*
X0345260Y0243750D01*
X0345260Y0251250D02*
X0345260Y0258750D01*
X0359010Y0258750D01*
X0360260Y0257500D01*
X0360260Y0251250D01*
X0345260Y0251250D01*
X0342760Y0258750D02*
X0342760Y0266250D01*
X0356510Y0266250D01*
X0357760Y0265000D01*
X0357760Y0258750D01*
X0342760Y0258750D01*
X0336510Y0266250D02*
X0321510Y0266250D01*
X0321510Y0273750D01*
X0335260Y0273750D01*
X0349010Y0273750D01*
X0350260Y0272500D01*
X0350260Y0266250D01*
X0335260Y0266250D01*
X0335260Y0273750D01*
X0336510Y0272500D01*
X0336510Y0266250D01*
X0326510Y0266250D02*
X0311510Y0266250D01*
X0311510Y0273750D01*
X0325260Y0273750D01*
X0326510Y0272500D01*
X0326510Y0266250D01*
X0314010Y0260000D02*
X0314010Y0245000D01*
X0306510Y0245000D01*
X0306510Y0258750D01*
X0306510Y0272500D01*
X0307760Y0273750D01*
X0314010Y0273750D01*
X0314010Y0258750D01*
X0306510Y0258750D01*
X0307760Y0260000D01*
X0314010Y0260000D01*
X0314010Y0251250D02*
X0307760Y0251250D01*
X0306510Y0250000D01*
X0306510Y0236250D01*
X0314010Y0236250D01*
X0314010Y0251250D01*
X0314010Y0242500D02*
X0307760Y0242500D01*
X0306510Y0241250D01*
X0306510Y0227500D01*
X0314010Y0227500D01*
X0314010Y0242500D01*
X0322760Y0236870D02*
X0336510Y0236870D01*
X0337760Y0235620D01*
X0337760Y0229370D01*
X0322760Y0229370D01*
X0322760Y0236870D01*
X0317760Y0229370D02*
X0331510Y0229370D01*
X0332760Y0228120D01*
X0332760Y0221870D01*
X0317760Y0221870D01*
X0317760Y0229370D01*
X0314010Y0228750D02*
X0314010Y0213750D01*
X0306510Y0213750D01*
X0306510Y0227500D01*
X0307760Y0228750D01*
X0314010Y0228750D01*
X0314010Y0220000D02*
X0307760Y0220000D01*
X0306510Y0218750D01*
X0306510Y0205000D01*
X0314010Y0205000D01*
X0314010Y0220000D01*
X0314010Y0211250D02*
X0307760Y0211250D01*
X0306510Y0210000D01*
X0306510Y0196250D01*
X0314010Y0196250D01*
X0314010Y0211250D01*
X0324010Y0216250D02*
X0324010Y0223750D01*
X0337760Y0223750D01*
X0339010Y0222500D01*
X0339010Y0216250D01*
X0324010Y0216250D01*
X0332760Y0217500D02*
X0332760Y0210000D01*
X0347760Y0210000D01*
X0347760Y0216250D01*
X0346510Y0217500D01*
X0332760Y0217500D01*
X0340260Y0211250D02*
X0354010Y0211250D01*
X0355260Y0210000D01*
X0355260Y0203750D01*
X0340260Y0203750D01*
X0340260Y0211250D01*
X0346510Y0205000D02*
X0360260Y0205000D01*
X0361510Y0203750D01*
X0361510Y0197500D01*
X0346510Y0197500D01*
X0346510Y0205000D01*
D14*
X0352910Y0210720D02*
X0353400Y0211210D01*
X0357360Y0211210D01*
X0357860Y0211710D01*
X0355880Y0213690D01*
X0354110Y0214470D02*
X0354110Y0215460D01*
X0353120Y0216450D01*
X0352130Y0216450D01*
X0350150Y0214470D01*
X0350150Y0213480D01*
X0351140Y0212490D01*
X0352130Y0212490D01*
X0354110Y0214470D01*
X0351350Y0218220D02*
X0349370Y0216240D01*
X0347390Y0216240D01*
X0347390Y0218220D01*
X0349370Y0220200D01*
X0354530Y0223830D02*
X0357330Y0223830D01*
X0358730Y0225240D01*
X0357330Y0226640D01*
X0354530Y0226640D01*
X0355230Y0228440D02*
X0358030Y0228440D01*
X0358730Y0229140D01*
X0358730Y0230540D01*
X0358030Y0231240D01*
X0355230Y0231240D01*
X0354530Y0230540D01*
X0354530Y0229140D01*
X0355230Y0228440D01*
X0354530Y0233040D02*
X0356630Y0233040D01*
X0355930Y0234440D01*
X0355930Y0235140D01*
X0356630Y0235850D01*
X0358030Y0235850D01*
X0358730Y0235140D01*
X0358730Y0233740D01*
X0358030Y0233040D01*
X0354530Y0233040D02*
X0354530Y0235850D01*
X0344790Y0230350D02*
X0343390Y0229650D01*
X0341990Y0228250D01*
X0344090Y0228250D01*
X0344790Y0227550D01*
X0344790Y0226850D01*
X0344090Y0226150D01*
X0342690Y0226150D01*
X0341990Y0226850D01*
X0341990Y0228250D01*
X0340190Y0226850D02*
X0340190Y0229650D01*
X0339490Y0230350D01*
X0338090Y0230350D01*
X0337390Y0229650D01*
X0337390Y0226850D01*
X0338090Y0226150D01*
X0339490Y0226150D01*
X0340190Y0226850D01*
X0335580Y0227550D02*
X0335580Y0230350D01*
X0332780Y0230350D02*
X0332780Y0227550D01*
X0334180Y0226150D01*
X0335580Y0227550D01*
X0306230Y0230240D02*
X0304830Y0231640D01*
X0302030Y0231640D01*
X0302730Y0233440D02*
X0302030Y0234140D01*
X0302030Y0235540D01*
X0302730Y0236240D01*
X0305530Y0236240D01*
X0306230Y0235540D01*
X0306230Y0234140D01*
X0305530Y0233440D01*
X0302730Y0233440D01*
X0303430Y0238040D02*
X0302030Y0239440D01*
X0306230Y0239440D01*
X0306230Y0238040D02*
X0306230Y0240850D01*
X0306230Y0230240D02*
X0304830Y0228830D01*
X0302030Y0228830D01*
X0302400Y0216120D02*
X0306610Y0216120D01*
X0302400Y0213320D01*
X0306610Y0213320D01*
X0306610Y0211650D02*
X0306610Y0210250D01*
X0306610Y0210950D02*
X0302400Y0210950D01*
X0302400Y0210250D02*
X0302400Y0211650D01*
X0302400Y0208450D02*
X0305210Y0208450D01*
X0306610Y0207050D01*
X0305210Y0205650D01*
X0302400Y0205650D01*
X0302030Y0260080D02*
X0304830Y0260080D01*
X0306230Y0261490D01*
X0304830Y0262890D01*
X0302030Y0262890D01*
X0302730Y0264690D02*
X0305530Y0264690D01*
X0306230Y0265390D01*
X0306230Y0266790D01*
X0305530Y0267490D01*
X0302730Y0267490D01*
X0302030Y0266790D01*
X0302030Y0265390D01*
X0302730Y0264690D01*
X0302730Y0269290D02*
X0302030Y0269990D01*
X0302030Y0271390D01*
X0302730Y0272100D01*
X0303430Y0272100D01*
X0306230Y0269290D01*
X0306230Y0272100D01*
X0314720Y0274170D02*
X0316120Y0272770D01*
X0317520Y0274170D01*
X0317520Y0276980D01*
X0319320Y0276270D02*
X0319320Y0273470D01*
X0320020Y0272770D01*
X0321430Y0272770D01*
X0322130Y0273470D01*
X0322130Y0276270D01*
X0321430Y0276980D01*
X0320020Y0276980D01*
X0319320Y0276270D01*
X0323930Y0276270D02*
X0324630Y0276980D01*
X0326030Y0276980D01*
X0326730Y0276270D01*
X0326730Y0275570D01*
X0326030Y0274870D01*
X0326730Y0274170D01*
X0326730Y0273470D01*
X0326030Y0272770D01*
X0324630Y0272770D01*
X0323930Y0273470D01*
X0325330Y0274870D02*
X0326030Y0274870D01*
X0314720Y0274170D02*
X0314720Y0276980D01*
X0350380Y0271420D02*
X0350380Y0269440D01*
X0352360Y0269440D01*
X0354340Y0271420D01*
X0355120Y0269650D02*
X0353140Y0267670D01*
X0353140Y0266680D01*
X0354130Y0265690D01*
X0355120Y0265690D01*
X0357100Y0267670D01*
X0357100Y0268660D01*
X0356110Y0269650D01*
X0355120Y0269650D01*
X0352360Y0273400D02*
X0350380Y0271420D01*
X0357390Y0265410D02*
X0359370Y0263430D01*
X0360360Y0265410D02*
X0357390Y0265410D01*
X0360360Y0265410D02*
X0357390Y0262430D01*
D14*
X0298610Y0194600D02*
X0298610Y0280400D01*
X0363160Y0280400D01*
X0363160Y0194600D01*
X0298610Y0194600D01*
X0010000Y0287500D02*
G75*
%LPD*%
D16*
X0010000Y0287500D02*
X0010000Y0372250D01*
X0075260Y0372250D01*
X0075260Y0287500D01*
X0010000Y0287500D01*
D11*
X0032500Y0290000D02*
X0051250Y0290000D01*
X0051250Y0352500D01*
X0072500Y0352500D01*
X0072500Y0370000D01*
X0012500Y0370000D01*
X0012500Y0352500D01*
X0032500Y0352500D01*
X0032500Y0290000D01*
D13*
X0034370Y0292500D02*
X0035620Y0291250D01*
X0049370Y0291250D01*
X0049370Y0298750D01*
X0034370Y0298750D01*
X0034370Y0292500D01*
X0035620Y0298750D02*
X0034370Y0300000D01*
X0034370Y0306250D01*
X0049370Y0306250D01*
X0049370Y0298750D01*
X0035620Y0298750D01*
X0035620Y0306250D02*
X0034370Y0307500D01*
X0034370Y0313750D01*
X0049370Y0313750D01*
X0035620Y0313750D01*
X0034370Y0315000D01*
X0034370Y0321250D01*
X0049370Y0321250D01*
X0049370Y0313750D01*
X0049370Y0306250D01*
X0035620Y0306250D01*
X0035620Y0322500D02*
X0034370Y0323750D01*
X0034370Y0330000D01*
X0049370Y0330000D01*
X0049370Y0322500D01*
X0035620Y0322500D01*
X0035620Y0331250D02*
X0034370Y0332500D01*
X0034370Y0338750D01*
X0049370Y0338750D01*
X0049370Y0331250D01*
X0035620Y0331250D01*
X0035620Y0340000D02*
X0034370Y0341250D01*
X0034370Y0347500D01*
X0049370Y0347500D01*
X0049370Y0340000D01*
X0035620Y0340000D01*
X0035620Y0348750D02*
X0034370Y0350000D01*
X0034370Y0356250D01*
X0049370Y0356250D01*
X0049370Y0348750D01*
X0035620Y0348750D01*
X0035620Y0353750D02*
X0028120Y0353750D01*
X0020620Y0353750D01*
X0013120Y0353750D01*
X0013120Y0367500D01*
X0014370Y0368750D01*
X0020620Y0368750D01*
X0020620Y0353750D01*
X0020620Y0367500D01*
X0021870Y0368750D01*
X0028120Y0368750D01*
X0028120Y0353750D01*
X0028120Y0367500D01*
X0029370Y0368750D01*
X0035620Y0368750D01*
X0035620Y0353750D01*
X0035620Y0357500D02*
X0034370Y0358750D01*
X0034370Y0365000D01*
X0049370Y0365000D01*
X0049370Y0357500D01*
X0035620Y0357500D01*
X0048750Y0353750D02*
X0048750Y0367500D01*
X0050000Y0368750D01*
X0056250Y0368750D01*
X0056250Y0353750D01*
X0056250Y0367500D01*
X0057500Y0368750D01*
X0063750Y0368750D01*
X0063750Y0353750D01*
X0063750Y0367500D01*
X0065000Y0368750D01*
X0071250Y0368750D01*
X0071250Y0353750D01*
X0063750Y0353750D01*
X0056250Y0353750D01*
X0048750Y0353750D01*
D14*
X0046960Y0367400D02*
X0045560Y0367400D01*
X0044850Y0368100D01*
X0043050Y0368100D02*
X0043050Y0370900D01*
X0042350Y0371600D01*
X0040950Y0371600D01*
X0040250Y0370900D01*
X0040250Y0368100D01*
X0040950Y0367400D01*
X0042350Y0367400D01*
X0043050Y0368100D01*
X0044850Y0370900D02*
X0045560Y0371600D01*
X0046960Y0371600D01*
X0047660Y0370900D01*
X0047660Y0370200D01*
X0046960Y0369500D01*
X0047660Y0368800D01*
X0047660Y0368100D01*
X0046960Y0367400D01*
X0046960Y0369500D02*
X0046260Y0369500D01*
X0038450Y0368800D02*
X0038450Y0371600D01*
X0038450Y0368800D02*
X0037050Y0367400D01*
X0035650Y0368800D01*
X0035650Y0371600D01*
X0026780Y0370620D02*
X0023980Y0370620D01*
X0025602Y0372250D01*
X0026080Y0372730D02*
X0026080Y0372250D02*
X0026080Y0368520D01*
X0022180Y0369220D02*
X0022180Y0372020D01*
X0021953Y0372250D01*
X0021480Y0372730D02*
X0019607Y0372250D02*
X0019380Y0372020D01*
X0019380Y0369220D01*
X0020080Y0368520D01*
X0021480Y0368520D01*
X0022180Y0369220D01*
X0017570Y0369920D02*
X0017570Y0372250D01*
X0017570Y0372730D02*
X0014770Y0372250D02*
X0014770Y0369920D01*
X0016170Y0368520D01*
X0017570Y0369920D01*
X0027970Y0339280D02*
X0027270Y0338580D01*
X0027270Y0337180D01*
X0027970Y0336480D01*
X0027970Y0334680D02*
X0027270Y0333980D01*
X0027270Y0332580D01*
X0027970Y0331880D01*
X0030770Y0331880D01*
X0031470Y0332580D01*
X0031470Y0333980D01*
X0030770Y0334680D01*
X0027970Y0334680D01*
X0031470Y0336480D02*
X0028670Y0339280D01*
X0027970Y0339280D01*
X0031470Y0339280D02*
X0031470Y0336480D01*
X0030070Y0330070D02*
X0027270Y0330070D01*
X0027270Y0327270D02*
X0030070Y0327270D01*
X0031470Y0328670D01*
X0030070Y0330070D01*
X0032100Y0314280D02*
X0032100Y0311480D01*
X0032100Y0312880D02*
X0027890Y0312880D01*
X0029290Y0311480D01*
X0028590Y0309680D02*
X0027890Y0308980D01*
X0027890Y0307580D01*
X0028590Y0306880D01*
X0031400Y0306880D01*
X0032100Y0307580D01*
X0032100Y0308980D01*
X0031400Y0309680D01*
X0028590Y0309680D01*
X0027890Y0305070D02*
X0030700Y0305070D01*
X0032100Y0303670D01*
X0030700Y0302270D01*
X0027890Y0302270D01*
X0052390Y0299600D02*
X0056600Y0299600D01*
X0052390Y0296790D01*
X0056600Y0296790D01*
X0056600Y0295120D02*
X0056600Y0293720D01*
X0056600Y0294420D02*
X0052390Y0294420D01*
X0052390Y0293720D02*
X0052390Y0295120D01*
X0052390Y0291920D02*
X0055200Y0291920D01*
X0056600Y0290520D01*
X0055200Y0289120D01*
X0052390Y0289120D01*
X0058050Y0368520D02*
X0059450Y0369920D01*
X0059450Y0372250D01*
X0059450Y0372730D02*
X0061250Y0372020D02*
X0061250Y0369220D01*
X0061950Y0368520D01*
X0063350Y0368520D01*
X0064050Y0369220D01*
X0064050Y0372020D01*
X0063823Y0372250D01*
X0063350Y0372730D02*
X0061477Y0372250D02*
X0061250Y0372020D01*
X0065850Y0372250D02*
X0065850Y0370620D01*
X0067260Y0371320D01*
X0067960Y0371320D01*
X0068660Y0370620D01*
X0068660Y0369220D01*
X0067960Y0368520D01*
X0066560Y0368520D01*
X0065850Y0369220D01*
X0058050Y0368520D02*
X0056650Y0369920D01*
X0056650Y0372250D01*
X0056650Y0372730D02*
D14*
X0010400Y0287100D02*
X0010400Y0372650D01*
X0010400Y0372650D02*
X0075660Y0372650D01*
X0075660Y0287100D01*
X0010400Y0287100D01*
X0082760Y0287500D02*
G75*
%LPD*%
D16*
X0082760Y0287500D02*
X0082760Y0372500D01*
X0147760Y0372500D01*
X0147760Y0287500D01*
X0082760Y0287500D01*
D11*
X0084630Y0307500D02*
X0084630Y0351250D01*
X0084640Y0351250D02*
X0084560Y0352060D01*
X0084510Y0352880D01*
X0084500Y0353700D01*
X0084530Y0354510D01*
X0084600Y0355330D01*
X0084710Y0356140D01*
X0084860Y0356950D01*
X0085050Y0357740D01*
X0085270Y0358530D01*
X0085530Y0359310D01*
X0085830Y0360070D01*
X0086160Y0360820D01*
X0086530Y0361550D01*
X0086930Y0362260D01*
X0087370Y0362950D01*
X0087840Y0363620D01*
X0088340Y0364270D01*
X0088870Y0364890D01*
X0089430Y0365490D01*
X0090010Y0366060D01*
X0090630Y0366600D01*
X0091260Y0367120D01*
X0091930Y0367600D01*
X0092610Y0368050D01*
X0093310Y0368460D01*
X0094040Y0368850D01*
X0094780Y0369190D01*
X0095540Y0369500D01*
X0096310Y0369780D01*
X0097090Y0370020D01*
X0097880Y0370220D01*
X0098680Y0370380D01*
X0099490Y0370510D01*
X0100310Y0370590D01*
X0101120Y0370640D01*
X0101940Y0370650D01*
X0102760Y0370620D01*
X0127130Y0370620D01*
X0127140Y0370620D02*
X0127920Y0370710D01*
X0128700Y0370750D01*
X0129490Y0370760D01*
X0130270Y0370730D01*
X0131050Y0370660D01*
X0131830Y0370550D01*
X0132600Y0370400D01*
X0133370Y0370220D01*
X0134120Y0369990D01*
X0134860Y0369740D01*
X0135590Y0369440D01*
X0136300Y0369110D01*
X0137000Y0368750D01*
X0137680Y0368350D01*
X0138330Y0367930D01*
X0138970Y0367460D01*
X0139580Y0366970D01*
X0140170Y0366450D01*
X0140730Y0365900D01*
X0141270Y0365330D01*
X0141770Y0364730D01*
X0142250Y0364100D01*
X0142690Y0363450D01*
X0143100Y0362780D01*
X0143480Y0362100D01*
X0143830Y0361390D01*
X0144140Y0360670D01*
X0144410Y0359930D01*
X0144650Y0359180D01*
X0144850Y0358420D01*
X0145010Y0357660D01*
X0145140Y0356880D01*
X0145230Y0356100D01*
X0145280Y0355320D01*
X0145290Y0354530D01*
X0145260Y0353750D01*
X0145260Y0307500D01*
X0145330Y0306700D01*
X0145360Y0305900D01*
X0145350Y0305100D01*
X0145300Y0304310D01*
X0145220Y0303510D01*
X0145090Y0302720D01*
X0144930Y0301940D01*
X0144730Y0301170D01*
X0144490Y0300400D01*
X0144210Y0299650D01*
X0143900Y0298920D01*
X0143550Y0298200D01*
X0143170Y0297500D01*
X0142750Y0296810D01*
X0142310Y0296150D01*
X0141820Y0295520D01*
X0141310Y0294900D01*
X0140770Y0294310D01*
X0140200Y0293750D01*
X0139610Y0293220D01*
X0138990Y0292720D01*
X0138340Y0292240D01*
X0137670Y0291800D01*
X0136990Y0291400D01*
X0136280Y0291030D01*
X0135560Y0290690D01*
X0134820Y0290390D01*
X0134060Y0290120D01*
X0133300Y0289890D01*
X0132520Y0289700D01*
X0131740Y0289550D01*
X0130950Y0289430D01*
X0130150Y0289360D01*
X0129350Y0289320D01*
X0128550Y0289330D01*
X0127750Y0289370D01*
X0127760Y0289370D02*
X0102760Y0289370D01*
X0101970Y0289320D01*
X0101180Y0289300D01*
X0100390Y0289320D01*
X0099600Y0289380D01*
X0098810Y0289470D01*
X0098030Y0289600D01*
X0097260Y0289770D01*
X0096500Y0289980D01*
X0095740Y0290220D01*
X0095000Y0290490D01*
X0094280Y0290810D01*
X0093570Y0291150D01*
X0092870Y0291530D01*
X0092200Y0291940D01*
X0091540Y0292390D01*
X0090910Y0292860D01*
X0090300Y0293360D01*
X0089710Y0293890D01*
X0089150Y0294450D01*
X0088620Y0295040D01*
X0088120Y0295650D01*
X0087650Y0296280D01*
X0087200Y0296940D01*
X0086790Y0297610D01*
X0086410Y0298310D01*
X0086070Y0299020D01*
X0085750Y0299740D01*
X0085480Y0300480D01*
X0085240Y0301240D01*
X0085030Y0302000D01*
X0084860Y0302770D01*
X0084730Y0303550D01*
X0084640Y0304340D01*
X0084580Y0305130D01*
X0084560Y0305920D01*
X0084580Y0306710D01*
X0084630Y0307500D01*
X0103380Y0318120D02*
X0103380Y0341870D01*
X0103470Y0342530D01*
X0103600Y0343190D01*
X0103770Y0343830D01*
X0103970Y0344470D01*
X0104210Y0345090D01*
X0104490Y0345690D01*
X0104800Y0346280D01*
X0105140Y0346850D01*
X0105520Y0347400D01*
X0105920Y0347930D01*
X0106360Y0348440D01*
X0106820Y0348910D01*
X0107310Y0349370D01*
X0107820Y0349790D01*
X0108360Y0350180D01*
X0108920Y0350540D01*
X0109500Y0350870D01*
X0110100Y0351160D01*
X0110710Y0351420D01*
X0111340Y0351650D01*
X0111980Y0351840D01*
X0112620Y0351990D01*
X0113280Y0352100D01*
X0113940Y0352180D01*
X0114610Y0352220D01*
X0115270Y0352220D01*
X0115940Y0352180D01*
X0116600Y0352100D01*
X0117260Y0351990D01*
X0117900Y0351840D01*
X0118540Y0351650D01*
X0119170Y0351420D01*
X0119780Y0351160D01*
X0120380Y0350870D01*
X0120960Y0350540D01*
X0121520Y0350180D01*
X0122060Y0349790D01*
X0122570Y0349370D01*
X0123060Y0348910D01*
X0123520Y0348440D01*
X0123960Y0347930D01*
X0124360Y0347400D01*
X0124740Y0346850D01*
X0125080Y0346280D01*
X0125390Y0345690D01*
X0125670Y0345090D01*
X0125910Y0344470D01*
X0126110Y0343830D01*
X0126280Y0343190D01*
X0126410Y0342530D01*
X0126500Y0341870D01*
X0126510Y0341870D02*
X0126510Y0318120D01*
X0126500Y0318130D02*
X0126410Y0317470D01*
X0126280Y0316810D01*
X0126110Y0316170D01*
X0125910Y0315530D01*
X0125670Y0314910D01*
X0125390Y0314310D01*
X0125080Y0313720D01*
X0124740Y0313150D01*
X0124360Y0312600D01*
X0123960Y0312070D01*
X0123520Y0311560D01*
X0123060Y0311090D01*
X0122570Y0310630D01*
X0122060Y0310210D01*
X0121520Y0309820D01*
X0120960Y0309460D01*
X0120380Y0309130D01*
X0119780Y0308840D01*
X0119170Y0308580D01*
X0118540Y0308350D01*
X0117900Y0308160D01*
X0117260Y0308010D01*
X0116600Y0307900D01*
X0115940Y0307820D01*
X0115270Y0307780D01*
X0114610Y0307780D01*
X0113940Y0307820D01*
X0113280Y0307900D01*
X0112620Y0308010D01*
X0111980Y0308160D01*
X0111340Y0308350D01*
X0110710Y0308580D01*
X0110100Y0308840D01*
X0109500Y0309130D01*
X0108920Y0309460D01*
X0108360Y0309820D01*
X0107820Y0310210D01*
X0107310Y0310630D01*
X0106820Y0311090D01*
X0106360Y0311560D01*
X0105920Y0312070D01*
X0105520Y0312600D01*
X0105140Y0313150D01*
X0104800Y0313720D01*
X0104490Y0314310D01*
X0104210Y0314910D01*
X0103970Y0315530D01*
X0103770Y0316170D01*
X0103600Y0316810D01*
X0103470Y0317470D01*
X0103380Y0318130D01*
D13*
X0096510Y0317500D02*
X0096510Y0302500D01*
X0089010Y0302500D01*
X0089010Y0316250D01*
X0090260Y0317500D01*
X0096510Y0317500D01*
X0096510Y0311250D02*
X0089010Y0311250D01*
X0089010Y0325000D01*
X0089010Y0338750D01*
X0090260Y0340000D01*
X0096510Y0340000D01*
X0096510Y0325000D01*
X0089010Y0325000D01*
X0090260Y0326250D01*
X0096510Y0326250D01*
X0096510Y0311250D01*
X0097130Y0310000D02*
X0095880Y0308750D01*
X0095880Y0295000D01*
X0103380Y0295000D01*
X0103380Y0310000D01*
X0097130Y0310000D01*
X0103380Y0305000D02*
X0104630Y0306250D01*
X0110880Y0306250D01*
X0110880Y0291250D01*
X0110880Y0305000D01*
X0112130Y0306250D01*
X0118380Y0306250D01*
X0118380Y0291250D01*
X0118380Y0305000D01*
X0119630Y0306250D01*
X0125880Y0306250D01*
X0125880Y0291250D01*
X0118380Y0291250D01*
X0110880Y0291250D01*
X0103380Y0291250D01*
X0103380Y0305000D01*
X0125880Y0308750D02*
X0125880Y0295000D01*
X0133380Y0295000D01*
X0133380Y0310000D01*
X0127130Y0310000D01*
X0125880Y0308750D01*
X0132760Y0311250D02*
X0132760Y0326250D01*
X0140260Y0326250D01*
X0140260Y0312500D01*
X0139010Y0311250D01*
X0132760Y0311250D01*
X0132760Y0317500D02*
X0140260Y0317500D01*
X0140260Y0303750D01*
X0139010Y0302500D01*
X0132760Y0302500D01*
X0132760Y0317500D01*
X0132760Y0325000D02*
X0132760Y0340000D01*
X0140260Y0340000D01*
X0140260Y0326250D01*
X0139010Y0325000D01*
X0132760Y0325000D01*
X0132760Y0333750D02*
X0132760Y0348750D01*
X0140260Y0348750D01*
X0140260Y0335000D01*
X0139010Y0333750D01*
X0132760Y0333750D01*
X0132760Y0342500D02*
X0132760Y0357500D01*
X0140260Y0357500D01*
X0140260Y0343750D01*
X0139010Y0342500D01*
X0132760Y0342500D01*
X0134010Y0350000D02*
X0126510Y0350000D01*
X0126510Y0363750D01*
X0127760Y0365000D01*
X0134010Y0365000D01*
X0134010Y0350000D01*
X0127760Y0353750D02*
X0120260Y0353750D01*
X0120260Y0367500D01*
X0121510Y0368750D01*
X0121510Y0353750D01*
X0114010Y0353750D01*
X0114010Y0367500D01*
X0115260Y0368750D01*
X0121510Y0368750D01*
X0127760Y0368750D01*
X0127760Y0353750D01*
X0115260Y0353750D02*
X0115260Y0368750D01*
X0109010Y0368750D01*
X0109010Y0353750D01*
X0101510Y0353750D01*
X0101510Y0367500D01*
X0102760Y0368750D01*
X0109010Y0368750D01*
X0107760Y0367500D01*
X0107760Y0353750D01*
X0115260Y0353750D01*
X0102760Y0350000D02*
X0095260Y0350000D01*
X0095260Y0363750D01*
X0096510Y0365000D01*
X0102760Y0365000D01*
X0102760Y0350000D01*
X0096510Y0348750D02*
X0096510Y0333750D01*
X0089010Y0333750D01*
X0089010Y0347500D01*
X0090260Y0348750D01*
X0096510Y0348750D01*
X0096510Y0342500D02*
X0089010Y0342500D01*
X0089010Y0356250D01*
X0090260Y0357500D01*
X0096510Y0357500D01*
X0096510Y0342500D01*
D14*
X0097530Y0336630D02*
X0101730Y0336630D01*
X0101730Y0335230D02*
X0101730Y0338030D01*
X0098930Y0335230D02*
X0097530Y0336630D01*
X0098230Y0333430D02*
X0097530Y0332730D01*
X0097530Y0331330D01*
X0098230Y0330630D01*
X0101030Y0330630D01*
X0101730Y0331330D01*
X0101730Y0332730D01*
X0101030Y0333430D01*
X0098230Y0333430D01*
X0097530Y0328820D02*
X0100330Y0328820D01*
X0101730Y0327420D01*
X0100330Y0326020D01*
X0097530Y0326020D01*
X0099280Y0323280D02*
X0099980Y0323280D01*
X0102780Y0320480D01*
X0103480Y0320480D01*
X0102780Y0318680D02*
X0099980Y0318680D01*
X0099280Y0317980D01*
X0099280Y0316580D01*
X0099980Y0315880D01*
X0102780Y0315880D01*
X0103480Y0316580D01*
X0103480Y0317980D01*
X0102780Y0318680D01*
X0099280Y0320480D02*
X0099280Y0323280D01*
X0099280Y0314070D02*
X0102080Y0314070D01*
X0103480Y0312670D01*
X0102080Y0311270D01*
X0099280Y0311270D01*
X0093480Y0302370D02*
X0089280Y0302370D01*
X0089280Y0299570D02*
X0093480Y0302370D01*
X0093480Y0299570D02*
X0089280Y0299570D01*
X0089280Y0297900D02*
X0089280Y0296500D01*
X0089280Y0297200D02*
X0093480Y0297200D01*
X0093480Y0296500D02*
X0093480Y0297900D01*
X0092080Y0294700D02*
X0089280Y0294700D01*
X0092080Y0294700D02*
X0093480Y0293300D01*
X0092080Y0291900D01*
X0089280Y0291900D01*
X0127530Y0313520D02*
X0130330Y0313520D01*
X0131730Y0314920D01*
X0130330Y0316320D01*
X0127530Y0316320D01*
X0128230Y0318130D02*
X0131030Y0318130D01*
X0131730Y0318830D01*
X0131730Y0320230D01*
X0131030Y0320930D01*
X0128230Y0320930D01*
X0127530Y0320230D01*
X0127530Y0318830D01*
X0128230Y0318130D01*
X0129630Y0322730D02*
X0129630Y0324830D01*
X0130330Y0325530D01*
X0131030Y0325530D01*
X0131730Y0324830D01*
X0131730Y0323430D01*
X0131030Y0322730D01*
X0129630Y0322730D01*
X0128230Y0324130D01*
X0127530Y0325530D01*
X0127400Y0334400D02*
X0130210Y0334400D01*
X0131610Y0335800D01*
X0130210Y0337200D01*
X0127400Y0337200D01*
X0128100Y0339000D02*
X0130910Y0339000D01*
X0131610Y0339700D01*
X0131610Y0341100D01*
X0130910Y0341800D01*
X0128100Y0341800D01*
X0127400Y0341100D01*
X0127400Y0339700D01*
X0128100Y0339000D01*
X0127400Y0343600D02*
X0129500Y0343600D01*
X0128800Y0345010D01*
X0128800Y0345710D01*
X0129500Y0346410D01*
X0130910Y0346410D01*
X0131610Y0345710D01*
X0131610Y0344310D01*
X0130910Y0343600D01*
X0127400Y0343600D02*
X0127400Y0346410D01*
X0135650Y0357830D02*
X0138460Y0357830D01*
X0139860Y0359240D01*
X0138460Y0360640D01*
X0135650Y0360640D01*
X0136350Y0362440D02*
X0135650Y0363140D01*
X0135650Y0364540D01*
X0136350Y0365240D01*
X0139160Y0365240D01*
X0139860Y0364540D01*
X0139860Y0363140D01*
X0139160Y0362440D01*
X0136350Y0362440D01*
X0137750Y0367040D02*
X0137750Y0369850D01*
X0135650Y0369140D02*
X0139860Y0369140D01*
X0137750Y0367040D02*
X0135650Y0369140D01*
X0128290Y0369220D02*
X0127590Y0368520D01*
X0126190Y0368520D01*
X0125490Y0369220D01*
X0123690Y0369220D02*
X0123690Y0372020D01*
X0123217Y0372500D01*
X0122990Y0372730D02*
X0121363Y0372500D02*
X0120890Y0372020D01*
X0120890Y0369220D01*
X0121590Y0368520D01*
X0122990Y0368520D01*
X0123690Y0369220D01*
X0125490Y0372020D02*
X0125963Y0372500D01*
X0126190Y0372730D02*
X0127817Y0372500D02*
X0128290Y0372020D01*
X0128290Y0371320D01*
X0127590Y0370620D01*
X0128290Y0369920D01*
X0128290Y0369220D01*
X0127590Y0370620D02*
X0126890Y0370620D01*
X0119080Y0369920D02*
X0119080Y0372500D01*
X0119080Y0372730D02*
X0116280Y0372500D02*
X0116280Y0369920D01*
X0117680Y0368520D01*
X0119080Y0369920D01*
X0089730Y0358910D02*
X0089730Y0356100D01*
X0086930Y0358910D01*
X0086230Y0358910D01*
X0085530Y0358210D01*
X0085530Y0356810D01*
X0086230Y0356100D01*
X0086230Y0354300D02*
X0085530Y0353600D01*
X0085530Y0352200D01*
X0086230Y0351500D01*
X0089030Y0351500D01*
X0089730Y0352200D01*
X0089730Y0353600D01*
X0089030Y0354300D01*
X0086230Y0354300D01*
X0085530Y0349700D02*
X0088330Y0349700D01*
X0089730Y0348300D01*
X0088330Y0346900D01*
X0085530Y0346900D01*
D14*
X0082360Y0287100D02*
X0082360Y0372100D01*
X0148160Y0372100D01*
X0148160Y0372100D02*
X0148160Y0287100D01*
X0082360Y0287100D01*
X0155260Y0287500D02*
G75*
%LPD*%
D16*
X0155260Y0287500D02*
X0155260Y0372250D01*
X0219270Y0372250D01*
X0219270Y0287500D01*
X0155260Y0287500D01*
D11*
X0157760Y0290000D02*
X0170260Y0290000D01*
X0187130Y0306870D01*
X0187760Y0306870D01*
X0204630Y0290000D01*
X0217130Y0290000D01*
X0217130Y0370000D01*
X0199630Y0370000D01*
X0199630Y0320000D01*
X0191510Y0328120D01*
X0183380Y0328120D01*
X0175260Y0320000D01*
X0175260Y0370000D01*
X0157760Y0370000D01*
X0157760Y0290000D01*
D13*
X0162760Y0292500D02*
X0162760Y0307500D01*
X0170260Y0307500D01*
X0170260Y0293750D01*
X0169010Y0292500D01*
X0162760Y0292500D01*
X0170880Y0298750D02*
X0170880Y0313750D01*
X0178380Y0313750D01*
X0178380Y0300000D01*
X0177130Y0298750D01*
X0170880Y0298750D01*
X0169010Y0306250D02*
X0170260Y0307500D01*
X0170260Y0321250D01*
X0162760Y0321250D01*
X0162760Y0306250D01*
X0169010Y0306250D01*
X0169010Y0315000D02*
X0162760Y0315000D01*
X0162760Y0330000D01*
X0170260Y0330000D01*
X0170260Y0316250D01*
X0169010Y0315000D01*
X0169010Y0323750D02*
X0162760Y0323750D01*
X0162760Y0338750D01*
X0170260Y0338750D01*
X0170260Y0325000D01*
X0169010Y0323750D01*
X0179010Y0322500D02*
X0186510Y0322500D01*
X0186510Y0308750D01*
X0185260Y0307500D01*
X0179010Y0307500D01*
X0179010Y0322500D01*
X0187130Y0322500D02*
X0194630Y0322500D01*
X0194630Y0308750D01*
X0193380Y0307500D01*
X0187130Y0307500D01*
X0187130Y0322500D01*
X0195260Y0313750D02*
X0202760Y0313750D01*
X0202760Y0300000D01*
X0201510Y0298750D01*
X0195260Y0298750D01*
X0195260Y0313750D01*
X0204630Y0315000D02*
X0204630Y0330000D01*
X0212130Y0330000D01*
X0212130Y0316250D01*
X0210880Y0315000D01*
X0204630Y0315000D01*
X0204630Y0321250D02*
X0212130Y0321250D01*
X0212130Y0307500D01*
X0210880Y0306250D01*
X0204630Y0306250D01*
X0204630Y0321250D01*
X0204630Y0323750D02*
X0204630Y0338750D01*
X0212130Y0338750D01*
X0210880Y0337500D01*
X0204630Y0337500D01*
X0204630Y0352500D01*
X0212130Y0352500D01*
X0212130Y0338750D01*
X0212130Y0325000D01*
X0210880Y0323750D01*
X0204630Y0323750D01*
X0204630Y0307500D02*
X0212130Y0307500D01*
X0212130Y0293750D01*
X0210880Y0292500D01*
X0204630Y0292500D01*
X0204630Y0307500D01*
X0170260Y0338750D02*
X0169010Y0337500D01*
X0162760Y0337500D01*
X0162760Y0352500D01*
X0170260Y0352500D01*
X0170260Y0338750D01*
X0169010Y0346250D02*
X0170260Y0347500D01*
X0170260Y0361250D01*
X0162760Y0361250D01*
X0162760Y0346250D01*
X0169010Y0346250D01*
X0169010Y0355000D02*
X0162760Y0355000D01*
X0162760Y0370000D01*
X0170260Y0370000D01*
X0170260Y0356250D01*
X0169010Y0355000D01*
X0204630Y0355000D02*
X0204630Y0370000D01*
X0212130Y0370000D01*
X0212130Y0356250D01*
X0210880Y0355000D01*
X0204630Y0355000D01*
X0204630Y0361250D02*
X0212130Y0361250D01*
X0212130Y0347500D01*
X0210880Y0346250D01*
X0204630Y0346250D01*
X0204630Y0361250D01*
D14*
X0202780Y0355780D02*
X0202080Y0355780D01*
X0201380Y0355080D01*
X0201380Y0352980D01*
X0202780Y0352980D01*
X0203480Y0353680D01*
X0203480Y0355080D01*
X0202780Y0355780D01*
X0199980Y0354380D02*
X0201380Y0352980D01*
X0199980Y0354380D02*
X0199280Y0355780D01*
X0199980Y0351180D02*
X0199280Y0350480D01*
X0199280Y0349080D01*
X0199980Y0348380D01*
X0202780Y0348380D01*
X0203480Y0349080D01*
X0203480Y0350480D01*
X0202780Y0351180D01*
X0199980Y0351180D01*
X0199280Y0346570D02*
X0202080Y0346570D01*
X0203480Y0345170D01*
X0202080Y0343770D01*
X0199280Y0343770D01*
X0199900Y0326410D02*
X0199900Y0323600D01*
X0202000Y0323600D01*
X0201300Y0325010D01*
X0201300Y0325710D01*
X0202000Y0326410D01*
X0203410Y0326410D01*
X0204110Y0325710D01*
X0204110Y0324310D01*
X0203410Y0323600D01*
X0203410Y0321800D02*
X0200600Y0321800D01*
X0199900Y0321100D01*
X0199900Y0319700D01*
X0200600Y0319000D01*
X0203410Y0319000D01*
X0204110Y0319700D01*
X0204110Y0321100D01*
X0203410Y0321800D01*
X0202710Y0317200D02*
X0199900Y0317200D01*
X0199900Y0314400D02*
X0202710Y0314400D01*
X0204110Y0315800D01*
X0202710Y0317200D01*
X0192840Y0305350D02*
X0191440Y0305350D01*
X0190740Y0304650D01*
X0192140Y0303250D02*
X0192840Y0303250D01*
X0193540Y0302550D01*
X0193540Y0301850D01*
X0192840Y0301150D01*
X0191440Y0301150D01*
X0190740Y0301850D01*
X0192840Y0303250D02*
X0193540Y0303950D01*
X0193540Y0304650D01*
X0192840Y0305350D01*
X0188940Y0304650D02*
X0188940Y0301850D01*
X0188240Y0301150D01*
X0186840Y0301150D01*
X0186140Y0301850D01*
X0186140Y0304650D01*
X0186840Y0305350D01*
X0188240Y0305350D01*
X0188940Y0304650D01*
X0184330Y0305350D02*
X0184330Y0302550D01*
X0182930Y0301150D01*
X0181530Y0302550D01*
X0181530Y0305350D01*
X0189720Y0296980D02*
X0189720Y0294170D01*
X0191120Y0292770D01*
X0192520Y0294170D01*
X0192520Y0296980D01*
X0194320Y0296270D02*
X0194320Y0293470D01*
X0195020Y0292770D01*
X0196430Y0292770D01*
X0197130Y0293470D01*
X0197130Y0296270D01*
X0196430Y0296980D01*
X0195020Y0296980D01*
X0194320Y0296270D01*
X0198930Y0294870D02*
X0201730Y0294870D01*
X0201030Y0292770D02*
X0201030Y0296980D01*
X0198930Y0294870D01*
X0162480Y0295860D02*
X0161080Y0297260D01*
X0158280Y0297260D01*
X0158980Y0299060D02*
X0158280Y0299760D01*
X0158280Y0301170D01*
X0158980Y0301870D01*
X0161780Y0301870D01*
X0162480Y0301170D01*
X0162480Y0299760D01*
X0161780Y0299060D01*
X0158980Y0299060D01*
X0158980Y0303670D02*
X0158280Y0304370D01*
X0158280Y0305770D01*
X0158980Y0306470D01*
X0159680Y0306470D01*
X0162480Y0303670D01*
X0162480Y0306470D01*
X0162480Y0295860D02*
X0161080Y0294460D01*
X0158280Y0294460D01*
X0158280Y0326330D02*
X0161080Y0326330D01*
X0162480Y0327740D01*
X0161080Y0329140D01*
X0158280Y0329140D01*
X0158980Y0330940D02*
X0161780Y0330940D01*
X0162480Y0331640D01*
X0162480Y0333040D01*
X0161780Y0333740D01*
X0158980Y0333740D01*
X0158280Y0333040D01*
X0158280Y0331640D01*
X0158980Y0330940D01*
X0159680Y0335540D02*
X0158280Y0336940D01*
X0162480Y0336940D01*
X0162480Y0335540D02*
X0162480Y0338350D01*
X0170780Y0352870D02*
X0173580Y0352870D01*
X0174980Y0354270D01*
X0173580Y0355670D01*
X0170780Y0355670D01*
X0170780Y0357470D02*
X0170780Y0358870D01*
X0170780Y0358170D02*
X0174980Y0358170D01*
X0174980Y0357470D02*
X0174980Y0358870D01*
X0174980Y0360540D02*
X0170780Y0360540D01*
X0174980Y0363350D01*
X0170780Y0363350D01*
D14*
X0154860Y0287100D02*
X0154860Y0372650D01*
X0219670Y0372650D01*
X0219670Y0287100D01*
X0154860Y0287100D01*
X0226770Y0287500D02*
G75*
%LPD*%
D16*
X0226770Y0287500D02*
X0226770Y0372500D01*
X0291770Y0372500D01*
X0291770Y0287500D01*
X0226770Y0287500D01*
D11*
X0229270Y0290000D02*
X0288020Y0290000D01*
X0288020Y0307500D01*
X0246770Y0307500D01*
X0246770Y0321250D01*
X0271770Y0321250D01*
X0271770Y0338750D01*
X0246770Y0338750D01*
X0246770Y0352500D01*
X0288020Y0352500D01*
X0288020Y0370000D01*
X0229270Y0370000D01*
X0229270Y0290000D01*
D13*
X0232390Y0295000D02*
X0231140Y0296250D01*
X0231140Y0302500D01*
X0246140Y0302500D01*
X0246140Y0295000D01*
X0232390Y0295000D01*
X0231770Y0298120D02*
X0231770Y0311870D01*
X0231770Y0325620D01*
X0233020Y0326870D01*
X0239270Y0326870D01*
X0239270Y0311870D01*
X0231770Y0311870D01*
X0233020Y0313120D01*
X0239270Y0313120D01*
X0239270Y0298120D01*
X0231770Y0298120D01*
X0239890Y0296250D02*
X0241140Y0295000D01*
X0254890Y0295000D01*
X0254890Y0302500D01*
X0239890Y0302500D01*
X0239890Y0296250D01*
X0253640Y0296250D02*
X0254890Y0295000D01*
X0268640Y0295000D01*
X0268640Y0302500D01*
X0253640Y0302500D01*
X0253640Y0296250D01*
X0262390Y0296250D02*
X0263640Y0295000D01*
X0277390Y0295000D01*
X0277390Y0302500D01*
X0262390Y0302500D01*
X0262390Y0296250D01*
X0271140Y0296250D02*
X0272390Y0295000D01*
X0286140Y0295000D01*
X0286140Y0302500D01*
X0271140Y0302500D01*
X0271140Y0296250D01*
X0270520Y0326250D02*
X0255520Y0326250D01*
X0255520Y0333750D01*
X0269270Y0333750D01*
X0270520Y0332500D01*
X0270520Y0326250D01*
X0261770Y0326250D02*
X0246770Y0326250D01*
X0246770Y0333750D01*
X0260520Y0333750D01*
X0261770Y0332500D01*
X0261770Y0326250D01*
X0253020Y0326250D02*
X0238020Y0326250D01*
X0238020Y0333750D01*
X0251770Y0333750D01*
X0253020Y0332500D01*
X0253020Y0326250D01*
X0239270Y0330000D02*
X0231770Y0330000D01*
X0231770Y0343750D01*
X0231770Y0357500D01*
X0233020Y0358750D01*
X0239270Y0358750D01*
X0239270Y0343750D01*
X0231770Y0343750D01*
X0233020Y0345000D01*
X0239270Y0345000D01*
X0239270Y0330000D01*
X0239270Y0336250D02*
X0239270Y0321250D01*
X0231770Y0321250D01*
X0231770Y0335000D01*
X0233020Y0336250D01*
X0239270Y0336250D01*
X0239270Y0352500D02*
X0231770Y0352500D01*
X0231770Y0366250D01*
X0233020Y0367500D01*
X0239270Y0367500D01*
X0239270Y0352500D01*
X0236140Y0359370D02*
X0236140Y0366870D01*
X0249890Y0366870D01*
X0251140Y0365620D01*
X0251140Y0359370D01*
X0236140Y0359370D01*
X0251770Y0359370D02*
X0251770Y0366870D01*
X0265520Y0366870D01*
X0266770Y0365620D01*
X0266770Y0359370D01*
X0251770Y0359370D01*
X0261770Y0359370D02*
X0261770Y0366870D01*
X0275520Y0366870D01*
X0276770Y0365620D01*
X0276770Y0359370D01*
X0261770Y0359370D01*
X0271770Y0359370D02*
X0271770Y0366870D01*
X0285520Y0366870D01*
X0286770Y0365620D01*
X0286770Y0359370D01*
X0271770Y0359370D01*
D14*
X0271220Y0358350D02*
X0270520Y0357650D01*
X0270520Y0354850D01*
X0271220Y0354150D01*
X0272620Y0354150D01*
X0273320Y0354850D01*
X0273320Y0357650D01*
X0272620Y0358350D01*
X0271220Y0358350D01*
X0268720Y0358350D02*
X0268720Y0355550D01*
X0267320Y0354150D01*
X0265920Y0355550D01*
X0265920Y0358350D01*
X0262930Y0356250D02*
X0260120Y0356250D01*
X0262230Y0358350D01*
X0262230Y0354150D01*
X0258320Y0354850D02*
X0257620Y0354150D01*
X0256220Y0354150D01*
X0255520Y0354850D01*
X0255520Y0357650D01*
X0256220Y0358350D01*
X0257620Y0358350D01*
X0258320Y0357650D01*
X0258320Y0354850D01*
X0253720Y0355550D02*
X0253720Y0358350D01*
X0253720Y0355550D02*
X0252320Y0354150D01*
X0250920Y0355550D01*
X0250920Y0358350D01*
X0244370Y0355710D02*
X0244370Y0354310D01*
X0243670Y0353600D01*
X0243670Y0351800D02*
X0240860Y0351800D01*
X0240160Y0351100D01*
X0240160Y0349700D01*
X0240860Y0349000D01*
X0243670Y0349000D01*
X0244370Y0349700D01*
X0244370Y0351100D01*
X0243670Y0351800D01*
X0240860Y0353600D02*
X0240160Y0354310D01*
X0240160Y0355710D01*
X0240860Y0356410D01*
X0241560Y0356410D01*
X0242260Y0355710D01*
X0242970Y0356410D01*
X0243670Y0356410D01*
X0244370Y0355710D01*
X0242260Y0355710D02*
X0242260Y0355010D01*
X0242970Y0347200D02*
X0240160Y0347200D01*
X0240160Y0344400D02*
X0242970Y0344400D01*
X0244370Y0345800D01*
X0242970Y0347200D01*
X0249040Y0337730D02*
X0249040Y0334920D01*
X0250440Y0333520D01*
X0251840Y0334920D01*
X0251840Y0337730D01*
X0253650Y0337020D02*
X0253650Y0334220D01*
X0254350Y0333520D01*
X0255750Y0333520D01*
X0256450Y0334220D01*
X0256450Y0337020D01*
X0255750Y0337730D01*
X0254350Y0337730D01*
X0253650Y0337020D01*
X0258250Y0335620D02*
X0258250Y0334220D01*
X0258950Y0333520D01*
X0260350Y0333520D01*
X0261050Y0334220D01*
X0261050Y0334920D01*
X0260350Y0335620D01*
X0258250Y0335620D01*
X0259650Y0337020D01*
X0261050Y0337730D01*
X0275830Y0354150D02*
X0275120Y0354850D01*
X0275830Y0354150D02*
X0277230Y0354150D01*
X0277930Y0354850D01*
X0277930Y0356250D01*
X0277230Y0356950D01*
X0276530Y0356950D01*
X0275120Y0356250D01*
X0275120Y0358350D01*
X0277930Y0358350D01*
X0244370Y0325160D02*
X0244370Y0322350D01*
X0241560Y0325160D01*
X0240860Y0325160D01*
X0240160Y0324460D01*
X0240160Y0323060D01*
X0240860Y0322350D01*
X0240860Y0320550D02*
X0240160Y0319850D01*
X0240160Y0318450D01*
X0240860Y0317750D01*
X0243670Y0317750D01*
X0244370Y0318450D01*
X0244370Y0319850D01*
X0243670Y0320550D01*
X0240860Y0320550D01*
X0240160Y0315950D02*
X0242970Y0315950D01*
X0244370Y0314550D01*
X0242970Y0313150D01*
X0240160Y0313150D01*
X0242170Y0305850D02*
X0242170Y0303050D01*
X0243570Y0301650D01*
X0244970Y0303050D01*
X0244970Y0305850D01*
X0246770Y0305150D02*
X0246770Y0302350D01*
X0247470Y0301650D01*
X0248870Y0301650D01*
X0249570Y0302350D01*
X0249570Y0305150D01*
X0248870Y0305850D01*
X0247470Y0305850D01*
X0246770Y0305150D01*
X0251370Y0304450D02*
X0252780Y0305850D01*
X0252780Y0301650D01*
X0254180Y0301650D02*
X0251370Y0301650D01*
X0265920Y0304300D02*
X0267320Y0302900D01*
X0268720Y0304300D01*
X0268720Y0307100D01*
X0270520Y0307100D02*
X0271920Y0307100D01*
X0271220Y0307100D02*
X0271220Y0302900D01*
X0270520Y0302900D02*
X0271920Y0302900D01*
X0273590Y0302900D02*
X0273590Y0307100D01*
X0276390Y0302900D01*
X0276390Y0307100D01*
X0265920Y0307100D02*
X0265920Y0304300D01*
D14*
X0226370Y0287100D02*
X0226370Y0372100D01*
X0292170Y0372100D01*
X0292170Y0372100D02*
X0292170Y0287100D01*
X0226370Y0287100D01*
X0299270Y0287500D02*
G75*
%LPD*%
D16*
X0299270Y0287500D02*
X0299270Y0372500D01*
X0363020Y0372500D01*
X0363020Y0287500D01*
X0299270Y0287500D01*
D11*
X0301770Y0288750D02*
X0319270Y0288750D01*
X0319270Y0306870D01*
X0331140Y0306870D01*
X0347390Y0290620D01*
X0347830Y0290220D01*
X0348300Y0289860D01*
X0348790Y0289530D01*
X0349300Y0289230D01*
X0349830Y0288960D01*
X0350380Y0288730D01*
X0350940Y0288530D01*
X0351510Y0288370D01*
X0352090Y0288250D01*
X0352680Y0288170D01*
X0353270Y0288130D01*
X0353860Y0288120D01*
X0354450Y0288160D01*
X0355040Y0288230D01*
X0355620Y0288340D01*
X0356200Y0288490D01*
X0356760Y0288670D01*
X0357310Y0288900D01*
X0357840Y0289150D01*
X0358360Y0289450D01*
X0358860Y0289770D01*
X0359330Y0290130D01*
X0359780Y0290520D01*
X0360200Y0290930D01*
X0360600Y0291370D01*
X0360960Y0291840D01*
X0361290Y0292330D01*
X0361590Y0292840D01*
X0361860Y0293370D01*
X0362090Y0293920D01*
X0362290Y0294480D01*
X0362450Y0295050D01*
X0362570Y0295630D01*
X0362650Y0296220D01*
X0362690Y0296810D01*
X0362700Y0297400D01*
X0362660Y0297990D01*
X0362590Y0298580D01*
X0362480Y0299160D01*
X0362330Y0299740D01*
X0362150Y0300300D01*
X0361920Y0300850D01*
X0361670Y0301380D01*
X0361370Y0301900D01*
X0361050Y0302400D01*
X0360690Y0302870D01*
X0360300Y0303320D01*
X0359890Y0303740D01*
X0359890Y0303750D02*
X0348640Y0315000D01*
X0358640Y0325000D01*
X0361140Y0330000D02*
X0361140Y0350620D01*
X0358020Y0359370D02*
X0351770Y0366250D01*
X0343020Y0370000D02*
X0301770Y0370000D01*
X0301770Y0288750D01*
X0315810Y0344370D02*
X0315830Y0345100D01*
X0315890Y0345830D01*
X0315990Y0346550D01*
X0316120Y0347260D01*
X0316300Y0347970D01*
X0316510Y0348670D01*
X0316770Y0349350D01*
X0317050Y0350020D01*
X0317380Y0350670D01*
X0317740Y0351310D01*
X0318130Y0351920D01*
X0318550Y0352520D01*
X0319010Y0353080D01*
X0319500Y0353630D01*
X0320010Y0354140D01*
X0320560Y0354630D01*
X0321120Y0355090D01*
X0321720Y0355510D01*
X0322330Y0355900D01*
X0322970Y0356260D01*
X0323620Y0356590D01*
X0324290Y0356870D01*
X0324970Y0357130D01*
X0325670Y0357340D01*
X0326380Y0357520D01*
X0327090Y0357650D01*
X0327810Y0357750D01*
X0328540Y0357810D01*
X0329270Y0357830D01*
X0330000Y0357810D01*
X0330730Y0357750D01*
X0331450Y0357650D01*
X0332160Y0357520D01*
X0332870Y0357340D01*
X0333570Y0357130D01*
X0334250Y0356870D01*
X0334920Y0356590D01*
X0335570Y0356260D01*
X0336210Y0355900D01*
X0336820Y0355510D01*
X0337420Y0355090D01*
X0337980Y0354630D01*
X0338530Y0354140D01*
X0339040Y0353630D01*
X0339530Y0353080D01*
X0339990Y0352520D01*
X0340410Y0351920D01*
X0340800Y0351310D01*
X0341160Y0350670D01*
X0341490Y0350020D01*
X0341770Y0349350D01*
X0342030Y0348670D01*
X0342240Y0347970D01*
X0342420Y0347260D01*
X0342550Y0346550D01*
X0342650Y0345830D01*
X0342710Y0345100D01*
X0342730Y0344370D01*
X0342710Y0343640D01*
X0342650Y0342910D01*
X0342550Y0342190D01*
X0342420Y0341480D01*
X0342240Y0340770D01*
X0342030Y0340070D01*
X0341770Y0339390D01*
X0341490Y0338720D01*
X0341160Y0338070D01*
X0340800Y0337430D01*
X0340410Y0336820D01*
X0339990Y0336220D01*
X0339530Y0335660D01*
X0339040Y0335110D01*
X0338530Y0334600D01*
X0337980Y0334110D01*
X0337420Y0333650D01*
X0336820Y0333230D01*
X0336210Y0332840D01*
X0335570Y0332480D01*
X0334920Y0332150D01*
X0334250Y0331870D01*
X0333570Y0331610D01*
X0332870Y0331400D01*
X0332160Y0331220D01*
X0331450Y0331090D01*
X0330730Y0330990D01*
X0330000Y0330930D01*
X0329270Y0330910D01*
X0328540Y0330930D01*
X0327810Y0330990D01*
X0327090Y0331090D01*
X0326380Y0331220D01*
X0325670Y0331400D01*
X0324970Y0331610D01*
X0324290Y0331870D01*
X0323620Y0332150D01*
X0322970Y0332480D01*
X0322330Y0332840D01*
X0321720Y0333230D01*
X0321120Y0333650D01*
X0320560Y0334110D01*
X0320010Y0334600D01*
X0319500Y0335110D01*
X0319010Y0335660D01*
X0318550Y0336220D01*
X0318130Y0336820D01*
X0317740Y0337430D01*
X0317380Y0338070D01*
X0317050Y0338720D01*
X0316770Y0339390D01*
X0316510Y0340070D01*
X0316300Y0340770D01*
X0316120Y0341480D01*
X0315990Y0342190D01*
X0315890Y0342910D01*
X0315830Y0343640D01*
X0315810Y0344370D01*
X0343010Y0370000D02*
X0343670Y0370010D01*
X0344330Y0369980D01*
X0344980Y0369910D01*
X0345630Y0369810D01*
X0346270Y0369660D01*
X0346900Y0369480D01*
X0347520Y0369250D01*
X0348120Y0369000D01*
X0348710Y0368700D01*
X0349270Y0368370D01*
X0349820Y0368010D01*
X0350350Y0367610D01*
X0350850Y0367190D01*
X0351320Y0366730D01*
X0351760Y0366250D01*
X0358020Y0359370D02*
X0358460Y0358910D01*
X0358880Y0358420D01*
X0359270Y0357910D01*
X0359620Y0357370D01*
X0359940Y0356820D01*
X0360230Y0356250D01*
X0360480Y0355660D01*
X0360690Y0355050D01*
X0360870Y0354440D01*
X0361010Y0353810D01*
X0361120Y0353180D01*
X0361180Y0352540D01*
X0361210Y0351900D01*
X0361200Y0351260D01*
X0361150Y0350620D01*
X0361140Y0330000D02*
X0361120Y0329520D01*
X0361060Y0329040D01*
X0360960Y0328570D01*
X0360830Y0328100D01*
X0360660Y0327650D01*
X0360470Y0327210D01*
X0360230Y0326790D01*
X0359970Y0326390D01*
X0359680Y0326000D01*
X0359360Y0325640D01*
X0359010Y0325310D01*
X0358640Y0325000D01*
D13*
X0358020Y0328750D02*
X0343020Y0328750D01*
X0343020Y0336250D01*
X0356770Y0336250D01*
X0358020Y0335000D01*
X0358020Y0328750D01*
X0351770Y0328750D02*
X0351770Y0322500D01*
X0336770Y0322500D01*
X0336770Y0330000D01*
X0350520Y0330000D01*
X0351770Y0328750D01*
X0345520Y0336250D02*
X0345520Y0343750D01*
X0359270Y0343750D01*
X0360520Y0342500D01*
X0360520Y0336250D01*
X0345520Y0336250D01*
X0345520Y0343750D02*
X0345520Y0351250D01*
X0359270Y0351250D01*
X0360520Y0350000D01*
X0360520Y0343750D01*
X0345520Y0343750D01*
X0343020Y0351250D02*
X0343020Y0358750D01*
X0356770Y0358750D01*
X0358020Y0357500D01*
X0358020Y0351250D01*
X0343020Y0351250D01*
X0336770Y0358750D02*
X0321770Y0358750D01*
X0321770Y0366250D01*
X0335520Y0366250D01*
X0349270Y0366250D01*
X0350520Y0365000D01*
X0350520Y0358750D01*
X0335520Y0358750D01*
X0335520Y0366250D01*
X0336770Y0365000D01*
X0336770Y0358750D01*
X0326770Y0358750D02*
X0311770Y0358750D01*
X0311770Y0366250D01*
X0325520Y0366250D01*
X0326770Y0365000D01*
X0326770Y0358750D01*
X0314270Y0352500D02*
X0314270Y0337500D01*
X0306770Y0337500D01*
X0306770Y0351250D01*
X0306770Y0365000D01*
X0308020Y0366250D01*
X0314270Y0366250D01*
X0314270Y0351250D01*
X0306770Y0351250D01*
X0308020Y0352500D01*
X0314270Y0352500D01*
X0314270Y0343750D02*
X0308020Y0343750D01*
X0306770Y0342500D01*
X0306770Y0328750D01*
X0314270Y0328750D01*
X0314270Y0343750D01*
X0314270Y0335000D02*
X0308020Y0335000D01*
X0306770Y0333750D01*
X0306770Y0320000D01*
X0314270Y0320000D01*
X0314270Y0335000D01*
X0323020Y0329370D02*
X0336770Y0329370D01*
X0338020Y0328120D01*
X0338020Y0321870D01*
X0323020Y0321870D01*
X0323020Y0329370D01*
X0318020Y0321870D02*
X0331770Y0321870D01*
X0333020Y0320620D01*
X0333020Y0314370D01*
X0318020Y0314370D01*
X0318020Y0321870D01*
X0314270Y0321250D02*
X0314270Y0306250D01*
X0306770Y0306250D01*
X0306770Y0320000D01*
X0308020Y0321250D01*
X0314270Y0321250D01*
X0314270Y0312500D02*
X0308020Y0312500D01*
X0306770Y0311250D01*
X0306770Y0297500D01*
X0314270Y0297500D01*
X0314270Y0312500D01*
X0314270Y0303750D02*
X0308020Y0303750D01*
X0306770Y0302500D01*
X0306770Y0288750D01*
X0314270Y0288750D01*
X0314270Y0303750D01*
X0324270Y0308750D02*
X0324270Y0316250D01*
X0338020Y0316250D01*
X0339270Y0315000D01*
X0339270Y0308750D01*
X0324270Y0308750D01*
X0333020Y0310000D02*
X0333020Y0302500D01*
X0348020Y0302500D01*
X0348020Y0308750D01*
X0346770Y0310000D01*
X0333020Y0310000D01*
X0340520Y0303750D02*
X0354270Y0303750D01*
X0355520Y0302500D01*
X0355520Y0296250D01*
X0340520Y0296250D01*
X0340520Y0303750D01*
X0346770Y0297500D02*
X0360520Y0297500D01*
X0361770Y0296250D01*
X0361770Y0290000D01*
X0346770Y0290000D01*
X0346770Y0297500D01*
D14*
X0353170Y0303220D02*
X0353660Y0303710D01*
X0357620Y0303710D01*
X0358120Y0304210D01*
X0356140Y0306190D01*
X0354370Y0306970D02*
X0354370Y0307960D01*
X0353380Y0308950D01*
X0352390Y0308950D01*
X0350410Y0306970D01*
X0350410Y0305980D01*
X0351400Y0304990D01*
X0352390Y0304990D01*
X0354370Y0306970D01*
X0351610Y0310720D02*
X0349630Y0308740D01*
X0347650Y0308740D01*
X0347650Y0310720D01*
X0349630Y0312700D01*
X0354790Y0316330D02*
X0357590Y0316330D01*
X0358990Y0317740D01*
X0357590Y0319140D01*
X0354790Y0319140D01*
X0355490Y0320940D02*
X0358290Y0320940D01*
X0358990Y0321640D01*
X0358990Y0323040D01*
X0358290Y0323740D01*
X0355490Y0323740D01*
X0354790Y0323040D01*
X0354790Y0321640D01*
X0355490Y0320940D01*
X0354790Y0325540D02*
X0356890Y0325540D01*
X0356190Y0326940D01*
X0356190Y0327640D01*
X0356890Y0328350D01*
X0358290Y0328350D01*
X0358990Y0327640D01*
X0358990Y0326240D01*
X0358290Y0325540D01*
X0354790Y0325540D02*
X0354790Y0328350D01*
X0345050Y0322850D02*
X0343650Y0322150D01*
X0342250Y0320750D01*
X0344350Y0320750D01*
X0345050Y0320050D01*
X0345050Y0319350D01*
X0344350Y0318650D01*
X0342950Y0318650D01*
X0342250Y0319350D01*
X0342250Y0320750D01*
X0340450Y0319350D02*
X0340450Y0322150D01*
X0339750Y0322850D01*
X0338350Y0322850D01*
X0337650Y0322150D01*
X0337650Y0319350D01*
X0338350Y0318650D01*
X0339750Y0318650D01*
X0340450Y0319350D01*
X0335840Y0320050D02*
X0335840Y0322850D01*
X0333040Y0322850D02*
X0333040Y0320050D01*
X0334440Y0318650D01*
X0335840Y0320050D01*
X0306490Y0322740D02*
X0305090Y0324140D01*
X0302290Y0324140D01*
X0302990Y0325940D02*
X0302290Y0326640D01*
X0302290Y0328040D01*
X0302990Y0328740D01*
X0305790Y0328740D01*
X0306490Y0328040D01*
X0306490Y0326640D01*
X0305790Y0325940D01*
X0302990Y0325940D01*
X0303690Y0330540D02*
X0302290Y0331940D01*
X0306490Y0331940D01*
X0306490Y0330540D02*
X0306490Y0333350D01*
X0306490Y0322740D02*
X0305090Y0321330D01*
X0302290Y0321330D01*
X0302660Y0308620D02*
X0306870Y0308620D01*
X0302660Y0305820D01*
X0306870Y0305820D01*
X0306870Y0304150D02*
X0306870Y0302750D01*
X0306870Y0303450D02*
X0302660Y0303450D01*
X0302660Y0302750D02*
X0302660Y0304150D01*
X0302660Y0300950D02*
X0305470Y0300950D01*
X0306870Y0299550D01*
X0305470Y0298150D01*
X0302660Y0298150D01*
X0302290Y0352580D02*
X0305090Y0352580D01*
X0306490Y0353990D01*
X0305090Y0355390D01*
X0302290Y0355390D01*
X0302990Y0357190D02*
X0305790Y0357190D01*
X0306490Y0357890D01*
X0306490Y0359290D01*
X0305790Y0359990D01*
X0302990Y0359990D01*
X0302290Y0359290D01*
X0302290Y0357890D01*
X0302990Y0357190D01*
X0302990Y0361790D02*
X0302290Y0362490D01*
X0302290Y0363890D01*
X0302990Y0364600D01*
X0303690Y0364600D01*
X0306490Y0361790D01*
X0306490Y0364600D01*
X0314980Y0366670D02*
X0316380Y0365270D01*
X0317780Y0366670D01*
X0317780Y0369480D01*
X0319580Y0368770D02*
X0319580Y0365970D01*
X0320280Y0365270D01*
X0321690Y0365270D01*
X0322390Y0365970D01*
X0322390Y0368770D01*
X0321690Y0369480D01*
X0320280Y0369480D01*
X0319580Y0368770D01*
X0324190Y0368770D02*
X0324890Y0369480D01*
X0326290Y0369480D01*
X0326990Y0368770D01*
X0326990Y0368070D01*
X0326290Y0367370D01*
X0326990Y0366670D01*
X0326990Y0365970D01*
X0326290Y0365270D01*
X0324890Y0365270D01*
X0324190Y0365970D01*
X0325590Y0367370D02*
X0326290Y0367370D01*
X0314980Y0366670D02*
X0314980Y0369480D01*
X0350640Y0363920D02*
X0350640Y0361940D01*
X0352620Y0361940D01*
X0354600Y0363920D01*
X0355380Y0362150D02*
X0353400Y0360170D01*
X0353400Y0359180D01*
X0354390Y0358190D01*
X0355380Y0358190D01*
X0357360Y0360170D01*
X0357360Y0361160D01*
X0356370Y0362150D01*
X0355380Y0362150D01*
X0352620Y0365900D02*
X0350640Y0363920D01*
X0357650Y0357910D02*
X0359630Y0355930D01*
X0360620Y0357910D02*
X0357650Y0357910D01*
X0360620Y0357910D02*
X0357650Y0354930D01*
D14*
X0298870Y0287100D02*
X0298870Y0372100D01*
X0362620Y0372100D01*
X0362620Y0372100D02*
X0362620Y0287100D01*
X0362620Y0287100D02*
X0298870Y0287100D01*
M02*
