G75*
G70*
%OFA0B0*%
%FSLAX25Y25*%
%IPPOS*%
%LPD*%
%AMOC8*
5,1,8,0,0,1.08239X$1,22.5*
%
%ADD15C,0.00000*%
%ADD18C,0.00800*%
X0010000Y0010000D02*
G75*
%LPD*%
D15*
X0010000Y0010000D02*
X0010000Y0090000D01*
X0055000Y0090000D01*
X0070000Y0075000D01*
X0070000Y0045000D01*
X0055000Y0030000D01*
X0027000Y0030000D01*
X0027000Y0010000D01*
X0010000Y0010000D01*
D18*
X0010400Y0010400D02*
X0010400Y0090400D01*
X0010400Y0090400D02*
X0070400Y0090400D01*
X0070400Y0010400D01*
X0010400Y0010400D01*
X0077500Y0010000D02*
G75*
%LPD*%
D15*
X0077500Y0010000D02*
X0077500Y0096000D01*
X0137230Y0096000D01*
X0137230Y0010000D01*
X0077500Y0010000D01*
D18*
X0077100Y0010400D02*
X0077100Y0096400D01*
X0137630Y0096400D01*
X0137630Y0010400D01*
X0077100Y0010400D01*
X0144730Y0010000D02*
G75*
%LPD*%
D15*
X0144730Y0010000D02*
X0144730Y0092250D01*
X0203740Y0092250D01*
X0203740Y0010000D01*
X0144730Y0010000D01*
D18*
X0144330Y0010400D02*
X0144330Y0092650D01*
X0204140Y0092650D01*
X0204140Y0010400D01*
X0144330Y0010400D01*
X0211240Y0010000D02*
G75*
%LPD*%
D15*
X0211240Y0010000D02*
X0211240Y0089750D01*
X0270250Y0089750D01*
X0270250Y0072500D01*
X0228740Y0072500D01*
X0228740Y0058750D01*
X0253740Y0058750D01*
X0253740Y0041250D01*
X0228740Y0041250D01*
X0228740Y0027500D01*
X0270610Y0027500D01*
X0270610Y0010000D01*
X0211240Y0010000D01*
D18*
X0210840Y0010400D02*
X0210840Y0090150D01*
X0271010Y0090150D01*
X0271010Y0010400D01*
X0210840Y0010400D01*
X0278110Y0010000D02*
G75*
%LPD*%
D15*
X0278110Y0010000D02*
X0278110Y0092250D01*
X0340870Y0092250D01*
X0340870Y0010000D01*
X0278110Y0010000D01*
D18*
X0277710Y0010400D02*
X0277710Y0092650D01*
X0341270Y0092650D01*
X0341270Y0010400D01*
X0277710Y0010400D01*
X0010000Y0103500D02*
G75*
%LPD*%
D15*
X0010000Y0103500D02*
X0010000Y0200750D01*
X0099010Y0200750D01*
X0099010Y0103500D01*
X0010000Y0103500D01*
D18*
X0010400Y0103100D02*
X0010400Y0200350D01*
X0010400Y0200350D02*
X0099410Y0200350D01*
X0099410Y0200350D02*
X0099410Y0103100D01*
X0010400Y0103100D01*
X0106510Y0103500D02*
G75*
%LPD*%
D15*
X0106510Y0103500D02*
X0106510Y0189500D01*
X0166240Y0189500D01*
X0166240Y0103500D01*
X0106510Y0103500D01*
D18*
X0106110Y0103100D02*
X0106110Y0189900D01*
X0166640Y0189900D01*
X0166640Y0103100D01*
X0106110Y0103100D01*
X0173740Y0103500D02*
G75*
%LPD*%
D15*
X0173740Y0103500D02*
X0173740Y0185750D01*
X0232750Y0185750D01*
X0232750Y0103500D01*
X0173740Y0103500D01*
D18*
X0173340Y0103100D02*
X0173340Y0186150D01*
X0233150Y0186150D01*
X0233150Y0103100D01*
X0173340Y0103100D01*
X0240250Y0103500D02*
G75*
%LPD*%
D15*
X0240250Y0103500D02*
X0240250Y0183250D01*
X0299260Y0183250D01*
X0299260Y0166000D01*
X0257750Y0166000D01*
X0257750Y0152250D01*
X0282750Y0152250D01*
X0282750Y0134750D01*
X0257750Y0134750D01*
X0257750Y0121000D01*
X0299620Y0121000D01*
X0299620Y0103500D01*
X0240250Y0103500D01*
D18*
X0239850Y0103100D02*
X0239850Y0183650D01*
X0300020Y0183650D01*
X0300020Y0103100D01*
X0239850Y0103100D01*
X0307120Y0103500D02*
G75*
%LPD*%
D15*
X0307120Y0103500D02*
X0307120Y0185750D01*
X0369880Y0185750D01*
X0369880Y0103500D01*
X0307120Y0103500D01*
D18*
X0306720Y0103100D02*
X0306720Y0186150D01*
X0369480Y0186150D01*
X0369480Y0103100D01*
X0369480Y0103100D02*
X0306720Y0103100D01*
M02*
