%
T01C0.019700
X1375Y1312
X5562Y3625
X2312Y4437
X1375Y3937
X6625Y6750
X1375Y7062
X3812Y8687
X8812Y1812
X9937Y2625
X12187Y3062
X8875Y4312
X12500Y4812
X8500Y7750
X12250Y8500
X10375Y8875
X19160Y1687
X16973Y2875
X14973Y3062
X19160Y3062
X19160Y6187
X14973Y6187
X15723Y8812
X23874Y2250
X26499Y2250
X22124Y3000
X24874Y5375
X22124Y6187
X22999Y7937
X26561Y7937
X28311Y1375
X33498Y2000
X31561Y3500
X28311Y4062
X32811Y4875
X33686Y7000
X28311Y7187
X30998Y8875
X5375Y10912
X5375Y13537
X5375Y16662
X8000Y18225
X1937Y18225
X11713Y11162
X12838Y11975
X15088Y12412
X11776Y13662
X15401Y14162
X11401Y17100
X15151Y17850
X13276Y18225
X22061Y11037
X19874Y12225
X17874Y12412
X22061Y12412
X22061Y15537
X17874Y15537
X18624Y18162
X26775Y11600
X29400Y11600
X25025Y12350
X27775Y14725
X25025Y15537
X25900Y17287
X29462Y17287
X31212Y10725
X36399Y11350
X34462Y12850
X31212Y13412
X35712Y14225
X36587Y16350
X31212Y16537
X33899Y18225
M30
