G75*
G70*
%OFA0B0*%
%FSLAX25Y25*%
%IPPOS*%
%LPD*%
%AMOC8*
5,1,8,0,0,1.08239X$1,22.5*
%
%ADD17C,0.00000*%
%ADD18R,0.04720X0.04720*%
X0010000Y0010000D02*
G75*
%LPD*%
D17*
X0010000Y0010000D02*
X0010000Y0095000D01*
X0075000Y0095000D01*
X0075000Y0010000D01*
X0010000Y0010000D01*
D18*
X0015860Y0016250D03*
X0015860Y0024370D03*
X0015860Y0032500D03*
X0015860Y0040620D03*
X0015860Y0048750D03*
X0015860Y0056870D03*
X0015860Y0064370D03*
X0015860Y0071870D03*
X0015860Y0080000D03*
X0015860Y0087500D03*
X0024130Y0087500D03*
X0030000Y0090380D03*
X0037500Y0090380D03*
X0045000Y0090380D03*
X0045000Y0082110D03*
X0037500Y0082110D03*
X0030000Y0082110D03*
X0024130Y0080000D03*
X0024130Y0071870D03*
X0024130Y0064370D03*
X0024130Y0056870D03*
X0024130Y0048750D03*
X0030000Y0045380D03*
X0036250Y0045380D03*
X0042500Y0045380D03*
X0042500Y0037110D03*
X0036250Y0037110D03*
X0030000Y0037110D03*
X0024130Y0040620D03*
X0024130Y0032500D03*
X0024130Y0024370D03*
X0024130Y0016250D03*
X0060860Y0058750D03*
X0060860Y0066250D03*
X0069130Y0066250D03*
X0069130Y0058750D03*
D18*
G36*
X0056950Y0051200D02*
X0059310Y0055280D01*
X0063390Y0052920D01*
X0061030Y0048840D01*
X0056950Y0051200D01*
G37*
G36*
X0051860Y0048440D02*
X0055710Y0051150D01*
X0058420Y0047300D01*
X0054570Y0044590D01*
X0051860Y0048440D01*
G37*
G36*
X0046570Y0047680D02*
X0051210Y0048500D01*
X0052030Y0043860D01*
X0047390Y0043040D01*
X0046570Y0047680D01*
G37*
G36*
X0048010Y0039540D02*
X0052650Y0040360D01*
X0053470Y0035720D01*
X0048830Y0034900D01*
X0048010Y0039540D01*
G37*
G36*
X0056600Y0041660D02*
X0060450Y0044370D01*
X0063160Y0040520D01*
X0059310Y0037810D01*
X0056600Y0041660D01*
G37*
G36*
X0064110Y0047070D02*
X0066470Y0051150D01*
X0070550Y0048790D01*
X0068190Y0044710D01*
X0064110Y0047070D01*
G37*
G36*
X0059700Y0069480D02*
X0057340Y0073560D01*
X0061420Y0075920D01*
X0063780Y0071840D01*
X0059700Y0069480D01*
G37*
G36*
X0057970Y0074730D02*
X0054120Y0077440D01*
X0056830Y0081290D01*
X0060680Y0078580D01*
X0057970Y0074730D01*
G37*
G36*
X0053650Y0078850D02*
X0049100Y0080080D01*
X0050330Y0084630D01*
X0054880Y0083400D01*
X0053650Y0078850D01*
G37*
G36*
X0062710Y0081500D02*
X0058860Y0084210D01*
X0061570Y0088060D01*
X0065420Y0085350D01*
X0062710Y0081500D01*
G37*
G36*
X0066860Y0073610D02*
X0064500Y0077690D01*
X0068580Y0080050D01*
X0070940Y0075970D01*
X0066860Y0073610D01*
G37*
G36*
X0055790Y0086830D02*
X0051240Y0088060D01*
X0052470Y0092610D01*
X0057020Y0091380D01*
X0055790Y0086830D01*
G37*
X0082500Y0010000D02*
G75*
%LPD*%
D17*
X0082500Y0010000D02*
X0082500Y0095000D01*
X0147500Y0095000D01*
X0147500Y0010000D01*
X0082500Y0010000D01*
D18*
X0108120Y0014610D03*
X0115000Y0014610D03*
X0121870Y0014610D03*
X0121870Y0022880D03*
X0115000Y0022880D03*
X0108120Y0022880D03*
X0096630Y0037500D03*
X0096630Y0045000D03*
X0096630Y0052500D03*
X0096630Y0060000D03*
X0096630Y0067500D03*
X0088360Y0067500D03*
X0088360Y0060000D03*
X0088360Y0052500D03*
X0088360Y0045000D03*
X0088360Y0037500D03*
X0108120Y0082110D03*
X0115000Y0082110D03*
X0121870Y0082110D03*
X0121870Y0090380D03*
X0115000Y0090380D03*
X0108120Y0090380D03*
X0133360Y0067500D03*
X0133360Y0060000D03*
X0133360Y0052500D03*
X0133360Y0045000D03*
X0133360Y0037500D03*
X0141630Y0037500D03*
X0141630Y0045000D03*
X0141630Y0052500D03*
X0141630Y0060000D03*
X0141630Y0067500D03*
D18*
G36*
X0131810Y0070960D02*
X0129450Y0075040D01*
X0133530Y0077400D01*
X0135890Y0073320D01*
X0131810Y0070960D01*
G37*
G36*
X0129410Y0076320D02*
X0125330Y0078680D01*
X0127690Y0082760D01*
X0131770Y0080400D01*
X0129410Y0076320D01*
G37*
G36*
X0138970Y0075090D02*
X0136610Y0079170D01*
X0140690Y0081530D01*
X0143050Y0077450D01*
X0138970Y0075090D01*
G37*
G36*
X0133550Y0083480D02*
X0129470Y0085840D01*
X0131830Y0089920D01*
X0135910Y0087560D01*
X0133550Y0083480D01*
G37*
G36*
X0104660Y0078680D02*
X0100580Y0076320D01*
X0098220Y0080400D01*
X0102300Y0082760D01*
X0104660Y0078680D01*
G37*
G36*
X0100550Y0075040D02*
X0098190Y0070960D01*
X0094110Y0073320D01*
X0096470Y0077400D01*
X0100550Y0075040D01*
G37*
G36*
X0093390Y0079170D02*
X0091030Y0075090D01*
X0086950Y0077450D01*
X0089310Y0081530D01*
X0093390Y0079170D01*
G37*
G36*
X0100520Y0085840D02*
X0096440Y0083480D01*
X0094080Y0087560D01*
X0098160Y0089920D01*
X0100520Y0085840D01*
G37*
G36*
X0098190Y0033410D02*
X0100550Y0029330D01*
X0096470Y0026970D01*
X0094110Y0031050D01*
X0098190Y0033410D01*
G37*
G36*
X0100580Y0028050D02*
X0104660Y0025690D01*
X0102300Y0021610D01*
X0098220Y0023970D01*
X0100580Y0028050D01*
G37*
G36*
X0096440Y0020890D02*
X0100520Y0018530D01*
X0098160Y0014450D01*
X0094080Y0016810D01*
X0096440Y0020890D01*
G37*
G36*
X0091030Y0029270D02*
X0093390Y0025190D01*
X0089310Y0022830D01*
X0086950Y0026910D01*
X0091030Y0029270D01*
G37*
G36*
X0125330Y0025690D02*
X0129410Y0028050D01*
X0131770Y0023970D01*
X0127690Y0021610D01*
X0125330Y0025690D01*
G37*
G36*
X0129450Y0029330D02*
X0131810Y0033410D01*
X0135890Y0031050D01*
X0133530Y0026970D01*
X0129450Y0029330D01*
G37*
G36*
X0136610Y0025190D02*
X0138970Y0029270D01*
X0143050Y0026910D01*
X0140690Y0022830D01*
X0136610Y0025190D01*
G37*
G36*
X0129470Y0018530D02*
X0133550Y0020890D01*
X0135910Y0016810D01*
X0131830Y0014450D01*
X0129470Y0018530D01*
G37*
X0155000Y0010000D02*
G75*
%LPD*%
D17*
X0155000Y0010000D02*
X0155000Y0095000D01*
X0220000Y0095000D01*
X0220000Y0010000D01*
X0155000Y0010000D01*
D18*
X0161490Y0017500D03*
X0169760Y0017500D03*
X0175620Y0022740D03*
X0169760Y0027500D03*
X0175620Y0031010D03*
X0181250Y0032740D03*
X0181250Y0041010D03*
X0187500Y0041490D03*
X0193120Y0041010D03*
X0193120Y0032740D03*
X0198750Y0031010D03*
X0204610Y0027500D03*
X0198750Y0022740D03*
X0204610Y0017500D03*
X0212880Y0017500D03*
X0212880Y0027500D03*
X0212880Y0037500D03*
X0204610Y0037500D03*
X0204610Y0047500D03*
X0212880Y0047500D03*
X0212880Y0057500D03*
X0204610Y0057500D03*
X0204610Y0067500D03*
X0212880Y0067500D03*
X0212880Y0077500D03*
X0204610Y0077500D03*
X0204610Y0087500D03*
X0212880Y0087500D03*
X0187500Y0049760D03*
X0169760Y0047500D03*
X0161490Y0047500D03*
X0161490Y0057500D03*
X0169760Y0057500D03*
X0169760Y0067500D03*
X0161490Y0067500D03*
X0161490Y0077500D03*
X0169760Y0077500D03*
X0169760Y0087500D03*
X0161490Y0087500D03*
X0161490Y0037500D03*
X0169760Y0037500D03*
X0161490Y0027500D03*
X0227500Y0010000D02*
G75*
%LPD*%
D17*
X0227500Y0010000D02*
X0227500Y0095000D01*
X0292500Y0095000D01*
X0292500Y0010000D01*
X0227500Y0010000D01*
D18*
X0238750Y0014610D03*
X0238750Y0022880D03*
X0241630Y0030000D03*
X0241630Y0037500D03*
X0241630Y0045000D03*
X0241630Y0052500D03*
X0243990Y0052500D03*
X0241630Y0060000D03*
X0241630Y0067500D03*
X0241630Y0075000D03*
X0237500Y0082110D03*
X0233360Y0075000D03*
X0233360Y0067500D03*
X0233360Y0060000D03*
X0233360Y0052500D03*
X0233360Y0045000D03*
X0233360Y0037500D03*
X0233360Y0030000D03*
X0247500Y0022880D03*
X0247500Y0014610D03*
X0256250Y0014610D03*
X0256250Y0022880D03*
X0265000Y0022880D03*
X0265000Y0014610D03*
X0273750Y0014610D03*
X0273750Y0022880D03*
X0282500Y0022880D03*
X0282500Y0014610D03*
X0262260Y0052500D03*
X0253990Y0052500D03*
X0252260Y0052500D03*
X0255000Y0082110D03*
X0255000Y0090380D03*
X0246250Y0090380D03*
X0246250Y0082110D03*
X0237500Y0090380D03*
X0263750Y0090380D03*
X0263750Y0082110D03*
X0272500Y0082110D03*
X0272500Y0090380D03*
X0281250Y0090380D03*
X0281250Y0082110D03*
X0300000Y0010000D02*
G75*
%LPD*%
D17*
X0300000Y0010000D02*
X0300000Y0095000D01*
X0363750Y0095000D01*
X0363750Y0010000D01*
X0300000Y0010000D01*
D18*
X0305860Y0016250D03*
X0305860Y0024370D03*
X0305860Y0032500D03*
X0305860Y0040620D03*
X0305860Y0048750D03*
X0305860Y0056870D03*
X0305860Y0065000D03*
X0314130Y0065000D03*
X0314130Y0056870D03*
X0314130Y0048750D03*
X0320000Y0044130D03*
X0314130Y0040620D03*
X0320000Y0035860D03*
X0314130Y0032500D03*
X0314130Y0024370D03*
X0314130Y0016250D03*
X0327500Y0035860D03*
X0335000Y0035860D03*
X0340860Y0032500D03*
X0340860Y0040000D03*
X0335000Y0044130D03*
X0327500Y0044130D03*
X0345240Y0046870D03*
X0349130Y0040000D03*
X0349130Y0032500D03*
X0352880Y0024370D03*
X0344610Y0024370D03*
X0350240Y0016250D03*
X0358510Y0016250D03*
X0353510Y0046870D03*
X0350240Y0054370D03*
X0350240Y0062500D03*
X0358510Y0062500D03*
X0358510Y0054370D03*
X0340620Y0080860D03*
X0340620Y0089130D03*
X0331870Y0089130D03*
X0331870Y0080860D03*
X0323120Y0080860D03*
X0316630Y0083120D03*
X0323120Y0089130D03*
X0308360Y0083120D03*
X0305860Y0073750D03*
X0314130Y0073750D03*
D18*
G36*
X0346450Y0072390D02*
X0343120Y0075720D01*
X0346450Y0079050D01*
X0349780Y0075720D01*
X0346450Y0072390D01*
G37*
G36*
X0348730Y0066230D02*
X0346370Y0070310D01*
X0350450Y0072670D01*
X0352810Y0068590D01*
X0348730Y0066230D01*
G37*
G36*
X0355890Y0070360D02*
X0353530Y0074440D01*
X0357610Y0076800D01*
X0359970Y0072720D01*
X0355890Y0070360D01*
G37*
G36*
X0352290Y0078230D02*
X0348960Y0081560D01*
X0352290Y0084890D01*
X0355620Y0081560D01*
X0352290Y0078230D01*
G37*
X0010000Y0102500D02*
G75*
%LPD*%
D17*
X0010000Y0102500D02*
X0010000Y0187500D01*
X0075000Y0187500D01*
X0075000Y0102500D01*
X0010000Y0102500D01*
D18*
X0038360Y0108120D03*
X0046630Y0108120D03*
X0046010Y0116870D03*
X0037740Y0116870D03*
X0038360Y0125620D03*
X0046630Y0125620D03*
X0046630Y0134370D03*
X0038360Y0134370D03*
X0038360Y0143120D03*
X0046630Y0143120D03*
X0046630Y0151870D03*
X0038360Y0151870D03*
X0038360Y0160620D03*
X0046630Y0160620D03*
X0046630Y0169370D03*
X0052500Y0173990D03*
X0046630Y0178120D03*
X0052500Y0182260D03*
X0060000Y0182260D03*
X0067500Y0182260D03*
X0067500Y0173990D03*
X0060000Y0173990D03*
X0038360Y0178120D03*
X0031870Y0173990D03*
X0038360Y0169370D03*
X0031870Y0182260D03*
X0024370Y0182260D03*
X0016870Y0182260D03*
X0016870Y0173990D03*
X0024370Y0173990D03*
X0082500Y0102500D02*
G75*
%LPD*%
D17*
X0082500Y0102500D02*
X0082500Y0187500D01*
X0147500Y0187500D01*
X0147500Y0102500D01*
X0082500Y0102500D01*
D18*
X0108120Y0107110D03*
X0115000Y0107110D03*
X0121870Y0107110D03*
X0121870Y0115380D03*
X0115000Y0115380D03*
X0108120Y0115380D03*
X0096630Y0130000D03*
X0096630Y0137500D03*
X0096630Y0145000D03*
X0096630Y0152500D03*
X0096630Y0160000D03*
X0088360Y0160000D03*
X0088360Y0152500D03*
X0088360Y0145000D03*
X0088360Y0137500D03*
X0088360Y0130000D03*
X0108120Y0174610D03*
X0115000Y0174610D03*
X0121870Y0174610D03*
X0121870Y0182880D03*
X0115000Y0182880D03*
X0108120Y0182880D03*
X0133360Y0160000D03*
X0133360Y0152500D03*
X0133360Y0145000D03*
X0133360Y0137500D03*
X0133360Y0130000D03*
X0141630Y0130000D03*
X0141630Y0137500D03*
X0141630Y0145000D03*
X0141630Y0152500D03*
X0141630Y0160000D03*
D18*
G36*
X0131810Y0163460D02*
X0129450Y0167540D01*
X0133530Y0169900D01*
X0135890Y0165820D01*
X0131810Y0163460D01*
G37*
G36*
X0129410Y0168820D02*
X0125330Y0171180D01*
X0127690Y0175260D01*
X0131770Y0172900D01*
X0129410Y0168820D01*
G37*
G36*
X0138970Y0167590D02*
X0136610Y0171670D01*
X0140690Y0174030D01*
X0143050Y0169950D01*
X0138970Y0167590D01*
G37*
G36*
X0133550Y0175980D02*
X0129470Y0178340D01*
X0131830Y0182420D01*
X0135910Y0180060D01*
X0133550Y0175980D01*
G37*
G36*
X0104660Y0171180D02*
X0100580Y0168820D01*
X0098220Y0172900D01*
X0102300Y0175260D01*
X0104660Y0171180D01*
G37*
G36*
X0100550Y0167540D02*
X0098190Y0163460D01*
X0094110Y0165820D01*
X0096470Y0169900D01*
X0100550Y0167540D01*
G37*
G36*
X0093390Y0171670D02*
X0091030Y0167590D01*
X0086950Y0169950D01*
X0089310Y0174030D01*
X0093390Y0171670D01*
G37*
G36*
X0100520Y0178340D02*
X0096440Y0175980D01*
X0094080Y0180060D01*
X0098160Y0182420D01*
X0100520Y0178340D01*
G37*
G36*
X0098190Y0125910D02*
X0100550Y0121830D01*
X0096470Y0119470D01*
X0094110Y0123550D01*
X0098190Y0125910D01*
G37*
G36*
X0100580Y0120550D02*
X0104660Y0118190D01*
X0102300Y0114110D01*
X0098220Y0116470D01*
X0100580Y0120550D01*
G37*
G36*
X0096440Y0113390D02*
X0100520Y0111030D01*
X0098160Y0106950D01*
X0094080Y0109310D01*
X0096440Y0113390D01*
G37*
G36*
X0091030Y0121770D02*
X0093390Y0117690D01*
X0089310Y0115330D01*
X0086950Y0119410D01*
X0091030Y0121770D01*
G37*
G36*
X0125330Y0118190D02*
X0129410Y0120550D01*
X0131770Y0116470D01*
X0127690Y0114110D01*
X0125330Y0118190D01*
G37*
G36*
X0129450Y0121830D02*
X0131810Y0125910D01*
X0135890Y0123550D01*
X0133530Y0119470D01*
X0129450Y0121830D01*
G37*
G36*
X0136610Y0117690D02*
X0138970Y0121770D01*
X0143050Y0119410D01*
X0140690Y0115330D01*
X0136610Y0117690D01*
G37*
G36*
X0129470Y0111030D02*
X0133550Y0113390D01*
X0135910Y0109310D01*
X0131830Y0106950D01*
X0129470Y0111030D01*
G37*
X0155000Y0102500D02*
G75*
%LPD*%
D17*
X0155000Y0102500D02*
X0155000Y0187500D01*
X0220000Y0187500D01*
X0220000Y0102500D01*
X0155000Y0102500D01*
D18*
X0161490Y0110000D03*
X0169760Y0110000D03*
X0175620Y0115240D03*
X0169760Y0120000D03*
X0175620Y0123510D03*
X0181250Y0125240D03*
X0181250Y0133510D03*
X0187500Y0133990D03*
X0193120Y0133510D03*
X0193120Y0125240D03*
X0198750Y0123510D03*
X0204610Y0120000D03*
X0198750Y0115240D03*
X0204610Y0110000D03*
X0212880Y0110000D03*
X0212880Y0120000D03*
X0212880Y0130000D03*
X0204610Y0130000D03*
X0204610Y0140000D03*
X0212880Y0140000D03*
X0212880Y0150000D03*
X0204610Y0150000D03*
X0204610Y0160000D03*
X0212880Y0160000D03*
X0212880Y0170000D03*
X0204610Y0170000D03*
X0204610Y0180000D03*
X0212880Y0180000D03*
X0187500Y0142260D03*
X0169760Y0140000D03*
X0161490Y0140000D03*
X0161490Y0150000D03*
X0169760Y0150000D03*
X0169760Y0160000D03*
X0161490Y0160000D03*
X0161490Y0170000D03*
X0169760Y0170000D03*
X0169760Y0180000D03*
X0161490Y0180000D03*
X0161490Y0130000D03*
X0169760Y0130000D03*
X0161490Y0120000D03*
X0227500Y0102500D02*
G75*
%LPD*%
D17*
X0227500Y0102500D02*
X0227500Y0187500D01*
X0292500Y0187500D01*
X0292500Y0102500D01*
X0227500Y0102500D01*
D18*
X0238750Y0107110D03*
X0238750Y0115380D03*
X0241630Y0122500D03*
X0241630Y0130000D03*
X0241630Y0137500D03*
X0241630Y0145000D03*
X0243990Y0145000D03*
X0241630Y0152500D03*
X0241630Y0160000D03*
X0241630Y0167500D03*
X0237500Y0174610D03*
X0233360Y0167500D03*
X0233360Y0160000D03*
X0233360Y0152500D03*
X0233360Y0145000D03*
X0233360Y0137500D03*
X0233360Y0130000D03*
X0233360Y0122500D03*
X0247500Y0115380D03*
X0247500Y0107110D03*
X0256250Y0107110D03*
X0256250Y0115380D03*
X0265000Y0115380D03*
X0265000Y0107110D03*
X0273750Y0107110D03*
X0273750Y0115380D03*
X0282500Y0115380D03*
X0282500Y0107110D03*
X0262260Y0145000D03*
X0253990Y0145000D03*
X0252260Y0145000D03*
X0255000Y0174610D03*
X0255000Y0182880D03*
X0246250Y0182880D03*
X0246250Y0174610D03*
X0237500Y0182880D03*
X0263750Y0182880D03*
X0263750Y0174610D03*
X0272500Y0174610D03*
X0272500Y0182880D03*
X0281250Y0182880D03*
X0281250Y0174610D03*
X0300000Y0102500D02*
G75*
%LPD*%
D17*
X0300000Y0102500D02*
X0300000Y0187500D01*
X0363750Y0187500D01*
X0363750Y0102500D01*
X0300000Y0102500D01*
D18*
X0305860Y0108750D03*
X0305860Y0116870D03*
X0305860Y0125000D03*
X0305860Y0133120D03*
X0305860Y0141250D03*
X0305860Y0149370D03*
X0305860Y0157500D03*
X0314130Y0157500D03*
X0314130Y0149370D03*
X0314130Y0141250D03*
X0320000Y0136630D03*
X0314130Y0133120D03*
X0320000Y0128360D03*
X0314130Y0125000D03*
X0314130Y0116870D03*
X0314130Y0108750D03*
X0327500Y0128360D03*
X0335000Y0128360D03*
X0340860Y0125000D03*
X0340860Y0132500D03*
X0335000Y0136630D03*
X0327500Y0136630D03*
X0345240Y0139370D03*
X0349130Y0132500D03*
X0349130Y0125000D03*
X0352880Y0116870D03*
X0344610Y0116870D03*
X0350240Y0108750D03*
X0358510Y0108750D03*
X0353510Y0139370D03*
X0350240Y0146870D03*
X0350240Y0155000D03*
X0358510Y0155000D03*
X0358510Y0146870D03*
X0340620Y0173360D03*
X0340620Y0181630D03*
X0331870Y0181630D03*
X0331870Y0173360D03*
X0323120Y0173360D03*
X0316630Y0175620D03*
X0323120Y0181630D03*
X0308360Y0175620D03*
X0305860Y0166250D03*
X0314130Y0166250D03*
D18*
G36*
X0346450Y0164890D02*
X0343120Y0168220D01*
X0346450Y0171550D01*
X0349780Y0168220D01*
X0346450Y0164890D01*
G37*
G36*
X0348730Y0158730D02*
X0346370Y0162810D01*
X0350450Y0165170D01*
X0352810Y0161090D01*
X0348730Y0158730D01*
G37*
G36*
X0355890Y0162860D02*
X0353530Y0166940D01*
X0357610Y0169300D01*
X0359970Y0165220D01*
X0355890Y0162860D01*
G37*
G36*
X0352290Y0170730D02*
X0348960Y0174060D01*
X0352290Y0177390D01*
X0355620Y0174060D01*
X0352290Y0170730D01*
G37*
X0010000Y0195000D02*
G75*
%LPD*%
D17*
X0010000Y0195000D02*
X0010000Y0280000D01*
X0075000Y0280000D01*
X0075000Y0195000D01*
X0010000Y0195000D01*
D18*
X0015860Y0201250D03*
X0015860Y0209370D03*
X0015860Y0217500D03*
X0015860Y0225620D03*
X0015860Y0233750D03*
X0015860Y0241870D03*
X0015860Y0249370D03*
X0015860Y0256870D03*
X0015860Y0265000D03*
X0015860Y0272500D03*
X0024130Y0272500D03*
X0030000Y0275380D03*
X0037500Y0275380D03*
X0045000Y0275380D03*
X0045000Y0267110D03*
X0037500Y0267110D03*
X0030000Y0267110D03*
X0024130Y0265000D03*
X0024130Y0256870D03*
X0024130Y0249370D03*
X0024130Y0241870D03*
X0024130Y0233750D03*
X0030000Y0230380D03*
X0036250Y0230380D03*
X0042500Y0230380D03*
X0042500Y0222110D03*
X0036250Y0222110D03*
X0030000Y0222110D03*
X0024130Y0225620D03*
X0024130Y0217500D03*
X0024130Y0209370D03*
X0024130Y0201250D03*
X0060860Y0243750D03*
X0060860Y0251250D03*
X0069130Y0251250D03*
X0069130Y0243750D03*
D18*
G36*
X0056950Y0236200D02*
X0059310Y0240280D01*
X0063390Y0237920D01*
X0061030Y0233840D01*
X0056950Y0236200D01*
G37*
G36*
X0051860Y0233440D02*
X0055710Y0236150D01*
X0058420Y0232300D01*
X0054570Y0229590D01*
X0051860Y0233440D01*
G37*
G36*
X0046570Y0232680D02*
X0051210Y0233500D01*
X0052030Y0228860D01*
X0047390Y0228040D01*
X0046570Y0232680D01*
G37*
G36*
X0048010Y0224540D02*
X0052650Y0225360D01*
X0053470Y0220720D01*
X0048830Y0219900D01*
X0048010Y0224540D01*
G37*
G36*
X0056600Y0226660D02*
X0060450Y0229370D01*
X0063160Y0225520D01*
X0059310Y0222810D01*
X0056600Y0226660D01*
G37*
G36*
X0064110Y0232070D02*
X0066470Y0236150D01*
X0070550Y0233790D01*
X0068190Y0229710D01*
X0064110Y0232070D01*
G37*
G36*
X0059700Y0254480D02*
X0057340Y0258560D01*
X0061420Y0260920D01*
X0063780Y0256840D01*
X0059700Y0254480D01*
G37*
G36*
X0057970Y0259730D02*
X0054120Y0262440D01*
X0056830Y0266290D01*
X0060680Y0263580D01*
X0057970Y0259730D01*
G37*
G36*
X0053650Y0263850D02*
X0049100Y0265080D01*
X0050330Y0269630D01*
X0054880Y0268400D01*
X0053650Y0263850D01*
G37*
G36*
X0062710Y0266500D02*
X0058860Y0269210D01*
X0061570Y0273060D01*
X0065420Y0270350D01*
X0062710Y0266500D01*
G37*
G36*
X0066860Y0258610D02*
X0064500Y0262690D01*
X0068580Y0265050D01*
X0070940Y0260970D01*
X0066860Y0258610D01*
G37*
G36*
X0055790Y0271830D02*
X0051240Y0273060D01*
X0052470Y0277610D01*
X0057020Y0276380D01*
X0055790Y0271830D01*
G37*
X0082500Y0195000D02*
G75*
%LPD*%
D17*
X0082500Y0195000D02*
X0082500Y0280000D01*
X0147500Y0280000D01*
X0147500Y0195000D01*
X0082500Y0195000D01*
D18*
X0108120Y0199610D03*
X0115000Y0199610D03*
X0121870Y0199610D03*
X0121870Y0207880D03*
X0115000Y0207880D03*
X0108120Y0207880D03*
X0096630Y0222500D03*
X0096630Y0230000D03*
X0096630Y0237500D03*
X0096630Y0245000D03*
X0096630Y0252500D03*
X0088360Y0252500D03*
X0088360Y0245000D03*
X0088360Y0237500D03*
X0088360Y0230000D03*
X0088360Y0222500D03*
X0108120Y0267110D03*
X0115000Y0267110D03*
X0121870Y0267110D03*
X0121870Y0275380D03*
X0115000Y0275380D03*
X0108120Y0275380D03*
X0133360Y0252500D03*
X0133360Y0245000D03*
X0133360Y0237500D03*
X0133360Y0230000D03*
X0133360Y0222500D03*
X0141630Y0222500D03*
X0141630Y0230000D03*
X0141630Y0237500D03*
X0141630Y0245000D03*
X0141630Y0252500D03*
D18*
G36*
X0131810Y0255960D02*
X0129450Y0260040D01*
X0133530Y0262400D01*
X0135890Y0258320D01*
X0131810Y0255960D01*
G37*
G36*
X0129410Y0261320D02*
X0125330Y0263680D01*
X0127690Y0267760D01*
X0131770Y0265400D01*
X0129410Y0261320D01*
G37*
G36*
X0138970Y0260090D02*
X0136610Y0264170D01*
X0140690Y0266530D01*
X0143050Y0262450D01*
X0138970Y0260090D01*
G37*
G36*
X0133550Y0268480D02*
X0129470Y0270840D01*
X0131830Y0274920D01*
X0135910Y0272560D01*
X0133550Y0268480D01*
G37*
G36*
X0104660Y0263680D02*
X0100580Y0261320D01*
X0098220Y0265400D01*
X0102300Y0267760D01*
X0104660Y0263680D01*
G37*
G36*
X0100550Y0260040D02*
X0098190Y0255960D01*
X0094110Y0258320D01*
X0096470Y0262400D01*
X0100550Y0260040D01*
G37*
G36*
X0093390Y0264170D02*
X0091030Y0260090D01*
X0086950Y0262450D01*
X0089310Y0266530D01*
X0093390Y0264170D01*
G37*
G36*
X0100520Y0270840D02*
X0096440Y0268480D01*
X0094080Y0272560D01*
X0098160Y0274920D01*
X0100520Y0270840D01*
G37*
G36*
X0098190Y0218410D02*
X0100550Y0214330D01*
X0096470Y0211970D01*
X0094110Y0216050D01*
X0098190Y0218410D01*
G37*
G36*
X0100580Y0213050D02*
X0104660Y0210690D01*
X0102300Y0206610D01*
X0098220Y0208970D01*
X0100580Y0213050D01*
G37*
G36*
X0096440Y0205890D02*
X0100520Y0203530D01*
X0098160Y0199450D01*
X0094080Y0201810D01*
X0096440Y0205890D01*
G37*
G36*
X0091030Y0214270D02*
X0093390Y0210190D01*
X0089310Y0207830D01*
X0086950Y0211910D01*
X0091030Y0214270D01*
G37*
G36*
X0125330Y0210690D02*
X0129410Y0213050D01*
X0131770Y0208970D01*
X0127690Y0206610D01*
X0125330Y0210690D01*
G37*
G36*
X0129450Y0214330D02*
X0131810Y0218410D01*
X0135890Y0216050D01*
X0133530Y0211970D01*
X0129450Y0214330D01*
G37*
G36*
X0136610Y0210190D02*
X0138970Y0214270D01*
X0143050Y0211910D01*
X0140690Y0207830D01*
X0136610Y0210190D01*
G37*
G36*
X0129470Y0203530D02*
X0133550Y0205890D01*
X0135910Y0201810D01*
X0131830Y0199450D01*
X0129470Y0203530D01*
G37*
X0155000Y0195000D02*
G75*
%LPD*%
D17*
X0155000Y0195000D02*
X0155000Y0280000D01*
X0220000Y0280000D01*
X0220000Y0195000D01*
X0155000Y0195000D01*
D18*
X0161490Y0202500D03*
X0169760Y0202500D03*
X0175620Y0207740D03*
X0169760Y0212500D03*
X0175620Y0216010D03*
X0181250Y0217740D03*
X0181250Y0226010D03*
X0187500Y0226490D03*
X0193120Y0226010D03*
X0193120Y0217740D03*
X0198750Y0216010D03*
X0204610Y0212500D03*
X0198750Y0207740D03*
X0204610Y0202500D03*
X0212880Y0202500D03*
X0212880Y0212500D03*
X0212880Y0222500D03*
X0204610Y0222500D03*
X0204610Y0232500D03*
X0212880Y0232500D03*
X0212880Y0242500D03*
X0204610Y0242500D03*
X0204610Y0252500D03*
X0212880Y0252500D03*
X0212880Y0262500D03*
X0204610Y0262500D03*
X0204610Y0272500D03*
X0212880Y0272500D03*
X0187500Y0234760D03*
X0169760Y0232500D03*
X0161490Y0232500D03*
X0161490Y0242500D03*
X0169760Y0242500D03*
X0169760Y0252500D03*
X0161490Y0252500D03*
X0161490Y0262500D03*
X0169760Y0262500D03*
X0169760Y0272500D03*
X0161490Y0272500D03*
X0161490Y0222500D03*
X0169760Y0222500D03*
X0161490Y0212500D03*
X0227500Y0195000D02*
G75*
%LPD*%
D17*
X0227500Y0195000D02*
X0227500Y0280000D01*
X0292500Y0280000D01*
X0292500Y0195000D01*
X0227500Y0195000D01*
D18*
X0238750Y0199610D03*
X0238750Y0207880D03*
X0241630Y0215000D03*
X0241630Y0222500D03*
X0241630Y0230000D03*
X0241630Y0237500D03*
X0243990Y0237500D03*
X0241630Y0245000D03*
X0241630Y0252500D03*
X0241630Y0260000D03*
X0237500Y0267110D03*
X0233360Y0260000D03*
X0233360Y0252500D03*
X0233360Y0245000D03*
X0233360Y0237500D03*
X0233360Y0230000D03*
X0233360Y0222500D03*
X0233360Y0215000D03*
X0247500Y0207880D03*
X0247500Y0199610D03*
X0256250Y0199610D03*
X0256250Y0207880D03*
X0265000Y0207880D03*
X0265000Y0199610D03*
X0273750Y0199610D03*
X0273750Y0207880D03*
X0282500Y0207880D03*
X0282500Y0199610D03*
X0262260Y0237500D03*
X0253990Y0237500D03*
X0252260Y0237500D03*
X0255000Y0267110D03*
X0255000Y0275380D03*
X0246250Y0275380D03*
X0246250Y0267110D03*
X0237500Y0275380D03*
X0263750Y0275380D03*
X0263750Y0267110D03*
X0272500Y0267110D03*
X0272500Y0275380D03*
X0281250Y0275380D03*
X0281250Y0267110D03*
X0300000Y0195000D02*
G75*
%LPD*%
D17*
X0300000Y0195000D02*
X0300000Y0280000D01*
X0363750Y0280000D01*
X0363750Y0195000D01*
X0300000Y0195000D01*
D18*
X0305860Y0201250D03*
X0305860Y0209370D03*
X0305860Y0217500D03*
X0305860Y0225620D03*
X0305860Y0233750D03*
X0305860Y0241870D03*
X0305860Y0250000D03*
X0314130Y0250000D03*
X0314130Y0241870D03*
X0314130Y0233750D03*
X0320000Y0229130D03*
X0314130Y0225620D03*
X0320000Y0220860D03*
X0314130Y0217500D03*
X0314130Y0209370D03*
X0314130Y0201250D03*
X0327500Y0220860D03*
X0335000Y0220860D03*
X0340860Y0217500D03*
X0340860Y0225000D03*
X0335000Y0229130D03*
X0327500Y0229130D03*
X0345240Y0231870D03*
X0349130Y0225000D03*
X0349130Y0217500D03*
X0352880Y0209370D03*
X0344610Y0209370D03*
X0350240Y0201250D03*
X0358510Y0201250D03*
X0353510Y0231870D03*
X0350240Y0239370D03*
X0350240Y0247500D03*
X0358510Y0247500D03*
X0358510Y0239370D03*
X0340620Y0265860D03*
X0340620Y0274130D03*
X0331870Y0274130D03*
X0331870Y0265860D03*
X0323120Y0265860D03*
X0316630Y0268120D03*
X0323120Y0274130D03*
X0308360Y0268120D03*
X0305860Y0258750D03*
X0314130Y0258750D03*
D18*
G36*
X0346450Y0257390D02*
X0343120Y0260720D01*
X0346450Y0264050D01*
X0349780Y0260720D01*
X0346450Y0257390D01*
G37*
G36*
X0348730Y0251230D02*
X0346370Y0255310D01*
X0350450Y0257670D01*
X0352810Y0253590D01*
X0348730Y0251230D01*
G37*
G36*
X0355890Y0255360D02*
X0353530Y0259440D01*
X0357610Y0261800D01*
X0359970Y0257720D01*
X0355890Y0255360D01*
G37*
G36*
X0352290Y0263230D02*
X0348960Y0266560D01*
X0352290Y0269890D01*
X0355620Y0266560D01*
X0352290Y0263230D01*
G37*
X0010000Y0287500D02*
G75*
%LPD*%
D17*
X0010000Y0287500D02*
X0010000Y0372500D01*
X0075000Y0372500D01*
X0075000Y0287500D01*
X0010000Y0287500D01*
D18*
X0038360Y0293120D03*
X0046630Y0293120D03*
X0046010Y0301870D03*
X0037740Y0301870D03*
X0038360Y0310620D03*
X0046630Y0310620D03*
X0046630Y0319370D03*
X0038360Y0319370D03*
X0038360Y0328120D03*
X0046630Y0328120D03*
X0046630Y0336870D03*
X0038360Y0336870D03*
X0038360Y0345620D03*
X0046630Y0345620D03*
X0046630Y0354370D03*
X0052500Y0358990D03*
X0046630Y0363120D03*
X0052500Y0367260D03*
X0060000Y0367260D03*
X0067500Y0367260D03*
X0067500Y0358990D03*
X0060000Y0358990D03*
X0038360Y0363120D03*
X0031870Y0358990D03*
X0038360Y0354370D03*
X0031870Y0367260D03*
X0024370Y0367260D03*
X0016870Y0367260D03*
X0016870Y0358990D03*
X0024370Y0358990D03*
X0082500Y0287500D02*
G75*
%LPD*%
D17*
X0082500Y0287500D02*
X0082500Y0372500D01*
X0147500Y0372500D01*
X0147500Y0287500D01*
X0082500Y0287500D01*
D18*
X0108120Y0292110D03*
X0115000Y0292110D03*
X0121870Y0292110D03*
X0121870Y0300380D03*
X0115000Y0300380D03*
X0108120Y0300380D03*
X0096630Y0315000D03*
X0096630Y0322500D03*
X0096630Y0330000D03*
X0096630Y0337500D03*
X0096630Y0345000D03*
X0088360Y0345000D03*
X0088360Y0337500D03*
X0088360Y0330000D03*
X0088360Y0322500D03*
X0088360Y0315000D03*
X0108120Y0359610D03*
X0115000Y0359610D03*
X0121870Y0359610D03*
X0121870Y0367880D03*
X0115000Y0367880D03*
X0108120Y0367880D03*
X0133360Y0345000D03*
X0133360Y0337500D03*
X0133360Y0330000D03*
X0133360Y0322500D03*
X0133360Y0315000D03*
X0141630Y0315000D03*
X0141630Y0322500D03*
X0141630Y0330000D03*
X0141630Y0337500D03*
X0141630Y0345000D03*
D18*
G36*
X0131810Y0348460D02*
X0129450Y0352540D01*
X0133530Y0354900D01*
X0135890Y0350820D01*
X0131810Y0348460D01*
G37*
G36*
X0129410Y0353820D02*
X0125330Y0356180D01*
X0127690Y0360260D01*
X0131770Y0357900D01*
X0129410Y0353820D01*
G37*
G36*
X0138970Y0352590D02*
X0136610Y0356670D01*
X0140690Y0359030D01*
X0143050Y0354950D01*
X0138970Y0352590D01*
G37*
G36*
X0133550Y0360980D02*
X0129470Y0363340D01*
X0131830Y0367420D01*
X0135910Y0365060D01*
X0133550Y0360980D01*
G37*
G36*
X0104660Y0356180D02*
X0100580Y0353820D01*
X0098220Y0357900D01*
X0102300Y0360260D01*
X0104660Y0356180D01*
G37*
G36*
X0100550Y0352540D02*
X0098190Y0348460D01*
X0094110Y0350820D01*
X0096470Y0354900D01*
X0100550Y0352540D01*
G37*
G36*
X0093390Y0356670D02*
X0091030Y0352590D01*
X0086950Y0354950D01*
X0089310Y0359030D01*
X0093390Y0356670D01*
G37*
G36*
X0100520Y0363340D02*
X0096440Y0360980D01*
X0094080Y0365060D01*
X0098160Y0367420D01*
X0100520Y0363340D01*
G37*
G36*
X0098190Y0310910D02*
X0100550Y0306830D01*
X0096470Y0304470D01*
X0094110Y0308550D01*
X0098190Y0310910D01*
G37*
G36*
X0100580Y0305550D02*
X0104660Y0303190D01*
X0102300Y0299110D01*
X0098220Y0301470D01*
X0100580Y0305550D01*
G37*
G36*
X0096440Y0298390D02*
X0100520Y0296030D01*
X0098160Y0291950D01*
X0094080Y0294310D01*
X0096440Y0298390D01*
G37*
G36*
X0091030Y0306770D02*
X0093390Y0302690D01*
X0089310Y0300330D01*
X0086950Y0304410D01*
X0091030Y0306770D01*
G37*
G36*
X0125330Y0303190D02*
X0129410Y0305550D01*
X0131770Y0301470D01*
X0127690Y0299110D01*
X0125330Y0303190D01*
G37*
G36*
X0129450Y0306830D02*
X0131810Y0310910D01*
X0135890Y0308550D01*
X0133530Y0304470D01*
X0129450Y0306830D01*
G37*
G36*
X0136610Y0302690D02*
X0138970Y0306770D01*
X0143050Y0304410D01*
X0140690Y0300330D01*
X0136610Y0302690D01*
G37*
G36*
X0129470Y0296030D02*
X0133550Y0298390D01*
X0135910Y0294310D01*
X0131830Y0291950D01*
X0129470Y0296030D01*
G37*
X0155000Y0287500D02*
G75*
%LPD*%
D17*
X0155000Y0287500D02*
X0155000Y0372500D01*
X0220000Y0372500D01*
X0220000Y0287500D01*
X0155000Y0287500D01*
D18*
X0161490Y0295000D03*
X0169760Y0295000D03*
X0175620Y0300240D03*
X0169760Y0305000D03*
X0175620Y0308510D03*
X0181250Y0310240D03*
X0181250Y0318510D03*
X0187500Y0318990D03*
X0193120Y0318510D03*
X0193120Y0310240D03*
X0198750Y0308510D03*
X0204610Y0305000D03*
X0198750Y0300240D03*
X0204610Y0295000D03*
X0212880Y0295000D03*
X0212880Y0305000D03*
X0212880Y0315000D03*
X0204610Y0315000D03*
X0204610Y0325000D03*
X0212880Y0325000D03*
X0212880Y0335000D03*
X0204610Y0335000D03*
X0204610Y0345000D03*
X0212880Y0345000D03*
X0212880Y0355000D03*
X0204610Y0355000D03*
X0204610Y0365000D03*
X0212880Y0365000D03*
X0187500Y0327260D03*
X0169760Y0325000D03*
X0161490Y0325000D03*
X0161490Y0335000D03*
X0169760Y0335000D03*
X0169760Y0345000D03*
X0161490Y0345000D03*
X0161490Y0355000D03*
X0169760Y0355000D03*
X0169760Y0365000D03*
X0161490Y0365000D03*
X0161490Y0315000D03*
X0169760Y0315000D03*
X0161490Y0305000D03*
X0227500Y0287500D02*
G75*
%LPD*%
D17*
X0227500Y0287500D02*
X0227500Y0372500D01*
X0292500Y0372500D01*
X0292500Y0287500D01*
X0227500Y0287500D01*
D18*
X0238750Y0292110D03*
X0238750Y0300380D03*
X0241630Y0307500D03*
X0241630Y0315000D03*
X0241630Y0322500D03*
X0241630Y0330000D03*
X0243990Y0330000D03*
X0241630Y0337500D03*
X0241630Y0345000D03*
X0241630Y0352500D03*
X0237500Y0359610D03*
X0233360Y0352500D03*
X0233360Y0345000D03*
X0233360Y0337500D03*
X0233360Y0330000D03*
X0233360Y0322500D03*
X0233360Y0315000D03*
X0233360Y0307500D03*
X0247500Y0300380D03*
X0247500Y0292110D03*
X0256250Y0292110D03*
X0256250Y0300380D03*
X0265000Y0300380D03*
X0265000Y0292110D03*
X0273750Y0292110D03*
X0273750Y0300380D03*
X0282500Y0300380D03*
X0282500Y0292110D03*
X0262260Y0330000D03*
X0253990Y0330000D03*
X0252260Y0330000D03*
X0255000Y0359610D03*
X0255000Y0367880D03*
X0246250Y0367880D03*
X0246250Y0359610D03*
X0237500Y0367880D03*
X0263750Y0367880D03*
X0263750Y0359610D03*
X0272500Y0359610D03*
X0272500Y0367880D03*
X0281250Y0367880D03*
X0281250Y0359610D03*
X0300000Y0287500D02*
G75*
%LPD*%
D17*
X0300000Y0287500D02*
X0300000Y0372500D01*
X0363750Y0372500D01*
X0363750Y0287500D01*
X0300000Y0287500D01*
D18*
X0305860Y0293750D03*
X0305860Y0301870D03*
X0305860Y0310000D03*
X0305860Y0318120D03*
X0305860Y0326250D03*
X0305860Y0334370D03*
X0305860Y0342500D03*
X0314130Y0342500D03*
X0314130Y0334370D03*
X0314130Y0326250D03*
X0320000Y0321630D03*
X0314130Y0318120D03*
X0320000Y0313360D03*
X0314130Y0310000D03*
X0314130Y0301870D03*
X0314130Y0293750D03*
X0327500Y0313360D03*
X0335000Y0313360D03*
X0340860Y0310000D03*
X0340860Y0317500D03*
X0335000Y0321630D03*
X0327500Y0321630D03*
X0345240Y0324370D03*
X0349130Y0317500D03*
X0349130Y0310000D03*
X0352880Y0301870D03*
X0344610Y0301870D03*
X0350240Y0293750D03*
X0358510Y0293750D03*
X0353510Y0324370D03*
X0350240Y0331870D03*
X0350240Y0340000D03*
X0358510Y0340000D03*
X0358510Y0331870D03*
X0340620Y0358360D03*
X0340620Y0366630D03*
X0331870Y0366630D03*
X0331870Y0358360D03*
X0323120Y0358360D03*
X0316630Y0360620D03*
X0323120Y0366630D03*
X0308360Y0360620D03*
X0305860Y0351250D03*
X0314130Y0351250D03*
D18*
G36*
X0346450Y0349890D02*
X0343120Y0353220D01*
X0346450Y0356550D01*
X0349780Y0353220D01*
X0346450Y0349890D01*
G37*
G36*
X0348730Y0343730D02*
X0346370Y0347810D01*
X0350450Y0350170D01*
X0352810Y0346090D01*
X0348730Y0343730D01*
G37*
G36*
X0355890Y0347860D02*
X0353530Y0351940D01*
X0357610Y0354300D01*
X0359970Y0350220D01*
X0355890Y0347860D01*
G37*
G36*
X0352290Y0355730D02*
X0348960Y0359060D01*
X0352290Y0362390D01*
X0355620Y0359060D01*
X0352290Y0355730D01*
G37*
M02*
