G75*
G70*
%OFA0B0*%
%FSLAX25Y25*%
%IPPOS*%
%LPD*%
%AMOC8*
5,1,8,0,0,1.08239X$1,22.5*
%
%ADD10C,0.03970*%
%ADD15C,0.00600*%
%ADD16C,0.00000*%
%ADD17R,0.04720X0.04720*%
X0010000Y0010000D02*
G75*
%LPD*%
D16*
X0010000Y0010000D02*
X0010000Y0095000D01*
X0075000Y0095000D01*
X0075000Y0010000D01*
X0010000Y0010000D01*
D17*
X0020000Y0015860D03*
X0020000Y0024130D03*
X0020000Y0024610D03*
X0020000Y0032880D03*
X0020000Y0033360D03*
X0020000Y0041630D03*
X0020000Y0047110D03*
X0025860Y0043120D03*
X0034130Y0043120D03*
X0034610Y0043120D03*
X0042880Y0043120D03*
X0043360Y0043120D03*
X0051630Y0043120D03*
X0058120Y0042110D03*
X0064370Y0047740D03*
X0058120Y0050380D03*
X0064370Y0056010D03*
X0064370Y0056490D03*
X0064370Y0064760D03*
X0064370Y0070240D03*
X0064370Y0078510D03*
X0054130Y0085620D03*
X0045860Y0085620D03*
X0040380Y0085620D03*
X0032110Y0085620D03*
X0031630Y0085620D03*
X0023360Y0085620D03*
X0020000Y0086630D03*
X0020000Y0078360D03*
X0020000Y0072880D03*
X0020000Y0064610D03*
X0020000Y0064130D03*
X0020000Y0055860D03*
X0020000Y0055380D03*
D17*
G36*
X0053120Y0084790D02*
X0056450Y0088120D01*
X0059780Y0084790D01*
X0056450Y0081460D01*
X0053120Y0084790D01*
G37*
G36*
X0058960Y0078950D02*
X0062290Y0082280D01*
X0065620Y0078950D01*
X0062290Y0075620D01*
X0058960Y0078950D01*
G37*
D10*
X0068750Y0073750D03*
X0068750Y0070000D03*
X0041250Y0089370D03*
X0037500Y0089370D03*
X0015620Y0074370D03*
X0015620Y0070620D03*
X0025620Y0050620D03*
X0025620Y0046870D03*
X0016250Y0042500D03*
X0016250Y0038750D03*
X0016250Y0018750D03*
X0016250Y0015620D03*
X0056250Y0038120D03*
X0060000Y0038120D03*
D15*
X0056250Y0038120D01*
X0058120Y0040000D02*
X0060000Y0038120D01*
X0058120Y0040000D02*
X0058120Y0042110D01*
X0052500Y0043990D02*
X0051630Y0043120D01*
X0051630Y0040380D01*
X0050000Y0038750D01*
X0031250Y0038750D01*
X0030000Y0040000D01*
X0030000Y0051250D01*
X0027500Y0053750D01*
X0024370Y0053750D01*
X0020000Y0049370D01*
X0020000Y0047110D01*
X0020000Y0047500D01*
X0016250Y0042500D02*
X0016250Y0038750D01*
X0017110Y0041630D02*
X0016250Y0042500D01*
X0017110Y0041630D02*
X0020000Y0041630D01*
X0025860Y0043120D02*
X0025860Y0046630D01*
X0025620Y0046870D01*
X0025620Y0050620D01*
X0020000Y0055380D02*
X0020000Y0055860D01*
X0020000Y0064130D02*
X0020000Y0064610D01*
X0015620Y0070620D02*
X0015620Y0074370D01*
X0017110Y0072880D01*
X0020000Y0072880D01*
X0020000Y0078360D02*
X0023360Y0078360D01*
X0025000Y0080000D01*
X0042500Y0080000D01*
X0045860Y0083360D01*
X0045860Y0085620D01*
X0045860Y0084130D01*
X0050000Y0080000D01*
X0055000Y0080000D01*
X0060000Y0075000D01*
X0060000Y0067500D01*
X0062500Y0065000D01*
X0064130Y0065000D01*
X0064370Y0064760D01*
X0062260Y0064760D01*
X0060000Y0062500D01*
X0060000Y0057500D01*
X0057500Y0055000D01*
X0055000Y0055000D01*
X0052500Y0052500D01*
X0052500Y0043990D01*
X0058120Y0050380D02*
X0061730Y0050380D01*
X0064370Y0047740D01*
X0064370Y0056010D02*
X0064370Y0056490D01*
X0064370Y0070240D02*
X0068510Y0070240D01*
X0068750Y0070000D01*
X0068750Y0073750D01*
X0064370Y0078510D02*
X0063930Y0078950D01*
X0062290Y0078950D01*
X0056450Y0084790D02*
X0055620Y0085620D01*
X0054130Y0085620D01*
X0041250Y0089370D02*
X0040380Y0088510D01*
X0040380Y0085620D01*
X0041250Y0089370D02*
X0037500Y0089370D01*
X0032110Y0085620D02*
X0031630Y0085620D01*
X0023360Y0085620D02*
X0022350Y0086630D01*
X0020000Y0086630D01*
X0034130Y0043120D02*
X0034610Y0043120D01*
X0030000Y0040000D02*
X0025000Y0035000D01*
X0025000Y0017500D01*
X0023360Y0015860D01*
X0020000Y0015860D01*
X0019760Y0015620D01*
X0016250Y0015620D01*
X0016250Y0018750D01*
X0020000Y0024130D02*
X0020000Y0024610D01*
X0020000Y0032880D02*
X0020000Y0033360D01*
X0042880Y0043120D02*
X0043360Y0043120D01*
X0082500Y0010000D02*
G75*
%LPD*%
D16*
X0082500Y0010000D02*
X0082500Y0095000D01*
X0147500Y0095000D01*
X0147500Y0010000D01*
X0082500Y0010000D01*
D17*
X0099370Y0020860D03*
X0099370Y0029130D03*
X0092500Y0028360D03*
X0092500Y0036630D03*
X0092500Y0037110D03*
X0092500Y0045380D03*
X0092500Y0050860D03*
X0092500Y0059130D03*
X0092500Y0059610D03*
X0092500Y0067880D03*
X0092500Y0068360D03*
X0092500Y0076630D03*
X0098750Y0075860D03*
X0105000Y0079610D03*
X0098750Y0084130D03*
X0105000Y0087880D03*
X0111250Y0087880D03*
X0117500Y0087880D03*
X0123750Y0087880D03*
X0130000Y0084130D03*
X0123750Y0079610D03*
X0117500Y0079610D03*
X0111250Y0079610D03*
X0130000Y0075860D03*
X0136250Y0076630D03*
X0136250Y0068360D03*
X0136250Y0067880D03*
X0136250Y0059610D03*
X0136250Y0059130D03*
X0136250Y0050860D03*
X0136250Y0045380D03*
X0136250Y0037110D03*
X0136250Y0036630D03*
X0136250Y0028360D03*
X0129370Y0029130D03*
X0129370Y0020860D03*
X0121870Y0017110D03*
X0114370Y0017110D03*
X0106870Y0017110D03*
X0106870Y0025380D03*
X0114370Y0025380D03*
X0121870Y0025380D03*
D10*
X0127500Y0033120D03*
X0131250Y0033120D03*
X0132500Y0050620D03*
X0132500Y0054370D03*
X0106870Y0028750D03*
X0104370Y0031250D03*
X0096250Y0041870D03*
X0096250Y0045620D03*
X0095620Y0020620D03*
X0095620Y0016870D03*
X0092500Y0080000D03*
X0092500Y0083750D03*
X0109370Y0091870D03*
X0113120Y0091870D03*
X0128750Y0087500D03*
X0132500Y0087500D03*
D15*
X0128750Y0087500D01*
X0128750Y0084130D01*
X0130000Y0084130D01*
X0131870Y0080620D02*
X0130000Y0078750D01*
X0130000Y0075860D01*
X0131870Y0080620D02*
X0133120Y0080620D01*
X0136250Y0083750D01*
X0136250Y0088750D01*
X0133750Y0091250D01*
X0126250Y0091250D01*
X0123750Y0088750D01*
X0123750Y0087880D01*
X0123750Y0082500D02*
X0117500Y0085000D01*
X0117500Y0087880D01*
X0113120Y0091870D02*
X0109370Y0091870D01*
X0109370Y0087880D01*
X0111250Y0087880D01*
X0111250Y0082500D02*
X0111250Y0079610D01*
X0111250Y0082500D02*
X0105000Y0085000D01*
X0105000Y0087880D01*
X0100480Y0084130D02*
X0105000Y0079610D01*
X0100480Y0084130D02*
X0098750Y0084130D01*
X0092500Y0083750D02*
X0092500Y0080000D01*
X0092500Y0076630D01*
X0098750Y0075860D02*
X0099130Y0075860D01*
X0100000Y0075000D01*
X0116250Y0075000D01*
X0117500Y0076250D01*
X0118750Y0075000D01*
X0123750Y0075000D01*
X0129370Y0069370D01*
X0131250Y0071250D01*
X0132500Y0071250D01*
X0136250Y0075000D01*
X0136250Y0076630D01*
X0136250Y0068360D02*
X0136250Y0067880D01*
X0129370Y0069370D02*
X0127500Y0067500D01*
X0127500Y0048750D01*
X0130860Y0045380D01*
X0130000Y0044510D01*
X0130000Y0041250D01*
X0123750Y0035000D01*
X0123750Y0031250D01*
X0125620Y0029370D01*
X0125620Y0017500D01*
X0125240Y0017110D01*
X0121870Y0017110D01*
X0117740Y0021250D02*
X0121870Y0025380D01*
X0117740Y0021250D02*
X0116250Y0021250D01*
X0114370Y0019370D01*
X0114370Y0017110D01*
X0110240Y0021250D02*
X0114370Y0025380D01*
X0110240Y0021250D02*
X0108750Y0021250D01*
X0106870Y0019370D01*
X0106870Y0017110D01*
X0106870Y0025380D02*
X0106870Y0028750D01*
X0104370Y0031250D01*
X0099370Y0029130D02*
X0098600Y0028360D01*
X0092500Y0028360D01*
X0087500Y0025000D02*
X0087500Y0048750D01*
X0088750Y0050000D01*
X0091630Y0050000D01*
X0092500Y0050860D01*
X0097110Y0050860D01*
X0098750Y0052500D01*
X0098750Y0075860D01*
X0092500Y0068360D02*
X0092500Y0067880D01*
X0092500Y0059610D02*
X0092500Y0059130D01*
X0092500Y0045380D02*
X0096250Y0045380D01*
X0096250Y0045620D01*
X0096250Y0041870D01*
X0092500Y0037110D02*
X0092500Y0036630D01*
X0087500Y0025000D02*
X0091630Y0020860D01*
X0095620Y0020860D01*
X0095620Y0020620D01*
X0095620Y0016870D01*
X0095620Y0020860D02*
X0099370Y0020860D01*
X0127500Y0029130D02*
X0127500Y0033120D01*
X0131250Y0033120D01*
X0129370Y0029130D02*
X0127500Y0029130D01*
X0129370Y0021490D02*
X0136250Y0028360D01*
X0136250Y0036630D02*
X0136250Y0037110D01*
X0136250Y0045380D02*
X0130860Y0045380D01*
X0132500Y0050620D02*
X0132500Y0054370D01*
X0132500Y0050620D02*
X0136010Y0050620D01*
X0136250Y0050860D01*
X0136250Y0059130D02*
X0136250Y0059610D01*
X0123750Y0079610D02*
X0123750Y0082500D01*
X0117500Y0079610D02*
X0117500Y0076250D01*
X0129370Y0021490D02*
X0129370Y0020860D01*
X0155000Y0010000D02*
G75*
%LPD*%
D16*
X0155000Y0010000D02*
X0155000Y0094750D01*
X0219010Y0094750D01*
X0219010Y0010000D01*
X0155000Y0010000D01*
D17*
X0166250Y0018360D03*
X0166250Y0026630D03*
X0166250Y0032110D03*
X0174370Y0032880D03*
X0182500Y0033360D03*
X0182500Y0041630D03*
X0190620Y0041630D03*
X0190620Y0033360D03*
X0198750Y0032880D03*
X0198750Y0024610D03*
X0208120Y0026630D03*
X0208120Y0032110D03*
X0208120Y0040380D03*
X0208120Y0040860D03*
X0208120Y0049130D03*
X0208120Y0049610D03*
X0208120Y0057880D03*
X0208120Y0063360D03*
X0208120Y0071630D03*
X0208120Y0072110D03*
X0208120Y0080380D03*
X0208120Y0080860D03*
X0208120Y0089130D03*
X0166250Y0089130D03*
X0166250Y0080860D03*
X0166250Y0080380D03*
X0166250Y0072110D03*
X0166250Y0071630D03*
X0166250Y0063360D03*
X0166250Y0057880D03*
X0166250Y0049610D03*
X0166250Y0049130D03*
X0166250Y0040860D03*
X0166250Y0040380D03*
X0174370Y0024610D03*
X0208120Y0018360D03*
D10*
X0204370Y0018120D03*
X0204370Y0021870D03*
X0204370Y0031870D03*
X0204370Y0035620D03*
X0182500Y0030000D03*
X0181250Y0026250D03*
X0162500Y0031870D03*
X0162500Y0035620D03*
X0162500Y0063120D03*
X0162500Y0066870D03*
X0170000Y0085620D03*
X0170000Y0089370D03*
X0204370Y0066870D03*
X0204370Y0063120D03*
D15*
X0204370Y0066870D01*
X0204370Y0063120D02*
X0207880Y0063120D01*
X0208120Y0063360D01*
X0208120Y0057880D02*
X0206630Y0057880D01*
X0202500Y0053750D01*
X0202500Y0040000D01*
X0200000Y0037500D01*
X0196250Y0037500D01*
X0192500Y0041250D01*
X0191010Y0041250D01*
X0190620Y0041630D01*
X0190620Y0041870D01*
X0187500Y0045000D01*
X0178750Y0045000D01*
X0172500Y0038750D01*
X0170000Y0038750D01*
X0170000Y0028750D01*
X0167880Y0026630D01*
X0166250Y0026630D01*
X0170000Y0026250D02*
X0170000Y0022500D01*
X0166250Y0018750D01*
X0166250Y0018360D01*
X0170000Y0026250D02*
X0171250Y0027500D01*
X0171250Y0028120D01*
X0174370Y0031250D01*
X0174370Y0032880D01*
X0178750Y0028750D02*
X0178750Y0037880D01*
X0182500Y0041630D01*
X0182500Y0033360D02*
X0182500Y0030000D01*
X0182500Y0027500D01*
X0181250Y0026250D01*
X0178750Y0028750D02*
X0174610Y0024610D01*
X0174370Y0024610D01*
X0166250Y0032110D02*
X0162740Y0032110D01*
X0162500Y0031870D01*
X0162500Y0035620D01*
X0166250Y0040380D02*
X0166250Y0040860D01*
X0170000Y0038750D02*
X0170000Y0056250D01*
X0168360Y0057880D01*
X0166250Y0057880D01*
X0169130Y0057880D01*
X0170000Y0058750D01*
X0170000Y0085620D01*
X0169760Y0085860D01*
X0169760Y0089130D01*
X0170000Y0089370D01*
X0169760Y0089130D02*
X0166250Y0089130D01*
X0166250Y0080860D02*
X0166250Y0080380D01*
X0166250Y0072110D02*
X0166250Y0071630D01*
X0162500Y0066870D02*
X0162500Y0063120D01*
X0162740Y0063360D01*
X0166250Y0063360D01*
X0166250Y0049610D02*
X0166250Y0049130D01*
X0190620Y0033360D02*
X0198260Y0033360D01*
X0198750Y0032880D01*
X0204370Y0031870D02*
X0204370Y0035620D01*
X0204370Y0031870D02*
X0207880Y0031870D01*
X0208120Y0032110D01*
X0208120Y0026630D02*
X0207740Y0026250D01*
X0202500Y0026250D01*
X0200860Y0024610D01*
X0198750Y0024610D01*
X0204370Y0021870D02*
X0204370Y0018120D01*
X0207880Y0018120D01*
X0208120Y0018360D01*
X0206100Y0024610D02*
X0208120Y0026630D01*
X0208120Y0040380D02*
X0208120Y0040860D01*
X0208120Y0049130D02*
X0208120Y0049610D01*
X0208120Y0057880D02*
X0210380Y0057880D01*
X0212500Y0060000D01*
X0212500Y0087500D01*
X0210860Y0089130D01*
X0208120Y0089130D01*
X0208120Y0080860D02*
X0208120Y0080380D01*
X0208120Y0072110D02*
X0208120Y0071630D01*
X0226510Y0010000D02*
G75*
%LPD*%
D16*
X0226510Y0010000D02*
X0226510Y0095000D01*
X0291510Y0095000D01*
X0291510Y0010000D01*
X0226510Y0010000D01*
D17*
X0234250Y0021250D03*
X0235260Y0023990D03*
X0242520Y0021250D03*
X0243000Y0021250D03*
X0251270Y0021250D03*
X0256750Y0021250D03*
X0265020Y0021250D03*
X0265500Y0021250D03*
X0273770Y0021250D03*
X0274250Y0021250D03*
X0282520Y0021250D03*
X0266890Y0052500D03*
X0258620Y0052500D03*
X0258140Y0052500D03*
X0249870Y0052500D03*
X0249390Y0052500D03*
X0241120Y0052500D03*
X0235260Y0055380D03*
X0235260Y0055860D03*
X0235260Y0064130D03*
X0235260Y0069610D03*
X0235260Y0077880D03*
X0235260Y0078360D03*
X0239250Y0085620D03*
X0235260Y0086630D03*
X0247520Y0085620D03*
X0254870Y0085620D03*
X0263140Y0085620D03*
X0264870Y0085620D03*
X0273140Y0085620D03*
X0274870Y0085620D03*
X0283140Y0085620D03*
X0235260Y0047110D03*
X0235260Y0046010D03*
X0235260Y0037740D03*
X0235260Y0032260D03*
D10*
X0239010Y0032500D03*
X0239010Y0028750D03*
X0256510Y0025000D03*
X0260260Y0025000D03*
X0279010Y0025000D03*
X0282760Y0025000D03*
X0267760Y0056250D03*
X0264010Y0056250D03*
X0239010Y0060620D03*
X0239010Y0064370D03*
X0244010Y0081870D03*
X0247760Y0081870D03*
X0279630Y0081870D03*
X0283380Y0081870D03*
D15*
X0279630Y0081870D01*
X0283140Y0082110D02*
X0283140Y0085620D01*
X0283140Y0082110D02*
X0283380Y0081870D01*
X0274870Y0085620D02*
X0273140Y0085620D01*
X0264870Y0085620D02*
X0263140Y0085620D01*
X0255260Y0085240D02*
X0255260Y0082500D01*
X0250260Y0077500D01*
X0245260Y0077500D01*
X0241510Y0073750D01*
X0241510Y0070000D01*
X0241120Y0069610D01*
X0235260Y0069610D01*
X0235260Y0064130D02*
X0238770Y0064130D01*
X0239010Y0064370D01*
X0239010Y0060620D01*
X0241120Y0057110D02*
X0244010Y0060000D01*
X0244010Y0067500D01*
X0241510Y0070000D01*
X0235260Y0077880D02*
X0235260Y0078360D01*
X0239250Y0085620D02*
X0238240Y0086630D01*
X0235260Y0086630D01*
X0244010Y0081870D02*
X0244250Y0082110D01*
X0247520Y0082110D01*
X0247760Y0081870D01*
X0247520Y0082110D02*
X0247520Y0085620D01*
X0254870Y0085620D02*
X0255260Y0085240D01*
X0241120Y0057110D02*
X0241120Y0052500D01*
X0240260Y0051630D01*
X0240260Y0037500D01*
X0235500Y0037500D01*
X0235260Y0037740D01*
X0240260Y0037500D02*
X0244010Y0033750D01*
X0244010Y0028750D01*
X0251270Y0021490D01*
X0251270Y0021250D01*
X0251510Y0021010D01*
X0251510Y0018750D01*
X0254010Y0016250D01*
X0277760Y0016250D01*
X0282520Y0021010D01*
X0282520Y0021250D01*
X0282760Y0021250D01*
X0282760Y0025000D01*
X0279010Y0025000D01*
X0274250Y0021250D02*
X0273770Y0021250D01*
X0265500Y0021250D02*
X0265020Y0021250D01*
X0260260Y0025000D02*
X0256510Y0025000D01*
X0256750Y0024760D01*
X0256750Y0021250D01*
X0243000Y0021250D02*
X0242520Y0021250D01*
X0235260Y0023990D02*
X0234250Y0022980D01*
X0234250Y0021250D01*
X0239010Y0028750D02*
X0239010Y0032500D01*
X0238770Y0032260D01*
X0235260Y0032260D01*
X0235260Y0046010D02*
X0235260Y0047110D01*
X0235260Y0055380D02*
X0235260Y0055860D01*
X0249390Y0052500D02*
X0249870Y0052500D01*
X0258140Y0052500D02*
X0258620Y0052500D01*
X0264010Y0056250D02*
X0267760Y0056250D01*
X0266890Y0055380D01*
X0266890Y0052500D01*
X0299010Y0010000D02*
G75*
%LPD*%
D16*
X0299010Y0010000D02*
X0299010Y0095000D01*
X0362760Y0095000D01*
X0362760Y0010000D01*
X0299010Y0010000D01*
D17*
X0310260Y0014610D03*
X0310260Y0022880D03*
X0310260Y0023360D03*
X0310260Y0031630D03*
X0310260Y0032110D03*
X0310260Y0040380D03*
X0310260Y0045860D03*
X0310260Y0054130D03*
X0310260Y0054610D03*
X0310260Y0062880D03*
X0310260Y0063360D03*
X0310260Y0071630D03*
X0310260Y0077110D03*
X0310260Y0085380D03*
X0314870Y0085000D03*
X0323140Y0085000D03*
X0324870Y0085000D03*
X0333140Y0085000D03*
X0338620Y0085000D03*
X0346890Y0085000D03*
X0346120Y0077500D03*
X0348620Y0070000D03*
X0354390Y0077500D03*
X0356890Y0070000D03*
X0356890Y0062500D03*
X0354390Y0055000D03*
X0348140Y0048750D03*
X0346120Y0055000D03*
X0348620Y0062500D03*
X0339870Y0048750D03*
X0334390Y0048120D03*
X0329390Y0040620D03*
X0327370Y0035000D03*
X0321120Y0040620D03*
X0326120Y0048120D03*
X0335640Y0035000D03*
X0336120Y0028750D03*
X0344390Y0028750D03*
X0343620Y0022500D03*
X0349870Y0016250D03*
X0351890Y0022500D03*
X0358140Y0016250D03*
D10*
X0358380Y0020000D03*
X0358380Y0023750D03*
X0339010Y0035000D03*
X0339010Y0038750D03*
X0351510Y0046870D03*
X0351510Y0050000D03*
X0359010Y0067500D03*
X0359010Y0073120D03*
X0333380Y0088750D03*
X0329630Y0088750D03*
X0306510Y0071870D03*
X0306510Y0068120D03*
X0306510Y0040620D03*
X0306510Y0036870D03*
X0306510Y0017500D03*
X0306510Y0013750D03*
D15*
X0306510Y0017500D01*
X0306510Y0013750D02*
X0310260Y0013750D01*
X0310260Y0014610D01*
X0312370Y0014610D01*
X0314010Y0016250D01*
X0314010Y0042740D01*
X0310880Y0045860D01*
X0310260Y0045860D01*
X0312370Y0045860D01*
X0314010Y0047500D01*
X0314010Y0076250D01*
X0312760Y0077500D01*
X0316510Y0081250D01*
X0336510Y0081250D01*
X0340260Y0081250D01*
X0341510Y0080000D01*
X0341510Y0075000D01*
X0344010Y0072500D01*
X0344010Y0067110D01*
X0348620Y0062500D01*
X0348620Y0060860D01*
X0344870Y0060860D01*
X0341510Y0057500D01*
X0341510Y0056250D01*
X0337760Y0052500D01*
X0329870Y0052500D01*
X0326120Y0048750D01*
X0326120Y0048120D01*
X0319630Y0048120D01*
X0316510Y0045000D01*
X0316510Y0038120D01*
X0319010Y0035620D01*
X0320260Y0035620D01*
X0324630Y0031250D01*
X0331510Y0031250D01*
X0334010Y0028750D01*
X0336120Y0028750D01*
X0335640Y0035000D02*
X0339010Y0035000D01*
X0339010Y0038750D01*
X0344010Y0043750D02*
X0352760Y0043750D01*
X0355260Y0046250D01*
X0355260Y0054130D01*
X0354390Y0055000D01*
X0351510Y0050000D02*
X0351510Y0046870D01*
X0351510Y0050000D02*
X0348140Y0048750D01*
X0344010Y0043750D02*
X0341120Y0046630D01*
X0339870Y0048750D01*
X0334390Y0048120D02*
X0330640Y0044370D01*
X0326510Y0044370D01*
X0323380Y0041250D01*
X0321120Y0040620D01*
X0327370Y0039230D02*
X0327370Y0035000D01*
X0327370Y0039230D02*
X0329390Y0040620D01*
X0344390Y0028750D02*
X0345260Y0029130D01*
X0345260Y0026250D01*
X0343620Y0024610D01*
X0343620Y0022500D01*
X0349870Y0018360D02*
X0351510Y0020000D01*
X0351510Y0023360D01*
X0351890Y0022500D01*
X0349870Y0018360D02*
X0349870Y0016250D01*
X0358140Y0016250D02*
X0358380Y0017740D01*
X0358380Y0020000D01*
X0358380Y0023750D01*
X0346120Y0055000D02*
X0348620Y0055860D01*
X0355260Y0062500D01*
X0356890Y0062500D01*
X0359010Y0067500D02*
X0359010Y0070000D01*
X0356890Y0070000D01*
X0359010Y0070000D02*
X0359010Y0073120D01*
X0354390Y0077500D02*
X0352760Y0077500D01*
X0349010Y0073750D01*
X0349010Y0070380D01*
X0348620Y0070000D01*
X0346120Y0077500D02*
X0346890Y0078260D01*
X0346890Y0085000D01*
X0338620Y0085000D02*
X0338620Y0083360D01*
X0336510Y0081250D01*
X0333140Y0085000D02*
X0333140Y0088750D01*
X0333380Y0088750D01*
X0329630Y0088750D01*
X0324870Y0085000D02*
X0323140Y0085000D01*
X0314870Y0085000D02*
X0310640Y0085000D01*
X0310260Y0085380D01*
X0310640Y0077500D02*
X0310260Y0077110D01*
X0310640Y0077500D02*
X0312760Y0077500D01*
X0310260Y0071870D02*
X0310260Y0071630D01*
X0310260Y0071870D02*
X0306510Y0071870D01*
X0306510Y0068120D01*
X0310260Y0063360D02*
X0310260Y0062880D01*
X0310260Y0054610D02*
X0310260Y0054130D01*
X0310260Y0040620D02*
X0306510Y0040620D01*
X0306510Y0036870D01*
X0310260Y0040380D02*
X0310260Y0040620D01*
X0310260Y0032110D02*
X0310260Y0031630D01*
X0310260Y0023360D02*
X0310260Y0022880D01*
X0010000Y0102500D02*
G75*
%LPD*%
D16*
X0010000Y0102500D02*
X0010000Y0187250D01*
X0075260Y0187250D01*
X0075260Y0102500D01*
X0010000Y0102500D01*
D17*
X0037740Y0110000D03*
X0037740Y0117500D03*
X0037740Y0125000D03*
X0037740Y0132500D03*
X0046010Y0132500D03*
X0046010Y0125000D03*
X0046010Y0117500D03*
X0046010Y0110000D03*
X0046010Y0141250D03*
X0037740Y0141250D03*
X0037740Y0150000D03*
X0046010Y0150000D03*
X0046010Y0158750D03*
X0037740Y0158750D03*
X0037740Y0167500D03*
X0031870Y0172110D03*
X0037740Y0176250D03*
X0031870Y0180380D03*
X0024370Y0180380D03*
X0016870Y0180380D03*
X0016870Y0172110D03*
X0024370Y0172110D03*
X0046010Y0176250D03*
X0052500Y0180380D03*
X0060000Y0180380D03*
X0067500Y0180380D03*
X0067500Y0172110D03*
X0060000Y0172110D03*
X0052500Y0172110D03*
X0046010Y0167500D03*
D10*
X0040000Y0180000D03*
X0036870Y0180000D03*
X0033750Y0183750D03*
X0030000Y0183750D03*
X0050620Y0183750D03*
X0054370Y0183750D03*
X0034370Y0151870D03*
X0034370Y0148120D03*
X0034370Y0126870D03*
X0034370Y0123120D03*
X0050000Y0111870D03*
X0050000Y0108120D03*
D15*
X0050000Y0111870D01*
X0050000Y0128120D01*
X0046010Y0132110D01*
X0046010Y0132500D01*
X0049370Y0135860D01*
X0049370Y0155000D01*
X0046010Y0158360D01*
X0046010Y0158750D01*
X0045620Y0158750D01*
X0041870Y0155000D01*
X0035000Y0155000D01*
X0033750Y0156250D01*
X0033750Y0167500D01*
X0032500Y0168750D01*
X0020240Y0168750D01*
X0016870Y0172110D01*
X0016870Y0179610D02*
X0024370Y0172110D01*
X0024370Y0179610D02*
X0031870Y0172110D01*
X0036870Y0177110D02*
X0037740Y0176250D01*
X0038120Y0176630D01*
X0036870Y0177110D02*
X0036870Y0180000D01*
X0040000Y0180000D01*
X0046010Y0176250D02*
X0037740Y0167980D01*
X0037740Y0167500D01*
X0037740Y0159230D02*
X0046010Y0167500D01*
X0049370Y0167500D02*
X0049370Y0162110D01*
X0046010Y0158750D01*
X0037740Y0158750D02*
X0037740Y0159230D01*
X0034370Y0151870D02*
X0034370Y0148120D01*
X0035860Y0148120D01*
X0037740Y0150000D01*
X0037740Y0141730D02*
X0046010Y0150000D01*
X0046010Y0141250D02*
X0037740Y0132980D01*
X0037740Y0132500D01*
X0034370Y0126870D02*
X0034370Y0123120D01*
X0035860Y0123120D01*
X0037740Y0125000D01*
X0037740Y0117500D02*
X0038510Y0117500D01*
X0046010Y0125000D01*
X0046010Y0117500D02*
X0038510Y0110000D01*
X0037740Y0110000D01*
X0046010Y0110000D02*
X0047880Y0108120D01*
X0050000Y0108120D01*
X0037740Y0141250D02*
X0037740Y0141730D01*
X0049370Y0167500D02*
X0050620Y0168750D01*
X0063750Y0168750D01*
X0067110Y0172110D01*
X0067500Y0172110D01*
X0060000Y0172110D02*
X0060000Y0172880D01*
X0067500Y0180380D01*
X0060000Y0180380D02*
X0052500Y0172880D01*
X0052500Y0172110D01*
X0052500Y0180380D02*
X0050620Y0182260D01*
X0050620Y0183750D01*
X0054370Y0183750D01*
X0033750Y0183750D02*
X0030000Y0183750D01*
X0030000Y0182260D01*
X0031870Y0180380D01*
X0024370Y0180380D02*
X0024370Y0179610D01*
X0016870Y0179610D02*
X0016870Y0180380D01*
X0082760Y0102500D02*
G75*
%LPD*%
D16*
X0082760Y0102500D02*
X0082760Y0187500D01*
X0147760Y0187500D01*
X0147760Y0102500D01*
X0082760Y0102500D01*
D17*
X0099630Y0113360D03*
X0099630Y0121630D03*
X0092760Y0120860D03*
X0092760Y0129130D03*
X0092760Y0129610D03*
X0092760Y0137880D03*
X0092760Y0143360D03*
X0092760Y0151630D03*
X0092760Y0152110D03*
X0092760Y0160380D03*
X0092760Y0160860D03*
X0092760Y0169130D03*
X0099010Y0168360D03*
X0105260Y0172110D03*
X0099010Y0176630D03*
X0105260Y0180380D03*
X0111510Y0180380D03*
X0117760Y0180380D03*
X0124010Y0180380D03*
X0130260Y0176630D03*
X0124010Y0172110D03*
X0117760Y0172110D03*
X0111510Y0172110D03*
X0130260Y0168360D03*
X0136510Y0169130D03*
X0136510Y0160860D03*
X0136510Y0160380D03*
X0136510Y0152110D03*
X0136510Y0151630D03*
X0136510Y0143360D03*
X0136510Y0137880D03*
X0136510Y0129610D03*
X0136510Y0129130D03*
X0136510Y0120860D03*
X0129630Y0121630D03*
X0129630Y0113360D03*
X0122130Y0109610D03*
X0114630Y0109610D03*
X0107130Y0109610D03*
X0107130Y0117880D03*
X0114630Y0117880D03*
X0122130Y0117880D03*
D10*
X0127760Y0125620D03*
X0131510Y0125620D03*
X0132760Y0143120D03*
X0132760Y0146870D03*
X0107130Y0121250D03*
X0104630Y0123750D03*
X0096510Y0134370D03*
X0096510Y0138120D03*
X0095880Y0113120D03*
X0095880Y0109370D03*
X0092760Y0172500D03*
X0092760Y0176250D03*
X0109630Y0184370D03*
X0113380Y0184370D03*
X0129010Y0180000D03*
X0132760Y0180000D03*
D15*
X0129010Y0180000D01*
X0129010Y0176630D01*
X0130260Y0176630D01*
X0132130Y0173120D02*
X0130260Y0171250D01*
X0130260Y0168360D01*
X0132130Y0173120D02*
X0133380Y0173120D01*
X0136510Y0176250D01*
X0136510Y0181250D01*
X0134010Y0183750D01*
X0126510Y0183750D01*
X0124010Y0181250D01*
X0124010Y0180380D01*
X0124010Y0175000D02*
X0117760Y0177500D01*
X0117760Y0180380D01*
X0113380Y0184370D02*
X0109630Y0184370D01*
X0109630Y0180380D01*
X0111510Y0180380D01*
X0111510Y0175000D02*
X0111510Y0172110D01*
X0111510Y0175000D02*
X0105260Y0177500D01*
X0105260Y0180380D01*
X0100740Y0176630D02*
X0105260Y0172110D01*
X0100740Y0176630D02*
X0099010Y0176630D01*
X0092760Y0176250D02*
X0092760Y0172500D01*
X0092760Y0169130D01*
X0099010Y0168360D02*
X0099390Y0168360D01*
X0100260Y0167500D01*
X0116510Y0167500D01*
X0117760Y0168750D01*
X0119010Y0167500D01*
X0124010Y0167500D01*
X0129630Y0161870D01*
X0131510Y0163750D01*
X0132760Y0163750D01*
X0136510Y0167500D01*
X0136510Y0169130D01*
X0136510Y0160860D02*
X0136510Y0160380D01*
X0129630Y0161870D02*
X0127760Y0160000D01*
X0127760Y0141250D01*
X0131120Y0137880D01*
X0130260Y0137010D01*
X0130260Y0133750D01*
X0124010Y0127500D01*
X0124010Y0123750D01*
X0125880Y0121870D01*
X0125880Y0110000D01*
X0125500Y0109610D01*
X0122130Y0109610D01*
X0118000Y0113750D02*
X0122130Y0117880D01*
X0118000Y0113750D02*
X0116510Y0113750D01*
X0114630Y0111870D01*
X0114630Y0109610D01*
X0110500Y0113750D02*
X0114630Y0117880D01*
X0110500Y0113750D02*
X0109010Y0113750D01*
X0107130Y0111870D01*
X0107130Y0109610D01*
X0107130Y0117880D02*
X0107130Y0121250D01*
X0104630Y0123750D01*
X0099630Y0121630D02*
X0098860Y0120860D01*
X0092760Y0120860D01*
X0087760Y0117500D02*
X0087760Y0141250D01*
X0089010Y0142500D01*
X0091890Y0142500D01*
X0092760Y0143360D01*
X0097370Y0143360D01*
X0099010Y0145000D01*
X0099010Y0168360D01*
X0092760Y0160860D02*
X0092760Y0160380D01*
X0092760Y0152110D02*
X0092760Y0151630D01*
X0092760Y0137880D02*
X0096510Y0137880D01*
X0096510Y0138120D01*
X0096510Y0134370D01*
X0092760Y0129610D02*
X0092760Y0129130D01*
X0087760Y0117500D02*
X0091890Y0113360D01*
X0095880Y0113360D01*
X0095880Y0113120D01*
X0095880Y0109370D01*
X0095880Y0113360D02*
X0099630Y0113360D01*
X0127760Y0121630D02*
X0127760Y0125620D01*
X0131510Y0125620D01*
X0129630Y0121630D02*
X0127760Y0121630D01*
X0129630Y0113990D02*
X0136510Y0120860D01*
X0136510Y0129130D02*
X0136510Y0129610D01*
X0136510Y0137880D02*
X0131120Y0137880D01*
X0132760Y0143120D02*
X0132760Y0146870D01*
X0132760Y0143120D02*
X0136270Y0143120D01*
X0136510Y0143360D01*
X0136510Y0151630D02*
X0136510Y0152110D01*
X0124010Y0172110D02*
X0124010Y0175000D01*
X0117760Y0172110D02*
X0117760Y0168750D01*
X0129630Y0113990D02*
X0129630Y0113360D01*
X0155260Y0102500D02*
G75*
%LPD*%
D16*
X0155260Y0102500D02*
X0155260Y0187250D01*
X0219270Y0187250D01*
X0219270Y0102500D01*
X0155260Y0102500D01*
D17*
X0166510Y0110860D03*
X0166510Y0119130D03*
X0166510Y0124610D03*
X0174630Y0125380D03*
X0182760Y0125860D03*
X0182760Y0134130D03*
X0190880Y0134130D03*
X0190880Y0125860D03*
X0199010Y0125380D03*
X0199010Y0117110D03*
X0208380Y0119130D03*
X0208380Y0124610D03*
X0208380Y0132880D03*
X0208380Y0133360D03*
X0208380Y0141630D03*
X0208380Y0142110D03*
X0208380Y0150380D03*
X0208380Y0155860D03*
X0208380Y0164130D03*
X0208380Y0164610D03*
X0208380Y0172880D03*
X0208380Y0173360D03*
X0208380Y0181630D03*
X0166510Y0181630D03*
X0166510Y0173360D03*
X0166510Y0172880D03*
X0166510Y0164610D03*
X0166510Y0164130D03*
X0166510Y0155860D03*
X0166510Y0150380D03*
X0166510Y0142110D03*
X0166510Y0141630D03*
X0166510Y0133360D03*
X0166510Y0132880D03*
X0174630Y0117110D03*
X0208380Y0110860D03*
D10*
X0204630Y0110620D03*
X0204630Y0114370D03*
X0204630Y0124370D03*
X0204630Y0128120D03*
X0182760Y0122500D03*
X0181510Y0118750D03*
X0162760Y0124370D03*
X0162760Y0128120D03*
X0162760Y0155620D03*
X0162760Y0159370D03*
X0170260Y0178120D03*
X0170260Y0181870D03*
X0204630Y0159370D03*
X0204630Y0155620D03*
D15*
X0204630Y0159370D01*
X0204630Y0155620D02*
X0208140Y0155620D01*
X0208380Y0155860D01*
X0208380Y0150380D02*
X0206890Y0150380D01*
X0202760Y0146250D01*
X0202760Y0132500D01*
X0200260Y0130000D01*
X0196510Y0130000D01*
X0192760Y0133750D01*
X0191270Y0133750D01*
X0190880Y0134130D01*
X0190880Y0134370D01*
X0187760Y0137500D01*
X0179010Y0137500D01*
X0172760Y0131250D01*
X0170260Y0131250D01*
X0170260Y0121250D01*
X0168140Y0119130D01*
X0166510Y0119130D01*
X0170260Y0118750D02*
X0170260Y0115000D01*
X0166510Y0111250D01*
X0166510Y0110860D01*
X0170260Y0118750D02*
X0171510Y0120000D01*
X0171510Y0120620D01*
X0174630Y0123750D01*
X0174630Y0125380D01*
X0179010Y0121250D02*
X0179010Y0130380D01*
X0182760Y0134130D01*
X0182760Y0125860D02*
X0182760Y0122500D01*
X0182760Y0120000D01*
X0181510Y0118750D01*
X0179010Y0121250D02*
X0174870Y0117110D01*
X0174630Y0117110D01*
X0166510Y0124610D02*
X0163000Y0124610D01*
X0162760Y0124370D01*
X0162760Y0128120D01*
X0166510Y0132880D02*
X0166510Y0133360D01*
X0170260Y0131250D02*
X0170260Y0148750D01*
X0168620Y0150380D01*
X0166510Y0150380D01*
X0169390Y0150380D01*
X0170260Y0151250D01*
X0170260Y0178120D01*
X0170020Y0178360D01*
X0170020Y0181630D01*
X0170260Y0181870D01*
X0170020Y0181630D02*
X0166510Y0181630D01*
X0166510Y0173360D02*
X0166510Y0172880D01*
X0166510Y0164610D02*
X0166510Y0164130D01*
X0162760Y0159370D02*
X0162760Y0155620D01*
X0163000Y0155860D01*
X0166510Y0155860D01*
X0166510Y0142110D02*
X0166510Y0141630D01*
X0190880Y0125860D02*
X0198520Y0125860D01*
X0199010Y0125380D01*
X0204630Y0124370D02*
X0204630Y0128120D01*
X0204630Y0124370D02*
X0208140Y0124370D01*
X0208380Y0124610D01*
X0208380Y0119130D02*
X0208000Y0118750D01*
X0202760Y0118750D01*
X0201120Y0117110D01*
X0199010Y0117110D01*
X0204630Y0114370D02*
X0204630Y0110620D01*
X0208140Y0110620D01*
X0208380Y0110860D01*
X0206360Y0117110D02*
X0208380Y0119130D01*
X0208380Y0132880D02*
X0208380Y0133360D01*
X0208380Y0141630D02*
X0208380Y0142110D01*
X0208380Y0150380D02*
X0210640Y0150380D01*
X0212760Y0152500D01*
X0212760Y0180000D01*
X0211120Y0181630D01*
X0208380Y0181630D01*
X0208380Y0173360D02*
X0208380Y0172880D01*
X0208380Y0164610D02*
X0208380Y0164130D01*
X0226770Y0102500D02*
G75*
%LPD*%
D16*
X0226770Y0102500D02*
X0226770Y0187500D01*
X0291770Y0187500D01*
X0291770Y0102500D01*
X0226770Y0102500D01*
D17*
X0234510Y0113750D03*
X0235520Y0116490D03*
X0242780Y0113750D03*
X0243260Y0113750D03*
X0251530Y0113750D03*
X0257010Y0113750D03*
X0265280Y0113750D03*
X0265760Y0113750D03*
X0274030Y0113750D03*
X0274510Y0113750D03*
X0282780Y0113750D03*
X0267150Y0145000D03*
X0258880Y0145000D03*
X0258400Y0145000D03*
X0250130Y0145000D03*
X0249650Y0145000D03*
X0241380Y0145000D03*
X0235520Y0147880D03*
X0235520Y0148360D03*
X0235520Y0156630D03*
X0235520Y0162110D03*
X0235520Y0170380D03*
X0235520Y0170860D03*
X0239510Y0178120D03*
X0235520Y0179130D03*
X0247780Y0178120D03*
X0255130Y0178120D03*
X0263400Y0178120D03*
X0265130Y0178120D03*
X0273400Y0178120D03*
X0275130Y0178120D03*
X0283400Y0178120D03*
X0235520Y0139610D03*
X0235520Y0138510D03*
X0235520Y0130240D03*
X0235520Y0124760D03*
D10*
X0239270Y0125000D03*
X0239270Y0121250D03*
X0256770Y0117500D03*
X0260520Y0117500D03*
X0279270Y0117500D03*
X0283020Y0117500D03*
X0268020Y0148750D03*
X0264270Y0148750D03*
X0239270Y0153120D03*
X0239270Y0156870D03*
X0244270Y0174370D03*
X0248020Y0174370D03*
X0279890Y0174370D03*
X0283640Y0174370D03*
D15*
X0279890Y0174370D01*
X0283400Y0174610D02*
X0283400Y0178120D01*
X0283400Y0174610D02*
X0283640Y0174370D01*
X0275130Y0178120D02*
X0273400Y0178120D01*
X0265130Y0178120D02*
X0263400Y0178120D01*
X0255520Y0177740D02*
X0255520Y0175000D01*
X0250520Y0170000D01*
X0245520Y0170000D01*
X0241770Y0166250D01*
X0241770Y0162500D01*
X0241380Y0162110D01*
X0235520Y0162110D01*
X0235520Y0156630D02*
X0239030Y0156630D01*
X0239270Y0156870D01*
X0239270Y0153120D01*
X0241380Y0149610D02*
X0244270Y0152500D01*
X0244270Y0160000D01*
X0241770Y0162500D01*
X0235520Y0170380D02*
X0235520Y0170860D01*
X0239510Y0178120D02*
X0238500Y0179130D01*
X0235520Y0179130D01*
X0244270Y0174370D02*
X0244510Y0174610D01*
X0247780Y0174610D01*
X0248020Y0174370D01*
X0247780Y0174610D02*
X0247780Y0178120D01*
X0255130Y0178120D02*
X0255520Y0177740D01*
X0241380Y0149610D02*
X0241380Y0145000D01*
X0240520Y0144130D01*
X0240520Y0130000D01*
X0235760Y0130000D01*
X0235520Y0130240D01*
X0240520Y0130000D02*
X0244270Y0126250D01*
X0244270Y0121250D01*
X0251530Y0113990D01*
X0251530Y0113750D01*
X0251770Y0113510D01*
X0251770Y0111250D01*
X0254270Y0108750D01*
X0278020Y0108750D01*
X0282780Y0113510D01*
X0282780Y0113750D01*
X0283020Y0113750D01*
X0283020Y0117500D01*
X0279270Y0117500D01*
X0274510Y0113750D02*
X0274030Y0113750D01*
X0265760Y0113750D02*
X0265280Y0113750D01*
X0260520Y0117500D02*
X0256770Y0117500D01*
X0257010Y0117260D01*
X0257010Y0113750D01*
X0243260Y0113750D02*
X0242780Y0113750D01*
X0235520Y0116490D02*
X0234510Y0115480D01*
X0234510Y0113750D01*
X0239270Y0121250D02*
X0239270Y0125000D01*
X0239030Y0124760D01*
X0235520Y0124760D01*
X0235520Y0138510D02*
X0235520Y0139610D01*
X0235520Y0147880D02*
X0235520Y0148360D01*
X0249650Y0145000D02*
X0250130Y0145000D01*
X0258400Y0145000D02*
X0258880Y0145000D01*
X0264270Y0148750D02*
X0268020Y0148750D01*
X0267150Y0147880D01*
X0267150Y0145000D01*
X0299270Y0102500D02*
G75*
%LPD*%
D16*
X0299270Y0102500D02*
X0299270Y0187500D01*
X0363020Y0187500D01*
X0363020Y0102500D01*
X0299270Y0102500D01*
D17*
X0310520Y0107110D03*
X0310520Y0115380D03*
X0310520Y0115860D03*
X0310520Y0124130D03*
X0310520Y0124610D03*
X0310520Y0132880D03*
X0310520Y0138360D03*
X0310520Y0146630D03*
X0310520Y0147110D03*
X0310520Y0155380D03*
X0310520Y0155860D03*
X0310520Y0164130D03*
X0310520Y0169610D03*
X0310520Y0177880D03*
X0315130Y0177500D03*
X0323400Y0177500D03*
X0325130Y0177500D03*
X0333400Y0177500D03*
X0338880Y0177500D03*
X0347150Y0177500D03*
X0346380Y0170000D03*
X0348880Y0162500D03*
X0354650Y0170000D03*
X0357150Y0162500D03*
X0357150Y0155000D03*
X0354650Y0147500D03*
X0348400Y0141250D03*
X0346380Y0147500D03*
X0348880Y0155000D03*
X0340130Y0141250D03*
X0334650Y0140620D03*
X0329650Y0133120D03*
X0327630Y0127500D03*
X0321380Y0133120D03*
X0326380Y0140620D03*
X0335900Y0127500D03*
X0336380Y0121250D03*
X0344650Y0121250D03*
X0343880Y0115000D03*
X0350130Y0108750D03*
X0352150Y0115000D03*
X0358400Y0108750D03*
D10*
X0358640Y0112500D03*
X0358640Y0116250D03*
X0339270Y0127500D03*
X0339270Y0131250D03*
X0351770Y0139370D03*
X0351770Y0142500D03*
X0359270Y0160000D03*
X0359270Y0165620D03*
X0333640Y0181250D03*
X0329890Y0181250D03*
X0306770Y0164370D03*
X0306770Y0160620D03*
X0306770Y0133120D03*
X0306770Y0129370D03*
X0306770Y0110000D03*
X0306770Y0106250D03*
D15*
X0306770Y0110000D01*
X0306770Y0106250D02*
X0310520Y0106250D01*
X0310520Y0107110D01*
X0312630Y0107110D01*
X0314270Y0108750D01*
X0314270Y0135240D01*
X0311140Y0138360D01*
X0310520Y0138360D01*
X0312630Y0138360D01*
X0314270Y0140000D01*
X0314270Y0168750D01*
X0313020Y0170000D01*
X0316770Y0173750D01*
X0336770Y0173750D01*
X0340520Y0173750D01*
X0341770Y0172500D01*
X0341770Y0167500D01*
X0344270Y0165000D01*
X0344270Y0159610D01*
X0348880Y0155000D01*
X0348880Y0153360D01*
X0345130Y0153360D01*
X0341770Y0150000D01*
X0341770Y0148750D01*
X0338020Y0145000D01*
X0330130Y0145000D01*
X0326380Y0141250D01*
X0326380Y0140620D01*
X0319890Y0140620D01*
X0316770Y0137500D01*
X0316770Y0130620D01*
X0319270Y0128120D01*
X0320520Y0128120D01*
X0324890Y0123750D01*
X0331770Y0123750D01*
X0334270Y0121250D01*
X0336380Y0121250D01*
X0335900Y0127500D02*
X0339270Y0127500D01*
X0339270Y0131250D01*
X0344270Y0136250D02*
X0353020Y0136250D01*
X0355520Y0138750D01*
X0355520Y0146630D01*
X0354650Y0147500D01*
X0351770Y0142500D02*
X0351770Y0139370D01*
X0351770Y0142500D02*
X0348400Y0141250D01*
X0344270Y0136250D02*
X0341380Y0139130D01*
X0340130Y0141250D01*
X0334650Y0140620D02*
X0330900Y0136870D01*
X0326770Y0136870D01*
X0323640Y0133750D01*
X0321380Y0133120D01*
X0327630Y0131730D02*
X0327630Y0127500D01*
X0327630Y0131730D02*
X0329650Y0133120D01*
X0344650Y0121250D02*
X0345520Y0121630D01*
X0345520Y0118750D01*
X0343880Y0117110D01*
X0343880Y0115000D01*
X0350130Y0110860D02*
X0351770Y0112500D01*
X0351770Y0115860D01*
X0352150Y0115000D01*
X0350130Y0110860D02*
X0350130Y0108750D01*
X0358400Y0108750D02*
X0358640Y0110240D01*
X0358640Y0112500D01*
X0358640Y0116250D01*
X0346380Y0147500D02*
X0348880Y0148360D01*
X0355520Y0155000D01*
X0357150Y0155000D01*
X0359270Y0160000D02*
X0359270Y0162500D01*
X0357150Y0162500D01*
X0359270Y0162500D02*
X0359270Y0165620D01*
X0354650Y0170000D02*
X0353020Y0170000D01*
X0349270Y0166250D01*
X0349270Y0162880D01*
X0348880Y0162500D01*
X0346380Y0170000D02*
X0347150Y0170760D01*
X0347150Y0177500D01*
X0338880Y0177500D02*
X0338880Y0175860D01*
X0336770Y0173750D01*
X0333400Y0177500D02*
X0333400Y0181250D01*
X0333640Y0181250D01*
X0329890Y0181250D01*
X0325130Y0177500D02*
X0323400Y0177500D01*
X0315130Y0177500D02*
X0310900Y0177500D01*
X0310520Y0177880D01*
X0310900Y0170000D02*
X0310520Y0169610D01*
X0310900Y0170000D02*
X0313020Y0170000D01*
X0310520Y0164370D02*
X0310520Y0164130D01*
X0310520Y0164370D02*
X0306770Y0164370D01*
X0306770Y0160620D01*
X0310520Y0155860D02*
X0310520Y0155380D01*
X0310520Y0147110D02*
X0310520Y0146630D01*
X0310520Y0133120D02*
X0306770Y0133120D01*
X0306770Y0129370D01*
X0310520Y0132880D02*
X0310520Y0133120D01*
X0310520Y0124610D02*
X0310520Y0124130D01*
X0310520Y0115860D02*
X0310520Y0115380D01*
X0010000Y0195000D02*
G75*
%LPD*%
D16*
X0010000Y0195000D02*
X0010000Y0280000D01*
X0075000Y0280000D01*
X0075000Y0195000D01*
X0010000Y0195000D01*
D17*
X0020000Y0200860D03*
X0020000Y0209130D03*
X0020000Y0209610D03*
X0020000Y0217880D03*
X0020000Y0218360D03*
X0020000Y0226630D03*
X0020000Y0232110D03*
X0025860Y0228120D03*
X0034130Y0228120D03*
X0034610Y0228120D03*
X0042880Y0228120D03*
X0043360Y0228120D03*
X0051630Y0228120D03*
X0058120Y0227110D03*
X0064370Y0232740D03*
X0058120Y0235380D03*
X0064370Y0241010D03*
X0064370Y0241490D03*
X0064370Y0249760D03*
X0064370Y0255240D03*
X0064370Y0263510D03*
X0054130Y0270620D03*
X0045860Y0270620D03*
X0040380Y0270620D03*
X0032110Y0270620D03*
X0031630Y0270620D03*
X0023360Y0270620D03*
X0020000Y0271630D03*
X0020000Y0263360D03*
X0020000Y0257880D03*
X0020000Y0249610D03*
X0020000Y0249130D03*
X0020000Y0240860D03*
X0020000Y0240380D03*
D17*
G36*
X0053120Y0269790D02*
X0056450Y0273120D01*
X0059780Y0269790D01*
X0056450Y0266460D01*
X0053120Y0269790D01*
G37*
G36*
X0058960Y0263950D02*
X0062290Y0267280D01*
X0065620Y0263950D01*
X0062290Y0260620D01*
X0058960Y0263950D01*
G37*
D10*
X0068750Y0258750D03*
X0068750Y0255000D03*
X0041250Y0274370D03*
X0037500Y0274370D03*
X0015620Y0259370D03*
X0015620Y0255620D03*
X0025620Y0235620D03*
X0025620Y0231870D03*
X0016250Y0227500D03*
X0016250Y0223750D03*
X0016250Y0203750D03*
X0016250Y0200620D03*
X0056250Y0223120D03*
X0060000Y0223120D03*
D15*
X0056250Y0223120D01*
X0058120Y0225000D02*
X0060000Y0223120D01*
X0058120Y0225000D02*
X0058120Y0227110D01*
X0052500Y0228990D02*
X0051630Y0228120D01*
X0051630Y0225380D01*
X0050000Y0223750D01*
X0031250Y0223750D01*
X0030000Y0225000D01*
X0030000Y0236250D01*
X0027500Y0238750D01*
X0024370Y0238750D01*
X0020000Y0234370D01*
X0020000Y0232110D01*
X0020000Y0232500D01*
X0016250Y0227500D02*
X0016250Y0223750D01*
X0017110Y0226630D02*
X0016250Y0227500D01*
X0017110Y0226630D02*
X0020000Y0226630D01*
X0025860Y0228120D02*
X0025860Y0231630D01*
X0025620Y0231870D01*
X0025620Y0235620D01*
X0020000Y0240380D02*
X0020000Y0240860D01*
X0020000Y0249130D02*
X0020000Y0249610D01*
X0015620Y0255620D02*
X0015620Y0259370D01*
X0017110Y0257880D01*
X0020000Y0257880D01*
X0020000Y0263360D02*
X0023360Y0263360D01*
X0025000Y0265000D01*
X0042500Y0265000D01*
X0045860Y0268360D01*
X0045860Y0270620D01*
X0045860Y0269130D01*
X0050000Y0265000D01*
X0055000Y0265000D01*
X0060000Y0260000D01*
X0060000Y0252500D01*
X0062500Y0250000D01*
X0064130Y0250000D01*
X0064370Y0249760D01*
X0062260Y0249760D01*
X0060000Y0247500D01*
X0060000Y0242500D01*
X0057500Y0240000D01*
X0055000Y0240000D01*
X0052500Y0237500D01*
X0052500Y0228990D01*
X0058120Y0235380D02*
X0061730Y0235380D01*
X0064370Y0232740D01*
X0064370Y0241010D02*
X0064370Y0241490D01*
X0064370Y0255240D02*
X0068510Y0255240D01*
X0068750Y0255000D01*
X0068750Y0258750D01*
X0064370Y0263510D02*
X0063930Y0263950D01*
X0062290Y0263950D01*
X0056450Y0269790D02*
X0055620Y0270620D01*
X0054130Y0270620D01*
X0041250Y0274370D02*
X0040380Y0273510D01*
X0040380Y0270620D01*
X0041250Y0274370D02*
X0037500Y0274370D01*
X0032110Y0270620D02*
X0031630Y0270620D01*
X0023360Y0270620D02*
X0022350Y0271630D01*
X0020000Y0271630D01*
X0034130Y0228120D02*
X0034610Y0228120D01*
X0030000Y0225000D02*
X0025000Y0220000D01*
X0025000Y0202500D01*
X0023360Y0200860D01*
X0020000Y0200860D01*
X0019760Y0200620D01*
X0016250Y0200620D01*
X0016250Y0203750D01*
X0020000Y0209130D02*
X0020000Y0209610D01*
X0020000Y0217880D02*
X0020000Y0218360D01*
X0042880Y0228120D02*
X0043360Y0228120D01*
X0082500Y0195000D02*
G75*
%LPD*%
D16*
X0082500Y0195000D02*
X0082500Y0280000D01*
X0147500Y0280000D01*
X0147500Y0195000D01*
X0082500Y0195000D01*
D17*
X0099370Y0205860D03*
X0099370Y0214130D03*
X0092500Y0213360D03*
X0092500Y0221630D03*
X0092500Y0222110D03*
X0092500Y0230380D03*
X0092500Y0235860D03*
X0092500Y0244130D03*
X0092500Y0244610D03*
X0092500Y0252880D03*
X0092500Y0253360D03*
X0092500Y0261630D03*
X0098750Y0260860D03*
X0105000Y0264610D03*
X0098750Y0269130D03*
X0105000Y0272880D03*
X0111250Y0272880D03*
X0117500Y0272880D03*
X0123750Y0272880D03*
X0130000Y0269130D03*
X0123750Y0264610D03*
X0117500Y0264610D03*
X0111250Y0264610D03*
X0130000Y0260860D03*
X0136250Y0261630D03*
X0136250Y0253360D03*
X0136250Y0252880D03*
X0136250Y0244610D03*
X0136250Y0244130D03*
X0136250Y0235860D03*
X0136250Y0230380D03*
X0136250Y0222110D03*
X0136250Y0221630D03*
X0136250Y0213360D03*
X0129370Y0214130D03*
X0129370Y0205860D03*
X0121870Y0202110D03*
X0114370Y0202110D03*
X0106870Y0202110D03*
X0106870Y0210380D03*
X0114370Y0210380D03*
X0121870Y0210380D03*
D10*
X0127500Y0218120D03*
X0131250Y0218120D03*
X0132500Y0235620D03*
X0132500Y0239370D03*
X0106870Y0213750D03*
X0104370Y0216250D03*
X0096250Y0226870D03*
X0096250Y0230620D03*
X0095620Y0205620D03*
X0095620Y0201870D03*
X0092500Y0265000D03*
X0092500Y0268750D03*
X0109370Y0276870D03*
X0113120Y0276870D03*
X0128750Y0272500D03*
X0132500Y0272500D03*
D15*
X0128750Y0272500D01*
X0128750Y0269130D01*
X0130000Y0269130D01*
X0131870Y0265620D02*
X0130000Y0263750D01*
X0130000Y0260860D01*
X0131870Y0265620D02*
X0133120Y0265620D01*
X0136250Y0268750D01*
X0136250Y0273750D01*
X0133750Y0276250D01*
X0126250Y0276250D01*
X0123750Y0273750D01*
X0123750Y0272880D01*
X0123750Y0267500D02*
X0117500Y0270000D01*
X0117500Y0272880D01*
X0113120Y0276870D02*
X0109370Y0276870D01*
X0109370Y0272880D01*
X0111250Y0272880D01*
X0111250Y0267500D02*
X0111250Y0264610D01*
X0111250Y0267500D02*
X0105000Y0270000D01*
X0105000Y0272880D01*
X0100480Y0269130D02*
X0105000Y0264610D01*
X0100480Y0269130D02*
X0098750Y0269130D01*
X0092500Y0268750D02*
X0092500Y0265000D01*
X0092500Y0261630D01*
X0098750Y0260860D02*
X0099130Y0260860D01*
X0100000Y0260000D01*
X0116250Y0260000D01*
X0117500Y0261250D01*
X0118750Y0260000D01*
X0123750Y0260000D01*
X0129370Y0254370D01*
X0131250Y0256250D01*
X0132500Y0256250D01*
X0136250Y0260000D01*
X0136250Y0261630D01*
X0136250Y0253360D02*
X0136250Y0252880D01*
X0129370Y0254370D02*
X0127500Y0252500D01*
X0127500Y0233750D01*
X0130860Y0230380D01*
X0130000Y0229510D01*
X0130000Y0226250D01*
X0123750Y0220000D01*
X0123750Y0216250D01*
X0125620Y0214370D01*
X0125620Y0202500D01*
X0125240Y0202110D01*
X0121870Y0202110D01*
X0117740Y0206250D02*
X0121870Y0210380D01*
X0117740Y0206250D02*
X0116250Y0206250D01*
X0114370Y0204370D01*
X0114370Y0202110D01*
X0110240Y0206250D02*
X0114370Y0210380D01*
X0110240Y0206250D02*
X0108750Y0206250D01*
X0106870Y0204370D01*
X0106870Y0202110D01*
X0106870Y0210380D02*
X0106870Y0213750D01*
X0104370Y0216250D01*
X0099370Y0214130D02*
X0098600Y0213360D01*
X0092500Y0213360D01*
X0087500Y0210000D02*
X0087500Y0233750D01*
X0088750Y0235000D01*
X0091630Y0235000D01*
X0092500Y0235860D01*
X0097110Y0235860D01*
X0098750Y0237500D01*
X0098750Y0260860D01*
X0092500Y0253360D02*
X0092500Y0252880D01*
X0092500Y0244610D02*
X0092500Y0244130D01*
X0092500Y0230380D02*
X0096250Y0230380D01*
X0096250Y0230620D01*
X0096250Y0226870D01*
X0092500Y0222110D02*
X0092500Y0221630D01*
X0087500Y0210000D02*
X0091630Y0205860D01*
X0095620Y0205860D01*
X0095620Y0205620D01*
X0095620Y0201870D01*
X0095620Y0205860D02*
X0099370Y0205860D01*
X0127500Y0214130D02*
X0127500Y0218120D01*
X0131250Y0218120D01*
X0129370Y0214130D02*
X0127500Y0214130D01*
X0129370Y0206490D02*
X0136250Y0213360D01*
X0136250Y0221630D02*
X0136250Y0222110D01*
X0136250Y0230380D02*
X0130860Y0230380D01*
X0132500Y0235620D02*
X0132500Y0239370D01*
X0132500Y0235620D02*
X0136010Y0235620D01*
X0136250Y0235860D01*
X0136250Y0244130D02*
X0136250Y0244610D01*
X0123750Y0264610D02*
X0123750Y0267500D01*
X0117500Y0264610D02*
X0117500Y0261250D01*
X0129370Y0206490D02*
X0129370Y0205860D01*
X0155000Y0195000D02*
G75*
%LPD*%
D16*
X0155000Y0195000D02*
X0155000Y0279750D01*
X0219010Y0279750D01*
X0219010Y0195000D01*
X0155000Y0195000D01*
D17*
X0166250Y0203360D03*
X0166250Y0211630D03*
X0166250Y0217110D03*
X0174370Y0217880D03*
X0182500Y0218360D03*
X0182500Y0226630D03*
X0190620Y0226630D03*
X0190620Y0218360D03*
X0198750Y0217880D03*
X0198750Y0209610D03*
X0208120Y0211630D03*
X0208120Y0217110D03*
X0208120Y0225380D03*
X0208120Y0225860D03*
X0208120Y0234130D03*
X0208120Y0234610D03*
X0208120Y0242880D03*
X0208120Y0248360D03*
X0208120Y0256630D03*
X0208120Y0257110D03*
X0208120Y0265380D03*
X0208120Y0265860D03*
X0208120Y0274130D03*
X0166250Y0274130D03*
X0166250Y0265860D03*
X0166250Y0265380D03*
X0166250Y0257110D03*
X0166250Y0256630D03*
X0166250Y0248360D03*
X0166250Y0242880D03*
X0166250Y0234610D03*
X0166250Y0234130D03*
X0166250Y0225860D03*
X0166250Y0225380D03*
X0174370Y0209610D03*
X0208120Y0203360D03*
D10*
X0204370Y0203120D03*
X0204370Y0206870D03*
X0204370Y0216870D03*
X0204370Y0220620D03*
X0182500Y0215000D03*
X0181250Y0211250D03*
X0162500Y0216870D03*
X0162500Y0220620D03*
X0162500Y0248120D03*
X0162500Y0251870D03*
X0170000Y0270620D03*
X0170000Y0274370D03*
X0204370Y0251870D03*
X0204370Y0248120D03*
D15*
X0204370Y0251870D01*
X0204370Y0248120D02*
X0207880Y0248120D01*
X0208120Y0248360D01*
X0208120Y0242880D02*
X0206630Y0242880D01*
X0202500Y0238750D01*
X0202500Y0225000D01*
X0200000Y0222500D01*
X0196250Y0222500D01*
X0192500Y0226250D01*
X0191010Y0226250D01*
X0190620Y0226630D01*
X0190620Y0226870D01*
X0187500Y0230000D01*
X0178750Y0230000D01*
X0172500Y0223750D01*
X0170000Y0223750D01*
X0170000Y0213750D01*
X0167880Y0211630D01*
X0166250Y0211630D01*
X0170000Y0211250D02*
X0170000Y0207500D01*
X0166250Y0203750D01*
X0166250Y0203360D01*
X0170000Y0211250D02*
X0171250Y0212500D01*
X0171250Y0213120D01*
X0174370Y0216250D01*
X0174370Y0217880D01*
X0178750Y0213750D02*
X0178750Y0222880D01*
X0182500Y0226630D01*
X0182500Y0218360D02*
X0182500Y0215000D01*
X0182500Y0212500D01*
X0181250Y0211250D01*
X0178750Y0213750D02*
X0174610Y0209610D01*
X0174370Y0209610D01*
X0166250Y0217110D02*
X0162740Y0217110D01*
X0162500Y0216870D01*
X0162500Y0220620D01*
X0166250Y0225380D02*
X0166250Y0225860D01*
X0170000Y0223750D02*
X0170000Y0241250D01*
X0168360Y0242880D01*
X0166250Y0242880D01*
X0169130Y0242880D01*
X0170000Y0243750D01*
X0170000Y0270620D01*
X0169760Y0270860D01*
X0169760Y0274130D01*
X0170000Y0274370D01*
X0169760Y0274130D02*
X0166250Y0274130D01*
X0166250Y0265860D02*
X0166250Y0265380D01*
X0166250Y0257110D02*
X0166250Y0256630D01*
X0162500Y0251870D02*
X0162500Y0248120D01*
X0162740Y0248360D01*
X0166250Y0248360D01*
X0166250Y0234610D02*
X0166250Y0234130D01*
X0190620Y0218360D02*
X0198260Y0218360D01*
X0198750Y0217880D01*
X0204370Y0216870D02*
X0204370Y0220620D01*
X0204370Y0216870D02*
X0207880Y0216870D01*
X0208120Y0217110D01*
X0208120Y0211630D02*
X0207740Y0211250D01*
X0202500Y0211250D01*
X0200860Y0209610D01*
X0198750Y0209610D01*
X0204370Y0206870D02*
X0204370Y0203120D01*
X0207880Y0203120D01*
X0208120Y0203360D01*
X0206100Y0209610D02*
X0208120Y0211630D01*
X0208120Y0225380D02*
X0208120Y0225860D01*
X0208120Y0234130D02*
X0208120Y0234610D01*
X0208120Y0242880D02*
X0210380Y0242880D01*
X0212500Y0245000D01*
X0212500Y0272500D01*
X0210860Y0274130D01*
X0208120Y0274130D01*
X0208120Y0265860D02*
X0208120Y0265380D01*
X0208120Y0257110D02*
X0208120Y0256630D01*
X0226510Y0195000D02*
G75*
%LPD*%
D16*
X0226510Y0195000D02*
X0226510Y0280000D01*
X0291510Y0280000D01*
X0291510Y0195000D01*
X0226510Y0195000D01*
D17*
X0234250Y0206250D03*
X0235260Y0208990D03*
X0242520Y0206250D03*
X0243000Y0206250D03*
X0251270Y0206250D03*
X0256750Y0206250D03*
X0265020Y0206250D03*
X0265500Y0206250D03*
X0273770Y0206250D03*
X0274250Y0206250D03*
X0282520Y0206250D03*
X0266890Y0237500D03*
X0258620Y0237500D03*
X0258140Y0237500D03*
X0249870Y0237500D03*
X0249390Y0237500D03*
X0241120Y0237500D03*
X0235260Y0240380D03*
X0235260Y0240860D03*
X0235260Y0249130D03*
X0235260Y0254610D03*
X0235260Y0262880D03*
X0235260Y0263360D03*
X0239250Y0270620D03*
X0235260Y0271630D03*
X0247520Y0270620D03*
X0254870Y0270620D03*
X0263140Y0270620D03*
X0264870Y0270620D03*
X0273140Y0270620D03*
X0274870Y0270620D03*
X0283140Y0270620D03*
X0235260Y0232110D03*
X0235260Y0231010D03*
X0235260Y0222740D03*
X0235260Y0217260D03*
D10*
X0239010Y0217500D03*
X0239010Y0213750D03*
X0256510Y0210000D03*
X0260260Y0210000D03*
X0279010Y0210000D03*
X0282760Y0210000D03*
X0267760Y0241250D03*
X0264010Y0241250D03*
X0239010Y0245620D03*
X0239010Y0249370D03*
X0244010Y0266870D03*
X0247760Y0266870D03*
X0279630Y0266870D03*
X0283380Y0266870D03*
D15*
X0279630Y0266870D01*
X0283140Y0267110D02*
X0283140Y0270620D01*
X0283140Y0267110D02*
X0283380Y0266870D01*
X0274870Y0270620D02*
X0273140Y0270620D01*
X0264870Y0270620D02*
X0263140Y0270620D01*
X0255260Y0270240D02*
X0255260Y0267500D01*
X0250260Y0262500D01*
X0245260Y0262500D01*
X0241510Y0258750D01*
X0241510Y0255000D01*
X0241120Y0254610D01*
X0235260Y0254610D01*
X0235260Y0249130D02*
X0238770Y0249130D01*
X0239010Y0249370D01*
X0239010Y0245620D01*
X0241120Y0242110D02*
X0244010Y0245000D01*
X0244010Y0252500D01*
X0241510Y0255000D01*
X0235260Y0262880D02*
X0235260Y0263360D01*
X0239250Y0270620D02*
X0238240Y0271630D01*
X0235260Y0271630D01*
X0244010Y0266870D02*
X0244250Y0267110D01*
X0247520Y0267110D01*
X0247760Y0266870D01*
X0247520Y0267110D02*
X0247520Y0270620D01*
X0254870Y0270620D02*
X0255260Y0270240D01*
X0241120Y0242110D02*
X0241120Y0237500D01*
X0240260Y0236630D01*
X0240260Y0222500D01*
X0235500Y0222500D01*
X0235260Y0222740D01*
X0240260Y0222500D02*
X0244010Y0218750D01*
X0244010Y0213750D01*
X0251270Y0206490D01*
X0251270Y0206250D01*
X0251510Y0206010D01*
X0251510Y0203750D01*
X0254010Y0201250D01*
X0277760Y0201250D01*
X0282520Y0206010D01*
X0282520Y0206250D01*
X0282760Y0206250D01*
X0282760Y0210000D01*
X0279010Y0210000D01*
X0274250Y0206250D02*
X0273770Y0206250D01*
X0265500Y0206250D02*
X0265020Y0206250D01*
X0260260Y0210000D02*
X0256510Y0210000D01*
X0256750Y0209760D01*
X0256750Y0206250D01*
X0243000Y0206250D02*
X0242520Y0206250D01*
X0235260Y0208990D02*
X0234250Y0207980D01*
X0234250Y0206250D01*
X0239010Y0213750D02*
X0239010Y0217500D01*
X0238770Y0217260D01*
X0235260Y0217260D01*
X0235260Y0231010D02*
X0235260Y0232110D01*
X0235260Y0240380D02*
X0235260Y0240860D01*
X0249390Y0237500D02*
X0249870Y0237500D01*
X0258140Y0237500D02*
X0258620Y0237500D01*
X0264010Y0241250D02*
X0267760Y0241250D01*
X0266890Y0240380D01*
X0266890Y0237500D01*
X0299010Y0195000D02*
G75*
%LPD*%
D16*
X0299010Y0195000D02*
X0299010Y0280000D01*
X0362760Y0280000D01*
X0362760Y0195000D01*
X0299010Y0195000D01*
D17*
X0310260Y0199610D03*
X0310260Y0207880D03*
X0310260Y0208360D03*
X0310260Y0216630D03*
X0310260Y0217110D03*
X0310260Y0225380D03*
X0310260Y0230860D03*
X0310260Y0239130D03*
X0310260Y0239610D03*
X0310260Y0247880D03*
X0310260Y0248360D03*
X0310260Y0256630D03*
X0310260Y0262110D03*
X0310260Y0270380D03*
X0314870Y0270000D03*
X0323140Y0270000D03*
X0324870Y0270000D03*
X0333140Y0270000D03*
X0338620Y0270000D03*
X0346890Y0270000D03*
X0346120Y0262500D03*
X0348620Y0255000D03*
X0354390Y0262500D03*
X0356890Y0255000D03*
X0356890Y0247500D03*
X0354390Y0240000D03*
X0348140Y0233750D03*
X0346120Y0240000D03*
X0348620Y0247500D03*
X0339870Y0233750D03*
X0334390Y0233120D03*
X0329390Y0225620D03*
X0327370Y0220000D03*
X0321120Y0225620D03*
X0326120Y0233120D03*
X0335640Y0220000D03*
X0336120Y0213750D03*
X0344390Y0213750D03*
X0343620Y0207500D03*
X0349870Y0201250D03*
X0351890Y0207500D03*
X0358140Y0201250D03*
D10*
X0358380Y0205000D03*
X0358380Y0208750D03*
X0339010Y0220000D03*
X0339010Y0223750D03*
X0351510Y0231870D03*
X0351510Y0235000D03*
X0359010Y0252500D03*
X0359010Y0258120D03*
X0333380Y0273750D03*
X0329630Y0273750D03*
X0306510Y0256870D03*
X0306510Y0253120D03*
X0306510Y0225620D03*
X0306510Y0221870D03*
X0306510Y0202500D03*
X0306510Y0198750D03*
D15*
X0306510Y0202500D01*
X0306510Y0198750D02*
X0310260Y0198750D01*
X0310260Y0199610D01*
X0312370Y0199610D01*
X0314010Y0201250D01*
X0314010Y0227740D01*
X0310880Y0230860D01*
X0310260Y0230860D01*
X0312370Y0230860D01*
X0314010Y0232500D01*
X0314010Y0261250D01*
X0312760Y0262500D01*
X0316510Y0266250D01*
X0336510Y0266250D01*
X0340260Y0266250D01*
X0341510Y0265000D01*
X0341510Y0260000D01*
X0344010Y0257500D01*
X0344010Y0252110D01*
X0348620Y0247500D01*
X0348620Y0245860D01*
X0344870Y0245860D01*
X0341510Y0242500D01*
X0341510Y0241250D01*
X0337760Y0237500D01*
X0329870Y0237500D01*
X0326120Y0233750D01*
X0326120Y0233120D01*
X0319630Y0233120D01*
X0316510Y0230000D01*
X0316510Y0223120D01*
X0319010Y0220620D01*
X0320260Y0220620D01*
X0324630Y0216250D01*
X0331510Y0216250D01*
X0334010Y0213750D01*
X0336120Y0213750D01*
X0335640Y0220000D02*
X0339010Y0220000D01*
X0339010Y0223750D01*
X0344010Y0228750D02*
X0352760Y0228750D01*
X0355260Y0231250D01*
X0355260Y0239130D01*
X0354390Y0240000D01*
X0351510Y0235000D02*
X0351510Y0231870D01*
X0351510Y0235000D02*
X0348140Y0233750D01*
X0344010Y0228750D02*
X0341120Y0231630D01*
X0339870Y0233750D01*
X0334390Y0233120D02*
X0330640Y0229370D01*
X0326510Y0229370D01*
X0323380Y0226250D01*
X0321120Y0225620D01*
X0327370Y0224230D02*
X0327370Y0220000D01*
X0327370Y0224230D02*
X0329390Y0225620D01*
X0344390Y0213750D02*
X0345260Y0214130D01*
X0345260Y0211250D01*
X0343620Y0209610D01*
X0343620Y0207500D01*
X0349870Y0203360D02*
X0351510Y0205000D01*
X0351510Y0208360D01*
X0351890Y0207500D01*
X0349870Y0203360D02*
X0349870Y0201250D01*
X0358140Y0201250D02*
X0358380Y0202740D01*
X0358380Y0205000D01*
X0358380Y0208750D01*
X0346120Y0240000D02*
X0348620Y0240860D01*
X0355260Y0247500D01*
X0356890Y0247500D01*
X0359010Y0252500D02*
X0359010Y0255000D01*
X0356890Y0255000D01*
X0359010Y0255000D02*
X0359010Y0258120D01*
X0354390Y0262500D02*
X0352760Y0262500D01*
X0349010Y0258750D01*
X0349010Y0255380D01*
X0348620Y0255000D01*
X0346120Y0262500D02*
X0346890Y0263260D01*
X0346890Y0270000D01*
X0338620Y0270000D02*
X0338620Y0268360D01*
X0336510Y0266250D01*
X0333140Y0270000D02*
X0333140Y0273750D01*
X0333380Y0273750D01*
X0329630Y0273750D01*
X0324870Y0270000D02*
X0323140Y0270000D01*
X0314870Y0270000D02*
X0310640Y0270000D01*
X0310260Y0270380D01*
X0310640Y0262500D02*
X0310260Y0262110D01*
X0310640Y0262500D02*
X0312760Y0262500D01*
X0310260Y0256870D02*
X0310260Y0256630D01*
X0310260Y0256870D02*
X0306510Y0256870D01*
X0306510Y0253120D01*
X0310260Y0248360D02*
X0310260Y0247880D01*
X0310260Y0239610D02*
X0310260Y0239130D01*
X0310260Y0225620D02*
X0306510Y0225620D01*
X0306510Y0221870D01*
X0310260Y0225380D02*
X0310260Y0225620D01*
X0310260Y0217110D02*
X0310260Y0216630D01*
X0310260Y0208360D02*
X0310260Y0207880D01*
X0010000Y0287500D02*
G75*
%LPD*%
D16*
X0010000Y0287500D02*
X0010000Y0372250D01*
X0075260Y0372250D01*
X0075260Y0287500D01*
X0010000Y0287500D01*
D17*
X0037740Y0295000D03*
X0037740Y0302500D03*
X0037740Y0310000D03*
X0037740Y0317500D03*
X0046010Y0317500D03*
X0046010Y0310000D03*
X0046010Y0302500D03*
X0046010Y0295000D03*
X0046010Y0326250D03*
X0037740Y0326250D03*
X0037740Y0335000D03*
X0046010Y0335000D03*
X0046010Y0343750D03*
X0037740Y0343750D03*
X0037740Y0352500D03*
X0031870Y0357110D03*
X0037740Y0361250D03*
X0031870Y0365380D03*
X0024370Y0365380D03*
X0016870Y0365380D03*
X0016870Y0357110D03*
X0024370Y0357110D03*
X0046010Y0361250D03*
X0052500Y0365380D03*
X0060000Y0365380D03*
X0067500Y0365380D03*
X0067500Y0357110D03*
X0060000Y0357110D03*
X0052500Y0357110D03*
X0046010Y0352500D03*
D10*
X0040000Y0365000D03*
X0036870Y0365000D03*
X0033750Y0368750D03*
X0030000Y0368750D03*
X0050620Y0368750D03*
X0054370Y0368750D03*
X0034370Y0336870D03*
X0034370Y0333120D03*
X0034370Y0311870D03*
X0034370Y0308120D03*
X0050000Y0296870D03*
X0050000Y0293120D03*
D15*
X0050000Y0296870D01*
X0050000Y0313120D01*
X0046010Y0317110D01*
X0046010Y0317500D01*
X0049370Y0320860D01*
X0049370Y0340000D01*
X0046010Y0343360D01*
X0046010Y0343750D01*
X0045620Y0343750D01*
X0041870Y0340000D01*
X0035000Y0340000D01*
X0033750Y0341250D01*
X0033750Y0352500D01*
X0032500Y0353750D01*
X0020240Y0353750D01*
X0016870Y0357110D01*
X0016870Y0364610D02*
X0024370Y0357110D01*
X0024370Y0364610D02*
X0031870Y0357110D01*
X0036870Y0362110D02*
X0037740Y0361250D01*
X0038120Y0361630D01*
X0036870Y0362110D02*
X0036870Y0365000D01*
X0040000Y0365000D01*
X0046010Y0361250D02*
X0037740Y0352980D01*
X0037740Y0352500D01*
X0037740Y0344230D02*
X0046010Y0352500D01*
X0049370Y0352500D02*
X0049370Y0347110D01*
X0046010Y0343750D01*
X0037740Y0343750D02*
X0037740Y0344230D01*
X0034370Y0336870D02*
X0034370Y0333120D01*
X0035860Y0333120D01*
X0037740Y0335000D01*
X0037740Y0326730D02*
X0046010Y0335000D01*
X0046010Y0326250D02*
X0037740Y0317980D01*
X0037740Y0317500D01*
X0034370Y0311870D02*
X0034370Y0308120D01*
X0035860Y0308120D01*
X0037740Y0310000D01*
X0037740Y0302500D02*
X0038510Y0302500D01*
X0046010Y0310000D01*
X0046010Y0302500D02*
X0038510Y0295000D01*
X0037740Y0295000D01*
X0046010Y0295000D02*
X0047880Y0293120D01*
X0050000Y0293120D01*
X0037740Y0326250D02*
X0037740Y0326730D01*
X0049370Y0352500D02*
X0050620Y0353750D01*
X0063750Y0353750D01*
X0067110Y0357110D01*
X0067500Y0357110D01*
X0060000Y0357110D02*
X0060000Y0357880D01*
X0067500Y0365380D01*
X0060000Y0365380D02*
X0052500Y0357880D01*
X0052500Y0357110D01*
X0052500Y0365380D02*
X0050620Y0367260D01*
X0050620Y0368750D01*
X0054370Y0368750D01*
X0033750Y0368750D02*
X0030000Y0368750D01*
X0030000Y0367260D01*
X0031870Y0365380D01*
X0024370Y0365380D02*
X0024370Y0364610D01*
X0016870Y0364610D02*
X0016870Y0365380D01*
X0082760Y0287500D02*
G75*
%LPD*%
D16*
X0082760Y0287500D02*
X0082760Y0372500D01*
X0147760Y0372500D01*
X0147760Y0287500D01*
X0082760Y0287500D01*
D17*
X0099630Y0298360D03*
X0099630Y0306630D03*
X0092760Y0305860D03*
X0092760Y0314130D03*
X0092760Y0314610D03*
X0092760Y0322880D03*
X0092760Y0328360D03*
X0092760Y0336630D03*
X0092760Y0337110D03*
X0092760Y0345380D03*
X0092760Y0345860D03*
X0092760Y0354130D03*
X0099010Y0353360D03*
X0105260Y0357110D03*
X0099010Y0361630D03*
X0105260Y0365380D03*
X0111510Y0365380D03*
X0117760Y0365380D03*
X0124010Y0365380D03*
X0130260Y0361630D03*
X0124010Y0357110D03*
X0117760Y0357110D03*
X0111510Y0357110D03*
X0130260Y0353360D03*
X0136510Y0354130D03*
X0136510Y0345860D03*
X0136510Y0345380D03*
X0136510Y0337110D03*
X0136510Y0336630D03*
X0136510Y0328360D03*
X0136510Y0322880D03*
X0136510Y0314610D03*
X0136510Y0314130D03*
X0136510Y0305860D03*
X0129630Y0306630D03*
X0129630Y0298360D03*
X0122130Y0294610D03*
X0114630Y0294610D03*
X0107130Y0294610D03*
X0107130Y0302880D03*
X0114630Y0302880D03*
X0122130Y0302880D03*
D10*
X0127760Y0310620D03*
X0131510Y0310620D03*
X0132760Y0328120D03*
X0132760Y0331870D03*
X0107130Y0306250D03*
X0104630Y0308750D03*
X0096510Y0319370D03*
X0096510Y0323120D03*
X0095880Y0298120D03*
X0095880Y0294370D03*
X0092760Y0357500D03*
X0092760Y0361250D03*
X0109630Y0369370D03*
X0113380Y0369370D03*
X0129010Y0365000D03*
X0132760Y0365000D03*
D15*
X0129010Y0365000D01*
X0129010Y0361630D01*
X0130260Y0361630D01*
X0132130Y0358120D02*
X0130260Y0356250D01*
X0130260Y0353360D01*
X0132130Y0358120D02*
X0133380Y0358120D01*
X0136510Y0361250D01*
X0136510Y0366250D01*
X0134010Y0368750D01*
X0126510Y0368750D01*
X0124010Y0366250D01*
X0124010Y0365380D01*
X0124010Y0360000D02*
X0117760Y0362500D01*
X0117760Y0365380D01*
X0113380Y0369370D02*
X0109630Y0369370D01*
X0109630Y0365380D01*
X0111510Y0365380D01*
X0111510Y0360000D02*
X0111510Y0357110D01*
X0111510Y0360000D02*
X0105260Y0362500D01*
X0105260Y0365380D01*
X0100740Y0361630D02*
X0105260Y0357110D01*
X0100740Y0361630D02*
X0099010Y0361630D01*
X0092760Y0361250D02*
X0092760Y0357500D01*
X0092760Y0354130D01*
X0099010Y0353360D02*
X0099390Y0353360D01*
X0100260Y0352500D01*
X0116510Y0352500D01*
X0117760Y0353750D01*
X0119010Y0352500D01*
X0124010Y0352500D01*
X0129630Y0346870D01*
X0131510Y0348750D01*
X0132760Y0348750D01*
X0136510Y0352500D01*
X0136510Y0354130D01*
X0136510Y0345860D02*
X0136510Y0345380D01*
X0129630Y0346870D02*
X0127760Y0345000D01*
X0127760Y0326250D01*
X0131120Y0322880D01*
X0130260Y0322010D01*
X0130260Y0318750D01*
X0124010Y0312500D01*
X0124010Y0308750D01*
X0125880Y0306870D01*
X0125880Y0295000D01*
X0125500Y0294610D01*
X0122130Y0294610D01*
X0118000Y0298750D02*
X0122130Y0302880D01*
X0118000Y0298750D02*
X0116510Y0298750D01*
X0114630Y0296870D01*
X0114630Y0294610D01*
X0110500Y0298750D02*
X0114630Y0302880D01*
X0110500Y0298750D02*
X0109010Y0298750D01*
X0107130Y0296870D01*
X0107130Y0294610D01*
X0107130Y0302880D02*
X0107130Y0306250D01*
X0104630Y0308750D01*
X0099630Y0306630D02*
X0098860Y0305860D01*
X0092760Y0305860D01*
X0087760Y0302500D02*
X0087760Y0326250D01*
X0089010Y0327500D01*
X0091890Y0327500D01*
X0092760Y0328360D01*
X0097370Y0328360D01*
X0099010Y0330000D01*
X0099010Y0353360D01*
X0092760Y0345860D02*
X0092760Y0345380D01*
X0092760Y0337110D02*
X0092760Y0336630D01*
X0092760Y0322880D02*
X0096510Y0322880D01*
X0096510Y0323120D01*
X0096510Y0319370D01*
X0092760Y0314610D02*
X0092760Y0314130D01*
X0087760Y0302500D02*
X0091890Y0298360D01*
X0095880Y0298360D01*
X0095880Y0298120D01*
X0095880Y0294370D01*
X0095880Y0298360D02*
X0099630Y0298360D01*
X0127760Y0306630D02*
X0127760Y0310620D01*
X0131510Y0310620D01*
X0129630Y0306630D02*
X0127760Y0306630D01*
X0129630Y0298990D02*
X0136510Y0305860D01*
X0136510Y0314130D02*
X0136510Y0314610D01*
X0136510Y0322880D02*
X0131120Y0322880D01*
X0132760Y0328120D02*
X0132760Y0331870D01*
X0132760Y0328120D02*
X0136270Y0328120D01*
X0136510Y0328360D01*
X0136510Y0336630D02*
X0136510Y0337110D01*
X0124010Y0357110D02*
X0124010Y0360000D01*
X0117760Y0357110D02*
X0117760Y0353750D01*
X0129630Y0298990D02*
X0129630Y0298360D01*
X0155260Y0287500D02*
G75*
%LPD*%
D16*
X0155260Y0287500D02*
X0155260Y0372250D01*
X0219270Y0372250D01*
X0219270Y0287500D01*
X0155260Y0287500D01*
D17*
X0166510Y0295860D03*
X0166510Y0304130D03*
X0166510Y0309610D03*
X0174630Y0310380D03*
X0182760Y0310860D03*
X0182760Y0319130D03*
X0190880Y0319130D03*
X0190880Y0310860D03*
X0199010Y0310380D03*
X0199010Y0302110D03*
X0208380Y0304130D03*
X0208380Y0309610D03*
X0208380Y0317880D03*
X0208380Y0318360D03*
X0208380Y0326630D03*
X0208380Y0327110D03*
X0208380Y0335380D03*
X0208380Y0340860D03*
X0208380Y0349130D03*
X0208380Y0349610D03*
X0208380Y0357880D03*
X0208380Y0358360D03*
X0208380Y0366630D03*
X0166510Y0366630D03*
X0166510Y0358360D03*
X0166510Y0357880D03*
X0166510Y0349610D03*
X0166510Y0349130D03*
X0166510Y0340860D03*
X0166510Y0335380D03*
X0166510Y0327110D03*
X0166510Y0326630D03*
X0166510Y0318360D03*
X0166510Y0317880D03*
X0174630Y0302110D03*
X0208380Y0295860D03*
D10*
X0204630Y0295620D03*
X0204630Y0299370D03*
X0204630Y0309370D03*
X0204630Y0313120D03*
X0182760Y0307500D03*
X0181510Y0303750D03*
X0162760Y0309370D03*
X0162760Y0313120D03*
X0162760Y0340620D03*
X0162760Y0344370D03*
X0170260Y0363120D03*
X0170260Y0366870D03*
X0204630Y0344370D03*
X0204630Y0340620D03*
D15*
X0204630Y0344370D01*
X0204630Y0340620D02*
X0208140Y0340620D01*
X0208380Y0340860D01*
X0208380Y0335380D02*
X0206890Y0335380D01*
X0202760Y0331250D01*
X0202760Y0317500D01*
X0200260Y0315000D01*
X0196510Y0315000D01*
X0192760Y0318750D01*
X0191270Y0318750D01*
X0190880Y0319130D01*
X0190880Y0319370D01*
X0187760Y0322500D01*
X0179010Y0322500D01*
X0172760Y0316250D01*
X0170260Y0316250D01*
X0170260Y0306250D01*
X0168140Y0304130D01*
X0166510Y0304130D01*
X0170260Y0303750D02*
X0170260Y0300000D01*
X0166510Y0296250D01*
X0166510Y0295860D01*
X0170260Y0303750D02*
X0171510Y0305000D01*
X0171510Y0305620D01*
X0174630Y0308750D01*
X0174630Y0310380D01*
X0179010Y0306250D02*
X0179010Y0315380D01*
X0182760Y0319130D01*
X0182760Y0310860D02*
X0182760Y0307500D01*
X0182760Y0305000D01*
X0181510Y0303750D01*
X0179010Y0306250D02*
X0174870Y0302110D01*
X0174630Y0302110D01*
X0166510Y0309610D02*
X0163000Y0309610D01*
X0162760Y0309370D01*
X0162760Y0313120D01*
X0166510Y0317880D02*
X0166510Y0318360D01*
X0170260Y0316250D02*
X0170260Y0333750D01*
X0168620Y0335380D01*
X0166510Y0335380D01*
X0169390Y0335380D01*
X0170260Y0336250D01*
X0170260Y0363120D01*
X0170020Y0363360D01*
X0170020Y0366630D01*
X0170260Y0366870D01*
X0170020Y0366630D02*
X0166510Y0366630D01*
X0166510Y0358360D02*
X0166510Y0357880D01*
X0166510Y0349610D02*
X0166510Y0349130D01*
X0162760Y0344370D02*
X0162760Y0340620D01*
X0163000Y0340860D01*
X0166510Y0340860D01*
X0166510Y0327110D02*
X0166510Y0326630D01*
X0190880Y0310860D02*
X0198520Y0310860D01*
X0199010Y0310380D01*
X0204630Y0309370D02*
X0204630Y0313120D01*
X0204630Y0309370D02*
X0208140Y0309370D01*
X0208380Y0309610D01*
X0208380Y0304130D02*
X0208000Y0303750D01*
X0202760Y0303750D01*
X0201120Y0302110D01*
X0199010Y0302110D01*
X0204630Y0299370D02*
X0204630Y0295620D01*
X0208140Y0295620D01*
X0208380Y0295860D01*
X0206360Y0302110D02*
X0208380Y0304130D01*
X0208380Y0317880D02*
X0208380Y0318360D01*
X0208380Y0326630D02*
X0208380Y0327110D01*
X0208380Y0335380D02*
X0210640Y0335380D01*
X0212760Y0337500D01*
X0212760Y0365000D01*
X0211120Y0366630D01*
X0208380Y0366630D01*
X0208380Y0358360D02*
X0208380Y0357880D01*
X0208380Y0349610D02*
X0208380Y0349130D01*
X0226770Y0287500D02*
G75*
%LPD*%
D16*
X0226770Y0287500D02*
X0226770Y0372500D01*
X0291770Y0372500D01*
X0291770Y0287500D01*
X0226770Y0287500D01*
D17*
X0234510Y0298750D03*
X0235520Y0301490D03*
X0242780Y0298750D03*
X0243260Y0298750D03*
X0251530Y0298750D03*
X0257010Y0298750D03*
X0265280Y0298750D03*
X0265760Y0298750D03*
X0274030Y0298750D03*
X0274510Y0298750D03*
X0282780Y0298750D03*
X0267150Y0330000D03*
X0258880Y0330000D03*
X0258400Y0330000D03*
X0250130Y0330000D03*
X0249650Y0330000D03*
X0241380Y0330000D03*
X0235520Y0332880D03*
X0235520Y0333360D03*
X0235520Y0341630D03*
X0235520Y0347110D03*
X0235520Y0355380D03*
X0235520Y0355860D03*
X0239510Y0363120D03*
X0235520Y0364130D03*
X0247780Y0363120D03*
X0255130Y0363120D03*
X0263400Y0363120D03*
X0265130Y0363120D03*
X0273400Y0363120D03*
X0275130Y0363120D03*
X0283400Y0363120D03*
X0235520Y0324610D03*
X0235520Y0323510D03*
X0235520Y0315240D03*
X0235520Y0309760D03*
D10*
X0239270Y0310000D03*
X0239270Y0306250D03*
X0256770Y0302500D03*
X0260520Y0302500D03*
X0279270Y0302500D03*
X0283020Y0302500D03*
X0268020Y0333750D03*
X0264270Y0333750D03*
X0239270Y0338120D03*
X0239270Y0341870D03*
X0244270Y0359370D03*
X0248020Y0359370D03*
X0279890Y0359370D03*
X0283640Y0359370D03*
D15*
X0279890Y0359370D01*
X0283400Y0359610D02*
X0283400Y0363120D01*
X0283400Y0359610D02*
X0283640Y0359370D01*
X0275130Y0363120D02*
X0273400Y0363120D01*
X0265130Y0363120D02*
X0263400Y0363120D01*
X0255520Y0362740D02*
X0255520Y0360000D01*
X0250520Y0355000D01*
X0245520Y0355000D01*
X0241770Y0351250D01*
X0241770Y0347500D01*
X0241380Y0347110D01*
X0235520Y0347110D01*
X0235520Y0341630D02*
X0239030Y0341630D01*
X0239270Y0341870D01*
X0239270Y0338120D01*
X0241380Y0334610D02*
X0244270Y0337500D01*
X0244270Y0345000D01*
X0241770Y0347500D01*
X0235520Y0355380D02*
X0235520Y0355860D01*
X0239510Y0363120D02*
X0238500Y0364130D01*
X0235520Y0364130D01*
X0244270Y0359370D02*
X0244510Y0359610D01*
X0247780Y0359610D01*
X0248020Y0359370D01*
X0247780Y0359610D02*
X0247780Y0363120D01*
X0255130Y0363120D02*
X0255520Y0362740D01*
X0241380Y0334610D02*
X0241380Y0330000D01*
X0240520Y0329130D01*
X0240520Y0315000D01*
X0235760Y0315000D01*
X0235520Y0315240D01*
X0240520Y0315000D02*
X0244270Y0311250D01*
X0244270Y0306250D01*
X0251530Y0298990D01*
X0251530Y0298750D01*
X0251770Y0298510D01*
X0251770Y0296250D01*
X0254270Y0293750D01*
X0278020Y0293750D01*
X0282780Y0298510D01*
X0282780Y0298750D01*
X0283020Y0298750D01*
X0283020Y0302500D01*
X0279270Y0302500D01*
X0274510Y0298750D02*
X0274030Y0298750D01*
X0265760Y0298750D02*
X0265280Y0298750D01*
X0260520Y0302500D02*
X0256770Y0302500D01*
X0257010Y0302260D01*
X0257010Y0298750D01*
X0243260Y0298750D02*
X0242780Y0298750D01*
X0235520Y0301490D02*
X0234510Y0300480D01*
X0234510Y0298750D01*
X0239270Y0306250D02*
X0239270Y0310000D01*
X0239030Y0309760D01*
X0235520Y0309760D01*
X0235520Y0323510D02*
X0235520Y0324610D01*
X0235520Y0332880D02*
X0235520Y0333360D01*
X0249650Y0330000D02*
X0250130Y0330000D01*
X0258400Y0330000D02*
X0258880Y0330000D01*
X0264270Y0333750D02*
X0268020Y0333750D01*
X0267150Y0332880D01*
X0267150Y0330000D01*
X0299270Y0287500D02*
G75*
%LPD*%
D16*
X0299270Y0287500D02*
X0299270Y0372500D01*
X0363020Y0372500D01*
X0363020Y0287500D01*
X0299270Y0287500D01*
D17*
X0310520Y0292110D03*
X0310520Y0300380D03*
X0310520Y0300860D03*
X0310520Y0309130D03*
X0310520Y0309610D03*
X0310520Y0317880D03*
X0310520Y0323360D03*
X0310520Y0331630D03*
X0310520Y0332110D03*
X0310520Y0340380D03*
X0310520Y0340860D03*
X0310520Y0349130D03*
X0310520Y0354610D03*
X0310520Y0362880D03*
X0315130Y0362500D03*
X0323400Y0362500D03*
X0325130Y0362500D03*
X0333400Y0362500D03*
X0338880Y0362500D03*
X0347150Y0362500D03*
X0346380Y0355000D03*
X0348880Y0347500D03*
X0354650Y0355000D03*
X0357150Y0347500D03*
X0357150Y0340000D03*
X0354650Y0332500D03*
X0348400Y0326250D03*
X0346380Y0332500D03*
X0348880Y0340000D03*
X0340130Y0326250D03*
X0334650Y0325620D03*
X0329650Y0318120D03*
X0327630Y0312500D03*
X0321380Y0318120D03*
X0326380Y0325620D03*
X0335900Y0312500D03*
X0336380Y0306250D03*
X0344650Y0306250D03*
X0343880Y0300000D03*
X0350130Y0293750D03*
X0352150Y0300000D03*
X0358400Y0293750D03*
D10*
X0358640Y0297500D03*
X0358640Y0301250D03*
X0339270Y0312500D03*
X0339270Y0316250D03*
X0351770Y0324370D03*
X0351770Y0327500D03*
X0359270Y0345000D03*
X0359270Y0350620D03*
X0333640Y0366250D03*
X0329890Y0366250D03*
X0306770Y0349370D03*
X0306770Y0345620D03*
X0306770Y0318120D03*
X0306770Y0314370D03*
X0306770Y0295000D03*
X0306770Y0291250D03*
D15*
X0306770Y0295000D01*
X0306770Y0291250D02*
X0310520Y0291250D01*
X0310520Y0292110D01*
X0312630Y0292110D01*
X0314270Y0293750D01*
X0314270Y0320240D01*
X0311140Y0323360D01*
X0310520Y0323360D01*
X0312630Y0323360D01*
X0314270Y0325000D01*
X0314270Y0353750D01*
X0313020Y0355000D01*
X0316770Y0358750D01*
X0336770Y0358750D01*
X0340520Y0358750D01*
X0341770Y0357500D01*
X0341770Y0352500D01*
X0344270Y0350000D01*
X0344270Y0344610D01*
X0348880Y0340000D01*
X0348880Y0338360D01*
X0345130Y0338360D01*
X0341770Y0335000D01*
X0341770Y0333750D01*
X0338020Y0330000D01*
X0330130Y0330000D01*
X0326380Y0326250D01*
X0326380Y0325620D01*
X0319890Y0325620D01*
X0316770Y0322500D01*
X0316770Y0315620D01*
X0319270Y0313120D01*
X0320520Y0313120D01*
X0324890Y0308750D01*
X0331770Y0308750D01*
X0334270Y0306250D01*
X0336380Y0306250D01*
X0335900Y0312500D02*
X0339270Y0312500D01*
X0339270Y0316250D01*
X0344270Y0321250D02*
X0353020Y0321250D01*
X0355520Y0323750D01*
X0355520Y0331630D01*
X0354650Y0332500D01*
X0351770Y0327500D02*
X0351770Y0324370D01*
X0351770Y0327500D02*
X0348400Y0326250D01*
X0344270Y0321250D02*
X0341380Y0324130D01*
X0340130Y0326250D01*
X0334650Y0325620D02*
X0330900Y0321870D01*
X0326770Y0321870D01*
X0323640Y0318750D01*
X0321380Y0318120D01*
X0327630Y0316730D02*
X0327630Y0312500D01*
X0327630Y0316730D02*
X0329650Y0318120D01*
X0344650Y0306250D02*
X0345520Y0306630D01*
X0345520Y0303750D01*
X0343880Y0302110D01*
X0343880Y0300000D01*
X0350130Y0295860D02*
X0351770Y0297500D01*
X0351770Y0300860D01*
X0352150Y0300000D01*
X0350130Y0295860D02*
X0350130Y0293750D01*
X0358400Y0293750D02*
X0358640Y0295240D01*
X0358640Y0297500D01*
X0358640Y0301250D01*
X0346380Y0332500D02*
X0348880Y0333360D01*
X0355520Y0340000D01*
X0357150Y0340000D01*
X0359270Y0345000D02*
X0359270Y0347500D01*
X0357150Y0347500D01*
X0359270Y0347500D02*
X0359270Y0350620D01*
X0354650Y0355000D02*
X0353020Y0355000D01*
X0349270Y0351250D01*
X0349270Y0347880D01*
X0348880Y0347500D01*
X0346380Y0355000D02*
X0347150Y0355760D01*
X0347150Y0362500D01*
X0338880Y0362500D02*
X0338880Y0360860D01*
X0336770Y0358750D01*
X0333400Y0362500D02*
X0333400Y0366250D01*
X0333640Y0366250D01*
X0329890Y0366250D01*
X0325130Y0362500D02*
X0323400Y0362500D01*
X0315130Y0362500D02*
X0310900Y0362500D01*
X0310520Y0362880D01*
X0310900Y0355000D02*
X0310520Y0354610D01*
X0310900Y0355000D02*
X0313020Y0355000D01*
X0310520Y0349370D02*
X0310520Y0349130D01*
X0310520Y0349370D02*
X0306770Y0349370D01*
X0306770Y0345620D01*
X0310520Y0340860D02*
X0310520Y0340380D01*
X0310520Y0332110D02*
X0310520Y0331630D01*
X0310520Y0318120D02*
X0306770Y0318120D01*
X0306770Y0314370D01*
X0310520Y0317880D02*
X0310520Y0318120D01*
X0310520Y0309610D02*
X0310520Y0309130D01*
X0310520Y0300860D02*
X0310520Y0300380D01*
M02*
