%
T01C0.019700
X1625Y1562
X1625Y1875
X1625Y3875
X1625Y4250
X2562Y4687
X2562Y5062
X1562Y7062
X1562Y7437
X3750Y8937
X4125Y8937
X6875Y7375
X6875Y7000
X6000Y3812
X5625Y3812
X9562Y1687
X9562Y2062
X10437Y3125
X10687Y2875
X9625Y4187
X9625Y4562
X12750Y3312
X13125Y3312
X13250Y5062
X13250Y5437
X13250Y8750
X12875Y8750
X11312Y9187
X10937Y9187
X9250Y8375
X9250Y8000
X16250Y3187
X16250Y3562
X18125Y2625
X18250Y3000
X20437Y3187
X20437Y3562
X20437Y2187
X20437Y1812
X20437Y6312
X20437Y6687
X17000Y8562
X17000Y8937
X16250Y6687
X16250Y6312
X23901Y2875
X23901Y3250
X25651Y2500
X26026Y2500
X27901Y2500
X28276Y2500
X26776Y5625
X26401Y5625
X23901Y6062
X23901Y6437
X24401Y8187
X24776Y8187
X27963Y8187
X28338Y8187
X30651Y1375
X30651Y1750
X30651Y3687
X30651Y4062
X30651Y6812
X30651Y7187
X32963Y8875
X33338Y8875
X35901Y7312
X35901Y6750
X35151Y5000
X35151Y4687
X33901Y3875
X33901Y3500
X35838Y2375
X35838Y2000
X3437Y12312
X3437Y12687
X5000Y11187
X5000Y10812
X3437Y14812
X3437Y15187
X3687Y18000
X4000Y18000
X3375Y18375
X3000Y18375
X5062Y18375
X5437Y18375
X9588Y10937
X9588Y11312
X10463Y12375
X10713Y12125
X9651Y13437
X9651Y13812
X12776Y12562
X13151Y12562
X13276Y14312
X13276Y14687
X13276Y18000
X12901Y18000
X11338Y18437
X10963Y18437
X9276Y17625
X9276Y17250
X16276Y12437
X16276Y12812
X18151Y11875
X18276Y12250
X20463Y12437
X20463Y12812
X20463Y11437
X20463Y11062
X20463Y15562
X20463Y15937
X17026Y17812
X17026Y18187
X16276Y15937
X16276Y15562
X23927Y12125
X23927Y12500
X25677Y11750
X26052Y11750
X27927Y11750
X28302Y11750
X26802Y14875
X26427Y14875
X23927Y15312
X23927Y15687
X24427Y17437
X24802Y17437
X27989Y17437
X28364Y17437
X30677Y10625
X30677Y11000
X30677Y12937
X30677Y13312
X30677Y16062
X30677Y16437
X32989Y18125
X33364Y18125
X35927Y16562
X35927Y16000
X35177Y14250
X35177Y13937
X33927Y13125
X33927Y12750
X35864Y11625
X35864Y11250
X1625Y20062
X1625Y20375
X1625Y22375
X1625Y22750
X2562Y23187
X2562Y23562
X1562Y25562
X1562Y25937
X3750Y27437
X4125Y27437
X6875Y25875
X6875Y25500
X6000Y22312
X5625Y22312
X9562Y20187
X9562Y20562
X10437Y21625
X10687Y21375
X9625Y22687
X9625Y23062
X12750Y21812
X13125Y21812
X13250Y23562
X13250Y23937
X13250Y27250
X12875Y27250
X11312Y27687
X10937Y27687
X9250Y26875
X9250Y26500
X16250Y21687
X16250Y22062
X18125Y21125
X18250Y21500
X20437Y21687
X20437Y22062
X20437Y20687
X20437Y20312
X20437Y24812
X20437Y25187
X17000Y27062
X17000Y27437
X16250Y25187
X16250Y24812
X23901Y21375
X23901Y21750
X25651Y21000
X26026Y21000
X27901Y21000
X28276Y21000
X26776Y24125
X26401Y24125
X23901Y24562
X23901Y24937
X24401Y26687
X24776Y26687
X27963Y26687
X28338Y26687
X30651Y19875
X30651Y20250
X30651Y22187
X30651Y22562
X30651Y25312
X30651Y25687
X32963Y27375
X33338Y27375
X35901Y25812
X35901Y25250
X35151Y23500
X35151Y23187
X33901Y22375
X33901Y22000
X35838Y20875
X35838Y20500
X3437Y30812
X3437Y31187
X5000Y29687
X5000Y29312
X3437Y33312
X3437Y33687
X3687Y36500
X4000Y36500
X3375Y36875
X3000Y36875
X5062Y36875
X5437Y36875
X9588Y29437
X9588Y29812
X10463Y30875
X10713Y30625
X9651Y31937
X9651Y32312
X12776Y31062
X13151Y31062
X13276Y32812
X13276Y33187
X13276Y36500
X12901Y36500
X11338Y36937
X10963Y36937
X9276Y36125
X9276Y35750
X16276Y30937
X16276Y31312
X18151Y30375
X18276Y30750
X20463Y30937
X20463Y31312
X20463Y29937
X20463Y29562
X20463Y34062
X20463Y34437
X17026Y36312
X17026Y36687
X16276Y34437
X16276Y34062
X23927Y30625
X23927Y31000
X25677Y30250
X26052Y30250
X27927Y30250
X28302Y30250
X26802Y33375
X26427Y33375
X23927Y33812
X23927Y34187
X24427Y35937
X24802Y35937
X27989Y35937
X28364Y35937
X30677Y29125
X30677Y29500
X30677Y31437
X30677Y31812
X30677Y34562
X30677Y34937
X32989Y36625
X33364Y36625
X35927Y35062
X35927Y34500
X35177Y32750
X35177Y32437
X33927Y31625
X33927Y31250
X35864Y30125
X35864Y29750
M30
