G75*
G70*
%OFA0B0*%
%FSLAX25Y25*%
%IPPOS*%
%LPD*%
%AMOC8*
5,1,8,0,0,1.08239X$1,22.5*
%
%ADD11C,0.00500*%
%ADD13C,0.00400*%
%ADD14C,0.00600*%
%ADD15C,0.00000*%
%ADD18C,0.00800*%
X0010000Y0010000D02*
G75*
%LPD*%
D15*
X0010000Y0010000D02*
X0010000Y0090000D01*
X0055000Y0090000D01*
X0070000Y0075000D01*
X0070000Y0045000D01*
X0055000Y0030000D01*
X0027000Y0030000D01*
X0027000Y0010000D01*
X0010000Y0010000D01*
D13*
X0013750Y0010000D02*
X0013750Y0023750D01*
X0015000Y0025000D01*
X0021250Y0025000D01*
X0021250Y0010000D01*
X0013750Y0010000D01*
X0013750Y0018750D02*
X0013750Y0032500D01*
X0015000Y0033750D01*
X0021250Y0033750D01*
X0021250Y0018750D01*
X0013750Y0018750D01*
X0013750Y0027500D02*
X0013750Y0041250D01*
X0013750Y0055000D01*
X0015000Y0056250D01*
X0021250Y0056250D01*
X0021250Y0041250D01*
X0013750Y0041250D01*
X0015000Y0042500D01*
X0021250Y0042500D01*
X0021250Y0027500D01*
X0013750Y0027500D01*
X0021250Y0036870D02*
X0020000Y0038120D01*
X0020000Y0044370D01*
X0035000Y0044370D01*
X0035000Y0036870D01*
X0021250Y0036870D01*
X0028750Y0038120D02*
X0030000Y0036870D01*
X0043750Y0036870D01*
X0043750Y0044370D01*
X0028750Y0044370D01*
X0028750Y0038120D01*
X0037500Y0038120D02*
X0038750Y0036870D01*
X0052500Y0036870D01*
X0052500Y0044370D01*
X0037500Y0044370D01*
X0037500Y0038120D01*
X0051870Y0036250D02*
X0051870Y0051250D01*
X0059370Y0051250D01*
X0059370Y0037500D01*
X0058120Y0036250D01*
X0051870Y0036250D01*
X0058120Y0041870D02*
X0058120Y0056870D01*
X0065620Y0056870D01*
X0065620Y0043120D01*
X0064370Y0041870D01*
X0058120Y0041870D01*
X0058120Y0050620D02*
X0058120Y0065620D01*
X0065620Y0065620D01*
X0065620Y0051870D01*
X0064370Y0050620D01*
X0058120Y0050620D01*
X0021250Y0050000D02*
X0013750Y0050000D01*
X0013750Y0063750D01*
X0015000Y0065000D01*
X0021250Y0065000D01*
X0021250Y0050000D01*
X0021250Y0058750D02*
X0013750Y0058750D01*
X0013750Y0072500D01*
X0013750Y0086250D01*
X0015000Y0087500D01*
X0021250Y0087500D01*
X0021250Y0072500D01*
X0013750Y0072500D01*
X0015000Y0073750D01*
X0021250Y0073750D01*
X0021250Y0058750D01*
X0058120Y0064370D02*
X0058120Y0079370D01*
X0065620Y0079370D01*
X0065620Y0065620D01*
X0064370Y0064370D01*
X0058120Y0064370D01*
X0059520Y0071420D02*
X0048920Y0082020D01*
X0054220Y0087330D01*
X0063940Y0077600D01*
X0063940Y0075840D01*
X0059520Y0071420D01*
X0055000Y0079370D02*
X0040000Y0079370D01*
X0040000Y0086870D01*
X0053750Y0086870D01*
X0055000Y0085620D01*
X0055000Y0079370D01*
X0041250Y0079370D02*
X0026250Y0079370D01*
X0026250Y0086870D01*
X0040000Y0086870D01*
X0041250Y0085620D01*
X0041250Y0079370D01*
X0032500Y0079370D02*
X0017500Y0079370D01*
X0017500Y0086870D01*
X0031250Y0086870D01*
X0032500Y0085620D01*
X0032500Y0079370D01*
D14*
X0012630Y0081010D02*
X0010360Y0078740D01*
X0010360Y0078170D01*
X0010360Y0081570D02*
X0012630Y0081570D01*
X0012630Y0081010D01*
X0023170Y0088420D02*
X0026570Y0088420D01*
X0026570Y0090000D01*
X0026570Y0090690D02*
X0034700Y0090000D02*
X0034700Y0087800D01*
X0031290Y0087800D01*
X0045440Y0086810D02*
X0048840Y0086810D01*
X0048840Y0089080D01*
X0061540Y0087600D02*
X0063140Y0089200D01*
X0067550Y0090000D02*
X0067750Y0089800D01*
X0067750Y0089000D01*
X0066550Y0087790D01*
X0064340Y0090000D01*
X0064140Y0090200D02*
X0061540Y0087600D02*
X0063950Y0085190D01*
X0065550Y0086790D01*
X0063540Y0087200D02*
X0062740Y0086390D01*
X0062950Y0084190D02*
X0061340Y0082590D01*
X0058930Y0084990D01*
X0066550Y0074320D02*
X0066550Y0070920D01*
X0068820Y0070920D01*
X0013260Y0067200D02*
X0012120Y0066630D01*
X0010990Y0065500D01*
X0012690Y0065500D01*
X0013260Y0064930D01*
X0013260Y0064360D01*
X0012690Y0063800D01*
X0011560Y0063800D01*
X0010990Y0064360D01*
X0010990Y0065500D01*
X0010990Y0055610D02*
X0011560Y0055050D01*
X0012690Y0055050D01*
X0013260Y0055610D01*
X0013260Y0056750D01*
X0012690Y0057320D01*
X0012120Y0057320D01*
X0010990Y0056750D01*
X0010990Y0058450D01*
X0013260Y0058450D01*
X0010990Y0048000D02*
X0013260Y0048000D01*
X0012690Y0049700D02*
X0010990Y0048000D01*
X0012690Y0046300D02*
X0012690Y0049700D01*
X0010990Y0034360D02*
X0011560Y0033800D01*
X0012690Y0033800D01*
X0013260Y0034360D01*
X0013260Y0034930D01*
X0012690Y0035500D01*
X0012120Y0035500D01*
X0012690Y0035500D02*
X0013260Y0036070D01*
X0013260Y0036630D01*
X0012690Y0037200D01*
X0011560Y0037200D01*
X0010990Y0036630D01*
X0025920Y0035190D02*
X0025920Y0034060D01*
X0026490Y0033490D01*
X0027050Y0033490D01*
X0027620Y0034060D01*
X0027620Y0035190D01*
X0028190Y0035760D01*
X0028750Y0035760D01*
X0029320Y0035190D01*
X0029320Y0034060D01*
X0028750Y0033490D01*
X0028190Y0033490D01*
X0027620Y0034060D01*
X0027620Y0035190D02*
X0027050Y0035760D01*
X0026490Y0035760D01*
X0025920Y0035190D01*
X0035920Y0035760D02*
X0035920Y0033490D01*
X0035920Y0035760D02*
X0036490Y0035760D01*
X0038750Y0033490D01*
X0039320Y0033490D01*
X0039320Y0032070D02*
X0039320Y0029810D01*
X0039320Y0030940D02*
X0035920Y0030940D01*
X0037050Y0029810D01*
X0036490Y0028390D02*
X0035920Y0027820D01*
X0035920Y0026120D01*
X0039320Y0026120D01*
X0039320Y0027820D01*
X0038750Y0028390D01*
X0036490Y0028390D01*
X0043420Y0029690D02*
X0046820Y0029690D01*
X0046820Y0028560D02*
X0046820Y0030820D01*
X0046250Y0032240D02*
X0045120Y0032240D01*
X0045120Y0033940D01*
X0045690Y0034510D01*
X0046250Y0034510D01*
X0046820Y0033940D01*
X0046820Y0032810D01*
X0046250Y0032240D01*
X0045120Y0032240D02*
X0043990Y0033370D01*
X0043420Y0034510D01*
X0029320Y0032070D02*
X0029320Y0029810D01*
X0029320Y0030940D02*
X0025920Y0030940D01*
X0027050Y0029810D01*
X0026490Y0028390D02*
X0025920Y0027820D01*
X0025920Y0026120D01*
X0029320Y0026120D01*
X0029320Y0027820D01*
X0028750Y0028390D01*
X0026490Y0028390D01*
X0025920Y0024710D02*
X0025920Y0022440D01*
X0029320Y0022440D01*
X0029320Y0024710D01*
X0027620Y0023570D02*
X0027620Y0022440D01*
X0029320Y0021020D02*
X0029320Y0018760D01*
X0025920Y0018760D01*
X0035920Y0018760D02*
X0039320Y0018760D01*
X0039320Y0021020D01*
X0039320Y0022440D02*
X0035920Y0022440D01*
X0035920Y0024710D01*
X0037620Y0023570D02*
X0037620Y0022440D01*
X0039320Y0022440D02*
X0039320Y0024710D01*
X0043420Y0024870D02*
X0043420Y0026570D01*
X0043990Y0027140D01*
X0046250Y0027140D01*
X0046820Y0026570D01*
X0046820Y0024870D01*
X0043420Y0024870D01*
X0043420Y0023460D02*
X0043420Y0021190D01*
X0046820Y0021190D01*
X0046820Y0023460D01*
X0045120Y0022320D02*
X0045120Y0021190D01*
X0046820Y0019770D02*
X0046820Y0017510D01*
X0043420Y0017510D01*
X0013260Y0017550D02*
X0010990Y0017550D01*
X0012120Y0017550D02*
X0012120Y0020950D01*
X0010990Y0019820D01*
X0010990Y0027880D02*
X0011560Y0028450D01*
X0012690Y0028450D01*
X0013260Y0027880D01*
X0013260Y0027320D01*
X0010990Y0025050D01*
X0013260Y0025050D01*
X0043420Y0029690D02*
X0044550Y0028560D01*
X0060820Y0042540D02*
X0063090Y0042540D01*
X0064510Y0042540D02*
X0066770Y0042540D01*
X0068190Y0042540D02*
X0069890Y0042540D01*
X0070000Y0042648D01*
X0070460Y0043100D02*
X0070000Y0045830D02*
X0069890Y0045940D01*
X0068190Y0045940D01*
X0068190Y0042540D01*
X0065640Y0044240D02*
X0064510Y0044240D01*
X0064510Y0045940D02*
X0064510Y0042540D01*
X0060820Y0042540D02*
X0060820Y0045940D01*
X0064510Y0045940D02*
X0066770Y0045940D01*
X0066550Y0048420D02*
X0068820Y0048420D01*
X0066550Y0051820D02*
X0066550Y0048420D01*
X0067170Y0056550D02*
X0069440Y0056550D01*
X0067170Y0056550D02*
X0067170Y0059950D01*
D11*
X0042060Y0038250D02*
X0042060Y0042750D01*
X0040560Y0042750D02*
X0043560Y0042750D01*
X0045160Y0042750D02*
X0047420Y0042750D01*
X0048170Y0042000D01*
X0048170Y0040500D01*
X0047420Y0039750D01*
X0045160Y0039750D01*
X0045160Y0038250D02*
X0045160Y0042750D01*
X0049770Y0042750D02*
X0049770Y0040500D01*
X0051270Y0041250D01*
X0052020Y0041250D01*
X0052770Y0040500D01*
X0052770Y0039000D01*
X0052020Y0038250D01*
X0050520Y0038250D01*
X0049770Y0039000D01*
X0049770Y0042750D02*
X0052770Y0042750D01*
X0034580Y0048620D02*
X0034580Y0049370D01*
X0033830Y0050120D01*
X0031580Y0050120D01*
X0031580Y0048620D01*
X0032330Y0047870D01*
X0033830Y0047870D01*
X0034580Y0048620D01*
X0033080Y0051620D02*
X0031580Y0050120D01*
X0029980Y0050120D02*
X0029980Y0051620D01*
X0029230Y0052380D01*
X0026980Y0052380D01*
X0026980Y0047870D01*
X0026980Y0049370D02*
X0029230Y0049370D01*
X0029980Y0050120D01*
X0033080Y0051620D02*
X0034580Y0052380D01*
X0025370Y0052380D02*
X0022370Y0052380D01*
X0023870Y0052380D02*
X0023870Y0047870D01*
X0010000Y0040120D02*
X0010900Y0040120D01*
D18*
X0010400Y0010400D02*
X0010400Y0090400D01*
X0010400Y0090400D02*
X0070400Y0090400D01*
X0070400Y0010400D01*
X0010400Y0010400D01*
X0077500Y0010000D02*
G75*
%LPD*%
D15*
X0077500Y0010000D02*
X0077500Y0096000D01*
X0137230Y0096000D01*
X0137230Y0010000D01*
X0077500Y0010000D01*
D13*
X0088120Y0015000D02*
X0088120Y0028750D01*
X0089370Y0030000D01*
X0095620Y0030000D01*
X0095620Y0015000D01*
X0088120Y0015000D01*
X0095620Y0011250D02*
X0095620Y0025000D01*
X0096870Y0026250D01*
X0103120Y0026250D01*
X0103120Y0011250D01*
X0103120Y0025000D01*
X0104370Y0026250D01*
X0110620Y0026250D01*
X0110620Y0011250D01*
X0110620Y0025000D01*
X0111870Y0026250D01*
X0118120Y0026250D01*
X0118120Y0011250D01*
X0110620Y0011250D01*
X0103120Y0011250D01*
X0095620Y0011250D01*
X0118120Y0015000D02*
X0118120Y0028750D01*
X0119370Y0030000D01*
X0125620Y0030000D01*
X0125620Y0015000D01*
X0118120Y0015000D01*
X0125000Y0022500D02*
X0125000Y0037500D01*
X0132500Y0037500D01*
X0132500Y0023750D01*
X0131250Y0022500D01*
X0125000Y0022500D01*
X0088750Y0022500D02*
X0081250Y0022500D01*
X0081250Y0036250D01*
X0082500Y0037500D01*
X0088750Y0037500D01*
X0088750Y0022500D01*
X0088750Y0031250D02*
X0081250Y0031250D01*
X0081250Y0045000D01*
X0081250Y0058750D01*
X0082500Y0060000D01*
X0088750Y0060000D01*
X0088750Y0045000D01*
X0081250Y0045000D01*
X0082500Y0046250D01*
X0088750Y0046250D01*
X0088750Y0031250D01*
X0125000Y0031250D02*
X0125000Y0046250D01*
X0132500Y0046250D01*
X0132500Y0032500D01*
X0131250Y0031250D01*
X0125000Y0031250D01*
X0125000Y0045000D02*
X0125000Y0060000D01*
X0132500Y0060000D01*
X0132500Y0046250D01*
X0131250Y0045000D01*
X0125000Y0045000D01*
X0125000Y0053750D02*
X0125000Y0068750D01*
X0132500Y0068750D01*
X0132500Y0055000D01*
X0131250Y0053750D01*
X0125000Y0053750D01*
X0088750Y0053750D02*
X0081250Y0053750D01*
X0081250Y0067500D01*
X0082500Y0068750D01*
X0088750Y0068750D01*
X0088750Y0053750D01*
X0088750Y0062500D02*
X0081250Y0062500D01*
X0081250Y0076250D01*
X0082500Y0077500D01*
X0088750Y0077500D01*
X0088750Y0062500D01*
X0087500Y0070000D02*
X0087500Y0083750D01*
X0088750Y0085000D01*
X0095000Y0085000D01*
X0095000Y0070000D01*
X0087500Y0070000D01*
X0093750Y0073750D02*
X0093750Y0087500D01*
X0095000Y0088750D01*
X0101250Y0088750D01*
X0101250Y0073750D01*
X0093750Y0073750D01*
X0100000Y0073750D02*
X0100000Y0087500D01*
X0101250Y0088750D01*
X0107500Y0088750D01*
X0106250Y0087500D01*
X0106250Y0073750D01*
X0113750Y0073750D01*
X0113750Y0088750D01*
X0107500Y0088750D01*
X0107500Y0073750D01*
X0100000Y0073750D01*
X0112500Y0073750D02*
X0112500Y0087500D01*
X0113750Y0088750D01*
X0120000Y0088750D01*
X0120000Y0073750D01*
X0112500Y0073750D01*
X0125000Y0077500D02*
X0132500Y0077500D01*
X0132500Y0063750D01*
X0131250Y0062500D01*
X0125000Y0062500D01*
X0125000Y0077500D01*
X0118750Y0083750D02*
X0120000Y0085000D01*
X0126250Y0085000D01*
X0126250Y0070000D01*
X0118750Y0070000D01*
X0118750Y0083750D01*
D14*
X0079510Y0026300D02*
X0077500Y0026300D01*
X0077240Y0026300D02*
X0077500Y0026560D02*
X0079510Y0028570D01*
X0079510Y0029130D01*
X0078940Y0029700D01*
X0077810Y0029700D01*
X0077500Y0029390D01*
X0077240Y0029130D02*
X0077500Y0038140D02*
X0077810Y0038450D01*
X0078940Y0038450D01*
X0079510Y0037880D01*
X0079510Y0037320D01*
X0078940Y0036750D01*
X0079510Y0036180D01*
X0079510Y0035610D01*
X0078940Y0035050D01*
X0077810Y0035050D01*
X0077500Y0035355D01*
X0077240Y0035610D02*
X0078370Y0036750D02*
X0078940Y0036750D01*
X0106260Y0038450D02*
X0106260Y0035050D01*
X0108520Y0035050D01*
X0109940Y0035050D02*
X0112210Y0035050D01*
X0113620Y0035050D02*
X0115320Y0035050D01*
X0115890Y0035610D01*
X0115890Y0037880D01*
X0115320Y0038450D01*
X0113620Y0038450D01*
X0113620Y0035050D01*
X0111070Y0036750D02*
X0109940Y0036750D01*
X0109940Y0038450D02*
X0109940Y0035050D01*
X0117310Y0035050D02*
X0119570Y0035050D01*
X0118440Y0035050D02*
X0118440Y0038450D01*
X0117310Y0037320D01*
X0120990Y0036750D02*
X0120990Y0035610D01*
X0121560Y0035050D01*
X0122690Y0035050D01*
X0123260Y0035610D01*
X0123260Y0036180D01*
X0122690Y0036750D01*
X0120990Y0036750D01*
X0122120Y0037880D01*
X0123260Y0038450D01*
X0112210Y0038450D02*
X0109940Y0038450D01*
X0109940Y0029700D02*
X0109940Y0026300D01*
X0112210Y0026300D01*
X0113620Y0026300D02*
X0115320Y0026300D01*
X0115890Y0026860D01*
X0115890Y0029130D01*
X0115320Y0029700D01*
X0113620Y0029700D01*
X0113620Y0026300D01*
X0111070Y0028000D02*
X0109940Y0028000D01*
X0109940Y0029700D02*
X0112210Y0029700D01*
X0117310Y0028570D02*
X0118440Y0029700D01*
X0118440Y0026300D01*
X0117310Y0026300D02*
X0119570Y0026300D01*
X0120990Y0026300D02*
X0120990Y0026860D01*
X0123260Y0029130D01*
X0123260Y0029700D01*
X0120990Y0029700D01*
X0108520Y0026300D02*
X0106260Y0026300D01*
X0106260Y0029700D01*
X0106260Y0048800D02*
X0108520Y0048800D01*
X0109940Y0048800D02*
X0112210Y0048800D01*
X0113620Y0048800D02*
X0115320Y0048800D01*
X0115890Y0049360D01*
X0115890Y0051630D01*
X0115320Y0052200D01*
X0113620Y0052200D01*
X0113620Y0048800D01*
X0111070Y0050500D02*
X0109940Y0050500D01*
X0109940Y0052200D02*
X0109940Y0048800D01*
X0106260Y0048800D02*
X0106260Y0052200D01*
X0109940Y0052200D02*
X0112210Y0052200D01*
X0117310Y0051070D02*
X0118440Y0052200D01*
X0118440Y0048800D01*
X0117310Y0048800D02*
X0119570Y0048800D01*
X0120990Y0049360D02*
X0121560Y0048800D01*
X0122690Y0048800D01*
X0123260Y0049360D01*
X0123260Y0050500D01*
X0122690Y0051070D01*
X0122120Y0051070D01*
X0120990Y0050500D01*
X0120990Y0052200D01*
X0123260Y0052200D01*
X0122690Y0057550D02*
X0122690Y0060950D01*
X0120990Y0059250D01*
X0123260Y0059250D01*
X0119570Y0057550D02*
X0117310Y0057550D01*
X0118440Y0057550D02*
X0118440Y0060950D01*
X0117310Y0059820D01*
X0115890Y0060380D02*
X0115320Y0060950D01*
X0113620Y0060950D01*
X0113620Y0057550D01*
X0115320Y0057550D01*
X0115890Y0058110D01*
X0115890Y0060380D01*
X0112210Y0060950D02*
X0109940Y0060950D01*
X0109940Y0057550D01*
X0112210Y0057550D01*
X0111070Y0059250D02*
X0109940Y0059250D01*
X0108520Y0057550D02*
X0106260Y0057550D01*
X0106260Y0060950D01*
X0106260Y0066300D02*
X0108520Y0066300D01*
X0109940Y0066300D02*
X0112210Y0066300D01*
X0113620Y0066300D02*
X0115320Y0066300D01*
X0115890Y0066860D01*
X0115890Y0069130D01*
X0115320Y0069700D01*
X0113620Y0069700D01*
X0113620Y0066300D01*
X0111070Y0068000D02*
X0109940Y0068000D01*
X0109940Y0069700D02*
X0109940Y0066300D01*
X0106260Y0066300D02*
X0106260Y0069700D01*
X0109940Y0069700D02*
X0112210Y0069700D01*
X0117310Y0068570D02*
X0118440Y0069700D01*
X0118440Y0066300D01*
X0117310Y0066300D02*
X0119570Y0066300D01*
X0120990Y0066860D02*
X0121560Y0066300D01*
X0122690Y0066300D01*
X0123260Y0066860D01*
X0123260Y0067430D01*
X0122690Y0068000D01*
X0122120Y0068000D01*
X0122690Y0068000D02*
X0123260Y0068570D01*
X0123260Y0069130D01*
X0122690Y0069700D01*
X0121560Y0069700D01*
X0120990Y0069130D01*
X0079510Y0069700D02*
X0078370Y0069130D01*
X0077500Y0068260D01*
X0077240Y0068000D02*
X0077500Y0068000D02*
X0078940Y0068000D01*
X0079510Y0067430D01*
X0079510Y0066860D01*
X0078940Y0066300D01*
X0077810Y0066300D01*
X0077500Y0066605D01*
X0077240Y0066860D02*
X0077500Y0057855D02*
X0077810Y0057550D01*
X0078940Y0057550D01*
X0079510Y0058110D01*
X0079510Y0059250D01*
X0078940Y0059820D01*
X0078370Y0059820D01*
X0077500Y0059381D01*
X0077240Y0059250D02*
X0077500Y0060950D02*
X0079510Y0060950D01*
X0077500Y0050500D02*
X0079510Y0050500D01*
X0078940Y0048800D02*
X0078940Y0052200D01*
X0077500Y0050760D01*
X0077240Y0050500D02*
X0087540Y0087170D02*
X0090950Y0087170D01*
X0090950Y0089440D01*
X0090950Y0090850D02*
X0090950Y0093120D01*
X0090950Y0094540D02*
X0090950Y0096000D01*
X0090950Y0096240D02*
X0087540Y0096000D02*
X0087540Y0094540D01*
X0090950Y0094540D01*
X0087540Y0093120D02*
X0087540Y0090850D01*
X0090950Y0090850D01*
X0089250Y0090850D02*
X0089250Y0091990D01*
X0095040Y0090920D02*
X0098450Y0090920D01*
X0098450Y0093190D01*
X0098450Y0094600D02*
X0098450Y0096000D01*
X0098450Y0096870D02*
X0101290Y0096000D02*
X0101290Y0094600D01*
X0104700Y0094600D01*
X0104700Y0096000D01*
X0104700Y0096870D02*
X0103000Y0095740D02*
X0103000Y0094600D01*
X0104700Y0093190D02*
X0104700Y0090920D01*
X0101290Y0090920D01*
X0108170Y0090300D02*
X0111570Y0090300D01*
X0111570Y0092570D01*
X0111570Y0093980D02*
X0111570Y0096000D01*
X0111570Y0096250D02*
X0113790Y0095620D02*
X0113790Y0093350D01*
X0117200Y0093350D01*
X0117200Y0095620D01*
X0115500Y0094490D02*
X0115500Y0093350D01*
X0117200Y0091940D02*
X0117200Y0089670D01*
X0113790Y0089670D01*
X0119420Y0090300D02*
X0122820Y0090300D01*
X0122820Y0092570D01*
X0122820Y0093980D02*
X0119420Y0093980D01*
X0119420Y0096000D01*
X0119420Y0096250D02*
X0121120Y0095110D02*
X0121120Y0093980D01*
X0122820Y0093980D02*
X0122820Y0096000D01*
X0122820Y0096250D02*
X0095040Y0096000D02*
X0095040Y0094600D01*
X0098450Y0094600D01*
X0096750Y0094600D02*
X0096750Y0095740D01*
X0108170Y0096000D02*
X0108170Y0093980D01*
X0111570Y0093980D01*
X0109870Y0093980D02*
X0109870Y0095110D01*
D11*
X0128000Y0091750D02*
X0131000Y0091750D01*
X0129500Y0091750D02*
X0129500Y0087250D01*
X0132600Y0087250D02*
X0132600Y0091750D01*
X0134850Y0091750D01*
X0135600Y0091000D01*
X0135600Y0089500D01*
X0134850Y0088750D01*
X0132600Y0088750D01*
X0137200Y0089500D02*
X0137230Y0089500D01*
X0140210Y0089500D02*
X0137230Y0089530D02*
X0137200Y0089500D01*
X0078400Y0077620D02*
X0077640Y0078380D01*
X0077500Y0078380D01*
X0076140Y0078380D02*
X0077500Y0075973D02*
X0078400Y0076870D01*
X0078400Y0077620D01*
X0078400Y0073870D02*
X0077500Y0073870D01*
X0075390Y0073870D02*
X0129250Y0049880D02*
X0132250Y0049880D01*
X0130750Y0049880D02*
X0130750Y0045370D01*
X0133850Y0045370D02*
X0133850Y0049880D01*
X0136100Y0049880D01*
X0136850Y0049120D01*
X0136850Y0047620D01*
X0136100Y0046870D01*
X0133850Y0046870D01*
X0106460Y0041620D02*
X0103450Y0041620D01*
X0104960Y0041620D02*
X0104960Y0046130D01*
X0103450Y0044620D01*
X0101850Y0045370D02*
X0101850Y0043870D01*
X0101100Y0043120D01*
X0098850Y0043120D01*
X0098850Y0041620D02*
X0098850Y0046130D01*
X0101100Y0046130D01*
X0101850Y0045370D01*
X0097250Y0046130D02*
X0094250Y0046130D01*
X0095750Y0046130D02*
X0095750Y0041620D01*
X0095120Y0035500D02*
X0095120Y0031000D01*
X0098230Y0031000D02*
X0098230Y0035500D01*
X0100480Y0035500D01*
X0101230Y0034750D01*
X0101230Y0033250D01*
X0100480Y0032500D01*
X0098230Y0032500D01*
X0102830Y0031750D02*
X0102830Y0031000D01*
X0102830Y0031750D02*
X0105830Y0034750D01*
X0105830Y0035500D01*
X0102830Y0035500D01*
X0096620Y0035500D02*
X0093620Y0035500D01*
X0127370Y0032380D02*
X0130370Y0032380D01*
X0128870Y0032380D02*
X0128870Y0027870D01*
X0131980Y0027870D02*
X0131980Y0032380D01*
X0134230Y0032380D01*
X0134980Y0031620D01*
X0134980Y0030120D01*
X0134230Y0029370D01*
X0131980Y0029370D01*
X0136580Y0030120D02*
X0136580Y0028620D01*
X0137230Y0027970D01*
X0137330Y0027870D02*
X0137230Y0030120D02*
X0136580Y0030120D01*
X0137230Y0030770D01*
X0138080Y0031620D02*
X0084580Y0019120D02*
X0084580Y0018370D01*
X0083830Y0017620D01*
X0082330Y0017620D01*
X0081580Y0018370D01*
X0081580Y0019120D01*
X0082330Y0019880D01*
X0083830Y0019880D01*
X0084580Y0019120D01*
X0083830Y0017620D02*
X0084580Y0016870D01*
X0084580Y0016120D01*
X0083830Y0015370D01*
X0082330Y0015370D01*
X0081580Y0016120D01*
X0081580Y0016870D01*
X0082330Y0017620D01*
X0079980Y0017620D02*
X0079230Y0016870D01*
X0077500Y0016870D01*
X0076980Y0016870D02*
X0077500Y0019880D02*
X0079230Y0019880D01*
X0079980Y0019120D01*
X0079980Y0017620D01*
D18*
X0077100Y0010400D02*
X0077100Y0096400D01*
X0137630Y0096400D01*
X0137630Y0010400D01*
X0077100Y0010400D01*
X0144730Y0010000D02*
G75*
%LPD*%
D15*
X0144730Y0010000D02*
X0144730Y0092250D01*
X0203740Y0092250D01*
X0203740Y0010000D01*
X0144730Y0010000D01*
D13*
X0149730Y0013750D02*
X0149730Y0028750D01*
X0157230Y0028750D01*
X0157230Y0015000D01*
X0155980Y0013750D01*
X0149730Y0013750D01*
X0157850Y0020000D02*
X0157850Y0035000D01*
X0165350Y0035000D01*
X0165350Y0021250D01*
X0164100Y0020000D01*
X0157850Y0020000D01*
X0182230Y0020000D02*
X0182230Y0035000D01*
X0189730Y0035000D01*
X0189730Y0021250D01*
X0188480Y0020000D01*
X0182230Y0020000D01*
X0197850Y0013750D02*
X0199100Y0015000D01*
X0199100Y0028750D01*
X0197850Y0027500D01*
X0191600Y0027500D01*
X0191600Y0042500D01*
X0199100Y0042500D01*
X0199100Y0028750D01*
X0191600Y0028750D01*
X0191600Y0013750D01*
X0197850Y0013750D01*
X0181600Y0030000D02*
X0180350Y0028750D01*
X0174100Y0028750D01*
X0174100Y0043750D01*
X0181600Y0043750D01*
X0181600Y0030000D01*
X0173480Y0030000D02*
X0172230Y0028750D01*
X0165980Y0028750D01*
X0165980Y0043750D01*
X0173480Y0043750D01*
X0173480Y0030000D01*
X0157230Y0028750D02*
X0155980Y0027500D01*
X0149730Y0027500D01*
X0149730Y0042500D01*
X0157230Y0042500D01*
X0157230Y0028750D01*
X0155980Y0036250D02*
X0149730Y0036250D01*
X0149730Y0051250D01*
X0157230Y0051250D01*
X0157230Y0037500D01*
X0155980Y0036250D01*
X0155980Y0045000D02*
X0149730Y0045000D01*
X0149730Y0060000D01*
X0157230Y0060000D01*
X0157230Y0046250D01*
X0155980Y0045000D01*
X0191600Y0045000D02*
X0191600Y0060000D01*
X0199100Y0060000D01*
X0197850Y0058750D01*
X0191600Y0058750D01*
X0191600Y0073750D01*
X0199100Y0073750D01*
X0199100Y0060000D01*
X0199100Y0046250D01*
X0197850Y0045000D01*
X0191600Y0045000D01*
X0191600Y0051250D02*
X0199100Y0051250D01*
X0199100Y0037500D01*
X0197850Y0036250D01*
X0191600Y0036250D01*
X0191600Y0051250D01*
X0157230Y0060000D02*
X0155980Y0058750D01*
X0149730Y0058750D01*
X0149730Y0073750D01*
X0157230Y0073750D01*
X0157230Y0060000D01*
X0155980Y0067500D02*
X0149730Y0067500D01*
X0149730Y0082500D01*
X0157230Y0082500D01*
X0157230Y0068750D01*
X0155980Y0067500D01*
X0155980Y0076250D02*
X0149730Y0076250D01*
X0149730Y0091250D01*
X0157230Y0091250D01*
X0157230Y0077500D01*
X0155980Y0076250D01*
X0191600Y0076250D02*
X0191600Y0091250D01*
X0199100Y0091250D01*
X0199100Y0077500D01*
X0197850Y0076250D01*
X0191600Y0076250D01*
X0191600Y0082500D02*
X0199100Y0082500D01*
X0199100Y0068750D01*
X0197850Y0067500D01*
X0191600Y0067500D01*
X0191600Y0082500D01*
D14*
X0164050Y0010000D02*
X0164050Y0010890D01*
X0164050Y0012310D02*
X0164050Y0014010D01*
X0163480Y0014570D01*
X0161220Y0014570D01*
X0160650Y0014010D01*
X0160650Y0012310D01*
X0164050Y0012310D01*
X0160650Y0010000D02*
X0160650Y0010890D01*
X0155930Y0010990D02*
X0155360Y0010990D01*
X0153090Y0013260D01*
X0152520Y0013260D01*
X0152520Y0010990D01*
X0168770Y0013690D02*
X0172180Y0013690D01*
X0172180Y0015960D01*
X0172180Y0017370D02*
X0172180Y0019640D01*
X0172180Y0021060D02*
X0172180Y0022760D01*
X0171610Y0023320D01*
X0169340Y0023320D01*
X0168770Y0022760D01*
X0168770Y0021060D01*
X0172180Y0021060D01*
X0168770Y0019640D02*
X0168770Y0017370D01*
X0172180Y0017370D01*
X0170480Y0017370D02*
X0170480Y0018510D01*
X0176900Y0018620D02*
X0176900Y0020320D01*
X0177470Y0020890D01*
X0179730Y0020890D01*
X0180300Y0020320D01*
X0180300Y0018620D01*
X0176900Y0018620D01*
X0176900Y0017210D02*
X0176900Y0014940D01*
X0180300Y0014940D01*
X0180300Y0017210D01*
X0178600Y0016070D02*
X0178600Y0014940D01*
X0180300Y0013520D02*
X0180300Y0011260D01*
X0176900Y0011260D01*
X0185020Y0010320D02*
X0185020Y0010000D01*
X0185020Y0008620D02*
X0188430Y0010000D02*
X0188430Y0010320D01*
X0187860Y0010890D01*
X0185590Y0010890D01*
X0185020Y0010320D01*
X0186160Y0012310D02*
X0185020Y0013440D01*
X0188430Y0013440D01*
X0188430Y0012310D02*
X0188430Y0014570D01*
X0188430Y0015990D02*
X0188430Y0018260D01*
X0188430Y0017120D02*
X0185020Y0017120D01*
X0186160Y0015990D01*
X0164050Y0016560D02*
X0163480Y0015990D01*
X0162920Y0015990D01*
X0162350Y0016560D01*
X0162350Y0017690D01*
X0162920Y0018260D01*
X0163480Y0018260D01*
X0164050Y0017690D01*
X0164050Y0016560D01*
X0162350Y0016560D02*
X0161780Y0015990D01*
X0161220Y0015990D01*
X0160650Y0016560D01*
X0160650Y0017690D01*
X0161220Y0018260D01*
X0161780Y0018260D01*
X0162350Y0017690D01*
X0176900Y0023440D02*
X0178030Y0022310D01*
X0176900Y0023440D02*
X0180300Y0023440D01*
X0180300Y0022310D02*
X0180300Y0024570D01*
X0179730Y0025990D02*
X0177470Y0028260D01*
X0179730Y0028260D01*
X0180300Y0027690D01*
X0180300Y0026560D01*
X0179730Y0025990D01*
X0177470Y0025990D01*
X0176900Y0026560D01*
X0176900Y0027690D01*
X0177470Y0028260D01*
X0172180Y0026440D02*
X0171610Y0027010D01*
X0169340Y0027010D01*
X0168770Y0026440D01*
X0168770Y0025310D01*
X0169340Y0024740D01*
X0169910Y0024740D01*
X0170480Y0025310D01*
X0170480Y0027010D01*
X0172180Y0026440D02*
X0172180Y0025310D01*
X0171610Y0024740D01*
X0172860Y0031300D02*
X0175130Y0031300D01*
X0176540Y0031300D02*
X0178810Y0031300D01*
X0180230Y0031300D02*
X0181930Y0031300D01*
X0182500Y0031860D01*
X0182500Y0034130D01*
X0181930Y0034700D01*
X0180230Y0034700D01*
X0180230Y0031300D01*
X0177680Y0033000D02*
X0176540Y0033000D01*
X0176540Y0034700D02*
X0176540Y0031300D01*
X0172860Y0031300D02*
X0172860Y0034700D01*
X0176540Y0034700D02*
X0178810Y0034700D01*
X0183910Y0033570D02*
X0185040Y0034700D01*
X0185040Y0031300D01*
X0183910Y0031300D02*
X0186180Y0031300D01*
X0187590Y0031860D02*
X0188160Y0031300D01*
X0189290Y0031300D01*
X0189860Y0031860D01*
X0189860Y0033000D01*
X0189290Y0033570D01*
X0188730Y0033570D01*
X0187590Y0033000D01*
X0187590Y0034700D01*
X0189860Y0034700D01*
X0189920Y0040050D02*
X0189920Y0043450D01*
X0188220Y0041750D01*
X0190490Y0041750D01*
X0186800Y0040050D02*
X0184540Y0040050D01*
X0185670Y0040050D02*
X0185670Y0043450D01*
X0184540Y0042320D01*
X0183120Y0042880D02*
X0182550Y0043450D01*
X0180850Y0043450D01*
X0180850Y0040050D01*
X0182550Y0040050D01*
X0183120Y0040610D01*
X0183120Y0042880D01*
X0179440Y0043450D02*
X0177170Y0043450D01*
X0177170Y0040050D01*
X0179440Y0040050D01*
X0178300Y0041750D02*
X0177170Y0041750D01*
X0175750Y0040050D02*
X0173490Y0040050D01*
X0173490Y0043450D01*
X0173490Y0048800D02*
X0175750Y0048800D01*
X0177170Y0048800D02*
X0179440Y0048800D01*
X0180850Y0048800D02*
X0182550Y0048800D01*
X0183120Y0049360D01*
X0183120Y0051630D01*
X0182550Y0052200D01*
X0180850Y0052200D01*
X0180850Y0048800D01*
X0178300Y0050500D02*
X0177170Y0050500D01*
X0177170Y0052200D02*
X0177170Y0048800D01*
X0173490Y0048800D02*
X0173490Y0052200D01*
X0177170Y0052200D02*
X0179440Y0052200D01*
X0184540Y0051070D02*
X0185670Y0052200D01*
X0185670Y0048800D01*
X0184540Y0048800D02*
X0186800Y0048800D01*
X0188220Y0049360D02*
X0188790Y0048800D01*
X0189920Y0048800D01*
X0190490Y0049360D01*
X0190490Y0049930D01*
X0189920Y0050500D01*
X0189350Y0050500D01*
X0189920Y0050500D02*
X0190490Y0051070D01*
X0190490Y0051630D01*
X0189920Y0052200D01*
X0188790Y0052200D01*
X0188220Y0051630D01*
X0149240Y0050500D02*
X0146970Y0050500D01*
X0148670Y0052200D01*
X0148670Y0048800D01*
X0145550Y0049360D02*
X0145550Y0051630D01*
X0144990Y0052200D01*
X0144730Y0052200D01*
X0143290Y0052200D02*
X0144730Y0048800D02*
X0144990Y0048800D01*
X0145550Y0049360D01*
X0144730Y0040050D02*
X0144990Y0040050D01*
X0145550Y0040610D01*
X0145550Y0042880D01*
X0144990Y0043450D01*
X0144730Y0043450D01*
X0143290Y0043450D02*
X0146970Y0040610D02*
X0147540Y0040050D01*
X0148670Y0040050D01*
X0149240Y0040610D01*
X0149240Y0041750D01*
X0148670Y0042320D01*
X0148100Y0042320D01*
X0146970Y0041750D01*
X0146970Y0043450D01*
X0149240Y0043450D01*
X0144730Y0031300D02*
X0144990Y0031300D01*
X0145550Y0031860D01*
X0145550Y0034130D01*
X0144990Y0034700D01*
X0144730Y0034700D01*
X0143290Y0034700D02*
X0146970Y0033000D02*
X0148670Y0033000D01*
X0149240Y0032430D01*
X0149240Y0031860D01*
X0148670Y0031300D01*
X0147540Y0031300D01*
X0146970Y0031860D01*
X0146970Y0033000D01*
X0148100Y0034130D01*
X0149240Y0034700D01*
X0199400Y0024950D02*
X0199400Y0021550D01*
X0201670Y0021550D01*
X0203080Y0021550D02*
X0203740Y0021550D01*
X0205350Y0021550D02*
X0203740Y0023250D02*
X0203080Y0023250D01*
X0203080Y0024950D02*
X0203080Y0021550D01*
X0203740Y0024950D02*
X0203080Y0024950D01*
X0184540Y0062550D02*
X0186800Y0062550D01*
X0185670Y0062550D02*
X0185670Y0065950D01*
X0184540Y0064820D01*
X0183120Y0065380D02*
X0183120Y0063110D01*
X0182550Y0062550D01*
X0180850Y0062550D01*
X0180850Y0065950D01*
X0182550Y0065950D01*
X0183120Y0065380D01*
X0179440Y0065950D02*
X0177170Y0065950D01*
X0177170Y0062550D01*
X0179440Y0062550D01*
X0178300Y0064250D02*
X0177170Y0064250D01*
X0175750Y0062550D02*
X0173490Y0062550D01*
X0173490Y0065950D01*
X0188220Y0065380D02*
X0188220Y0064820D01*
X0188790Y0064250D01*
X0189920Y0064250D01*
X0190490Y0063680D01*
X0190490Y0063110D01*
X0189920Y0062550D01*
X0188790Y0062550D01*
X0188220Y0063110D01*
X0188220Y0063680D01*
X0188790Y0064250D01*
X0189920Y0064250D02*
X0190490Y0064820D01*
X0190490Y0065380D01*
X0189920Y0065950D01*
X0188790Y0065950D01*
X0188220Y0065380D01*
X0188220Y0071300D02*
X0188220Y0071860D01*
X0190490Y0074130D01*
X0190490Y0074700D01*
X0188220Y0074700D01*
X0185670Y0074700D02*
X0184540Y0073570D01*
X0183120Y0074130D02*
X0182550Y0074700D01*
X0180850Y0074700D01*
X0180850Y0071300D01*
X0182550Y0071300D01*
X0183120Y0071860D01*
X0183120Y0074130D01*
X0185670Y0074700D02*
X0185670Y0071300D01*
X0184540Y0071300D02*
X0186800Y0071300D01*
X0179440Y0071300D02*
X0177170Y0071300D01*
X0177170Y0074700D01*
X0179440Y0074700D01*
X0173490Y0074700D02*
X0173490Y0071300D01*
X0175750Y0071300D01*
X0177170Y0073000D02*
X0178300Y0073000D01*
X0148610Y0073570D02*
X0146340Y0071300D01*
X0148610Y0071300D01*
X0147420Y0068450D02*
X0147990Y0067880D01*
X0147990Y0067320D01*
X0147420Y0066750D01*
X0147990Y0066180D01*
X0147990Y0065610D01*
X0147420Y0065050D01*
X0146290Y0065050D01*
X0145720Y0065610D01*
X0145720Y0067880D02*
X0146290Y0068450D01*
X0147420Y0068450D01*
X0147420Y0066750D02*
X0146850Y0066750D01*
X0144730Y0071664D02*
X0144930Y0071860D01*
X0144930Y0074130D01*
X0144730Y0074330D01*
X0144360Y0074700D02*
X0146340Y0074130D02*
X0146910Y0074700D01*
X0148040Y0074700D01*
X0148610Y0074130D01*
X0148610Y0073570D01*
X0148610Y0080050D02*
X0146340Y0080050D01*
X0147480Y0080050D02*
X0147480Y0083450D01*
X0146340Y0082320D01*
X0144930Y0082880D02*
X0144930Y0080610D01*
X0144730Y0080414D01*
X0144360Y0080050D02*
X0144730Y0083080D02*
X0144930Y0082880D01*
X0173490Y0084700D02*
X0173490Y0081300D01*
X0175750Y0081300D01*
X0177170Y0081300D02*
X0179440Y0081300D01*
X0180850Y0081300D02*
X0182550Y0081300D01*
X0183120Y0081860D01*
X0183120Y0084130D01*
X0182550Y0084700D01*
X0180850Y0084700D01*
X0180850Y0081300D01*
X0178300Y0083000D02*
X0177170Y0083000D01*
X0177170Y0084700D02*
X0177170Y0081300D01*
X0184540Y0081300D02*
X0186800Y0081300D01*
X0185670Y0081300D02*
X0185670Y0084700D01*
X0184540Y0083570D01*
X0188220Y0083000D02*
X0188220Y0081860D01*
X0188790Y0081300D01*
X0189920Y0081300D01*
X0190490Y0081860D01*
X0190490Y0082430D01*
X0189920Y0083000D01*
X0188220Y0083000D01*
X0189350Y0084130D01*
X0190490Y0084700D01*
X0179440Y0084700D02*
X0177170Y0084700D01*
D11*
X0169430Y0090370D02*
X0169430Y0091120D01*
X0170564Y0092250D01*
X0172440Y0094120D02*
X0164830Y0092250D02*
X0164830Y0090370D01*
X0164830Y0091870D02*
X0167080Y0091870D01*
X0167460Y0092250D01*
X0167830Y0092620D02*
X0161730Y0092250D02*
X0161730Y0090370D01*
X0185850Y0071130D02*
X0188850Y0071130D01*
X0187350Y0071130D02*
X0187350Y0066620D01*
X0190460Y0066620D02*
X0190460Y0071130D01*
X0192710Y0071130D01*
X0193460Y0070370D01*
X0193460Y0068870D01*
X0192710Y0068120D01*
X0190460Y0068120D01*
X0195060Y0068870D02*
X0195060Y0067370D01*
X0195810Y0066620D01*
X0197310Y0066620D01*
X0198060Y0067370D01*
X0198060Y0068120D01*
X0197310Y0068870D01*
X0195060Y0068870D01*
X0196560Y0070370D01*
X0198060Y0071130D01*
X0146880Y0058870D02*
X0144730Y0058870D01*
X0143870Y0058870D02*
X0145370Y0058870D02*
X0145370Y0063380D01*
X0144730Y0062736D01*
X0143870Y0061870D02*
X0167730Y0051750D02*
X0170730Y0051750D01*
X0169230Y0051750D02*
X0169230Y0047250D01*
X0172330Y0047250D02*
X0172330Y0051750D01*
X0174580Y0051750D01*
X0175330Y0051000D01*
X0175330Y0049500D01*
X0174580Y0048750D01*
X0172330Y0048750D01*
X0176930Y0048000D02*
X0177690Y0047250D01*
X0179190Y0047250D01*
X0179940Y0048000D01*
X0179940Y0048750D01*
X0179190Y0049500D01*
X0178440Y0049500D01*
X0179190Y0049500D02*
X0179940Y0050250D01*
X0179940Y0051000D01*
X0179190Y0051750D01*
X0177690Y0051750D01*
X0176930Y0051000D01*
X0193980Y0036750D02*
X0196980Y0036750D01*
X0195480Y0036750D02*
X0195480Y0032250D01*
X0198580Y0032250D02*
X0198580Y0036750D01*
X0200830Y0036750D01*
X0201580Y0036000D01*
X0201580Y0034500D01*
X0200830Y0033750D01*
X0198580Y0033750D01*
X0203180Y0034500D02*
X0203740Y0034778D01*
X0204690Y0035250D02*
X0203740Y0032447D02*
X0203180Y0033000D01*
X0203180Y0034500D02*
X0203180Y0036750D01*
X0203740Y0036750D01*
X0206190Y0036750D02*
X0147500Y0026370D02*
X0147500Y0025620D01*
X0144730Y0022850D01*
X0144500Y0022620D02*
X0144730Y0022620D02*
X0147500Y0022620D01*
X0144730Y0026603D02*
X0145250Y0027130D01*
X0146750Y0027130D01*
X0147500Y0026370D01*
X0194600Y0013630D02*
X0197600Y0013630D01*
X0196100Y0013630D02*
X0196100Y0010000D01*
X0196100Y0009120D02*
X0199210Y0010000D02*
X0199210Y0013630D01*
X0201460Y0013630D01*
X0202210Y0012870D01*
X0202210Y0011370D01*
X0201460Y0010620D01*
X0199210Y0010620D01*
D18*
X0144330Y0010400D02*
X0144330Y0092650D01*
X0204140Y0092650D01*
X0204140Y0010400D01*
X0144330Y0010400D01*
X0211240Y0010000D02*
G75*
%LPD*%
D15*
X0211240Y0010000D02*
X0211240Y0089750D01*
X0270250Y0089750D01*
X0270250Y0072500D01*
X0228740Y0072500D01*
X0228740Y0058750D01*
X0253740Y0058750D01*
X0253740Y0041250D01*
X0228740Y0041250D01*
X0228740Y0027500D01*
X0270610Y0027500D01*
X0270610Y0010000D01*
X0211240Y0010000D01*
D13*
X0214360Y0015000D02*
X0213110Y0016250D01*
X0213110Y0022500D01*
X0228110Y0022500D01*
X0228110Y0015000D01*
X0214360Y0015000D01*
X0221860Y0016250D02*
X0223110Y0015000D01*
X0236860Y0015000D01*
X0236860Y0022500D01*
X0221860Y0022500D01*
X0221860Y0016250D01*
X0221240Y0018120D02*
X0213740Y0018120D01*
X0213740Y0031870D01*
X0213740Y0045620D01*
X0214990Y0046870D01*
X0221240Y0046870D01*
X0221240Y0031870D01*
X0213740Y0031870D01*
X0214990Y0033120D01*
X0221240Y0033120D01*
X0221240Y0018120D01*
X0235610Y0016250D02*
X0236860Y0015000D01*
X0250610Y0015000D01*
X0250610Y0022500D01*
X0235610Y0022500D01*
X0235610Y0016250D01*
X0244360Y0016250D02*
X0245610Y0015000D01*
X0259360Y0015000D01*
X0259360Y0022500D01*
X0244360Y0022500D01*
X0244360Y0016250D01*
X0253110Y0016250D02*
X0254360Y0015000D01*
X0268110Y0015000D01*
X0268110Y0022500D01*
X0253110Y0022500D01*
X0253110Y0016250D01*
X0221240Y0041250D02*
X0213740Y0041250D01*
X0213740Y0055000D01*
X0214990Y0056250D01*
X0221240Y0056250D01*
X0221240Y0041250D01*
X0219990Y0046250D02*
X0219990Y0053750D01*
X0233740Y0053750D01*
X0234990Y0052500D01*
X0234990Y0046250D01*
X0219990Y0046250D01*
X0228740Y0046250D02*
X0228740Y0053750D01*
X0242490Y0053750D01*
X0243740Y0052500D01*
X0243740Y0046250D01*
X0228740Y0046250D01*
X0237490Y0046250D02*
X0237490Y0053750D01*
X0251240Y0053750D01*
X0252490Y0052500D01*
X0252490Y0046250D01*
X0237490Y0046250D01*
X0221240Y0050000D02*
X0213740Y0050000D01*
X0213740Y0063750D01*
X0213740Y0077500D01*
X0214990Y0078750D01*
X0221240Y0078750D01*
X0221240Y0063750D01*
X0213740Y0063750D01*
X0214990Y0065000D01*
X0221240Y0065000D01*
X0221240Y0050000D01*
X0221240Y0072500D02*
X0213740Y0072500D01*
X0213740Y0086250D01*
X0214990Y0087500D01*
X0221240Y0087500D01*
X0221240Y0072500D01*
X0218110Y0079370D02*
X0218110Y0086870D01*
X0231860Y0086870D01*
X0233110Y0085620D01*
X0233110Y0079370D01*
X0218110Y0079370D01*
X0233740Y0079370D02*
X0233740Y0086870D01*
X0247490Y0086870D01*
X0248740Y0085620D01*
X0248740Y0079370D01*
X0233740Y0079370D01*
X0243740Y0079370D02*
X0243740Y0086870D01*
X0257490Y0086870D01*
X0258740Y0085620D01*
X0258740Y0079370D01*
X0243740Y0079370D01*
X0253740Y0079370D02*
X0253740Y0086870D01*
X0267490Y0086870D01*
X0268740Y0085620D01*
X0268740Y0079370D01*
X0253740Y0079370D01*
D14*
X0223320Y0010000D02*
X0223120Y0010200D01*
X0220850Y0010200D01*
X0220650Y0010000D01*
X0220280Y0009630D02*
X0232070Y0010000D02*
X0231870Y0010200D01*
X0229600Y0010200D01*
X0229400Y0010000D01*
X0229030Y0009630D02*
X0244570Y0010000D02*
X0244370Y0010200D01*
X0242100Y0010200D01*
X0241900Y0010000D01*
X0241530Y0009630D02*
X0250650Y0010000D02*
X0250850Y0010200D01*
X0253120Y0010200D01*
X0253320Y0010000D01*
X0253690Y0009630D02*
X0260650Y0010000D02*
X0260850Y0010200D01*
X0263120Y0010200D01*
X0263320Y0010000D01*
X0263690Y0009630D02*
X0263690Y0011610D02*
X0263690Y0013880D01*
X0263690Y0012750D02*
X0260280Y0012750D01*
X0261420Y0011610D01*
X0253690Y0011610D02*
X0253690Y0013880D01*
X0253690Y0011610D02*
X0251420Y0013880D01*
X0250850Y0013880D01*
X0250280Y0013310D01*
X0250280Y0012180D01*
X0250850Y0011610D01*
X0244940Y0012180D02*
X0244940Y0013310D01*
X0244370Y0013880D01*
X0243800Y0013880D01*
X0243240Y0013310D01*
X0243240Y0012750D01*
X0243240Y0013310D02*
X0242670Y0013880D01*
X0242100Y0013880D01*
X0241530Y0013310D01*
X0241530Y0012180D01*
X0242100Y0011610D01*
X0244370Y0011610D02*
X0244940Y0012180D01*
X0232440Y0013310D02*
X0229030Y0013310D01*
X0230740Y0011610D01*
X0230740Y0013880D01*
X0223690Y0013310D02*
X0223690Y0012180D01*
X0223120Y0011610D01*
X0221990Y0011610D02*
X0221420Y0012750D01*
X0221420Y0013310D01*
X0221990Y0013880D01*
X0223120Y0013880D01*
X0223690Y0013310D01*
X0221990Y0011610D02*
X0220280Y0011610D01*
X0220280Y0013880D01*
X0212190Y0017800D02*
X0211240Y0017800D01*
X0208780Y0017800D02*
X0212190Y0017800D02*
X0212190Y0020070D01*
X0212190Y0021480D02*
X0211240Y0021480D01*
X0208780Y0021480D02*
X0211240Y0027430D02*
X0211620Y0027430D01*
X0212190Y0026860D01*
X0212190Y0025160D01*
X0211240Y0025160D01*
X0208780Y0025160D02*
X0212190Y0023750D02*
X0212190Y0021480D01*
X0211240Y0031110D02*
X0211620Y0031110D01*
X0212190Y0030550D01*
X0212190Y0029410D01*
X0211620Y0028850D01*
X0211240Y0028850D01*
X0210490Y0028850D02*
X0211240Y0039515D02*
X0212350Y0040630D01*
X0212350Y0041200D01*
X0211240Y0041200D01*
X0210090Y0041200D02*
X0211240Y0052410D02*
X0211280Y0052450D01*
X0212410Y0052450D01*
X0212980Y0051880D01*
X0212980Y0051320D01*
X0212410Y0050750D01*
X0211280Y0050750D01*
X0211240Y0050790D01*
X0210710Y0051320D02*
X0211280Y0050750D02*
X0211240Y0050710D01*
X0210710Y0050180D02*
X0211240Y0049089D02*
X0211280Y0049050D01*
X0212410Y0049050D01*
X0212980Y0049610D01*
X0212980Y0050180D01*
X0212410Y0050750D01*
X0223780Y0054670D02*
X0227190Y0054670D01*
X0227190Y0056940D01*
X0227190Y0058350D02*
X0223780Y0058350D01*
X0223780Y0060620D01*
X0223780Y0062040D02*
X0223780Y0063740D01*
X0224350Y0064310D01*
X0226620Y0064310D01*
X0227190Y0063740D01*
X0227190Y0062040D01*
X0223780Y0062040D01*
X0227190Y0060620D02*
X0227190Y0058350D01*
X0225490Y0058350D02*
X0225490Y0059490D01*
X0232530Y0060620D02*
X0232530Y0058350D01*
X0235940Y0058350D01*
X0235940Y0060620D01*
X0235940Y0062040D02*
X0235940Y0063740D01*
X0235370Y0064310D01*
X0233100Y0064310D01*
X0232530Y0063740D01*
X0232530Y0062040D01*
X0235940Y0062040D01*
X0241280Y0062040D02*
X0241280Y0063740D01*
X0241850Y0064310D01*
X0244120Y0064310D01*
X0244690Y0063740D01*
X0244690Y0062040D01*
X0241280Y0062040D01*
X0241280Y0060620D02*
X0241280Y0058350D01*
X0244690Y0058350D01*
X0244690Y0060620D01*
X0242990Y0059490D02*
X0242990Y0058350D01*
X0244690Y0056940D02*
X0244690Y0054670D01*
X0241280Y0054670D01*
X0235940Y0054670D02*
X0235940Y0056940D01*
X0234240Y0058350D02*
X0234240Y0059490D01*
X0232530Y0054670D02*
X0235940Y0054670D01*
X0212980Y0057110D02*
X0212980Y0059380D01*
X0212410Y0059950D01*
X0211280Y0059950D01*
X0211240Y0059910D01*
X0210710Y0059380D02*
X0211240Y0058290D02*
X0211280Y0058250D01*
X0212980Y0058250D01*
X0212980Y0057110D02*
X0212410Y0056550D01*
X0211280Y0056550D01*
X0211240Y0056589D01*
X0210710Y0057110D02*
X0223780Y0066860D02*
X0227190Y0066860D01*
X0227190Y0067990D02*
X0227190Y0065720D01*
X0224920Y0065720D02*
X0223780Y0066860D01*
X0225490Y0069400D02*
X0225490Y0071110D01*
X0226050Y0071670D01*
X0226620Y0071670D01*
X0227190Y0071110D01*
X0227190Y0069970D01*
X0226620Y0069400D01*
X0225490Y0069400D01*
X0224350Y0070540D01*
X0223780Y0071670D01*
X0214160Y0072110D02*
X0213600Y0071550D01*
X0212460Y0071550D01*
X0211890Y0072110D01*
X0214160Y0074380D01*
X0214160Y0072110D01*
X0211890Y0072110D02*
X0211890Y0074380D01*
X0212460Y0074950D01*
X0213600Y0074950D01*
X0214160Y0074380D01*
X0211890Y0080300D02*
X0214160Y0080300D01*
X0213030Y0080300D02*
X0213030Y0083700D01*
X0211890Y0082570D01*
X0221910Y0087800D02*
X0225310Y0087800D01*
X0225310Y0089750D01*
X0225310Y0090070D02*
X0250940Y0089750D02*
X0250940Y0087800D01*
X0247530Y0087800D01*
X0241560Y0087170D02*
X0241560Y0089440D01*
X0260310Y0089750D02*
X0260310Y0088420D01*
X0256910Y0088420D01*
X0241560Y0087170D02*
X0238160Y0087170D01*
X0232530Y0071670D02*
X0233100Y0071670D01*
X0235370Y0069400D01*
X0235940Y0069400D01*
X0235940Y0067990D02*
X0235940Y0065720D01*
X0235940Y0066860D02*
X0232530Y0066860D01*
X0233670Y0065720D01*
X0241280Y0066860D02*
X0244690Y0066860D01*
X0244690Y0067990D02*
X0244690Y0065720D01*
X0242420Y0065720D02*
X0241280Y0066860D01*
X0241850Y0069400D02*
X0242420Y0069400D01*
X0242990Y0069970D01*
X0242990Y0071110D01*
X0243550Y0071670D01*
X0244120Y0071670D01*
X0244690Y0071110D01*
X0244690Y0069970D01*
X0244120Y0069400D01*
X0243550Y0069400D01*
X0242990Y0069970D01*
X0242990Y0071110D02*
X0242420Y0071670D01*
X0241850Y0071670D01*
X0241280Y0071110D01*
X0241280Y0069970D01*
X0241850Y0069400D01*
X0232530Y0069400D02*
X0232530Y0071670D01*
D11*
X0216450Y0067870D02*
X0216450Y0067120D01*
X0215700Y0066370D01*
X0216450Y0065620D01*
X0216450Y0064870D01*
X0215700Y0064120D01*
X0214200Y0064120D01*
X0213440Y0064870D01*
X0214950Y0066370D02*
X0215700Y0066370D01*
X0216450Y0067870D02*
X0215700Y0068630D01*
X0214200Y0068630D01*
X0213440Y0067870D01*
X0211840Y0067870D02*
X0211840Y0066370D01*
X0211240Y0065770D01*
X0211090Y0065620D02*
X0211240Y0068478D02*
X0211840Y0067870D01*
X0254240Y0055500D02*
X0257240Y0055500D01*
X0255740Y0055500D02*
X0255740Y0051000D01*
X0258840Y0051000D02*
X0258840Y0055500D01*
X0261090Y0055500D01*
X0261840Y0054750D01*
X0261840Y0053250D01*
X0261090Y0052500D01*
X0258840Y0052500D01*
X0263440Y0053250D02*
X0263440Y0051750D01*
X0264200Y0051000D01*
X0265700Y0051000D01*
X0266450Y0051750D01*
X0266450Y0052500D01*
X0265700Y0053250D01*
X0263440Y0053250D01*
X0264950Y0054750D01*
X0266450Y0055500D01*
X0249950Y0033000D02*
X0249950Y0028500D01*
X0251450Y0028500D02*
X0248440Y0028500D01*
X0246840Y0030750D02*
X0246090Y0030000D01*
X0243840Y0030000D01*
X0243840Y0028500D02*
X0243840Y0033000D01*
X0246090Y0033000D01*
X0246840Y0032250D01*
X0246840Y0030750D01*
X0248440Y0031500D02*
X0249950Y0033000D01*
X0242240Y0033000D02*
X0239240Y0033000D01*
X0240740Y0033000D02*
X0240740Y0028500D01*
X0216450Y0027250D02*
X0213440Y0027250D01*
X0216450Y0030250D01*
X0216450Y0031000D01*
X0215700Y0031750D01*
X0214200Y0031750D01*
X0213440Y0031000D01*
X0211840Y0031000D02*
X0211840Y0029500D01*
X0211240Y0028900D01*
X0211090Y0028750D02*
X0211240Y0031600D02*
X0211840Y0031000D01*
X0270490Y0025500D02*
X0270610Y0025500D01*
X0273490Y0025500D02*
D18*
X0210840Y0010400D02*
X0210840Y0090150D01*
X0271010Y0090150D01*
X0271010Y0010400D01*
X0210840Y0010400D01*
X0278110Y0010000D02*
G75*
%LPD*%
D15*
X0278110Y0010000D02*
X0278110Y0092250D01*
X0340870Y0092250D01*
X0340870Y0010000D01*
X0278110Y0010000D01*
D13*
X0283110Y0011250D02*
X0283110Y0025000D01*
X0284360Y0026250D01*
X0290610Y0026250D01*
X0290610Y0011250D01*
X0283110Y0011250D01*
X0283110Y0020000D02*
X0283110Y0033750D01*
X0284360Y0035000D01*
X0290610Y0035000D01*
X0290610Y0020000D01*
X0283110Y0020000D01*
X0309360Y0025000D02*
X0309360Y0032500D01*
X0323110Y0032500D01*
X0324360Y0031250D01*
X0324360Y0025000D01*
X0309360Y0025000D01*
X0316860Y0026250D02*
X0330610Y0026250D01*
X0331860Y0025000D01*
X0331860Y0018750D01*
X0316860Y0018750D01*
X0316860Y0026250D01*
X0315610Y0031250D02*
X0300610Y0031250D01*
X0300610Y0038750D01*
X0314360Y0038750D01*
X0315610Y0037500D01*
X0315610Y0031250D01*
X0309360Y0036870D02*
X0294360Y0036870D01*
X0294360Y0044370D01*
X0308110Y0044370D01*
X0309360Y0043120D01*
X0309360Y0036870D01*
X0290610Y0042500D02*
X0283110Y0042500D01*
X0283110Y0056250D01*
X0284360Y0057500D01*
X0290610Y0057500D01*
X0290610Y0042500D01*
X0290610Y0043750D02*
X0284360Y0043750D01*
X0283110Y0042500D01*
X0283110Y0028750D01*
X0290610Y0028750D01*
X0290610Y0043750D01*
X0299360Y0044370D02*
X0299360Y0051870D01*
X0313110Y0051870D01*
X0314360Y0050620D01*
X0314360Y0044370D01*
X0299360Y0044370D01*
X0313110Y0045000D02*
X0313110Y0052500D01*
X0326860Y0052500D01*
X0328110Y0051250D01*
X0328110Y0045000D01*
X0313110Y0045000D01*
X0319360Y0051250D02*
X0319360Y0058750D01*
X0333110Y0058750D01*
X0334360Y0057500D01*
X0334360Y0051250D01*
X0319360Y0051250D01*
X0290610Y0051250D02*
X0283110Y0051250D01*
X0283110Y0065000D01*
X0284360Y0066250D01*
X0290610Y0066250D01*
X0290610Y0051250D01*
X0321860Y0058750D02*
X0321860Y0066250D01*
X0335610Y0066250D01*
X0336860Y0065000D01*
X0336860Y0058750D01*
X0321860Y0058750D01*
X0321860Y0066250D02*
X0321860Y0073750D01*
X0335610Y0073750D01*
X0336860Y0072500D01*
X0336860Y0066250D01*
X0321860Y0066250D01*
X0319360Y0073750D02*
X0319360Y0081250D01*
X0333110Y0081250D01*
X0334360Y0080000D01*
X0334360Y0073750D01*
X0319360Y0073750D01*
X0290610Y0073750D02*
X0283110Y0073750D01*
X0283110Y0087500D01*
X0284360Y0088750D01*
X0290610Y0088750D01*
X0290610Y0073750D01*
X0290610Y0075000D02*
X0284360Y0075000D01*
X0283110Y0073750D01*
X0283110Y0060000D01*
X0290610Y0060000D01*
X0290610Y0075000D01*
X0288110Y0081250D02*
X0288110Y0088750D01*
X0301860Y0088750D01*
X0303110Y0087500D01*
X0303110Y0081250D01*
X0288110Y0081250D01*
X0298110Y0081250D02*
X0298110Y0088750D01*
X0311860Y0088750D01*
X0325610Y0088750D01*
X0326860Y0087500D01*
X0326860Y0081250D01*
X0311860Y0081250D01*
X0311860Y0088750D01*
X0313110Y0087500D01*
X0313110Y0081250D01*
X0298110Y0081250D01*
X0323110Y0020000D02*
X0336860Y0020000D01*
X0338110Y0018750D01*
X0338110Y0012500D01*
X0323110Y0012500D01*
X0323110Y0020000D01*
D14*
X0315120Y0019360D02*
X0314550Y0018800D01*
X0313420Y0018800D01*
X0312850Y0019360D01*
X0315120Y0021630D01*
X0315120Y0019360D01*
X0312850Y0019360D02*
X0312850Y0021630D01*
X0313420Y0022200D01*
X0314550Y0022200D01*
X0315120Y0021630D01*
X0311430Y0021630D02*
X0310870Y0022200D01*
X0309730Y0022200D01*
X0309170Y0021630D01*
X0307750Y0021630D02*
X0307180Y0022200D01*
X0305480Y0022200D01*
X0305480Y0018800D01*
X0307180Y0018800D01*
X0307750Y0019360D01*
X0307750Y0021630D01*
X0309170Y0018800D02*
X0311430Y0021070D01*
X0311430Y0021630D01*
X0304310Y0020560D02*
X0304310Y0022830D01*
X0304070Y0022200D02*
X0301800Y0022200D01*
X0301800Y0018800D01*
X0304070Y0018800D01*
X0304310Y0019150D02*
X0304310Y0016880D01*
X0300900Y0016880D01*
X0300380Y0018800D02*
X0298120Y0018800D01*
X0298120Y0022200D01*
X0300900Y0022830D02*
X0300900Y0020560D01*
X0304310Y0020560D01*
X0302930Y0020500D02*
X0301800Y0020500D01*
X0302610Y0020560D02*
X0302610Y0021700D01*
X0304310Y0024250D02*
X0304310Y0025950D01*
X0303740Y0026520D01*
X0301470Y0026520D01*
X0300900Y0025950D01*
X0300900Y0024250D01*
X0304310Y0024250D01*
X0303930Y0025050D02*
X0301670Y0025050D01*
X0302800Y0025050D02*
X0302800Y0028450D01*
X0301670Y0027320D01*
X0302040Y0027930D02*
X0300900Y0029060D01*
X0304310Y0029060D01*
X0304310Y0027930D02*
X0304310Y0030200D01*
X0304310Y0031610D02*
X0303740Y0031610D01*
X0301470Y0033880D01*
X0300900Y0033880D01*
X0300900Y0031610D01*
X0298870Y0031860D02*
X0298870Y0032430D01*
X0298300Y0033000D01*
X0297170Y0033000D01*
X0296600Y0033570D01*
X0296600Y0034130D01*
X0297170Y0034700D01*
X0298300Y0034700D01*
X0298870Y0034130D01*
X0298870Y0033570D01*
X0298300Y0033000D01*
X0297170Y0033000D02*
X0296600Y0032430D01*
X0296600Y0031860D01*
X0297170Y0031300D01*
X0298300Y0031300D01*
X0298870Y0031860D01*
X0295180Y0031300D02*
X0292920Y0031300D01*
X0294050Y0031300D02*
X0294050Y0034700D01*
X0292920Y0033570D01*
X0291500Y0034130D02*
X0291500Y0031860D01*
X0290930Y0031300D01*
X0289230Y0031300D01*
X0289230Y0034700D01*
X0290930Y0034700D01*
X0291500Y0034130D01*
X0287820Y0034700D02*
X0285550Y0034700D01*
X0285550Y0031300D01*
X0287820Y0031300D01*
X0286680Y0033000D02*
X0285550Y0033000D01*
X0284130Y0031300D02*
X0281870Y0031300D01*
X0281870Y0034700D01*
X0281370Y0034820D02*
X0280800Y0034250D01*
X0281370Y0033680D01*
X0281370Y0033110D01*
X0280800Y0032550D01*
X0279670Y0032550D01*
X0279100Y0033110D01*
X0280230Y0034250D02*
X0280800Y0034250D01*
X0281370Y0034820D02*
X0281370Y0035380D01*
X0280800Y0035950D01*
X0279670Y0035950D01*
X0279100Y0035380D01*
X0279100Y0023800D02*
X0281370Y0026070D01*
X0281370Y0026630D01*
X0280800Y0027200D01*
X0279670Y0027200D01*
X0279100Y0026630D01*
X0279100Y0023800D02*
X0281370Y0023800D01*
X0290620Y0025050D02*
X0292880Y0025050D01*
X0294300Y0025050D02*
X0296570Y0025050D01*
X0297980Y0025050D02*
X0299680Y0025050D01*
X0300250Y0025610D01*
X0300250Y0027880D01*
X0299680Y0028450D01*
X0297980Y0028450D01*
X0297980Y0025050D01*
X0295430Y0026750D02*
X0294300Y0026750D01*
X0294300Y0028450D02*
X0294300Y0025050D01*
X0290620Y0025050D02*
X0290620Y0028450D01*
X0294300Y0028450D02*
X0296570Y0028450D01*
X0305350Y0027880D02*
X0305350Y0027320D01*
X0305920Y0026750D01*
X0307620Y0026750D01*
X0307620Y0027880D02*
X0307620Y0025610D01*
X0307050Y0025050D01*
X0305920Y0025050D01*
X0305350Y0025610D01*
X0305900Y0025630D02*
X0309310Y0025630D01*
X0309310Y0027900D01*
X0309310Y0029310D02*
X0305900Y0029310D01*
X0305900Y0031580D01*
X0305900Y0033000D02*
X0305900Y0034700D01*
X0306470Y0035270D01*
X0308740Y0035270D01*
X0309310Y0034700D01*
X0309310Y0033000D01*
X0305900Y0033000D01*
X0307610Y0030450D02*
X0307610Y0029310D01*
X0307050Y0028450D02*
X0305920Y0028450D01*
X0305350Y0027880D01*
X0307050Y0028450D02*
X0307620Y0027880D01*
X0309310Y0029310D02*
X0309310Y0031580D01*
X0309310Y0036680D02*
X0309310Y0038950D01*
X0309310Y0037810D02*
X0305900Y0037810D01*
X0307040Y0036680D01*
X0307610Y0040360D02*
X0307610Y0042060D01*
X0308170Y0042630D01*
X0308740Y0042630D01*
X0309310Y0042060D01*
X0309310Y0040930D01*
X0308740Y0040360D01*
X0307610Y0040360D01*
X0306470Y0041500D01*
X0305900Y0042630D01*
X0281370Y0048000D02*
X0279100Y0048000D01*
X0280800Y0049700D01*
X0280800Y0046300D01*
X0279100Y0058450D02*
X0279100Y0056750D01*
X0280230Y0057320D01*
X0280800Y0057320D01*
X0281370Y0056750D01*
X0281370Y0055610D01*
X0280800Y0055050D01*
X0279670Y0055050D01*
X0279100Y0055610D01*
X0279100Y0058450D02*
X0281370Y0058450D01*
X0280800Y0063800D02*
X0281370Y0064360D01*
X0281370Y0064930D01*
X0280800Y0065500D01*
X0279100Y0065500D01*
X0279100Y0064360D01*
X0279670Y0063800D01*
X0280800Y0063800D01*
X0279100Y0065500D02*
X0280230Y0066630D01*
X0281370Y0067200D01*
X0279100Y0080950D02*
X0281370Y0080950D01*
X0281370Y0080380D01*
X0279100Y0078110D01*
X0279100Y0077550D01*
X0291900Y0089670D02*
X0295310Y0089670D01*
X0295310Y0091940D01*
X0305310Y0091940D02*
X0305310Y0089670D01*
X0301900Y0089670D01*
X0315650Y0089670D02*
X0319060Y0089670D01*
X0319060Y0091940D01*
X0335280Y0084950D02*
X0335280Y0081550D01*
X0337550Y0081550D01*
X0338960Y0081550D02*
X0340870Y0081550D01*
X0341230Y0081550D02*
X0340100Y0083250D02*
X0338960Y0083250D01*
X0338960Y0084950D02*
X0338960Y0081550D01*
X0340870Y0084950D02*
X0338960Y0084950D01*
X0340870Y0061550D02*
X0339030Y0061550D01*
X0339030Y0064950D01*
X0340870Y0058700D02*
X0340210Y0058700D01*
X0340210Y0055300D01*
X0340870Y0055300D01*
X0342480Y0055300D02*
X0340870Y0057000D02*
X0340210Y0057000D01*
X0338800Y0055300D02*
X0336530Y0055300D01*
X0336530Y0058700D01*
X0335280Y0052450D02*
X0335280Y0049050D01*
X0337550Y0049050D01*
X0338960Y0049050D02*
X0340870Y0049050D01*
X0341230Y0049050D02*
X0340100Y0050750D02*
X0338960Y0050750D01*
X0338960Y0052450D02*
X0338960Y0049050D01*
X0340870Y0052450D02*
X0338960Y0052450D01*
X0278110Y0017580D02*
X0278980Y0018450D01*
X0278980Y0015050D01*
X0278110Y0015050D02*
X0280120Y0015050D01*
X0304370Y0015950D02*
X0304370Y0012550D01*
X0306630Y0012550D01*
X0308050Y0012550D02*
X0310320Y0012550D01*
X0311730Y0012550D02*
X0313430Y0012550D01*
X0314000Y0013110D01*
X0314000Y0015380D01*
X0313430Y0015950D01*
X0311730Y0015950D01*
X0311730Y0012550D01*
X0309180Y0014250D02*
X0308050Y0014250D01*
X0308050Y0015950D02*
X0308050Y0012550D01*
X0315420Y0012550D02*
X0317680Y0014820D01*
X0317680Y0015380D01*
X0317120Y0015950D01*
X0315980Y0015950D01*
X0315420Y0015380D01*
X0315420Y0012550D02*
X0317680Y0012550D01*
X0319100Y0012550D02*
X0321370Y0012550D01*
X0320230Y0012550D02*
X0320230Y0015950D01*
X0319100Y0014820D01*
X0310320Y0015950D02*
X0308050Y0015950D01*
X0309170Y0018800D02*
X0311430Y0018800D01*
D11*
X0315350Y0016180D02*
X0315350Y0019190D01*
X0315350Y0017690D02*
X0319860Y0017690D01*
X0319860Y0020790D02*
X0315350Y0020790D01*
X0315350Y0023040D01*
X0316100Y0023790D01*
X0317600Y0023790D01*
X0318360Y0023040D01*
X0318360Y0020790D01*
X0319110Y0025390D02*
X0319860Y0026140D01*
X0319860Y0027640D01*
X0319110Y0028400D01*
X0318360Y0028400D01*
X0317600Y0027640D01*
X0317600Y0025390D01*
X0319110Y0025390D01*
X0317600Y0025390D02*
X0316100Y0026890D01*
X0315350Y0028400D01*
X0329730Y0019650D02*
X0330480Y0019650D01*
X0333480Y0016640D01*
X0334230Y0016640D01*
X0331980Y0015040D02*
X0332730Y0014290D01*
X0332730Y0012040D01*
X0334230Y0012040D02*
X0329730Y0012040D01*
X0329730Y0014290D01*
X0330480Y0015040D01*
X0331980Y0015040D01*
X0329730Y0016640D02*
X0329730Y0019650D01*
X0329730Y0010440D02*
X0329730Y0010000D01*
X0329730Y0007430D02*
X0334860Y0046750D02*
X0337860Y0046750D01*
X0336360Y0046750D02*
X0336360Y0042250D01*
X0339460Y0042250D02*
X0339460Y0046750D01*
X0340870Y0046750D01*
X0341710Y0046750D02*
X0340870Y0043750D02*
X0339460Y0043750D01*
D18*
X0277710Y0010400D02*
X0277710Y0092650D01*
X0341270Y0092650D01*
X0341270Y0010400D01*
X0277710Y0010400D01*
X0010000Y0103500D02*
G75*
%LPD*%
D15*
X0010000Y0103500D02*
X0010000Y0200750D01*
X0099010Y0200750D01*
X0099010Y0103500D01*
X0010000Y0103500D01*
D13*
X0046250Y0106000D02*
X0046250Y0119750D01*
X0047500Y0121000D01*
X0053750Y0121000D01*
X0053750Y0106000D01*
X0046250Y0106000D01*
X0046250Y0114750D02*
X0046250Y0128500D01*
X0047500Y0129750D01*
X0053750Y0129750D01*
X0053750Y0114750D01*
X0046250Y0114750D01*
X0046250Y0123500D02*
X0046250Y0137250D01*
X0046250Y0151000D01*
X0047500Y0152250D01*
X0053750Y0152250D01*
X0053750Y0137250D01*
X0046250Y0137250D01*
X0047500Y0138500D01*
X0053750Y0138500D01*
X0053750Y0123500D01*
X0046250Y0123500D01*
X0046250Y0146000D02*
X0046250Y0159750D01*
X0047500Y0161000D01*
X0053750Y0161000D01*
X0053750Y0146000D01*
X0046250Y0146000D01*
X0046250Y0154750D02*
X0046250Y0168500D01*
X0046250Y0182250D01*
X0047500Y0183500D01*
X0053750Y0183500D01*
X0053750Y0168500D01*
X0046250Y0168500D01*
X0047500Y0169750D01*
X0053750Y0169750D01*
X0053750Y0154750D01*
X0046250Y0154750D01*
X0043750Y0182250D02*
X0030000Y0182250D01*
X0028750Y0183500D01*
X0028750Y0189750D01*
X0043750Y0189750D01*
X0043750Y0182250D01*
X0042500Y0182250D02*
X0042500Y0189750D01*
X0056250Y0189750D01*
X0057500Y0188500D01*
X0057500Y0182250D01*
X0042500Y0182250D01*
X0031250Y0182250D02*
X0017500Y0182250D01*
X0016250Y0183500D01*
X0016250Y0189750D01*
X0031250Y0189750D01*
X0031250Y0182250D01*
X0056250Y0182250D02*
X0056250Y0189750D01*
X0070000Y0189750D01*
X0071250Y0188500D01*
X0071250Y0182250D01*
X0056250Y0182250D01*
X0068120Y0182250D02*
X0068120Y0189750D01*
X0081870Y0189750D01*
X0083120Y0188500D01*
X0083120Y0182250D01*
X0068120Y0182250D01*
D14*
X0053700Y0177440D02*
X0053700Y0176310D01*
X0053130Y0175740D01*
X0050860Y0178010D01*
X0053130Y0178010D01*
X0053700Y0177440D01*
X0053130Y0175740D02*
X0050860Y0175740D01*
X0050290Y0176310D01*
X0050290Y0177440D01*
X0050860Y0178010D01*
X0043260Y0175700D02*
X0043260Y0175130D01*
X0040990Y0172860D01*
X0040990Y0172300D01*
X0039570Y0172860D02*
X0039570Y0175130D01*
X0039010Y0175700D01*
X0037310Y0175700D01*
X0037310Y0172300D01*
X0039010Y0172300D01*
X0039570Y0172860D01*
X0035890Y0172300D02*
X0033620Y0172300D01*
X0033620Y0175700D01*
X0035890Y0175700D01*
X0034760Y0174000D02*
X0033620Y0174000D01*
X0032210Y0172300D02*
X0029940Y0172300D01*
X0029940Y0175700D01*
X0040990Y0175700D02*
X0043260Y0175700D01*
X0053700Y0174320D02*
X0053700Y0172060D01*
X0053700Y0173190D02*
X0050290Y0173190D01*
X0051430Y0172060D01*
X0050860Y0170640D02*
X0050290Y0170070D01*
X0050290Y0168370D01*
X0053700Y0168370D01*
X0053700Y0170070D01*
X0053130Y0170640D01*
X0050860Y0170640D01*
X0050290Y0166960D02*
X0050290Y0164690D01*
X0053700Y0164690D01*
X0053700Y0166960D01*
X0052000Y0165820D02*
X0052000Y0164690D01*
X0053700Y0163270D02*
X0053700Y0161010D01*
X0050290Y0161010D01*
X0043260Y0161950D02*
X0042120Y0161380D01*
X0040990Y0160250D01*
X0042690Y0160250D01*
X0043260Y0159680D01*
X0043260Y0159110D01*
X0042690Y0158550D01*
X0041560Y0158550D01*
X0040990Y0159110D01*
X0040990Y0160250D01*
X0039570Y0161380D02*
X0039570Y0159110D01*
X0039010Y0158550D01*
X0037310Y0158550D01*
X0037310Y0161950D01*
X0039010Y0161950D01*
X0039570Y0161380D01*
X0035890Y0161950D02*
X0033620Y0161950D01*
X0033620Y0158550D01*
X0035890Y0158550D01*
X0034760Y0160250D02*
X0033620Y0160250D01*
X0032210Y0158550D02*
X0029940Y0158550D01*
X0029940Y0161950D01*
X0029940Y0153200D02*
X0029940Y0149800D01*
X0032210Y0149800D01*
X0033620Y0149800D02*
X0035890Y0149800D01*
X0037310Y0149800D02*
X0039010Y0149800D01*
X0039570Y0150360D01*
X0039570Y0152630D01*
X0039010Y0153200D01*
X0037310Y0153200D01*
X0037310Y0149800D01*
X0034760Y0151500D02*
X0033620Y0151500D01*
X0033620Y0153200D02*
X0033620Y0149800D01*
X0033620Y0153200D02*
X0035890Y0153200D01*
X0040990Y0153200D02*
X0040990Y0151500D01*
X0042120Y0152070D01*
X0042690Y0152070D01*
X0043260Y0151500D01*
X0043260Y0150360D01*
X0042690Y0149800D01*
X0041560Y0149800D01*
X0040990Y0150360D01*
X0040990Y0153200D02*
X0043260Y0153200D01*
X0042690Y0144450D02*
X0040990Y0142750D01*
X0043260Y0142750D01*
X0042690Y0141050D02*
X0042690Y0144450D01*
X0039570Y0143880D02*
X0039010Y0144450D01*
X0037310Y0144450D01*
X0037310Y0141050D01*
X0039010Y0141050D01*
X0039570Y0141610D01*
X0039570Y0143880D01*
X0035890Y0144450D02*
X0033620Y0144450D01*
X0033620Y0141050D01*
X0035890Y0141050D01*
X0034760Y0142750D02*
X0033620Y0142750D01*
X0032210Y0141050D02*
X0029940Y0141050D01*
X0029940Y0144450D01*
X0029940Y0130700D02*
X0029940Y0127300D01*
X0032210Y0127300D01*
X0033620Y0127300D02*
X0035890Y0127300D01*
X0037310Y0127300D02*
X0039010Y0127300D01*
X0039570Y0127860D01*
X0039570Y0130130D01*
X0039010Y0130700D01*
X0037310Y0130700D01*
X0037310Y0127300D01*
X0034760Y0129000D02*
X0033620Y0129000D01*
X0033620Y0130700D02*
X0033620Y0127300D01*
X0033620Y0130700D02*
X0035890Y0130700D01*
X0040990Y0130130D02*
X0041560Y0130700D01*
X0042690Y0130700D01*
X0043260Y0130130D01*
X0043260Y0129570D01*
X0042690Y0129000D01*
X0043260Y0128430D01*
X0043260Y0127860D01*
X0042690Y0127300D01*
X0041560Y0127300D01*
X0040990Y0127860D01*
X0042120Y0129000D02*
X0042690Y0129000D01*
X0042690Y0121950D02*
X0041560Y0121950D01*
X0040990Y0121380D01*
X0039570Y0121380D02*
X0039570Y0119110D01*
X0039010Y0118550D01*
X0037310Y0118550D01*
X0037310Y0121950D01*
X0039010Y0121950D01*
X0039570Y0121380D01*
X0040990Y0118550D02*
X0043260Y0120820D01*
X0043260Y0121380D01*
X0042690Y0121950D01*
X0035890Y0121950D02*
X0033620Y0121950D01*
X0033620Y0118550D01*
X0035890Y0118550D01*
X0034760Y0120250D02*
X0033620Y0120250D01*
X0032210Y0118550D02*
X0029940Y0118550D01*
X0029940Y0121950D01*
X0040990Y0118550D02*
X0043260Y0118550D01*
X0042120Y0113200D02*
X0042120Y0109800D01*
X0040990Y0109800D02*
X0043260Y0109800D01*
X0040990Y0112070D02*
X0042120Y0113200D01*
X0039570Y0112630D02*
X0039010Y0113200D01*
X0037310Y0113200D01*
X0037310Y0109800D01*
X0039010Y0109800D01*
X0039570Y0110360D01*
X0039570Y0112630D01*
X0035890Y0113200D02*
X0033620Y0113200D01*
X0033620Y0109800D01*
X0035890Y0109800D01*
X0034760Y0111500D02*
X0033620Y0111500D01*
X0032210Y0109800D02*
X0029940Y0109800D01*
X0029940Y0113200D01*
X0032540Y0191920D02*
X0035950Y0191920D01*
X0035950Y0194190D01*
X0035950Y0195600D02*
X0032540Y0195600D01*
X0032540Y0197870D01*
X0032540Y0199290D02*
X0032540Y0200750D01*
X0032540Y0200990D02*
X0035950Y0200750D02*
X0035950Y0199290D01*
X0032540Y0199290D01*
X0035950Y0197870D02*
X0035950Y0195600D01*
X0034250Y0195600D02*
X0034250Y0196740D01*
X0023450Y0197870D02*
X0023450Y0195600D01*
X0020040Y0195600D01*
X0020040Y0197870D01*
X0020040Y0199290D02*
X0020040Y0200750D01*
X0020040Y0200990D02*
X0023450Y0200750D02*
X0023450Y0199290D01*
X0020040Y0199290D01*
X0021750Y0196740D02*
X0021750Y0195600D01*
X0023450Y0194190D02*
X0023450Y0191920D01*
X0020040Y0191920D01*
X0060040Y0191920D02*
X0063450Y0191920D01*
X0063450Y0194190D01*
X0063450Y0195600D02*
X0060040Y0195600D01*
X0060040Y0197870D01*
X0060040Y0199290D02*
X0060040Y0200750D01*
X0060040Y0200990D02*
X0063450Y0200750D02*
X0063450Y0199290D01*
X0060040Y0199290D01*
X0063450Y0197870D02*
X0063450Y0195600D01*
X0061750Y0195600D02*
X0061750Y0196740D01*
X0071920Y0197870D02*
X0071920Y0195600D01*
X0075320Y0195600D01*
X0075320Y0197870D01*
X0075320Y0199290D02*
X0071920Y0199290D01*
X0071920Y0200750D01*
X0071920Y0200990D02*
X0075320Y0200750D02*
X0075320Y0199290D01*
X0073620Y0196740D02*
X0073620Y0195600D01*
X0075320Y0194190D02*
X0075320Y0191920D01*
X0071920Y0191920D01*
D11*
X0084250Y0185250D02*
X0087250Y0185250D01*
X0085750Y0185250D02*
X0085750Y0180750D01*
X0088850Y0180750D02*
X0088850Y0185250D01*
X0091100Y0185250D01*
X0091850Y0184500D01*
X0091850Y0183000D01*
X0091100Y0182250D01*
X0088850Y0182250D01*
X0093450Y0183000D02*
X0096460Y0183000D01*
X0095710Y0180750D02*
X0095710Y0185250D01*
X0093450Y0183000D01*
X0070210Y0168870D02*
X0069460Y0169630D01*
X0067960Y0169630D01*
X0067200Y0168870D01*
X0065600Y0168870D02*
X0065600Y0167370D01*
X0064850Y0166620D01*
X0062600Y0166620D01*
X0062600Y0165120D02*
X0062600Y0169630D01*
X0064850Y0169630D01*
X0065600Y0168870D01*
X0067200Y0165120D02*
X0070210Y0168120D01*
X0070210Y0168870D01*
X0070210Y0165120D02*
X0067200Y0165120D01*
X0059500Y0165120D02*
X0059500Y0169630D01*
X0058000Y0169630D02*
X0061000Y0169630D01*
X0014020Y0180000D02*
X0013270Y0179250D01*
X0011770Y0179250D01*
X0011020Y0180000D01*
X0012520Y0181500D02*
X0013270Y0181500D01*
X0014020Y0180750D01*
X0014020Y0180000D01*
X0013270Y0181500D02*
X0014020Y0182250D01*
X0014020Y0183000D01*
X0013270Y0183750D01*
X0011770Y0183750D01*
X0011020Y0183000D01*
X0059250Y0138380D02*
X0062250Y0138380D01*
X0060750Y0138380D02*
X0060750Y0133870D01*
X0063850Y0133870D02*
X0063850Y0138380D01*
X0066100Y0138380D01*
X0066850Y0137620D01*
X0066850Y0136120D01*
X0066100Y0135370D01*
X0063850Y0135370D01*
X0068450Y0133870D02*
X0071460Y0133870D01*
X0069960Y0133870D02*
X0069960Y0138380D01*
X0068450Y0136870D01*
X0067200Y0112130D02*
X0067200Y0109870D01*
X0068710Y0110620D01*
X0069460Y0110620D01*
X0070210Y0109870D01*
X0070210Y0108370D01*
X0069460Y0107620D01*
X0067960Y0107620D01*
X0067200Y0108370D01*
X0065600Y0109870D02*
X0064850Y0109120D01*
X0062600Y0109120D01*
X0062600Y0107620D02*
X0062600Y0112130D01*
X0064850Y0112130D01*
X0065600Y0111370D01*
X0065600Y0109870D01*
X0067200Y0112130D02*
X0070210Y0112130D01*
X0061000Y0112130D02*
X0058000Y0112130D01*
X0059500Y0112130D02*
X0059500Y0107620D01*
D18*
X0010400Y0103100D02*
X0010400Y0200350D01*
X0010400Y0200350D02*
X0099410Y0200350D01*
X0099410Y0200350D02*
X0099410Y0103100D01*
X0010400Y0103100D01*
X0106510Y0103500D02*
G75*
%LPD*%
D15*
X0106510Y0103500D02*
X0106510Y0189500D01*
X0166240Y0189500D01*
X0166240Y0103500D01*
X0106510Y0103500D01*
D13*
X0117130Y0108500D02*
X0117130Y0122250D01*
X0118380Y0123500D01*
X0124630Y0123500D01*
X0124630Y0108500D01*
X0117130Y0108500D01*
X0124630Y0104750D02*
X0124630Y0118500D01*
X0125880Y0119750D01*
X0132130Y0119750D01*
X0132130Y0104750D01*
X0132130Y0118500D01*
X0133380Y0119750D01*
X0139630Y0119750D01*
X0139630Y0104750D01*
X0139630Y0118500D01*
X0140880Y0119750D01*
X0147130Y0119750D01*
X0147130Y0104750D01*
X0139630Y0104750D01*
X0132130Y0104750D01*
X0124630Y0104750D01*
X0147130Y0108500D02*
X0147130Y0122250D01*
X0148380Y0123500D01*
X0154630Y0123500D01*
X0154630Y0108500D01*
X0147130Y0108500D01*
X0154010Y0116000D02*
X0154010Y0131000D01*
X0161510Y0131000D01*
X0161510Y0117250D01*
X0160260Y0116000D01*
X0154010Y0116000D01*
X0117760Y0116000D02*
X0110260Y0116000D01*
X0110260Y0129750D01*
X0111510Y0131000D01*
X0117760Y0131000D01*
X0117760Y0116000D01*
X0117760Y0124750D02*
X0110260Y0124750D01*
X0110260Y0138500D01*
X0110260Y0152250D01*
X0111510Y0153500D01*
X0117760Y0153500D01*
X0117760Y0138500D01*
X0110260Y0138500D01*
X0111510Y0139750D01*
X0117760Y0139750D01*
X0117760Y0124750D01*
X0154010Y0124750D02*
X0154010Y0139750D01*
X0161510Y0139750D01*
X0161510Y0126000D01*
X0160260Y0124750D01*
X0154010Y0124750D01*
X0154010Y0138500D02*
X0154010Y0153500D01*
X0161510Y0153500D01*
X0161510Y0139750D01*
X0160260Y0138500D01*
X0154010Y0138500D01*
X0154010Y0147250D02*
X0154010Y0162250D01*
X0161510Y0162250D01*
X0161510Y0148500D01*
X0160260Y0147250D01*
X0154010Y0147250D01*
X0117760Y0147250D02*
X0110260Y0147250D01*
X0110260Y0161000D01*
X0111510Y0162250D01*
X0117760Y0162250D01*
X0117760Y0147250D01*
X0117760Y0156000D02*
X0110260Y0156000D01*
X0110260Y0169750D01*
X0111510Y0171000D01*
X0117760Y0171000D01*
X0117760Y0156000D01*
X0116510Y0163500D02*
X0116510Y0177250D01*
X0117760Y0178500D01*
X0124010Y0178500D01*
X0124010Y0163500D01*
X0116510Y0163500D01*
X0122760Y0167250D02*
X0122760Y0181000D01*
X0124010Y0182250D01*
X0130260Y0182250D01*
X0130260Y0167250D01*
X0122760Y0167250D01*
X0129010Y0167250D02*
X0129010Y0181000D01*
X0130260Y0182250D01*
X0136510Y0182250D01*
X0135260Y0181000D01*
X0135260Y0167250D01*
X0142760Y0167250D01*
X0142760Y0182250D01*
X0136510Y0182250D01*
X0136510Y0167250D01*
X0129010Y0167250D01*
X0141510Y0167250D02*
X0141510Y0181000D01*
X0142760Y0182250D01*
X0149010Y0182250D01*
X0149010Y0167250D01*
X0141510Y0167250D01*
X0154010Y0171000D02*
X0161510Y0171000D01*
X0161510Y0157250D01*
X0160260Y0156000D01*
X0154010Y0156000D01*
X0154010Y0171000D01*
X0147760Y0177250D02*
X0149010Y0178500D01*
X0155260Y0178500D01*
X0155260Y0163500D01*
X0147760Y0163500D01*
X0147760Y0177250D01*
D14*
X0108520Y0119800D02*
X0106510Y0119800D01*
X0106250Y0119800D02*
X0106510Y0120060D02*
X0108520Y0122070D01*
X0108520Y0122630D01*
X0107950Y0123200D01*
X0106820Y0123200D01*
X0106510Y0122890D01*
X0106250Y0122630D02*
X0106510Y0131640D02*
X0106820Y0131950D01*
X0107950Y0131950D01*
X0108520Y0131380D01*
X0108520Y0130820D01*
X0107950Y0130250D01*
X0108520Y0129680D01*
X0108520Y0129110D01*
X0107950Y0128550D01*
X0106820Y0128550D01*
X0106510Y0128855D01*
X0106250Y0129110D02*
X0107380Y0130250D02*
X0107950Y0130250D01*
X0135270Y0131950D02*
X0135270Y0128550D01*
X0137530Y0128550D01*
X0138950Y0128550D02*
X0141220Y0128550D01*
X0142630Y0128550D02*
X0144330Y0128550D01*
X0144900Y0129110D01*
X0144900Y0131380D01*
X0144330Y0131950D01*
X0142630Y0131950D01*
X0142630Y0128550D01*
X0140080Y0130250D02*
X0138950Y0130250D01*
X0138950Y0131950D02*
X0138950Y0128550D01*
X0146320Y0128550D02*
X0148580Y0128550D01*
X0147450Y0128550D02*
X0147450Y0131950D01*
X0146320Y0130820D01*
X0150000Y0130250D02*
X0150000Y0129110D01*
X0150570Y0128550D01*
X0151700Y0128550D01*
X0152270Y0129110D01*
X0152270Y0129680D01*
X0151700Y0130250D01*
X0150000Y0130250D01*
X0151130Y0131380D01*
X0152270Y0131950D01*
X0141220Y0131950D02*
X0138950Y0131950D01*
X0138950Y0123200D02*
X0138950Y0119800D01*
X0141220Y0119800D01*
X0142630Y0119800D02*
X0144330Y0119800D01*
X0144900Y0120360D01*
X0144900Y0122630D01*
X0144330Y0123200D01*
X0142630Y0123200D01*
X0142630Y0119800D01*
X0140080Y0121500D02*
X0138950Y0121500D01*
X0138950Y0123200D02*
X0141220Y0123200D01*
X0146320Y0122070D02*
X0147450Y0123200D01*
X0147450Y0119800D01*
X0146320Y0119800D02*
X0148580Y0119800D01*
X0150000Y0119800D02*
X0150000Y0120360D01*
X0152270Y0122630D01*
X0152270Y0123200D01*
X0150000Y0123200D01*
X0137530Y0119800D02*
X0135270Y0119800D01*
X0135270Y0123200D01*
X0135270Y0142300D02*
X0137530Y0142300D01*
X0138950Y0142300D02*
X0141220Y0142300D01*
X0142630Y0142300D02*
X0144330Y0142300D01*
X0144900Y0142860D01*
X0144900Y0145130D01*
X0144330Y0145700D01*
X0142630Y0145700D01*
X0142630Y0142300D01*
X0140080Y0144000D02*
X0138950Y0144000D01*
X0138950Y0145700D02*
X0138950Y0142300D01*
X0135270Y0142300D02*
X0135270Y0145700D01*
X0138950Y0145700D02*
X0141220Y0145700D01*
X0146320Y0144570D02*
X0147450Y0145700D01*
X0147450Y0142300D01*
X0146320Y0142300D02*
X0148580Y0142300D01*
X0150000Y0142860D02*
X0150570Y0142300D01*
X0151700Y0142300D01*
X0152270Y0142860D01*
X0152270Y0144000D01*
X0151700Y0144570D01*
X0151130Y0144570D01*
X0150000Y0144000D01*
X0150000Y0145700D01*
X0152270Y0145700D01*
X0151700Y0151050D02*
X0151700Y0154450D01*
X0150000Y0152750D01*
X0152270Y0152750D01*
X0148580Y0151050D02*
X0146320Y0151050D01*
X0147450Y0151050D02*
X0147450Y0154450D01*
X0146320Y0153320D01*
X0144900Y0153880D02*
X0144330Y0154450D01*
X0142630Y0154450D01*
X0142630Y0151050D01*
X0144330Y0151050D01*
X0144900Y0151610D01*
X0144900Y0153880D01*
X0141220Y0154450D02*
X0138950Y0154450D01*
X0138950Y0151050D01*
X0141220Y0151050D01*
X0140080Y0152750D02*
X0138950Y0152750D01*
X0137530Y0151050D02*
X0135270Y0151050D01*
X0135270Y0154450D01*
X0135270Y0159800D02*
X0137530Y0159800D01*
X0138950Y0159800D02*
X0141220Y0159800D01*
X0142630Y0159800D02*
X0144330Y0159800D01*
X0144900Y0160360D01*
X0144900Y0162630D01*
X0144330Y0163200D01*
X0142630Y0163200D01*
X0142630Y0159800D01*
X0140080Y0161500D02*
X0138950Y0161500D01*
X0138950Y0163200D02*
X0138950Y0159800D01*
X0135270Y0159800D02*
X0135270Y0163200D01*
X0138950Y0163200D02*
X0141220Y0163200D01*
X0146320Y0162070D02*
X0147450Y0163200D01*
X0147450Y0159800D01*
X0146320Y0159800D02*
X0148580Y0159800D01*
X0150000Y0160360D02*
X0150570Y0159800D01*
X0151700Y0159800D01*
X0152270Y0160360D01*
X0152270Y0160930D01*
X0151700Y0161500D01*
X0151130Y0161500D01*
X0151700Y0161500D02*
X0152270Y0162070D01*
X0152270Y0162630D01*
X0151700Y0163200D01*
X0150570Y0163200D01*
X0150000Y0162630D01*
X0108520Y0163200D02*
X0107380Y0162630D01*
X0106510Y0161760D01*
X0106250Y0161500D02*
X0106510Y0161500D02*
X0107950Y0161500D01*
X0108520Y0160930D01*
X0108520Y0160360D01*
X0107950Y0159800D01*
X0106820Y0159800D01*
X0106510Y0160105D01*
X0106250Y0160360D02*
X0106510Y0151355D02*
X0106820Y0151050D01*
X0107950Y0151050D01*
X0108520Y0151610D01*
X0108520Y0152750D01*
X0107950Y0153320D01*
X0107380Y0153320D01*
X0106510Y0152881D01*
X0106250Y0152750D02*
X0106510Y0154450D02*
X0108520Y0154450D01*
X0106510Y0144000D02*
X0108520Y0144000D01*
X0107950Y0142300D02*
X0107950Y0145700D01*
X0106510Y0144260D01*
X0106250Y0144000D02*
X0116550Y0180670D02*
X0119960Y0180670D01*
X0119960Y0182940D01*
X0119960Y0184350D02*
X0119960Y0186620D01*
X0119960Y0188040D02*
X0119960Y0189500D01*
X0119960Y0189740D02*
X0116550Y0189500D02*
X0116550Y0188040D01*
X0119960Y0188040D01*
X0116550Y0186620D02*
X0116550Y0184350D01*
X0119960Y0184350D01*
X0118260Y0184350D02*
X0118260Y0185490D01*
X0124050Y0184420D02*
X0127460Y0184420D01*
X0127460Y0186690D01*
X0127460Y0188100D02*
X0127460Y0189500D01*
X0127460Y0190370D02*
X0130300Y0189500D02*
X0130300Y0188100D01*
X0133710Y0188100D01*
X0133710Y0189500D01*
X0133710Y0190370D02*
X0132010Y0189240D02*
X0132010Y0188100D01*
X0133710Y0186690D02*
X0133710Y0184420D01*
X0130300Y0184420D01*
X0137180Y0183800D02*
X0140580Y0183800D01*
X0140580Y0186070D01*
X0140580Y0187480D02*
X0140580Y0189500D01*
X0140580Y0189750D02*
X0142800Y0189120D02*
X0142800Y0186850D01*
X0146210Y0186850D01*
X0146210Y0189120D01*
X0144510Y0187990D02*
X0144510Y0186850D01*
X0146210Y0185440D02*
X0146210Y0183170D01*
X0142800Y0183170D01*
X0148430Y0183800D02*
X0151830Y0183800D01*
X0151830Y0186070D01*
X0151830Y0187480D02*
X0148430Y0187480D01*
X0148430Y0189500D01*
X0148430Y0189750D02*
X0150130Y0188610D02*
X0150130Y0187480D01*
X0151830Y0187480D02*
X0151830Y0189500D01*
X0151830Y0189750D02*
X0124050Y0189500D02*
X0124050Y0188100D01*
X0127460Y0188100D01*
X0125760Y0188100D02*
X0125760Y0189240D01*
X0137180Y0189500D02*
X0137180Y0187480D01*
X0140580Y0187480D01*
X0138880Y0187480D02*
X0138880Y0188610D01*
D11*
X0157010Y0185250D02*
X0160010Y0185250D01*
X0158510Y0185250D02*
X0158510Y0180750D01*
X0161610Y0180750D02*
X0161610Y0185250D01*
X0163860Y0185250D01*
X0164610Y0184500D01*
X0164610Y0183000D01*
X0163860Y0182250D01*
X0161610Y0182250D01*
X0166210Y0183000D02*
X0166240Y0183000D01*
X0169220Y0183000D02*
X0166240Y0183030D02*
X0166210Y0183000D01*
X0107410Y0171120D02*
X0106650Y0171880D01*
X0106510Y0171880D01*
X0105150Y0171880D02*
X0106510Y0169473D02*
X0107410Y0170370D01*
X0107410Y0171120D01*
X0107410Y0167370D02*
X0106510Y0167370D01*
X0104400Y0167370D02*
X0158260Y0143380D02*
X0161260Y0143380D01*
X0159760Y0143380D02*
X0159760Y0138870D01*
X0162860Y0138870D02*
X0162860Y0143380D01*
X0165110Y0143380D01*
X0165860Y0142620D01*
X0165860Y0141120D01*
X0165110Y0140370D01*
X0162860Y0140370D01*
X0135470Y0135120D02*
X0132460Y0135120D01*
X0133970Y0135120D02*
X0133970Y0139630D01*
X0132460Y0138120D01*
X0130860Y0138870D02*
X0130860Y0137370D01*
X0130110Y0136620D01*
X0127860Y0136620D01*
X0127860Y0135120D02*
X0127860Y0139630D01*
X0130110Y0139630D01*
X0130860Y0138870D01*
X0126260Y0139630D02*
X0123260Y0139630D01*
X0124760Y0139630D02*
X0124760Y0135120D01*
X0124130Y0129000D02*
X0124130Y0124500D01*
X0127240Y0124500D02*
X0127240Y0129000D01*
X0129490Y0129000D01*
X0130240Y0128250D01*
X0130240Y0126750D01*
X0129490Y0126000D01*
X0127240Y0126000D01*
X0131840Y0125250D02*
X0131840Y0124500D01*
X0131840Y0125250D02*
X0134840Y0128250D01*
X0134840Y0129000D01*
X0131840Y0129000D01*
X0125630Y0129000D02*
X0122630Y0129000D01*
X0156380Y0125880D02*
X0159380Y0125880D01*
X0157880Y0125880D02*
X0157880Y0121370D01*
X0160990Y0121370D02*
X0160990Y0125880D01*
X0163240Y0125880D01*
X0163990Y0125120D01*
X0163990Y0123620D01*
X0163240Y0122870D01*
X0160990Y0122870D01*
X0165590Y0123620D02*
X0165590Y0122120D01*
X0166240Y0121470D01*
X0166340Y0121370D02*
X0166240Y0123620D02*
X0165590Y0123620D01*
X0166240Y0124270D01*
X0167090Y0125120D02*
X0113590Y0112620D02*
X0113590Y0111870D01*
X0112840Y0111120D01*
X0111340Y0111120D01*
X0110590Y0111870D01*
X0110590Y0112620D01*
X0111340Y0113380D01*
X0112840Y0113380D01*
X0113590Y0112620D01*
X0112840Y0111120D02*
X0113590Y0110370D01*
X0113590Y0109620D01*
X0112840Y0108870D01*
X0111340Y0108870D01*
X0110590Y0109620D01*
X0110590Y0110370D01*
X0111340Y0111120D01*
X0108990Y0111120D02*
X0108240Y0110370D01*
X0106510Y0110370D01*
X0105990Y0110370D02*
X0106510Y0113380D02*
X0108240Y0113380D01*
X0108990Y0112620D01*
X0108990Y0111120D01*
D18*
X0106110Y0103100D02*
X0106110Y0189900D01*
X0166640Y0189900D01*
X0166640Y0103100D01*
X0106110Y0103100D01*
X0173740Y0103500D02*
G75*
%LPD*%
D15*
X0173740Y0103500D02*
X0173740Y0185750D01*
X0232750Y0185750D01*
X0232750Y0103500D01*
X0173740Y0103500D01*
D13*
X0178740Y0107250D02*
X0178740Y0122250D01*
X0186240Y0122250D01*
X0186240Y0108500D01*
X0184990Y0107250D01*
X0178740Y0107250D01*
X0186860Y0113500D02*
X0186860Y0128500D01*
X0194360Y0128500D01*
X0194360Y0114750D01*
X0193110Y0113500D01*
X0186860Y0113500D01*
X0211240Y0113500D02*
X0211240Y0128500D01*
X0218740Y0128500D01*
X0218740Y0114750D01*
X0217490Y0113500D01*
X0211240Y0113500D01*
X0226860Y0107250D02*
X0228110Y0108500D01*
X0228110Y0122250D01*
X0226860Y0121000D01*
X0220610Y0121000D01*
X0220610Y0136000D01*
X0228110Y0136000D01*
X0228110Y0122250D01*
X0220610Y0122250D01*
X0220610Y0107250D01*
X0226860Y0107250D01*
X0210610Y0123500D02*
X0209360Y0122250D01*
X0203110Y0122250D01*
X0203110Y0137250D01*
X0210610Y0137250D01*
X0210610Y0123500D01*
X0202490Y0123500D02*
X0201240Y0122250D01*
X0194990Y0122250D01*
X0194990Y0137250D01*
X0202490Y0137250D01*
X0202490Y0123500D01*
X0186240Y0122250D02*
X0184990Y0121000D01*
X0178740Y0121000D01*
X0178740Y0136000D01*
X0186240Y0136000D01*
X0186240Y0122250D01*
X0184990Y0129750D02*
X0178740Y0129750D01*
X0178740Y0144750D01*
X0186240Y0144750D01*
X0186240Y0131000D01*
X0184990Y0129750D01*
X0184990Y0138500D02*
X0178740Y0138500D01*
X0178740Y0153500D01*
X0186240Y0153500D01*
X0186240Y0139750D01*
X0184990Y0138500D01*
X0220610Y0138500D02*
X0220610Y0153500D01*
X0228110Y0153500D01*
X0226860Y0152250D01*
X0220610Y0152250D01*
X0220610Y0167250D01*
X0228110Y0167250D01*
X0228110Y0153500D01*
X0228110Y0139750D01*
X0226860Y0138500D01*
X0220610Y0138500D01*
X0220610Y0144750D02*
X0228110Y0144750D01*
X0228110Y0131000D01*
X0226860Y0129750D01*
X0220610Y0129750D01*
X0220610Y0144750D01*
X0186240Y0153500D02*
X0184990Y0152250D01*
X0178740Y0152250D01*
X0178740Y0167250D01*
X0186240Y0167250D01*
X0186240Y0153500D01*
X0184990Y0161000D02*
X0178740Y0161000D01*
X0178740Y0176000D01*
X0186240Y0176000D01*
X0186240Y0162250D01*
X0184990Y0161000D01*
X0184990Y0169750D02*
X0178740Y0169750D01*
X0178740Y0184750D01*
X0186240Y0184750D01*
X0186240Y0171000D01*
X0184990Y0169750D01*
X0220610Y0169750D02*
X0220610Y0184750D01*
X0228110Y0184750D01*
X0228110Y0171000D01*
X0226860Y0169750D01*
X0220610Y0169750D01*
X0220610Y0176000D02*
X0228110Y0176000D01*
X0228110Y0162250D01*
X0226860Y0161000D01*
X0220610Y0161000D01*
X0220610Y0176000D01*
D14*
X0193060Y0103500D02*
X0193060Y0104390D01*
X0193060Y0105810D02*
X0193060Y0107510D01*
X0192490Y0108070D01*
X0190230Y0108070D01*
X0189660Y0107510D01*
X0189660Y0105810D01*
X0193060Y0105810D01*
X0189660Y0103500D02*
X0189660Y0104390D01*
X0184940Y0104490D02*
X0184370Y0104490D01*
X0182100Y0106760D01*
X0181530Y0106760D01*
X0181530Y0104490D01*
X0197780Y0107190D02*
X0201190Y0107190D01*
X0201190Y0109460D01*
X0201190Y0110870D02*
X0201190Y0113140D01*
X0201190Y0114560D02*
X0201190Y0116260D01*
X0200620Y0116820D01*
X0198350Y0116820D01*
X0197780Y0116260D01*
X0197780Y0114560D01*
X0201190Y0114560D01*
X0197780Y0113140D02*
X0197780Y0110870D01*
X0201190Y0110870D01*
X0199490Y0110870D02*
X0199490Y0112010D01*
X0205910Y0112120D02*
X0205910Y0113820D01*
X0206480Y0114390D01*
X0208740Y0114390D01*
X0209310Y0113820D01*
X0209310Y0112120D01*
X0205910Y0112120D01*
X0205910Y0110710D02*
X0205910Y0108440D01*
X0209310Y0108440D01*
X0209310Y0110710D01*
X0207610Y0109570D02*
X0207610Y0108440D01*
X0209310Y0107020D02*
X0209310Y0104760D01*
X0205910Y0104760D01*
X0214030Y0103820D02*
X0214030Y0103500D01*
X0214030Y0102120D02*
X0217440Y0103500D02*
X0217440Y0103820D01*
X0216870Y0104390D01*
X0214600Y0104390D01*
X0214030Y0103820D01*
X0215170Y0105810D02*
X0214030Y0106940D01*
X0217440Y0106940D01*
X0217440Y0105810D02*
X0217440Y0108070D01*
X0217440Y0109490D02*
X0217440Y0111760D01*
X0217440Y0110620D02*
X0214030Y0110620D01*
X0215170Y0109490D01*
X0193060Y0110060D02*
X0192490Y0109490D01*
X0191930Y0109490D01*
X0191360Y0110060D01*
X0191360Y0111190D01*
X0191930Y0111760D01*
X0192490Y0111760D01*
X0193060Y0111190D01*
X0193060Y0110060D01*
X0191360Y0110060D02*
X0190790Y0109490D01*
X0190230Y0109490D01*
X0189660Y0110060D01*
X0189660Y0111190D01*
X0190230Y0111760D01*
X0190790Y0111760D01*
X0191360Y0111190D01*
X0205910Y0116940D02*
X0207040Y0115810D01*
X0205910Y0116940D02*
X0209310Y0116940D01*
X0209310Y0115810D02*
X0209310Y0118070D01*
X0208740Y0119490D02*
X0206480Y0121760D01*
X0208740Y0121760D01*
X0209310Y0121190D01*
X0209310Y0120060D01*
X0208740Y0119490D01*
X0206480Y0119490D01*
X0205910Y0120060D01*
X0205910Y0121190D01*
X0206480Y0121760D01*
X0201190Y0119940D02*
X0200620Y0120510D01*
X0198350Y0120510D01*
X0197780Y0119940D01*
X0197780Y0118810D01*
X0198350Y0118240D01*
X0198920Y0118240D01*
X0199490Y0118810D01*
X0199490Y0120510D01*
X0201190Y0119940D02*
X0201190Y0118810D01*
X0200620Y0118240D01*
X0201870Y0124800D02*
X0204140Y0124800D01*
X0205550Y0124800D02*
X0207820Y0124800D01*
X0209240Y0124800D02*
X0210940Y0124800D01*
X0211510Y0125360D01*
X0211510Y0127630D01*
X0210940Y0128200D01*
X0209240Y0128200D01*
X0209240Y0124800D01*
X0206690Y0126500D02*
X0205550Y0126500D01*
X0205550Y0128200D02*
X0205550Y0124800D01*
X0201870Y0124800D02*
X0201870Y0128200D01*
X0205550Y0128200D02*
X0207820Y0128200D01*
X0212920Y0127070D02*
X0214050Y0128200D01*
X0214050Y0124800D01*
X0212920Y0124800D02*
X0215190Y0124800D01*
X0216600Y0125360D02*
X0217170Y0124800D01*
X0218300Y0124800D01*
X0218870Y0125360D01*
X0218870Y0126500D01*
X0218300Y0127070D01*
X0217740Y0127070D01*
X0216600Y0126500D01*
X0216600Y0128200D01*
X0218870Y0128200D01*
X0218930Y0133550D02*
X0218930Y0136950D01*
X0217230Y0135250D01*
X0219500Y0135250D01*
X0215810Y0133550D02*
X0213550Y0133550D01*
X0214680Y0133550D02*
X0214680Y0136950D01*
X0213550Y0135820D01*
X0212130Y0136380D02*
X0211560Y0136950D01*
X0209860Y0136950D01*
X0209860Y0133550D01*
X0211560Y0133550D01*
X0212130Y0134110D01*
X0212130Y0136380D01*
X0208450Y0136950D02*
X0206180Y0136950D01*
X0206180Y0133550D01*
X0208450Y0133550D01*
X0207310Y0135250D02*
X0206180Y0135250D01*
X0204760Y0133550D02*
X0202500Y0133550D01*
X0202500Y0136950D01*
X0202500Y0142300D02*
X0204760Y0142300D01*
X0206180Y0142300D02*
X0208450Y0142300D01*
X0209860Y0142300D02*
X0211560Y0142300D01*
X0212130Y0142860D01*
X0212130Y0145130D01*
X0211560Y0145700D01*
X0209860Y0145700D01*
X0209860Y0142300D01*
X0207310Y0144000D02*
X0206180Y0144000D01*
X0206180Y0145700D02*
X0206180Y0142300D01*
X0202500Y0142300D02*
X0202500Y0145700D01*
X0206180Y0145700D02*
X0208450Y0145700D01*
X0213550Y0144570D02*
X0214680Y0145700D01*
X0214680Y0142300D01*
X0213550Y0142300D02*
X0215810Y0142300D01*
X0217230Y0142860D02*
X0217800Y0142300D01*
X0218930Y0142300D01*
X0219500Y0142860D01*
X0219500Y0143430D01*
X0218930Y0144000D01*
X0218360Y0144000D01*
X0218930Y0144000D02*
X0219500Y0144570D01*
X0219500Y0145130D01*
X0218930Y0145700D01*
X0217800Y0145700D01*
X0217230Y0145130D01*
X0178250Y0144000D02*
X0175980Y0144000D01*
X0177680Y0145700D01*
X0177680Y0142300D01*
X0174560Y0142860D02*
X0174560Y0145130D01*
X0174000Y0145700D01*
X0173740Y0145700D01*
X0172300Y0145700D02*
X0173740Y0142300D02*
X0174000Y0142300D01*
X0174560Y0142860D01*
X0173740Y0133550D02*
X0174000Y0133550D01*
X0174560Y0134110D01*
X0174560Y0136380D01*
X0174000Y0136950D01*
X0173740Y0136950D01*
X0172300Y0136950D02*
X0175980Y0134110D02*
X0176550Y0133550D01*
X0177680Y0133550D01*
X0178250Y0134110D01*
X0178250Y0135250D01*
X0177680Y0135820D01*
X0177110Y0135820D01*
X0175980Y0135250D01*
X0175980Y0136950D01*
X0178250Y0136950D01*
X0173740Y0124800D02*
X0174000Y0124800D01*
X0174560Y0125360D01*
X0174560Y0127630D01*
X0174000Y0128200D01*
X0173740Y0128200D01*
X0172300Y0128200D02*
X0175980Y0126500D02*
X0177680Y0126500D01*
X0178250Y0125930D01*
X0178250Y0125360D01*
X0177680Y0124800D01*
X0176550Y0124800D01*
X0175980Y0125360D01*
X0175980Y0126500D01*
X0177110Y0127630D01*
X0178250Y0128200D01*
X0228410Y0118450D02*
X0228410Y0115050D01*
X0230680Y0115050D01*
X0232090Y0115050D02*
X0232750Y0115050D01*
X0234360Y0115050D02*
X0232750Y0116750D02*
X0232090Y0116750D01*
X0232090Y0118450D02*
X0232090Y0115050D01*
X0232750Y0118450D02*
X0232090Y0118450D01*
X0213550Y0156050D02*
X0215810Y0156050D01*
X0214680Y0156050D02*
X0214680Y0159450D01*
X0213550Y0158320D01*
X0212130Y0158880D02*
X0212130Y0156610D01*
X0211560Y0156050D01*
X0209860Y0156050D01*
X0209860Y0159450D01*
X0211560Y0159450D01*
X0212130Y0158880D01*
X0208450Y0159450D02*
X0206180Y0159450D01*
X0206180Y0156050D01*
X0208450Y0156050D01*
X0207310Y0157750D02*
X0206180Y0157750D01*
X0204760Y0156050D02*
X0202500Y0156050D01*
X0202500Y0159450D01*
X0217230Y0158880D02*
X0217230Y0158320D01*
X0217800Y0157750D01*
X0218930Y0157750D01*
X0219500Y0157180D01*
X0219500Y0156610D01*
X0218930Y0156050D01*
X0217800Y0156050D01*
X0217230Y0156610D01*
X0217230Y0157180D01*
X0217800Y0157750D01*
X0218930Y0157750D02*
X0219500Y0158320D01*
X0219500Y0158880D01*
X0218930Y0159450D01*
X0217800Y0159450D01*
X0217230Y0158880D01*
X0217230Y0164800D02*
X0217230Y0165360D01*
X0219500Y0167630D01*
X0219500Y0168200D01*
X0217230Y0168200D01*
X0214680Y0168200D02*
X0213550Y0167070D01*
X0212130Y0167630D02*
X0211560Y0168200D01*
X0209860Y0168200D01*
X0209860Y0164800D01*
X0211560Y0164800D01*
X0212130Y0165360D01*
X0212130Y0167630D01*
X0214680Y0168200D02*
X0214680Y0164800D01*
X0213550Y0164800D02*
X0215810Y0164800D01*
X0208450Y0164800D02*
X0206180Y0164800D01*
X0206180Y0168200D01*
X0208450Y0168200D01*
X0202500Y0168200D02*
X0202500Y0164800D01*
X0204760Y0164800D01*
X0206180Y0166500D02*
X0207310Y0166500D01*
X0177620Y0167070D02*
X0175350Y0164800D01*
X0177620Y0164800D01*
X0176430Y0161950D02*
X0177000Y0161380D01*
X0177000Y0160820D01*
X0176430Y0160250D01*
X0177000Y0159680D01*
X0177000Y0159110D01*
X0176430Y0158550D01*
X0175300Y0158550D01*
X0174730Y0159110D01*
X0174730Y0161380D02*
X0175300Y0161950D01*
X0176430Y0161950D01*
X0176430Y0160250D02*
X0175860Y0160250D01*
X0173740Y0165164D02*
X0173940Y0165360D01*
X0173940Y0167630D01*
X0173740Y0167830D01*
X0173370Y0168200D02*
X0175350Y0167630D02*
X0175920Y0168200D01*
X0177050Y0168200D01*
X0177620Y0167630D01*
X0177620Y0167070D01*
X0177620Y0173550D02*
X0175350Y0173550D01*
X0176490Y0173550D02*
X0176490Y0176950D01*
X0175350Y0175820D01*
X0173940Y0176380D02*
X0173940Y0174110D01*
X0173740Y0173914D01*
X0173370Y0173550D02*
X0173740Y0176580D02*
X0173940Y0176380D01*
X0202500Y0178200D02*
X0202500Y0174800D01*
X0204760Y0174800D01*
X0206180Y0174800D02*
X0208450Y0174800D01*
X0209860Y0174800D02*
X0211560Y0174800D01*
X0212130Y0175360D01*
X0212130Y0177630D01*
X0211560Y0178200D01*
X0209860Y0178200D01*
X0209860Y0174800D01*
X0207310Y0176500D02*
X0206180Y0176500D01*
X0206180Y0178200D02*
X0206180Y0174800D01*
X0213550Y0174800D02*
X0215810Y0174800D01*
X0214680Y0174800D02*
X0214680Y0178200D01*
X0213550Y0177070D01*
X0217230Y0176500D02*
X0217230Y0175360D01*
X0217800Y0174800D01*
X0218930Y0174800D01*
X0219500Y0175360D01*
X0219500Y0175930D01*
X0218930Y0176500D01*
X0217230Y0176500D01*
X0218360Y0177630D01*
X0219500Y0178200D01*
X0208450Y0178200D02*
X0206180Y0178200D01*
D11*
X0198440Y0183870D02*
X0198440Y0184620D01*
X0199574Y0185750D01*
X0201450Y0187620D02*
X0193840Y0185750D02*
X0193840Y0183870D01*
X0193840Y0185370D02*
X0196090Y0185370D01*
X0196470Y0185750D01*
X0196840Y0186120D02*
X0190740Y0185750D02*
X0190740Y0183870D01*
X0214860Y0164630D02*
X0217860Y0164630D01*
X0216360Y0164630D02*
X0216360Y0160120D01*
X0219470Y0160120D02*
X0219470Y0164630D01*
X0221720Y0164630D01*
X0222470Y0163870D01*
X0222470Y0162370D01*
X0221720Y0161620D01*
X0219470Y0161620D01*
X0224070Y0162370D02*
X0224070Y0160870D01*
X0224820Y0160120D01*
X0226320Y0160120D01*
X0227070Y0160870D01*
X0227070Y0161620D01*
X0226320Y0162370D01*
X0224070Y0162370D01*
X0225570Y0163870D01*
X0227070Y0164630D01*
X0175890Y0152370D02*
X0173740Y0152370D01*
X0172880Y0152370D02*
X0174380Y0152370D02*
X0174380Y0156880D01*
X0173740Y0156236D01*
X0172880Y0155370D02*
X0196740Y0145250D02*
X0199740Y0145250D01*
X0198240Y0145250D02*
X0198240Y0140750D01*
X0201340Y0140750D02*
X0201340Y0145250D01*
X0203590Y0145250D01*
X0204340Y0144500D01*
X0204340Y0143000D01*
X0203590Y0142250D01*
X0201340Y0142250D01*
X0205940Y0141500D02*
X0206700Y0140750D01*
X0208200Y0140750D01*
X0208950Y0141500D01*
X0208950Y0142250D01*
X0208200Y0143000D01*
X0207450Y0143000D01*
X0208200Y0143000D02*
X0208950Y0143750D01*
X0208950Y0144500D01*
X0208200Y0145250D01*
X0206700Y0145250D01*
X0205940Y0144500D01*
X0222990Y0130250D02*
X0225990Y0130250D01*
X0224490Y0130250D02*
X0224490Y0125750D01*
X0227590Y0125750D02*
X0227590Y0130250D01*
X0229840Y0130250D01*
X0230590Y0129500D01*
X0230590Y0128000D01*
X0229840Y0127250D01*
X0227590Y0127250D01*
X0232190Y0128000D02*
X0232750Y0128278D01*
X0233700Y0128750D02*
X0232750Y0125947D02*
X0232190Y0126500D01*
X0232190Y0128000D02*
X0232190Y0130250D01*
X0232750Y0130250D01*
X0235200Y0130250D02*
X0176510Y0119870D02*
X0176510Y0119120D01*
X0173740Y0116350D01*
X0173510Y0116120D02*
X0173740Y0116120D02*
X0176510Y0116120D01*
X0173740Y0120103D02*
X0174260Y0120630D01*
X0175760Y0120630D01*
X0176510Y0119870D01*
X0223610Y0107130D02*
X0226610Y0107130D01*
X0225110Y0107130D02*
X0225110Y0103500D01*
X0225110Y0102620D02*
X0228220Y0103500D02*
X0228220Y0107130D01*
X0230470Y0107130D01*
X0231220Y0106370D01*
X0231220Y0104870D01*
X0230470Y0104120D01*
X0228220Y0104120D01*
D18*
X0173340Y0103100D02*
X0173340Y0186150D01*
X0233150Y0186150D01*
X0233150Y0103100D01*
X0173340Y0103100D01*
X0240250Y0103500D02*
G75*
%LPD*%
D15*
X0240250Y0103500D02*
X0240250Y0183250D01*
X0299260Y0183250D01*
X0299260Y0166000D01*
X0257750Y0166000D01*
X0257750Y0152250D01*
X0282750Y0152250D01*
X0282750Y0134750D01*
X0257750Y0134750D01*
X0257750Y0121000D01*
X0299620Y0121000D01*
X0299620Y0103500D01*
X0240250Y0103500D01*
D13*
X0243370Y0108500D02*
X0242120Y0109750D01*
X0242120Y0116000D01*
X0257120Y0116000D01*
X0257120Y0108500D01*
X0243370Y0108500D01*
X0250870Y0109750D02*
X0252120Y0108500D01*
X0265870Y0108500D01*
X0265870Y0116000D01*
X0250870Y0116000D01*
X0250870Y0109750D01*
X0250250Y0111620D02*
X0242750Y0111620D01*
X0242750Y0125370D01*
X0242750Y0139120D01*
X0244000Y0140370D01*
X0250250Y0140370D01*
X0250250Y0125370D01*
X0242750Y0125370D01*
X0244000Y0126620D01*
X0250250Y0126620D01*
X0250250Y0111620D01*
X0264620Y0109750D02*
X0265870Y0108500D01*
X0279620Y0108500D01*
X0279620Y0116000D01*
X0264620Y0116000D01*
X0264620Y0109750D01*
X0273370Y0109750D02*
X0274620Y0108500D01*
X0288370Y0108500D01*
X0288370Y0116000D01*
X0273370Y0116000D01*
X0273370Y0109750D01*
X0282120Y0109750D02*
X0283370Y0108500D01*
X0297120Y0108500D01*
X0297120Y0116000D01*
X0282120Y0116000D01*
X0282120Y0109750D01*
X0250250Y0134750D02*
X0242750Y0134750D01*
X0242750Y0148500D01*
X0244000Y0149750D01*
X0250250Y0149750D01*
X0250250Y0134750D01*
X0249000Y0139750D02*
X0249000Y0147250D01*
X0262750Y0147250D01*
X0264000Y0146000D01*
X0264000Y0139750D01*
X0249000Y0139750D01*
X0257750Y0139750D02*
X0257750Y0147250D01*
X0271500Y0147250D01*
X0272750Y0146000D01*
X0272750Y0139750D01*
X0257750Y0139750D01*
X0266500Y0139750D02*
X0266500Y0147250D01*
X0280250Y0147250D01*
X0281500Y0146000D01*
X0281500Y0139750D01*
X0266500Y0139750D01*
X0250250Y0143500D02*
X0242750Y0143500D01*
X0242750Y0157250D01*
X0242750Y0171000D01*
X0244000Y0172250D01*
X0250250Y0172250D01*
X0250250Y0157250D01*
X0242750Y0157250D01*
X0244000Y0158500D01*
X0250250Y0158500D01*
X0250250Y0143500D01*
X0250250Y0166000D02*
X0242750Y0166000D01*
X0242750Y0179750D01*
X0244000Y0181000D01*
X0250250Y0181000D01*
X0250250Y0166000D01*
X0247120Y0172870D02*
X0247120Y0180370D01*
X0260870Y0180370D01*
X0262120Y0179120D01*
X0262120Y0172870D01*
X0247120Y0172870D01*
X0262750Y0172870D02*
X0262750Y0180370D01*
X0276500Y0180370D01*
X0277750Y0179120D01*
X0277750Y0172870D01*
X0262750Y0172870D01*
X0272750Y0172870D02*
X0272750Y0180370D01*
X0286500Y0180370D01*
X0287750Y0179120D01*
X0287750Y0172870D01*
X0272750Y0172870D01*
X0282750Y0172870D02*
X0282750Y0180370D01*
X0296500Y0180370D01*
X0297750Y0179120D01*
X0297750Y0172870D01*
X0282750Y0172870D01*
D14*
X0252330Y0103500D02*
X0252130Y0103700D01*
X0249860Y0103700D01*
X0249660Y0103500D01*
X0249290Y0103130D02*
X0261080Y0103500D02*
X0260880Y0103700D01*
X0258610Y0103700D01*
X0258410Y0103500D01*
X0258040Y0103130D02*
X0273580Y0103500D02*
X0273380Y0103700D01*
X0271110Y0103700D01*
X0270910Y0103500D01*
X0270540Y0103130D02*
X0279660Y0103500D02*
X0279860Y0103700D01*
X0282130Y0103700D01*
X0282330Y0103500D01*
X0282700Y0103130D02*
X0289660Y0103500D02*
X0289860Y0103700D01*
X0292130Y0103700D01*
X0292330Y0103500D01*
X0292700Y0103130D02*
X0292700Y0105110D02*
X0292700Y0107380D01*
X0292700Y0106250D02*
X0289290Y0106250D01*
X0290430Y0105110D01*
X0282700Y0105110D02*
X0282700Y0107380D01*
X0282700Y0105110D02*
X0280430Y0107380D01*
X0279860Y0107380D01*
X0279290Y0106810D01*
X0279290Y0105680D01*
X0279860Y0105110D01*
X0273950Y0105680D02*
X0273950Y0106810D01*
X0273380Y0107380D01*
X0272810Y0107380D01*
X0272250Y0106810D01*
X0272250Y0106250D01*
X0272250Y0106810D02*
X0271680Y0107380D01*
X0271110Y0107380D01*
X0270540Y0106810D01*
X0270540Y0105680D01*
X0271110Y0105110D01*
X0273380Y0105110D02*
X0273950Y0105680D01*
X0261450Y0106810D02*
X0258040Y0106810D01*
X0259750Y0105110D01*
X0259750Y0107380D01*
X0252700Y0106810D02*
X0252700Y0105680D01*
X0252130Y0105110D01*
X0251000Y0105110D02*
X0250430Y0106250D01*
X0250430Y0106810D01*
X0251000Y0107380D01*
X0252130Y0107380D01*
X0252700Y0106810D01*
X0251000Y0105110D02*
X0249290Y0105110D01*
X0249290Y0107380D01*
X0241200Y0111300D02*
X0240250Y0111300D01*
X0237790Y0111300D02*
X0241200Y0111300D02*
X0241200Y0113570D01*
X0241200Y0114980D02*
X0240250Y0114980D01*
X0237790Y0114980D02*
X0240250Y0120930D02*
X0240630Y0120930D01*
X0241200Y0120360D01*
X0241200Y0118660D01*
X0240250Y0118660D01*
X0237790Y0118660D02*
X0241200Y0117250D02*
X0241200Y0114980D01*
X0240250Y0124610D02*
X0240630Y0124610D01*
X0241200Y0124050D01*
X0241200Y0122910D01*
X0240630Y0122350D01*
X0240250Y0122350D01*
X0239500Y0122350D02*
X0240250Y0133015D02*
X0241360Y0134130D01*
X0241360Y0134700D01*
X0240250Y0134700D01*
X0239100Y0134700D02*
X0240250Y0145910D02*
X0240290Y0145950D01*
X0241420Y0145950D01*
X0241990Y0145380D01*
X0241990Y0144820D01*
X0241420Y0144250D01*
X0240290Y0144250D01*
X0240250Y0144290D01*
X0239720Y0144820D02*
X0240290Y0144250D02*
X0240250Y0144210D01*
X0239720Y0143680D02*
X0240250Y0142589D02*
X0240290Y0142550D01*
X0241420Y0142550D01*
X0241990Y0143110D01*
X0241990Y0143680D01*
X0241420Y0144250D01*
X0252790Y0148170D02*
X0256200Y0148170D01*
X0256200Y0150440D01*
X0256200Y0151850D02*
X0252790Y0151850D01*
X0252790Y0154120D01*
X0252790Y0155540D02*
X0252790Y0157240D01*
X0253360Y0157810D01*
X0255630Y0157810D01*
X0256200Y0157240D01*
X0256200Y0155540D01*
X0252790Y0155540D01*
X0256200Y0154120D02*
X0256200Y0151850D01*
X0254500Y0151850D02*
X0254500Y0152990D01*
X0261540Y0154120D02*
X0261540Y0151850D01*
X0264950Y0151850D01*
X0264950Y0154120D01*
X0264950Y0155540D02*
X0264950Y0157240D01*
X0264380Y0157810D01*
X0262110Y0157810D01*
X0261540Y0157240D01*
X0261540Y0155540D01*
X0264950Y0155540D01*
X0270290Y0155540D02*
X0270290Y0157240D01*
X0270860Y0157810D01*
X0273130Y0157810D01*
X0273700Y0157240D01*
X0273700Y0155540D01*
X0270290Y0155540D01*
X0270290Y0154120D02*
X0270290Y0151850D01*
X0273700Y0151850D01*
X0273700Y0154120D01*
X0272000Y0152990D02*
X0272000Y0151850D01*
X0273700Y0150440D02*
X0273700Y0148170D01*
X0270290Y0148170D01*
X0264950Y0148170D02*
X0264950Y0150440D01*
X0263250Y0151850D02*
X0263250Y0152990D01*
X0261540Y0148170D02*
X0264950Y0148170D01*
X0241990Y0150610D02*
X0241990Y0152880D01*
X0241420Y0153450D01*
X0240290Y0153450D01*
X0240250Y0153410D01*
X0239720Y0152880D02*
X0240250Y0151790D02*
X0240290Y0151750D01*
X0241990Y0151750D01*
X0241990Y0150610D02*
X0241420Y0150050D01*
X0240290Y0150050D01*
X0240250Y0150089D01*
X0239720Y0150610D02*
X0252790Y0160360D02*
X0256200Y0160360D01*
X0256200Y0161490D02*
X0256200Y0159220D01*
X0253930Y0159220D02*
X0252790Y0160360D01*
X0254500Y0162900D02*
X0254500Y0164610D01*
X0255060Y0165170D01*
X0255630Y0165170D01*
X0256200Y0164610D01*
X0256200Y0163470D01*
X0255630Y0162900D01*
X0254500Y0162900D01*
X0253360Y0164040D01*
X0252790Y0165170D01*
X0243170Y0165610D02*
X0242610Y0165050D01*
X0241470Y0165050D01*
X0240900Y0165610D01*
X0243170Y0167880D01*
X0243170Y0165610D01*
X0240900Y0165610D02*
X0240900Y0167880D01*
X0241470Y0168450D01*
X0242610Y0168450D01*
X0243170Y0167880D01*
X0240900Y0173800D02*
X0243170Y0173800D01*
X0242040Y0173800D02*
X0242040Y0177200D01*
X0240900Y0176070D01*
X0250920Y0181300D02*
X0254320Y0181300D01*
X0254320Y0183250D01*
X0254320Y0183570D02*
X0279950Y0183250D02*
X0279950Y0181300D01*
X0276540Y0181300D01*
X0270570Y0180670D02*
X0270570Y0182940D01*
X0289320Y0183250D02*
X0289320Y0181920D01*
X0285920Y0181920D01*
X0270570Y0180670D02*
X0267170Y0180670D01*
X0261540Y0165170D02*
X0262110Y0165170D01*
X0264380Y0162900D01*
X0264950Y0162900D01*
X0264950Y0161490D02*
X0264950Y0159220D01*
X0264950Y0160360D02*
X0261540Y0160360D01*
X0262680Y0159220D01*
X0270290Y0160360D02*
X0273700Y0160360D01*
X0273700Y0161490D02*
X0273700Y0159220D01*
X0271430Y0159220D02*
X0270290Y0160360D01*
X0270860Y0162900D02*
X0271430Y0162900D01*
X0272000Y0163470D01*
X0272000Y0164610D01*
X0272560Y0165170D01*
X0273130Y0165170D01*
X0273700Y0164610D01*
X0273700Y0163470D01*
X0273130Y0162900D01*
X0272560Y0162900D01*
X0272000Y0163470D01*
X0272000Y0164610D02*
X0271430Y0165170D01*
X0270860Y0165170D01*
X0270290Y0164610D01*
X0270290Y0163470D01*
X0270860Y0162900D01*
X0261540Y0162900D02*
X0261540Y0165170D01*
D11*
X0245460Y0161370D02*
X0245460Y0160620D01*
X0244710Y0159870D01*
X0245460Y0159120D01*
X0245460Y0158370D01*
X0244710Y0157620D01*
X0243210Y0157620D01*
X0242450Y0158370D01*
X0243960Y0159870D02*
X0244710Y0159870D01*
X0245460Y0161370D02*
X0244710Y0162130D01*
X0243210Y0162130D01*
X0242450Y0161370D01*
X0240850Y0161370D02*
X0240850Y0159870D01*
X0240250Y0159270D01*
X0240100Y0159120D02*
X0240250Y0161978D02*
X0240850Y0161370D01*
X0283250Y0149000D02*
X0286250Y0149000D01*
X0284750Y0149000D02*
X0284750Y0144500D01*
X0287850Y0144500D02*
X0287850Y0149000D01*
X0290100Y0149000D01*
X0290850Y0148250D01*
X0290850Y0146750D01*
X0290100Y0146000D01*
X0287850Y0146000D01*
X0292450Y0146750D02*
X0292450Y0145250D01*
X0293210Y0144500D01*
X0294710Y0144500D01*
X0295460Y0145250D01*
X0295460Y0146000D01*
X0294710Y0146750D01*
X0292450Y0146750D01*
X0293960Y0148250D01*
X0295460Y0149000D01*
X0278960Y0126500D02*
X0278960Y0122000D01*
X0280460Y0122000D02*
X0277450Y0122000D01*
X0275850Y0124250D02*
X0275100Y0123500D01*
X0272850Y0123500D01*
X0272850Y0122000D02*
X0272850Y0126500D01*
X0275100Y0126500D01*
X0275850Y0125750D01*
X0275850Y0124250D01*
X0277450Y0125000D02*
X0278960Y0126500D01*
X0271250Y0126500D02*
X0268250Y0126500D01*
X0269750Y0126500D02*
X0269750Y0122000D01*
X0245460Y0120750D02*
X0242450Y0120750D01*
X0245460Y0123750D01*
X0245460Y0124500D01*
X0244710Y0125250D01*
X0243210Y0125250D01*
X0242450Y0124500D01*
X0240850Y0124500D02*
X0240850Y0123000D01*
X0240250Y0122400D01*
X0240100Y0122250D02*
X0240250Y0125100D02*
X0240850Y0124500D01*
X0299500Y0119000D02*
X0299620Y0119000D01*
X0302500Y0119000D02*
D18*
X0239850Y0103100D02*
X0239850Y0183650D01*
X0300020Y0183650D01*
X0300020Y0103100D01*
X0239850Y0103100D01*
X0307120Y0103500D02*
G75*
%LPD*%
D15*
X0307120Y0103500D02*
X0307120Y0185750D01*
X0369880Y0185750D01*
X0369880Y0103500D01*
X0307120Y0103500D01*
D13*
X0312120Y0104750D02*
X0312120Y0118500D01*
X0313370Y0119750D01*
X0319620Y0119750D01*
X0319620Y0104750D01*
X0312120Y0104750D01*
X0312120Y0113500D02*
X0312120Y0127250D01*
X0313370Y0128500D01*
X0319620Y0128500D01*
X0319620Y0113500D01*
X0312120Y0113500D01*
X0338370Y0118500D02*
X0338370Y0126000D01*
X0352120Y0126000D01*
X0353370Y0124750D01*
X0353370Y0118500D01*
X0338370Y0118500D01*
X0345870Y0119750D02*
X0359620Y0119750D01*
X0360870Y0118500D01*
X0360870Y0112250D01*
X0345870Y0112250D01*
X0345870Y0119750D01*
X0344620Y0124750D02*
X0329620Y0124750D01*
X0329620Y0132250D01*
X0343370Y0132250D01*
X0344620Y0131000D01*
X0344620Y0124750D01*
X0338370Y0130370D02*
X0323370Y0130370D01*
X0323370Y0137870D01*
X0337120Y0137870D01*
X0338370Y0136620D01*
X0338370Y0130370D01*
X0319620Y0136000D02*
X0312120Y0136000D01*
X0312120Y0149750D01*
X0313370Y0151000D01*
X0319620Y0151000D01*
X0319620Y0136000D01*
X0319620Y0137250D02*
X0313370Y0137250D01*
X0312120Y0136000D01*
X0312120Y0122250D01*
X0319620Y0122250D01*
X0319620Y0137250D01*
X0328370Y0137870D02*
X0328370Y0145370D01*
X0342120Y0145370D01*
X0343370Y0144120D01*
X0343370Y0137870D01*
X0328370Y0137870D01*
X0342120Y0138500D02*
X0342120Y0146000D01*
X0355870Y0146000D01*
X0357120Y0144750D01*
X0357120Y0138500D01*
X0342120Y0138500D01*
X0348370Y0144750D02*
X0348370Y0152250D01*
X0362120Y0152250D01*
X0363370Y0151000D01*
X0363370Y0144750D01*
X0348370Y0144750D01*
X0319620Y0144750D02*
X0312120Y0144750D01*
X0312120Y0158500D01*
X0313370Y0159750D01*
X0319620Y0159750D01*
X0319620Y0144750D01*
X0350870Y0152250D02*
X0350870Y0159750D01*
X0364620Y0159750D01*
X0365870Y0158500D01*
X0365870Y0152250D01*
X0350870Y0152250D01*
X0350870Y0159750D02*
X0350870Y0167250D01*
X0364620Y0167250D01*
X0365870Y0166000D01*
X0365870Y0159750D01*
X0350870Y0159750D01*
X0348370Y0167250D02*
X0348370Y0174750D01*
X0362120Y0174750D01*
X0363370Y0173500D01*
X0363370Y0167250D01*
X0348370Y0167250D01*
X0319620Y0167250D02*
X0312120Y0167250D01*
X0312120Y0181000D01*
X0313370Y0182250D01*
X0319620Y0182250D01*
X0319620Y0167250D01*
X0319620Y0168500D02*
X0313370Y0168500D01*
X0312120Y0167250D01*
X0312120Y0153500D01*
X0319620Y0153500D01*
X0319620Y0168500D01*
X0317120Y0174750D02*
X0317120Y0182250D01*
X0330870Y0182250D01*
X0332120Y0181000D01*
X0332120Y0174750D01*
X0317120Y0174750D01*
X0327120Y0174750D02*
X0327120Y0182250D01*
X0340870Y0182250D01*
X0354620Y0182250D01*
X0355870Y0181000D01*
X0355870Y0174750D01*
X0340870Y0174750D01*
X0340870Y0182250D01*
X0342120Y0181000D01*
X0342120Y0174750D01*
X0327120Y0174750D01*
X0352120Y0113500D02*
X0365870Y0113500D01*
X0367120Y0112250D01*
X0367120Y0106000D01*
X0352120Y0106000D01*
X0352120Y0113500D01*
D14*
X0344130Y0112860D02*
X0343560Y0112300D01*
X0342430Y0112300D01*
X0341860Y0112860D01*
X0344130Y0115130D01*
X0344130Y0112860D01*
X0341860Y0112860D02*
X0341860Y0115130D01*
X0342430Y0115700D01*
X0343560Y0115700D01*
X0344130Y0115130D01*
X0340440Y0115130D02*
X0339880Y0115700D01*
X0338740Y0115700D01*
X0338180Y0115130D01*
X0336760Y0115130D02*
X0336190Y0115700D01*
X0334490Y0115700D01*
X0334490Y0112300D01*
X0336190Y0112300D01*
X0336760Y0112860D01*
X0336760Y0115130D01*
X0338180Y0112300D02*
X0340440Y0114570D01*
X0340440Y0115130D01*
X0333320Y0114060D02*
X0333320Y0116330D01*
X0333080Y0115700D02*
X0330810Y0115700D01*
X0330810Y0112300D01*
X0333080Y0112300D01*
X0333320Y0112650D02*
X0333320Y0110380D01*
X0329910Y0110380D01*
X0329390Y0112300D02*
X0327130Y0112300D01*
X0327130Y0115700D01*
X0329910Y0116330D02*
X0329910Y0114060D01*
X0333320Y0114060D01*
X0331940Y0114000D02*
X0330810Y0114000D01*
X0331620Y0114060D02*
X0331620Y0115200D01*
X0333320Y0117750D02*
X0333320Y0119450D01*
X0332750Y0120020D01*
X0330480Y0120020D01*
X0329910Y0119450D01*
X0329910Y0117750D01*
X0333320Y0117750D01*
X0332940Y0118550D02*
X0330680Y0118550D01*
X0331810Y0118550D02*
X0331810Y0121950D01*
X0330680Y0120820D01*
X0331050Y0121430D02*
X0329910Y0122560D01*
X0333320Y0122560D01*
X0333320Y0121430D02*
X0333320Y0123700D01*
X0333320Y0125110D02*
X0332750Y0125110D01*
X0330480Y0127380D01*
X0329910Y0127380D01*
X0329910Y0125110D01*
X0327880Y0125360D02*
X0327880Y0125930D01*
X0327310Y0126500D01*
X0326180Y0126500D01*
X0325610Y0127070D01*
X0325610Y0127630D01*
X0326180Y0128200D01*
X0327310Y0128200D01*
X0327880Y0127630D01*
X0327880Y0127070D01*
X0327310Y0126500D01*
X0326180Y0126500D02*
X0325610Y0125930D01*
X0325610Y0125360D01*
X0326180Y0124800D01*
X0327310Y0124800D01*
X0327880Y0125360D01*
X0324190Y0124800D02*
X0321930Y0124800D01*
X0323060Y0124800D02*
X0323060Y0128200D01*
X0321930Y0127070D01*
X0320510Y0127630D02*
X0320510Y0125360D01*
X0319940Y0124800D01*
X0318240Y0124800D01*
X0318240Y0128200D01*
X0319940Y0128200D01*
X0320510Y0127630D01*
X0316830Y0128200D02*
X0314560Y0128200D01*
X0314560Y0124800D01*
X0316830Y0124800D01*
X0315690Y0126500D02*
X0314560Y0126500D01*
X0313140Y0124800D02*
X0310880Y0124800D01*
X0310880Y0128200D01*
X0310380Y0128320D02*
X0309810Y0127750D01*
X0310380Y0127180D01*
X0310380Y0126610D01*
X0309810Y0126050D01*
X0308680Y0126050D01*
X0308110Y0126610D01*
X0309240Y0127750D02*
X0309810Y0127750D01*
X0310380Y0128320D02*
X0310380Y0128880D01*
X0309810Y0129450D01*
X0308680Y0129450D01*
X0308110Y0128880D01*
X0308110Y0117300D02*
X0310380Y0119570D01*
X0310380Y0120130D01*
X0309810Y0120700D01*
X0308680Y0120700D01*
X0308110Y0120130D01*
X0308110Y0117300D02*
X0310380Y0117300D01*
X0319630Y0118550D02*
X0321890Y0118550D01*
X0323310Y0118550D02*
X0325580Y0118550D01*
X0326990Y0118550D02*
X0328690Y0118550D01*
X0329260Y0119110D01*
X0329260Y0121380D01*
X0328690Y0121950D01*
X0326990Y0121950D01*
X0326990Y0118550D01*
X0324440Y0120250D02*
X0323310Y0120250D01*
X0323310Y0121950D02*
X0323310Y0118550D01*
X0319630Y0118550D02*
X0319630Y0121950D01*
X0323310Y0121950D02*
X0325580Y0121950D01*
X0334360Y0121380D02*
X0334360Y0120820D01*
X0334930Y0120250D01*
X0336630Y0120250D01*
X0336630Y0121380D02*
X0336630Y0119110D01*
X0336060Y0118550D01*
X0334930Y0118550D01*
X0334360Y0119110D01*
X0334910Y0119130D02*
X0338320Y0119130D01*
X0338320Y0121400D01*
X0338320Y0122810D02*
X0334910Y0122810D01*
X0334910Y0125080D01*
X0334910Y0126500D02*
X0334910Y0128200D01*
X0335480Y0128770D01*
X0337750Y0128770D01*
X0338320Y0128200D01*
X0338320Y0126500D01*
X0334910Y0126500D01*
X0336620Y0123950D02*
X0336620Y0122810D01*
X0336060Y0121950D02*
X0334930Y0121950D01*
X0334360Y0121380D01*
X0336060Y0121950D02*
X0336630Y0121380D01*
X0338320Y0122810D02*
X0338320Y0125080D01*
X0338320Y0130180D02*
X0338320Y0132450D01*
X0338320Y0131310D02*
X0334910Y0131310D01*
X0336050Y0130180D01*
X0336620Y0133860D02*
X0336620Y0135560D01*
X0337180Y0136130D01*
X0337750Y0136130D01*
X0338320Y0135560D01*
X0338320Y0134430D01*
X0337750Y0133860D01*
X0336620Y0133860D01*
X0335480Y0135000D01*
X0334910Y0136130D01*
X0310380Y0141500D02*
X0308110Y0141500D01*
X0309810Y0143200D01*
X0309810Y0139800D01*
X0308110Y0151950D02*
X0308110Y0150250D01*
X0309240Y0150820D01*
X0309810Y0150820D01*
X0310380Y0150250D01*
X0310380Y0149110D01*
X0309810Y0148550D01*
X0308680Y0148550D01*
X0308110Y0149110D01*
X0308110Y0151950D02*
X0310380Y0151950D01*
X0309810Y0157300D02*
X0310380Y0157860D01*
X0310380Y0158430D01*
X0309810Y0159000D01*
X0308110Y0159000D01*
X0308110Y0157860D01*
X0308680Y0157300D01*
X0309810Y0157300D01*
X0308110Y0159000D02*
X0309240Y0160130D01*
X0310380Y0160700D01*
X0308110Y0174450D02*
X0310380Y0174450D01*
X0310380Y0173880D01*
X0308110Y0171610D01*
X0308110Y0171050D01*
X0320910Y0183170D02*
X0324320Y0183170D01*
X0324320Y0185440D01*
X0334320Y0185440D02*
X0334320Y0183170D01*
X0330910Y0183170D01*
X0344660Y0183170D02*
X0348070Y0183170D01*
X0348070Y0185440D01*
X0364290Y0178450D02*
X0364290Y0175050D01*
X0366560Y0175050D01*
X0367970Y0175050D02*
X0369880Y0175050D01*
X0370240Y0175050D02*
X0369110Y0176750D02*
X0367970Y0176750D01*
X0367970Y0178450D02*
X0367970Y0175050D01*
X0369880Y0178450D02*
X0367970Y0178450D01*
X0369880Y0155050D02*
X0368040Y0155050D01*
X0368040Y0158450D01*
X0369880Y0152200D02*
X0369220Y0152200D01*
X0369220Y0148800D01*
X0369880Y0148800D01*
X0371490Y0148800D02*
X0369880Y0150500D02*
X0369220Y0150500D01*
X0367810Y0148800D02*
X0365540Y0148800D01*
X0365540Y0152200D01*
X0364290Y0145950D02*
X0364290Y0142550D01*
X0366560Y0142550D01*
X0367970Y0142550D02*
X0369880Y0142550D01*
X0370240Y0142550D02*
X0369110Y0144250D02*
X0367970Y0144250D01*
X0367970Y0145950D02*
X0367970Y0142550D01*
X0369880Y0145950D02*
X0367970Y0145950D01*
X0307120Y0111080D02*
X0307990Y0111950D01*
X0307990Y0108550D01*
X0307120Y0108550D02*
X0309130Y0108550D01*
X0333380Y0109450D02*
X0333380Y0106050D01*
X0335640Y0106050D01*
X0337060Y0106050D02*
X0339330Y0106050D01*
X0340740Y0106050D02*
X0342440Y0106050D01*
X0343010Y0106610D01*
X0343010Y0108880D01*
X0342440Y0109450D01*
X0340740Y0109450D01*
X0340740Y0106050D01*
X0338190Y0107750D02*
X0337060Y0107750D01*
X0337060Y0109450D02*
X0337060Y0106050D01*
X0344430Y0106050D02*
X0346690Y0108320D01*
X0346690Y0108880D01*
X0346130Y0109450D01*
X0344990Y0109450D01*
X0344430Y0108880D01*
X0344430Y0106050D02*
X0346690Y0106050D01*
X0348110Y0106050D02*
X0350380Y0106050D01*
X0349240Y0106050D02*
X0349240Y0109450D01*
X0348110Y0108320D01*
X0339330Y0109450D02*
X0337060Y0109450D01*
X0338180Y0112300D02*
X0340440Y0112300D01*
D11*
X0344360Y0109680D02*
X0344360Y0112690D01*
X0344360Y0111190D02*
X0348870Y0111190D01*
X0348870Y0114290D02*
X0344360Y0114290D01*
X0344360Y0116540D01*
X0345110Y0117290D01*
X0346610Y0117290D01*
X0347370Y0116540D01*
X0347370Y0114290D01*
X0348120Y0118890D02*
X0348870Y0119640D01*
X0348870Y0121140D01*
X0348120Y0121900D01*
X0347370Y0121900D01*
X0346610Y0121140D01*
X0346610Y0118890D01*
X0348120Y0118890D01*
X0346610Y0118890D02*
X0345110Y0120390D01*
X0344360Y0121900D01*
X0358740Y0113150D02*
X0359490Y0113150D01*
X0362490Y0110140D01*
X0363240Y0110140D01*
X0360990Y0108540D02*
X0361740Y0107790D01*
X0361740Y0105540D01*
X0363240Y0105540D02*
X0358740Y0105540D01*
X0358740Y0107790D01*
X0359490Y0108540D01*
X0360990Y0108540D01*
X0358740Y0110140D02*
X0358740Y0113150D01*
X0358740Y0103940D02*
X0358740Y0103500D01*
X0358740Y0100930D02*
X0363870Y0140250D02*
X0366870Y0140250D01*
X0365370Y0140250D02*
X0365370Y0135750D01*
X0368470Y0135750D02*
X0368470Y0140250D01*
X0369880Y0140250D01*
X0370720Y0140250D02*
X0369880Y0137250D02*
X0368470Y0137250D01*
D18*
X0306720Y0103100D02*
X0306720Y0186150D01*
X0369480Y0186150D01*
X0369480Y0103100D01*
X0369480Y0103100D02*
X0306720Y0103100D01*
M02*
