G75*
G70*
%OFA0B0*%
%FSLAX25Y25*%
%IPPOS*%
%LPD*%
%AMOC8*
5,1,8,0,0,1.08239X$1,22.5*
%
%ADD10C,0.03970*%
%ADD14C,0.00600*%
%ADD15C,0.00000*%
%ADD16R,0.04720X0.04720*%
X0010000Y0010000D02*
G75*
%LPD*%
D15*
X0010000Y0010000D02*
X0010000Y0090000D01*
X0055000Y0090000D01*
X0070000Y0075000D01*
X0070000Y0045000D01*
X0055000Y0030000D01*
X0027000Y0030000D01*
X0027000Y0010000D01*
X0010000Y0010000D01*
D16*
X0017500Y0013360D03*
X0017500Y0021630D03*
X0017500Y0022110D03*
X0017500Y0030380D03*
X0017500Y0030860D03*
X0017500Y0039130D03*
X0023360Y0040620D03*
X0031630Y0040620D03*
X0032110Y0040620D03*
X0040380Y0040620D03*
X0040860Y0040620D03*
X0049130Y0040620D03*
X0055620Y0039610D03*
X0061870Y0045240D03*
X0055620Y0047880D03*
X0061870Y0053510D03*
X0061870Y0053990D03*
X0061870Y0062260D03*
X0061870Y0067740D03*
X0061870Y0076010D03*
X0051630Y0083120D03*
X0043360Y0083120D03*
X0037880Y0083120D03*
X0029610Y0083120D03*
X0029130Y0083120D03*
X0020860Y0083120D03*
X0017500Y0084130D03*
X0017500Y0075860D03*
X0017500Y0070380D03*
X0017500Y0062110D03*
X0017500Y0061630D03*
X0017500Y0053360D03*
X0017500Y0052880D03*
X0017500Y0044610D03*
D16*
G36*
X0056460Y0076450D02*
X0059790Y0079780D01*
X0063120Y0076450D01*
X0059790Y0073120D01*
X0056460Y0076450D01*
G37*
G36*
X0050620Y0082290D02*
X0053950Y0085620D01*
X0057280Y0082290D01*
X0053950Y0078960D01*
X0050620Y0082290D01*
G37*
D10*
X0038120Y0086870D03*
X0013750Y0070620D03*
X0066250Y0067500D03*
X0023120Y0044370D03*
X0013750Y0039370D03*
X0055620Y0036250D03*
X0013750Y0013120D03*
D14*
X0017260Y0013120D01*
X0017500Y0013360D01*
X0020860Y0013360D01*
X0022500Y0015000D01*
X0022500Y0032500D01*
X0027500Y0037500D01*
X0028750Y0036250D01*
X0047500Y0036250D01*
X0049130Y0037880D01*
X0049130Y0040620D01*
X0050000Y0041490D01*
X0050000Y0050000D01*
X0052500Y0052500D01*
X0055000Y0052500D01*
X0057500Y0055000D01*
X0057500Y0060000D01*
X0059760Y0062260D01*
X0061870Y0062260D01*
X0061630Y0062500D01*
X0060000Y0062500D01*
X0057500Y0065000D01*
X0057500Y0072500D01*
X0052500Y0077500D01*
X0047500Y0077500D01*
X0043360Y0081630D01*
X0043360Y0083120D01*
X0043360Y0080860D01*
X0040000Y0077500D01*
X0022500Y0077500D01*
X0020860Y0075860D01*
X0017500Y0075860D01*
X0017500Y0070380D02*
X0013990Y0070380D01*
X0013750Y0070620D01*
X0017500Y0062110D02*
X0017500Y0061630D01*
X0017500Y0053360D02*
X0017500Y0052880D01*
X0021250Y0048750D02*
X0017500Y0045000D01*
X0017500Y0044610D01*
X0023120Y0044370D02*
X0023360Y0044130D01*
X0023360Y0040620D01*
X0017500Y0039130D02*
X0017260Y0039370D01*
X0013750Y0039370D01*
X0027500Y0037500D02*
X0027500Y0046250D01*
X0025000Y0048750D01*
X0021250Y0048750D01*
X0031630Y0040620D02*
X0032110Y0040620D01*
X0040380Y0040620D02*
X0040860Y0040620D01*
X0055620Y0039610D02*
X0055620Y0036250D01*
X0061870Y0045240D02*
X0059230Y0047880D01*
X0055620Y0047880D01*
X0017500Y0030860D02*
X0017500Y0030380D01*
X0061870Y0067740D02*
X0066010Y0067740D01*
X0066250Y0067500D01*
X0061870Y0076010D02*
X0061430Y0076450D01*
X0059790Y0076450D01*
X0053950Y0082290D02*
X0053120Y0083120D01*
X0051630Y0083120D01*
X0037880Y0083120D02*
X0037880Y0086630D01*
X0038120Y0086870D01*
X0020860Y0083120D02*
X0019850Y0084130D01*
X0017500Y0084130D01*
X0029130Y0083120D02*
X0029610Y0083120D01*
X0077500Y0010000D02*
G75*
%LPD*%
D15*
X0077500Y0010000D02*
X0077500Y0096000D01*
X0137230Y0096000D01*
X0137230Y0010000D01*
X0077500Y0010000D01*
D16*
X0099370Y0014610D03*
X0106870Y0014610D03*
X0114370Y0014610D03*
X0121870Y0018360D03*
X0114370Y0022880D03*
X0106870Y0022880D03*
X0099370Y0022880D03*
X0091870Y0018360D03*
X0085000Y0025860D03*
X0091870Y0026630D03*
X0085000Y0034130D03*
X0085000Y0034610D03*
X0085000Y0042880D03*
X0085000Y0048360D03*
X0085000Y0056630D03*
X0085000Y0057110D03*
X0085000Y0065380D03*
X0085000Y0065860D03*
X0091250Y0073360D03*
X0085000Y0074130D03*
X0097500Y0077110D03*
X0103750Y0077110D03*
X0110000Y0077110D03*
X0116250Y0077110D03*
X0128750Y0074130D03*
X0122500Y0073360D03*
X0128750Y0065860D03*
X0128750Y0065380D03*
X0128750Y0057110D03*
X0128750Y0056630D03*
X0128750Y0048360D03*
X0128750Y0042880D03*
X0128750Y0034610D03*
X0128750Y0034130D03*
X0121870Y0026630D03*
X0128750Y0025860D03*
X0122500Y0081630D03*
X0116250Y0085380D03*
X0110000Y0085380D03*
X0103750Y0085380D03*
X0097500Y0085380D03*
X0091250Y0081630D03*
D10*
X0085000Y0077500D03*
X0122500Y0085000D03*
X0103750Y0088750D03*
X0125000Y0048120D03*
X0088750Y0043120D03*
X0121870Y0030620D03*
X0099370Y0026250D03*
X0088120Y0018120D03*
D14*
X0088120Y0018360D01*
X0084130Y0018360D01*
X0080000Y0022500D01*
X0080000Y0046250D01*
X0081250Y0047500D01*
X0084130Y0047500D01*
X0085000Y0048360D01*
X0089610Y0048360D01*
X0091250Y0050000D01*
X0091250Y0073360D01*
X0091630Y0073360D01*
X0095000Y0070000D01*
X0106250Y0070000D01*
X0110000Y0073750D01*
X0115000Y0068750D01*
X0123750Y0068750D01*
X0120000Y0065000D01*
X0120000Y0046250D01*
X0123360Y0042880D01*
X0118120Y0037640D01*
X0118120Y0015000D01*
X0117740Y0014610D01*
X0114370Y0014610D01*
X0106870Y0014610D02*
X0106870Y0016870D01*
X0108750Y0018750D01*
X0110240Y0018750D01*
X0114370Y0022880D01*
X0106870Y0022880D02*
X0102740Y0018750D01*
X0101250Y0018750D01*
X0099370Y0016870D01*
X0099370Y0014610D01*
X0091870Y0018360D02*
X0088120Y0018360D01*
X0099370Y0022880D02*
X0099370Y0026250D01*
X0091870Y0026630D02*
X0091100Y0025860D01*
X0085000Y0025860D01*
X0121870Y0018990D02*
X0128750Y0025860D01*
X0121870Y0018990D02*
X0121870Y0018360D01*
X0123360Y0042880D02*
X0128750Y0042880D01*
X0128510Y0048120D02*
X0125000Y0048120D01*
X0128510Y0048120D02*
X0128750Y0048360D01*
X0088750Y0043120D02*
X0088510Y0042880D01*
X0085000Y0042880D01*
X0123750Y0068750D02*
X0125000Y0068750D01*
X0128750Y0072500D01*
X0128750Y0074130D01*
X0124370Y0078120D02*
X0122500Y0076250D01*
X0122500Y0073360D01*
X0110000Y0073750D02*
X0110000Y0077110D01*
X0116250Y0077110D02*
X0116250Y0080000D01*
X0110000Y0082500D01*
X0110000Y0085380D01*
X0116250Y0085380D02*
X0116250Y0086250D01*
X0118750Y0088750D01*
X0126250Y0088750D01*
X0127500Y0087500D01*
X0127500Y0080000D01*
X0125620Y0078120D01*
X0124370Y0078120D01*
X0122500Y0081630D02*
X0122500Y0085000D01*
X0103750Y0085380D02*
X0103750Y0088750D01*
X0097500Y0085380D02*
X0097500Y0082500D01*
X0103750Y0080000D01*
X0103750Y0077110D01*
X0097500Y0077110D02*
X0092980Y0081630D01*
X0091250Y0081630D01*
X0085000Y0077500D02*
X0085000Y0074130D01*
X0144730Y0010000D02*
G75*
%LPD*%
D15*
X0144730Y0010000D02*
X0144730Y0092250D01*
X0203740Y0092250D01*
X0203740Y0010000D01*
X0144730Y0010000D01*
D16*
X0153480Y0017110D03*
X0161600Y0023360D03*
X0153480Y0025380D03*
X0153480Y0030860D03*
X0161600Y0031630D03*
X0169730Y0032110D03*
X0177850Y0032110D03*
X0185980Y0031630D03*
X0195350Y0030860D03*
X0195350Y0025380D03*
X0185980Y0023360D03*
X0195350Y0017110D03*
X0195350Y0039130D03*
X0195350Y0039610D03*
X0177850Y0040380D03*
X0169730Y0040380D03*
X0153480Y0039610D03*
X0153480Y0039130D03*
X0153480Y0047880D03*
X0153480Y0048360D03*
X0153480Y0056630D03*
X0153480Y0062110D03*
X0153480Y0070380D03*
X0153480Y0070860D03*
X0153480Y0079130D03*
X0153480Y0079610D03*
X0153480Y0087880D03*
X0195350Y0087880D03*
X0195350Y0079610D03*
X0195350Y0079130D03*
X0195350Y0070860D03*
X0195350Y0070380D03*
X0195350Y0062110D03*
X0195350Y0056630D03*
X0195350Y0048360D03*
X0195350Y0047880D03*
D10*
X0191600Y0061870D03*
X0149730Y0061870D03*
X0157230Y0088120D03*
X0149730Y0030620D03*
X0169730Y0028750D03*
X0191600Y0030620D03*
X0191600Y0016870D03*
D14*
X0195110Y0016870D01*
X0195350Y0017110D01*
X0193330Y0023360D02*
X0185980Y0023360D01*
X0193330Y0023360D02*
X0195350Y0025380D01*
X0195110Y0030620D02*
X0191600Y0030620D01*
X0195110Y0030620D02*
X0195350Y0030860D01*
X0185980Y0031630D02*
X0185490Y0032110D01*
X0177850Y0032110D01*
X0169730Y0032110D02*
X0169730Y0028750D01*
X0165980Y0027500D02*
X0165980Y0036630D01*
X0169730Y0040380D01*
X0173240Y0045000D02*
X0177850Y0040380D01*
X0178240Y0040000D01*
X0179730Y0040000D01*
X0183480Y0036250D01*
X0187230Y0036250D01*
X0189730Y0038750D01*
X0189730Y0052500D01*
X0193860Y0056630D01*
X0195350Y0056630D01*
X0197610Y0056630D01*
X0199730Y0058750D01*
X0199730Y0086250D01*
X0198090Y0087880D01*
X0195350Y0087880D01*
X0157230Y0088120D02*
X0157230Y0057500D01*
X0156360Y0056630D01*
X0153480Y0056630D01*
X0155590Y0056630D01*
X0157230Y0055000D01*
X0157230Y0037500D01*
X0164730Y0045000D01*
X0173240Y0045000D01*
X0153480Y0047880D02*
X0153480Y0048360D01*
X0153480Y0039610D02*
X0153480Y0039130D01*
X0157230Y0037500D02*
X0157230Y0027500D01*
X0155110Y0025380D01*
X0153480Y0025380D01*
X0157230Y0025000D02*
X0158480Y0026250D01*
X0158480Y0026870D01*
X0161600Y0030000D01*
X0161600Y0031630D01*
X0153480Y0030860D02*
X0149970Y0030860D01*
X0149730Y0030620D01*
X0157230Y0025000D02*
X0157230Y0021250D01*
X0153480Y0017500D01*
X0153480Y0017110D01*
X0161600Y0023360D02*
X0161840Y0023360D01*
X0165980Y0027500D01*
X0153480Y0062110D02*
X0149970Y0062110D01*
X0149730Y0061870D01*
X0153480Y0070380D02*
X0153480Y0070860D01*
X0153480Y0079130D02*
X0153480Y0079610D01*
X0153480Y0087880D02*
X0156990Y0087880D01*
X0157230Y0088120D01*
X0191600Y0061870D02*
X0195110Y0061870D01*
X0195350Y0062110D01*
X0211240Y0010000D02*
G75*
%LPD*%
D15*
X0211240Y0010000D02*
X0211240Y0089750D01*
X0270250Y0089750D01*
X0270250Y0072500D01*
X0228740Y0072500D01*
X0228740Y0058750D01*
X0253740Y0058750D01*
X0253740Y0041250D01*
X0228740Y0041250D01*
X0228740Y0027500D01*
X0270610Y0027500D01*
X0270610Y0010000D01*
X0211240Y0010000D01*
D16*
X0216480Y0018750D03*
X0224750Y0018750D03*
X0225230Y0018750D03*
X0217490Y0021490D03*
X0233500Y0018750D03*
X0238980Y0018750D03*
X0247250Y0018750D03*
X0247730Y0018750D03*
X0256000Y0018750D03*
X0256480Y0018750D03*
X0264750Y0018750D03*
X0217490Y0029760D03*
X0217490Y0035240D03*
X0217490Y0043510D03*
X0217490Y0044610D03*
X0223350Y0050000D03*
X0231620Y0050000D03*
X0232100Y0050000D03*
X0240370Y0050000D03*
X0240850Y0050000D03*
X0249120Y0050000D03*
X0217490Y0052880D03*
X0217490Y0053360D03*
X0217490Y0061630D03*
X0217490Y0067110D03*
X0217490Y0075380D03*
X0217490Y0075860D03*
X0221480Y0083120D03*
X0217490Y0084130D03*
X0229750Y0083120D03*
X0237100Y0083120D03*
X0245370Y0083120D03*
X0247100Y0083120D03*
X0255370Y0083120D03*
X0257100Y0083120D03*
X0265370Y0083120D03*
D10*
X0265610Y0079370D03*
X0229990Y0079370D03*
X0221240Y0061870D03*
X0248740Y0053750D03*
X0221240Y0030000D03*
X0238740Y0022500D03*
X0264990Y0022500D03*
D14*
X0264990Y0018750D01*
X0264750Y0018750D01*
X0264750Y0018510D01*
X0259990Y0013750D01*
X0236240Y0013750D01*
X0233740Y0016250D01*
X0233740Y0018510D01*
X0233500Y0018750D01*
X0233500Y0018990D01*
X0226240Y0026250D01*
X0226240Y0031250D01*
X0222490Y0035000D01*
X0222490Y0049130D01*
X0223350Y0050000D01*
X0223350Y0057110D01*
X0226240Y0060000D01*
X0226240Y0065000D01*
X0223740Y0067500D01*
X0223740Y0071250D01*
X0227490Y0075000D01*
X0232490Y0075000D01*
X0237490Y0080000D01*
X0237490Y0082740D01*
X0237100Y0083120D01*
X0229750Y0083120D02*
X0229750Y0079610D01*
X0229990Y0079370D01*
X0221480Y0083120D02*
X0220470Y0084130D01*
X0217490Y0084130D01*
X0245370Y0083120D02*
X0247100Y0083120D01*
X0255370Y0083120D02*
X0257100Y0083120D01*
X0265370Y0083120D02*
X0265370Y0079610D01*
X0265610Y0079370D01*
X0223740Y0067500D02*
X0223350Y0067110D01*
X0217490Y0067110D01*
X0217490Y0061630D02*
X0221000Y0061630D01*
X0221240Y0061870D01*
X0217490Y0053360D02*
X0217490Y0052880D01*
X0231620Y0050000D02*
X0232100Y0050000D01*
X0240370Y0050000D02*
X0240850Y0050000D01*
X0249120Y0050000D02*
X0249120Y0053360D01*
X0248740Y0053750D01*
X0217490Y0044610D02*
X0217490Y0043510D01*
X0217490Y0035240D02*
X0217730Y0035000D01*
X0222490Y0035000D01*
X0221240Y0030000D02*
X0221000Y0029760D01*
X0217490Y0029760D01*
X0217490Y0021490D02*
X0216480Y0020480D01*
X0216480Y0018750D01*
X0224750Y0018750D02*
X0225230Y0018750D01*
X0238980Y0018750D02*
X0238980Y0022260D01*
X0238740Y0022500D01*
X0247250Y0018750D02*
X0247730Y0018750D01*
X0256000Y0018750D02*
X0256480Y0018750D01*
X0217490Y0075380D02*
X0217490Y0075860D01*
X0278110Y0010000D02*
G75*
%LPD*%
D15*
X0278110Y0010000D02*
X0278110Y0092250D01*
X0340870Y0092250D01*
X0340870Y0010000D01*
X0278110Y0010000D01*
D16*
X0286860Y0014610D03*
X0286860Y0022880D03*
X0286860Y0023360D03*
X0312720Y0028750D03*
X0320990Y0028750D03*
X0312240Y0035000D03*
X0303970Y0035000D03*
X0286860Y0032110D03*
X0286860Y0031630D03*
X0320220Y0022500D03*
X0328490Y0022500D03*
X0326470Y0016250D03*
X0334740Y0016250D03*
X0305990Y0040620D03*
X0297720Y0040620D03*
X0286860Y0040380D03*
X0286860Y0045860D03*
X0302720Y0048120D03*
X0310990Y0048120D03*
X0316470Y0048750D03*
X0324740Y0048750D03*
X0322720Y0055000D03*
X0330990Y0055000D03*
X0333490Y0062500D03*
X0325220Y0062500D03*
X0325220Y0070000D03*
X0333490Y0070000D03*
X0330990Y0077500D03*
X0322720Y0077500D03*
X0323490Y0085000D03*
X0315220Y0085000D03*
X0309740Y0085000D03*
X0301470Y0085000D03*
X0299740Y0085000D03*
X0291470Y0085000D03*
X0286860Y0085380D03*
X0286860Y0077110D03*
X0286860Y0071630D03*
X0286860Y0063360D03*
X0286860Y0062880D03*
X0286860Y0054610D03*
X0286860Y0054130D03*
D10*
X0328110Y0048750D03*
X0283110Y0040620D03*
X0315610Y0035000D03*
X0334980Y0020000D03*
X0283110Y0013750D03*
X0336860Y0070000D03*
X0283110Y0071870D03*
X0309980Y0088750D03*
D14*
X0309740Y0088750D01*
X0309740Y0085000D01*
X0313110Y0081250D02*
X0315220Y0083360D01*
X0315220Y0085000D01*
X0323490Y0085000D02*
X0323490Y0078260D01*
X0322720Y0077500D01*
X0325610Y0073750D02*
X0329360Y0077500D01*
X0330990Y0077500D01*
X0325610Y0073750D02*
X0325610Y0070380D01*
X0325220Y0070000D01*
X0320610Y0072500D02*
X0320610Y0067110D01*
X0325220Y0062500D01*
X0325220Y0060860D01*
X0321470Y0060860D01*
X0318110Y0057500D01*
X0318110Y0056250D01*
X0314360Y0052500D01*
X0306470Y0052500D01*
X0302720Y0048750D01*
X0302720Y0048120D01*
X0296230Y0048120D01*
X0293110Y0045000D01*
X0293110Y0032500D01*
X0296860Y0028750D01*
X0312720Y0028750D01*
X0320990Y0028750D02*
X0321860Y0029130D01*
X0321860Y0026250D01*
X0320220Y0024610D01*
X0320220Y0022500D01*
X0326470Y0018360D02*
X0328110Y0020000D01*
X0328110Y0023360D01*
X0328490Y0022500D01*
X0334980Y0020000D02*
X0334980Y0017740D01*
X0334740Y0016250D01*
X0326470Y0016250D02*
X0326470Y0018360D01*
X0290610Y0016250D02*
X0288970Y0014610D01*
X0286860Y0014610D01*
X0286860Y0013750D01*
X0283110Y0013750D01*
X0290610Y0016250D02*
X0290610Y0042740D01*
X0287480Y0045860D01*
X0286860Y0045860D01*
X0288970Y0045860D01*
X0290610Y0047500D01*
X0290610Y0076250D01*
X0289360Y0077500D01*
X0293110Y0081250D01*
X0313110Y0081250D01*
X0316860Y0081250D01*
X0318110Y0080000D01*
X0318110Y0075000D01*
X0320610Y0072500D01*
X0333490Y0070000D02*
X0336860Y0070000D01*
X0333490Y0062500D02*
X0331860Y0062500D01*
X0325220Y0055860D01*
X0322720Y0055000D01*
X0330990Y0055000D02*
X0331860Y0054130D01*
X0331860Y0046250D01*
X0330610Y0045000D01*
X0319360Y0045000D01*
X0317720Y0046630D01*
X0316470Y0048750D01*
X0310990Y0048120D02*
X0307240Y0044370D01*
X0303110Y0044370D01*
X0299980Y0041250D01*
X0297720Y0040620D01*
X0303970Y0039230D02*
X0305990Y0040620D01*
X0303970Y0039230D02*
X0303970Y0035000D01*
X0312240Y0035000D02*
X0315610Y0035000D01*
X0286860Y0040380D02*
X0286860Y0040620D01*
X0283110Y0040620D01*
X0324740Y0048750D02*
X0328110Y0048750D01*
X0286860Y0071630D02*
X0286860Y0071870D01*
X0283110Y0071870D01*
X0286860Y0077110D02*
X0287240Y0077500D01*
X0289360Y0077500D01*
X0291470Y0085000D02*
X0287240Y0085000D01*
X0286860Y0085380D01*
X0010000Y0103500D02*
G75*
%LPD*%
D15*
X0010000Y0103500D02*
X0010000Y0200750D01*
X0099010Y0200750D01*
X0099010Y0103500D01*
X0010000Y0103500D01*
D16*
X0050000Y0109360D03*
X0050000Y0117630D03*
X0050000Y0118110D03*
X0050000Y0126380D03*
X0050000Y0126860D03*
X0050000Y0135130D03*
X0050000Y0140610D03*
X0050000Y0148880D03*
X0050000Y0149360D03*
X0050000Y0157630D03*
X0050000Y0158110D03*
X0050000Y0166380D03*
X0050000Y0171860D03*
X0050000Y0180130D03*
X0054130Y0186000D03*
X0059610Y0186000D03*
X0067880Y0186000D03*
X0071490Y0186000D03*
X0079760Y0186000D03*
X0045860Y0186000D03*
X0040380Y0186000D03*
X0032110Y0186000D03*
X0027880Y0186000D03*
X0019610Y0186000D03*
D10*
X0019370Y0182250D03*
X0080000Y0182250D03*
X0053750Y0166620D03*
X0053750Y0135370D03*
X0053750Y0109120D03*
D14*
X0050000Y0109360D01*
X0046250Y0113110D01*
X0046250Y0138500D01*
X0048360Y0140610D01*
X0050000Y0140610D01*
X0047880Y0140610D01*
X0046250Y0142250D01*
X0046250Y0169120D01*
X0048990Y0171860D01*
X0050000Y0171860D01*
X0045860Y0176000D01*
X0045860Y0186000D01*
X0042500Y0189750D02*
X0040380Y0187630D01*
X0040380Y0186000D01*
X0032110Y0186000D02*
X0027880Y0186000D01*
X0019610Y0186000D02*
X0019370Y0185760D01*
X0019370Y0182250D01*
X0042500Y0189750D02*
X0048750Y0189750D01*
X0050000Y0188500D01*
X0050000Y0180130D01*
X0054130Y0186000D02*
X0059610Y0186000D01*
X0067880Y0186000D02*
X0071490Y0186000D01*
X0079760Y0186000D02*
X0079760Y0182490D01*
X0080000Y0182250D01*
X0053750Y0166620D02*
X0053510Y0166380D01*
X0050000Y0166380D01*
X0050000Y0158110D02*
X0050000Y0157630D01*
X0050000Y0149360D02*
X0050000Y0148880D01*
X0050000Y0135130D02*
X0053750Y0135370D01*
X0050000Y0126860D02*
X0050000Y0126380D01*
X0050000Y0118110D02*
X0050000Y0117630D01*
X0106510Y0103500D02*
G75*
%LPD*%
D15*
X0106510Y0103500D02*
X0106510Y0189500D01*
X0166240Y0189500D01*
X0166240Y0103500D01*
X0106510Y0103500D01*
D16*
X0128380Y0108110D03*
X0135880Y0108110D03*
X0143380Y0108110D03*
X0150880Y0111860D03*
X0143380Y0116380D03*
X0135880Y0116380D03*
X0128380Y0116380D03*
X0120880Y0111860D03*
X0114010Y0119360D03*
X0120880Y0120130D03*
X0114010Y0127630D03*
X0114010Y0128110D03*
X0114010Y0136380D03*
X0114010Y0141860D03*
X0114010Y0150130D03*
X0114010Y0150610D03*
X0114010Y0158880D03*
X0114010Y0159360D03*
X0120260Y0166860D03*
X0114010Y0167630D03*
X0126510Y0170610D03*
X0132760Y0170610D03*
X0139010Y0170610D03*
X0145260Y0170610D03*
X0157760Y0167630D03*
X0151510Y0166860D03*
X0157760Y0159360D03*
X0157760Y0158880D03*
X0157760Y0150610D03*
X0157760Y0150130D03*
X0157760Y0141860D03*
X0157760Y0136380D03*
X0157760Y0128110D03*
X0157760Y0127630D03*
X0150880Y0120130D03*
X0157760Y0119360D03*
X0151510Y0175130D03*
X0145260Y0178880D03*
X0139010Y0178880D03*
X0132760Y0178880D03*
X0126510Y0178880D03*
X0120260Y0175130D03*
D10*
X0114010Y0171000D03*
X0151510Y0178500D03*
X0132760Y0182250D03*
X0154010Y0141620D03*
X0117760Y0136620D03*
X0150880Y0124120D03*
X0128380Y0119750D03*
X0117130Y0111620D03*
D14*
X0117130Y0111860D01*
X0113140Y0111860D01*
X0109010Y0116000D01*
X0109010Y0139750D01*
X0110260Y0141000D01*
X0113140Y0141000D01*
X0114010Y0141860D01*
X0118620Y0141860D01*
X0120260Y0143500D01*
X0120260Y0166860D01*
X0120640Y0166860D01*
X0124010Y0163500D01*
X0135260Y0163500D01*
X0139010Y0167250D01*
X0144010Y0162250D01*
X0152760Y0162250D01*
X0149010Y0158500D01*
X0149010Y0139750D01*
X0152370Y0136380D01*
X0147130Y0131140D01*
X0147130Y0108500D01*
X0146750Y0108110D01*
X0143380Y0108110D01*
X0135880Y0108110D02*
X0135880Y0110370D01*
X0137760Y0112250D01*
X0139250Y0112250D01*
X0143380Y0116380D01*
X0135880Y0116380D02*
X0131750Y0112250D01*
X0130260Y0112250D01*
X0128380Y0110370D01*
X0128380Y0108110D01*
X0120880Y0111860D02*
X0117130Y0111860D01*
X0128380Y0116380D02*
X0128380Y0119750D01*
X0120880Y0120130D02*
X0120110Y0119360D01*
X0114010Y0119360D01*
X0150880Y0112490D02*
X0157760Y0119360D01*
X0150880Y0112490D02*
X0150880Y0111860D01*
X0152370Y0136380D02*
X0157760Y0136380D01*
X0157520Y0141620D02*
X0154010Y0141620D01*
X0157520Y0141620D02*
X0157760Y0141860D01*
X0117760Y0136620D02*
X0117520Y0136380D01*
X0114010Y0136380D01*
X0152760Y0162250D02*
X0154010Y0162250D01*
X0157760Y0166000D01*
X0157760Y0167630D01*
X0153380Y0171620D02*
X0151510Y0169750D01*
X0151510Y0166860D01*
X0139010Y0167250D02*
X0139010Y0170610D01*
X0145260Y0170610D02*
X0145260Y0173500D01*
X0139010Y0176000D01*
X0139010Y0178880D01*
X0145260Y0178880D02*
X0145260Y0179750D01*
X0147760Y0182250D01*
X0155260Y0182250D01*
X0156510Y0181000D01*
X0156510Y0173500D01*
X0154630Y0171620D01*
X0153380Y0171620D01*
X0151510Y0175130D02*
X0151510Y0178500D01*
X0132760Y0178880D02*
X0132760Y0182250D01*
X0126510Y0178880D02*
X0126510Y0176000D01*
X0132760Y0173500D01*
X0132760Y0170610D01*
X0126510Y0170610D02*
X0121990Y0175130D01*
X0120260Y0175130D01*
X0114010Y0171000D02*
X0114010Y0167630D01*
X0173740Y0103500D02*
G75*
%LPD*%
D15*
X0173740Y0103500D02*
X0173740Y0185750D01*
X0232750Y0185750D01*
X0232750Y0103500D01*
X0173740Y0103500D01*
D16*
X0182490Y0110610D03*
X0190610Y0116860D03*
X0182490Y0118880D03*
X0182490Y0124360D03*
X0190610Y0125130D03*
X0198740Y0125610D03*
X0206860Y0125610D03*
X0214990Y0125130D03*
X0224360Y0124360D03*
X0224360Y0118880D03*
X0214990Y0116860D03*
X0224360Y0110610D03*
X0224360Y0132630D03*
X0224360Y0133110D03*
X0206860Y0133880D03*
X0198740Y0133880D03*
X0182490Y0133110D03*
X0182490Y0132630D03*
X0182490Y0141380D03*
X0182490Y0141860D03*
X0182490Y0150130D03*
X0182490Y0155610D03*
X0182490Y0163880D03*
X0182490Y0164360D03*
X0182490Y0172630D03*
X0182490Y0173110D03*
X0182490Y0181380D03*
X0224360Y0181380D03*
X0224360Y0173110D03*
X0224360Y0172630D03*
X0224360Y0164360D03*
X0224360Y0163880D03*
X0224360Y0155610D03*
X0224360Y0150130D03*
X0224360Y0141860D03*
X0224360Y0141380D03*
D10*
X0220610Y0155370D03*
X0178740Y0155370D03*
X0186240Y0181620D03*
X0178740Y0124120D03*
X0198740Y0122250D03*
X0220610Y0124120D03*
X0220610Y0110370D03*
D14*
X0224120Y0110370D01*
X0224360Y0110610D01*
X0222340Y0116860D02*
X0214990Y0116860D01*
X0222340Y0116860D02*
X0224360Y0118880D01*
X0224120Y0124120D02*
X0220610Y0124120D01*
X0224120Y0124120D02*
X0224360Y0124360D01*
X0214990Y0125130D02*
X0214500Y0125610D01*
X0206860Y0125610D01*
X0198740Y0125610D02*
X0198740Y0122250D01*
X0194990Y0121000D02*
X0194990Y0130130D01*
X0198740Y0133880D01*
X0202250Y0138500D02*
X0206860Y0133880D01*
X0207250Y0133500D01*
X0208740Y0133500D01*
X0212490Y0129750D01*
X0216240Y0129750D01*
X0218740Y0132250D01*
X0218740Y0146000D01*
X0222870Y0150130D01*
X0224360Y0150130D01*
X0226620Y0150130D01*
X0228740Y0152250D01*
X0228740Y0179750D01*
X0227100Y0181380D01*
X0224360Y0181380D01*
X0186240Y0181620D02*
X0186240Y0151000D01*
X0185370Y0150130D01*
X0182490Y0150130D01*
X0184600Y0150130D01*
X0186240Y0148500D01*
X0186240Y0131000D01*
X0193740Y0138500D01*
X0202250Y0138500D01*
X0182490Y0141380D02*
X0182490Y0141860D01*
X0182490Y0133110D02*
X0182490Y0132630D01*
X0186240Y0131000D02*
X0186240Y0121000D01*
X0184120Y0118880D01*
X0182490Y0118880D01*
X0186240Y0118500D02*
X0187490Y0119750D01*
X0187490Y0120370D01*
X0190610Y0123500D01*
X0190610Y0125130D01*
X0182490Y0124360D02*
X0178980Y0124360D01*
X0178740Y0124120D01*
X0186240Y0118500D02*
X0186240Y0114750D01*
X0182490Y0111000D01*
X0182490Y0110610D01*
X0190610Y0116860D02*
X0190850Y0116860D01*
X0194990Y0121000D01*
X0182490Y0155610D02*
X0178980Y0155610D01*
X0178740Y0155370D01*
X0182490Y0163880D02*
X0182490Y0164360D01*
X0182490Y0172630D02*
X0182490Y0173110D01*
X0182490Y0181380D02*
X0186000Y0181380D01*
X0186240Y0181620D01*
X0220610Y0155370D02*
X0224120Y0155370D01*
X0224360Y0155610D01*
X0240250Y0103500D02*
G75*
%LPD*%
D15*
X0240250Y0103500D02*
X0240250Y0183250D01*
X0299260Y0183250D01*
X0299260Y0166000D01*
X0257750Y0166000D01*
X0257750Y0152250D01*
X0282750Y0152250D01*
X0282750Y0134750D01*
X0257750Y0134750D01*
X0257750Y0121000D01*
X0299620Y0121000D01*
X0299620Y0103500D01*
X0240250Y0103500D01*
D16*
X0245490Y0112250D03*
X0253760Y0112250D03*
X0254240Y0112250D03*
X0246500Y0114990D03*
X0262510Y0112250D03*
X0267990Y0112250D03*
X0276260Y0112250D03*
X0276740Y0112250D03*
X0285010Y0112250D03*
X0285490Y0112250D03*
X0293760Y0112250D03*
X0246500Y0123260D03*
X0246500Y0128740D03*
X0246500Y0137010D03*
X0246500Y0138110D03*
X0252360Y0143500D03*
X0260630Y0143500D03*
X0261110Y0143500D03*
X0269380Y0143500D03*
X0269860Y0143500D03*
X0278130Y0143500D03*
X0246500Y0146380D03*
X0246500Y0146860D03*
X0246500Y0155130D03*
X0246500Y0160610D03*
X0246500Y0168880D03*
X0246500Y0169360D03*
X0250490Y0176620D03*
X0246500Y0177630D03*
X0258760Y0176620D03*
X0266110Y0176620D03*
X0274380Y0176620D03*
X0276110Y0176620D03*
X0284380Y0176620D03*
X0286110Y0176620D03*
X0294380Y0176620D03*
D10*
X0294620Y0172870D03*
X0259000Y0172870D03*
X0250250Y0155370D03*
X0277750Y0147250D03*
X0250250Y0123500D03*
X0267750Y0116000D03*
X0294000Y0116000D03*
D14*
X0294000Y0112250D01*
X0293760Y0112250D01*
X0293760Y0112010D01*
X0289000Y0107250D01*
X0265250Y0107250D01*
X0262750Y0109750D01*
X0262750Y0112010D01*
X0262510Y0112250D01*
X0262510Y0112490D01*
X0255250Y0119750D01*
X0255250Y0124750D01*
X0251500Y0128500D01*
X0251500Y0142630D01*
X0252360Y0143500D01*
X0252360Y0150610D01*
X0255250Y0153500D01*
X0255250Y0158500D01*
X0252750Y0161000D01*
X0252750Y0164750D01*
X0256500Y0168500D01*
X0261500Y0168500D01*
X0266500Y0173500D01*
X0266500Y0176240D01*
X0266110Y0176620D01*
X0258760Y0176620D02*
X0258760Y0173110D01*
X0259000Y0172870D01*
X0250490Y0176620D02*
X0249480Y0177630D01*
X0246500Y0177630D01*
X0274380Y0176620D02*
X0276110Y0176620D01*
X0284380Y0176620D02*
X0286110Y0176620D01*
X0294380Y0176620D02*
X0294380Y0173110D01*
X0294620Y0172870D01*
X0252750Y0161000D02*
X0252360Y0160610D01*
X0246500Y0160610D01*
X0246500Y0155130D02*
X0250010Y0155130D01*
X0250250Y0155370D01*
X0246500Y0146860D02*
X0246500Y0146380D01*
X0260630Y0143500D02*
X0261110Y0143500D01*
X0269380Y0143500D02*
X0269860Y0143500D01*
X0278130Y0143500D02*
X0278130Y0146860D01*
X0277750Y0147250D01*
X0246500Y0138110D02*
X0246500Y0137010D01*
X0246500Y0128740D02*
X0246740Y0128500D01*
X0251500Y0128500D01*
X0250250Y0123500D02*
X0250010Y0123260D01*
X0246500Y0123260D01*
X0246500Y0114990D02*
X0245490Y0113980D01*
X0245490Y0112250D01*
X0253760Y0112250D02*
X0254240Y0112250D01*
X0267990Y0112250D02*
X0267990Y0115760D01*
X0267750Y0116000D01*
X0276260Y0112250D02*
X0276740Y0112250D01*
X0285010Y0112250D02*
X0285490Y0112250D01*
X0246500Y0168880D02*
X0246500Y0169360D01*
X0307120Y0103500D02*
G75*
%LPD*%
D15*
X0307120Y0103500D02*
X0307120Y0185750D01*
X0369880Y0185750D01*
X0369880Y0103500D01*
X0307120Y0103500D01*
D16*
X0315870Y0108110D03*
X0315870Y0116380D03*
X0315870Y0116860D03*
X0341730Y0122250D03*
X0350000Y0122250D03*
X0341250Y0128500D03*
X0332980Y0128500D03*
X0315870Y0125610D03*
X0315870Y0125130D03*
X0349230Y0116000D03*
X0357500Y0116000D03*
X0355480Y0109750D03*
X0363750Y0109750D03*
X0335000Y0134120D03*
X0326730Y0134120D03*
X0315870Y0133880D03*
X0315870Y0139360D03*
X0331730Y0141620D03*
X0340000Y0141620D03*
X0345480Y0142250D03*
X0353750Y0142250D03*
X0351730Y0148500D03*
X0360000Y0148500D03*
X0362500Y0156000D03*
X0354230Y0156000D03*
X0354230Y0163500D03*
X0362500Y0163500D03*
X0360000Y0171000D03*
X0351730Y0171000D03*
X0352500Y0178500D03*
X0344230Y0178500D03*
X0338750Y0178500D03*
X0330480Y0178500D03*
X0328750Y0178500D03*
X0320480Y0178500D03*
X0315870Y0178880D03*
X0315870Y0170610D03*
X0315870Y0165130D03*
X0315870Y0156860D03*
X0315870Y0156380D03*
X0315870Y0148110D03*
X0315870Y0147630D03*
D10*
X0357120Y0142250D03*
X0312120Y0134120D03*
X0344620Y0128500D03*
X0363990Y0113500D03*
X0312120Y0107250D03*
X0365870Y0163500D03*
X0312120Y0165370D03*
X0338990Y0182250D03*
D14*
X0338750Y0182250D01*
X0338750Y0178500D01*
X0342120Y0174750D02*
X0344230Y0176860D01*
X0344230Y0178500D01*
X0352500Y0178500D02*
X0352500Y0171760D01*
X0351730Y0171000D01*
X0354620Y0167250D02*
X0358370Y0171000D01*
X0360000Y0171000D01*
X0354620Y0167250D02*
X0354620Y0163880D01*
X0354230Y0163500D01*
X0349620Y0166000D02*
X0349620Y0160610D01*
X0354230Y0156000D01*
X0354230Y0154360D01*
X0350480Y0154360D01*
X0347120Y0151000D01*
X0347120Y0149750D01*
X0343370Y0146000D01*
X0335480Y0146000D01*
X0331730Y0142250D01*
X0331730Y0141620D01*
X0325240Y0141620D01*
X0322120Y0138500D01*
X0322120Y0126000D01*
X0325870Y0122250D01*
X0341730Y0122250D01*
X0350000Y0122250D02*
X0350870Y0122630D01*
X0350870Y0119750D01*
X0349230Y0118110D01*
X0349230Y0116000D01*
X0355480Y0111860D02*
X0357120Y0113500D01*
X0357120Y0116860D01*
X0357500Y0116000D01*
X0363990Y0113500D02*
X0363990Y0111240D01*
X0363750Y0109750D01*
X0355480Y0109750D02*
X0355480Y0111860D01*
X0319620Y0109750D02*
X0317980Y0108110D01*
X0315870Y0108110D01*
X0315870Y0107250D01*
X0312120Y0107250D01*
X0319620Y0109750D02*
X0319620Y0136240D01*
X0316490Y0139360D01*
X0315870Y0139360D01*
X0317980Y0139360D01*
X0319620Y0141000D01*
X0319620Y0169750D01*
X0318370Y0171000D01*
X0322120Y0174750D01*
X0342120Y0174750D01*
X0345870Y0174750D01*
X0347120Y0173500D01*
X0347120Y0168500D01*
X0349620Y0166000D01*
X0362500Y0163500D02*
X0365870Y0163500D01*
X0362500Y0156000D02*
X0360870Y0156000D01*
X0354230Y0149360D01*
X0351730Y0148500D01*
X0360000Y0148500D02*
X0360870Y0147630D01*
X0360870Y0139750D01*
X0359620Y0138500D01*
X0348370Y0138500D01*
X0346730Y0140130D01*
X0345480Y0142250D01*
X0340000Y0141620D02*
X0336250Y0137870D01*
X0332120Y0137870D01*
X0328990Y0134750D01*
X0326730Y0134120D01*
X0332980Y0132730D02*
X0335000Y0134120D01*
X0332980Y0132730D02*
X0332980Y0128500D01*
X0341250Y0128500D02*
X0344620Y0128500D01*
X0315870Y0133880D02*
X0315870Y0134120D01*
X0312120Y0134120D01*
X0353750Y0142250D02*
X0357120Y0142250D01*
X0315870Y0165130D02*
X0315870Y0165370D01*
X0312120Y0165370D01*
X0315870Y0170610D02*
X0316250Y0171000D01*
X0318370Y0171000D01*
X0320480Y0178500D02*
X0316250Y0178500D01*
X0315870Y0178880D01*
M02*
