G75*
G70*
%OFA0B0*%
%FSLAX25Y25*%
%IPPOS*%
%LPD*%
%AMOC8*
5,1,8,0,0,1.08239X$1,22.5*
%
%ADD15C,0.00000*%
%ADD16R,0.04720X0.04720*%
X0010000Y0010000D02*
G75*
%LPD*%
D15*
X0010000Y0010000D02*
X0010000Y0090000D01*
X0055000Y0090000D01*
X0070000Y0075000D01*
X0070000Y0045000D01*
X0055000Y0030000D01*
X0027000Y0030000D01*
X0027000Y0010000D01*
X0010000Y0010000D01*
D16*
X0017500Y0013360D03*
X0017500Y0021630D03*
X0017500Y0022110D03*
X0017500Y0030380D03*
X0017500Y0030860D03*
X0017500Y0039130D03*
X0023360Y0040620D03*
X0031630Y0040620D03*
X0032110Y0040620D03*
X0040380Y0040620D03*
X0040860Y0040620D03*
X0049130Y0040620D03*
X0055620Y0039610D03*
X0061870Y0045240D03*
X0055620Y0047880D03*
X0061870Y0053510D03*
X0061870Y0053990D03*
X0061870Y0062260D03*
X0061870Y0067740D03*
X0061870Y0076010D03*
X0051630Y0083120D03*
X0043360Y0083120D03*
X0037880Y0083120D03*
X0029610Y0083120D03*
X0029130Y0083120D03*
X0020860Y0083120D03*
X0017500Y0084130D03*
X0017500Y0075860D03*
X0017500Y0070380D03*
X0017500Y0062110D03*
X0017500Y0061630D03*
X0017500Y0053360D03*
X0017500Y0052880D03*
X0017500Y0044610D03*
D16*
G36*
X0056460Y0076450D02*
X0059790Y0079780D01*
X0063120Y0076450D01*
X0059790Y0073120D01*
X0056460Y0076450D01*
G37*
G36*
X0050620Y0082290D02*
X0053950Y0085620D01*
X0057280Y0082290D01*
X0053950Y0078960D01*
X0050620Y0082290D01*
G37*
X0077500Y0010000D02*
G75*
%LPD*%
D15*
X0077500Y0010000D02*
X0077500Y0096000D01*
X0137230Y0096000D01*
X0137230Y0010000D01*
X0077500Y0010000D01*
D16*
X0099370Y0014610D03*
X0106870Y0014610D03*
X0114370Y0014610D03*
X0121870Y0018360D03*
X0114370Y0022880D03*
X0106870Y0022880D03*
X0099370Y0022880D03*
X0091870Y0018360D03*
X0085000Y0025860D03*
X0091870Y0026630D03*
X0085000Y0034130D03*
X0085000Y0034610D03*
X0085000Y0042880D03*
X0085000Y0048360D03*
X0085000Y0056630D03*
X0085000Y0057110D03*
X0085000Y0065380D03*
X0085000Y0065860D03*
X0091250Y0073360D03*
X0085000Y0074130D03*
X0097500Y0077110D03*
X0103750Y0077110D03*
X0110000Y0077110D03*
X0116250Y0077110D03*
X0128750Y0074130D03*
X0122500Y0073360D03*
X0128750Y0065860D03*
X0128750Y0065380D03*
X0128750Y0057110D03*
X0128750Y0056630D03*
X0128750Y0048360D03*
X0128750Y0042880D03*
X0128750Y0034610D03*
X0128750Y0034130D03*
X0121870Y0026630D03*
X0128750Y0025860D03*
X0122500Y0081630D03*
X0116250Y0085380D03*
X0110000Y0085380D03*
X0103750Y0085380D03*
X0097500Y0085380D03*
X0091250Y0081630D03*
X0144730Y0010000D02*
G75*
%LPD*%
D15*
X0144730Y0010000D02*
X0144730Y0092250D01*
X0203740Y0092250D01*
X0203740Y0010000D01*
X0144730Y0010000D01*
D16*
X0153480Y0017110D03*
X0161600Y0023360D03*
X0153480Y0025380D03*
X0153480Y0030860D03*
X0161600Y0031630D03*
X0169730Y0032110D03*
X0177850Y0032110D03*
X0185980Y0031630D03*
X0195350Y0030860D03*
X0195350Y0025380D03*
X0185980Y0023360D03*
X0195350Y0017110D03*
X0195350Y0039130D03*
X0195350Y0039610D03*
X0177850Y0040380D03*
X0169730Y0040380D03*
X0153480Y0039610D03*
X0153480Y0039130D03*
X0153480Y0047880D03*
X0153480Y0048360D03*
X0153480Y0056630D03*
X0153480Y0062110D03*
X0153480Y0070380D03*
X0153480Y0070860D03*
X0153480Y0079130D03*
X0153480Y0079610D03*
X0153480Y0087880D03*
X0195350Y0087880D03*
X0195350Y0079610D03*
X0195350Y0079130D03*
X0195350Y0070860D03*
X0195350Y0070380D03*
X0195350Y0062110D03*
X0195350Y0056630D03*
X0195350Y0048360D03*
X0195350Y0047880D03*
X0211240Y0010000D02*
G75*
%LPD*%
D15*
X0211240Y0010000D02*
X0211240Y0089750D01*
X0270250Y0089750D01*
X0270250Y0072500D01*
X0228740Y0072500D01*
X0228740Y0058750D01*
X0253740Y0058750D01*
X0253740Y0041250D01*
X0228740Y0041250D01*
X0228740Y0027500D01*
X0270610Y0027500D01*
X0270610Y0010000D01*
X0211240Y0010000D01*
D16*
X0216480Y0018750D03*
X0224750Y0018750D03*
X0225230Y0018750D03*
X0217490Y0021490D03*
X0233500Y0018750D03*
X0238980Y0018750D03*
X0247250Y0018750D03*
X0247730Y0018750D03*
X0256000Y0018750D03*
X0256480Y0018750D03*
X0264750Y0018750D03*
X0217490Y0029760D03*
X0217490Y0035240D03*
X0217490Y0043510D03*
X0217490Y0044610D03*
X0223350Y0050000D03*
X0231620Y0050000D03*
X0232100Y0050000D03*
X0240370Y0050000D03*
X0240850Y0050000D03*
X0249120Y0050000D03*
X0217490Y0052880D03*
X0217490Y0053360D03*
X0217490Y0061630D03*
X0217490Y0067110D03*
X0217490Y0075380D03*
X0217490Y0075860D03*
X0221480Y0083120D03*
X0217490Y0084130D03*
X0229750Y0083120D03*
X0237100Y0083120D03*
X0245370Y0083120D03*
X0247100Y0083120D03*
X0255370Y0083120D03*
X0257100Y0083120D03*
X0265370Y0083120D03*
X0278110Y0010000D02*
G75*
%LPD*%
D15*
X0278110Y0010000D02*
X0278110Y0092250D01*
X0340870Y0092250D01*
X0340870Y0010000D01*
X0278110Y0010000D01*
D16*
X0286860Y0014610D03*
X0286860Y0022880D03*
X0286860Y0023360D03*
X0312720Y0028750D03*
X0320990Y0028750D03*
X0312240Y0035000D03*
X0303970Y0035000D03*
X0286860Y0032110D03*
X0286860Y0031630D03*
X0320220Y0022500D03*
X0328490Y0022500D03*
X0326470Y0016250D03*
X0334740Y0016250D03*
X0305990Y0040620D03*
X0297720Y0040620D03*
X0286860Y0040380D03*
X0286860Y0045860D03*
X0302720Y0048120D03*
X0310990Y0048120D03*
X0316470Y0048750D03*
X0324740Y0048750D03*
X0322720Y0055000D03*
X0330990Y0055000D03*
X0333490Y0062500D03*
X0325220Y0062500D03*
X0325220Y0070000D03*
X0333490Y0070000D03*
X0330990Y0077500D03*
X0322720Y0077500D03*
X0323490Y0085000D03*
X0315220Y0085000D03*
X0309740Y0085000D03*
X0301470Y0085000D03*
X0299740Y0085000D03*
X0291470Y0085000D03*
X0286860Y0085380D03*
X0286860Y0077110D03*
X0286860Y0071630D03*
X0286860Y0063360D03*
X0286860Y0062880D03*
X0286860Y0054610D03*
X0286860Y0054130D03*
X0010000Y0103500D02*
G75*
%LPD*%
D15*
X0010000Y0103500D02*
X0010000Y0200750D01*
X0099010Y0200750D01*
X0099010Y0103500D01*
X0010000Y0103500D01*
D16*
X0050000Y0109360D03*
X0050000Y0117630D03*
X0050000Y0118110D03*
X0050000Y0126380D03*
X0050000Y0126860D03*
X0050000Y0135130D03*
X0050000Y0140610D03*
X0050000Y0148880D03*
X0050000Y0149360D03*
X0050000Y0157630D03*
X0050000Y0158110D03*
X0050000Y0166380D03*
X0050000Y0171860D03*
X0050000Y0180130D03*
X0054130Y0186000D03*
X0059610Y0186000D03*
X0067880Y0186000D03*
X0071490Y0186000D03*
X0079760Y0186000D03*
X0045860Y0186000D03*
X0040380Y0186000D03*
X0032110Y0186000D03*
X0027880Y0186000D03*
X0019610Y0186000D03*
X0106510Y0103500D02*
G75*
%LPD*%
D15*
X0106510Y0103500D02*
X0106510Y0189500D01*
X0166240Y0189500D01*
X0166240Y0103500D01*
X0106510Y0103500D01*
D16*
X0128380Y0108110D03*
X0135880Y0108110D03*
X0143380Y0108110D03*
X0150880Y0111860D03*
X0143380Y0116380D03*
X0135880Y0116380D03*
X0128380Y0116380D03*
X0120880Y0111860D03*
X0114010Y0119360D03*
X0120880Y0120130D03*
X0114010Y0127630D03*
X0114010Y0128110D03*
X0114010Y0136380D03*
X0114010Y0141860D03*
X0114010Y0150130D03*
X0114010Y0150610D03*
X0114010Y0158880D03*
X0114010Y0159360D03*
X0120260Y0166860D03*
X0114010Y0167630D03*
X0126510Y0170610D03*
X0132760Y0170610D03*
X0139010Y0170610D03*
X0145260Y0170610D03*
X0157760Y0167630D03*
X0151510Y0166860D03*
X0157760Y0159360D03*
X0157760Y0158880D03*
X0157760Y0150610D03*
X0157760Y0150130D03*
X0157760Y0141860D03*
X0157760Y0136380D03*
X0157760Y0128110D03*
X0157760Y0127630D03*
X0150880Y0120130D03*
X0157760Y0119360D03*
X0151510Y0175130D03*
X0145260Y0178880D03*
X0139010Y0178880D03*
X0132760Y0178880D03*
X0126510Y0178880D03*
X0120260Y0175130D03*
X0173740Y0103500D02*
G75*
%LPD*%
D15*
X0173740Y0103500D02*
X0173740Y0185750D01*
X0232750Y0185750D01*
X0232750Y0103500D01*
X0173740Y0103500D01*
D16*
X0182490Y0110610D03*
X0190610Y0116860D03*
X0182490Y0118880D03*
X0182490Y0124360D03*
X0190610Y0125130D03*
X0198740Y0125610D03*
X0206860Y0125610D03*
X0214990Y0125130D03*
X0224360Y0124360D03*
X0224360Y0118880D03*
X0214990Y0116860D03*
X0224360Y0110610D03*
X0224360Y0132630D03*
X0224360Y0133110D03*
X0206860Y0133880D03*
X0198740Y0133880D03*
X0182490Y0133110D03*
X0182490Y0132630D03*
X0182490Y0141380D03*
X0182490Y0141860D03*
X0182490Y0150130D03*
X0182490Y0155610D03*
X0182490Y0163880D03*
X0182490Y0164360D03*
X0182490Y0172630D03*
X0182490Y0173110D03*
X0182490Y0181380D03*
X0224360Y0181380D03*
X0224360Y0173110D03*
X0224360Y0172630D03*
X0224360Y0164360D03*
X0224360Y0163880D03*
X0224360Y0155610D03*
X0224360Y0150130D03*
X0224360Y0141860D03*
X0224360Y0141380D03*
X0240250Y0103500D02*
G75*
%LPD*%
D15*
X0240250Y0103500D02*
X0240250Y0183250D01*
X0299260Y0183250D01*
X0299260Y0166000D01*
X0257750Y0166000D01*
X0257750Y0152250D01*
X0282750Y0152250D01*
X0282750Y0134750D01*
X0257750Y0134750D01*
X0257750Y0121000D01*
X0299620Y0121000D01*
X0299620Y0103500D01*
X0240250Y0103500D01*
D16*
X0245490Y0112250D03*
X0253760Y0112250D03*
X0254240Y0112250D03*
X0246500Y0114990D03*
X0262510Y0112250D03*
X0267990Y0112250D03*
X0276260Y0112250D03*
X0276740Y0112250D03*
X0285010Y0112250D03*
X0285490Y0112250D03*
X0293760Y0112250D03*
X0246500Y0123260D03*
X0246500Y0128740D03*
X0246500Y0137010D03*
X0246500Y0138110D03*
X0252360Y0143500D03*
X0260630Y0143500D03*
X0261110Y0143500D03*
X0269380Y0143500D03*
X0269860Y0143500D03*
X0278130Y0143500D03*
X0246500Y0146380D03*
X0246500Y0146860D03*
X0246500Y0155130D03*
X0246500Y0160610D03*
X0246500Y0168880D03*
X0246500Y0169360D03*
X0250490Y0176620D03*
X0246500Y0177630D03*
X0258760Y0176620D03*
X0266110Y0176620D03*
X0274380Y0176620D03*
X0276110Y0176620D03*
X0284380Y0176620D03*
X0286110Y0176620D03*
X0294380Y0176620D03*
X0307120Y0103500D02*
G75*
%LPD*%
D15*
X0307120Y0103500D02*
X0307120Y0185750D01*
X0369880Y0185750D01*
X0369880Y0103500D01*
X0307120Y0103500D01*
D16*
X0315870Y0108110D03*
X0315870Y0116380D03*
X0315870Y0116860D03*
X0341730Y0122250D03*
X0350000Y0122250D03*
X0341250Y0128500D03*
X0332980Y0128500D03*
X0315870Y0125610D03*
X0315870Y0125130D03*
X0349230Y0116000D03*
X0357500Y0116000D03*
X0355480Y0109750D03*
X0363750Y0109750D03*
X0335000Y0134120D03*
X0326730Y0134120D03*
X0315870Y0133880D03*
X0315870Y0139360D03*
X0331730Y0141620D03*
X0340000Y0141620D03*
X0345480Y0142250D03*
X0353750Y0142250D03*
X0351730Y0148500D03*
X0360000Y0148500D03*
X0362500Y0156000D03*
X0354230Y0156000D03*
X0354230Y0163500D03*
X0362500Y0163500D03*
X0360000Y0171000D03*
X0351730Y0171000D03*
X0352500Y0178500D03*
X0344230Y0178500D03*
X0338750Y0178500D03*
X0330480Y0178500D03*
X0328750Y0178500D03*
X0320480Y0178500D03*
X0315870Y0178880D03*
X0315870Y0170610D03*
X0315870Y0165130D03*
X0315870Y0156860D03*
X0315870Y0156380D03*
X0315870Y0148110D03*
X0315870Y0147630D03*
M02*
