G75*
G70*
%OFA0B0*%
%FSLAX24Y24*%
%IPPOS*%
%LPD*%
%AMOC8*
5,1,8,0,0,1.08239X$1,22.5*
%
%ADD10C,0.0100*%
%ADD11C,0.0060*%
%ADD12C,0.0040*%
%ADD13R,0.0200X0.0736*%
%ADD14R,0.0250X0.0335*%
%ADD15C,0.0050*%
%ADD16C,0.0120*%
%ADD17C,0.0080*%
%ADD18C,0.0000*%
%ADD19C,0.0010*%
D10*
X006259Y000161D02*
X006259Y021157D01*
X029754Y021157D01*
X029754Y000161D01*
X006259Y000161D01*
X009409Y002611D02*
X009409Y002911D01*
X009409Y003211D01*
X009609Y003211D02*
X009609Y002911D01*
X009609Y002611D01*
X018159Y003361D02*
X018159Y003661D01*
X018159Y003961D01*
X018359Y003961D02*
X018359Y003661D01*
X018359Y003361D01*
X020139Y002945D02*
X020139Y002901D01*
X020139Y003866D02*
X020139Y003921D01*
X022139Y003921D02*
X022139Y003866D01*
X022139Y002945D02*
X022139Y002901D01*
X024139Y002901D02*
X024139Y002945D01*
X024139Y003866D02*
X024139Y003921D01*
X026139Y003921D02*
X026139Y003866D01*
X026139Y002945D02*
X026139Y002901D01*
D11*
X026164Y002557D02*
X026164Y002216D01*
X026391Y002216D01*
X026532Y002216D02*
X026759Y002216D01*
X026796Y002144D02*
X026626Y001974D01*
X026852Y001974D01*
X026796Y001804D02*
X026796Y002144D01*
X026901Y002216D02*
X027071Y002216D01*
X027127Y002273D01*
X027127Y002500D01*
X027071Y002557D01*
X026901Y002557D01*
X026901Y002216D01*
X026646Y002386D02*
X026532Y002386D01*
X026532Y002216D02*
X026532Y002557D01*
X026759Y002557D01*
X027269Y002386D02*
X027496Y002386D01*
X027439Y002216D02*
X027439Y002557D01*
X027269Y002386D01*
X027626Y002144D02*
X027626Y001974D01*
X027739Y002031D01*
X027796Y002031D01*
X027852Y001974D01*
X027852Y001860D01*
X027796Y001804D01*
X027682Y001804D01*
X027626Y001860D01*
X027626Y002144D02*
X027852Y002144D01*
X025852Y002087D02*
X025852Y002031D01*
X025796Y001974D01*
X025852Y001917D01*
X025852Y001860D01*
X025796Y001804D01*
X025682Y001804D01*
X025626Y001860D01*
X025739Y001974D02*
X025796Y001974D01*
X025852Y002087D02*
X025796Y002144D01*
X025682Y002144D01*
X025626Y002087D01*
X025496Y002273D02*
X025439Y002216D01*
X025326Y002216D01*
X025269Y002273D01*
X025127Y002273D02*
X025127Y002500D01*
X025071Y002557D01*
X024901Y002557D01*
X024901Y002216D01*
X025071Y002216D01*
X025127Y002273D01*
X025269Y002500D02*
X025326Y002557D01*
X025439Y002557D01*
X025496Y002500D01*
X025496Y002443D01*
X025439Y002386D01*
X025496Y002330D01*
X025496Y002273D01*
X025439Y002386D02*
X025382Y002386D01*
X024852Y002087D02*
X024796Y002144D01*
X024682Y002144D01*
X024626Y002087D01*
X024532Y002216D02*
X024759Y002216D01*
X024852Y002087D02*
X024852Y002031D01*
X024626Y001804D01*
X024852Y001804D01*
X024532Y002216D02*
X024532Y002557D01*
X024759Y002557D01*
X024646Y002386D02*
X024532Y002386D01*
X024391Y002216D02*
X024164Y002216D01*
X024164Y002557D01*
X023739Y002144D02*
X023626Y002031D01*
X023739Y002144D02*
X023739Y001804D01*
X023626Y001804D02*
X023852Y001804D01*
X023496Y002216D02*
X023269Y002216D01*
X023496Y002443D01*
X023496Y002500D01*
X023439Y002557D01*
X023326Y002557D01*
X023269Y002500D01*
X023127Y002500D02*
X023071Y002557D01*
X022901Y002557D01*
X022901Y002216D01*
X023071Y002216D01*
X023127Y002273D01*
X023127Y002500D01*
X022759Y002557D02*
X022532Y002557D01*
X022532Y002216D01*
X022759Y002216D01*
X022796Y002144D02*
X022682Y002144D01*
X022626Y002087D01*
X022626Y001860D01*
X022852Y002087D01*
X022852Y001860D01*
X022796Y001804D01*
X022682Y001804D01*
X022626Y001860D01*
X022852Y002087D02*
X022796Y002144D01*
X022646Y002386D02*
X022532Y002386D01*
X022391Y002216D02*
X022164Y002216D01*
X022164Y002557D01*
X021496Y002216D02*
X021269Y002216D01*
X021188Y002144D02*
X021415Y001804D01*
X021415Y002144D01*
X021382Y002216D02*
X021382Y002557D01*
X021269Y002443D01*
X021127Y002500D02*
X021127Y002273D01*
X021071Y002216D01*
X020901Y002216D01*
X020901Y002557D01*
X021071Y002557D01*
X021127Y002500D01*
X020759Y002557D02*
X020532Y002557D01*
X020532Y002216D01*
X020759Y002216D01*
X020801Y002144D02*
X020801Y001917D01*
X020688Y001804D01*
X020574Y001917D01*
X020574Y002144D01*
X020391Y002216D02*
X020164Y002216D01*
X020164Y002557D01*
X020532Y002386D02*
X020646Y002386D01*
X020943Y002144D02*
X021056Y002144D01*
X020999Y002144D02*
X020999Y001804D01*
X020943Y001804D02*
X021056Y001804D01*
X021188Y001804D02*
X021188Y002144D01*
X020352Y002087D02*
X020352Y001860D01*
X020296Y001804D01*
X020126Y001804D01*
X020126Y002144D01*
X020296Y002144D01*
X020352Y002087D01*
X019984Y002144D02*
X019984Y001804D01*
X019757Y002144D01*
X019757Y001804D01*
X019616Y001860D02*
X019616Y001974D01*
X019502Y001974D01*
X019389Y002087D02*
X019389Y001860D01*
X019446Y001804D01*
X019559Y001804D01*
X019616Y001860D01*
X019616Y002087D02*
X019559Y002144D01*
X019446Y002144D01*
X019389Y002087D01*
X019102Y002087D02*
X019102Y001860D01*
X019046Y001804D01*
X018876Y001804D01*
X018876Y002144D01*
X019046Y002144D01*
X019102Y002087D01*
X018734Y002144D02*
X018734Y001804D01*
X018507Y002144D01*
X018507Y001804D01*
X018366Y001860D02*
X018366Y001974D01*
X018252Y001974D01*
X018139Y002087D02*
X018139Y001860D01*
X018196Y001804D01*
X018309Y001804D01*
X018366Y001860D01*
X018366Y002087D02*
X018309Y002144D01*
X018196Y002144D01*
X018139Y002087D01*
X017852Y002144D02*
X017852Y001917D01*
X017739Y001804D01*
X017626Y001917D01*
X017626Y002144D01*
X017484Y002144D02*
X017257Y002144D01*
X017257Y001974D01*
X017371Y002031D01*
X017427Y002031D01*
X017484Y001974D01*
X017484Y001860D01*
X017427Y001804D01*
X017314Y001804D01*
X017257Y001860D01*
X016977Y001917D02*
X016977Y002144D01*
X016751Y002144D02*
X016751Y001917D01*
X016864Y001804D01*
X016977Y001917D01*
X016609Y001917D02*
X016609Y001860D01*
X016552Y001804D01*
X016439Y001804D01*
X016382Y001860D01*
X016255Y001860D02*
X016255Y001804D01*
X016198Y001804D01*
X016198Y001860D01*
X016255Y001860D01*
X016057Y001860D02*
X016000Y001804D01*
X015886Y001804D01*
X015830Y001860D01*
X015943Y001974D02*
X016000Y001974D01*
X016057Y001917D01*
X016057Y001860D01*
X016000Y001974D02*
X016057Y002031D01*
X016057Y002087D01*
X016000Y002144D01*
X015886Y002144D01*
X015830Y002087D01*
X015602Y002144D02*
X015376Y002144D01*
X015489Y002144D02*
X015489Y001804D01*
X015234Y001860D02*
X015177Y001804D01*
X015064Y001804D01*
X015007Y001860D01*
X015064Y001974D02*
X015177Y001974D01*
X015234Y001917D01*
X015234Y001860D01*
X015064Y001974D02*
X015007Y002031D01*
X015007Y002087D01*
X015064Y002144D01*
X015177Y002144D01*
X015234Y002087D01*
X014866Y002087D02*
X014866Y001974D01*
X014809Y001917D01*
X014639Y001917D01*
X014639Y001804D02*
X014639Y002144D01*
X014809Y002144D01*
X014866Y002087D01*
X014752Y001917D02*
X014866Y001804D01*
X016382Y002087D02*
X016439Y002144D01*
X016552Y002144D01*
X016609Y002087D01*
X016609Y002031D01*
X016552Y001974D01*
X016609Y001917D01*
X016552Y001974D02*
X016496Y001974D01*
X017409Y003061D02*
X019109Y003061D01*
X019126Y003063D01*
X019143Y003067D01*
X019159Y003074D01*
X019173Y003084D01*
X019186Y003097D01*
X019196Y003111D01*
X019203Y003127D01*
X019207Y003144D01*
X019209Y003161D01*
X019209Y004161D01*
X019207Y004178D01*
X019203Y004195D01*
X019196Y004211D01*
X019186Y004225D01*
X019173Y004238D01*
X019159Y004248D01*
X019143Y004255D01*
X019126Y004259D01*
X019109Y004261D01*
X017409Y004261D01*
X017392Y004259D01*
X017375Y004255D01*
X017359Y004248D01*
X017345Y004238D01*
X017332Y004225D01*
X017322Y004211D01*
X017315Y004195D01*
X017311Y004178D01*
X017309Y004161D01*
X017309Y003161D01*
X017311Y003144D01*
X017315Y003127D01*
X017322Y003111D01*
X017332Y003097D01*
X017345Y003084D01*
X017359Y003074D01*
X017375Y003067D01*
X017392Y003063D01*
X017409Y003061D01*
X018109Y003661D02*
X018159Y003661D01*
X018359Y003661D02*
X018409Y003661D01*
X018407Y004441D02*
X018634Y004441D01*
X018521Y004441D02*
X018521Y004782D01*
X018407Y004668D01*
X018266Y004725D02*
X018209Y004782D01*
X018096Y004782D01*
X018039Y004725D01*
X018039Y004498D01*
X018096Y004441D01*
X018209Y004441D01*
X018266Y004498D01*
X020822Y005485D02*
X020822Y005825D01*
X020992Y005825D01*
X021049Y005769D01*
X021049Y005655D01*
X020992Y005598D01*
X020822Y005598D01*
X020936Y005598D02*
X021049Y005485D01*
X021191Y005485D02*
X021417Y005485D01*
X021304Y005485D02*
X021304Y005825D01*
X021191Y005712D01*
X020759Y004911D02*
X020761Y004955D01*
X020767Y004999D01*
X020777Y005042D01*
X020790Y005084D01*
X020807Y005125D01*
X020828Y005164D01*
X020852Y005201D01*
X020879Y005236D01*
X020909Y005268D01*
X020942Y005298D01*
X020978Y005324D01*
X021015Y005348D01*
X021055Y005367D01*
X021096Y005384D01*
X021139Y005396D01*
X021182Y005405D01*
X021226Y005410D01*
X021270Y005411D01*
X021314Y005408D01*
X021358Y005401D01*
X021401Y005390D01*
X021443Y005376D01*
X021483Y005358D01*
X021522Y005336D01*
X021558Y005312D01*
X021592Y005284D01*
X021624Y005253D01*
X021653Y005219D01*
X021679Y005183D01*
X021701Y005145D01*
X021720Y005105D01*
X021735Y005063D01*
X021747Y005021D01*
X021755Y004977D01*
X021759Y004933D01*
X021759Y004889D01*
X021755Y004845D01*
X021747Y004801D01*
X021735Y004759D01*
X021720Y004717D01*
X021701Y004677D01*
X021679Y004639D01*
X021653Y004603D01*
X021624Y004569D01*
X021592Y004538D01*
X021558Y004510D01*
X021522Y004486D01*
X021483Y004464D01*
X021443Y004446D01*
X021401Y004432D01*
X021358Y004421D01*
X021314Y004414D01*
X021270Y004411D01*
X021226Y004412D01*
X021182Y004417D01*
X021139Y004426D01*
X021096Y004438D01*
X021055Y004455D01*
X021015Y004474D01*
X020978Y004498D01*
X020942Y004524D01*
X020909Y004554D01*
X020879Y004586D01*
X020852Y004621D01*
X020828Y004658D01*
X020807Y004697D01*
X020790Y004738D01*
X020777Y004780D01*
X020767Y004823D01*
X020761Y004867D01*
X020759Y004911D01*
X022822Y005485D02*
X022822Y005825D01*
X022992Y005825D01*
X023049Y005769D01*
X023049Y005655D01*
X022992Y005598D01*
X022822Y005598D01*
X022936Y005598D02*
X023049Y005485D01*
X023191Y005485D02*
X023417Y005712D01*
X023417Y005769D01*
X023361Y005825D01*
X023247Y005825D01*
X023191Y005769D01*
X023191Y005485D02*
X023417Y005485D01*
X022759Y004911D02*
X022761Y004955D01*
X022767Y004999D01*
X022777Y005042D01*
X022790Y005084D01*
X022807Y005125D01*
X022828Y005164D01*
X022852Y005201D01*
X022879Y005236D01*
X022909Y005268D01*
X022942Y005298D01*
X022978Y005324D01*
X023015Y005348D01*
X023055Y005367D01*
X023096Y005384D01*
X023139Y005396D01*
X023182Y005405D01*
X023226Y005410D01*
X023270Y005411D01*
X023314Y005408D01*
X023358Y005401D01*
X023401Y005390D01*
X023443Y005376D01*
X023483Y005358D01*
X023522Y005336D01*
X023558Y005312D01*
X023592Y005284D01*
X023624Y005253D01*
X023653Y005219D01*
X023679Y005183D01*
X023701Y005145D01*
X023720Y005105D01*
X023735Y005063D01*
X023747Y005021D01*
X023755Y004977D01*
X023759Y004933D01*
X023759Y004889D01*
X023755Y004845D01*
X023747Y004801D01*
X023735Y004759D01*
X023720Y004717D01*
X023701Y004677D01*
X023679Y004639D01*
X023653Y004603D01*
X023624Y004569D01*
X023592Y004538D01*
X023558Y004510D01*
X023522Y004486D01*
X023483Y004464D01*
X023443Y004446D01*
X023401Y004432D01*
X023358Y004421D01*
X023314Y004414D01*
X023270Y004411D01*
X023226Y004412D01*
X023182Y004417D01*
X023139Y004426D01*
X023096Y004438D01*
X023055Y004455D01*
X023015Y004474D01*
X022978Y004498D01*
X022942Y004524D01*
X022909Y004554D01*
X022879Y004586D01*
X022852Y004621D01*
X022828Y004658D01*
X022807Y004697D01*
X022790Y004738D01*
X022777Y004780D01*
X022767Y004823D01*
X022761Y004867D01*
X022759Y004911D01*
X024822Y005485D02*
X024822Y005825D01*
X024992Y005825D01*
X025049Y005769D01*
X025049Y005655D01*
X024992Y005598D01*
X024822Y005598D01*
X024936Y005598D02*
X025049Y005485D01*
X025191Y005542D02*
X025247Y005485D01*
X025361Y005485D01*
X025417Y005542D01*
X025417Y005598D01*
X025361Y005655D01*
X025304Y005655D01*
X025361Y005655D02*
X025417Y005712D01*
X025417Y005769D01*
X025361Y005825D01*
X025247Y005825D01*
X025191Y005769D01*
X025079Y006549D02*
X025079Y007273D01*
X023439Y007273D01*
X023439Y006549D01*
X025079Y006549D01*
X024859Y006911D02*
X024259Y006911D01*
X024259Y006661D01*
X024259Y006911D02*
X024009Y006911D01*
X024259Y006911D02*
X024259Y007161D01*
X024239Y007341D02*
X024409Y007341D01*
X024466Y007398D01*
X024466Y007625D01*
X024409Y007682D01*
X024239Y007682D01*
X024239Y007341D01*
X024607Y007398D02*
X024607Y007455D01*
X024664Y007511D01*
X024777Y007511D01*
X024834Y007455D01*
X024834Y007398D01*
X024777Y007341D01*
X024664Y007341D01*
X024607Y007398D01*
X024664Y007511D02*
X024607Y007568D01*
X024607Y007625D01*
X024664Y007682D01*
X024777Y007682D01*
X024834Y007625D01*
X024834Y007568D01*
X024777Y007511D01*
X024659Y007161D02*
X024259Y006911D01*
X024659Y006661D01*
X024659Y007161D01*
X025079Y007799D02*
X025079Y008523D01*
X023439Y008523D01*
X023439Y007799D01*
X025079Y007799D01*
X024859Y008161D02*
X024259Y008161D01*
X024259Y007911D01*
X024259Y008161D02*
X024009Y008161D01*
X024259Y008161D02*
X024259Y008411D01*
X024239Y008591D02*
X024409Y008591D01*
X024466Y008648D01*
X024466Y008875D01*
X024409Y008932D01*
X024239Y008932D01*
X024239Y008591D01*
X024607Y008648D02*
X024607Y008761D01*
X024777Y008761D01*
X024834Y008705D01*
X024834Y008648D01*
X024777Y008591D01*
X024664Y008591D01*
X024607Y008648D01*
X024607Y008761D02*
X024721Y008875D01*
X024834Y008932D01*
X025079Y009049D02*
X025079Y009773D01*
X023439Y009773D01*
X023439Y009049D01*
X025079Y009049D01*
X024859Y009411D02*
X024259Y009411D01*
X024259Y009161D01*
X024259Y009411D02*
X024009Y009411D01*
X024259Y009411D02*
X024259Y009661D01*
X024239Y009841D02*
X024409Y009841D01*
X024466Y009898D01*
X024466Y010125D01*
X024409Y010182D01*
X024239Y010182D01*
X024239Y009841D01*
X024607Y009841D02*
X024607Y009898D01*
X024834Y010125D01*
X024834Y010182D01*
X024607Y010182D01*
X024659Y010411D02*
X024259Y010661D01*
X024259Y010411D01*
X024259Y010661D02*
X024009Y010661D01*
X024259Y010661D02*
X024259Y010911D01*
X024239Y011091D02*
X024409Y011091D01*
X024466Y011148D01*
X024466Y011375D01*
X024409Y011432D01*
X024239Y011432D01*
X024239Y011091D01*
X024607Y011148D02*
X024664Y011091D01*
X024777Y011091D01*
X024834Y011148D01*
X024834Y011261D01*
X024777Y011318D01*
X024721Y011318D01*
X024607Y011261D01*
X024607Y011432D01*
X024834Y011432D01*
X025079Y011023D02*
X023439Y011023D01*
X023439Y010299D01*
X025079Y010299D01*
X025079Y011023D01*
X024859Y010661D02*
X024259Y010661D01*
X024659Y010911D01*
X024659Y010411D01*
X024659Y009661D02*
X024259Y009411D01*
X024659Y009161D01*
X024659Y009661D01*
X026289Y009600D02*
X026289Y009373D01*
X026346Y009316D01*
X026459Y009316D01*
X026516Y009373D01*
X026516Y009600D01*
X026459Y009657D01*
X026346Y009657D01*
X026289Y009600D01*
X026657Y009543D02*
X026771Y009657D01*
X026771Y009316D01*
X026884Y009316D02*
X026657Y009316D01*
X027026Y009316D02*
X027252Y009543D01*
X027252Y009600D01*
X027196Y009657D01*
X027082Y009657D01*
X027026Y009600D01*
X027026Y009316D02*
X027252Y009316D01*
X027139Y008657D02*
X027139Y008316D01*
X027026Y008316D02*
X027252Y008316D01*
X027026Y008543D02*
X027139Y008657D01*
X026884Y008600D02*
X026827Y008657D01*
X026714Y008657D01*
X026657Y008600D01*
X026516Y008600D02*
X026459Y008657D01*
X026346Y008657D01*
X026289Y008600D01*
X026289Y008373D01*
X026346Y008316D01*
X026459Y008316D01*
X026516Y008373D01*
X026516Y008600D01*
X026657Y008316D02*
X026884Y008543D01*
X026884Y008600D01*
X026884Y008316D02*
X026657Y008316D01*
X026714Y007657D02*
X026657Y007600D01*
X026714Y007657D02*
X026827Y007657D01*
X026884Y007600D01*
X026884Y007543D01*
X026657Y007316D01*
X026884Y007316D01*
X027026Y007316D02*
X027252Y007543D01*
X027252Y007600D01*
X027196Y007657D01*
X027082Y007657D01*
X027026Y007600D01*
X027026Y007316D02*
X027252Y007316D01*
X026516Y007373D02*
X026516Y007600D01*
X026459Y007657D01*
X026346Y007657D01*
X026289Y007600D01*
X026289Y007373D01*
X026346Y007316D01*
X026459Y007316D01*
X026516Y007373D01*
X024659Y007911D02*
X024259Y008161D01*
X024659Y008411D01*
X024659Y007911D01*
X026822Y005825D02*
X026992Y005825D01*
X027049Y005769D01*
X027049Y005655D01*
X026992Y005598D01*
X026822Y005598D01*
X026822Y005485D02*
X026822Y005825D01*
X026936Y005598D02*
X027049Y005485D01*
X027191Y005655D02*
X027417Y005655D01*
X027361Y005485D02*
X027361Y005825D01*
X027191Y005655D01*
X026759Y004911D02*
X026761Y004955D01*
X026767Y004999D01*
X026777Y005042D01*
X026790Y005084D01*
X026807Y005125D01*
X026828Y005164D01*
X026852Y005201D01*
X026879Y005236D01*
X026909Y005268D01*
X026942Y005298D01*
X026978Y005324D01*
X027015Y005348D01*
X027055Y005367D01*
X027096Y005384D01*
X027139Y005396D01*
X027182Y005405D01*
X027226Y005410D01*
X027270Y005411D01*
X027314Y005408D01*
X027358Y005401D01*
X027401Y005390D01*
X027443Y005376D01*
X027483Y005358D01*
X027522Y005336D01*
X027558Y005312D01*
X027592Y005284D01*
X027624Y005253D01*
X027653Y005219D01*
X027679Y005183D01*
X027701Y005145D01*
X027720Y005105D01*
X027735Y005063D01*
X027747Y005021D01*
X027755Y004977D01*
X027759Y004933D01*
X027759Y004889D01*
X027755Y004845D01*
X027747Y004801D01*
X027735Y004759D01*
X027720Y004717D01*
X027701Y004677D01*
X027679Y004639D01*
X027653Y004603D01*
X027624Y004569D01*
X027592Y004538D01*
X027558Y004510D01*
X027522Y004486D01*
X027483Y004464D01*
X027443Y004446D01*
X027401Y004432D01*
X027358Y004421D01*
X027314Y004414D01*
X027270Y004411D01*
X027226Y004412D01*
X027182Y004417D01*
X027139Y004426D01*
X027096Y004438D01*
X027055Y004455D01*
X027015Y004474D01*
X026978Y004498D01*
X026942Y004524D01*
X026909Y004554D01*
X026879Y004586D01*
X026852Y004621D01*
X026828Y004658D01*
X026807Y004697D01*
X026790Y004738D01*
X026777Y004780D01*
X026767Y004823D01*
X026761Y004867D01*
X026759Y004911D01*
X024759Y004911D02*
X024761Y004955D01*
X024767Y004999D01*
X024777Y005042D01*
X024790Y005084D01*
X024807Y005125D01*
X024828Y005164D01*
X024852Y005201D01*
X024879Y005236D01*
X024909Y005268D01*
X024942Y005298D01*
X024978Y005324D01*
X025015Y005348D01*
X025055Y005367D01*
X025096Y005384D01*
X025139Y005396D01*
X025182Y005405D01*
X025226Y005410D01*
X025270Y005411D01*
X025314Y005408D01*
X025358Y005401D01*
X025401Y005390D01*
X025443Y005376D01*
X025483Y005358D01*
X025522Y005336D01*
X025558Y005312D01*
X025592Y005284D01*
X025624Y005253D01*
X025653Y005219D01*
X025679Y005183D01*
X025701Y005145D01*
X025720Y005105D01*
X025735Y005063D01*
X025747Y005021D01*
X025755Y004977D01*
X025759Y004933D01*
X025759Y004889D01*
X025755Y004845D01*
X025747Y004801D01*
X025735Y004759D01*
X025720Y004717D01*
X025701Y004677D01*
X025679Y004639D01*
X025653Y004603D01*
X025624Y004569D01*
X025592Y004538D01*
X025558Y004510D01*
X025522Y004486D01*
X025483Y004464D01*
X025443Y004446D01*
X025401Y004432D01*
X025358Y004421D01*
X025314Y004414D01*
X025270Y004411D01*
X025226Y004412D01*
X025182Y004417D01*
X025139Y004426D01*
X025096Y004438D01*
X025055Y004455D01*
X025015Y004474D01*
X024978Y004498D01*
X024942Y004524D01*
X024909Y004554D01*
X024879Y004586D01*
X024852Y004621D01*
X024828Y004658D01*
X024807Y004697D01*
X024790Y004738D01*
X024777Y004780D01*
X024767Y004823D01*
X024761Y004867D01*
X024759Y004911D01*
X020579Y006549D02*
X020579Y007273D01*
X018939Y007273D01*
X018939Y006549D01*
X020579Y006549D01*
X020359Y006911D02*
X019759Y006911D01*
X019759Y006661D01*
X019759Y006911D02*
X019759Y007161D01*
X019739Y007341D02*
X019909Y007341D01*
X019966Y007398D01*
X019966Y007625D01*
X019909Y007682D01*
X019739Y007682D01*
X019739Y007341D01*
X020107Y007511D02*
X020334Y007511D01*
X020277Y007341D02*
X020277Y007682D01*
X020107Y007511D01*
X020159Y007161D02*
X019759Y006911D01*
X020159Y006661D01*
X020159Y007161D01*
X019759Y006911D02*
X019509Y006911D01*
X018939Y007799D02*
X018939Y008523D01*
X020579Y008523D01*
X020579Y007799D01*
X018939Y007799D01*
X019509Y008161D02*
X019759Y008161D01*
X019759Y007911D01*
X019759Y008161D02*
X019759Y008411D01*
X019739Y008591D02*
X019909Y008591D01*
X019966Y008648D01*
X019966Y008875D01*
X019909Y008932D01*
X019739Y008932D01*
X019739Y008591D01*
X020107Y008591D02*
X020334Y008818D01*
X020334Y008875D01*
X020277Y008932D01*
X020164Y008932D01*
X020107Y008875D01*
X020107Y008591D02*
X020334Y008591D01*
X020159Y008411D02*
X019759Y008161D01*
X020359Y008161D01*
X020159Y007911D02*
X019759Y008161D01*
X020159Y008411D02*
X020159Y007911D01*
X020579Y009049D02*
X018939Y009049D01*
X018939Y009773D01*
X020579Y009773D01*
X020579Y009049D01*
X020159Y009161D02*
X019759Y009411D01*
X019759Y009161D01*
X019759Y009411D02*
X019759Y009661D01*
X019739Y009841D02*
X019909Y009841D01*
X019966Y009898D01*
X019966Y010125D01*
X019909Y010182D01*
X019739Y010182D01*
X019739Y009841D01*
X020107Y009898D02*
X020164Y009841D01*
X020277Y009841D01*
X020334Y009898D01*
X020334Y009955D01*
X020277Y010011D01*
X020221Y010011D01*
X020277Y010011D02*
X020334Y010068D01*
X020334Y010125D01*
X020277Y010182D01*
X020164Y010182D01*
X020107Y010125D01*
X020159Y010411D02*
X019759Y010661D01*
X019759Y010411D01*
X019759Y010661D02*
X019759Y010911D01*
X019739Y011091D02*
X019909Y011091D01*
X019966Y011148D01*
X019966Y011375D01*
X019909Y011432D01*
X019739Y011432D01*
X019739Y011091D01*
X020107Y011091D02*
X020334Y011091D01*
X020221Y011091D02*
X020221Y011432D01*
X020107Y011318D01*
X020159Y010911D02*
X019759Y010661D01*
X020359Y010661D01*
X020159Y010911D02*
X020159Y010411D01*
X020579Y010299D02*
X020579Y011023D01*
X018939Y011023D01*
X018939Y010299D01*
X020579Y010299D01*
X020159Y009661D02*
X019759Y009411D01*
X020359Y009411D01*
X020159Y009661D02*
X020159Y009161D01*
X019759Y009411D02*
X019509Y009411D01*
X019509Y010661D02*
X019759Y010661D01*
X022009Y012661D02*
X022011Y012705D01*
X022017Y012749D01*
X022027Y012792D01*
X022040Y012834D01*
X022057Y012875D01*
X022078Y012914D01*
X022102Y012951D01*
X022129Y012986D01*
X022159Y013018D01*
X022192Y013048D01*
X022228Y013074D01*
X022265Y013098D01*
X022305Y013117D01*
X022346Y013134D01*
X022389Y013146D01*
X022432Y013155D01*
X022476Y013160D01*
X022520Y013161D01*
X022564Y013158D01*
X022608Y013151D01*
X022651Y013140D01*
X022693Y013126D01*
X022733Y013108D01*
X022772Y013086D01*
X022808Y013062D01*
X022842Y013034D01*
X022874Y013003D01*
X022903Y012969D01*
X022929Y012933D01*
X022951Y012895D01*
X022970Y012855D01*
X022985Y012813D01*
X022997Y012771D01*
X023005Y012727D01*
X023009Y012683D01*
X023009Y012639D01*
X023005Y012595D01*
X022997Y012551D01*
X022985Y012509D01*
X022970Y012467D01*
X022951Y012427D01*
X022929Y012389D01*
X022903Y012353D01*
X022874Y012319D01*
X022842Y012288D01*
X022808Y012260D01*
X022772Y012236D01*
X022733Y012214D01*
X022693Y012196D01*
X022651Y012182D01*
X022608Y012171D01*
X022564Y012164D01*
X022520Y012161D01*
X022476Y012162D01*
X022432Y012167D01*
X022389Y012176D01*
X022346Y012188D01*
X022305Y012205D01*
X022265Y012224D01*
X022228Y012248D01*
X022192Y012274D01*
X022159Y012304D01*
X022129Y012336D01*
X022102Y012371D01*
X022078Y012408D01*
X022057Y012447D01*
X022040Y012488D01*
X022027Y012530D01*
X022017Y012573D01*
X022011Y012617D01*
X022009Y012661D01*
X023072Y012700D02*
X023072Y012360D01*
X023072Y012473D02*
X023242Y012473D01*
X023299Y012530D01*
X023299Y012644D01*
X023242Y012700D01*
X023072Y012700D01*
X023186Y012473D02*
X023299Y012360D01*
X023441Y012417D02*
X023497Y012360D01*
X023611Y012360D01*
X023667Y012417D01*
X023667Y012530D01*
X023611Y012587D01*
X023554Y012587D01*
X023441Y012530D01*
X023441Y012700D01*
X023667Y012700D01*
X026289Y010600D02*
X026346Y010657D01*
X026459Y010657D01*
X026516Y010600D01*
X026516Y010373D01*
X026459Y010316D01*
X026346Y010316D01*
X026289Y010373D01*
X026289Y010600D01*
X026657Y010543D02*
X026771Y010657D01*
X026771Y010316D01*
X026884Y010316D02*
X026657Y010316D01*
X027026Y010316D02*
X027252Y010316D01*
X027139Y010316D02*
X027139Y010657D01*
X027026Y010543D01*
X027789Y011248D02*
X027846Y011191D01*
X027902Y011191D01*
X027959Y011248D01*
X027959Y011532D01*
X027902Y011532D02*
X028016Y011532D01*
X028157Y011532D02*
X028327Y011532D01*
X028384Y011475D01*
X028384Y011361D01*
X028327Y011305D01*
X028157Y011305D01*
X028157Y011191D02*
X028157Y011532D01*
X028526Y011418D02*
X028639Y011532D01*
X028639Y011191D01*
X028526Y011191D02*
X028752Y011191D01*
X027229Y012441D02*
X026889Y012668D01*
X026945Y012810D02*
X026889Y012866D01*
X026889Y012980D01*
X026945Y013036D01*
X027002Y013036D01*
X027229Y012810D01*
X027229Y013036D01*
X027229Y012668D02*
X026889Y012441D01*
X028096Y015191D02*
X028209Y015191D01*
X028266Y015248D01*
X028266Y015361D01*
X028152Y015361D01*
X028039Y015248D02*
X028096Y015191D01*
X028039Y015248D02*
X028039Y015475D01*
X028096Y015532D01*
X028209Y015532D01*
X028266Y015475D01*
X028407Y015532D02*
X028407Y015191D01*
X028634Y015191D02*
X028407Y015532D01*
X028634Y015532D02*
X028634Y015191D01*
X028776Y015191D02*
X028946Y015191D01*
X029002Y015248D01*
X029002Y015475D01*
X028946Y015532D01*
X028776Y015532D01*
X028776Y015191D01*
X025809Y015966D02*
X025582Y015966D01*
X025809Y016193D01*
X025809Y016250D01*
X025752Y016307D01*
X025639Y016307D01*
X025582Y016250D01*
X025441Y016307D02*
X025441Y016023D01*
X025384Y015966D01*
X025271Y015966D01*
X025214Y016023D01*
X025214Y016307D01*
X026152Y017691D02*
X026266Y017805D01*
X026266Y018032D01*
X026039Y018032D02*
X026039Y017805D01*
X026152Y017691D01*
X026407Y017635D02*
X026634Y017635D01*
X026776Y017691D02*
X026776Y018032D01*
X026889Y017918D01*
X027002Y018032D01*
X027002Y017691D01*
X027144Y017748D02*
X027201Y017691D01*
X027314Y017691D01*
X027371Y017748D01*
X027371Y017975D01*
X027314Y018032D01*
X027201Y018032D01*
X027144Y017975D01*
X027144Y017748D01*
X027626Y017691D02*
X027626Y018032D01*
X027739Y018032D02*
X027512Y018032D01*
X027880Y017975D02*
X027880Y017748D01*
X027937Y017691D01*
X028051Y017691D01*
X028107Y017748D01*
X028107Y017975D01*
X028051Y018032D01*
X027937Y018032D01*
X027880Y017975D01*
X028249Y018032D02*
X028249Y017691D01*
X028249Y017805D02*
X028419Y017805D01*
X028476Y017861D01*
X028476Y017975D01*
X028419Y018032D01*
X028249Y018032D01*
X028362Y017805D02*
X028476Y017691D01*
X028134Y019179D02*
X027907Y019519D01*
X027766Y019462D02*
X027709Y019519D01*
X027539Y019519D01*
X027539Y019179D01*
X027539Y019292D02*
X027709Y019292D01*
X027766Y019349D01*
X027766Y019462D01*
X027652Y019292D02*
X027766Y019179D01*
X027907Y019179D02*
X028134Y019519D01*
X027134Y019519D02*
X026907Y019179D01*
X027134Y019179D02*
X026907Y019519D01*
X026766Y019519D02*
X026539Y019519D01*
X026652Y019519D02*
X026652Y019179D01*
X026139Y018682D02*
X026139Y018341D01*
X026026Y018341D02*
X026252Y018341D01*
X026026Y018568D02*
X026139Y018682D01*
X025884Y018625D02*
X025884Y018511D01*
X025827Y018455D01*
X025657Y018455D01*
X025657Y018341D02*
X025657Y018682D01*
X025827Y018682D01*
X025884Y018625D01*
X025516Y018682D02*
X025289Y018682D01*
X025402Y018682D02*
X025402Y018341D01*
X025664Y019179D02*
X025891Y019406D01*
X025891Y019462D01*
X025834Y019519D01*
X025721Y019519D01*
X025664Y019462D01*
X025664Y019179D02*
X025891Y019179D01*
X024891Y019235D02*
X024834Y019179D01*
X024721Y019179D01*
X024664Y019235D01*
X024777Y019349D02*
X024834Y019349D01*
X024891Y019292D01*
X024891Y019235D01*
X024834Y019349D02*
X024891Y019406D01*
X024891Y019462D01*
X024834Y019519D01*
X024721Y019519D01*
X024664Y019462D01*
X023766Y019349D02*
X023539Y019349D01*
X023709Y019519D01*
X023709Y019179D01*
X022766Y019235D02*
X022709Y019179D01*
X022596Y019179D01*
X022539Y019235D01*
X022539Y019349D02*
X022652Y019406D01*
X022709Y019406D01*
X022766Y019349D01*
X022766Y019235D01*
X022539Y019349D02*
X022539Y019519D01*
X022766Y019519D01*
X021766Y019519D02*
X021652Y019462D01*
X021539Y019349D01*
X021709Y019349D01*
X021766Y019292D01*
X021766Y019235D01*
X021709Y019179D01*
X021596Y019179D01*
X021539Y019235D01*
X021539Y019349D01*
X020766Y019462D02*
X020539Y019235D01*
X020539Y019179D01*
X020766Y019462D02*
X020766Y019519D01*
X020539Y019519D01*
X019328Y019462D02*
X019328Y019406D01*
X019272Y019349D01*
X019158Y019349D01*
X019101Y019406D01*
X019101Y019462D01*
X019158Y019519D01*
X019272Y019519D01*
X019328Y019462D01*
X019272Y019349D02*
X019328Y019292D01*
X019328Y019235D01*
X019272Y019179D01*
X019158Y019179D01*
X019101Y019235D01*
X019101Y019292D01*
X019158Y019349D01*
X018328Y019349D02*
X018158Y019349D01*
X018101Y019406D01*
X018101Y019462D01*
X018158Y019519D01*
X018272Y019519D01*
X018328Y019462D01*
X018328Y019235D01*
X018272Y019179D01*
X018158Y019179D01*
X018101Y019235D01*
X017572Y019235D02*
X017572Y019462D01*
X017345Y019235D01*
X017401Y019179D01*
X017515Y019179D01*
X017572Y019235D01*
X017345Y019235D02*
X017345Y019462D01*
X017401Y019519D01*
X017515Y019519D01*
X017572Y019462D01*
X017203Y019179D02*
X016976Y019179D01*
X017090Y019179D02*
X017090Y019519D01*
X016976Y019406D01*
X016634Y019179D02*
X016407Y019179D01*
X016521Y019179D02*
X016521Y019519D01*
X016407Y019406D01*
X016266Y019179D02*
X016039Y019179D01*
X016152Y019179D02*
X016152Y019519D01*
X016039Y019406D01*
X015634Y019406D02*
X015634Y019462D01*
X015577Y019519D01*
X015464Y019519D01*
X015407Y019462D01*
X015634Y019406D02*
X015407Y019179D01*
X015634Y019179D01*
X015266Y019179D02*
X015039Y019179D01*
X015152Y019179D02*
X015152Y019519D01*
X015039Y019406D01*
X014634Y019406D02*
X014577Y019349D01*
X014634Y019292D01*
X014634Y019235D01*
X014577Y019179D01*
X014464Y019179D01*
X014407Y019235D01*
X014266Y019179D02*
X014039Y019179D01*
X014152Y019179D02*
X014152Y019519D01*
X014039Y019406D01*
X013815Y019462D02*
X013815Y019235D01*
X013758Y019179D01*
X013588Y019179D01*
X013588Y019519D01*
X013758Y019519D01*
X013815Y019462D01*
X013447Y019519D02*
X013447Y019179D01*
X013220Y019519D01*
X013220Y019179D01*
X013078Y019235D02*
X013078Y019349D01*
X012965Y019349D01*
X013078Y019462D02*
X013021Y019519D01*
X012908Y019519D01*
X012851Y019462D01*
X012851Y019235D01*
X012908Y019179D01*
X013021Y019179D01*
X013078Y019235D01*
X012621Y019519D02*
X012394Y019519D01*
X012394Y019179D01*
X012252Y019179D02*
X012026Y019179D01*
X012026Y019519D01*
X012252Y019519D01*
X012139Y019349D02*
X012026Y019349D01*
X011884Y019349D02*
X011827Y019292D01*
X011657Y019292D01*
X011657Y019179D02*
X011657Y019519D01*
X011827Y019519D01*
X011884Y019462D01*
X011884Y019349D01*
X011771Y019292D02*
X011884Y019179D01*
X011516Y019179D02*
X011516Y019406D01*
X011402Y019519D01*
X011289Y019406D01*
X011289Y019179D01*
X011289Y019349D02*
X011516Y019349D01*
X012394Y019349D02*
X012507Y019349D01*
X013289Y018657D02*
X013402Y018657D01*
X013346Y018657D02*
X013346Y018316D01*
X013402Y018316D02*
X013289Y018316D01*
X013259Y018161D02*
X012759Y017911D01*
X012759Y017411D01*
X013259Y017161D01*
X012759Y016911D01*
X012759Y016411D01*
X013259Y016161D01*
X013759Y016161D01*
X014259Y016411D01*
X014259Y016911D01*
X013759Y017161D01*
X013259Y017161D01*
X013759Y017161D02*
X014259Y017411D01*
X014259Y017911D01*
X013759Y018161D01*
X013259Y018161D01*
X013534Y018316D02*
X013534Y018657D01*
X013761Y018316D01*
X013761Y018657D01*
X013903Y018486D02*
X014130Y018486D01*
X014073Y018316D02*
X014073Y018657D01*
X013903Y018486D01*
X014509Y017911D02*
X014509Y017411D01*
X015009Y017161D01*
X014509Y016911D01*
X014509Y016411D01*
X015009Y016161D01*
X015509Y016161D01*
X016009Y016411D01*
X016009Y016911D01*
X015509Y017161D01*
X015009Y017161D01*
X015509Y017161D02*
X016009Y017411D01*
X016009Y017911D01*
X015509Y018161D01*
X015009Y018161D01*
X014509Y017911D01*
X015039Y018316D02*
X015152Y018316D01*
X015096Y018316D02*
X015096Y018657D01*
X015152Y018657D02*
X015039Y018657D01*
X015284Y018657D02*
X015511Y018316D01*
X015511Y018657D01*
X015653Y018600D02*
X015709Y018657D01*
X015823Y018657D01*
X015880Y018600D01*
X015880Y018543D01*
X015823Y018486D01*
X015880Y018430D01*
X015880Y018373D01*
X015823Y018316D01*
X015709Y018316D01*
X015653Y018373D01*
X015766Y018486D02*
X015823Y018486D01*
X015284Y018316D02*
X015284Y018657D01*
X014577Y019349D02*
X014521Y019349D01*
X014634Y019406D02*
X014634Y019462D01*
X014577Y019519D01*
X014464Y019519D01*
X014407Y019462D01*
X016259Y017911D02*
X016259Y017411D01*
X016759Y017161D01*
X016259Y016911D01*
X016259Y016411D01*
X016759Y016161D01*
X017259Y016161D01*
X017759Y016411D01*
X017759Y016911D01*
X017259Y017161D01*
X016759Y017161D01*
X017259Y017161D02*
X017759Y017411D01*
X017759Y017911D01*
X017259Y018161D01*
X016759Y018161D01*
X016259Y017911D01*
X016789Y018316D02*
X016902Y018316D01*
X016846Y018316D02*
X016846Y018657D01*
X016902Y018657D02*
X016789Y018657D01*
X017034Y018657D02*
X017261Y018316D01*
X017261Y018657D01*
X017403Y018600D02*
X017459Y018657D01*
X017573Y018657D01*
X017630Y018600D01*
X017630Y018543D01*
X017403Y018316D01*
X017630Y018316D01*
X018009Y017911D02*
X018009Y017411D01*
X018509Y017161D01*
X018009Y016911D01*
X018009Y016411D01*
X018509Y016161D01*
X019009Y016161D01*
X019509Y016411D01*
X019509Y016911D01*
X019009Y017161D01*
X018509Y017161D01*
X019009Y017161D02*
X019509Y017411D01*
X019509Y017911D01*
X019009Y018161D01*
X018509Y018161D01*
X018009Y017911D01*
X018539Y018316D02*
X018652Y018316D01*
X018596Y018316D02*
X018596Y018657D01*
X018652Y018657D02*
X018539Y018657D01*
X018784Y018657D02*
X019011Y018316D01*
X019011Y018657D01*
X019153Y018543D02*
X019266Y018657D01*
X019266Y018316D01*
X019153Y018316D02*
X019380Y018316D01*
X018784Y018316D02*
X018784Y018657D01*
X017034Y018657D02*
X017034Y018316D01*
X017047Y016002D02*
X016877Y016002D01*
X016877Y015661D01*
X016877Y015775D02*
X017047Y015775D01*
X017104Y015831D01*
X017104Y015945D01*
X017047Y016002D01*
X017246Y015945D02*
X017302Y016002D01*
X017416Y016002D01*
X017472Y015945D01*
X017472Y015888D01*
X017416Y015831D01*
X017472Y015775D01*
X017472Y015718D01*
X017416Y015661D01*
X017302Y015661D01*
X017246Y015718D01*
X017359Y015831D02*
X017416Y015831D01*
X016736Y016002D02*
X016622Y016002D01*
X016679Y016002D02*
X016679Y015718D01*
X016622Y015661D01*
X016566Y015661D01*
X016509Y015718D01*
X015722Y015831D02*
X015496Y015831D01*
X015666Y016002D01*
X015666Y015661D01*
X015354Y015831D02*
X015297Y015775D01*
X015127Y015775D01*
X015127Y015661D02*
X015127Y016002D01*
X015297Y016002D01*
X015354Y015945D01*
X015354Y015831D01*
X014986Y016002D02*
X014872Y016002D01*
X014929Y016002D02*
X014929Y015718D01*
X014872Y015661D01*
X014816Y015661D01*
X014759Y015718D01*
X013972Y015718D02*
X013916Y015661D01*
X013802Y015661D01*
X013746Y015718D01*
X013746Y015831D02*
X013859Y015888D01*
X013916Y015888D01*
X013972Y015831D01*
X013972Y015718D01*
X013746Y015831D02*
X013746Y016002D01*
X013972Y016002D01*
X013604Y015945D02*
X013604Y015831D01*
X013547Y015775D01*
X013377Y015775D01*
X013377Y015661D02*
X013377Y016002D01*
X013547Y016002D01*
X013604Y015945D01*
X013236Y016002D02*
X013122Y016002D01*
X013179Y016002D02*
X013179Y015718D01*
X013122Y015661D01*
X013066Y015661D01*
X013009Y015718D01*
X010848Y017191D02*
X010621Y017191D01*
X010735Y017191D02*
X010735Y017532D01*
X010621Y017418D01*
X010480Y017191D02*
X010253Y017191D01*
X010367Y017191D02*
X010367Y017532D01*
X010253Y017418D01*
X010112Y017475D02*
X009885Y017248D01*
X009942Y017191D01*
X010055Y017191D01*
X010112Y017248D01*
X010112Y017475D01*
X010055Y017532D01*
X009942Y017532D01*
X009885Y017475D01*
X009885Y017248D01*
X009743Y017191D02*
X009517Y017191D01*
X009743Y017418D01*
X009743Y017475D01*
X009687Y017532D01*
X009573Y017532D01*
X009517Y017475D01*
X009016Y017418D02*
X009016Y017305D01*
X008903Y017191D01*
X008761Y017191D02*
X008591Y017191D01*
X008534Y017248D01*
X008534Y017361D01*
X008591Y017418D01*
X008761Y017418D01*
X008903Y017532D02*
X009016Y017418D01*
X008402Y017532D02*
X008289Y017418D01*
X008289Y017305D01*
X008402Y017191D01*
X008630Y018078D02*
X008630Y018418D01*
X008801Y018418D01*
X008857Y018361D01*
X008857Y018248D01*
X008801Y018191D01*
X008630Y018191D01*
X008489Y018248D02*
X008432Y018191D01*
X008319Y018191D01*
X008262Y018248D01*
X008319Y018361D02*
X008432Y018361D01*
X008489Y018305D01*
X008489Y018248D01*
X008319Y018361D02*
X008262Y018418D01*
X008262Y018475D01*
X008319Y018532D01*
X008432Y018532D01*
X008489Y018475D01*
X008999Y018418D02*
X009055Y018418D01*
X009055Y018191D01*
X008999Y018191D02*
X009112Y018191D01*
X009244Y018191D02*
X009244Y018418D01*
X009414Y018418D01*
X009471Y018361D01*
X009471Y018191D01*
X009981Y018418D02*
X010094Y018191D01*
X010208Y018418D01*
X010349Y018418D02*
X010463Y018532D01*
X010463Y018191D01*
X010576Y018191D02*
X010349Y018191D01*
X010717Y018191D02*
X010717Y018248D01*
X010774Y018248D01*
X010774Y018191D01*
X010717Y018191D01*
X010902Y018248D02*
X011128Y018475D01*
X011128Y018248D01*
X011072Y018191D01*
X010958Y018191D01*
X010902Y018248D01*
X010902Y018475D01*
X010958Y018532D01*
X011072Y018532D01*
X011128Y018475D01*
X009055Y018532D02*
X009055Y018588D01*
X007752Y018361D02*
X007752Y018248D01*
X007696Y018191D01*
X007526Y018191D01*
X007526Y018078D02*
X007526Y018418D01*
X007696Y018418D01*
X007752Y018361D01*
X007384Y018361D02*
X007327Y018418D01*
X007214Y018418D01*
X007157Y018361D01*
X007157Y018248D01*
X007214Y018191D01*
X007327Y018191D01*
X007384Y018248D01*
X007384Y018361D01*
X007016Y018532D02*
X006789Y018532D01*
X006902Y018532D02*
X006902Y018191D01*
X011389Y012932D02*
X011389Y012648D01*
X011446Y012591D01*
X011559Y012591D01*
X011616Y012648D01*
X011616Y012932D01*
X011757Y012875D02*
X011814Y012932D01*
X011927Y012932D01*
X011984Y012875D01*
X011984Y012818D01*
X011927Y012761D01*
X011984Y012705D01*
X011984Y012648D01*
X011927Y012591D01*
X011814Y012591D01*
X011757Y012648D01*
X011871Y012761D02*
X011927Y012761D01*
X011909Y012161D02*
X012259Y012161D01*
X012259Y004161D01*
X010759Y004161D01*
X010759Y012161D01*
X011109Y012161D01*
X011111Y012122D01*
X011117Y012083D01*
X011126Y012045D01*
X011139Y012008D01*
X011156Y011972D01*
X011176Y011939D01*
X011200Y011907D01*
X011226Y011878D01*
X011255Y011852D01*
X011287Y011828D01*
X011320Y011808D01*
X011356Y011791D01*
X011393Y011778D01*
X011431Y011769D01*
X011470Y011763D01*
X011509Y011761D01*
X011548Y011763D01*
X011587Y011769D01*
X011625Y011778D01*
X011662Y011791D01*
X011698Y011808D01*
X011731Y011828D01*
X011763Y011852D01*
X011792Y011878D01*
X011818Y011907D01*
X011842Y011939D01*
X011862Y011972D01*
X011879Y012008D01*
X011892Y012045D01*
X011901Y012083D01*
X011907Y012122D01*
X011909Y012161D01*
X018259Y015718D02*
X018316Y015661D01*
X018372Y015661D01*
X018429Y015718D01*
X018429Y016002D01*
X018372Y016002D02*
X018486Y016002D01*
X018627Y016002D02*
X018627Y015661D01*
X018627Y015775D02*
X018797Y015775D01*
X018854Y015831D01*
X018854Y015945D01*
X018797Y016002D01*
X018627Y016002D01*
X018996Y015945D02*
X019052Y016002D01*
X019166Y016002D01*
X019222Y015945D01*
X019222Y015888D01*
X018996Y015661D01*
X019222Y015661D01*
X022039Y016191D02*
X022039Y016532D01*
X022209Y016532D01*
X022266Y016475D01*
X022266Y016361D01*
X022209Y016305D01*
X022039Y016305D01*
X022152Y016305D02*
X022266Y016191D01*
X022407Y016248D02*
X022464Y016191D01*
X022577Y016191D01*
X022634Y016248D01*
X022634Y016305D01*
X022577Y016361D01*
X022407Y016361D01*
X022407Y016248D01*
X022407Y016361D02*
X022521Y016475D01*
X022634Y016532D01*
X010359Y003511D02*
X008659Y003511D01*
X008642Y003509D01*
X008625Y003505D01*
X008609Y003498D01*
X008595Y003488D01*
X008582Y003475D01*
X008572Y003461D01*
X008565Y003445D01*
X008561Y003428D01*
X008559Y003411D01*
X008559Y002411D01*
X008561Y002394D01*
X008565Y002377D01*
X008572Y002361D01*
X008582Y002347D01*
X008595Y002334D01*
X008609Y002324D01*
X008625Y002317D01*
X008642Y002313D01*
X008659Y002311D01*
X010359Y002311D01*
X010376Y002313D01*
X010393Y002317D01*
X010409Y002324D01*
X010423Y002334D01*
X010436Y002347D01*
X010446Y002361D01*
X010453Y002377D01*
X010457Y002394D01*
X010459Y002411D01*
X010459Y003411D01*
X010457Y003428D01*
X010453Y003445D01*
X010446Y003461D01*
X010436Y003475D01*
X010423Y003488D01*
X010409Y003498D01*
X010393Y003505D01*
X010376Y003509D01*
X010359Y003511D01*
X009659Y002911D02*
X009609Y002911D01*
X009409Y002911D02*
X009359Y002911D01*
X009477Y002132D02*
X009421Y002075D01*
X009477Y002132D02*
X009591Y002132D01*
X009647Y002075D01*
X009647Y002018D01*
X009421Y001791D01*
X009647Y001791D01*
X009279Y001848D02*
X009222Y001791D01*
X009109Y001791D01*
X009052Y001848D01*
X009052Y002075D01*
X009109Y002132D01*
X009222Y002132D01*
X009279Y002075D01*
X023645Y000563D02*
X023645Y000336D01*
X023645Y000506D02*
X023871Y000506D01*
X023871Y000563D02*
X023871Y000336D01*
X024013Y000336D02*
X024013Y000563D01*
X024183Y000563D01*
X024240Y000506D01*
X024240Y000336D01*
X024381Y000393D02*
X024438Y000450D01*
X024608Y000450D01*
X024608Y000506D02*
X024608Y000336D01*
X024438Y000336D01*
X024381Y000393D01*
X024438Y000563D02*
X024551Y000563D01*
X024608Y000506D01*
X024750Y000336D02*
X024863Y000336D01*
X024806Y000336D02*
X024806Y000677D01*
X024750Y000677D01*
X024995Y000506D02*
X024995Y000393D01*
X025052Y000336D01*
X025165Y000336D01*
X025222Y000393D01*
X025222Y000506D01*
X025165Y000563D01*
X025052Y000563D01*
X024995Y000506D01*
X025363Y000506D02*
X025363Y000393D01*
X025420Y000336D01*
X025590Y000336D01*
X025590Y000280D02*
X025590Y000563D01*
X025420Y000563D01*
X025363Y000506D01*
X025477Y000223D02*
X025534Y000223D01*
X025590Y000280D01*
X026100Y000336D02*
X026213Y000336D01*
X026157Y000336D02*
X026157Y000677D01*
X026213Y000677D02*
X026100Y000677D01*
X026346Y000563D02*
X026516Y000563D01*
X026572Y000506D01*
X026572Y000336D01*
X026346Y000336D02*
X026346Y000563D01*
X023871Y000563D02*
X023758Y000677D01*
X023645Y000563D01*
D12*
X008046Y000965D02*
X008013Y000931D01*
X007946Y000931D01*
X007913Y000965D01*
X007913Y001031D02*
X007980Y001065D01*
X008013Y001065D01*
X008046Y001031D01*
X008046Y000965D01*
X007913Y001031D02*
X007913Y001131D01*
X008046Y001131D01*
X007825Y001031D02*
X007692Y001031D01*
X007792Y001131D01*
X007792Y000931D01*
X007604Y000965D02*
X007571Y000931D01*
X007504Y000931D01*
X007471Y000965D01*
X007471Y001031D02*
X007538Y001065D01*
X007571Y001065D01*
X007604Y001031D01*
X007604Y000965D01*
X007471Y001031D02*
X007471Y001131D01*
X007604Y001131D01*
X007317Y001131D02*
X007317Y000931D01*
X007383Y000931D02*
X007250Y000931D01*
X007129Y000931D02*
X007129Y001131D01*
X007029Y001031D01*
X007162Y001031D01*
X007250Y001065D02*
X007317Y001131D01*
D13*
X019209Y006905D03*
X019209Y008155D03*
X019209Y009405D03*
X019209Y010655D03*
X023709Y010655D03*
X023709Y009405D03*
X023709Y008155D03*
X023709Y006905D03*
D14*
X023314Y006911D03*
X023314Y008161D03*
X023314Y009411D03*
X023314Y010661D03*
X025204Y010661D03*
X025204Y009411D03*
X025204Y008161D03*
X025204Y006911D03*
X020704Y006911D03*
X020704Y008161D03*
X020704Y009411D03*
X020704Y010661D03*
X018814Y010661D03*
X018814Y009411D03*
X018814Y008161D03*
X018814Y006911D03*
D15*
X027259Y006911D02*
X027259Y010911D01*
X028759Y010911D01*
X028759Y006911D01*
X027259Y006911D01*
X023554Y013392D02*
X023554Y013572D01*
X023554Y013482D02*
X023284Y013482D01*
X023374Y013392D01*
X023329Y015642D02*
X023284Y015687D01*
X023284Y015777D01*
X023329Y015822D01*
X023374Y015822D01*
X023419Y015777D01*
X023464Y015822D01*
X023509Y015822D01*
X023554Y015777D01*
X023554Y015687D01*
X023509Y015642D01*
X023419Y015732D02*
X023419Y015777D01*
D16*
X023709Y016011D02*
X021009Y016011D01*
X021009Y013311D01*
X023709Y013311D01*
X023709Y016011D01*
D17*
X024219Y014811D02*
X026799Y014811D01*
X026799Y013511D01*
X024219Y013511D01*
X024219Y014811D01*
X027360Y015000D02*
X027360Y012323D01*
X029742Y012323D01*
X029742Y015000D01*
X027360Y015000D01*
X029194Y014960D02*
X029194Y012362D01*
X007999Y017181D02*
X007976Y017167D01*
X007952Y017156D01*
X007926Y017149D01*
X007900Y017145D01*
X007873Y017144D01*
X007847Y017147D01*
X007821Y017153D01*
X007796Y017162D01*
X007772Y017175D01*
X007750Y017190D01*
X007731Y017208D01*
X007713Y017229D01*
X007699Y017251D01*
X007688Y017275D01*
X007679Y017301D01*
X007257Y017411D02*
X007259Y017451D01*
X007265Y017491D01*
X007275Y017531D01*
X007288Y017569D01*
X007306Y017605D01*
X007326Y017640D01*
X007351Y017672D01*
X007378Y017702D01*
X007408Y017729D01*
X007440Y017754D01*
X007475Y017774D01*
X007511Y017792D01*
X007549Y017805D01*
X007589Y017815D01*
X007629Y017821D01*
X007669Y017823D01*
X007709Y017821D01*
X007749Y017815D01*
X007789Y017805D01*
X007827Y017792D01*
X007863Y017774D01*
X007898Y017754D01*
X007930Y017729D01*
X007960Y017702D01*
X007987Y017672D01*
X008012Y017640D01*
X008032Y017605D01*
X008050Y017569D01*
X008063Y017531D01*
X008073Y017491D01*
X008079Y017451D01*
X008081Y017411D01*
X008079Y017371D01*
X008073Y017331D01*
X008063Y017291D01*
X008050Y017253D01*
X008032Y017217D01*
X008012Y017182D01*
X007987Y017150D01*
X007960Y017120D01*
X007930Y017093D01*
X007898Y017068D01*
X007863Y017048D01*
X007827Y017030D01*
X007789Y017017D01*
X007749Y017007D01*
X007709Y017001D01*
X007669Y016999D01*
X007629Y017001D01*
X007589Y017007D01*
X007549Y017017D01*
X007511Y017030D01*
X007475Y017048D01*
X007440Y017068D01*
X007408Y017093D01*
X007378Y017120D01*
X007351Y017150D01*
X007326Y017182D01*
X007306Y017217D01*
X007288Y017253D01*
X007275Y017291D01*
X007265Y017331D01*
X007259Y017371D01*
X007257Y017411D01*
X007259Y017411D02*
X006759Y016911D01*
X006759Y017211D01*
X006859Y017211D01*
X006759Y017211D02*
X006759Y017411D01*
X006859Y017411D01*
X006759Y017411D02*
X006759Y017611D01*
X006849Y017611D01*
X006759Y017611D02*
X006759Y017911D01*
X007259Y017411D01*
X007745Y017551D02*
X007747Y017566D01*
X007752Y017581D01*
X007761Y017593D01*
X007773Y017604D01*
X007786Y017611D01*
X007801Y017615D01*
X007817Y017615D01*
X007832Y017611D01*
X007845Y017604D01*
X007857Y017593D01*
X007866Y017581D01*
X007871Y017566D01*
X007873Y017551D01*
X007871Y017536D01*
X007866Y017521D01*
X007857Y017509D01*
X007845Y017498D01*
X007832Y017491D01*
X007817Y017487D01*
X007801Y017487D01*
X007786Y017491D01*
X007773Y017498D01*
X007761Y017509D01*
X007752Y017521D01*
X007747Y017536D01*
X007745Y017551D01*
D18*
X008109Y020161D02*
X008111Y020211D01*
X008117Y020261D01*
X008127Y020311D01*
X008140Y020359D01*
X008157Y020407D01*
X008178Y020453D01*
X008202Y020497D01*
X008230Y020539D01*
X008261Y020579D01*
X008295Y020616D01*
X008332Y020651D01*
X008371Y020682D01*
X008412Y020711D01*
X008456Y020736D01*
X008502Y020758D01*
X008549Y020776D01*
X008597Y020790D01*
X008646Y020801D01*
X008696Y020808D01*
X008746Y020811D01*
X008797Y020810D01*
X008847Y020805D01*
X008897Y020796D01*
X008945Y020784D01*
X008993Y020767D01*
X009039Y020747D01*
X009084Y020724D01*
X009127Y020697D01*
X009167Y020667D01*
X009205Y020634D01*
X009240Y020598D01*
X009273Y020559D01*
X009302Y020518D01*
X009328Y020475D01*
X009351Y020430D01*
X009370Y020383D01*
X009385Y020335D01*
X009397Y020286D01*
X009405Y020236D01*
X009409Y020186D01*
X009409Y020136D01*
X009405Y020086D01*
X009397Y020036D01*
X009385Y019987D01*
X009370Y019939D01*
X009351Y019892D01*
X009328Y019847D01*
X009302Y019804D01*
X009273Y019763D01*
X009240Y019724D01*
X009205Y019688D01*
X009167Y019655D01*
X009127Y019625D01*
X009084Y019598D01*
X009039Y019575D01*
X008993Y019555D01*
X008945Y019538D01*
X008897Y019526D01*
X008847Y019517D01*
X008797Y019512D01*
X008746Y019511D01*
X008696Y019514D01*
X008646Y019521D01*
X008597Y019532D01*
X008549Y019546D01*
X008502Y019564D01*
X008456Y019586D01*
X008412Y019611D01*
X008371Y019640D01*
X008332Y019671D01*
X008295Y019706D01*
X008261Y019743D01*
X008230Y019783D01*
X008202Y019825D01*
X008178Y019869D01*
X008157Y019915D01*
X008140Y019963D01*
X008127Y020011D01*
X008117Y020061D01*
X008111Y020111D01*
X008109Y020161D01*
X028109Y003161D02*
X028111Y003211D01*
X028117Y003261D01*
X028127Y003311D01*
X028140Y003359D01*
X028157Y003407D01*
X028178Y003453D01*
X028202Y003497D01*
X028230Y003539D01*
X028261Y003579D01*
X028295Y003616D01*
X028332Y003651D01*
X028371Y003682D01*
X028412Y003711D01*
X028456Y003736D01*
X028502Y003758D01*
X028549Y003776D01*
X028597Y003790D01*
X028646Y003801D01*
X028696Y003808D01*
X028746Y003811D01*
X028797Y003810D01*
X028847Y003805D01*
X028897Y003796D01*
X028945Y003784D01*
X028993Y003767D01*
X029039Y003747D01*
X029084Y003724D01*
X029127Y003697D01*
X029167Y003667D01*
X029205Y003634D01*
X029240Y003598D01*
X029273Y003559D01*
X029302Y003518D01*
X029328Y003475D01*
X029351Y003430D01*
X029370Y003383D01*
X029385Y003335D01*
X029397Y003286D01*
X029405Y003236D01*
X029409Y003186D01*
X029409Y003136D01*
X029405Y003086D01*
X029397Y003036D01*
X029385Y002987D01*
X029370Y002939D01*
X029351Y002892D01*
X029328Y002847D01*
X029302Y002804D01*
X029273Y002763D01*
X029240Y002724D01*
X029205Y002688D01*
X029167Y002655D01*
X029127Y002625D01*
X029084Y002598D01*
X029039Y002575D01*
X028993Y002555D01*
X028945Y002538D01*
X028897Y002526D01*
X028847Y002517D01*
X028797Y002512D01*
X028746Y002511D01*
X028696Y002514D01*
X028646Y002521D01*
X028597Y002532D01*
X028549Y002546D01*
X028502Y002564D01*
X028456Y002586D01*
X028412Y002611D01*
X028371Y002640D01*
X028332Y002671D01*
X028295Y002706D01*
X028261Y002743D01*
X028230Y002783D01*
X028202Y002825D01*
X028178Y002869D01*
X028157Y002915D01*
X028140Y002963D01*
X028127Y003011D01*
X028117Y003061D01*
X028111Y003111D01*
X028109Y003161D01*
D19*
X027551Y003835D02*
X027474Y003788D01*
X027475Y003788D02*
X027443Y003834D01*
X027408Y003879D01*
X027371Y003920D01*
X027331Y003959D01*
X027288Y003995D01*
X027242Y004028D01*
X027195Y004058D01*
X027145Y004084D01*
X027094Y004107D01*
X027041Y004126D01*
X026988Y004142D01*
X026933Y004153D01*
X026877Y004161D01*
X026821Y004165D01*
X026765Y004166D01*
X026763Y004255D01*
X026762Y004256D01*
X026821Y004255D01*
X026879Y004252D01*
X026937Y004244D01*
X026994Y004233D01*
X027051Y004217D01*
X027106Y004199D01*
X027160Y004176D01*
X027212Y004151D01*
X027263Y004121D01*
X027312Y004089D01*
X027358Y004054D01*
X027402Y004015D01*
X027444Y003974D01*
X027483Y003930D01*
X027518Y003884D01*
X027551Y003836D01*
X027543Y003831D01*
X027511Y003879D01*
X027476Y003925D01*
X027437Y003968D01*
X027396Y004009D01*
X027353Y004047D01*
X027307Y004082D01*
X027258Y004114D01*
X027208Y004143D01*
X027156Y004168D01*
X027103Y004190D01*
X027048Y004209D01*
X026992Y004224D01*
X026935Y004235D01*
X026878Y004243D01*
X026820Y004246D01*
X026762Y004247D01*
X026763Y004238D01*
X026820Y004237D01*
X026877Y004234D01*
X026934Y004226D01*
X026990Y004215D01*
X027045Y004200D01*
X027100Y004182D01*
X027153Y004160D01*
X027204Y004135D01*
X027254Y004106D01*
X027301Y004074D01*
X027347Y004040D01*
X027390Y004002D01*
X027431Y003962D01*
X027469Y003919D01*
X027504Y003874D01*
X027536Y003826D01*
X027528Y003821D01*
X027496Y003868D01*
X027462Y003913D01*
X027424Y003956D01*
X027384Y003995D01*
X027341Y004033D01*
X027296Y004067D01*
X027249Y004098D01*
X027200Y004127D01*
X027149Y004152D01*
X027096Y004173D01*
X027043Y004192D01*
X026988Y004206D01*
X026932Y004217D01*
X026876Y004225D01*
X026820Y004228D01*
X026763Y004229D01*
X026763Y004220D01*
X026819Y004219D01*
X026875Y004216D01*
X026931Y004208D01*
X026986Y004197D01*
X027040Y004183D01*
X027093Y004165D01*
X027145Y004144D01*
X027196Y004119D01*
X027244Y004091D01*
X027291Y004060D01*
X027335Y004026D01*
X027378Y003989D01*
X027418Y003949D01*
X027455Y003907D01*
X027489Y003863D01*
X027520Y003817D01*
X027513Y003812D01*
X027482Y003858D01*
X027448Y003902D01*
X027411Y003943D01*
X027372Y003982D01*
X027330Y004019D01*
X027286Y004052D01*
X027239Y004083D01*
X027191Y004111D01*
X027141Y004135D01*
X027090Y004156D01*
X027038Y004174D01*
X026984Y004189D01*
X026930Y004200D01*
X026875Y004207D01*
X026819Y004211D01*
X026764Y004211D01*
X026764Y004202D01*
X026819Y004202D01*
X026874Y004198D01*
X026928Y004191D01*
X026982Y004180D01*
X027035Y004166D01*
X027087Y004148D01*
X027138Y004127D01*
X027187Y004103D01*
X027235Y004076D01*
X027280Y004045D01*
X027324Y004012D01*
X027365Y003976D01*
X027404Y003937D01*
X027441Y003896D01*
X027474Y003853D01*
X027505Y003807D01*
X027498Y003802D01*
X027467Y003847D01*
X027434Y003890D01*
X027398Y003931D01*
X027359Y003969D01*
X027318Y004005D01*
X027275Y004038D01*
X027230Y004068D01*
X027183Y004095D01*
X027134Y004119D01*
X027084Y004140D01*
X027032Y004157D01*
X026980Y004171D01*
X026927Y004182D01*
X026873Y004189D01*
X026819Y004193D01*
X026764Y004193D01*
X026765Y004184D01*
X026818Y004184D01*
X026872Y004180D01*
X026925Y004173D01*
X026978Y004162D01*
X027030Y004148D01*
X027081Y004131D01*
X027130Y004111D01*
X027179Y004087D01*
X027225Y004060D01*
X027270Y004030D01*
X027313Y003998D01*
X027353Y003963D01*
X027391Y003925D01*
X027427Y003885D01*
X027460Y003842D01*
X027490Y003798D01*
X027482Y003793D01*
X027450Y003840D01*
X027415Y003884D01*
X027377Y003926D01*
X027337Y003966D01*
X027293Y004002D01*
X027247Y004035D01*
X027199Y004065D01*
X027149Y004092D01*
X027097Y004115D01*
X027044Y004135D01*
X026990Y004150D01*
X026934Y004162D01*
X026878Y004170D01*
X026822Y004174D01*
X026765Y004175D01*
X026763Y002567D02*
X026767Y002657D01*
X026821Y002656D01*
X026876Y002660D01*
X026930Y002667D01*
X026983Y002678D01*
X027035Y002693D01*
X027087Y002711D01*
X027137Y002733D01*
X027185Y002759D01*
X027231Y002788D01*
X027275Y002820D01*
X027316Y002855D01*
X027355Y002894D01*
X027392Y002934D01*
X027425Y002978D01*
X027455Y003023D01*
X027532Y002977D01*
X027501Y002929D01*
X027466Y002883D01*
X027429Y002840D01*
X027388Y002799D01*
X027346Y002762D01*
X027300Y002727D01*
X027253Y002695D01*
X027203Y002666D01*
X027152Y002641D01*
X027099Y002619D01*
X027045Y002601D01*
X026989Y002587D01*
X026933Y002576D01*
X026876Y002569D01*
X026819Y002566D01*
X026762Y002567D01*
X026763Y002576D01*
X026819Y002575D01*
X026876Y002578D01*
X026932Y002585D01*
X026987Y002596D01*
X027042Y002610D01*
X027096Y002628D01*
X027148Y002649D01*
X027199Y002674D01*
X027248Y002703D01*
X027295Y002734D01*
X027340Y002768D01*
X027382Y002806D01*
X027422Y002846D01*
X027459Y002889D01*
X027493Y002934D01*
X027524Y002981D01*
X027517Y002986D01*
X027486Y002939D01*
X027452Y002894D01*
X027415Y002852D01*
X027376Y002812D01*
X027334Y002775D01*
X027290Y002741D01*
X027243Y002710D01*
X027195Y002682D01*
X027144Y002658D01*
X027093Y002636D01*
X027040Y002619D01*
X026985Y002605D01*
X026930Y002594D01*
X026875Y002587D01*
X026819Y002584D01*
X026763Y002585D01*
X026763Y002594D01*
X026819Y002593D01*
X026874Y002596D01*
X026929Y002603D01*
X026983Y002613D01*
X027037Y002627D01*
X027090Y002645D01*
X027141Y002666D01*
X027190Y002690D01*
X027238Y002718D01*
X027284Y002749D01*
X027328Y002782D01*
X027370Y002819D01*
X027409Y002858D01*
X027445Y002900D01*
X027479Y002944D01*
X027509Y002991D01*
X027501Y002995D01*
X027471Y002949D01*
X027438Y002906D01*
X027402Y002864D01*
X027364Y002825D01*
X027323Y002789D01*
X027279Y002756D01*
X027234Y002725D01*
X027186Y002698D01*
X027137Y002674D01*
X027086Y002653D01*
X027034Y002636D01*
X026981Y002622D01*
X026928Y002612D01*
X026873Y002605D01*
X026819Y002602D01*
X026764Y002603D01*
X026764Y002612D01*
X026819Y002611D01*
X026873Y002614D01*
X026926Y002621D01*
X026980Y002631D01*
X027032Y002645D01*
X027083Y002662D01*
X027133Y002682D01*
X027182Y002706D01*
X027229Y002733D01*
X027274Y002763D01*
X027317Y002796D01*
X027357Y002832D01*
X027396Y002870D01*
X027431Y002911D01*
X027464Y002955D01*
X027493Y003000D01*
X027486Y003004D01*
X027456Y002960D01*
X027424Y002917D01*
X027389Y002877D01*
X027351Y002839D01*
X027311Y002803D01*
X027269Y002770D01*
X027224Y002741D01*
X027178Y002714D01*
X027130Y002690D01*
X027080Y002670D01*
X027029Y002653D01*
X026978Y002640D01*
X026925Y002630D01*
X026872Y002623D01*
X026818Y002620D01*
X026765Y002621D01*
X026765Y002630D01*
X026818Y002629D01*
X026871Y002632D01*
X026924Y002639D01*
X026976Y002648D01*
X027027Y002662D01*
X027077Y002679D01*
X027126Y002699D01*
X027174Y002722D01*
X027219Y002748D01*
X027263Y002778D01*
X027305Y002810D01*
X027345Y002845D01*
X027382Y002883D01*
X027417Y002923D01*
X027449Y002965D01*
X027478Y003009D01*
X027470Y003014D01*
X027440Y002967D01*
X027406Y002923D01*
X027369Y002881D01*
X027329Y002842D01*
X027286Y002806D01*
X027241Y002773D01*
X027194Y002743D01*
X027144Y002717D01*
X027093Y002695D01*
X027041Y002676D01*
X026987Y002660D01*
X026933Y002649D01*
X026877Y002642D01*
X026822Y002638D01*
X026766Y002639D01*
X026766Y002648D01*
X026821Y002647D01*
X026876Y002651D01*
X026931Y002658D01*
X026985Y002669D01*
X027038Y002684D01*
X027090Y002703D01*
X027141Y002725D01*
X027189Y002751D01*
X027236Y002781D01*
X027280Y002813D01*
X027323Y002849D01*
X027362Y002887D01*
X027399Y002929D01*
X027432Y002972D01*
X027463Y003018D01*
X026755Y004255D02*
X026755Y004165D01*
X026754Y004166D02*
X026700Y004164D01*
X026647Y004158D01*
X026594Y004148D01*
X026542Y004134D01*
X026491Y004117D01*
X026441Y004096D01*
X026393Y004072D01*
X026347Y004044D01*
X026303Y004013D01*
X026262Y003979D01*
X026222Y003942D01*
X026186Y003903D01*
X026118Y003960D01*
X026117Y003961D01*
X026155Y004002D01*
X026195Y004040D01*
X026238Y004076D01*
X026283Y004109D01*
X026330Y004139D01*
X026378Y004165D01*
X026429Y004189D01*
X026481Y004209D01*
X026534Y004225D01*
X026588Y004239D01*
X026643Y004248D01*
X026698Y004254D01*
X026754Y004256D01*
X026754Y004247D01*
X026699Y004245D01*
X026644Y004239D01*
X026590Y004230D01*
X026536Y004217D01*
X026484Y004200D01*
X026432Y004181D01*
X026382Y004157D01*
X026334Y004131D01*
X026288Y004101D01*
X026243Y004069D01*
X026201Y004034D01*
X026161Y003995D01*
X026124Y003955D01*
X026131Y003949D01*
X026168Y003989D01*
X026207Y004027D01*
X026249Y004062D01*
X026293Y004094D01*
X026339Y004123D01*
X026387Y004149D01*
X026436Y004172D01*
X026487Y004192D01*
X026539Y004208D01*
X026592Y004221D01*
X026645Y004230D01*
X026700Y004236D01*
X026754Y004238D01*
X026754Y004229D01*
X026700Y004227D01*
X026647Y004221D01*
X026594Y004212D01*
X026541Y004199D01*
X026490Y004183D01*
X026439Y004164D01*
X026391Y004141D01*
X026343Y004116D01*
X026298Y004087D01*
X026254Y004055D01*
X026213Y004020D01*
X026174Y003983D01*
X026138Y003943D01*
X026145Y003937D01*
X026181Y003977D01*
X026219Y004014D01*
X026260Y004048D01*
X026303Y004079D01*
X026348Y004108D01*
X026395Y004133D01*
X026443Y004156D01*
X026493Y004175D01*
X026544Y004191D01*
X026595Y004203D01*
X026648Y004212D01*
X026701Y004218D01*
X026754Y004220D01*
X026754Y004211D01*
X026701Y004209D01*
X026649Y004203D01*
X026597Y004194D01*
X026546Y004182D01*
X026496Y004166D01*
X026446Y004147D01*
X026399Y004125D01*
X026352Y004100D01*
X026308Y004072D01*
X026266Y004041D01*
X026225Y004007D01*
X026187Y003970D01*
X026152Y003932D01*
X026158Y003926D01*
X026194Y003964D01*
X026231Y004000D01*
X026271Y004034D01*
X026313Y004064D01*
X026357Y004092D01*
X026403Y004117D01*
X026450Y004139D01*
X026499Y004158D01*
X026548Y004173D01*
X026599Y004186D01*
X026650Y004194D01*
X026702Y004200D01*
X026754Y004202D01*
X026754Y004193D01*
X026698Y004191D01*
X026643Y004184D01*
X026588Y004174D01*
X026534Y004160D01*
X026481Y004142D01*
X026430Y004120D01*
X026380Y004095D01*
X026332Y004066D01*
X026287Y004034D01*
X026244Y003999D01*
X026203Y003961D01*
X026165Y003920D01*
X026172Y003914D01*
X026209Y003955D01*
X026250Y003992D01*
X026292Y004027D01*
X026337Y004059D01*
X026385Y004087D01*
X026434Y004112D01*
X026485Y004134D01*
X026537Y004151D01*
X026590Y004165D01*
X026644Y004175D01*
X026699Y004182D01*
X026754Y004184D01*
X026754Y004175D01*
X026700Y004173D01*
X026645Y004167D01*
X026592Y004157D01*
X026539Y004143D01*
X026488Y004125D01*
X026438Y004104D01*
X026389Y004079D01*
X026342Y004051D01*
X026298Y004020D01*
X026256Y003986D01*
X026216Y003948D01*
X026179Y003908D01*
X026114Y002867D02*
X026183Y002924D01*
X026182Y002924D02*
X026219Y002884D01*
X026258Y002846D01*
X026300Y002812D01*
X026344Y002780D01*
X026390Y002752D01*
X026439Y002727D01*
X026489Y002706D01*
X026540Y002688D01*
X026593Y002675D01*
X026646Y002665D01*
X026700Y002658D01*
X026754Y002656D01*
X026755Y002567D01*
X026754Y002566D01*
X026698Y002568D01*
X026642Y002574D01*
X026587Y002584D01*
X026532Y002597D01*
X026479Y002614D01*
X026426Y002634D01*
X026375Y002658D01*
X026326Y002685D01*
X026279Y002716D01*
X026234Y002749D01*
X026191Y002785D01*
X026151Y002824D01*
X026113Y002866D01*
X026120Y002872D01*
X026157Y002831D01*
X026197Y002792D01*
X026239Y002756D01*
X026284Y002723D01*
X026331Y002693D01*
X026379Y002666D01*
X026430Y002643D01*
X026482Y002622D01*
X026535Y002606D01*
X026589Y002593D01*
X026643Y002583D01*
X026698Y002577D01*
X026754Y002575D01*
X026754Y002584D01*
X026699Y002586D01*
X026644Y002592D01*
X026590Y002601D01*
X026537Y002614D01*
X026485Y002631D01*
X026433Y002651D01*
X026384Y002674D01*
X026335Y002701D01*
X026289Y002730D01*
X026245Y002763D01*
X026203Y002799D01*
X026164Y002837D01*
X026127Y002878D01*
X026134Y002883D01*
X026170Y002843D01*
X026209Y002805D01*
X026251Y002770D01*
X026294Y002738D01*
X026340Y002708D01*
X026388Y002682D01*
X026437Y002659D01*
X026487Y002639D01*
X026539Y002623D01*
X026592Y002610D01*
X026646Y002601D01*
X026700Y002595D01*
X026754Y002593D01*
X026754Y002602D01*
X026700Y002604D01*
X026647Y002610D01*
X026594Y002619D01*
X026542Y002632D01*
X026490Y002648D01*
X026440Y002667D01*
X026392Y002690D01*
X026345Y002716D01*
X026299Y002745D01*
X026256Y002777D01*
X026215Y002812D01*
X026177Y002849D01*
X026141Y002889D01*
X026148Y002895D01*
X026183Y002856D01*
X026221Y002819D01*
X026262Y002784D01*
X026305Y002753D01*
X026349Y002724D01*
X026396Y002698D01*
X026444Y002676D01*
X026493Y002656D01*
X026544Y002640D01*
X026596Y002628D01*
X026648Y002619D01*
X026701Y002613D01*
X026754Y002611D01*
X026754Y002620D01*
X026702Y002622D01*
X026649Y002628D01*
X026598Y002637D01*
X026547Y002649D01*
X026496Y002665D01*
X026447Y002684D01*
X026400Y002706D01*
X026354Y002732D01*
X026310Y002760D01*
X026268Y002791D01*
X026227Y002825D01*
X026190Y002862D01*
X026155Y002901D01*
X026161Y002907D01*
X026196Y002868D01*
X026234Y002832D01*
X026273Y002798D01*
X026315Y002767D01*
X026359Y002739D01*
X026404Y002714D01*
X026451Y002692D01*
X026499Y002673D01*
X026549Y002658D01*
X026599Y002645D01*
X026650Y002637D01*
X026702Y002631D01*
X026754Y002629D01*
X026754Y002638D01*
X026703Y002640D01*
X026652Y002645D01*
X026601Y002654D01*
X026551Y002666D01*
X026502Y002682D01*
X026455Y002700D01*
X026408Y002722D01*
X026363Y002747D01*
X026320Y002775D01*
X026279Y002805D01*
X026240Y002838D01*
X026203Y002874D01*
X026168Y002912D01*
X026175Y002918D01*
X026212Y002877D01*
X026252Y002839D01*
X026294Y002805D01*
X026339Y002773D01*
X026386Y002744D01*
X026435Y002719D01*
X026486Y002698D01*
X026537Y002680D01*
X026591Y002666D01*
X026645Y002656D01*
X026699Y002649D01*
X026754Y002647D01*
X025551Y003835D02*
X025474Y003788D01*
X025475Y003788D02*
X025443Y003834D01*
X025408Y003879D01*
X025371Y003920D01*
X025331Y003959D01*
X025288Y003995D01*
X025242Y004028D01*
X025195Y004058D01*
X025145Y004084D01*
X025094Y004107D01*
X025041Y004126D01*
X024988Y004142D01*
X024933Y004153D01*
X024877Y004161D01*
X024821Y004165D01*
X024765Y004166D01*
X024763Y004255D01*
X024762Y004256D01*
X024821Y004255D01*
X024879Y004252D01*
X024937Y004244D01*
X024994Y004233D01*
X025051Y004217D01*
X025106Y004199D01*
X025160Y004176D01*
X025212Y004151D01*
X025263Y004121D01*
X025312Y004089D01*
X025358Y004054D01*
X025402Y004015D01*
X025444Y003974D01*
X025483Y003930D01*
X025518Y003884D01*
X025551Y003836D01*
X025543Y003831D01*
X025511Y003879D01*
X025476Y003925D01*
X025437Y003968D01*
X025396Y004009D01*
X025353Y004047D01*
X025307Y004082D01*
X025258Y004114D01*
X025208Y004143D01*
X025156Y004168D01*
X025103Y004190D01*
X025048Y004209D01*
X024992Y004224D01*
X024935Y004235D01*
X024878Y004243D01*
X024820Y004246D01*
X024762Y004247D01*
X024763Y004238D01*
X024820Y004237D01*
X024877Y004234D01*
X024934Y004226D01*
X024990Y004215D01*
X025045Y004200D01*
X025100Y004182D01*
X025153Y004160D01*
X025204Y004135D01*
X025254Y004106D01*
X025301Y004074D01*
X025347Y004040D01*
X025390Y004002D01*
X025431Y003962D01*
X025469Y003919D01*
X025504Y003874D01*
X025536Y003826D01*
X025528Y003821D01*
X025496Y003868D01*
X025462Y003913D01*
X025424Y003956D01*
X025384Y003995D01*
X025341Y004033D01*
X025296Y004067D01*
X025249Y004098D01*
X025200Y004127D01*
X025149Y004152D01*
X025096Y004173D01*
X025043Y004192D01*
X024988Y004206D01*
X024932Y004217D01*
X024876Y004225D01*
X024820Y004228D01*
X024763Y004229D01*
X024763Y004220D01*
X024819Y004219D01*
X024875Y004216D01*
X024931Y004208D01*
X024986Y004197D01*
X025040Y004183D01*
X025093Y004165D01*
X025145Y004144D01*
X025196Y004119D01*
X025244Y004091D01*
X025291Y004060D01*
X025335Y004026D01*
X025378Y003989D01*
X025418Y003949D01*
X025455Y003907D01*
X025489Y003863D01*
X025520Y003817D01*
X025513Y003812D01*
X025482Y003858D01*
X025448Y003902D01*
X025411Y003943D01*
X025372Y003982D01*
X025330Y004019D01*
X025286Y004052D01*
X025239Y004083D01*
X025191Y004111D01*
X025141Y004135D01*
X025090Y004156D01*
X025038Y004174D01*
X024984Y004189D01*
X024930Y004200D01*
X024875Y004207D01*
X024819Y004211D01*
X024764Y004211D01*
X024764Y004202D01*
X024819Y004202D01*
X024874Y004198D01*
X024928Y004191D01*
X024982Y004180D01*
X025035Y004166D01*
X025087Y004148D01*
X025138Y004127D01*
X025187Y004103D01*
X025235Y004076D01*
X025280Y004045D01*
X025324Y004012D01*
X025365Y003976D01*
X025404Y003937D01*
X025441Y003896D01*
X025474Y003853D01*
X025505Y003807D01*
X025498Y003802D01*
X025467Y003847D01*
X025434Y003890D01*
X025398Y003931D01*
X025359Y003969D01*
X025318Y004005D01*
X025275Y004038D01*
X025230Y004068D01*
X025183Y004095D01*
X025134Y004119D01*
X025084Y004140D01*
X025032Y004157D01*
X024980Y004171D01*
X024927Y004182D01*
X024873Y004189D01*
X024819Y004193D01*
X024764Y004193D01*
X024765Y004184D01*
X024818Y004184D01*
X024872Y004180D01*
X024925Y004173D01*
X024978Y004162D01*
X025030Y004148D01*
X025081Y004131D01*
X025130Y004111D01*
X025179Y004087D01*
X025225Y004060D01*
X025270Y004030D01*
X025313Y003998D01*
X025353Y003963D01*
X025391Y003925D01*
X025427Y003885D01*
X025460Y003842D01*
X025490Y003798D01*
X025482Y003793D01*
X025450Y003840D01*
X025415Y003884D01*
X025377Y003926D01*
X025337Y003966D01*
X025293Y004002D01*
X025247Y004035D01*
X025199Y004065D01*
X025149Y004092D01*
X025097Y004115D01*
X025044Y004135D01*
X024990Y004150D01*
X024934Y004162D01*
X024878Y004170D01*
X024822Y004174D01*
X024765Y004175D01*
X024763Y002567D02*
X024767Y002657D01*
X024821Y002656D01*
X024876Y002660D01*
X024930Y002667D01*
X024983Y002678D01*
X025035Y002693D01*
X025087Y002711D01*
X025137Y002733D01*
X025185Y002759D01*
X025231Y002788D01*
X025275Y002820D01*
X025316Y002855D01*
X025355Y002894D01*
X025392Y002934D01*
X025425Y002978D01*
X025455Y003023D01*
X025532Y002977D01*
X025501Y002929D01*
X025466Y002883D01*
X025429Y002840D01*
X025388Y002799D01*
X025346Y002762D01*
X025300Y002727D01*
X025253Y002695D01*
X025203Y002666D01*
X025152Y002641D01*
X025099Y002619D01*
X025045Y002601D01*
X024989Y002587D01*
X024933Y002576D01*
X024876Y002569D01*
X024819Y002566D01*
X024762Y002567D01*
X024763Y002576D01*
X024819Y002575D01*
X024876Y002578D01*
X024932Y002585D01*
X024987Y002596D01*
X025042Y002610D01*
X025096Y002628D01*
X025148Y002649D01*
X025199Y002674D01*
X025248Y002703D01*
X025295Y002734D01*
X025340Y002768D01*
X025382Y002806D01*
X025422Y002846D01*
X025459Y002889D01*
X025493Y002934D01*
X025524Y002981D01*
X025517Y002986D01*
X025486Y002939D01*
X025452Y002894D01*
X025415Y002852D01*
X025376Y002812D01*
X025334Y002775D01*
X025290Y002741D01*
X025243Y002710D01*
X025195Y002682D01*
X025144Y002658D01*
X025093Y002636D01*
X025040Y002619D01*
X024985Y002605D01*
X024930Y002594D01*
X024875Y002587D01*
X024819Y002584D01*
X024763Y002585D01*
X024763Y002594D01*
X024819Y002593D01*
X024874Y002596D01*
X024929Y002603D01*
X024983Y002613D01*
X025037Y002627D01*
X025090Y002645D01*
X025141Y002666D01*
X025190Y002690D01*
X025238Y002718D01*
X025284Y002749D01*
X025328Y002782D01*
X025370Y002819D01*
X025409Y002858D01*
X025445Y002900D01*
X025479Y002944D01*
X025509Y002991D01*
X025501Y002995D01*
X025471Y002949D01*
X025438Y002906D01*
X025402Y002864D01*
X025364Y002825D01*
X025323Y002789D01*
X025279Y002756D01*
X025234Y002725D01*
X025186Y002698D01*
X025137Y002674D01*
X025086Y002653D01*
X025034Y002636D01*
X024981Y002622D01*
X024928Y002612D01*
X024873Y002605D01*
X024819Y002602D01*
X024764Y002603D01*
X024764Y002612D01*
X024819Y002611D01*
X024873Y002614D01*
X024926Y002621D01*
X024980Y002631D01*
X025032Y002645D01*
X025083Y002662D01*
X025133Y002682D01*
X025182Y002706D01*
X025229Y002733D01*
X025274Y002763D01*
X025317Y002796D01*
X025357Y002832D01*
X025396Y002870D01*
X025431Y002911D01*
X025464Y002955D01*
X025493Y003000D01*
X025486Y003004D01*
X025456Y002960D01*
X025424Y002917D01*
X025389Y002877D01*
X025351Y002839D01*
X025311Y002803D01*
X025269Y002770D01*
X025224Y002741D01*
X025178Y002714D01*
X025130Y002690D01*
X025080Y002670D01*
X025029Y002653D01*
X024978Y002640D01*
X024925Y002630D01*
X024872Y002623D01*
X024818Y002620D01*
X024765Y002621D01*
X024765Y002630D01*
X024818Y002629D01*
X024871Y002632D01*
X024924Y002639D01*
X024976Y002648D01*
X025027Y002662D01*
X025077Y002679D01*
X025126Y002699D01*
X025174Y002722D01*
X025219Y002748D01*
X025263Y002778D01*
X025305Y002810D01*
X025345Y002845D01*
X025382Y002883D01*
X025417Y002923D01*
X025449Y002965D01*
X025478Y003009D01*
X025470Y003014D01*
X025440Y002967D01*
X025406Y002923D01*
X025369Y002881D01*
X025329Y002842D01*
X025286Y002806D01*
X025241Y002773D01*
X025194Y002743D01*
X025144Y002717D01*
X025093Y002695D01*
X025041Y002676D01*
X024987Y002660D01*
X024933Y002649D01*
X024877Y002642D01*
X024822Y002638D01*
X024766Y002639D01*
X024766Y002648D01*
X024821Y002647D01*
X024876Y002651D01*
X024931Y002658D01*
X024985Y002669D01*
X025038Y002684D01*
X025090Y002703D01*
X025141Y002725D01*
X025189Y002751D01*
X025236Y002781D01*
X025280Y002813D01*
X025323Y002849D01*
X025362Y002887D01*
X025399Y002929D01*
X025432Y002972D01*
X025463Y003018D01*
X024755Y004255D02*
X024755Y004165D01*
X024754Y004166D02*
X024700Y004164D01*
X024647Y004158D01*
X024594Y004148D01*
X024542Y004134D01*
X024491Y004117D01*
X024441Y004096D01*
X024393Y004072D01*
X024347Y004044D01*
X024303Y004013D01*
X024262Y003979D01*
X024222Y003942D01*
X024186Y003903D01*
X024118Y003960D01*
X024117Y003961D01*
X024155Y004002D01*
X024195Y004040D01*
X024238Y004076D01*
X024283Y004109D01*
X024330Y004139D01*
X024378Y004165D01*
X024429Y004189D01*
X024481Y004209D01*
X024534Y004225D01*
X024588Y004239D01*
X024643Y004248D01*
X024698Y004254D01*
X024754Y004256D01*
X024754Y004247D01*
X024699Y004245D01*
X024644Y004239D01*
X024590Y004230D01*
X024536Y004217D01*
X024484Y004200D01*
X024432Y004181D01*
X024382Y004157D01*
X024334Y004131D01*
X024288Y004101D01*
X024243Y004069D01*
X024201Y004034D01*
X024161Y003995D01*
X024124Y003955D01*
X024131Y003949D01*
X024168Y003989D01*
X024207Y004027D01*
X024249Y004062D01*
X024293Y004094D01*
X024339Y004123D01*
X024387Y004149D01*
X024436Y004172D01*
X024487Y004192D01*
X024539Y004208D01*
X024592Y004221D01*
X024645Y004230D01*
X024700Y004236D01*
X024754Y004238D01*
X024754Y004229D01*
X024700Y004227D01*
X024647Y004221D01*
X024594Y004212D01*
X024541Y004199D01*
X024490Y004183D01*
X024439Y004164D01*
X024391Y004141D01*
X024343Y004116D01*
X024298Y004087D01*
X024254Y004055D01*
X024213Y004020D01*
X024174Y003983D01*
X024138Y003943D01*
X024145Y003937D01*
X024181Y003977D01*
X024219Y004014D01*
X024260Y004048D01*
X024303Y004079D01*
X024348Y004108D01*
X024395Y004133D01*
X024443Y004156D01*
X024493Y004175D01*
X024544Y004191D01*
X024595Y004203D01*
X024648Y004212D01*
X024701Y004218D01*
X024754Y004220D01*
X024754Y004211D01*
X024701Y004209D01*
X024649Y004203D01*
X024597Y004194D01*
X024546Y004182D01*
X024496Y004166D01*
X024446Y004147D01*
X024399Y004125D01*
X024352Y004100D01*
X024308Y004072D01*
X024266Y004041D01*
X024225Y004007D01*
X024187Y003970D01*
X024152Y003932D01*
X024158Y003926D01*
X024194Y003964D01*
X024231Y004000D01*
X024271Y004034D01*
X024313Y004064D01*
X024357Y004092D01*
X024403Y004117D01*
X024450Y004139D01*
X024499Y004158D01*
X024548Y004173D01*
X024599Y004186D01*
X024650Y004194D01*
X024702Y004200D01*
X024754Y004202D01*
X024754Y004193D01*
X024698Y004191D01*
X024643Y004184D01*
X024588Y004174D01*
X024534Y004160D01*
X024481Y004142D01*
X024430Y004120D01*
X024380Y004095D01*
X024332Y004066D01*
X024287Y004034D01*
X024244Y003999D01*
X024203Y003961D01*
X024165Y003920D01*
X024172Y003914D01*
X024209Y003955D01*
X024250Y003992D01*
X024292Y004027D01*
X024337Y004059D01*
X024385Y004087D01*
X024434Y004112D01*
X024485Y004134D01*
X024537Y004151D01*
X024590Y004165D01*
X024644Y004175D01*
X024699Y004182D01*
X024754Y004184D01*
X024754Y004175D01*
X024700Y004173D01*
X024645Y004167D01*
X024592Y004157D01*
X024539Y004143D01*
X024488Y004125D01*
X024438Y004104D01*
X024389Y004079D01*
X024342Y004051D01*
X024298Y004020D01*
X024256Y003986D01*
X024216Y003948D01*
X024179Y003908D01*
X024114Y002867D02*
X024183Y002924D01*
X024182Y002924D02*
X024219Y002884D01*
X024258Y002846D01*
X024300Y002812D01*
X024344Y002780D01*
X024390Y002752D01*
X024439Y002727D01*
X024489Y002706D01*
X024540Y002688D01*
X024593Y002675D01*
X024646Y002665D01*
X024700Y002658D01*
X024754Y002656D01*
X024755Y002567D01*
X024754Y002566D01*
X024698Y002568D01*
X024642Y002574D01*
X024587Y002584D01*
X024532Y002597D01*
X024479Y002614D01*
X024426Y002634D01*
X024375Y002658D01*
X024326Y002685D01*
X024279Y002716D01*
X024234Y002749D01*
X024191Y002785D01*
X024151Y002824D01*
X024113Y002866D01*
X024120Y002872D01*
X024157Y002831D01*
X024197Y002792D01*
X024239Y002756D01*
X024284Y002723D01*
X024331Y002693D01*
X024379Y002666D01*
X024430Y002643D01*
X024482Y002622D01*
X024535Y002606D01*
X024589Y002593D01*
X024643Y002583D01*
X024698Y002577D01*
X024754Y002575D01*
X024754Y002584D01*
X024699Y002586D01*
X024644Y002592D01*
X024590Y002601D01*
X024537Y002614D01*
X024485Y002631D01*
X024433Y002651D01*
X024384Y002674D01*
X024335Y002701D01*
X024289Y002730D01*
X024245Y002763D01*
X024203Y002799D01*
X024164Y002837D01*
X024127Y002878D01*
X024134Y002883D01*
X024170Y002843D01*
X024209Y002805D01*
X024251Y002770D01*
X024294Y002738D01*
X024340Y002708D01*
X024388Y002682D01*
X024437Y002659D01*
X024487Y002639D01*
X024539Y002623D01*
X024592Y002610D01*
X024646Y002601D01*
X024700Y002595D01*
X024754Y002593D01*
X024754Y002602D01*
X024700Y002604D01*
X024647Y002610D01*
X024594Y002619D01*
X024542Y002632D01*
X024490Y002648D01*
X024440Y002667D01*
X024392Y002690D01*
X024345Y002716D01*
X024299Y002745D01*
X024256Y002777D01*
X024215Y002812D01*
X024177Y002849D01*
X024141Y002889D01*
X024148Y002895D01*
X024183Y002856D01*
X024221Y002819D01*
X024262Y002784D01*
X024305Y002753D01*
X024349Y002724D01*
X024396Y002698D01*
X024444Y002676D01*
X024493Y002656D01*
X024544Y002640D01*
X024596Y002628D01*
X024648Y002619D01*
X024701Y002613D01*
X024754Y002611D01*
X024754Y002620D01*
X024702Y002622D01*
X024649Y002628D01*
X024598Y002637D01*
X024547Y002649D01*
X024496Y002665D01*
X024447Y002684D01*
X024400Y002706D01*
X024354Y002732D01*
X024310Y002760D01*
X024268Y002791D01*
X024227Y002825D01*
X024190Y002862D01*
X024155Y002901D01*
X024161Y002907D01*
X024196Y002868D01*
X024234Y002832D01*
X024273Y002798D01*
X024315Y002767D01*
X024359Y002739D01*
X024404Y002714D01*
X024451Y002692D01*
X024499Y002673D01*
X024549Y002658D01*
X024599Y002645D01*
X024650Y002637D01*
X024702Y002631D01*
X024754Y002629D01*
X024754Y002638D01*
X024703Y002640D01*
X024652Y002645D01*
X024601Y002654D01*
X024551Y002666D01*
X024502Y002682D01*
X024455Y002700D01*
X024408Y002722D01*
X024363Y002747D01*
X024320Y002775D01*
X024279Y002805D01*
X024240Y002838D01*
X024203Y002874D01*
X024168Y002912D01*
X024175Y002918D01*
X024212Y002877D01*
X024252Y002839D01*
X024294Y002805D01*
X024339Y002773D01*
X024386Y002744D01*
X024435Y002719D01*
X024486Y002698D01*
X024537Y002680D01*
X024591Y002666D01*
X024645Y002656D01*
X024699Y002649D01*
X024754Y002647D01*
X023551Y003835D02*
X023474Y003788D01*
X023475Y003788D02*
X023443Y003834D01*
X023408Y003879D01*
X023371Y003920D01*
X023331Y003959D01*
X023288Y003995D01*
X023242Y004028D01*
X023195Y004058D01*
X023145Y004084D01*
X023094Y004107D01*
X023041Y004126D01*
X022988Y004142D01*
X022933Y004153D01*
X022877Y004161D01*
X022821Y004165D01*
X022765Y004166D01*
X022763Y004255D01*
X022762Y004256D01*
X022821Y004255D01*
X022879Y004252D01*
X022937Y004244D01*
X022994Y004233D01*
X023051Y004217D01*
X023106Y004199D01*
X023160Y004176D01*
X023212Y004151D01*
X023263Y004121D01*
X023312Y004089D01*
X023358Y004054D01*
X023402Y004015D01*
X023444Y003974D01*
X023483Y003930D01*
X023518Y003884D01*
X023551Y003836D01*
X023543Y003831D01*
X023511Y003879D01*
X023476Y003925D01*
X023437Y003968D01*
X023396Y004009D01*
X023353Y004047D01*
X023307Y004082D01*
X023258Y004114D01*
X023208Y004143D01*
X023156Y004168D01*
X023103Y004190D01*
X023048Y004209D01*
X022992Y004224D01*
X022935Y004235D01*
X022878Y004243D01*
X022820Y004246D01*
X022762Y004247D01*
X022763Y004238D01*
X022820Y004237D01*
X022877Y004234D01*
X022934Y004226D01*
X022990Y004215D01*
X023045Y004200D01*
X023100Y004182D01*
X023153Y004160D01*
X023204Y004135D01*
X023254Y004106D01*
X023301Y004074D01*
X023347Y004040D01*
X023390Y004002D01*
X023431Y003962D01*
X023469Y003919D01*
X023504Y003874D01*
X023536Y003826D01*
X023528Y003821D01*
X023496Y003868D01*
X023462Y003913D01*
X023424Y003956D01*
X023384Y003995D01*
X023341Y004033D01*
X023296Y004067D01*
X023249Y004098D01*
X023200Y004127D01*
X023149Y004152D01*
X023096Y004173D01*
X023043Y004192D01*
X022988Y004206D01*
X022932Y004217D01*
X022876Y004225D01*
X022820Y004228D01*
X022763Y004229D01*
X022763Y004220D01*
X022819Y004219D01*
X022875Y004216D01*
X022931Y004208D01*
X022986Y004197D01*
X023040Y004183D01*
X023093Y004165D01*
X023145Y004144D01*
X023196Y004119D01*
X023244Y004091D01*
X023291Y004060D01*
X023335Y004026D01*
X023378Y003989D01*
X023418Y003949D01*
X023455Y003907D01*
X023489Y003863D01*
X023520Y003817D01*
X023513Y003812D01*
X023482Y003858D01*
X023448Y003902D01*
X023411Y003943D01*
X023372Y003982D01*
X023330Y004019D01*
X023286Y004052D01*
X023239Y004083D01*
X023191Y004111D01*
X023141Y004135D01*
X023090Y004156D01*
X023038Y004174D01*
X022984Y004189D01*
X022930Y004200D01*
X022875Y004207D01*
X022819Y004211D01*
X022764Y004211D01*
X022764Y004202D01*
X022819Y004202D01*
X022874Y004198D01*
X022928Y004191D01*
X022982Y004180D01*
X023035Y004166D01*
X023087Y004148D01*
X023138Y004127D01*
X023187Y004103D01*
X023235Y004076D01*
X023280Y004045D01*
X023324Y004012D01*
X023365Y003976D01*
X023404Y003937D01*
X023441Y003896D01*
X023474Y003853D01*
X023505Y003807D01*
X023498Y003802D01*
X023467Y003847D01*
X023434Y003890D01*
X023398Y003931D01*
X023359Y003969D01*
X023318Y004005D01*
X023275Y004038D01*
X023230Y004068D01*
X023183Y004095D01*
X023134Y004119D01*
X023084Y004140D01*
X023032Y004157D01*
X022980Y004171D01*
X022927Y004182D01*
X022873Y004189D01*
X022819Y004193D01*
X022764Y004193D01*
X022765Y004184D01*
X022818Y004184D01*
X022872Y004180D01*
X022925Y004173D01*
X022978Y004162D01*
X023030Y004148D01*
X023081Y004131D01*
X023130Y004111D01*
X023179Y004087D01*
X023225Y004060D01*
X023270Y004030D01*
X023313Y003998D01*
X023353Y003963D01*
X023391Y003925D01*
X023427Y003885D01*
X023460Y003842D01*
X023490Y003798D01*
X023482Y003793D01*
X023450Y003840D01*
X023415Y003884D01*
X023377Y003926D01*
X023337Y003966D01*
X023293Y004002D01*
X023247Y004035D01*
X023199Y004065D01*
X023149Y004092D01*
X023097Y004115D01*
X023044Y004135D01*
X022990Y004150D01*
X022934Y004162D01*
X022878Y004170D01*
X022822Y004174D01*
X022765Y004175D01*
X022763Y002567D02*
X022767Y002657D01*
X022821Y002656D01*
X022876Y002660D01*
X022930Y002667D01*
X022983Y002678D01*
X023035Y002693D01*
X023087Y002711D01*
X023137Y002733D01*
X023185Y002759D01*
X023231Y002788D01*
X023275Y002820D01*
X023316Y002855D01*
X023355Y002894D01*
X023392Y002934D01*
X023425Y002978D01*
X023455Y003023D01*
X023532Y002977D01*
X023501Y002929D01*
X023466Y002883D01*
X023429Y002840D01*
X023388Y002799D01*
X023346Y002762D01*
X023300Y002727D01*
X023253Y002695D01*
X023203Y002666D01*
X023152Y002641D01*
X023099Y002619D01*
X023045Y002601D01*
X022989Y002587D01*
X022933Y002576D01*
X022876Y002569D01*
X022819Y002566D01*
X022762Y002567D01*
X022763Y002576D01*
X022819Y002575D01*
X022876Y002578D01*
X022932Y002585D01*
X022987Y002596D01*
X023042Y002610D01*
X023096Y002628D01*
X023148Y002649D01*
X023199Y002674D01*
X023248Y002703D01*
X023295Y002734D01*
X023340Y002768D01*
X023382Y002806D01*
X023422Y002846D01*
X023459Y002889D01*
X023493Y002934D01*
X023524Y002981D01*
X023517Y002986D01*
X023486Y002939D01*
X023452Y002894D01*
X023415Y002852D01*
X023376Y002812D01*
X023334Y002775D01*
X023290Y002741D01*
X023243Y002710D01*
X023195Y002682D01*
X023144Y002658D01*
X023093Y002636D01*
X023040Y002619D01*
X022985Y002605D01*
X022930Y002594D01*
X022875Y002587D01*
X022819Y002584D01*
X022763Y002585D01*
X022763Y002594D01*
X022819Y002593D01*
X022874Y002596D01*
X022929Y002603D01*
X022983Y002613D01*
X023037Y002627D01*
X023090Y002645D01*
X023141Y002666D01*
X023190Y002690D01*
X023238Y002718D01*
X023284Y002749D01*
X023328Y002782D01*
X023370Y002819D01*
X023409Y002858D01*
X023445Y002900D01*
X023479Y002944D01*
X023509Y002991D01*
X023501Y002995D01*
X023471Y002949D01*
X023438Y002906D01*
X023402Y002864D01*
X023364Y002825D01*
X023323Y002789D01*
X023279Y002756D01*
X023234Y002725D01*
X023186Y002698D01*
X023137Y002674D01*
X023086Y002653D01*
X023034Y002636D01*
X022981Y002622D01*
X022928Y002612D01*
X022873Y002605D01*
X022819Y002602D01*
X022764Y002603D01*
X022764Y002612D01*
X022819Y002611D01*
X022873Y002614D01*
X022926Y002621D01*
X022980Y002631D01*
X023032Y002645D01*
X023083Y002662D01*
X023133Y002682D01*
X023182Y002706D01*
X023229Y002733D01*
X023274Y002763D01*
X023317Y002796D01*
X023357Y002832D01*
X023396Y002870D01*
X023431Y002911D01*
X023464Y002955D01*
X023493Y003000D01*
X023486Y003004D01*
X023456Y002960D01*
X023424Y002917D01*
X023389Y002877D01*
X023351Y002839D01*
X023311Y002803D01*
X023269Y002770D01*
X023224Y002741D01*
X023178Y002714D01*
X023130Y002690D01*
X023080Y002670D01*
X023029Y002653D01*
X022978Y002640D01*
X022925Y002630D01*
X022872Y002623D01*
X022818Y002620D01*
X022765Y002621D01*
X022765Y002630D01*
X022818Y002629D01*
X022871Y002632D01*
X022924Y002639D01*
X022976Y002648D01*
X023027Y002662D01*
X023077Y002679D01*
X023126Y002699D01*
X023174Y002722D01*
X023219Y002748D01*
X023263Y002778D01*
X023305Y002810D01*
X023345Y002845D01*
X023382Y002883D01*
X023417Y002923D01*
X023449Y002965D01*
X023478Y003009D01*
X023470Y003014D01*
X023440Y002967D01*
X023406Y002923D01*
X023369Y002881D01*
X023329Y002842D01*
X023286Y002806D01*
X023241Y002773D01*
X023194Y002743D01*
X023144Y002717D01*
X023093Y002695D01*
X023041Y002676D01*
X022987Y002660D01*
X022933Y002649D01*
X022877Y002642D01*
X022822Y002638D01*
X022766Y002639D01*
X022766Y002648D01*
X022821Y002647D01*
X022876Y002651D01*
X022931Y002658D01*
X022985Y002669D01*
X023038Y002684D01*
X023090Y002703D01*
X023141Y002725D01*
X023189Y002751D01*
X023236Y002781D01*
X023280Y002813D01*
X023323Y002849D01*
X023362Y002887D01*
X023399Y002929D01*
X023432Y002972D01*
X023463Y003018D01*
X022755Y004255D02*
X022755Y004165D01*
X022754Y004166D02*
X022700Y004164D01*
X022647Y004158D01*
X022594Y004148D01*
X022542Y004134D01*
X022491Y004117D01*
X022441Y004096D01*
X022393Y004072D01*
X022347Y004044D01*
X022303Y004013D01*
X022262Y003979D01*
X022222Y003942D01*
X022186Y003903D01*
X022118Y003960D01*
X022117Y003961D01*
X022155Y004002D01*
X022195Y004040D01*
X022238Y004076D01*
X022283Y004109D01*
X022330Y004139D01*
X022378Y004165D01*
X022429Y004189D01*
X022481Y004209D01*
X022534Y004225D01*
X022588Y004239D01*
X022643Y004248D01*
X022698Y004254D01*
X022754Y004256D01*
X022754Y004247D01*
X022699Y004245D01*
X022644Y004239D01*
X022590Y004230D01*
X022536Y004217D01*
X022484Y004200D01*
X022432Y004181D01*
X022382Y004157D01*
X022334Y004131D01*
X022288Y004101D01*
X022243Y004069D01*
X022201Y004034D01*
X022161Y003995D01*
X022124Y003955D01*
X022131Y003949D01*
X022168Y003989D01*
X022207Y004027D01*
X022249Y004062D01*
X022293Y004094D01*
X022339Y004123D01*
X022387Y004149D01*
X022436Y004172D01*
X022487Y004192D01*
X022539Y004208D01*
X022592Y004221D01*
X022645Y004230D01*
X022700Y004236D01*
X022754Y004238D01*
X022754Y004229D01*
X022700Y004227D01*
X022647Y004221D01*
X022594Y004212D01*
X022541Y004199D01*
X022490Y004183D01*
X022439Y004164D01*
X022391Y004141D01*
X022343Y004116D01*
X022298Y004087D01*
X022254Y004055D01*
X022213Y004020D01*
X022174Y003983D01*
X022138Y003943D01*
X022145Y003937D01*
X022181Y003977D01*
X022219Y004014D01*
X022260Y004048D01*
X022303Y004079D01*
X022348Y004108D01*
X022395Y004133D01*
X022443Y004156D01*
X022493Y004175D01*
X022544Y004191D01*
X022595Y004203D01*
X022648Y004212D01*
X022701Y004218D01*
X022754Y004220D01*
X022754Y004211D01*
X022701Y004209D01*
X022649Y004203D01*
X022597Y004194D01*
X022546Y004182D01*
X022496Y004166D01*
X022446Y004147D01*
X022399Y004125D01*
X022352Y004100D01*
X022308Y004072D01*
X022266Y004041D01*
X022225Y004007D01*
X022187Y003970D01*
X022152Y003932D01*
X022158Y003926D01*
X022194Y003964D01*
X022231Y004000D01*
X022271Y004034D01*
X022313Y004064D01*
X022357Y004092D01*
X022403Y004117D01*
X022450Y004139D01*
X022499Y004158D01*
X022548Y004173D01*
X022599Y004186D01*
X022650Y004194D01*
X022702Y004200D01*
X022754Y004202D01*
X022754Y004193D01*
X022698Y004191D01*
X022643Y004184D01*
X022588Y004174D01*
X022534Y004160D01*
X022481Y004142D01*
X022430Y004120D01*
X022380Y004095D01*
X022332Y004066D01*
X022287Y004034D01*
X022244Y003999D01*
X022203Y003961D01*
X022165Y003920D01*
X022172Y003914D01*
X022209Y003955D01*
X022250Y003992D01*
X022292Y004027D01*
X022337Y004059D01*
X022385Y004087D01*
X022434Y004112D01*
X022485Y004134D01*
X022537Y004151D01*
X022590Y004165D01*
X022644Y004175D01*
X022699Y004182D01*
X022754Y004184D01*
X022754Y004175D01*
X022700Y004173D01*
X022645Y004167D01*
X022592Y004157D01*
X022539Y004143D01*
X022488Y004125D01*
X022438Y004104D01*
X022389Y004079D01*
X022342Y004051D01*
X022298Y004020D01*
X022256Y003986D01*
X022216Y003948D01*
X022179Y003908D01*
X022114Y002867D02*
X022183Y002924D01*
X022182Y002924D02*
X022219Y002884D01*
X022258Y002846D01*
X022300Y002812D01*
X022344Y002780D01*
X022390Y002752D01*
X022439Y002727D01*
X022489Y002706D01*
X022540Y002688D01*
X022593Y002675D01*
X022646Y002665D01*
X022700Y002658D01*
X022754Y002656D01*
X022755Y002567D01*
X022754Y002566D01*
X022698Y002568D01*
X022642Y002574D01*
X022587Y002584D01*
X022532Y002597D01*
X022479Y002614D01*
X022426Y002634D01*
X022375Y002658D01*
X022326Y002685D01*
X022279Y002716D01*
X022234Y002749D01*
X022191Y002785D01*
X022151Y002824D01*
X022113Y002866D01*
X022120Y002872D01*
X022157Y002831D01*
X022197Y002792D01*
X022239Y002756D01*
X022284Y002723D01*
X022331Y002693D01*
X022379Y002666D01*
X022430Y002643D01*
X022482Y002622D01*
X022535Y002606D01*
X022589Y002593D01*
X022643Y002583D01*
X022698Y002577D01*
X022754Y002575D01*
X022754Y002584D01*
X022699Y002586D01*
X022644Y002592D01*
X022590Y002601D01*
X022537Y002614D01*
X022485Y002631D01*
X022433Y002651D01*
X022384Y002674D01*
X022335Y002701D01*
X022289Y002730D01*
X022245Y002763D01*
X022203Y002799D01*
X022164Y002837D01*
X022127Y002878D01*
X022134Y002883D01*
X022170Y002843D01*
X022209Y002805D01*
X022251Y002770D01*
X022294Y002738D01*
X022340Y002708D01*
X022388Y002682D01*
X022437Y002659D01*
X022487Y002639D01*
X022539Y002623D01*
X022592Y002610D01*
X022646Y002601D01*
X022700Y002595D01*
X022754Y002593D01*
X022754Y002602D01*
X022700Y002604D01*
X022647Y002610D01*
X022594Y002619D01*
X022542Y002632D01*
X022490Y002648D01*
X022440Y002667D01*
X022392Y002690D01*
X022345Y002716D01*
X022299Y002745D01*
X022256Y002777D01*
X022215Y002812D01*
X022177Y002849D01*
X022141Y002889D01*
X022148Y002895D01*
X022183Y002856D01*
X022221Y002819D01*
X022262Y002784D01*
X022305Y002753D01*
X022349Y002724D01*
X022396Y002698D01*
X022444Y002676D01*
X022493Y002656D01*
X022544Y002640D01*
X022596Y002628D01*
X022648Y002619D01*
X022701Y002613D01*
X022754Y002611D01*
X022754Y002620D01*
X022702Y002622D01*
X022649Y002628D01*
X022598Y002637D01*
X022547Y002649D01*
X022496Y002665D01*
X022447Y002684D01*
X022400Y002706D01*
X022354Y002732D01*
X022310Y002760D01*
X022268Y002791D01*
X022227Y002825D01*
X022190Y002862D01*
X022155Y002901D01*
X022161Y002907D01*
X022196Y002868D01*
X022234Y002832D01*
X022273Y002798D01*
X022315Y002767D01*
X022359Y002739D01*
X022404Y002714D01*
X022451Y002692D01*
X022499Y002673D01*
X022549Y002658D01*
X022599Y002645D01*
X022650Y002637D01*
X022702Y002631D01*
X022754Y002629D01*
X022754Y002638D01*
X022703Y002640D01*
X022652Y002645D01*
X022601Y002654D01*
X022551Y002666D01*
X022502Y002682D01*
X022455Y002700D01*
X022408Y002722D01*
X022363Y002747D01*
X022320Y002775D01*
X022279Y002805D01*
X022240Y002838D01*
X022203Y002874D01*
X022168Y002912D01*
X022175Y002918D01*
X022212Y002877D01*
X022252Y002839D01*
X022294Y002805D01*
X022339Y002773D01*
X022386Y002744D01*
X022435Y002719D01*
X022486Y002698D01*
X022537Y002680D01*
X022591Y002666D01*
X022645Y002656D01*
X022699Y002649D01*
X022754Y002647D01*
X021551Y003835D02*
X021474Y003788D01*
X021475Y003788D02*
X021443Y003834D01*
X021408Y003879D01*
X021371Y003920D01*
X021331Y003959D01*
X021288Y003995D01*
X021242Y004028D01*
X021195Y004058D01*
X021145Y004084D01*
X021094Y004107D01*
X021041Y004126D01*
X020988Y004142D01*
X020933Y004153D01*
X020877Y004161D01*
X020821Y004165D01*
X020765Y004166D01*
X020763Y004255D01*
X020762Y004256D01*
X020821Y004255D01*
X020879Y004252D01*
X020937Y004244D01*
X020994Y004233D01*
X021051Y004217D01*
X021106Y004199D01*
X021160Y004176D01*
X021212Y004151D01*
X021263Y004121D01*
X021312Y004089D01*
X021358Y004054D01*
X021402Y004015D01*
X021444Y003974D01*
X021483Y003930D01*
X021518Y003884D01*
X021551Y003836D01*
X021543Y003831D01*
X021511Y003879D01*
X021476Y003925D01*
X021437Y003968D01*
X021396Y004009D01*
X021353Y004047D01*
X021307Y004082D01*
X021258Y004114D01*
X021208Y004143D01*
X021156Y004168D01*
X021103Y004190D01*
X021048Y004209D01*
X020992Y004224D01*
X020935Y004235D01*
X020878Y004243D01*
X020820Y004246D01*
X020762Y004247D01*
X020763Y004238D01*
X020820Y004237D01*
X020877Y004234D01*
X020934Y004226D01*
X020990Y004215D01*
X021045Y004200D01*
X021100Y004182D01*
X021153Y004160D01*
X021204Y004135D01*
X021254Y004106D01*
X021301Y004074D01*
X021347Y004040D01*
X021390Y004002D01*
X021431Y003962D01*
X021469Y003919D01*
X021504Y003874D01*
X021536Y003826D01*
X021528Y003821D01*
X021496Y003868D01*
X021462Y003913D01*
X021424Y003956D01*
X021384Y003995D01*
X021341Y004033D01*
X021296Y004067D01*
X021249Y004098D01*
X021200Y004127D01*
X021149Y004152D01*
X021096Y004173D01*
X021043Y004192D01*
X020988Y004206D01*
X020932Y004217D01*
X020876Y004225D01*
X020820Y004228D01*
X020763Y004229D01*
X020763Y004220D01*
X020819Y004219D01*
X020875Y004216D01*
X020931Y004208D01*
X020986Y004197D01*
X021040Y004183D01*
X021093Y004165D01*
X021145Y004144D01*
X021196Y004119D01*
X021244Y004091D01*
X021291Y004060D01*
X021335Y004026D01*
X021378Y003989D01*
X021418Y003949D01*
X021455Y003907D01*
X021489Y003863D01*
X021520Y003817D01*
X021513Y003812D01*
X021482Y003858D01*
X021448Y003902D01*
X021411Y003943D01*
X021372Y003982D01*
X021330Y004019D01*
X021286Y004052D01*
X021239Y004083D01*
X021191Y004111D01*
X021141Y004135D01*
X021090Y004156D01*
X021038Y004174D01*
X020984Y004189D01*
X020930Y004200D01*
X020875Y004207D01*
X020819Y004211D01*
X020764Y004211D01*
X020764Y004202D01*
X020819Y004202D01*
X020874Y004198D01*
X020928Y004191D01*
X020982Y004180D01*
X021035Y004166D01*
X021087Y004148D01*
X021138Y004127D01*
X021187Y004103D01*
X021235Y004076D01*
X021280Y004045D01*
X021324Y004012D01*
X021365Y003976D01*
X021404Y003937D01*
X021441Y003896D01*
X021474Y003853D01*
X021505Y003807D01*
X021498Y003802D01*
X021467Y003847D01*
X021434Y003890D01*
X021398Y003931D01*
X021359Y003969D01*
X021318Y004005D01*
X021275Y004038D01*
X021230Y004068D01*
X021183Y004095D01*
X021134Y004119D01*
X021084Y004140D01*
X021032Y004157D01*
X020980Y004171D01*
X020927Y004182D01*
X020873Y004189D01*
X020819Y004193D01*
X020764Y004193D01*
X020765Y004184D01*
X020818Y004184D01*
X020872Y004180D01*
X020925Y004173D01*
X020978Y004162D01*
X021030Y004148D01*
X021081Y004131D01*
X021130Y004111D01*
X021179Y004087D01*
X021225Y004060D01*
X021270Y004030D01*
X021313Y003998D01*
X021353Y003963D01*
X021391Y003925D01*
X021427Y003885D01*
X021460Y003842D01*
X021490Y003798D01*
X021482Y003793D01*
X021450Y003840D01*
X021415Y003884D01*
X021377Y003926D01*
X021337Y003966D01*
X021293Y004002D01*
X021247Y004035D01*
X021199Y004065D01*
X021149Y004092D01*
X021097Y004115D01*
X021044Y004135D01*
X020990Y004150D01*
X020934Y004162D01*
X020878Y004170D01*
X020822Y004174D01*
X020765Y004175D01*
X020763Y002567D02*
X020767Y002657D01*
X020821Y002656D01*
X020876Y002660D01*
X020930Y002667D01*
X020983Y002678D01*
X021035Y002693D01*
X021087Y002711D01*
X021137Y002733D01*
X021185Y002759D01*
X021231Y002788D01*
X021275Y002820D01*
X021316Y002855D01*
X021355Y002894D01*
X021392Y002934D01*
X021425Y002978D01*
X021455Y003023D01*
X021532Y002977D01*
X021501Y002929D01*
X021466Y002883D01*
X021429Y002840D01*
X021388Y002799D01*
X021346Y002762D01*
X021300Y002727D01*
X021253Y002695D01*
X021203Y002666D01*
X021152Y002641D01*
X021099Y002619D01*
X021045Y002601D01*
X020989Y002587D01*
X020933Y002576D01*
X020876Y002569D01*
X020819Y002566D01*
X020762Y002567D01*
X020763Y002576D01*
X020819Y002575D01*
X020876Y002578D01*
X020932Y002585D01*
X020987Y002596D01*
X021042Y002610D01*
X021096Y002628D01*
X021148Y002649D01*
X021199Y002674D01*
X021248Y002703D01*
X021295Y002734D01*
X021340Y002768D01*
X021382Y002806D01*
X021422Y002846D01*
X021459Y002889D01*
X021493Y002934D01*
X021524Y002981D01*
X021517Y002986D01*
X021486Y002939D01*
X021452Y002894D01*
X021415Y002852D01*
X021376Y002812D01*
X021334Y002775D01*
X021290Y002741D01*
X021243Y002710D01*
X021195Y002682D01*
X021144Y002658D01*
X021093Y002636D01*
X021040Y002619D01*
X020985Y002605D01*
X020930Y002594D01*
X020875Y002587D01*
X020819Y002584D01*
X020763Y002585D01*
X020763Y002594D01*
X020819Y002593D01*
X020874Y002596D01*
X020929Y002603D01*
X020983Y002613D01*
X021037Y002627D01*
X021090Y002645D01*
X021141Y002666D01*
X021190Y002690D01*
X021238Y002718D01*
X021284Y002749D01*
X021328Y002782D01*
X021370Y002819D01*
X021409Y002858D01*
X021445Y002900D01*
X021479Y002944D01*
X021509Y002991D01*
X021501Y002995D01*
X021471Y002949D01*
X021438Y002906D01*
X021402Y002864D01*
X021364Y002825D01*
X021323Y002789D01*
X021279Y002756D01*
X021234Y002725D01*
X021186Y002698D01*
X021137Y002674D01*
X021086Y002653D01*
X021034Y002636D01*
X020981Y002622D01*
X020928Y002612D01*
X020873Y002605D01*
X020819Y002602D01*
X020764Y002603D01*
X020764Y002612D01*
X020819Y002611D01*
X020873Y002614D01*
X020926Y002621D01*
X020980Y002631D01*
X021032Y002645D01*
X021083Y002662D01*
X021133Y002682D01*
X021182Y002706D01*
X021229Y002733D01*
X021274Y002763D01*
X021317Y002796D01*
X021357Y002832D01*
X021396Y002870D01*
X021431Y002911D01*
X021464Y002955D01*
X021493Y003000D01*
X021486Y003004D01*
X021456Y002960D01*
X021424Y002917D01*
X021389Y002877D01*
X021351Y002839D01*
X021311Y002803D01*
X021269Y002770D01*
X021224Y002741D01*
X021178Y002714D01*
X021130Y002690D01*
X021080Y002670D01*
X021029Y002653D01*
X020978Y002640D01*
X020925Y002630D01*
X020872Y002623D01*
X020818Y002620D01*
X020765Y002621D01*
X020765Y002630D01*
X020818Y002629D01*
X020871Y002632D01*
X020924Y002639D01*
X020976Y002648D01*
X021027Y002662D01*
X021077Y002679D01*
X021126Y002699D01*
X021174Y002722D01*
X021219Y002748D01*
X021263Y002778D01*
X021305Y002810D01*
X021345Y002845D01*
X021382Y002883D01*
X021417Y002923D01*
X021449Y002965D01*
X021478Y003009D01*
X021470Y003014D01*
X021440Y002967D01*
X021406Y002923D01*
X021369Y002881D01*
X021329Y002842D01*
X021286Y002806D01*
X021241Y002773D01*
X021194Y002743D01*
X021144Y002717D01*
X021093Y002695D01*
X021041Y002676D01*
X020987Y002660D01*
X020933Y002649D01*
X020877Y002642D01*
X020822Y002638D01*
X020766Y002639D01*
X020766Y002648D01*
X020821Y002647D01*
X020876Y002651D01*
X020931Y002658D01*
X020985Y002669D01*
X021038Y002684D01*
X021090Y002703D01*
X021141Y002725D01*
X021189Y002751D01*
X021236Y002781D01*
X021280Y002813D01*
X021323Y002849D01*
X021362Y002887D01*
X021399Y002929D01*
X021432Y002972D01*
X021463Y003018D01*
X020755Y004255D02*
X020755Y004165D01*
X020754Y004166D02*
X020700Y004164D01*
X020647Y004158D01*
X020594Y004148D01*
X020542Y004134D01*
X020491Y004117D01*
X020441Y004096D01*
X020393Y004072D01*
X020347Y004044D01*
X020303Y004013D01*
X020262Y003979D01*
X020222Y003942D01*
X020186Y003903D01*
X020118Y003960D01*
X020117Y003961D01*
X020155Y004002D01*
X020195Y004040D01*
X020238Y004076D01*
X020283Y004109D01*
X020330Y004139D01*
X020378Y004165D01*
X020429Y004189D01*
X020481Y004209D01*
X020534Y004225D01*
X020588Y004239D01*
X020643Y004248D01*
X020698Y004254D01*
X020754Y004256D01*
X020754Y004247D01*
X020699Y004245D01*
X020644Y004239D01*
X020590Y004230D01*
X020536Y004217D01*
X020484Y004200D01*
X020432Y004181D01*
X020382Y004157D01*
X020334Y004131D01*
X020288Y004101D01*
X020243Y004069D01*
X020201Y004034D01*
X020161Y003995D01*
X020124Y003955D01*
X020131Y003949D01*
X020168Y003989D01*
X020207Y004027D01*
X020249Y004062D01*
X020293Y004094D01*
X020339Y004123D01*
X020387Y004149D01*
X020436Y004172D01*
X020487Y004192D01*
X020539Y004208D01*
X020592Y004221D01*
X020645Y004230D01*
X020700Y004236D01*
X020754Y004238D01*
X020754Y004229D01*
X020700Y004227D01*
X020647Y004221D01*
X020594Y004212D01*
X020541Y004199D01*
X020490Y004183D01*
X020439Y004164D01*
X020391Y004141D01*
X020343Y004116D01*
X020298Y004087D01*
X020254Y004055D01*
X020213Y004020D01*
X020174Y003983D01*
X020138Y003943D01*
X020145Y003937D01*
X020181Y003977D01*
X020219Y004014D01*
X020260Y004048D01*
X020303Y004079D01*
X020348Y004108D01*
X020395Y004133D01*
X020443Y004156D01*
X020493Y004175D01*
X020544Y004191D01*
X020595Y004203D01*
X020648Y004212D01*
X020701Y004218D01*
X020754Y004220D01*
X020754Y004211D01*
X020701Y004209D01*
X020649Y004203D01*
X020597Y004194D01*
X020546Y004182D01*
X020496Y004166D01*
X020446Y004147D01*
X020399Y004125D01*
X020352Y004100D01*
X020308Y004072D01*
X020266Y004041D01*
X020225Y004007D01*
X020187Y003970D01*
X020152Y003932D01*
X020158Y003926D01*
X020194Y003964D01*
X020231Y004000D01*
X020271Y004034D01*
X020313Y004064D01*
X020357Y004092D01*
X020403Y004117D01*
X020450Y004139D01*
X020499Y004158D01*
X020548Y004173D01*
X020599Y004186D01*
X020650Y004194D01*
X020702Y004200D01*
X020754Y004202D01*
X020754Y004193D01*
X020698Y004191D01*
X020643Y004184D01*
X020588Y004174D01*
X020534Y004160D01*
X020481Y004142D01*
X020430Y004120D01*
X020380Y004095D01*
X020332Y004066D01*
X020287Y004034D01*
X020244Y003999D01*
X020203Y003961D01*
X020165Y003920D01*
X020172Y003914D01*
X020209Y003955D01*
X020250Y003992D01*
X020292Y004027D01*
X020337Y004059D01*
X020385Y004087D01*
X020434Y004112D01*
X020485Y004134D01*
X020537Y004151D01*
X020590Y004165D01*
X020644Y004175D01*
X020699Y004182D01*
X020754Y004184D01*
X020754Y004175D01*
X020700Y004173D01*
X020645Y004167D01*
X020592Y004157D01*
X020539Y004143D01*
X020488Y004125D01*
X020438Y004104D01*
X020389Y004079D01*
X020342Y004051D01*
X020298Y004020D01*
X020256Y003986D01*
X020216Y003948D01*
X020179Y003908D01*
X020114Y002867D02*
X020183Y002924D01*
X020182Y002924D02*
X020219Y002884D01*
X020258Y002846D01*
X020300Y002812D01*
X020344Y002780D01*
X020390Y002752D01*
X020439Y002727D01*
X020489Y002706D01*
X020540Y002688D01*
X020593Y002675D01*
X020646Y002665D01*
X020700Y002658D01*
X020754Y002656D01*
X020755Y002567D01*
X020754Y002566D01*
X020698Y002568D01*
X020642Y002574D01*
X020587Y002584D01*
X020532Y002597D01*
X020479Y002614D01*
X020426Y002634D01*
X020375Y002658D01*
X020326Y002685D01*
X020279Y002716D01*
X020234Y002749D01*
X020191Y002785D01*
X020151Y002824D01*
X020113Y002866D01*
X020120Y002872D01*
X020157Y002831D01*
X020197Y002792D01*
X020239Y002756D01*
X020284Y002723D01*
X020331Y002693D01*
X020379Y002666D01*
X020430Y002643D01*
X020482Y002622D01*
X020535Y002606D01*
X020589Y002593D01*
X020643Y002583D01*
X020698Y002577D01*
X020754Y002575D01*
X020754Y002584D01*
X020699Y002586D01*
X020644Y002592D01*
X020590Y002601D01*
X020537Y002614D01*
X020485Y002631D01*
X020433Y002651D01*
X020384Y002674D01*
X020335Y002701D01*
X020289Y002730D01*
X020245Y002763D01*
X020203Y002799D01*
X020164Y002837D01*
X020127Y002878D01*
X020134Y002883D01*
X020170Y002843D01*
X020209Y002805D01*
X020251Y002770D01*
X020294Y002738D01*
X020340Y002708D01*
X020388Y002682D01*
X020437Y002659D01*
X020487Y002639D01*
X020539Y002623D01*
X020592Y002610D01*
X020646Y002601D01*
X020700Y002595D01*
X020754Y002593D01*
X020754Y002602D01*
X020700Y002604D01*
X020647Y002610D01*
X020594Y002619D01*
X020542Y002632D01*
X020490Y002648D01*
X020440Y002667D01*
X020392Y002690D01*
X020345Y002716D01*
X020299Y002745D01*
X020256Y002777D01*
X020215Y002812D01*
X020177Y002849D01*
X020141Y002889D01*
X020148Y002895D01*
X020183Y002856D01*
X020221Y002819D01*
X020262Y002784D01*
X020305Y002753D01*
X020349Y002724D01*
X020396Y002698D01*
X020444Y002676D01*
X020493Y002656D01*
X020544Y002640D01*
X020596Y002628D01*
X020648Y002619D01*
X020701Y002613D01*
X020754Y002611D01*
X020754Y002620D01*
X020702Y002622D01*
X020649Y002628D01*
X020598Y002637D01*
X020547Y002649D01*
X020496Y002665D01*
X020447Y002684D01*
X020400Y002706D01*
X020354Y002732D01*
X020310Y002760D01*
X020268Y002791D01*
X020227Y002825D01*
X020190Y002862D01*
X020155Y002901D01*
X020161Y002907D01*
X020196Y002868D01*
X020234Y002832D01*
X020273Y002798D01*
X020315Y002767D01*
X020359Y002739D01*
X020404Y002714D01*
X020451Y002692D01*
X020499Y002673D01*
X020549Y002658D01*
X020599Y002645D01*
X020650Y002637D01*
X020702Y002631D01*
X020754Y002629D01*
X020754Y002638D01*
X020703Y002640D01*
X020652Y002645D01*
X020601Y002654D01*
X020551Y002666D01*
X020502Y002682D01*
X020455Y002700D01*
X020408Y002722D01*
X020363Y002747D01*
X020320Y002775D01*
X020279Y002805D01*
X020240Y002838D01*
X020203Y002874D01*
X020168Y002912D01*
X020175Y002918D01*
X020212Y002877D01*
X020252Y002839D01*
X020294Y002805D01*
X020339Y002773D01*
X020386Y002744D01*
X020435Y002719D01*
X020486Y002698D01*
X020537Y002680D01*
X020591Y002666D01*
X020645Y002656D01*
X020699Y002649D01*
X020754Y002647D01*
M02*
