G75*
%MOIN*%
%OFA0B0*%
%FSLAX24Y24*%
%IPPOS*%
%LPD*%
%AMOC8*
5,1,8,0,0,1.08239X$1,22.5*
%
%ADD10C,0.0000*%
%ADD11R,0.0512X0.0512*%
%ADD12C,0.0437*%
D10*
X002267Y002517D02*
X002267Y011017D01*
X008767Y011017D01*
X008767Y002517D01*
X002267Y002517D01*
D11*
X003353Y003892D03*
X003743Y004642D03*
X004180Y003892D03*
X004454Y003868D03*
X005079Y003868D03*
X005704Y003868D03*
X005978Y004017D03*
X006353Y004704D03*
X006805Y004017D03*
X007180Y004704D03*
X007180Y005454D03*
X007180Y006204D03*
X007180Y006954D03*
X007180Y007704D03*
X007180Y008454D03*
X007180Y009204D03*
X007454Y009791D03*
X006767Y009791D03*
X006353Y009204D03*
X006079Y009791D03*
X005392Y009791D03*
X005392Y010618D03*
X006079Y010618D03*
X006767Y010618D03*
X007454Y010618D03*
X008142Y010618D03*
X008142Y009791D03*
X006353Y008454D03*
X006353Y007704D03*
X006353Y006954D03*
X006353Y006204D03*
X006353Y005454D03*
X005704Y003041D03*
X005079Y003041D03*
X004454Y003041D03*
X002916Y004642D03*
D12*
X004079Y004517D03*
X004079Y004892D03*
X004079Y003392D03*
X004079Y003017D03*
X006017Y006079D03*
X006017Y006392D03*
X005954Y008142D03*
X006017Y008517D03*
X005829Y008954D03*
X005829Y009329D03*
X007954Y009454D03*
X008329Y009454D03*
X007142Y004204D03*
X007142Y003829D03*
M02*
